<?xml version="1.0" encoding="UTF-8" standalone="no"?>
<!DOCTYPE svg PUBLIC "-//W3C//DTD SVG 1.1//EN"
 "http://www.w3.org/Graphics/SVG/1.1/DTD/svg11.dtd">
<!-- Generated by graphviz version 2.43.0 (0)
 -->
<!-- Title: ie_pack_fp8_e4m3 Pages: 1 -->
<svg width="238pt" height="104pt"
 viewBox="0.00 0.00 238.00 104.00" xmlns="http://www.w3.org/2000/svg" xmlns:xlink="http://www.w3.org/1999/xlink">
<g id="graph0" class="graph" transform="scale(1 1) rotate(0) translate(4 100)">
<title>ie_pack_fp8_e4m3</title>
<!-- Node1 -->
<g id="node1" class="node">
<title>Node1</title>
<g id="a_node1"><a xlink:title=" ">
<polygon fill="#bfbfbf" stroke="black" points="0,-38.5 0,-57.5 108,-57.5 108,-38.5 0,-38.5"/>
<text text-anchor="middle" x="54" y="-45.5" font-family="Helvetica,sans-Serif" font-size="10.00">ie_pack_fp8_e4m3</text>
</a>
</g>
</g>
<!-- Node2 -->
<g id="node2" class="node">
<title>Node2</title>
<g id="a_node2"><a xlink:href="act__fp8_8c.html#a08593e027322e5927a6665304aba8805" target="_top" xlink:title=" ">
<polygon fill="none" stroke="black" points="147,-76.5 147,-95.5 227,-95.5 227,-76.5 147,-76.5"/>
<text text-anchor="middle" x="187" y="-83.5" font-family="Helvetica,sans-Serif" font-size="10.00">ie_is_inf_u32</text>
</a>
</g>
</g>
<!-- Node1&#45;&gt;Node2 -->
<g id="edge1" class="edge">
<title>Node1&#45;&gt;Node2</title>
<path fill="none" stroke="midnightblue" d="M88.06,-57.59C104.81,-62.45 125.36,-68.41 143.3,-73.61"/>
<polygon fill="midnightblue" stroke="midnightblue" points="142.37,-76.99 152.95,-76.41 144.32,-70.27 142.37,-76.99"/>
</g>
<!-- Node3 -->
<g id="node3" class="node">
<title>Node3</title>
<g id="a_node3"><a xlink:href="act__fp8_8c.html#a95270af9941bb86c1a4f2144cbeed878" target="_top" xlink:title=" ">
<polygon fill="none" stroke="black" points="144,-38.5 144,-57.5 230,-57.5 230,-38.5 144,-38.5"/>
<text text-anchor="middle" x="187" y="-45.5" font-family="Helvetica,sans-Serif" font-size="10.00">ie_is_nan_u32</text>
</a>
</g>
</g>
<!-- Node1&#45;&gt;Node3 -->
<g id="edge2" class="edge">
<title>Node1&#45;&gt;Node3</title>
<path fill="none" stroke="midnightblue" d="M108.28,-48C116.55,-48 125.09,-48 133.34,-48"/>
<polygon fill="midnightblue" stroke="midnightblue" points="133.6,-51.5 143.6,-48 133.6,-44.5 133.6,-51.5"/>
</g>
<!-- Node4 -->
<g id="node4" class="node">
<title>Node4</title>
<g id="a_node4"><a xlink:href="act__fp8_8c.html#a75acd58ddf5bde128ebf893b5186eda3" target="_top" xlink:title=" ">
<polygon fill="none" stroke="black" points="144,-0.5 144,-19.5 230,-19.5 230,-0.5 144,-0.5"/>
<text text-anchor="middle" x="187" y="-7.5" font-family="Helvetica,sans-Serif" font-size="10.00">ie_u32_from_f</text>
</a>
</g>
</g>
<!-- Node1&#45;&gt;Node4 -->
<g id="edge3" class="edge">
<title>Node1&#45;&gt;Node4</title>
<path fill="none" stroke="midnightblue" d="M88.06,-38.41C104.81,-33.55 125.36,-27.59 143.3,-22.39"/>
<polygon fill="midnightblue" stroke="midnightblue" points="144.32,-25.73 152.95,-19.59 142.37,-19.01 144.32,-25.73"/>
</g>
</g>
</svg>
