<?xml version="1.0" encoding="UTF-8" standalone="no"?>
<!DOCTYPE svg PUBLIC "-//W3C//DTD SVG 1.1//EN"
 "http://www.w3.org/Graphics/SVG/1.1/DTD/svg11.dtd">
<!-- Generated by graphviz version 2.43.0 (0)
 -->
<!-- Title: ie_maxf Pages: 1 -->
<!--zoomable 167 -->
<svg id="main" version="1.1" xmlns="http://www.w3.org/2000/svg" xmlns:xlink="http://www.w3.org/1999/xlink" xml:space="preserve" onload="init(evt)">
<style type="text/css"><![CDATA[
.edge:hover path { stroke: red; }
.edge:hover polygon { stroke: red; fill: red; }
]]></style>
<script type="text/javascript"><![CDATA[
var edges = document.getElementsByTagName('g');
if (edges && edges.length) {
  for (var i=0;i<edges.length;i++) {
    if (edges[i].id.substr(0,4)=='edge') {
      edges[i].setAttribute('class','edge');
    }
  }
}
]]></script>
        <defs>
                <circle id="rim" cx="0" cy="0" r="7"/>
                <circle id="rim2" cx="0" cy="0" r="3.5"/>
                <g id="zoomPlus">
                        <use xlink:href="#rim" fill="#404040">
                                <set attributeName="fill" to="#808080" begin="zoomplus.mouseover" end="zoomplus.mouseout"/>
                        </use>
                        <path d="M-4,0h8M0,-4v8" fill="none" stroke="white" stroke-width="1.5" pointer-events="none"/>
                </g>
                <g id="zoomMin">
                        <use xlink:href="#rim" fill="#404040">
                                <set attributeName="fill" to="#808080" begin="zoomminus.mouseover" end="zoomminus.mouseout"/>
                        </use>
                        <path d="M-4,0h8" fill="none" stroke="white" stroke-width="1.5" pointer-events="none"/>
                </g>
                <g id="dirArrow">
                        <path fill="none" stroke="white" stroke-width="1.5" d="M0,-3.0v7 M-2.5,-0.5L0,-3.0L2.5,-0.5"/>
                </g>
               <g id="resetDef">
                       <use xlink:href="#rim2" fill="#404040">
                               <set attributeName="fill" to="#808080" begin="reset.mouseover" end="reset.mouseout"/>
                       </use>
               </g>
        </defs>

<script type="text/javascript">
var viewWidth = 644;
var viewHeight = 167;
var sectionId = 'dynsection-8';
</script>
<script xlink:href="svgpan.js"/>
<svg id="graph" class="graph">
<g id="viewport">
<title>ie_maxf</title>
<!-- Node1 -->
<g id="node1" class="node">
<title>Node1</title>
<g id="a_node1"><a xlink:title=" ">
<polygon fill="#bfbfbf" stroke="black" points="580,-93.02 580,-112.02 636,-112.02 636,-93.02 580,-93.02"/>
<text text-anchor="middle" x="608" y="-100.02" font-family="Helvetica,sans-Serif" font-size="10.00">ie_maxf</text>
</a>
</g>
</g>
<!-- Node2 -->
<g id="node2" class="node">
<title>Node2</title>
<g id="a_node2"><a xlink:href="ie__quant__act_8h.html#ad17e6b199c1c826b681db341c72701ef" target="_top" xlink:title="Compute per&#45;group INT8 parameters for src.">
<polygon fill="none" stroke="black" points="242,-109.52 242,-139.52 377,-139.52 377,-109.52 242,-109.52"/>
<text text-anchor="start" x="250" y="-127.52" font-family="Helvetica,sans-Serif" font-size="10.00">ie_act_i8_group_params</text>
<text text-anchor="middle" x="309.5" y="-116.52" font-family="Helvetica,sans-Serif" font-size="10.00">_from_data</text>
</a>
</g>
</g>
<!-- Node1&#45;&gt;Node2 -->
<g id="edge1" class="edge">
<title>Node1&#45;&gt;Node2</title>
<path fill="none" stroke="midnightblue" d="M569.9,-105.27C521.67,-108.85 436.57,-115.16 377.04,-119.58"/>
<polygon fill="midnightblue" stroke="midnightblue" points="570.19,-108.76 579.9,-104.53 569.67,-101.78 570.19,-108.76"/>
</g>
<!-- Node6 -->
<g id="node6" class="node">
<title>Node6</title>
<g id="a_node6"><a xlink:href="ie__quant__act_8h.html#a383703e828dd5701507b0d1f6ab1cf73" target="_top" xlink:title="Compute per&#45;tensor INT8 parameters from min/max.">
<polygon fill="none" stroke="black" points="413,-65.52 413,-95.52 544,-95.52 544,-65.52 413,-65.52"/>
<text text-anchor="start" x="421" y="-83.52" font-family="Helvetica,sans-Serif" font-size="10.00">ie_act_i8_params_from</text>
<text text-anchor="middle" x="478.5" y="-72.52" font-family="Helvetica,sans-Serif" font-size="10.00">_minmax</text>
</a>
</g>
</g>
<!-- Node1&#45;&gt;Node6 -->
<g id="edge5" class="edge">
<title>Node1&#45;&gt;Node6</title>
<path fill="none" stroke="midnightblue" d="M570.03,-96.14C561.84,-94.73 552.94,-93.19 544.01,-91.65"/>
<polygon fill="midnightblue" stroke="midnightblue" points="569.51,-99.6 579.96,-97.85 570.7,-92.7 569.51,-99.6"/>
</g>
<!-- Node3 -->
<g id="node3" class="node">
<title>Node3</title>
<g id="a_node3"><a xlink:href="ie__kv__cache_8h.html#a5b546a5423f4572607a07d8d55146024" target="_top" xlink:title="Store one token’s K/V using INT8 per&#45;group parameters along head_dim.">
<polygon fill="none" stroke="black" points="77,-128.52 77,-158.52 206,-158.52 206,-128.52 77,-128.52"/>
<text text-anchor="start" x="85" y="-146.52" font-family="Helvetica,sans-Serif" font-size="10.00">ie_kv_store_token_int8</text>
<text text-anchor="middle" x="141.5" y="-135.52" font-family="Helvetica,sans-Serif" font-size="10.00">_per_group</text>
</a>
</g>
</g>
<!-- Node2&#45;&gt;Node3 -->
<g id="edge2" class="edge">
<title>Node2&#45;&gt;Node3</title>
<path fill="none" stroke="midnightblue" d="M231.88,-133.29C223.26,-134.27 214.54,-135.27 206.11,-136.24"/>
<polygon fill="midnightblue" stroke="midnightblue" points="232.4,-136.75 241.94,-132.14 231.6,-129.8 232.4,-136.75"/>
</g>
<!-- Node4 -->
<g id="node4" class="node">
<title>Node4</title>
<g id="a_node4"><a xlink:href="test__act__quant_8c.html#a21e36220792f5bceb2c110dc45605c5e" target="_top" xlink:title=" ">
<polygon fill="none" stroke="black" points="85,-90.02 85,-109.02 198,-109.02 198,-90.02 85,-90.02"/>
<text text-anchor="middle" x="141.5" y="-97.02" font-family="Helvetica,sans-Serif" font-size="10.00">test_int8_per_group</text>
</a>
</g>
</g>
<!-- Node2&#45;&gt;Node4 -->
<g id="edge3" class="edge">
<title>Node2&#45;&gt;Node4</title>
<path fill="none" stroke="midnightblue" d="M231.98,-112.99C220.58,-111.28 209.01,-109.53 198.15,-107.9"/>
<polygon fill="midnightblue" stroke="midnightblue" points="231.53,-116.46 241.94,-114.49 232.57,-109.54 231.53,-116.46"/>
</g>
<!-- Node5 -->
<g id="node5" class="node">
<title>Node5</title>
<g id="a_node5"><a xlink:href="test__act__quant_8c.html#a840291bc02cba5474a4cb46a9b9566fe" target="_top" xlink:title=" ">
<polygon fill="none" stroke="black" points="0,-46.02 0,-65.02 41,-65.02 41,-46.02 0,-46.02"/>
<text text-anchor="middle" x="20.5" y="-53.02" font-family="Helvetica,sans-Serif" font-size="10.00">main</text>
</a>
</g>
</g>
<!-- Node4&#45;&gt;Node5 -->
<g id="edge4" class="edge">
<title>Node4&#45;&gt;Node5</title>
<path fill="none" stroke="midnightblue" d="M95.77,-86.95C89.42,-84.93 83.01,-82.76 77,-80.52 64.82,-75.97 51.53,-70.03 41.01,-65.07"/>
<polygon fill="midnightblue" stroke="midnightblue" points="95.03,-90.38 105.62,-89.98 97.1,-83.69 95.03,-90.38"/>
</g>
<!-- Node6&#45;&gt;Node2 -->
<g id="edge8" class="edge">
<title>Node6&#45;&gt;Node2</title>
<path fill="none" stroke="midnightblue" d="M410.72,-98.11C396.42,-101.88 381.43,-105.83 367.53,-109.49"/>
<polygon fill="midnightblue" stroke="midnightblue" points="411.72,-101.47 420.5,-95.54 409.93,-94.7 411.72,-101.47"/>
</g>
<!-- Node7 -->
<g id="node7" class="node">
<title>Node7</title>
<g id="a_node7"><a xlink:href="microbench__act__path_8c.html#aa8d8e89d147a706279cd7995fcc08571" target="_top" xlink:title=" ">
<polygon fill="none" stroke="black" points="274.5,-71.02 274.5,-90.02 344.5,-90.02 344.5,-71.02 274.5,-71.02"/>
<text text-anchor="middle" x="309.5" y="-78.02" font-family="Helvetica,sans-Serif" font-size="10.00">bench_int8</text>
</a>
</g>
</g>
<!-- Node6&#45;&gt;Node7 -->
<g id="edge6" class="edge">
<title>Node6&#45;&gt;Node7</title>
<path fill="none" stroke="midnightblue" d="M402.72,-80.52C382.4,-80.52 361.39,-80.52 344.56,-80.52"/>
<polygon fill="midnightblue" stroke="midnightblue" points="402.93,-84.02 412.93,-80.52 402.93,-77.02 402.93,-84.02"/>
</g>
<!-- Node9 -->
<g id="node9" class="node">
<title>Node9</title>
<g id="a_node9"><a xlink:href="ie__kv__cache_8h.html#a60418a220d683776a9ff5e04783e67d6" target="_top" xlink:title="Store one token’s K/V using INT8 per&#45;tensor parameters (one scale/zp per head).">
<polygon fill="none" stroke="black" points="245,-21.52 245,-51.52 374,-51.52 374,-21.52 245,-21.52"/>
<text text-anchor="start" x="253" y="-39.52" font-family="Helvetica,sans-Serif" font-size="10.00">ie_kv_store_token_int8</text>
<text text-anchor="middle" x="309.5" y="-28.52" font-family="Helvetica,sans-Serif" font-size="10.00">_per_tensor</text>
</a>
</g>
</g>
<!-- Node6&#45;&gt;Node9 -->
<g id="edge9" class="edge">
<title>Node6&#45;&gt;Node9</title>
<path fill="none" stroke="midnightblue" d="M410.72,-62.92C396.42,-59.15 381.43,-55.2 367.53,-51.54"/>
<polygon fill="midnightblue" stroke="midnightblue" points="409.93,-66.33 420.5,-65.5 411.72,-59.57 409.93,-66.33"/>
</g>
<!-- Node10 -->
<g id="node10" class="node">
<title>Node10</title>
<g id="a_node10"><a xlink:href="test__act__quant_8c.html#a83ac16910c5fbcf8d045ba1a01bc2604" target="_top" xlink:title=" ">
<polygon fill="none" stroke="black" points="83.5,-8.02 83.5,-27.02 199.5,-27.02 199.5,-8.02 83.5,-8.02"/>
<text text-anchor="middle" x="141.5" y="-15.02" font-family="Helvetica,sans-Serif" font-size="10.00">test_int8_per_tensor</text>
</a>
</g>
</g>
<!-- Node6&#45;&gt;Node10 -->
<g id="edge10" class="edge">
<title>Node6&#45;&gt;Node10</title>
<path fill="none" stroke="midnightblue" d="M454.12,-58.68C435.01,-42.42 406.43,-21.54 377,-12.52 314.51,6.64 238.2,-0.19 189.97,-7.95"/>
<polygon fill="midnightblue" stroke="midnightblue" points="451.87,-61.36 461.7,-65.31 456.48,-56.09 451.87,-61.36"/>
</g>
<!-- Node8 -->
<g id="node8" class="node">
<title>Node8</title>
<g id="a_node8"><a xlink:href="microbench__act__path_8c.html#a3c04138a5bfe5d72780bb7e82a18e627" target="_top" xlink:title=" ">
<polygon fill="none" stroke="black" points="121,-52.02 121,-71.02 162,-71.02 162,-52.02 121,-52.02"/>
<text text-anchor="middle" x="141.5" y="-59.02" font-family="Helvetica,sans-Serif" font-size="10.00">main</text>
</a>
</g>
</g>
<!-- Node7&#45;&gt;Node8 -->
<g id="edge7" class="edge">
<title>Node7&#45;&gt;Node8</title>
<path fill="none" stroke="midnightblue" d="M263.76,-75.4C230.67,-71.61 187.18,-66.63 162.29,-63.78"/>
<polygon fill="midnightblue" stroke="midnightblue" points="263.77,-78.92 274.1,-76.58 264.57,-71.97 263.77,-78.92"/>
</g>
<!-- Node10&#45;&gt;Node5 -->
<g id="edge11" class="edge">
<title>Node10&#45;&gt;Node5</title>
<path fill="none" stroke="midnightblue" d="M100.92,-30.16C80.81,-36.58 57.27,-44.09 41.07,-49.27"/>
<polygon fill="midnightblue" stroke="midnightblue" points="102.01,-33.48 110.47,-27.11 99.88,-26.81 102.01,-33.48"/>
</g>
</g>
</svg>
        <g id="navigator" transform="translate(0 0)" fill="#404254">
                <rect fill="#f2f5e9" fill-opacity="0.5" stroke="#606060" stroke-width=".5" x="0" y="0" width="60" height="60"/>
                <use id="zoomplus" xlink:href="#zoomPlus" x="17" y="9" onmousedown="handleZoom(evt,'in')"/>
                <use id="zoomminus" xlink:href="#zoomMin" x="42" y="9" onmousedown="handleZoom(evt,'out')"/>
                <use id="reset" xlink:href="#resetDef" x="30" y="36" onmousedown="handleReset()"/>
                <g id="arrowUp" xlink:href="#dirArrow" transform="translate(30 24)" onmousedown="handlePan(0,-1)">
                  <use xlink:href="#rim" fill="#404040">
                        <set attributeName="fill" to="#808080" begin="arrowUp.mouseover" end="arrowUp.mouseout"/>
                  </use>
                  <path fill="none" stroke="white" stroke-width="1.5" d="M0,-3.0v7 M-2.5,-0.5L0,-3.0L2.5,-0.5"/>
                </g>
                <g id="arrowRight" xlink:href="#dirArrow" transform="rotate(90) translate(36 -43)" onmousedown="handlePan(1,0)">
                  <use xlink:href="#rim" fill="#404040">
                        <set attributeName="fill" to="#808080" begin="arrowRight.mouseover" end="arrowRight.mouseout"/>
                  </use>
                  <path fill="none" stroke="white" stroke-width="1.5" d="M0,-3.0v7 M-2.5,-0.5L0,-3.0L2.5,-0.5"/>
                </g>
                <g id="arrowDown" xlink:href="#dirArrow" transform="rotate(180) translate(-30 -48)" onmousedown="handlePan(0,1)">
                  <use xlink:href="#rim" fill="#404040">
                        <set attributeName="fill" to="#808080" begin="arrowDown.mouseover" end="arrowDown.mouseout"/>
                  </use>
                  <path fill="none" stroke="white" stroke-width="1.5" d="M0,-3.0v7 M-2.5,-0.5L0,-3.0L2.5,-0.5"/>
                </g>
                <g id="arrowLeft" xlink:href="#dirArrow" transform="rotate(270) translate(-36 17)" onmousedown="handlePan(-1,0)">
                  <use xlink:href="#rim" fill="#404040">
                        <set attributeName="fill" to="#808080" begin="arrowLeft.mouseover" end="arrowLeft.mouseout"/>
                  </use>
                  <path fill="none" stroke="white" stroke-width="1.5" d="M0,-3.0v7 M-2.5,-0.5L0,-3.0L2.5,-0.5"/>
                </g>
        </g>
        <svg viewBox="0 0 15 15" width="100%" height="30px" preserveAspectRatio="xMaxYMin meet">
         <g id="arrow_out" transform="scale(0.3 0.3)">
          <a xlink:href="act__int8_8c_ad80154c444341a2ed6f1be5eb0bdb5de_icgraph_org.svg" target="_base">
           <rect id="button" ry="5" rx="5" y="6" x="6" height="38" width="38"
                fill="#f2f5e9" fill-opacity="0.5" stroke="#606060" stroke-width="1.0"/>
           <path id="arrow"
             d="M 11.500037,31.436501 C 11.940474,20.09759 22.043105,11.32322 32.158766,21.979434 L 37.068811,17.246167 C 37.068811,17.246167 37.088388,32 37.088388,32 L 22.160133,31.978069 C 22.160133,31.978069 26.997745,27.140456 26.997745,27.140456 C 18.528582,18.264221 13.291696,25.230495 11.500037,31.436501 z"
             style="fill:#404040;"/>
          </a>
         </g>
        </svg>
</svg>
