<?xml version="1.0" encoding="UTF-8" standalone="no"?>
<!DOCTYPE svg PUBLIC "-//W3C//DTD SVG 1.1//EN"
 "http://www.w3.org/Graphics/SVG/1.1/DTD/svg11.dtd">
<!-- Generated by graphviz version 12.2.1 (20241206.2353)
 -->
<!-- Title: ie_quantize_act_int8_per_group Pages: 1 -->
<svg width="366pt" height="80pt"
 viewBox="0.00 0.00 365.75 80.12" xmlns="http://www.w3.org/2000/svg" xmlns:xlink="http://www.w3.org/1999/xlink">
<g id="graph0" class="graph" transform="scale(1 1) rotate(0) translate(4 76.12)">
<title>ie_quantize_act_int8_per_group</title>
<!-- Node1 -->
<g id="Node000001" class="node">
<title>Node1</title>
<g id="a_Node000001"><a xlink:title="Quantize activations per&#45;group to INT8.">
<polygon fill="#999999" stroke="#666666" points="357.75,-49.12 241.25,-49.12 241.25,-15.62 357.75,-15.62 357.75,-49.12"/>
<text text-anchor="start" x="249.25" y="-35.62" font-family="Helvetica,sans-Serif" font-size="10.00">ie_quantize_act_int8</text>
<text text-anchor="middle" x="299.5" y="-22.88" font-family="Helvetica,sans-Serif" font-size="10.00">_per_group</text>
</a>
</g>
</g>
<!-- Node2 -->
<g id="Node000002" class="node">
<title>Node2</title>
<g id="a_Node000002"><a xlink:href="kv__cache_8c.html#a5b546a5423f4572607a07d8d55146024" target="_top" xlink:title="Store one token’s K/V using INT8 per&#45;group parameters along head_dim.">
<polygon fill="white" stroke="#666666" points="205.25,-72.12 76.75,-72.12 76.75,-38.62 205.25,-38.62 205.25,-72.12"/>
<text text-anchor="start" x="84.75" y="-58.62" font-family="Helvetica,sans-Serif" font-size="10.00">ie_kv_store_token_int8</text>
<text text-anchor="middle" x="141" y="-45.88" font-family="Helvetica,sans-Serif" font-size="10.00">_per_group</text>
</a>
</g>
</g>
<!-- Node1&#45;&gt;Node2 -->
<g id="edge1_Node000001_Node000002" class="edge">
<title>Node1&#45;&gt;Node2</title>
<g id="a_edge1_Node000001_Node000002"><a xlink:title=" ">
<path fill="none" stroke="#63b8ff" d="M229.88,-42.46C221.85,-43.64 213.68,-44.84 205.72,-46.01"/>
<polygon fill="#63b8ff" stroke="#63b8ff" points="230.23,-45.95 239.62,-41.03 229.21,-39.02 230.23,-45.95"/>
</a>
</g>
</g>
<!-- Node3 -->
<g id="Node000003" class="node">
<title>Node3</title>
<g id="a_Node000003"><a xlink:href="test__act__quant_8c.html#a21e36220792f5bceb2c110dc45605c5e" target="_top" xlink:title=" ">
<polygon fill="white" stroke="#666666" points="197.38,-20.75 84.62,-20.75 84.62,0 197.38,0 197.38,-20.75"/>
<text text-anchor="middle" x="141" y="-7.25" font-family="Helvetica,sans-Serif" font-size="10.00">test_int8_per_group</text>
</a>
</g>
</g>
<!-- Node1&#45;&gt;Node3 -->
<g id="edge2_Node000001_Node000003" class="edge">
<title>Node1&#45;&gt;Node3</title>
<g id="a_edge2_Node000001_Node000003"><a xlink:title=" ">
<path fill="none" stroke="#63b8ff" d="M230.02,-22.75C219.26,-21.24 208.25,-19.69 197.81,-18.22"/>
<polygon fill="#63b8ff" stroke="#63b8ff" points="229.23,-26.17 239.62,-24.1 230.2,-19.24 229.23,-26.17"/>
</a>
</g>
</g>
<!-- Node4 -->
<g id="Node000004" class="node">
<title>Node4</title>
<g id="a_Node000004"><a xlink:href="test__act__quant_8c.html#a840291bc02cba5474a4cb46a9b9566fe" target="_top" xlink:title=" ">
<polygon fill="white" stroke="#666666" points="40.75,-20.75 0,-20.75 0,0 40.75,0 40.75,-20.75"/>
<text text-anchor="middle" x="20.38" y="-7.25" font-family="Helvetica,sans-Serif" font-size="10.00">main</text>
</a>
</g>
</g>
<!-- Node3&#45;&gt;Node4 -->
<g id="edge3_Node000003_Node000004" class="edge">
<title>Node3&#45;&gt;Node4</title>
<g id="a_edge3_Node000003_Node000004"><a xlink:title=" ">
<path fill="none" stroke="#63b8ff" d="M72.99,-10.38C61.4,-10.38 50.21,-10.38 41.23,-10.38"/>
<polygon fill="#63b8ff" stroke="#63b8ff" points="72.65,-13.88 82.65,-10.38 72.65,-6.88 72.65,-13.88"/>
</a>
</g>
</g>
</g>
</svg>
