<?xml version="1.0" encoding="UTF-8" standalone="no"?>
<!DOCTYPE svg PUBLIC "-//W3C//DTD SVG 1.1//EN"
 "http://www.w3.org/Graphics/SVG/1.1/DTD/svg11.dtd">
<!-- Generated by graphviz version 12.2.1 (20241206.2353)
 -->
<!-- Title: ie_sat_i8 Pages: 1 -->
<svg width="461pt" height="209pt"
 viewBox="0.00 0.00 461.25 208.75" xmlns="http://www.w3.org/2000/svg" xmlns:xlink="http://www.w3.org/1999/xlink">

<svg id="main" version="1.1" xmlns="http://www.w3.org/2000/svg" xmlns:xlink="http://www.w3.org/1999/xlink" xml:space="preserve">

<style type="text/css"><![CDATA[
.node, .edge {opacity: 0.7;}
.node.selected, .edge.selected {opacity: 1;}
.edge:hover path { stroke: red; }
.edge:hover polygon { stroke: red; fill: red; }
]]></style>
<script type="application/ecmascript" xlink:href="svg.min.js"/>
<svg id="graph" class="graph">
<g id="graph0" class="graph" transform="scale(1 1) rotate(0) translate(4 204.75)">
<title>ie_sat_i8</title>
<!-- Node1 -->
<g id="Node000001" class="node">
<title>Node1</title>
<g id="a_Node000001"><a xlink:title=" ">
<polygon fill="#999999" stroke="#666666" points="453.25,-87.75 393.75,-87.75 393.75,-67 453.25,-67 453.25,-87.75"/>
<text text-anchor="middle" x="423.5" y="-74.25" font-family="Helvetica,sans-Serif" font-size="10.00">ie_sat_i8</text>
</a>
</g>
</g>
<!-- Node2 -->
<g id="Node000002" class="node">
<title>Node2</title>
<g id="a_Node000002"><a xlink:href="act__int8_8c.html#a6d9a5a967125879dcd69327e9d5fa04b" target="_top" xlink:title="Quantize activations to INT8 using per&#45;tensor parameters.">
<polygon fill="white" stroke="#666666" points="357.75,-132.75 241.25,-132.75 241.25,-112 357.75,-112 357.75,-132.75"/>
<text text-anchor="middle" x="299.5" y="-119.25" font-family="Helvetica,sans-Serif" font-size="10.00">ie_quantize_act_int8</text>
</a>
</g>
</g>
<!-- Node1&#45;&gt;Node2 -->
<g id="edge1_Node000001_Node000002" class="edge">
<title>Node1&#45;&gt;Node2</title>
<g id="a_edge1_Node000001_Node000002"><a xlink:title=" ">
<path fill="none" stroke="#63b8ff" d="M382.94,-91.97C365.69,-98.33 345.82,-105.66 329.91,-111.53"/>
<polygon fill="#63b8ff" stroke="#63b8ff" points="383.69,-95.42 391.86,-88.68 381.26,-88.85 383.69,-95.42"/>
</a>
</g>
</g>
<!-- Node8 -->
<g id="Node000008" class="node">
<title>Node8</title>
<g id="a_Node000008"><a xlink:href="act__int8_8c.html#a8e3abfa039c2b7c2fca327f68a2d7b09" target="_top" xlink:title="Quantize activations per&#45;group to INT8.">
<polygon fill="white" stroke="#666666" points="357.75,-72.12 241.25,-72.12 241.25,-38.62 357.75,-38.62 357.75,-72.12"/>
<text text-anchor="start" x="249.25" y="-58.62" font-family="Helvetica,sans-Serif" font-size="10.00">ie_quantize_act_int8</text>
<text text-anchor="middle" x="299.5" y="-45.88" font-family="Helvetica,sans-Serif" font-size="10.00">_per_group</text>
</a>
</g>
</g>
<!-- Node1&#45;&gt;Node8 -->
<g id="edge7_Node000001_Node000008" class="edge">
<title>Node1&#45;&gt;Node8</title>
<g id="a_edge7_Node000001_Node000008"><a xlink:title=" ">
<path fill="none" stroke="#63b8ff" d="M382.1,-70.09C374.43,-68.71 366.28,-67.24 358.2,-65.78"/>
<polygon fill="#63b8ff" stroke="#63b8ff" points="381.33,-73.51 391.79,-71.84 382.57,-66.62 381.33,-73.51"/>
</a>
</g>
</g>
<!-- Node3 -->
<g id="Node000003" class="node">
<title>Node3</title>
<g id="a_Node000003"><a xlink:href="microbench__act__path_8c.html#aa8d8e89d147a706279cd7995fcc08571" target="_top" xlink:title=" ">
<polygon fill="white" stroke="#666666" points="175.62,-200.75 106.38,-200.75 106.38,-180 175.62,-180 175.62,-200.75"/>
<text text-anchor="middle" x="141" y="-187.25" font-family="Helvetica,sans-Serif" font-size="10.00">bench_int8</text>
</a>
</g>
</g>
<!-- Node2&#45;&gt;Node3 -->
<g id="edge2_Node000002_Node000003" class="edge">
<title>Node2&#45;&gt;Node3</title>
<g id="a_edge2_Node000002_Node000003"><a xlink:title=" ">
<path fill="none" stroke="#63b8ff" d="M270.51,-138.9C252.33,-149.17 227.89,-162.12 205.25,-171.38 195.91,-175.19 185.52,-178.63 175.9,-181.5"/>
<polygon fill="#63b8ff" stroke="#63b8ff" points="272.18,-141.97 279.11,-133.96 268.69,-135.9 272.18,-141.97"/>
</a>
</g>
</g>
<!-- Node5 -->
<g id="Node000005" class="node">
<title>Node5</title>
<g id="a_Node000005"><a xlink:href="kv__cache_8c.html#a60418a220d683776a9ff5e04783e67d6" target="_top" xlink:title="Store one token’s K/V using INT8 per&#45;tensor parameters (one scale/zp per head).">
<polygon fill="white" stroke="#666666" points="205.25,-162.12 76.75,-162.12 76.75,-128.62 205.25,-128.62 205.25,-162.12"/>
<text text-anchor="start" x="84.75" y="-148.62" font-family="Helvetica,sans-Serif" font-size="10.00">ie_kv_store_token_int8</text>
<text text-anchor="middle" x="141" y="-135.88" font-family="Helvetica,sans-Serif" font-size="10.00">_per_tensor</text>
</a>
</g>
</g>
<!-- Node2&#45;&gt;Node5 -->
<g id="edge4_Node000002_Node000005" class="edge">
<title>Node2&#45;&gt;Node5</title>
<g id="a_edge4_Node000002_Node000005"><a xlink:title=" ">
<path fill="none" stroke="#63b8ff" d="M229.88,-132.46C221.85,-133.64 213.68,-134.84 205.72,-136.01"/>
<polygon fill="#63b8ff" stroke="#63b8ff" points="230.23,-135.95 239.62,-131.03 229.21,-129.02 230.23,-135.95"/>
</a>
</g>
</g>
<!-- Node6 -->
<g id="Node000006" class="node">
<title>Node6</title>
<g id="a_Node000006"><a xlink:href="test__act__quant_8c.html#a83ac16910c5fbcf8d045ba1a01bc2604" target="_top" xlink:title=" ">
<polygon fill="white" stroke="#666666" points="198.88,-110.75 83.12,-110.75 83.12,-90 198.88,-90 198.88,-110.75"/>
<text text-anchor="middle" x="141" y="-97.25" font-family="Helvetica,sans-Serif" font-size="10.00">test_int8_per_tensor</text>
</a>
</g>
</g>
<!-- Node2&#45;&gt;Node6 -->
<g id="edge5_Node000002_Node000006" class="edge">
<title>Node2&#45;&gt;Node6</title>
<g id="a_edge5_Node000002_Node000006"><a xlink:title=" ">
<path fill="none" stroke="#63b8ff" d="M230.04,-112.75C219.72,-111.3 209.17,-109.82 199.12,-108.4"/>
<polygon fill="#63b8ff" stroke="#63b8ff" points="229.23,-116.17 239.62,-114.1 230.2,-109.24 229.23,-116.17"/>
</a>
</g>
</g>
<!-- Node4 -->
<g id="Node000004" class="node">
<title>Node4</title>
<g id="a_Node000004"><a xlink:href="microbench__act__path_8c.html#a3c04138a5bfe5d72780bb7e82a18e627" target="_top" xlink:title=" ">
<polygon fill="white" stroke="#666666" points="40.75,-200.75 0,-200.75 0,-180 40.75,-180 40.75,-200.75"/>
<text text-anchor="middle" x="20.38" y="-187.25" font-family="Helvetica,sans-Serif" font-size="10.00">main</text>
</a>
</g>
</g>
<!-- Node3&#45;&gt;Node4 -->
<g id="edge3_Node000003_Node000004" class="edge">
<title>Node3&#45;&gt;Node4</title>
<g id="a_edge3_Node000003_Node000004"><a xlink:title=" ">
<path fill="none" stroke="#63b8ff" d="M94.74,-190.38C76.12,-190.38 55.54,-190.38 40.93,-190.38"/>
<polygon fill="#63b8ff" stroke="#63b8ff" points="94.49,-193.88 104.49,-190.38 94.49,-186.88 94.49,-193.88"/>
</a>
</g>
</g>
<!-- Node7 -->
<g id="Node000007" class="node">
<title>Node7</title>
<g id="a_Node000007"><a xlink:href="test__act__quant_8c.html#a840291bc02cba5474a4cb46a9b9566fe" target="_top" xlink:title=" ">
<polygon fill="white" stroke="#666666" points="40.75,-65.75 0,-65.75 0,-45 40.75,-45 40.75,-65.75"/>
<text text-anchor="middle" x="20.38" y="-52.25" font-family="Helvetica,sans-Serif" font-size="10.00">main</text>
</a>
</g>
</g>
<!-- Node6&#45;&gt;Node7 -->
<g id="edge6_Node000006_Node000007" class="edge">
<title>Node6&#45;&gt;Node7</title>
<g id="a_edge6_Node000006_Node000007"><a xlink:title=" ">
<path fill="none" stroke="#63b8ff" d="M89.65,-85.99C85.26,-84.51 80.91,-82.97 76.75,-81.38 64.65,-76.75 51.5,-70.62 41.06,-65.48"/>
<polygon fill="#63b8ff" stroke="#63b8ff" points="88.53,-89.3 99.12,-89.04 90.68,-82.64 88.53,-89.3"/>
</a>
</g>
</g>
<!-- Node9 -->
<g id="Node000009" class="node">
<title>Node9</title>
<g id="a_Node000009"><a xlink:href="kv__cache_8c.html#a5b546a5423f4572607a07d8d55146024" target="_top" xlink:title="Store one token’s K/V using INT8 per&#45;group parameters along head_dim.">
<polygon fill="white" stroke="#666666" points="205.25,-72.12 76.75,-72.12 76.75,-38.62 205.25,-38.62 205.25,-72.12"/>
<text text-anchor="start" x="84.75" y="-58.62" font-family="Helvetica,sans-Serif" font-size="10.00">ie_kv_store_token_int8</text>
<text text-anchor="middle" x="141" y="-45.88" font-family="Helvetica,sans-Serif" font-size="10.00">_per_group</text>
</a>
</g>
</g>
<!-- Node8&#45;&gt;Node9 -->
<g id="edge8_Node000008_Node000009" class="edge">
<title>Node8&#45;&gt;Node9</title>
<g id="a_edge8_Node000008_Node000009"><a xlink:title=" ">
<path fill="none" stroke="#63b8ff" d="M229.61,-55.38C221.66,-55.38 213.59,-55.38 205.72,-55.38"/>
<polygon fill="#63b8ff" stroke="#63b8ff" points="229.6,-58.88 239.6,-55.38 229.6,-51.88 229.6,-58.88"/>
</a>
</g>
</g>
<!-- Node10 -->
<g id="Node000010" class="node">
<title>Node10</title>
<g id="a_Node000010"><a xlink:href="test__act__quant_8c.html#a21e36220792f5bceb2c110dc45605c5e" target="_top" xlink:title=" ">
<polygon fill="white" stroke="#666666" points="197.38,-20.75 84.62,-20.75 84.62,0 197.38,0 197.38,-20.75"/>
<text text-anchor="middle" x="141" y="-7.25" font-family="Helvetica,sans-Serif" font-size="10.00">test_int8_per_group</text>
</a>
</g>
</g>
<!-- Node8&#45;&gt;Node10 -->
<g id="edge9_Node000008_Node000010" class="edge">
<title>Node8&#45;&gt;Node10</title>
<g id="a_edge9_Node000008_Node000010"><a xlink:title=" ">
<path fill="none" stroke="#63b8ff" d="M230.35,-35.78C212.86,-30.75 194.69,-25.52 179.4,-21.13"/>
<polygon fill="#63b8ff" stroke="#63b8ff" points="229.08,-39.06 239.66,-38.46 231.02,-32.33 229.08,-39.06"/>
</a>
</g>
</g>
<!-- Node10&#45;&gt;Node7 -->
<g id="edge10_Node000010_Node000007" class="edge">
<title>Node10&#45;&gt;Node7</title>
<g id="a_edge10_Node000010_Node000007"><a xlink:title=" ">
<path fill="none" stroke="#63b8ff" d="M89.65,-24.76C85.26,-26.24 80.91,-27.78 76.75,-29.38 64.65,-34 51.5,-40.13 41.06,-45.27"/>
<polygon fill="#63b8ff" stroke="#63b8ff" points="90.68,-28.11 99.12,-21.71 88.53,-21.45 90.68,-28.11"/>
</a>
</g>
</g>
</g>
</svg>
</svg>

<style type='text/css'>
<![CDATA[
[data-mouse-over-selected='false'] { opacity: 0.7; }
[data-mouse-over-selected='true']  { opacity: 1.0; }
]]>
</style>
<script type="application/ecmascript"><![CDATA[
document.addEventListener('DOMContentLoaded', (event) => {
  highlightEdges();
  highlightAdjacentNodes();
});
]]></script>
</svg>
