<?xml version="1.0" encoding="UTF-8" standalone="no"?>
<!DOCTYPE svg PUBLIC "-//W3C//DTD SVG 1.1//EN"
 "http://www.w3.org/Graphics/SVG/1.1/DTD/svg11.dtd">
<!-- Generated by graphviz version 2.43.0 (0)
 -->
<!-- Title: append_q4_attn_from_hf.HFIndex.read_tensor_f32 Pages: 1 -->
<svg width="817pt" height="129pt"
 viewBox="0.00 0.00 817.00 129.00" xmlns="http://www.w3.org/2000/svg" xmlns:xlink="http://www.w3.org/1999/xlink">
<g id="graph0" class="graph" transform="scale(1 1) rotate(0) translate(4 125)">
<title>append_q4_attn_from_hf.HFIndex.read_tensor_f32</title>
<!-- Node1 -->
<g id="Node000001" class="node">
<title>Node1</title>
<g id="a_Node000001"><a xlink:title=" ">
<polygon fill="#999999" stroke="#666666" points="156,-78 0,-78 0,-48 156,-48 156,-78"/>
<text text-anchor="start" x="8" y="-66" font-family="Helvetica,sans-Serif" font-size="10.00">append_q4_attn_from</text>
<text text-anchor="middle" x="78" y="-55" font-family="Helvetica,sans-Serif" font-size="10.00">_hf.HFIndex.read_tensor_f32</text>
</a>
</g>
</g>
<!-- Node2 -->
<g id="Node000002" class="node">
<title>Node2</title>
<g id="a_Node000002"><a xlink:href="namespaceappend__q4__attn__from__hf.html#ac500cb15172e0c1dda0f956a3a6f3982" target="_top" xlink:title=" ">
<polygon fill="white" stroke="#666666" points="373.5,-121 230.5,-121 230.5,-91 373.5,-91 373.5,-121"/>
<text text-anchor="start" x="238.5" y="-109" font-family="Helvetica,sans-Serif" font-size="10.00">append_q4_attn_from</text>
<text text-anchor="middle" x="302" y="-98" font-family="Helvetica,sans-Serif" font-size="10.00">_hf.bf16_to_f32_from_u16</text>
</a>
</g>
</g>
<!-- Node1&#45;&gt;Node2 -->
<g id="edge1_Node000001_Node000002" class="edge">
<title>Node1&#45;&gt;Node2</title>
<g id="a_edge1_Node000001_Node000002"><a xlink:title=" ">
<path fill="none" stroke="#63b8ff" d="M156.02,-77.92C176.89,-81.96 199.53,-86.34 220.57,-90.42"/>
<polygon fill="#63b8ff" stroke="#63b8ff" points="219.96,-93.87 230.44,-92.33 221.29,-87 219.96,-93.87"/>
</a>
</g>
</g>
<!-- Node3 -->
<g id="Node000003" class="node">
<title>Node3</title>
<g id="a_Node000003"><a xlink:href="classappend__q4__attn__from__hf_1_1HFIndex.html#a9bb25072dc91bdae30c1e941927af7ce" target="_top" xlink:title=" ">
<polygon fill="white" stroke="#666666" points="364,-35 240,-35 240,-5 364,-5 364,-35"/>
<text text-anchor="start" x="248" y="-23" font-family="Helvetica,sans-Serif" font-size="10.00">append_q4_attn_from</text>
<text text-anchor="middle" x="302" y="-12" font-family="Helvetica,sans-Serif" font-size="10.00">_hf.HFIndex.get_meta</text>
</a>
</g>
</g>
<!-- Node1&#45;&gt;Node3 -->
<g id="edge2_Node000001_Node000003" class="edge">
<title>Node1&#45;&gt;Node3</title>
<g id="a_edge2_Node000001_Node000003"><a xlink:title=" ">
<path fill="none" stroke="#63b8ff" d="M156.02,-48.08C180.02,-43.43 206.36,-38.33 229.93,-33.77"/>
<polygon fill="#63b8ff" stroke="#63b8ff" points="230.7,-37.18 239.85,-31.84 229.37,-30.31 230.7,-37.18"/>
</a>
</g>
</g>
<!-- Node8 -->
<g id="Node000008" class="node">
<title>Node8</title>
<g id="a_Node000008"><a xlink:href="classpack__moe__q4__from__hf_1_1HFIndex.html#a24a9941eae4dfb9ac4f2ca1994c007ff" target="_top" xlink:title=" ">
<polygon fill="white" stroke="#666666" points="412,-72.5 192,-72.5 192,-53.5 412,-53.5 412,-72.5"/>
<text text-anchor="middle" x="302" y="-60.5" font-family="Helvetica,sans-Serif" font-size="10.00">pack_moe_q4_from_hf.HFIndex.get_meta</text>
</a>
</g>
</g>
<!-- Node1&#45;&gt;Node8 -->
<g id="edge7_Node000001_Node000008" class="edge">
<title>Node1&#45;&gt;Node8</title>
<g id="a_edge7_Node000001_Node000008"><a xlink:title=" ">
<path fill="none" stroke="#63b8ff" d="M156.02,-63C164.3,-63 172.86,-63 181.49,-63"/>
<polygon fill="#63b8ff" stroke="#63b8ff" points="181.64,-66.5 191.64,-63 181.64,-59.5 181.64,-66.5"/>
</a>
</g>
</g>
<!-- Node4 -->
<g id="Node000004" class="node">
<title>Node4</title>
<g id="a_Node000004"><a xlink:href="classappend__q4__attn__from__hf_1_1HFIndex.html#aff214eacec8f97dc07a9532c5e973ae9" target="_top" xlink:title=" ">
<polygon fill="white" stroke="#666666" points="602.5,-89.5 466.5,-89.5 466.5,-48.5 602.5,-48.5 602.5,-89.5"/>
<text text-anchor="start" x="474.5" y="-77.5" font-family="Helvetica,sans-Serif" font-size="10.00">append_q4_attn_from</text>
<text text-anchor="start" x="474.5" y="-66.5" font-family="Helvetica,sans-Serif" font-size="10.00">_hf.HFIndex._load_shard</text>
<text text-anchor="middle" x="534.5" y="-55.5" font-family="Helvetica,sans-Serif" font-size="10.00">_header</text>
</a>
</g>
</g>
<!-- Node3&#45;&gt;Node4 -->
<g id="edge3_Node000003_Node000004" class="edge">
<title>Node3&#45;&gt;Node4</title>
<g id="a_edge3_Node000003_Node000004"><a xlink:title=" ">
<path fill="none" stroke="#63b8ff" d="M364.16,-33C392.44,-39.01 426.34,-46.22 456.35,-52.6"/>
<polygon fill="#63b8ff" stroke="#63b8ff" points="455.86,-56.07 466.37,-54.73 457.32,-49.23 455.86,-56.07"/>
</a>
</g>
</g>
<!-- Node6 -->
<g id="Node000006" class="node">
<title>Node6</title>
<g id="a_Node000006"><a xlink:href="classpack__moe__q4__from__hf_1_1HFIndex.html#a0ce0d97ba80f913b837014f3ee2ec8e3" target="_top" xlink:title=" ">
<polygon fill="white" stroke="#666666" points="621,-30 448,-30 448,0 621,0 621,-30"/>
<text text-anchor="start" x="456" y="-18" font-family="Helvetica,sans-Serif" font-size="10.00">pack_moe_q4_from_hf.HFIndex.</text>
<text text-anchor="middle" x="534.5" y="-7" font-family="Helvetica,sans-Serif" font-size="10.00">_load_shard_header</text>
</a>
</g>
</g>
<!-- Node3&#45;&gt;Node6 -->
<g id="edge5_Node000003_Node000006" class="edge">
<title>Node3&#45;&gt;Node6</title>
<g id="a_edge5_Node000003_Node000006"><a xlink:title=" ">
<path fill="none" stroke="#63b8ff" d="M364.16,-18.67C386.67,-18.19 412.74,-17.62 437.57,-17.08"/>
<polygon fill="#63b8ff" stroke="#63b8ff" points="437.83,-20.58 447.75,-16.86 437.68,-13.58 437.83,-20.58"/>
</a>
</g>
</g>
<!-- Node5 -->
<g id="Node000005" class="node">
<title>Node5</title>
<g id="a_Node000005"><a xlink:href="namespaceappend__q4__attn__from__hf.html#a74d24b0d1c284ae65ba764e9dbd77e12" target="_top" xlink:title=" ">
<polygon fill="white" stroke="#666666" points="794.5,-89.5 671.5,-89.5 671.5,-48.5 794.5,-48.5 794.5,-89.5"/>
<text text-anchor="start" x="679.5" y="-77.5" font-family="Helvetica,sans-Serif" font-size="10.00">append_q4_attn_from</text>
<text text-anchor="start" x="679.5" y="-66.5" font-family="Helvetica,sans-Serif" font-size="10.00">_hf.read_safetensors</text>
<text text-anchor="middle" x="733" y="-55.5" font-family="Helvetica,sans-Serif" font-size="10.00">_header</text>
</a>
</g>
</g>
<!-- Node4&#45;&gt;Node5 -->
<g id="edge4_Node000004_Node000005" class="edge">
<title>Node4&#45;&gt;Node5</title>
<g id="a_edge4_Node000004_Node000005"><a xlink:title=" ">
<path fill="none" stroke="#63b8ff" d="M602.57,-69C621.52,-69 642.19,-69 661.33,-69"/>
<polygon fill="#63b8ff" stroke="#63b8ff" points="661.49,-72.5 671.49,-69 661.49,-65.5 661.49,-72.5"/>
</a>
</g>
</g>
<!-- Node7 -->
<g id="Node000007" class="node">
<title>Node7</title>
<g id="a_Node000007"><a xlink:href="namespacepack__moe__q4__from__hf.html#a376a97a5d6f387cabe216dd4c7a061ca" target="_top" xlink:title=" ">
<polygon fill="white" stroke="#666666" points="809,-30 657,-30 657,0 809,0 809,-30"/>
<text text-anchor="start" x="665" y="-18" font-family="Helvetica,sans-Serif" font-size="10.00">pack_moe_q4_from_hf.read</text>
<text text-anchor="middle" x="733" y="-7" font-family="Helvetica,sans-Serif" font-size="10.00">_safetensors_header</text>
</a>
</g>
</g>
<!-- Node6&#45;&gt;Node7 -->
<g id="edge6_Node000006_Node000007" class="edge">
<title>Node6&#45;&gt;Node7</title>
<g id="a_edge6_Node000006_Node000007"><a xlink:title=" ">
<path fill="none" stroke="#63b8ff" d="M621.12,-15C629.57,-15 638.15,-15 646.61,-15"/>
<polygon fill="#63b8ff" stroke="#63b8ff" points="646.84,-18.5 656.84,-15 646.84,-11.5 646.84,-18.5"/>
</a>
</g>
</g>
<!-- Node8&#45;&gt;Node4 -->
<g id="edge8_Node000008_Node000004" class="edge">
<title>Node8&#45;&gt;Node4</title>
<g id="a_edge8_Node000008_Node000004"><a xlink:title=" ">
<path fill="none" stroke="#63b8ff" d="M412.17,-65.84C427.06,-66.23 442.09,-66.62 456.25,-66.99"/>
<polygon fill="#63b8ff" stroke="#63b8ff" points="456.31,-70.49 466.39,-67.25 456.49,-63.49 456.31,-70.49"/>
</a>
</g>
</g>
<!-- Node8&#45;&gt;Node6 -->
<g id="edge9_Node000008_Node000006" class="edge">
<title>Node8&#45;&gt;Node6</title>
<g id="a_edge9_Node000008_Node000006"><a xlink:title=" ">
<path fill="none" stroke="#63b8ff" d="M361.67,-53.46C378.01,-50.61 395.73,-47.36 412,-44 428.87,-40.52 446.96,-36.41 463.9,-32.39"/>
<polygon fill="#63b8ff" stroke="#63b8ff" points="464.81,-35.77 473.72,-30.04 463.18,-28.97 464.81,-35.77"/>
</a>
</g>
</g>
</g>
</svg>
