<?xml version="1.0" encoding="UTF-8" standalone="no"?>
<!DOCTYPE svg PUBLIC "-//W3C//DTD SVG 1.1//EN"
 "http://www.w3.org/Graphics/SVG/1.1/DTD/svg11.dtd">
<!-- Generated by graphviz version 12.2.1 (20241206.2353)
 -->
<!-- Title: test_determinism.DeterminismTests Pages: 1 -->
<svg width="169pt" height="178pt"
 viewBox="0.00 0.00 169.00 178.00" xmlns="http://www.w3.org/2000/svg" xmlns:xlink="http://www.w3.org/1999/xlink">
<g id="graph0" class="graph" transform="scale(1 1) rotate(0) translate(4 174)">
<title>test_determinism.DeterminismTests</title>
<!-- Node1 -->
<g id="Node000001" class="node">
<title>Node1</title>
<g id="a_Node000001"><a xlink:title=" ">
<polygon fill="#999999" stroke="none" points="161,-79.75 0,-79.75 0,0 161,0 161,-79.75"/>
<text text-anchor="start" x="4" y="-66.25" font-family="Helvetica,sans-Serif" font-size="10.00">test_determinism.Determinism</text>
<text text-anchor="start" x="68.12" y="-53.5" font-family="Helvetica,sans-Serif" font-size="10.00">Tests</text>
<text text-anchor="start" x="79" y="-36.75" font-family="Helvetica,sans-Serif" font-size="10.00"> </text>
<text text-anchor="start" x="8.25" y="-20" font-family="Helvetica,sans-Serif" font-size="10.00">+</text>
<text text-anchor="start" x="24.75" y="-20" font-family="Helvetica,sans-Serif" font-size="10.00">test_same_prompt_same</text>
<text text-anchor="start" x="24.75" y="-7.25" font-family="Helvetica,sans-Serif" font-size="10.00">_output_short_run()</text>
<polygon fill="#666666" stroke="#666666" points="0,-48.25 0,-48.25 161,-48.25 161,-48.25 0,-48.25"/>
<polygon fill="#666666" stroke="#666666" points="0,-31.5 0,-31.5 161,-31.5 161,-31.5 0,-31.5"/>
<polygon fill="none" stroke="#666666" points="0,0 0,-79.75 161,-79.75 161,0 0,0"/>
</a>
</g>
</g>
<!-- Node2 -->
<g id="Node000002" class="node">
<title>Node2</title>
<g id="a_Node000002"><a xlink:title=" ">
<polygon fill="white" stroke="none" points="126.5,-170 34.5,-170 34.5,-115.75 126.5,-115.75 126.5,-170"/>
<text text-anchor="start" x="38.5" y="-156.5" font-family="Helvetica,sans-Serif" font-size="10.00">unittest.TestCase</text>
<text text-anchor="start" x="79" y="-139.75" font-family="Helvetica,sans-Serif" font-size="10.00"> </text>
<text text-anchor="start" x="79" y="-123" font-family="Helvetica,sans-Serif" font-size="10.00"> </text>
<polygon fill="#666666" stroke="#666666" points="34.5,-151.25 34.5,-151.25 126.5,-151.25 126.5,-151.25 34.5,-151.25"/>
<polygon fill="#666666" stroke="#666666" points="34.5,-134.5 34.5,-134.5 126.5,-134.5 126.5,-134.5 34.5,-134.5"/>
<polygon fill="none" stroke="#666666" points="34.5,-115.75 34.5,-170 126.5,-170 126.5,-115.75 34.5,-115.75"/>
</a>
</g>
</g>
<!-- Node2&#45;&gt;Node1 -->
<g id="edge1_Node000001_Node000002" class="edge">
<title>Node2&#45;&gt;Node1</title>
<g id="a_edge1_Node000001_Node000002"><a xlink:title=" ">
<path fill="none" stroke="#63b8ff" d="M80.5,-104.37C80.5,-96.21 80.5,-87.57 80.5,-79.37"/>
<polygon fill="none" stroke="#63b8ff" points="77,-104.35 80.5,-114.35 84,-104.35 77,-104.35"/>
</a>
</g>
</g>
</g>
</svg>
