<?xml version="1.0" encoding="UTF-8" standalone="no"?>
<!DOCTYPE svg PUBLIC "-//W3C//DTD SVG 1.1//EN"
 "http://www.w3.org/Graphics/SVG/1.1/DTD/svg11.dtd">
<!-- Generated by graphviz version 12.2.1 (20241206.2353)
 -->
<!-- Title: test_ptq_calib_pipeline.PTQCalibPipelineTests Pages: 1 -->
<svg width="156pt" height="199pt"
 viewBox="0.00 0.00 155.75 198.75" xmlns="http://www.w3.org/2000/svg" xmlns:xlink="http://www.w3.org/1999/xlink">

<svg id="main" version="1.1" xmlns="http://www.w3.org/2000/svg" xmlns:xlink="http://www.w3.org/1999/xlink" xml:space="preserve">

<style type="text/css"><![CDATA[
.node, .edge {opacity: 0.7;}
.node.selected, .edge.selected {opacity: 1;}
.edge:hover path { stroke: red; }
.edge:hover polygon { stroke: red; fill: red; }
]]></style>
<script type="application/ecmascript" xlink:href="svg.min.js"/>
<svg id="graph" class="graph">
<g id="graph0" class="graph" transform="scale(1 1) rotate(0) translate(4 194.75)">
<title>test_ptq_calib_pipeline.PTQCalibPipelineTests</title>
<!-- Node1 -->
<g id="Node000001" class="node">
<title>Node1</title>
<g id="a_Node000001"><a xlink:title=" ">
<polygon fill="#999999" stroke="none" points="147.75,-100.5 0,-100.5 0,0 147.75,0 147.75,-100.5"/>
<text text-anchor="start" x="16.12" y="-87" font-family="Helvetica,sans-Serif" font-size="10.00">test_ptq_calib_pipeline.</text>
<text text-anchor="start" x="19.88" y="-74.25" font-family="Helvetica,sans-Serif" font-size="10.00">PTQCalibPipelineTests</text>
<text text-anchor="start" x="72.38" y="-57.5" font-family="Helvetica,sans-Serif" font-size="10.00"> </text>
<text text-anchor="start" x="4" y="-40.75" font-family="Helvetica,sans-Serif" font-size="10.00">+</text>
<text text-anchor="start" x="16.25" y="-40.75" font-family="Helvetica,sans-Serif" font-size="10.00">run_ptq()</text>
<text text-anchor="start" x="4" y="-24" font-family="Helvetica,sans-Serif" font-size="10.00">+</text>
<text text-anchor="start" x="16.25" y="-24" font-family="Helvetica,sans-Serif" font-size="10.00">test_per_row_pipeline()</text>
<text text-anchor="start" x="4" y="-7.25" font-family="Helvetica,sans-Serif" font-size="10.00">+</text>
<text text-anchor="start" x="16.25" y="-7.25" font-family="Helvetica,sans-Serif" font-size="10.00">test_per_tensor_pipeline()</text>
<polygon fill="#666666" stroke="#666666" points="0,-69 0,-69 147.75,-69 147.75,-69 0,-69"/>
<polygon fill="#666666" stroke="#666666" points="0,-52.25 0,-52.25 147.75,-52.25 147.75,-52.25 0,-52.25"/>
<polygon fill="none" stroke="#666666" points="0,0 0,-100.5 147.75,-100.5 147.75,0 0,0"/>
</a>
</g>
</g>
<!-- Node2 -->
<g id="Node000002" class="node">
<title>Node2</title>
<g id="a_Node000002"><a xlink:title=" ">
<polygon fill="white" stroke="none" points="119.88,-190.75 27.88,-190.75 27.88,-136.5 119.88,-136.5 119.88,-190.75"/>
<text text-anchor="start" x="31.88" y="-177.25" font-family="Helvetica,sans-Serif" font-size="10.00">unittest.TestCase</text>
<text text-anchor="start" x="72.38" y="-160.5" font-family="Helvetica,sans-Serif" font-size="10.00"> </text>
<text text-anchor="start" x="72.38" y="-143.75" font-family="Helvetica,sans-Serif" font-size="10.00"> </text>
<polygon fill="#666666" stroke="#666666" points="27.88,-172 27.88,-172 119.88,-172 119.88,-172 27.88,-172"/>
<polygon fill="#666666" stroke="#666666" points="27.88,-155.25 27.88,-155.25 119.88,-155.25 119.88,-155.25 27.88,-155.25"/>
<polygon fill="none" stroke="#666666" points="27.88,-136.5 27.88,-190.75 119.88,-190.75 119.88,-136.5 27.88,-136.5"/>
</a>
</g>
</g>
<!-- Node2&#45;&gt;Node1 -->
<g id="edge1_Node000001_Node000002" class="edge">
<title>Node2&#45;&gt;Node1</title>
<g id="a_edge1_Node000001_Node000002"><a xlink:title=" ">
<path fill="none" stroke="#63b8ff" d="M73.88,-125.01C73.88,-117.1 73.88,-108.64 73.88,-100.37"/>
<polygon fill="none" stroke="#63b8ff" points="70.38,-125 73.88,-135 77.38,-125 70.38,-125"/>
</a>
</g>
</g>
</g>
</svg>
</svg>

<style type='text/css'>
<![CDATA[
[data-mouse-over-selected='false'] { opacity: 0.7; }
[data-mouse-over-selected='true']  { opacity: 1.0; }
]]>
</style>
<script type="application/ecmascript"><![CDATA[
document.addEventListener('DOMContentLoaded', (event) => {
  highlightEdges();
  highlightAdjacentNodes();
});
]]></script>
</svg>
