<?xml version="1.0" encoding="UTF-8" standalone="no"?>
<!DOCTYPE svg PUBLIC "-//W3C//DTD SVG 1.1//EN"
 "http://www.w3.org/Graphics/SVG/1.1/DTD/svg11.dtd">
<!-- Generated by graphviz version 12.2.1 (20241206.2353)
 -->
<!-- Title: metrics_exporter.Handler.do_GET Pages: 1 -->
<svg width="557pt" height="178pt"
 viewBox="0.00 0.00 557.00 178.12" xmlns="http://www.w3.org/2000/svg" xmlns:xlink="http://www.w3.org/1999/xlink">
<g id="graph0" class="graph" transform="scale(1 1) rotate(0) translate(4 174.12)">
<title>metrics_exporter.Handler.do_GET</title>
<!-- Node1 -->
<g id="Node000001" class="node">
<title>Node1</title>
<g id="a_Node000001"><a xlink:title=" ">
<polygon fill="#999999" stroke="#666666" points="178.75,-111.75 0,-111.75 0,-91 178.75,-91 178.75,-111.75"/>
<text text-anchor="middle" x="89.38" y="-98.25" font-family="Helvetica,sans-Serif" font-size="10.00">metrics_exporter.Handler.do_GET</text>
</a>
</g>
</g>
<!-- Node2 -->
<g id="Node000002" class="node">
<title>Node2</title>
<g id="a_Node000002"><a xlink:href="namespacemetrics__exporter.html#ab6cd6cba024cfad0fe4d6606d65f1d49" target="_top" xlink:title=" ">
<polygon fill="white" stroke="#666666" points="346.25,-170.12 221.5,-170.12 221.5,-136.62 346.25,-136.62 346.25,-170.12"/>
<text text-anchor="start" x="229.5" y="-156.62" font-family="Helvetica,sans-Serif" font-size="10.00">metrics_exporter._find</text>
<text text-anchor="middle" x="283.88" y="-143.88" font-family="Helvetica,sans-Serif" font-size="10.00">_latest_json</text>
</a>
</g>
</g>
<!-- Node1&#45;&gt;Node2 -->
<g id="edge1_Node000001_Node000002" class="edge">
<title>Node1&#45;&gt;Node2</title>
<g id="a_edge1_Node000001_Node000002"><a xlink:title=" ">
<path fill="none" stroke="#63b8ff" d="M130.26,-112.15C153.3,-118.37 182.98,-126.39 210.04,-133.7"/>
<polygon fill="#63b8ff" stroke="#63b8ff" points="209.02,-137.05 219.59,-136.28 210.85,-130.29 209.02,-137.05"/>
</a>
</g>
</g>
<!-- Node3 -->
<g id="Node000003" class="node">
<title>Node3</title>
<g id="a_Node000003"><a xlink:href="namespacemetrics__exporter.html#adede09217ca3ed9726ee590854e97c51" target="_top" xlink:title=" ">
<polygon fill="white" stroke="#666666" points="347.75,-118.12 220,-118.12 220,-84.62 347.75,-84.62 347.75,-118.12"/>
<text text-anchor="start" x="228" y="-104.62" font-family="Helvetica,sans-Serif" font-size="10.00">metrics_exporter._load</text>
<text text-anchor="middle" x="283.88" y="-91.88" font-family="Helvetica,sans-Serif" font-size="10.00">_one_json_file</text>
</a>
</g>
</g>
<!-- Node1&#45;&gt;Node3 -->
<g id="edge2_Node000001_Node000003" class="edge">
<title>Node1&#45;&gt;Node3</title>
<g id="a_edge2_Node000001_Node000003"><a xlink:title=" ">
<path fill="none" stroke="#63b8ff" d="M179.02,-101.38C188.77,-101.38 198.63,-101.38 208.18,-101.38"/>
<polygon fill="#63b8ff" stroke="#63b8ff" points="208.15,-104.88 218.15,-101.38 208.15,-97.88 208.15,-104.88"/>
</a>
</g>
</g>
<!-- Node4 -->
<g id="Node000004" class="node">
<title>Node4</title>
<g id="a_Node000004"><a xlink:href="namespacemetrics__exporter.html#a81c84bf60f85d728f2c125f3ba9419f7" target="_top" xlink:title=" ">
<polygon fill="white" stroke="#666666" points="353,-66.12 214.75,-66.12 214.75,-32.62 353,-32.62 353,-66.12"/>
<text text-anchor="start" x="222.75" y="-52.62" font-family="Helvetica,sans-Serif" font-size="10.00">metrics_exporter.collect</text>
<text text-anchor="middle" x="283.88" y="-39.88" font-family="Helvetica,sans-Serif" font-size="10.00">_metrics_from_summary</text>
</a>
</g>
</g>
<!-- Node1&#45;&gt;Node4 -->
<g id="edge3_Node000001_Node000004" class="edge">
<title>Node1&#45;&gt;Node4</title>
<g id="a_edge3_Node000001_Node000004"><a xlink:title=" ">
<path fill="none" stroke="#63b8ff" d="M130.26,-90.6C152.81,-84.51 181.74,-76.69 208.33,-69.51"/>
<polygon fill="#63b8ff" stroke="#63b8ff" points="208.97,-72.97 217.71,-66.98 207.14,-66.21 208.97,-72.97"/>
</a>
</g>
</g>
<!-- Node5 -->
<g id="Node000005" class="node">
<title>Node5</title>
<g id="a_Node000005"><a xlink:href="namespacemetrics__exporter.html#a524a69c6d1d2cb93c5395e646fd38a17" target="_top" xlink:title=" ">
<polygon fill="white" stroke="#666666" points="549,-98.75 389,-98.75 389,-78 549,-78 549,-98.75"/>
<text text-anchor="middle" x="469" y="-85.25" font-family="Helvetica,sans-Serif" font-size="10.00">metrics_exporter._gauge_line</text>
</a>
</g>
</g>
<!-- Node4&#45;&gt;Node5 -->
<g id="edge4_Node000004_Node000005" class="edge">
<title>Node4&#45;&gt;Node5</title>
<g id="a_edge4_Node000004_Node000005"><a xlink:title=" ">
<path fill="none" stroke="#63b8ff" d="M353.32,-63.95C370.66,-67.64 389.17,-71.59 406.16,-75.2"/>
<polygon fill="#63b8ff" stroke="#63b8ff" points="405.08,-78.55 415.59,-77.21 406.54,-71.71 405.08,-78.55"/>
</a>
</g>
</g>
<!-- Node6 -->
<g id="Node000006" class="node">
<title>Node6</title>
<g id="a_Node000006"><a xlink:href="namespacemetrics__exporter.html#a4a94480fb22d48f18b188821dcefad52" target="_top" xlink:title=" ">
<polygon fill="white" stroke="#666666" points="546.38,-59.75 391.62,-59.75 391.62,-39 546.38,-39 546.38,-59.75"/>
<text text-anchor="middle" x="469" y="-46.25" font-family="Helvetica,sans-Serif" font-size="10.00">metrics_exporter._help_type</text>
</a>
</g>
</g>
<!-- Node4&#45;&gt;Node6 -->
<g id="edge5_Node000004_Node000006" class="edge">
<title>Node4&#45;&gt;Node6</title>
<g id="a_edge5_Node000004_Node000006"><a xlink:title=" ">
<path fill="none" stroke="#63b8ff" d="M353.32,-49.38C362.04,-49.38 371.05,-49.38 380.02,-49.38"/>
<polygon fill="#63b8ff" stroke="#63b8ff" points="379.81,-52.88 389.81,-49.38 379.81,-45.88 379.81,-52.88"/>
</a>
</g>
</g>
<!-- Node7 -->
<g id="Node000007" class="node">
<title>Node7</title>
<g id="a_Node000007"><a xlink:href="namespacemetrics__exporter.html#a19ebb3e24ffe47ca3dc9b2a184c35b2a" target="_top" xlink:title=" ">
<polygon fill="white" stroke="#666666" points="543.38,-20.75 394.62,-20.75 394.62,0 543.38,0 543.38,-20.75"/>
<text text-anchor="middle" x="469" y="-7.25" font-family="Helvetica,sans-Serif" font-size="10.00">metrics_exporter._label_str</text>
</a>
</g>
</g>
<!-- Node4&#45;&gt;Node7 -->
<g id="edge6_Node000004_Node000007" class="edge">
<title>Node4&#45;&gt;Node7</title>
<g id="a_edge6_Node000004_Node000007"><a xlink:title=" ">
<path fill="none" stroke="#63b8ff" d="M353.32,-34.8C370.66,-31.11 389.17,-27.16 406.16,-23.55"/>
<polygon fill="#63b8ff" stroke="#63b8ff" points="406.54,-27.04 415.59,-21.54 405.08,-20.2 406.54,-27.04"/>
</a>
</g>
</g>
</g>
</svg>
