<?xml version="1.0" encoding="UTF-8" standalone="no"?>
<!DOCTYPE svg PUBLIC "-//W3C//DTD SVG 1.1//EN"
 "http://www.w3.org/Graphics/SVG/1.1/DTD/svg11.dtd">
<!-- Generated by graphviz version 2.43.0 (0)
 -->
<!-- Title: pack_moe_q4_from_hf.HFIndex.get_meta Pages: 1 -->
<svg width="625pt" height="98pt"
 viewBox="0.00 0.00 625.00 97.50" xmlns="http://www.w3.org/2000/svg" xmlns:xlink="http://www.w3.org/1999/xlink">
<g id="graph0" class="graph" transform="scale(1 1) rotate(0) translate(4 93.5)">
<title>pack_moe_q4_from_hf.HFIndex.get_meta</title>
<!-- Node1 -->
<g id="Node000001" class="node">
<title>Node1</title>
<g id="a_Node000001"><a xlink:title=" ">
<polygon fill="#999999" stroke="#666666" points="220,-51.5 0,-51.5 0,-32.5 220,-32.5 220,-51.5"/>
<text text-anchor="middle" x="110" y="-39.5" font-family="Helvetica,sans-Serif" font-size="10.00">pack_moe_q4_from_hf.HFIndex.get_meta</text>
</a>
</g>
</g>
<!-- Node2 -->
<g id="Node000002" class="node">
<title>Node2</title>
<g id="a_Node000002"><a xlink:href="classappend__q4__attn__from__hf_1_1HFIndex.html#aff214eacec8f97dc07a9532c5e973ae9" target="_top" xlink:title=" ">
<polygon fill="white" stroke="#666666" points="410.5,-89.5 274.5,-89.5 274.5,-48.5 410.5,-48.5 410.5,-89.5"/>
<text text-anchor="start" x="282.5" y="-77.5" font-family="Helvetica,sans-Serif" font-size="10.00">append_q4_attn_from</text>
<text text-anchor="start" x="282.5" y="-66.5" font-family="Helvetica,sans-Serif" font-size="10.00">_hf.HFIndex._load_shard</text>
<text text-anchor="middle" x="342.5" y="-55.5" font-family="Helvetica,sans-Serif" font-size="10.00">_header</text>
</a>
</g>
</g>
<!-- Node1&#45;&gt;Node2 -->
<g id="edge1_Node000001_Node000002" class="edge">
<title>Node1&#45;&gt;Node2</title>
<g id="a_edge1_Node000001_Node000002"><a xlink:title=" ">
<path fill="none" stroke="#63b8ff" d="M192.27,-51.52C215.64,-54.26 241.06,-57.23 264.18,-59.94"/>
<polygon fill="#63b8ff" stroke="#63b8ff" points="263.94,-63.44 274.28,-61.13 264.76,-56.49 263.94,-63.44"/>
</a>
</g>
</g>
<!-- Node4 -->
<g id="Node000004" class="node">
<title>Node4</title>
<g id="a_Node000004"><a xlink:href="classpack__moe__q4__from__hf_1_1HFIndex.html#a0ce0d97ba80f913b837014f3ee2ec8e3" target="_top" xlink:title=" ">
<polygon fill="white" stroke="#666666" points="429,-30 256,-30 256,0 429,0 429,-30"/>
<text text-anchor="start" x="264" y="-18" font-family="Helvetica,sans-Serif" font-size="10.00">pack_moe_q4_from_hf.HFIndex.</text>
<text text-anchor="middle" x="342.5" y="-7" font-family="Helvetica,sans-Serif" font-size="10.00">_load_shard_header</text>
</a>
</g>
</g>
<!-- Node1&#45;&gt;Node4 -->
<g id="edge3_Node000001_Node000004" class="edge">
<title>Node1&#45;&gt;Node4</title>
<g id="a_edge3_Node000001_Node000004"><a xlink:title=" ">
<path fill="none" stroke="#63b8ff" d="M192.27,-32.48C209.49,-30.46 227.83,-28.31 245.55,-26.24"/>
<polygon fill="#63b8ff" stroke="#63b8ff" points="246.37,-29.67 255.89,-25.03 245.55,-22.72 246.37,-29.67"/>
</a>
</g>
</g>
<!-- Node3 -->
<g id="Node000003" class="node">
<title>Node3</title>
<g id="a_Node000003"><a xlink:href="namespaceappend__q4__attn__from__hf.html#a74d24b0d1c284ae65ba764e9dbd77e12" target="_top" xlink:title=" ">
<polygon fill="white" stroke="#666666" points="602.5,-89.5 479.5,-89.5 479.5,-48.5 602.5,-48.5 602.5,-89.5"/>
<text text-anchor="start" x="487.5" y="-77.5" font-family="Helvetica,sans-Serif" font-size="10.00">append_q4_attn_from</text>
<text text-anchor="start" x="487.5" y="-66.5" font-family="Helvetica,sans-Serif" font-size="10.00">_hf.read_safetensors</text>
<text text-anchor="middle" x="541" y="-55.5" font-family="Helvetica,sans-Serif" font-size="10.00">_header</text>
</a>
</g>
</g>
<!-- Node2&#45;&gt;Node3 -->
<g id="edge2_Node000002_Node000003" class="edge">
<title>Node2&#45;&gt;Node3</title>
<g id="a_edge2_Node000002_Node000003"><a xlink:title=" ">
<path fill="none" stroke="#63b8ff" d="M410.57,-69C429.52,-69 450.19,-69 469.33,-69"/>
<polygon fill="#63b8ff" stroke="#63b8ff" points="469.49,-72.5 479.49,-69 469.49,-65.5 469.49,-72.5"/>
</a>
</g>
</g>
<!-- Node5 -->
<g id="Node000005" class="node">
<title>Node5</title>
<g id="a_Node000005"><a xlink:href="namespacepack__moe__q4__from__hf.html#a376a97a5d6f387cabe216dd4c7a061ca" target="_top" xlink:title=" ">
<polygon fill="white" stroke="#666666" points="617,-30 465,-30 465,0 617,0 617,-30"/>
<text text-anchor="start" x="473" y="-18" font-family="Helvetica,sans-Serif" font-size="10.00">pack_moe_q4_from_hf.read</text>
<text text-anchor="middle" x="541" y="-7" font-family="Helvetica,sans-Serif" font-size="10.00">_safetensors_header</text>
</a>
</g>
</g>
<!-- Node4&#45;&gt;Node5 -->
<g id="edge4_Node000004_Node000005" class="edge">
<title>Node4&#45;&gt;Node5</title>
<g id="a_edge4_Node000004_Node000005"><a xlink:title=" ">
<path fill="none" stroke="#63b8ff" d="M429.12,-15C437.57,-15 446.15,-15 454.61,-15"/>
<polygon fill="#63b8ff" stroke="#63b8ff" points="454.84,-18.5 464.84,-15 454.84,-11.5 454.84,-18.5"/>
</a>
</g>
</g>
</g>
</svg>
