<?xml version="1.0" encoding="UTF-8" standalone="no"?>
<!DOCTYPE svg PUBLIC "-//W3C//DTD SVG 1.1//EN"
 "http://www.w3.org/Graphics/SVG/1.1/DTD/svg11.dtd">
<!-- Generated by graphviz version 12.2.1 (20241206.2353)
 -->
<!-- Title: main Pages: 1 -->
<svg width="421pt" height="321pt"
 viewBox="0.00 0.00 421.25 320.75" xmlns="http://www.w3.org/2000/svg" xmlns:xlink="http://www.w3.org/1999/xlink">

<svg id="main" version="1.1" xmlns="http://www.w3.org/2000/svg" xmlns:xlink="http://www.w3.org/1999/xlink" xml:space="preserve">

<style type="text/css"><![CDATA[
.node, .edge {opacity: 0.7;}
.node.selected, .edge.selected {opacity: 1;}
.edge:hover path { stroke: red; }
.edge:hover polygon { stroke: red; fill: red; }
]]></style>
<script type="application/ecmascript" xlink:href="svg.min.js"/>
<svg id="graph" class="graph">
<g id="graph0" class="graph" transform="scale(1 1) rotate(0) translate(4 316.75)">
<title>main</title>
<!-- Node1 -->
<g id="Node000001" class="node">
<title>Node1</title>
<g id="a_Node000001"><a xlink:title=" ">
<polygon fill="#999999" stroke="#666666" points="40.75,-137.75 0,-137.75 0,-117 40.75,-117 40.75,-137.75"/>
<text text-anchor="middle" x="20.38" y="-124.25" font-family="Helvetica,sans-Serif" font-size="10.00">main</text>
</a>
</g>
</g>
<!-- Node2 -->
<g id="Node000002" class="node">
<title>Node2</title>
<g id="a_Node000002"><a xlink:href="convert__to__block__sparse_8c.html#a1151a97db14a549537170c84ed1fc692" target="_top" xlink:title="Build an ie_block_sparse_matrix_t from a dense matrix in memory.">
<polygon fill="white" stroke="#666666" points="209,-254.75 79.75,-254.75 79.75,-234 209,-234 209,-254.75"/>
<text text-anchor="middle" x="144.38" y="-241.25" font-family="Helvetica,sans-Serif" font-size="10.00">dense_to_block_sparse</text>
</a>
</g>
</g>
<!-- Node1&#45;&gt;Node2 -->
<g id="edge1_Node000001_Node000002" class="edge">
<title>Node1&#45;&gt;Node2</title>
<g id="a_edge1_Node000001_Node000002"><a xlink:title=" ">
<path fill="none" stroke="#63b8ff" d="M24.56,-138.19C31.03,-158.23 47.61,-201.2 76.75,-224.38 78.49,-225.76 80.32,-227.04 82.22,-228.24"/>
<polygon fill="#63b8ff" stroke="#63b8ff" points="80.41,-231.24 90.88,-232.81 83.67,-225.05 80.41,-231.24"/>
</a>
</g>
</g>
<!-- Node7 -->
<g id="Node000007" class="node">
<title>Node7</title>
<g id="a_Node000007"><a xlink:href="sparse__io_8c.html#aabe296f29c7c70d44eab337b8a0f1a8c" target="_top" xlink:title="Compute the logical density (non&#45;zero blocks / total blocks).">
<polygon fill="white" stroke="#666666" points="212,-215.75 76.75,-215.75 76.75,-195 212,-195 212,-215.75"/>
<text text-anchor="middle" x="144.38" y="-202.25" font-family="Helvetica,sans-Serif" font-size="10.00">ie_block_sparse_density</text>
</a>
</g>
</g>
<!-- Node1&#45;&gt;Node7 -->
<g id="edge6_Node000001_Node000007" class="edge">
<title>Node1&#45;&gt;Node7</title>
<g id="a_edge6_Node000001_Node000007"><a xlink:title=" ">
<path fill="none" stroke="#63b8ff" d="M28.76,-137.97C38.36,-150.98 56.34,-172.86 76.75,-185.38 79.64,-187.15 82.7,-188.77 85.86,-190.26"/>
<polygon fill="#63b8ff" stroke="#63b8ff" points="84.2,-193.36 94.78,-193.98 86.89,-186.9 84.2,-193.36"/>
</a>
</g>
</g>
<!-- Node8 -->
<g id="Node000008" class="node">
<title>Node8</title>
<g id="a_Node000008"><a xlink:href="sparse__io_8c.html#ac8f8ef0741fb1ea4ea51a9e41414c318" target="_top" xlink:title="Release all heap&#45;allocated storage owned by a block&#45;sparse matrix.">
<polygon fill="white" stroke="#666666" points="212,-176.75 76.75,-176.75 76.75,-156 212,-156 212,-176.75"/>
<text text-anchor="middle" x="144.38" y="-163.25" font-family="Helvetica,sans-Serif" font-size="10.00">ie_block_sparse_release</text>
</a>
</g>
</g>
<!-- Node1&#45;&gt;Node8 -->
<g id="edge7_Node000001_Node000008" class="edge">
<title>Node1&#45;&gt;Node8</title>
<g id="a_edge7_Node000001_Node000008"><a xlink:title=" ">
<path fill="none" stroke="#63b8ff" d="M41.05,-134.33C51.6,-138.01 64.85,-142.55 76.75,-146.38 82.86,-148.34 89.31,-150.35 95.69,-152.31"/>
<polygon fill="#63b8ff" stroke="#63b8ff" points="94.26,-155.53 104.84,-155.08 96.29,-148.83 94.26,-155.53"/>
</a>
</g>
</g>
<!-- Node9 -->
<g id="Node000009" class="node">
<title>Node9</title>
<g id="a_Node000009"><a xlink:href="convert__to__block__sparse_8c.html#a407a0b54378f1c5ae647bae2f5e37620" target="_top" xlink:title="Load a dense FP32 matrix from disk.">
<polygon fill="white" stroke="#666666" points="198.88,-137.75 89.88,-137.75 89.88,-117 198.88,-117 198.88,-137.75"/>
<text text-anchor="middle" x="144.38" y="-124.25" font-family="Helvetica,sans-Serif" font-size="10.00">load_dense_matrix</text>
</a>
</g>
</g>
<!-- Node1&#45;&gt;Node9 -->
<g id="edge8_Node000001_Node000009" class="edge">
<title>Node1&#45;&gt;Node9</title>
<g id="a_edge8_Node000001_Node000009"><a xlink:title=" ">
<path fill="none" stroke="#63b8ff" d="M41.25,-127.38C51.53,-127.38 64.74,-127.38 78.22,-127.38"/>
<polygon fill="#63b8ff" stroke="#63b8ff" points="78.03,-130.88 88.03,-127.38 78.03,-123.88 78.03,-130.88"/>
</a>
</g>
</g>
<!-- Node10 -->
<g id="Node000010" class="node">
<title>Node10</title>
<g id="a_Node000010"><a xlink:href="convert__to__block__sparse_8c.html#a90979327148f70531d68da9632111301" target="_top" xlink:title="Parse CLI arguments into cli_opts_t.">
<polygon fill="white" stroke="#666666" points="174.12,-98.75 114.62,-98.75 114.62,-78 174.12,-78 174.12,-98.75"/>
<text text-anchor="middle" x="144.38" y="-85.25" font-family="Helvetica,sans-Serif" font-size="10.00">parse_cli</text>
</a>
</g>
</g>
<!-- Node1&#45;&gt;Node10 -->
<g id="edge9_Node000001_Node000010" class="edge">
<title>Node1&#45;&gt;Node10</title>
<g id="a_edge9_Node000001_Node000010"><a xlink:title=" ">
<path fill="none" stroke="#63b8ff" d="M41.05,-120.42C51.6,-116.74 64.85,-112.2 76.75,-108.38 85.4,-105.59 94.72,-102.72 103.57,-100.05"/>
<polygon fill="#63b8ff" stroke="#63b8ff" points="104.41,-103.45 112.99,-97.23 102.41,-96.74 104.41,-103.45"/>
</a>
</g>
</g>
<!-- Node11 -->
<g id="Node000011" class="node">
<title>Node11</title>
<g id="a_Node000011"><a xlink:href="main__infer_8c.html#ad96d407a911fbb914fa8e4cfbf2faf0f" target="_top" xlink:title="Print CLI usage information to stderr.">
<polygon fill="white" stroke="#666666" points="167,-59.75 121.75,-59.75 121.75,-39 167,-39 167,-59.75"/>
<text text-anchor="middle" x="144.38" y="-46.25" font-family="Helvetica,sans-Serif" font-size="10.00">usage</text>
</a>
</g>
</g>
<!-- Node1&#45;&gt;Node11 -->
<g id="edge10_Node000001_Node000011" class="edge">
<title>Node1&#45;&gt;Node11</title>
<g id="a_edge10_Node000001_Node000011"><a xlink:title=" ">
<path fill="none" stroke="#63b8ff" d="M28.76,-116.78C38.36,-103.77 56.34,-81.89 76.75,-69.38 86.91,-63.14 99.14,-58.74 110.34,-55.69"/>
<polygon fill="#63b8ff" stroke="#63b8ff" points="111.14,-59.1 120.03,-53.33 109.48,-52.3 111.14,-59.1"/>
</a>
</g>
</g>
<!-- Node12 -->
<g id="Node000012" class="node">
<title>Node12</title>
<g id="a_Node000012"><a xlink:href="convert__to__block__sparse_8c.html#a436f72811d1e33795807717f8e9ec902" target="_top" xlink:title="Write a block&#45;sparse matrix to disk in IEBS format.">
<polygon fill="white" stroke="#666666" points="209.38,-20.75 79.38,-20.75 79.38,0 209.38,0 209.38,-20.75"/>
<text text-anchor="middle" x="144.38" y="-7.25" font-family="Helvetica,sans-Serif" font-size="10.00">write_block_sparse_file</text>
</a>
</g>
</g>
<!-- Node1&#45;&gt;Node12 -->
<g id="edge11_Node000001_Node000012" class="edge">
<title>Node1&#45;&gt;Node12</title>
<g id="a_edge11_Node000001_Node000012"><a xlink:title=" ">
<path fill="none" stroke="#63b8ff" d="M24.56,-116.56C31.03,-96.52 47.61,-53.55 76.75,-30.38 78.49,-28.99 80.32,-27.71 82.22,-26.51"/>
<polygon fill="#63b8ff" stroke="#63b8ff" points="83.67,-29.7 90.88,-21.94 80.41,-23.51 83.67,-29.7"/>
</a>
</g>
</g>
<!-- Node3 -->
<g id="Node000003" class="node">
<title>Node3</title>
<g id="a_Node000003"><a xlink:href="convert__to__block__sparse_8c.html#a78aefc9b4a9205a1186fa54512b03f7f" target="_top" xlink:title="Decide whether a block is non&#45;zero under a simple max&#45;abs rule.">
<polygon fill="white" stroke="#666666" points="380.62,-312.75 280.62,-312.75 280.62,-292 380.62,-292 380.62,-312.75"/>
<text text-anchor="middle" x="330.62" y="-299.25" font-family="Helvetica,sans-Serif" font-size="10.00">block_is_nonzero</text>
</a>
</g>
</g>
<!-- Node2&#45;&gt;Node3 -->
<g id="edge2_Node000002_Node000003" class="edge">
<title>Node2&#45;&gt;Node3</title>
<g id="a_edge2_Node000002_Node000003"><a xlink:title=" ">
<path fill="none" stroke="#63b8ff" d="M172.1,-255.23C192.64,-263.34 221.84,-274.36 248,-282.38 255.22,-284.59 262.85,-286.72 270.44,-288.72"/>
<polygon fill="#63b8ff" stroke="#63b8ff" points="269.44,-292.08 280,-291.17 271.18,-285.3 269.44,-292.08"/>
</a>
</g>
</g>
<!-- Node4 -->
<g id="Node000004" class="node">
<title>Node4</title>
<g id="a_Node000004"><a xlink:href="sparse__io_8c.html#ace3311d6d76dd6a9b17488b66311b98a" target="_top" xlink:title="Initialize a block&#45;sparse matrix descriptor to a safe empty state.">
<polygon fill="white" stroke="#666666" points="388.12,-273.75 273.12,-273.75 273.12,-253 388.12,-253 388.12,-273.75"/>
<text text-anchor="middle" x="330.62" y="-260.25" font-family="Helvetica,sans-Serif" font-size="10.00">ie_block_sparse_init</text>
</a>
</g>
</g>
<!-- Node2&#45;&gt;Node4 -->
<g id="edge3_Node000002_Node000004" class="edge">
<title>Node2&#45;&gt;Node4</title>
<g id="a_edge3_Node000002_Node000004"><a xlink:title=" ">
<path fill="none" stroke="#63b8ff" d="M209.3,-250.97C226.27,-252.72 244.65,-254.61 261.81,-256.38"/>
<polygon fill="#63b8ff" stroke="#63b8ff" points="261.08,-259.82 271.39,-257.37 261.8,-252.86 261.08,-259.82"/>
</a>
</g>
</g>
<!-- Node5 -->
<g id="Node000005" class="node">
<title>Node5</title>
<g id="a_Node000005"><a xlink:href="sparse__io_8c.html#afcc239def447f7ccdf07b59ce0e47467" target="_top" xlink:title="Compute the theoretical number of block columns for a given layout.">
<polygon fill="white" stroke="#666666" points="411.38,-234.75 249.88,-234.75 249.88,-214 411.38,-214 411.38,-234.75"/>
<text text-anchor="middle" x="330.62" y="-221.25" font-family="Helvetica,sans-Serif" font-size="10.00">ie_block_sparse_n_block_cols</text>
</a>
</g>
</g>
<!-- Node2&#45;&gt;Node5 -->
<g id="edge4_Node000002_Node000005" class="edge">
<title>Node2&#45;&gt;Node5</title>
<g id="a_edge4_Node000002_Node000005"><a xlink:title=" ">
<path fill="none" stroke="#63b8ff" d="M209.3,-237.44C218.64,-236.42 228.4,-235.36 238.16,-234.3"/>
<polygon fill="#63b8ff" stroke="#63b8ff" points="238.51,-237.79 248.08,-233.23 237.76,-230.83 238.51,-237.79"/>
</a>
</g>
</g>
<!-- Node6 -->
<g id="Node000006" class="node">
<title>Node6</title>
<g id="a_Node000006"><a xlink:href="sparse__io_8c.html#a2df04db78871f064e33eb709ed62ed4f" target="_top" xlink:title="Compute the theoretical number of block rows for a given layout.">
<polygon fill="white" stroke="#666666" points="413.25,-195.75 248,-195.75 248,-175 413.25,-175 413.25,-195.75"/>
<text text-anchor="middle" x="330.62" y="-182.25" font-family="Helvetica,sans-Serif" font-size="10.00">ie_block_sparse_n_block_rows</text>
</a>
</g>
</g>
<!-- Node2&#45;&gt;Node6 -->
<g id="edge5_Node000002_Node000006" class="edge">
<title>Node2&#45;&gt;Node6</title>
<g id="a_edge5_Node000002_Node000006"><a xlink:title=" ">
<path fill="none" stroke="#63b8ff" d="M185.98,-233.56C194.67,-230.86 203.73,-227.76 212,-224.38 228.74,-217.52 231.09,-211.8 248,-205.38 253.94,-203.12 260.22,-201.05 266.56,-199.17"/>
<polygon fill="#63b8ff" stroke="#63b8ff" points="267.08,-202.66 275.77,-196.6 265.19,-195.92 267.08,-202.66"/>
</a>
</g>
</g>
</g>
</svg>
</svg>

<style type='text/css'>
<![CDATA[
[data-mouse-over-selected='false'] { opacity: 0.7; }
[data-mouse-over-selected='true']  { opacity: 1.0; }
]]>
</style>
<script type="application/ecmascript"><![CDATA[
document.addEventListener('DOMContentLoaded', (event) => {
  highlightEdges();
  highlightAdjacentNodes();
});
]]></script>
</svg>
