<?xml version="1.0" encoding="UTF-8" standalone="no"?>
<!DOCTYPE svg PUBLIC "-//W3C//DTD SVG 1.1//EN"
 "http://www.w3.org/Graphics/SVG/1.1/DTD/svg11.dtd">
<!-- Generated by graphviz version 2.43.0 (0)
 -->
<!-- Title: main Pages: 1 -->
<svg width="423pt" height="304pt"
 viewBox="0.00 0.00 423.00 304.00" xmlns="http://www.w3.org/2000/svg" xmlns:xlink="http://www.w3.org/1999/xlink">
<g id="graph0" class="graph" transform="scale(1 1) rotate(0) translate(4 300)">
<title>main</title>
<!-- Node1 -->
<g id="Node000001" class="node">
<title>Node1</title>
<g id="a_Node000001"><a xlink:title=" ">
<polygon fill="#999999" stroke="#666666" points="41,-130 0,-130 0,-111 41,-111 41,-130"/>
<text text-anchor="middle" x="20.5" y="-118" font-family="Helvetica,sans-Serif" font-size="10.00">main</text>
</a>
</g>
</g>
<!-- Node2 -->
<g id="Node000002" class="node">
<title>Node2</title>
<g id="a_Node000002"><a xlink:href="convert__to__block__sparse_8c.html#a1151a97db14a549537170c84ed1fc692" target="_top" xlink:title="Build an ie_block_sparse_matrix_t from a dense matrix in memory.">
<polygon fill="white" stroke="#666666" points="210,-241 80,-241 80,-222 210,-222 210,-241"/>
<text text-anchor="middle" x="145" y="-229" font-family="Helvetica,sans-Serif" font-size="10.00">dense_to_block_sparse</text>
</a>
</g>
</g>
<!-- Node1&#45;&gt;Node2 -->
<g id="edge1_Node000001_Node000002" class="edge">
<title>Node1&#45;&gt;Node2</title>
<g id="a_edge1_Node000001_Node000002"><a xlink:title=" ">
<path fill="none" stroke="#63b8ff" d="M24.47,-130.06C30.86,-149 47.76,-191.38 77,-213.5 78.83,-214.89 80.77,-216.17 82.77,-217.35"/>
<polygon fill="#63b8ff" stroke="#63b8ff" points="81.46,-220.61 91.97,-221.93 84.58,-214.34 81.46,-220.61"/>
</a>
</g>
</g>
<!-- Node7 -->
<g id="Node000007" class="node">
<title>Node7</title>
<g id="a_Node000007"><a xlink:href="sparse__io_8c.html#aabe296f29c7c70d44eab337b8a0f1a8c" target="_top" xlink:title="Compute the logical density (non&#45;zero blocks / total blocks).">
<polygon fill="white" stroke="#666666" points="213,-204 77,-204 77,-185 213,-185 213,-204"/>
<text text-anchor="middle" x="145" y="-192" font-family="Helvetica,sans-Serif" font-size="10.00">ie_block_sparse_density</text>
</a>
</g>
</g>
<!-- Node1&#45;&gt;Node7 -->
<g id="edge6_Node000001_Node000007" class="edge">
<title>Node1&#45;&gt;Node7</title>
<g id="a_edge6_Node000001_Node000007"><a xlink:title=" ">
<path fill="none" stroke="#63b8ff" d="M28.6,-130.37C38.17,-142.97 56.4,-164.54 77,-176.5 80.01,-178.25 83.19,-179.83 86.47,-181.26"/>
<polygon fill="#63b8ff" stroke="#63b8ff" points="85.31,-184.56 95.9,-184.91 87.83,-178.04 85.31,-184.56"/>
</a>
</g>
</g>
<!-- Node8 -->
<g id="Node000008" class="node">
<title>Node8</title>
<g id="a_Node000008"><a xlink:href="sparse__io_8c.html#ac8f8ef0741fb1ea4ea51a9e41414c318" target="_top" xlink:title="Release all heap&#45;allocated storage owned by a block&#45;sparse matrix.">
<polygon fill="white" stroke="#666666" points="213,-167 77,-167 77,-148 213,-148 213,-167"/>
<text text-anchor="middle" x="145" y="-155" font-family="Helvetica,sans-Serif" font-size="10.00">ie_block_sparse_release</text>
</a>
</g>
</g>
<!-- Node1&#45;&gt;Node8 -->
<g id="edge7_Node000001_Node000008" class="edge">
<title>Node1&#45;&gt;Node8</title>
<g id="a_edge7_Node000001_Node000008"><a xlink:title=" ">
<path fill="none" stroke="#63b8ff" d="M41.17,-127.6C51.74,-131.32 65.02,-135.84 77,-139.5 83.42,-141.46 90.23,-143.42 96.94,-145.29"/>
<polygon fill="#63b8ff" stroke="#63b8ff" points="96.09,-148.68 106.66,-147.95 97.94,-141.93 96.09,-148.68"/>
</a>
</g>
</g>
<!-- Node9 -->
<g id="Node000009" class="node">
<title>Node9</title>
<g id="a_Node000009"><a xlink:href="convert__to__block__sparse_8c.html#a407a0b54378f1c5ae647bae2f5e37620" target="_top" xlink:title="Load a dense FP32 matrix from disk.">
<polygon fill="white" stroke="#666666" points="200,-130 90,-130 90,-111 200,-111 200,-130"/>
<text text-anchor="middle" x="145" y="-118" font-family="Helvetica,sans-Serif" font-size="10.00">load_dense_matrix</text>
</a>
</g>
</g>
<!-- Node1&#45;&gt;Node9 -->
<g id="edge8_Node000001_Node000009" class="edge">
<title>Node1&#45;&gt;Node9</title>
<g id="a_edge8_Node000001_Node000009"><a xlink:title=" ">
<path fill="none" stroke="#63b8ff" d="M41.18,-120.5C51.85,-120.5 65.7,-120.5 79.76,-120.5"/>
<polygon fill="#63b8ff" stroke="#63b8ff" points="80,-124 90,-120.5 80,-117 80,-124"/>
</a>
</g>
</g>
<!-- Node10 -->
<g id="Node000010" class="node">
<title>Node10</title>
<g id="a_Node000010"><a xlink:href="convert__to__block__sparse_8c.html#a90979327148f70531d68da9632111301" target="_top" xlink:title="Parse CLI arguments into cli_opts_t.">
<polygon fill="white" stroke="#666666" points="175,-93 115,-93 115,-74 175,-74 175,-93"/>
<text text-anchor="middle" x="145" y="-81" font-family="Helvetica,sans-Serif" font-size="10.00">parse_cli</text>
</a>
</g>
</g>
<!-- Node1&#45;&gt;Node10 -->
<g id="edge9_Node000001_Node000010" class="edge">
<title>Node1&#45;&gt;Node10</title>
<g id="a_edge9_Node000001_Node000010"><a xlink:title=" ">
<path fill="none" stroke="#63b8ff" d="M41.22,-113.91C51.8,-110.42 65.08,-106.12 77,-102.5 86.09,-99.74 95.91,-96.88 105.16,-94.25"/>
<polygon fill="#63b8ff" stroke="#63b8ff" points="106.24,-97.58 114.91,-91.49 104.33,-90.85 106.24,-97.58"/>
</a>
</g>
</g>
<!-- Node11 -->
<g id="Node000011" class="node">
<title>Node11</title>
<g id="a_Node000011"><a xlink:href="main__infer_8c.html#ad96d407a911fbb914fa8e4cfbf2faf0f" target="_top" xlink:title="Print CLI usage to stderr.">
<polygon fill="white" stroke="#666666" points="168,-56 122,-56 122,-37 168,-37 168,-56"/>
<text text-anchor="middle" x="145" y="-44" font-family="Helvetica,sans-Serif" font-size="10.00">usage</text>
</a>
</g>
</g>
<!-- Node1&#45;&gt;Node11 -->
<g id="edge10_Node000001_Node000011" class="edge">
<title>Node1&#45;&gt;Node11</title>
<g id="a_edge10_Node000001_Node000011"><a xlink:title=" ">
<path fill="none" stroke="#63b8ff" d="M28.66,-110.85C38.3,-98.53 56.62,-77.4 77,-65.5 87.55,-59.34 100.21,-55.08 111.68,-52.18"/>
<polygon fill="#63b8ff" stroke="#63b8ff" points="112.79,-55.52 121.77,-49.89 111.24,-48.69 112.79,-55.52"/>
</a>
</g>
</g>
<!-- Node12 -->
<g id="Node000012" class="node">
<title>Node12</title>
<g id="a_Node000012"><a xlink:href="convert__to__block__sparse_8c.html#a436f72811d1e33795807717f8e9ec902" target="_top" xlink:title="Write a block&#45;sparse matrix to disk in IEBS format.">
<polygon fill="white" stroke="#666666" points="210.5,-19 79.5,-19 79.5,0 210.5,0 210.5,-19"/>
<text text-anchor="middle" x="145" y="-7" font-family="Helvetica,sans-Serif" font-size="10.00">write_block_sparse_file</text>
</a>
</g>
</g>
<!-- Node1&#45;&gt;Node12 -->
<g id="edge11_Node000001_Node000012" class="edge">
<title>Node1&#45;&gt;Node12</title>
<g id="a_edge11_Node000001_Node000012"><a xlink:title=" ">
<path fill="none" stroke="#63b8ff" d="M24.47,-110.94C30.86,-92 47.76,-49.62 77,-27.5 78.83,-26.11 80.77,-24.83 82.77,-23.65"/>
<polygon fill="#63b8ff" stroke="#63b8ff" points="84.58,-26.66 91.97,-19.07 81.46,-20.39 84.58,-26.66"/>
</a>
</g>
</g>
<!-- Node3 -->
<g id="Node000003" class="node">
<title>Node3</title>
<g id="a_Node000003"><a xlink:href="convert__to__block__sparse_8c.html#a78aefc9b4a9205a1186fa54512b03f7f" target="_top" xlink:title="Decide whether a block is non&#45;zero under a simple max&#45;abs rule.">
<polygon fill="white" stroke="#666666" points="382.5,-296 281.5,-296 281.5,-277 382.5,-277 382.5,-296"/>
<text text-anchor="middle" x="332" y="-284" font-family="Helvetica,sans-Serif" font-size="10.00">block_is_nonzero</text>
</a>
</g>
</g>
<!-- Node2&#45;&gt;Node3 -->
<g id="edge2_Node000002_Node000003" class="edge">
<title>Node2&#45;&gt;Node3</title>
<g id="a_edge2_Node000002_Node000003"><a xlink:title=" ">
<path fill="none" stroke="#63b8ff" d="M169.85,-241.06C190.55,-249.11 221.43,-260.56 249,-268.5 256.67,-270.71 264.8,-272.8 272.86,-274.71"/>
<polygon fill="#63b8ff" stroke="#63b8ff" points="272.08,-278.12 282.61,-276.96 273.65,-271.3 272.08,-278.12"/>
</a>
</g>
</g>
<!-- Node4 -->
<g id="Node000004" class="node">
<title>Node4</title>
<g id="a_Node000004"><a xlink:href="sparse__io_8c.html#ace3311d6d76dd6a9b17488b66311b98a" target="_top" xlink:title="Initialize a block&#45;sparse matrix descriptor to a safe empty state.">
<polygon fill="white" stroke="#666666" points="390,-259 274,-259 274,-240 390,-240 390,-259"/>
<text text-anchor="middle" x="332" y="-247" font-family="Helvetica,sans-Serif" font-size="10.00">ie_block_sparse_init</text>
</a>
</g>
</g>
<!-- Node2&#45;&gt;Node4 -->
<g id="edge3_Node000002_Node000004" class="edge">
<title>Node2&#45;&gt;Node4</title>
<g id="a_edge3_Node000002_Node000004"><a xlink:title=" ">
<path fill="none" stroke="#63b8ff" d="M210.18,-237.75C227.46,-239.43 246.19,-241.25 263.63,-242.95"/>
<polygon fill="#63b8ff" stroke="#63b8ff" points="263.44,-246.44 273.73,-243.93 264.12,-239.48 263.44,-246.44"/>
</a>
</g>
</g>
<!-- Node5 -->
<g id="Node000005" class="node">
<title>Node5</title>
<g id="a_Node000005"><a xlink:href="sparse__io_8c.html#afcc239def447f7ccdf07b59ce0e47467" target="_top" xlink:title="Compute the theoretical number of block columns for a given layout.">
<polygon fill="white" stroke="#666666" points="413,-222 251,-222 251,-203 413,-203 413,-222"/>
<text text-anchor="middle" x="332" y="-210" font-family="Helvetica,sans-Serif" font-size="10.00">ie_block_sparse_n_block_cols</text>
</a>
</g>
</g>
<!-- Node2&#45;&gt;Node5 -->
<g id="edge4_Node000002_Node000005" class="edge">
<title>Node2&#45;&gt;Node5</title>
<g id="a_edge4_Node000002_Node000005"><a xlink:title=" ">
<path fill="none" stroke="#63b8ff" d="M210.18,-224.91C220.15,-223.88 230.6,-222.81 241.01,-221.74"/>
<polygon fill="#63b8ff" stroke="#63b8ff" points="241.37,-225.22 250.96,-220.72 240.65,-218.26 241.37,-225.22"/>
</a>
</g>
</g>
<!-- Node6 -->
<g id="Node000006" class="node">
<title>Node6</title>
<g id="a_Node000006"><a xlink:href="sparse__io_8c.html#a2df04db78871f064e33eb709ed62ed4f" target="_top" xlink:title="Compute the theoretical number of block rows for a given layout.">
<polygon fill="white" stroke="#666666" points="415,-185 249,-185 249,-166 415,-166 415,-185"/>
<text text-anchor="middle" x="332" y="-173" font-family="Helvetica,sans-Serif" font-size="10.00">ie_block_sparse_n_block_rows</text>
</a>
</g>
</g>
<!-- Node2&#45;&gt;Node6 -->
<g id="edge5_Node000002_Node000006" class="edge">
<title>Node2&#45;&gt;Node6</title>
<g id="a_edge5_Node000002_Node000006"><a xlink:title=" ">
<path fill="none" stroke="#63b8ff" d="M187.22,-221.98C195.85,-219.56 204.82,-216.71 213,-213.5 229.84,-206.89 232.05,-200.82 249,-194.5 255.95,-191.91 263.37,-189.6 270.8,-187.56"/>
<polygon fill="#63b8ff" stroke="#63b8ff" points="271.72,-190.94 280.53,-185.04 269.97,-184.16 271.72,-190.94"/>
</a>
</g>
</g>
</g>
</svg>
