<?xml version="1.0" encoding="UTF-8" standalone="no"?>
<!DOCTYPE svg PUBLIC "-//W3C//DTD SVG 1.1//EN"
 "http://www.w3.org/Graphics/SVG/1.1/DTD/svg11.dtd">
<!-- Generated by graphviz version 2.43.0 (0)
 -->
<!-- Title: dense_to_block_sparse Pages: 1 -->
<svg width="501pt" height="177pt"
 viewBox="0.00 0.00 501.00 177.00" xmlns="http://www.w3.org/2000/svg" xmlns:xlink="http://www.w3.org/1999/xlink">
<g id="graph0" class="graph" transform="scale(1 1) rotate(0) translate(4 173)">
<title>dense_to_block_sparse</title>
<!-- Node1 -->
<g id="Node000001" class="node">
<title>Node1</title>
<g id="a_Node000001"><a xlink:title="Build an ie_block_sparse_matrix_t from a dense matrix in memory.">
<polygon fill="#999999" stroke="#666666" points="130,-93 0,-93 0,-74 130,-74 130,-93"/>
<text text-anchor="middle" x="65" y="-81" font-family="Helvetica,sans-Serif" font-size="10.00">dense_to_block_sparse</text>
</a>
</g>
</g>
<!-- Node2 -->
<g id="Node000002" class="node">
<title>Node2</title>
<g id="a_Node000002"><a xlink:href="convert__to__block__sparse_8c.html#a78aefc9b4a9205a1186fa54512b03f7f" target="_top" xlink:title="Decide whether a block is non&#45;zero under a simple max&#45;abs rule.">
<polygon fill="white" stroke="#666666" points="299.5,-169 198.5,-169 198.5,-150 299.5,-150 299.5,-169"/>
<text text-anchor="middle" x="249" y="-157" font-family="Helvetica,sans-Serif" font-size="10.00">block_is_nonzero</text>
</a>
</g>
</g>
<!-- Node1&#45;&gt;Node2 -->
<g id="edge1_Node000001_Node000002" class="edge">
<title>Node1&#45;&gt;Node2</title>
<g id="a_edge1_Node000001_Node000002"><a xlink:title=" ">
<path fill="none" stroke="#63b8ff" d="M82.17,-93.16C101.56,-104.46 135.32,-123.17 166,-135.5 176.75,-139.82 188.58,-143.74 199.82,-147.1"/>
<polygon fill="#63b8ff" stroke="#63b8ff" points="198.93,-150.48 209.51,-149.9 200.88,-143.76 198.93,-150.48"/>
</a>
</g>
</g>
<!-- Node3 -->
<g id="Node000003" class="node">
<title>Node3</title>
<g id="a_Node000003"><a xlink:href="ie__device__cuda_8cu.html#a5e3d9fee84981707669f5c2398f0c4ab" target="_top" xlink:title="Row&#45;wise GEMV kernel: each thread computes one output row.">
<polygon fill="white" stroke="#666666" points="493,-136.5 368,-136.5 368,-106.5 493,-106.5 493,-136.5"/>
<text text-anchor="start" x="376" y="-124.5" font-family="Helvetica,sans-Serif" font-size="10.00">ie_gemv_rowwise_f32</text>
<text text-anchor="middle" x="430.5" y="-113.5" font-family="Helvetica,sans-Serif" font-size="10.00">_kernel</text>
</a>
</g>
</g>
<!-- Node1&#45;&gt;Node3 -->
<g id="edge7_Node000001_Node000003" class="edge">
<title>Node1&#45;&gt;Node3</title>
<g id="a_edge7_Node000001_Node000003"><a xlink:title=" ">
<path fill="none" stroke="#63b8ff" d="M110.13,-93.02C127.47,-96.47 147.6,-100.1 166,-102.5 230.62,-110.94 304.69,-115.86 357.8,-118.58"/>
<polygon fill="#63b8ff" stroke="#63b8ff" points="357.64,-122.07 367.8,-119.07 357.99,-115.08 357.64,-122.07"/>
</a>
</g>
</g>
<!-- Node4 -->
<g id="Node000004" class="node">
<title>Node4</title>
<g id="a_Node000004"><a xlink:href="sparse__io_8c.html#ace3311d6d76dd6a9b17488b66311b98a" target="_top" xlink:title="Initialize a block&#45;sparse matrix descriptor to a safe empty state.">
<polygon fill="white" stroke="#666666" points="307,-93 191,-93 191,-74 307,-74 307,-93"/>
<text text-anchor="middle" x="249" y="-81" font-family="Helvetica,sans-Serif" font-size="10.00">ie_block_sparse_init</text>
</a>
</g>
</g>
<!-- Node1&#45;&gt;Node4 -->
<g id="edge3_Node000001_Node000004" class="edge">
<title>Node1&#45;&gt;Node4</title>
<g id="a_edge3_Node000001_Node000004"><a xlink:title=" ">
<path fill="none" stroke="#63b8ff" d="M130.17,-83.5C146.52,-83.5 164.15,-83.5 180.66,-83.5"/>
<polygon fill="#63b8ff" stroke="#63b8ff" points="180.78,-87 190.78,-83.5 180.78,-80 180.78,-87"/>
</a>
</g>
</g>
<!-- Node5 -->
<g id="Node000005" class="node">
<title>Node5</title>
<g id="a_Node000005"><a xlink:href="sparse__io_8c.html#afcc239def447f7ccdf07b59ce0e47467" target="_top" xlink:title="Compute the theoretical number of block columns for a given layout.">
<polygon fill="white" stroke="#666666" points="330,-56 168,-56 168,-37 330,-37 330,-56"/>
<text text-anchor="middle" x="249" y="-44" font-family="Helvetica,sans-Serif" font-size="10.00">ie_block_sparse_n_block_cols</text>
</a>
</g>
</g>
<!-- Node1&#45;&gt;Node5 -->
<g id="edge5_Node000001_Node000005" class="edge">
<title>Node1&#45;&gt;Node5</title>
<g id="a_edge5_Node000001_Node000005"><a xlink:title=" ">
<path fill="none" stroke="#63b8ff" d="M112.87,-73.97C136.66,-69.14 165.76,-63.22 190.85,-58.12"/>
<polygon fill="#63b8ff" stroke="#63b8ff" points="191.87,-61.48 200.97,-56.06 190.48,-54.62 191.87,-61.48"/>
</a>
</g>
</g>
<!-- Node6 -->
<g id="Node000006" class="node">
<title>Node6</title>
<g id="a_Node000006"><a xlink:href="sparse__io_8c.html#a2df04db78871f064e33eb709ed62ed4f" target="_top" xlink:title="Compute the theoretical number of block rows for a given layout.">
<polygon fill="white" stroke="#666666" points="332,-19 166,-19 166,0 332,0 332,-19"/>
<text text-anchor="middle" x="249" y="-7" font-family="Helvetica,sans-Serif" font-size="10.00">ie_block_sparse_n_block_rows</text>
</a>
</g>
</g>
<!-- Node1&#45;&gt;Node6 -->
<g id="edge6_Node000001_Node000006" class="edge">
<title>Node1&#45;&gt;Node6</title>
<g id="a_edge6_Node000001_Node000006"><a xlink:title=" ">
<path fill="none" stroke="#63b8ff" d="M80.3,-73.98C99.17,-61.8 133.8,-40.81 166,-28.5 172.76,-25.92 179.97,-23.62 187.2,-21.6"/>
<polygon fill="#63b8ff" stroke="#63b8ff" points="188.26,-24.94 197.04,-19.01 186.48,-18.17 188.26,-24.94"/>
</a>
</g>
</g>
<!-- Node2&#45;&gt;Node3 -->
<g id="edge2_Node000002_Node000003" class="edge">
<title>Node2&#45;&gt;Node3</title>
<g id="a_edge2_Node000002_Node000003"><a xlink:title=" ">
<path fill="none" stroke="#63b8ff" d="M295.3,-149.91C314.3,-145.89 336.87,-141.11 358.02,-136.63"/>
<polygon fill="#63b8ff" stroke="#63b8ff" points="358.89,-140.03 367.95,-134.53 357.44,-133.18 358.89,-140.03"/>
</a>
</g>
</g>
<!-- Node4&#45;&gt;Node3 -->
<g id="edge4_Node000004_Node000003" class="edge">
<title>Node4&#45;&gt;Node3</title>
<g id="a_edge4_Node000004_Node000003"><a xlink:title=" ">
<path fill="none" stroke="#63b8ff" d="M295.3,-93.09C314.3,-97.11 336.87,-101.89 358.02,-106.37"/>
<polygon fill="#63b8ff" stroke="#63b8ff" points="357.44,-109.82 367.95,-108.47 358.89,-102.97 357.44,-109.82"/>
</a>
</g>
</g>
</g>
</svg>
