<?xml version="1.0" encoding="UTF-8" standalone="no"?>
<!DOCTYPE svg PUBLIC "-//W3C//DTD SVG 1.1//EN"
 "http://www.w3.org/Graphics/SVG/1.1/DTD/svg11.dtd">
<!-- Generated by graphviz version 2.43.0 (0)
 -->
<!-- Title: main Pages: 1 -->
<!--zoomable 441 -->

<svg id="main" version="1.1" xmlns="http://www.w3.org/2000/svg" xmlns:xlink="http://www.w3.org/1999/xlink" xml:space="preserve" onload="init(evt)">
<style type="text/css"><![CDATA[
.node, .edge {opacity: 0.7;}
.node.selected, .edge.selected {opacity: 1;}
.edge:hover path { stroke: red; }
.edge:hover polygon { stroke: red; fill: red; }
]]></style>

<defs>
  <circle id="rim" cx="0" cy="0" r="7"/>
  <circle id="rim2" cx="0" cy="0" r="3.5"/>
  <g id="zoomPlus">
    <use xlink:href="#rim" fill="#404040"><set attributeName="fill" to="#808080" begin="zoomplus.mouseover" end="zoomplus.mouseout"/></use>
    <path d="M-4,0h8M0,-4v8" fill="none" stroke="white" stroke-width="1.5" pointer-events="none"/>
  </g>
  <g id="zoomMin">
    <use xlink:href="#rim" fill="#404040"><set attributeName="fill" to="#808080" begin="zoomminus.mouseover" end="zoomminus.mouseout"/></use>
    <path d="M-4,0h8" fill="none" stroke="white" stroke-width="1.5" pointer-events="none"/>
  </g>
  <g id="arrowUp" transform="translate(30 24)">
    <use xlink:href="#rim"/>
    <path pointer-events="none" fill="none" stroke="white" stroke-width="1.5" d="M0,-3.0v7 M-2.5,-0.5L0,-3.0L2.5,-0.5"/>
  </g>
  <g id="arrowRight" transform="rotate(90) translate(36 -43)">
    <use xlink:href="#rim"/>
    <path pointer-events="none" fill="none" stroke="white" stroke-width="1.5" d="M0,-3.0v7 M-2.5,-0.5L0,-3.0L2.5,-0.5"/>
  </g>
  <g id="arrowDown" transform="rotate(180) translate(-30 -48)">
    <use xlink:href="#rim"/>
    <path pointer-events="none" fill="none" stroke="white" stroke-width="1.5" d="M0,-3.0v7 M-2.5,-0.5L0,-3.0L2.5,-0.5"/>
  </g>
  <g id="arrowLeft" transform="rotate(270) translate(-36 17)">
    <use xlink:href="#rim"/>
    <path pointer-events="none" fill="none" stroke="white" stroke-width="1.5" d="M0,-3.0v7 M-2.5,-0.5L0,-3.0L2.5,-0.5"/>
  </g>
  <g id="resetDef">
    <use xlink:href="#rim2" fill="#404040"><set attributeName="fill" to="#808080" begin="reset.mouseover" end="reset.mouseout"/></use>
  </g>
</defs>
<script type="application/ecmascript">
var viewWidth = 579;
var viewHeight = 441;
var sectionId = 'dynsection-7';
</script>
<script type="application/ecmascript" xlink:href="svg.min.js"/>
<svg id="graph" class="graph">
<g id="viewport">
<title>main</title>
<!-- Node1 -->
<g id="Node000001" class="node">
<title>Node1</title>
<g id="a_Node000001"><a xlink:title=" ">
<polygon fill="#999999" stroke="#666666" points="41,-150 0,-150 0,-131 41,-131 41,-150"/>
<text text-anchor="middle" x="20.5" y="-138" font-family="Helvetica,sans-Serif" font-size="10.00">main</text>
</a>
</g>
</g>
<!-- Node2 -->
<g id="Node000002" class="node">
<title>Node2</title>
<g id="a_Node000002"><a xlink:href="convert__to__block__sparse_8c.html#a1151a97db14a549537170c84ed1fc692" target="_top" xlink:title="Build an ie_block_sparse_matrix_t from a dense matrix in memory.">
<polygon fill="white" stroke="#666666" points="207.5,-338 77.5,-338 77.5,-319 207.5,-319 207.5,-338"/>
<text text-anchor="middle" x="142.5" y="-326" font-family="Helvetica,sans-Serif" font-size="10.00">dense_to_block_sparse</text>
</a>
</g>
</g>
<!-- Node1&#45;&gt;Node2 -->
<g id="edge1_Node000001_Node000002" class="edge">
<title>Node1&#45;&gt;Node2</title>
<g id="a_edge1_Node000001_Node000002"><a xlink:title=" ">
<path fill="none" stroke="#63b8ff" d="M25.6,-150.21C34.02,-169.73 54.38,-214.81 77,-249.5 91.69,-272.03 111.65,-295.63 125.46,-311.1"/>
<polygon fill="#63b8ff" stroke="#63b8ff" points="123.12,-313.74 132.42,-318.8 128.31,-309.04 123.12,-313.74"/>
</a>
</g>
</g>
<!-- Node4 -->
<g id="Node000004" class="node">
<title>Node4</title>
<g id="a_Node000004"><a xlink:href="ie__device__cuda_8cu.html#a5e3d9fee84981707669f5c2398f0c4ab" target="_top" xlink:title="Row&#45;wise GEMV kernel: each thread computes one output row.">
<polygon fill="white" stroke="#666666" points="571,-193.5 446,-193.5 446,-163.5 571,-163.5 571,-193.5"/>
<text text-anchor="start" x="454" y="-181.5" font-family="Helvetica,sans-Serif" font-size="10.00">ie_gemv_rowwise_f32</text>
<text text-anchor="middle" x="508.5" y="-170.5" font-family="Helvetica,sans-Serif" font-size="10.00">_kernel</text>
</a>
</g>
</g>
<!-- Node1&#45;&gt;Node4 -->
<g id="edge13_Node000001_Node000004" class="edge">
<title>Node1&#45;&gt;Node4</title>
<g id="a_edge13_Node000001_Node000004"><a xlink:title=" ">
<path fill="none" stroke="#63b8ff" d="M30.27,-150.31C40.42,-161 58.16,-177.75 77,-186.5 211.77,-249.11 263.96,-243.95 410,-216.5 429.73,-212.79 450.6,-205.2 467.95,-197.77"/>
<polygon fill="#63b8ff" stroke="#63b8ff" points="469.46,-200.93 477.19,-193.69 466.63,-194.53 469.46,-200.93"/>
</a>
</g>
</g>
<!-- Node8 -->
<g id="Node000008" class="node">
<title>Node8</title>
<g id="a_Node000008"><a xlink:href="sparse__io_8c.html#aabe296f29c7c70d44eab337b8a0f1a8c" target="_top" xlink:title="Compute the logical density (non&#45;zero blocks / total blocks).">
<polygon fill="white" stroke="#666666" points="395,-207 259,-207 259,-188 395,-188 395,-207"/>
<text text-anchor="middle" x="327" y="-195" font-family="Helvetica,sans-Serif" font-size="10.00">ie_block_sparse_density</text>
</a>
</g>
</g>
<!-- Node1&#45;&gt;Node8 -->
<g id="edge9_Node000001_Node000008" class="edge">
<title>Node1&#45;&gt;Node8</title>
<g id="a_edge9_Node000001_Node000008"><a xlink:title=" ">
<path fill="none" stroke="#63b8ff" d="M41.2,-149.16C51.66,-153.44 64.83,-158.36 77,-161.5 133.68,-176.13 199.25,-185.31 248.88,-190.74"/>
<polygon fill="#63b8ff" stroke="#63b8ff" points="248.59,-194.22 258.9,-191.8 249.33,-187.26 248.59,-194.22"/>
</a>
</g>
</g>
<!-- Node9 -->
<g id="Node000009" class="node">
<title>Node9</title>
<g id="a_Node000009"><a xlink:href="sparse__io_8c.html#ac8f8ef0741fb1ea4ea51a9e41414c318" target="_top" xlink:title="Release all heap&#45;allocated storage owned by a block&#45;sparse matrix.">
<polygon fill="white" stroke="#666666" points="395,-170 259,-170 259,-151 395,-151 395,-170"/>
<text text-anchor="middle" x="327" y="-158" font-family="Helvetica,sans-Serif" font-size="10.00">ie_block_sparse_release</text>
</a>
</g>
</g>
<!-- Node1&#45;&gt;Node9 -->
<g id="edge11_Node000001_Node000009" class="edge">
<title>Node1&#45;&gt;Node9</title>
<g id="a_edge11_Node000001_Node000009"><a xlink:title=" ">
<path fill="none" stroke="#63b8ff" d="M41.01,-141.78C82.05,-144.48 179.22,-150.86 248.68,-155.42"/>
<polygon fill="#63b8ff" stroke="#63b8ff" points="248.51,-158.92 258.72,-156.08 248.97,-151.93 248.51,-158.92"/>
</a>
</g>
</g>
<!-- Node10 -->
<g id="Node000010" class="node">
<title>Node10</title>
<g id="a_Node000010"><a xlink:href="convert__to__block__sparse_8c.html#a407a0b54378f1c5ae647bae2f5e37620" target="_top" xlink:title="Load a dense FP32 matrix from disk.">
<polygon fill="white" stroke="#666666" points="197.5,-131 87.5,-131 87.5,-112 197.5,-112 197.5,-131"/>
<text text-anchor="middle" x="142.5" y="-119" font-family="Helvetica,sans-Serif" font-size="10.00">load_dense_matrix</text>
</a>
</g>
</g>
<!-- Node1&#45;&gt;Node10 -->
<g id="edge14_Node000001_Node000010" class="edge">
<title>Node1&#45;&gt;Node10</title>
<g id="a_edge14_Node000001_Node000010"><a xlink:title=" ">
<path fill="none" stroke="#63b8ff" d="M41.05,-137.41C51.1,-135.81 64,-133.77 77.17,-131.69"/>
<polygon fill="#63b8ff" stroke="#63b8ff" points="77.92,-135.11 87.25,-130.09 76.83,-128.2 77.92,-135.11"/>
</a>
</g>
</g>
<!-- Node11 -->
<g id="Node000011" class="node">
<title>Node11</title>
<g id="a_Node000011"><a xlink:href="convert__to__block__sparse_8c.html#a90979327148f70531d68da9632111301" target="_top" xlink:title="Parse CLI arguments into cli_opts_t.">
<polygon fill="white" stroke="#666666" points="172.5,-94 112.5,-94 112.5,-75 172.5,-75 172.5,-94"/>
<text text-anchor="middle" x="142.5" y="-82" font-family="Helvetica,sans-Serif" font-size="10.00">parse_cli</text>
</a>
</g>
</g>
<!-- Node1&#45;&gt;Node11 -->
<g id="edge16_Node000001_Node000011" class="edge">
<title>Node1&#45;&gt;Node11</title>
<g id="a_edge16_Node000001_Node000011"><a xlink:title=" ">
<path fill="none" stroke="#63b8ff" d="M33.64,-130.83C44.48,-122.6 61.05,-110.95 77,-103.5 84.98,-99.77 93.86,-96.59 102.42,-93.95"/>
<polygon fill="#63b8ff" stroke="#63b8ff" points="103.61,-97.25 112.24,-91.12 101.66,-90.53 103.61,-97.25"/>
</a>
</g>
</g>
<!-- Node12 -->
<g id="Node000012" class="node">
<title>Node12</title>
<g id="a_Node000012"><a xlink:href="main__infer_8c.html#ad96d407a911fbb914fa8e4cfbf2faf0f" target="_top" xlink:title="Print CLI usage to stderr.">
<polygon fill="white" stroke="#666666" points="165.5,-57 119.5,-57 119.5,-38 165.5,-38 165.5,-57"/>
<text text-anchor="middle" x="142.5" y="-45" font-family="Helvetica,sans-Serif" font-size="10.00">usage</text>
</a>
</g>
</g>
<!-- Node1&#45;&gt;Node12 -->
<g id="edge18_Node000001_Node000012" class="edge">
<title>Node1&#45;&gt;Node12</title>
<g id="a_edge18_Node000001_Node000012"><a xlink:title=" ">
<path fill="none" stroke="#63b8ff" d="M26.18,-130.75C34.28,-114.88 52.46,-83.54 77,-66.5 86.52,-59.89 98.36,-55.55 109.28,-52.71"/>
<polygon fill="#63b8ff" stroke="#63b8ff" points="110.39,-56.05 119.37,-50.43 108.84,-49.22 110.39,-56.05"/>
</a>
</g>
</g>
<!-- Node13 -->
<g id="Node000013" class="node">
<title>Node13</title>
<g id="a_Node000013"><a xlink:href="convert__to__block__sparse_8c.html#a436f72811d1e33795807717f8e9ec902" target="_top" xlink:title="Write a block&#45;sparse matrix to disk in IEBS format.">
<polygon fill="white" stroke="#666666" points="208,-19 77,-19 77,0 208,0 208,-19"/>
<text text-anchor="middle" x="142.5" y="-7" font-family="Helvetica,sans-Serif" font-size="10.00">write_block_sparse_file</text>
</a>
</g>
</g>
<!-- Node1&#45;&gt;Node13 -->
<g id="edge20_Node000001_Node000013" class="edge">
<title>Node1&#45;&gt;Node13</title>
<g id="a_edge20_Node000001_Node000013"><a xlink:title=" ">
<path fill="none" stroke="#63b8ff" d="M23.53,-130.77C28.59,-109.07 43.77,-56.41 77,-28.5 79.03,-26.79 81.22,-25.24 83.5,-23.82"/>
<polygon fill="#63b8ff" stroke="#63b8ff" points="85.49,-26.74 92.76,-19.03 82.27,-20.52 85.49,-26.74"/>
</a>
</g>
</g>
<!-- Node3 -->
<g id="Node000003" class="node">
<title>Node3</title>
<g id="a_Node000003"><a xlink:href="convert__to__block__sparse_8c.html#a78aefc9b4a9205a1186fa54512b03f7f" target="_top" xlink:title="Decide whether a block is non&#45;zero under a simple max&#45;abs rule.">
<polygon fill="white" stroke="#666666" points="377.5,-433 276.5,-433 276.5,-414 377.5,-414 377.5,-433"/>
<text text-anchor="middle" x="327" y="-421" font-family="Helvetica,sans-Serif" font-size="10.00">block_is_nonzero</text>
</a>
</g>
</g>
<!-- Node2&#45;&gt;Node3 -->
<g id="edge2_Node000002_Node000003" class="edge">
<title>Node2&#45;&gt;Node3</title>
<g id="a_edge2_Node000002_Node000003"><a xlink:title=" ">
<path fill="none" stroke="#63b8ff" d="M154.48,-338.13C172.17,-353.21 208.6,-382.41 244,-399.5 253.41,-404.05 263.86,-407.91 274.05,-411.12"/>
<polygon fill="#63b8ff" stroke="#63b8ff" points="273.13,-414.49 283.71,-414 275.13,-407.79 273.13,-414.49"/>
</a>
</g>
</g>
<!-- Node2&#45;&gt;Node4 -->
<g id="edge8_Node000002_Node000004" class="edge">
<title>Node2&#45;&gt;Node4</title>
<g id="a_edge8_Node000002_Node000004"><a xlink:title=" ">
<path fill="none" stroke="#63b8ff" d="M160.61,-338.01C205.3,-361.43 327.73,-416.51 410,-366.5 469.1,-330.57 493.99,-245.92 503.04,-203.56"/>
<polygon fill="#63b8ff" stroke="#63b8ff" points="506.52,-204.02 505.05,-193.52 499.65,-202.64 506.52,-204.02"/>
</a>
</g>
</g>
<!-- Node5 -->
<g id="Node000005" class="node">
<title>Node5</title>
<g id="a_Node000005"><a xlink:href="sparse__io_8c.html#ace3311d6d76dd6a9b17488b66311b98a" target="_top" xlink:title="Initialize a block&#45;sparse matrix descriptor to a safe empty state.">
<polygon fill="white" stroke="#666666" points="385,-357 269,-357 269,-338 385,-338 385,-357"/>
<text text-anchor="middle" x="327" y="-345" font-family="Helvetica,sans-Serif" font-size="10.00">ie_block_sparse_init</text>
</a>
</g>
</g>
<!-- Node2&#45;&gt;Node5 -->
<g id="edge4_Node000002_Node000005" class="edge">
<title>Node2&#45;&gt;Node5</title>
<g id="a_edge4_Node000002_Node000005"><a xlink:title=" ">
<path fill="none" stroke="#63b8ff" d="M207.59,-335.17C224.09,-336.89 241.89,-338.74 258.56,-340.48"/>
<polygon fill="#63b8ff" stroke="#63b8ff" points="258.45,-343.99 268.76,-341.54 259.18,-337.02 258.45,-343.99"/>
</a>
</g>
</g>
<!-- Node6 -->
<g id="Node000006" class="node">
<title>Node6</title>
<g id="a_Node000006"><a xlink:href="sparse__io_8c.html#afcc239def447f7ccdf07b59ce0e47467" target="_top" xlink:title="Compute the theoretical number of block columns for a given layout.">
<polygon fill="white" stroke="#666666" points="408,-320 246,-320 246,-301 408,-301 408,-320"/>
<text text-anchor="middle" x="327" y="-308" font-family="Helvetica,sans-Serif" font-size="10.00">ie_block_sparse_n_block_cols</text>
</a>
</g>
</g>
<!-- Node2&#45;&gt;Node6 -->
<g id="edge6_Node000002_Node000006" class="edge">
<title>Node2&#45;&gt;Node6</title>
<g id="a_edge6_Node000002_Node000006"><a xlink:title=" ">
<path fill="none" stroke="#63b8ff" d="M207.59,-322.18C216.64,-321.29 226.08,-320.36 235.51,-319.42"/>
<polygon fill="#63b8ff" stroke="#63b8ff" points="236.12,-322.88 245.72,-318.42 235.43,-315.92 236.12,-322.88"/>
</a>
</g>
</g>
<!-- Node7 -->
<g id="Node000007" class="node">
<title>Node7</title>
<g id="a_Node000007"><a xlink:href="sparse__io_8c.html#a2df04db78871f064e33eb709ed62ed4f" target="_top" xlink:title="Compute the theoretical number of block rows for a given layout.">
<polygon fill="white" stroke="#666666" points="410,-283 244,-283 244,-264 410,-264 410,-283"/>
<text text-anchor="middle" x="327" y="-271" font-family="Helvetica,sans-Serif" font-size="10.00">ie_block_sparse_n_block_rows</text>
</a>
</g>
</g>
<!-- Node2&#45;&gt;Node7 -->
<g id="edge7_Node000002_Node000007" class="edge">
<title>Node2&#45;&gt;Node7</title>
<g id="a_edge7_Node000002_Node000007"><a xlink:title=" ">
<path fill="none" stroke="#63b8ff" d="M167.61,-318.97C187.81,-311.2 217.51,-300.29 244,-292.5 252.56,-289.99 261.69,-287.59 270.65,-285.4"/>
<polygon fill="#63b8ff" stroke="#63b8ff" points="271.72,-288.74 280.64,-283.02 270.1,-281.93 271.72,-288.74"/>
</a>
</g>
</g>
<!-- Node3&#45;&gt;Node4 -->
<g id="edge3_Node000003_Node000004" class="edge">
<title>Node3&#45;&gt;Node4</title>
<g id="a_edge3_Node000003_Node000004"><a xlink:title=" ">
<path fill="none" stroke="#63b8ff" d="M377.9,-416.29C389.44,-412.73 400.97,-407.42 410,-399.5 470.27,-346.64 494.9,-249.48 503.5,-203.67"/>
<polygon fill="#63b8ff" stroke="#63b8ff" points="506.97,-204.15 505.28,-193.69 500.08,-202.92 506.97,-204.15"/>
</a>
</g>
</g>
<!-- Node5&#45;&gt;Node4 -->
<g id="edge5_Node000005_Node000004" class="edge">
<title>Node5&#45;&gt;Node4</title>
<g id="a_edge5_Node000005_Node000004"><a xlink:title=" ">
<path fill="none" stroke="#63b8ff" d="M385.11,-341.03C393.94,-338.37 402.58,-334.65 410,-329.5 455.53,-297.89 484.82,-237.45 498.48,-203.41"/>
<polygon fill="#63b8ff" stroke="#63b8ff" points="501.88,-204.34 502.22,-193.75 495.35,-201.81 501.88,-204.34"/>
</a>
</g>
</g>
<!-- Node8&#45;&gt;Node4 -->
<g id="edge10_Node000008_Node000004" class="edge">
<title>Node8&#45;&gt;Node4</title>
<g id="a_edge10_Node000008_Node000004"><a xlink:title=" ">
<path fill="none" stroke="#63b8ff" d="M395.09,-190.4C408.35,-189 422.3,-187.52 435.7,-186.1"/>
<polygon fill="#63b8ff" stroke="#63b8ff" points="436.24,-189.56 445.82,-185.03 435.51,-182.6 436.24,-189.56"/>
</a>
</g>
</g>
<!-- Node9&#45;&gt;Node4 -->
<g id="edge12_Node000009_Node000004" class="edge">
<title>Node9&#45;&gt;Node4</title>
<g id="a_edge12_Node000009_Node000004"><a xlink:title=" ">
<path fill="none" stroke="#63b8ff" d="M395.09,-167.23C408.35,-168.56 422.3,-169.96 435.7,-171.3"/>
<polygon fill="#63b8ff" stroke="#63b8ff" points="435.52,-174.8 445.82,-172.31 436.22,-167.83 435.52,-174.8"/>
</a>
</g>
</g>
<!-- Node10&#45;&gt;Node4 -->
<g id="edge15_Node000010_Node000004" class="edge">
<title>Node10&#45;&gt;Node4</title>
<g id="a_edge15_Node000010_Node000004"><a xlink:title=" ">
<path fill="none" stroke="#63b8ff" d="M197.73,-121.43C252.04,-122.38 337.7,-126.62 410,-142.5 428.27,-146.51 447.73,-153.18 464.42,-159.69"/>
<polygon fill="#63b8ff" stroke="#63b8ff" points="463.31,-163.02 473.9,-163.48 465.91,-156.52 463.31,-163.02"/>
</a>
</g>
</g>
<!-- Node11&#45;&gt;Node4 -->
<g id="edge17_Node000011_Node000004" class="edge">
<title>Node11&#45;&gt;Node4</title>
<g id="a_edge17_Node000011_Node000004"><a xlink:title=" ">
<path fill="none" stroke="#63b8ff" d="M172.82,-84.25C222.9,-84.69 327.53,-89.39 410,-118.5 435.56,-127.52 461.57,-143.96 480.28,-157.36"/>
<polygon fill="#63b8ff" stroke="#63b8ff" points="478.46,-160.36 488.59,-163.45 482.6,-154.71 478.46,-160.36"/>
</a>
</g>
</g>
<!-- Node12&#45;&gt;Node4 -->
<g id="edge19_Node000012_Node000004" class="edge">
<title>Node12&#45;&gt;Node4</title>
<g id="a_edge19_Node000012_Node000004"><a xlink:title=" ">
<path fill="none" stroke="#63b8ff" d="M165.54,-45.97C212.92,-43.62 326.9,-43.01 410,-83.5 443.91,-100.02 473.44,-132.87 490.86,-155.26"/>
<polygon fill="#63b8ff" stroke="#63b8ff" points="488.11,-157.42 496.93,-163.28 493.69,-153.19 488.11,-157.42"/>
</a>
</g>
</g>
<!-- Node13&#45;&gt;Node4 -->
<g id="edge21_Node000013_Node000004" class="edge">
<title>Node13&#45;&gt;Node4</title>
<g id="a_edge21_Node000013_Node000004"><a xlink:title=" ">
<path fill="none" stroke="#63b8ff" d="M208.15,-3.55C265.19,-1.38 348.57,-6.01 410,-42.5 453.72,-68.47 483.24,-122.52 497.54,-154.1"/>
<polygon fill="#63b8ff" stroke="#63b8ff" points="494.43,-155.73 501.64,-163.5 500.85,-152.93 494.43,-155.73"/>
</a>
</g>
</g>
</g>
</svg>

<g id="navigator" transform="translate(0 0)" fill="#404254">
  <rect fill="#f2f5e9" fill-opacity="0.5" stroke="#606060" stroke-width=".5" x="0" y="0" width="60" height="60"/>
  <use id="zoomplus" xlink:href="#zoomPlus" x="17" y="9" onmousedown="handleZoom(evt,'in')"/>
  <use id="zoomminus" xlink:href="#zoomMin" x="42" y="9" onmousedown="handleZoom(evt,'out')"/>
  <use id="reset" xlink:href="#resetDef" x="30" y="36" onmousedown="handleReset()"/>
   <use id="arrowup" xlink:href="#arrowUp" x="0" y="0" onmousedown="handlePan(0,-1)"/>
  <use id="arrowright" xlink:href="#arrowRight" x="0" y="0" onmousedown="handlePan(1,0)"/>
  <use id="arrowdown" xlink:href="#arrowDown" x="0" y="0" onmousedown="handlePan(0,1)"/>
  <use id="arrowleft" xlink:href="#arrowLeft" x="0" y="0" onmousedown="handlePan(-1,0)"/>
</g>
<svg viewBox="0 0 15 15" width="100%" height="30px" preserveAspectRatio="xMaxYMin meet">
 <g id="arrow_out" transform="scale(0.3 0.3)">
  <a xlink:href="convert__to__block__sparse_8c_a3c04138a5bfe5d72780bb7e82a18e627_cgraph_org.svg" target="_base">
   <rect id="button" ry="5" rx="5" y="6" x="6" height="38" width="38"
        fill="#f2f5e9" fill-opacity="0.5" stroke="#606060" stroke-width="1.0"/>
   <path id="arrow"
     d="M 11.500037,31.436501 C 11.940474,20.09759 22.043105,11.32322 32.158766,21.979434 L 37.068811,17.246167 C 37.068811,17.246167 37.088388,32 37.088388,32 L 22.160133,31.978069 C 22.160133,31.978069 26.997745,27.140456 26.997745,27.140456 C 18.528582,18.264221 13.291696,25.230495 11.500037,31.436501 z"
     style="fill:#404040;"/>
  </a>
 </g>
</svg>

<style type='text/css'>
<![CDATA[
[data-mouse-over-selected='false'] { opacity: 0.7; }
[data-mouse-over-selected='true']  { opacity: 1.0; }
]]>
</style>
<script type="application/ecmascript"><![CDATA[
document.addEventListener('DOMContentLoaded', (event) => {
  highlightEdges();
  highlightAdjacentNodes();
});
]]></script>
</svg>
