<?xml version="1.0" encoding="UTF-8" standalone="no"?>
<!DOCTYPE svg PUBLIC "-//W3C//DTD SVG 1.1//EN"
 "http://www.w3.org/Graphics/SVG/1.1/DTD/svg11.dtd">
<!-- Generated by graphviz version 2.43.0 (0)
 -->
<!-- Title: die Pages: 1 -->
<svg width="531pt" height="203pt"
 viewBox="0.00 0.00 531.00 203.25" xmlns="http://www.w3.org/2000/svg" xmlns:xlink="http://www.w3.org/1999/xlink">
<g id="graph0" class="graph" transform="scale(1 1) rotate(0) translate(4 199.25)">
<title>die</title>
<!-- Node1 -->
<g id="Node000001" class="node">
<title>Node1</title>
<g id="a_Node000001"><a xlink:title="Exit with an error message.">
<polygon fill="#999999" stroke="#666666" points="523,-100.25 491,-100.25 491,-81.25 523,-81.25 523,-100.25"/>
<text text-anchor="middle" x="507" y="-88.25" font-family="Helvetica,sans-Serif" font-size="10.00">die</text>
</a>
</g>
</g>
<!-- Node2 -->
<g id="Node000002" class="node">
<title>Node2</title>
<g id="a_Node000002"><a xlink:href="dedup__extract_8c.html#a700096ed66315cf55e25b7574471f194" target="_top" xlink:title="Append a blob_ref to list.">
<polygon fill="white" stroke="#666666" points="433.5,-195.25 362.5,-195.25 362.5,-176.25 433.5,-176.25 433.5,-195.25"/>
<text text-anchor="middle" x="398" y="-183.25" font-family="Helvetica,sans-Serif" font-size="10.00">blobs_push</text>
</a>
</g>
</g>
<!-- Node1&#45;&gt;Node2 -->
<g id="edge1_Node000001_Node000002" class="edge">
<title>Node1&#45;&gt;Node2</title>
<g id="a_edge1_Node000001_Node000002"><a xlink:title=" ">
<path fill="none" stroke="#63b8ff" d="M496.56,-109.12C487.67,-124.88 473.03,-147.27 455,-161.75 447.49,-167.78 438.25,-172.55 429.45,-176.2"/>
<polygon fill="#63b8ff" stroke="#63b8ff" points="499.66,-110.75 501.33,-100.29 493.5,-107.42 499.66,-110.75"/>
</a>
</g>
</g>
<!-- Node4 -->
<g id="Node000004" class="node">
<title>Node4</title>
<g id="a_Node000004"><a xlink:href="dedup__extract_8c.html#a3c04138a5bfe5d72780bb7e82a18e627" target="_top" xlink:title=" ">
<polygon fill="white" stroke="#666666" points="41,-138.25 0,-138.25 0,-119.25 41,-119.25 41,-138.25"/>
<text text-anchor="middle" x="20.5" y="-126.25" font-family="Helvetica,sans-Serif" font-size="10.00">main</text>
</a>
</g>
</g>
<!-- Node1&#45;&gt;Node4 -->
<g id="edge11_Node000001_Node000004" class="edge">
<title>Node1&#45;&gt;Node4</title>
<g id="a_edge11_Node000001_Node000004"><a xlink:title=" ">
<path fill="none" stroke="#63b8ff" d="M481.27,-100.5C473.04,-103.34 463.74,-106.11 455,-107.75 297.62,-137.22 102.82,-132.23 41.16,-129.69"/>
<polygon fill="#63b8ff" stroke="#63b8ff" points="482.47,-103.79 490.67,-97.09 480.07,-97.21 482.47,-103.79"/>
</a>
</g>
</g>
<!-- Node5 -->
<g id="Node000005" class="node">
<title>Node5</title>
<g id="a_Node000005"><a xlink:href="dedup__extract_8c.html#a69a295127a2ec3426ecba96808dab155" target="_top" xlink:title="Auto&#45;group blobs by (file, bytes, kind, normalized&#45;name).">
<polygon fill="white" stroke="#666666" points="183,-100.25 77,-100.25 77,-81.25 183,-81.25 183,-100.25"/>
<text text-anchor="middle" x="130" y="-88.25" font-family="Helvetica,sans-Serif" font-size="10.00">build_groups_auto</text>
</a>
</g>
</g>
<!-- Node1&#45;&gt;Node5 -->
<g id="edge4_Node000001_Node000005" class="edge">
<title>Node1&#45;&gt;Node5</title>
<g id="a_edge4_Node000001_Node000005"><a xlink:title=" ">
<path fill="none" stroke="#63b8ff" d="M480.53,-91.73C430.44,-93.52 315.57,-96.94 219,-94.75 207.38,-94.49 194.9,-94.03 183.1,-93.51"/>
<polygon fill="#63b8ff" stroke="#63b8ff" points="480.89,-95.22 490.75,-91.36 480.63,-88.23 480.89,-95.22"/>
</a>
</g>
</g>
<!-- Node6 -->
<g id="Node000006" class="node">
<title>Node6</title>
<g id="a_Node000006"><a xlink:href="dedup__extract_8c.html#a2bbcb563e152a4ca3022342bed54ec92" target="_top" xlink:title="Append member to a group.">
<polygon fill="white" stroke="#666666" points="455,-81.25 341,-81.25 341,-62.25 455,-62.25 455,-81.25"/>
<text text-anchor="middle" x="398" y="-69.25" font-family="Helvetica,sans-Serif" font-size="10.00">group_add_member</text>
</a>
</g>
</g>
<!-- Node1&#45;&gt;Node6 -->
<g id="edge6_Node000001_Node000006" class="edge">
<title>Node1&#45;&gt;Node6</title>
<g id="a_edge6_Node000001_Node000006"><a xlink:title=" ">
<path fill="none" stroke="#63b8ff" d="M480.82,-86.28C472.41,-84.79 462.7,-83.06 452.96,-81.33"/>
<polygon fill="#63b8ff" stroke="#63b8ff" points="480.21,-89.73 490.67,-88.03 481.44,-82.83 480.21,-89.73"/>
</a>
</g>
</g>
<!-- Node7 -->
<g id="Node000007" class="node">
<title>Node7</title>
<g id="a_Node000007"><a xlink:href="dedup__extract_8c.html#ae641b0b7df53f28ebf5b3ae94c6ee1b9" target="_top" xlink:title="Push new group.">
<polygon fill="white" stroke="#666666" points="301,-43.25 223,-43.25 223,-24.25 301,-24.25 301,-43.25"/>
<text text-anchor="middle" x="262" y="-31.25" font-family="Helvetica,sans-Serif" font-size="10.00">groups_push</text>
</a>
</g>
</g>
<!-- Node1&#45;&gt;Node7 -->
<g id="edge10_Node000001_Node000007" class="edge">
<title>Node1&#45;&gt;Node7</title>
<g id="a_edge10_Node000001_Node000007"><a xlink:title=" ">
<path fill="none" stroke="#63b8ff" d="M488.36,-74.39C479.12,-66.79 467.2,-58.42 455,-53.75 404.3,-34.33 340.88,-31.48 301.14,-32.01"/>
<polygon fill="#63b8ff" stroke="#63b8ff" points="486.18,-77.12 496.03,-81.02 490.75,-71.83 486.18,-77.12"/>
</a>
</g>
</g>
<!-- Node8 -->
<g id="Node000008" class="node">
<title>Node8</title>
<g id="a_Node000008"><a xlink:href="dedup__extract_8c.html#a47f190938eb8c3ba0fe0b826f18146e6" target="_top" xlink:title="Parse CLI args (minimal).">
<polygon fill="white" stroke="#666666" points="165,-44.25 95,-44.25 95,-25.25 165,-25.25 165,-44.25"/>
<text text-anchor="middle" x="130" y="-32.25" font-family="Helvetica,sans-Serif" font-size="10.00">parse_args</text>
</a>
</g>
</g>
<!-- Node1&#45;&gt;Node8 -->
<g id="edge12_Node000001_Node000008" class="edge">
<title>Node1&#45;&gt;Node8</title>
<g id="a_edge12_Node000001_Node000008"><a xlink:title=" ">
<path fill="none" stroke="#63b8ff" d="M496.14,-72.08C487.4,-57.6 473.21,-38.41 455,-28.75 358.09,22.66 220.82,-7.73 160.91,-25.13"/>
<polygon fill="#63b8ff" stroke="#63b8ff" points="493.32,-74.21 501.3,-81.18 499.41,-70.76 493.32,-74.21"/>
</a>
</g>
</g>
<!-- Node3 -->
<g id="Node000003" class="node">
<title>Node3</title>
<g id="a_Node000003"><a xlink:href="dedup__extract_8c.html#a618cf3d2df49c6187a537d8333402edd" target="_top" xlink:title="Load manifest JSON array into a blob list.">
<polygon fill="white" stroke="#666666" points="305,-195.25 219,-195.25 219,-176.25 305,-176.25 305,-195.25"/>
<text text-anchor="middle" x="262" y="-183.25" font-family="Helvetica,sans-Serif" font-size="10.00">load_manifest</text>
</a>
</g>
</g>
<!-- Node2&#45;&gt;Node3 -->
<g id="edge2_Node000002_Node000003" class="edge">
<title>Node2&#45;&gt;Node3</title>
<g id="a_edge2_Node000002_Node000003"><a xlink:title=" ">
<path fill="none" stroke="#63b8ff" d="M352.27,-185.75C337.03,-185.75 320.06,-185.75 305.05,-185.75"/>
<polygon fill="#63b8ff" stroke="#63b8ff" points="352.49,-189.25 362.49,-185.75 352.49,-182.25 352.49,-189.25"/>
</a>
</g>
</g>
<!-- Node3&#45;&gt;Node4 -->
<g id="edge3_Node000003_Node000004" class="edge">
<title>Node3&#45;&gt;Node4</title>
<g id="a_edge3_Node000003_Node000004"><a xlink:title=" ">
<path fill="none" stroke="#63b8ff" d="M208.77,-184.55C171.21,-182.35 119.86,-176.58 77,-161.75 61.32,-156.33 45.22,-146.14 34.43,-138.52"/>
<polygon fill="#63b8ff" stroke="#63b8ff" points="208.81,-188.06 218.97,-185.08 209.17,-181.07 208.81,-188.06"/>
</a>
</g>
</g>
<!-- Node5&#45;&gt;Node4 -->
<g id="edge5_Node000005_Node000004" class="edge">
<title>Node5&#45;&gt;Node4</title>
<g id="a_edge5_Node000005_Node000004"><a xlink:title=" ">
<path fill="none" stroke="#63b8ff" d="M92.15,-103.78C75.04,-109.82 55.38,-116.77 41.15,-121.8"/>
<polygon fill="#63b8ff" stroke="#63b8ff" points="93.61,-106.97 101.87,-100.34 91.28,-100.37 93.61,-106.97"/>
</a>
</g>
</g>
<!-- Node6&#45;&gt;Node5 -->
<g id="edge7_Node000006_Node000005" class="edge">
<title>Node6&#45;&gt;Node5</title>
<g id="a_edge7_Node000006_Node000005"><a xlink:title=" ">
<path fill="none" stroke="#63b8ff" d="M330.84,-76.48C285.3,-79.73 225.64,-83.99 183.39,-87.01"/>
<polygon fill="#63b8ff" stroke="#63b8ff" points="331.19,-79.96 340.91,-75.76 330.69,-72.98 331.19,-79.96"/>
</a>
</g>
</g>
<!-- Node6&#45;&gt;Node7 -->
<g id="edge8_Node000006_Node000007" class="edge">
<title>Node6&#45;&gt;Node7</title>
<g id="a_edge8_Node000006_Node000007"><a xlink:title=" ">
<path fill="none" stroke="#63b8ff" d="M353.56,-59.43C335.15,-54.21 314.02,-48.22 296.8,-43.34"/>
<polygon fill="#63b8ff" stroke="#63b8ff" points="352.61,-62.8 363.19,-62.16 354.52,-56.07 352.61,-62.8"/>
</a>
</g>
</g>
<!-- Node7&#45;&gt;Node5 -->
<g id="edge9_Node000007_Node000005" class="edge">
<title>Node7&#45;&gt;Node5</title>
<g id="a_edge9_Node000007_Node000005"><a xlink:title=" ">
<path fill="none" stroke="#63b8ff" d="M229.94,-47.37C206.16,-57.8 173.95,-71.92 152.83,-81.18"/>
<polygon fill="#63b8ff" stroke="#63b8ff" points="231.49,-50.51 239.24,-43.29 228.68,-44.1 231.49,-50.51"/>
</a>
</g>
</g>
<!-- Node8&#45;&gt;Node4 -->
<g id="edge13_Node000008_Node000004" class="edge">
<title>Node8&#45;&gt;Node4</title>
<g id="a_edge13_Node000008_Node000004"><a xlink:title=" ">
<path fill="none" stroke="#63b8ff" d="M106.03,-50.34C96.76,-56.94 86.12,-64.9 77,-72.75 59.36,-87.93 40.67,-107.64 30.11,-119.18"/>
<polygon fill="#63b8ff" stroke="#63b8ff" points="108.22,-53.08 114.41,-44.49 104.21,-47.35 108.22,-53.08"/>
</a>
</g>
</g>
</g>
</svg>
