<?xml version="1.0" encoding="UTF-8" standalone="no"?>
<!DOCTYPE svg PUBLIC "-//W3C//DTD SVG 1.1//EN"
 "http://www.w3.org/Graphics/SVG/1.1/DTD/svg11.dtd">
<!-- Generated by graphviz version 2.43.0 (0)
 -->
<!-- Title: fwrite_all Pages: 1 -->
<svg width="257pt" height="47pt"
 viewBox="0.00 0.00 257.00 47.00" xmlns="http://www.w3.org/2000/svg" xmlns:xlink="http://www.w3.org/1999/xlink">
<g id="graph0" class="graph" transform="scale(1 1) rotate(0) translate(4 43)">
<title>fwrite_all</title>
<!-- Node1 -->
<g id="node1" class="node">
<title>Node1</title>
<g id="a_node1"><a xlink:title="Write exactly n bytes.">
<polygon fill="#bfbfbf" stroke="black" points="187,-0.5 187,-19.5 249,-19.5 249,-0.5 187,-0.5"/>
<text text-anchor="middle" x="218" y="-7.5" font-family="Helvetica,sans-Serif" font-size="10.00">fwrite_all</text>
</a>
</g>
</g>
<!-- Node2 -->
<g id="node2" class="node">
<title>Node2</title>
<g id="a_node2"><a xlink:href="dedup__extract_8c.html#af7f8f9ec1fab41dc2551475d34a1afdd" target="_top" xlink:title="Compare member blob to default blob and emit exceptions + mask.">
<polygon fill="none" stroke="black" points="77,-19.5 77,-38.5 151,-38.5 151,-19.5 77,-19.5"/>
<text text-anchor="middle" x="114" y="-26.5" font-family="Helvetica,sans-Serif" font-size="10.00">extract_one</text>
</a>
</g>
</g>
<!-- Node1&#45;&gt;Node2 -->
<g id="edge1" class="edge">
<title>Node1&#45;&gt;Node2</title>
<path fill="none" stroke="midnightblue" d="M176.93,-17.46C168.48,-19.04 159.62,-20.69 151.33,-22.23"/>
<polygon fill="midnightblue" stroke="midnightblue" points="177.76,-20.87 186.95,-15.6 176.48,-13.99 177.76,-20.87"/>
</g>
<!-- Node3 -->
<g id="node3" class="node">
<title>Node3</title>
<g id="a_node3"><a xlink:href="dedup__extract_8c.html#a3c04138a5bfe5d72780bb7e82a18e627" target="_top" xlink:title=" ">
<polygon fill="none" stroke="black" points="0,-0.5 0,-19.5 41,-19.5 41,-0.5 0,-0.5"/>
<text text-anchor="middle" x="20.5" y="-7.5" font-family="Helvetica,sans-Serif" font-size="10.00">main</text>
</a>
</g>
</g>
<!-- Node1&#45;&gt;Node3 -->
<g id="edge3" class="edge">
<title>Node1&#45;&gt;Node3</title>
<path fill="none" stroke="midnightblue" d="M176.87,-10C135.55,-10 72.87,-10 41.24,-10"/>
<polygon fill="midnightblue" stroke="midnightblue" points="176.88,-13.5 186.88,-10 176.88,-6.5 176.88,-13.5"/>
</g>
<!-- Node2&#45;&gt;Node3 -->
<g id="edge2" class="edge">
<title>Node2&#45;&gt;Node3</title>
<path fill="none" stroke="midnightblue" d="M66.99,-19.45C57.86,-17.55 48.74,-15.66 41.09,-14.07"/>
<polygon fill="midnightblue" stroke="midnightblue" points="66.33,-22.88 76.84,-21.49 67.76,-16.03 66.33,-22.88"/>
</g>
</g>
</svg>
