<?xml version="1.0" encoding="UTF-8" standalone="no"?>
<!DOCTYPE svg PUBLIC "-//W3C//DTD SVG 1.1//EN"
 "http://www.w3.org/Graphics/SVG/1.1/DTD/svg11.dtd">
<!-- Generated by graphviz version 2.43.0 (0)
 -->
<!-- Title: load_manifest Pages: 1 -->
<svg width="519pt" height="254pt"
 viewBox="0.00 0.00 519.00 254.00" xmlns="http://www.w3.org/2000/svg" xmlns:xlink="http://www.w3.org/1999/xlink">
<g id="graph0" class="graph" transform="scale(1 1) rotate(0) translate(4 250)">
<title>load_manifest</title>
<!-- Node1 -->
<g id="Node000001" class="node">
<title>Node1</title>
<g id="a_Node000001"><a xlink:title="Load manifest JSON array into a blob list.">
<polygon fill="#999999" stroke="#666666" points="86,-113 0,-113 0,-94 86,-94 86,-113"/>
<text text-anchor="middle" x="43" y="-101" font-family="Helvetica,sans-Serif" font-size="10.00">load_manifest</text>
</a>
</g>
</g>
<!-- Node2 -->
<g id="Node000002" class="node">
<title>Node2</title>
<g id="a_Node000002"><a xlink:href="dedup__extract_8c.html#a700096ed66315cf55e25b7574471f194" target="_top" xlink:title="Append a blob_ref to list.">
<polygon fill="white" stroke="#666666" points="207,-208 136,-208 136,-189 207,-189 207,-208"/>
<text text-anchor="middle" x="171.5" y="-196" font-family="Helvetica,sans-Serif" font-size="10.00">blobs_push</text>
</a>
</g>
</g>
<!-- Node1&#45;&gt;Node2 -->
<g id="edge1_Node000001_Node000002" class="edge">
<title>Node1&#45;&gt;Node2</title>
<g id="a_edge1_Node000001_Node000002"><a xlink:title=" ">
<path fill="none" stroke="#63b8ff" d="M52.88,-113.16C66.66,-127.75 94.47,-155.71 122,-174.5 127.3,-178.12 133.21,-181.51 139.05,-184.54"/>
<polygon fill="#63b8ff" stroke="#63b8ff" points="137.53,-187.69 148.04,-188.99 140.63,-181.42 137.53,-187.69"/>
</a>
</g>
</g>
<!-- Node4 -->
<g id="Node000004" class="node">
<title>Node4</title>
<g id="a_Node000004"><a xlink:href="ie__device__cuda_8cu.html#a5e3d9fee84981707669f5c2398f0c4ab" target="_top" xlink:title="Row&#45;wise GEMV kernel: each thread computes one output row.">
<polygon fill="white" stroke="#666666" points="511,-137.5 386,-137.5 386,-107.5 511,-107.5 511,-137.5"/>
<text text-anchor="start" x="394" y="-125.5" font-family="Helvetica,sans-Serif" font-size="10.00">ie_gemv_rowwise_f32</text>
<text text-anchor="middle" x="448.5" y="-114.5" font-family="Helvetica,sans-Serif" font-size="10.00">_kernel</text>
</a>
</g>
</g>
<!-- Node1&#45;&gt;Node4 -->
<g id="edge5_Node000001_Node000004" class="edge">
<title>Node1&#45;&gt;Node4</title>
<g id="a_edge5_Node000001_Node000004"><a xlink:title=" ">
<path fill="none" stroke="#63b8ff" d="M71.86,-113.01C86.61,-117.72 105.11,-123.1 122,-126.5 221.55,-146.55 248.92,-151.26 350,-141.5 358.39,-140.69 367.13,-139.5 375.78,-138.1"/>
<polygon fill="#63b8ff" stroke="#63b8ff" points="376.6,-141.51 385.87,-136.37 375.42,-134.61 376.6,-141.51"/>
</a>
</g>
</g>
<!-- Node5 -->
<g id="Node000005" class="node">
<title>Node5</title>
<g id="a_Node000005"><a xlink:href="dedup__extract_8c.html#a97baf0b47b71bc968743bcd64951e92a" target="_top" xlink:title="Very small JSON string extractor.">
<polygon fill="white" stroke="#666666" points="350,-132 257,-132 257,-113 350,-113 350,-132"/>
<text text-anchor="middle" x="303.5" y="-120" font-family="Helvetica,sans-Serif" font-size="10.00">json_find_string</text>
</a>
</g>
</g>
<!-- Node1&#45;&gt;Node5 -->
<g id="edge6_Node000001_Node000005" class="edge">
<title>Node1&#45;&gt;Node5</title>
<g id="a_edge6_Node000001_Node000005"><a xlink:title=" ">
<path fill="none" stroke="#63b8ff" d="M86.11,-106.59C129.83,-109.81 198.44,-114.85 246.66,-118.4"/>
<polygon fill="#63b8ff" stroke="#63b8ff" points="246.7,-121.91 256.93,-119.15 247.21,-114.93 246.7,-121.91"/>
</a>
</g>
</g>
<!-- Node6 -->
<g id="Node000006" class="node">
<title>Node6</title>
<g id="a_Node000006"><a xlink:href="dedup__extract_8c.html#a94accf41f931a3d64a21b9c56ca95c83" target="_top" xlink:title="Very small JSON integer extractor (unsigned).">
<polygon fill="white" stroke="#666666" points="345,-95 262,-95 262,-76 345,-76 345,-95"/>
<text text-anchor="middle" x="303.5" y="-83" font-family="Helvetica,sans-Serif" font-size="10.00">json_find_u64</text>
</a>
</g>
</g>
<!-- Node1&#45;&gt;Node6 -->
<g id="edge8_Node000001_Node000006" class="edge">
<title>Node1&#45;&gt;Node6</title>
<g id="a_edge8_Node000001_Node000006"><a xlink:title=" ">
<path fill="none" stroke="#63b8ff" d="M86.11,-100.57C131.29,-97.42 203.07,-92.42 251.44,-89.06"/>
<polygon fill="#63b8ff" stroke="#63b8ff" points="251.96,-92.53 261.69,-88.34 251.47,-85.54 251.96,-92.53"/>
</a>
</g>
</g>
<!-- Node7 -->
<g id="Node000007" class="node">
<title>Node7</title>
<g id="a_Node000007"><a xlink:href="dedup__extract_8c.html#a5bb1f0540f872c0a7bca26a7b472e369" target="_top" xlink:title="Map a manifest &quot;kind&quot; string to enum.">
<polygon fill="white" stroke="#666666" points="221,-56 122,-56 122,-37 221,-37 221,-56"/>
<text text-anchor="middle" x="171.5" y="-44" font-family="Helvetica,sans-Serif" font-size="10.00">kind_from_string</text>
</a>
</g>
</g>
<!-- Node1&#45;&gt;Node7 -->
<g id="edge10_Node000001_Node000007" class="edge">
<title>Node1&#45;&gt;Node7</title>
<g id="a_edge10_Node000001_Node000007"><a xlink:title=" ">
<path fill="none" stroke="#63b8ff" d="M65.17,-93.96C85.61,-84.75 116.76,-70.72 139.89,-60.29"/>
<polygon fill="#63b8ff" stroke="#63b8ff" points="141.58,-63.37 149.26,-56.07 138.7,-56.99 141.58,-63.37"/>
</a>
</g>
</g>
<!-- Node8 -->
<g id="Node000008" class="node">
<title>Node8</title>
<g id="a_Node000008"><a xlink:href="dedup__extract_8c.html#ac3d1bdd56fe4519a2e27089fedeeeaff" target="_top" xlink:title="Read entire file into memory (binary).">
<polygon fill="white" stroke="#666666" points="209.5,-19 133.5,-19 133.5,0 209.5,0 209.5,-19"/>
<text text-anchor="middle" x="171.5" y="-7" font-family="Helvetica,sans-Serif" font-size="10.00">read_file_all</text>
</a>
</g>
</g>
<!-- Node1&#45;&gt;Node8 -->
<g id="edge12_Node000001_Node000008" class="edge">
<title>Node1&#45;&gt;Node8</title>
<g id="a_edge12_Node000001_Node000008"><a xlink:title=" ">
<path fill="none" stroke="#63b8ff" d="M51.64,-93.78C64.57,-77.9 92.28,-46.3 122,-27.5 124.42,-25.97 126.99,-24.54 129.63,-23.21"/>
<polygon fill="#63b8ff" stroke="#63b8ff" points="131.12,-26.38 138.8,-19.08 128.24,-20 131.12,-26.38"/>
</a>
</g>
</g>
<!-- Node3 -->
<g id="Node000003" class="node">
<title>Node3</title>
<g id="a_Node000003"><a xlink:href="dedup__extract_8c.html#a3ff0b79d96423fac3426976845b269fe" target="_top" xlink:title="Exit with an error message.">
<polygon fill="white" stroke="#666666" points="319.5,-246 287.5,-246 287.5,-227 319.5,-227 319.5,-246"/>
<text text-anchor="middle" x="303.5" y="-234" font-family="Helvetica,sans-Serif" font-size="10.00">die</text>
</a>
</g>
</g>
<!-- Node2&#45;&gt;Node3 -->
<g id="edge2_Node000002_Node000003" class="edge">
<title>Node2&#45;&gt;Node3</title>
<g id="a_edge2_Node000002_Node000003"><a xlink:title=" ">
<path fill="none" stroke="#63b8ff" d="M205.3,-208.09C227.72,-214.64 256.98,-223.19 277.51,-229.2"/>
<polygon fill="#63b8ff" stroke="#63b8ff" points="276.79,-232.63 287.37,-232.08 278.76,-225.91 276.79,-232.63"/>
</a>
</g>
</g>
<!-- Node2&#45;&gt;Node4 -->
<g id="edge4_Node000002_Node000004" class="edge">
<title>Node2&#45;&gt;Node4</title>
<g id="a_edge4_Node000002_Node000004"><a xlink:title=" ">
<path fill="none" stroke="#63b8ff" d="M207.33,-197.43C243.71,-195.47 302.06,-189.97 350,-174.5 373.38,-166.96 397.76,-153.95 416.3,-142.83"/>
<polygon fill="#63b8ff" stroke="#63b8ff" points="418.2,-145.77 424.9,-137.56 414.54,-139.8 418.2,-145.77"/>
</a>
</g>
</g>
<!-- Node3&#45;&gt;Node4 -->
<g id="edge3_Node000003_Node000004" class="edge">
<title>Node3&#45;&gt;Node4</title>
<g id="a_edge3_Node000003_Node000004"><a xlink:title=" ">
<path fill="none" stroke="#63b8ff" d="M319.83,-229.65C328.93,-225.29 340.52,-219.2 350,-212.5 378.56,-192.31 407.54,-164.41 426.4,-145.04"/>
<polygon fill="#63b8ff" stroke="#63b8ff" points="428.93,-147.46 433.35,-137.82 423.89,-142.6 428.93,-147.46"/>
</a>
</g>
</g>
<!-- Node5&#45;&gt;Node4 -->
<g id="edge7_Node000005_Node000004" class="edge">
<title>Node5&#45;&gt;Node4</title>
<g id="a_edge7_Node000005_Node000004"><a xlink:title=" ">
<path fill="none" stroke="#63b8ff" d="M350.14,-122.5C358.31,-122.5 366.99,-122.5 375.68,-122.5"/>
<polygon fill="#63b8ff" stroke="#63b8ff" points="375.86,-126 385.86,-122.5 375.86,-119 375.86,-126"/>
</a>
</g>
</g>
<!-- Node6&#45;&gt;Node4 -->
<g id="edge9_Node000006_Node000004" class="edge">
<title>Node6&#45;&gt;Node4</title>
<g id="a_edge9_Node000006_Node000004"><a xlink:title=" ">
<path fill="none" stroke="#63b8ff" d="M341.33,-95.03C353,-98.05 366.3,-101.49 379.44,-104.89"/>
<polygon fill="#63b8ff" stroke="#63b8ff" points="378.87,-108.36 389.43,-107.48 380.63,-101.58 378.87,-108.36"/>
</a>
</g>
</g>
<!-- Node7&#45;&gt;Node4 -->
<g id="edge11_Node000007_Node000004" class="edge">
<title>Node7&#45;&gt;Node4</title>
<g id="a_edge11_Node000007_Node000004"><a xlink:title=" ">
<path fill="none" stroke="#63b8ff" d="M221.07,-47.11C257.38,-48.79 307.82,-53.72 350,-67.5 374.4,-75.47 399.58,-89.86 418.23,-101.92"/>
<polygon fill="#63b8ff" stroke="#63b8ff" points="416.31,-104.84 426.58,-107.44 420.17,-99 416.31,-104.84"/>
</a>
</g>
</g>
<!-- Node8&#45;&gt;Node4 -->
<g id="edge13_Node000008_Node000004" class="edge">
<title>Node8&#45;&gt;Node4</title>
<g id="a_edge13_Node000008_Node000004"><a xlink:title=" ">
<path fill="none" stroke="#63b8ff" d="M209.76,-11.99C246.8,-15.62 304.5,-24.4 350,-45.5 379.11,-59 407.31,-82.81 425.83,-100.39"/>
<polygon fill="#63b8ff" stroke="#63b8ff" points="423.53,-103.04 433.14,-107.49 428.41,-98.02 423.53,-103.04"/>
</a>
</g>
</g>
</g>
</svg>
