<?xml version="1.0" encoding="UTF-8" standalone="no"?>
<!DOCTYPE svg PUBLIC "-//W3C//DTD SVG 1.1//EN"
 "http://www.w3.org/Graphics/SVG/1.1/DTD/svg11.dtd">
<!-- Generated by graphviz version 2.43.0 (0)
 -->
<!-- Title: ie_dedup_cache_get_bytes Pages: 1 -->
<svg width="434pt" height="284pt"
 viewBox="0.00 0.00 434.00 284.00" xmlns="http://www.w3.org/2000/svg" xmlns:xlink="http://www.w3.org/1999/xlink">
<g id="graph0" class="graph" transform="scale(1 1) rotate(0) translate(4 280)">
<title>ie_dedup_cache_get_bytes</title>
<!-- Node1 -->
<g id="Node000001" class="node">
<title>Node1</title>
<g id="a_Node000001"><a xlink:title=" ">
<polygon fill="#999999" stroke="#666666" points="116,-153.5 0,-153.5 0,-123.5 116,-123.5 116,-153.5"/>
<text text-anchor="start" x="8" y="-141.5" font-family="Helvetica,sans-Serif" font-size="10.00">ie_dedup_cache_get</text>
<text text-anchor="middle" x="58" y="-130.5" font-family="Helvetica,sans-Serif" font-size="10.00">_bytes</text>
</a>
</g>
</g>
<!-- Node2 -->
<g id="Node000002" class="node">
<title>Node2</title>
<g id="a_Node000002"><a xlink:href="dedup__cache_8c.html#ac6a08976b777a906f46f9472e5b55e4e" target="_top" xlink:title="Free a cache entry&#39;s owned buffer and reset it.">
<polygon fill="white" stroke="#666666" points="284,-276 165,-276 165,-257 284,-257 284,-276"/>
<text text-anchor="middle" x="224.5" y="-264" font-family="Helvetica,sans-Serif" font-size="10.00">ie_cache_entry_clear</text>
</a>
</g>
</g>
<!-- Node1&#45;&gt;Node2 -->
<g id="edge1_Node000001_Node000002" class="edge">
<title>Node1&#45;&gt;Node2</title>
<g id="a_edge1_Node000001_Node000002"><a xlink:title=" ">
<path fill="none" stroke="#63b8ff" d="M67.43,-153.54C81.66,-177.47 112.75,-224.01 152,-248.5 154.63,-250.14 157.4,-251.63 160.27,-252.99"/>
<polygon fill="#63b8ff" stroke="#63b8ff" points="159.09,-256.29 169.67,-256.87 161.76,-249.82 159.09,-256.29"/>
</a>
</g>
</g>
<!-- Node3 -->
<g id="Node000003" class="node">
<title>Node3</title>
<g id="a_Node000003"><a xlink:href="dedup__cache_8c.html#a45cf4452c92968a996d13e397f121b33" target="_top" xlink:title="Find the best eviction candidate (lowest stamp).">
<polygon fill="white" stroke="#666666" points="280.5,-239 168.5,-239 168.5,-220 280.5,-220 280.5,-239"/>
<text text-anchor="middle" x="224.5" y="-227" font-family="Helvetica,sans-Serif" font-size="10.00">ie_cache_find_evict</text>
</a>
</g>
</g>
<!-- Node1&#45;&gt;Node3 -->
<g id="edge2_Node000001_Node000003" class="edge">
<title>Node1&#45;&gt;Node3</title>
<g id="a_edge2_Node000001_Node000003"><a xlink:title=" ">
<path fill="none" stroke="#63b8ff" d="M74.45,-153.66C91.9,-169.97 121.8,-195.56 152,-210.5 156.82,-212.88 161.98,-215 167.23,-216.86"/>
<polygon fill="#63b8ff" stroke="#63b8ff" points="166.15,-220.19 176.74,-219.96 168.32,-213.54 166.15,-220.19"/>
</a>
</g>
</g>
<!-- Node4 -->
<g id="Node000004" class="node">
<title>Node4</title>
<g id="a_Node000004"><a xlink:href="dedup__cache_8c.html#aea719e1357569e1aff6875eb37100729" target="_top" xlink:title=" ">
<polygon fill="white" stroke="#666666" points="283.5,-201.5 165.5,-201.5 165.5,-171.5 283.5,-171.5 283.5,-201.5"/>
<text text-anchor="start" x="173.5" y="-189.5" font-family="Helvetica,sans-Serif" font-size="10.00">ie_dedup_cache_find</text>
<text text-anchor="middle" x="224.5" y="-178.5" font-family="Helvetica,sans-Serif" font-size="10.00">_group_for_target</text>
</a>
</g>
</g>
<!-- Node1&#45;&gt;Node4 -->
<g id="edge3_Node000001_Node000004" class="edge">
<title>Node1&#45;&gt;Node4</title>
<g id="a_edge3_Node000001_Node000004"><a xlink:title=" ">
<path fill="none" stroke="#63b8ff" d="M110.6,-153.56C126.98,-158.34 145.26,-163.67 162.25,-168.63"/>
<polygon fill="#63b8ff" stroke="#63b8ff" points="161.51,-172.06 172.09,-171.5 163.47,-165.34 161.51,-172.06"/>
</a>
</g>
</g>
<!-- Node5 -->
<g id="Node000005" class="node">
<title>Node5</title>
<g id="a_Node000005"><a xlink:href="dedup__cache_8c.html#aeba05aa21a46aeda2fa958e22c02b9d9" target="_top" xlink:title=" ">
<polygon fill="white" stroke="#666666" points="283.5,-153.5 165.5,-153.5 165.5,-123.5 283.5,-123.5 283.5,-153.5"/>
<text text-anchor="start" x="173.5" y="-141.5" font-family="Helvetica,sans-Serif" font-size="10.00">ie_dedup_cache_find</text>
<text text-anchor="middle" x="224.5" y="-130.5" font-family="Helvetica,sans-Serif" font-size="10.00">_target</text>
</a>
</g>
</g>
<!-- Node1&#45;&gt;Node5 -->
<g id="edge4_Node000001_Node000005" class="edge">
<title>Node1&#45;&gt;Node5</title>
<g id="a_edge4_Node000001_Node000005"><a xlink:title=" ">
<path fill="none" stroke="#63b8ff" d="M116.07,-138.5C128.67,-138.5 142.13,-138.5 155.12,-138.5"/>
<polygon fill="#63b8ff" stroke="#63b8ff" points="155.41,-142 165.41,-138.5 155.41,-135 155.41,-142"/>
</a>
</g>
</g>
<!-- Node6 -->
<g id="Node000006" class="node">
<title>Node6</title>
<g id="a_Node000006"><a xlink:href="dedup__cache_8c.html#a89bf52f99aa158c0e2f1a6bb208be3a8" target="_top" xlink:title=" ">
<polygon fill="white" stroke="#666666" points="297,-105 152,-105 152,-86 297,-86 297,-105"/>
<text text-anchor="middle" x="224.5" y="-93" font-family="Helvetica,sans-Serif" font-size="10.00">ie_dedup_reconstruct_into</text>
</a>
</g>
</g>
<!-- Node1&#45;&gt;Node6 -->
<g id="edge5_Node000001_Node000006" class="edge">
<title>Node1&#45;&gt;Node6</title>
<g id="a_edge5_Node000001_Node000006"><a xlink:title=" ">
<path fill="none" stroke="#63b8ff" d="M116.07,-123.58C136.05,-118.36 158.22,-112.56 177.21,-107.6"/>
<polygon fill="#63b8ff" stroke="#63b8ff" points="178.32,-110.93 187.11,-105.01 176.55,-104.15 178.32,-110.93"/>
</a>
</g>
</g>
<!-- Node7 -->
<g id="Node000007" class="node">
<title>Node7</title>
<g id="a_Node000007"><a xlink:href="ie__device__cuda_8cu.html#a5e3d9fee84981707669f5c2398f0c4ab" target="_top" xlink:title="Row&#45;wise GEMV kernel: each thread computes one output row.">
<polygon fill="white" stroke="#666666" points="287,-67.5 162,-67.5 162,-37.5 287,-37.5 287,-67.5"/>
<text text-anchor="start" x="170" y="-55.5" font-family="Helvetica,sans-Serif" font-size="10.00">ie_gemv_rowwise_f32</text>
<text text-anchor="middle" x="224.5" y="-44.5" font-family="Helvetica,sans-Serif" font-size="10.00">_kernel</text>
</a>
</g>
</g>
<!-- Node1&#45;&gt;Node7 -->
<g id="edge6_Node000001_Node000007" class="edge">
<title>Node1&#45;&gt;Node7</title>
<g id="a_edge6_Node000001_Node000007"><a xlink:title=" ">
<path fill="none" stroke="#63b8ff" d="M78.83,-123.43C97.1,-110.06 125.33,-90.66 152,-77.5 156.34,-75.36 160.91,-73.31 165.56,-71.39"/>
<polygon fill="#63b8ff" stroke="#63b8ff" points="167.13,-74.53 175.15,-67.59 164.56,-68.02 167.13,-74.53"/>
</a>
</g>
</g>
<!-- Node8 -->
<g id="Node000008" class="node">
<title>Node8</title>
<g id="a_Node000008"><a xlink:href="dedup__cache_8c.html#ae10e88eab21a7202c4d10d55c804d3db" target="_top" xlink:title="Compute the expected exception byte count from a mask.">
<polygon fill="white" stroke="#666666" points="294.5,-19 154.5,-19 154.5,0 294.5,0 294.5,-19"/>
<text text-anchor="middle" x="224.5" y="-7" font-family="Helvetica,sans-Serif" font-size="10.00">ie_mask_popcount_bytes</text>
</a>
</g>
</g>
<!-- Node1&#45;&gt;Node8 -->
<g id="edge7_Node000001_Node000008" class="edge">
<title>Node1&#45;&gt;Node8</title>
<g id="a_edge7_Node000001_Node000008"><a xlink:title=" ">
<path fill="none" stroke="#63b8ff" d="M67.71,-123.13C82.09,-99.17 113.12,-53.11 152,-28.5 155.32,-26.4 158.88,-24.52 162.55,-22.86"/>
<polygon fill="#63b8ff" stroke="#63b8ff" points="163.91,-26.09 171.9,-19.13 161.31,-19.58 163.91,-26.09"/>
</a>
</g>
</g>
<!-- Node9 -->
<g id="Node000009" class="node">
<title>Node9</title>
<g id="a_Node000009"><a xlink:href="dedup__cache_8c.html#adab1e0fd1c4f87b8a2e41ba11e65f1cc" target="_top" xlink:title="Count set bits in a byte using a precomputed nibble table.">
<polygon fill="white" stroke="#666666" points="426,-19 333,-19 333,0 426,0 426,-19"/>
<text text-anchor="middle" x="379.5" y="-7" font-family="Helvetica,sans-Serif" font-size="10.00">ie_popcount_u8</text>
</a>
</g>
</g>
<!-- Node8&#45;&gt;Node9 -->
<g id="edge8_Node000008_Node000009" class="edge">
<title>Node8&#45;&gt;Node9</title>
<g id="a_edge8_Node000008_Node000009"><a xlink:title=" ">
<path fill="none" stroke="#63b8ff" d="M294.84,-9.5C304.04,-9.5 313.39,-9.5 322.34,-9.5"/>
<polygon fill="#63b8ff" stroke="#63b8ff" points="322.62,-13 332.62,-9.5 322.62,-6 322.62,-13"/>
</a>
</g>
</g>
</g>
</svg>
