<?xml version="1.0" encoding="UTF-8" standalone="no"?>
<!DOCTYPE svg PUBLIC "-//W3C//DTD SVG 1.1//EN"
 "http://www.w3.org/Graphics/SVG/1.1/DTD/svg11.dtd">
<!-- Generated by graphviz version 2.43.0 (0)
 -->
<!-- Title: ie_popcount_u8 Pages: 1 -->
<svg width="429pt" height="39pt"
 viewBox="0.00 0.00 429.00 39.00" xmlns="http://www.w3.org/2000/svg" xmlns:xlink="http://www.w3.org/1999/xlink">
<g id="graph0" class="graph" transform="scale(1 1) rotate(0) translate(4 35)">
<title>ie_popcount_u8</title>
<!-- Node1 -->
<g id="node1" class="node">
<title>Node1</title>
<g id="a_node1"><a xlink:title="Count set bits in a byte using a precomputed nibble table.">
<polygon fill="#bfbfbf" stroke="black" points="328,-6 328,-25 421,-25 421,-6 328,-6"/>
<text text-anchor="middle" x="374.5" y="-13" font-family="Helvetica,sans-Serif" font-size="10.00">ie_popcount_u8</text>
</a>
</g>
</g>
<!-- Node2 -->
<g id="node2" class="node">
<title>Node2</title>
<g id="a_node2"><a xlink:href="dedup__cache_8c.html#ae10e88eab21a7202c4d10d55c804d3db" target="_top" xlink:title="Compute the expected exception byte count from a mask.">
<polygon fill="none" stroke="black" points="152,-6 152,-25 292,-25 292,-6 152,-6"/>
<text text-anchor="middle" x="222" y="-13" font-family="Helvetica,sans-Serif" font-size="10.00">ie_mask_popcount_bytes</text>
</a>
</g>
</g>
<!-- Node1&#45;&gt;Node2 -->
<g id="edge1" class="edge">
<title>Node1&#45;&gt;Node2</title>
<path fill="none" stroke="midnightblue" d="M317.87,-15.5C309.45,-15.5 300.68,-15.5 292.02,-15.5"/>
<polygon fill="midnightblue" stroke="midnightblue" points="317.94,-19 327.94,-15.5 317.94,-12 317.94,-19"/>
</g>
<!-- Node3 -->
<g id="node3" class="node">
<title>Node3</title>
<g id="a_node3"><a xlink:href="dedup__cache_8c.html#a88353c994e5da9f4dd9c2b2dba16463c" target="_top" xlink:title=" ">
<polygon fill="none" stroke="black" points="0,-0.5 0,-30.5 116,-30.5 116,-0.5 0,-0.5"/>
<text text-anchor="start" x="8" y="-18.5" font-family="Helvetica,sans-Serif" font-size="10.00">ie_dedup_cache_get</text>
<text text-anchor="middle" x="58" y="-7.5" font-family="Helvetica,sans-Serif" font-size="10.00">_bytes</text>
</a>
</g>
</g>
<!-- Node2&#45;&gt;Node3 -->
<g id="edge2" class="edge">
<title>Node2&#45;&gt;Node3</title>
<path fill="none" stroke="midnightblue" d="M141.76,-15.5C133.14,-15.5 124.51,-15.5 116.23,-15.5"/>
<polygon fill="midnightblue" stroke="midnightblue" points="141.83,-19 151.83,-15.5 141.83,-12 141.83,-19"/>
</g>
</g>
</svg>
