<?xml version="1.0" encoding="UTF-8" standalone="no"?>
<!DOCTYPE svg PUBLIC "-//W3C//DTD SVG 1.1//EN"
 "http://www.w3.org/Graphics/SVG/1.1/DTD/svg11.dtd">
<!-- Generated by graphviz version 2.43.0 (0)
 -->
<!-- Title: parse_args Pages: 1 -->
<svg width="307pt" height="52pt"
 viewBox="0.00 0.00 307.00 51.50" xmlns="http://www.w3.org/2000/svg" xmlns:xlink="http://www.w3.org/1999/xlink">
<g id="graph0" class="graph" transform="scale(1 1) rotate(0) translate(4 47.5)">
<title>parse_args</title>
<!-- Node1 -->
<g id="Node000001" class="node">
<title>Node1</title>
<g id="a_Node000001"><a xlink:title="Parse CLI args (minimal).">
<polygon fill="#999999" stroke="#666666" points="70,-24.5 0,-24.5 0,-5.5 70,-5.5 70,-24.5"/>
<text text-anchor="middle" x="35" y="-12.5" font-family="Helvetica,sans-Serif" font-size="10.00">parse_args</text>
</a>
</g>
</g>
<!-- Node2 -->
<g id="Node000002" class="node">
<title>Node2</title>
<g id="a_Node000002"><a xlink:href="dedup__extract_8c.html#a3ff0b79d96423fac3426976845b269fe" target="_top" xlink:title="Exit with an error message.">
<polygon fill="white" stroke="#666666" points="138,-43.5 106,-43.5 106,-24.5 138,-24.5 138,-43.5"/>
<text text-anchor="middle" x="122" y="-31.5" font-family="Helvetica,sans-Serif" font-size="10.00">die</text>
</a>
</g>
</g>
<!-- Node1&#45;&gt;Node2 -->
<g id="edge1_Node000001_Node000002" class="edge">
<title>Node1&#45;&gt;Node2</title>
<g id="a_edge1_Node000001_Node000002"><a xlink:title=" ">
<path fill="none" stroke="#63b8ff" d="M70.08,-22.62C78.69,-24.54 87.78,-26.57 95.85,-28.38"/>
<polygon fill="#63b8ff" stroke="#63b8ff" points="95.24,-31.83 105.76,-30.59 96.77,-25 95.24,-31.83"/>
</a>
</g>
</g>
<!-- Node3 -->
<g id="Node000003" class="node">
<title>Node3</title>
<g id="a_Node000003"><a xlink:href="ie__device__cuda_8cu.html#a5e3d9fee84981707669f5c2398f0c4ab" target="_top" xlink:title="Row&#45;wise GEMV kernel: each thread computes one output row.">
<polygon fill="white" stroke="#666666" points="299,-30 174,-30 174,0 299,0 299,-30"/>
<text text-anchor="start" x="182" y="-18" font-family="Helvetica,sans-Serif" font-size="10.00">ie_gemv_rowwise_f32</text>
<text text-anchor="middle" x="236.5" y="-7" font-family="Helvetica,sans-Serif" font-size="10.00">_kernel</text>
</a>
</g>
</g>
<!-- Node1&#45;&gt;Node3 -->
<g id="edge3_Node000001_Node000003" class="edge">
<title>Node1&#45;&gt;Node3</title>
<g id="a_edge3_Node000001_Node000003"><a xlink:title=" ">
<path fill="none" stroke="#63b8ff" d="M70.3,-15C95.93,-15 131.89,-15 163.72,-15"/>
<polygon fill="#63b8ff" stroke="#63b8ff" points="163.89,-18.5 173.89,-15 163.89,-11.5 163.89,-18.5"/>
</a>
</g>
</g>
<!-- Node2&#45;&gt;Node3 -->
<g id="edge2_Node000002_Node000003" class="edge">
<title>Node2&#45;&gt;Node3</title>
<g id="a_edge2_Node000002_Node000003"><a xlink:title=" ">
<path fill="none" stroke="#63b8ff" d="M138.17,-31.44C145.21,-30.25 154.12,-28.74 163.69,-27.13"/>
<polygon fill="#63b8ff" stroke="#63b8ff" points="164.57,-30.53 173.85,-25.41 163.4,-23.63 164.57,-30.53"/>
</a>
</g>
</g>
</g>
</svg>
