<?xml version="1.0" encoding="UTF-8" standalone="no"?>
<!DOCTYPE svg PUBLIC "-//W3C//DTD SVG 1.1//EN"
 "http://www.w3.org/Graphics/SVG/1.1/DTD/svg11.dtd">
<!-- Generated by graphviz version 2.43.0 (0)
 -->
<!-- Title: die Pages: 1 -->
<!--zoomable 210 -->
<svg id="main" version="1.1" xmlns="http://www.w3.org/2000/svg" xmlns:xlink="http://www.w3.org/1999/xlink" xml:space="preserve" onload="init(evt)">
<style type="text/css"><![CDATA[
.edge:hover path { stroke: red; }
.edge:hover polygon { stroke: red; fill: red; }
]]></style>
<script type="text/javascript"><![CDATA[
var edges = document.getElementsByTagName('g');
if (edges && edges.length) {
  for (var i=0;i<edges.length;i++) {
    if (edges[i].id.substr(0,4)=='edge') {
      edges[i].setAttribute('class','edge');
    }
  }
}
]]></script>
        <defs>
                <circle id="rim" cx="0" cy="0" r="7"/>
                <circle id="rim2" cx="0" cy="0" r="3.5"/>
                <g id="zoomPlus">
                        <use xlink:href="#rim" fill="#404040">
                                <set attributeName="fill" to="#808080" begin="zoomplus.mouseover" end="zoomplus.mouseout"/>
                        </use>
                        <path d="M-4,0h8M0,-4v8" fill="none" stroke="white" stroke-width="1.5" pointer-events="none"/>
                </g>
                <g id="zoomMin">
                        <use xlink:href="#rim" fill="#404040">
                                <set attributeName="fill" to="#808080" begin="zoomminus.mouseover" end="zoomminus.mouseout"/>
                        </use>
                        <path d="M-4,0h8" fill="none" stroke="white" stroke-width="1.5" pointer-events="none"/>
                </g>
                <g id="dirArrow">
                        <path fill="none" stroke="white" stroke-width="1.5" d="M0,-3.0v7 M-2.5,-0.5L0,-3.0L2.5,-0.5"/>
                </g>
               <g id="resetDef">
                       <use xlink:href="#rim2" fill="#404040">
                               <set attributeName="fill" to="#808080" begin="reset.mouseover" end="reset.mouseout"/>
                       </use>
               </g>
        </defs>

<script type="text/javascript">
var viewWidth = 531;
var viewHeight = 210;
var sectionId = 'dynsection-6';
</script>
<script xlink:href="svgpan.js"/>
<svg id="graph" class="graph">
<g id="viewport">
<title>die</title>
<!-- Node1 -->
<g id="node1" class="node">
<title>Node1</title>
<g id="a_node1"><a xlink:title="Exit with an error message.">
<polygon fill="#bfbfbf" stroke="black" points="491,-87.53 491,-106.53 523,-106.53 523,-87.53 491,-87.53"/>
<text text-anchor="middle" x="507" y="-94.53" font-family="Helvetica,sans-Serif" font-size="10.00">die</text>
</a>
</g>
</g>
<!-- Node2 -->
<g id="node2" class="node">
<title>Node2</title>
<g id="a_node2"><a xlink:href="dedup__extract_8c.html#a700096ed66315cf55e25b7574471f194" target="_top" xlink:title="Append a blob_ref to list.">
<polygon fill="none" stroke="black" points="362.5,-182.53 362.5,-201.53 433.5,-201.53 433.5,-182.53 362.5,-182.53"/>
<text text-anchor="middle" x="398" y="-189.53" font-family="Helvetica,sans-Serif" font-size="10.00">blobs_push</text>
</a>
</g>
</g>
<!-- Node1&#45;&gt;Node2 -->
<g id="edge1" class="edge">
<title>Node1&#45;&gt;Node2</title>
<path fill="none" stroke="midnightblue" d="M496.56,-115.4C487.67,-131.16 473.03,-153.55 455,-168.03 447.49,-174.06 438.25,-178.83 429.45,-182.48"/>
<polygon fill="midnightblue" stroke="midnightblue" points="499.66,-117.03 501.33,-106.57 493.5,-113.7 499.66,-117.03"/>
</g>
<!-- Node4 -->
<g id="node4" class="node">
<title>Node4</title>
<g id="a_node4"><a xlink:href="dedup__extract_8c.html#a3c04138a5bfe5d72780bb7e82a18e627" target="_top" xlink:title=" ">
<polygon fill="none" stroke="black" points="0,-106.53 0,-125.53 41,-125.53 41,-106.53 0,-106.53"/>
<text text-anchor="middle" x="20.5" y="-113.53" font-family="Helvetica,sans-Serif" font-size="10.00">main</text>
</a>
</g>
</g>
<!-- Node1&#45;&gt;Node4 -->
<g id="edge11" class="edge">
<title>Node1&#45;&gt;Node4</title>
<path fill="none" stroke="midnightblue" d="M481.3,-107C473.08,-109.85 463.77,-112.57 455,-114.03 297.23,-140.23 102.69,-124.31 41.13,-118.15"/>
<polygon fill="midnightblue" stroke="midnightblue" points="482.52,-110.28 490.7,-103.54 480.1,-103.71 482.52,-110.28"/>
</g>
<!-- Node5 -->
<g id="node5" class="node">
<title>Node5</title>
<g id="a_node5"><a xlink:href="dedup__extract_8c.html#a69a295127a2ec3426ecba96808dab155" target="_top" xlink:title="Auto&#45;group blobs by (file, bytes, kind, normalized&#45;name).">
<polygon fill="none" stroke="black" points="77,-87.53 77,-106.53 183,-106.53 183,-87.53 77,-87.53"/>
<text text-anchor="middle" x="130" y="-94.53" font-family="Helvetica,sans-Serif" font-size="10.00">build_groups_auto</text>
</a>
</g>
</g>
<!-- Node1&#45;&gt;Node5 -->
<g id="edge4" class="edge">
<title>Node1&#45;&gt;Node5</title>
<path fill="none" stroke="midnightblue" d="M480.53,-98.01C430.44,-99.8 315.57,-103.22 219,-101.03 207.38,-100.77 194.9,-100.31 183.1,-99.79"/>
<polygon fill="midnightblue" stroke="midnightblue" points="480.89,-101.5 490.75,-97.64 480.63,-94.51 480.89,-101.5"/>
</g>
<!-- Node6 -->
<g id="node6" class="node">
<title>Node6</title>
<g id="a_node6"><a xlink:href="dedup__extract_8c.html#a2bbcb563e152a4ca3022342bed54ec92" target="_top" xlink:title="Append member to a group.">
<polygon fill="none" stroke="black" points="341,-68.53 341,-87.53 455,-87.53 455,-68.53 341,-68.53"/>
<text text-anchor="middle" x="398" y="-75.53" font-family="Helvetica,sans-Serif" font-size="10.00">group_add_member</text>
</a>
</g>
</g>
<!-- Node1&#45;&gt;Node6 -->
<g id="edge6" class="edge">
<title>Node1&#45;&gt;Node6</title>
<path fill="none" stroke="midnightblue" d="M480.82,-92.56C472.41,-91.07 462.7,-89.34 452.96,-87.61"/>
<polygon fill="midnightblue" stroke="midnightblue" points="480.21,-96.01 490.67,-94.31 481.44,-89.11 480.21,-96.01"/>
</g>
<!-- Node7 -->
<g id="node7" class="node">
<title>Node7</title>
<g id="a_node7"><a xlink:href="dedup__extract_8c.html#a65a04274ad37346a79611b223c7d960d" target="_top" xlink:title="Push new group.">
<polygon fill="none" stroke="black" points="223,-30.53 223,-49.53 301,-49.53 301,-30.53 223,-30.53"/>
<text text-anchor="middle" x="262" y="-37.53" font-family="Helvetica,sans-Serif" font-size="10.00">groups_push</text>
</a>
</g>
</g>
<!-- Node1&#45;&gt;Node7 -->
<g id="edge10" class="edge">
<title>Node1&#45;&gt;Node7</title>
<path fill="none" stroke="midnightblue" d="M488.8,-80.49C479.53,-72.6 467.46,-63.85 455,-59.03 404.4,-39.43 340.95,-37.03 301.18,-37.91"/>
<polygon fill="midnightblue" stroke="midnightblue" points="486.67,-83.29 496.45,-87.36 491.34,-78.08 486.67,-83.29"/>
</g>
<!-- Node8 -->
<g id="node8" class="node">
<title>Node8</title>
<g id="a_node8"><a xlink:href="dedup__extract_8c.html#a47f190938eb8c3ba0fe0b826f18146e6" target="_top" xlink:title="Parse CLI args (minimal).">
<polygon fill="none" stroke="black" points="95,-11.53 95,-30.53 165,-30.53 165,-11.53 95,-11.53"/>
<text text-anchor="middle" x="130" y="-18.53" font-family="Helvetica,sans-Serif" font-size="10.00">parse_args</text>
</a>
</g>
</g>
<!-- Node1&#45;&gt;Node8 -->
<g id="edge12" class="edge">
<title>Node1&#45;&gt;Node8</title>
<path fill="none" stroke="midnightblue" d="M496.48,-78.46C487.81,-63.68 473.55,-43.89 455,-34.03 360.29,16.29 227.12,-1.08 165.18,-13.27"/>
<polygon fill="midnightblue" stroke="midnightblue" points="493.45,-80.23 501.35,-87.29 499.58,-76.85 493.45,-80.23"/>
</g>
<!-- Node3 -->
<g id="node3" class="node">
<title>Node3</title>
<g id="a_node3"><a xlink:href="dedup__extract_8c.html#a618cf3d2df49c6187a537d8333402edd" target="_top" xlink:title="Load manifest JSON array into a blob list.">
<polygon fill="none" stroke="black" points="219,-182.53 219,-201.53 305,-201.53 305,-182.53 219,-182.53"/>
<text text-anchor="middle" x="262" y="-189.53" font-family="Helvetica,sans-Serif" font-size="10.00">load_manifest</text>
</a>
</g>
</g>
<!-- Node2&#45;&gt;Node3 -->
<g id="edge2" class="edge">
<title>Node2&#45;&gt;Node3</title>
<path fill="none" stroke="midnightblue" d="M352.27,-192.03C337.03,-192.03 320.06,-192.03 305.05,-192.03"/>
<polygon fill="midnightblue" stroke="midnightblue" points="352.49,-195.53 362.49,-192.03 352.49,-188.53 352.49,-195.53"/>
</g>
<!-- Node3&#45;&gt;Node4 -->
<g id="edge3" class="edge">
<title>Node3&#45;&gt;Node4</title>
<path fill="none" stroke="midnightblue" d="M208.38,-193.61C170.22,-192.79 118.27,-187.52 77,-168.03 56.23,-158.22 38.05,-137.72 28.54,-125.6"/>
<polygon fill="midnightblue" stroke="midnightblue" points="208.72,-197.11 218.76,-193.73 208.8,-190.11 208.72,-197.11"/>
</g>
<!-- Node5&#45;&gt;Node4 -->
<g id="edge5" class="edge">
<title>Node5&#45;&gt;Node4</title>
<path fill="none" stroke="midnightblue" d="M66.71,-108.04C57.46,-109.68 48.56,-111.25 41.14,-112.56"/>
<polygon fill="midnightblue" stroke="midnightblue" points="67.59,-111.44 76.82,-106.25 66.37,-104.55 67.59,-111.44"/>
</g>
<!-- Node6&#45;&gt;Node5 -->
<g id="edge7" class="edge">
<title>Node6&#45;&gt;Node5</title>
<path fill="none" stroke="midnightblue" d="M330.84,-82.76C285.3,-86.01 225.64,-90.27 183.39,-93.29"/>
<polygon fill="midnightblue" stroke="midnightblue" points="331.19,-86.24 340.91,-82.04 330.69,-79.26 331.19,-86.24"/>
</g>
<!-- Node6&#45;&gt;Node7 -->
<g id="edge8" class="edge">
<title>Node6&#45;&gt;Node7</title>
<path fill="none" stroke="midnightblue" d="M353.56,-65.71C335.15,-60.49 314.02,-54.5 296.8,-49.62"/>
<polygon fill="midnightblue" stroke="midnightblue" points="352.61,-69.08 363.19,-68.44 354.52,-62.35 352.61,-69.08"/>
</g>
<!-- Node7&#45;&gt;Node5 -->
<g id="edge9" class="edge">
<title>Node7&#45;&gt;Node5</title>
<path fill="none" stroke="midnightblue" d="M229.94,-53.65C206.16,-64.08 173.95,-78.2 152.83,-87.46"/>
<polygon fill="midnightblue" stroke="midnightblue" points="231.49,-56.79 239.24,-49.57 228.68,-50.38 231.49,-56.79"/>
</g>
<!-- Node8&#45;&gt;Node4 -->
<g id="edge13" class="edge">
<title>Node8&#45;&gt;Node4</title>
<path fill="none" stroke="midnightblue" d="M110.32,-37.54C87.79,-57.45 50.67,-90.25 32.38,-106.42"/>
<polygon fill="midnightblue" stroke="midnightblue" points="112.72,-40.08 117.9,-30.84 108.09,-34.84 112.72,-40.08"/>
</g>
</g>
</svg>
        <g id="navigator" transform="translate(0 0)" fill="#404254">
                <rect fill="#f2f5e9" fill-opacity="0.5" stroke="#606060" stroke-width=".5" x="0" y="0" width="60" height="60"/>
                <use id="zoomplus" xlink:href="#zoomPlus" x="17" y="9" onmousedown="handleZoom(evt,'in')"/>
                <use id="zoomminus" xlink:href="#zoomMin" x="42" y="9" onmousedown="handleZoom(evt,'out')"/>
                <use id="reset" xlink:href="#resetDef" x="30" y="36" onmousedown="handleReset()"/>
                <g id="arrowUp" xlink:href="#dirArrow" transform="translate(30 24)" onmousedown="handlePan(0,-1)">
                  <use xlink:href="#rim" fill="#404040">
                        <set attributeName="fill" to="#808080" begin="arrowUp.mouseover" end="arrowUp.mouseout"/>
                  </use>
                  <path fill="none" stroke="white" stroke-width="1.5" d="M0,-3.0v7 M-2.5,-0.5L0,-3.0L2.5,-0.5"/>
                </g>
                <g id="arrowRight" xlink:href="#dirArrow" transform="rotate(90) translate(36 -43)" onmousedown="handlePan(1,0)">
                  <use xlink:href="#rim" fill="#404040">
                        <set attributeName="fill" to="#808080" begin="arrowRight.mouseover" end="arrowRight.mouseout"/>
                  </use>
                  <path fill="none" stroke="white" stroke-width="1.5" d="M0,-3.0v7 M-2.5,-0.5L0,-3.0L2.5,-0.5"/>
                </g>
                <g id="arrowDown" xlink:href="#dirArrow" transform="rotate(180) translate(-30 -48)" onmousedown="handlePan(0,1)">
                  <use xlink:href="#rim" fill="#404040">
                        <set attributeName="fill" to="#808080" begin="arrowDown.mouseover" end="arrowDown.mouseout"/>
                  </use>
                  <path fill="none" stroke="white" stroke-width="1.5" d="M0,-3.0v7 M-2.5,-0.5L0,-3.0L2.5,-0.5"/>
                </g>
                <g id="arrowLeft" xlink:href="#dirArrow" transform="rotate(270) translate(-36 17)" onmousedown="handlePan(-1,0)">
                  <use xlink:href="#rim" fill="#404040">
                        <set attributeName="fill" to="#808080" begin="arrowLeft.mouseover" end="arrowLeft.mouseout"/>
                  </use>
                  <path fill="none" stroke="white" stroke-width="1.5" d="M0,-3.0v7 M-2.5,-0.5L0,-3.0L2.5,-0.5"/>
                </g>
        </g>
        <svg viewBox="0 0 15 15" width="100%" height="30px" preserveAspectRatio="xMaxYMin meet">
         <g id="arrow_out" transform="scale(0.3 0.3)">
          <a xlink:href="dedup__extract_8c_a3ff0b79d96423fac3426976845b269fe_icgraph_org.svg" target="_base">
           <rect id="button" ry="5" rx="5" y="6" x="6" height="38" width="38"
                fill="#f2f5e9" fill-opacity="0.5" stroke="#606060" stroke-width="1.0"/>
           <path id="arrow"
             d="M 11.500037,31.436501 C 11.940474,20.09759 22.043105,11.32322 32.158766,21.979434 L 37.068811,17.246167 C 37.068811,17.246167 37.088388,32 37.088388,32 L 22.160133,31.978069 C 22.160133,31.978069 26.997745,27.140456 26.997745,27.140456 C 18.528582,18.264221 13.291696,25.230495 11.500037,31.436501 z"
             style="fill:#404040;"/>
          </a>
         </g>
        </svg>
</svg>
