<?xml version="1.0" encoding="UTF-8" standalone="no"?>
<!DOCTYPE svg PUBLIC "-//W3C//DTD SVG 1.1//EN"
 "http://www.w3.org/Graphics/SVG/1.1/DTD/svg11.dtd">
<!-- Generated by graphviz version 12.2.1 (20241206.2353)
 -->
<!-- Title: engine/src Pages: 1 -->
<!--zoomable 146 -->

<svg id="main" version="1.1" xmlns="http://www.w3.org/2000/svg" xmlns:xlink="http://www.w3.org/1999/xlink" xml:space="preserve" onload="init(evt)">

<style type="text/css"><![CDATA[
.node, .edge {opacity: 0.7;}
.node.selected, .edge.selected {opacity: 1;}
.edge:hover path { stroke: red; }
.edge:hover polygon { stroke: red; fill: red; }
]]></style>

<defs>
  <circle id="rim" cx="0" cy="0" r="7"/>
  <circle id="rim2" cx="0" cy="0" r="3.5"/>
  <g id="zoomPlus">
    <use xlink:href="#rim" fill="#404040"><set attributeName="fill" to="#808080" begin="zoomplus.mouseover" end="zoomplus.mouseout"/></use>
    <path d="M-4,0h8M0,-4v8" fill="none" stroke="white" stroke-width="1.5" pointer-events="none"/>
  </g>
  <g id="zoomMin">
    <use xlink:href="#rim" fill="#404040"><set attributeName="fill" to="#808080" begin="zoomminus.mouseover" end="zoomminus.mouseout"/></use>
    <path d="M-4,0h8" fill="none" stroke="white" stroke-width="1.5" pointer-events="none"/>
  </g>
  <g id="arrowUp" transform="translate(30 24)">
    <use xlink:href="#rim"/>
    <path pointer-events="none" fill="none" stroke="white" stroke-width="1.5" d="M0,-3.0v7 M-2.5,-0.5L0,-3.0L2.5,-0.5"/>
  </g>
  <g id="arrowRight" transform="rotate(90) translate(36 -43)">
    <use xlink:href="#rim"/>
    <path pointer-events="none" fill="none" stroke="white" stroke-width="1.5" d="M0,-3.0v7 M-2.5,-0.5L0,-3.0L2.5,-0.5"/>
  </g>
  <g id="arrowDown" transform="rotate(180) translate(-30 -48)">
    <use xlink:href="#rim"/>
    <path pointer-events="none" fill="none" stroke="white" stroke-width="1.5" d="M0,-3.0v7 M-2.5,-0.5L0,-3.0L2.5,-0.5"/>
  </g>
  <g id="arrowLeft" transform="rotate(270) translate(-36 17)">
    <use xlink:href="#rim"/>
    <path pointer-events="none" fill="none" stroke="white" stroke-width="1.5" d="M0,-3.0v7 M-2.5,-0.5L0,-3.0L2.5,-0.5"/>
  </g>
  <g id="resetDef">
    <use xlink:href="#rim2" fill="#404040"><set attributeName="fill" to="#808080" begin="reset.mouseover" end="reset.mouseout"/></use>
  </g>
</defs>
<script type="application/ecmascript">
var viewWidth = 517;
var viewHeight = 146;
var sectionId = 'dynsection-0';
</script>
<script type="application/ecmascript" xlink:href="svg.min.js"/>
<svg id="graph" class="graph">
<g id="viewport">
<title>engine/src</title>
<g id="clust1" class="cluster">
<title>clusterdir_996f45160da62e1a3d7f6046fad68f51</title>
<g id="a_clust1"><a xlink:href="dir_996f45160da62e1a3d7f6046fad68f51.html" target="_top" xlink:title="engine">
<polygon fill="#edf0f7" stroke="#404040" stroke-dasharray="5,2" points="8,-8 8,-130.25 501,-130.25 501,-8 8,-8"/>
<text text-anchor="middle" x="254.5" y="-116.75" font-family="Helvetica,sans-Serif" font-size="10.00">engine</text>
</a>
</g>
</g>
<g id="clust2" class="cluster">
<title>clusterdir_3d9126aa00c041bc0b8f859d1965a0f4</title>
<g id="a_clust2"><a xlink:href="dir_3d9126aa00c041bc0b8f859d1965a0f4.html" target="_top">
<polygon fill="#edf0f7" stroke="#404040" stroke-width="2" points="16,-64.75 16,-101.5 493,-101.5 493,-64.75 16,-64.75"/>
</a>
</g>
</g>
<!-- dir_bafa501d493553e442f19f5f8dd7b29c -->
<g id="node1" class="node">
<title>dir_bafa501d493553e442f19f5f8dd7b29c</title>
<g id="a_node1"><a xlink:href="dir_bafa501d493553e442f19f5f8dd7b29c.html" target="_top" xlink:title="include">
<polygon fill="#a2b4d6" stroke="#404040" points="273.62,-36.75 222.38,-36.75 222.38,-16 273.62,-16 273.62,-36.75"/>
<text text-anchor="middle" x="248" y="-23.25" font-family="Helvetica,sans-Serif" font-size="10.00">include</text>
</a>
</g>
</g>
<!-- dir_3d9126aa00c041bc0b8f859d1965a0f4 -->
<g id="node2" class="node">
<title>dir_3d9126aa00c041bc0b8f859d1965a0f4</title>
<text text-anchor="middle" x="39" y="-80" font-family="Helvetica,sans-Serif" font-size="10.00">src</text>
</g>
<!-- dir_3d9126aa00c041bc0b8f859d1965a0f4&#45;&gt;dir_bafa501d493553e442f19f5f8dd7b29c -->
<g id="edge1" class="edge">
<title>dir_3d9126aa00c041bc0b8f859d1965a0f4&#45;&gt;dir_bafa501d493553e442f19f5f8dd7b29c</title>
<g id="a_edge1"><a xlink:href="dir_000017_000006.html" target="_top">
<path fill="none" stroke="#63b8ff" d="M49.63,-72.93C53.6,-69.92 58.29,-66.81 63,-64.75 111.44,-43.52 172.35,-34.2 210.74,-30.22"/>
<polygon fill="#63b8ff" stroke="#63b8ff" points="211,-33.71 220.62,-29.27 210.33,-26.74 211,-33.71"/>
</a>
</g>
<g id="a_edge1&#45;headlabel"><a xlink:href="dir_000017_000006.html" target="_top" xlink:title="42">
<text text-anchor="middle" x="209.2" y="-33.61" font-family="Helvetica,sans-Serif" font-size="10.00" fill="#63b8ff">42</text>
</a>
</g>
</g>
<!-- dir_6e12826fa569dcfca518a603dbf9bd72 -->
<g id="node3" class="node">
<title>dir_6e12826fa569dcfca518a603dbf9bd72</title>
<g id="a_node3"><a xlink:href="dir_6e12826fa569dcfca518a603dbf9bd72.html" target="_top" xlink:title="devices">
<polygon fill="#a2b4d6" stroke="#404040" points="125.75,-93.5 72.25,-93.5 72.25,-72.75 125.75,-72.75 125.75,-93.5"/>
<text text-anchor="middle" x="99" y="-80" font-family="Helvetica,sans-Serif" font-size="10.00">devices</text>
</a>
</g>
</g>
<!-- dir_6e12826fa569dcfca518a603dbf9bd72&#45;&gt;dir_bafa501d493553e442f19f5f8dd7b29c -->
<g id="edge2" class="edge">
<title>dir_6e12826fa569dcfca518a603dbf9bd72&#45;&gt;dir_bafa501d493553e442f19f5f8dd7b29c</title>
<g id="a_edge2"><a xlink:href="dir_000003_000006.html" target="_top">
<path fill="none" stroke="#63b8ff" d="M118.22,-72.28C123.59,-69.68 129.47,-66.99 135,-64.75 159.96,-54.65 188.78,-45.15 211.07,-38.26"/>
<polygon fill="#63b8ff" stroke="#63b8ff" points="212.08,-41.61 220.63,-35.34 210.04,-34.91 212.08,-41.61"/>
</a>
</g>
<g id="a_edge2&#45;headlabel"><a xlink:href="dir_000003_000006.html" target="_top" xlink:title="4">
<text text-anchor="middle" x="210.92" y="-41.8" font-family="Helvetica,sans-Serif" font-size="10.00" fill="#63b8ff">4</text>
</a>
</g>
</g>
<!-- dir_ca1f0cd6417c875f36bda237f81fbbd7 -->
<g id="node4" class="node">
<title>dir_ca1f0cd6417c875f36bda237f81fbbd7</title>
<g id="a_node4"><a xlink:href="dir_ca1f0cd6417c875f36bda237f81fbbd7.html" target="_top" xlink:title="io">
<polygon fill="#a2b4d6" stroke="#404040" points="172.4,-93.5 143.6,-93.5 143.6,-72.75 172.4,-72.75 172.4,-93.5"/>
<text text-anchor="middle" x="158" y="-80" font-family="Helvetica,sans-Serif" font-size="10.00">io</text>
</a>
</g>
</g>
<!-- dir_ca1f0cd6417c875f36bda237f81fbbd7&#45;&gt;dir_bafa501d493553e442f19f5f8dd7b29c -->
<g id="edge3" class="edge">
<title>dir_ca1f0cd6417c875f36bda237f81fbbd7&#45;&gt;dir_bafa501d493553e442f19f5f8dd7b29c</title>
<g id="a_edge3"><a xlink:href="dir_000007_000006.html" target="_top">
<path fill="none" stroke="#63b8ff" d="M169.95,-72.61C173.44,-69.96 177.31,-67.16 181,-64.75 193.08,-56.87 206.93,-48.97 218.89,-42.48"/>
<polygon fill="#63b8ff" stroke="#63b8ff" points="220.31,-45.68 227.48,-37.88 217.01,-39.51 220.31,-45.68"/>
</a>
</g>
<g id="a_edge3&#45;headlabel"><a xlink:href="dir_000007_000006.html" target="_top" xlink:title="6">
<text text-anchor="middle" x="219.82" y="-46.04" font-family="Helvetica,sans-Serif" font-size="10.00" fill="#63b8ff">6</text>
</a>
</g>
</g>
<!-- dir_2151caada9eddb57703a29b50b7782f8 -->
<g id="node5" class="node">
<title>dir_2151caada9eddb57703a29b50b7782f8</title>
<g id="a_node5"><a xlink:href="dir_2151caada9eddb57703a29b50b7782f8.html" target="_top" xlink:title="kernels">
<polygon fill="#a2b4d6" stroke="#404040" points="241.62,-93.5 190.38,-93.5 190.38,-72.75 241.62,-72.75 241.62,-93.5"/>
<text text-anchor="middle" x="216" y="-80" font-family="Helvetica,sans-Serif" font-size="10.00">kernels</text>
</a>
</g>
</g>
<!-- dir_2151caada9eddb57703a29b50b7782f8&#45;&gt;dir_bafa501d493553e442f19f5f8dd7b29c -->
<g id="edge4" class="edge">
<title>dir_2151caada9eddb57703a29b50b7782f8&#45;&gt;dir_bafa501d493553e442f19f5f8dd7b29c</title>
<g id="a_edge4"><a xlink:href="dir_000008_000006.html" target="_top">
<path fill="none" stroke="#63b8ff" d="M221.72,-72.34C225.86,-65.25 231.6,-55.44 236.65,-46.79"/>
<polygon fill="#63b8ff" stroke="#63b8ff" points="239.54,-48.78 241.56,-38.39 233.5,-45.25 239.54,-48.78"/>
</a>
</g>
<g id="a_edge4&#45;headlabel"><a xlink:href="dir_000008_000006.html" target="_top" xlink:title="6">
<text text-anchor="middle" x="240.94" y="-48.89" font-family="Helvetica,sans-Serif" font-size="10.00" fill="#63b8ff">6</text>
</a>
</g>
</g>
<!-- dir_f8c22eb530ce806c9f0ee03801c99f37 -->
<g id="node6" class="node">
<title>dir_f8c22eb530ce806c9f0ee03801c99f37</title>
<g id="a_node6"><a xlink:href="dir_f8c22eb530ce806c9f0ee03801c99f37.html" target="_top" xlink:title="math">
<polygon fill="#a2b4d6" stroke="#404040" points="300.75,-93.5 259.25,-93.5 259.25,-72.75 300.75,-72.75 300.75,-93.5"/>
<text text-anchor="middle" x="280" y="-80" font-family="Helvetica,sans-Serif" font-size="10.00">math</text>
</a>
</g>
</g>
<!-- dir_f8c22eb530ce806c9f0ee03801c99f37&#45;&gt;dir_bafa501d493553e442f19f5f8dd7b29c -->
<g id="edge5" class="edge">
<title>dir_f8c22eb530ce806c9f0ee03801c99f37&#45;&gt;dir_bafa501d493553e442f19f5f8dd7b29c</title>
<g id="a_edge5"><a xlink:href="dir_000009_000006.html" target="_top">
<path fill="none" stroke="#63b8ff" d="M274.28,-72.34C270.14,-65.25 264.4,-55.44 259.35,-46.79"/>
<polygon fill="#63b8ff" stroke="#63b8ff" points="262.5,-45.25 254.44,-38.39 256.46,-48.78 262.5,-45.25"/>
</a>
</g>
<g id="a_edge5&#45;headlabel"><a xlink:href="dir_000009_000006.html" target="_top" xlink:title="2">
<text text-anchor="middle" x="266" y="-42.49" font-family="Helvetica,sans-Serif" font-size="10.00" fill="#63b8ff">2</text>
</a>
</g>
</g>
<!-- dir_6a8ae9aac5da83432634b4279f2f3c70 -->
<g id="node7" class="node">
<title>dir_6a8ae9aac5da83432634b4279f2f3c70</title>
<g id="a_node7"><a xlink:href="dir_6a8ae9aac5da83432634b4279f2f3c70.html" target="_top" xlink:title="opt">
<polygon fill="#a2b4d6" stroke="#404040" points="350.88,-93.5 319.12,-93.5 319.12,-72.75 350.88,-72.75 350.88,-93.5"/>
<text text-anchor="middle" x="335" y="-80" font-family="Helvetica,sans-Serif" font-size="10.00">opt</text>
</a>
</g>
</g>
<!-- dir_6a8ae9aac5da83432634b4279f2f3c70&#45;&gt;dir_bafa501d493553e442f19f5f8dd7b29c -->
<g id="edge6" class="edge">
<title>dir_6a8ae9aac5da83432634b4279f2f3c70&#45;&gt;dir_bafa501d493553e442f19f5f8dd7b29c</title>
<g id="a_edge6"><a xlink:href="dir_000011_000006.html" target="_top">
<path fill="none" stroke="#63b8ff" d="M321.35,-72.4C317.7,-69.86 313.73,-67.16 310,-64.75 298.65,-57.4 285.89,-49.62 274.9,-43.08"/>
<polygon fill="#63b8ff" stroke="#63b8ff" points="276.72,-40.08 266.33,-38.01 273.15,-46.11 276.72,-40.08"/>
</a>
</g>
<g id="a_edge6&#45;headlabel"><a xlink:href="dir_000011_000006.html" target="_top" xlink:title="8">
<text text-anchor="middle" x="279.95" y="-35.57" font-family="Helvetica,sans-Serif" font-size="10.00" fill="#63b8ff">8</text>
</a>
</g>
</g>
<!-- dir_ea8755ec8c8b8285d5914a73a733b356 -->
<g id="node8" class="node">
<title>dir_ea8755ec8c8b8285d5914a73a733b356</title>
<g id="a_node8"><a xlink:href="dir_ea8755ec8c8b8285d5914a73a733b356.html" target="_top" xlink:title="quant">
<polygon fill="#a2b4d6" stroke="#404040" points="412.88,-93.5 369.12,-93.5 369.12,-72.75 412.88,-72.75 412.88,-93.5"/>
<text text-anchor="middle" x="391" y="-80" font-family="Helvetica,sans-Serif" font-size="10.00">quant</text>
</a>
</g>
</g>
<!-- dir_ea8755ec8c8b8285d5914a73a733b356&#45;&gt;dir_bafa501d493553e442f19f5f8dd7b29c -->
<g id="edge7" class="edge">
<title>dir_ea8755ec8c8b8285d5914a73a733b356&#45;&gt;dir_bafa501d493553e442f19f5f8dd7b29c</title>
<g id="a_edge7"><a xlink:href="dir_000013_000006.html" target="_top">
<path fill="none" stroke="#63b8ff" d="M374.89,-72.34C370.18,-69.69 364.97,-66.95 360,-64.75 335.58,-53.95 307,-44.46 284.83,-37.75"/>
<polygon fill="#63b8ff" stroke="#63b8ff" points="285.91,-34.41 275.32,-34.93 283.92,-41.13 285.91,-34.41"/>
</a>
</g>
<g id="a_edge7&#45;headlabel"><a xlink:href="dir_000013_000006.html" target="_top" xlink:title="4">
<text text-anchor="middle" x="288.71" y="-29.16" font-family="Helvetica,sans-Serif" font-size="10.00" fill="#63b8ff">4</text>
</a>
</g>
</g>
<!-- dir_25af579fff40d90ea7ba98c1764ae1f1 -->
<g id="node9" class="node">
<title>dir_25af579fff40d90ea7ba98c1764ae1f1</title>
<g id="a_node9"><a xlink:href="dir_25af579fff40d90ea7ba98c1764ae1f1.html" target="_top" xlink:title="runtime">
<polygon fill="#a2b4d6" stroke="#404040" points="485.12,-93.5 430.88,-93.5 430.88,-72.75 485.12,-72.75 485.12,-93.5"/>
<text text-anchor="middle" x="458" y="-80" font-family="Helvetica,sans-Serif" font-size="10.00">runtime</text>
</a>
</g>
</g>
<!-- dir_25af579fff40d90ea7ba98c1764ae1f1&#45;&gt;dir_bafa501d493553e442f19f5f8dd7b29c -->
<g id="edge8" class="edge">
<title>dir_25af579fff40d90ea7ba98c1764ae1f1&#45;&gt;dir_bafa501d493553e442f19f5f8dd7b29c</title>
<g id="a_edge8"><a xlink:href="dir_000014_000006.html" target="_top">
<path fill="none" stroke="#63b8ff" d="M440.04,-72.42C434.39,-69.65 428.04,-66.82 422,-64.75 376.05,-48.98 320.91,-38.48 285.2,-32.73"/>
<polygon fill="#63b8ff" stroke="#63b8ff" points="285.79,-29.28 275.37,-31.19 284.71,-36.2 285.79,-29.28"/>
</a>
</g>
<g id="a_edge8&#45;headlabel"><a xlink:href="dir_000014_000006.html" target="_top" xlink:title="2">
<text text-anchor="middle" x="288.29" y="-23.67" font-family="Helvetica,sans-Serif" font-size="10.00" fill="#63b8ff">2</text>
</a>
</g>
</g>
</g>
</svg>

<g id="navigator" transform="translate(0 0)" fill="#404254">
  <rect fill="#f2f5e9" fill-opacity="0.5" stroke="#606060" stroke-width=".5" x="0" y="0" width="60" height="60"/>
  <use id="zoomplus" xlink:href="#zoomPlus" x="17" y="9" onmousedown="handleZoom(evt,'in')"/>
  <use id="zoomminus" xlink:href="#zoomMin" x="42" y="9" onmousedown="handleZoom(evt,'out')"/>
  <use id="reset" xlink:href="#resetDef" x="30" y="36" onmousedown="handleReset()"/>
   <use id="arrowup" xlink:href="#arrowUp" x="0" y="0" onmousedown="handlePan(0,-1)"/>
  <use id="arrowright" xlink:href="#arrowRight" x="0" y="0" onmousedown="handlePan(1,0)"/>
  <use id="arrowdown" xlink:href="#arrowDown" x="0" y="0" onmousedown="handlePan(0,1)"/>
  <use id="arrowleft" xlink:href="#arrowLeft" x="0" y="0" onmousedown="handlePan(-1,0)"/>
</g>
<svg viewBox="0 0 15 15" width="100%" height="30px" preserveAspectRatio="xMaxYMin meet">
 <g id="arrow_out" transform="scale(0.3 0.3)">
  <a xlink:href="dir_3d9126aa00c041bc0b8f859d1965a0f4_dep_org.svg" target="_base">
   <rect id="button" ry="5" rx="5" y="6" x="6" height="38" width="38"
        fill="#f2f5e9" fill-opacity="0.5" stroke="#606060" stroke-width="1.0"/>
   <path id="arrow"
     d="M 11.500037,31.436501 C 11.940474,20.09759 22.043105,11.32322 32.158766,21.979434 L 37.068811,17.246167 C 37.068811,17.246167 37.088388,32 37.088388,32 L 22.160133,31.978069 C 22.160133,31.978069 26.997745,27.140456 26.997745,27.140456 C 18.528582,18.264221 13.291696,25.230495 11.500037,31.436501 z"
     style="fill:#404040;"/>
  </a>
 </g>
</svg>

<style type='text/css'>
<![CDATA[
[data-mouse-over-selected='false'] { opacity: 0.7; }
[data-mouse-over-selected='true']  { opacity: 1.0; }
]]>
</style>
<script type="application/ecmascript"><![CDATA[
document.addEventListener('DOMContentLoaded', (event) => {
  highlightEdges();
  highlightAdjacentNodes();
});
]]></script>
</svg>
