<?xml version="1.0" encoding="UTF-8" standalone="no"?>
<!DOCTYPE svg PUBLIC "-//W3C//DTD SVG 1.1//EN"
 "http://www.w3.org/Graphics/SVG/1.1/DTD/svg11.dtd">
<!-- Generated by graphviz version 2.43.0 (0)
 -->
<!-- Title: engine/src Pages: 1 -->
<svg width="688pt" height="175pt"
 viewBox="0.00 0.00 688.00 175.00" xmlns="http://www.w3.org/2000/svg" xmlns:xlink="http://www.w3.org/1999/xlink">
<g id="graph0" class="graph" transform="scale(1 1) rotate(0) translate(4 171)">
<title>engine/src</title>
<g id="clust1" class="cluster">
<title>clusterdir_996f45160da62e1a3d7f6046fad68f51</title>
<g id="a_clust1"><a xlink:href="dir_996f45160da62e1a3d7f6046fad68f51.html" target="_top" xlink:title="engine">
<polygon fill="#ddddee" stroke="black" points="8,-8 8,-159 672,-159 672,-8 8,-8"/>
<text text-anchor="middle" x="340" y="-147" font-family="Helvetica,sans-Serif" font-size="10.00">engine</text>
</a>
</g>
</g>
<g id="clust2" class="cluster">
<title>clusterdir_3d9126aa00c041bc0b8f859d1965a0f4</title>
<g id="a_clust2"><a xlink:href="dir_3d9126aa00c041bc0b8f859d1965a0f4.html" target="_top">
<polygon fill="#eeeeff" stroke="black" points="16,-80 16,-132 664,-132 664,-80 16,-80"/>
</a>
</g>
</g>
<!-- dir_bafa501d493553e442f19f5f8dd7b29c -->
<g id="node1" class="node">
<title>dir_bafa501d493553e442f19f5f8dd7b29c</title>
<g id="a_node1"><a xlink:href="dir_bafa501d493553e442f19f5f8dd7b29c.html" target="_top" xlink:title="include">
<polygon fill="none" stroke="black" points="332,-52 278,-52 278,-16 332,-16 332,-52"/>
<text text-anchor="middle" x="305" y="-31.5" font-family="Helvetica,sans-Serif" font-size="10.00">include</text>
</a>
</g>
</g>
<!-- dir_3d9126aa00c041bc0b8f859d1965a0f4 -->
<g id="node2" class="node">
<title>dir_3d9126aa00c041bc0b8f859d1965a0f4</title>
<text text-anchor="middle" x="629" y="-103.5" font-family="Helvetica,sans-Serif" font-size="10.00">src</text>
</g>
<!-- dir_f8a201847def6875e36d03df450376f7 -->
<g id="node3" class="node">
<title>dir_f8a201847def6875e36d03df450376f7</title>
<g id="a_node3"><a xlink:href="dir_f8a201847def6875e36d03df450376f7.html" target="_top" xlink:title="dedup">
<polygon fill="white" stroke="black" points="584,-124 530,-124 530,-88 584,-88 584,-124"/>
<text text-anchor="middle" x="557" y="-103.5" font-family="Helvetica,sans-Serif" font-size="10.00">dedup</text>
</a>
</g>
</g>
<!-- dir_f8a201847def6875e36d03df450376f7&#45;&gt;dir_bafa501d493553e442f19f5f8dd7b29c -->
<g id="edge3" class="edge">
<title>dir_f8a201847def6875e36d03df450376f7&#45;&gt;dir_bafa501d493553e442f19f5f8dd7b29c</title>
<path fill="none" stroke="black" d="M535.35,-87.92C530.8,-84.93 525.89,-82.1 521,-80 461.55,-54.43 386.49,-43.01 342.31,-38.2"/>
<polygon fill="black" stroke="black" points="342.62,-34.71 332.31,-37.17 341.9,-41.68 342.62,-34.71"/>
<g id="a_edge3&#45;headlabel"><a xlink:href="dir_000007_000005.html" target="_top" xlink:title="3">
<text text-anchor="middle" x="346.48" y="-29.76" font-family="Helvetica,sans-Serif" font-size="10.00">3</text>
</a>
</g>
</g>
<!-- dir_6e12826fa569dcfca518a603dbf9bd72 -->
<g id="node4" class="node">
<title>dir_6e12826fa569dcfca518a603dbf9bd72</title>
<g id="a_node4"><a xlink:href="dir_6e12826fa569dcfca518a603dbf9bd72.html" target="_top" xlink:title="devices">
<polygon fill="white" stroke="black" points="512,-124 458,-124 458,-88 512,-88 512,-124"/>
<text text-anchor="middle" x="485" y="-103.5" font-family="Helvetica,sans-Serif" font-size="10.00">devices</text>
</a>
</g>
</g>
<!-- dir_6e12826fa569dcfca518a603dbf9bd72&#45;&gt;dir_bafa501d493553e442f19f5f8dd7b29c -->
<g id="edge1" class="edge">
<title>dir_6e12826fa569dcfca518a603dbf9bd72&#45;&gt;dir_bafa501d493553e442f19f5f8dd7b29c</title>
<path fill="none" stroke="black" d="M462.4,-87.77C458.09,-84.94 453.51,-82.21 449,-80 414.38,-63.06 371.98,-50.73 342.18,-43.3"/>
<polygon fill="black" stroke="black" points="342.75,-39.84 332.2,-40.88 341.1,-46.64 342.75,-39.84"/>
<g id="a_edge1&#45;headlabel"><a xlink:href="dir_000008_000005.html" target="_top" xlink:title="5">
<text text-anchor="middle" x="346.91" y="-35.43" font-family="Helvetica,sans-Serif" font-size="10.00">5</text>
</a>
</g>
</g>
<!-- dir_ca1f0cd6417c875f36bda237f81fbbd7 -->
<g id="node5" class="node">
<title>dir_ca1f0cd6417c875f36bda237f81fbbd7</title>
<g id="a_node5"><a xlink:href="dir_ca1f0cd6417c875f36bda237f81fbbd7.html" target="_top" xlink:title="io">
<polygon fill="white" stroke="black" points="440,-124 386,-124 386,-88 440,-88 440,-124"/>
<text text-anchor="middle" x="413" y="-103.5" font-family="Helvetica,sans-Serif" font-size="10.00">io</text>
</a>
</g>
</g>
<!-- dir_ca1f0cd6417c875f36bda237f81fbbd7&#45;&gt;dir_bafa501d493553e442f19f5f8dd7b29c -->
<g id="edge5" class="edge">
<title>dir_ca1f0cd6417c875f36bda237f81fbbd7&#45;&gt;dir_bafa501d493553e442f19f5f8dd7b29c</title>
<path fill="none" stroke="black" d="M388.71,-87.89C384.81,-85.22 380.81,-82.51 377,-80 365.33,-72.31 352.43,-64.14 340.8,-56.9"/>
<polygon fill="black" stroke="black" points="342.55,-53.87 332.21,-51.57 338.86,-59.82 342.55,-53.87"/>
<g id="a_edge5&#45;headlabel"><a xlink:href="dir_000009_000005.html" target="_top" xlink:title="8">
<text text-anchor="middle" x="347.1" y="-50.85" font-family="Helvetica,sans-Serif" font-size="10.00">8</text>
</a>
</g>
</g>
<!-- dir_2151caada9eddb57703a29b50b7782f8 -->
<g id="node6" class="node">
<title>dir_2151caada9eddb57703a29b50b7782f8</title>
<g id="a_node6"><a xlink:href="dir_2151caada9eddb57703a29b50b7782f8.html" target="_top" xlink:title="kernels">
<polygon fill="white" stroke="red" points="368,-124 314,-124 314,-88 368,-88 368,-124"/>
<text text-anchor="middle" x="341" y="-103.5" font-family="Helvetica,sans-Serif" font-size="10.00">kernels</text>
</a>
</g>
</g>
<!-- dir_2151caada9eddb57703a29b50b7782f8&#45;&gt;dir_bafa501d493553e442f19f5f8dd7b29c -->
<g id="edge8" class="edge">
<title>dir_2151caada9eddb57703a29b50b7782f8&#45;&gt;dir_bafa501d493553e442f19f5f8dd7b29c</title>
<path fill="none" stroke="black" d="M332.1,-87.7C328,-79.73 323.05,-70.1 318.51,-61.26"/>
<polygon fill="black" stroke="black" points="321.48,-59.4 313.8,-52.1 315.26,-62.6 321.48,-59.4"/>
<g id="a_edge8&#45;headlabel"><a xlink:href="dir_000010_000005.html" target="_top" xlink:title="6">
<text text-anchor="middle" x="325.65" y="-58.79" font-family="Helvetica,sans-Serif" font-size="10.00">6</text>
</a>
</g>
</g>
<!-- dir_f8c22eb530ce806c9f0ee03801c99f37 -->
<g id="node7" class="node">
<title>dir_f8c22eb530ce806c9f0ee03801c99f37</title>
<g id="a_node7"><a xlink:href="dir_f8c22eb530ce806c9f0ee03801c99f37.html" target="_top" xlink:title="math">
<polygon fill="white" stroke="black" points="296,-124 242,-124 242,-88 296,-88 296,-124"/>
<text text-anchor="middle" x="269" y="-103.5" font-family="Helvetica,sans-Serif" font-size="10.00">math</text>
</a>
</g>
</g>
<!-- dir_f8c22eb530ce806c9f0ee03801c99f37&#45;&gt;dir_bafa501d493553e442f19f5f8dd7b29c -->
<g id="edge7" class="edge">
<title>dir_f8c22eb530ce806c9f0ee03801c99f37&#45;&gt;dir_bafa501d493553e442f19f5f8dd7b29c</title>
<path fill="none" stroke="black" d="M277.9,-87.7C282,-79.73 286.95,-70.1 291.49,-61.26"/>
<polygon fill="black" stroke="black" points="294.74,-62.6 296.2,-52.1 288.52,-59.4 294.74,-62.6"/>
<g id="a_edge7&#45;headlabel"><a xlink:href="dir_000012_000005.html" target="_top" xlink:title="2">
<text text-anchor="middle" x="295.62" y="-64.59" font-family="Helvetica,sans-Serif" font-size="10.00">2</text>
</a>
</g>
</g>
<!-- dir_6a8ae9aac5da83432634b4279f2f3c70 -->
<g id="node8" class="node">
<title>dir_6a8ae9aac5da83432634b4279f2f3c70</title>
<g id="a_node8"><a xlink:href="dir_6a8ae9aac5da83432634b4279f2f3c70.html" target="_top" xlink:title="opt">
<polygon fill="white" stroke="black" points="224,-124 170,-124 170,-88 224,-88 224,-124"/>
<text text-anchor="middle" x="197" y="-103.5" font-family="Helvetica,sans-Serif" font-size="10.00">opt</text>
</a>
</g>
</g>
<!-- dir_6a8ae9aac5da83432634b4279f2f3c70&#45;&gt;dir_bafa501d493553e442f19f5f8dd7b29c -->
<g id="edge2" class="edge">
<title>dir_6a8ae9aac5da83432634b4279f2f3c70&#45;&gt;dir_bafa501d493553e442f19f5f8dd7b29c</title>
<path fill="none" stroke="black" d="M221.29,-87.89C225.19,-85.22 229.19,-82.51 233,-80 244.67,-72.31 257.57,-64.14 269.2,-56.9"/>
<polygon fill="black" stroke="black" points="271.14,-59.82 277.79,-51.57 267.45,-53.87 271.14,-59.82"/>
<g id="a_edge2&#45;headlabel"><a xlink:href="dir_000013_000005.html" target="_top" xlink:title="12">
<text text-anchor="middle" x="269.58" y="-61.63" font-family="Helvetica,sans-Serif" font-size="10.00">12</text>
</a>
</g>
</g>
<!-- dir_ea8755ec8c8b8285d5914a73a733b356 -->
<g id="node9" class="node">
<title>dir_ea8755ec8c8b8285d5914a73a733b356</title>
<g id="a_node9"><a xlink:href="dir_ea8755ec8c8b8285d5914a73a733b356.html" target="_top" xlink:title="quant">
<polygon fill="white" stroke="black" points="152,-124 98,-124 98,-88 152,-88 152,-124"/>
<text text-anchor="middle" x="125" y="-103.5" font-family="Helvetica,sans-Serif" font-size="10.00">quant</text>
</a>
</g>
</g>
<!-- dir_ea8755ec8c8b8285d5914a73a733b356&#45;&gt;dir_bafa501d493553e442f19f5f8dd7b29c -->
<g id="edge6" class="edge">
<title>dir_ea8755ec8c8b8285d5914a73a733b356&#45;&gt;dir_bafa501d493553e442f19f5f8dd7b29c</title>
<path fill="none" stroke="black" d="M147.6,-87.77C151.91,-84.94 156.49,-82.21 161,-80 195.62,-63.06 238.02,-50.73 267.82,-43.3"/>
<polygon fill="black" stroke="black" points="268.9,-46.64 277.8,-40.88 267.25,-39.84 268.9,-46.64"/>
<g id="a_edge6&#45;headlabel"><a xlink:href="dir_000014_000005.html" target="_top" xlink:title="4">
<text text-anchor="middle" x="266.08" y="-47.75" font-family="Helvetica,sans-Serif" font-size="10.00">4</text>
</a>
</g>
</g>
<!-- dir_25af579fff40d90ea7ba98c1764ae1f1 -->
<g id="node10" class="node">
<title>dir_25af579fff40d90ea7ba98c1764ae1f1</title>
<g id="a_node10"><a xlink:href="dir_25af579fff40d90ea7ba98c1764ae1f1.html" target="_top" xlink:title="runtime">
<polygon fill="white" stroke="black" points="79.5,-124 24.5,-124 24.5,-88 79.5,-88 79.5,-124"/>
<text text-anchor="middle" x="52" y="-103.5" font-family="Helvetica,sans-Serif" font-size="10.00">runtime</text>
</a>
</g>
</g>
<!-- dir_25af579fff40d90ea7ba98c1764ae1f1&#45;&gt;dir_bafa501d493553e442f19f5f8dd7b29c -->
<g id="edge4" class="edge">
<title>dir_25af579fff40d90ea7ba98c1764ae1f1&#45;&gt;dir_bafa501d493553e442f19f5f8dd7b29c</title>
<path fill="none" stroke="black" d="M74.3,-87.93C78.97,-84.94 84,-82.11 89,-80 148.61,-54.81 223.62,-43.27 267.74,-38.33"/>
<polygon fill="black" stroke="black" points="268.16,-41.81 277.73,-37.27 267.42,-34.85 268.16,-41.81"/>
<g id="a_edge4&#45;headlabel"><a xlink:href="dir_000015_000005.html" target="_top" xlink:title="2">
<text text-anchor="middle" x="264.89" y="-42.51" font-family="Helvetica,sans-Serif" font-size="10.00">2</text>
</a>
</g>
</g>
</g>
</svg>
