<?xml version="1.0" encoding="UTF-8" standalone="no"?>
<!DOCTYPE svg PUBLIC "-//W3C//DTD SVG 1.1//EN"
 "http://www.w3.org/Graphics/SVG/1.1/DTD/svg11.dtd">
<!-- Generated by graphviz version 2.43.0 (0)
 -->
<!-- Title: benchmarks/src Pages: 1 -->
<svg width="101pt" height="151pt"
 viewBox="0.00 0.00 101.00 151.00" xmlns="http://www.w3.org/2000/svg" xmlns:xlink="http://www.w3.org/1999/xlink">
<g id="graph0" class="graph" transform="scale(1 1) rotate(0) translate(4 147)">
<title>benchmarks/src</title>
<g id="clust1" class="cluster">
<title>clusterdir_13a41d9ad64fb9ae396cb953294783cf</title>
<g id="a_clust1"><a xlink:href="dir_13a41d9ad64fb9ae396cb953294783cf.html" target="_top" xlink:title="benchmarks">
<polygon fill="#ddddee" stroke="black" points="8,-64 8,-135 85,-135 85,-64 8,-64"/>
<text text-anchor="middle" x="46.5" y="-123" font-family="Helvetica,sans-Serif" font-size="10.00">benchmarks</text>
</a>
</g>
</g>
<!-- dir_85513c0f882cdaa57fbc19a23c02fa9b -->
<g id="node1" class="node">
<title>dir_85513c0f882cdaa57fbc19a23c02fa9b</title>
<g id="a_node1"><a xlink:href="dir_85513c0f882cdaa57fbc19a23c02fa9b.html" target="_top" xlink:title="src">
<polygon fill="#eeeeff" stroke="black" points="73,-108 19,-108 19,-72 73,-72 73,-108"/>
<text text-anchor="middle" x="46" y="-87.5" font-family="Helvetica,sans-Serif" font-size="10.00">src</text>
</a>
</g>
</g>
<!-- dir_996f45160da62e1a3d7f6046fad68f51 -->
<g id="node2" class="node">
<title>dir_996f45160da62e1a3d7f6046fad68f51</title>
<g id="a_node2"><a xlink:href="dir_996f45160da62e1a3d7f6046fad68f51.html" target="_top" xlink:title="engine">
<polygon fill="none" stroke="red" points="73,-36 19,-36 19,0 73,0 73,-36"/>
<text text-anchor="middle" x="46" y="-15.5" font-family="Helvetica,sans-Serif" font-size="10.00">engine</text>
</a>
</g>
</g>
<!-- dir_85513c0f882cdaa57fbc19a23c02fa9b&#45;&gt;dir_996f45160da62e1a3d7f6046fad68f51 -->
<g id="edge1" class="edge">
<title>dir_85513c0f882cdaa57fbc19a23c02fa9b&#45;&gt;dir_996f45160da62e1a3d7f6046fad68f51</title>
<path fill="none" stroke="black" d="M46,-71.7C46,-63.98 46,-54.71 46,-46.11"/>
<polygon fill="black" stroke="black" points="49.5,-46.1 46,-36.1 42.5,-46.1 49.5,-46.1"/>
<g id="a_edge1&#45;headlabel"><a xlink:href="dir_000001_000004.html" target="_top" xlink:title="3">
<text text-anchor="middle" x="52.34" y="-47.2" font-family="Helvetica,sans-Serif" font-size="10.00">3</text>
</a>
</g>
</g>
</g>
</svg>
