<?xml version="1.0" encoding="UTF-8" standalone="no"?>
<!DOCTYPE svg PUBLIC "-//W3C//DTD SVG 1.1//EN"
 "http://www.w3.org/Graphics/SVG/1.1/DTD/svg11.dtd">
<!-- Generated by graphviz version 12.2.1 (20241206.2353)
 -->
<!-- Title: engine/src Pages: 1 -->
<svg width="445pt" height="146pt"
 viewBox="0.00 0.00 445.00 146.25" xmlns="http://www.w3.org/2000/svg" xmlns:xlink="http://www.w3.org/1999/xlink">
<g id="graph0" class="graph" transform="scale(1 1) rotate(0) translate(4 142.25)">
<title>engine/src</title>
<g id="clust1" class="cluster">
<title>clusterdir_996f45160da62e1a3d7f6046fad68f51</title>
<g id="a_clust1"><a xlink:href="dir_996f45160da62e1a3d7f6046fad68f51.html" target="_top" xlink:title="engine">
<polygon fill="#edf0f7" stroke="#404040" stroke-dasharray="5,2" points="8,-8 8,-130.25 429,-130.25 429,-8 8,-8"/>
<text text-anchor="middle" x="218.5" y="-116.75" font-family="Helvetica,sans-Serif" font-size="10.00">engine</text>
</a>
</g>
</g>
<g id="clust2" class="cluster">
<title>clusterdir_3d9126aa00c041bc0b8f859d1965a0f4</title>
<g id="a_clust2"><a xlink:href="dir_3d9126aa00c041bc0b8f859d1965a0f4.html" target="_top">
<polygon fill="#edf0f7" stroke="#404040" stroke-width="2" points="16,-64.75 16,-101.5 421,-101.5 421,-64.75 16,-64.75"/>
</a>
</g>
</g>
<!-- dir_bafa501d493553e442f19f5f8dd7b29c -->
<g id="node1" class="node">
<title>dir_bafa501d493553e442f19f5f8dd7b29c</title>
<g id="a_node1"><a xlink:href="dir_bafa501d493553e442f19f5f8dd7b29c.html" target="_top" xlink:title="include">
<polygon fill="#a2b4d6" stroke="#404040" points="241.62,-36.75 190.38,-36.75 190.38,-16 241.62,-16 241.62,-36.75"/>
<text text-anchor="middle" x="216" y="-23.25" font-family="Helvetica,sans-Serif" font-size="10.00">include</text>
</a>
</g>
</g>
<!-- dir_3d9126aa00c041bc0b8f859d1965a0f4 -->
<g id="node2" class="node">
<title>dir_3d9126aa00c041bc0b8f859d1965a0f4</title>
<text text-anchor="middle" x="39" y="-80" font-family="Helvetica,sans-Serif" font-size="10.00">src</text>
</g>
<!-- dir_3d9126aa00c041bc0b8f859d1965a0f4&#45;&gt;dir_bafa501d493553e442f19f5f8dd7b29c -->
<g id="edge1" class="edge">
<title>dir_3d9126aa00c041bc0b8f859d1965a0f4&#45;&gt;dir_bafa501d493553e442f19f5f8dd7b29c</title>
<g id="a_edge1"><a xlink:href="dir_000009_000003.html" target="_top">
<path fill="none" stroke="#63b8ff" d="M49.67,-73.04C53.65,-70.03 58.33,-66.91 63,-64.75 100.58,-47.37 147.22,-37.48 179.07,-32.29"/>
<polygon fill="#63b8ff" stroke="#63b8ff" points="179.24,-35.81 188.59,-30.82 178.17,-28.89 179.24,-35.81"/>
</a>
</g>
<g id="a_edge1&#45;headlabel"><a xlink:href="dir_000009_000003.html" target="_top" xlink:title="24">
<text text-anchor="middle" x="177.62" y="-35.81" font-family="Helvetica,sans-Serif" font-size="10.00" fill="#63b8ff">24</text>
</a>
</g>
</g>
<!-- dir_6e12826fa569dcfca518a603dbf9bd72 -->
<g id="node3" class="node">
<title>dir_6e12826fa569dcfca518a603dbf9bd72</title>
<g id="a_node3"><a xlink:href="dir_6e12826fa569dcfca518a603dbf9bd72.html" target="_top" xlink:title="devices">
<polygon fill="#a2b4d6" stroke="#404040" points="125.75,-93.5 72.25,-93.5 72.25,-72.75 125.75,-72.75 125.75,-93.5"/>
<text text-anchor="middle" x="99" y="-80" font-family="Helvetica,sans-Serif" font-size="10.00">devices</text>
</a>
</g>
</g>
<!-- dir_6e12826fa569dcfca518a603dbf9bd72&#45;&gt;dir_bafa501d493553e442f19f5f8dd7b29c -->
<g id="edge2" class="edge">
<title>dir_6e12826fa569dcfca518a603dbf9bd72&#45;&gt;dir_bafa501d493553e442f19f5f8dd7b29c</title>
<g id="a_edge2"><a xlink:href="dir_000000_000003.html" target="_top">
<path fill="none" stroke="#63b8ff" d="M119.15,-72.32C124.31,-69.83 129.85,-67.18 135,-64.75 151.23,-57.09 169.36,-48.71 184.35,-41.82"/>
<polygon fill="#63b8ff" stroke="#63b8ff" points="185.63,-45.09 193.26,-37.74 182.71,-38.73 185.63,-45.09"/>
</a>
</g>
<g id="a_edge2&#45;headlabel"><a xlink:href="dir_000000_000003.html" target="_top" xlink:title="2">
<text text-anchor="middle" x="184.92" y="-45.41" font-family="Helvetica,sans-Serif" font-size="10.00" fill="#63b8ff">2</text>
</a>
</g>
</g>
<!-- dir_ca1f0cd6417c875f36bda237f81fbbd7 -->
<g id="node4" class="node">
<title>dir_ca1f0cd6417c875f36bda237f81fbbd7</title>
<g id="a_node4"><a xlink:href="dir_ca1f0cd6417c875f36bda237f81fbbd7.html" target="_top" xlink:title="io">
<polygon fill="#a2b4d6" stroke="#404040" points="172.4,-93.5 143.6,-93.5 143.6,-72.75 172.4,-72.75 172.4,-93.5"/>
<text text-anchor="middle" x="158" y="-80" font-family="Helvetica,sans-Serif" font-size="10.00">io</text>
</a>
</g>
</g>
<!-- dir_ca1f0cd6417c875f36bda237f81fbbd7&#45;&gt;dir_bafa501d493553e442f19f5f8dd7b29c -->
<g id="edge3" class="edge">
<title>dir_ca1f0cd6417c875f36bda237f81fbbd7&#45;&gt;dir_bafa501d493553e442f19f5f8dd7b29c</title>
<g id="a_edge3"><a xlink:href="dir_000004_000003.html" target="_top">
<path fill="none" stroke="#63b8ff" d="M168.37,-72.34C176.45,-64.71 187.88,-53.92 197.52,-44.82"/>
<polygon fill="#63b8ff" stroke="#63b8ff" points="199.75,-47.53 204.62,-38.12 194.95,-42.44 199.75,-47.53"/>
</a>
</g>
<g id="a_edge3&#45;headlabel"><a xlink:href="dir_000004_000003.html" target="_top" xlink:title="3">
<text text-anchor="middle" x="200.19" y="-47.9" font-family="Helvetica,sans-Serif" font-size="10.00" fill="#63b8ff">3</text>
</a>
</g>
</g>
<!-- dir_2151caada9eddb57703a29b50b7782f8 -->
<g id="node5" class="node">
<title>dir_2151caada9eddb57703a29b50b7782f8</title>
<g id="a_node5"><a xlink:href="dir_2151caada9eddb57703a29b50b7782f8.html" target="_top" xlink:title="kernels">
<polygon fill="#a2b4d6" stroke="#404040" points="241.62,-93.5 190.38,-93.5 190.38,-72.75 241.62,-72.75 241.62,-93.5"/>
<text text-anchor="middle" x="216" y="-80" font-family="Helvetica,sans-Serif" font-size="10.00">kernels</text>
</a>
</g>
</g>
<!-- dir_2151caada9eddb57703a29b50b7782f8&#45;&gt;dir_bafa501d493553e442f19f5f8dd7b29c -->
<g id="edge4" class="edge">
<title>dir_2151caada9eddb57703a29b50b7782f8&#45;&gt;dir_bafa501d493553e442f19f5f8dd7b29c</title>
<g id="a_edge4"><a xlink:href="dir_000005_000003.html" target="_top">
<path fill="none" stroke="#63b8ff" d="M216,-72.34C216,-65.72 216,-56.72 216,-48.52"/>
<polygon fill="#63b8ff" stroke="#63b8ff" points="219.5,-48.59 216,-38.59 212.5,-48.59 219.5,-48.59"/>
</a>
</g>
<g id="a_edge4&#45;headlabel"><a xlink:href="dir_000005_000003.html" target="_top" xlink:title="2">
<text text-anchor="middle" x="222.34" y="-47.55" font-family="Helvetica,sans-Serif" font-size="10.00" fill="#63b8ff">2</text>
</a>
</g>
</g>
<!-- dir_f8c22eb530ce806c9f0ee03801c99f37 -->
<g id="node6" class="node">
<title>dir_f8c22eb530ce806c9f0ee03801c99f37</title>
<g id="a_node6"><a xlink:href="dir_f8c22eb530ce806c9f0ee03801c99f37.html" target="_top" xlink:title="math">
<polygon fill="#a2b4d6" stroke="#404040" points="300.75,-93.5 259.25,-93.5 259.25,-72.75 300.75,-72.75 300.75,-93.5"/>
<text text-anchor="middle" x="280" y="-80" font-family="Helvetica,sans-Serif" font-size="10.00">math</text>
</a>
</g>
</g>
<!-- dir_f8c22eb530ce806c9f0ee03801c99f37&#45;&gt;dir_bafa501d493553e442f19f5f8dd7b29c -->
<g id="edge5" class="edge">
<title>dir_f8c22eb530ce806c9f0ee03801c99f37&#45;&gt;dir_bafa501d493553e442f19f5f8dd7b29c</title>
<g id="a_edge5"><a xlink:href="dir_000006_000003.html" target="_top">
<path fill="none" stroke="#63b8ff" d="M268.56,-72.34C259.55,-64.63 246.77,-53.7 236.07,-44.54"/>
<polygon fill="#63b8ff" stroke="#63b8ff" points="238.37,-41.9 228.49,-38.06 233.82,-47.22 238.37,-41.9"/>
</a>
</g>
<g id="a_edge5&#45;headlabel"><a xlink:href="dir_000006_000003.html" target="_top" xlink:title="2">
<text text-anchor="middle" x="241.79" y="-37.97" font-family="Helvetica,sans-Serif" font-size="10.00" fill="#63b8ff">2</text>
</a>
</g>
</g>
<!-- dir_6a8ae9aac5da83432634b4279f2f3c70 -->
<g id="node7" class="node">
<title>dir_6a8ae9aac5da83432634b4279f2f3c70</title>
<g id="a_node7"><a xlink:href="dir_6a8ae9aac5da83432634b4279f2f3c70.html" target="_top" xlink:title="opt">
<polygon fill="#a2b4d6" stroke="#404040" points="350.88,-93.5 319.12,-93.5 319.12,-72.75 350.88,-72.75 350.88,-93.5"/>
<text text-anchor="middle" x="335" y="-80" font-family="Helvetica,sans-Serif" font-size="10.00">opt</text>
</a>
</g>
</g>
<!-- dir_6a8ae9aac5da83432634b4279f2f3c70&#45;&gt;dir_bafa501d493553e442f19f5f8dd7b29c -->
<g id="edge6" class="edge">
<title>dir_6a8ae9aac5da83432634b4279f2f3c70&#45;&gt;dir_bafa501d493553e442f19f5f8dd7b29c</title>
<g id="a_edge6"><a xlink:href="dir_000007_000003.html" target="_top">
<path fill="none" stroke="#63b8ff" d="M322.13,-72.34C318.33,-69.69 314.1,-66.95 310,-64.75 291.76,-54.96 270.4,-46.26 252.64,-39.72"/>
<polygon fill="#63b8ff" stroke="#63b8ff" points="253.86,-36.44 243.27,-36.36 251.5,-43.03 253.86,-36.44"/>
</a>
</g>
<g id="a_edge6&#45;headlabel"><a xlink:href="dir_000007_000003.html" target="_top" xlink:title="4">
<text text-anchor="middle" x="256.78" y="-31.35" font-family="Helvetica,sans-Serif" font-size="10.00" fill="#63b8ff">4</text>
</a>
</g>
</g>
<!-- dir_ea8755ec8c8b8285d5914a73a733b356 -->
<g id="node8" class="node">
<title>dir_ea8755ec8c8b8285d5914a73a733b356</title>
<g id="a_node8"><a xlink:href="dir_ea8755ec8c8b8285d5914a73a733b356.html" target="_top" xlink:title="quant">
<polygon fill="#a2b4d6" stroke="#404040" points="412.88,-93.5 369.12,-93.5 369.12,-72.75 412.88,-72.75 412.88,-93.5"/>
<text text-anchor="middle" x="391" y="-80" font-family="Helvetica,sans-Serif" font-size="10.00">quant</text>
</a>
</g>
</g>
<!-- dir_ea8755ec8c8b8285d5914a73a733b356&#45;&gt;dir_bafa501d493553e442f19f5f8dd7b29c -->
<g id="edge7" class="edge">
<title>dir_ea8755ec8c8b8285d5914a73a733b356&#45;&gt;dir_bafa501d493553e442f19f5f8dd7b29c</title>
<g id="a_edge7"><a xlink:href="dir_000008_000003.html" target="_top">
<path fill="none" stroke="#63b8ff" d="M375.3,-72.3C370.51,-69.58 365.15,-66.82 360,-64.75 324.78,-50.58 282.53,-40.36 252.94,-34.23"/>
<polygon fill="#63b8ff" stroke="#63b8ff" points="253.84,-30.84 243.35,-32.3 252.46,-37.7 253.84,-30.84"/>
</a>
</g>
<g id="a_edge7&#45;headlabel"><a xlink:href="dir_000008_000003.html" target="_top" xlink:title="1">
<text text-anchor="middle" x="256.44" y="-25.34" font-family="Helvetica,sans-Serif" font-size="10.00" fill="#63b8ff">1</text>
</a>
</g>
</g>
</g>
</svg>
