<?xml version="1.0" encoding="UTF-8" standalone="no"?>
<!DOCTYPE svg PUBLIC "-//W3C//DTD SVG 1.1//EN"
 "http://www.w3.org/Graphics/SVG/1.1/DTD/svg11.dtd">
<!-- Generated by graphviz version 2.43.0 (0)
 -->
<!-- Title: ie_kernels_install Pages: 1 -->
<!--zoomable 159 -->

<svg id="main" version="1.1" xmlns="http://www.w3.org/2000/svg" xmlns:xlink="http://www.w3.org/1999/xlink" xml:space="preserve" onload="init(evt)">
<style type="text/css"><![CDATA[
.node, .edge {opacity: 0.7;}
.node.selected, .edge.selected {opacity: 1;}
.edge:hover path { stroke: red; }
.edge:hover polygon { stroke: red; fill: red; }
]]></style>

<defs>
  <circle id="rim" cx="0" cy="0" r="7"/>
  <circle id="rim2" cx="0" cy="0" r="3.5"/>
  <g id="zoomPlus">
    <use xlink:href="#rim" fill="#404040"><set attributeName="fill" to="#808080" begin="zoomplus.mouseover" end="zoomplus.mouseout"/></use>
    <path d="M-4,0h8M0,-4v8" fill="none" stroke="white" stroke-width="1.5" pointer-events="none"/>
  </g>
  <g id="zoomMin">
    <use xlink:href="#rim" fill="#404040"><set attributeName="fill" to="#808080" begin="zoomminus.mouseover" end="zoomminus.mouseout"/></use>
    <path d="M-4,0h8" fill="none" stroke="white" stroke-width="1.5" pointer-events="none"/>
  </g>
  <g id="arrowUp" transform="translate(30 24)">
    <use xlink:href="#rim"/>
    <path pointer-events="none" fill="none" stroke="white" stroke-width="1.5" d="M0,-3.0v7 M-2.5,-0.5L0,-3.0L2.5,-0.5"/>
  </g>
  <g id="arrowRight" transform="rotate(90) translate(36 -43)">
    <use xlink:href="#rim"/>
    <path pointer-events="none" fill="none" stroke="white" stroke-width="1.5" d="M0,-3.0v7 M-2.5,-0.5L0,-3.0L2.5,-0.5"/>
  </g>
  <g id="arrowDown" transform="rotate(180) translate(-30 -48)">
    <use xlink:href="#rim"/>
    <path pointer-events="none" fill="none" stroke="white" stroke-width="1.5" d="M0,-3.0v7 M-2.5,-0.5L0,-3.0L2.5,-0.5"/>
  </g>
  <g id="arrowLeft" transform="rotate(270) translate(-36 17)">
    <use xlink:href="#rim"/>
    <path pointer-events="none" fill="none" stroke="white" stroke-width="1.5" d="M0,-3.0v7 M-2.5,-0.5L0,-3.0L2.5,-0.5"/>
  </g>
  <g id="resetDef">
    <use xlink:href="#rim2" fill="#404040"><set attributeName="fill" to="#808080" begin="reset.mouseover" end="reset.mouseout"/></use>
  </g>
</defs>
<script type="application/ecmascript">
var viewWidth = 732;
var viewHeight = 159;
var sectionId = 'dynsection-21';
</script>
<script type="application/ecmascript" xlink:href="svg.min.js"/>
<svg id="graph" class="graph">
<g id="viewport">
<title>ie_kernels_install</title>
<!-- Node1 -->
<g id="Node000001" class="node">
<title>Node1</title>
<g id="a_Node000001"><a xlink:title="Install the best available fp32 GEMV kernel.">
<polygon fill="#999999" stroke="#666666" points="724,-19.82 623,-19.82 623,-0.82 724,-0.82 724,-19.82"/>
<text text-anchor="middle" x="673.5" y="-7.82" font-family="Helvetica,sans-Serif" font-size="10.00">ie_kernels_install</text>
</a>
</g>
</g>
<!-- Node2 -->
<g id="Node000002" class="node">
<title>Node2</title>
<g id="a_Node000002"><a xlink:href="gemv__generic_8c.html#a4e112b3396ed21919f404631c1d4d7fb" target="_top" xlink:title="GEMV (fp32): y[r] = dot(W[r,:], x) + (bias ? bias[r] : 0).">
<polygon fill="white" stroke="#666666" points="587,-65.82 507,-65.82 507,-46.82 587,-46.82 587,-65.82"/>
<text text-anchor="middle" x="547" y="-53.82" font-family="Helvetica,sans-Serif" font-size="10.00">ie_gemv_f32</text>
</a>
</g>
</g>
<!-- Node1&#45;&gt;Node2 -->
<g id="edge1_Node000001_Node000002" class="edge">
<title>Node1&#45;&gt;Node2</title>
<g id="a_edge1_Node000001_Node000002"><a xlink:title=" ">
<path fill="none" stroke="#63b8ff" d="M637.21,-23.36C617.01,-30.82 592.12,-40.02 573.76,-46.8"/>
<polygon fill="#63b8ff" stroke="#63b8ff" points="638.54,-26.6 646.7,-19.85 636.11,-20.03 638.54,-26.6"/>
</a>
</g>
</g>
<!-- Node9 -->
<g id="Node000009" class="node">
<title>Node9</title>
<g id="a_Node000009"><a xlink:href="test__kernels_8c.html#a840291bc02cba5474a4cb46a9b9566fe" target="_top" xlink:title="Program entry: run all kernel tests and print &quot;ok test_kernels&quot; on success.">
<polygon fill="white" stroke="#666666" points="286,-41.82 245,-41.82 245,-22.82 286,-22.82 286,-41.82"/>
<text text-anchor="middle" x="265.5" y="-29.82" font-family="Helvetica,sans-Serif" font-size="10.00">main</text>
</a>
</g>
</g>
<!-- Node1&#45;&gt;Node9 -->
<g id="edge12_Node000001_Node000009" class="edge">
<title>Node1&#45;&gt;Node9</title>
<g id="a_edge12_Node000001_Node000009"><a xlink:title=" ">
<path fill="none" stroke="#63b8ff" d="M612.88,-4.84C548.08,-0.07 441.65,4.3 351,-8.32 328.34,-11.48 303.23,-19.17 286.31,-25.01"/>
<polygon fill="#63b8ff" stroke="#63b8ff" points="612.68,-8.33 622.91,-5.6 613.21,-1.35 612.68,-8.33"/>
</a>
</g>
</g>
<!-- Node3 -->
<g id="Node000003" class="node">
<title>Node3</title>
<g id="a_Node000003"><a xlink:href="ie__device__common_8c.html#a4fb9bb01bfbe71517f9df925ba9c93ec" target="_top" xlink:title="Execute dense GEMV FP32 on CPU using existing kernels.">
<polygon fill="white" stroke="#666666" points="455,-132.82 367,-132.82 367,-113.82 455,-113.82 455,-132.82"/>
<text text-anchor="middle" x="411" y="-120.82" font-family="Helvetica,sans-Serif" font-size="10.00">cpu_gemv_f32</text>
</a>
</g>
</g>
<!-- Node2&#45;&gt;Node3 -->
<g id="edge2_Node000002_Node000003" class="edge">
<title>Node2&#45;&gt;Node3</title>
<g id="a_edge2_Node000002_Node000003"><a xlink:title=" ">
<path fill="none" stroke="#63b8ff" d="M525.02,-71.84C510.43,-82.09 490.22,-95.26 471,-104.32 463.41,-107.9 454.96,-111.06 446.89,-113.73"/>
<polygon fill="#63b8ff" stroke="#63b8ff" points="527.22,-74.56 533.32,-65.89 523.15,-68.87 527.22,-74.56"/>
</a>
</g>
</g>
<!-- Node8 -->
<g id="Node000008" class="node">
<title>Node8</title>
<g id="a_Node000008"><a xlink:href="test__kernels_8c.html#a0ac9b0c3b1d865ef69bd2bc69d14a685" target="_top" xlink:title="Test: GEMV without bias, row&#45;major, blk_k=0.">
<polygon fill="white" stroke="#666666" points="471,-95.32 351,-95.32 351,-65.32 471,-65.32 471,-95.32"/>
<text text-anchor="start" x="359" y="-83.32" font-family="Helvetica,sans-Serif" font-size="10.00">test_gemv_rowmajor</text>
<text text-anchor="middle" x="411" y="-72.32" font-family="Helvetica,sans-Serif" font-size="10.00">_no_bias</text>
</a>
</g>
</g>
<!-- Node2&#45;&gt;Node8 -->
<g id="edge8_Node000002_Node000008" class="edge">
<title>Node2&#45;&gt;Node8</title>
<g id="a_edge8_Node000002_Node000008"><a xlink:title=" ">
<path fill="none" stroke="#63b8ff" d="M496.89,-65.12C488.5,-66.62 479.71,-68.19 471.1,-69.74"/>
<polygon fill="#63b8ff" stroke="#63b8ff" points="497.66,-68.54 506.88,-63.33 496.42,-61.64 497.66,-68.54"/>
</a>
</g>
</g>
<!-- Node10 -->
<g id="Node000010" class="node">
<title>Node10</title>
<g id="a_Node000010"><a xlink:href="test__kernels_8c.html#a2305be22b4279f3ac4d55f90584569cb" target="_top" xlink:title="Test: GEMV with bias epilogue, row&#45;major, blk_k=0.">
<polygon fill="white" stroke="#666666" points="471,-47.32 351,-47.32 351,-17.32 471,-17.32 471,-47.32"/>
<text text-anchor="start" x="359" y="-35.32" font-family="Helvetica,sans-Serif" font-size="10.00">test_gemv_rowmajor</text>
<text text-anchor="middle" x="411" y="-24.32" font-family="Helvetica,sans-Serif" font-size="10.00">_with_bias</text>
</a>
</g>
</g>
<!-- Node2&#45;&gt;Node10 -->
<g id="edge10_Node000002_Node000010" class="edge">
<title>Node2&#45;&gt;Node10</title>
<g id="a_edge10_Node000002_Node000010"><a xlink:title=" ">
<path fill="none" stroke="#63b8ff" d="M496.89,-47.52C488.5,-46.02 479.71,-44.45 471.1,-42.9"/>
<polygon fill="#63b8ff" stroke="#63b8ff" points="496.42,-51 506.88,-49.31 497.66,-44.11 496.42,-51"/>
</a>
</g>
</g>
<!-- Node4 -->
<g id="Node000004" class="node">
<title>Node4</title>
<g id="a_Node000004"><a xlink:href="ie__device__common_8c.html#a3e42fcc4b9579a9bf14520cb1afe733b" target="_top" xlink:title="Create a device handle for the requested kind (with fallback).">
<polygon fill="white" stroke="#666666" points="315,-132.82 216,-132.82 216,-113.82 315,-113.82 315,-132.82"/>
<text text-anchor="middle" x="265.5" y="-120.82" font-family="Helvetica,sans-Serif" font-size="10.00">ie_device_create</text>
</a>
</g>
</g>
<!-- Node3&#45;&gt;Node4 -->
<g id="edge3_Node000003_Node000004" class="edge">
<title>Node3&#45;&gt;Node4</title>
<g id="a_edge3_Node000003_Node000004"><a xlink:title=" ">
<path fill="none" stroke="#63b8ff" d="M356.73,-123.32C343.07,-123.32 328.46,-123.32 315.05,-123.32"/>
<polygon fill="#63b8ff" stroke="#63b8ff" points="356.95,-126.82 366.95,-123.32 356.95,-119.82 356.95,-126.82"/>
</a>
</g>
</g>
<!-- Node5 -->
<g id="Node000005" class="node">
<title>Node5</title>
<g id="a_Node000005"><a xlink:href="test__device_8c.html#a7b62f3db43117555c60ec59d19c7c8d6" target="_top" xlink:title="Verify CPU device exposes GEMV capability.">
<polygon fill="white" stroke="#666666" points="171.5,-150.82 85.5,-150.82 85.5,-131.82 171.5,-131.82 171.5,-150.82"/>
<text text-anchor="middle" x="128.5" y="-138.82" font-family="Helvetica,sans-Serif" font-size="10.00">test_cpu_caps</text>
</a>
</g>
</g>
<!-- Node4&#45;&gt;Node5 -->
<g id="edge4_Node000004_Node000005" class="edge">
<title>Node4&#45;&gt;Node5</title>
<g id="a_edge4_Node000004_Node000005"><a xlink:title=" ">
<path fill="none" stroke="#63b8ff" d="M205.51,-131.19C194.2,-132.69 182.57,-134.24 171.91,-135.67"/>
<polygon fill="#63b8ff" stroke="#63b8ff" points="206.31,-134.61 215.76,-129.82 205.39,-127.67 206.31,-134.61"/>
</a>
</g>
</g>
<!-- Node7 -->
<g id="Node000007" class="node">
<title>Node7</title>
<g id="a_Node000007"><a xlink:href="test__device_8c.html#a548e6227513ac3fd772219dad3b0de22" target="_top" xlink:title="Ensure GPU request gracefully falls back to a working GEMV.">
<polygon fill="white" stroke="#666666" points="180,-113.82 77,-113.82 77,-94.82 180,-94.82 180,-113.82"/>
<text text-anchor="middle" x="128.5" y="-101.82" font-family="Helvetica,sans-Serif" font-size="10.00">test_gpu_fallback</text>
</a>
</g>
</g>
<!-- Node4&#45;&gt;Node7 -->
<g id="edge6_Node000004_Node000007" class="edge">
<title>Node4&#45;&gt;Node7</title>
<g id="a_edge6_Node000004_Node000007"><a xlink:title=" ">
<path fill="none" stroke="#63b8ff" d="M205.65,-115.04C197.25,-113.86 188.67,-112.65 180.44,-111.49"/>
<polygon fill="#63b8ff" stroke="#63b8ff" points="205.37,-118.53 215.76,-116.46 206.35,-111.6 205.37,-118.53"/>
</a>
</g>
</g>
<!-- Node6 -->
<g id="Node000006" class="node">
<title>Node6</title>
<g id="a_Node000006"><a xlink:href="test__device_8c.html#a840291bc02cba5474a4cb46a9b9566fe" target="_top" xlink:title="Test entry point.">
<polygon fill="white" stroke="#666666" points="41,-131.82 0,-131.82 0,-112.82 41,-112.82 41,-131.82"/>
<text text-anchor="middle" x="20.5" y="-119.82" font-family="Helvetica,sans-Serif" font-size="10.00">main</text>
</a>
</g>
</g>
<!-- Node5&#45;&gt;Node6 -->
<g id="edge5_Node000005_Node000006" class="edge">
<title>Node5&#45;&gt;Node6</title>
<g id="a_edge5_Node000005_Node000006"><a xlink:title=" ">
<path fill="none" stroke="#63b8ff" d="M75.18,-131.94C63.04,-129.77 50.86,-127.58 41.18,-125.85"/>
<polygon fill="#63b8ff" stroke="#63b8ff" points="74.84,-135.44 85.3,-133.76 76.08,-128.55 74.84,-135.44"/>
</a>
</g>
</g>
<!-- Node7&#45;&gt;Node6 -->
<g id="edge7_Node000007_Node000006" class="edge">
<title>Node7&#45;&gt;Node6</title>
<g id="a_edge7_Node000007_Node000006"><a xlink:title=" ">
<path fill="none" stroke="#63b8ff" d="M67.1,-114.58C57.67,-116.18 48.57,-117.72 41,-119.01"/>
<polygon fill="#63b8ff" stroke="#63b8ff" points="67.71,-118.02 76.98,-112.9 66.54,-111.12 67.71,-118.02"/>
</a>
</g>
</g>
<!-- Node8&#45;&gt;Node9 -->
<g id="edge9_Node000008_Node000009" class="edge">
<title>Node8&#45;&gt;Node9</title>
<g id="a_edge9_Node000008_Node000009"><a xlink:title=" ">
<path fill="none" stroke="#63b8ff" d="M355.48,-62.08C331.16,-53.95 304.02,-44.87 286.19,-38.91"/>
<polygon fill="#63b8ff" stroke="#63b8ff" points="354.4,-65.41 364.99,-65.26 356.62,-58.77 354.4,-65.41"/>
</a>
</g>
</g>
<!-- Node10&#45;&gt;Node9 -->
<g id="edge11_Node000010_Node000009" class="edge">
<title>Node10&#45;&gt;Node9</title>
<g id="a_edge11_Node000010_Node000009"><a xlink:title=" ">
<path fill="none" stroke="#63b8ff" d="M340.75,-32.32C320.8,-32.32 300.6,-32.32 286.31,-32.32"/>
<polygon fill="#63b8ff" stroke="#63b8ff" points="340.8,-35.82 350.8,-32.32 340.8,-28.82 340.8,-35.82"/>
</a>
</g>
</g>
</g>
</svg>

<g id="navigator" transform="translate(0 0)" fill="#404254">
  <rect fill="#f2f5e9" fill-opacity="0.5" stroke="#606060" stroke-width=".5" x="0" y="0" width="60" height="60"/>
  <use id="zoomplus" xlink:href="#zoomPlus" x="17" y="9" onmousedown="handleZoom(evt,'in')"/>
  <use id="zoomminus" xlink:href="#zoomMin" x="42" y="9" onmousedown="handleZoom(evt,'out')"/>
  <use id="reset" xlink:href="#resetDef" x="30" y="36" onmousedown="handleReset()"/>
   <use id="arrowup" xlink:href="#arrowUp" x="0" y="0" onmousedown="handlePan(0,-1)"/>
  <use id="arrowright" xlink:href="#arrowRight" x="0" y="0" onmousedown="handlePan(1,0)"/>
  <use id="arrowdown" xlink:href="#arrowDown" x="0" y="0" onmousedown="handlePan(0,1)"/>
  <use id="arrowleft" xlink:href="#arrowLeft" x="0" y="0" onmousedown="handlePan(-1,0)"/>
</g>
<svg viewBox="0 0 15 15" width="100%" height="30px" preserveAspectRatio="xMaxYMin meet">
 <g id="arrow_out" transform="scale(0.3 0.3)">
  <a xlink:href="gemv__generic_8c_a1b919f71b86ec1791fe53bc68d5c240d_icgraph_org.svg" target="_base">
   <rect id="button" ry="5" rx="5" y="6" x="6" height="38" width="38"
        fill="#f2f5e9" fill-opacity="0.5" stroke="#606060" stroke-width="1.0"/>
   <path id="arrow"
     d="M 11.500037,31.436501 C 11.940474,20.09759 22.043105,11.32322 32.158766,21.979434 L 37.068811,17.246167 C 37.068811,17.246167 37.088388,32 37.088388,32 L 22.160133,31.978069 C 22.160133,31.978069 26.997745,27.140456 26.997745,27.140456 C 18.528582,18.264221 13.291696,25.230495 11.500037,31.436501 z"
     style="fill:#404040;"/>
  </a>
 </g>
</svg>

<style type='text/css'>
<![CDATA[
[data-mouse-over-selected='false'] { opacity: 0.7; }
[data-mouse-over-selected='true']  { opacity: 1.0; }
]]>
</style>
<script type="application/ecmascript"><![CDATA[
document.addEventListener('DOMContentLoaded', (event) => {
  highlightEdges();
  highlightAdjacentNodes();
});
]]></script>
</svg>
