<?xml version="1.0" encoding="UTF-8" standalone="no"?>
<!DOCTYPE svg PUBLIC "-//W3C//DTD SVG 1.1//EN"
 "http://www.w3.org/Graphics/SVG/1.1/DTD/svg11.dtd">
<!-- Generated by graphviz version 2.43.0 (0)
 -->
<!-- Title: ie_log2_u8_q3_init_impl_ Pages: 1 -->
<svg width="1659pt" height="214pt"
 viewBox="0.00 0.00 1659.00 214.00" xmlns="http://www.w3.org/2000/svg" xmlns:xlink="http://www.w3.org/1999/xlink">
<g id="graph0" class="graph" transform="scale(1 1) rotate(0) translate(4 210)">
<title>ie_log2_u8_q3_init_impl_</title>
<!-- Node1 -->
<g id="Node000001" class="node">
<title>Node1</title>
<g id="a_Node000001"><a xlink:title=" ">
<polygon fill="#999999" stroke="#666666" points="1651,-64.5 1544,-64.5 1544,-34.5 1651,-34.5 1651,-64.5"/>
<text text-anchor="start" x="1552" y="-52.5" font-family="Helvetica,sans-Serif" font-size="10.00">ie_log2_u8_q3_init</text>
<text text-anchor="middle" x="1597.5" y="-41.5" font-family="Helvetica,sans-Serif" font-size="10.00">_impl_</text>
</a>
</g>
</g>
<!-- Node2 -->
<g id="Node000002" class="node">
<title>Node2</title>
<g id="a_Node000002"><a xlink:href="gemv__q4__generic_8c.html#acb45092051d8188cb83e8521544f1a16" target="_top" xlink:title=" ">
<polygon fill="white" stroke="#666666" points="1506.5,-89 1384.5,-89 1384.5,-70 1506.5,-70 1506.5,-89"/>
<text text-anchor="middle" x="1445.5" y="-77" font-family="Helvetica,sans-Serif" font-size="10.00">ie_log2_u8_q3_to_f32</text>
</a>
</g>
</g>
<!-- Node1&#45;&gt;Node2 -->
<g id="edge1_Node000001_Node000002" class="edge">
<title>Node1&#45;&gt;Node2</title>
<g id="a_edge1_Node000001_Node000002"><a xlink:title=" ">
<path fill="none" stroke="#63b8ff" d="M1533.69,-62.06C1520.55,-64.69 1506.9,-67.42 1494.4,-69.92"/>
<polygon fill="#63b8ff" stroke="#63b8ff" points="1534.5,-65.47 1543.62,-60.08 1533.12,-58.61 1534.5,-65.47"/>
</a>
</g>
</g>
<!-- Node21 -->
<g id="Node000021" class="node">
<title>Node21</title>
<g id="a_Node000021"><a xlink:href="gemv__q4__generic_8c.html#a43aede47b7769f5c605ba1687b0336ea" target="_top" xlink:title="Initialize log2(u8, q3) LUT for Q4 kernels (generic path).">
<polygon fill="white" stroke="#666666" points="1508,-43.5 1383,-43.5 1383,-13.5 1508,-13.5 1508,-43.5"/>
<text text-anchor="start" x="1391" y="-31.5" font-family="Helvetica,sans-Serif" font-size="10.00">ie_q4_log2_u8_q3_init</text>
<text text-anchor="middle" x="1445.5" y="-20.5" font-family="Helvetica,sans-Serif" font-size="10.00">_generic</text>
</a>
</g>
</g>
<!-- Node1&#45;&gt;Node21 -->
<g id="edge26_Node000001_Node000021" class="edge">
<title>Node1&#45;&gt;Node21</title>
<g id="a_edge26_Node000001_Node000021"><a xlink:title=" ">
<path fill="none" stroke="#63b8ff" d="M1533.51,-40.68C1525.11,-39.51 1516.51,-38.3 1508.14,-37.13"/>
<polygon fill="#63b8ff" stroke="#63b8ff" points="1533.23,-44.18 1543.62,-42.1 1534.2,-37.24 1533.23,-44.18"/>
</a>
</g>
</g>
<!-- Node3 -->
<g id="Node000003" class="node">
<title>Node3</title>
<g id="a_Node000003"><a xlink:href="gemv__q4__generic_8c.html#a0d62180096534e482fbb8fe67b98e4fd" target="_top" xlink:title="Load a per&#45;block scale value (BF16 or FP8 E4M3) as float.">
<polygon fill="white" stroke="#666666" points="1347,-89 1226,-89 1226,-70 1347,-70 1347,-89"/>
<text text-anchor="middle" x="1286.5" y="-77" font-family="Helvetica,sans-Serif" font-size="10.00">ie_q4_load_scale_f32</text>
</a>
</g>
</g>
<!-- Node2&#45;&gt;Node3 -->
<g id="edge2_Node000002_Node000003" class="edge">
<title>Node2&#45;&gt;Node3</title>
<g id="a_edge2_Node000002_Node000003"><a xlink:title=" ">
<path fill="none" stroke="#63b8ff" d="M1374.13,-79.5C1365.1,-79.5 1355.91,-79.5 1347.07,-79.5"/>
<polygon fill="#63b8ff" stroke="#63b8ff" points="1374.25,-83 1384.25,-79.5 1374.25,-76 1374.25,-83"/>
</a>
</g>
</g>
<!-- Node4 -->
<g id="Node000004" class="node">
<title>Node4</title>
<g id="a_Node000004"><a xlink:href="gemv__q4__generic_8c.html#a9b79eda3b7ade668c70ff76ecb8b4e22" target="_top" xlink:title="Compute one row dot product for Q4_0 weights.">
<polygon fill="white" stroke="#666666" points="1190,-89 1071,-89 1071,-70 1190,-70 1190,-89"/>
<text text-anchor="middle" x="1130.5" y="-77" font-family="Helvetica,sans-Serif" font-size="10.00">ie_q4_0_row_dot_f32</text>
</a>
</g>
</g>
<!-- Node3&#45;&gt;Node4 -->
<g id="edge3_Node000003_Node000004" class="edge">
<title>Node3&#45;&gt;Node4</title>
<g id="a_edge3_Node000003_Node000004"><a xlink:title=" ">
<path fill="none" stroke="#63b8ff" d="M1215.92,-79.5C1207.3,-79.5 1198.56,-79.5 1190.12,-79.5"/>
<polygon fill="#63b8ff" stroke="#63b8ff" points="1215.96,-83 1225.96,-79.5 1215.96,-76 1215.96,-83"/>
</a>
</g>
</g>
<!-- Node5 -->
<g id="Node000005" class="node">
<title>Node5</title>
<g id="a_Node000005"><a xlink:href="gemv__q4__generic_8c.html#ae94dc0f08cc7f3c822780a7cf605812a" target="_top" xlink:title="Portable scalar Q4_0 GEMV.">
<polygon fill="white" stroke="#666666" points="1035,-90 859,-90 859,-71 1035,-71 1035,-90"/>
<text text-anchor="middle" x="947" y="-78" font-family="Helvetica,sans-Serif" font-size="10.00">ie_gemv_q4_0_f32_generic_impl</text>
</a>
</g>
</g>
<!-- Node4&#45;&gt;Node5 -->
<g id="edge4_Node000004_Node000005" class="edge">
<title>Node4&#45;&gt;Node5</title>
<g id="a_edge4_Node000004_Node000005"><a xlink:title=" ">
<path fill="none" stroke="#63b8ff" d="M1060.77,-79.88C1052.4,-79.92 1043.77,-79.97 1035.18,-80.02"/>
<polygon fill="#63b8ff" stroke="#63b8ff" points="1060.84,-83.38 1070.82,-79.82 1060.8,-76.38 1060.84,-83.38"/>
</a>
</g>
</g>
<!-- Node6 -->
<g id="Node000006" class="node">
<title>Node6</title>
<g id="a_Node000006"><a xlink:href="gemv__q4__generic_8c.html#a98f4ea2f022f5dbbec384a50e332e1ff" target="_top" xlink:title="GEMV with Q4_0 weights and FP32 activations.">
<polygon fill="white" stroke="#666666" points="823,-91 715,-91 715,-72 823,-72 823,-91"/>
<text text-anchor="middle" x="769" y="-79" font-family="Helvetica,sans-Serif" font-size="10.00">ie_gemv_q4_0_f32</text>
</a>
</g>
</g>
<!-- Node5&#45;&gt;Node6 -->
<g id="edge5_Node000005_Node000006" class="edge">
<title>Node5&#45;&gt;Node6</title>
<g id="a_edge5_Node000005_Node000006"><a xlink:title=" ">
<path fill="none" stroke="#63b8ff" d="M848.58,-81.05C839.93,-81.1 831.39,-81.15 823.33,-81.2"/>
<polygon fill="#63b8ff" stroke="#63b8ff" points="848.79,-84.55 858.77,-81 848.75,-77.55 848.79,-84.55"/>
</a>
</g>
</g>
<!-- Node7 -->
<g id="Node000007" class="node">
<title>Node7</title>
<g id="a_Node000007"><a xlink:href="ie__device__common_8c.html#a9d5e38fae37da46a4112ebdbfa83667c" target="_top" xlink:title="Execute Q4_0 GEMV on CPU using existing kernels.">
<polygon fill="white" stroke="#666666" points="675,-130 559,-130 559,-111 675,-111 675,-130"/>
<text text-anchor="middle" x="617" y="-118" font-family="Helvetica,sans-Serif" font-size="10.00">cpu_gemv_q4_0_f32</text>
</a>
</g>
</g>
<!-- Node6&#45;&gt;Node7 -->
<g id="edge6_Node000006_Node000007" class="edge">
<title>Node6&#45;&gt;Node7</title>
<g id="a_edge6_Node000006_Node000007"><a xlink:title=" ">
<path fill="none" stroke="#63b8ff" d="M721.39,-93.62C699.87,-99.21 674.7,-105.76 654.57,-110.99"/>
<polygon fill="#63b8ff" stroke="#63b8ff" points="722.51,-96.94 731.31,-91.04 720.75,-90.17 722.51,-96.94"/>
</a>
</g>
</g>
<!-- Node15 -->
<g id="Node000015" class="node">
<title>Node15</title>
<g id="a_Node000015"><a xlink:href="infer__gptoss_8c.html#a463151430d9b4dce6eae9210c3c598f0" target="_top" xlink:title=" ">
<polygon fill="white" stroke="#666666" points="679,-91 555,-91 555,-72 679,-72 679,-91"/>
<text text-anchor="middle" x="617" y="-79" font-family="Helvetica,sans-Serif" font-size="10.00">ie_forward_one_token</text>
</a>
</g>
</g>
<!-- Node6&#45;&gt;Node15 -->
<g id="edge15_Node000006_Node000015" class="edge">
<title>Node6&#45;&gt;Node15</title>
<g id="a_edge15_Node000006_Node000015"><a xlink:title=" ">
<path fill="none" stroke="#63b8ff" d="M704.53,-81.5C696.09,-81.5 687.46,-81.5 679.06,-81.5"/>
<polygon fill="#63b8ff" stroke="#63b8ff" points="704.69,-85 714.69,-81.5 704.69,-78 704.69,-85"/>
</a>
</g>
</g>
<!-- Node8 -->
<g id="Node000008" class="node">
<title>Node8</title>
<g id="a_Node000008"><a xlink:href="ie__device__common_8c.html#a3e42fcc4b9579a9bf14520cb1afe733b" target="_top" xlink:title="Create a device handle for the requested kind (with fallback).">
<polygon fill="white" stroke="#666666" points="505,-150 406,-150 406,-131 505,-131 505,-150"/>
<text text-anchor="middle" x="455.5" y="-138" font-family="Helvetica,sans-Serif" font-size="10.00">ie_device_create</text>
</a>
</g>
</g>
<!-- Node7&#45;&gt;Node8 -->
<g id="edge7_Node000007_Node000008" class="edge">
<title>Node7&#45;&gt;Node8</title>
<g id="a_edge7_Node000007_Node000008"><a xlink:title=" ">
<path fill="none" stroke="#63b8ff" d="M548.82,-128.92C534.13,-130.77 518.86,-132.68 505.07,-134.41"/>
<polygon fill="#63b8ff" stroke="#63b8ff" points="549.38,-132.38 558.87,-127.66 548.51,-125.44 549.38,-132.38"/>
</a>
</g>
</g>
<!-- Node9 -->
<g id="Node000009" class="node">
<title>Node9</title>
<g id="a_Node000009"><a xlink:href="ie__api_8c.html#a84bd87043352946e9d53b0f8a5c4abe0" target="_top" xlink:title="Create an engine instance.">
<polygon fill="white" stroke="#666666" points="183.5,-37 83.5,-37 83.5,-18 183.5,-18 183.5,-37"/>
<text text-anchor="middle" x="133.5" y="-25" font-family="Helvetica,sans-Serif" font-size="10.00">ie_engine_create</text>
</a>
</g>
</g>
<!-- Node8&#45;&gt;Node9 -->
<g id="edge8_Node000008_Node000009" class="edge">
<title>Node8&#45;&gt;Node9</title>
<g id="a_edge8_Node000008_Node000009"><a xlink:title=" ">
<path fill="none" stroke="#63b8ff" d="M395.72,-135.86C337.49,-130.32 253.19,-119.48 226,-101.5 201.32,-85.18 213.44,-63.56 190,-45.5 185.59,-42.1 180.51,-39.33 175.25,-37.08"/>
<polygon fill="#63b8ff" stroke="#63b8ff" points="395.63,-139.37 405.91,-136.8 396.27,-132.4 395.63,-139.37"/>
</a>
</g>
</g>
<!-- Node12 -->
<g id="Node000012" class="node">
<title>Node12</title>
<g id="a_Node000012"><a xlink:href="test__device_8c.html#a7b62f3db43117555c60ec59d19c7c8d6" target="_top" xlink:title="Verify CPU device exposes GEMV capability.">
<polygon fill="white" stroke="#666666" points="334,-206 248,-206 248,-187 334,-187 334,-206"/>
<text text-anchor="middle" x="291" y="-194" font-family="Helvetica,sans-Serif" font-size="10.00">test_cpu_caps</text>
</a>
</g>
</g>
<!-- Node8&#45;&gt;Node12 -->
<g id="edge11_Node000008_Node000012" class="edge">
<title>Node8&#45;&gt;Node12</title>
<g id="a_edge11_Node000008_Node000012"><a xlink:title=" ">
<path fill="none" stroke="#63b8ff" d="M422.21,-153.84C403.11,-161.51 378.36,-171.06 356,-178.5 347.02,-181.49 337.23,-184.41 328.06,-187"/>
<polygon fill="#63b8ff" stroke="#63b8ff" points="423.68,-157.02 431.64,-150.02 421.05,-150.53 423.68,-157.02"/>
</a>
</g>
</g>
<!-- Node14 -->
<g id="Node000014" class="node">
<title>Node14</title>
<g id="a_Node000014"><a xlink:href="test__device_8c.html#a548e6227513ac3fd772219dad3b0de22" target="_top" xlink:title="Ensure GPU request gracefully falls back to a working GEMV.">
<polygon fill="white" stroke="#666666" points="342.5,-169 239.5,-169 239.5,-150 342.5,-150 342.5,-169"/>
<text text-anchor="middle" x="291" y="-157" font-family="Helvetica,sans-Serif" font-size="10.00">test_gpu_fallback</text>
</a>
</g>
</g>
<!-- Node8&#45;&gt;Node14 -->
<g id="edge13_Node000008_Node000014" class="edge">
<title>Node8&#45;&gt;Node14</title>
<g id="a_edge13_Node000008_Node000014"><a xlink:title=" ">
<path fill="none" stroke="#63b8ff" d="M395.72,-147.37C378.35,-149.4 359.5,-151.61 342.69,-153.57"/>
<polygon fill="#63b8ff" stroke="#63b8ff" points="396.22,-150.84 405.74,-146.2 395.41,-143.89 396.22,-150.84"/>
</a>
</g>
</g>
<!-- Node10 -->
<g id="Node000010" class="node">
<title>Node10</title>
<g id="a_Node000010"><a xlink:href="main__infer_8c.html#a3c04138a5bfe5d72780bb7e82a18e627" target="_top" xlink:title="main.">
<polygon fill="white" stroke="#666666" points="41,-74 0,-74 0,-55 41,-55 41,-74"/>
<text text-anchor="middle" x="20.5" y="-62" font-family="Helvetica,sans-Serif" font-size="10.00">main</text>
</a>
</g>
</g>
<!-- Node9&#45;&gt;Node10 -->
<g id="edge9_Node000009_Node000010" class="edge">
<title>Node9&#45;&gt;Node10</title>
<g id="a_edge9_Node000009_Node000010"><a xlink:title=" ">
<path fill="none" stroke="#63b8ff" d="M93.17,-40.17C87.73,-41.94 82.23,-43.76 77,-45.5 65.12,-49.46 51.84,-54 41.25,-57.65"/>
<polygon fill="#63b8ff" stroke="#63b8ff" points="94.38,-43.46 102.8,-37.03 92.21,-36.8 94.38,-43.46"/>
</a>
</g>
</g>
<!-- Node11 -->
<g id="Node000011" class="node">
<title>Node11</title>
<g id="a_Node000011"><a xlink:href="test__api_8c.html#a840291bc02cba5474a4cb46a9b9566fe" target="_top" xlink:title=" ">
<polygon fill="white" stroke="#666666" points="41,-37 0,-37 0,-18 41,-18 41,-37"/>
<text text-anchor="middle" x="20.5" y="-25" font-family="Helvetica,sans-Serif" font-size="10.00">main</text>
</a>
</g>
</g>
<!-- Node9&#45;&gt;Node11 -->
<g id="edge10_Node000009_Node000011" class="edge">
<title>Node9&#45;&gt;Node11</title>
<g id="a_edge10_Node000009_Node000011"><a xlink:title=" ">
<path fill="none" stroke="#63b8ff" d="M73.26,-27.5C61.62,-27.5 50.21,-27.5 41.07,-27.5"/>
<polygon fill="#63b8ff" stroke="#63b8ff" points="73.49,-31 83.49,-27.5 73.49,-24 73.49,-31"/>
</a>
</g>
</g>
<!-- Node13 -->
<g id="Node000013" class="node">
<title>Node13</title>
<g id="a_Node000013"><a xlink:href="test__device_8c.html#a840291bc02cba5474a4cb46a9b9566fe" target="_top" xlink:title="Test entry point.">
<polygon fill="white" stroke="#666666" points="154,-187 113,-187 113,-168 154,-168 154,-187"/>
<text text-anchor="middle" x="133.5" y="-175" font-family="Helvetica,sans-Serif" font-size="10.00">main</text>
</a>
</g>
</g>
<!-- Node12&#45;&gt;Node13 -->
<g id="edge12_Node000012_Node000013" class="edge">
<title>Node12&#45;&gt;Node13</title>
<g id="a_edge12_Node000012_Node000013"><a xlink:title=" ">
<path fill="none" stroke="#63b8ff" d="M237.64,-190.1C209.03,-186.61 175.26,-182.48 154.36,-179.93"/>
<polygon fill="#63b8ff" stroke="#63b8ff" points="237.57,-193.62 247.92,-191.36 238.42,-186.67 237.57,-193.62"/>
</a>
</g>
</g>
<!-- Node14&#45;&gt;Node13 -->
<g id="edge14_Node000014_Node000013" class="edge">
<title>Node14&#45;&gt;Node13</title>
<g id="a_edge14_Node000014_Node000013"><a xlink:title=" ">
<path fill="none" stroke="#63b8ff" d="M229.02,-166.56C202.33,-169.65 172.88,-173.06 154.06,-175.24"/>
<polygon fill="#63b8ff" stroke="#63b8ff" points="229.55,-170.02 239.08,-165.39 228.75,-163.07 229.55,-170.02"/>
</a>
</g>
</g>
<!-- Node16 -->
<g id="Node000016" class="node">
<title>Node16</title>
<g id="a_Node000016"><a xlink:href="infer__gptoss_8c.html#a39827a388a0b7dd6d161e99b111c5546" target="_top" xlink:title="Prefill: consume a prompt, update the KV cache, and produce logits.">
<polygon fill="white" stroke="#666666" points="517.5,-93 393.5,-93 393.5,-74 517.5,-74 517.5,-93"/>
<text text-anchor="middle" x="455.5" y="-81" font-family="Helvetica,sans-Serif" font-size="10.00">ie_gptoss_infer_prefill</text>
</a>
</g>
</g>
<!-- Node15&#45;&gt;Node16 -->
<g id="edge16_Node000015_Node000016" class="edge">
<title>Node15&#45;&gt;Node16</title>
<g id="a_edge16_Node000015_Node000016"><a xlink:title=" ">
<path fill="none" stroke="#63b8ff" d="M544.66,-82.39C535.61,-82.51 526.42,-82.62 517.55,-82.73"/>
<polygon fill="#63b8ff" stroke="#63b8ff" points="544.83,-85.89 554.79,-82.27 544.75,-78.89 544.83,-85.89"/>
</a>
</g>
</g>
<!-- Node20 -->
<g id="Node000020" class="node">
<title>Node20</title>
<g id="a_Node000020"><a xlink:href="infer__gptoss_8c.html#a52a0e33daf64ca5524b6440cecc8d2f6" target="_top" xlink:title="Step: consume one token, update the KV cache, and produce next logits.">
<polygon fill="white" stroke="#666666" points="514,-56 397,-56 397,-37 514,-37 514,-56"/>
<text text-anchor="middle" x="455.5" y="-44" font-family="Helvetica,sans-Serif" font-size="10.00">ie_gptoss_infer_step</text>
</a>
</g>
</g>
<!-- Node15&#45;&gt;Node20 -->
<g id="edge23_Node000015_Node000020" class="edge">
<title>Node15&#45;&gt;Node20</title>
<g id="a_edge23_Node000015_Node000020"><a xlink:title=" ">
<path fill="none" stroke="#63b8ff" d="M562.38,-69.73C542.1,-65.28 519.28,-60.28 500.03,-56.05"/>
<polygon fill="#63b8ff" stroke="#63b8ff" points="561.9,-73.21 572.42,-71.94 563.4,-66.37 561.9,-73.21"/>
</a>
</g>
</g>
<!-- Node17 -->
<g id="Node000017" class="node">
<title>Node17</title>
<g id="a_Node000017"><a xlink:href="ie__api_8c.html#a950ac9a0efe5a4fe068a288e57099c4a" target="_top" xlink:title="Generate tokens and optionally return timing statistics.">
<polygon fill="white" stroke="#666666" points="356,-93 226,-93 226,-74 356,-74 356,-93"/>
<text text-anchor="middle" x="291" y="-81" font-family="Helvetica,sans-Serif" font-size="10.00">ie_engine_generate_ex</text>
</a>
</g>
</g>
<!-- Node16&#45;&gt;Node17 -->
<g id="edge17_Node000016_Node000017" class="edge">
<title>Node16&#45;&gt;Node17</title>
<g id="a_edge17_Node000016_Node000017"><a xlink:title=" ">
<path fill="none" stroke="#63b8ff" d="M382.78,-83.5C373.94,-83.5 364.95,-83.5 356.23,-83.5"/>
<polygon fill="#63b8ff" stroke="#63b8ff" points="383.07,-87 393.07,-83.5 383.07,-80 383.07,-87"/>
</a>
</g>
</g>
<!-- Node19 -->
<g id="Node000019" class="node">
<title>Node19</title>
<g id="a_Node000019"><a xlink:href="generate__gptoss_8c.html#a69606d6441b5c86670cfcc955721a308" target="_top" xlink:title="Generate up to max_new tokens for a prompt string using GPT&#45;OSS.">
<polygon fill="white" stroke="#666666" points="347,-56 235,-56 235,-37 347,-37 347,-56"/>
<text text-anchor="middle" x="291" y="-44" font-family="Helvetica,sans-Serif" font-size="10.00">ie_generate_gptoss</text>
</a>
</g>
</g>
<!-- Node16&#45;&gt;Node19 -->
<g id="edge22_Node000016_Node000019" class="edge">
<title>Node16&#45;&gt;Node19</title>
<g id="a_edge22_Node000016_Node000019"><a xlink:title=" ">
<path fill="none" stroke="#63b8ff" d="M402.73,-71.71C380.54,-66.66 354.97,-60.84 333.99,-56.06"/>
<polygon fill="#63b8ff" stroke="#63b8ff" points="402.12,-75.16 412.65,-73.97 403.68,-68.34 402.12,-75.16"/>
</a>
</g>
</g>
<!-- Node17&#45;&gt;Node10 -->
<g id="edge21_Node000017_Node000010" class="edge">
<title>Node17&#45;&gt;Node10</title>
<g id="a_edge21_Node000017_Node000010"><a xlink:title=" ">
<path fill="none" stroke="#63b8ff" d="M215.53,-88.74C174.42,-90.24 122.61,-89.82 77,-82.5 64.8,-80.54 51.62,-76.36 41.17,-72.52"/>
<polygon fill="#63b8ff" stroke="#63b8ff" points="215.89,-92.23 225.73,-88.32 215.6,-85.23 215.89,-92.23"/>
</a>
</g>
</g>
<!-- Node18 -->
<g id="Node000018" class="node">
<title>Node18</title>
<g id="a_Node000018"><a xlink:href="ie__api_8c.html#ad32cf2cd209832e4cd577a5a1e31970f" target="_top" xlink:title="Generate up to max_new tokens for the given prompt.">
<polygon fill="white" stroke="#666666" points="190,-74 77,-74 77,-55 190,-55 190,-74"/>
<text text-anchor="middle" x="133.5" y="-62" font-family="Helvetica,sans-Serif" font-size="10.00">ie_engine_generate</text>
</a>
</g>
</g>
<!-- Node17&#45;&gt;Node18 -->
<g id="edge18_Node000017_Node000018" class="edge">
<title>Node17&#45;&gt;Node18</title>
<g id="a_edge18_Node000017_Node000018"><a xlink:title=" ">
<path fill="none" stroke="#63b8ff" d="M215.75,-74.43C207.1,-73.37 198.4,-72.31 190.06,-71.29"/>
<polygon fill="#63b8ff" stroke="#63b8ff" points="215.5,-77.92 225.85,-75.66 216.35,-70.98 215.5,-77.92"/>
</a>
</g>
</g>
<!-- Node18&#45;&gt;Node10 -->
<g id="edge19_Node000018_Node000010" class="edge">
<title>Node18&#45;&gt;Node10</title>
<g id="a_edge19_Node000018_Node000010"><a xlink:title=" ">
<path fill="none" stroke="#63b8ff" d="M66.58,-64.5C57.37,-64.5 48.56,-64.5 41.21,-64.5"/>
<polygon fill="#63b8ff" stroke="#63b8ff" points="66.67,-68 76.67,-64.5 66.67,-61 66.67,-68"/>
</a>
</g>
</g>
<!-- Node18&#45;&gt;Node11 -->
<g id="edge20_Node000018_Node000011" class="edge">
<title>Node18&#45;&gt;Node11</title>
<g id="a_edge20_Node000018_Node000011"><a xlink:title=" ">
<path fill="none" stroke="#63b8ff" d="M94.32,-51.77C76.46,-45.82 55.94,-38.98 41.24,-34.08"/>
<polygon fill="#63b8ff" stroke="#63b8ff" points="93.32,-55.13 103.91,-54.97 95.53,-48.49 93.32,-55.13"/>
</a>
</g>
</g>
<!-- Node20&#45;&gt;Node17 -->
<g id="edge24_Node000020_Node000017" class="edge">
<title>Node20&#45;&gt;Node17</title>
<g id="a_edge24_Node000020_Node000017"><a xlink:title=" ">
<path fill="none" stroke="#63b8ff" d="M402.73,-58.29C380.54,-63.34 354.97,-69.16 333.99,-73.94"/>
<polygon fill="#63b8ff" stroke="#63b8ff" points="403.68,-61.66 412.65,-56.03 402.12,-54.84 403.68,-61.66"/>
</a>
</g>
</g>
<!-- Node20&#45;&gt;Node19 -->
<g id="edge25_Node000020_Node000019" class="edge">
<title>Node20&#45;&gt;Node19</title>
<g id="a_edge25_Node000020_Node000019"><a xlink:title=" ">
<path fill="none" stroke="#63b8ff" d="M386.38,-46.5C373.29,-46.5 359.73,-46.5 347.11,-46.5"/>
<polygon fill="#63b8ff" stroke="#63b8ff" points="386.75,-50 396.75,-46.5 386.75,-43 386.75,-50"/>
</a>
</g>
</g>
<!-- Node22 -->
<g id="Node000022" class="node">
<title>Node22</title>
<g id="a_Node000022"><a xlink:href="infer__gptoss_8c.html#a1eb484ef476fc9b7a44d3819959fb307" target="_top" xlink:title="Create an inference context.">
<polygon fill="white" stroke="#666666" points="519,-19 392,-19 392,0 519,0 519,-19"/>
<text text-anchor="middle" x="455.5" y="-7" font-family="Helvetica,sans-Serif" font-size="10.00">ie_gptoss_infer_create</text>
</a>
</g>
</g>
<!-- Node21&#45;&gt;Node22 -->
<g id="edge27_Node000021_Node000022" class="edge">
<title>Node21&#45;&gt;Node22</title>
<g id="a_edge27_Node000021_Node000022"><a xlink:title=" ">
<path fill="none" stroke="#63b8ff" d="M1372.49,-23.09C1309.08,-18.79 1214.21,-13.5 1131.5,-13.5 1131.5,-13.5 1131.5,-13.5 768,-13.5 681.74,-13.5 582.04,-11.95 519.14,-10.78"/>
<polygon fill="#63b8ff" stroke="#63b8ff" points="1372.56,-26.6 1382.78,-23.8 1373.04,-19.62 1372.56,-26.6"/>
</a>
</g>
</g>
<!-- Node22&#45;&gt;Node9 -->
<g id="edge28_Node000022_Node000009" class="edge">
<title>Node22&#45;&gt;Node9</title>
<g id="a_edge28_Node000022_Node000009"><a xlink:title=" ">
<path fill="none" stroke="#63b8ff" d="M381.4,-13.61C320.81,-17.02 236.36,-21.77 183.59,-24.74"/>
<polygon fill="#63b8ff" stroke="#63b8ff" points="381.87,-17.09 391.66,-13.03 381.48,-10.1 381.87,-17.09"/>
</a>
</g>
</g>
<!-- Node22&#45;&gt;Node19 -->
<g id="edge29_Node000022_Node000019" class="edge">
<title>Node22&#45;&gt;Node19</title>
<g id="a_edge29_Node000022_Node000019"><a xlink:title=" ">
<path fill="none" stroke="#63b8ff" d="M402.73,-21.29C380.54,-26.34 354.97,-32.16 333.99,-36.94"/>
<polygon fill="#63b8ff" stroke="#63b8ff" points="403.68,-24.66 412.65,-19.03 402.12,-17.84 403.68,-24.66"/>
</a>
</g>
</g>
</g>
</svg>
