<?xml version="1.0" encoding="UTF-8" standalone="no"?>
<!DOCTYPE svg PUBLIC "-//W3C//DTD SVG 1.1//EN"
 "http://www.w3.org/Graphics/SVG/1.1/DTD/svg11.dtd">
<!-- Generated by graphviz version 2.43.0 (0)
 -->
<!-- Title: engine/src/kernels/gemv_avx2.c Pages: 1 -->
<svg width="463pt" height="203pt"
 viewBox="0.00 0.00 462.50 203.00" xmlns="http://www.w3.org/2000/svg" xmlns:xlink="http://www.w3.org/1999/xlink">
<g id="graph0" class="graph" transform="scale(1 1) rotate(0) translate(4 199)">
<title>engine/src/kernels/gemv_avx2.c</title>
<!-- Node1 -->
<g id="Node000001" class="node">
<title>Node1</title>
<g id="a_Node000001"><a xlink:title=" ">
<polygon fill="#999999" stroke="#666666" points="262.5,-195 157.5,-195 157.5,-165 262.5,-165 262.5,-195"/>
<text text-anchor="start" x="165.5" y="-183" font-family="Helvetica,sans-Serif" font-size="10.00">engine/src/kernels</text>
<text text-anchor="middle" x="210" y="-172" font-family="Helvetica,sans-Serif" font-size="10.00">/gemv_avx2.c</text>
</a>
</g>
</g>
<!-- Node2 -->
<g id="Node000002" class="node">
<title>Node2</title>
<g id="a_Node000002"><a xlink:href="ie__kernels_8h.html" target="_top" xlink:title=" ">
<polygon fill="white" stroke="#666666" points="114.5,-129 39.5,-129 39.5,-110 114.5,-110 114.5,-129"/>
<text text-anchor="middle" x="77" y="-117" font-family="Helvetica,sans-Serif" font-size="10.00">ie_kernels.h</text>
</a>
</g>
</g>
<!-- Node1&#45;&gt;Node2 -->
<g id="edge1_Node000001_Node000002" class="edge">
<title>Node1&#45;&gt;Node2</title>
<g id="a_edge1_Node000001_Node000002"><a xlink:title=" ">
<path fill="none" stroke="#63b8ff" d="M178.14,-164.99C156.15,-155.31 127.15,-142.56 105.84,-133.18"/>
<polygon fill="#63b8ff" stroke="#63b8ff" points="107.2,-129.96 96.64,-129.14 104.39,-136.37 107.2,-129.96"/>
</a>
</g>
</g>
<!-- Node3 -->
<g id="Node000003" class="node">
<title>Node3</title>
<g id="a_Node000003"><a xlink:title=" ">
<polygon fill="#e0e0e0" stroke="#999999" points="56,-19 0,-19 0,0 56,0 56,-19"/>
<text text-anchor="middle" x="28" y="-7" font-family="Helvetica,sans-Serif" font-size="10.00">stddef.h</text>
</a>
</g>
</g>
<!-- Node1&#45;&gt;Node3 -->
<g id="edge9_Node000001_Node000003" class="edge">
<title>Node1&#45;&gt;Node3</title>
<g id="a_edge9_Node000001_Node000003"><a xlink:title=" ">
<path fill="none" stroke="#63b8ff" d="M157.38,-171.32C110.36,-163.26 46.57,-148.98 31,-129 8.52,-100.15 15.81,-54.25 22.36,-28.88"/>
<polygon fill="#63b8ff" stroke="#63b8ff" points="25.78,-29.66 25.13,-19.08 19.04,-27.76 25.78,-29.66"/>
</a>
</g>
</g>
<!-- Node4 -->
<g id="Node000004" class="node">
<title>Node4</title>
<g id="a_Node000004"><a xlink:title=" ">
<polygon fill="#e0e0e0" stroke="#999999" points="164.5,-19 111.5,-19 111.5,0 164.5,0 164.5,-19"/>
<text text-anchor="middle" x="138" y="-7" font-family="Helvetica,sans-Serif" font-size="10.00">stdint.h</text>
</a>
</g>
</g>
<!-- Node1&#45;&gt;Node4 -->
<g id="edge10_Node000001_Node000004" class="edge">
<title>Node1&#45;&gt;Node4</title>
<g id="a_edge10_Node000001_Node000004"><a xlink:title=" ">
<path fill="none" stroke="#63b8ff" d="M210.94,-164.96C211.91,-140.83 211.07,-90.69 191,-55 184.19,-42.89 172.72,-32.64 162.19,-25.04"/>
<polygon fill="#63b8ff" stroke="#63b8ff" points="163.93,-22 153.69,-19.3 160.02,-27.8 163.93,-22"/>
</a>
</g>
</g>
<!-- Node5 -->
<g id="Node000005" class="node">
<title>Node5</title>
<g id="a_Node000005"><a xlink:href="ie__quant__act_8h.html" target="_top" xlink:title=" ">
<polygon fill="white" stroke="#666666" points="182,-74 94,-74 94,-55 182,-55 182,-74"/>
<text text-anchor="middle" x="138" y="-62" font-family="Helvetica,sans-Serif" font-size="10.00">ie_quant_act.h</text>
</a>
</g>
</g>
<!-- Node1&#45;&gt;Node5 -->
<g id="edge7_Node000001_Node000005" class="edge">
<title>Node1&#45;&gt;Node5</title>
<g id="a_edge7_Node000001_Node000005"><a xlink:title=" ">
<path fill="none" stroke="#63b8ff" d="M200.88,-164.63C187.64,-143.75 163.12,-105.09 148.92,-82.72"/>
<polygon fill="#63b8ff" stroke="#63b8ff" points="151.85,-80.8 143.54,-74.23 145.94,-84.55 151.85,-80.8"/>
</a>
</g>
</g>
<!-- Node6 -->
<g id="Node000006" class="node">
<title>Node6</title>
<g id="a_Node000006"><a xlink:title=" ">
<polygon fill="#e0e0e0" stroke="#999999" points="312,-129 238,-129 238,-110 312,-110 312,-129"/>
<text text-anchor="middle" x="275" y="-117" font-family="Helvetica,sans-Serif" font-size="10.00">immintrin.h</text>
</a>
</g>
</g>
<!-- Node1&#45;&gt;Node6 -->
<g id="edge8_Node000001_Node000006" class="edge">
<title>Node1&#45;&gt;Node6</title>
<g id="a_edge8_Node000001_Node000006"><a xlink:title=" ">
<path fill="none" stroke="#63b8ff" d="M225.73,-164.84C235.36,-156.17 247.69,-145.08 257.61,-136.15"/>
<polygon fill="#63b8ff" stroke="#63b8ff" points="260.17,-138.56 265.26,-129.27 255.49,-133.35 260.17,-138.56"/>
</a>
</g>
</g>
<!-- Node7 -->
<g id="Node000007" class="node">
<title>Node7</title>
<g id="a_Node000007"><a xlink:title=" ">
<polygon fill="#e0e0e0" stroke="#999999" points="383.5,-129 330.5,-129 330.5,-110 383.5,-110 383.5,-129"/>
<text text-anchor="middle" x="357" y="-117" font-family="Helvetica,sans-Serif" font-size="10.00">stdlib.h</text>
</a>
</g>
</g>
<!-- Node1&#45;&gt;Node7 -->
<g id="edge11_Node000001_Node000007" class="edge">
<title>Node1&#45;&gt;Node7</title>
<g id="a_edge11_Node000001_Node000007"><a xlink:title=" ">
<path fill="none" stroke="#63b8ff" d="M245.21,-164.99C269.74,-155.23 302.15,-142.33 325.76,-132.93"/>
<polygon fill="#63b8ff" stroke="#63b8ff" points="327.29,-136.09 335.29,-129.14 324.71,-129.58 327.29,-136.09"/>
</a>
</g>
</g>
<!-- Node8 -->
<g id="Node000008" class="node">
<title>Node8</title>
<g id="a_Node000008"><a xlink:title=" ">
<polygon fill="#e0e0e0" stroke="#999999" points="454.5,-129 401.5,-129 401.5,-110 454.5,-110 454.5,-129"/>
<text text-anchor="middle" x="428" y="-117" font-family="Helvetica,sans-Serif" font-size="10.00">string.h</text>
</a>
</g>
</g>
<!-- Node1&#45;&gt;Node8 -->
<g id="edge12_Node000001_Node000008" class="edge">
<title>Node1&#45;&gt;Node8</title>
<g id="a_edge12_Node000001_Node000008"><a xlink:title=" ">
<path fill="none" stroke="#63b8ff" d="M262.22,-164.99C302.11,-154.28 356.09,-139.8 391.46,-130.3"/>
<polygon fill="#63b8ff" stroke="#63b8ff" points="392.61,-133.62 401.36,-127.65 390.8,-126.86 392.61,-133.62"/>
</a>
</g>
</g>
<!-- Node2&#45;&gt;Node3 -->
<g id="edge2_Node000002_Node000003" class="edge">
<title>Node2&#45;&gt;Node3</title>
<g id="a_edge2_Node000002_Node000003"><a xlink:title=" ">
<path fill="none" stroke="#63b8ff" d="M71.62,-109.84C66.26,-101.02 58,-86.85 52,-74 45.07,-59.15 38.59,-41.69 34.11,-28.85"/>
<polygon fill="#63b8ff" stroke="#63b8ff" points="37.39,-27.63 30.86,-19.3 30.77,-29.89 37.39,-27.63"/>
</a>
</g>
</g>
<!-- Node2&#45;&gt;Node4 -->
<g id="edge3_Node000002_Node000004" class="edge">
<title>Node2&#45;&gt;Node4</title>
<g id="a_edge3_Node000002_Node000004"><a xlink:title=" ">
<path fill="none" stroke="#63b8ff" d="M76.17,-109.68C75.36,-96.82 75.43,-72.56 85,-55 91.65,-42.8 103.1,-32.54 113.66,-24.96"/>
<polygon fill="#63b8ff" stroke="#63b8ff" points="115.84,-27.71 122.2,-19.24 111.95,-21.9 115.84,-27.71"/>
</a>
</g>
</g>
<!-- Node2&#45;&gt;Node5 -->
<g id="edge4_Node000002_Node000005" class="edge">
<title>Node2&#45;&gt;Node5</title>
<g id="a_edge4_Node000002_Node000005"><a xlink:title=" ">
<path fill="none" stroke="#63b8ff" d="M86.8,-109.98C95.82,-102.15 109.41,-90.34 120.32,-80.86"/>
<polygon fill="#63b8ff" stroke="#63b8ff" points="122.77,-83.37 128.02,-74.17 118.18,-78.09 122.77,-83.37"/>
</a>
</g>
</g>
<!-- Node5&#45;&gt;Node3 -->
<g id="edge5_Node000005_Node000003" class="edge">
<title>Node5&#45;&gt;Node3</title>
<g id="a_edge5_Node000005_Node000003"><a xlink:title=" ">
<path fill="none" stroke="#63b8ff" d="M120.33,-54.98C102.71,-46.5 75.42,-33.35 55.07,-23.54"/>
<polygon fill="#63b8ff" stroke="#63b8ff" points="56.52,-20.36 45.99,-19.17 53.48,-26.66 56.52,-20.36"/>
</a>
</g>
</g>
<!-- Node5&#45;&gt;Node4 -->
<g id="edge6_Node000005_Node000004" class="edge">
<title>Node5&#45;&gt;Node4</title>
<g id="a_edge6_Node000005_Node000004"><a xlink:title=" ">
<path fill="none" stroke="#63b8ff" d="M138,-54.75C138,-47.8 138,-37.85 138,-29.13"/>
<polygon fill="#63b8ff" stroke="#63b8ff" points="141.5,-29.09 138,-19.09 134.5,-29.09 141.5,-29.09"/>
</a>
</g>
</g>
</g>
</svg>
