<?xml version="1.0" encoding="UTF-8" standalone="no"?>
<!DOCTYPE svg PUBLIC "-//W3C//DTD SVG 1.1//EN"
 "http://www.w3.org/Graphics/SVG/1.1/DTD/svg11.dtd">
<!-- Generated by graphviz version 12.2.1 (20241206.2353)
 -->
<!-- Title: ie_kernels_install Pages: 1 -->
<!--zoomable 276 -->

<svg id="main" version="1.1" xmlns="http://www.w3.org/2000/svg" xmlns:xlink="http://www.w3.org/1999/xlink" xml:space="preserve" onload="init(evt)">

<style type="text/css"><![CDATA[
.node, .edge {opacity: 0.7;}
.node.selected, .edge.selected {opacity: 1;}
.edge:hover path { stroke: red; }
.edge:hover polygon { stroke: red; fill: red; }
]]></style>

<defs>
  <circle id="rim" cx="0" cy="0" r="7"/>
  <circle id="rim2" cx="0" cy="0" r="3.5"/>
  <g id="zoomPlus">
    <use xlink:href="#rim" fill="#404040"><set attributeName="fill" to="#808080" begin="zoomplus.mouseover" end="zoomplus.mouseout"/></use>
    <path d="M-4,0h8M0,-4v8" fill="none" stroke="white" stroke-width="1.5" pointer-events="none"/>
  </g>
  <g id="zoomMin">
    <use xlink:href="#rim" fill="#404040"><set attributeName="fill" to="#808080" begin="zoomminus.mouseover" end="zoomminus.mouseout"/></use>
    <path d="M-4,0h8" fill="none" stroke="white" stroke-width="1.5" pointer-events="none"/>
  </g>
  <g id="arrowUp" transform="translate(30 24)">
    <use xlink:href="#rim"/>
    <path pointer-events="none" fill="none" stroke="white" stroke-width="1.5" d="M0,-3.0v7 M-2.5,-0.5L0,-3.0L2.5,-0.5"/>
  </g>
  <g id="arrowRight" transform="rotate(90) translate(36 -43)">
    <use xlink:href="#rim"/>
    <path pointer-events="none" fill="none" stroke="white" stroke-width="1.5" d="M0,-3.0v7 M-2.5,-0.5L0,-3.0L2.5,-0.5"/>
  </g>
  <g id="arrowDown" transform="rotate(180) translate(-30 -48)">
    <use xlink:href="#rim"/>
    <path pointer-events="none" fill="none" stroke="white" stroke-width="1.5" d="M0,-3.0v7 M-2.5,-0.5L0,-3.0L2.5,-0.5"/>
  </g>
  <g id="arrowLeft" transform="rotate(270) translate(-36 17)">
    <use xlink:href="#rim"/>
    <path pointer-events="none" fill="none" stroke="white" stroke-width="1.5" d="M0,-3.0v7 M-2.5,-0.5L0,-3.0L2.5,-0.5"/>
  </g>
  <g id="resetDef">
    <use xlink:href="#rim2" fill="#404040"><set attributeName="fill" to="#808080" begin="reset.mouseover" end="reset.mouseout"/></use>
  </g>
</defs>
<script type="application/ecmascript">
var viewWidth = 892;
var viewHeight = 276;
var sectionId = 'dynsection-15';
</script>
<script type="application/ecmascript" xlink:href="svg.min.js"/>
<svg id="graph" class="graph">
<g id="viewport">
<title>ie_kernels_install</title>
<!-- Node1 -->
<g id="Node000001" class="node">
<title>Node1</title>
<g id="a_Node000001"><a xlink:title="Install the best available float GEMV kernel for this process.">
<polygon fill="#999999" stroke="#666666" points="883.75,-22.16 783,-22.16 783,-1.41 883.75,-1.41 883.75,-22.16"/>
<text text-anchor="middle" x="833.38" y="-8.66" font-family="Helvetica,sans-Serif" font-size="10.00">ie_kernels_install</text>
</a>
</g>
</g>
<!-- Node2 -->
<g id="Node000002" class="node">
<title>Node2</title>
<g id="a_Node000002"><a xlink:href="gemv__generic_8c.html#a4e112b3396ed21919f404631c1d4d7fb" target="_top" xlink:title="GEMV: y[r] = dot(W[r, :], x) [+ bias[r]] for r in [0, rows).">
<polygon fill="white" stroke="#666666" points="747,-71.16 668,-71.16 668,-50.41 747,-50.41 747,-71.16"/>
<text text-anchor="middle" x="707.5" y="-57.66" font-family="Helvetica,sans-Serif" font-size="10.00">ie_gemv_f32</text>
</a>
</g>
</g>
<!-- Node1&#45;&gt;Node2 -->
<g id="edge1_Node000001_Node000002" class="edge">
<title>Node1&#45;&gt;Node2</title>
<g id="a_edge1_Node000001_Node000002"><a xlink:title=" ">
<path fill="none" stroke="#63b8ff" d="M794.25,-26.87C775.39,-34.33 753.06,-43.16 735.92,-49.95"/>
<polygon fill="#63b8ff" stroke="#63b8ff" points="795.46,-30.15 803.48,-23.22 792.89,-23.64 795.46,-30.15"/>
</a>
</g>
</g>
<!-- Node12 -->
<g id="Node000012" class="node">
<title>Node12</title>
<g id="a_Node000012"><a xlink:href="test__kernels_8c.html#a840291bc02cba5474a4cb46a9b9566fe" target="_top" xlink:title="Program entry: run all kernel tests and print &quot;ok test_kernels&quot; on success.">
<polygon fill="white" stroke="#666666" points="447.62,-45.16 406.88,-45.16 406.88,-24.41 447.62,-24.41 447.62,-45.16"/>
<text text-anchor="middle" x="427.25" y="-31.66" font-family="Helvetica,sans-Serif" font-size="10.00">main</text>
</a>
</g>
</g>
<!-- Node1&#45;&gt;Node12 -->
<g id="edge19_Node000001_Node000012" class="edge">
<title>Node1&#45;&gt;Node12</title>
<g id="a_edge19_Node000001_Node000012"><a xlink:title=" ">
<path fill="none" stroke="#63b8ff" d="M771.52,-5.52C706.87,-0.18 601.86,4.69 512.5,-8.79 489.8,-12.21 464.77,-20.55 447.94,-26.87"/>
<polygon fill="#63b8ff" stroke="#63b8ff" points="770.95,-8.98 781.21,-6.35 771.54,-2.01 770.95,-8.98"/>
</a>
</g>
</g>
<!-- Node3 -->
<g id="Node000003" class="node">
<title>Node3</title>
<g id="a_Node000003"><a xlink:href="ie__device__common_8c.html#a4fb9bb01bfbe71517f9df925ba9c93ec" target="_top" xlink:title="Execute dense GEMV FP32 on CPU using existing kernels.">
<polygon fill="white" stroke="#666666" points="615.88,-142.16 528.62,-142.16 528.62,-121.41 615.88,-121.41 615.88,-142.16"/>
<text text-anchor="middle" x="572.25" y="-128.66" font-family="Helvetica,sans-Serif" font-size="10.00">cpu_gemv_f32</text>
</a>
</g>
</g>
<!-- Node2&#45;&gt;Node3 -->
<g id="edge2_Node000002_Node000003" class="edge">
<title>Node2&#45;&gt;Node3</title>
<g id="a_edge2_Node000002_Node000003"><a xlink:title=" ">
<path fill="none" stroke="#63b8ff" d="M684.52,-78.74C670.23,-89.73 650.82,-103.44 632,-112.79 625.76,-115.89 618.9,-118.64 612.14,-121.02"/>
<polygon fill="#63b8ff" stroke="#63b8ff" points="686.65,-81.52 692.34,-72.59 682.32,-76.02 686.65,-81.52"/>
</a>
</g>
</g>
<!-- Node11 -->
<g id="Node000011" class="node">
<title>Node11</title>
<g id="a_Node000011"><a xlink:href="test__kernels_8c.html#a0ac9b0c3b1d865ef69bd2bc69d14a685" target="_top" xlink:title="Test: GEMV without bias, row&#45;major, blk_k=0.">
<polygon fill="white" stroke="#666666" points="632,-103.54 512.5,-103.54 512.5,-70.04 632,-70.04 632,-103.54"/>
<text text-anchor="start" x="520.5" y="-90.04" font-family="Helvetica,sans-Serif" font-size="10.00">test_gemv_rowmajor</text>
<text text-anchor="middle" x="572.25" y="-77.29" font-family="Helvetica,sans-Serif" font-size="10.00">_no_bias</text>
</a>
</g>
</g>
<!-- Node2&#45;&gt;Node11 -->
<g id="edge15_Node000002_Node000011" class="edge">
<title>Node2&#45;&gt;Node11</title>
<g id="a_edge15_Node000002_Node000011"><a xlink:title=" ">
<path fill="none" stroke="#63b8ff" d="M656.37,-70.57C648.5,-72.11 640.31,-73.71 632.27,-75.27"/>
<polygon fill="#63b8ff" stroke="#63b8ff" points="656.97,-74.02 666.11,-68.67 655.63,-67.15 656.97,-74.02"/>
</a>
</g>
</g>
<!-- Node13 -->
<g id="Node000013" class="node">
<title>Node13</title>
<g id="a_Node000013"><a xlink:href="test__kernels_8c.html#a2305be22b4279f3ac4d55f90584569cb" target="_top" xlink:title="Test: GEMV with bias epilogue, row&#45;major, blk_k=0.">
<polygon fill="white" stroke="#666666" points="632,-51.54 512.5,-51.54 512.5,-18.04 632,-18.04 632,-51.54"/>
<text text-anchor="start" x="520.5" y="-38.04" font-family="Helvetica,sans-Serif" font-size="10.00">test_gemv_rowmajor</text>
<text text-anchor="middle" x="572.25" y="-25.29" font-family="Helvetica,sans-Serif" font-size="10.00">_with_bias</text>
</a>
</g>
</g>
<!-- Node2&#45;&gt;Node13 -->
<g id="edge17_Node000002_Node000013" class="edge">
<title>Node2&#45;&gt;Node13</title>
<g id="a_edge17_Node000002_Node000013"><a xlink:title=" ">
<path fill="none" stroke="#63b8ff" d="M656.37,-51.01C648.5,-49.47 640.31,-47.87 632.27,-46.3"/>
<polygon fill="#63b8ff" stroke="#63b8ff" points="655.63,-54.43 666.11,-52.91 656.97,-47.56 655.63,-54.43"/>
</a>
</g>
</g>
<!-- Node4 -->
<g id="Node000004" class="node">
<title>Node4</title>
<g id="a_Node000004"><a xlink:href="ie__device__common_8c.html#a3e42fcc4b9579a9bf14520cb1afe733b" target="_top" xlink:title="Create a device handle for the requested kind (with fallback).">
<polygon fill="white" stroke="#666666" points="476.5,-142.16 378,-142.16 378,-121.41 476.5,-121.41 476.5,-142.16"/>
<text text-anchor="middle" x="427.25" y="-128.66" font-family="Helvetica,sans-Serif" font-size="10.00">ie_device_create</text>
</a>
</g>
</g>
<!-- Node3&#45;&gt;Node4 -->
<g id="edge3_Node000003_Node000004" class="edge">
<title>Node3&#45;&gt;Node4</title>
<g id="a_edge3_Node000003_Node000004"><a xlink:title=" ">
<path fill="none" stroke="#63b8ff" d="M517.02,-131.79C503.83,-131.79 489.8,-131.79 476.89,-131.79"/>
<polygon fill="#63b8ff" stroke="#63b8ff" points="516.83,-135.29 526.83,-131.79 516.83,-128.29 516.83,-135.29"/>
</a>
</g>
</g>
<!-- Node5 -->
<g id="Node000005" class="node">
<title>Node5</title>
<g id="a_Node000005"><a xlink:href="ie__device__common_8c.html#ae46eb0813b9477e0f3f2084c4d52d33e" target="_top" xlink:title="Block&#45;sparse GEMV (FP32): y = W * x (+ optional bias).">
<polygon fill="white" stroke="#666666" points="342,-249.54 215,-249.54 215,-216.04 342,-216.04 342,-249.54"/>
<text text-anchor="start" x="223" y="-236.04" font-family="Helvetica,sans-Serif" font-size="10.00">ie_device_gemv_block</text>
<text text-anchor="middle" x="278.5" y="-223.29" font-family="Helvetica,sans-Serif" font-size="10.00">_sparse_f32</text>
</a>
</g>
</g>
<!-- Node4&#45;&gt;Node5 -->
<g id="edge4_Node000004_Node000005" class="edge">
<title>Node4&#45;&gt;Node5</title>
<g id="a_edge4_Node000004_Node000005"><a xlink:title=" ">
<path fill="none" stroke="#63b8ff" d="M408.99,-150.34C392.88,-166.83 367.56,-190.74 342,-206.79 336.92,-209.98 331.39,-212.93 325.78,-215.61"/>
<polygon fill="#63b8ff" stroke="#63b8ff" points="411.08,-153.21 415.48,-143.57 406.03,-148.37 411.08,-153.21"/>
</a>
</g>
</g>
<!-- Node6 -->
<g id="Node000006" class="node">
<title>Node6</title>
<g id="a_Node000006"><a xlink:href="ie__device__common_8c.html#af9a99d92974f072775057b5def388b77" target="_top" xlink:title="Device&#45;side GEMV (FP32): y = W * x (+ optional bias).">
<polygon fill="white" stroke="#666666" points="336.75,-180.16 220.25,-180.16 220.25,-159.41 336.75,-159.41 336.75,-180.16"/>
<text text-anchor="middle" x="278.5" y="-166.66" font-family="Helvetica,sans-Serif" font-size="10.00">ie_device_gemv_f32</text>
</a>
</g>
</g>
<!-- Node4&#45;&gt;Node6 -->
<g id="edge6_Node000004_Node000006" class="edge">
<title>Node4&#45;&gt;Node6</title>
<g id="a_edge6_Node000004_Node000006"><a xlink:title=" ">
<path fill="none" stroke="#63b8ff" d="M373.57,-145.43C356.38,-149.88 337.54,-154.76 321.26,-158.98"/>
<polygon fill="#63b8ff" stroke="#63b8ff" points="374.32,-148.85 383.12,-142.96 372.57,-142.08 374.32,-148.85"/>
</a>
</g>
</g>
<!-- Node7 -->
<g id="Node000007" class="node">
<title>Node7</title>
<g id="a_Node000007"><a xlink:href="test__device_8c.html#a548e6227513ac3fd772219dad3b0de22" target="_top" xlink:title="Ensure GPU request gracefully falls back to a working GEMV.">
<polygon fill="white" stroke="#666666" points="179,-142.16 76.75,-142.16 76.75,-121.41 179,-121.41 179,-142.16"/>
<text text-anchor="middle" x="127.88" y="-128.66" font-family="Helvetica,sans-Serif" font-size="10.00">test_gpu_fallback</text>
</a>
</g>
</g>
<!-- Node4&#45;&gt;Node7 -->
<g id="edge14_Node000004_Node000007" class="edge">
<title>Node4&#45;&gt;Node7</title>
<g id="a_edge14_Node000004_Node000007"><a xlink:title=" ">
<path fill="none" stroke="#63b8ff" d="M366.5,-131.79C311.57,-131.79 231.04,-131.79 179.28,-131.79"/>
<polygon fill="#63b8ff" stroke="#63b8ff" points="366.3,-135.29 376.3,-131.79 366.3,-128.29 366.3,-135.29"/>
</a>
</g>
</g>
<!-- Node9 -->
<g id="Node000009" class="node">
<title>Node9</title>
<g id="a_Node000009"><a xlink:href="ie__device__common_8c.html#ad8fe47f93fa5e18c7cf07a153f1de2fb" target="_top" xlink:title="Copy memory using the device backend.">
<polygon fill="white" stroke="#666666" points="333.75,-86.16 223.25,-86.16 223.25,-65.41 333.75,-65.41 333.75,-86.16"/>
<text text-anchor="middle" x="278.5" y="-72.66" font-family="Helvetica,sans-Serif" font-size="10.00">ie_device_memcpy</text>
</a>
</g>
</g>
<!-- Node4&#45;&gt;Node9 -->
<g id="edge10_Node000004_Node000009" class="edge">
<title>Node4&#45;&gt;Node9</title>
<g id="a_edge10_Node000004_Node000009"><a xlink:title=" ">
<path fill="none" stroke="#63b8ff" d="M387.38,-116.96C362.42,-107.43 330.57,-95.28 307.96,-86.65"/>
<polygon fill="#63b8ff" stroke="#63b8ff" points="385.95,-120.16 396.54,-120.45 388.45,-113.62 385.95,-120.16"/>
</a>
</g>
</g>
<!-- Node10 -->
<g id="Node000010" class="node">
<title>Node10</title>
<g id="a_Node000010"><a xlink:href="test__device_8c.html#a7b62f3db43117555c60ec59d19c7c8d6" target="_top" xlink:title="Verify CPU device exposes GEMV capability.">
<polygon fill="white" stroke="#666666" points="170.38,-76.16 85.38,-76.16 85.38,-55.41 170.38,-55.41 170.38,-76.16"/>
<text text-anchor="middle" x="127.88" y="-62.66" font-family="Helvetica,sans-Serif" font-size="10.00">test_cpu_caps</text>
</a>
</g>
</g>
<!-- Node4&#45;&gt;Node10 -->
<g id="edge12_Node000004_Node000010" class="edge">
<title>Node4&#45;&gt;Node10</title>
<g id="a_edge12_Node000004_Node000010"><a xlink:title=" ">
<path fill="none" stroke="#63b8ff" d="M411.28,-111.95C396.12,-93.68 370.86,-67.77 342,-56.79 284.89,-35.05 212.86,-45.07 168.87,-54.95"/>
<polygon fill="#63b8ff" stroke="#63b8ff" points="408.52,-114.11 417.49,-119.76 414,-109.75 408.52,-114.11"/>
</a>
</g>
</g>
<!-- Node5&#45;&gt;Node5 -->
<g id="edge5_Node000005_Node000005" class="edge">
<title>Node5&#45;&gt;Node5</title>
<g id="a_edge5_Node000005_Node000005"><a xlink:title=" ">
<path fill="none" stroke="#63b8ff" d="M303.13,-261.26C298.94,-265.03 290.73,-267.54 278.5,-267.54 256.13,-267.54 247.22,-259.16 251.76,-249.95"/>
<polygon fill="#63b8ff" stroke="#63b8ff" points="306.56,-261.91 304.96,-251.44 299.68,-260.63 306.56,-261.91"/>
</a>
</g>
</g>
<!-- Node6&#45;&gt;Node6 -->
<g id="edge7_Node000006_Node000006" class="edge">
<title>Node6&#45;&gt;Node6</title>
<g id="a_edge7_Node000006_Node000006"><a xlink:title=" ">
<path fill="none" stroke="#63b8ff" d="M304.67,-191.65C301.21,-195.49 292.48,-198.16 278.5,-198.16 252.93,-198.16 244.94,-189.22 254.53,-180.56"/>
<polygon fill="#63b8ff" stroke="#63b8ff" points="308.15,-191.17 302.76,-182.05 301.28,-192.54 308.15,-191.17"/>
</a>
</g>
</g>
<!-- Node6&#45;&gt;Node7 -->
<g id="edge8_Node000006_Node000007" class="edge">
<title>Node6&#45;&gt;Node7</title>
<g id="a_edge8_Node000006_Node000007"><a xlink:title=" ">
<path fill="none" stroke="#63b8ff" d="M224.65,-156.28C207.1,-151.79 187.81,-146.86 171.17,-142.6"/>
<polygon fill="#63b8ff" stroke="#63b8ff" points="223.29,-159.54 233.84,-158.63 225.02,-152.76 223.29,-159.54"/>
</a>
</g>
</g>
<!-- Node8 -->
<g id="Node000008" class="node">
<title>Node8</title>
<g id="a_Node000008"><a xlink:href="test__device_8c.html#a840291bc02cba5474a4cb46a9b9566fe" target="_top" xlink:title="Test entry point.">
<polygon fill="white" stroke="#666666" points="40.75,-95.16 0,-95.16 0,-74.41 40.75,-74.41 40.75,-95.16"/>
<text text-anchor="middle" x="20.38" y="-81.66" font-family="Helvetica,sans-Serif" font-size="10.00">main</text>
</a>
</g>
</g>
<!-- Node7&#45;&gt;Node8 -->
<g id="edge9_Node000007_Node000008" class="edge">
<title>Node7&#45;&gt;Node8</title>
<g id="a_edge9_Node000007_Node000008"><a xlink:title=" ">
<path fill="none" stroke="#63b8ff" d="M92.55,-116.5C75.56,-108.93 55.66,-100.06 41.23,-93.63"/>
<polygon fill="#63b8ff" stroke="#63b8ff" points="90.73,-119.52 101.29,-120.39 93.58,-113.12 90.73,-119.52"/>
</a>
</g>
</g>
<!-- Node9&#45;&gt;Node9 -->
<g id="edge11_Node000009_Node000009" class="edge">
<title>Node9&#45;&gt;Node9</title>
<g id="a_edge11_Node000009_Node000009"><a xlink:title=" ">
<path fill="none" stroke="#63b8ff" d="M304.67,-97.65C301.21,-101.49 292.48,-104.16 278.5,-104.16 252.93,-104.16 244.94,-95.22 254.53,-86.56"/>
<polygon fill="#63b8ff" stroke="#63b8ff" points="308.15,-97.17 302.76,-88.05 301.28,-98.54 308.15,-97.17"/>
</a>
</g>
</g>
<!-- Node10&#45;&gt;Node8 -->
<g id="edge13_Node000010_Node000008" class="edge">
<title>Node10&#45;&gt;Node8</title>
<g id="a_edge13_Node000010_Node000008"><a xlink:title=" ">
<path fill="none" stroke="#63b8ff" d="M73.8,-75.35C62.17,-77.44 50.57,-79.53 41.24,-81.21"/>
<polygon fill="#63b8ff" stroke="#63b8ff" points="74.16,-78.84 83.39,-73.62 72.92,-71.95 74.16,-78.84"/>
</a>
</g>
</g>
<!-- Node11&#45;&gt;Node12 -->
<g id="edge16_Node000011_Node000012" class="edge">
<title>Node11&#45;&gt;Node12</title>
<g id="a_edge16_Node000011_Node000012"><a xlink:title=" ">
<path fill="none" stroke="#63b8ff" d="M513.51,-65.79C490.21,-57.32 464.88,-48.11 447.94,-41.95"/>
<polygon fill="#63b8ff" stroke="#63b8ff" points="512.01,-68.97 522.61,-69.1 514.41,-62.39 512.01,-68.97"/>
</a>
</g>
</g>
<!-- Node13&#45;&gt;Node12 -->
<g id="edge18_Node000013_Node000012" class="edge">
<title>Node13&#45;&gt;Node12</title>
<g id="a_edge18_Node000013_Node000012"><a xlink:title=" ">
<path fill="none" stroke="#63b8ff" d="M500.88,-34.79C481.45,-34.79 461.91,-34.79 448,-34.79"/>
<polygon fill="#63b8ff" stroke="#63b8ff" points="500.75,-38.29 510.75,-34.79 500.75,-31.29 500.75,-38.29"/>
</a>
</g>
</g>
</g>
</svg>

<g id="navigator" transform="translate(0 0)" fill="#404254">
  <rect fill="#f2f5e9" fill-opacity="0.5" stroke="#606060" stroke-width=".5" x="0" y="0" width="60" height="60"/>
  <use id="zoomplus" xlink:href="#zoomPlus" x="17" y="9" onmousedown="handleZoom(evt,'in')"/>
  <use id="zoomminus" xlink:href="#zoomMin" x="42" y="9" onmousedown="handleZoom(evt,'out')"/>
  <use id="reset" xlink:href="#resetDef" x="30" y="36" onmousedown="handleReset()"/>
   <use id="arrowup" xlink:href="#arrowUp" x="0" y="0" onmousedown="handlePan(0,-1)"/>
  <use id="arrowright" xlink:href="#arrowRight" x="0" y="0" onmousedown="handlePan(1,0)"/>
  <use id="arrowdown" xlink:href="#arrowDown" x="0" y="0" onmousedown="handlePan(0,1)"/>
  <use id="arrowleft" xlink:href="#arrowLeft" x="0" y="0" onmousedown="handlePan(-1,0)"/>
</g>
<svg viewBox="0 0 15 15" width="100%" height="30px" preserveAspectRatio="xMaxYMin meet">
 <g id="arrow_out" transform="scale(0.3 0.3)">
  <a xlink:href="gemv__generic_8c_a1b919f71b86ec1791fe53bc68d5c240d_icgraph_org.svg" target="_base">
   <rect id="button" ry="5" rx="5" y="6" x="6" height="38" width="38"
        fill="#f2f5e9" fill-opacity="0.5" stroke="#606060" stroke-width="1.0"/>
   <path id="arrow"
     d="M 11.500037,31.436501 C 11.940474,20.09759 22.043105,11.32322 32.158766,21.979434 L 37.068811,17.246167 C 37.068811,17.246167 37.088388,32 37.088388,32 L 22.160133,31.978069 C 22.160133,31.978069 26.997745,27.140456 26.997745,27.140456 C 18.528582,18.264221 13.291696,25.230495 11.500037,31.436501 z"
     style="fill:#404040;"/>
  </a>
 </g>
</svg>

<style type='text/css'>
<![CDATA[
[data-mouse-over-selected='false'] { opacity: 0.7; }
[data-mouse-over-selected='true']  { opacity: 1.0; }
]]>
</style>
<script type="application/ecmascript"><![CDATA[
document.addEventListener('DOMContentLoaded', (event) => {
  highlightEdges();
  highlightAdjacentNodes();
});
]]></script>
</svg>
