<?xml version="1.0" encoding="UTF-8" standalone="no"?>
<!DOCTYPE svg PUBLIC "-//W3C//DTD SVG 1.1//EN"
 "http://www.w3.org/Graphics/SVG/1.1/DTD/svg11.dtd">
<!-- Generated by graphviz version 2.43.0 (0)
 -->
<!-- Title: ie_gemv_qfp8_f32 Pages: 1 -->
<svg width="271pt" height="66pt"
 viewBox="0.00 0.00 271.00 66.00" xmlns="http://www.w3.org/2000/svg" xmlns:xlink="http://www.w3.org/1999/xlink">
<g id="graph0" class="graph" transform="scale(1 1) rotate(0) translate(4 62)">
<title>ie_gemv_qfp8_f32</title>
<!-- Node1 -->
<g id="node1" class="node">
<title>Node1</title>
<g id="a_node1"><a xlink:title="GEMV with FP8 activations (E4M3/E5M2), fused decode (C fallback).">
<polygon fill="#bfbfbf" stroke="black" points="0,-19.5 0,-38.5 107,-38.5 107,-19.5 0,-19.5"/>
<text text-anchor="middle" x="53.5" y="-26.5" font-family="Helvetica,sans-Serif" font-size="10.00">ie_gemv_qfp8_f32</text>
</a>
</g>
</g>
<!-- Node2 -->
<g id="node2" class="node">
<title>Node2</title>
<g id="a_node2"><a xlink:href="gemv__generic_8c.html#ab15089960891cb16691529c685e7a96b" target="_top" xlink:title="Decode FP8 E4M3 value to float (flush subnormals).">
<polygon fill="none" stroke="black" points="143,-38.5 143,-57.5 263,-57.5 263,-38.5 143,-38.5"/>
<text text-anchor="middle" x="203" y="-45.5" font-family="Helvetica,sans-Serif" font-size="10.00">ie_decode_fp8_e4m3</text>
</a>
</g>
</g>
<!-- Node1&#45;&gt;Node2 -->
<g id="edge1" class="edge">
<title>Node1&#45;&gt;Node2</title>
<path fill="none" stroke="midnightblue" d="M107.33,-35.81C115.59,-36.87 124.23,-37.98 132.79,-39.08"/>
<polygon fill="midnightblue" stroke="midnightblue" points="132.41,-42.56 142.77,-40.37 133.3,-35.62 132.41,-42.56"/>
</g>
<!-- Node3 -->
<g id="node3" class="node">
<title>Node3</title>
<g id="a_node3"><a xlink:href="gemv__generic_8c.html#a2caa51b99ab073c3a53146ca26153558" target="_top" xlink:title="Decode FP8 E5M2 value to float (IEEE&#45;like; NaNs/Inf handled).">
<polygon fill="none" stroke="black" points="143,-0.5 143,-19.5 263,-19.5 263,-0.5 143,-0.5"/>
<text text-anchor="middle" x="203" y="-7.5" font-family="Helvetica,sans-Serif" font-size="10.00">ie_decode_fp8_e5m2</text>
</a>
</g>
</g>
<!-- Node1&#45;&gt;Node3 -->
<g id="edge2" class="edge">
<title>Node1&#45;&gt;Node3</title>
<path fill="none" stroke="midnightblue" d="M107.33,-22.19C115.59,-21.13 124.23,-20.02 132.79,-18.92"/>
<polygon fill="midnightblue" stroke="midnightblue" points="133.3,-22.38 142.77,-17.63 132.41,-15.44 133.3,-22.38"/>
</g>
</g>
</svg>
