<?xml version="1.0" encoding="UTF-8" standalone="no"?>
<!DOCTYPE svg PUBLIC "-//W3C//DTD SVG 1.1//EN"
 "http://www.w3.org/Graphics/SVG/1.1/DTD/svg11.dtd">
<!-- Generated by graphviz version 2.43.0 (0)
 -->
<!-- Title: engine/src/kernels/gemv_generic.c Pages: 1 -->
<svg width="362pt" height="207pt"
 viewBox="0.00 0.00 362.31 207.00" xmlns="http://www.w3.org/2000/svg" xmlns:xlink="http://www.w3.org/1999/xlink">
<g id="graph0" class="graph" transform="scale(1 1) rotate(0) translate(4 203)">
<title>engine/src/kernels/gemv_generic.c</title>
<!-- Node1 -->
<g id="node1" class="node">
<title>Node1</title>
<g id="a_node1"><a xlink:title=" ">
<polygon fill="#bfbfbf" stroke="black" points="118.31,-168.5 118.31,-198.5 223.31,-198.5 223.31,-168.5 118.31,-168.5"/>
<text text-anchor="start" x="126.31" y="-186.5" font-family="Helvetica,sans-Serif" font-size="10.00">engine/src/kernels</text>
<text text-anchor="middle" x="170.81" y="-175.5" font-family="Helvetica,sans-Serif" font-size="10.00">/gemv_generic.c</text>
</a>
</g>
</g>
<!-- Node2 -->
<g id="node2" class="node">
<title>Node2</title>
<g id="a_node2"><a xlink:href="ie__kernels_8h.html" target="_top" xlink:title=" ">
<polygon fill="none" stroke="black" points="95.31,-112.5 95.31,-131.5 170.31,-131.5 170.31,-112.5 95.31,-112.5"/>
<text text-anchor="middle" x="132.81" y="-119.5" font-family="Helvetica,sans-Serif" font-size="10.00">ie_kernels.h</text>
</a>
</g>
</g>
<!-- Node1&#45;&gt;Node2 -->
<g id="edge1" class="edge">
<title>Node1&#45;&gt;Node2</title>
<path fill="none" stroke="midnightblue" d="M161.8,-168.4C156.39,-159.93 149.48,-149.1 143.75,-140.14"/>
<polygon fill="midnightblue" stroke="midnightblue" points="146.67,-138.2 138.34,-131.66 140.77,-141.97 146.67,-138.2"/>
</g>
<!-- Node3 -->
<g id="node3" class="node">
<title>Node3</title>
<g id="a_node3"><a xlink:title=" ">
<polygon fill="none" stroke="#bfbfbf" points="27.81,-0.5 27.81,-19.5 83.81,-19.5 83.81,-0.5 27.81,-0.5"/>
<text text-anchor="middle" x="55.81" y="-7.5" font-family="Helvetica,sans-Serif" font-size="10.00">stddef.h</text>
</a>
</g>
</g>
<!-- Node1&#45;&gt;Node3 -->
<g id="edge9" class="edge">
<title>Node1&#45;&gt;Node3</title>
<path fill="none" stroke="midnightblue" d="M123.58,-168.49C82.28,-153.3 25.48,-124.49 2.81,-76 -6.41,-56.28 13.22,-37.42 31.15,-25.14"/>
<polygon fill="midnightblue" stroke="midnightblue" points="33.15,-28.02 39.67,-19.67 29.37,-22.12 33.15,-28.02"/>
</g>
<!-- Node4 -->
<g id="node4" class="node">
<title>Node4</title>
<g id="a_node4"><a xlink:title=" ">
<polygon fill="none" stroke="#bfbfbf" points="139.31,-0.5 139.31,-19.5 192.31,-19.5 192.31,-0.5 139.31,-0.5"/>
<text text-anchor="middle" x="165.81" y="-7.5" font-family="Helvetica,sans-Serif" font-size="10.00">stdint.h</text>
</a>
</g>
</g>
<!-- Node1&#45;&gt;Node4 -->
<g id="edge10" class="edge">
<title>Node1&#45;&gt;Node4</title>
<path fill="none" stroke="midnightblue" d="M174,-168.44C176.12,-158.36 178.71,-144.42 179.81,-132 183.02,-95.63 175.53,-53.28 170.31,-29.56"/>
<polygon fill="midnightblue" stroke="midnightblue" points="173.72,-28.74 168.06,-19.79 166.9,-30.32 173.72,-28.74"/>
</g>
<!-- Node5 -->
<g id="node5" class="node">
<title>Node5</title>
<g id="a_node5"><a xlink:href="ie__quant__act_8h.html" target="_top" xlink:title=" ">
<polygon fill="none" stroke="black" points="11.81,-56.5 11.81,-75.5 99.81,-75.5 99.81,-56.5 11.81,-56.5"/>
<text text-anchor="middle" x="55.81" y="-63.5" font-family="Helvetica,sans-Serif" font-size="10.00">ie_quant_act.h</text>
</a>
</g>
</g>
<!-- Node1&#45;&gt;Node5 -->
<g id="edge7" class="edge">
<title>Node1&#45;&gt;Node5</title>
<path fill="none" stroke="midnightblue" d="M137.74,-168.32C120.82,-159.76 100.88,-147.49 86.81,-132 74.62,-118.58 66.29,-99.5 61.36,-85.48"/>
<polygon fill="midnightblue" stroke="midnightblue" points="64.67,-84.35 58.25,-75.93 58.02,-86.52 64.67,-84.35"/>
</g>
<!-- Node6 -->
<g id="node6" class="node">
<title>Node6</title>
<g id="a_node6"><a xlink:title=" ">
<polygon fill="none" stroke="#bfbfbf" points="232.31,-112.5 232.31,-131.5 283.31,-131.5 283.31,-112.5 232.31,-112.5"/>
<text text-anchor="middle" x="257.81" y="-119.5" font-family="Helvetica,sans-Serif" font-size="10.00">math.h</text>
</a>
</g>
</g>
<!-- Node1&#45;&gt;Node6 -->
<g id="edge8" class="edge">
<title>Node1&#45;&gt;Node6</title>
<path fill="none" stroke="midnightblue" d="M191.42,-168.4C205.11,-159.04 223.02,-146.79 236.78,-137.38"/>
<polygon fill="midnightblue" stroke="midnightblue" points="238.87,-140.19 245.15,-131.66 234.92,-134.41 238.87,-140.19"/>
</g>
<!-- Node7 -->
<g id="node7" class="node">
<title>Node7</title>
<g id="a_node7"><a xlink:title=" ">
<polygon fill="none" stroke="#bfbfbf" points="301.31,-112.5 301.31,-131.5 354.31,-131.5 354.31,-112.5 301.31,-112.5"/>
<text text-anchor="middle" x="327.81" y="-119.5" font-family="Helvetica,sans-Serif" font-size="10.00">string.h</text>
</a>
</g>
</g>
<!-- Node1&#45;&gt;Node7 -->
<g id="edge11" class="edge">
<title>Node1&#45;&gt;Node7</title>
<path fill="none" stroke="midnightblue" d="M208.01,-168.4C234.59,-158.33 270,-144.91 295.41,-135.28"/>
<polygon fill="midnightblue" stroke="midnightblue" points="296.85,-138.47 304.96,-131.66 294.37,-131.93 296.85,-138.47"/>
</g>
<!-- Node2&#45;&gt;Node3 -->
<g id="edge2" class="edge">
<title>Node2&#45;&gt;Node3</title>
<path fill="none" stroke="midnightblue" d="M131.1,-112.34C128.19,-99.23 121.35,-73.94 108.81,-56 100.59,-44.25 88.59,-33.72 78.09,-25.81"/>
<polygon fill="midnightblue" stroke="midnightblue" points="79.9,-22.79 69.74,-19.8 75.81,-28.48 79.9,-22.79"/>
</g>
<!-- Node2&#45;&gt;Node4 -->
<g id="edge3" class="edge">
<title>Node2&#45;&gt;Node4</title>
<path fill="none" stroke="midnightblue" d="M135.4,-112.37C140.75,-94.54 153.12,-53.3 160.33,-29.27"/>
<polygon fill="midnightblue" stroke="midnightblue" points="163.71,-30.18 163.23,-19.59 157,-28.16 163.71,-30.18"/>
</g>
<!-- Node2&#45;&gt;Node5 -->
<g id="edge4" class="edge">
<title>Node2&#45;&gt;Node5</title>
<path fill="none" stroke="midnightblue" d="M120.44,-112.32C108.65,-104.06 90.67,-91.45 76.67,-81.63"/>
<polygon fill="midnightblue" stroke="midnightblue" points="78.34,-78.53 68.15,-75.65 74.33,-84.26 78.34,-78.53"/>
</g>
<!-- Node5&#45;&gt;Node3 -->
<g id="edge5" class="edge">
<title>Node5&#45;&gt;Node3</title>
<path fill="none" stroke="midnightblue" d="M55.81,-56.08C55.81,-49.01 55.81,-38.86 55.81,-29.99"/>
<polygon fill="midnightblue" stroke="midnightblue" points="59.31,-29.75 55.81,-19.75 52.31,-29.75 59.31,-29.75"/>
</g>
<!-- Node5&#45;&gt;Node4 -->
<g id="edge6" class="edge">
<title>Node5&#45;&gt;Node4</title>
<path fill="none" stroke="midnightblue" d="M73.48,-56.32C91.2,-47.62 118.71,-34.12 139.1,-24.11"/>
<polygon fill="midnightblue" stroke="midnightblue" points="140.74,-27.2 148.18,-19.65 137.66,-20.92 140.74,-27.2"/>
</g>
</g>
</svg>
