<?xml version="1.0" encoding="UTF-8" standalone="no"?>
<!DOCTYPE svg PUBLIC "-//W3C//DTD SVG 1.1//EN"
 "http://www.w3.org/Graphics/SVG/1.1/DTD/svg11.dtd">
<!-- Generated by graphviz version 2.43.0 (0)
 -->
<!-- Title: ie_log2_u8_q3_init_impl_ Pages: 1 -->
<svg width="1521pt" height="214pt"
 viewBox="0.00 0.00 1521.00 214.00" xmlns="http://www.w3.org/2000/svg" xmlns:xlink="http://www.w3.org/1999/xlink">
<g id="graph0" class="graph" transform="scale(1 1) rotate(0) translate(4 210)">
<title>ie_log2_u8_q3_init_impl_</title>
<!-- Node1 -->
<g id="Node000001" class="node">
<title>Node1</title>
<g id="a_Node000001"><a xlink:title=" ">
<polygon fill="#999999" stroke="#666666" points="1513,-60.5 1406,-60.5 1406,-30.5 1513,-30.5 1513,-60.5"/>
<text text-anchor="start" x="1414" y="-48.5" font-family="Helvetica,sans-Serif" font-size="10.00">ie_log2_u8_q3_init</text>
<text text-anchor="middle" x="1459.5" y="-37.5" font-family="Helvetica,sans-Serif" font-size="10.00">_impl_</text>
</a>
</g>
</g>
<!-- Node2 -->
<g id="Node000002" class="node">
<title>Node2</title>
<g id="a_Node000002"><a xlink:href="gemv__q4__avx2_8c.html#acb45092051d8188cb83e8521544f1a16" target="_top" xlink:title=" ">
<polygon fill="white" stroke="#666666" points="1354,-74 1232,-74 1232,-55 1354,-55 1354,-74"/>
<text text-anchor="middle" x="1293" y="-62" font-family="Helvetica,sans-Serif" font-size="10.00">ie_log2_u8_q3_to_f32</text>
</a>
</g>
</g>
<!-- Node1&#45;&gt;Node2 -->
<g id="edge1_Node000001_Node000002" class="edge">
<title>Node1&#45;&gt;Node2</title>
<g id="a_edge1_Node000001_Node000002"><a xlink:title=" ">
<path fill="none" stroke="#63b8ff" d="M1395.71,-52.75C1382.03,-54.33 1367.58,-56 1354.01,-57.57"/>
<polygon fill="#63b8ff" stroke="#63b8ff" points="1396.47,-56.19 1406,-51.56 1395.66,-49.23 1396.47,-56.19"/>
</a>
</g>
</g>
<!-- Node20 -->
<g id="Node000020" class="node">
<title>Node20</title>
<g id="a_Node000020"><a xlink:href="gemv__q4__avx2_8c.html#acdd3012fa894dbd82a4156eb09074acd" target="_top" xlink:title="Initialize log2(u8, q3) LUT for Q4 kernels (AVX2 path).">
<polygon fill="white" stroke="#666666" points="1370,-37 1216,-37 1216,-18 1370,-18 1370,-37"/>
<text text-anchor="middle" x="1293" y="-25" font-family="Helvetica,sans-Serif" font-size="10.00">ie_q4_log2_u8_q3_init_avx2</text>
</a>
</g>
</g>
<!-- Node1&#45;&gt;Node20 -->
<g id="edge25_Node000001_Node000020" class="edge">
<title>Node1&#45;&gt;Node20</title>
<g id="a_edge25_Node000001_Node000020"><a xlink:title=" ">
<path fill="none" stroke="#63b8ff" d="M1395.94,-38.65C1387.55,-37.74 1378.87,-36.79 1370.28,-35.85"/>
<polygon fill="#63b8ff" stroke="#63b8ff" points="1395.68,-42.15 1406,-39.76 1396.44,-35.19 1395.68,-42.15"/>
</a>
</g>
</g>
<!-- Node3 -->
<g id="Node000003" class="node">
<title>Node3</title>
<g id="a_Node000003"><a xlink:href="gemv__q4__avx2_8c.html#a0d62180096534e482fbb8fe67b98e4fd" target="_top" xlink:title="Load a per&#45;block scale value (BF16 or FP8 E4M3) as float.">
<polygon fill="white" stroke="#666666" points="1180,-77 1059,-77 1059,-58 1180,-58 1180,-77"/>
<text text-anchor="middle" x="1119.5" y="-65" font-family="Helvetica,sans-Serif" font-size="10.00">ie_q4_load_scale_f32</text>
</a>
</g>
</g>
<!-- Node2&#45;&gt;Node3 -->
<g id="edge2_Node000002_Node000003" class="edge">
<title>Node2&#45;&gt;Node3</title>
<g id="a_edge2_Node000002_Node000003"><a xlink:title=" ">
<path fill="none" stroke="#63b8ff" d="M1221.22,-65.74C1207.56,-65.98 1193.39,-66.23 1180.13,-66.46"/>
<polygon fill="#63b8ff" stroke="#63b8ff" points="1221.6,-69.23 1231.54,-65.56 1221.48,-62.23 1221.6,-69.23"/>
</a>
</g>
</g>
<!-- Node4 -->
<g id="Node000004" class="node">
<title>Node4</title>
<g id="a_Node000004"><a xlink:href="gemv__q4__avx2_8c.html#a2fea8f09ec3127c16d845dba817200b8" target="_top" xlink:title="AVX2+FMA implementation of ie_gemv_q4_0_f32.">
<polygon fill="white" stroke="#666666" points="1023,-79 859,-79 859,-60 1023,-60 1023,-79"/>
<text text-anchor="middle" x="941" y="-67" font-family="Helvetica,sans-Serif" font-size="10.00">ie_gemv_q4_0_f32_avx2_impl</text>
</a>
</g>
</g>
<!-- Node3&#45;&gt;Node4 -->
<g id="edge3_Node000003_Node000004" class="edge">
<title>Node3&#45;&gt;Node4</title>
<g id="a_edge3_Node000003_Node000004"><a xlink:title=" ">
<path fill="none" stroke="#63b8ff" d="M1048.7,-68.29C1040.36,-68.39 1031.78,-68.48 1023.29,-68.58"/>
<polygon fill="#63b8ff" stroke="#63b8ff" points="1048.79,-71.79 1058.75,-68.18 1048.71,-64.79 1048.79,-71.79"/>
</a>
</g>
</g>
<!-- Node5 -->
<g id="Node000005" class="node">
<title>Node5</title>
<g id="a_Node000005"><a xlink:href="gemv__q4__generic_8c.html#a98f4ea2f022f5dbbec384a50e332e1ff" target="_top" xlink:title="GEMV with Q4_0 weights and FP32 activations.">
<polygon fill="white" stroke="#666666" points="823,-84 715,-84 715,-65 823,-65 823,-84"/>
<text text-anchor="middle" x="769" y="-72" font-family="Helvetica,sans-Serif" font-size="10.00">ie_gemv_q4_0_f32</text>
</a>
</g>
</g>
<!-- Node4&#45;&gt;Node5 -->
<g id="edge4_Node000004_Node000005" class="edge">
<title>Node4&#45;&gt;Node5</title>
<g id="a_edge4_Node000004_Node000005"><a xlink:title=" ">
<path fill="none" stroke="#63b8ff" d="M848.73,-72.18C840.02,-72.44 831.39,-72.69 823.22,-72.93"/>
<polygon fill="#63b8ff" stroke="#63b8ff" points="849.09,-75.68 858.98,-71.88 848.88,-68.68 849.09,-75.68"/>
</a>
</g>
</g>
<!-- Node6 -->
<g id="Node000006" class="node">
<title>Node6</title>
<g id="a_Node000006"><a xlink:href="ie__device__common_8c.html#a9d5e38fae37da46a4112ebdbfa83667c" target="_top" xlink:title="Execute Q4_0 GEMV on CPU using existing kernels.">
<polygon fill="white" stroke="#666666" points="675,-126 559,-126 559,-107 675,-107 675,-126"/>
<text text-anchor="middle" x="617" y="-114" font-family="Helvetica,sans-Serif" font-size="10.00">cpu_gemv_q4_0_f32</text>
</a>
</g>
</g>
<!-- Node5&#45;&gt;Node6 -->
<g id="edge5_Node000005_Node000006" class="edge">
<title>Node5&#45;&gt;Node6</title>
<g id="a_edge5_Node000005_Node000006"><a xlink:title=" ">
<path fill="none" stroke="#63b8ff" d="M724.12,-86.79C701.17,-93.21 673.5,-100.96 652.16,-106.93"/>
<polygon fill="#63b8ff" stroke="#63b8ff" points="725.28,-90.1 733.96,-84.03 723.39,-83.36 725.28,-90.1"/>
</a>
</g>
</g>
<!-- Node14 -->
<g id="Node000014" class="node">
<title>Node14</title>
<g id="a_Node000014"><a xlink:href="infer__gptoss_8c.html#a463151430d9b4dce6eae9210c3c598f0" target="_top" xlink:title=" ">
<polygon fill="white" stroke="#666666" points="679,-84 555,-84 555,-65 679,-65 679,-84"/>
<text text-anchor="middle" x="617" y="-72" font-family="Helvetica,sans-Serif" font-size="10.00">ie_forward_one_token</text>
</a>
</g>
</g>
<!-- Node5&#45;&gt;Node14 -->
<g id="edge14_Node000005_Node000014" class="edge">
<title>Node5&#45;&gt;Node14</title>
<g id="a_edge14_Node000005_Node000014"><a xlink:title=" ">
<path fill="none" stroke="#63b8ff" d="M704.53,-74.5C696.09,-74.5 687.46,-74.5 679.06,-74.5"/>
<polygon fill="#63b8ff" stroke="#63b8ff" points="704.69,-78 714.69,-74.5 704.69,-71 704.69,-78"/>
</a>
</g>
</g>
<!-- Node7 -->
<g id="Node000007" class="node">
<title>Node7</title>
<g id="a_Node000007"><a xlink:href="ie__device__common_8c.html#a3e42fcc4b9579a9bf14520cb1afe733b" target="_top" xlink:title="Create a device handle for the requested kind (with fallback).">
<polygon fill="white" stroke="#666666" points="505,-150 406,-150 406,-131 505,-131 505,-150"/>
<text text-anchor="middle" x="455.5" y="-138" font-family="Helvetica,sans-Serif" font-size="10.00">ie_device_create</text>
</a>
</g>
</g>
<!-- Node6&#45;&gt;Node7 -->
<g id="edge6_Node000006_Node000007" class="edge">
<title>Node6&#45;&gt;Node7</title>
<g id="a_edge6_Node000006_Node000007"><a xlink:title=" ">
<path fill="none" stroke="#63b8ff" d="M548.82,-126.61C534.13,-128.82 518.86,-131.12 505.07,-133.19"/>
<polygon fill="#63b8ff" stroke="#63b8ff" points="549.5,-130.05 558.87,-125.1 548.46,-123.12 549.5,-130.05"/>
</a>
</g>
</g>
<!-- Node8 -->
<g id="Node000008" class="node">
<title>Node8</title>
<g id="a_Node000008"><a xlink:href="ie__api_8c.html#a84bd87043352946e9d53b0f8a5c4abe0" target="_top" xlink:title="Create an engine instance.">
<polygon fill="white" stroke="#666666" points="183.5,-37 83.5,-37 83.5,-18 183.5,-18 183.5,-37"/>
<text text-anchor="middle" x="133.5" y="-25" font-family="Helvetica,sans-Serif" font-size="10.00">ie_engine_create</text>
</a>
</g>
</g>
<!-- Node7&#45;&gt;Node8 -->
<g id="edge7_Node000007_Node000008" class="edge">
<title>Node7&#45;&gt;Node8</title>
<g id="a_edge7_Node000007_Node000008"><a xlink:title=" ">
<path fill="none" stroke="#63b8ff" d="M395.72,-135.86C337.49,-130.32 253.19,-119.48 226,-101.5 201.32,-85.18 213.44,-63.56 190,-45.5 185.59,-42.1 180.51,-39.33 175.25,-37.08"/>
<polygon fill="#63b8ff" stroke="#63b8ff" points="395.63,-139.37 405.91,-136.8 396.27,-132.4 395.63,-139.37"/>
</a>
</g>
</g>
<!-- Node11 -->
<g id="Node000011" class="node">
<title>Node11</title>
<g id="a_Node000011"><a xlink:href="test__device_8c.html#a7b62f3db43117555c60ec59d19c7c8d6" target="_top" xlink:title="Verify CPU device exposes GEMV capability.">
<polygon fill="white" stroke="#666666" points="334,-206 248,-206 248,-187 334,-187 334,-206"/>
<text text-anchor="middle" x="291" y="-194" font-family="Helvetica,sans-Serif" font-size="10.00">test_cpu_caps</text>
</a>
</g>
</g>
<!-- Node7&#45;&gt;Node11 -->
<g id="edge10_Node000007_Node000011" class="edge">
<title>Node7&#45;&gt;Node11</title>
<g id="a_edge10_Node000007_Node000011"><a xlink:title=" ">
<path fill="none" stroke="#63b8ff" d="M422.21,-153.84C403.11,-161.51 378.36,-171.06 356,-178.5 347.02,-181.49 337.23,-184.41 328.06,-187"/>
<polygon fill="#63b8ff" stroke="#63b8ff" points="423.68,-157.02 431.64,-150.02 421.05,-150.53 423.68,-157.02"/>
</a>
</g>
</g>
<!-- Node13 -->
<g id="Node000013" class="node">
<title>Node13</title>
<g id="a_Node000013"><a xlink:href="test__device_8c.html#a548e6227513ac3fd772219dad3b0de22" target="_top" xlink:title="Ensure GPU request gracefully falls back to a working GEMV.">
<polygon fill="white" stroke="#666666" points="342.5,-169 239.5,-169 239.5,-150 342.5,-150 342.5,-169"/>
<text text-anchor="middle" x="291" y="-157" font-family="Helvetica,sans-Serif" font-size="10.00">test_gpu_fallback</text>
</a>
</g>
</g>
<!-- Node7&#45;&gt;Node13 -->
<g id="edge12_Node000007_Node000013" class="edge">
<title>Node7&#45;&gt;Node13</title>
<g id="a_edge12_Node000007_Node000013"><a xlink:title=" ">
<path fill="none" stroke="#63b8ff" d="M395.72,-147.37C378.35,-149.4 359.5,-151.61 342.69,-153.57"/>
<polygon fill="#63b8ff" stroke="#63b8ff" points="396.22,-150.84 405.74,-146.2 395.41,-143.89 396.22,-150.84"/>
</a>
</g>
</g>
<!-- Node9 -->
<g id="Node000009" class="node">
<title>Node9</title>
<g id="a_Node000009"><a xlink:href="main__infer_8c.html#a3c04138a5bfe5d72780bb7e82a18e627" target="_top" xlink:title="main.">
<polygon fill="white" stroke="#666666" points="41,-74 0,-74 0,-55 41,-55 41,-74"/>
<text text-anchor="middle" x="20.5" y="-62" font-family="Helvetica,sans-Serif" font-size="10.00">main</text>
</a>
</g>
</g>
<!-- Node8&#45;&gt;Node9 -->
<g id="edge8_Node000008_Node000009" class="edge">
<title>Node8&#45;&gt;Node9</title>
<g id="a_edge8_Node000008_Node000009"><a xlink:title=" ">
<path fill="none" stroke="#63b8ff" d="M93.17,-40.17C87.73,-41.94 82.23,-43.76 77,-45.5 65.12,-49.46 51.84,-54 41.25,-57.65"/>
<polygon fill="#63b8ff" stroke="#63b8ff" points="94.38,-43.46 102.8,-37.03 92.21,-36.8 94.38,-43.46"/>
</a>
</g>
</g>
<!-- Node10 -->
<g id="Node000010" class="node">
<title>Node10</title>
<g id="a_Node000010"><a xlink:href="test__api_8c.html#a840291bc02cba5474a4cb46a9b9566fe" target="_top" xlink:title=" ">
<polygon fill="white" stroke="#666666" points="41,-37 0,-37 0,-18 41,-18 41,-37"/>
<text text-anchor="middle" x="20.5" y="-25" font-family="Helvetica,sans-Serif" font-size="10.00">main</text>
</a>
</g>
</g>
<!-- Node8&#45;&gt;Node10 -->
<g id="edge9_Node000008_Node000010" class="edge">
<title>Node8&#45;&gt;Node10</title>
<g id="a_edge9_Node000008_Node000010"><a xlink:title=" ">
<path fill="none" stroke="#63b8ff" d="M73.26,-27.5C61.62,-27.5 50.21,-27.5 41.07,-27.5"/>
<polygon fill="#63b8ff" stroke="#63b8ff" points="73.49,-31 83.49,-27.5 73.49,-24 73.49,-31"/>
</a>
</g>
</g>
<!-- Node12 -->
<g id="Node000012" class="node">
<title>Node12</title>
<g id="a_Node000012"><a xlink:href="test__device_8c.html#a840291bc02cba5474a4cb46a9b9566fe" target="_top" xlink:title="Test entry point.">
<polygon fill="white" stroke="#666666" points="154,-187 113,-187 113,-168 154,-168 154,-187"/>
<text text-anchor="middle" x="133.5" y="-175" font-family="Helvetica,sans-Serif" font-size="10.00">main</text>
</a>
</g>
</g>
<!-- Node11&#45;&gt;Node12 -->
<g id="edge11_Node000011_Node000012" class="edge">
<title>Node11&#45;&gt;Node12</title>
<g id="a_edge11_Node000011_Node000012"><a xlink:title=" ">
<path fill="none" stroke="#63b8ff" d="M237.64,-190.1C209.03,-186.61 175.26,-182.48 154.36,-179.93"/>
<polygon fill="#63b8ff" stroke="#63b8ff" points="237.57,-193.62 247.92,-191.36 238.42,-186.67 237.57,-193.62"/>
</a>
</g>
</g>
<!-- Node13&#45;&gt;Node12 -->
<g id="edge13_Node000013_Node000012" class="edge">
<title>Node13&#45;&gt;Node12</title>
<g id="a_edge13_Node000013_Node000012"><a xlink:title=" ">
<path fill="none" stroke="#63b8ff" d="M229.02,-166.56C202.33,-169.65 172.88,-173.06 154.06,-175.24"/>
<polygon fill="#63b8ff" stroke="#63b8ff" points="229.55,-170.02 239.08,-165.39 228.75,-163.07 229.55,-170.02"/>
</a>
</g>
</g>
<!-- Node15 -->
<g id="Node000015" class="node">
<title>Node15</title>
<g id="a_Node000015"><a xlink:href="infer__gptoss_8c.html#a39827a388a0b7dd6d161e99b111c5546" target="_top" xlink:title="Prefill: consume a prompt, update the KV cache, and produce logits.">
<polygon fill="white" stroke="#666666" points="517.5,-93 393.5,-93 393.5,-74 517.5,-74 517.5,-93"/>
<text text-anchor="middle" x="455.5" y="-81" font-family="Helvetica,sans-Serif" font-size="10.00">ie_gptoss_infer_prefill</text>
</a>
</g>
</g>
<!-- Node14&#45;&gt;Node15 -->
<g id="edge15_Node000014_Node000015" class="edge">
<title>Node14&#45;&gt;Node15</title>
<g id="a_edge15_Node000014_Node000015"><a xlink:title=" ">
<path fill="none" stroke="#63b8ff" d="M544.66,-78.53C535.61,-79.04 526.42,-79.55 517.55,-80.06"/>
<polygon fill="#63b8ff" stroke="#63b8ff" points="545,-82.01 554.79,-77.95 544.61,-75.02 545,-82.01"/>
</a>
</g>
</g>
<!-- Node19 -->
<g id="Node000019" class="node">
<title>Node19</title>
<g id="a_Node000019"><a xlink:href="infer__gptoss_8c.html#a52a0e33daf64ca5524b6440cecc8d2f6" target="_top" xlink:title="Step: consume one token, update the KV cache, and produce next logits.">
<polygon fill="white" stroke="#666666" points="514,-56 397,-56 397,-37 514,-37 514,-56"/>
<text text-anchor="middle" x="455.5" y="-44" font-family="Helvetica,sans-Serif" font-size="10.00">ie_gptoss_infer_step</text>
</a>
</g>
</g>
<!-- Node14&#45;&gt;Node19 -->
<g id="edge22_Node000014_Node000019" class="edge">
<title>Node14&#45;&gt;Node19</title>
<g id="a_edge22_Node000014_Node000019"><a xlink:title=" ">
<path fill="none" stroke="#63b8ff" d="M551.38,-63.16C537.88,-60.79 523.78,-58.31 510.7,-56.01"/>
<polygon fill="#63b8ff" stroke="#63b8ff" points="551.1,-66.66 561.56,-64.94 552.31,-59.77 551.1,-66.66"/>
</a>
</g>
</g>
<!-- Node16 -->
<g id="Node000016" class="node">
<title>Node16</title>
<g id="a_Node000016"><a xlink:href="ie__api_8c.html#a950ac9a0efe5a4fe068a288e57099c4a" target="_top" xlink:title="Generate tokens and optionally return timing statistics.">
<polygon fill="white" stroke="#666666" points="356,-93 226,-93 226,-74 356,-74 356,-93"/>
<text text-anchor="middle" x="291" y="-81" font-family="Helvetica,sans-Serif" font-size="10.00">ie_engine_generate_ex</text>
</a>
</g>
</g>
<!-- Node15&#45;&gt;Node16 -->
<g id="edge16_Node000015_Node000016" class="edge">
<title>Node15&#45;&gt;Node16</title>
<g id="a_edge16_Node000015_Node000016"><a xlink:title=" ">
<path fill="none" stroke="#63b8ff" d="M382.78,-83.5C373.94,-83.5 364.95,-83.5 356.23,-83.5"/>
<polygon fill="#63b8ff" stroke="#63b8ff" points="383.07,-87 393.07,-83.5 383.07,-80 383.07,-87"/>
</a>
</g>
</g>
<!-- Node18 -->
<g id="Node000018" class="node">
<title>Node18</title>
<g id="a_Node000018"><a xlink:href="generate__gptoss_8c.html#a69606d6441b5c86670cfcc955721a308" target="_top" xlink:title="Generate up to max_new tokens for a prompt string using GPT&#45;OSS.">
<polygon fill="white" stroke="#666666" points="347,-56 235,-56 235,-37 347,-37 347,-56"/>
<text text-anchor="middle" x="291" y="-44" font-family="Helvetica,sans-Serif" font-size="10.00">ie_generate_gptoss</text>
</a>
</g>
</g>
<!-- Node15&#45;&gt;Node18 -->
<g id="edge21_Node000015_Node000018" class="edge">
<title>Node15&#45;&gt;Node18</title>
<g id="a_edge21_Node000015_Node000018"><a xlink:title=" ">
<path fill="none" stroke="#63b8ff" d="M402.73,-71.71C380.54,-66.66 354.97,-60.84 333.99,-56.06"/>
<polygon fill="#63b8ff" stroke="#63b8ff" points="402.12,-75.16 412.65,-73.97 403.68,-68.34 402.12,-75.16"/>
</a>
</g>
</g>
<!-- Node16&#45;&gt;Node9 -->
<g id="edge20_Node000016_Node000009" class="edge">
<title>Node16&#45;&gt;Node9</title>
<g id="a_edge20_Node000016_Node000009"><a xlink:title=" ">
<path fill="none" stroke="#63b8ff" d="M215.53,-88.74C174.42,-90.24 122.61,-89.82 77,-82.5 64.8,-80.54 51.62,-76.36 41.17,-72.52"/>
<polygon fill="#63b8ff" stroke="#63b8ff" points="215.89,-92.23 225.73,-88.32 215.6,-85.23 215.89,-92.23"/>
</a>
</g>
</g>
<!-- Node17 -->
<g id="Node000017" class="node">
<title>Node17</title>
<g id="a_Node000017"><a xlink:href="ie__api_8c.html#ad32cf2cd209832e4cd577a5a1e31970f" target="_top" xlink:title="Generate up to max_new tokens for the given prompt.">
<polygon fill="white" stroke="#666666" points="190,-74 77,-74 77,-55 190,-55 190,-74"/>
<text text-anchor="middle" x="133.5" y="-62" font-family="Helvetica,sans-Serif" font-size="10.00">ie_engine_generate</text>
</a>
</g>
</g>
<!-- Node16&#45;&gt;Node17 -->
<g id="edge17_Node000016_Node000017" class="edge">
<title>Node16&#45;&gt;Node17</title>
<g id="a_edge17_Node000016_Node000017"><a xlink:title=" ">
<path fill="none" stroke="#63b8ff" d="M215.75,-74.43C207.1,-73.37 198.4,-72.31 190.06,-71.29"/>
<polygon fill="#63b8ff" stroke="#63b8ff" points="215.5,-77.92 225.85,-75.66 216.35,-70.98 215.5,-77.92"/>
</a>
</g>
</g>
<!-- Node17&#45;&gt;Node9 -->
<g id="edge18_Node000017_Node000009" class="edge">
<title>Node17&#45;&gt;Node9</title>
<g id="a_edge18_Node000017_Node000009"><a xlink:title=" ">
<path fill="none" stroke="#63b8ff" d="M66.58,-64.5C57.37,-64.5 48.56,-64.5 41.21,-64.5"/>
<polygon fill="#63b8ff" stroke="#63b8ff" points="66.67,-68 76.67,-64.5 66.67,-61 66.67,-68"/>
</a>
</g>
</g>
<!-- Node17&#45;&gt;Node10 -->
<g id="edge19_Node000017_Node000010" class="edge">
<title>Node17&#45;&gt;Node10</title>
<g id="a_edge19_Node000017_Node000010"><a xlink:title=" ">
<path fill="none" stroke="#63b8ff" d="M94.32,-51.77C76.46,-45.82 55.94,-38.98 41.24,-34.08"/>
<polygon fill="#63b8ff" stroke="#63b8ff" points="93.32,-55.13 103.91,-54.97 95.53,-48.49 93.32,-55.13"/>
</a>
</g>
</g>
<!-- Node19&#45;&gt;Node16 -->
<g id="edge23_Node000019_Node000016" class="edge">
<title>Node19&#45;&gt;Node16</title>
<g id="a_edge23_Node000019_Node000016"><a xlink:title=" ">
<path fill="none" stroke="#63b8ff" d="M402.73,-58.29C380.54,-63.34 354.97,-69.16 333.99,-73.94"/>
<polygon fill="#63b8ff" stroke="#63b8ff" points="403.68,-61.66 412.65,-56.03 402.12,-54.84 403.68,-61.66"/>
</a>
</g>
</g>
<!-- Node19&#45;&gt;Node18 -->
<g id="edge24_Node000019_Node000018" class="edge">
<title>Node19&#45;&gt;Node18</title>
<g id="a_edge24_Node000019_Node000018"><a xlink:title=" ">
<path fill="none" stroke="#63b8ff" d="M386.38,-46.5C373.29,-46.5 359.73,-46.5 347.11,-46.5"/>
<polygon fill="#63b8ff" stroke="#63b8ff" points="386.75,-50 396.75,-46.5 386.75,-43 386.75,-50"/>
</a>
</g>
</g>
<!-- Node21 -->
<g id="Node000021" class="node">
<title>Node21</title>
<g id="a_Node000021"><a xlink:href="infer__gptoss_8c.html#a1eb484ef476fc9b7a44d3819959fb307" target="_top" xlink:title="Create an inference context.">
<polygon fill="white" stroke="#666666" points="519,-19 392,-19 392,0 519,0 519,-19"/>
<text text-anchor="middle" x="455.5" y="-7" font-family="Helvetica,sans-Serif" font-size="10.00">ie_gptoss_infer_create</text>
</a>
</g>
</g>
<!-- Node20&#45;&gt;Node21 -->
<g id="edge26_Node000020_Node000021" class="edge">
<title>Node20&#45;&gt;Node21</title>
<g id="a_edge26_Node000020_Node000021"><a xlink:title=" ">
<path fill="none" stroke="#63b8ff" d="M1205.66,-27.5C1134.82,-27.5 1031.91,-27.5 942,-27.5 942,-27.5 942,-27.5 768,-27.5 681.6,-27.5 581.94,-20.51 519.09,-15.24"/>
<polygon fill="#63b8ff" stroke="#63b8ff" points="1205.87,-31 1215.87,-27.5 1205.87,-24 1205.87,-31"/>
</a>
</g>
</g>
<!-- Node21&#45;&gt;Node8 -->
<g id="edge27_Node000021_Node000008" class="edge">
<title>Node21&#45;&gt;Node8</title>
<g id="a_edge27_Node000021_Node000008"><a xlink:title=" ">
<path fill="none" stroke="#63b8ff" d="M381.4,-13.61C320.81,-17.02 236.36,-21.77 183.59,-24.74"/>
<polygon fill="#63b8ff" stroke="#63b8ff" points="381.87,-17.09 391.66,-13.03 381.48,-10.1 381.87,-17.09"/>
</a>
</g>
</g>
<!-- Node21&#45;&gt;Node18 -->
<g id="edge28_Node000021_Node000018" class="edge">
<title>Node21&#45;&gt;Node18</title>
<g id="a_edge28_Node000021_Node000018"><a xlink:title=" ">
<path fill="none" stroke="#63b8ff" d="M402.73,-21.29C380.54,-26.34 354.97,-32.16 333.99,-36.94"/>
<polygon fill="#63b8ff" stroke="#63b8ff" points="403.68,-24.66 412.65,-19.03 402.12,-17.84 403.68,-24.66"/>
</a>
</g>
</g>
</g>
</svg>
