<?xml version="1.0" encoding="UTF-8" standalone="no"?>
<!DOCTYPE svg PUBLIC "-//W3C//DTD SVG 1.1//EN"
 "http://www.w3.org/Graphics/SVG/1.1/DTD/svg11.dtd">
<!-- Generated by graphviz version 2.43.0 (0)
 -->
<!-- Title: ie_aligned_malloc_64 Pages: 1 -->
<svg width="434pt" height="52pt"
 viewBox="0.00 0.00 434.00 51.50" xmlns="http://www.w3.org/2000/svg" xmlns:xlink="http://www.w3.org/1999/xlink">
<g id="graph0" class="graph" transform="scale(1 1) rotate(0) translate(4 47.5)">
<title>ie_aligned_malloc_64</title>
<!-- Node1 -->
<g id="Node000001" class="node">
<title>Node1</title>
<g id="a_Node000001"><a xlink:title="Allocate a 64&#45;byte aligned buffer with C11 aligned_alloc rules.">
<polygon fill="#999999" stroke="#666666" points="122,-38 0,-38 0,-19 122,-19 122,-38"/>
<text text-anchor="middle" x="61" y="-26" font-family="Helvetica,sans-Serif" font-size="10.00">ie_aligned_malloc_64</text>
</a>
</g>
</g>
<!-- Node2 -->
<g id="Node000002" class="node">
<title>Node2</title>
<g id="a_Node000002"><a xlink:href="ie__device__cuda_8cu.html#a5e3d9fee84981707669f5c2398f0c4ab" target="_top" xlink:title="Row&#45;wise GEMV kernel: each thread computes one output row.">
<polygon fill="white" stroke="#666666" points="426,-43.5 301,-43.5 301,-13.5 426,-13.5 426,-43.5"/>
<text text-anchor="start" x="309" y="-31.5" font-family="Helvetica,sans-Serif" font-size="10.00">ie_gemv_rowwise_f32</text>
<text text-anchor="middle" x="363.5" y="-20.5" font-family="Helvetica,sans-Serif" font-size="10.00">_kernel</text>
</a>
</g>
</g>
<!-- Node1&#45;&gt;Node2 -->
<g id="edge1_Node000001_Node000002" class="edge">
<title>Node1&#45;&gt;Node2</title>
<g id="a_edge1_Node000001_Node000002"><a xlink:title=" ">
<path fill="none" stroke="#63b8ff" d="M122.09,-28.5C170.74,-28.5 239.41,-28.5 290.91,-28.5"/>
<polygon fill="#63b8ff" stroke="#63b8ff" points="290.97,-32 300.97,-28.5 290.97,-25 290.97,-32"/>
</a>
</g>
</g>
<!-- Node3 -->
<g id="Node000003" class="node">
<title>Node3</title>
<g id="a_Node000003"><a xlink:href="gemv__avx2_8c.html#a18c7fc5422d78bcaf53f4d2d178ff3d6" target="_top" xlink:title="Round n up to a multiple of a (a must be power of two).">
<polygon fill="white" stroke="#666666" points="265,-19 158,-19 158,0 265,0 265,-19"/>
<text text-anchor="middle" x="211.5" y="-7" font-family="Helvetica,sans-Serif" font-size="10.00">ie_round_up_pow2</text>
</a>
</g>
</g>
<!-- Node1&#45;&gt;Node3 -->
<g id="edge2_Node000001_Node000003" class="edge">
<title>Node1&#45;&gt;Node3</title>
<g id="a_edge2_Node000001_Node000003"><a xlink:title=" ">
<path fill="none" stroke="#63b8ff" d="M122.4,-20.77C130.74,-19.71 139.31,-18.61 147.69,-17.54"/>
<polygon fill="#63b8ff" stroke="#63b8ff" points="148.3,-20.99 157.78,-16.25 147.42,-14.04 148.3,-20.99"/>
</a>
</g>
</g>
<!-- Node3&#45;&gt;Node2 -->
<g id="edge3_Node000003_Node000002" class="edge">
<title>Node3&#45;&gt;Node2</title>
<g id="a_edge3_Node000003_Node000002"><a xlink:title=" ">
<path fill="none" stroke="#63b8ff" d="M265.38,-16.2C273.63,-17.24 282.27,-18.34 290.84,-19.42"/>
<polygon fill="#63b8ff" stroke="#63b8ff" points="290.5,-22.91 300.86,-20.69 291.38,-15.96 290.5,-22.91"/>
</a>
</g>
</g>
</g>
</svg>
