<?xml version="1.0" encoding="UTF-8" standalone="no"?>
<!DOCTYPE svg PUBLIC "-//W3C//DTD SVG 1.1//EN"
 "http://www.w3.org/Graphics/SVG/1.1/DTD/svg11.dtd">
<!-- Generated by graphviz version 2.43.0 (0)
 -->
<!-- Title: gemv_generic_impl Pages: 1 -->
<svg width="1045pt" height="268pt"
 viewBox="0.00 0.00 1045.00 267.99" xmlns="http://www.w3.org/2000/svg" xmlns:xlink="http://www.w3.org/1999/xlink">
<g id="graph0" class="graph" transform="scale(1 1) rotate(0) translate(4 263.99)">
<title>gemv_generic_impl</title>
<!-- Node1 -->
<g id="node1" class="node">
<title>Node1</title>
<g id="a_node1"><a xlink:title="Generic C GEMV: y = W * x (+bias), optional blocked&#45;K layout.">
<polygon fill="#bfbfbf" stroke="black" points="924,-1.99 924,-20.99 1037,-20.99 1037,-1.99 924,-1.99"/>
<text text-anchor="middle" x="980.5" y="-8.99" font-family="Helvetica,sans-Serif" font-size="10.00">gemv_generic_impl</text>
</a>
</g>
</g>
<!-- Node2 -->
<g id="node2" class="node">
<title>Node2</title>
<g id="a_node2"><a xlink:href="ie__kernels_8h.html#a1b919f71b86ec1791fe53bc68d5c240d" target="_top" xlink:title="Install the best available CPU kernels at runtime.">
<polygon fill="none" stroke="black" points="787,-1.99 787,-20.99 888,-20.99 888,-1.99 787,-1.99"/>
<text text-anchor="middle" x="837.5" y="-8.99" font-family="Helvetica,sans-Serif" font-size="10.00">ie_kernels_install</text>
</a>
</g>
</g>
<!-- Node1&#45;&gt;Node2 -->
<g id="edge1" class="edge">
<title>Node1&#45;&gt;Node2</title>
<path fill="none" stroke="midnightblue" d="M913.52,-11.49C905.05,-11.49 896.49,-11.49 888.34,-11.49"/>
<polygon fill="midnightblue" stroke="midnightblue" points="913.77,-14.99 923.77,-11.49 913.77,-7.99 913.77,-14.99"/>
</g>
<!-- Node3 -->
<g id="node3" class="node">
<title>Node3</title>
<g id="a_node3"><a xlink:href="ie__kernels_8h.html#a4e112b3396ed21919f404631c1d4d7fb" target="_top" xlink:title="GEMV: y[r] = dot(W[r, :], x) [+ bias[r]] for r in [0, rows).">
<polygon fill="none" stroke="black" points="671,-47.99 671,-66.99 751,-66.99 751,-47.99 671,-47.99"/>
<text text-anchor="middle" x="711" y="-54.99" font-family="Helvetica,sans-Serif" font-size="10.00">ie_gemv_f32</text>
</a>
</g>
</g>
<!-- Node2&#45;&gt;Node3 -->
<g id="edge2" class="edge">
<title>Node2&#45;&gt;Node3</title>
<path fill="none" stroke="midnightblue" d="M801.21,-24.53C781.01,-31.99 756.12,-41.19 737.76,-47.97"/>
<polygon fill="midnightblue" stroke="midnightblue" points="802.54,-27.77 810.7,-21.02 800.11,-21.2 802.54,-27.77"/>
</g>
<!-- Node13 -->
<g id="node13" class="node">
<title>Node13</title>
<g id="a_node13"><a xlink:href="test__kernels_8c.html#a840291bc02cba5474a4cb46a9b9566fe" target="_top" xlink:title="Program entry: run all kernel tests and print &quot;ok test_kernels&quot; on success.">
<polygon fill="none" stroke="black" points="409,-23.99 409,-42.99 450,-42.99 450,-23.99 409,-23.99"/>
<text text-anchor="middle" x="429.5" y="-30.99" font-family="Helvetica,sans-Serif" font-size="10.00">main</text>
</a>
</g>
</g>
<!-- Node2&#45;&gt;Node13 -->
<g id="edge20" class="edge">
<title>Node2&#45;&gt;Node13</title>
<path fill="none" stroke="midnightblue" d="M776.85,-5.52C712.03,-0.29 605.58,4.63 515,-8.49 492.29,-11.78 467.18,-19.79 450.28,-25.87"/>
<polygon fill="midnightblue" stroke="midnightblue" points="776.63,-9.01 786.89,-6.36 777.22,-2.04 776.63,-9.01"/>
</g>
<!-- Node4 -->
<g id="node4" class="node">
<title>Node4</title>
<g id="a_node4"><a xlink:href="ie__device__common_8c.html#a4fb9bb01bfbe71517f9df925ba9c93ec" target="_top" xlink:title="Execute dense GEMV FP32 on CPU using existing kernels.">
<polygon fill="none" stroke="black" points="531,-116.99 531,-135.99 619,-135.99 619,-116.99 531,-116.99"/>
<text text-anchor="middle" x="575" y="-123.99" font-family="Helvetica,sans-Serif" font-size="10.00">cpu_gemv_f32</text>
</a>
</g>
</g>
<!-- Node3&#45;&gt;Node4 -->
<g id="edge3" class="edge">
<title>Node3&#45;&gt;Node4</title>
<path fill="none" stroke="midnightblue" d="M689.28,-73.07C674.67,-83.53 654.34,-97.08 635,-106.49 626.83,-110.46 617.67,-113.98 609.05,-116.92"/>
<polygon fill="midnightblue" stroke="midnightblue" points="691.56,-75.74 697.58,-67.02 687.44,-70.08 691.56,-75.74"/>
</g>
<!-- Node12 -->
<g id="node12" class="node">
<title>Node12</title>
<g id="a_node12"><a xlink:href="test__kernels_8c.html#a0ac9b0c3b1d865ef69bd2bc69d14a685" target="_top" xlink:title="Test: GEMV without bias, row&#45;major, blk_k=0.">
<polygon fill="none" stroke="black" points="515,-67.49 515,-97.49 635,-97.49 635,-67.49 515,-67.49"/>
<text text-anchor="start" x="523" y="-85.49" font-family="Helvetica,sans-Serif" font-size="10.00">test_gemv_rowmajor</text>
<text text-anchor="middle" x="575" y="-74.49" font-family="Helvetica,sans-Serif" font-size="10.00">_no_bias</text>
</a>
</g>
</g>
<!-- Node3&#45;&gt;Node12 -->
<g id="edge16" class="edge">
<title>Node3&#45;&gt;Node12</title>
<path fill="none" stroke="midnightblue" d="M660.89,-66.65C652.5,-68.22 643.71,-69.86 635.1,-71.46"/>
<polygon fill="midnightblue" stroke="midnightblue" points="661.69,-70.06 670.88,-64.79 660.41,-63.18 661.69,-70.06"/>
</g>
<!-- Node14 -->
<g id="node14" class="node">
<title>Node14</title>
<g id="a_node14"><a xlink:href="test__kernels_8c.html#a2305be22b4279f3ac4d55f90584569cb" target="_top" xlink:title="Test: GEMV with bias epilogue, row&#45;major, blk_k=0.">
<polygon fill="none" stroke="black" points="515,-18.49 515,-48.49 635,-48.49 635,-18.49 515,-18.49"/>
<text text-anchor="start" x="523" y="-36.49" font-family="Helvetica,sans-Serif" font-size="10.00">test_gemv_rowmajor</text>
<text text-anchor="middle" x="575" y="-25.49" font-family="Helvetica,sans-Serif" font-size="10.00">_with_bias</text>
</a>
</g>
</g>
<!-- Node3&#45;&gt;Node14 -->
<g id="edge18" class="edge">
<title>Node3&#45;&gt;Node14</title>
<path fill="none" stroke="midnightblue" d="M660.89,-48.69C652.5,-47.19 643.71,-45.62 635.1,-44.07"/>
<polygon fill="midnightblue" stroke="midnightblue" points="660.42,-52.16 670.88,-50.48 661.66,-45.27 660.42,-52.16"/>
</g>
<!-- Node5 -->
<g id="node5" class="node">
<title>Node5</title>
<g id="a_node5"><a xlink:href="ie__device_8h.html#a3e42fcc4b9579a9bf14520cb1afe733b" target="_top" xlink:title="Create a device handle for the requested kind (with fallback).">
<polygon fill="none" stroke="black" points="380,-116.99 380,-135.99 479,-135.99 479,-116.99 380,-116.99"/>
<text text-anchor="middle" x="429.5" y="-123.99" font-family="Helvetica,sans-Serif" font-size="10.00">ie_device_create</text>
</a>
</g>
</g>
<!-- Node4&#45;&gt;Node5 -->
<g id="edge4" class="edge">
<title>Node4&#45;&gt;Node5</title>
<path fill="none" stroke="midnightblue" d="M520.73,-126.49C507.07,-126.49 492.46,-126.49 479.05,-126.49"/>
<polygon fill="midnightblue" stroke="midnightblue" points="520.95,-129.99 530.95,-126.49 520.95,-122.99 520.95,-129.99"/>
</g>
<!-- Node6 -->
<g id="node6" class="node">
<title>Node6</title>
<g id="a_node6"><a xlink:href="ie__device_8h.html#ae46eb0813b9477e0f3f2084c4d52d33e" target="_top" xlink:title="Block&#45;sparse GEMV (FP32): y = W * x (+ optional bias).">
<polygon fill="none" stroke="black" points="216,-211.49 216,-241.49 344,-241.49 344,-211.49 216,-211.49"/>
<text text-anchor="start" x="224" y="-229.49" font-family="Helvetica,sans-Serif" font-size="10.00">ie_device_gemv_block</text>
<text text-anchor="middle" x="280" y="-218.49" font-family="Helvetica,sans-Serif" font-size="10.00">_sparse_f32</text>
</a>
</g>
</g>
<!-- Node5&#45;&gt;Node6 -->
<g id="edge5" class="edge">
<title>Node5&#45;&gt;Node6</title>
<path fill="none" stroke="midnightblue" d="M412.47,-143.86C396.43,-160.44 370.41,-185.23 344,-201.49 337.99,-205.19 331.33,-208.53 324.67,-211.47"/>
<polygon fill="midnightblue" stroke="midnightblue" points="415.15,-146.12 419.5,-136.46 410.08,-141.3 415.15,-146.12"/>
</g>
<!-- Node7 -->
<g id="node7" class="node">
<title>Node7</title>
<g id="a_node7"><a xlink:href="ie__device_8h.html#af9a99d92974f072775057b5def388b77" target="_top" xlink:title="Device&#45;side GEMV (FP32): y = W * x (+ optional bias).">
<polygon fill="none" stroke="black" points="221.5,-154.99 221.5,-173.99 338.5,-173.99 338.5,-154.99 221.5,-154.99"/>
<text text-anchor="middle" x="280" y="-161.99" font-family="Helvetica,sans-Serif" font-size="10.00">ie_device_gemv_f32</text>
</a>
</g>
</g>
<!-- Node5&#45;&gt;Node7 -->
<g id="edge7" class="edge">
<title>Node5&#45;&gt;Node7</title>
<path fill="none" stroke="midnightblue" d="M381.49,-138.6C360.94,-143.89 337.2,-150.01 317.95,-154.97"/>
<polygon fill="midnightblue" stroke="midnightblue" points="382.47,-141.96 391.28,-136.08 380.72,-135.18 382.47,-141.96"/>
</g>
<!-- Node8 -->
<g id="node8" class="node">
<title>Node8</title>
<g id="a_node8"><a xlink:href="test__device_8c.html#a548e6227513ac3fd772219dad3b0de22" target="_top" xlink:title="Ensure GPU request gracefully falls back to a working GEMV.">
<polygon fill="none" stroke="black" points="77,-116.99 77,-135.99 180,-135.99 180,-116.99 77,-116.99"/>
<text text-anchor="middle" x="128.5" y="-123.99" font-family="Helvetica,sans-Serif" font-size="10.00">test_gpu_fallback</text>
</a>
</g>
</g>
<!-- Node5&#45;&gt;Node8 -->
<g id="edge15" class="edge">
<title>Node5&#45;&gt;Node8</title>
<path fill="none" stroke="midnightblue" d="M369.46,-126.49C314.21,-126.49 232.55,-126.49 180.18,-126.49"/>
<polygon fill="midnightblue" stroke="midnightblue" points="369.8,-129.99 379.8,-126.49 369.79,-122.99 369.8,-129.99"/>
</g>
<!-- Node10 -->
<g id="node10" class="node">
<title>Node10</title>
<g id="a_node10"><a xlink:href="ie__device_8h.html#ad8fe47f93fa5e18c7cf07a153f1de2fb" target="_top" xlink:title="Copy memory using the device backend.">
<polygon fill="none" stroke="black" points="224.5,-60.99 224.5,-79.99 335.5,-79.99 335.5,-60.99 224.5,-60.99"/>
<text text-anchor="middle" x="280" y="-67.99" font-family="Helvetica,sans-Serif" font-size="10.00">ie_device_memcpy</text>
</a>
</g>
</g>
<!-- Node5&#45;&gt;Node10 -->
<g id="edge11" class="edge">
<title>Node5&#45;&gt;Node10</title>
<path fill="none" stroke="midnightblue" d="M393.7,-113.28C366.77,-103.05 330.12,-89.14 306.03,-79.99"/>
<polygon fill="midnightblue" stroke="midnightblue" points="392.55,-116.58 403.14,-116.86 395.04,-110.04 392.55,-116.58"/>
</g>
<!-- Node11 -->
<g id="node11" class="node">
<title>Node11</title>
<g id="a_node11"><a xlink:href="test__device_8c.html#a7b62f3db43117555c60ec59d19c7c8d6" target="_top" xlink:title="Verify CPU device exposes GEMV capability.">
<polygon fill="none" stroke="black" points="85.5,-50.99 85.5,-69.99 171.5,-69.99 171.5,-50.99 85.5,-50.99"/>
<text text-anchor="middle" x="128.5" y="-57.99" font-family="Helvetica,sans-Serif" font-size="10.00">test_cpu_caps</text>
</a>
</g>
</g>
<!-- Node5&#45;&gt;Node11 -->
<g id="edge13" class="edge">
<title>Node5&#45;&gt;Node11</title>
<path fill="none" stroke="midnightblue" d="M415.06,-108.57C400.06,-90.24 373.94,-62.86 344,-51.49 283.89,-28.66 207.4,-40.68 163.89,-50.95"/>
<polygon fill="midnightblue" stroke="midnightblue" points="412.56,-111.05 421.49,-116.74 418.05,-106.72 412.56,-111.05"/>
</g>
<!-- Node6&#45;&gt;Node6 -->
<g id="edge6" class="edge">
<title>Node6&#45;&gt;Node6</title>
<path fill="none" stroke="midnightblue" d="M306.3,-251.95C303.03,-256.67 294.27,-259.99 280,-259.99 256.59,-259.99 247.99,-251.04 254.21,-241.65"/>
<polygon fill="midnightblue" stroke="midnightblue" points="309.78,-251.46 305.79,-241.65 302.79,-251.81 309.78,-251.46"/>
</g>
<!-- Node7&#45;&gt;Node7 -->
<g id="edge8" class="edge">
<title>Node7&#45;&gt;Node7</title>
<path fill="none" stroke="midnightblue" d="M307.63,-183.14C306.47,-188.42 297.26,-192.49 280,-192.49 253.7,-192.49 246.09,-183.05 257.19,-174.24"/>
<polygon fill="midnightblue" stroke="midnightblue" points="310.65,-181.37 302.81,-174.24 304.49,-184.71 310.65,-181.37"/>
</g>
<!-- Node7&#45;&gt;Node8 -->
<g id="edge9" class="edge">
<title>Node7&#45;&gt;Node8</title>
<path fill="none" stroke="midnightblue" d="M231.35,-152.38C210.53,-147.08 186.46,-140.97 166.95,-136.01"/>
<polygon fill="midnightblue" stroke="midnightblue" points="230.72,-155.83 241.27,-154.9 232.45,-149.04 230.72,-155.83"/>
</g>
<!-- Node9 -->
<g id="node9" class="node">
<title>Node9</title>
<g id="a_node9"><a xlink:href="test__device_8c.html#a840291bc02cba5474a4cb46a9b9566fe" target="_top" xlink:title="Test entry point.">
<polygon fill="none" stroke="black" points="0,-69.99 0,-88.99 41,-88.99 41,-69.99 0,-69.99"/>
<text text-anchor="middle" x="20.5" y="-76.99" font-family="Helvetica,sans-Serif" font-size="10.00">main</text>
</a>
</g>
</g>
<!-- Node8&#45;&gt;Node9 -->
<g id="edge10" class="edge">
<title>Node8&#45;&gt;Node9</title>
<path fill="none" stroke="midnightblue" d="M96.59,-112.78C78.68,-104.84 56.68,-95.09 41.13,-88.19"/>
<polygon fill="midnightblue" stroke="midnightblue" points="95.49,-116.12 106.05,-116.98 98.33,-109.72 95.49,-116.12"/>
</g>
<!-- Node10&#45;&gt;Node10 -->
<g id="edge12" class="edge">
<title>Node10&#45;&gt;Node10</title>
<path fill="none" stroke="midnightblue" d="M307.63,-89.14C306.47,-94.42 297.26,-98.49 280,-98.49 253.7,-98.49 246.09,-89.05 257.19,-80.24"/>
<polygon fill="midnightblue" stroke="midnightblue" points="310.65,-87.37 302.81,-80.24 304.49,-90.71 310.65,-87.37"/>
</g>
<!-- Node11&#45;&gt;Node9 -->
<g id="edge14" class="edge">
<title>Node11&#45;&gt;Node9</title>
<path fill="none" stroke="midnightblue" d="M75.18,-69.87C63.04,-72.04 50.86,-74.22 41.18,-75.96"/>
<polygon fill="midnightblue" stroke="midnightblue" points="76.08,-73.26 85.3,-68.05 74.84,-66.37 76.08,-73.26"/>
</g>
<!-- Node12&#45;&gt;Node13 -->
<g id="edge17" class="edge">
<title>Node12&#45;&gt;Node13</title>
<path fill="none" stroke="midnightblue" d="M520.18,-64.11C495.6,-55.72 468.04,-46.3 450.03,-40.16"/>
<polygon fill="midnightblue" stroke="midnightblue" points="519.18,-67.47 529.77,-67.39 521.44,-60.84 519.18,-67.47"/>
</g>
<!-- Node14&#45;&gt;Node13 -->
<g id="edge19" class="edge">
<title>Node14&#45;&gt;Node13</title>
<path fill="none" stroke="midnightblue" d="M504.75,-33.49C484.8,-33.49 464.6,-33.49 450.31,-33.49"/>
<polygon fill="midnightblue" stroke="midnightblue" points="504.8,-36.99 514.8,-33.49 504.8,-29.99 504.8,-36.99"/>
</g>
</g>
</svg>
