<?xml version="1.0" encoding="UTF-8" standalone="no"?>
<!DOCTYPE svg PUBLIC "-//W3C//DTD SVG 1.1//EN"
 "http://www.w3.org/Graphics/SVG/1.1/DTD/svg11.dtd">
<!-- Generated by graphviz version 2.43.0 (0)
 -->
<!-- Title: ie_bf16_tp_init Pages: 1 -->
<svg width="517pt" height="82pt"
 viewBox="0.00 0.00 517.00 82.00" xmlns="http://www.w3.org/2000/svg" xmlns:xlink="http://www.w3.org/1999/xlink">
<g id="graph0" class="graph" transform="scale(1 1) rotate(0) translate(4 78)">
<title>ie_bf16_tp_init</title>
<!-- Node1 -->
<g id="Node000001" class="node">
<title>Node1</title>
<g id="a_Node000001"><a xlink:title=" ">
<polygon fill="#999999" stroke="#666666" points="89,-55 0,-55 0,-36 89,-36 89,-55"/>
<text text-anchor="middle" x="44.5" y="-43" font-family="Helvetica,sans-Serif" font-size="10.00">ie_bf16_tp_init</text>
</a>
</g>
</g>
<!-- Node2 -->
<g id="Node000002" class="node">
<title>Node2</title>
<g id="a_Node000002"><a xlink:href="gemv__generic_8c.html#a6d5a8fa1873b2a46dd1d027fba8d823e" target="_top" xlink:title=" ">
<polygon fill="white" stroke="#666666" points="243,-74 125,-74 125,-55 243,-55 243,-74"/>
<text text-anchor="middle" x="184" y="-62" font-family="Helvetica,sans-Serif" font-size="10.00">ie_bf16_threads_env</text>
</a>
</g>
</g>
<!-- Node1&#45;&gt;Node2 -->
<g id="edge1_Node000001_Node000002" class="edge">
<title>Node1&#45;&gt;Node2</title>
<g id="a_edge1_Node000001_Node000002"><a xlink:title=" ">
<path fill="none" stroke="#63b8ff" d="M89.01,-51.51C97.15,-52.64 105.84,-53.84 114.53,-55.04"/>
<polygon fill="#63b8ff" stroke="#63b8ff" points="114.3,-58.54 124.69,-56.44 115.26,-51.61 114.3,-58.54"/>
</a>
</g>
</g>
<!-- Node3 -->
<g id="Node000003" class="node">
<title>Node3</title>
<g id="a_Node000003"><a xlink:href="thread__pool_8c.html#ac8f8095fb1ec189946232325a3fce3a2" target="_top" xlink:title="Create a thread pool.">
<polygon fill="white" stroke="#666666" points="222.5,-37 145.5,-37 145.5,-18 222.5,-18 222.5,-37"/>
<text text-anchor="middle" x="184" y="-25" font-family="Helvetica,sans-Serif" font-size="10.00">ie_tp_create</text>
</a>
</g>
</g>
<!-- Node1&#45;&gt;Node3 -->
<g id="edge2_Node000001_Node000003" class="edge">
<title>Node1&#45;&gt;Node3</title>
<g id="a_edge2_Node000001_Node000003"><a xlink:title=" ">
<path fill="none" stroke="#63b8ff" d="M89.01,-39.8C103.71,-37.88 120.2,-35.72 135.22,-33.76"/>
<polygon fill="#63b8ff" stroke="#63b8ff" points="135.88,-37.2 145.34,-32.43 134.97,-30.26 135.88,-37.2"/>
</a>
</g>
</g>
<!-- Node4 -->
<g id="Node000004" class="node">
<title>Node4</title>
<g id="a_Node000004"><a xlink:href="thread__pool_8c.html#a76c9a7c2502624899ae3cb5d46c04f7e" target="_top" xlink:title=" ">
<polygon fill="white" stroke="#666666" points="373,-37 279,-37 279,-18 373,-18 373,-37"/>
<text text-anchor="middle" x="326" y="-25" font-family="Helvetica,sans-Serif" font-size="10.00">ie_worker_main</text>
</a>
</g>
</g>
<!-- Node3&#45;&gt;Node4 -->
<g id="edge3_Node000003_Node000004" class="edge">
<title>Node3&#45;&gt;Node4</title>
<g id="a_edge3_Node000003_Node000004"><a xlink:title=" ">
<path fill="none" stroke="#63b8ff" d="M222.52,-27.5C236.74,-27.5 253.25,-27.5 268.82,-27.5"/>
<polygon fill="#63b8ff" stroke="#63b8ff" points="268.88,-31 278.88,-27.5 268.88,-24 268.88,-31"/>
</a>
</g>
</g>
<!-- Node5 -->
<g id="Node000005" class="node">
<title>Node5</title>
<g id="a_Node000005"><a xlink:href="thread__pool_8c.html#a5449dd0e500032916ba5574c066d01fe" target="_top" xlink:title=" ">
<polygon fill="white" stroke="#666666" points="502,-56 416,-56 416,-37 502,-37 502,-56"/>
<text text-anchor="middle" x="459" y="-44" font-family="Helvetica,sans-Serif" font-size="10.00">ie_set_affinity</text>
</a>
</g>
</g>
<!-- Node4&#45;&gt;Node5 -->
<g id="edge4_Node000004_Node000005" class="edge">
<title>Node4&#45;&gt;Node5</title>
<g id="a_edge4_Node000004_Node000005"><a xlink:title=" ">
<path fill="none" stroke="#63b8ff" d="M373.19,-34.2C383.68,-35.72 394.9,-37.35 405.63,-38.9"/>
<polygon fill="#63b8ff" stroke="#63b8ff" points="405.33,-42.4 415.73,-40.37 406.34,-35.47 405.33,-42.4"/>
</a>
</g>
</g>
<!-- Node6 -->
<g id="Node000006" class="node">
<title>Node6</title>
<g id="a_Node000006"><a xlink:href="thread__pool_8c.html#a8e90f396ea74ef6341ce30eac007f1f7" target="_top" xlink:title=" ">
<polygon fill="white" stroke="#666666" points="509,-19 409,-19 409,0 509,0 509,-19"/>
<text text-anchor="middle" x="459" y="-7" font-family="Helvetica,sans-Serif" font-size="10.00">ie_tp_worker_run</text>
</a>
</g>
</g>
<!-- Node4&#45;&gt;Node6 -->
<g id="edge5_Node000004_Node000006" class="edge">
<title>Node4&#45;&gt;Node6</title>
<g id="a_edge5_Node000004_Node000006"><a xlink:title=" ">
<path fill="none" stroke="#63b8ff" d="M373.19,-21.15C381.45,-20.02 390.15,-18.82 398.72,-17.65"/>
<polygon fill="#63b8ff" stroke="#63b8ff" points="399.25,-21.11 408.68,-16.28 398.29,-14.17 399.25,-21.11"/>
</a>
</g>
</g>
</g>
</svg>
