<?xml version="1.0" encoding="UTF-8" standalone="no"?>
<!DOCTYPE svg PUBLIC "-//W3C//DTD SVG 1.1//EN"
 "http://www.w3.org/Graphics/SVG/1.1/DTD/svg11.dtd">
<!-- Generated by graphviz version 2.43.0 (0)
 -->
<!-- Title: ie_q4_0_row_dot_f32 Pages: 1 -->
<!--zoomable 88 -->

<svg id="main" version="1.1" xmlns="http://www.w3.org/2000/svg" xmlns:xlink="http://www.w3.org/1999/xlink" xml:space="preserve" onload="init(evt)">
<style type="text/css"><![CDATA[
.node, .edge {opacity: 0.7;}
.node.selected, .edge.selected {opacity: 1;}
.edge:hover path { stroke: red; }
.edge:hover polygon { stroke: red; fill: red; }
]]></style>

<defs>
  <circle id="rim" cx="0" cy="0" r="7"/>
  <circle id="rim2" cx="0" cy="0" r="3.5"/>
  <g id="zoomPlus">
    <use xlink:href="#rim" fill="#404040"><set attributeName="fill" to="#808080" begin="zoomplus.mouseover" end="zoomplus.mouseout"/></use>
    <path d="M-4,0h8M0,-4v8" fill="none" stroke="white" stroke-width="1.5" pointer-events="none"/>
  </g>
  <g id="zoomMin">
    <use xlink:href="#rim" fill="#404040"><set attributeName="fill" to="#808080" begin="zoomminus.mouseover" end="zoomminus.mouseout"/></use>
    <path d="M-4,0h8" fill="none" stroke="white" stroke-width="1.5" pointer-events="none"/>
  </g>
  <g id="arrowUp" transform="translate(30 24)">
    <use xlink:href="#rim"/>
    <path pointer-events="none" fill="none" stroke="white" stroke-width="1.5" d="M0,-3.0v7 M-2.5,-0.5L0,-3.0L2.5,-0.5"/>
  </g>
  <g id="arrowRight" transform="rotate(90) translate(36 -43)">
    <use xlink:href="#rim"/>
    <path pointer-events="none" fill="none" stroke="white" stroke-width="1.5" d="M0,-3.0v7 M-2.5,-0.5L0,-3.0L2.5,-0.5"/>
  </g>
  <g id="arrowDown" transform="rotate(180) translate(-30 -48)">
    <use xlink:href="#rim"/>
    <path pointer-events="none" fill="none" stroke="white" stroke-width="1.5" d="M0,-3.0v7 M-2.5,-0.5L0,-3.0L2.5,-0.5"/>
  </g>
  <g id="arrowLeft" transform="rotate(270) translate(-36 17)">
    <use xlink:href="#rim"/>
    <path pointer-events="none" fill="none" stroke="white" stroke-width="1.5" d="M0,-3.0v7 M-2.5,-0.5L0,-3.0L2.5,-0.5"/>
  </g>
  <g id="resetDef">
    <use xlink:href="#rim2" fill="#404040"><set attributeName="fill" to="#808080" begin="reset.mouseover" end="reset.mouseout"/></use>
  </g>
</defs>
<script type="application/ecmascript">
var viewWidth = 616;
var viewHeight = 88;
var sectionId = 'dynsection-11';
</script>
<script type="application/ecmascript" xlink:href="svg.min.js"/>
<svg id="graph" class="graph">
<g id="viewport">
<title>ie_q4_0_row_dot_f32</title>
<!-- Node1 -->
<g id="Node000001" class="node">
<title>Node1</title>
<g id="a_Node000001"><a xlink:title="Compute one row dot product for Q4_0 weights.">
<polygon fill="#999999" stroke="#666666" points="119,-60.5 0,-60.5 0,-41.5 119,-41.5 119,-60.5"/>
<text text-anchor="middle" x="59.5" y="-48.5" font-family="Helvetica,sans-Serif" font-size="10.00">ie_q4_0_row_dot_f32</text>
</a>
</g>
</g>
<!-- Node2 -->
<g id="Node000002" class="node">
<title>Node2</title>
<g id="a_Node000002"><a xlink:href="gemv__q4__generic_8c.html#a979c29b3a196ee7fc45c4b7ea5ec8457" target="_top" xlink:title=" ">
<polygon fill="white" stroke="#666666" points="306,-79.5 155,-79.5 155,-60.5 306,-60.5 306,-79.5"/>
<text text-anchor="middle" x="230.5" y="-67.5" font-family="Helvetica,sans-Serif" font-size="10.00">ie_q4_debug_nan_enabled_</text>
</a>
</g>
</g>
<!-- Node1&#45;&gt;Node2 -->
<g id="edge1_Node000001_Node000002" class="edge">
<title>Node1&#45;&gt;Node2</title>
<g id="a_edge1_Node000001_Node000002"><a xlink:title=" ">
<path fill="none" stroke="#63b8ff" d="M119.13,-57.59C127.42,-58.52 136.08,-59.5 144.75,-60.47"/>
<polygon fill="#63b8ff" stroke="#63b8ff" points="144.57,-63.97 154.89,-61.61 145.35,-57.02 144.57,-63.97"/>
</a>
</g>
</g>
<!-- Node3 -->
<g id="Node000003" class="node">
<title>Node3</title>
<g id="a_Node000003"><a xlink:href="gemv__q4__generic_8c.html#a0d62180096534e482fbb8fe67b98e4fd" target="_top" xlink:title="Load a per&#45;block scale value (BF16 or FP8 E4M3) as float.">
<polygon fill="white" stroke="#666666" points="291,-42.5 170,-42.5 170,-23.5 291,-23.5 291,-42.5"/>
<text text-anchor="middle" x="230.5" y="-30.5" font-family="Helvetica,sans-Serif" font-size="10.00">ie_q4_load_scale_f32</text>
</a>
</g>
</g>
<!-- Node1&#45;&gt;Node3 -->
<g id="edge2_Node000001_Node000003" class="edge">
<title>Node1&#45;&gt;Node3</title>
<g id="a_edge2_Node000001_Node000003"><a xlink:title=" ">
<path fill="none" stroke="#63b8ff" d="M119.13,-44.75C132.2,-43.36 146.18,-41.87 159.65,-40.44"/>
<polygon fill="#63b8ff" stroke="#63b8ff" points="160.25,-43.9 169.82,-39.36 159.51,-36.93 160.25,-43.9"/>
</a>
</g>
</g>
<!-- Node4 -->
<g id="Node000004" class="node">
<title>Node4</title>
<g id="a_Node000004"><a xlink:href="gemv__q4__generic_8c.html#afdc87ae238cd923bbf554e36532dc00d" target="_top" xlink:title="Convert a BF16 value stored as a uint16_t to float.">
<polygon fill="white" stroke="#666666" points="465,-61.5 342,-61.5 342,-42.5 465,-42.5 465,-61.5"/>
<text text-anchor="middle" x="403.5" y="-49.5" font-family="Helvetica,sans-Serif" font-size="10.00">ie_bf16_to_f32_scalar</text>
</a>
</g>
</g>
<!-- Node3&#45;&gt;Node4 -->
<g id="edge3_Node000003_Node000004" class="edge">
<title>Node3&#45;&gt;Node4</title>
<g id="a_edge3_Node000003_Node000004"><a xlink:title=" ">
<path fill="none" stroke="#63b8ff" d="M291.31,-39.65C304.35,-41.09 318.28,-42.64 331.71,-44.13"/>
<polygon fill="#63b8ff" stroke="#63b8ff" points="331.53,-47.64 341.86,-45.26 332.31,-40.68 331.53,-47.64"/>
</a>
</g>
</g>
<!-- Node5 -->
<g id="Node000005" class="node">
<title>Node5</title>
<g id="a_Node000005"><a xlink:href="gemv__q4__generic_8c.html#acb45092051d8188cb83e8521544f1a16" target="_top" xlink:title=" ">
<polygon fill="white" stroke="#666666" points="464.5,-24.5 342.5,-24.5 342.5,-5.5 464.5,-5.5 464.5,-24.5"/>
<text text-anchor="middle" x="403.5" y="-12.5" font-family="Helvetica,sans-Serif" font-size="10.00">ie_log2_u8_q3_to_f32</text>
</a>
</g>
</g>
<!-- Node3&#45;&gt;Node5 -->
<g id="edge4_Node000003_Node000005" class="edge">
<title>Node3&#45;&gt;Node5</title>
<g id="a_edge4_Node000003_Node000005"><a xlink:title=" ">
<path fill="none" stroke="#63b8ff" d="M291.31,-26.7C304.51,-25.31 318.61,-23.83 332.18,-22.4"/>
<polygon fill="#63b8ff" stroke="#63b8ff" points="332.86,-25.85 342.44,-21.32 332.13,-18.89 332.86,-25.85"/>
</a>
</g>
</g>
<!-- Node6 -->
<g id="Node000006" class="node">
<title>Node6</title>
<g id="a_Node000006"><a xlink:href="gemv__q4__generic_8c.html#a0b7e711f14a960dd75261e196943ea83" target="_top" xlink:title=" ">
<polygon fill="white" stroke="#666666" points="608,-30 501,-30 501,0 608,0 608,-30"/>
<text text-anchor="start" x="509" y="-18" font-family="Helvetica,sans-Serif" font-size="10.00">ie_log2_u8_q3_init</text>
<text text-anchor="middle" x="554.5" y="-7" font-family="Helvetica,sans-Serif" font-size="10.00">_impl_</text>
</a>
</g>
</g>
<!-- Node5&#45;&gt;Node6 -->
<g id="edge5_Node000005_Node000006" class="edge">
<title>Node5&#45;&gt;Node6</title>
<g id="a_edge5_Node000005_Node000006"><a xlink:title=" ">
<path fill="none" stroke="#63b8ff" d="M464.67,-15C473.27,-15 482.12,-15 490.76,-15"/>
<polygon fill="#63b8ff" stroke="#63b8ff" points="490.77,-18.5 500.77,-15 490.77,-11.5 490.77,-18.5"/>
</a>
</g>
</g>
</g>
</svg>

<g id="navigator" transform="translate(0 0)" fill="#404254">
  <rect fill="#f2f5e9" fill-opacity="0.5" stroke="#606060" stroke-width=".5" x="0" y="0" width="60" height="60"/>
  <use id="zoomplus" xlink:href="#zoomPlus" x="17" y="9" onmousedown="handleZoom(evt,'in')"/>
  <use id="zoomminus" xlink:href="#zoomMin" x="42" y="9" onmousedown="handleZoom(evt,'out')"/>
  <use id="reset" xlink:href="#resetDef" x="30" y="36" onmousedown="handleReset()"/>
   <use id="arrowup" xlink:href="#arrowUp" x="0" y="0" onmousedown="handlePan(0,-1)"/>
  <use id="arrowright" xlink:href="#arrowRight" x="0" y="0" onmousedown="handlePan(1,0)"/>
  <use id="arrowdown" xlink:href="#arrowDown" x="0" y="0" onmousedown="handlePan(0,1)"/>
  <use id="arrowleft" xlink:href="#arrowLeft" x="0" y="0" onmousedown="handlePan(-1,0)"/>
</g>
<svg viewBox="0 0 15 15" width="100%" height="30px" preserveAspectRatio="xMaxYMin meet">
 <g id="arrow_out" transform="scale(0.3 0.3)">
  <a xlink:href="gemv__q4__generic_8c_a9b79eda3b7ade668c70ff76ecb8b4e22_cgraph_org.svg" target="_base">
   <rect id="button" ry="5" rx="5" y="6" x="6" height="38" width="38"
        fill="#f2f5e9" fill-opacity="0.5" stroke="#606060" stroke-width="1.0"/>
   <path id="arrow"
     d="M 11.500037,31.436501 C 11.940474,20.09759 22.043105,11.32322 32.158766,21.979434 L 37.068811,17.246167 C 37.068811,17.246167 37.088388,32 37.088388,32 L 22.160133,31.978069 C 22.160133,31.978069 26.997745,27.140456 26.997745,27.140456 C 18.528582,18.264221 13.291696,25.230495 11.500037,31.436501 z"
     style="fill:#404040;"/>
  </a>
 </g>
</svg>

<style type='text/css'>
<![CDATA[
[data-mouse-over-selected='false'] { opacity: 0.7; }
[data-mouse-over-selected='true']  { opacity: 1.0; }
]]>
</style>
<script type="application/ecmascript"><![CDATA[
document.addEventListener('DOMContentLoaded', (event) => {
  highlightEdges();
  highlightAdjacentNodes();
});
]]></script>
</svg>
