<?xml version="1.0" encoding="UTF-8" standalone="no"?>
<!DOCTYPE svg PUBLIC "-//W3C//DTD SVG 1.1//EN"
 "http://www.w3.org/Graphics/SVG/1.1/DTD/svg11.dtd">
<!-- Generated by graphviz version 2.43.0 (0)
 -->
<!-- Title: ie_gemv_f32 Pages: 1 -->
<!--zoomable 236 -->

<svg id="main" version="1.1" xmlns="http://www.w3.org/2000/svg" xmlns:xlink="http://www.w3.org/1999/xlink" xml:space="preserve" onload="init(evt)">
<style type="text/css"><![CDATA[
.node, .edge {opacity: 0.7;}
.node.selected, .edge.selected {opacity: 1;}
.edge:hover path { stroke: red; }
.edge:hover polygon { stroke: red; fill: red; }
]]></style>

<defs>
  <circle id="rim" cx="0" cy="0" r="7"/>
  <circle id="rim2" cx="0" cy="0" r="3.5"/>
  <g id="zoomPlus">
    <use xlink:href="#rim" fill="#404040"><set attributeName="fill" to="#808080" begin="zoomplus.mouseover" end="zoomplus.mouseout"/></use>
    <path d="M-4,0h8M0,-4v8" fill="none" stroke="white" stroke-width="1.5" pointer-events="none"/>
  </g>
  <g id="zoomMin">
    <use xlink:href="#rim" fill="#404040"><set attributeName="fill" to="#808080" begin="zoomminus.mouseover" end="zoomminus.mouseout"/></use>
    <path d="M-4,0h8" fill="none" stroke="white" stroke-width="1.5" pointer-events="none"/>
  </g>
  <g id="arrowUp" transform="translate(30 24)">
    <use xlink:href="#rim"/>
    <path pointer-events="none" fill="none" stroke="white" stroke-width="1.5" d="M0,-3.0v7 M-2.5,-0.5L0,-3.0L2.5,-0.5"/>
  </g>
  <g id="arrowRight" transform="rotate(90) translate(36 -43)">
    <use xlink:href="#rim"/>
    <path pointer-events="none" fill="none" stroke="white" stroke-width="1.5" d="M0,-3.0v7 M-2.5,-0.5L0,-3.0L2.5,-0.5"/>
  </g>
  <g id="arrowDown" transform="rotate(180) translate(-30 -48)">
    <use xlink:href="#rim"/>
    <path pointer-events="none" fill="none" stroke="white" stroke-width="1.5" d="M0,-3.0v7 M-2.5,-0.5L0,-3.0L2.5,-0.5"/>
  </g>
  <g id="arrowLeft" transform="rotate(270) translate(-36 17)">
    <use xlink:href="#rim"/>
    <path pointer-events="none" fill="none" stroke="white" stroke-width="1.5" d="M0,-3.0v7 M-2.5,-0.5L0,-3.0L2.5,-0.5"/>
  </g>
  <g id="resetDef">
    <use xlink:href="#rim2" fill="#404040"><set attributeName="fill" to="#808080" begin="reset.mouseover" end="reset.mouseout"/></use>
  </g>
</defs>
<script type="application/ecmascript">
var viewWidth = 806;
var viewHeight = 236;
var sectionId = 'dynsection-11';
</script>
<script type="application/ecmascript" xlink:href="svg.min.js"/>
<svg id="graph" class="graph">
<g id="viewport">
<title>ie_gemv_f32</title>
<!-- Node1 -->
<g id="Node000001" class="node">
<title>Node1</title>
<g id="a_Node000001"><a xlink:title="GEMV (fp32): y[r] = dot(W[r,:], x) + (bias ? bias[r] : 0).">
<polygon fill="#999999" stroke="#666666" points="798,-115.5 718,-115.5 718,-96.5 798,-96.5 798,-115.5"/>
<text text-anchor="middle" x="758" y="-103.5" font-family="Helvetica,sans-Serif" font-size="10.00">ie_gemv_f32</text>
</a>
</g>
</g>
<!-- Node2 -->
<g id="Node000002" class="node">
<title>Node2</title>
<g id="a_Node000002"><a xlink:href="ie__device__common_8c.html#a4fb9bb01bfbe71517f9df925ba9c93ec" target="_top" xlink:title="Execute dense GEMV FP32 on CPU using existing kernels.">
<polygon fill="white" stroke="#666666" points="661,-190.5 573,-190.5 573,-171.5 661,-171.5 661,-190.5"/>
<text text-anchor="middle" x="617" y="-178.5" font-family="Helvetica,sans-Serif" font-size="10.00">cpu_gemv_f32</text>
</a>
</g>
</g>
<!-- Node1&#45;&gt;Node2 -->
<g id="edge1_Node000001_Node000002" class="edge">
<title>Node1&#45;&gt;Node2</title>
<g id="a_edge1_Node000001_Node000002"><a xlink:title=" ">
<path fill="none" stroke="#63b8ff" d="M738.94,-122.38C724.46,-134.77 703.13,-151.4 682,-162 674.54,-165.74 666.22,-168.88 658.1,-171.46"/>
<polygon fill="#63b8ff" stroke="#63b8ff" points="741.41,-124.87 746.62,-115.65 736.79,-119.61 741.41,-124.87"/>
</a>
</g>
</g>
<!-- Node10 -->
<g id="Node000010" class="node">
<title>Node10</title>
<g id="a_Node000010"><a xlink:href="infer__gptoss_8c.html#a463151430d9b4dce6eae9210c3c598f0" target="_top" xlink:title=" ">
<polygon fill="white" stroke="#666666" points="679,-152.5 555,-152.5 555,-133.5 679,-133.5 679,-152.5"/>
<text text-anchor="middle" x="617" y="-140.5" font-family="Helvetica,sans-Serif" font-size="10.00">ie_forward_one_token</text>
</a>
</g>
</g>
<!-- Node1&#45;&gt;Node10 -->
<g id="edge10_Node000001_Node000010" class="edge">
<title>Node1&#45;&gt;Node10</title>
<g id="a_edge10_Node000001_Node000010"><a xlink:title=" ">
<path fill="none" stroke="#63b8ff" d="M711.47,-118.12C692.87,-123.07 671.66,-128.72 654.16,-133.38"/>
<polygon fill="#63b8ff" stroke="#63b8ff" points="712.44,-121.48 721.2,-115.53 710.64,-114.72 712.44,-121.48"/>
</a>
</g>
</g>
<!-- Node16 -->
<g id="Node000016" class="node">
<title>Node16</title>
<g id="a_Node000016"><a xlink:href="mlp__cpu_8c.html#a8a3953a6293e3c65e33e01b746d9b0a2" target="_top" xlink:title="SwiGLU MLP forward (FP32 reference).">
<polygon fill="white" stroke="#666666" points="682,-115.5 552,-115.5 552,-96.5 682,-96.5 682,-115.5"/>
<text text-anchor="middle" x="617" y="-103.5" font-family="Helvetica,sans-Serif" font-size="10.00">ie_mlp_cpu_swiglu_f32</text>
</a>
</g>
</g>
<!-- Node1&#45;&gt;Node16 -->
<g id="edge21_Node000001_Node000016" class="edge">
<title>Node1&#45;&gt;Node16</title>
<g id="a_edge21_Node000001_Node000016"><a xlink:title=" ">
<path fill="none" stroke="#63b8ff" d="M707.67,-106C699.37,-106 690.65,-106 682.05,-106"/>
<polygon fill="#63b8ff" stroke="#63b8ff" points="707.91,-109.5 717.91,-106 707.91,-102.5 707.91,-109.5"/>
</a>
</g>
</g>
<!-- Node17 -->
<g id="Node000017" class="node">
<title>Node17</title>
<g id="a_Node000017"><a xlink:href="test__kernels_8c.html#a0ac9b0c3b1d865ef69bd2bc69d14a685" target="_top" xlink:title="Test: GEMV without bias, row&#45;major, blk_k=0.">
<polygon fill="white" stroke="#666666" points="677,-30 557,-30 557,0 677,0 677,-30"/>
<text text-anchor="start" x="565" y="-18" font-family="Helvetica,sans-Serif" font-size="10.00">test_gemv_rowmajor</text>
<text text-anchor="middle" x="617" y="-7" font-family="Helvetica,sans-Serif" font-size="10.00">_no_bias</text>
</a>
</g>
</g>
<!-- Node1&#45;&gt;Node17 -->
<g id="edge22_Node000001_Node000017" class="edge">
<title>Node1&#45;&gt;Node17</title>
<g id="a_edge22_Node000001_Node000017"><a xlink:title=" ">
<path fill="none" stroke="#63b8ff" d="M741.13,-88.57C726.85,-73.74 704.69,-52.72 682,-39 676.52,-35.68 670.5,-32.7 664.42,-30.05"/>
<polygon fill="#63b8ff" stroke="#63b8ff" points="738.8,-91.21 748.2,-96.09 743.9,-86.41 738.8,-91.21"/>
</a>
</g>
</g>
<!-- Node19 -->
<g id="Node000019" class="node">
<title>Node19</title>
<g id="a_Node000019"><a xlink:href="test__kernels_8c.html#a2305be22b4279f3ac4d55f90584569cb" target="_top" xlink:title="Test: GEMV with bias epilogue, row&#45;major, blk_k=0.">
<polygon fill="white" stroke="#666666" points="677,-78 557,-78 557,-48 677,-48 677,-78"/>
<text text-anchor="start" x="565" y="-66" font-family="Helvetica,sans-Serif" font-size="10.00">test_gemv_rowmajor</text>
<text text-anchor="middle" x="617" y="-55" font-family="Helvetica,sans-Serif" font-size="10.00">_with_bias</text>
</a>
</g>
</g>
<!-- Node1&#45;&gt;Node19 -->
<g id="edge24_Node000001_Node000019" class="edge">
<title>Node1&#45;&gt;Node19</title>
<g id="a_edge24_Node000001_Node000019"><a xlink:title=" ">
<path fill="none" stroke="#63b8ff" d="M716.29,-93.41C700.7,-88.58 682.76,-83.03 666.51,-78.01"/>
<polygon fill="#63b8ff" stroke="#63b8ff" points="715.56,-96.85 726.15,-96.46 717.63,-90.16 715.56,-96.85"/>
</a>
</g>
</g>
<!-- Node3 -->
<g id="Node000003" class="node">
<title>Node3</title>
<g id="a_Node000003"><a xlink:href="ie__device__common_8c.html#a3e42fcc4b9579a9bf14520cb1afe733b" target="_top" xlink:title="Create a device handle for the requested kind (with fallback).">
<polygon fill="white" stroke="#666666" points="340.5,-190.5 241.5,-190.5 241.5,-171.5 340.5,-171.5 340.5,-190.5"/>
<text text-anchor="middle" x="291" y="-178.5" font-family="Helvetica,sans-Serif" font-size="10.00">ie_device_create</text>
</a>
</g>
</g>
<!-- Node2&#45;&gt;Node3 -->
<g id="edge2_Node000002_Node000003" class="edge">
<title>Node2&#45;&gt;Node3</title>
<g id="a_edge2_Node000002_Node000003"><a xlink:title=" ">
<path fill="none" stroke="#63b8ff" d="M562.68,-181C501.03,-181 400.41,-181 340.76,-181"/>
<polygon fill="#63b8ff" stroke="#63b8ff" points="562.98,-184.5 572.98,-181 562.98,-177.5 562.98,-184.5"/>
</a>
</g>
</g>
<!-- Node4 -->
<g id="Node000004" class="node">
<title>Node4</title>
<g id="a_Node000004"><a xlink:href="ie__api_8c.html#a84bd87043352946e9d53b0f8a5c4abe0" target="_top" xlink:title="Create an engine instance.">
<polygon fill="white" stroke="#666666" points="183.5,-153.5 83.5,-153.5 83.5,-134.5 183.5,-134.5 183.5,-153.5"/>
<text text-anchor="middle" x="133.5" y="-141.5" font-family="Helvetica,sans-Serif" font-size="10.00">ie_engine_create</text>
</a>
</g>
</g>
<!-- Node3&#45;&gt;Node4 -->
<g id="edge3_Node000003_Node000004" class="edge">
<title>Node3&#45;&gt;Node4</title>
<g id="a_edge3_Node000003_Node000004"><a xlink:title=" ">
<path fill="none" stroke="#63b8ff" d="M240.17,-169.14C219.01,-164.11 194.66,-158.32 174.68,-153.56"/>
<polygon fill="#63b8ff" stroke="#63b8ff" points="239.42,-172.56 249.95,-171.47 241.04,-165.75 239.42,-172.56"/>
</a>
</g>
</g>
<!-- Node7 -->
<g id="Node000007" class="node">
<title>Node7</title>
<g id="a_Node000007"><a xlink:href="test__device_8c.html#a7b62f3db43117555c60ec59d19c7c8d6" target="_top" xlink:title="Verify CPU device exposes GEMV capability.">
<polygon fill="white" stroke="#666666" points="176.5,-190.5 90.5,-190.5 90.5,-171.5 176.5,-171.5 176.5,-190.5"/>
<text text-anchor="middle" x="133.5" y="-178.5" font-family="Helvetica,sans-Serif" font-size="10.00">test_cpu_caps</text>
</a>
</g>
</g>
<!-- Node3&#45;&gt;Node7 -->
<g id="edge6_Node000003_Node000007" class="edge">
<title>Node3&#45;&gt;Node7</title>
<g id="a_edge6_Node000003_Node000007"><a xlink:title=" ">
<path fill="none" stroke="#63b8ff" d="M231.04,-181C212.9,-181 193.31,-181 176.55,-181"/>
<polygon fill="#63b8ff" stroke="#63b8ff" points="231.23,-184.5 241.23,-181 231.23,-177.5 231.23,-184.5"/>
</a>
</g>
</g>
<!-- Node9 -->
<g id="Node000009" class="node">
<title>Node9</title>
<g id="a_Node000009"><a xlink:href="test__device_8c.html#a548e6227513ac3fd772219dad3b0de22" target="_top" xlink:title="Ensure GPU request gracefully falls back to a working GEMV.">
<polygon fill="white" stroke="#666666" points="185,-227.5 82,-227.5 82,-208.5 185,-208.5 185,-227.5"/>
<text text-anchor="middle" x="133.5" y="-215.5" font-family="Helvetica,sans-Serif" font-size="10.00">test_gpu_fallback</text>
</a>
</g>
</g>
<!-- Node3&#45;&gt;Node9 -->
<g id="edge8_Node000003_Node000009" class="edge">
<title>Node3&#45;&gt;Node9</title>
<g id="a_edge8_Node000003_Node000009"><a xlink:title=" ">
<path fill="none" stroke="#63b8ff" d="M240.17,-192.86C219.01,-197.89 194.66,-203.68 174.68,-208.44"/>
<polygon fill="#63b8ff" stroke="#63b8ff" points="241.04,-196.25 249.95,-190.53 239.42,-189.44 241.04,-196.25"/>
</a>
</g>
</g>
<!-- Node5 -->
<g id="Node000005" class="node">
<title>Node5</title>
<g id="a_Node000005"><a xlink:href="main__infer_8c.html#a3c04138a5bfe5d72780bb7e82a18e627" target="_top" xlink:title="main.">
<polygon fill="white" stroke="#666666" points="41,-116.5 0,-116.5 0,-97.5 41,-97.5 41,-116.5"/>
<text text-anchor="middle" x="20.5" y="-104.5" font-family="Helvetica,sans-Serif" font-size="10.00">main</text>
</a>
</g>
</g>
<!-- Node4&#45;&gt;Node5 -->
<g id="edge4_Node000004_Node000005" class="edge">
<title>Node4&#45;&gt;Node5</title>
<g id="a_edge4_Node000004_Node000005"><a xlink:title=" ">
<path fill="none" stroke="#63b8ff" d="M94.32,-131.27C76.46,-125.32 55.94,-118.48 41.24,-113.58"/>
<polygon fill="#63b8ff" stroke="#63b8ff" points="93.32,-134.63 103.91,-134.47 95.53,-127.99 93.32,-134.63"/>
</a>
</g>
</g>
<!-- Node6 -->
<g id="Node000006" class="node">
<title>Node6</title>
<g id="a_Node000006"><a xlink:href="test__api_8c.html#a840291bc02cba5474a4cb46a9b9566fe" target="_top" xlink:title=" ">
<polygon fill="white" stroke="#666666" points="41,-153.5 0,-153.5 0,-134.5 41,-134.5 41,-153.5"/>
<text text-anchor="middle" x="20.5" y="-141.5" font-family="Helvetica,sans-Serif" font-size="10.00">main</text>
</a>
</g>
</g>
<!-- Node4&#45;&gt;Node6 -->
<g id="edge5_Node000004_Node000006" class="edge">
<title>Node4&#45;&gt;Node6</title>
<g id="a_edge5_Node000004_Node000006"><a xlink:title=" ">
<path fill="none" stroke="#63b8ff" d="M73.26,-144C61.62,-144 50.21,-144 41.07,-144"/>
<polygon fill="#63b8ff" stroke="#63b8ff" points="73.49,-147.5 83.49,-144 73.49,-140.5 73.49,-147.5"/>
</a>
</g>
</g>
<!-- Node8 -->
<g id="Node000008" class="node">
<title>Node8</title>
<g id="a_Node000008"><a xlink:href="test__device_8c.html#a840291bc02cba5474a4cb46a9b9566fe" target="_top" xlink:title="Test entry point.">
<polygon fill="white" stroke="#666666" points="41,-208.5 0,-208.5 0,-189.5 41,-189.5 41,-208.5"/>
<text text-anchor="middle" x="20.5" y="-196.5" font-family="Helvetica,sans-Serif" font-size="10.00">main</text>
</a>
</g>
</g>
<!-- Node7&#45;&gt;Node8 -->
<g id="edge7_Node000007_Node000008" class="edge">
<title>Node7&#45;&gt;Node8</title>
<g id="a_edge7_Node000007_Node000008"><a xlink:title=" ">
<path fill="none" stroke="#63b8ff" d="M80.16,-189.49C66.22,-191.75 52.01,-194.05 41.06,-195.83"/>
<polygon fill="#63b8ff" stroke="#63b8ff" points="80.91,-192.91 90.22,-187.86 79.79,-186 80.91,-192.91"/>
</a>
</g>
</g>
<!-- Node9&#45;&gt;Node8 -->
<g id="edge9_Node000009_Node000008" class="edge">
<title>Node9&#45;&gt;Node8</title>
<g id="a_edge9_Node000009_Node000008"><a xlink:title=" ">
<path fill="none" stroke="#63b8ff" d="M71.72,-207.6C60.69,-205.71 49.95,-203.87 41.25,-202.38"/>
<polygon fill="#63b8ff" stroke="#63b8ff" points="71.43,-211.1 81.87,-209.33 72.61,-204.2 71.43,-211.1"/>
</a>
</g>
</g>
<!-- Node11 -->
<g id="Node000011" class="node">
<title>Node11</title>
<g id="a_Node000011"><a xlink:href="infer__gptoss_8c.html#a39827a388a0b7dd6d161e99b111c5546" target="_top" xlink:title="Prefill: consume a prompt, update the KV cache, and produce logits.">
<polygon fill="white" stroke="#666666" points="516,-152.5 392,-152.5 392,-133.5 516,-133.5 516,-152.5"/>
<text text-anchor="middle" x="454" y="-140.5" font-family="Helvetica,sans-Serif" font-size="10.00">ie_gptoss_infer_prefill</text>
</a>
</g>
</g>
<!-- Node10&#45;&gt;Node11 -->
<g id="edge11_Node000010_Node000011" class="edge">
<title>Node10&#45;&gt;Node11</title>
<g id="a_edge11_Node000010_Node000011"><a xlink:title=" ">
<path fill="none" stroke="#63b8ff" d="M544.5,-143C535.04,-143 525.42,-143 516.16,-143"/>
<polygon fill="#63b8ff" stroke="#63b8ff" points="544.67,-146.5 554.67,-143 544.67,-139.5 544.67,-146.5"/>
</a>
</g>
</g>
<!-- Node15 -->
<g id="Node000015" class="node">
<title>Node15</title>
<g id="a_Node000015"><a xlink:href="infer__gptoss_8c.html#a52a0e33daf64ca5524b6440cecc8d2f6" target="_top" xlink:title="Step: consume one token, update the KV cache, and produce next logits.">
<polygon fill="white" stroke="#666666" points="512.5,-115.5 395.5,-115.5 395.5,-96.5 512.5,-96.5 512.5,-115.5"/>
<text text-anchor="middle" x="454" y="-103.5" font-family="Helvetica,sans-Serif" font-size="10.00">ie_gptoss_infer_step</text>
</a>
</g>
</g>
<!-- Node10&#45;&gt;Node15 -->
<g id="edge18_Node000010_Node000015" class="edge">
<title>Node10&#45;&gt;Node15</title>
<g id="a_edge18_Node000010_Node000015"><a xlink:title=" ">
<path fill="none" stroke="#63b8ff" d="M564.7,-131.21C542.73,-126.16 517.39,-120.34 496.6,-115.56"/>
<polygon fill="#63b8ff" stroke="#63b8ff" points="564.01,-134.64 574.54,-133.47 565.58,-127.82 564.01,-134.64"/>
</a>
</g>
</g>
<!-- Node12 -->
<g id="Node000012" class="node">
<title>Node12</title>
<g id="a_Node000012"><a xlink:href="ie__api_8c.html#a950ac9a0efe5a4fe068a288e57099c4a" target="_top" xlink:title="Generate tokens and optionally return timing statistics.">
<polygon fill="white" stroke="#666666" points="356,-115.5 226,-115.5 226,-96.5 356,-96.5 356,-115.5"/>
<text text-anchor="middle" x="291" y="-103.5" font-family="Helvetica,sans-Serif" font-size="10.00">ie_engine_generate_ex</text>
</a>
</g>
</g>
<!-- Node11&#45;&gt;Node12 -->
<g id="edge12_Node000011_Node000012" class="edge">
<title>Node11&#45;&gt;Node12</title>
<g id="a_edge12_Node000011_Node000012"><a xlink:title=" ">
<path fill="none" stroke="#63b8ff" d="M401.7,-131.21C379.73,-126.16 354.39,-120.34 333.6,-115.56"/>
<polygon fill="#63b8ff" stroke="#63b8ff" points="401.01,-134.64 411.54,-133.47 402.58,-127.82 401.01,-134.64"/>
</a>
</g>
</g>
<!-- Node14 -->
<g id="Node000014" class="node">
<title>Node14</title>
<g id="a_Node000014"><a xlink:href="generate__gptoss_8c.html#a69606d6441b5c86670cfcc955721a308" target="_top" xlink:title="Generate up to max_new tokens for a prompt string using GPT&#45;OSS.">
<polygon fill="white" stroke="#666666" points="347,-152.5 235,-152.5 235,-133.5 347,-133.5 347,-152.5"/>
<text text-anchor="middle" x="291" y="-140.5" font-family="Helvetica,sans-Serif" font-size="10.00">ie_generate_gptoss</text>
</a>
</g>
</g>
<!-- Node11&#45;&gt;Node14 -->
<g id="edge17_Node000011_Node000014" class="edge">
<title>Node11&#45;&gt;Node14</title>
<g id="a_edge17_Node000011_Node000014"><a xlink:title=" ">
<path fill="none" stroke="#63b8ff" d="M381.59,-143C370.02,-143 358.19,-143 347.09,-143"/>
<polygon fill="#63b8ff" stroke="#63b8ff" points="381.67,-146.5 391.67,-143 381.67,-139.5 381.67,-146.5"/>
</a>
</g>
</g>
<!-- Node12&#45;&gt;Node5 -->
<g id="edge16_Node000012_Node000005" class="edge">
<title>Node12&#45;&gt;Node5</title>
<g id="a_edge16_Node000012_Node000005"><a xlink:title=" ">
<path fill="none" stroke="#63b8ff" d="M238.51,-94.52C195.19,-86.56 131.73,-78.89 77,-88 64.74,-90.04 51.56,-94.45 41.13,-98.51"/>
<polygon fill="#63b8ff" stroke="#63b8ff" points="238.04,-97.99 248.52,-96.43 239.36,-91.12 238.04,-97.99"/>
</a>
</g>
</g>
<!-- Node13 -->
<g id="Node000013" class="node">
<title>Node13</title>
<g id="a_Node000013"><a xlink:href="ie__api_8c.html#ad32cf2cd209832e4cd577a5a1e31970f" target="_top" xlink:title="Generate up to max_new tokens for the given prompt.">
<polygon fill="white" stroke="#666666" points="190,-116.5 77,-116.5 77,-97.5 190,-97.5 190,-116.5"/>
<text text-anchor="middle" x="133.5" y="-104.5" font-family="Helvetica,sans-Serif" font-size="10.00">ie_engine_generate</text>
</a>
</g>
</g>
<!-- Node12&#45;&gt;Node13 -->
<g id="edge13_Node000012_Node000013" class="edge">
<title>Node12&#45;&gt;Node13</title>
<g id="a_edge13_Node000012_Node000013"><a xlink:title=" ">
<path fill="none" stroke="#63b8ff" d="M215.75,-106.48C207.1,-106.53 198.4,-106.59 190.06,-106.64"/>
<polygon fill="#63b8ff" stroke="#63b8ff" points="215.88,-109.98 225.85,-106.41 215.83,-102.98 215.88,-109.98"/>
</a>
</g>
</g>
<!-- Node13&#45;&gt;Node5 -->
<g id="edge14_Node000013_Node000005" class="edge">
<title>Node13&#45;&gt;Node5</title>
<g id="a_edge14_Node000013_Node000005"><a xlink:title=" ">
<path fill="none" stroke="#63b8ff" d="M66.58,-107C57.37,-107 48.56,-107 41.21,-107"/>
<polygon fill="#63b8ff" stroke="#63b8ff" points="66.67,-110.5 76.67,-107 66.67,-103.5 66.67,-110.5"/>
</a>
</g>
</g>
<!-- Node13&#45;&gt;Node6 -->
<g id="edge15_Node000013_Node000006" class="edge">
<title>Node13&#45;&gt;Node6</title>
<g id="a_edge15_Node000013_Node000006"><a xlink:title=" ">
<path fill="none" stroke="#63b8ff" d="M93.17,-119.67C87.73,-121.44 82.23,-123.26 77,-125 65.12,-128.96 51.84,-133.5 41.25,-137.15"/>
<polygon fill="#63b8ff" stroke="#63b8ff" points="94.38,-122.96 102.8,-116.53 92.21,-116.3 94.38,-122.96"/>
</a>
</g>
</g>
<!-- Node15&#45;&gt;Node12 -->
<g id="edge19_Node000015_Node000012" class="edge">
<title>Node15&#45;&gt;Node12</title>
<g id="a_edge19_Node000015_Node000012"><a xlink:title=" ">
<path fill="none" stroke="#63b8ff" d="M385.04,-106C375.45,-106 365.61,-106 356.1,-106"/>
<polygon fill="#63b8ff" stroke="#63b8ff" points="385.33,-109.5 395.33,-106 385.33,-102.5 385.33,-109.5"/>
</a>
</g>
</g>
<!-- Node15&#45;&gt;Node14 -->
<g id="edge20_Node000015_Node000014" class="edge">
<title>Node15&#45;&gt;Node14</title>
<g id="a_edge20_Node000015_Node000014"><a xlink:title=" ">
<path fill="none" stroke="#63b8ff" d="M401.7,-117.79C379.73,-122.84 354.39,-128.66 333.6,-133.44"/>
<polygon fill="#63b8ff" stroke="#63b8ff" points="402.58,-121.18 411.54,-115.53 401.01,-114.36 402.58,-121.18"/>
</a>
</g>
</g>
<!-- Node18 -->
<g id="Node000018" class="node">
<title>Node18</title>
<g id="a_Node000018"><a xlink:href="test__kernels_8c.html#a840291bc02cba5474a4cb46a9b9566fe" target="_top" xlink:title="Program entry: run all kernel tests and print &quot;ok test_kernels&quot; on success.">
<polygon fill="white" stroke="#666666" points="474.5,-48.5 433.5,-48.5 433.5,-29.5 474.5,-29.5 474.5,-48.5"/>
<text text-anchor="middle" x="454" y="-36.5" font-family="Helvetica,sans-Serif" font-size="10.00">main</text>
</a>
</g>
</g>
<!-- Node17&#45;&gt;Node18 -->
<g id="edge23_Node000017_Node000018" class="edge">
<title>Node17&#45;&gt;Node18</title>
<g id="a_edge23_Node000017_Node000018"><a xlink:title=" ">
<path fill="none" stroke="#63b8ff" d="M547.01,-25.28C520.78,-29.19 492.87,-33.35 474.76,-36.05"/>
<polygon fill="#63b8ff" stroke="#63b8ff" points="547.59,-28.74 556.96,-23.8 546.56,-21.81 547.59,-28.74"/>
</a>
</g>
</g>
<!-- Node19&#45;&gt;Node18 -->
<g id="edge25_Node000019_Node000018" class="edge">
<title>Node19&#45;&gt;Node18</title>
<g id="a_edge25_Node000019_Node000018"><a xlink:title=" ">
<path fill="none" stroke="#63b8ff" d="M547.01,-52.72C520.78,-48.81 492.87,-44.65 474.76,-41.95"/>
<polygon fill="#63b8ff" stroke="#63b8ff" points="546.56,-56.19 556.96,-54.2 547.59,-49.26 546.56,-56.19"/>
</a>
</g>
</g>
</g>
</svg>

<g id="navigator" transform="translate(0 0)" fill="#404254">
  <rect fill="#f2f5e9" fill-opacity="0.5" stroke="#606060" stroke-width=".5" x="0" y="0" width="60" height="60"/>
  <use id="zoomplus" xlink:href="#zoomPlus" x="17" y="9" onmousedown="handleZoom(evt,'in')"/>
  <use id="zoomminus" xlink:href="#zoomMin" x="42" y="9" onmousedown="handleZoom(evt,'out')"/>
  <use id="reset" xlink:href="#resetDef" x="30" y="36" onmousedown="handleReset()"/>
   <use id="arrowup" xlink:href="#arrowUp" x="0" y="0" onmousedown="handlePan(0,-1)"/>
  <use id="arrowright" xlink:href="#arrowRight" x="0" y="0" onmousedown="handlePan(1,0)"/>
  <use id="arrowdown" xlink:href="#arrowDown" x="0" y="0" onmousedown="handlePan(0,1)"/>
  <use id="arrowleft" xlink:href="#arrowLeft" x="0" y="0" onmousedown="handlePan(-1,0)"/>
</g>
<svg viewBox="0 0 15 15" width="100%" height="30px" preserveAspectRatio="xMaxYMin meet">
 <g id="arrow_out" transform="scale(0.3 0.3)">
  <a xlink:href="gemv__generic_8c_a0416d116aabe509598e8a1aaf31a0f55_icgraph_org.svg" target="_base">
   <rect id="button" ry="5" rx="5" y="6" x="6" height="38" width="38"
        fill="#f2f5e9" fill-opacity="0.5" stroke="#606060" stroke-width="1.0"/>
   <path id="arrow"
     d="M 11.500037,31.436501 C 11.940474,20.09759 22.043105,11.32322 32.158766,21.979434 L 37.068811,17.246167 C 37.068811,17.246167 37.088388,32 37.088388,32 L 22.160133,31.978069 C 22.160133,31.978069 26.997745,27.140456 26.997745,27.140456 C 18.528582,18.264221 13.291696,25.230495 11.500037,31.436501 z"
     style="fill:#404040;"/>
  </a>
 </g>
</svg>

<style type='text/css'>
<![CDATA[
[data-mouse-over-selected='false'] { opacity: 0.7; }
[data-mouse-over-selected='true']  { opacity: 1.0; }
]]>
</style>
<script type="application/ecmascript"><![CDATA[
document.addEventListener('DOMContentLoaded', (event) => {
  highlightEdges();
  highlightAdjacentNodes();
});
]]></script>
</svg>
