<?xml version="1.0" encoding="UTF-8" standalone="no"?>
<!DOCTYPE svg PUBLIC "-//W3C//DTD SVG 1.1//EN"
 "http://www.w3.org/Graphics/SVG/1.1/DTD/svg11.dtd">
<!-- Generated by graphviz version 2.43.0 (0)
 -->
<!-- Title: ie_gemv_f32 Pages: 1 -->
<!--zoomable 250 -->
<svg id="main" version="1.1" xmlns="http://www.w3.org/2000/svg" xmlns:xlink="http://www.w3.org/1999/xlink" xml:space="preserve" onload="init(evt)">
<style type="text/css"><![CDATA[
.edge:hover path { stroke: red; }
.edge:hover polygon { stroke: red; fill: red; }
]]></style>
<script type="text/javascript"><![CDATA[
var edges = document.getElementsByTagName('g');
if (edges && edges.length) {
  for (var i=0;i<edges.length;i++) {
    if (edges[i].id.substr(0,4)=='edge') {
      edges[i].setAttribute('class','edge');
    }
  }
}
]]></script>
        <defs>
                <circle id="rim" cx="0" cy="0" r="7"/>
                <circle id="rim2" cx="0" cy="0" r="3.5"/>
                <g id="zoomPlus">
                        <use xlink:href="#rim" fill="#404040">
                                <set attributeName="fill" to="#808080" begin="zoomplus.mouseover" end="zoomplus.mouseout"/>
                        </use>
                        <path d="M-4,0h8M0,-4v8" fill="none" stroke="white" stroke-width="1.5" pointer-events="none"/>
                </g>
                <g id="zoomMin">
                        <use xlink:href="#rim" fill="#404040">
                                <set attributeName="fill" to="#808080" begin="zoomminus.mouseover" end="zoomminus.mouseout"/>
                        </use>
                        <path d="M-4,0h8" fill="none" stroke="white" stroke-width="1.5" pointer-events="none"/>
                </g>
                <g id="dirArrow">
                        <path fill="none" stroke="white" stroke-width="1.5" d="M0,-3.0v7 M-2.5,-0.5L0,-3.0L2.5,-0.5"/>
                </g>
               <g id="resetDef">
                       <use xlink:href="#rim2" fill="#404040">
                               <set attributeName="fill" to="#808080" begin="reset.mouseover" end="reset.mouseout"/>
                       </use>
               </g>
        </defs>

<script type="text/javascript">
var viewWidth = 759;
var viewHeight = 250;
var sectionId = 'dynsection-7';
</script>
<script xlink:href="svgpan.js"/>
<svg id="graph" class="graph">
<g id="viewport">
<title>ie_gemv_f32</title>
<!-- Node1 -->
<g id="node1" class="node">
<title>Node1</title>
<g id="a_node1"><a xlink:title="Dispatch fp32 GEMV to the installed implementation.">
<polygon fill="#bfbfbf" stroke="black" points="671,-55 671,-74 751,-74 751,-55 671,-55"/>
<text text-anchor="middle" x="711" y="-62" font-family="Helvetica,sans-Serif" font-size="10.00">ie_gemv_f32</text>
</a>
</g>
</g>
<!-- Node2 -->
<g id="node2" class="node">
<title>Node2</title>
<g id="a_node2"><a xlink:href="ie__device__common_8c.html#a4fb9bb01bfbe71517f9df925ba9c93ec" target="_top" xlink:title="Execute dense GEMV FP32 on CPU using existing kernels.">
<polygon fill="none" stroke="black" points="531,-99 531,-118 619,-118 619,-99 531,-99"/>
<text text-anchor="middle" x="575" y="-106" font-family="Helvetica,sans-Serif" font-size="10.00">cpu_gemv_f32</text>
</a>
</g>
</g>
<!-- Node1&#45;&gt;Node2 -->
<g id="edge1" class="edge">
<title>Node1&#45;&gt;Node2</title>
<path fill="none" stroke="midnightblue" d="M671.27,-77.22C650.14,-84.16 624.41,-92.6 605.02,-98.97"/>
<polygon fill="midnightblue" stroke="midnightblue" points="672.51,-80.49 680.92,-74.05 670.33,-73.84 672.51,-80.49"/>
</g>
<!-- Node10 -->
<g id="node10" class="node">
<title>Node10</title>
<g id="a_node10"><a xlink:href="test__kernels_8c.html#a0ac9b0c3b1d865ef69bd2bc69d14a685" target="_top" xlink:title="Test: GEMV without bias, row&#45;major, blk_k=0.">
<polygon fill="none" stroke="black" points="515,-49.5 515,-79.5 635,-79.5 635,-49.5 515,-49.5"/>
<text text-anchor="start" x="523" y="-67.5" font-family="Helvetica,sans-Serif" font-size="10.00">test_gemv_rowmajor</text>
<text text-anchor="middle" x="575" y="-56.5" font-family="Helvetica,sans-Serif" font-size="10.00">_no_bias</text>
</a>
</g>
</g>
<!-- Node1&#45;&gt;Node10 -->
<g id="edge14" class="edge">
<title>Node1&#45;&gt;Node10</title>
<path fill="none" stroke="midnightblue" d="M660.61,-64.5C652.31,-64.5 643.62,-64.5 635.1,-64.5"/>
<polygon fill="midnightblue" stroke="midnightblue" points="660.88,-68 670.88,-64.5 660.88,-61 660.88,-68"/>
</g>
<!-- Node12 -->
<g id="node12" class="node">
<title>Node12</title>
<g id="a_node12"><a xlink:href="test__kernels_8c.html#a2305be22b4279f3ac4d55f90584569cb" target="_top" xlink:title="Test: GEMV with bias epilogue, row&#45;major, blk_k=0.">
<polygon fill="none" stroke="black" points="515,-0.5 515,-30.5 635,-30.5 635,-0.5 515,-0.5"/>
<text text-anchor="start" x="523" y="-18.5" font-family="Helvetica,sans-Serif" font-size="10.00">test_gemv_rowmajor</text>
<text text-anchor="middle" x="575" y="-7.5" font-family="Helvetica,sans-Serif" font-size="10.00">_with_bias</text>
</a>
</g>
</g>
<!-- Node1&#45;&gt;Node12 -->
<g id="edge16" class="edge">
<title>Node1&#45;&gt;Node12</title>
<path fill="none" stroke="midnightblue" d="M673.99,-51.33C656.46,-44.92 635.29,-37.18 617.12,-30.54"/>
<polygon fill="midnightblue" stroke="midnightblue" points="673.25,-54.79 683.85,-54.94 675.66,-48.21 673.25,-54.79"/>
</g>
<!-- Node3 -->
<g id="node3" class="node">
<title>Node3</title>
<g id="a_node3"><a xlink:href="ie__device_8h.html#a3e42fcc4b9579a9bf14520cb1afe733b" target="_top" xlink:title="Create a device handle for the requested kind (with fallback).">
<polygon fill="none" stroke="black" points="380,-99 380,-118 479,-118 479,-99 380,-99"/>
<text text-anchor="middle" x="429.5" y="-106" font-family="Helvetica,sans-Serif" font-size="10.00">ie_device_create</text>
</a>
</g>
</g>
<!-- Node2&#45;&gt;Node3 -->
<g id="edge2" class="edge">
<title>Node2&#45;&gt;Node3</title>
<path fill="none" stroke="midnightblue" d="M520.73,-108.5C507.07,-108.5 492.46,-108.5 479.05,-108.5"/>
<polygon fill="midnightblue" stroke="midnightblue" points="520.95,-112 530.95,-108.5 520.95,-105 520.95,-112"/>
</g>
<!-- Node4 -->
<g id="node4" class="node">
<title>Node4</title>
<g id="a_node4"><a xlink:href="ie__device_8h.html#ae46eb0813b9477e0f3f2084c4d52d33e" target="_top" xlink:title="Block&#45;sparse GEMV (FP32): y = W * x (+ optional bias).">
<polygon fill="none" stroke="black" points="216,-193.5 216,-223.5 344,-223.5 344,-193.5 216,-193.5"/>
<text text-anchor="start" x="224" y="-211.5" font-family="Helvetica,sans-Serif" font-size="10.00">ie_device_gemv_block</text>
<text text-anchor="middle" x="280" y="-200.5" font-family="Helvetica,sans-Serif" font-size="10.00">_sparse_f32</text>
</a>
</g>
</g>
<!-- Node3&#45;&gt;Node4 -->
<g id="edge3" class="edge">
<title>Node3&#45;&gt;Node4</title>
<path fill="none" stroke="midnightblue" d="M412.47,-125.88C396.43,-142.45 370.41,-167.24 344,-183.5 337.99,-187.2 331.33,-190.54 324.67,-193.49"/>
<polygon fill="midnightblue" stroke="midnightblue" points="415.15,-128.13 419.5,-118.47 410.08,-123.31 415.15,-128.13"/>
</g>
<!-- Node5 -->
<g id="node5" class="node">
<title>Node5</title>
<g id="a_node5"><a xlink:href="ie__device_8h.html#af9a99d92974f072775057b5def388b77" target="_top" xlink:title="Device&#45;side GEMV (FP32): y = W * x (+ optional bias).">
<polygon fill="none" stroke="black" points="221.5,-137 221.5,-156 338.5,-156 338.5,-137 221.5,-137"/>
<text text-anchor="middle" x="280" y="-144" font-family="Helvetica,sans-Serif" font-size="10.00">ie_device_gemv_f32</text>
</a>
</g>
</g>
<!-- Node3&#45;&gt;Node5 -->
<g id="edge5" class="edge">
<title>Node3&#45;&gt;Node5</title>
<path fill="none" stroke="midnightblue" d="M381.49,-120.61C360.94,-125.9 337.2,-132.02 317.95,-136.98"/>
<polygon fill="midnightblue" stroke="midnightblue" points="382.47,-123.97 391.28,-118.09 380.72,-117.19 382.47,-123.97"/>
</g>
<!-- Node6 -->
<g id="node6" class="node">
<title>Node6</title>
<g id="a_node6"><a xlink:href="test__device_8c.html#a548e6227513ac3fd772219dad3b0de22" target="_top" xlink:title="Ensure GPU request gracefully falls back to a working GEMV.">
<polygon fill="none" stroke="black" points="77,-99 77,-118 180,-118 180,-99 77,-99"/>
<text text-anchor="middle" x="128.5" y="-106" font-family="Helvetica,sans-Serif" font-size="10.00">test_gpu_fallback</text>
</a>
</g>
</g>
<!-- Node3&#45;&gt;Node6 -->
<g id="edge13" class="edge">
<title>Node3&#45;&gt;Node6</title>
<path fill="none" stroke="midnightblue" d="M369.46,-108.5C314.21,-108.5 232.55,-108.5 180.18,-108.5"/>
<polygon fill="midnightblue" stroke="midnightblue" points="369.8,-112 379.8,-108.5 369.79,-105 369.8,-112"/>
</g>
<!-- Node8 -->
<g id="node8" class="node">
<title>Node8</title>
<g id="a_node8"><a xlink:href="ie__device_8h.html#ad8fe47f93fa5e18c7cf07a153f1de2fb" target="_top" xlink:title="Copy memory using the device backend.">
<polygon fill="none" stroke="black" points="224.5,-43 224.5,-62 335.5,-62 335.5,-43 224.5,-43"/>
<text text-anchor="middle" x="280" y="-50" font-family="Helvetica,sans-Serif" font-size="10.00">ie_device_memcpy</text>
</a>
</g>
</g>
<!-- Node3&#45;&gt;Node8 -->
<g id="edge9" class="edge">
<title>Node3&#45;&gt;Node8</title>
<path fill="none" stroke="midnightblue" d="M393.7,-95.29C366.77,-85.06 330.12,-71.15 306.03,-62"/>
<polygon fill="midnightblue" stroke="midnightblue" points="392.55,-98.6 403.14,-98.87 395.04,-92.05 392.55,-98.6"/>
</g>
<!-- Node9 -->
<g id="node9" class="node">
<title>Node9</title>
<g id="a_node9"><a xlink:href="test__device_8c.html#a7b62f3db43117555c60ec59d19c7c8d6" target="_top" xlink:title="Verify CPU device exposes GEMV capability.">
<polygon fill="none" stroke="black" points="85.5,-33 85.5,-52 171.5,-52 171.5,-33 85.5,-33"/>
<text text-anchor="middle" x="128.5" y="-40" font-family="Helvetica,sans-Serif" font-size="10.00">test_cpu_caps</text>
</a>
</g>
</g>
<!-- Node3&#45;&gt;Node9 -->
<g id="edge11" class="edge">
<title>Node3&#45;&gt;Node9</title>
<path fill="none" stroke="midnightblue" d="M412.32,-91.56C392.55,-71.34 359.78,-39.49 344,-33.5 283.89,-10.67 207.4,-22.7 163.89,-32.97"/>
<polygon fill="midnightblue" stroke="midnightblue" points="409.97,-94.16 419.44,-98.91 415,-89.29 409.97,-94.16"/>
</g>
<!-- Node4&#45;&gt;Node4 -->
<g id="edge4" class="edge">
<title>Node4&#45;&gt;Node4</title>
<path fill="none" stroke="midnightblue" d="M306.3,-233.96C303.03,-238.68 294.27,-242 280,-242 256.59,-242 247.99,-233.06 254.21,-223.66"/>
<polygon fill="midnightblue" stroke="midnightblue" points="309.78,-233.48 305.79,-223.66 302.79,-233.82 309.78,-233.48"/>
</g>
<!-- Node5&#45;&gt;Node5 -->
<g id="edge6" class="edge">
<title>Node5&#45;&gt;Node5</title>
<path fill="none" stroke="midnightblue" d="M307.63,-165.15C306.47,-170.44 297.26,-174.5 280,-174.5 253.7,-174.5 246.09,-165.07 257.19,-156.26"/>
<polygon fill="midnightblue" stroke="midnightblue" points="310.65,-163.39 302.81,-156.26 304.49,-166.72 310.65,-163.39"/>
</g>
<!-- Node5&#45;&gt;Node6 -->
<g id="edge7" class="edge">
<title>Node5&#45;&gt;Node6</title>
<path fill="none" stroke="midnightblue" d="M231.35,-134.39C210.53,-129.1 186.46,-122.98 166.95,-118.02"/>
<polygon fill="midnightblue" stroke="midnightblue" points="230.72,-137.84 241.27,-136.91 232.45,-131.06 230.72,-137.84"/>
</g>
<!-- Node7 -->
<g id="node7" class="node">
<title>Node7</title>
<g id="a_node7"><a xlink:href="test__device_8c.html#a840291bc02cba5474a4cb46a9b9566fe" target="_top" xlink:title="Test entry point.">
<polygon fill="none" stroke="black" points="0,-52 0,-71 41,-71 41,-52 0,-52"/>
<text text-anchor="middle" x="20.5" y="-59" font-family="Helvetica,sans-Serif" font-size="10.00">main</text>
</a>
</g>
</g>
<!-- Node6&#45;&gt;Node7 -->
<g id="edge8" class="edge">
<title>Node6&#45;&gt;Node7</title>
<path fill="none" stroke="midnightblue" d="M96.59,-94.79C78.68,-86.85 56.68,-77.1 41.13,-70.2"/>
<polygon fill="midnightblue" stroke="midnightblue" points="95.49,-98.13 106.05,-98.99 98.33,-91.74 95.49,-98.13"/>
</g>
<!-- Node8&#45;&gt;Node8 -->
<g id="edge10" class="edge">
<title>Node8&#45;&gt;Node8</title>
<path fill="none" stroke="midnightblue" d="M307.63,-71.15C306.47,-76.44 297.26,-80.5 280,-80.5 253.7,-80.5 246.09,-71.07 257.19,-62.26"/>
<polygon fill="midnightblue" stroke="midnightblue" points="310.65,-69.39 302.81,-62.26 304.49,-72.72 310.65,-69.39"/>
</g>
<!-- Node9&#45;&gt;Node7 -->
<g id="edge12" class="edge">
<title>Node9&#45;&gt;Node7</title>
<path fill="none" stroke="midnightblue" d="M75.18,-51.88C63.04,-54.05 50.86,-56.24 41.18,-57.97"/>
<polygon fill="midnightblue" stroke="midnightblue" points="76.08,-55.27 85.3,-50.06 74.84,-48.38 76.08,-55.27"/>
</g>
<!-- Node11 -->
<g id="node11" class="node">
<title>Node11</title>
<g id="a_node11"><a xlink:href="test__kernels_8c.html#a840291bc02cba5474a4cb46a9b9566fe" target="_top" xlink:title="Program entry: run all kernel tests and print &quot;ok test_kernels&quot; on success.">
<polygon fill="none" stroke="black" points="409,-31 409,-50 450,-50 450,-31 409,-31"/>
<text text-anchor="middle" x="429.5" y="-38" font-family="Helvetica,sans-Serif" font-size="10.00">main</text>
</a>
</g>
</g>
<!-- Node10&#45;&gt;Node11 -->
<g id="edge15" class="edge">
<title>Node10&#45;&gt;Node11</title>
<path fill="none" stroke="midnightblue" d="M504.75,-52.92C484.8,-49.58 464.6,-46.2 450.31,-43.81"/>
<polygon fill="midnightblue" stroke="midnightblue" points="504.36,-56.4 514.8,-54.6 505.52,-49.5 504.36,-56.4"/>
</g>
<!-- Node12&#45;&gt;Node11 -->
<g id="edge17" class="edge">
<title>Node12&#45;&gt;Node11</title>
<path fill="none" stroke="midnightblue" d="M504.75,-27.56C484.8,-31.04 464.6,-34.56 450.31,-37.05"/>
<polygon fill="midnightblue" stroke="midnightblue" points="505.55,-30.98 514.8,-25.81 504.35,-24.08 505.55,-30.98"/>
</g>
</g>
</svg>
        <g id="navigator" transform="translate(0 0)" fill="#404254">
                <rect fill="#f2f5e9" fill-opacity="0.5" stroke="#606060" stroke-width=".5" x="0" y="0" width="60" height="60"/>
                <use id="zoomplus" xlink:href="#zoomPlus" x="17" y="9" onmousedown="handleZoom(evt,'in')"/>
                <use id="zoomminus" xlink:href="#zoomMin" x="42" y="9" onmousedown="handleZoom(evt,'out')"/>
                <use id="reset" xlink:href="#resetDef" x="30" y="36" onmousedown="handleReset()"/>
                <g id="arrowUp" xlink:href="#dirArrow" transform="translate(30 24)" onmousedown="handlePan(0,-1)">
                  <use xlink:href="#rim" fill="#404040">
                        <set attributeName="fill" to="#808080" begin="arrowUp.mouseover" end="arrowUp.mouseout"/>
                  </use>
                  <path fill="none" stroke="white" stroke-width="1.5" d="M0,-3.0v7 M-2.5,-0.5L0,-3.0L2.5,-0.5"/>
                </g>
                <g id="arrowRight" xlink:href="#dirArrow" transform="rotate(90) translate(36 -43)" onmousedown="handlePan(1,0)">
                  <use xlink:href="#rim" fill="#404040">
                        <set attributeName="fill" to="#808080" begin="arrowRight.mouseover" end="arrowRight.mouseout"/>
                  </use>
                  <path fill="none" stroke="white" stroke-width="1.5" d="M0,-3.0v7 M-2.5,-0.5L0,-3.0L2.5,-0.5"/>
                </g>
                <g id="arrowDown" xlink:href="#dirArrow" transform="rotate(180) translate(-30 -48)" onmousedown="handlePan(0,1)">
                  <use xlink:href="#rim" fill="#404040">
                        <set attributeName="fill" to="#808080" begin="arrowDown.mouseover" end="arrowDown.mouseout"/>
                  </use>
                  <path fill="none" stroke="white" stroke-width="1.5" d="M0,-3.0v7 M-2.5,-0.5L0,-3.0L2.5,-0.5"/>
                </g>
                <g id="arrowLeft" xlink:href="#dirArrow" transform="rotate(270) translate(-36 17)" onmousedown="handlePan(-1,0)">
                  <use xlink:href="#rim" fill="#404040">
                        <set attributeName="fill" to="#808080" begin="arrowLeft.mouseover" end="arrowLeft.mouseout"/>
                  </use>
                  <path fill="none" stroke="white" stroke-width="1.5" d="M0,-3.0v7 M-2.5,-0.5L0,-3.0L2.5,-0.5"/>
                </g>
        </g>
        <svg viewBox="0 0 15 15" width="100%" height="30px" preserveAspectRatio="xMaxYMin meet">
         <g id="arrow_out" transform="scale(0.3 0.3)">
          <a xlink:href="gemv__generic_8c_a4e112b3396ed21919f404631c1d4d7fb_icgraph_org.svg" target="_base">
           <rect id="button" ry="5" rx="5" y="6" x="6" height="38" width="38"
                fill="#f2f5e9" fill-opacity="0.5" stroke="#606060" stroke-width="1.0"/>
           <path id="arrow"
             d="M 11.500037,31.436501 C 11.940474,20.09759 22.043105,11.32322 32.158766,21.979434 L 37.068811,17.246167 C 37.068811,17.246167 37.088388,32 37.088388,32 L 22.160133,31.978069 C 22.160133,31.978069 26.997745,27.140456 26.997745,27.140456 C 18.528582,18.264221 13.291696,25.230495 11.500037,31.436501 z"
             style="fill:#404040;"/>
          </a>
         </g>
        </svg>
</svg>
