<?xml version="1.0" encoding="UTF-8" standalone="no"?>
<!DOCTYPE svg PUBLIC "-//W3C//DTD SVG 1.1//EN"
 "http://www.w3.org/Graphics/SVG/1.1/DTD/svg11.dtd">
<!-- Generated by graphviz version 2.43.0 (0)
 -->
<!-- Title: ie_gemv_qfp8_f32 Pages: 1 -->
<svg width="432pt" height="103pt"
 viewBox="0.00 0.00 432.00 103.00" xmlns="http://www.w3.org/2000/svg" xmlns:xlink="http://www.w3.org/1999/xlink">
<g id="graph0" class="graph" transform="scale(1 1) rotate(0) translate(4 99)">
<title>ie_gemv_qfp8_f32</title>
<!-- Node1 -->
<g id="Node000001" class="node">
<title>Node1</title>
<g id="a_Node000001"><a xlink:title="GEMV with FP8 activations (portable software decode).">
<polygon fill="#999999" stroke="#666666" points="107,-57 0,-57 0,-38 107,-38 107,-57"/>
<text text-anchor="middle" x="53.5" y="-45" font-family="Helvetica,sans-Serif" font-size="10.00">ie_gemv_qfp8_f32</text>
</a>
</g>
</g>
<!-- Node2 -->
<g id="Node000002" class="node">
<title>Node2</title>
<g id="a_Node000002"><a xlink:href="gemv__generic_8c.html#ab15089960891cb16691529c685e7a96b" target="_top" xlink:title="Decode FP8 E4M3 byte to float.">
<polygon fill="white" stroke="#666666" points="263,-95 143,-95 143,-76 263,-76 263,-95"/>
<text text-anchor="middle" x="203" y="-83" font-family="Helvetica,sans-Serif" font-size="10.00">ie_decode_fp8_e4m3</text>
</a>
</g>
</g>
<!-- Node1&#45;&gt;Node2 -->
<g id="edge1_Node000001_Node000002" class="edge">
<title>Node1&#45;&gt;Node2</title>
<g id="a_edge1_Node000001_Node000002"><a xlink:title=" ">
<path fill="none" stroke="#63b8ff" d="M91.72,-57.09C111.01,-62.06 134.76,-68.18 155.27,-73.46"/>
<polygon fill="#63b8ff" stroke="#63b8ff" points="154.49,-76.87 165.05,-75.98 156.24,-70.1 154.49,-76.87"/>
</a>
</g>
</g>
<!-- Node3 -->
<g id="Node000003" class="node">
<title>Node3</title>
<g id="a_Node000003"><a xlink:href="ie__device__cuda_8cu.html#a5e3d9fee84981707669f5c2398f0c4ab" target="_top" xlink:title="Row&#45;wise GEMV kernel: each thread computes one output row.">
<polygon fill="white" stroke="#666666" points="424,-62.5 299,-62.5 299,-32.5 424,-32.5 424,-62.5"/>
<text text-anchor="start" x="307" y="-50.5" font-family="Helvetica,sans-Serif" font-size="10.00">ie_gemv_rowwise_f32</text>
<text text-anchor="middle" x="361.5" y="-39.5" font-family="Helvetica,sans-Serif" font-size="10.00">_kernel</text>
</a>
</g>
</g>
<!-- Node1&#45;&gt;Node3 -->
<g id="edge5_Node000001_Node000003" class="edge">
<title>Node1&#45;&gt;Node3</title>
<g id="a_edge5_Node000001_Node000003"><a xlink:title=" ">
<path fill="none" stroke="#63b8ff" d="M107.1,-47.5C157.21,-47.5 233.05,-47.5 288.7,-47.5"/>
<polygon fill="#63b8ff" stroke="#63b8ff" points="288.85,-51 298.85,-47.5 288.85,-44 288.85,-51"/>
</a>
</g>
</g>
<!-- Node4 -->
<g id="Node000004" class="node">
<title>Node4</title>
<g id="a_Node000004"><a xlink:href="gemv__generic_8c.html#a2caa51b99ab073c3a53146ca26153558" target="_top" xlink:title="Decode FP8 E5M2 byte to float.">
<polygon fill="white" stroke="#666666" points="263,-19 143,-19 143,0 263,0 263,-19"/>
<text text-anchor="middle" x="203" y="-7" font-family="Helvetica,sans-Serif" font-size="10.00">ie_decode_fp8_e5m2</text>
</a>
</g>
</g>
<!-- Node1&#45;&gt;Node4 -->
<g id="edge3_Node000001_Node000004" class="edge">
<title>Node1&#45;&gt;Node4</title>
<g id="a_edge3_Node000001_Node000004"><a xlink:title=" ">
<path fill="none" stroke="#63b8ff" d="M91.72,-37.91C111.01,-32.94 134.76,-26.82 155.27,-21.54"/>
<polygon fill="#63b8ff" stroke="#63b8ff" points="156.24,-24.9 165.05,-19.02 154.49,-18.13 156.24,-24.9"/>
</a>
</g>
</g>
<!-- Node2&#45;&gt;Node3 -->
<g id="edge2_Node000002_Node000003" class="edge">
<title>Node2&#45;&gt;Node3</title>
<g id="a_edge2_Node000002_Node000003"><a xlink:title=" ">
<path fill="none" stroke="#63b8ff" d="M243.49,-75.91C257.23,-72.57 273.11,-68.72 288.65,-64.95"/>
<polygon fill="#63b8ff" stroke="#63b8ff" points="289.89,-68.25 298.78,-62.49 288.24,-61.44 289.89,-68.25"/>
</a>
</g>
</g>
<!-- Node4&#45;&gt;Node3 -->
<g id="edge4_Node000004_Node000003" class="edge">
<title>Node4&#45;&gt;Node3</title>
<g id="a_edge4_Node000004_Node000003"><a xlink:title=" ">
<path fill="none" stroke="#63b8ff" d="M243.49,-19.09C257.23,-22.43 273.11,-26.28 288.65,-30.05"/>
<polygon fill="#63b8ff" stroke="#63b8ff" points="288.24,-33.56 298.78,-32.51 289.89,-26.75 288.24,-33.56"/>
</a>
</g>
</g>
</g>
</svg>
