<?xml version="1.0" encoding="UTF-8" standalone="no"?>
<!DOCTYPE svg PUBLIC "-//W3C//DTD SVG 1.1//EN"
 "http://www.w3.org/Graphics/SVG/1.1/DTD/svg11.dtd">
<!-- Generated by graphviz version 2.43.0 (0)
 -->
<!-- Title: ie_int4_quantize_per_tensor Pages: 1 -->
<svg width="262pt" height="138pt"
 viewBox="0.00 0.00 262.00 138.00" xmlns="http://www.w3.org/2000/svg" xmlns:xlink="http://www.w3.org/1999/xlink">
<g id="graph0" class="graph" transform="scale(1 1) rotate(0) translate(4 134)">
<title>ie_int4_quantize_per_tensor</title>
<!-- Node1 -->
<g id="Node000001" class="node">
<title>Node1</title>
<g id="a_Node000001"><a xlink:title="Quantize a float32 matrix to packed INT4 using a single (per&#45;tensor) scale.">
<polygon fill="#999999" stroke="#666666" points="118,-79.5 0,-79.5 0,-49.5 118,-49.5 118,-79.5"/>
<text text-anchor="start" x="8" y="-67.5" font-family="Helvetica,sans-Serif" font-size="10.00">ie_int4_quantize_per</text>
<text text-anchor="middle" x="59" y="-56.5" font-family="Helvetica,sans-Serif" font-size="10.00">_tensor</text>
</a>
</g>
</g>
<!-- Node2 -->
<g id="Node000002" class="node">
<title>Node2</title>
<g id="a_Node000002"><a xlink:href="int4__ptq_8c.html#a6ed1aea3c6d100696c138e8efae1f1bf" target="_top" xlink:title="Clamp a float to the symmetric INT4 range [&#45;7, +7] and convert to int.">
<polygon fill="white" stroke="#666666" points="236,-130 172,-130 172,-111 236,-111 236,-130"/>
<text text-anchor="middle" x="204" y="-118" font-family="Helvetica,sans-Serif" font-size="10.00">clamp_q4</text>
</a>
</g>
</g>
<!-- Node1&#45;&gt;Node2 -->
<g id="edge1_Node000001_Node000002" class="edge">
<title>Node1&#45;&gt;Node2</title>
<g id="a_edge1_Node000001_Node000002"><a xlink:title=" ">
<path fill="none" stroke="#63b8ff" d="M96.5,-79.57C113.86,-86.66 134.95,-95.15 154,-102.5 158.2,-104.12 162.62,-105.79 167.02,-107.43"/>
<polygon fill="#63b8ff" stroke="#63b8ff" points="165.9,-110.75 176.49,-110.94 168.33,-104.19 165.9,-110.75"/>
</a>
</g>
</g>
<!-- Node3 -->
<g id="Node000003" class="node">
<title>Node3</title>
<g id="a_Node000003"><a xlink:href="group__ie__int4__quant.html#ga469c0b3e9333828daa3115c7ce9f1f2d" target="_top" xlink:title="Compute the absolute&#45;maximum value of a float32 matrix.">
<polygon fill="white" stroke="#666666" points="251,-93 157,-93 157,-74 251,-74 251,-93"/>
<text text-anchor="middle" x="204" y="-81" font-family="Helvetica,sans-Serif" font-size="10.00">ie_int4_absmax</text>
</a>
</g>
</g>
<!-- Node1&#45;&gt;Node3 -->
<g id="edge2_Node000001_Node000003" class="edge">
<title>Node1&#45;&gt;Node3</title>
<g id="a_edge2_Node000001_Node000003"><a xlink:title=" ">
<path fill="none" stroke="#63b8ff" d="M118.16,-72.23C127.59,-73.48 137.34,-74.78 146.72,-76.02"/>
<polygon fill="#63b8ff" stroke="#63b8ff" points="146.35,-79.5 156.72,-77.35 147.27,-72.56 146.35,-79.5"/>
</a>
</g>
</g>
<!-- Node4 -->
<g id="Node000004" class="node">
<title>Node4</title>
<g id="a_Node000004"><a xlink:href="group__ie__int4__quant.html#gae9b8a40c7d01f1fa7f00487737c772b2" target="_top" xlink:title="Compute the number of packed bytes required to store a single row of cols 4&#45;bit values (two per byte)...">
<polygon fill="white" stroke="#666666" points="254,-56 154,-56 154,-37 254,-37 254,-56"/>
<text text-anchor="middle" x="204" y="-44" font-family="Helvetica,sans-Serif" font-size="10.00">ie_int4_rowbytes</text>
</a>
</g>
</g>
<!-- Node1&#45;&gt;Node4 -->
<g id="edge3_Node000001_Node000004" class="edge">
<title>Node1&#45;&gt;Node4</title>
<g id="a_edge3_Node000001_Node000004"><a xlink:title=" ">
<path fill="none" stroke="#63b8ff" d="M118.16,-57.18C126.52,-56.13 135.13,-55.04 143.51,-53.99"/>
<polygon fill="#63b8ff" stroke="#63b8ff" points="144.1,-57.44 153.59,-52.72 143.23,-50.5 144.1,-57.44"/>
</a>
</g>
</g>
<!-- Node5 -->
<g id="Node000005" class="node">
<title>Node5</title>
<g id="a_Node000005"><a xlink:href="int4__ptq_8c.html#a8fbbcdf00f584b058e8c71b96af09613" target="_top" xlink:title="Pack two signed 4&#45;bit integers (in [&#45;7, +7]) into a single byte.">
<polygon fill="white" stroke="#666666" points="244.5,-19 163.5,-19 163.5,0 244.5,0 244.5,-19"/>
<text text-anchor="middle" x="204" y="-7" font-family="Helvetica,sans-Serif" font-size="10.00">pack_q4_pair</text>
</a>
</g>
</g>
<!-- Node1&#45;&gt;Node5 -->
<g id="edge4_Node000001_Node000005" class="edge">
<title>Node1&#45;&gt;Node5</title>
<g id="a_edge4_Node000001_Node000005"><a xlink:title=" ">
<path fill="none" stroke="#63b8ff" d="M99.08,-49.47C120.78,-41.12 147.54,-30.83 168.47,-22.78"/>
<polygon fill="#63b8ff" stroke="#63b8ff" points="169.85,-26 177.93,-19.14 167.34,-19.47 169.85,-26"/>
</a>
</g>
</g>
</g>
</svg>
