<?xml version="1.0" encoding="UTF-8" standalone="no"?>
<!DOCTYPE svg PUBLIC "-//W3C//DTD SVG 1.1//EN"
 "http://www.w3.org/Graphics/SVG/1.1/DTD/svg11.dtd">
<!-- Generated by graphviz version 2.43.0 (0)
 -->
<!-- Title: ie_int4_quantize_per_tensor Pages: 1 -->
<svg width="262pt" height="142pt"
 viewBox="0.00 0.00 262.00 142.00" xmlns="http://www.w3.org/2000/svg" xmlns:xlink="http://www.w3.org/1999/xlink">
<g id="graph0" class="graph" transform="scale(1 1) rotate(0) translate(4 138)">
<title>ie_int4_quantize_per_tensor</title>
<!-- Node1 -->
<g id="node1" class="node">
<title>Node1</title>
<g id="a_node1"><a xlink:title="Quantize a float32 matrix to packed INT4 using a single (per&#45;tensor) scale.">
<polygon fill="#bfbfbf" stroke="black" points="0,-52 0,-82 118,-82 118,-52 0,-52"/>
<text text-anchor="start" x="8" y="-70" font-family="Helvetica,sans-Serif" font-size="10.00">ie_int4_quantize_per</text>
<text text-anchor="middle" x="59" y="-59" font-family="Helvetica,sans-Serif" font-size="10.00">_tensor</text>
</a>
</g>
</g>
<!-- Node2 -->
<g id="node2" class="node">
<title>Node2</title>
<g id="a_node2"><a xlink:href="int4__ptq_8c.html#a6ed1aea3c6d100696c138e8efae1f1bf" target="_top" xlink:title="Clamp a float to the symmetric INT4 range [&#45;7, +7] and convert to int.">
<polygon fill="none" stroke="black" points="172,-114.5 172,-133.5 236,-133.5 236,-114.5 172,-114.5"/>
<text text-anchor="middle" x="204" y="-121.5" font-family="Helvetica,sans-Serif" font-size="10.00">clamp_q4</text>
</a>
</g>
</g>
<!-- Node1&#45;&gt;Node2 -->
<g id="edge1" class="edge">
<title>Node1&#45;&gt;Node2</title>
<path fill="none" stroke="midnightblue" d="M97.01,-82.1C114.3,-89.12 135.18,-97.55 154,-105 158.76,-106.88 163.78,-108.85 168.72,-110.78"/>
<polygon fill="midnightblue" stroke="midnightblue" points="167.46,-114.04 178.05,-114.4 169.99,-107.52 167.46,-114.04"/>
</g>
<!-- Node3 -->
<g id="node3" class="node">
<title>Node3</title>
<g id="a_node3"><a xlink:href="group__ie__int4__quant.html#ga469c0b3e9333828daa3115c7ce9f1f2d" target="_top" xlink:title="Compute the absolute&#45;maximum value of a float32 matrix.">
<polygon fill="none" stroke="black" points="157,-76.5 157,-95.5 251,-95.5 251,-76.5 157,-76.5"/>
<text text-anchor="middle" x="204" y="-83.5" font-family="Helvetica,sans-Serif" font-size="10.00">ie_int4_absmax</text>
</a>
</g>
</g>
<!-- Node1&#45;&gt;Node3 -->
<g id="edge2" class="edge">
<title>Node1&#45;&gt;Node3</title>
<path fill="none" stroke="midnightblue" d="M118.16,-74.73C127.59,-75.98 137.34,-77.28 146.72,-78.52"/>
<polygon fill="midnightblue" stroke="midnightblue" points="146.35,-82 156.72,-79.85 147.27,-75.06 146.35,-82"/>
</g>
<!-- Node4 -->
<g id="node4" class="node">
<title>Node4</title>
<g id="a_node4"><a xlink:href="group__ie__int4__quant.html#gae9b8a40c7d01f1fa7f00487737c772b2" target="_top" xlink:title="Compute the number of packed bytes required to store a single row of cols 4&#45;bit values (two per byte)...">
<polygon fill="none" stroke="black" points="154,-38.5 154,-57.5 254,-57.5 254,-38.5 154,-38.5"/>
<text text-anchor="middle" x="204" y="-45.5" font-family="Helvetica,sans-Serif" font-size="10.00">ie_int4_rowbytes</text>
</a>
</g>
</g>
<!-- Node1&#45;&gt;Node4 -->
<g id="edge3" class="edge">
<title>Node1&#45;&gt;Node4</title>
<path fill="none" stroke="midnightblue" d="M118.16,-59.27C126.52,-58.16 135.13,-57.02 143.51,-55.9"/>
<polygon fill="midnightblue" stroke="midnightblue" points="144.14,-59.35 153.59,-54.57 143.21,-52.41 144.14,-59.35"/>
</g>
<!-- Node5 -->
<g id="node5" class="node">
<title>Node5</title>
<g id="a_node5"><a xlink:href="int4__ptq_8c.html#a8fbbcdf00f584b058e8c71b96af09613" target="_top" xlink:title="Pack two signed 4&#45;bit integers (in [&#45;7, +7]) into a single byte.">
<polygon fill="none" stroke="black" points="163.5,-0.5 163.5,-19.5 244.5,-19.5 244.5,-0.5 163.5,-0.5"/>
<text text-anchor="middle" x="204" y="-7.5" font-family="Helvetica,sans-Serif" font-size="10.00">pack_q4_pair</text>
</a>
</g>
</g>
<!-- Node1&#45;&gt;Node5 -->
<g id="edge4" class="edge">
<title>Node1&#45;&gt;Node5</title>
<path fill="none" stroke="midnightblue" d="M97.01,-51.9C114.3,-44.88 135.18,-36.45 154,-29 158.76,-27.12 163.78,-25.15 168.72,-23.22"/>
<polygon fill="midnightblue" stroke="midnightblue" points="169.99,-26.48 178.05,-19.6 167.46,-19.96 169.99,-26.48"/>
</g>
</g>
</svg>
