<?xml version="1.0" encoding="UTF-8" standalone="no"?>
<!DOCTYPE svg PUBLIC "-//W3C//DTD SVG 1.1//EN"
 "http://www.w3.org/Graphics/SVG/1.1/DTD/svg11.dtd">
<!-- Generated by graphviz version 12.2.1 (20241206.2353)
 -->
<!-- Title: ie_cuda_launch_pack_w_blockedk_f32 Pages: 1 -->
<svg width="297pt" height="68pt"
 viewBox="0.00 0.00 297.25 67.75" xmlns="http://www.w3.org/2000/svg" xmlns:xlink="http://www.w3.org/1999/xlink">
<g id="graph0" class="graph" transform="scale(1 1) rotate(0) translate(4 63.75)">
<title>ie_cuda_launch_pack_w_blockedk_f32</title>
<!-- Node1 -->
<g id="Node000001" class="node">
<title>Node1</title>
<g id="a_Node000001"><a xlink:title="Pack a row&#45;major matrix into Blocked&#45;K layout for better memory access.">
<polygon fill="#999999" stroke="#666666" points="119.5,-46.12 0,-46.12 0,-12.62 119.5,-12.62 119.5,-46.12"/>
<text text-anchor="start" x="8" y="-32.62" font-family="Helvetica,sans-Serif" font-size="10.00">ie_cuda_launch_pack</text>
<text text-anchor="middle" x="59.75" y="-19.88" font-family="Helvetica,sans-Serif" font-size="10.00">_w_blockedk_f32</text>
</a>
</g>
</g>
<!-- Node2 -->
<g id="Node000002" class="node">
<title>Node2</title>
<g id="a_Node000002"><a xlink:href="ie__kernels__cuda_8cu.html#a841d35ecb02f9850f311a5724d21deac" target="_top" xlink:title="Set or clear the per&#45;thread CUDA error string buffer.">
<polygon fill="white" stroke="#666666" points="268.62,-59.75 176.12,-59.75 176.12,-39 268.62,-39 268.62,-59.75"/>
<text text-anchor="middle" x="222.38" y="-46.25" font-family="Helvetica,sans-Serif" font-size="10.00">ie_cuda_set_err</text>
</a>
</g>
</g>
<!-- Node1&#45;&gt;Node2 -->
<g id="edge1_Node000001_Node000002" class="edge">
<title>Node1&#45;&gt;Node2</title>
<g id="a_edge1_Node000001_Node000002"><a xlink:title=" ">
<path fill="none" stroke="#63b8ff" d="M119.65,-36.71C134.27,-38.53 149.92,-40.48 164.45,-42.29"/>
<polygon fill="#63b8ff" stroke="#63b8ff" points="163.96,-45.75 174.32,-43.52 164.83,-38.81 163.96,-45.75"/>
</a>
</g>
</g>
<!-- Node3 -->
<g id="Node000003" class="node">
<title>Node3</title>
<g id="a_Node000003"><a xlink:href="ie__kernels__cuda_8cu.html#ac440d51163bc9f16e835d00aedcb4b79" target="_top" xlink:title="Pack row&#45;major W into Blocked&#45;K layout on device (see header docs).">
<polygon fill="white" stroke="#666666" points="289.25,-20.75 155.5,-20.75 155.5,0 289.25,0 289.25,-20.75"/>
<text text-anchor="middle" x="222.38" y="-7.25" font-family="Helvetica,sans-Serif" font-size="10.00">k_pack_w_blockedk_f32</text>
</a>
</g>
</g>
<!-- Node1&#45;&gt;Node3 -->
<g id="edge2_Node000001_Node000003" class="edge">
<title>Node1&#45;&gt;Node3</title>
<g id="a_edge2_Node000001_Node000003"><a xlink:title=" ">
<path fill="none" stroke="#63b8ff" d="M119.65,-22.41C127.5,-21.48 135.64,-20.52 143.75,-19.56"/>
<polygon fill="#63b8ff" stroke="#63b8ff" points="144.13,-23.04 153.65,-18.39 143.31,-16.08 144.13,-23.04"/>
</a>
</g>
</g>
</g>
</svg>
