<?xml version="1.0" encoding="UTF-8" standalone="no"?>
<!DOCTYPE svg PUBLIC "-//W3C//DTD SVG 1.1//EN"
 "http://www.w3.org/Graphics/SVG/1.1/DTD/svg11.dtd">
<!-- Generated by graphviz version 2.43.0 (0)
 -->
<!-- Title: ie_ze_launch_pack_w_blockedk_f32 Pages: 1 -->
<svg width="710pt" height="378pt"
 viewBox="0.00 0.00 710.00 377.65" xmlns="http://www.w3.org/2000/svg" xmlns:xlink="http://www.w3.org/1999/xlink">
<g id="graph0" class="graph" transform="scale(1 1) rotate(0) translate(4 373.65)">
<title>ie_ze_launch_pack_w_blockedk_f32</title>
<!-- Node1 -->
<g id="Node000001" class="node">
<title>Node1</title>
<g id="a_Node000001"><a xlink:title="Pack W (row&#45;major) into Blocked&#45;K layout into Wp.">
<polygon fill="#999999" stroke="#666666" points="122,-195.5 0,-195.5 0,-165.5 122,-165.5 122,-195.5"/>
<text text-anchor="start" x="8" y="-183.5" font-family="Helvetica,sans-Serif" font-size="10.00">ie_ze_launch_pack_w</text>
<text text-anchor="middle" x="61" y="-172.5" font-family="Helvetica,sans-Serif" font-size="10.00">_blockedk_f32</text>
</a>
</g>
</g>
<!-- Node2 -->
<g id="Node000002" class="node">
<title>Node2</title>
<g id="a_Node000002"><a xlink:href="ie__kernel__ze_8cpp.html#a8966e8d4592d80b5e1f8d02dd586bb57" target="_top" xlink:title="Allocate device memory.">
<polygon fill="white" stroke="#666666" points="520.5,-361 474.5,-361 474.5,-342 520.5,-342 520.5,-361"/>
<text text-anchor="middle" x="497.5" y="-349" font-family="Helvetica,sans-Serif" font-size="10.00">dalloc</text>
</a>
</g>
</g>
<!-- Node1&#45;&gt;Node2 -->
<g id="edge1_Node000001_Node000002" class="edge">
<title>Node1&#45;&gt;Node2</title>
<g id="a_edge1_Node000001_Node000002"><a xlink:title=" ">
<path fill="none" stroke="#63b8ff" d="M66.86,-195.95C77.59,-227.14 106.5,-297.22 158,-327.5 256.66,-385.51 400.5,-369.3 464.15,-358.11"/>
<polygon fill="#63b8ff" stroke="#63b8ff" points="465.16,-361.48 474.36,-356.23 463.9,-354.59 465.16,-361.48"/>
</a>
</g>
</g>
<!-- Node3 -->
<g id="Node000003" class="node">
<title>Node3</title>
<g id="a_Node000003"><a xlink:href="ie__device__cuda_8cu.html#a5e3d9fee84981707669f5c2398f0c4ab" target="_top" xlink:title="Row&#45;wise GEMV kernel: each thread computes one output row.">
<polygon fill="white" stroke="#666666" points="702,-214.5 577,-214.5 577,-184.5 702,-184.5 702,-214.5"/>
<text text-anchor="start" x="585" y="-202.5" font-family="Helvetica,sans-Serif" font-size="10.00">ie_gemv_rowwise_f32</text>
<text text-anchor="middle" x="639.5" y="-191.5" font-family="Helvetica,sans-Serif" font-size="10.00">_kernel</text>
</a>
</g>
</g>
<!-- Node1&#45;&gt;Node3 -->
<g id="edge14_Node000001_Node000003" class="edge">
<title>Node1&#45;&gt;Node3</title>
<g id="a_edge14_Node000001_Node000003"><a xlink:title=" ">
<path fill="none" stroke="#63b8ff" d="M82.06,-195.68C100.88,-209.37 130.22,-229.32 158,-242.5 225.94,-274.73 244.72,-282.8 319,-294.5 417.81,-310.06 449.44,-297.78 541,-257.5 564.5,-247.16 589.35,-232.31 608.08,-220.23"/>
<polygon fill="#63b8ff" stroke="#63b8ff" points="610.04,-223.13 616.49,-214.72 606.2,-217.27 610.04,-223.13"/>
</a>
</g>
</g>
<!-- Node4 -->
<g id="Node000004" class="node">
<title>Node4</title>
<g id="a_Node000004"><a xlink:href="ie__kernel__ze_8cpp.html#a8659992f4a5a709d0794e3b43ff99a30" target="_top" xlink:title="Free USM pointer if non&#45;null.">
<polygon fill="white" stroke="#666666" points="389.5,-285 347.5,-285 347.5,-266 389.5,-266 389.5,-285"/>
<text text-anchor="middle" x="368.5" y="-273" font-family="Helvetica,sans-Serif" font-size="10.00">dfree</text>
</a>
</g>
</g>
<!-- Node1&#45;&gt;Node4 -->
<g id="edge3_Node000001_Node000004" class="edge">
<title>Node1&#45;&gt;Node4</title>
<g id="a_edge3_Node000001_Node000004"><a xlink:title=" ">
<path fill="none" stroke="#63b8ff" d="M110.41,-195.55C174.29,-215.42 284.81,-249.79 337.66,-266.22"/>
<polygon fill="#63b8ff" stroke="#63b8ff" points="336.85,-269.63 347.44,-269.26 338.93,-262.95 336.85,-269.63"/>
</a>
</g>
</g>
<!-- Node5 -->
<g id="Node000005" class="node">
<title>Node5</title>
<g id="a_Node000005"><a xlink:href="ie__kernel__ze_8cpp.html#a46e8c280257654db04216d6acbefa0af" target="_top" xlink:title="Ensure the SPIR&#45;V module and all kernel handles are created.">
<polygon fill="white" stroke="#666666" points="283,-190 158,-190 158,-171 283,-171 283,-190"/>
<text text-anchor="middle" x="220.5" y="-178" font-family="Helvetica,sans-Serif" font-size="10.00">ensure_module_ready</text>
</a>
</g>
</g>
<!-- Node1&#45;&gt;Node5 -->
<g id="edge5_Node000001_Node000005" class="edge">
<title>Node1&#45;&gt;Node5</title>
<g id="a_edge5_Node000001_Node000005"><a xlink:title=" ">
<path fill="none" stroke="#63b8ff" d="M122.44,-180.5C130.71,-180.5 139.26,-180.5 147.7,-180.5"/>
<polygon fill="#63b8ff" stroke="#63b8ff" points="147.92,-184 157.92,-180.5 147.92,-177 147.92,-184"/>
</a>
</g>
</g>
<!-- Node7 -->
<g id="Node000007" class="node">
<title>Node7</title>
<g id="a_Node000007"><a xlink:href="ie__kernel__ze_8cpp.html#a0a2c7ad4a3f3268ce3651eca6f04b24e" target="_top" xlink:title="Set last error (thread&#45;local); truncates if needed.">
<polygon fill="white" stroke="#666666" points="522.5,-133 472.5,-133 472.5,-114 522.5,-114 522.5,-133"/>
<text text-anchor="middle" x="497.5" y="-121" font-family="Helvetica,sans-Serif" font-size="10.00">set_err</text>
</a>
</g>
</g>
<!-- Node1&#45;&gt;Node7 -->
<g id="edge19_Node000001_Node000007" class="edge">
<title>Node1&#45;&gt;Node7</title>
<g id="a_edge19_Node000001_Node000007"><a xlink:title=" ">
<path fill="none" stroke="#63b8ff" d="M114.11,-165.43C165.63,-151.36 246.99,-131.39 319,-123.5 368.41,-118.09 426.03,-119.5 461.89,-121.28"/>
<polygon fill="#63b8ff" stroke="#63b8ff" points="462.12,-124.8 472.29,-121.84 462.49,-117.81 462.12,-124.8"/>
</a>
</g>
</g>
<!-- Node9 -->
<g id="Node000009" class="node">
<title>Node9</title>
<g id="a_Node000009"><a xlink:href="ie__kernel__ze_8cpp.html#aa101d0006375eb076cf21c1f890b7fb4" target="_top" xlink:title="Copy host→device or device→host using immediate command list.">
<polygon fill="white" stroke="#666666" points="541,-77 454,-77 454,-58 541,-58 541,-77"/>
<text text-anchor="middle" x="497.5" y="-65" font-family="Helvetica,sans-Serif" font-size="10.00">memcpy_imm</text>
</a>
</g>
</g>
<!-- Node1&#45;&gt;Node9 -->
<g id="edge15_Node000001_Node000009" class="edge">
<title>Node1&#45;&gt;Node9</title>
<g id="a_edge15_Node000001_Node000009"><a xlink:title=" ">
<path fill="none" stroke="#63b8ff" d="M82.64,-165.48C101.37,-152.59 130.24,-134.55 158,-124.5 255.13,-89.32 375.93,-75.65 443.81,-70.49"/>
<polygon fill="#63b8ff" stroke="#63b8ff" points="444.11,-73.98 453.83,-69.76 443.61,-66.99 444.11,-73.98"/>
</a>
</g>
</g>
<!-- Node10 -->
<g id="Node000010" class="node">
<title>Node10</title>
<g id="a_Node000010"><a xlink:href="ie__kernel__ze_8cpp.html#a03e401cb53f156d70c1685d3b76aa747" target="_top" xlink:title="Helper to set a POD kernel argument.">
<polygon fill="white" stroke="#666666" points="247,-19 194,-19 194,0 247,0 247,-19"/>
<text text-anchor="middle" x="220.5" y="-7" font-family="Helvetica,sans-Serif" font-size="10.00">set_arg</text>
</a>
</g>
</g>
<!-- Node1&#45;&gt;Node10 -->
<g id="edge17_Node000001_Node000010" class="edge">
<title>Node1&#45;&gt;Node10</title>
<g id="a_edge17_Node000001_Node000010"><a xlink:title=" ">
<path fill="none" stroke="#63b8ff" d="M68.09,-165.37C80.64,-135.98 112.1,-70.78 158,-33.5 165.58,-27.34 174.92,-22.63 184.02,-19.07"/>
<polygon fill="#63b8ff" stroke="#63b8ff" points="185.43,-22.29 193.7,-15.66 183.1,-15.69 185.43,-22.29"/>
</a>
</g>
</g>
<!-- Node2&#45;&gt;Node3 -->
<g id="edge2_Node000002_Node000003" class="edge">
<title>Node2&#45;&gt;Node3</title>
<g id="a_edge2_Node000002_Node000003"><a xlink:title=" ">
<path fill="none" stroke="#63b8ff" d="M519.5,-341.83C526.73,-337.95 534.61,-333.07 541,-327.5 576.38,-296.66 607.31,-251.17 624.4,-223.54"/>
<polygon fill="#63b8ff" stroke="#63b8ff" points="627.45,-225.27 629.65,-214.9 621.47,-221.63 627.45,-225.27"/>
</a>
</g>
</g>
<!-- Node4&#45;&gt;Node3 -->
<g id="edge4_Node000004_Node000003" class="edge">
<title>Node4&#45;&gt;Node3</title>
<g id="a_edge4_Node000004_Node000003"><a xlink:title=" ">
<path fill="none" stroke="#63b8ff" d="M389.71,-270.99C421.92,-263.68 486.81,-248.43 541,-232.5 556.05,-228.07 572.24,-222.8 587.02,-217.79"/>
<polygon fill="#63b8ff" stroke="#63b8ff" points="588.18,-221.09 596.5,-214.54 585.91,-214.47 588.18,-221.09"/>
</a>
</g>
</g>
<!-- Node5&#45;&gt;Node3 -->
<g id="edge10_Node000005_Node000003" class="edge">
<title>Node5&#45;&gt;Node3</title>
<g id="a_edge10_Node000005_Node000003"><a xlink:title=" ">
<path fill="none" stroke="#63b8ff" d="M283.03,-183.3C358.64,-186.75 486.7,-192.58 566.72,-196.23"/>
<polygon fill="#63b8ff" stroke="#63b8ff" points="566.57,-199.73 576.72,-196.68 566.89,-192.73 566.57,-199.73"/>
</a>
</g>
</g>
<!-- Node6 -->
<g id="Node000006" class="node">
<title>Node6</title>
<g id="a_Node000006"><a xlink:href="ie__kernel__ze_8cpp.html#a88fa59032491ae8cb4c70d153fef5bb0" target="_top" xlink:title="Ensure Level Zero context, device and immediate command list exist.">
<polygon fill="white" stroke="#666666" points="418,-171 319,-171 319,-152 418,-152 418,-171"/>
<text text-anchor="middle" x="368.5" y="-159" font-family="Helvetica,sans-Serif" font-size="10.00">ensure_ze_ready</text>
</a>
</g>
</g>
<!-- Node5&#45;&gt;Node6 -->
<g id="edge6_Node000005_Node000006" class="edge">
<title>Node5&#45;&gt;Node6</title>
<g id="a_edge6_Node000005_Node000006"><a xlink:title=" ">
<path fill="none" stroke="#63b8ff" d="M283.42,-172.44C291.82,-171.35 300.41,-170.23 308.76,-169.14"/>
<polygon fill="#63b8ff" stroke="#63b8ff" points="309.31,-172.6 318.77,-167.84 308.4,-165.66 309.31,-172.6"/>
</a>
</g>
</g>
<!-- Node5&#45;&gt;Node7 -->
<g id="edge13_Node000005_Node000007" class="edge">
<title>Node5&#45;&gt;Node7</title>
<g id="a_edge13_Node000005_Node000007"><a xlink:title=" ">
<path fill="none" stroke="#63b8ff" d="M242.32,-170.85C261.74,-162.27 291.72,-150.1 319,-143.5 367.97,-131.65 426.27,-126.78 462.34,-124.81"/>
<polygon fill="#63b8ff" stroke="#63b8ff" points="462.53,-128.31 472.34,-124.31 462.18,-121.32 462.53,-128.31"/>
</a>
</g>
</g>
<!-- Node8 -->
<g id="Node000008" class="node">
<title>Node8</title>
<g id="a_Node000008"><a xlink:href="ie__kernel__ze_8cpp.html#a20d704d2968105641314c50897df8bdb" target="_top" xlink:title="Read a whole binary file into memory.">
<polygon fill="white" stroke="#666666" points="398,-247 339,-247 339,-228 398,-228 398,-247"/>
<text text-anchor="middle" x="368.5" y="-235" font-family="Helvetica,sans-Serif" font-size="10.00">read_file</text>
</a>
</g>
</g>
<!-- Node5&#45;&gt;Node8 -->
<g id="edge11_Node000005_Node000008" class="edge">
<title>Node5&#45;&gt;Node8</title>
<g id="a_edge11_Node000005_Node000008"><a xlink:title=" ">
<path fill="none" stroke="#63b8ff" d="M245.94,-190.04C269.94,-199.41 306.76,-213.79 333.59,-224.26"/>
<polygon fill="#63b8ff" stroke="#63b8ff" points="332.4,-227.55 342.98,-227.93 334.94,-221.03 332.4,-227.55"/>
</a>
</g>
</g>
<!-- Node6&#45;&gt;Node3 -->
<g id="edge7_Node000006_Node000003" class="edge">
<title>Node6&#45;&gt;Node3</title>
<g id="a_edge7_Node000006_Node000003"><a xlink:title=" ">
<path fill="none" stroke="#63b8ff" d="M418.3,-168.28C452.62,-173.06 499.62,-179.63 541,-185.5 549.34,-186.68 558.07,-187.93 566.75,-189.17"/>
<polygon fill="#63b8ff" stroke="#63b8ff" points="566.48,-192.66 576.87,-190.62 567.47,-185.73 566.48,-192.66"/>
</a>
</g>
</g>
<!-- Node6&#45;&gt;Node7 -->
<g id="edge8_Node000006_Node000007" class="edge">
<title>Node6&#45;&gt;Node7</title>
<g id="a_edge8_Node000006_Node000007"><a xlink:title=" ">
<path fill="none" stroke="#63b8ff" d="M401.55,-151.91C420.23,-146.32 443.78,-139.27 462.75,-133.6"/>
<polygon fill="#63b8ff" stroke="#63b8ff" points="463.9,-136.91 472.48,-130.69 461.9,-130.2 463.9,-136.91"/>
</a>
</g>
</g>
<!-- Node7&#45;&gt;Node3 -->
<g id="edge9_Node000007_Node000003" class="edge">
<title>Node7&#45;&gt;Node3</title>
<g id="a_edge9_Node000007_Node000003"><a xlink:title=" ">
<path fill="none" stroke="#63b8ff" d="M516.23,-133.13C537.65,-144.75 574.24,-164.61 601.82,-179.59"/>
<polygon fill="#63b8ff" stroke="#63b8ff" points="600.34,-182.76 610.79,-184.46 603.67,-176.61 600.34,-182.76"/>
</a>
</g>
</g>
<!-- Node8&#45;&gt;Node3 -->
<g id="edge12_Node000008_Node000003" class="edge">
<title>Node8&#45;&gt;Node3</title>
<g id="a_edge12_Node000008_Node000003"><a xlink:title=" ">
<path fill="none" stroke="#63b8ff" d="M398.03,-233.54C432.07,-228.81 490.69,-220.63 541,-213.5 549.34,-212.32 558.07,-211.07 566.75,-209.83"/>
<polygon fill="#63b8ff" stroke="#63b8ff" points="567.47,-213.27 576.87,-208.38 566.48,-206.34 567.47,-213.27"/>
</a>
</g>
</g>
<!-- Node9&#45;&gt;Node3 -->
<g id="edge16_Node000009_Node000003" class="edge">
<title>Node9&#45;&gt;Node3</title>
<g id="a_edge16_Node000009_Node000003"><a xlink:title=" ">
<path fill="none" stroke="#63b8ff" d="M509.43,-77.07C518.08,-84.69 530.41,-95.67 541,-105.5 567.01,-129.65 596.25,-158.01 615.86,-177.21"/>
<polygon fill="#63b8ff" stroke="#63b8ff" points="613.55,-179.84 623.14,-184.34 618.45,-174.84 613.55,-179.84"/>
</a>
</g>
</g>
<!-- Node10&#45;&gt;Node3 -->
<g id="edge18_Node000010_Node000003" class="edge">
<title>Node10&#45;&gt;Node3</title>
<g id="a_edge18_Node000010_Node000003"><a xlink:title=" ">
<path fill="none" stroke="#63b8ff" d="M247.07,-5.89C304.54,0.88 446.24,9.84 541,-49.5 588,-78.93 616.86,-140.26 630.03,-174.69"/>
<polygon fill="#63b8ff" stroke="#63b8ff" points="626.88,-176.27 633.61,-184.45 633.45,-173.85 626.88,-176.27"/>
</a>
</g>
</g>
</g>
</svg>
