<?xml version="1.0" encoding="UTF-8" standalone="no"?>
<!DOCTYPE svg PUBLIC "-//W3C//DTD SVG 1.1//EN"
 "http://www.w3.org/Graphics/SVG/1.1/DTD/svg11.dtd">
<!-- Generated by graphviz version 2.43.0 (0)
 -->
<!-- Title: ie_weights_open Pages: 1 -->
<!--zoomable 902 -->
<svg id="main" version="1.1" xmlns="http://www.w3.org/2000/svg" xmlns:xlink="http://www.w3.org/1999/xlink" xml:space="preserve" onload="init(evt)">
<style type="text/css"><![CDATA[
.edge:hover path { stroke: red; }
.edge:hover polygon { stroke: red; fill: red; }
]]></style>
<script type="text/javascript"><![CDATA[
var edges = document.getElementsByTagName('g');
if (edges && edges.length) {
  for (var i=0;i<edges.length;i++) {
    if (edges[i].id.substr(0,4)=='edge') {
      edges[i].setAttribute('class','edge');
    }
  }
}
]]></script>
        <defs>
                <circle id="rim" cx="0" cy="0" r="7"/>
                <circle id="rim2" cx="0" cy="0" r="3.5"/>
                <g id="zoomPlus">
                        <use xlink:href="#rim" fill="#404040">
                                <set attributeName="fill" to="#808080" begin="zoomplus.mouseover" end="zoomplus.mouseout"/>
                        </use>
                        <path d="M-4,0h8M0,-4v8" fill="none" stroke="white" stroke-width="1.5" pointer-events="none"/>
                </g>
                <g id="zoomMin">
                        <use xlink:href="#rim" fill="#404040">
                                <set attributeName="fill" to="#808080" begin="zoomminus.mouseover" end="zoomminus.mouseout"/>
                        </use>
                        <path d="M-4,0h8" fill="none" stroke="white" stroke-width="1.5" pointer-events="none"/>
                </g>
                <g id="dirArrow">
                        <path fill="none" stroke="white" stroke-width="1.5" d="M0,-3.0v7 M-2.5,-0.5L0,-3.0L2.5,-0.5"/>
                </g>
               <g id="resetDef">
                       <use xlink:href="#rim2" fill="#404040">
                               <set attributeName="fill" to="#808080" begin="reset.mouseover" end="reset.mouseout"/>
                       </use>
               </g>
        </defs>

<script type="text/javascript">
var viewWidth = 1450;
var viewHeight = 902;
var sectionId = 'dynsection-2';
</script>
<script xlink:href="svgpan.js"/>
<svg id="graph" class="graph">
<g id="viewport">
<title>ie_weights_open</title>
<!-- Node1 -->
<g id="node1" class="node">
<title>Node1</title>
<g id="a_node1"><a xlink:title="Open and parse IEBIN v1 metadata and resolve the weights path.">
<polygon fill="#bfbfbf" stroke="black" points="0,-686.5 0,-705.5 98,-705.5 98,-686.5 0,-686.5"/>
<text text-anchor="middle" x="49" y="-693.5" font-family="Helvetica,sans-Serif" font-size="10.00">ie_weights_open</text>
</a>
</g>
</g>
<!-- Node2 -->
<g id="node2" class="node">
<title>Node2</title>
<g id="a_node2"><a xlink:href="weights_8c.html#ae3307b59271742c37862abf0b9698d23" target="_top" xlink:title=" ">
<polygon fill="none" stroke="black" points="352,-874.5 352,-893.5 391,-893.5 391,-874.5 352,-874.5"/>
<text text-anchor="middle" x="371.5" y="-881.5" font-family="Helvetica,sans-Serif" font-size="10.00">cpyz</text>
</a>
</g>
</g>
<!-- Node1&#45;&gt;Node2 -->
<g id="edge1" class="edge">
<title>Node1&#45;&gt;Node2</title>
<path fill="none" stroke="midnightblue" d="M54.41,-705.53C64.99,-727.31 93.91,-781.11 134,-810 167.94,-834.45 286.79,-864.46 341.96,-877.47"/>
<polygon fill="midnightblue" stroke="midnightblue" points="341.26,-880.9 351.79,-879.77 342.85,-874.08 341.26,-880.9"/>
</g>
<!-- Node3 -->
<g id="node3" class="node">
<title>Node3</title>
<g id="a_node3"><a xlink:href="weights_8c.html#a93c92a71a0cf18f3eea8623ea9524d54" target="_top" xlink:title=" ">
<polygon fill="none" stroke="black" points="161.5,-781.5 161.5,-800.5 240.5,-800.5 240.5,-781.5 161.5,-781.5"/>
<text text-anchor="middle" x="201" y="-788.5" font-family="Helvetica,sans-Serif" font-size="10.00">env_flag_get</text>
</a>
</g>
</g>
<!-- Node1&#45;&gt;Node3 -->
<g id="edge2" class="edge">
<title>Node1&#45;&gt;Node3</title>
<path fill="none" stroke="midnightblue" d="M63.47,-705.59C79.9,-717.18 108.6,-737.1 134,-753 146.86,-761.05 161.45,-769.52 173.64,-776.41"/>
<polygon fill="midnightblue" stroke="midnightblue" points="171.99,-779.5 182.42,-781.34 175.42,-773.4 171.99,-779.5"/>
</g>
<!-- Node5 -->
<g id="node5" class="node">
<title>Node5</title>
<g id="a_node5"><a xlink:href="weights_8c.html#a8adb51cd6c239a9589d4d66cd0cf989e" target="_top" xlink:title=" ">
<polygon fill="none" stroke="black" points="144,-724.5 144,-743.5 258,-743.5 258,-724.5 144,-724.5"/>
<text text-anchor="middle" x="201" y="-731.5" font-family="Helvetica,sans-Serif" font-size="10.00">file_exists_readable</text>
</a>
</g>
</g>
<!-- Node1&#45;&gt;Node5 -->
<g id="edge4" class="edge">
<title>Node1&#45;&gt;Node5</title>
<path fill="none" stroke="midnightblue" d="M87.85,-705.59C107.47,-710.56 131.62,-716.68 152.48,-721.96"/>
<polygon fill="midnightblue" stroke="midnightblue" points="151.87,-725.42 162.42,-724.48 153.59,-718.63 151.87,-725.42"/>
</g>
<!-- Node6 -->
<g id="node6" class="node">
<title>Node6</title>
<g id="a_node6"><a xlink:href="weights__dedup_8h.html#aa625b41ce2a24826f8cb464661ace8ec" target="_top" xlink:title="Open a deduplicated model directory.">
<polygon fill="none" stroke="black" points="134,-686.5 134,-705.5 268,-705.5 268,-686.5 134,-686.5"/>
<text text-anchor="middle" x="201" y="-693.5" font-family="Helvetica,sans-Serif" font-size="10.00">ie_weights_dedup_open</text>
</a>
</g>
</g>
<!-- Node1&#45;&gt;Node6 -->
<g id="edge5" class="edge">
<title>Node1&#45;&gt;Node6</title>
<path fill="none" stroke="midnightblue" d="M98.29,-696C106.41,-696 115.02,-696 123.65,-696"/>
<polygon fill="midnightblue" stroke="midnightblue" points="123.76,-699.5 133.76,-696 123.76,-692.5 123.76,-699.5"/>
</g>
<!-- Node32 -->
<g id="node32" class="node">
<title>Node32</title>
<g id="a_node32"><a xlink:href="weights_8c.html#a7bb1dd9958b072fc5d1a80373cc074ff" target="_top" xlink:title=" ">
<polygon fill="none" stroke="black" points="170,-871.5 170,-890.5 232,-890.5 232,-871.5 170,-871.5"/>
<text text-anchor="middle" x="201" y="-878.5" font-family="Helvetica,sans-Serif" font-size="10.00">join_path</text>
</a>
</g>
</g>
<!-- Node1&#45;&gt;Node32 -->
<g id="edge55" class="edge">
<title>Node1&#45;&gt;Node32</title>
<path fill="none" stroke="midnightblue" d="M52.79,-705.82C60.92,-732.74 86.99,-808.6 134,-852 141.59,-859 151.14,-864.5 160.6,-868.74"/>
<polygon fill="midnightblue" stroke="midnightblue" points="159.38,-872.03 169.96,-872.57 162.03,-865.55 159.38,-872.03"/>
</g>
<!-- Node33 -->
<g id="node33" class="node">
<title>Node33</title>
<g id="a_node33"><a xlink:href="weights_8c.html#a911b2111036aebbe893bacad82040caf" target="_top" xlink:title=" ">
<polygon fill="none" stroke="black" points="168.5,-648.5 168.5,-667.5 233.5,-667.5 233.5,-648.5 168.5,-648.5"/>
<text text-anchor="middle" x="201" y="-655.5" font-family="Helvetica,sans-Serif" font-size="10.00">last_slash</text>
</a>
</g>
</g>
<!-- Node1&#45;&gt;Node33 -->
<g id="edge57" class="edge">
<title>Node1&#45;&gt;Node33</title>
<path fill="none" stroke="midnightblue" d="M87.85,-686.41C109.38,-680.96 136.36,-674.12 158.47,-668.52"/>
<polygon fill="midnightblue" stroke="midnightblue" points="159.41,-671.89 168.25,-666.04 157.69,-665.11 159.41,-671.89"/>
</g>
<!-- Node34 -->
<g id="node34" class="node">
<title>Node34</title>
<g id="a_node34"><a xlink:href="weights_8c.html#a7d467c1ab0baceed9b0fdad7b5a8accf" target="_top" xlink:title=" ">
<polygon fill="none" stroke="black" points="161,-610.5 161,-629.5 241,-629.5 241,-610.5 161,-610.5"/>
<text text-anchor="middle" x="201" y="-617.5" font-family="Helvetica,sans-Serif" font-size="10.00">read_all_text</text>
</a>
</g>
</g>
<!-- Node1&#45;&gt;Node34 -->
<g id="edge58" class="edge">
<title>Node1&#45;&gt;Node34</title>
<path fill="none" stroke="midnightblue" d="M61.52,-686.42C77.07,-673.92 106.07,-652.09 134,-639 139.4,-636.47 145.2,-634.21 151.05,-632.2"/>
<polygon fill="midnightblue" stroke="midnightblue" points="152.4,-635.44 160.86,-629.06 150.27,-628.77 152.4,-635.44"/>
</g>
<!-- Node35 -->
<g id="node35" class="node">
<title>Node35</title>
<g id="a_node35"><a xlink:href="weights_8c.html#a5c6ba72035c0c5110c91879350c8647f" target="_top" xlink:title=" ">
<polygon fill="none" stroke="black" points="148.5,-572.5 148.5,-591.5 253.5,-591.5 253.5,-572.5 148.5,-572.5"/>
<text text-anchor="middle" x="201" y="-579.5" font-family="Helvetica,sans-Serif" font-size="10.00">scan_json_key_int</text>
</a>
</g>
</g>
<!-- Node1&#45;&gt;Node35 -->
<g id="edge59" class="edge">
<title>Node1&#45;&gt;Node35</title>
<path fill="none" stroke="midnightblue" d="M55.85,-686.3C67.97,-667.05 97.71,-623.93 134,-601 137.36,-598.88 140.97,-596.98 144.7,-595.29"/>
<polygon fill="midnightblue" stroke="midnightblue" points="146.17,-598.48 154.16,-591.51 143.57,-591.98 146.17,-598.48"/>
</g>
<!-- Node36 -->
<g id="node36" class="node">
<title>Node36</title>
<g id="a_node36"><a xlink:href="weights_8c.html#a3c438658d11f74ba4af8273c7e390311" target="_top" xlink:title=" ">
<polygon fill="none" stroke="black" points="141,-534.5 141,-553.5 261,-553.5 261,-534.5 141,-534.5"/>
<text text-anchor="middle" x="201" y="-541.5" font-family="Helvetica,sans-Serif" font-size="10.00">scan_json_key_string</text>
</a>
</g>
</g>
<!-- Node1&#45;&gt;Node36 -->
<g id="edge60" class="edge">
<title>Node1&#45;&gt;Node36</title>
<path fill="none" stroke="midnightblue" d="M53.34,-686.27C62.29,-661.68 89.22,-596.61 134,-563 136.49,-561.13 139.17,-559.44 141.96,-557.92"/>
<polygon fill="midnightblue" stroke="midnightblue" points="143.61,-561.01 151.19,-553.6 140.65,-554.67 143.61,-561.01"/>
</g>
<!-- Node4 -->
<g id="node4" class="node">
<title>Node4</title>
<g id="a_node4"><a xlink:href="weights_8c.html#a72ab94aafe7740f1343d317daa89ca15" target="_top" xlink:title=" ">
<polygon fill="none" stroke="black" points="342,-836.5 342,-855.5 401,-855.5 401,-836.5 342,-836.5"/>
<text text-anchor="middle" x="371.5" y="-843.5" font-family="Helvetica,sans-Serif" font-size="10.00">ascii_ieq</text>
</a>
</g>
</g>
<!-- Node3&#45;&gt;Node4 -->
<g id="edge3" class="edge">
<title>Node3&#45;&gt;Node4</title>
<path fill="none" stroke="midnightblue" d="M227.85,-800.61C248.38,-808.13 277.88,-818.67 304,-827 313.07,-829.89 322.91,-832.82 332.16,-835.48"/>
<polygon fill="midnightblue" stroke="midnightblue" points="331.33,-838.88 341.91,-838.24 333.24,-832.15 331.33,-838.88"/>
</g>
<!-- Node7 -->
<g id="node7" class="node">
<title>Node7</title>
<g id="a_node7"><a xlink:href="weights__dedup_8c.html#a060093b2059a2c4c10c076c6fb28063d" target="_top" xlink:title="Open and mmap a file read&#45;only.">
<polygon fill="none" stroke="black" points="333,-722.5 333,-741.5 410,-741.5 410,-722.5 333,-722.5"/>
<text text-anchor="middle" x="371.5" y="-729.5" font-family="Helvetica,sans-Serif" font-size="10.00">ie_mmap_ro</text>
</a>
</g>
</g>
<!-- Node6&#45;&gt;Node7 -->
<g id="edge6" class="edge">
<title>Node6&#45;&gt;Node7</title>
<path fill="none" stroke="midnightblue" d="M246.71,-705.55C270.26,-710.58 299.13,-716.75 323.07,-721.87"/>
<polygon fill="midnightblue" stroke="midnightblue" points="322.49,-725.32 333,-723.99 323.95,-718.48 322.49,-725.32"/>
</g>
<!-- Node9 -->
<g id="node9" class="node">
<title>Node9</title>
<g id="a_node9"><a xlink:href="weights__dedup_8c.html#a669961a23366892e06b30179881d75d0" target="_top" xlink:title="ISO C replacement for strdup(3).">
<polygon fill="none" stroke="black" points="502.5,-684.5 502.5,-703.5 564.5,-703.5 564.5,-684.5 502.5,-684.5"/>
<text text-anchor="middle" x="533.5" y="-691.5" font-family="Helvetica,sans-Serif" font-size="10.00">ie_strdup</text>
</a>
</g>
</g>
<!-- Node6&#45;&gt;Node9 -->
<g id="edge50" class="edge">
<title>Node6&#45;&gt;Node9</title>
<path fill="none" stroke="midnightblue" d="M268.09,-695.6C334.98,-695.2 436.28,-694.58 492.08,-694.24"/>
<polygon fill="midnightblue" stroke="midnightblue" points="492.3,-697.74 502.28,-694.18 492.26,-690.74 492.3,-697.74"/>
</g>
<!-- Node10 -->
<g id="node10" class="node">
<title>Node10</title>
<g id="a_node10"><a xlink:href="weights__dedup_8c.html#a59504573413171688ab4fb900b9bda3d" target="_top" xlink:title="Parse the top&#45;level &quot;files&quot; object into logical&#45;&gt;relpath table.">
<polygon fill="none" stroke="black" points="1092,-646.5 1092,-665.5 1211,-665.5 1211,-646.5 1092,-646.5"/>
<text text-anchor="middle" x="1151.5" y="-653.5" font-family="Helvetica,sans-Serif" font-size="10.00">ie_parse_files_object</text>
</a>
</g>
</g>
<!-- Node6&#45;&gt;Node10 -->
<g id="edge9" class="edge">
<title>Node6&#45;&gt;Node10</title>
<path fill="none" stroke="midnightblue" d="M250.22,-686.47C314.39,-674.64 431.5,-656 532.5,-656 532.5,-656 532.5,-656 865.5,-656 939.37,-656 1024,-656 1081.72,-656"/>
<polygon fill="midnightblue" stroke="midnightblue" points="1081.82,-659.5 1091.82,-656 1081.82,-652.5 1081.82,-659.5"/>
</g>
<!-- Node13 -->
<g id="node13" class="node">
<title>Node13</title>
<g id="a_node13"><a xlink:href="weights__dedup_8c.html#a1eaf38d57abdd040f9c40e2e3ea1525c" target="_top" xlink:title="Parse the &quot;tensors&quot; array into an allocated table.">
<polygon fill="none" stroke="black" points="306.5,-608.5 306.5,-627.5 436.5,-627.5 436.5,-608.5 306.5,-608.5"/>
<text text-anchor="middle" x="371.5" y="-615.5" font-family="Helvetica,sans-Serif" font-size="10.00">ie_parse_tensors_array</text>
</a>
</g>
</g>
<!-- Node6&#45;&gt;Node13 -->
<g id="edge13" class="edge">
<title>Node6&#45;&gt;Node13</title>
<path fill="none" stroke="midnightblue" d="M246.55,-686.43C253.97,-683.93 261.4,-680.83 268,-677 287.3,-665.8 285.08,-653.83 304,-642 310.73,-637.79 318.31,-634.18 325.87,-631.12"/>
<polygon fill="midnightblue" stroke="midnightblue" points="327.25,-634.35 335.38,-627.56 324.79,-627.79 327.25,-634.35"/>
</g>
<!-- Node19 -->
<g id="node19" class="node">
<title>Node19</title>
<g id="a_node19"><a xlink:href="weights__dedup_8c.html#ae0494f541a190a9ecf82c11c5eb22952" target="_top" xlink:title="Find a top&#45;level object member by key and return cursor at its value.">
<polygon fill="none" stroke="black" points="801,-333.5 801,-352.5 928,-352.5 928,-333.5 801,-333.5"/>
<text text-anchor="middle" x="864.5" y="-340.5" font-family="Helvetica,sans-Serif" font-size="10.00">js_find_member_value</text>
</a>
</g>
</g>
<!-- Node6&#45;&gt;Node19 -->
<g id="edge54" class="edge">
<title>Node6&#45;&gt;Node19</title>
<path fill="none" stroke="midnightblue" d="M252.64,-686.43C258.2,-683.97 263.48,-680.88 268,-677 296.97,-652.13 285.03,-632.14 304,-599 427.52,-383.24 406.41,-255.72 628,-143 682.27,-115.39 713.3,-110.83 765,-143 830.02,-183.46 853.37,-280.85 860.63,-323"/>
<polygon fill="midnightblue" stroke="midnightblue" points="857.21,-323.79 862.24,-333.11 864.12,-322.69 857.21,-323.79"/>
</g>
<!-- Node27 -->
<g id="node27" class="node">
<title>Node27</title>
<g id="a_node27"><a xlink:href="weights__dedup_8c.html#a6ee8c66244f12998688b2af6ab54e191" target="_top" xlink:title="Join directory + relative filename into a newly allocated path.">
<polygon fill="none" stroke="black" points="333.5,-38.5 333.5,-57.5 409.5,-57.5 409.5,-38.5 333.5,-38.5"/>
<text text-anchor="middle" x="371.5" y="-45.5" font-family="Helvetica,sans-Serif" font-size="10.00">ie_path_join</text>
</a>
</g>
</g>
<!-- Node6&#45;&gt;Node27 -->
<g id="edge48" class="edge">
<title>Node6&#45;&gt;Node27</title>
<path fill="none" stroke="midnightblue" d="M257,-686.38C261.18,-683.9 264.95,-680.82 268,-677 352.16,-571.85 223.36,-179.87 304,-72 309.02,-65.29 316.08,-60.45 323.75,-56.97"/>
<polygon fill="midnightblue" stroke="midnightblue" points="325.2,-60.16 333.31,-53.35 322.72,-53.62 325.2,-60.16"/>
</g>
<!-- Node28 -->
<g id="node28" class="node">
<title>Node28</title>
<g id="a_node28"><a xlink:href="weights__dedup_8c.html#a1c615c8f5bb58bc9c38caf665a46c222" target="_top" xlink:title="Read an entire file into memory (NUL&#45;terminated).">
<polygon fill="none" stroke="black" points="322.5,-0.5 322.5,-19.5 420.5,-19.5 420.5,-0.5 322.5,-0.5"/>
<text text-anchor="middle" x="371.5" y="-7.5" font-family="Helvetica,sans-Serif" font-size="10.00">ie_read_file_text</text>
</a>
</g>
</g>
<!-- Node6&#45;&gt;Node28 -->
<g id="edge49" class="edge">
<title>Node6&#45;&gt;Node28</title>
<path fill="none" stroke="midnightblue" d="M257.02,-686.39C261.19,-683.91 264.95,-680.82 268,-677 357.9,-564.22 213.99,-141.69 304,-29 306.7,-25.62 309.95,-22.82 313.55,-20.5"/>
<polygon fill="midnightblue" stroke="midnightblue" points="315.19,-23.59 322.48,-15.9 311.99,-17.36 315.19,-23.59"/>
</g>
<!-- Node29 -->
<g id="node29" class="node">
<title>Node29</title>
<g id="a_node29"><a xlink:href="weights__dedup_8c.html#a50e4eaaf5cdde861256cd33fc4bd7c9a" target="_top" xlink:title="Compare tensor refs by name (qsort/bsearch).">
<polygon fill="none" stroke="black" points="311,-798.5 311,-817.5 432,-817.5 432,-798.5 311,-798.5"/>
<text text-anchor="middle" x="371.5" y="-805.5" font-family="Helvetica,sans-Serif" font-size="10.00">ie_tensor_cmp_name</text>
</a>
</g>
</g>
<!-- Node6&#45;&gt;Node29 -->
<g id="edge51" class="edge">
<title>Node6&#45;&gt;Node29</title>
<path fill="none" stroke="midnightblue" d="M252.23,-705.51C257.93,-707.98 263.35,-711.09 268,-715 295.99,-738.54 275.98,-765.49 304,-789 306.01,-790.69 308.17,-792.23 310.42,-793.63"/>
<polygon fill="midnightblue" stroke="midnightblue" points="309.07,-796.87 319.55,-798.39 312.3,-790.66 309.07,-796.87"/>
</g>
<!-- Node30 -->
<g id="node30" class="node">
<title>Node30</title>
<g id="a_node30"><a xlink:href="weights__dedup_8c.html#a3ad33a6fe3c7a81072c092d1ee510fce" target="_top" xlink:title="Close a deduplicated weights handle and release resources.">
<polygon fill="none" stroke="black" points="304,-760.5 304,-779.5 439,-779.5 439,-760.5 304,-760.5"/>
<text text-anchor="middle" x="371.5" y="-767.5" font-family="Helvetica,sans-Serif" font-size="10.00">ie_weights_dedup_close</text>
</a>
</g>
</g>
<!-- Node6&#45;&gt;Node30 -->
<g id="edge52" class="edge">
<title>Node6&#45;&gt;Node30</title>
<path fill="none" stroke="midnightblue" d="M246.94,-705.61C254.25,-708.1 261.53,-711.18 268,-715 287.49,-726.49 284.5,-739.53 304,-751 307.67,-753.16 311.59,-755.08 315.64,-756.8"/>
<polygon fill="midnightblue" stroke="midnightblue" points="314.63,-760.16 325.22,-760.43 317.11,-753.61 314.63,-760.16"/>
</g>
<!-- Node8 -->
<g id="node8" class="node">
<title>Node8</title>
<g id="a_node8"><a xlink:href="weights__dedup_8c.html#afce7a854e840439c94b436e7226fc8f8" target="_top" xlink:title="Best&#45;effort madvise to improve paging behavior.">
<polygon fill="none" stroke="black" points="480,-722.5 480,-741.5 587,-741.5 587,-722.5 480,-722.5"/>
<text text-anchor="middle" x="533.5" y="-729.5" font-family="Helvetica,sans-Serif" font-size="10.00">ie_madvise_policy</text>
</a>
</g>
</g>
<!-- Node7&#45;&gt;Node8 -->
<g id="edge7" class="edge">
<title>Node7&#45;&gt;Node8</title>
<path fill="none" stroke="midnightblue" d="M410.01,-732C427.79,-732 449.51,-732 469.7,-732"/>
<polygon fill="midnightblue" stroke="midnightblue" points="469.78,-735.5 479.78,-732 469.78,-728.5 469.78,-735.5"/>
</g>
<!-- Node7&#45;&gt;Node9 -->
<g id="edge8" class="edge">
<title>Node7&#45;&gt;Node9</title>
<path fill="none" stroke="midnightblue" d="M410.01,-723.09C434.77,-717.21 467.18,-709.51 492.44,-703.51"/>
<polygon fill="midnightblue" stroke="midnightblue" points="493.52,-706.86 502.44,-701.14 491.9,-700.04 493.52,-706.86"/>
</g>
<!-- Node11 -->
<g id="node11" class="node">
<title>Node11</title>
<g id="a_node11"><a xlink:href="weights__dedup_8c.html#a7e3b6f5b10e0d8d68272d2e80523813b" target="_top" xlink:title="Parse a JSON string (no full unicode support; supports common escapes).">
<polygon fill="none" stroke="black" points="1247,-494.5 1247,-513.5 1337,-513.5 1337,-494.5 1247,-494.5"/>
<text text-anchor="middle" x="1292" y="-501.5" font-family="Helvetica,sans-Serif" font-size="10.00">js_parse_string</text>
</a>
</g>
</g>
<!-- Node10&#45;&gt;Node11 -->
<g id="edge10" class="edge">
<title>Node10&#45;&gt;Node11</title>
<path fill="none" stroke="midnightblue" d="M1161.71,-646.42C1173.31,-634.31 1193.81,-612.77 1211,-594 1233.81,-569.09 1259.69,-539.78 1275.68,-521.54"/>
<polygon fill="midnightblue" stroke="midnightblue" points="1278.73,-523.37 1282.68,-513.54 1273.46,-518.76 1278.73,-523.37"/>
</g>
<!-- Node12 -->
<g id="node12" class="node">
<title>Node12</title>
<g id="a_node12"><a xlink:href="weights__dedup_8c.html#a82535eef357e00f15379d3a922d6593d" target="_top" xlink:title="Skip JSON whitespace.">
<polygon fill="none" stroke="black" points="1373,-304.5 1373,-323.5 1442,-323.5 1442,-304.5 1373,-304.5"/>
<text text-anchor="middle" x="1407.5" y="-311.5" font-family="Helvetica,sans-Serif" font-size="10.00">js_skip_ws</text>
</a>
</g>
</g>
<!-- Node10&#45;&gt;Node12 -->
<g id="edge12" class="edge">
<title>Node10&#45;&gt;Node12</title>
<path fill="none" stroke="midnightblue" d="M1211.29,-664.52C1251.63,-666.89 1303.68,-662.58 1337,-632 1381.49,-591.17 1400.13,-396.92 1405.08,-333.83"/>
<polygon fill="midnightblue" stroke="midnightblue" points="1408.58,-333.88 1405.85,-323.65 1401.6,-333.36 1408.58,-333.88"/>
</g>
<!-- Node11&#45;&gt;Node12 -->
<g id="edge11" class="edge">
<title>Node11&#45;&gt;Node12</title>
<path fill="none" stroke="midnightblue" d="M1304.99,-494.37C1314.55,-486.23 1327.82,-473.87 1337,-461 1366.79,-419.21 1389.31,-362.65 1399.87,-333.37"/>
<polygon fill="midnightblue" stroke="midnightblue" points="1403.3,-334.16 1403.32,-323.57 1396.7,-331.84 1403.3,-334.16"/>
</g>
<!-- Node13&#45;&gt;Node12 -->
<g id="edge47" class="edge">
<title>Node13&#45;&gt;Node12</title>
<path fill="none" stroke="midnightblue" d="M436.54,-618C501.71,-618 605.64,-618 695.5,-618 695.5,-618 695.5,-618 1152.5,-618 1244.73,-618 1277.01,-593.06 1337,-523 1385.77,-466.04 1400.61,-373.71 1404.88,-333.62"/>
<polygon fill="midnightblue" stroke="midnightblue" points="1408.37,-333.85 1405.84,-323.56 1401.4,-333.18 1408.37,-333.85"/>
</g>
<!-- Node14 -->
<g id="node14" class="node">
<title>Node14</title>
<g id="a_node14"><a xlink:href="weights__dedup_8c.html#ac8435c15b639ac76b805cc23f609be12" target="_top" xlink:title="Parse one tensor object within the &quot;tensors&quot; array.">
<polygon fill="none" stroke="black" points="475,-362.5 475,-381.5 592,-381.5 592,-362.5 475,-362.5"/>
<text text-anchor="middle" x="533.5" y="-369.5" font-family="Helvetica,sans-Serif" font-size="10.00">ie_parse_one_tensor</text>
</a>
</g>
</g>
<!-- Node13&#45;&gt;Node14 -->
<g id="edge14" class="edge">
<title>Node13&#45;&gt;Node14</title>
<path fill="none" stroke="midnightblue" d="M378.77,-608.36C402.77,-571.46 488.98,-438.91 520.69,-390.16"/>
<polygon fill="midnightblue" stroke="midnightblue" points="523.75,-391.87 526.27,-381.58 517.88,-388.05 523.75,-391.87"/>
</g>
<!-- Node14&#45;&gt;Node11 -->
<g id="edge44" class="edge">
<title>Node14&#45;&gt;Node11</title>
<path fill="none" stroke="midnightblue" d="M538.6,-381.66C549.46,-406.07 581.36,-470.76 628,-505 716.55,-570 753.65,-580 863.5,-580 863.5,-580 863.5,-580 1011,-580 1104.97,-580 1210.68,-539.64 1261.12,-517.74"/>
<polygon fill="midnightblue" stroke="midnightblue" points="1262.71,-520.86 1270.45,-513.63 1259.88,-514.46 1262.71,-520.86"/>
</g>
<!-- Node14&#45;&gt;Node12 -->
<g id="edge46" class="edge">
<title>Node14&#45;&gt;Node12</title>
<path fill="none" stroke="midnightblue" d="M535.08,-362.02C537.77,-325.48 552.46,-198.29 628,-143 712.73,-80.98 758.49,-124 863.5,-124 863.5,-124 863.5,-124 1152.5,-124 1235.72,-124 1271.46,-104.71 1337,-156 1381.52,-190.85 1398.17,-260.15 1403.85,-294.19"/>
<polygon fill="midnightblue" stroke="midnightblue" points="1400.42,-294.92 1405.37,-304.29 1407.34,-293.87 1400.42,-294.92"/>
</g>
<!-- Node15 -->
<g id="node15" class="node">
<title>Node15</title>
<g id="a_node15"><a xlink:href="weights__dedup_8c.html#a769c13c3bd5730384bfe064bc1618b11" target="_top" xlink:title="Element size in bytes for a dtype (int4 returns 0 because nibble&#45;based).">
<polygon fill="none" stroke="black" points="640,-152.5 640,-171.5 753,-171.5 753,-152.5 640,-152.5"/>
<text text-anchor="middle" x="696.5" y="-159.5" font-family="Helvetica,sans-Serif" font-size="10.00">ie_dtype_elem_size</text>
</a>
</g>
</g>
<!-- Node14&#45;&gt;Node15 -->
<g id="edge15" class="edge">
<title>Node14&#45;&gt;Node15</title>
<path fill="none" stroke="midnightblue" d="M536.64,-362.33C543.89,-331.88 570.29,-236.95 628,-186 632.54,-181.99 637.79,-178.64 643.33,-175.84"/>
<polygon fill="midnightblue" stroke="midnightblue" points="645.1,-178.88 652.82,-171.63 642.26,-172.48 645.1,-178.88"/>
</g>
<!-- Node16 -->
<g id="node16" class="node">
<title>Node16</title>
<g id="a_node16"><a xlink:href="weights__dedup_8c.html#abf09bf44922c5b2ad9b0d7cd5cb02fcb" target="_top" xlink:title="Find index of a logical file name in file refs.">
<polygon fill="none" stroke="black" points="646,-476.5 646,-495.5 747,-495.5 747,-476.5 646,-476.5"/>
<text text-anchor="middle" x="696.5" y="-483.5" font-family="Helvetica,sans-Serif" font-size="10.00">ie_find_file_index</text>
</a>
</g>
</g>
<!-- Node14&#45;&gt;Node16 -->
<g id="edge16" class="edge">
<title>Node14&#45;&gt;Node16</title>
<path fill="none" stroke="midnightblue" d="M541.98,-381.51C556.66,-399.59 591.02,-439.12 628,-462 634.92,-466.28 642.71,-469.94 650.47,-473.02"/>
<polygon fill="midnightblue" stroke="midnightblue" points="649.27,-476.3 659.87,-476.48 651.7,-469.74 649.27,-476.3"/>
</g>
<!-- Node17 -->
<g id="node17" class="node">
<title>Node17</title>
<g id="a_node17"><a xlink:href="weights__dedup_8c.html#a4cce94dd277bd5e194b03d519205c2b4" target="_top" xlink:title="Compute element count from shape (product of dims).">
<polygon fill="none" stroke="black" points="635.5,-400.5 635.5,-419.5 757.5,-419.5 757.5,-400.5 635.5,-400.5"/>
<text text-anchor="middle" x="696.5" y="-407.5" font-family="Helvetica,sans-Serif" font-size="10.00">ie_shape_elem_count</text>
</a>
</g>
</g>
<!-- Node14&#45;&gt;Node17 -->
<g id="edge17" class="edge">
<title>Node14&#45;&gt;Node17</title>
<path fill="none" stroke="midnightblue" d="M575.13,-381.59C596.47,-386.63 622.81,-392.84 645.41,-398.18"/>
<polygon fill="midnightblue" stroke="midnightblue" points="644.63,-401.59 655.17,-400.48 646.24,-394.78 644.63,-401.59"/>
</g>
<!-- Node18 -->
<g id="node18" class="node">
<title>Node18</title>
<g id="a_node18"><a xlink:href="weights__dedup_8c.html#ad0ae06a184c7f1407994167e82afedb7" target="_top" xlink:title="Parse a dtype string to an ie_wdtype_t.">
<polygon fill="none" stroke="black" points="628,-275 628,-305 765,-305 765,-275 628,-275"/>
<text text-anchor="start" x="636" y="-293" font-family="Helvetica,sans-Serif" font-size="10.00">ie_weights_dedup_parse</text>
<text text-anchor="middle" x="696.5" y="-282" font-family="Helvetica,sans-Serif" font-size="10.00">_dtype</text>
</a>
</g>
</g>
<!-- Node14&#45;&gt;Node18 -->
<g id="edge18" class="edge">
<title>Node14&#45;&gt;Node18</title>
<path fill="none" stroke="midnightblue" d="M550.81,-362.34C569.29,-351.55 600.41,-333.77 628,-320 635.26,-316.38 643.06,-312.71 650.68,-309.25"/>
<polygon fill="midnightblue" stroke="midnightblue" points="652.15,-312.42 659.84,-305.14 649.28,-306.04 652.15,-312.42"/>
</g>
<!-- Node14&#45;&gt;Node19 -->
<g id="edge19" class="edge">
<title>Node14&#45;&gt;Node19</title>
<path fill="none" stroke="midnightblue" d="M574.31,-362.46C590.83,-358.89 610.24,-355.17 628,-353 682.31,-346.37 744.12,-343.94 790.79,-343.13"/>
<polygon fill="midnightblue" stroke="midnightblue" points="790.86,-346.63 800.8,-342.97 790.75,-339.63 790.86,-346.63"/>
</g>
<!-- Node24 -->
<g id="node24" class="node">
<title>Node24</title>
<g id="a_node24"><a xlink:href="weights__dedup_8c.html#ae1e5c9a54a8c0312241d17afd01c40a0" target="_top" xlink:title="Skip a JSON object.">
<polygon fill="none" stroke="black" points="1108.5,-456.5 1108.5,-475.5 1194.5,-475.5 1194.5,-456.5 1108.5,-456.5"/>
<text text-anchor="middle" x="1151.5" y="-463.5" font-family="Helvetica,sans-Serif" font-size="10.00">js_skip_object</text>
</a>
</g>
</g>
<!-- Node14&#45;&gt;Node24 -->
<g id="edge45" class="edge">
<title>Node14&#45;&gt;Node24</title>
<path fill="none" stroke="midnightblue" d="M545.99,-381.56C562.79,-394.91 595.58,-418.65 628,-429 793.29,-481.78 1002.43,-476.44 1098.25,-470.29"/>
<polygon fill="midnightblue" stroke="midnightblue" points="1098.52,-473.78 1108.26,-469.62 1098.05,-466.8 1098.52,-473.78"/>
</g>
<!-- Node25 -->
<g id="node25" class="node">
<title>Node25</title>
<g id="a_node25"><a xlink:href="weights__dedup_8c.html#ac65e64ed76368c21cf76399a4eed1b90" target="_top" xlink:title="Parse a blob ref object: {&quot;file&quot;:&quot;defaults&quot;,&quot;offset&quot;:N,&quot;nbytes&quot;:M}.">
<polygon fill="none" stroke="black" points="648,-362.5 648,-381.5 745,-381.5 745,-362.5 648,-362.5"/>
<text text-anchor="middle" x="696.5" y="-369.5" font-family="Helvetica,sans-Serif" font-size="10.00">js_parse_blobref</text>
</a>
</g>
</g>
<!-- Node14&#45;&gt;Node25 -->
<g id="edge35" class="edge">
<title>Node14&#45;&gt;Node25</title>
<path fill="none" stroke="midnightblue" d="M592.17,-372C606.98,-372 622.91,-372 637.73,-372"/>
<polygon fill="midnightblue" stroke="midnightblue" points="637.78,-375.5 647.78,-372 637.78,-368.5 637.78,-375.5"/>
</g>
<!-- Node26 -->
<g id="node26" class="node">
<title>Node26</title>
<g id="a_node26"><a xlink:href="weights__dedup_8c.html#a176ff7ed51749363637a7ad5366cf4e9" target="_top" xlink:title="Parse a shape array: [d0, d1, ...].">
<polygon fill="none" stroke="black" points="964,-152.5 964,-171.5 1056,-171.5 1056,-152.5 964,-152.5"/>
<text text-anchor="middle" x="1010" y="-159.5" font-family="Helvetica,sans-Serif" font-size="10.00">js_parse_shape</text>
</a>
</g>
</g>
<!-- Node14&#45;&gt;Node26 -->
<g id="edge41" class="edge">
<title>Node14&#45;&gt;Node26</title>
<path fill="none" stroke="midnightblue" d="M540.61,-362.39C554.07,-341.89 588.28,-293.42 628,-265 727.86,-193.55 874.61,-171.66 953.67,-164.96"/>
<polygon fill="midnightblue" stroke="midnightblue" points="954.21,-168.42 963.9,-164.14 953.65,-161.45 954.21,-168.42"/>
</g>
<!-- Node19&#45;&gt;Node11 -->
<g id="edge20" class="edge">
<title>Node19&#45;&gt;Node11</title>
<path fill="none" stroke="midnightblue" d="M876.76,-352.83C908.2,-379.61 1000.6,-453.94 1092,-485 1139.11,-501.01 1195.85,-505.05 1236.68,-505.5"/>
<polygon fill="midnightblue" stroke="midnightblue" points="1236.68,-509 1246.7,-505.54 1236.71,-502 1236.68,-509"/>
</g>
<!-- Node19&#45;&gt;Node12 -->
<g id="edge34" class="edge">
<title>Node19&#45;&gt;Node12</title>
<path fill="none" stroke="midnightblue" d="M899.68,-333.42C943.72,-321.62 1022.84,-302.25 1092,-295 1144.6,-289.49 1158.17,-292.44 1211,-295 1263.22,-297.53 1323,-303.84 1362.56,-308.5"/>
<polygon fill="midnightblue" stroke="midnightblue" points="1362.32,-312 1372.67,-309.71 1363.15,-305.05 1362.32,-312"/>
</g>
<!-- Node20 -->
<g id="node20" class="node">
<title>Node20</title>
<g id="a_node20"><a xlink:href="weights__dedup_8c.html#aec6b7531542a45304d1f17d108a6d2ea" target="_top" xlink:title="Skip a generic JSON value (object/array/string/number/literal).">
<polygon fill="none" stroke="black" points="968.5,-342.5 968.5,-361.5 1051.5,-361.5 1051.5,-342.5 968.5,-342.5"/>
<text text-anchor="middle" x="1010" y="-349.5" font-family="Helvetica,sans-Serif" font-size="10.00">js_skip_value</text>
</a>
</g>
</g>
<!-- Node19&#45;&gt;Node20 -->
<g id="edge21" class="edge">
<title>Node19&#45;&gt;Node20</title>
<path fill="none" stroke="midnightblue" d="M928.02,-346.92C938.01,-347.55 948.23,-348.19 957.91,-348.8"/>
<polygon fill="midnightblue" stroke="midnightblue" points="957.96,-352.31 968.16,-349.44 958.4,-345.32 957.96,-352.31"/>
</g>
<!-- Node20&#45;&gt;Node11 -->
<g id="edge25" class="edge">
<title>Node20&#45;&gt;Node11</title>
<path fill="none" stroke="midnightblue" d="M1023.93,-361.6C1039.49,-372.84 1066.68,-391.49 1092,-404 1142.42,-428.9 1161.19,-420.89 1211,-447 1233.17,-458.63 1256.23,-475.66 1271.86,-488.08"/>
<polygon fill="midnightblue" stroke="midnightblue" points="1269.75,-490.88 1279.72,-494.44 1274.15,-485.43 1269.75,-490.88"/>
</g>
<!-- Node20&#45;&gt;Node12 -->
<g id="edge33" class="edge">
<title>Node20&#45;&gt;Node12</title>
<path fill="none" stroke="midnightblue" d="M1043.8,-361.51C1058.42,-365.27 1075.93,-369.14 1092,-371 1144.54,-377.08 1158.64,-378.48 1211,-371 1268.99,-362.72 1333.81,-341.28 1372.33,-327.18"/>
<polygon fill="midnightblue" stroke="midnightblue" points="1373.84,-330.35 1382,-323.6 1371.41,-323.79 1373.84,-330.35"/>
</g>
<!-- Node21 -->
<g id="node21" class="node">
<title>Node21</title>
<g id="a_node21"><a xlink:href="weights__dedup_8c.html#acb6d250836afa5eddeb1985efad8afa4" target="_top" xlink:title="Match a JSON literal.">
<polygon fill="none" stroke="black" points="1113.5,-342.5 1113.5,-361.5 1189.5,-361.5 1189.5,-342.5 1113.5,-342.5"/>
<text text-anchor="middle" x="1151.5" y="-349.5" font-family="Helvetica,sans-Serif" font-size="10.00">js_match_lit</text>
</a>
</g>
</g>
<!-- Node20&#45;&gt;Node21 -->
<g id="edge22" class="edge">
<title>Node20&#45;&gt;Node21</title>
<path fill="none" stroke="midnightblue" d="M1051.72,-352C1067.84,-352 1086.47,-352 1103.18,-352"/>
<polygon fill="midnightblue" stroke="midnightblue" points="1103.3,-355.5 1113.3,-352 1103.3,-348.5 1103.3,-355.5"/>
</g>
<!-- Node22 -->
<g id="node22" class="node">
<title>Node22</title>
<g id="a_node22"><a xlink:href="weights__dedup_8c.html#a080768f8631e237e2467fc47a7d4d6a0" target="_top" xlink:title="Parse a JSON integer (int64).">
<polygon fill="none" stroke="black" points="1113,-190.5 1113,-209.5 1190,-209.5 1190,-190.5 1113,-190.5"/>
<text text-anchor="middle" x="1151.5" y="-197.5" font-family="Helvetica,sans-Serif" font-size="10.00">js_parse_i64</text>
</a>
</g>
</g>
<!-- Node20&#45;&gt;Node22 -->
<g id="edge23" class="edge">
<title>Node20&#45;&gt;Node22</title>
<path fill="none" stroke="midnightblue" d="M1019.73,-342.49C1042.72,-317.43 1105.24,-249.32 1134.72,-217.2"/>
<polygon fill="midnightblue" stroke="midnightblue" points="1137.59,-219.24 1141.78,-209.5 1132.44,-214.51 1137.59,-219.24"/>
</g>
<!-- Node23 -->
<g id="node23" class="node">
<title>Node23</title>
<g id="a_node23"><a xlink:href="weights__dedup_8c.html#aeb7fa9bc2ccc7b24ae16f647bcafb49b" target="_top" xlink:title="Skip a JSON array.">
<polygon fill="none" stroke="black" points="1111,-304.5 1111,-323.5 1192,-323.5 1192,-304.5 1111,-304.5"/>
<text text-anchor="middle" x="1151.5" y="-311.5" font-family="Helvetica,sans-Serif" font-size="10.00">js_skip_array</text>
</a>
</g>
</g>
<!-- Node20&#45;&gt;Node23 -->
<g id="edge26" class="edge">
<title>Node20&#45;&gt;Node23</title>
<path fill="none" stroke="midnightblue" d="M1028.95,-342.41C1047.14,-335.6 1076.1,-327.11 1101.19,-320.95"/>
<polygon fill="midnightblue" stroke="midnightblue" points="1102.02,-324.35 1110.94,-318.62 1100.4,-317.54 1102.02,-324.35"/>
</g>
<!-- Node20&#45;&gt;Node24 -->
<g id="edge29" class="edge">
<title>Node20&#45;&gt;Node24</title>
<path fill="none" stroke="midnightblue" d="M1038.48,-361.59C1044.6,-366.05 1050.81,-371.4 1056,-377 1076.12,-398.7 1069.26,-414.07 1092,-433 1102.44,-441.69 1116.46,-447.59 1128.15,-452.38"/>
<polygon fill="midnightblue" stroke="midnightblue" points="1127.11,-455.74 1137.68,-456.35 1129.8,-449.27 1127.11,-455.74"/>
</g>
<!-- Node22&#45;&gt;Node12 -->
<g id="edge24" class="edge">
<title>Node22&#45;&gt;Node12</title>
<path fill="none" stroke="midnightblue" d="M1190.14,-196.81C1229.41,-195.24 1291.48,-197.86 1337,-224 1365.82,-240.55 1386.79,-274.25 1397.77,-295.39"/>
<polygon fill="midnightblue" stroke="midnightblue" points="1394.65,-296.97 1402.23,-304.37 1400.92,-293.86 1394.65,-296.97"/>
</g>
<!-- Node23&#45;&gt;Node12 -->
<g id="edge28" class="edge">
<title>Node23&#45;&gt;Node12</title>
<path fill="none" stroke="midnightblue" d="M1192.19,-314C1238.46,-314 1314.72,-314 1362.69,-314"/>
<polygon fill="midnightblue" stroke="midnightblue" points="1362.77,-317.5 1372.77,-314 1362.77,-310.5 1362.77,-317.5"/>
</g>
<!-- Node23&#45;&gt;Node20 -->
<g id="edge27" class="edge">
<title>Node23&#45;&gt;Node20</title>
<path fill="none" stroke="midnightblue" d="M1132.72,-323.53C1114.89,-330.22 1086.58,-338.54 1061.75,-344.7"/>
<polygon fill="midnightblue" stroke="midnightblue" points="1060.63,-341.37 1051.72,-347.11 1062.27,-348.17 1060.63,-341.37"/>
</g>
<!-- Node24&#45;&gt;Node11 -->
<g id="edge30" class="edge">
<title>Node24&#45;&gt;Node11</title>
<path fill="none" stroke="midnightblue" d="M1187.45,-475.59C1205.33,-480.49 1227.29,-486.52 1246.38,-491.76"/>
<polygon fill="midnightblue" stroke="midnightblue" points="1245.49,-495.14 1256.06,-494.41 1247.34,-488.39 1245.49,-495.14"/>
</g>
<!-- Node24&#45;&gt;Node12 -->
<g id="edge32" class="edge">
<title>Node24&#45;&gt;Node12</title>
<path fill="none" stroke="midnightblue" d="M1194.55,-459.16C1234.18,-451.12 1293.78,-434.77 1337,-404 1363.67,-385.01 1384.96,-352.85 1396.64,-332.55"/>
<polygon fill="midnightblue" stroke="midnightblue" points="1399.79,-334.1 1401.58,-323.65 1393.67,-330.7 1399.79,-334.1"/>
</g>
<!-- Node24&#45;&gt;Node20 -->
<g id="edge31" class="edge">
<title>Node24&#45;&gt;Node20</title>
<path fill="none" stroke="midnightblue" d="M1108.43,-461.34C1102.57,-458.53 1096.89,-455.07 1092,-451 1069.26,-432.07 1076.12,-416.7 1056,-395 1046.83,-385.1 1034.49,-376.01 1025.05,-368.32"/>
<polygon fill="midnightblue" stroke="midnightblue" points="1027.22,-365.57 1017.38,-361.66 1022.64,-370.86 1027.22,-365.57"/>
</g>
<!-- Node25&#45;&gt;Node11 -->
<g id="edge38" class="edge">
<title>Node25&#45;&gt;Node11</title>
<path fill="none" stroke="midnightblue" d="M736.87,-381.57C746.22,-384.26 756.07,-387.43 765,-391 781.8,-397.71 784.38,-402.84 801,-410 926.47,-464.05 957.22,-486.7 1092,-509 1140.46,-517.02 1196.45,-514.59 1236.67,-510.85"/>
<polygon fill="midnightblue" stroke="midnightblue" points="1237.19,-514.31 1246.8,-509.84 1236.51,-507.35 1237.19,-514.31"/>
</g>
<!-- Node25&#45;&gt;Node12 -->
<g id="edge40" class="edge">
<title>Node25&#45;&gt;Node12</title>
<path fill="none" stroke="midnightblue" d="M709.73,-362.36C749.99,-331.64 883.02,-238 1009,-238 1009,-238 1009,-238 1152.5,-238 1238.01,-238 1333.18,-278.03 1378.96,-299.98"/>
<polygon fill="midnightblue" stroke="midnightblue" points="1377.43,-303.13 1387.95,-304.37 1380.5,-296.84 1377.43,-303.13"/>
</g>
<!-- Node25&#45;&gt;Node19 -->
<g id="edge36" class="edge">
<title>Node25&#45;&gt;Node19</title>
<path fill="none" stroke="midnightblue" d="M745.07,-363.69C761.81,-360.77 780.91,-357.43 798.81,-354.3"/>
<polygon fill="midnightblue" stroke="midnightblue" points="799.65,-357.71 808.9,-352.54 798.45,-350.81 799.65,-357.71"/>
</g>
<!-- Node25&#45;&gt;Node22 -->
<g id="edge37" class="edge">
<title>Node25&#45;&gt;Node22</title>
<path fill="none" stroke="midnightblue" d="M712.51,-362.33C727.56,-351.96 750.53,-334.24 765,-314 790.06,-278.96 766.17,-249.36 801,-224 847.84,-189.89 1018.59,-193.26 1102.84,-197.22"/>
<polygon fill="midnightblue" stroke="midnightblue" points="1102.75,-200.72 1112.91,-197.71 1103.09,-193.72 1102.75,-200.72"/>
</g>
<!-- Node25&#45;&gt;Node24 -->
<g id="edge39" class="edge">
<title>Node25&#45;&gt;Node24</title>
<path fill="none" stroke="midnightblue" d="M745.26,-377.86C814.44,-386.88 946.27,-406.11 1056,-434 1076.07,-439.1 1098,-446.41 1115.68,-452.76"/>
<polygon fill="midnightblue" stroke="midnightblue" points="1114.96,-456.23 1125.55,-456.37 1117.36,-449.65 1114.96,-456.23"/>
</g>
<!-- Node26&#45;&gt;Node12 -->
<g id="edge43" class="edge">
<title>Node26&#45;&gt;Node12</title>
<path fill="none" stroke="midnightblue" d="M1056.04,-154.42C1123.1,-145.64 1250.55,-138.8 1337,-195 1372.95,-218.37 1392.63,-267.34 1401.2,-294.61"/>
<polygon fill="midnightblue" stroke="midnightblue" points="1397.84,-295.62 1404.03,-304.21 1404.56,-293.63 1397.84,-295.62"/>
</g>
<!-- Node26&#45;&gt;Node22 -->
<g id="edge42" class="edge">
<title>Node26&#45;&gt;Node22</title>
<path fill="none" stroke="midnightblue" d="M1046.2,-171.59C1064.21,-176.49 1086.33,-182.52 1105.56,-187.76"/>
<polygon fill="midnightblue" stroke="midnightblue" points="1104.74,-191.16 1115.31,-190.41 1106.58,-184.41 1104.74,-191.16"/>
</g>
<!-- Node31 -->
<g id="node31" class="node">
<title>Node31</title>
<g id="a_node31"><a xlink:href="weights__dedup_8c.html#a862a7fdef146928bac4e0149e87ffd59" target="_top" xlink:title="Unmap and close a mapping.">
<polygon fill="none" stroke="black" points="487,-760.5 487,-779.5 580,-779.5 580,-760.5 487,-760.5"/>
<text text-anchor="middle" x="533.5" y="-767.5" font-family="Helvetica,sans-Serif" font-size="10.00">ie_mmap_close</text>
</a>
</g>
</g>
<!-- Node30&#45;&gt;Node31 -->
<g id="edge53" class="edge">
<title>Node30&#45;&gt;Node31</title>
<path fill="none" stroke="midnightblue" d="M439.43,-770C451.75,-770 464.49,-770 476.45,-770"/>
<polygon fill="midnightblue" stroke="midnightblue" points="476.72,-773.5 486.72,-770 476.72,-766.5 476.72,-773.5"/>
</g>
<!-- Node32&#45;&gt;Node2 -->
<g id="edge56" class="edge">
<title>Node32&#45;&gt;Node2</title>
<path fill="none" stroke="midnightblue" d="M232.12,-881.54C263.12,-882.09 311.05,-882.94 341.59,-883.49"/>
<polygon fill="midnightblue" stroke="midnightblue" points="341.55,-886.99 351.61,-883.66 341.68,-879.99 341.55,-886.99"/>
</g>
</g>
</svg>
        <g id="navigator" transform="translate(0 0)" fill="#404254">
                <rect fill="#f2f5e9" fill-opacity="0.5" stroke="#606060" stroke-width=".5" x="0" y="0" width="60" height="60"/>
                <use id="zoomplus" xlink:href="#zoomPlus" x="17" y="9" onmousedown="handleZoom(evt,'in')"/>
                <use id="zoomminus" xlink:href="#zoomMin" x="42" y="9" onmousedown="handleZoom(evt,'out')"/>
                <use id="reset" xlink:href="#resetDef" x="30" y="36" onmousedown="handleReset()"/>
                <g id="arrowUp" xlink:href="#dirArrow" transform="translate(30 24)" onmousedown="handlePan(0,-1)">
                  <use xlink:href="#rim" fill="#404040">
                        <set attributeName="fill" to="#808080" begin="arrowUp.mouseover" end="arrowUp.mouseout"/>
                  </use>
                  <path fill="none" stroke="white" stroke-width="1.5" d="M0,-3.0v7 M-2.5,-0.5L0,-3.0L2.5,-0.5"/>
                </g>
                <g id="arrowRight" xlink:href="#dirArrow" transform="rotate(90) translate(36 -43)" onmousedown="handlePan(1,0)">
                  <use xlink:href="#rim" fill="#404040">
                        <set attributeName="fill" to="#808080" begin="arrowRight.mouseover" end="arrowRight.mouseout"/>
                  </use>
                  <path fill="none" stroke="white" stroke-width="1.5" d="M0,-3.0v7 M-2.5,-0.5L0,-3.0L2.5,-0.5"/>
                </g>
                <g id="arrowDown" xlink:href="#dirArrow" transform="rotate(180) translate(-30 -48)" onmousedown="handlePan(0,1)">
                  <use xlink:href="#rim" fill="#404040">
                        <set attributeName="fill" to="#808080" begin="arrowDown.mouseover" end="arrowDown.mouseout"/>
                  </use>
                  <path fill="none" stroke="white" stroke-width="1.5" d="M0,-3.0v7 M-2.5,-0.5L0,-3.0L2.5,-0.5"/>
                </g>
                <g id="arrowLeft" xlink:href="#dirArrow" transform="rotate(270) translate(-36 17)" onmousedown="handlePan(-1,0)">
                  <use xlink:href="#rim" fill="#404040">
                        <set attributeName="fill" to="#808080" begin="arrowLeft.mouseover" end="arrowLeft.mouseout"/>
                  </use>
                  <path fill="none" stroke="white" stroke-width="1.5" d="M0,-3.0v7 M-2.5,-0.5L0,-3.0L2.5,-0.5"/>
                </g>
        </g>
        <svg viewBox="0 0 15 15" width="100%" height="30px" preserveAspectRatio="xMaxYMin meet">
         <g id="arrow_out" transform="scale(0.3 0.3)">
          <a xlink:href="group__ie__io__weights_ga522dac028ee37aae1307ffdb6d65ec1d_cgraph_org.svg" target="_base">
           <rect id="button" ry="5" rx="5" y="6" x="6" height="38" width="38"
                fill="#f2f5e9" fill-opacity="0.5" stroke="#606060" stroke-width="1.0"/>
           <path id="arrow"
             d="M 11.500037,31.436501 C 11.940474,20.09759 22.043105,11.32322 32.158766,21.979434 L 37.068811,17.246167 C 37.068811,17.246167 37.088388,32 37.088388,32 L 22.160133,31.978069 C 22.160133,31.978069 26.997745,27.140456 26.997745,27.140456 C 18.528582,18.264221 13.291696,25.230495 11.500037,31.436501 z"
             style="fill:#404040;"/>
          </a>
         </g>
        </svg>
</svg>
