<?xml version="1.0" encoding="UTF-8" standalone="no"?>
<!DOCTYPE svg PUBLIC "-//W3C//DTD SVG 1.1//EN"
 "http://www.w3.org/Graphics/SVG/1.1/DTD/svg11.dtd">
<!-- Generated by graphviz version 2.43.0 (0)
 -->
<!-- Title: ie_ze_launch_gemv_bias_act_f32 Pages: 1 -->
<svg width="528pt" height="256pt"
 viewBox="0.00 0.00 528.00 256.00" xmlns="http://www.w3.org/2000/svg" xmlns:xlink="http://www.w3.org/1999/xlink">
<g id="graph0" class="graph" transform="scale(1 1) rotate(0) translate(4 252)">
<title>ie_ze_launch_gemv_bias_act_f32</title>
<!-- Node1 -->
<g id="node1" class="node">
<title>Node1</title>
<g id="a_node1"><a xlink:title="Fused GEMV + bias + activation: y = act(alpha*W*x + bias + beta*y).">
<polygon fill="#bfbfbf" stroke="black" points="0,-90 0,-120 138,-120 138,-90 0,-90"/>
<text text-anchor="start" x="8" y="-108" font-family="Helvetica,sans-Serif" font-size="10.00">ie_ze_launch_gemv_bias</text>
<text text-anchor="middle" x="69" y="-97" font-family="Helvetica,sans-Serif" font-size="10.00">_act_f32</text>
</a>
</g>
</g>
<!-- Node2 -->
<g id="node2" class="node">
<title>Node2</title>
<g id="a_node2"><a xlink:href="ie__kernel__ze_8cpp.html#a8966e8d4592d80b5e1f8d02dd586bb57" target="_top" xlink:title="Allocate device memory.">
<polygon fill="none" stroke="black" points="213.5,-190.5 213.5,-209.5 259.5,-209.5 259.5,-190.5 213.5,-190.5"/>
<text text-anchor="middle" x="236.5" y="-197.5" font-family="Helvetica,sans-Serif" font-size="10.00">dalloc</text>
</a>
</g>
</g>
<!-- Node1&#45;&gt;Node2 -->
<g id="edge1" class="edge">
<title>Node1&#45;&gt;Node2</title>
<path fill="none" stroke="midnightblue" d="M86.87,-120.09C106.54,-137.01 140.63,-164.24 174,-181 183.26,-185.65 193.89,-189.43 203.68,-192.35"/>
<polygon fill="midnightblue" stroke="midnightblue" points="202.9,-195.77 213.48,-195.09 204.79,-189.03 202.9,-195.77"/>
</g>
<!-- Node3 -->
<g id="node3" class="node">
<title>Node3</title>
<g id="a_node3"><a xlink:href="ie__kernel__ze_8cpp.html#a8659992f4a5a709d0794e3b43ff99a30" target="_top" xlink:title="Free USM pointer if non&#45;null.">
<polygon fill="none" stroke="black" points="215.5,-152.5 215.5,-171.5 257.5,-171.5 257.5,-152.5 215.5,-152.5"/>
<text text-anchor="middle" x="236.5" y="-159.5" font-family="Helvetica,sans-Serif" font-size="10.00">dfree</text>
</a>
</g>
</g>
<!-- Node1&#45;&gt;Node3 -->
<g id="edge2" class="edge">
<title>Node1&#45;&gt;Node3</title>
<path fill="none" stroke="midnightblue" d="M109.84,-120.09C129.13,-127.26 152.69,-135.82 174,-143 184.33,-146.48 195.71,-150.06 205.84,-153.17"/>
<polygon fill="midnightblue" stroke="midnightblue" points="204.89,-156.54 215.48,-156.09 206.92,-149.84 204.89,-156.54"/>
</g>
<!-- Node4 -->
<g id="node4" class="node">
<title>Node4</title>
<g id="a_node4"><a xlink:href="ie__kernel__ze_8cpp.html#a46e8c280257654db04216d6acbefa0af" target="_top" xlink:title="Ensure the SPIR&#45;V module and all kernel handles are created.">
<polygon fill="none" stroke="black" points="174,-114.5 174,-133.5 299,-133.5 299,-114.5 174,-114.5"/>
<text text-anchor="middle" x="236.5" y="-121.5" font-family="Helvetica,sans-Serif" font-size="10.00">ensure_module_ready</text>
</a>
</g>
</g>
<!-- Node1&#45;&gt;Node4 -->
<g id="edge3" class="edge">
<title>Node1&#45;&gt;Node4</title>
<path fill="none" stroke="midnightblue" d="M138.27,-112.84C146.63,-113.8 155.19,-114.78 163.59,-115.74"/>
<polygon fill="midnightblue" stroke="midnightblue" points="163.41,-119.25 173.75,-116.91 164.21,-112.29 163.41,-119.25"/>
</g>
<!-- Node6 -->
<g id="node6" class="node">
<title>Node6</title>
<g id="a_node6"><a xlink:href="ie__kernel__ze_8cpp.html#a0a2c7ad4a3f3268ce3651eca6f04b24e" target="_top" xlink:title="Set last error (thread&#45;local); truncates if needed.">
<polygon fill="none" stroke="black" points="470,-190.5 470,-209.5 520,-209.5 520,-190.5 470,-190.5"/>
<text text-anchor="middle" x="495" y="-197.5" font-family="Helvetica,sans-Serif" font-size="10.00">set_err</text>
</a>
</g>
</g>
<!-- Node1&#45;&gt;Node6 -->
<g id="edge11" class="edge">
<title>Node1&#45;&gt;Node6</title>
<path fill="none" stroke="midnightblue" d="M123.03,-89.95C197.6,-71.97 335.35,-50.63 434,-105 463.2,-121.1 480.16,-158.05 488.2,-180.83"/>
<polygon fill="midnightblue" stroke="midnightblue" points="484.92,-182.05 491.37,-190.45 491.56,-179.86 484.92,-182.05"/>
</g>
<!-- Node9 -->
<g id="node9" class="node">
<title>Node9</title>
<g id="a_node9"><a xlink:href="ie__kernel__ze_8cpp.html#aa101d0006375eb076cf21c1f890b7fb4" target="_top" xlink:title="Copy host→device or device→host using immediate command list.">
<polygon fill="none" stroke="black" points="193,-38.5 193,-57.5 280,-57.5 280,-38.5 193,-38.5"/>
<text text-anchor="middle" x="236.5" y="-45.5" font-family="Helvetica,sans-Serif" font-size="10.00">memcpy_imm</text>
</a>
</g>
</g>
<!-- Node1&#45;&gt;Node9 -->
<g id="edge9" class="edge">
<title>Node1&#45;&gt;Node9</title>
<path fill="none" stroke="midnightblue" d="M113.92,-89.87C140.12,-80.85 173.05,-69.51 198.03,-60.91"/>
<polygon fill="midnightblue" stroke="midnightblue" points="199.21,-64.2 207.52,-57.64 196.93,-57.58 199.21,-64.2"/>
</g>
<!-- Node10 -->
<g id="node10" class="node">
<title>Node10</title>
<g id="a_node10"><a xlink:href="ie__kernel__ze_8cpp.html#a03e401cb53f156d70c1685d3b76aa747" target="_top" xlink:title="Helper to set a POD kernel argument.">
<polygon fill="none" stroke="black" points="210,-0.5 210,-19.5 263,-19.5 263,-0.5 210,-0.5"/>
<text text-anchor="middle" x="236.5" y="-7.5" font-family="Helvetica,sans-Serif" font-size="10.00">set_arg</text>
</a>
</g>
</g>
<!-- Node1&#45;&gt;Node10 -->
<g id="edge10" class="edge">
<title>Node1&#45;&gt;Node10</title>
<path fill="none" stroke="midnightblue" d="M86.87,-89.91C106.54,-72.99 140.63,-45.76 174,-29 182.2,-24.88 191.46,-21.45 200.27,-18.69"/>
<polygon fill="midnightblue" stroke="midnightblue" points="201.32,-22.03 209.93,-15.86 199.35,-15.31 201.32,-22.03"/>
</g>
<!-- Node5 -->
<g id="node5" class="node">
<title>Node5</title>
<g id="a_node5"><a xlink:href="ie__kernel__ze_8cpp.html#a88fa59032491ae8cb4c70d153fef5bb0" target="_top" xlink:title="Ensure Level Zero context, device and immediate command list exist.">
<polygon fill="none" stroke="black" points="335,-228.5 335,-247.5 434,-247.5 434,-228.5 335,-228.5"/>
<text text-anchor="middle" x="384.5" y="-235.5" font-family="Helvetica,sans-Serif" font-size="10.00">ensure_ze_ready</text>
</a>
</g>
</g>
<!-- Node4&#45;&gt;Node5 -->
<g id="edge4" class="edge">
<title>Node4&#45;&gt;Node5</title>
<path fill="none" stroke="midnightblue" d="M283.33,-133.55C288.98,-136.02 294.39,-139.11 299,-143 326.05,-165.81 309.86,-189.1 335,-214 338.7,-217.67 343.08,-220.87 347.66,-223.64"/>
<polygon fill="midnightblue" stroke="midnightblue" points="346.13,-226.79 356.6,-228.44 349.44,-220.63 346.13,-226.79"/>
</g>
<!-- Node4&#45;&gt;Node6 -->
<g id="edge8" class="edge">
<title>Node4&#45;&gt;Node6</title>
<path fill="none" stroke="midnightblue" d="M278.82,-133.54C285.83,-136.05 292.83,-139.17 299,-143 318.76,-155.28 314.21,-170.55 335,-181 374.45,-200.82 426.14,-203.36 459.71,-202.44"/>
<polygon fill="midnightblue" stroke="midnightblue" points="460.08,-205.92 469.93,-202.03 459.8,-198.93 460.08,-205.92"/>
</g>
<!-- Node7 -->
<g id="node7" class="node">
<title>Node7</title>
<g id="a_node7"><a xlink:href="namespacehf__to__iebin.html#ac3cef0864139e3543306b846207f8c3e" target="_top" xlink:title=" ">
<polygon fill="none" stroke="black" points="340,-152.5 340,-171.5 429,-171.5 429,-152.5 340,-152.5"/>
<text text-anchor="middle" x="384.5" y="-159.5" font-family="Helvetica,sans-Serif" font-size="10.00">hf_to_iebin.log</text>
</a>
</g>
</g>
<!-- Node4&#45;&gt;Node7 -->
<g id="edge6" class="edge">
<title>Node4&#45;&gt;Node7</title>
<path fill="none" stroke="midnightblue" d="M274.34,-133.59C293.35,-138.54 316.73,-144.62 336.97,-149.89"/>
<polygon fill="midnightblue" stroke="midnightblue" points="336.36,-153.35 346.92,-152.48 338.13,-146.57 336.36,-153.35"/>
</g>
<!-- Node8 -->
<g id="node8" class="node">
<title>Node8</title>
<g id="a_node8"><a xlink:href="ie__kernel__ze_8cpp.html#a20d704d2968105641314c50897df8bdb" target="_top" xlink:title="Read a whole binary file into memory.">
<polygon fill="none" stroke="black" points="355,-114.5 355,-133.5 414,-133.5 414,-114.5 355,-114.5"/>
<text text-anchor="middle" x="384.5" y="-121.5" font-family="Helvetica,sans-Serif" font-size="10.00">read_file</text>
</a>
</g>
</g>
<!-- Node4&#45;&gt;Node8 -->
<g id="edge7" class="edge">
<title>Node4&#45;&gt;Node8</title>
<path fill="none" stroke="midnightblue" d="M299.42,-124C314.78,-124 330.81,-124 344.7,-124"/>
<polygon fill="midnightblue" stroke="midnightblue" points="344.86,-127.5 354.86,-124 344.86,-120.5 344.86,-127.5"/>
</g>
<!-- Node5&#45;&gt;Node6 -->
<g id="edge5" class="edge">
<title>Node5&#45;&gt;Node6</title>
<path fill="none" stroke="midnightblue" d="M412.88,-228.41C427.3,-223.36 445.11,-217.12 460.36,-211.78"/>
<polygon fill="midnightblue" stroke="midnightblue" points="461.67,-215.03 469.95,-208.42 459.36,-208.42 461.67,-215.03"/>
</g>
</g>
</svg>
