<?xml version="1.0" encoding="UTF-8" standalone="no"?>
<!DOCTYPE svg PUBLIC "-//W3C//DTD SVG 1.1//EN"
 "http://www.w3.org/Graphics/SVG/1.1/DTD/svg11.dtd">
<!-- Generated by graphviz version 12.2.1 (20241206.2353)
 -->
<!-- Title: ie_int4_rowbytes Pages: 1 -->
<svg width="453pt" height="222pt"
 viewBox="0.00 0.00 452.75 221.50" xmlns="http://www.w3.org/2000/svg" xmlns:xlink="http://www.w3.org/1999/xlink">
<g id="graph0" class="graph" transform="scale(1 1) rotate(0) translate(4 217.5)">
<title>ie_int4_rowbytes</title>
<!-- Node1 -->
<g id="Node000001" class="node">
<title>Node1</title>
<g id="a_Node000001"><a xlink:title="Compute the number of packed bytes required to store a single row of cols 4&#45;bit values (two per byte)...">
<polygon fill="#999999" stroke="#666666" points="444.75,-117.12 345.5,-117.12 345.5,-96.38 444.75,-96.38 444.75,-117.12"/>
<text text-anchor="middle" x="395.12" y="-103.62" font-family="Helvetica,sans-Serif" font-size="10.00">ie_int4_rowbytes</text>
</a>
</g>
</g>
<!-- Node2 -->
<g id="Node000002" class="node">
<title>Node2</title>
<g id="a_Node000002"><a xlink:href="group__ie__int4__quant.html#gab017a4b1dff62c0ef8f1ed4f94375302" target="_top" xlink:title="Dequantize a packed INT4 matrix with per&#45;row scales.">
<polygon fill="white" stroke="#666666" points="293.38,-213.5 185.12,-213.5 185.12,-180 293.38,-180 293.38,-213.5"/>
<text text-anchor="start" x="193.12" y="-200" font-family="Helvetica,sans-Serif" font-size="10.00">ie_int4_dequantize</text>
<text text-anchor="middle" x="239.25" y="-187.25" font-family="Helvetica,sans-Serif" font-size="10.00">_per_row</text>
</a>
</g>
</g>
<!-- Node1&#45;&gt;Node2 -->
<g id="edge1_Node000001_Node000002" class="edge">
<title>Node1&#45;&gt;Node2</title>
<g id="a_edge1_Node000001_Node000002"><a xlink:title=" ">
<path fill="none" stroke="#63b8ff" d="M371.34,-124.39C354.73,-136.81 331.39,-153.36 309.5,-165.75 300.79,-170.68 291.14,-175.41 281.89,-179.64"/>
<polygon fill="#63b8ff" stroke="#63b8ff" points="373.22,-127.36 379.08,-118.53 368.99,-121.78 373.22,-127.36"/>
</a>
</g>
</g>
<!-- Node3 -->
<g id="Node000003" class="node">
<title>Node3</title>
<g id="a_Node000003"><a xlink:href="weights_8c.html#ab5498f6122af51af9b673e87a4049d19" target="_top" xlink:title="Dequantize a packed INT4 weight blob into a float32 matrix.">
<polygon fill="white" stroke="#666666" points="133,-162.12 0,-162.12 0,-141.38 133,-141.38 133,-162.12"/>
<text text-anchor="middle" x="66.5" y="-148.62" font-family="Helvetica,sans-Serif" font-size="10.00">ie_weights_decode_int4</text>
</a>
</g>
</g>
<!-- Node1&#45;&gt;Node3 -->
<g id="edge7_Node000001_Node000003" class="edge">
<title>Node1&#45;&gt;Node3</title>
<g id="a_edge7_Node000001_Node000003"><a xlink:title=" ">
<path fill="none" stroke="#63b8ff" d="M354.05,-121.04C340.11,-125.48 324.27,-129.94 309.5,-132.75 250.61,-143.97 182.45,-148.58 133.5,-150.47"/>
<polygon fill="#63b8ff" stroke="#63b8ff" points="354.92,-124.44 363.32,-117.99 352.73,-117.79 354.92,-124.44"/>
</a>
</g>
</g>
<!-- Node4 -->
<g id="Node000004" class="node">
<title>Node4</title>
<g id="a_Node000004"><a xlink:href="group__ie__int4__quant.html#ga7aaa2156d41e9a58eb6013cec4b32d78" target="_top" xlink:title="Dequantize a packed INT4 matrix using a single (per&#45;tensor) scale.">
<polygon fill="white" stroke="#666666" points="293.38,-123.5 185.12,-123.5 185.12,-90 293.38,-90 293.38,-123.5"/>
<text text-anchor="start" x="193.12" y="-110" font-family="Helvetica,sans-Serif" font-size="10.00">ie_int4_dequantize</text>
<text text-anchor="middle" x="239.25" y="-97.25" font-family="Helvetica,sans-Serif" font-size="10.00">_per_tensor</text>
</a>
</g>
</g>
<!-- Node1&#45;&gt;Node4 -->
<g id="edge3_Node000001_Node000004" class="edge">
<title>Node1&#45;&gt;Node4</title>
<g id="a_edge3_Node000001_Node000004"><a xlink:title=" ">
<path fill="none" stroke="#63b8ff" d="M333.64,-106.75C320.45,-106.75 306.58,-106.75 293.69,-106.75"/>
<polygon fill="#63b8ff" stroke="#63b8ff" points="333.5,-110.25 343.5,-106.75 333.5,-103.25 333.5,-110.25"/>
</a>
</g>
</g>
<!-- Node5 -->
<g id="Node000005" class="node">
<title>Node5</title>
<g id="a_Node000005"><a xlink:href="group__ie__int4__quant.html#gabbd1e0545969cb21f4bce5e48e75e276" target="_top" xlink:title="Quantize a float32 matrix to packed INT4 with per&#45;row scales.">
<polygon fill="white" stroke="#666666" points="309.5,-72.12 169,-72.12 169,-51.38 309.5,-51.38 309.5,-72.12"/>
<text text-anchor="middle" x="239.25" y="-58.62" font-family="Helvetica,sans-Serif" font-size="10.00">ie_int4_quantize_per_row</text>
</a>
</g>
</g>
<!-- Node1&#45;&gt;Node5 -->
<g id="edge5_Node000001_Node000005" class="edge">
<title>Node1&#45;&gt;Node5</title>
<g id="a_edge5_Node000001_Node000005"><a xlink:title=" ">
<path fill="none" stroke="#63b8ff" d="M348.8,-92.55C336.11,-88.65 322.28,-84.47 309.5,-80.75 300.16,-78.04 290.09,-75.21 280.59,-72.6"/>
<polygon fill="#63b8ff" stroke="#63b8ff" points="347.58,-95.83 358.16,-95.44 349.64,-89.14 347.58,-95.83"/>
</a>
</g>
</g>
<!-- Node6 -->
<g id="Node000006" class="node">
<title>Node6</title>
<g id="a_Node000006"><a xlink:href="group__ie__int4__quant.html#ga66ddd8b08ec6b704f6744718bfc7f5aa" target="_top" xlink:title="Quantize a float32 matrix to packed INT4 using a single (per&#45;tensor) scale.">
<polygon fill="white" stroke="#666666" points="297.88,-33.5 180.62,-33.5 180.62,0 297.88,0 297.88,-33.5"/>
<text text-anchor="start" x="188.62" y="-20" font-family="Helvetica,sans-Serif" font-size="10.00">ie_int4_quantize_per</text>
<text text-anchor="middle" x="239.25" y="-7.25" font-family="Helvetica,sans-Serif" font-size="10.00">_tensor</text>
</a>
</g>
</g>
<!-- Node1&#45;&gt;Node6 -->
<g id="edge6_Node000001_Node000006" class="edge">
<title>Node1&#45;&gt;Node6</title>
<g id="a_edge6_Node000001_Node000006"><a xlink:title=" ">
<path fill="none" stroke="#63b8ff" d="M374,-88.87C357.54,-74.93 333.19,-55.79 309.5,-42.75 303.76,-39.59 297.56,-36.66 291.31,-33.99"/>
<polygon fill="#63b8ff" stroke="#63b8ff" points="371.28,-91.15 381.14,-95.03 375.85,-85.84 371.28,-91.15"/>
</a>
</g>
</g>
<!-- Node2&#45;&gt;Node3 -->
<g id="edge2_Node000002_Node000003" class="edge">
<title>Node2&#45;&gt;Node3</title>
<g id="a_edge2_Node000002_Node000003"><a xlink:title=" ">
<path fill="none" stroke="#63b8ff" d="M173.82,-179.77C151.99,-174.02 128.2,-167.75 108.67,-162.6"/>
<polygon fill="#63b8ff" stroke="#63b8ff" points="172.67,-183.09 183.23,-182.25 174.45,-176.32 172.67,-183.09"/>
</a>
</g>
</g>
<!-- Node4&#45;&gt;Node3 -->
<g id="edge4_Node000004_Node000003" class="edge">
<title>Node4&#45;&gt;Node3</title>
<g id="a_edge4_Node000004_Node000003"><a xlink:title=" ">
<path fill="none" stroke="#63b8ff" d="M173.82,-123.73C151.99,-129.48 128.2,-135.75 108.67,-140.9"/>
<polygon fill="#63b8ff" stroke="#63b8ff" points="174.45,-127.18 183.23,-121.25 172.67,-120.41 174.45,-127.18"/>
</a>
</g>
</g>
</g>
</svg>
