<?xml version="1.0" encoding="UTF-8" standalone="no"?>
<!DOCTYPE svg PUBLIC "-//W3C//DTD SVG 1.1//EN"
 "http://www.w3.org/Graphics/SVG/1.1/DTD/svg11.dtd">
<!-- Generated by graphviz version 2.43.0 (0)
 -->
<!-- Title: ie_ze_launch_gemv_bias_act_f32 Pages: 1 -->
<svg width="726pt" height="377pt"
 viewBox="0.00 0.00 726.00 376.63" xmlns="http://www.w3.org/2000/svg" xmlns:xlink="http://www.w3.org/1999/xlink">
<g id="graph0" class="graph" transform="scale(1 1) rotate(0) translate(4 372.63)">
<title>ie_ze_launch_gemv_bias_act_f32</title>
<!-- Node1 -->
<g id="Node000001" class="node">
<title>Node1</title>
<g id="a_Node000001"><a xlink:title="Fused GEMV + bias + activation: y = act(alpha*W*x + bias + beta*y).">
<polygon fill="#999999" stroke="#666666" points="138,-195.5 0,-195.5 0,-165.5 138,-165.5 138,-195.5"/>
<text text-anchor="start" x="8" y="-183.5" font-family="Helvetica,sans-Serif" font-size="10.00">ie_ze_launch_gemv_bias</text>
<text text-anchor="middle" x="69" y="-172.5" font-family="Helvetica,sans-Serif" font-size="10.00">_act_f32</text>
</a>
</g>
</g>
<!-- Node2 -->
<g id="Node000002" class="node">
<title>Node2</title>
<g id="a_Node000002"><a xlink:href="ie__kernel__ze_8cpp.html#a8966e8d4592d80b5e1f8d02dd586bb57" target="_top" xlink:title="Allocate device memory.">
<polygon fill="white" stroke="#666666" points="536.5,-361 490.5,-361 490.5,-342 536.5,-342 536.5,-361"/>
<text text-anchor="middle" x="513.5" y="-349" font-family="Helvetica,sans-Serif" font-size="10.00">dalloc</text>
</a>
</g>
</g>
<!-- Node1&#45;&gt;Node2 -->
<g id="edge1_Node000001_Node000002" class="edge">
<title>Node1&#45;&gt;Node2</title>
<g id="a_edge1_Node000001_Node000002"><a xlink:title=" ">
<path fill="none" stroke="#63b8ff" d="M75.48,-195.51C87.68,-226.52 120.34,-297.28 174,-327.5 273.72,-383.66 417.02,-368.41 480.33,-357.79"/>
<polygon fill="#63b8ff" stroke="#63b8ff" points="481.25,-361.18 490.5,-356 480.04,-354.28 481.25,-361.18"/>
</a>
</g>
</g>
<!-- Node3 -->
<g id="Node000003" class="node">
<title>Node3</title>
<g id="a_Node000003"><a xlink:href="ie__device__cuda_8cu.html#a5e3d9fee84981707669f5c2398f0c4ab" target="_top" xlink:title="Row&#45;wise GEMV kernel: each thread computes one output row.">
<polygon fill="white" stroke="#666666" points="718,-214.5 593,-214.5 593,-184.5 718,-184.5 718,-214.5"/>
<text text-anchor="start" x="601" y="-202.5" font-family="Helvetica,sans-Serif" font-size="10.00">ie_gemv_rowwise_f32</text>
<text text-anchor="middle" x="655.5" y="-191.5" font-family="Helvetica,sans-Serif" font-size="10.00">_kernel</text>
</a>
</g>
</g>
<!-- Node1&#45;&gt;Node3 -->
<g id="edge14_Node000001_Node000003" class="edge">
<title>Node1&#45;&gt;Node3</title>
<g id="a_edge14_Node000001_Node000003"><a xlink:title=" ">
<path fill="none" stroke="#63b8ff" d="M91.03,-195.63C111.45,-209.78 143.7,-230.73 174,-244.5 242.22,-275.49 260.92,-283.26 335,-294.5 433.9,-309.5 465.44,-297.78 557,-257.5 580.5,-247.16 605.35,-232.31 624.08,-220.23"/>
<polygon fill="#63b8ff" stroke="#63b8ff" points="626.04,-223.13 632.49,-214.72 622.2,-217.27 626.04,-223.13"/>
</a>
</g>
</g>
<!-- Node4 -->
<g id="Node000004" class="node">
<title>Node4</title>
<g id="a_Node000004"><a xlink:href="ie__kernel__ze_8cpp.html#a8659992f4a5a709d0794e3b43ff99a30" target="_top" xlink:title="Free USM pointer if non&#45;null.">
<polygon fill="white" stroke="#666666" points="405.5,-285 363.5,-285 363.5,-266 405.5,-266 405.5,-285"/>
<text text-anchor="middle" x="384.5" y="-273" font-family="Helvetica,sans-Serif" font-size="10.00">dfree</text>
</a>
</g>
</g>
<!-- Node1&#45;&gt;Node4 -->
<g id="edge3_Node000001_Node000004" class="edge">
<title>Node1&#45;&gt;Node4</title>
<g id="a_edge3_Node000001_Node000004"><a xlink:title=" ">
<path fill="none" stroke="#63b8ff" d="M119.68,-195.55C185.53,-215.51 299.68,-250.1 353.62,-266.45"/>
<polygon fill="#63b8ff" stroke="#63b8ff" points="352.69,-269.82 363.27,-269.37 354.72,-263.12 352.69,-269.82"/>
</a>
</g>
</g>
<!-- Node5 -->
<g id="Node000005" class="node">
<title>Node5</title>
<g id="a_Node000005"><a xlink:href="ie__kernel__ze_8cpp.html#a46e8c280257654db04216d6acbefa0af" target="_top" xlink:title="Ensure the SPIR&#45;V module and all kernel handles are created.">
<polygon fill="white" stroke="#666666" points="299,-190 174,-190 174,-171 299,-171 299,-190"/>
<text text-anchor="middle" x="236.5" y="-178" font-family="Helvetica,sans-Serif" font-size="10.00">ensure_module_ready</text>
</a>
</g>
</g>
<!-- Node1&#45;&gt;Node5 -->
<g id="edge5_Node000001_Node000005" class="edge">
<title>Node1&#45;&gt;Node5</title>
<g id="a_edge5_Node000001_Node000005"><a xlink:title=" ">
<path fill="none" stroke="#63b8ff" d="M138.27,-180.5C146.63,-180.5 155.19,-180.5 163.59,-180.5"/>
<polygon fill="#63b8ff" stroke="#63b8ff" points="163.75,-184 173.75,-180.5 163.75,-177 163.75,-184"/>
</a>
</g>
</g>
<!-- Node7 -->
<g id="Node000007" class="node">
<title>Node7</title>
<g id="a_Node000007"><a xlink:href="ie__kernel__ze_8cpp.html#a0a2c7ad4a3f3268ce3651eca6f04b24e" target="_top" xlink:title="Set last error (thread&#45;local); truncates if needed.">
<polygon fill="white" stroke="#666666" points="538.5,-133 488.5,-133 488.5,-114 538.5,-114 538.5,-133"/>
<text text-anchor="middle" x="513.5" y="-121" font-family="Helvetica,sans-Serif" font-size="10.00">set_err</text>
</a>
</g>
</g>
<!-- Node1&#45;&gt;Node7 -->
<g id="edge19_Node000001_Node000007" class="edge">
<title>Node1&#45;&gt;Node7</title>
<g id="a_edge19_Node000001_Node000007"><a xlink:title=" ">
<path fill="none" stroke="#63b8ff" d="M123.51,-165.49C176.65,-151.42 260.71,-131.4 335,-123.5 384.43,-118.24 442.04,-119.61 477.9,-121.34"/>
<polygon fill="#63b8ff" stroke="#63b8ff" points="478.13,-124.86 488.3,-121.88 478.49,-117.87 478.13,-124.86"/>
</a>
</g>
</g>
<!-- Node9 -->
<g id="Node000009" class="node">
<title>Node9</title>
<g id="a_Node000009"><a xlink:href="ie__kernel__ze_8cpp.html#aa101d0006375eb076cf21c1f890b7fb4" target="_top" xlink:title="Copy host→device or device→host using immediate command list.">
<polygon fill="white" stroke="#666666" points="557,-77 470,-77 470,-58 557,-58 557,-77"/>
<text text-anchor="middle" x="513.5" y="-65" font-family="Helvetica,sans-Serif" font-size="10.00">memcpy_imm</text>
</a>
</g>
</g>
<!-- Node1&#45;&gt;Node9 -->
<g id="edge15_Node000001_Node000009" class="edge">
<title>Node1&#45;&gt;Node9</title>
<g id="a_edge15_Node000001_Node000009"><a xlink:title=" ">
<path fill="none" stroke="#63b8ff" d="M92.1,-165.5C112.48,-152.38 144.03,-133.85 174,-123.5 271.6,-89.78 392.23,-76.05 459.95,-70.7"/>
<polygon fill="#63b8ff" stroke="#63b8ff" points="460.25,-74.19 469.95,-69.94 459.72,-67.21 460.25,-74.19"/>
</a>
</g>
</g>
<!-- Node10 -->
<g id="Node000010" class="node">
<title>Node10</title>
<g id="a_Node000010"><a xlink:href="ie__kernel__ze_8cpp.html#a03e401cb53f156d70c1685d3b76aa747" target="_top" xlink:title="Helper to set a POD kernel argument.">
<polygon fill="white" stroke="#666666" points="263,-19 210,-19 210,0 263,0 263,-19"/>
<text text-anchor="middle" x="236.5" y="-7" font-family="Helvetica,sans-Serif" font-size="10.00">set_arg</text>
</a>
</g>
</g>
<!-- Node1&#45;&gt;Node10 -->
<g id="edge17_Node000001_Node000010" class="edge">
<title>Node1&#45;&gt;Node10</title>
<g id="a_edge17_Node000001_Node000010"><a xlink:title=" ">
<path fill="none" stroke="#63b8ff" d="M76.94,-165.38C91.13,-136.01 126.22,-70.86 174,-33.5 181.69,-27.49 191.07,-22.82 200.17,-19.26"/>
<polygon fill="#63b8ff" stroke="#63b8ff" points="201.58,-22.48 209.84,-15.84 199.24,-15.88 201.58,-22.48"/>
</a>
</g>
</g>
<!-- Node2&#45;&gt;Node3 -->
<g id="edge2_Node000002_Node000003" class="edge">
<title>Node2&#45;&gt;Node3</title>
<g id="a_edge2_Node000002_Node000003"><a xlink:title=" ">
<path fill="none" stroke="#63b8ff" d="M535.5,-341.83C542.73,-337.95 550.61,-333.07 557,-327.5 592.38,-296.66 623.31,-251.17 640.4,-223.54"/>
<polygon fill="#63b8ff" stroke="#63b8ff" points="643.45,-225.27 645.65,-214.9 637.47,-221.63 643.45,-225.27"/>
</a>
</g>
</g>
<!-- Node4&#45;&gt;Node3 -->
<g id="edge4_Node000004_Node000003" class="edge">
<title>Node4&#45;&gt;Node3</title>
<g id="a_edge4_Node000004_Node000003"><a xlink:title=" ">
<path fill="none" stroke="#63b8ff" d="M405.71,-270.99C437.92,-263.68 502.81,-248.43 557,-232.5 572.05,-228.07 588.24,-222.8 603.02,-217.79"/>
<polygon fill="#63b8ff" stroke="#63b8ff" points="604.18,-221.09 612.5,-214.54 601.91,-214.47 604.18,-221.09"/>
</a>
</g>
</g>
<!-- Node5&#45;&gt;Node3 -->
<g id="edge10_Node000005_Node000003" class="edge">
<title>Node5&#45;&gt;Node3</title>
<g id="a_edge10_Node000005_Node000003"><a xlink:title=" ">
<path fill="none" stroke="#63b8ff" d="M299.03,-183.3C374.64,-186.75 502.7,-192.58 582.72,-196.23"/>
<polygon fill="#63b8ff" stroke="#63b8ff" points="582.57,-199.73 592.72,-196.68 582.89,-192.73 582.57,-199.73"/>
</a>
</g>
</g>
<!-- Node6 -->
<g id="Node000006" class="node">
<title>Node6</title>
<g id="a_Node000006"><a xlink:href="ie__kernel__ze_8cpp.html#a88fa59032491ae8cb4c70d153fef5bb0" target="_top" xlink:title="Ensure Level Zero context, device and immediate command list exist.">
<polygon fill="white" stroke="#666666" points="434,-171 335,-171 335,-152 434,-152 434,-171"/>
<text text-anchor="middle" x="384.5" y="-159" font-family="Helvetica,sans-Serif" font-size="10.00">ensure_ze_ready</text>
</a>
</g>
</g>
<!-- Node5&#45;&gt;Node6 -->
<g id="edge6_Node000005_Node000006" class="edge">
<title>Node5&#45;&gt;Node6</title>
<g id="a_edge6_Node000005_Node000006"><a xlink:title=" ">
<path fill="none" stroke="#63b8ff" d="M299.42,-172.44C307.82,-171.35 316.41,-170.23 324.76,-169.14"/>
<polygon fill="#63b8ff" stroke="#63b8ff" points="325.31,-172.6 334.77,-167.84 324.4,-165.66 325.31,-172.6"/>
</a>
</g>
</g>
<!-- Node5&#45;&gt;Node7 -->
<g id="edge13_Node000005_Node000007" class="edge">
<title>Node5&#45;&gt;Node7</title>
<g id="a_edge13_Node000005_Node000007"><a xlink:title=" ">
<path fill="none" stroke="#63b8ff" d="M258.32,-170.85C277.74,-162.27 307.72,-150.1 335,-143.5 383.97,-131.65 442.27,-126.78 478.34,-124.81"/>
<polygon fill="#63b8ff" stroke="#63b8ff" points="478.53,-128.31 488.34,-124.31 478.18,-121.32 478.53,-128.31"/>
</a>
</g>
</g>
<!-- Node8 -->
<g id="Node000008" class="node">
<title>Node8</title>
<g id="a_Node000008"><a xlink:href="ie__kernel__ze_8cpp.html#a20d704d2968105641314c50897df8bdb" target="_top" xlink:title="Read a whole binary file into memory.">
<polygon fill="white" stroke="#666666" points="414,-247 355,-247 355,-228 414,-228 414,-247"/>
<text text-anchor="middle" x="384.5" y="-235" font-family="Helvetica,sans-Serif" font-size="10.00">read_file</text>
</a>
</g>
</g>
<!-- Node5&#45;&gt;Node8 -->
<g id="edge11_Node000005_Node000008" class="edge">
<title>Node5&#45;&gt;Node8</title>
<g id="a_edge11_Node000005_Node000008"><a xlink:title=" ">
<path fill="none" stroke="#63b8ff" d="M261.94,-190.04C285.94,-199.41 322.76,-213.79 349.59,-224.26"/>
<polygon fill="#63b8ff" stroke="#63b8ff" points="348.4,-227.55 358.98,-227.93 350.94,-221.03 348.4,-227.55"/>
</a>
</g>
</g>
<!-- Node6&#45;&gt;Node3 -->
<g id="edge7_Node000006_Node000003" class="edge">
<title>Node6&#45;&gt;Node3</title>
<g id="a_edge7_Node000006_Node000003"><a xlink:title=" ">
<path fill="none" stroke="#63b8ff" d="M434.3,-168.28C468.62,-173.06 515.62,-179.63 557,-185.5 565.34,-186.68 574.07,-187.93 582.75,-189.17"/>
<polygon fill="#63b8ff" stroke="#63b8ff" points="582.48,-192.66 592.87,-190.62 583.47,-185.73 582.48,-192.66"/>
</a>
</g>
</g>
<!-- Node6&#45;&gt;Node7 -->
<g id="edge8_Node000006_Node000007" class="edge">
<title>Node6&#45;&gt;Node7</title>
<g id="a_edge8_Node000006_Node000007"><a xlink:title=" ">
<path fill="none" stroke="#63b8ff" d="M417.55,-151.91C436.23,-146.32 459.78,-139.27 478.75,-133.6"/>
<polygon fill="#63b8ff" stroke="#63b8ff" points="479.9,-136.91 488.48,-130.69 477.9,-130.2 479.9,-136.91"/>
</a>
</g>
</g>
<!-- Node7&#45;&gt;Node3 -->
<g id="edge9_Node000007_Node000003" class="edge">
<title>Node7&#45;&gt;Node3</title>
<g id="a_edge9_Node000007_Node000003"><a xlink:title=" ">
<path fill="none" stroke="#63b8ff" d="M532.23,-133.13C553.65,-144.75 590.24,-164.61 617.82,-179.59"/>
<polygon fill="#63b8ff" stroke="#63b8ff" points="616.34,-182.76 626.79,-184.46 619.67,-176.61 616.34,-182.76"/>
</a>
</g>
</g>
<!-- Node8&#45;&gt;Node3 -->
<g id="edge12_Node000008_Node000003" class="edge">
<title>Node8&#45;&gt;Node3</title>
<g id="a_edge12_Node000008_Node000003"><a xlink:title=" ">
<path fill="none" stroke="#63b8ff" d="M414.03,-233.54C448.07,-228.81 506.69,-220.63 557,-213.5 565.34,-212.32 574.07,-211.07 582.75,-209.83"/>
<polygon fill="#63b8ff" stroke="#63b8ff" points="583.47,-213.27 592.87,-208.38 582.48,-206.34 583.47,-213.27"/>
</a>
</g>
</g>
<!-- Node9&#45;&gt;Node3 -->
<g id="edge16_Node000009_Node000003" class="edge">
<title>Node9&#45;&gt;Node3</title>
<g id="a_edge16_Node000009_Node000003"><a xlink:title=" ">
<path fill="none" stroke="#63b8ff" d="M525.43,-77.07C534.08,-84.69 546.41,-95.67 557,-105.5 583.01,-129.65 612.25,-158.01 631.86,-177.21"/>
<polygon fill="#63b8ff" stroke="#63b8ff" points="629.55,-179.84 639.14,-184.34 634.45,-174.84 629.55,-179.84"/>
</a>
</g>
</g>
<!-- Node10&#45;&gt;Node3 -->
<g id="edge18_Node000010_Node000003" class="edge">
<title>Node10&#45;&gt;Node3</title>
<g id="a_edge18_Node000010_Node000003"><a xlink:title=" ">
<path fill="none" stroke="#63b8ff" d="M263.07,-5.89C320.54,0.88 462.24,9.84 557,-49.5 604,-78.93 632.86,-140.26 646.03,-174.69"/>
<polygon fill="#63b8ff" stroke="#63b8ff" points="642.88,-176.27 649.61,-184.45 649.45,-173.85 642.88,-176.27"/>
</a>
</g>
</g>
</g>
</svg>
