<?xml version="1.0" encoding="UTF-8" standalone="no"?>
<!DOCTYPE svg PUBLIC "-//W3C//DTD SVG 1.1//EN"
 "http://www.w3.org/Graphics/SVG/1.1/DTD/svg11.dtd">
<!-- Generated by graphviz version 2.43.0 (0)
 -->
<!-- Title: ie_ze_launch_vec_tanh_f32 Pages: 1 -->
<svg width="540pt" height="256pt"
 viewBox="0.00 0.00 540.00 256.00" xmlns="http://www.w3.org/2000/svg" xmlns:xlink="http://www.w3.org/1999/xlink">
<g id="graph0" class="graph" transform="scale(1 1) rotate(0) translate(4 252)">
<title>ie_ze_launch_vec_tanh_f32</title>
<!-- Node1 -->
<g id="node1" class="node">
<title>Node1</title>
<g id="a_node1"><a xlink:title="Vector tanh: y[i] = tanh(x[i]) for i in [0, n).">
<polygon fill="#bfbfbf" stroke="black" points="0,-95.5 0,-114.5 150,-114.5 150,-95.5 0,-95.5"/>
<text text-anchor="middle" x="75" y="-102.5" font-family="Helvetica,sans-Serif" font-size="10.00">ie_ze_launch_vec_tanh_f32</text>
</a>
</g>
</g>
<!-- Node2 -->
<g id="node2" class="node">
<title>Node2</title>
<g id="a_node2"><a xlink:href="ie__kernel__ze_8cpp.html#a8966e8d4592d80b5e1f8d02dd586bb57" target="_top" xlink:title="Allocate device memory.">
<polygon fill="none" stroke="black" points="225.5,-190.5 225.5,-209.5 271.5,-209.5 271.5,-190.5 225.5,-190.5"/>
<text text-anchor="middle" x="248.5" y="-197.5" font-family="Helvetica,sans-Serif" font-size="10.00">dalloc</text>
</a>
</g>
</g>
<!-- Node1&#45;&gt;Node2 -->
<g id="edge1" class="edge">
<title>Node1&#45;&gt;Node2</title>
<path fill="none" stroke="midnightblue" d="M87.46,-114.71C106.69,-130.57 147.16,-162.14 186,-181 195.25,-185.49 205.8,-189.21 215.52,-192.13"/>
<polygon fill="midnightblue" stroke="midnightblue" points="214.68,-195.53 225.25,-194.88 216.58,-188.79 214.68,-195.53"/>
</g>
<!-- Node3 -->
<g id="node3" class="node">
<title>Node3</title>
<g id="a_node3"><a xlink:href="ie__kernel__ze_8cpp.html#a8659992f4a5a709d0794e3b43ff99a30" target="_top" xlink:title="Free USM pointer if non&#45;null.">
<polygon fill="none" stroke="black" points="227.5,-152.5 227.5,-171.5 269.5,-171.5 269.5,-152.5 227.5,-152.5"/>
<text text-anchor="middle" x="248.5" y="-159.5" font-family="Helvetica,sans-Serif" font-size="10.00">dfree</text>
</a>
</g>
</g>
<!-- Node1&#45;&gt;Node3 -->
<g id="edge2" class="edge">
<title>Node1&#45;&gt;Node3</title>
<path fill="none" stroke="midnightblue" d="M103.04,-114.62C125.25,-122.46 157.58,-133.7 186,-143 196.28,-146.36 207.57,-149.9 217.64,-152.99"/>
<polygon fill="midnightblue" stroke="midnightblue" points="216.64,-156.35 227.23,-155.92 218.69,-149.65 216.64,-156.35"/>
</g>
<!-- Node4 -->
<g id="node4" class="node">
<title>Node4</title>
<g id="a_node4"><a xlink:href="ie__kernel__ze_8cpp.html#a46e8c280257654db04216d6acbefa0af" target="_top" xlink:title="Ensure the SPIR&#45;V module and all kernel handles are created.">
<polygon fill="none" stroke="black" points="186,-114.5 186,-133.5 311,-133.5 311,-114.5 186,-114.5"/>
<text text-anchor="middle" x="248.5" y="-121.5" font-family="Helvetica,sans-Serif" font-size="10.00">ensure_module_ready</text>
</a>
</g>
</g>
<!-- Node1&#45;&gt;Node4 -->
<g id="edge3" class="edge">
<title>Node1&#45;&gt;Node4</title>
<path fill="none" stroke="midnightblue" d="M150.22,-113.22C158.66,-114.16 167.24,-115.11 175.64,-116.04"/>
<polygon fill="midnightblue" stroke="midnightblue" points="175.45,-119.54 185.77,-117.16 176.22,-112.58 175.45,-119.54"/>
</g>
<!-- Node6 -->
<g id="node6" class="node">
<title>Node6</title>
<g id="a_node6"><a xlink:href="ie__kernel__ze_8cpp.html#a0a2c7ad4a3f3268ce3651eca6f04b24e" target="_top" xlink:title="Set last error (thread&#45;local); truncates if needed.">
<polygon fill="none" stroke="black" points="482,-190.5 482,-209.5 532,-209.5 532,-190.5 482,-190.5"/>
<text text-anchor="middle" x="507" y="-197.5" font-family="Helvetica,sans-Serif" font-size="10.00">set_err</text>
</a>
</g>
</g>
<!-- Node1&#45;&gt;Node6 -->
<g id="edge11" class="edge">
<title>Node1&#45;&gt;Node6</title>
<path fill="none" stroke="midnightblue" d="M107.47,-95.48C174.6,-77.1 334.75,-43.68 446,-105 475.2,-121.1 492.16,-158.05 500.2,-180.83"/>
<polygon fill="midnightblue" stroke="midnightblue" points="496.92,-182.05 503.37,-190.45 503.56,-179.86 496.92,-182.05"/>
</g>
<!-- Node9 -->
<g id="node9" class="node">
<title>Node9</title>
<g id="a_node9"><a xlink:href="ie__kernel__ze_8cpp.html#aa101d0006375eb076cf21c1f890b7fb4" target="_top" xlink:title="Copy host→device or device→host using immediate command list.">
<polygon fill="none" stroke="black" points="205,-38.5 205,-57.5 292,-57.5 292,-38.5 205,-38.5"/>
<text text-anchor="middle" x="248.5" y="-45.5" font-family="Helvetica,sans-Serif" font-size="10.00">memcpy_imm</text>
</a>
</g>
</g>
<!-- Node1&#45;&gt;Node9 -->
<g id="edge9" class="edge">
<title>Node1&#45;&gt;Node9</title>
<path fill="none" stroke="midnightblue" d="M104.71,-95.46C133.27,-85.97 177.3,-71.33 208.91,-60.83"/>
<polygon fill="midnightblue" stroke="midnightblue" points="210.32,-64.05 218.7,-57.57 208.11,-57.4 210.32,-64.05"/>
</g>
<!-- Node10 -->
<g id="node10" class="node">
<title>Node10</title>
<g id="a_node10"><a xlink:href="ie__kernel__ze_8cpp.html#a03e401cb53f156d70c1685d3b76aa747" target="_top" xlink:title="Helper to set a POD kernel argument.">
<polygon fill="none" stroke="black" points="222,-0.5 222,-19.5 275,-19.5 275,-0.5 222,-0.5"/>
<text text-anchor="middle" x="248.5" y="-7.5" font-family="Helvetica,sans-Serif" font-size="10.00">set_arg</text>
</a>
</g>
</g>
<!-- Node1&#45;&gt;Node10 -->
<g id="edge10" class="edge">
<title>Node1&#45;&gt;Node10</title>
<path fill="none" stroke="midnightblue" d="M87.46,-95.29C106.69,-79.43 147.16,-47.86 186,-29 194.18,-25.03 203.37,-21.66 212.11,-18.92"/>
<polygon fill="midnightblue" stroke="midnightblue" points="213.1,-22.27 221.7,-16.08 211.12,-15.56 213.1,-22.27"/>
</g>
<!-- Node5 -->
<g id="node5" class="node">
<title>Node5</title>
<g id="a_node5"><a xlink:href="ie__kernel__ze_8cpp.html#a88fa59032491ae8cb4c70d153fef5bb0" target="_top" xlink:title="Ensure Level Zero context, device and immediate command list exist.">
<polygon fill="none" stroke="black" points="347,-228.5 347,-247.5 446,-247.5 446,-228.5 347,-228.5"/>
<text text-anchor="middle" x="396.5" y="-235.5" font-family="Helvetica,sans-Serif" font-size="10.00">ensure_ze_ready</text>
</a>
</g>
</g>
<!-- Node4&#45;&gt;Node5 -->
<g id="edge4" class="edge">
<title>Node4&#45;&gt;Node5</title>
<path fill="none" stroke="midnightblue" d="M295.33,-133.55C300.98,-136.02 306.39,-139.11 311,-143 338.05,-165.81 321.86,-189.1 347,-214 350.7,-217.67 355.08,-220.87 359.66,-223.64"/>
<polygon fill="midnightblue" stroke="midnightblue" points="358.13,-226.79 368.6,-228.44 361.44,-220.63 358.13,-226.79"/>
</g>
<!-- Node4&#45;&gt;Node6 -->
<g id="edge8" class="edge">
<title>Node4&#45;&gt;Node6</title>
<path fill="none" stroke="midnightblue" d="M290.82,-133.54C297.83,-136.05 304.83,-139.17 311,-143 330.76,-155.28 326.21,-170.55 347,-181 386.45,-200.82 438.14,-203.36 471.71,-202.44"/>
<polygon fill="midnightblue" stroke="midnightblue" points="472.08,-205.92 481.93,-202.03 471.8,-198.93 472.08,-205.92"/>
</g>
<!-- Node7 -->
<g id="node7" class="node">
<title>Node7</title>
<g id="a_node7"><a xlink:href="namespacehf__to__iebin.html#ac3cef0864139e3543306b846207f8c3e" target="_top" xlink:title=" ">
<polygon fill="none" stroke="black" points="352,-152.5 352,-171.5 441,-171.5 441,-152.5 352,-152.5"/>
<text text-anchor="middle" x="396.5" y="-159.5" font-family="Helvetica,sans-Serif" font-size="10.00">hf_to_iebin.log</text>
</a>
</g>
</g>
<!-- Node4&#45;&gt;Node7 -->
<g id="edge6" class="edge">
<title>Node4&#45;&gt;Node7</title>
<path fill="none" stroke="midnightblue" d="M286.34,-133.59C305.35,-138.54 328.73,-144.62 348.97,-149.89"/>
<polygon fill="midnightblue" stroke="midnightblue" points="348.36,-153.35 358.92,-152.48 350.13,-146.57 348.36,-153.35"/>
</g>
<!-- Node8 -->
<g id="node8" class="node">
<title>Node8</title>
<g id="a_node8"><a xlink:href="ie__kernel__ze_8cpp.html#a20d704d2968105641314c50897df8bdb" target="_top" xlink:title="Read a whole binary file into memory.">
<polygon fill="none" stroke="black" points="367,-114.5 367,-133.5 426,-133.5 426,-114.5 367,-114.5"/>
<text text-anchor="middle" x="396.5" y="-121.5" font-family="Helvetica,sans-Serif" font-size="10.00">read_file</text>
</a>
</g>
</g>
<!-- Node4&#45;&gt;Node8 -->
<g id="edge7" class="edge">
<title>Node4&#45;&gt;Node8</title>
<path fill="none" stroke="midnightblue" d="M311.42,-124C326.78,-124 342.81,-124 356.7,-124"/>
<polygon fill="midnightblue" stroke="midnightblue" points="356.86,-127.5 366.86,-124 356.86,-120.5 356.86,-127.5"/>
</g>
<!-- Node5&#45;&gt;Node6 -->
<g id="edge5" class="edge">
<title>Node5&#45;&gt;Node6</title>
<path fill="none" stroke="midnightblue" d="M424.88,-228.41C439.3,-223.36 457.11,-217.12 472.36,-211.78"/>
<polygon fill="midnightblue" stroke="midnightblue" points="473.67,-215.03 481.95,-208.42 471.36,-208.42 473.67,-215.03"/>
</g>
</g>
</svg>
