<?xml version="1.0" encoding="UTF-8" standalone="no"?>
<!DOCTYPE svg PUBLIC "-//W3C//DTD SVG 1.1//EN"
 "http://www.w3.org/Graphics/SVG/1.1/DTD/svg11.dtd">
<!-- Generated by graphviz version 2.43.0 (0)
 -->
<!-- Title: ie_batcher_create Pages: 1 -->
<svg width="511pt" height="113pt"
 viewBox="0.00 0.00 511.00 112.62" xmlns="http://www.w3.org/2000/svg" xmlns:xlink="http://www.w3.org/1999/xlink">
<g id="graph0" class="graph" transform="scale(1 1) rotate(0) translate(4 108.62)">
<title>ie_batcher_create</title>
<!-- Node1 -->
<g id="Node000001" class="node">
<title>Node1</title>
<g id="a_Node000001"><a xlink:title="Create a new asynchronous tokenizer batcher.">
<polygon fill="#999999" stroke="#666666" points="104,-75 0,-75 0,-56 104,-56 104,-75"/>
<text text-anchor="middle" x="52" y="-63" font-family="Helvetica,sans-Serif" font-size="10.00">ie_batcher_create</text>
</a>
</g>
</g>
<!-- Node2 -->
<g id="Node000002" class="node">
<title>Node2</title>
<g id="a_Node000002"><a xlink:href="ie__device__cuda_8cu.html#a5e3d9fee84981707669f5c2398f0c4ab" target="_top" xlink:title="Row&#45;wise GEMV kernel: each thread computes one output row.">
<polygon fill="white" stroke="#666666" points="503,-80.5 378,-80.5 378,-50.5 503,-50.5 503,-80.5"/>
<text text-anchor="start" x="386" y="-68.5" font-family="Helvetica,sans-Serif" font-size="10.00">ie_gemv_rowwise_f32</text>
<text text-anchor="middle" x="440.5" y="-57.5" font-family="Helvetica,sans-Serif" font-size="10.00">_kernel</text>
</a>
</g>
</g>
<!-- Node1&#45;&gt;Node2 -->
<g id="edge1_Node000001_Node000002" class="edge">
<title>Node1&#45;&gt;Node2</title>
<g id="a_edge1_Node000001_Node000002"><a xlink:title=" ">
<path fill="none" stroke="#63b8ff" d="M84.37,-75.02C137.58,-89.86 248.85,-115.27 342,-99.5 360.17,-96.42 379.48,-90.33 396.07,-84.15"/>
<polygon fill="#63b8ff" stroke="#63b8ff" points="397.43,-87.37 405.5,-80.51 394.91,-80.84 397.43,-87.37"/>
</a>
</g>
</g>
<!-- Node3 -->
<g id="Node000003" class="node">
<title>Node3</title>
<g id="a_Node000003"><a xlink:href="ie__batcher_8c.html#ab50c928126740940413626fd7ab7ce72" target="_top" xlink:title="Producer thread entry: tokenizes prompts in ascending index order.">
<polygon fill="white" stroke="#666666" points="220,-75 140,-75 140,-56 220,-56 220,-75"/>
<text text-anchor="middle" x="180" y="-63" font-family="Helvetica,sans-Serif" font-size="10.00">worker_main</text>
</a>
</g>
</g>
<!-- Node1&#45;&gt;Node3 -->
<g id="edge2_Node000001_Node000003" class="edge">
<title>Node1&#45;&gt;Node3</title>
<g id="a_edge2_Node000001_Node000003"><a xlink:title=" ">
<path fill="none" stroke="#63b8ff" d="M104.25,-65.5C112.68,-65.5 121.4,-65.5 129.77,-65.5"/>
<polygon fill="#63b8ff" stroke="#63b8ff" points="129.78,-69 139.78,-65.5 129.78,-62 129.78,-69"/>
</a>
</g>
</g>
<!-- Node6 -->
<g id="Node000006" class="node">
<title>Node6</title>
<g id="a_Node000006"><a xlink:href="ie__batcher_8c.html#a981c4f4b5894b549eb0b2f0358810c67" target="_top" xlink:title="calloc wrapper (zero&#45;initialized).">
<polygon fill="white" stroke="#666666" points="205.5,-19 154.5,-19 154.5,0 205.5,0 205.5,-19"/>
<text text-anchor="middle" x="180" y="-7" font-family="Helvetica,sans-Serif" font-size="10.00">xcalloc</text>
</a>
</g>
</g>
<!-- Node1&#45;&gt;Node6 -->
<g id="edge8_Node000001_Node000006" class="edge">
<title>Node1&#45;&gt;Node6</title>
<g id="a_edge8_Node000001_Node000006"><a xlink:title=" ">
<path fill="none" stroke="#63b8ff" d="M74.66,-55.87C94.98,-46.84 125.56,-33.25 148.37,-23.11"/>
<polygon fill="#63b8ff" stroke="#63b8ff" points="149.91,-26.26 157.62,-19 147.06,-19.86 149.91,-26.26"/>
</a>
</g>
</g>
<!-- Node3&#45;&gt;Node2 -->
<g id="edge5_Node000003_Node000002" class="edge">
<title>Node3&#45;&gt;Node2</title>
<g id="a_edge5_Node000003_Node000002"><a xlink:title=" ">
<path fill="none" stroke="#63b8ff" d="M211.32,-75C224.85,-78.77 241.07,-82.64 256,-84.5 293.93,-89.23 303.95,-88.17 342,-84.5 350.39,-83.69 359.13,-82.5 367.78,-81.1"/>
<polygon fill="#63b8ff" stroke="#63b8ff" points="368.6,-84.51 377.87,-79.37 367.42,-77.61 368.6,-84.51"/>
</a>
</g>
</g>
<!-- Node4 -->
<g id="Node000004" class="node">
<title>Node4</title>
<g id="a_Node000004"><a xlink:href="ie__batcher_8c.html#a9475e6883ae67815581f9573b97d2148" target="_top" xlink:title="Enqueue a tokenized item into the ring (blocks if full).">
<polygon fill="white" stroke="#666666" points="342,-75 256,-75 256,-56 342,-56 342,-75"/>
<text text-anchor="middle" x="299" y="-63" font-family="Helvetica,sans-Serif" font-size="10.00">enqueue_item</text>
</a>
</g>
</g>
<!-- Node3&#45;&gt;Node4 -->
<g id="edge3_Node000003_Node000004" class="edge">
<title>Node3&#45;&gt;Node4</title>
<g id="a_edge3_Node000003_Node000004"><a xlink:title=" ">
<path fill="none" stroke="#63b8ff" d="M220.28,-65.5C228.4,-65.5 237.08,-65.5 245.58,-65.5"/>
<polygon fill="#63b8ff" stroke="#63b8ff" points="245.81,-69 255.81,-65.5 245.81,-62 245.81,-69"/>
</a>
</g>
</g>
<!-- Node5 -->
<g id="Node000005" class="node">
<title>Node5</title>
<g id="a_Node000005"><a xlink:href="ie__batcher_8c.html#a691ff39201d7e90e9808bf7f5ddb2cb8" target="_top" xlink:title="Thread&#45;safe fetch of the next prompt index to process.">
<polygon fill="white" stroke="#666666" points="330,-38 268,-38 268,-19 330,-19 330,-38"/>
<text text-anchor="middle" x="299" y="-26" font-family="Helvetica,sans-Serif" font-size="10.00">pop_next</text>
</a>
</g>
</g>
<!-- Node3&#45;&gt;Node5 -->
<g id="edge6_Node000003_Node000005" class="edge">
<title>Node3&#45;&gt;Node5</title>
<g id="a_edge6_Node000003_Node000005"><a xlink:title=" ">
<path fill="none" stroke="#63b8ff" d="M211.13,-55.97C225.46,-51.44 242.79,-45.96 258.18,-41.09"/>
<polygon fill="#63b8ff" stroke="#63b8ff" points="259.49,-44.35 267.97,-38 257.38,-37.67 259.49,-44.35"/>
</a>
</g>
</g>
<!-- Node4&#45;&gt;Node2 -->
<g id="edge4_Node000004_Node000002" class="edge">
<title>Node4&#45;&gt;Node2</title>
<g id="a_edge4_Node000004_Node000002"><a xlink:title=" ">
<path fill="none" stroke="#63b8ff" d="M342.23,-65.5C350.3,-65.5 358.96,-65.5 367.66,-65.5"/>
<polygon fill="#63b8ff" stroke="#63b8ff" points="367.85,-69 377.85,-65.5 367.85,-62 367.85,-69"/>
</a>
</g>
</g>
<!-- Node5&#45;&gt;Node2 -->
<g id="edge7_Node000005_Node000002" class="edge">
<title>Node5&#45;&gt;Node2</title>
<g id="a_edge7_Node000005_Node000002"><a xlink:title=" ">
<path fill="none" stroke="#63b8ff" d="M330.27,-36.53C342.89,-39.88 358.08,-43.91 373.07,-47.88"/>
<polygon fill="#63b8ff" stroke="#63b8ff" points="372.3,-51.3 382.86,-50.48 374.09,-44.53 372.3,-51.3"/>
</a>
</g>
</g>
<!-- Node6&#45;&gt;Node2 -->
<g id="edge9_Node000006_Node000002" class="edge">
<title>Node6&#45;&gt;Node2</title>
<g id="a_edge9_Node000006_Node000002"><a xlink:title=" ">
<path fill="none" stroke="#63b8ff" d="M205.51,-5.64C237.52,-1.47 295.01,3.03 342,-9.5 367.56,-16.32 393.39,-31.61 412.03,-44.5"/>
<polygon fill="#63b8ff" stroke="#63b8ff" points="410.14,-47.45 420.32,-50.4 414.2,-41.75 410.14,-47.45"/>
</a>
</g>
</g>
</g>
</svg>
