<?xml version="1.0" encoding="UTF-8" standalone="no"?>
<!DOCTYPE svg PUBLIC "-//W3C//DTD SVG 1.1//EN"
 "http://www.w3.org/Graphics/SVG/1.1/DTD/svg11.dtd">
<!-- Generated by graphviz version 12.2.1 (20241206.2353)
 -->
<!-- Title: ie_batcher_create Pages: 1 -->
<svg width="348pt" height="87pt"
 viewBox="0.00 0.00 347.75 86.75" xmlns="http://www.w3.org/2000/svg" xmlns:xlink="http://www.w3.org/1999/xlink">

<svg id="main" version="1.1" xmlns="http://www.w3.org/2000/svg" xmlns:xlink="http://www.w3.org/1999/xlink" xml:space="preserve">

<style type="text/css"><![CDATA[
.node, .edge {opacity: 0.7;}
.node.selected, .edge.selected {opacity: 1;}
.edge:hover path { stroke: red; }
.edge:hover polygon { stroke: red; fill: red; }
]]></style>
<script type="application/ecmascript" xlink:href="svg.min.js"/>
<svg id="graph" class="graph">
<g id="graph0" class="graph" transform="scale(1 1) rotate(0) translate(4 82.75)">
<title>ie_batcher_create</title>
<!-- Node1 -->
<g id="Node000001" class="node">
<title>Node1</title>
<g id="a_Node000001"><a xlink:title="Create a new asynchronous tokenizer batcher.">
<polygon fill="#999999" stroke="#666666" points="103,-39.75 0,-39.75 0,-19 103,-19 103,-39.75"/>
<text text-anchor="middle" x="51.5" y="-26.25" font-family="Helvetica,sans-Serif" font-size="10.00">ie_batcher_create</text>
</a>
</g>
</g>
<!-- Node2 -->
<g id="Node000002" class="node">
<title>Node2</title>
<g id="a_Node000002"><a xlink:href="ie__batcher_8c.html#ab50c928126740940413626fd7ab7ce72" target="_top" xlink:title="Producer thread entry: tokenizes prompts in ascending index order.">
<polygon fill="white" stroke="#666666" points="218,-59.75 139,-59.75 139,-39 218,-39 218,-59.75"/>
<text text-anchor="middle" x="178.5" y="-46.25" font-family="Helvetica,sans-Serif" font-size="10.00">worker_main</text>
</a>
</g>
</g>
<!-- Node1&#45;&gt;Node2 -->
<g id="edge1_Node000001_Node000002" class="edge">
<title>Node1&#45;&gt;Node2</title>
<g id="a_edge1_Node000001_Node000002"><a xlink:title=" ">
<path fill="none" stroke="#63b8ff" d="M103.34,-37.51C111.24,-38.77 119.4,-40.08 127.29,-41.34"/>
<polygon fill="#63b8ff" stroke="#63b8ff" points="126.67,-44.79 137.1,-42.91 127.78,-37.87 126.67,-44.79"/>
</a>
</g>
</g>
<!-- Node5 -->
<g id="Node000005" class="node">
<title>Node5</title>
<g id="a_Node000005"><a xlink:href="ie__batcher_8c.html#a981c4f4b5894b549eb0b2f0358810c67" target="_top" xlink:title="calloc wrapper (zero&#45;initialized).">
<polygon fill="white" stroke="#666666" points="203.75,-20.75 153.25,-20.75 153.25,0 203.75,0 203.75,-20.75"/>
<text text-anchor="middle" x="178.5" y="-7.25" font-family="Helvetica,sans-Serif" font-size="10.00">xcalloc</text>
</a>
</g>
</g>
<!-- Node1&#45;&gt;Node5 -->
<g id="edge4_Node000001_Node000005" class="edge">
<title>Node1&#45;&gt;Node5</title>
<g id="a_edge4_Node000001_Node000005"><a xlink:title=" ">
<path fill="none" stroke="#63b8ff" d="M103.34,-21.65C116.22,-19.69 129.78,-17.63 141.73,-15.81"/>
<polygon fill="#63b8ff" stroke="#63b8ff" points="142.21,-19.28 151.57,-14.32 141.16,-12.36 142.21,-19.28"/>
</a>
</g>
</g>
<!-- Node3 -->
<g id="Node000003" class="node">
<title>Node3</title>
<g id="a_Node000003"><a xlink:href="ie__batcher_8c.html#a9475e6883ae67815581f9573b97d2148" target="_top" xlink:title="Enqueue a tokenized item into the ring (blocks if full).">
<polygon fill="white" stroke="#666666" points="339.75,-78.75 254,-78.75 254,-58 339.75,-58 339.75,-78.75"/>
<text text-anchor="middle" x="296.88" y="-65.25" font-family="Helvetica,sans-Serif" font-size="10.00">enqueue_item</text>
</a>
</g>
</g>
<!-- Node2&#45;&gt;Node3 -->
<g id="edge2_Node000002_Node000003" class="edge">
<title>Node2&#45;&gt;Node3</title>
<g id="a_edge2_Node000002_Node000003"><a xlink:title=" ">
<path fill="none" stroke="#63b8ff" d="M218.25,-55.7C225.98,-56.96 234.23,-58.31 242.35,-59.64"/>
<polygon fill="#63b8ff" stroke="#63b8ff" points="241.76,-63.09 252.2,-61.24 242.89,-56.18 241.76,-63.09"/>
</a>
</g>
</g>
<!-- Node4 -->
<g id="Node000004" class="node">
<title>Node4</title>
<g id="a_Node000004"><a xlink:href="ie__batcher_8c.html#a691ff39201d7e90e9808bf7f5ddb2cb8" target="_top" xlink:title="Thread&#45;safe fetch of the next prompt index to process.">
<polygon fill="white" stroke="#666666" points="327.38,-39.75 266.38,-39.75 266.38,-19 327.38,-19 327.38,-39.75"/>
<text text-anchor="middle" x="296.88" y="-26.25" font-family="Helvetica,sans-Serif" font-size="10.00">pop_next</text>
</a>
</g>
</g>
<!-- Node2&#45;&gt;Node4 -->
<g id="edge3_Node000002_Node000004" class="edge">
<title>Node2&#45;&gt;Node4</title>
<g id="a_edge3_Node000002_Node000004"><a xlink:title=" ">
<path fill="none" stroke="#63b8ff" d="M218.25,-42.72C230.08,-40.68 243.11,-38.44 255.07,-36.39"/>
<polygon fill="#63b8ff" stroke="#63b8ff" points="255.37,-39.89 264.64,-34.74 254.19,-32.99 255.37,-39.89"/>
</a>
</g>
</g>
</g>
</svg>
</svg>

<style type='text/css'>
<![CDATA[
[data-mouse-over-selected='false'] { opacity: 0.7; }
[data-mouse-over-selected='true']  { opacity: 1.0; }
]]>
</style>
<script type="application/ecmascript"><![CDATA[
document.addEventListener('DOMContentLoaded', (event) => {
  highlightEdges();
  highlightAdjacentNodes();
});
]]></script>
</svg>
