<?xml version="1.0" encoding="UTF-8" standalone="no"?>
<!DOCTYPE svg PUBLIC "-//W3C//DTD SVG 1.1//EN"
 "http://www.w3.org/Graphics/SVG/1.1/DTD/svg11.dtd">
<!-- Generated by graphviz version 12.2.1 (20241206.2353)
 -->
<!-- Title: ie_device_memcpy Pages: 1 -->
<!--zoomable 596 -->

<svg id="main" version="1.1" xmlns="http://www.w3.org/2000/svg" xmlns:xlink="http://www.w3.org/1999/xlink" xml:space="preserve" onload="init(evt)">

<style type="text/css"><![CDATA[
.node, .edge {opacity: 0.7;}
.node.selected, .edge.selected {opacity: 1;}
.edge:hover path { stroke: red; }
.edge:hover polygon { stroke: red; fill: red; }
]]></style>

<defs>
  <circle id="rim" cx="0" cy="0" r="7"/>
  <circle id="rim2" cx="0" cy="0" r="3.5"/>
  <g id="zoomPlus">
    <use xlink:href="#rim" fill="#404040"><set attributeName="fill" to="#808080" begin="zoomplus.mouseover" end="zoomplus.mouseout"/></use>
    <path d="M-4,0h8M0,-4v8" fill="none" stroke="white" stroke-width="1.5" pointer-events="none"/>
  </g>
  <g id="zoomMin">
    <use xlink:href="#rim" fill="#404040"><set attributeName="fill" to="#808080" begin="zoomminus.mouseover" end="zoomminus.mouseout"/></use>
    <path d="M-4,0h8" fill="none" stroke="white" stroke-width="1.5" pointer-events="none"/>
  </g>
  <g id="arrowUp" transform="translate(30 24)">
    <use xlink:href="#rim"/>
    <path pointer-events="none" fill="none" stroke="white" stroke-width="1.5" d="M0,-3.0v7 M-2.5,-0.5L0,-3.0L2.5,-0.5"/>
  </g>
  <g id="arrowRight" transform="rotate(90) translate(36 -43)">
    <use xlink:href="#rim"/>
    <path pointer-events="none" fill="none" stroke="white" stroke-width="1.5" d="M0,-3.0v7 M-2.5,-0.5L0,-3.0L2.5,-0.5"/>
  </g>
  <g id="arrowDown" transform="rotate(180) translate(-30 -48)">
    <use xlink:href="#rim"/>
    <path pointer-events="none" fill="none" stroke="white" stroke-width="1.5" d="M0,-3.0v7 M-2.5,-0.5L0,-3.0L2.5,-0.5"/>
  </g>
  <g id="arrowLeft" transform="rotate(270) translate(-36 17)">
    <use xlink:href="#rim"/>
    <path pointer-events="none" fill="none" stroke="white" stroke-width="1.5" d="M0,-3.0v7 M-2.5,-0.5L0,-3.0L2.5,-0.5"/>
  </g>
  <g id="resetDef">
    <use xlink:href="#rim2" fill="#404040"><set attributeName="fill" to="#808080" begin="reset.mouseover" end="reset.mouseout"/></use>
  </g>
</defs>
<script type="application/ecmascript">
var viewWidth = 943;
var viewHeight = 596;
var sectionId = 'dynsection-25';
</script>
<script type="application/ecmascript" xlink:href="svg.min.js"/>
<svg id="graph" class="graph">
<g id="viewport">
<title>ie_device_memcpy</title>
<!-- Node1 -->
<g id="Node000001" class="node">
<title>Node1</title>
<g id="a_Node000001"><a xlink:title="Execute memcpy via backend or CPU fallback.">
<polygon fill="#999999" stroke="#666666" points="110.5,-430.75 0,-430.75 0,-410 110.5,-410 110.5,-430.75"/>
<text text-anchor="middle" x="55.25" y="-417.25" font-family="Helvetica,sans-Serif" font-size="10.00">ie_device_memcpy</text>
</a>
</g>
</g>
<!-- Node1&#45;&gt;Node1 -->
<g id="edge29_Node000001_Node000001" class="edge">
<title>Node1&#45;&gt;Node1</title>
<g id="a_edge29_Node000001_Node000001"><a xlink:title=" ">
<path fill="none" stroke="#63b8ff" d="M32.13,-431.15C22.88,-439.81 30.59,-448.75 55.25,-448.75 68.74,-448.75 77.16,-446.08 80.5,-442.24"/>
<polygon fill="#63b8ff" stroke="#63b8ff" points="83.98,-441.79 78.66,-432.63 77.11,-443.11 83.98,-441.79"/>
</a>
</g>
</g>
<!-- Node2 -->
<g id="Node000002" class="node">
<title>Node2</title>
<g id="a_Node000002"><a xlink:href="ie__device__common_8c.html#a3e42fcc4b9579a9bf14520cb1afe733b" target="_top" xlink:title="Create a device backend.">
<polygon fill="white" stroke="#666666" points="248,-450.75 149.5,-450.75 149.5,-430 248,-430 248,-450.75"/>
<text text-anchor="middle" x="198.75" y="-437.25" font-family="Helvetica,sans-Serif" font-size="10.00">ie_device_create</text>
</a>
</g>
</g>
<!-- Node1&#45;&gt;Node2 -->
<g id="edge1_Node000001_Node000002" class="edge">
<title>Node1&#45;&gt;Node2</title>
<g id="a_edge1_Node000001_Node000002"><a xlink:title=" ">
<path fill="none" stroke="#63b8ff" d="M110.96,-428.11C119.82,-429.36 129.03,-430.66 138,-431.93"/>
<polygon fill="#63b8ff" stroke="#63b8ff" points="137.3,-435.37 147.69,-433.3 138.28,-428.43 137.3,-435.37"/>
</a>
</g>
</g>
<!-- Node28 -->
<g id="Node000028" class="node">
<title>Node28</title>
<g id="a_Node000028"><a xlink:href="ie__device__common_8c.html#a8f8a88a7dd6a58749275d2f3dea9a0ab" target="_top" xlink:title="Destroy a device instance.">
<polygon fill="white" stroke="#666666" points="251,-411.75 146.5,-411.75 146.5,-391 251,-391 251,-411.75"/>
<text text-anchor="middle" x="198.75" y="-398.25" font-family="Helvetica,sans-Serif" font-size="10.00">ie_device_destroy</text>
</a>
</g>
</g>
<!-- Node1&#45;&gt;Node28 -->
<g id="edge28_Node000001_Node000028" class="edge">
<title>Node1&#45;&gt;Node28</title>
<g id="a_edge28_Node000001_Node000028"><a xlink:title=" ">
<path fill="none" stroke="#63b8ff" d="M110.96,-413.03C118.89,-411.96 127.1,-410.86 135.17,-409.78"/>
<polygon fill="#63b8ff" stroke="#63b8ff" points="135.49,-413.27 144.94,-408.47 134.56,-406.33 135.49,-413.27"/>
</a>
</g>
</g>
<!-- Node3 -->
<g id="Node000003" class="node">
<title>Node3</title>
<g id="a_Node000003"><a xlink:href="ie__device__common_8c.html#a49b8c853d1b641c9402ed5e92d8af962" target="_top" xlink:title="Report CPU device capabilities.">
<polygon fill="white" stroke="#666666" points="395.62,-587.75 334.62,-587.75 334.62,-567 395.62,-567 395.62,-587.75"/>
<text text-anchor="middle" x="365.12" y="-574.25" font-family="Helvetica,sans-Serif" font-size="10.00">cpu_caps</text>
</a>
</g>
</g>
<!-- Node2&#45;&gt;Node3 -->
<g id="edge2_Node000002_Node000003" class="edge">
<title>Node2&#45;&gt;Node3</title>
<g id="a_edge2_Node000002_Node000003"><a xlink:title=" ">
<path fill="none" stroke="#63b8ff" d="M204.58,-451.01C215.64,-474.15 245.15,-529.24 287,-557.38 297.72,-564.58 310.89,-569.19 323.29,-572.14"/>
<polygon fill="#63b8ff" stroke="#63b8ff" points="322.38,-575.53 332.88,-574.11 323.79,-568.67 322.38,-575.53"/>
</a>
</g>
</g>
<!-- Node4 -->
<g id="Node000004" class="node">
<title>Node4</title>
<g id="a_Node000004"><a xlink:href="ie__device__common_8c.html#a94f0164f6cb0f1f874ad9b18194cfbc2" target="_top" xlink:title="Destroy CPU backend instance.">
<polygon fill="white" stroke="#666666" points="402.75,-548.75 327.5,-548.75 327.5,-528 402.75,-528 402.75,-548.75"/>
<text text-anchor="middle" x="365.12" y="-535.25" font-family="Helvetica,sans-Serif" font-size="10.00">cpu_destroy</text>
</a>
</g>
</g>
<!-- Node2&#45;&gt;Node4 -->
<g id="edge3_Node000002_Node000004" class="edge">
<title>Node2&#45;&gt;Node4</title>
<g id="a_edge3_Node000002_Node000004"><a xlink:title=" ">
<path fill="none" stroke="#63b8ff" d="M208.75,-451.23C223.39,-468.15 254.04,-500.73 287,-518.38 295.95,-523.17 306.1,-526.85 316.04,-529.68"/>
<polygon fill="#63b8ff" stroke="#63b8ff" points="315.07,-533.04 325.62,-532.13 316.8,-526.26 315.07,-533.04"/>
</a>
</g>
</g>
<!-- Node5 -->
<g id="Node000005" class="node">
<title>Node5</title>
<g id="a_Node000005"><a xlink:href="ie__device__common_8c.html#a4cf6c8ed666278da8fdaf7f0b953138c" target="_top" xlink:title="CPU implementation of block&#45;sparse GEMV FP32.">
<polygon fill="white" stroke="#666666" points="443.25,-509.75 287,-509.75 287,-489 443.25,-489 443.25,-509.75"/>
<text text-anchor="middle" x="365.12" y="-496.25" font-family="Helvetica,sans-Serif" font-size="10.00">cpu_gemv_block_sparse_f32</text>
</a>
</g>
</g>
<!-- Node2&#45;&gt;Node5 -->
<g id="edge4_Node000002_Node000005" class="edge">
<title>Node2&#45;&gt;Node5</title>
<g id="a_edge4_Node000002_Node000005"><a xlink:title=" ">
<path fill="none" stroke="#63b8ff" d="M221.21,-451.18C238.63,-459.65 263.98,-471.31 287,-479.38 293.19,-481.54 299.73,-483.59 306.28,-485.5"/>
<polygon fill="#63b8ff" stroke="#63b8ff" points="305.22,-488.84 315.8,-488.15 307.1,-482.09 305.22,-488.84"/>
</a>
</g>
</g>
<!-- Node8 -->
<g id="Node000008" class="node">
<title>Node8</title>
<g id="a_Node000008"><a xlink:href="ie__device__common_8c.html#a4fb9bb01bfbe71517f9df925ba9c93ec" target="_top" xlink:title="Execute dense GEMV FP32 on CPU using existing kernels.">
<polygon fill="white" stroke="#666666" points="408.75,-470.75 321.5,-470.75 321.5,-450 408.75,-450 408.75,-470.75"/>
<text text-anchor="middle" x="365.12" y="-457.25" font-family="Helvetica,sans-Serif" font-size="10.00">cpu_gemv_f32</text>
</a>
</g>
</g>
<!-- Node2&#45;&gt;Node8 -->
<g id="edge7_Node000002_Node000008" class="edge">
<title>Node2&#45;&gt;Node8</title>
<g id="a_edge7_Node000002_Node000008"><a xlink:title=" ">
<path fill="none" stroke="#63b8ff" d="M248.18,-446.27C267.49,-448.62 289.82,-451.33 309.7,-453.75"/>
<polygon fill="#63b8ff" stroke="#63b8ff" points="309.22,-457.22 319.57,-454.95 310.07,-450.27 309.22,-457.22"/>
</a>
</g>
</g>
<!-- Node13 -->
<g id="Node000013" class="node">
<title>Node13</title>
<g id="a_Node000013"><a xlink:href="ie__device__common_8c.html#a4c7a3b8d7f7279d7680aa68e429e6206" target="_top" xlink:title="CPU memcpy implementation.">
<polygon fill="white" stroke="#666666" points="405.75,-431.75 324.5,-431.75 324.5,-411 405.75,-411 405.75,-431.75"/>
<text text-anchor="middle" x="365.12" y="-418.25" font-family="Helvetica,sans-Serif" font-size="10.00">cpu_memcpy</text>
</a>
</g>
</g>
<!-- Node2&#45;&gt;Node13 -->
<g id="edge12_Node000002_Node000013" class="edge">
<title>Node2&#45;&gt;Node13</title>
<g id="a_edge12_Node000002_Node000013"><a xlink:title=" ">
<path fill="none" stroke="#63b8ff" d="M248.18,-434.78C268.46,-432.43 292.06,-429.7 312.66,-427.32"/>
<polygon fill="#63b8ff" stroke="#63b8ff" points="313.03,-430.8 322.56,-426.18 312.23,-423.85 313.03,-430.8"/>
</a>
</g>
</g>
<!-- Node14 -->
<g id="Node000014" class="node">
<title>Node14</title>
<g id="a_Node000014"><a xlink:href="ie__device__common_8c.html#a4099e48a20d5155401706f728c99c435" target="_top" xlink:title="Allocate a CPU backend instance.">
<polygon fill="white" stroke="#666666" points="394.5,-392.75 335.75,-392.75 335.75,-372 394.5,-372 394.5,-392.75"/>
<text text-anchor="middle" x="365.12" y="-379.25" font-family="Helvetica,sans-Serif" font-size="10.00">cpu_new</text>
</a>
</g>
</g>
<!-- Node2&#45;&gt;Node14 -->
<g id="edge13_Node000002_Node000014" class="edge">
<title>Node2&#45;&gt;Node14</title>
<g id="a_edge13_Node000002_Node000014"><a xlink:title=" ">
<path fill="none" stroke="#63b8ff" d="M228.94,-429.52C236.2,-426.67 243.93,-423.51 251,-420.38 267.35,-413.12 270.25,-408.65 287,-402.38 299,-397.88 312.41,-394.01 324.65,-390.92"/>
<polygon fill="#63b8ff" stroke="#63b8ff" points="325.11,-394.41 334.01,-388.65 323.46,-387.6 325.11,-394.41"/>
</a>
</g>
</g>
<!-- Node15 -->
<g id="Node000015" class="node">
<title>Node15</title>
<g id="a_Node000015"><a xlink:href="ie__device__common_8c.html#ae4ac15a3b8fea25568b8cdeb2cd781fe" target="_top" xlink:title="Try to initialize CUDA backend via dlopen.">
<polygon fill="white" stroke="#666666" points="412.12,-350.75 318.12,-350.75 318.12,-330 412.12,-330 412.12,-350.75"/>
<text text-anchor="middle" x="365.12" y="-337.25" font-family="Helvetica,sans-Serif" font-size="10.00">cuda_try_create</text>
</a>
</g>
</g>
<!-- Node2&#45;&gt;Node15 -->
<g id="edge14_Node000002_Node000015" class="edge">
<title>Node2&#45;&gt;Node15</title>
<g id="a_edge14_Node000002_Node000015"><a xlink:title=" ">
<path fill="none" stroke="#63b8ff" d="M236.1,-429.57C241.42,-427.06 246.58,-424.02 251,-420.38 274.11,-401.31 263.12,-381.48 287,-363.38 293.06,-358.78 300.03,-355.1 307.25,-352.15"/>
<polygon fill="#63b8ff" stroke="#63b8ff" points="308.26,-355.51 316.5,-348.85 305.9,-348.92 308.26,-355.51"/>
</a>
</g>
</g>
<!-- Node22 -->
<g id="Node000022" class="node">
<title>Node22</title>
<g id="a_Node000022"><a xlink:href="ie__device__common_8c.html#a6877d362577444879b41090af23950d6" target="_top" xlink:title="Try to initialize Level Zero backend via dlopen.">
<polygon fill="white" stroke="#666666" points="406.12,-149.75 324.12,-149.75 324.12,-129 406.12,-129 406.12,-149.75"/>
<text text-anchor="middle" x="365.12" y="-136.25" font-family="Helvetica,sans-Serif" font-size="10.00">ze_try_create</text>
</a>
</g>
</g>
<!-- Node2&#45;&gt;Node22 -->
<g id="edge21_Node000002_Node000022" class="edge">
<title>Node2&#45;&gt;Node22</title>
<g id="a_edge21_Node000002_Node000022"><a xlink:title=" ">
<path fill="none" stroke="#63b8ff" d="M238.39,-429.56C243.03,-427.09 247.4,-424.06 251,-420.38 283.72,-386.89 269.86,-364.94 287,-321.38 310.15,-262.53 339.93,-194.1 354.81,-160.37"/>
<polygon fill="#63b8ff" stroke="#63b8ff" points="357.95,-161.91 358.8,-151.35 351.55,-159.08 357.95,-161.91"/>
</a>
</g>
</g>
<!-- Node6 -->
<g id="Node000006" class="node">
<title>Node6</title>
<g id="a_Node000006"><a xlink:href="gemm__block__sparse_8c.html#ae9a2aad0ec5332237097030acf034961" target="_top" xlink:title="Perform a single&#45;precision block&#45;sparse matrix&#45;vector product.">
<polygon fill="white" stroke="#666666" points="627.25,-512.75 479.25,-512.75 479.25,-492 627.25,-492 627.25,-512.75"/>
<text text-anchor="middle" x="553.25" y="-499.25" font-family="Helvetica,sans-Serif" font-size="10.00">ie_gemv_block_sparse_f32</text>
</a>
</g>
</g>
<!-- Node5&#45;&gt;Node6 -->
<g id="edge5_Node000005_Node000006" class="edge">
<title>Node5&#45;&gt;Node6</title>
<g id="a_edge5_Node000005_Node000006"><a xlink:title=" ">
<path fill="none" stroke="#63b8ff" d="M443.71,-500.63C451.55,-500.75 459.54,-500.88 467.46,-501.01"/>
<polygon fill="#63b8ff" stroke="#63b8ff" points="467.39,-504.51 477.45,-501.17 467.51,-497.51 467.39,-504.51"/>
</a>
</g>
</g>
<!-- Node7 -->
<g id="Node000007" class="node">
<title>Node7</title>
<g id="a_Node000007"><a xlink:href="gemm__block__sparse_8c.html#a05f40c15c1dabe19a303a4d5a897b212" target="_top" xlink:title="Compute the pointer to the first element of a given block.">
<polygon fill="white" stroke="#666666" points="762.88,-512.75 664.38,-512.75 664.38,-492 762.88,-492 762.88,-512.75"/>
<text text-anchor="middle" x="713.62" y="-499.25" font-family="Helvetica,sans-Serif" font-size="10.00">block_values_ptr</text>
</a>
</g>
</g>
<!-- Node6&#45;&gt;Node7 -->
<g id="edge6_Node000006_Node000007" class="edge">
<title>Node6&#45;&gt;Node7</title>
<g id="a_edge6_Node000006_Node000007"><a xlink:title=" ">
<path fill="none" stroke="#63b8ff" d="M627.41,-502.38C635.89,-502.38 644.47,-502.38 652.75,-502.38"/>
<polygon fill="#63b8ff" stroke="#63b8ff" points="652.69,-505.88 662.69,-502.38 652.69,-498.88 652.69,-505.88"/>
</a>
</g>
</g>
<!-- Node9 -->
<g id="Node000009" class="node">
<title>Node9</title>
<g id="a_Node000009"><a xlink:href="gemv__generic_8c.html#a4e112b3396ed21919f404631c1d4d7fb" target="_top" xlink:title="GEMV: y[r] = dot(W[r, :], x) [+ bias[r]] for r in [0, rows).">
<polygon fill="white" stroke="#666666" points="592.75,-473.75 513.75,-473.75 513.75,-453 592.75,-453 592.75,-473.75"/>
<text text-anchor="middle" x="553.25" y="-460.25" font-family="Helvetica,sans-Serif" font-size="10.00">ie_gemv_f32</text>
</a>
</g>
</g>
<!-- Node8&#45;&gt;Node9 -->
<g id="edge8_Node000008_Node000009" class="edge">
<title>Node8&#45;&gt;Node9</title>
<g id="a_edge8_Node000008_Node000009"><a xlink:title=" ">
<path fill="none" stroke="#63b8ff" d="M408.83,-461.06C436.68,-461.51 473.15,-462.1 502.35,-462.57"/>
<polygon fill="#63b8ff" stroke="#63b8ff" points="501.98,-466.07 512.04,-462.73 502.09,-459.07 501.98,-466.07"/>
</a>
</g>
</g>
<!-- Node10 -->
<g id="Node000010" class="node">
<title>Node10</title>
<g id="a_Node000010"><a xlink:href="gemv__generic_8c.html#a1b919f71b86ec1791fe53bc68d5c240d" target="_top" xlink:title="Install the best available float GEMV kernel for this process.">
<polygon fill="white" stroke="#666666" points="764,-473.75 663.25,-473.75 663.25,-453 764,-453 764,-473.75"/>
<text text-anchor="middle" x="713.62" y="-460.25" font-family="Helvetica,sans-Serif" font-size="10.00">ie_kernels_install</text>
</a>
</g>
</g>
<!-- Node9&#45;&gt;Node10 -->
<g id="edge9_Node000009_Node000010" class="edge">
<title>Node9&#45;&gt;Node10</title>
<g id="a_edge9_Node000009_Node000010"><a xlink:title=" ">
<path fill="none" stroke="#63b8ff" d="M592.99,-463.38C610.6,-463.38 631.85,-463.38 651.53,-463.38"/>
<polygon fill="#63b8ff" stroke="#63b8ff" points="651.38,-466.88 661.38,-463.38 651.38,-459.88 651.38,-466.88"/>
</a>
</g>
</g>
<!-- Node11 -->
<g id="Node000011" class="node">
<title>Node11</title>
<g id="a_Node000011"><a xlink:href="gemv__generic_8c.html#a51096a373f5e5010d39cbf44e34b730d" target="_top" xlink:title="Generic C GEMV: y = W * x (+bias), optional blocked&#45;K layout.">
<polygon fill="white" stroke="#666666" points="923.62,-493.75 811.62,-493.75 811.62,-473 923.62,-473 923.62,-493.75"/>
<text text-anchor="middle" x="867.62" y="-480.25" font-family="Helvetica,sans-Serif" font-size="10.00">gemv_generic_impl</text>
</a>
</g>
</g>
<!-- Node10&#45;&gt;Node11 -->
<g id="edge10_Node000010_Node000011" class="edge">
<title>Node10&#45;&gt;Node11</title>
<g id="a_edge10_Node000010_Node000011"><a xlink:title=" ">
<path fill="none" stroke="#63b8ff" d="M764.4,-469.92C775.75,-471.42 787.99,-473.03 799.92,-474.6"/>
<polygon fill="#63b8ff" stroke="#63b8ff" points="799.35,-478.05 809.72,-475.89 800.26,-471.11 799.35,-478.05"/>
</a>
</g>
</g>
<!-- Node12 -->
<g id="Node000012" class="node">
<title>Node12</title>
<g id="a_Node000012"><a xlink:href="gemv__avx2_8c.html#a63b484c2984caeed7dfc9b5002444f57" target="_top" xlink:title="AVX2/FMA GEMV (float path), blocked&#45;K aware, with bias epilogue.">
<polygon fill="white" stroke="#666666" points="935.25,-454.75 800,-454.75 800,-434 935.25,-434 935.25,-454.75"/>
<text text-anchor="middle" x="867.62" y="-441.25" font-family="Helvetica,sans-Serif" font-size="10.00">ie_gemv_f32_avx2_impl</text>
</a>
</g>
</g>
<!-- Node10&#45;&gt;Node12 -->
<g id="edge11_Node000010_Node000012" class="edge">
<title>Node10&#45;&gt;Node12</title>
<g id="a_edge11_Node000010_Node000012"><a xlink:title=" ">
<path fill="none" stroke="#63b8ff" d="M764.4,-457.15C772.13,-456.19 780.29,-455.17 788.47,-454.14"/>
<polygon fill="#63b8ff" stroke="#63b8ff" points="788.63,-457.65 798.12,-452.94 787.76,-450.71 788.63,-457.65"/>
</a>
</g>
</g>
<!-- Node16 -->
<g id="Node000016" class="node">
<title>Node16</title>
<g id="a_Node000016"><a xlink:href="ie__device__common_8c.html#afbcd46d9b25dd33110fdf48f5c83b017" target="_top" xlink:title="CUDA caps thunk used in the vtable.">
<polygon fill="white" stroke="#666666" points="603.25,-434.75 503.25,-434.75 503.25,-414 603.25,-414 603.25,-434.75"/>
<text text-anchor="middle" x="553.25" y="-421.25" font-family="Helvetica,sans-Serif" font-size="10.00">cuda_caps_thunk</text>
</a>
</g>
</g>
<!-- Node15&#45;&gt;Node16 -->
<g id="edge15_Node000015_Node000016" class="edge">
<title>Node15&#45;&gt;Node16</title>
<g id="a_edge15_Node000015_Node000016"><a xlink:title=" ">
<path fill="none" stroke="#63b8ff" d="M412.42,-349.61C423.05,-352.95 433.96,-357.42 443.25,-363.38 463.67,-376.46 458.69,-391.52 479.25,-404.38 483.44,-406.99 487.97,-409.27 492.65,-411.26"/>
<polygon fill="#63b8ff" stroke="#63b8ff" points="491.06,-414.4 501.65,-414.62 493.51,-407.84 491.06,-414.4"/>
</a>
</g>
</g>
<!-- Node17 -->
<g id="Node000017" class="node">
<title>Node17</title>
<g id="a_Node000017"><a xlink:href="ie__device__common_8c.html#a7ecb9f771aea0ef0d125bbe31b53c87a" target="_top" xlink:title="Destroy CUDA backend instance.">
<polygon fill="white" stroke="#666666" points="610.38,-395.75 496.12,-395.75 496.12,-375 610.38,-375 610.38,-395.75"/>
<text text-anchor="middle" x="553.25" y="-382.25" font-family="Helvetica,sans-Serif" font-size="10.00">cuda_destroy_thunk</text>
</a>
</g>
</g>
<!-- Node15&#45;&gt;Node17 -->
<g id="edge16_Node000015_Node000017" class="edge">
<title>Node15&#45;&gt;Node17</title>
<g id="a_edge16_Node000015_Node000017"><a xlink:title=" ">
<path fill="none" stroke="#63b8ff" d="M410.71,-351.15C436.42,-357.37 468.98,-365.24 496.38,-371.87"/>
<polygon fill="#63b8ff" stroke="#63b8ff" points="495.37,-375.22 505.92,-374.17 497.02,-368.42 495.37,-375.22"/>
</a>
</g>
</g>
<!-- Node18 -->
<g id="Node000018" class="node">
<title>Node18</title>
<g id="a_Node000018"><a xlink:href="ie__device__common_8c.html#a7bd28e144c0f372417e90fae8ece5ecc" target="_top" xlink:title="CUDA block&#45;sparse GEMV FP32 stub (unimplemented).">
<polygon fill="white" stroke="#666666" points="623.88,-357.12 482.62,-357.12 482.62,-323.62 623.88,-323.62 623.88,-357.12"/>
<text text-anchor="start" x="490.62" y="-343.62" font-family="Helvetica,sans-Serif" font-size="10.00">cuda_gemv_block_sparse</text>
<text text-anchor="middle" x="553.25" y="-330.88" font-family="Helvetica,sans-Serif" font-size="10.00">_f32_stub</text>
</a>
</g>
</g>
<!-- Node15&#45;&gt;Node18 -->
<g id="edge17_Node000015_Node000018" class="edge">
<title>Node15&#45;&gt;Node18</title>
<g id="a_edge17_Node000015_Node000018"><a xlink:title=" ">
<path fill="none" stroke="#63b8ff" d="M412.61,-340.38C430.34,-340.38 451.1,-340.38 471.11,-340.38"/>
<polygon fill="#63b8ff" stroke="#63b8ff" points="470.94,-343.88 480.94,-340.38 470.94,-336.88 470.94,-343.88"/>
</a>
</g>
</g>
<!-- Node19 -->
<g id="Node000019" class="node">
<title>Node19</title>
<g id="a_Node000019"><a xlink:href="ie__device__common_8c.html#a21aa199bdf7a1b0f258b1ef483fa9880" target="_top" xlink:title="CUDA GEMV FP32 stub (unimplemented).">
<polygon fill="white" stroke="#666666" points="613,-305.75 493.5,-305.75 493.5,-285 613,-285 613,-305.75"/>
<text text-anchor="middle" x="553.25" y="-292.25" font-family="Helvetica,sans-Serif" font-size="10.00">cuda_gemv_f32_stub</text>
</a>
</g>
</g>
<!-- Node15&#45;&gt;Node19 -->
<g id="edge18_Node000015_Node000019" class="edge">
<title>Node15&#45;&gt;Node19</title>
<g id="a_edge18_Node000015_Node000019"><a xlink:title=" ">
<path fill="none" stroke="#63b8ff" d="M410.71,-329.6C436.42,-323.38 468.98,-315.51 496.38,-308.88"/>
<polygon fill="#63b8ff" stroke="#63b8ff" points="497.02,-312.33 505.92,-306.58 495.37,-305.53 497.02,-312.33"/>
</a>
</g>
</g>
<!-- Node20 -->
<g id="Node000020" class="node">
<title>Node20</title>
<g id="a_Node000020"><a xlink:href="ie__device__common_8c.html#a917925724f117893e02930b1df41c2fd" target="_top" xlink:title="CUDA memcpy stub (unimplemented).">
<polygon fill="white" stroke="#666666" points="610,-266.75 496.5,-266.75 496.5,-246 610,-246 610,-266.75"/>
<text text-anchor="middle" x="553.25" y="-253.25" font-family="Helvetica,sans-Serif" font-size="10.00">cuda_memcpy_stub</text>
</a>
</g>
</g>
<!-- Node15&#45;&gt;Node20 -->
<g id="edge19_Node000015_Node000020" class="edge">
<title>Node15&#45;&gt;Node20</title>
<g id="a_edge19_Node000015_Node000020"><a xlink:title=" ">
<path fill="none" stroke="#63b8ff" d="M381.97,-329.73C403.28,-315.81 442.74,-291.43 479.25,-276.38 484.43,-274.24 489.91,-272.26 495.45,-270.44"/>
<polygon fill="#63b8ff" stroke="#63b8ff" points="496.14,-273.89 504.66,-267.6 494.07,-267.2 496.14,-273.89"/>
</a>
</g>
</g>
<!-- Node21 -->
<g id="Node000021" class="node">
<title>Node21</title>
<g id="a_Node000021"><a xlink:href="ie__device__common_8c.html#a5b5f48338cddd2bed011b4c2384bac25" target="_top" xlink:title="Try opening one of a list of shared objects.">
<polygon fill="white" stroke="#666666" points="594.25,-227.75 512.25,-227.75 512.25,-207 594.25,-207 594.25,-227.75"/>
<text text-anchor="middle" x="553.25" y="-214.25" font-family="Helvetica,sans-Serif" font-size="10.00">try_open_any</text>
</a>
</g>
</g>
<!-- Node15&#45;&gt;Node21 -->
<g id="edge20_Node000015_Node000021" class="edge">
<title>Node15&#45;&gt;Node21</title>
<g id="a_edge20_Node000015_Node000021"><a xlink:title=" ">
<path fill="none" stroke="#63b8ff" d="M374.87,-329.55C392.42,-308.56 434.1,-262.21 479.25,-237.38 485.98,-233.67 493.44,-230.62 500.95,-228.11"/>
<polygon fill="#63b8ff" stroke="#63b8ff" points="501.89,-231.48 510.46,-225.25 499.87,-224.78 501.89,-231.48"/>
</a>
</g>
</g>
<!-- Node22&#45;&gt;Node21 -->
<g id="edge22_Node000022_Node000021" class="edge">
<title>Node22&#45;&gt;Node21</title>
<g id="a_edge22_Node000022_Node000021"><a xlink:title=" ">
<path fill="none" stroke="#63b8ff" d="M384.39,-150.24C406.32,-162.92 444.48,-183.87 479.25,-197.38 486.16,-200.06 493.58,-202.54 500.93,-204.76"/>
<polygon fill="#63b8ff" stroke="#63b8ff" points="499.95,-208.12 510.53,-207.52 501.89,-201.39 499.95,-208.12"/>
</a>
</g>
</g>
<!-- Node23 -->
<g id="Node000023" class="node">
<title>Node23</title>
<g id="a_Node000023"><a xlink:href="ie__device__common_8c.html#a6092fca6f907b5f2b1d74b02d7b06190" target="_top" xlink:title="Level Zero caps thunk used in the vtable.">
<polygon fill="white" stroke="#666666" points="597.25,-188.75 509.25,-188.75 509.25,-168 597.25,-168 597.25,-188.75"/>
<text text-anchor="middle" x="553.25" y="-175.25" font-family="Helvetica,sans-Serif" font-size="10.00">ze_caps_thunk</text>
</a>
</g>
</g>
<!-- Node22&#45;&gt;Node23 -->
<g id="edge23_Node000022_Node000023" class="edge">
<title>Node22&#45;&gt;Node23</title>
<g id="a_edge23_Node000022_Node000023"><a xlink:title=" ">
<path fill="none" stroke="#63b8ff" d="M406.51,-147.84C433.22,-153.43 468.57,-160.84 497.76,-166.96"/>
<polygon fill="#63b8ff" stroke="#63b8ff" points="497.04,-170.38 507.54,-169.01 498.47,-163.53 497.04,-170.38"/>
</a>
</g>
</g>
<!-- Node24 -->
<g id="Node000024" class="node">
<title>Node24</title>
<g id="a_Node000024"><a xlink:href="ie__device__common_8c.html#af95512f035b8be6d514d77b1e55dda8d" target="_top" xlink:title="Destroy Level Zero backend instance.">
<polygon fill="white" stroke="#666666" points="604.38,-149.75 502.12,-149.75 502.12,-129 604.38,-129 604.38,-149.75"/>
<text text-anchor="middle" x="553.25" y="-136.25" font-family="Helvetica,sans-Serif" font-size="10.00">ze_destroy_thunk</text>
</a>
</g>
</g>
<!-- Node22&#45;&gt;Node24 -->
<g id="edge24_Node000022_Node000024" class="edge">
<title>Node22&#45;&gt;Node24</title>
<g id="a_edge24_Node000022_Node000024"><a xlink:title=" ">
<path fill="none" stroke="#63b8ff" d="M406.51,-139.38C431.04,-139.38 462.84,-139.38 490.48,-139.38"/>
<polygon fill="#63b8ff" stroke="#63b8ff" points="490.12,-142.88 500.12,-139.38 490.12,-135.88 490.12,-142.88"/>
</a>
</g>
</g>
<!-- Node25 -->
<g id="Node000025" class="node">
<title>Node25</title>
<g id="a_Node000025"><a xlink:href="ie__device__common_8c.html#ac33423f1f8a9324015003fde2d2af98a" target="_top" xlink:title="Level Zero block&#45;sparse GEMV FP32 stub (unimplemented).">
<polygon fill="white" stroke="#666666" points="617.88,-111.12 488.62,-111.12 488.62,-77.62 617.88,-77.62 617.88,-111.12"/>
<text text-anchor="start" x="496.62" y="-97.62" font-family="Helvetica,sans-Serif" font-size="10.00">ze_gemv_block_sparse</text>
<text text-anchor="middle" x="553.25" y="-84.88" font-family="Helvetica,sans-Serif" font-size="10.00">_f32_stub</text>
</a>
</g>
</g>
<!-- Node22&#45;&gt;Node25 -->
<g id="edge25_Node000022_Node000025" class="edge">
<title>Node22&#45;&gt;Node25</title>
<g id="a_edge25_Node000022_Node000025"><a xlink:title=" ">
<path fill="none" stroke="#63b8ff" d="M406.51,-129.61C427.19,-124.61 453.04,-118.36 477.2,-112.52"/>
<polygon fill="#63b8ff" stroke="#63b8ff" points="477.79,-115.98 486.69,-110.23 476.14,-109.17 477.79,-115.98"/>
</a>
</g>
</g>
<!-- Node26 -->
<g id="Node000026" class="node">
<title>Node26</title>
<g id="a_Node000026"><a xlink:href="ie__device__common_8c.html#aa5580146705fad2c537157820af8617e" target="_top" xlink:title="Level Zero GEMV FP32 stub (unimplemented).">
<polygon fill="white" stroke="#666666" points="607,-59.75 499.5,-59.75 499.5,-39 607,-39 607,-59.75"/>
<text text-anchor="middle" x="553.25" y="-46.25" font-family="Helvetica,sans-Serif" font-size="10.00">ze_gemv_f32_stub</text>
</a>
</g>
</g>
<!-- Node22&#45;&gt;Node26 -->
<g id="edge26_Node000022_Node000026" class="edge">
<title>Node22&#45;&gt;Node26</title>
<g id="a_edge26_Node000022_Node000026"><a xlink:title=" ">
<path fill="none" stroke="#63b8ff" d="M379.98,-128.69C400.57,-113.3 440.93,-84.92 479.25,-68.38 483.26,-66.64 487.47,-65.04 491.75,-63.56"/>
<polygon fill="#63b8ff" stroke="#63b8ff" points="492.57,-66.97 501.03,-60.6 490.44,-60.3 492.57,-66.97"/>
</a>
</g>
</g>
<!-- Node27 -->
<g id="Node000027" class="node">
<title>Node27</title>
<g id="a_Node000027"><a xlink:href="ie__device__common_8c.html#a7adb715134a131666c7c75a0fe81b62c" target="_top" xlink:title="Level Zero memcpy stub (unimplemented).">
<polygon fill="white" stroke="#666666" points="604,-20.75 502.5,-20.75 502.5,0 604,0 604,-20.75"/>
<text text-anchor="middle" x="553.25" y="-7.25" font-family="Helvetica,sans-Serif" font-size="10.00">ze_memcpy_stub</text>
</a>
</g>
</g>
<!-- Node22&#45;&gt;Node27 -->
<g id="edge27_Node000022_Node000027" class="edge">
<title>Node22&#45;&gt;Node27</title>
<g id="a_edge27_Node000022_Node000027"><a xlink:title=" ">
<path fill="none" stroke="#63b8ff" d="M374.2,-128.57C391.16,-106.66 432.78,-56.8 479.25,-30.38 483.12,-28.17 487.25,-26.2 491.5,-24.44"/>
<polygon fill="#63b8ff" stroke="#63b8ff" points="492.63,-27.75 500.8,-21.01 490.21,-21.19 492.63,-27.75"/>
</a>
</g>
</g>
</g>
</svg>

<g id="navigator" transform="translate(0 0)" fill="#404254">
  <rect fill="#f2f5e9" fill-opacity="0.5" stroke="#606060" stroke-width=".5" x="0" y="0" width="60" height="60"/>
  <use id="zoomplus" xlink:href="#zoomPlus" x="17" y="9" onmousedown="handleZoom(evt,'in')"/>
  <use id="zoomminus" xlink:href="#zoomMin" x="42" y="9" onmousedown="handleZoom(evt,'out')"/>
  <use id="reset" xlink:href="#resetDef" x="30" y="36" onmousedown="handleReset()"/>
   <use id="arrowup" xlink:href="#arrowUp" x="0" y="0" onmousedown="handlePan(0,-1)"/>
  <use id="arrowright" xlink:href="#arrowRight" x="0" y="0" onmousedown="handlePan(1,0)"/>
  <use id="arrowdown" xlink:href="#arrowDown" x="0" y="0" onmousedown="handlePan(0,1)"/>
  <use id="arrowleft" xlink:href="#arrowLeft" x="0" y="0" onmousedown="handlePan(-1,0)"/>
</g>
<svg viewBox="0 0 15 15" width="100%" height="30px" preserveAspectRatio="xMaxYMin meet">
 <g id="arrow_out" transform="scale(0.3 0.3)">
  <a xlink:href="ie__device__common_8c_ad8fe47f93fa5e18c7cf07a153f1de2fb_cgraph_org.svg" target="_base">
   <rect id="button" ry="5" rx="5" y="6" x="6" height="38" width="38"
        fill="#f2f5e9" fill-opacity="0.5" stroke="#606060" stroke-width="1.0"/>
   <path id="arrow"
     d="M 11.500037,31.436501 C 11.940474,20.09759 22.043105,11.32322 32.158766,21.979434 L 37.068811,17.246167 C 37.068811,17.246167 37.088388,32 37.088388,32 L 22.160133,31.978069 C 22.160133,31.978069 26.997745,27.140456 26.997745,27.140456 C 18.528582,18.264221 13.291696,25.230495 11.500037,31.436501 z"
     style="fill:#404040;"/>
  </a>
 </g>
</svg>

<style type='text/css'>
<![CDATA[
[data-mouse-over-selected='false'] { opacity: 0.7; }
[data-mouse-over-selected='true']  { opacity: 1.0; }
]]>
</style>
<script type="application/ecmascript"><![CDATA[
document.addEventListener('DOMContentLoaded', (event) => {
  highlightEdges();
  highlightAdjacentNodes();
});
]]></script>
</svg>
