<?xml version="1.0" encoding="UTF-8" standalone="no"?>
<!DOCTYPE svg PUBLIC "-//W3C//DTD SVG 1.1//EN"
 "http://www.w3.org/Graphics/SVG/1.1/DTD/svg11.dtd">
<!-- Generated by graphviz version 2.43.0 (0)
 -->
<!-- Title: ie_kv_init Pages: 1 -->
<svg width="551pt" height="167pt"
 viewBox="0.00 0.00 551.00 166.83" xmlns="http://www.w3.org/2000/svg" xmlns:xlink="http://www.w3.org/1999/xlink">
<g id="graph0" class="graph" transform="scale(1 1) rotate(0) translate(4 162.83)">
<title>ie_kv_init</title>
<!-- Node1 -->
<g id="Node000001" class="node">
<title>Node1</title>
<g id="a_Node000001"><a xlink:title="Initialize a KV cache with the given options and allocate backing memory.">
<polygon fill="#999999" stroke="#666666" points="64,-114 0,-114 0,-95 64,-95 64,-114"/>
<text text-anchor="middle" x="32" y="-102" font-family="Helvetica,sans-Serif" font-size="10.00">ie_kv_init</text>
</a>
</g>
</g>
<!-- Node2 -->
<g id="Node000002" class="node">
<title>Node2</title>
<g id="a_Node000002"><a xlink:href="ie__device__cuda_8cu.html#a5e3d9fee84981707669f5c2398f0c4ab" target="_top" xlink:title="Row&#45;wise GEMV kernel: each thread computes one output row.">
<polygon fill="white" stroke="#666666" points="543,-100.5 418,-100.5 418,-70.5 543,-70.5 543,-100.5"/>
<text text-anchor="start" x="426" y="-88.5" font-family="Helvetica,sans-Serif" font-size="10.00">ie_gemv_rowwise_f32</text>
<text text-anchor="middle" x="480.5" y="-77.5" font-family="Helvetica,sans-Serif" font-size="10.00">_kernel</text>
</a>
</g>
</g>
<!-- Node1&#45;&gt;Node2 -->
<g id="edge1_Node000001_Node000002" class="edge">
<title>Node1&#45;&gt;Node2</title>
<g id="a_edge1_Node000001_Node000002"><a xlink:title=" ">
<path fill="none" stroke="#63b8ff" d="M57.77,-114.1C70.26,-118.56 85.74,-123.52 100,-126.5 222.89,-152.16 260.83,-175.32 382,-142.5 407.81,-135.51 433.8,-119.79 452.44,-106.62"/>
<polygon fill="#63b8ff" stroke="#63b8ff" points="454.69,-109.31 460.72,-100.6 450.57,-103.65 454.69,-109.31"/>
</a>
</g>
</g>
<!-- Node3 -->
<g id="Node000003" class="node">
<title>Node3</title>
<g id="a_Node000003"><a xlink:href="kv__cache_8c.html#a8a85b8af06f6fa492264e4ddffd43c59" target="_top" xlink:title="Return the element size (in bytes) of the configured storage.">
<polygon fill="white" stroke="#666666" points="382,-133 269,-133 269,-114 382,-114 382,-133"/>
<text text-anchor="middle" x="325.5" y="-121" font-family="Helvetica,sans-Serif" font-size="10.00">ie_kv_element_size</text>
</a>
</g>
</g>
<!-- Node1&#45;&gt;Node3 -->
<g id="edge2_Node000001_Node000003" class="edge">
<title>Node1&#45;&gt;Node3</title>
<g id="a_edge2_Node000001_Node000003"><a xlink:title=" ">
<path fill="none" stroke="#63b8ff" d="M64.2,-106.53C110.36,-109.54 197.95,-115.25 258.7,-119.21"/>
<polygon fill="#63b8ff" stroke="#63b8ff" points="258.75,-122.72 268.96,-119.88 259.21,-115.74 258.75,-122.72"/>
</a>
</g>
</g>
<!-- Node4 -->
<g id="Node000004" class="node">
<title>Node4</title>
<g id="a_Node000004"><a xlink:href="kv__cache_8c.html#a3162328c77fddbae7e49b4c5e811c0d4" target="_top" xlink:title="Free all resources owned by a KV cache.">
<polygon fill="white" stroke="#666666" points="200.5,-95 132.5,-95 132.5,-76 200.5,-76 200.5,-95"/>
<text text-anchor="middle" x="166.5" y="-83" font-family="Helvetica,sans-Serif" font-size="10.00">ie_kv_free</text>
</a>
</g>
</g>
<!-- Node1&#45;&gt;Node4 -->
<g id="edge4_Node000001_Node000004" class="edge">
<title>Node1&#45;&gt;Node4</title>
<g id="a_edge4_Node000001_Node000004"><a xlink:title=" ">
<path fill="none" stroke="#63b8ff" d="M64.07,-100.05C81.44,-97.55 103.37,-94.41 122.38,-91.68"/>
<polygon fill="#63b8ff" stroke="#63b8ff" points="122.91,-95.14 132.31,-90.26 121.92,-88.21 122.91,-95.14"/>
</a>
</g>
</g>
<!-- Node5 -->
<g id="Node000005" class="node">
<title>Node5</title>
<g id="a_Node000005"><a xlink:href="kv__cache_8c.html#ae7ae5636d2bd2306eb7aacdfcd67d171" target="_top" xlink:title="Validate options and populate derived fields in kv (no allocation).">
<polygon fill="white" stroke="#666666" points="233,-57 100,-57 100,-38 233,-38 233,-57"/>
<text text-anchor="middle" x="166.5" y="-45" font-family="Helvetica,sans-Serif" font-size="10.00">kv_validate_and_derive</text>
</a>
</g>
</g>
<!-- Node1&#45;&gt;Node5 -->
<g id="edge6_Node000001_Node000005" class="edge">
<title>Node1&#45;&gt;Node5</title>
<g id="a_edge6_Node000001_Node000005"><a xlink:title=" ">
<path fill="none" stroke="#63b8ff" d="M48.24,-94.88C61.53,-86.79 81.52,-75.32 100,-67.5 106.25,-64.85 112.98,-62.39 119.65,-60.16"/>
<polygon fill="#63b8ff" stroke="#63b8ff" points="120.86,-63.45 129.33,-57.08 118.73,-56.78 120.86,-63.45"/>
</a>
</g>
</g>
<!-- Node3&#45;&gt;Node2 -->
<g id="edge3_Node000003_Node000002" class="edge">
<title>Node3&#45;&gt;Node2</title>
<g id="a_edge3_Node000003_Node000002"><a xlink:title=" ">
<path fill="none" stroke="#63b8ff" d="M365.11,-113.91C378.47,-110.59 393.9,-106.76 409.01,-103.01"/>
<polygon fill="#63b8ff" stroke="#63b8ff" points="410,-106.37 418.87,-100.56 408.32,-99.57 410,-106.37"/>
</a>
</g>
</g>
<!-- Node4&#45;&gt;Node2 -->
<g id="edge5_Node000004_Node000002" class="edge">
<title>Node4&#45;&gt;Node2</title>
<g id="a_edge5_Node000004_Node000002"><a xlink:title=" ">
<path fill="none" stroke="#63b8ff" d="M200.59,-85.5C249.57,-85.5 342.56,-85.5 407.66,-85.5"/>
<polygon fill="#63b8ff" stroke="#63b8ff" points="407.85,-89 417.85,-85.5 407.85,-82 407.85,-89"/>
</a>
</g>
</g>
<!-- Node5&#45;&gt;Node2 -->
<g id="edge9_Node000005_Node000002" class="edge">
<title>Node5&#45;&gt;Node2</title>
<g id="a_edge9_Node000005_Node000002"><a xlink:title=" ">
<path fill="none" stroke="#63b8ff" d="M233.29,-55.51C284.43,-61.74 355.28,-70.37 407.86,-76.77"/>
<polygon fill="#63b8ff" stroke="#63b8ff" points="407.43,-80.25 417.78,-77.98 408.28,-73.3 407.43,-80.25"/>
</a>
</g>
</g>
<!-- Node6 -->
<g id="Node000006" class="node">
<title>Node6</title>
<g id="a_Node000006"><a xlink:href="kv__cache_8c.html#aa9f006492e3c9ca01b7eb2beb1f87889" target="_top" xlink:title="Compute ceil_div(a,b) for size_t.">
<polygon fill="white" stroke="#666666" points="360.5,-19 290.5,-19 290.5,0 360.5,0 360.5,-19"/>
<text text-anchor="middle" x="325.5" y="-7" font-family="Helvetica,sans-Serif" font-size="10.00">ceil_div_sz</text>
</a>
</g>
</g>
<!-- Node5&#45;&gt;Node6 -->
<g id="edge7_Node000005_Node000006" class="edge">
<title>Node5&#45;&gt;Node6</title>
<g id="a_edge7_Node000005_Node000006"><a xlink:title=" ">
<path fill="none" stroke="#63b8ff" d="M207.12,-37.91C229.51,-32.49 257.55,-25.7 280.61,-20.12"/>
<polygon fill="#63b8ff" stroke="#63b8ff" points="281.59,-23.49 290.49,-17.73 279.94,-16.68 281.59,-23.49"/>
</a>
</g>
</g>
<!-- Node6&#45;&gt;Node2 -->
<g id="edge8_Node000006_Node000002" class="edge">
<title>Node6&#45;&gt;Node2</title>
<g id="a_edge8_Node000006_Node000002"><a xlink:title=" ">
<path fill="none" stroke="#63b8ff" d="M349.64,-19.01C359.67,-23.26 371.5,-28.44 382,-33.5 402.7,-43.47 425.37,-55.5 443.64,-65.47"/>
<polygon fill="#63b8ff" stroke="#63b8ff" points="442.04,-68.58 452.49,-70.33 445.41,-62.45 442.04,-68.58"/>
</a>
</g>
</g>
</g>
</svg>
