<?xml version="1.0" encoding="UTF-8" standalone="no"?>
<!DOCTYPE svg PUBLIC "-//W3C//DTD SVG 1.1//EN"
 "http://www.w3.org/Graphics/SVG/1.1/DTD/svg11.dtd">
<!-- Generated by graphviz version 2.43.0 (0)
 -->
<!-- Title: engine/include/ie_stream.h Pages: 1 -->
<svg width="312pt" height="95pt"
 viewBox="0.00 0.00 311.50 95.00" xmlns="http://www.w3.org/2000/svg" xmlns:xlink="http://www.w3.org/1999/xlink">
<g id="graph0" class="graph" transform="scale(1 1) rotate(0) translate(4 91)">
<title>engine/include/ie_stream.h</title>
<!-- Node1 -->
<g id="node1" class="node">
<title>Node1</title>
<g id="a_node1"><a xlink:title="Portable wrappers for controlled prefetching and non&#45;temporal (streaming) stores.">
<polygon fill="#bfbfbf" stroke="black" points="82.5,-67.5 82.5,-86.5 231.5,-86.5 231.5,-67.5 82.5,-67.5"/>
<text text-anchor="middle" x="157" y="-74.5" font-family="Helvetica,sans-Serif" font-size="10.00">engine/include/ie_stream.h</text>
</a>
</g>
</g>
<!-- Node2 -->
<g id="node2" class="node">
<title>Node2</title>
<g id="a_node2"><a xlink:href="microbench__stream_8c.html" target="_top" xlink:title="Sweep prefetch distances and NT ratios for streaming copy bandwidth.">
<polygon fill="none" stroke="black" points="0,-0.5 0,-30.5 154,-30.5 154,-0.5 0,-0.5"/>
<text text-anchor="start" x="8" y="-18.5" font-family="Helvetica,sans-Serif" font-size="10.00">benchmarks/src/microbench</text>
<text text-anchor="middle" x="77" y="-7.5" font-family="Helvetica,sans-Serif" font-size="10.00">_stream.c</text>
</a>
</g>
</g>
<!-- Node1&#45;&gt;Node2 -->
<g id="edge1" class="edge">
<title>Node1&#45;&gt;Node2</title>
<path fill="none" stroke="midnightblue" d="M137.46,-61.47C124.79,-52.05 108.38,-39.84 95.85,-30.52"/>
<polygon fill="midnightblue" stroke="midnightblue" points="135.43,-64.32 145.54,-67.48 139.6,-58.7 135.43,-64.32"/>
</g>
<!-- Node3 -->
<g id="node3" class="node">
<title>Node3</title>
<g id="a_node3"><a xlink:href="stream_8c.html" target="_top" xlink:title="Heuristics and implementations for prefetch and non&#45;temporal (streaming) stores.">
<polygon fill="none" stroke="black" points="172.5,-6 172.5,-25 303.5,-25 303.5,-6 172.5,-6"/>
<text text-anchor="middle" x="238" y="-13" font-family="Helvetica,sans-Serif" font-size="10.00">engine/src/opt/stream.c</text>
</a>
</g>
</g>
<!-- Node1&#45;&gt;Node3 -->
<g id="edge2" class="edge">
<title>Node1&#45;&gt;Node3</title>
<path fill="none" stroke="midnightblue" d="M177.02,-61.29C192.56,-49.88 213.55,-34.46 226.42,-25.01"/>
<polygon fill="midnightblue" stroke="midnightblue" points="174.59,-58.73 168.61,-67.48 178.74,-64.38 174.59,-58.73"/>
</g>
</g>
</svg>
