<?xml version="1.0" encoding="UTF-8" standalone="no"?>
<!DOCTYPE svg PUBLIC "-//W3C//DTD SVG 1.1//EN"
 "http://www.w3.org/Graphics/SVG/1.1/DTD/svg11.dtd">
<!-- Generated by graphviz version 2.43.0 (0)
 -->
<!-- Title: set_err Pages: 1 -->
<!--zoomable 197 -->
<svg id="main" version="1.1" xmlns="http://www.w3.org/2000/svg" xmlns:xlink="http://www.w3.org/1999/xlink" xml:space="preserve" onload="init(evt)">
<style type="text/css"><![CDATA[
.edge:hover path { stroke: red; }
.edge:hover polygon { stroke: red; fill: red; }
]]></style>
<script type="text/javascript"><![CDATA[
var edges = document.getElementsByTagName('g');
if (edges && edges.length) {
  for (var i=0;i<edges.length;i++) {
    if (edges[i].id.substr(0,4)=='edge') {
      edges[i].setAttribute('class','edge');
    }
  }
}
]]></script>
        <defs>
                <circle id="rim" cx="0" cy="0" r="7"/>
                <circle id="rim2" cx="0" cy="0" r="3.5"/>
                <g id="zoomPlus">
                        <use xlink:href="#rim" fill="#404040">
                                <set attributeName="fill" to="#808080" begin="zoomplus.mouseover" end="zoomplus.mouseout"/>
                        </use>
                        <path d="M-4,0h8M0,-4v8" fill="none" stroke="white" stroke-width="1.5" pointer-events="none"/>
                </g>
                <g id="zoomMin">
                        <use xlink:href="#rim" fill="#404040">
                                <set attributeName="fill" to="#808080" begin="zoomminus.mouseover" end="zoomminus.mouseout"/>
                        </use>
                        <path d="M-4,0h8" fill="none" stroke="white" stroke-width="1.5" pointer-events="none"/>
                </g>
                <g id="dirArrow">
                        <path fill="none" stroke="white" stroke-width="1.5" d="M0,-3.0v7 M-2.5,-0.5L0,-3.0L2.5,-0.5"/>
                </g>
               <g id="resetDef">
                       <use xlink:href="#rim2" fill="#404040">
                               <set attributeName="fill" to="#808080" begin="reset.mouseover" end="reset.mouseout"/>
                       </use>
               </g>
        </defs>

<script type="text/javascript">
var viewWidth = 569;
var viewHeight = 197;
var sectionId = 'dynsection-10';
</script>
<script xlink:href="svgpan.js"/>
<svg id="graph" class="graph">
<g id="viewport">
<title>set_err</title>
<!-- Node1 -->
<g id="node1" class="node">
<title>Node1</title>
<g id="a_node1"><a xlink:title="Set last error (thread&#45;local); truncates if needed.">
<polygon fill="#bfbfbf" stroke="black" points="511,-80.5 511,-99.5 561,-99.5 561,-80.5 511,-80.5"/>
<text text-anchor="middle" x="536" y="-87.5" font-family="Helvetica,sans-Serif" font-size="10.00">set_err</text>
</a>
</g>
</g>
<!-- Node2 -->
<g id="node2" class="node">
<title>Node2</title>
<g id="a_node2"><a xlink:href="ie__kernel__ze_8cpp.html#a46e8c280257654db04216d6acbefa0af" target="_top" xlink:title="Ensure the SPIR&#45;V module and all kernel handles are created.">
<polygon fill="none" stroke="black" points="215,-86.5 215,-105.5 340,-105.5 340,-86.5 215,-86.5"/>
<text text-anchor="middle" x="277.5" y="-93.5" font-family="Helvetica,sans-Serif" font-size="10.00">ensure_module_ready</text>
</a>
</g>
</g>
<!-- Node1&#45;&gt;Node2 -->
<g id="edge1" class="edge">
<title>Node1&#45;&gt;Node2</title>
<path fill="none" stroke="midnightblue" d="M500.52,-89.39C468.31,-88.96 418.88,-88.68 376,-90 364.39,-90.36 352.01,-90.95 340.11,-91.63"/>
<polygon fill="midnightblue" stroke="midnightblue" points="500.7,-92.89 510.75,-89.54 500.8,-85.89 500.7,-92.89"/>
</g>
<!-- Node3 -->
<g id="node3" class="node">
<title>Node3</title>
<g id="a_node3"><a xlink:href="group__IE__GPU__ZE.html#ga8b3a60d6c8ace36a7e0de49ef03666d4" target="_top" xlink:title="Fused GEMV + bias + activation: y = act(alpha*W*x + bias + beta*y).">
<polygon fill="none" stroke="black" points="20.5,-158 20.5,-188 158.5,-188 158.5,-158 20.5,-158"/>
<text text-anchor="start" x="28.5" y="-176" font-family="Helvetica,sans-Serif" font-size="10.00">ie_ze_launch_gemv_bias</text>
<text text-anchor="middle" x="89.5" y="-165" font-family="Helvetica,sans-Serif" font-size="10.00">_act_f32</text>
</a>
</g>
</g>
<!-- Node1&#45;&gt;Node3 -->
<g id="edge8" class="edge">
<title>Node1&#45;&gt;Node3</title>
<path fill="none" stroke="midnightblue" d="M522.44,-108.04C511.63,-121.93 494.7,-140.21 475,-149 372.23,-194.85 238.47,-190.8 158.84,-182.64"/>
<polygon fill="midnightblue" stroke="midnightblue" points="525.49,-109.8 528.63,-99.68 519.86,-105.64 525.49,-109.8"/>
</g>
<!-- Node4 -->
<g id="node4" class="node">
<title>Node4</title>
<g id="a_node4"><a xlink:href="group__IE__GPU__ZE.html#ga71484badcdb4416b3ac57397416f7d11" target="_top" xlink:title="Row&#45;wise GEMV FP32: y = alpha * W * x + beta * y.">
<polygon fill="none" stroke="black" points="0,-97.5 0,-116.5 179,-116.5 179,-97.5 0,-97.5"/>
<text text-anchor="middle" x="89.5" y="-104.5" font-family="Helvetica,sans-Serif" font-size="10.00">ie_ze_launch_gemv_rowwise_f32</text>
</a>
</g>
</g>
<!-- Node1&#45;&gt;Node4 -->
<g id="edge9" class="edge">
<title>Node1&#45;&gt;Node4</title>
<path fill="none" stroke="midnightblue" d="M515.91,-106.05C504.75,-114.36 489.95,-123.66 475,-128 350.6,-164.08 194.26,-133.52 125.58,-116.52"/>
<polygon fill="midnightblue" stroke="midnightblue" points="518.29,-108.63 524.01,-99.71 513.98,-103.11 518.29,-108.63"/>
</g>
<!-- Node5 -->
<g id="node5" class="node">
<title>Node5</title>
<g id="a_node5"><a xlink:href="group__IE__GPU__ZE.html#ga01b63c6c0def048b6eb55bc2b1f2b4c4" target="_top" xlink:title="Pack W (row&#45;major) into Blocked&#45;K layout into Wp.">
<polygon fill="none" stroke="black" points="28.5,-45 28.5,-75 150.5,-75 150.5,-45 28.5,-45"/>
<text text-anchor="start" x="36.5" y="-63" font-family="Helvetica,sans-Serif" font-size="10.00">ie_ze_launch_pack_w</text>
<text text-anchor="middle" x="89.5" y="-52" font-family="Helvetica,sans-Serif" font-size="10.00">_blockedk_f32</text>
</a>
</g>
</g>
<!-- Node1&#45;&gt;Node5 -->
<g id="edge10" class="edge">
<title>Node1&#45;&gt;Node5</title>
<path fill="none" stroke="midnightblue" d="M500.57,-87.02C492.2,-86.33 483.28,-85.61 475,-85 360.42,-76.5 226.52,-68.15 150.79,-63.58"/>
<polygon fill="midnightblue" stroke="midnightblue" points="500.52,-90.53 510.78,-87.88 501.11,-83.56 500.52,-90.53"/>
</g>
<!-- Node6 -->
<g id="node6" class="node">
<title>Node6</title>
<g id="a_node6"><a xlink:href="group__IE__GPU__ZE.html#ga8cc805ce0f117c564d8ba8ed1df08669" target="_top" xlink:title="Vector tanh: y[i] = tanh(x[i]) for i in [0, n).">
<polygon fill="none" stroke="black" points="14.5,-0.5 14.5,-19.5 164.5,-19.5 164.5,-0.5 14.5,-0.5"/>
<text text-anchor="middle" x="89.5" y="-7.5" font-family="Helvetica,sans-Serif" font-size="10.00">ie_ze_launch_vec_tanh_f32</text>
</a>
</g>
</g>
<!-- Node1&#45;&gt;Node6 -->
<g id="edge11" class="edge">
<title>Node1&#45;&gt;Node6</title>
<path fill="none" stroke="midnightblue" d="M500.98,-80.32C492.53,-78.09 483.47,-75.83 475,-74 365.69,-50.39 237.29,-30.59 159.99,-19.52"/>
<polygon fill="midnightblue" stroke="midnightblue" points="500.33,-83.77 510.9,-83.01 502.16,-77.02 500.33,-83.77"/>
</g>
<!-- Node7 -->
<g id="node7" class="node">
<title>Node7</title>
<g id="a_node7"><a xlink:href="ie__kernel__ze_8cpp.html#a88fa59032491ae8cb4c70d153fef5bb0" target="_top" xlink:title="Ensure Level Zero context, device and immediate command list exist.">
<polygon fill="none" stroke="black" points="376,-99.5 376,-118.5 475,-118.5 475,-99.5 376,-99.5"/>
<text text-anchor="middle" x="425.5" y="-106.5" font-family="Helvetica,sans-Serif" font-size="10.00">ensure_ze_ready</text>
</a>
</g>
</g>
<!-- Node1&#45;&gt;Node7 -->
<g id="edge6" class="edge">
<title>Node1&#45;&gt;Node7</title>
<path fill="none" stroke="midnightblue" d="M501.06,-95.94C492.93,-97.37 484.08,-98.92 475.41,-100.43"/>
<polygon fill="midnightblue" stroke="midnightblue" points="501.67,-99.39 510.92,-94.22 500.47,-92.49 501.67,-99.39"/>
</g>
<!-- Node2&#45;&gt;Node3 -->
<g id="edge2" class="edge">
<title>Node2&#45;&gt;Node3</title>
<path fill="none" stroke="midnightblue" d="M243.75,-109.56C211,-123.12 160.73,-143.93 126.78,-157.98"/>
<polygon fill="midnightblue" stroke="midnightblue" points="245.42,-112.66 253.32,-105.6 242.74,-106.19 245.42,-112.66"/>
</g>
<!-- Node2&#45;&gt;Node4 -->
<g id="edge3" class="edge">
<title>Node2&#45;&gt;Node4</title>
<path fill="none" stroke="midnightblue" d="M204.76,-100.24C196.4,-100.74 187.79,-101.25 179.23,-101.75"/>
<polygon fill="midnightblue" stroke="midnightblue" points="205.05,-103.73 214.82,-99.65 204.63,-96.74 205.05,-103.73"/>
</g>
<!-- Node2&#45;&gt;Node5 -->
<g id="edge4" class="edge">
<title>Node2&#45;&gt;Node5</title>
<path fill="none" stroke="midnightblue" d="M217.27,-84.54C196.02,-80.42 172.05,-75.78 150.71,-71.65"/>
<polygon fill="midnightblue" stroke="midnightblue" points="216.66,-87.98 227.14,-86.45 217.99,-81.11 216.66,-87.98"/>
</g>
<!-- Node2&#45;&gt;Node6 -->
<g id="edge5" class="edge">
<title>Node2&#45;&gt;Node6</title>
<path fill="none" stroke="midnightblue" d="M255.27,-80.63C236.11,-67.33 206.75,-48.35 179,-36 163.93,-29.29 146.66,-23.78 131.4,-19.57"/>
<polygon fill="midnightblue" stroke="midnightblue" points="253.37,-83.57 263.56,-86.47 257.4,-77.85 253.37,-83.57"/>
</g>
<!-- Node7&#45;&gt;Node2 -->
<g id="edge7" class="edge">
<title>Node7&#45;&gt;Node2</title>
<path fill="none" stroke="midnightblue" d="M365.76,-103.77C357.33,-103.02 348.64,-102.24 340.15,-101.49"/>
<polygon fill="midnightblue" stroke="midnightblue" points="365.61,-107.27 375.88,-104.67 366.23,-100.3 365.61,-107.27"/>
</g>
</g>
</svg>
        <g id="navigator" transform="translate(0 0)" fill="#404254">
                <rect fill="#f2f5e9" fill-opacity="0.5" stroke="#606060" stroke-width=".5" x="0" y="0" width="60" height="60"/>
                <use id="zoomplus" xlink:href="#zoomPlus" x="17" y="9" onmousedown="handleZoom(evt,'in')"/>
                <use id="zoomminus" xlink:href="#zoomMin" x="42" y="9" onmousedown="handleZoom(evt,'out')"/>
                <use id="reset" xlink:href="#resetDef" x="30" y="36" onmousedown="handleReset()"/>
                <g id="arrowUp" xlink:href="#dirArrow" transform="translate(30 24)" onmousedown="handlePan(0,-1)">
                  <use xlink:href="#rim" fill="#404040">
                        <set attributeName="fill" to="#808080" begin="arrowUp.mouseover" end="arrowUp.mouseout"/>
                  </use>
                  <path fill="none" stroke="white" stroke-width="1.5" d="M0,-3.0v7 M-2.5,-0.5L0,-3.0L2.5,-0.5"/>
                </g>
                <g id="arrowRight" xlink:href="#dirArrow" transform="rotate(90) translate(36 -43)" onmousedown="handlePan(1,0)">
                  <use xlink:href="#rim" fill="#404040">
                        <set attributeName="fill" to="#808080" begin="arrowRight.mouseover" end="arrowRight.mouseout"/>
                  </use>
                  <path fill="none" stroke="white" stroke-width="1.5" d="M0,-3.0v7 M-2.5,-0.5L0,-3.0L2.5,-0.5"/>
                </g>
                <g id="arrowDown" xlink:href="#dirArrow" transform="rotate(180) translate(-30 -48)" onmousedown="handlePan(0,1)">
                  <use xlink:href="#rim" fill="#404040">
                        <set attributeName="fill" to="#808080" begin="arrowDown.mouseover" end="arrowDown.mouseout"/>
                  </use>
                  <path fill="none" stroke="white" stroke-width="1.5" d="M0,-3.0v7 M-2.5,-0.5L0,-3.0L2.5,-0.5"/>
                </g>
                <g id="arrowLeft" xlink:href="#dirArrow" transform="rotate(270) translate(-36 17)" onmousedown="handlePan(-1,0)">
                  <use xlink:href="#rim" fill="#404040">
                        <set attributeName="fill" to="#808080" begin="arrowLeft.mouseover" end="arrowLeft.mouseout"/>
                  </use>
                  <path fill="none" stroke="white" stroke-width="1.5" d="M0,-3.0v7 M-2.5,-0.5L0,-3.0L2.5,-0.5"/>
                </g>
        </g>
        <svg viewBox="0 0 15 15" width="100%" height="30px" preserveAspectRatio="xMaxYMin meet">
         <g id="arrow_out" transform="scale(0.3 0.3)">
          <a xlink:href="ie__kernel__ze_8cpp_a0a2c7ad4a3f3268ce3651eca6f04b24e_icgraph_org.svg" target="_base">
           <rect id="button" ry="5" rx="5" y="6" x="6" height="38" width="38"
                fill="#f2f5e9" fill-opacity="0.5" stroke="#606060" stroke-width="1.0"/>
           <path id="arrow"
             d="M 11.500037,31.436501 C 11.940474,20.09759 22.043105,11.32322 32.158766,21.979434 L 37.068811,17.246167 C 37.068811,17.246167 37.088388,32 37.088388,32 L 22.160133,31.978069 C 22.160133,31.978069 26.997745,27.140456 26.997745,27.140456 C 18.528582,18.264221 13.291696,25.230495 11.500037,31.436501 z"
             style="fill:#404040;"/>
          </a>
         </g>
        </svg>
</svg>
