<?xml version="1.0" encoding="UTF-8" standalone="no"?>
<!DOCTYPE svg PUBLIC "-//W3C//DTD SVG 1.1//EN"
 "http://www.w3.org/Graphics/SVG/1.1/DTD/svg11.dtd">
<!-- Generated by graphviz version 2.43.0 (0)
 -->
<!-- Title: engine/src/kernels/ie_kernels_cuda.cu Pages: 1 -->
<svg width="459pt" height="207pt"
 viewBox="0.00 0.00 458.50 207.00" xmlns="http://www.w3.org/2000/svg" xmlns:xlink="http://www.w3.org/1999/xlink">
<g id="graph0" class="graph" transform="scale(1 1) rotate(0) translate(4 203)">
<title>engine/src/kernels/ie_kernels_cuda.cu</title>
<!-- Node1 -->
<g id="node1" class="node">
<title>Node1</title>
<g id="a_node1"><a xlink:title="CUDA implementations of GEMV/activation/packing kernels + C&#45;ABI launchers.">
<polygon fill="#bfbfbf" stroke="black" points="208,-168.5 208,-198.5 320,-198.5 320,-168.5 208,-168.5"/>
<text text-anchor="start" x="216" y="-186.5" font-family="Helvetica,sans-Serif" font-size="10.00">engine/src/kernels</text>
<text text-anchor="middle" x="264" y="-175.5" font-family="Helvetica,sans-Serif" font-size="10.00">/ie_kernels_cuda.cu</text>
</a>
</g>
</g>
<!-- Node2 -->
<g id="node2" class="node">
<title>Node2</title>
<g id="a_node2"><a xlink:title=" ">
<polygon fill="none" stroke="#bfbfbf" points="0,-112.5 0,-131.5 92,-131.5 92,-112.5 0,-112.5"/>
<text text-anchor="middle" x="46" y="-119.5" font-family="Helvetica,sans-Serif" font-size="10.00">cuda_runtime.h</text>
</a>
</g>
</g>
<!-- Node1&#45;&gt;Node2 -->
<g id="edge1" class="edge">
<title>Node1&#45;&gt;Node2</title>
<path fill="none" stroke="midnightblue" d="M212.61,-168.47C174.35,-158.03 122.79,-143.96 87.21,-134.25"/>
<polygon fill="midnightblue" stroke="midnightblue" points="87.73,-130.76 77.17,-131.51 85.89,-137.52 87.73,-130.76"/>
</g>
<!-- Node3 -->
<g id="node3" class="node">
<title>Node3</title>
<g id="a_node3"><a xlink:title=" ">
<polygon fill="none" stroke="#bfbfbf" points="110,-112.5 110,-131.5 214,-131.5 214,-112.5 110,-112.5"/>
<text text-anchor="middle" x="162" y="-119.5" font-family="Helvetica,sans-Serif" font-size="10.00">math_constants.h</text>
</a>
</g>
</g>
<!-- Node1&#45;&gt;Node3 -->
<g id="edge2" class="edge">
<title>Node1&#45;&gt;Node3</title>
<path fill="none" stroke="midnightblue" d="M239.83,-168.4C223.48,-158.86 201.99,-146.32 185.73,-136.84"/>
<polygon fill="midnightblue" stroke="midnightblue" points="187.24,-133.67 176.84,-131.66 183.72,-139.72 187.24,-133.67"/>
</g>
<!-- Node4 -->
<g id="node4" class="node">
<title>Node4</title>
<g id="a_node4"><a xlink:title=" ">
<polygon fill="none" stroke="#bfbfbf" points="286,-0.5 286,-19.5 342,-19.5 342,-0.5 286,-0.5"/>
<text text-anchor="middle" x="314" y="-7.5" font-family="Helvetica,sans-Serif" font-size="10.00">stddef.h</text>
</a>
</g>
</g>
<!-- Node1&#45;&gt;Node4 -->
<g id="edge3" class="edge">
<title>Node1&#45;&gt;Node4</title>
<path fill="none" stroke="midnightblue" d="M259.81,-168.4C253.4,-144.13 243.65,-93.48 261,-56 266.92,-43.21 278.47,-32.72 289.28,-25.1"/>
<polygon fill="midnightblue" stroke="midnightblue" points="291.21,-28.02 297.67,-19.61 287.38,-22.16 291.21,-28.02"/>
</g>
<!-- Node5 -->
<g id="node5" class="node">
<title>Node5</title>
<g id="a_node5"><a xlink:title=" ">
<polygon fill="none" stroke="#bfbfbf" points="397.5,-0.5 397.5,-19.5 450.5,-19.5 450.5,-0.5 397.5,-0.5"/>
<text text-anchor="middle" x="424" y="-7.5" font-family="Helvetica,sans-Serif" font-size="10.00">stdint.h</text>
</a>
</g>
</g>
<!-- Node1&#45;&gt;Node5 -->
<g id="edge4" class="edge">
<title>Node1&#45;&gt;Node5</title>
<path fill="none" stroke="midnightblue" d="M320.16,-173.65C365.38,-165.24 423.69,-151.05 438,-132 460.77,-101.68 444.78,-54.48 433.15,-28.91"/>
<polygon fill="midnightblue" stroke="midnightblue" points="436.2,-27.17 428.7,-19.68 429.89,-30.21 436.2,-27.17"/>
</g>
<!-- Node6 -->
<g id="node6" class="node">
<title>Node6</title>
<g id="a_node6"><a xlink:href="ie__kernels__cuda_8h.html" target="_top" xlink:title="CUDA GPU kernels and C&#45;ABI launchers for hot&#45;path vector/matrix ops.">
<polygon fill="none" stroke="black" points="325,-112.5 325,-131.5 429,-131.5 429,-112.5 325,-112.5"/>
<text text-anchor="middle" x="377" y="-119.5" font-family="Helvetica,sans-Serif" font-size="10.00">ie_kernels_cuda.h</text>
</a>
</g>
</g>
<!-- Node1&#45;&gt;Node6 -->
<g id="edge5" class="edge">
<title>Node1&#45;&gt;Node6</title>
<path fill="none" stroke="midnightblue" d="M290.78,-168.4C309.06,-158.77 333.15,-146.09 351.21,-136.58"/>
<polygon fill="midnightblue" stroke="midnightblue" points="353.34,-139.41 360.56,-131.66 350.08,-133.22 353.34,-139.41"/>
</g>
<!-- Node7 -->
<g id="node7" class="node">
<title>Node7</title>
<g id="a_node7"><a xlink:href="ie__quant__act_8h.html" target="_top" xlink:title="Activation quantization utilities (INT8 and FP8) for runtime paths.">
<polygon fill="none" stroke="black" points="270,-56.5 270,-75.5 358,-75.5 358,-56.5 270,-56.5"/>
<text text-anchor="middle" x="314" y="-63.5" font-family="Helvetica,sans-Serif" font-size="10.00">ie_quant_act.h</text>
</a>
</g>
</g>
<!-- Node1&#45;&gt;Node7 -->
<g id="edge11" class="edge">
<title>Node1&#45;&gt;Node7</title>
<path fill="none" stroke="midnightblue" d="M270.13,-168.34C279.22,-147.34 296.27,-107.96 306.23,-84.96"/>
<polygon fill="midnightblue" stroke="midnightblue" points="309.49,-86.24 310.25,-75.67 303.06,-83.46 309.49,-86.24"/>
</g>
<!-- Node6&#45;&gt;Node4 -->
<g id="edge6" class="edge">
<title>Node6&#45;&gt;Node4</title>
<path fill="none" stroke="midnightblue" d="M377.52,-112.39C377.92,-99.34 377.14,-74.14 367,-56 360.1,-43.65 348.41,-33.18 337.76,-25.45"/>
<polygon fill="midnightblue" stroke="midnightblue" points="339.43,-22.35 329.19,-19.63 335.49,-28.14 339.43,-22.35"/>
</g>
<!-- Node6&#45;&gt;Node5 -->
<g id="edge7" class="edge">
<title>Node6&#45;&gt;Node5</title>
<path fill="none" stroke="midnightblue" d="M381.9,-112.19C386.79,-103.22 394.36,-88.86 400,-76 406.79,-60.51 413.36,-42.42 417.91,-29.27"/>
<polygon fill="midnightblue" stroke="midnightblue" points="421.31,-30.14 421.21,-19.54 414.68,-27.89 421.31,-30.14"/>
</g>
<!-- Node6&#45;&gt;Node7 -->
<g id="edge8" class="edge">
<title>Node6&#45;&gt;Node7</title>
<path fill="none" stroke="midnightblue" d="M366.88,-112.32C357.47,-104.26 343.26,-92.08 331.93,-82.37"/>
<polygon fill="midnightblue" stroke="midnightblue" points="334.18,-79.68 324.31,-75.83 329.62,-85 334.18,-79.68"/>
</g>
<!-- Node7&#45;&gt;Node4 -->
<g id="edge9" class="edge">
<title>Node7&#45;&gt;Node4</title>
<path fill="none" stroke="midnightblue" d="M314,-56.08C314,-49.01 314,-38.86 314,-29.99"/>
<polygon fill="midnightblue" stroke="midnightblue" points="317.5,-29.75 314,-19.75 310.5,-29.75 317.5,-29.75"/>
</g>
<!-- Node7&#45;&gt;Node5 -->
<g id="edge10" class="edge">
<title>Node7&#45;&gt;Node5</title>
<path fill="none" stroke="midnightblue" d="M331.67,-56.32C349.39,-47.62 376.9,-34.12 397.29,-24.11"/>
<polygon fill="midnightblue" stroke="midnightblue" points="398.94,-27.2 406.37,-19.65 395.85,-20.92 398.94,-27.2"/>
</g>
</g>
</svg>
