<?xml version="1.0" encoding="UTF-8" standalone="no"?>
<!DOCTYPE svg PUBLIC "-//W3C//DTD SVG 1.1//EN"
 "http://www.w3.org/Graphics/SVG/1.1/DTD/svg11.dtd">
<!-- Generated by graphviz version 2.43.0 (0)
 -->
<!-- Title: engine/include/ie_mmap_tuning.h Pages: 1 -->
<svg width="252pt" height="106pt"
 viewBox="0.00 0.00 252.00 106.00" xmlns="http://www.w3.org/2000/svg" xmlns:xlink="http://www.w3.org/1999/xlink">
<g id="graph0" class="graph" transform="scale(1 1) rotate(0) translate(4 102)">
<title>engine/include/ie_mmap_tuning.h</title>
<!-- Node1 -->
<g id="node1" class="node">
<title>Node1</title>
<g id="a_node1"><a xlink:title="Portable helpers for mmap tuning (madvise/fadvise, THP/HugeTLB, readahead).">
<polygon fill="#bfbfbf" stroke="black" points="53,-67.5 53,-97.5 190,-97.5 190,-67.5 53,-67.5"/>
<text text-anchor="start" x="61" y="-85.5" font-family="Helvetica,sans-Serif" font-size="10.00">engine/include/ie_mmap</text>
<text text-anchor="middle" x="121.5" y="-74.5" font-family="Helvetica,sans-Serif" font-size="10.00">_tuning.h</text>
</a>
</g>
</g>
<!-- Node2 -->
<g id="node2" class="node">
<title>Node2</title>
<g id="a_node2"><a xlink:href="loader__mmap_8c.html" target="_top" xlink:title="Portable file loader with an mmap&#45;first strategy and safe fallbacks.">
<polygon fill="none" stroke="black" points="0,-0.5 0,-30.5 113,-30.5 113,-0.5 0,-0.5"/>
<text text-anchor="start" x="8" y="-18.5" font-family="Helvetica,sans-Serif" font-size="10.00">engine/src/io/loader</text>
<text text-anchor="middle" x="56.5" y="-7.5" font-family="Helvetica,sans-Serif" font-size="10.00">_mmap.c</text>
</a>
</g>
</g>
<!-- Node1&#45;&gt;Node2 -->
<g id="edge1" class="edge">
<title>Node1&#45;&gt;Node2</title>
<path fill="none" stroke="midnightblue" d="M100.31,-60.31C90.56,-50.56 79.26,-39.26 70.58,-30.58"/>
<polygon fill="midnightblue" stroke="midnightblue" points="97.85,-62.8 107.4,-67.4 102.8,-57.85 97.85,-62.8"/>
</g>
<!-- Node3 -->
<g id="node3" class="node">
<title>Node3</title>
<g id="a_node3"><a xlink:href="mmap__tuning_8c.html" target="_top" xlink:title="Implementation of portable mmap tuning helpers.">
<polygon fill="none" stroke="black" points="131,-0.5 131,-30.5 244,-30.5 244,-0.5 131,-0.5"/>
<text text-anchor="start" x="139" y="-18.5" font-family="Helvetica,sans-Serif" font-size="10.00">engine/src/io/mmap</text>
<text text-anchor="middle" x="187.5" y="-7.5" font-family="Helvetica,sans-Serif" font-size="10.00">_tuning.c</text>
</a>
</g>
</g>
<!-- Node1&#45;&gt;Node3 -->
<g id="edge2" class="edge">
<title>Node1&#45;&gt;Node3</title>
<path fill="none" stroke="midnightblue" d="M143.01,-60.31C152.91,-50.56 164.39,-39.26 173.21,-30.58"/>
<polygon fill="midnightblue" stroke="midnightblue" points="140.49,-57.89 135.82,-67.4 145.4,-62.87 140.49,-57.89"/>
</g>
</g>
</svg>
