<?xml version="1.0" encoding="UTF-8" standalone="no"?>
<!DOCTYPE svg PUBLIC "-//W3C//DTD SVG 1.1//EN"
 "http://www.w3.org/Graphics/SVG/1.1/DTD/svg11.dtd">
<!-- Generated by graphviz version 2.43.0 (0)
 -->
<!-- Title: ie_stream_memset_f32 Pages: 1 -->
<svg width="453pt" height="180pt"
 viewBox="0.00 0.00 453.00 180.00" xmlns="http://www.w3.org/2000/svg" xmlns:xlink="http://www.w3.org/1999/xlink">
<g id="graph0" class="graph" transform="scale(1 1) rotate(0) translate(4 176)">
<title>ie_stream_memset_f32</title>
<!-- Node1 -->
<g id="node1" class="node">
<title>Node1</title>
<g id="a_node1"><a xlink:title="Set n floats at dst to value using optional non&#45;temporal stores.">
<polygon fill="#bfbfbf" stroke="black" points="0,-76.5 0,-95.5 132,-95.5 132,-76.5 0,-76.5"/>
<text text-anchor="middle" x="66" y="-83.5" font-family="Helvetica,sans-Serif" font-size="10.00">ie_stream_memset_f32</text>
</a>
</g>
</g>
<!-- Node2 -->
<g id="node2" class="node">
<title>Node2</title>
<g id="a_node2"><a xlink:href="stream_8c.html#a209af35ff3b6ba68d29aa6cebd04a36c" target="_top" xlink:title="Clamp a double to [0.0, 1.0].">
<polygon fill="none" stroke="black" points="201.5,-152.5 201.5,-171.5 274.5,-171.5 274.5,-152.5 201.5,-152.5"/>
<text text-anchor="middle" x="238" y="-159.5" font-family="Helvetica,sans-Serif" font-size="10.00">ie_clamp01</text>
</a>
</g>
</g>
<!-- Node1&#45;&gt;Node2 -->
<g id="edge1" class="edge">
<title>Node1&#45;&gt;Node2</title>
<path fill="none" stroke="midnightblue" d="M81.48,-95.69C100.59,-108.11 135.61,-129.64 168,-143 175.51,-146.1 183.69,-148.85 191.7,-151.24"/>
<polygon fill="midnightblue" stroke="midnightblue" points="190.76,-154.61 201.34,-153.96 192.67,-147.88 190.76,-154.61"/>
</g>
<!-- Node3 -->
<g id="node3" class="node">
<title>Node3</title>
<g id="a_node3"><a xlink:href="stream_8c.html#a62606c176a6edf9664ac03ded1ab2fa7" target="_top" xlink:title="Streaming store set using AVX2 (compile&#45;time gated).">
<polygon fill="none" stroke="black" points="182.5,-114.5 182.5,-133.5 293.5,-133.5 293.5,-114.5 182.5,-114.5"/>
<text text-anchor="middle" x="238" y="-121.5" font-family="Helvetica,sans-Serif" font-size="10.00">ie_nt_set_f32_avx2</text>
</a>
</g>
</g>
<!-- Node1&#45;&gt;Node3 -->
<g id="edge2" class="edge">
<title>Node1&#45;&gt;Node3</title>
<path fill="none" stroke="midnightblue" d="M109.9,-95.59C132.53,-100.65 160.5,-106.9 184.43,-112.25"/>
<polygon fill="midnightblue" stroke="midnightblue" points="183.89,-115.71 194.41,-114.48 185.41,-108.88 183.89,-115.71"/>
</g>
<!-- Node4 -->
<g id="node4" class="node">
<title>Node4</title>
<g id="a_node4"><a xlink:href="stream_8c.html#a83d5c209366c07cf4f9026c5d7769141" target="_top" xlink:title="Scalar set fallback for float arrays.">
<polygon fill="none" stroke="black" points="344,-76.5 344,-95.5 445,-95.5 445,-76.5 344,-76.5"/>
<text text-anchor="middle" x="394.5" y="-83.5" font-family="Helvetica,sans-Serif" font-size="10.00">ie_scalar_set_f32</text>
</a>
</g>
</g>
<!-- Node1&#45;&gt;Node4 -->
<g id="edge6" class="edge">
<title>Node1&#45;&gt;Node4</title>
<path fill="none" stroke="midnightblue" d="M132.29,-86C190.98,-86 276.47,-86 333.48,-86"/>
<polygon fill="midnightblue" stroke="midnightblue" points="333.78,-89.5 343.78,-86 333.78,-82.5 333.78,-89.5"/>
</g>
<!-- Node5 -->
<g id="node5" class="node">
<title>Node5</title>
<g id="a_node5"><a xlink:href="stream_8c.html#a099c508cf40a9fa5f184c462badcf1fa" target="_top" xlink:title="Streaming store set using AVX&#45;512F (compile&#45;time gated).">
<polygon fill="none" stroke="black" points="176.5,-38.5 176.5,-57.5 299.5,-57.5 299.5,-38.5 176.5,-38.5"/>
<text text-anchor="middle" x="238" y="-45.5" font-family="Helvetica,sans-Serif" font-size="10.00">ie_nt_set_f32_avx512</text>
</a>
</g>
</g>
<!-- Node1&#45;&gt;Node5 -->
<g id="edge4" class="edge">
<title>Node1&#45;&gt;Node5</title>
<path fill="none" stroke="midnightblue" d="M109.9,-76.41C132.53,-71.35 160.5,-65.1 184.43,-59.75"/>
<polygon fill="midnightblue" stroke="midnightblue" points="185.41,-63.12 194.41,-57.52 183.89,-56.29 185.41,-63.12"/>
</g>
<!-- Node6 -->
<g id="node6" class="node">
<title>Node6</title>
<g id="a_node6"><a xlink:href="stream_8c.html#af51c48e8b0afa485e060090f734d1cb1" target="_top" xlink:title="Decide whether a memory operation of bytes should use non&#45;temporal stores.">
<polygon fill="none" stroke="black" points="168,-0.5 168,-19.5 308,-19.5 308,-0.5 168,-0.5"/>
<text text-anchor="middle" x="238" y="-7.5" font-family="Helvetica,sans-Serif" font-size="10.00">ie_stream_should_use_nt</text>
</a>
</g>
</g>
<!-- Node1&#45;&gt;Node6 -->
<g id="edge7" class="edge">
<title>Node1&#45;&gt;Node6</title>
<path fill="none" stroke="midnightblue" d="M81.48,-76.31C100.59,-63.89 135.61,-42.36 168,-29 173.8,-26.61 180.01,-24.42 186.22,-22.44"/>
<polygon fill="midnightblue" stroke="midnightblue" points="187.37,-25.75 195.94,-19.53 185.36,-19.05 187.37,-25.75"/>
</g>
<!-- Node3&#45;&gt;Node4 -->
<g id="edge3" class="edge">
<title>Node3&#45;&gt;Node4</title>
<path fill="none" stroke="midnightblue" d="M277.99,-114.41C298.28,-109.42 323.29,-103.27 344.85,-97.97"/>
<polygon fill="midnightblue" stroke="midnightblue" points="345.92,-101.31 354.79,-95.52 344.25,-94.51 345.92,-101.31"/>
</g>
<!-- Node5&#45;&gt;Node4 -->
<g id="edge5" class="edge">
<title>Node5&#45;&gt;Node4</title>
<path fill="none" stroke="midnightblue" d="M277.99,-57.59C298.28,-62.58 323.29,-68.73 344.85,-74.03"/>
<polygon fill="midnightblue" stroke="midnightblue" points="344.25,-77.49 354.79,-76.48 345.92,-70.69 344.25,-77.49"/>
</g>
</g>
</svg>
