<?xml version="1.0" encoding="UTF-8" standalone="no"?>
<!DOCTYPE svg PUBLIC "-//W3C//DTD SVG 1.1//EN"
 "http://www.w3.org/Graphics/SVG/1.1/DTD/svg11.dtd">
<!-- Generated by graphviz version 2.43.0 (0)
 -->
<!-- Title: ie_kernels_install Pages: 1 -->
<svg width="549pt" height="470pt"
 viewBox="0.00 0.00 549.00 470.00" xmlns="http://www.w3.org/2000/svg" xmlns:xlink="http://www.w3.org/1999/xlink">
<g id="graph0" class="graph" transform="scale(1 1) rotate(0) translate(4 466)">
<title>ie_kernels_install</title>
<!-- Node1 -->
<g id="Node000001" class="node">
<title>Node1</title>
<g id="a_Node000001"><a xlink:title="Install the best available CPU kernels for this process.">
<polygon fill="#999999" stroke="#666666" points="101,-206 0,-206 0,-187 101,-187 101,-206"/>
<text text-anchor="middle" x="50.5" y="-194" font-family="Helvetica,sans-Serif" font-size="10.00">ie_kernels_install</text>
</a>
</g>
</g>
<!-- Node2 -->
<g id="Node000002" class="node">
<title>Node2</title>
<g id="a_Node000002"><a xlink:href="cpu__features_8c.html#a52efeab08d996ee1bef746c591684b9d" target="_top" xlink:title="Alias for ie_cpu_detect for clearer call sites.">
<polygon fill="white" stroke="#666666" points="283.5,-376 153.5,-376 153.5,-357 283.5,-357 283.5,-376"/>
<text text-anchor="middle" x="218.5" y="-364" font-family="Helvetica,sans-Serif" font-size="10.00">ie_cpu_features_detect</text>
</a>
</g>
</g>
<!-- Node1&#45;&gt;Node2 -->
<g id="edge1_Node000001_Node000002" class="edge">
<title>Node1&#45;&gt;Node2</title>
<g id="a_edge1_Node000001_Node000002"><a xlink:title=" ">
<path fill="none" stroke="#63b8ff" d="M53.95,-206.17C61.36,-233.33 86.21,-310.75 137,-348.5 139.24,-350.16 141.6,-351.68 144.06,-353.06"/>
<polygon fill="#63b8ff" stroke="#63b8ff" points="142.78,-356.33 153.31,-357.48 145.8,-350.01 142.78,-356.33"/>
</a>
</g>
</g>
<!-- Node7 -->
<g id="Node000007" class="node">
<title>Node7</title>
<g id="a_Node000007"><a xlink:href="gemv__avx2_8c.html#a77b098e769256a6b3dc5cee67134585d" target="_top" xlink:title=" ">
<polygon fill="white" stroke="#666666" points="300,-265 137,-265 137,-246 300,-246 300,-265"/>
<text text-anchor="middle" x="218.5" y="-253" font-family="Helvetica,sans-Serif" font-size="10.00">ie_gemv_bf16_f32_avx2_impl</text>
</a>
</g>
</g>
<!-- Node1&#45;&gt;Node7 -->
<g id="edge6_Node000001_Node000007" class="edge">
<title>Node1&#45;&gt;Node7</title>
<g id="a_edge6_Node000001_Node000007"><a xlink:title=" ">
<path fill="none" stroke="#63b8ff" d="M68.37,-206.01C85.28,-215.19 112.27,-228.93 137,-237.5 143.36,-239.71 150.11,-241.71 156.87,-243.51"/>
<polygon fill="#63b8ff" stroke="#63b8ff" points="156.21,-246.95 166.77,-246 157.92,-240.16 156.21,-246.95"/>
</a>
</g>
</g>
<!-- Node10 -->
<g id="Node000010" class="node">
<title>Node10</title>
<g id="a_Node000010"><a xlink:href="gemv__generic_8c.html#a07fc9251edf42c12732cce490f6dbec0" target="_top" xlink:title=" ">
<polygon fill="white" stroke="#666666" points="295.5,-142 141.5,-142 141.5,-123 295.5,-123 295.5,-142"/>
<text text-anchor="middle" x="218.5" y="-130" font-family="Helvetica,sans-Serif" font-size="10.00">ie_gemv_bf16_generic_impl</text>
</a>
</g>
</g>
<!-- Node1&#45;&gt;Node10 -->
<g id="edge9_Node000001_Node000010" class="edge">
<title>Node1&#45;&gt;Node10</title>
<g id="a_edge9_Node000001_Node000010"><a xlink:title=" ">
<path fill="none" stroke="#63b8ff" d="M66.71,-186.98C83.39,-176.9 111.24,-161.14 137,-151.5 143.84,-148.94 151.14,-146.65 158.45,-144.61"/>
<polygon fill="#63b8ff" stroke="#63b8ff" points="159.6,-147.93 168.38,-142.01 157.82,-141.16 159.6,-147.93"/>
</a>
</g>
</g>
<!-- Node12 -->
<g id="Node000012" class="node">
<title>Node12</title>
<g id="a_Node000012"><a xlink:href="gemv__avx2_8c.html#acaba4ae4061c51c21ce544cdef0abfeb" target="_top" xlink:title=" ">
<polygon fill="white" stroke="#666666" points="286.5,-339 150.5,-339 150.5,-320 286.5,-320 286.5,-339"/>
<text text-anchor="middle" x="218.5" y="-327" font-family="Helvetica,sans-Serif" font-size="10.00">ie_gemv_f32_avx2_impl</text>
</a>
</g>
</g>
<!-- Node1&#45;&gt;Node12 -->
<g id="edge11_Node000001_Node000012" class="edge">
<title>Node1&#45;&gt;Node12</title>
<g id="a_edge11_Node000001_Node000012"><a xlink:title=" ">
<path fill="none" stroke="#63b8ff" d="M55.68,-206.04C65.98,-228.36 94.85,-284.14 137,-311.5 139.48,-313.11 142.08,-314.57 144.77,-315.91"/>
<polygon fill="#63b8ff" stroke="#63b8ff" points="143.62,-319.23 154.19,-319.97 146.39,-312.8 143.62,-319.23"/>
</a>
</g>
</g>
<!-- Node13 -->
<g id="Node000013" class="node">
<title>Node13</title>
<g id="a_Node000013"><a xlink:href="gemv__generic_8c.html#a2458b36cdf25be06d49e73da98c27a66" target="_top" xlink:title=" ">
<polygon fill="white" stroke="#666666" points="292.5,-228 144.5,-228 144.5,-209 292.5,-209 292.5,-228"/>
<text text-anchor="middle" x="218.5" y="-216" font-family="Helvetica,sans-Serif" font-size="10.00">ie_gemv_f32_generic_impl</text>
</a>
</g>
</g>
<!-- Node1&#45;&gt;Node13 -->
<g id="edge13_Node000001_Node000013" class="edge">
<title>Node1&#45;&gt;Node13</title>
<g id="a_edge13_Node000001_Node000013"><a xlink:title=" ">
<path fill="none" stroke="#63b8ff" d="M101.31,-203.1C112.09,-204.53 123.77,-206.08 135.42,-207.62"/>
<polygon fill="#63b8ff" stroke="#63b8ff" points="135.26,-211.13 145.64,-208.98 136.18,-204.19 135.26,-211.13"/>
</a>
</g>
</g>
<!-- Node14 -->
<g id="Node000014" class="node">
<title>Node14</title>
<g id="a_Node000014"><a xlink:href="gemv__avx2_8c.html#a061189cc7f89d42b42e03eccedb0a59e" target="_top" xlink:title=" ">
<polygon fill="white" stroke="#666666" points="286,-302 151,-302 151,-283 286,-283 286,-302"/>
<text text-anchor="middle" x="218.5" y="-290" font-family="Helvetica,sans-Serif" font-size="10.00">ie_gemv_qi8_avx2_impl</text>
</a>
</g>
</g>
<!-- Node1&#45;&gt;Node14 -->
<g id="edge14_Node000001_Node000014" class="edge">
<title>Node1&#45;&gt;Node14</title>
<g id="a_edge14_Node000001_Node000014"><a xlink:title=" ">
<path fill="none" stroke="#63b8ff" d="M59.08,-206.13C72.76,-222.81 103.31,-256.97 137,-274.5 140.72,-276.43 144.63,-278.16 148.66,-279.7"/>
<polygon fill="#63b8ff" stroke="#63b8ff" points="147.61,-283.04 158.2,-282.97 149.88,-276.42 147.61,-283.04"/>
</a>
</g>
</g>
<!-- Node15 -->
<g id="Node000015" class="node">
<title>Node15</title>
<g id="a_Node000015"><a xlink:href="gemv__generic_8c.html#a3e532847f3b6cd6a2ed3be0786ee18ce" target="_top" xlink:title=" ">
<polygon fill="white" stroke="#666666" points="284.5,-19 152.5,-19 152.5,0 284.5,0 284.5,-19"/>
<text text-anchor="middle" x="218.5" y="-7" font-family="Helvetica,sans-Serif" font-size="10.00">ie_gemv_qi8_stub_impl</text>
</a>
</g>
</g>
<!-- Node1&#45;&gt;Node15 -->
<g id="edge16_Node000001_Node000015" class="edge">
<title>Node1&#45;&gt;Node15</title>
<g id="a_edge16_Node000001_Node000015"><a xlink:title=" ">
<path fill="none" stroke="#63b8ff" d="M53.46,-186.71C59.83,-157.63 82.7,-71.16 137,-28.5 139.2,-26.77 141.53,-25.2 143.96,-23.76"/>
<polygon fill="#63b8ff" stroke="#63b8ff" points="145.77,-26.77 153.13,-19.15 142.63,-20.51 145.77,-26.77"/>
</a>
</g>
</g>
<!-- Node18 -->
<g id="Node000018" class="node">
<title>Node18</title>
<g id="a_Node000018"><a xlink:href="gemv__generic_8c.html#abdc04113c83880ea48ee1599cf3db331" target="_top" xlink:title=" ">
<polygon fill="white" stroke="#666666" points="273.5,-56 163.5,-56 163.5,-37 273.5,-37 273.5,-56"/>
<text text-anchor="middle" x="218.5" y="-44" font-family="Helvetica,sans-Serif" font-size="10.00">ie_log_kernel_once</text>
</a>
</g>
</g>
<!-- Node1&#45;&gt;Node18 -->
<g id="edge19_Node000001_Node000018" class="edge">
<title>Node1&#45;&gt;Node18</title>
<g id="a_edge19_Node000001_Node000018"><a xlink:title=" ">
<path fill="none" stroke="#63b8ff" d="M54.9,-186.78C64.02,-162.25 91.44,-97.49 137,-65.5 141.97,-62.01 147.49,-59.16 153.25,-56.82"/>
<polygon fill="#63b8ff" stroke="#63b8ff" points="154.83,-59.98 163.11,-53.36 152.52,-53.37 154.83,-59.98"/>
</a>
</g>
</g>
<!-- Node20 -->
<g id="Node000020" class="node">
<title>Node20</title>
<g id="a_Node000020"><a xlink:href="gemv__avx2_8c.html#a182d6274d92f1f94910f1881e7cd3b19" target="_top" xlink:title=" ">
<polygon fill="white" stroke="#666666" points="274,-190.5 163,-190.5 163,-160.5 274,-160.5 274,-190.5"/>
<text text-anchor="start" x="171" y="-178.5" font-family="Helvetica,sans-Serif" font-size="10.00">ie_vec_bf16_to_f32</text>
<text text-anchor="middle" x="218.5" y="-167.5" font-family="Helvetica,sans-Serif" font-size="10.00">_avx2_impl</text>
</a>
</g>
</g>
<!-- Node1&#45;&gt;Node20 -->
<g id="edge22_Node000001_Node000020" class="edge">
<title>Node1&#45;&gt;Node20</title>
<g id="a_edge22_Node000001_Node000020"><a xlink:title=" ">
<path fill="none" stroke="#63b8ff" d="M101.31,-190.2C117.51,-188.15 135.74,-185.84 152.87,-183.68"/>
<polygon fill="#63b8ff" stroke="#63b8ff" points="153.32,-187.15 162.8,-182.42 152.44,-180.2 153.32,-187.15"/>
</a>
</g>
</g>
<!-- Node21 -->
<g id="Node000021" class="node">
<title>Node21</title>
<g id="a_Node000021"><a xlink:href="gemv__generic_8c.html#a9d75736f9f9d37cbc2bb7fe37c06cc55" target="_top" xlink:title=" ">
<polygon fill="white" stroke="#666666" points="274,-104.5 163,-104.5 163,-74.5 274,-74.5 274,-104.5"/>
<text text-anchor="start" x="171" y="-92.5" font-family="Helvetica,sans-Serif" font-size="10.00">ie_vec_bf16_to_f32</text>
<text text-anchor="middle" x="218.5" y="-81.5" font-family="Helvetica,sans-Serif" font-size="10.00">_generic_impl</text>
</a>
</g>
</g>
<!-- Node1&#45;&gt;Node21 -->
<g id="edge24_Node000001_Node000021" class="edge">
<title>Node1&#45;&gt;Node21</title>
<g id="a_edge24_Node000001_Node000021"><a xlink:title=" ">
<path fill="none" stroke="#63b8ff" d="M58.91,-186.92C72.55,-169.9 103.34,-134.35 137,-114.5 142.09,-111.5 147.57,-108.82 153.2,-106.45"/>
<polygon fill="#63b8ff" stroke="#63b8ff" points="154.72,-109.61 162.77,-102.72 152.18,-103.09 154.72,-109.61"/>
</a>
</g>
</g>
<!-- Node3 -->
<g id="Node000003" class="node">
<title>Node3</title>
<g id="a_Node000003"><a xlink:href="cpu__features_8c.html#a57a31c8ca934dd8b9321a1b2d1b7f904" target="_top" xlink:title="Serialize CPU features into a stable one&#45;line string.">
<polygon fill="white" stroke="#666666" points="446.5,-424.5 337.5,-424.5 337.5,-394.5 446.5,-394.5 446.5,-424.5"/>
<text text-anchor="start" x="345.5" y="-412.5" font-family="Helvetica,sans-Serif" font-size="10.00">ie_cpu_features_to</text>
<text text-anchor="middle" x="392" y="-401.5" font-family="Helvetica,sans-Serif" font-size="10.00">_string</text>
</a>
</g>
</g>
<!-- Node2&#45;&gt;Node3 -->
<g id="edge2_Node000002_Node000003" class="edge">
<title>Node2&#45;&gt;Node3</title>
<g id="a_edge2_Node000002_Node000003"><a xlink:title=" ">
<path fill="none" stroke="#63b8ff" d="M257.56,-376.04C278.11,-381.2 304.02,-387.69 327.53,-393.59"/>
<polygon fill="#63b8ff" stroke="#63b8ff" points="326.88,-397.03 337.43,-396.07 328.59,-390.24 326.88,-397.03"/>
</a>
</g>
</g>
<!-- Node4 -->
<g id="Node000004" class="node">
<title>Node4</title>
<g id="a_Node000004"><a xlink:href="cpu__features_8c.html#ab2d914e201f157a55add02484039d91e" target="_top" xlink:title="Query CPUID with leaf and subleaf.">
<polygon fill="white" stroke="#666666" points="429,-376 355,-376 355,-357 429,-357 429,-376"/>
<text text-anchor="middle" x="392" y="-364" font-family="Helvetica,sans-Serif" font-size="10.00">ie_cpuid_ex</text>
</a>
</g>
</g>
<!-- Node2&#45;&gt;Node4 -->
<g id="edge3_Node000002_Node000004" class="edge">
<title>Node2&#45;&gt;Node4</title>
<g id="a_edge3_Node000002_Node000004"><a xlink:title=" ">
<path fill="none" stroke="#63b8ff" d="M283.85,-366.5C304.06,-366.5 325.96,-366.5 344.67,-366.5"/>
<polygon fill="#63b8ff" stroke="#63b8ff" points="344.7,-370 354.7,-366.5 344.7,-363 344.7,-370"/>
</a>
</g>
</g>
<!-- Node5 -->
<g id="Node000005" class="node">
<title>Node5</title>
<g id="a_Node000005"><a xlink:href="cpu__features_8c.html#a87c4545ac0ad2b6ad2fd70a090b63146" target="_top" xlink:title="Return 1 if the environment variable name is set to a truthy value.">
<polygon fill="white" stroke="#666666" points="428,-339 356,-339 356,-320 428,-320 428,-339"/>
<text text-anchor="middle" x="392" y="-327" font-family="Helvetica,sans-Serif" font-size="10.00">ie_env_flag</text>
</a>
</g>
</g>
<!-- Node2&#45;&gt;Node5 -->
<g id="edge4_Node000002_Node000005" class="edge">
<title>Node2&#45;&gt;Node5</title>
<g id="a_edge4_Node000002_Node000005"><a xlink:title=" ">
<path fill="none" stroke="#63b8ff" d="M263.67,-356.97C288.87,-351.53 320.41,-344.73 345.79,-339.25"/>
<polygon fill="#63b8ff" stroke="#63b8ff" points="346.86,-342.6 355.9,-337.07 345.39,-335.76 346.86,-342.6"/>
</a>
</g>
</g>
<!-- Node6 -->
<g id="Node000006" class="node">
<title>Node6</title>
<g id="a_Node000006"><a xlink:href="cpu__features_8c.html#ab6c2c4097b43f59eb931f7968096761b" target="_top" xlink:title="Read XCR0 via XGETBV to validate OS support for XMM/YMM state.">
<polygon fill="white" stroke="#666666" points="437.5,-462 346.5,-462 346.5,-443 437.5,-443 437.5,-462"/>
<text text-anchor="middle" x="392" y="-450" font-family="Helvetica,sans-Serif" font-size="10.00">ie_xgetbv_xcr0</text>
</a>
</g>
</g>
<!-- Node2&#45;&gt;Node6 -->
<g id="edge5_Node000002_Node000006" class="edge">
<title>Node2&#45;&gt;Node6</title>
<g id="a_edge5_Node000002_Node000006"><a xlink:title=" ">
<path fill="none" stroke="#63b8ff" d="M234.1,-376.11C255.71,-390.04 297.78,-416.1 336,-433.5 340.65,-435.62 345.61,-437.64 350.58,-439.52"/>
<polygon fill="#63b8ff" stroke="#63b8ff" points="349.46,-442.84 360.05,-442.96 351.84,-436.26 349.46,-442.84"/>
</a>
</g>
</g>
<!-- Node8 -->
<g id="Node000008" class="node">
<title>Node8</title>
<g id="a_Node000008"><a xlink:href="gemv__avx2_8c.html#af98ef5b386495afea4aa3d751bab35fd" target="_top" xlink:title="Convert 8 BF16 values to FP32.">
<polygon fill="white" stroke="#666666" points="442.5,-225 341.5,-225 341.5,-206 442.5,-206 442.5,-225"/>
<text text-anchor="middle" x="392" y="-213" font-family="Helvetica,sans-Serif" font-size="10.00">ie_bf16x8_to_f32</text>
</a>
</g>
</g>
<!-- Node7&#45;&gt;Node8 -->
<g id="edge7_Node000007_Node000008" class="edge">
<title>Node7&#45;&gt;Node8</title>
<g id="a_edge7_Node000007_Node000008"><a xlink:title=" ">
<path fill="none" stroke="#63b8ff" d="M262.98,-245.92C274.98,-243.24 288,-240.29 300,-237.5 313.62,-234.33 328.37,-230.81 341.95,-227.52"/>
<polygon fill="#63b8ff" stroke="#63b8ff" points="343.17,-230.83 352.07,-225.07 341.52,-224.02 343.17,-230.83"/>
</a>
</g>
</g>
<!-- Node9 -->
<g id="Node000009" class="node">
<title>Node9</title>
<g id="a_Node000009"><a xlink:href="gemv__avx2_8c.html#a6925be1ed2abd13aef877a68bed45995" target="_top" xlink:title="Horizontal sum of an AVX2 register.">
<polygon fill="white" stroke="#666666" points="438,-302 346,-302 346,-283 438,-283 438,-302"/>
<text text-anchor="middle" x="392" y="-290" font-family="Helvetica,sans-Serif" font-size="10.00">ie_hsum256_ps</text>
</a>
</g>
</g>
<!-- Node7&#45;&gt;Node9 -->
<g id="edge8_Node000007_Node000009" class="edge">
<title>Node7&#45;&gt;Node9</title>
<g id="a_edge8_Node000007_Node000009"><a xlink:title=" ">
<path fill="none" stroke="#63b8ff" d="M263.67,-265.03C285.98,-269.84 313.26,-275.73 336.83,-280.81"/>
<polygon fill="#63b8ff" stroke="#63b8ff" points="336.17,-284.25 346.69,-282.94 337.65,-277.41 336.17,-284.25"/>
</a>
</g>
</g>
<!-- Node11 -->
<g id="Node000011" class="node">
<title>Node11</title>
<g id="a_Node000011"><a xlink:href="gemv__generic_8c.html#a25aaeba2e146d0f4cfd8f968a6cb8689" target="_top" xlink:title=" ">
<polygon fill="white" stroke="#666666" points="448,-120 336,-120 336,-101 448,-101 448,-120"/>
<text text-anchor="middle" x="392" y="-108" font-family="Helvetica,sans-Serif" font-size="10.00">ie_bf16_bits_to_f32</text>
</a>
</g>
</g>
<!-- Node10&#45;&gt;Node11 -->
<g id="edge10_Node000010_Node000011" class="edge">
<title>Node10&#45;&gt;Node11</title>
<g id="a_edge10_Node000010_Node000011"><a xlink:title=" ">
<path fill="none" stroke="#63b8ff" d="M293.72,-122.98C304.32,-121.62 315.15,-120.23 325.55,-118.9"/>
<polygon fill="#63b8ff" stroke="#63b8ff" points="326.32,-122.33 335.8,-117.58 325.43,-115.38 326.32,-122.33"/>
</a>
</g>
</g>
<!-- Node12&#45;&gt;Node9 -->
<g id="edge12_Node000012_Node000009" class="edge">
<title>Node12&#45;&gt;Node9</title>
<g id="a_edge12_Node000012_Node000009"><a xlink:title=" ">
<path fill="none" stroke="#63b8ff" d="M263.67,-319.97C285.98,-315.16 313.26,-309.27 336.83,-304.19"/>
<polygon fill="#63b8ff" stroke="#63b8ff" points="337.65,-307.59 346.69,-302.06 336.17,-300.75 337.65,-307.59"/>
</a>
</g>
</g>
<!-- Node14&#45;&gt;Node9 -->
<g id="edge15_Node000014_Node000009" class="edge">
<title>Node14&#45;&gt;Node9</title>
<g id="a_edge15_Node000014_Node000009"><a xlink:title=" ">
<path fill="none" stroke="#63b8ff" d="M286.3,-292.5C302.65,-292.5 319.98,-292.5 335.73,-292.5"/>
<polygon fill="#63b8ff" stroke="#63b8ff" points="335.82,-296 345.82,-292.5 335.82,-289 335.82,-296"/>
</a>
</g>
</g>
<!-- Node16 -->
<g id="Node000016" class="node">
<title>Node16</title>
<g id="a_Node000016"><a xlink:href="util__logging_8c.html#aea21466075cc03977bc4fcde5130d6a4" target="_top" xlink:title="Log an error message (printf&#45;style).">
<polygon fill="white" stroke="#666666" points="429,-19 355,-19 355,0 429,0 429,-19"/>
<text text-anchor="middle" x="392" y="-7" font-family="Helvetica,sans-Serif" font-size="10.00">ie_log_error</text>
</a>
</g>
</g>
<!-- Node15&#45;&gt;Node16 -->
<g id="edge17_Node000015_Node000016" class="edge">
<title>Node15&#45;&gt;Node16</title>
<g id="a_edge17_Node000015_Node000016"><a xlink:title=" ">
<path fill="none" stroke="#63b8ff" d="M284.83,-9.5C304.7,-9.5 326.13,-9.5 344.5,-9.5"/>
<polygon fill="#63b8ff" stroke="#63b8ff" points="344.64,-13 354.64,-9.5 344.64,-6 344.64,-13"/>
</a>
</g>
</g>
<!-- Node17 -->
<g id="Node000017" class="node">
<title>Node17</title>
<g id="a_Node000017"><a xlink:href="util__logging_8c.html#ac0a8abb7ed0f336e7d2a4a9eeac1e634" target="_top" xlink:title=" ">
<polygon fill="white" stroke="#666666" points="541,-37 484,-37 484,-18 541,-18 541,-37"/>
<text text-anchor="middle" x="512.5" y="-25" font-family="Helvetica,sans-Serif" font-size="10.00">ie_vlog_</text>
</a>
</g>
</g>
<!-- Node16&#45;&gt;Node17 -->
<g id="edge18_Node000016_Node000017" class="edge">
<title>Node16&#45;&gt;Node17</title>
<g id="a_edge18_Node000016_Node000017"><a xlink:title=" ">
<path fill="none" stroke="#63b8ff" d="M429.2,-15C443.33,-17.14 459.53,-19.61 473.8,-21.77"/>
<polygon fill="#63b8ff" stroke="#63b8ff" points="473.38,-25.25 483.8,-23.29 474.44,-18.33 473.38,-25.25"/>
</a>
</g>
</g>
<!-- Node19 -->
<g id="Node000019" class="node">
<title>Node19</title>
<g id="a_Node000019"><a xlink:href="util__logging_8c.html#a7bff220c76442d1372d81e26f77c2921" target="_top" xlink:title="Log an informational message (printf&#45;style).">
<polygon fill="white" stroke="#666666" points="427,-56 357,-56 357,-37 427,-37 427,-56"/>
<text text-anchor="middle" x="392" y="-44" font-family="Helvetica,sans-Serif" font-size="10.00">ie_log_info</text>
</a>
</g>
</g>
<!-- Node18&#45;&gt;Node19 -->
<g id="edge20_Node000018_Node000019" class="edge">
<title>Node18&#45;&gt;Node19</title>
<g id="a_edge20_Node000018_Node000019"><a xlink:title=" ">
<path fill="none" stroke="#63b8ff" d="M273.76,-46.5C297.23,-46.5 324.35,-46.5 346.59,-46.5"/>
<polygon fill="#63b8ff" stroke="#63b8ff" points="346.76,-50 356.76,-46.5 346.76,-43 346.76,-50"/>
</a>
</g>
</g>
<!-- Node19&#45;&gt;Node17 -->
<g id="edge21_Node000019_Node000017" class="edge">
<title>Node19&#45;&gt;Node17</title>
<g id="a_edge21_Node000019_Node000017"><a xlink:title=" ">
<path fill="none" stroke="#63b8ff" d="M427.28,-41C441.83,-38.67 458.84,-35.94 473.75,-33.55"/>
<polygon fill="#63b8ff" stroke="#63b8ff" points="474.36,-37 483.68,-31.96 473.25,-30.09 474.36,-37"/>
</a>
</g>
</g>
<!-- Node20&#45;&gt;Node8 -->
<g id="edge23_Node000020_Node000008" class="edge">
<title>Node20&#45;&gt;Node8</title>
<g id="a_edge23_Node000020_Node000008"><a xlink:title=" ">
<path fill="none" stroke="#63b8ff" d="M274.24,-188.27C295.38,-193.2 319.43,-198.81 340.19,-203.65"/>
<polygon fill="#63b8ff" stroke="#63b8ff" points="339.56,-207.1 350.09,-205.96 341.15,-200.28 339.56,-207.1"/>
</a>
</g>
</g>
<!-- Node21&#45;&gt;Node11 -->
<g id="edge25_Node000021_Node000011" class="edge">
<title>Node21&#45;&gt;Node11</title>
<g id="a_edge25_Node000021_Node000011"><a xlink:title=" ">
<path fill="none" stroke="#63b8ff" d="M274.24,-96.2C290.55,-98.2 308.6,-100.41 325.53,-102.48"/>
<polygon fill="#63b8ff" stroke="#63b8ff" points="325.55,-106.01 335.9,-103.75 326.4,-99.06 325.55,-106.01"/>
</a>
</g>
</g>
</g>
</svg>
