<?xml version="1.0" encoding="UTF-8" standalone="no"?>
<!DOCTYPE svg PUBLIC "-//W3C//DTD SVG 1.1//EN"
 "http://www.w3.org/Graphics/SVG/1.1/DTD/svg11.dtd">
<!-- Generated by graphviz version 2.43.0 (0)
 -->
<!-- Title: ie_mmap_advise Pages: 1 -->
<svg width="279pt" height="66pt"
 viewBox="0.00 0.00 279.00 66.00" xmlns="http://www.w3.org/2000/svg" xmlns:xlink="http://www.w3.org/1999/xlink">
<g id="graph0" class="graph" transform="scale(1 1) rotate(0) translate(4 62)">
<title>ie_mmap_advise</title>
<!-- Node1 -->
<g id="node1" class="node">
<title>Node1</title>
<g id="a_node1"><a xlink:title="Apply a memory access policy to a mapped region (best&#45;effort).">
<polygon fill="#bfbfbf" stroke="black" points="0,-19.5 0,-38.5 100,-38.5 100,-19.5 0,-19.5"/>
<text text-anchor="middle" x="50" y="-26.5" font-family="Helvetica,sans-Serif" font-size="10.00">ie_mmap_advise</text>
</a>
</g>
</g>
<!-- Node2 -->
<g id="node2" class="node">
<title>Node2</title>
<g id="a_node2"><a xlink:href="mmap__tuning_8c.html#abaa8ca2b5cd2d97f8cc65b901fe8f158" target="_top" xlink:title="Safe wrapper around madvise (best&#45;effort).">
<polygon fill="none" stroke="black" points="145.5,-38.5 145.5,-57.5 261.5,-57.5 261.5,-38.5 145.5,-38.5"/>
<text text-anchor="middle" x="203.5" y="-45.5" font-family="Helvetica,sans-Serif" font-size="10.00">best_effort_madvise</text>
</a>
</g>
</g>
<!-- Node1&#45;&gt;Node2 -->
<g id="edge1" class="edge">
<title>Node1&#45;&gt;Node2</title>
<path fill="none" stroke="midnightblue" d="M100.19,-35.17C111.35,-36.57 123.39,-38.08 135.15,-39.55"/>
<polygon fill="midnightblue" stroke="midnightblue" points="135.04,-43.07 145.4,-40.84 135.91,-36.12 135.04,-43.07"/>
</g>
<!-- Node3 -->
<g id="node3" class="node">
<title>Node3</title>
<g id="a_node3"><a xlink:href="mmap__tuning_8c.html#a61a7ac9cc8901a02ce8c1021e56af1b9" target="_top" xlink:title="Map ie_page_policy to madvise() flag where possible.">
<polygon fill="none" stroke="black" points="136,-0.5 136,-19.5 271,-19.5 271,-0.5 136,-0.5"/>
<text text-anchor="middle" x="203.5" y="-7.5" font-family="Helvetica,sans-Serif" font-size="10.00">map_policy_to_madvise</text>
</a>
</g>
</g>
<!-- Node1&#45;&gt;Node3 -->
<g id="edge2" class="edge">
<title>Node1&#45;&gt;Node3</title>
<path fill="none" stroke="midnightblue" d="M100.19,-22.83C108.38,-21.8 117.06,-20.72 125.75,-19.63"/>
<polygon fill="midnightblue" stroke="midnightblue" points="126.44,-23.07 135.93,-18.35 125.57,-16.12 126.44,-23.07"/>
</g>
</g>
</svg>
