<?xml version="1.0" encoding="UTF-8" standalone="no"?>
<!DOCTYPE svg PUBLIC "-//W3C//DTD SVG 1.1//EN"
 "http://www.w3.org/Graphics/SVG/1.1/DTD/svg11.dtd">
<!-- Generated by graphviz version 2.43.0 (0)
 -->
<!-- Title: ie_cuda_gemv_q4_0_f32 Pages: 1 -->
<svg width="336pt" height="76pt"
 viewBox="0.00 0.00 336.00 75.50" xmlns="http://www.w3.org/2000/svg" xmlns:xlink="http://www.w3.org/1999/xlink">
<g id="graph0" class="graph" transform="scale(1 1) rotate(0) translate(4 71.5)">
<title>ie_cuda_gemv_q4_0_f32</title>
<!-- Node1 -->
<g id="Node000001" class="node">
<title>Node1</title>
<g id="a_Node000001"><a xlink:title="Launch a GEMV Q4_0 kernel: y = dequant(Wq4) * x (+ optional BF16 bias).">
<polygon fill="#999999" stroke="#666666" points="137,-40 0,-40 0,-21 137,-21 137,-40"/>
<text text-anchor="middle" x="68.5" y="-28" font-family="Helvetica,sans-Serif" font-size="10.00">ie_cuda_gemv_q4_0_f32</text>
</a>
</g>
</g>
<!-- Node2 -->
<g id="Node000002" class="node">
<title>Node2</title>
<g id="a_Node000002"><a xlink:href="ie__device__cuda_8cu.html#a4ed091f3252b0eddeb76bd1d8fc63168" target="_top" xlink:title="Clear the last error string (C ABI).">
<polygon fill="white" stroke="#666666" points="304,-67.5 197,-67.5 197,-37.5 304,-37.5 304,-67.5"/>
<text text-anchor="start" x="205" y="-55.5" font-family="Helvetica,sans-Serif" font-size="10.00">ie_cuda_clear_last</text>
<text text-anchor="middle" x="250.5" y="-44.5" font-family="Helvetica,sans-Serif" font-size="10.00">_error</text>
</a>
</g>
</g>
<!-- Node1&#45;&gt;Node2 -->
<g id="edge1_Node000001_Node000002" class="edge">
<title>Node1&#45;&gt;Node2</title>
<g id="a_edge1_Node000001_Node000002"><a xlink:title=" ">
<path fill="none" stroke="#63b8ff" d="M137.04,-38.75C153.24,-40.73 170.48,-42.84 186.47,-44.8"/>
<polygon fill="#63b8ff" stroke="#63b8ff" points="186.42,-48.32 196.77,-46.06 187.27,-41.37 186.42,-48.32"/>
</a>
</g>
</g>
<!-- Node3 -->
<g id="Node000003" class="node">
<title>Node3</title>
<g id="a_Node000003"><a xlink:href="ie__device__cuda_8cu.html#a0391d9bf2a39582d39265da97820553f" target="_top" xlink:title="Store the last error message into the global static buffer.">
<polygon fill="white" stroke="#666666" points="328,-19 173,-19 173,0 328,0 328,-19"/>
<text text-anchor="middle" x="250.5" y="-7" font-family="Helvetica,sans-Serif" font-size="10.00">ie_cuda_set_last_error_cuda</text>
</a>
</g>
</g>
<!-- Node1&#45;&gt;Node3 -->
<g id="edge2_Node000001_Node000003" class="edge">
<title>Node1&#45;&gt;Node3</title>
<g id="a_edge2_Node000001_Node000003"><a xlink:title=" ">
<path fill="none" stroke="#63b8ff" d="M137.04,-22.62C145.43,-21.64 154.09,-20.63 162.72,-19.62"/>
<polygon fill="#63b8ff" stroke="#63b8ff" points="163.29,-23.08 172.81,-18.45 162.47,-16.13 163.29,-23.08"/>
</a>
</g>
</g>
</g>
</svg>
