<?xml version="1.0" encoding="UTF-8" standalone="no"?>
<!DOCTYPE svg PUBLIC "-//W3C//DTD SVG 1.1//EN"
 "http://www.w3.org/Graphics/SVG/1.1/DTD/svg11.dtd">
<!-- Generated by graphviz version 2.43.0 (0)
 -->
<!-- Title: engine/include/ie_topology.h Pages: 1 -->
<svg width="573pt" height="95pt"
 viewBox="0.00 0.00 572.50 95.00" xmlns="http://www.w3.org/2000/svg" xmlns:xlink="http://www.w3.org/1999/xlink">
<g id="graph0" class="graph" transform="scale(1 1) rotate(0) translate(4 91)">
<title>engine/include/ie_topology.h</title>
<!-- Node1 -->
<g id="node1" class="node">
<title>Node1</title>
<g id="a_node1"><a xlink:title=" ">
<polygon fill="#bfbfbf" stroke="black" points="201.5,-67.5 201.5,-86.5 356.5,-86.5 356.5,-67.5 201.5,-67.5"/>
<text text-anchor="middle" x="279" y="-74.5" font-family="Helvetica,sans-Serif" font-size="10.00">engine/include/ie_topology.h</text>
</a>
</g>
</g>
<!-- Node2 -->
<g id="node2" class="node">
<title>Node2</title>
<g id="a_node2"><a xlink:href="numa__policy_8c.html" target="_top" xlink:title="NUMA&#45;aware policy initialization and helper decisions.">
<polygon fill="none" stroke="black" points="0,-0.5 0,-30.5 116,-30.5 116,-0.5 0,-0.5"/>
<text text-anchor="start" x="8" y="-18.5" font-family="Helvetica,sans-Serif" font-size="10.00">engine/src/opt/numa</text>
<text text-anchor="middle" x="58" y="-7.5" font-family="Helvetica,sans-Serif" font-size="10.00">_policy.c</text>
</a>
</g>
</g>
<!-- Node1&#45;&gt;Node2 -->
<g id="edge1" class="edge">
<title>Node1&#45;&gt;Node2</title>
<path fill="none" stroke="midnightblue" d="M237.62,-64.86C201.54,-55.14 149.02,-41.01 110.09,-30.52"/>
<polygon fill="midnightblue" stroke="midnightblue" points="236.77,-68.25 247.34,-67.48 238.59,-61.5 236.77,-68.25"/>
</g>
<!-- Node3 -->
<g id="node3" class="node">
<title>Node3</title>
<g id="a_node3"><a xlink:href="topology_8c.html" target="_top" xlink:title=" ">
<polygon fill="none" stroke="black" points="134,-6 134,-25 272,-25 272,-6 134,-6"/>
<text text-anchor="middle" x="203" y="-13" font-family="Helvetica,sans-Serif" font-size="10.00">engine/src/opt/topology.c</text>
</a>
</g>
</g>
<!-- Node1&#45;&gt;Node3 -->
<g id="edge2" class="edge">
<title>Node1&#45;&gt;Node3</title>
<path fill="none" stroke="midnightblue" d="M260.22,-61.29C245.64,-49.88 225.94,-34.46 213.87,-25.01"/>
<polygon fill="midnightblue" stroke="midnightblue" points="258.08,-64.07 268.11,-67.48 262.39,-58.55 258.08,-64.07"/>
</g>
<!-- Node4 -->
<g id="node4" class="node">
<title>Node4</title>
<g id="a_node4"><a xlink:href="replicate__hot_8c.html" target="_top" xlink:title="Replication of hot weight blobs per socket using first&#45;touch placement.">
<polygon fill="none" stroke="black" points="290.5,-0.5 290.5,-30.5 421.5,-30.5 421.5,-0.5 290.5,-0.5"/>
<text text-anchor="start" x="298.5" y="-18.5" font-family="Helvetica,sans-Serif" font-size="10.00">engine/src/opt/replicate</text>
<text text-anchor="middle" x="356" y="-7.5" font-family="Helvetica,sans-Serif" font-size="10.00">_hot.c</text>
</a>
</g>
</g>
<!-- Node1&#45;&gt;Node4 -->
<g id="edge3" class="edge">
<title>Node1&#45;&gt;Node4</title>
<path fill="none" stroke="midnightblue" d="M298.16,-61.2C310.3,-51.81 325.91,-39.75 337.85,-30.52"/>
<polygon fill="midnightblue" stroke="midnightblue" points="295.81,-58.59 290.03,-67.48 300.09,-64.13 295.81,-58.59"/>
</g>
<!-- Node5 -->
<g id="node5" class="node">
<title>Node5</title>
<g id="a_node5"><a xlink:href="test__topology_8c.html" target="_top" xlink:title=" ">
<polygon fill="none" stroke="black" points="439.5,-6 439.5,-25 564.5,-25 564.5,-6 439.5,-6"/>
<text text-anchor="middle" x="502" y="-13" font-family="Helvetica,sans-Serif" font-size="10.00">tests/c/test_topology.c</text>
</a>
</g>
</g>
<!-- Node1&#45;&gt;Node5 -->
<g id="edge4" class="edge">
<title>Node1&#45;&gt;Node5</title>
<path fill="none" stroke="midnightblue" d="M320.62,-64.9C363.93,-53.34 430.81,-35.5 470.11,-25.01"/>
<polygon fill="midnightblue" stroke="midnightblue" points="319.71,-61.52 310.95,-67.48 321.51,-68.28 319.71,-61.52"/>
</g>
</g>
</svg>
