<?xml version="1.0" encoding="UTF-8" standalone="no"?>
<!DOCTYPE svg PUBLIC "-//W3C//DTD SVG 1.1//EN"
 "http://www.w3.org/Graphics/SVG/1.1/DTD/svg11.dtd">
<!-- Generated by graphviz version 2.43.0 (0)
 -->
<!-- Title: ie_engine_generate Pages: 1 -->
<svg width="368pt" height="104pt"
 viewBox="0.00 0.00 368.00 104.00" xmlns="http://www.w3.org/2000/svg" xmlns:xlink="http://www.w3.org/1999/xlink">
<g id="graph0" class="graph" transform="scale(1 1) rotate(0) translate(4 100)">
<title>ie_engine_generate</title>
<!-- Node1 -->
<g id="node1" class="node">
<title>Node1</title>
<g id="a_node1"><a xlink:title=" ">
<polygon fill="#bfbfbf" stroke="black" points="0,-38.5 0,-57.5 113,-57.5 113,-38.5 0,-38.5"/>
<text text-anchor="middle" x="56.5" y="-45.5" font-family="Helvetica,sans-Serif" font-size="10.00">ie_engine_generate</text>
</a>
</g>
</g>
<!-- Node2 -->
<g id="node2" class="node">
<title>Node2</title>
<g id="a_node2"><a xlink:href="ie__api_8c.html#aee4ab6bebc1781cfbfe821e0e89d8823" target="_top" xlink:title="32&#45;bit FNV&#45;1a hash for C strings (NULL&#45;safe).">
<polygon fill="none" stroke="black" points="167,-76.5 167,-95.5 223,-95.5 223,-76.5 167,-76.5"/>
<text text-anchor="middle" x="195" y="-83.5" font-family="Helvetica,sans-Serif" font-size="10.00">fnv1a32</text>
</a>
</g>
</g>
<!-- Node1&#45;&gt;Node2 -->
<g id="edge1" class="edge">
<title>Node1&#45;&gt;Node2</title>
<path fill="none" stroke="midnightblue" d="M91.94,-57.59C111.81,-63.12 136.78,-70.07 157.05,-75.71"/>
<polygon fill="midnightblue" stroke="midnightblue" points="156.31,-79.14 166.88,-78.45 158.18,-72.4 156.31,-79.14"/>
</g>
<!-- Node3 -->
<g id="node3" class="node">
<title>Node3</title>
<g id="a_node3"><a xlink:href="ie__kv__instrumentation_8h.html#a27b3df57a37a25798490912b1e92d716" target="_top" xlink:title="Report a produced token to the KV tracker.">
<polygon fill="none" stroke="black" points="149,-38.5 149,-57.5 241,-57.5 241,-38.5 149,-38.5"/>
<text text-anchor="middle" x="195" y="-45.5" font-family="Helvetica,sans-Serif" font-size="10.00">ie_kv_on_token</text>
</a>
</g>
</g>
<!-- Node1&#45;&gt;Node3 -->
<g id="edge2" class="edge">
<title>Node1&#45;&gt;Node3</title>
<path fill="none" stroke="midnightblue" d="M113.02,-48C121.52,-48 130.29,-48 138.79,-48"/>
<polygon fill="midnightblue" stroke="midnightblue" points="138.97,-51.5 148.97,-48 138.97,-44.5 138.97,-51.5"/>
</g>
<!-- Node6 -->
<g id="node6" class="node">
<title>Node6</title>
<g id="a_node6"><a xlink:href="ie__api_8c.html#a22d32f0b2752f3aa310c127054b03e22" target="_top" xlink:title="One step of a xorshift64* PRNG (period ≈ 2^64&#45;1).">
<polygon fill="none" stroke="black" points="153.5,-0.5 153.5,-19.5 236.5,-19.5 236.5,-0.5 153.5,-0.5"/>
<text text-anchor="middle" x="195" y="-7.5" font-family="Helvetica,sans-Serif" font-size="10.00">xorshift64star</text>
</a>
</g>
</g>
<!-- Node1&#45;&gt;Node6 -->
<g id="edge5" class="edge">
<title>Node1&#45;&gt;Node6</title>
<path fill="none" stroke="midnightblue" d="M91.94,-38.41C109.48,-33.53 131.01,-27.54 149.76,-22.32"/>
<polygon fill="midnightblue" stroke="midnightblue" points="150.87,-25.64 159.57,-19.59 148.99,-18.9 150.87,-25.64"/>
</g>
<!-- Node4 -->
<g id="node4" class="node">
<title>Node4</title>
<g id="a_node4"><a xlink:href="ie__kv__instrumentation_8c.html#a37bd44541ec645006f436707ca67b407" target="_top" xlink:title="Linear membership test in the FIFO set.">
<polygon fill="none" stroke="black" points="281,-57.5 281,-76.5 356,-76.5 356,-57.5 281,-57.5"/>
<text text-anchor="middle" x="318.5" y="-64.5" font-family="Helvetica,sans-Serif" font-size="10.00">kv_contains</text>
</a>
</g>
</g>
<!-- Node3&#45;&gt;Node4 -->
<g id="edge3" class="edge">
<title>Node3&#45;&gt;Node4</title>
<path fill="none" stroke="midnightblue" d="M241.24,-55.07C250.96,-56.59 261.24,-58.2 271,-59.73"/>
<polygon fill="midnightblue" stroke="midnightblue" points="270.52,-63.2 280.94,-61.28 271.6,-56.28 270.52,-63.2"/>
</g>
<!-- Node5 -->
<g id="node5" class="node">
<title>Node5</title>
<g id="a_node5"><a xlink:href="ie__kv__instrumentation_8c.html#a83b5153f7145e76551b31ced07063538" target="_top" xlink:title="Insert token into the FIFO set, evicting the oldest if full.">
<polygon fill="none" stroke="black" points="277,-19.5 277,-38.5 360,-38.5 360,-19.5 277,-19.5"/>
<text text-anchor="middle" x="318.5" y="-26.5" font-family="Helvetica,sans-Serif" font-size="10.00">kv_insert_fifo</text>
</a>
</g>
</g>
<!-- Node3&#45;&gt;Node5 -->
<g id="edge4" class="edge">
<title>Node3&#45;&gt;Node5</title>
<path fill="none" stroke="midnightblue" d="M241.24,-40.93C249.49,-39.63 258.15,-38.28 266.55,-36.97"/>
<polygon fill="midnightblue" stroke="midnightblue" points="267.29,-40.39 276.63,-35.39 266.21,-33.48 267.29,-40.39"/>
</g>
</g>
</svg>
