<?xml version="1.0" encoding="UTF-8" standalone="no"?>
<!DOCTYPE svg PUBLIC "-//W3C//DTD SVG 1.1//EN"
 "http://www.w3.org/Graphics/SVG/1.1/DTD/svg11.dtd">
<!-- Generated by graphviz version 2.43.0 (0)
 -->
<!-- Title: engine/include/ie_kernels.h Pages: 1 -->
<svg width="163pt" height="140pt"
 viewBox="0.00 0.00 163.00 140.00" xmlns="http://www.w3.org/2000/svg" xmlns:xlink="http://www.w3.org/1999/xlink">
<g id="graph0" class="graph" transform="scale(1 1) rotate(0) translate(4 136)">
<title>engine/include/ie_kernels.h</title>
<!-- Node1 -->
<g id="node1" class="node">
<title>Node1</title>
<g id="a_node1"><a xlink:title=" ">
<polygon fill="#bfbfbf" stroke="black" points="0,-112.5 0,-131.5 149,-131.5 149,-112.5 0,-112.5"/>
<text text-anchor="middle" x="74.5" y="-119.5" font-family="Helvetica,sans-Serif" font-size="10.00">engine/include/ie_kernels.h</text>
</a>
</g>
</g>
<!-- Node2 -->
<g id="node2" class="node">
<title>Node2</title>
<g id="a_node2"><a xlink:title=" ">
<polygon fill="none" stroke="#bfbfbf" points="9.5,-0.5 9.5,-19.5 65.5,-19.5 65.5,-0.5 9.5,-0.5"/>
<text text-anchor="middle" x="37.5" y="-7.5" font-family="Helvetica,sans-Serif" font-size="10.00">stddef.h</text>
</a>
</g>
</g>
<!-- Node1&#45;&gt;Node2 -->
<g id="edge1" class="edge">
<title>Node1&#45;&gt;Node2</title>
<path fill="none" stroke="midnightblue" d="M58.17,-112.39C45.54,-104.72 29,-92.21 21.5,-76 14.5,-60.87 20.37,-42.29 26.88,-28.87"/>
<polygon fill="midnightblue" stroke="midnightblue" points="30.13,-30.23 31.78,-19.77 23.96,-26.91 30.13,-30.23"/>
</g>
<!-- Node3 -->
<g id="node3" class="node">
<title>Node3</title>
<g id="a_node3"><a xlink:title=" ">
<polygon fill="none" stroke="#bfbfbf" points="102,-0.5 102,-19.5 155,-19.5 155,-0.5 102,-0.5"/>
<text text-anchor="middle" x="128.5" y="-7.5" font-family="Helvetica,sans-Serif" font-size="10.00">stdint.h</text>
</a>
</g>
</g>
<!-- Node1&#45;&gt;Node3 -->
<g id="edge2" class="edge">
<title>Node1&#45;&gt;Node3</title>
<path fill="none" stroke="midnightblue" d="M90.77,-112.36C103.35,-104.67 119.87,-92.15 127.5,-76 134.28,-61.65 133.91,-43.45 132.2,-29.96"/>
<polygon fill="midnightblue" stroke="midnightblue" points="135.63,-29.24 130.58,-19.93 128.72,-30.36 135.63,-29.24"/>
</g>
<!-- Node4 -->
<g id="node4" class="node">
<title>Node4</title>
<g id="a_node4"><a xlink:href="ie__quant__act_8h.html" target="_top" xlink:title=" ">
<polygon fill="none" stroke="black" points="30.5,-56.5 30.5,-75.5 118.5,-75.5 118.5,-56.5 30.5,-56.5"/>
<text text-anchor="middle" x="74.5" y="-63.5" font-family="Helvetica,sans-Serif" font-size="10.00">ie_quant_act.h</text>
</a>
</g>
</g>
<!-- Node1&#45;&gt;Node4 -->
<g id="edge3" class="edge">
<title>Node1&#45;&gt;Node4</title>
<path fill="none" stroke="midnightblue" d="M74.5,-112.08C74.5,-105.01 74.5,-94.86 74.5,-85.99"/>
<polygon fill="midnightblue" stroke="midnightblue" points="78,-85.75 74.5,-75.75 71,-85.75 78,-85.75"/>
</g>
<!-- Node4&#45;&gt;Node2 -->
<g id="edge4" class="edge">
<title>Node4&#45;&gt;Node2</title>
<path fill="none" stroke="midnightblue" d="M68.39,-56.08C63.22,-48.53 55.65,-37.49 49.31,-28.23"/>
<polygon fill="midnightblue" stroke="midnightblue" points="52.04,-26.02 43.5,-19.75 46.26,-29.98 52.04,-26.02"/>
</g>
<!-- Node4&#45;&gt;Node3 -->
<g id="edge5" class="edge">
<title>Node4&#45;&gt;Node3</title>
<path fill="none" stroke="midnightblue" d="M83.42,-56.08C91.28,-48.22 102.93,-36.57 112.42,-27.08"/>
<polygon fill="midnightblue" stroke="midnightblue" points="115.15,-29.3 119.75,-19.75 110.2,-24.35 115.15,-29.3"/>
</g>
</g>
</svg>
