<?xml version="1.0" encoding="UTF-8" standalone="no"?>
<!DOCTYPE svg PUBLIC "-//W3C//DTD SVG 1.1//EN"
 "http://www.w3.org/Graphics/SVG/1.1/DTD/svg11.dtd">
<!-- Generated by graphviz version 2.43.0 (0)
 -->
<!-- Title: ie_weights_close Pages: 1 -->
<svg width="327pt" height="156pt"
 viewBox="0.00 0.00 327.00 155.84" xmlns="http://www.w3.org/2000/svg" xmlns:xlink="http://www.w3.org/1999/xlink">

<svg id="main" version="1.1" xmlns="http://www.w3.org/2000/svg" xmlns:xlink="http://www.w3.org/1999/xlink" xml:space="preserve" onload="init(evt)">
<style type="text/css"><![CDATA[
.node, .edge {opacity: 0.7;}
.node.selected, .edge.selected {opacity: 1;}
.edge:hover path { stroke: red; }
.edge:hover polygon { stroke: red; fill: red; }
]]></style>
<script type="application/ecmascript" xlink:href="svg.min.js"/>
<svg id="graph" class="graph">
<g id="graph0" class="graph" transform="scale(1 1) rotate(0) translate(4 151.84)">
<title>ie_weights_close</title>
<!-- Node1 -->
<g id="Node000001" class="node">
<title>Node1</title>
<g id="a_Node000001"><a xlink:title="Close an opened weights descriptor.">
<polygon fill="#999999" stroke="#666666" points="319,-93 219,-93 219,-74 319,-74 319,-93"/>
<text text-anchor="middle" x="269" y="-81" font-family="Helvetica,sans-Serif" font-size="10.00">ie_weights_close</text>
</a>
</g>
</g>
<!-- Node2 -->
<g id="Node000002" class="node">
<title>Node2</title>
<g id="a_Node000002"><a xlink:href="ie__api_8c.html#a84bd87043352946e9d53b0f8a5c4abe0" target="_top" xlink:title="Create an engine instance.">
<polygon fill="white" stroke="#666666" points="180,-93 80,-93 80,-74 180,-74 180,-93"/>
<text text-anchor="middle" x="130" y="-81" font-family="Helvetica,sans-Serif" font-size="10.00">ie_engine_create</text>
</a>
</g>
</g>
<!-- Node1&#45;&gt;Node2 -->
<g id="edge1_Node000001_Node000002" class="edge">
<title>Node1&#45;&gt;Node2</title>
<g id="a_edge1_Node000001_Node000002"><a xlink:title=" ">
<path fill="none" stroke="#63b8ff" d="M208.73,-83.5C199.21,-83.5 189.44,-83.5 180.19,-83.5"/>
<polygon fill="#63b8ff" stroke="#63b8ff" points="208.93,-87 218.93,-83.5 208.93,-80 208.93,-87"/>
</a>
</g>
</g>
<!-- Node3 -->
<g id="Node000003" class="node">
<title>Node3</title>
<g id="a_Node000003"><a xlink:href="main__infer_8c.html#a3c04138a5bfe5d72780bb7e82a18e627" target="_top" xlink:title="main.">
<polygon fill="white" stroke="#666666" points="41,-130 0,-130 0,-111 41,-111 41,-130"/>
<text text-anchor="middle" x="20.5" y="-118" font-family="Helvetica,sans-Serif" font-size="10.00">main</text>
</a>
</g>
</g>
<!-- Node1&#45;&gt;Node3 -->
<g id="edge7_Node000001_Node000003" class="edge">
<title>Node1&#45;&gt;Node3</title>
<g id="a_edge7_Node000001_Node000003"><a xlink:title=" ">
<path fill="none" stroke="#63b8ff" d="M250.19,-99.78C234.01,-113.39 208.8,-131.76 183,-139.5 137.87,-153.03 123.47,-147.23 77,-139.5 64.74,-137.46 51.56,-133.05 41.13,-128.99"/>
<polygon fill="#63b8ff" stroke="#63b8ff" points="252.53,-102.39 257.78,-93.19 247.94,-97.1 252.53,-102.39"/>
</a>
</g>
</g>
<!-- Node5 -->
<g id="Node000005" class="node">
<title>Node5</title>
<g id="a_Node000005"><a xlink:href="ie__api_8c.html#a5a9a30f05ef6183f6a75811c616b3a0a" target="_top" xlink:title="Destroy an engine instance.">
<polygon fill="white" stroke="#666666" points="183,-130 77,-130 77,-111 183,-111 183,-130"/>
<text text-anchor="middle" x="130" y="-118" font-family="Helvetica,sans-Serif" font-size="10.00">ie_engine_destroy</text>
</a>
</g>
</g>
<!-- Node1&#45;&gt;Node5 -->
<g id="edge4_Node000001_Node000005" class="edge">
<title>Node1&#45;&gt;Node5</title>
<g id="a_edge4_Node000001_Node000005"><a xlink:title=" ">
<path fill="none" stroke="#63b8ff" d="M222.87,-95.69C204.6,-100.62 183.81,-106.24 166.64,-110.88"/>
<polygon fill="#63b8ff" stroke="#63b8ff" points="223.98,-99.01 232.72,-93.03 222.15,-92.26 223.98,-99.01"/>
</a>
</g>
</g>
<!-- Node6 -->
<g id="Node000006" class="node">
<title>Node6</title>
<g id="a_Node000006"><a xlink:href="test__weights_8c.html#a840291bc02cba5474a4cb46a9b9566fe" target="_top" xlink:title="Main test entrypoint.">
<polygon fill="white" stroke="#666666" points="150.5,-56 109.5,-56 109.5,-37 150.5,-37 150.5,-56"/>
<text text-anchor="middle" x="130" y="-44" font-family="Helvetica,sans-Serif" font-size="10.00">main</text>
</a>
</g>
</g>
<!-- Node1&#45;&gt;Node6 -->
<g id="edge8_Node000001_Node000006" class="edge">
<title>Node1&#45;&gt;Node6</title>
<g id="a_edge8_Node000001_Node000006"><a xlink:title=" ">
<path fill="none" stroke="#63b8ff" d="M222.88,-71.31C198.35,-64.69 169.28,-56.84 150.5,-51.77"/>
<polygon fill="#63b8ff" stroke="#63b8ff" points="222.15,-74.74 232.72,-73.97 223.98,-67.99 222.15,-74.74"/>
</a>
</g>
</g>
<!-- Node7 -->
<g id="Node000007" class="node">
<title>Node7</title>
<g id="a_Node000007"><a xlink:href="test__dedup__loader_8c.html#a73dca7f77cd9da376bc14e888330d88f" target="_top" xlink:title=" ">
<polygon fill="white" stroke="#666666" points="178,-19 82,-19 82,0 178,0 178,-19"/>
<text text-anchor="middle" x="130" y="-7" font-family="Helvetica,sans-Serif" font-size="10.00">open_and_touch</text>
</a>
</g>
</g>
<!-- Node1&#45;&gt;Node7 -->
<g id="edge9_Node000001_Node000007" class="edge">
<title>Node1&#45;&gt;Node7</title>
<g id="a_edge9_Node000001_Node000007"><a xlink:title=" ">
<path fill="none" stroke="#63b8ff" d="M247.21,-67.68C230.52,-55.51 206.14,-38.9 183,-27.5 176.57,-24.33 169.45,-21.48 162.59,-19.02"/>
<polygon fill="#63b8ff" stroke="#63b8ff" points="245.52,-70.78 255.64,-73.92 249.69,-65.15 245.52,-70.78"/>
</a>
</g>
</g>
<!-- Node2&#45;&gt;Node3 -->
<g id="edge2_Node000002_Node000003" class="edge">
<title>Node2&#45;&gt;Node3</title>
<g id="a_edge2_Node000002_Node000003"><a xlink:title=" ">
<path fill="none" stroke="#63b8ff" d="M91.67,-96.35C74.73,-102.18 55.37,-108.84 41.29,-113.69"/>
<polygon fill="#63b8ff" stroke="#63b8ff" points="93,-99.59 101.32,-93.03 90.72,-92.97 93,-99.59"/>
</a>
</g>
</g>
<!-- Node4 -->
<g id="Node000004" class="node">
<title>Node4</title>
<g id="a_Node000004"><a xlink:href="test__api_8c.html#a840291bc02cba5474a4cb46a9b9566fe" target="_top" xlink:title=" ">
<polygon fill="white" stroke="#666666" points="41,-93 0,-93 0,-74 41,-74 41,-93"/>
<text text-anchor="middle" x="20.5" y="-81" font-family="Helvetica,sans-Serif" font-size="10.00">main</text>
</a>
</g>
</g>
<!-- Node2&#45;&gt;Node4 -->
<g id="edge3_Node000002_Node000004" class="edge">
<title>Node2&#45;&gt;Node4</title>
<g id="a_edge3_Node000002_Node000004"><a xlink:title=" ">
<path fill="none" stroke="#63b8ff" d="M69.65,-83.5C59.36,-83.5 49.35,-83.5 41.15,-83.5"/>
<polygon fill="#63b8ff" stroke="#63b8ff" points="69.97,-87 79.97,-83.5 69.97,-80 69.97,-87"/>
</a>
</g>
</g>
<!-- Node5&#45;&gt;Node3 -->
<g id="edge5_Node000005_Node000003" class="edge">
<title>Node5&#45;&gt;Node3</title>
<g id="a_edge5_Node000005_Node000003"><a xlink:title=" ">
<path fill="none" stroke="#63b8ff" d="M66.71,-120.5C57.46,-120.5 48.56,-120.5 41.14,-120.5"/>
<polygon fill="#63b8ff" stroke="#63b8ff" points="66.82,-124 76.82,-120.5 66.82,-117 66.82,-124"/>
</a>
</g>
</g>
<!-- Node5&#45;&gt;Node4 -->
<g id="edge6_Node000005_Node000004" class="edge">
<title>Node5&#45;&gt;Node4</title>
<g id="a_edge6_Node000005_Node000004"><a xlink:title=" ">
<path fill="none" stroke="#63b8ff" d="M91.67,-107.65C74.73,-101.82 55.37,-95.16 41.29,-90.31"/>
<polygon fill="#63b8ff" stroke="#63b8ff" points="90.72,-111.03 101.32,-110.97 93,-104.41 90.72,-111.03"/>
</a>
</g>
</g>
<!-- Node8 -->
<g id="Node000008" class="node">
<title>Node8</title>
<g id="a_Node000008"><a xlink:href="test__dedup__loader_8c.html#a3c04138a5bfe5d72780bb7e82a18e627" target="_top" xlink:title=" ">
<polygon fill="white" stroke="#666666" points="41,-19 0,-19 0,0 41,0 41,-19"/>
<text text-anchor="middle" x="20.5" y="-7" font-family="Helvetica,sans-Serif" font-size="10.00">main</text>
</a>
</g>
</g>
<!-- Node7&#45;&gt;Node8 -->
<g id="edge10_Node000007_Node000008" class="edge">
<title>Node7&#45;&gt;Node8</title>
<g id="a_edge10_Node000007_Node000008"><a xlink:title=" ">
<path fill="none" stroke="#63b8ff" d="M71.72,-9.5C60.7,-9.5 49.87,-9.5 41.11,-9.5"/>
<polygon fill="#63b8ff" stroke="#63b8ff" points="71.85,-13 81.85,-9.5 71.85,-6 71.85,-13"/>
</a>
</g>
</g>
</g>
</svg>
</svg>

<style type='text/css'>
<![CDATA[
[data-mouse-over-selected='false'] { opacity: 0.7; }
[data-mouse-over-selected='true']  { opacity: 1.0; }
]]>
</style>
<script type="application/ecmascript"><![CDATA[
document.addEventListener('DOMContentLoaded', (event) => {
  highlightEdges();
  highlightAdjacentNodes();
});
]]></script>
</svg>
