<?xml version="1.0" encoding="UTF-8" standalone="no"?>
<!DOCTYPE svg PUBLIC "-//W3C//DTD SVG 1.1//EN"
 "http://www.w3.org/Graphics/SVG/1.1/DTD/svg11.dtd">
<!-- Generated by graphviz version 2.43.0 (0)
 -->
<!-- Title: cuda_destroy_thunk Pages: 1 -->
<svg width="429pt" height="76pt"
 viewBox="0.00 0.00 429.00 75.50" xmlns="http://www.w3.org/2000/svg" xmlns:xlink="http://www.w3.org/1999/xlink">
<g id="graph0" class="graph" transform="scale(1 1) rotate(0) translate(4 71.5)">
<title>cuda_destroy_thunk</title>
<!-- Node1 -->
<g id="Node000001" class="node">
<title>Node1</title>
<g id="a_Node000001"><a xlink:title="Destroy CUDA backend instance and free device buffers.">
<polygon fill="#999999" stroke="#666666" points="115,-40 0,-40 0,-21 115,-21 115,-40"/>
<text text-anchor="middle" x="57.5" y="-28" font-family="Helvetica,sans-Serif" font-size="10.00">cuda_destroy_thunk</text>
</a>
</g>
</g>
<!-- Node2 -->
<g id="Node000002" class="node">
<title>Node2</title>
<g id="a_Node000002"><a xlink:href="ie__device__cuda__stub_8c.html#a3cd69e11d8225356f06f8a1f4d9b3191" target="_top" xlink:title="Free device memory allocated by ie_cuda_malloc().">
<polygon fill="white" stroke="#666666" points="230,-40 151,-40 151,-21 230,-21 230,-40"/>
<text text-anchor="middle" x="190.5" y="-28" font-family="Helvetica,sans-Serif" font-size="10.00">ie_cuda_free</text>
</a>
</g>
</g>
<!-- Node1&#45;&gt;Node2 -->
<g id="edge1_Node000001_Node000002" class="edge">
<title>Node1&#45;&gt;Node2</title>
<g id="a_edge1_Node000001_Node000002"><a xlink:title=" ">
<path fill="none" stroke="#63b8ff" d="M115.2,-30.5C123.66,-30.5 132.32,-30.5 140.6,-30.5"/>
<polygon fill="#63b8ff" stroke="#63b8ff" points="140.84,-34 150.84,-30.5 140.84,-27 140.84,-34"/>
</a>
</g>
</g>
<!-- Node3 -->
<g id="Node000003" class="node">
<title>Node3</title>
<g id="a_Node000003"><a xlink:href="ie__device__cuda_8cu.html#a4ed091f3252b0eddeb76bd1d8fc63168" target="_top" xlink:title="Clear the last error string (C ABI).">
<polygon fill="white" stroke="#666666" points="397,-67.5 290,-67.5 290,-37.5 397,-37.5 397,-67.5"/>
<text text-anchor="start" x="298" y="-55.5" font-family="Helvetica,sans-Serif" font-size="10.00">ie_cuda_clear_last</text>
<text text-anchor="middle" x="343.5" y="-44.5" font-family="Helvetica,sans-Serif" font-size="10.00">_error</text>
</a>
</g>
</g>
<!-- Node2&#45;&gt;Node3 -->
<g id="edge2_Node000002_Node000003" class="edge">
<title>Node2&#45;&gt;Node3</title>
<g id="a_edge2_Node000002_Node000003"><a xlink:title=" ">
<path fill="none" stroke="#63b8ff" d="M230.39,-36.17C245.37,-38.35 262.88,-40.9 279.56,-43.33"/>
<polygon fill="#63b8ff" stroke="#63b8ff" points="279.4,-46.84 289.8,-44.82 280.41,-39.92 279.4,-46.84"/>
</a>
</g>
</g>
<!-- Node4 -->
<g id="Node000004" class="node">
<title>Node4</title>
<g id="a_Node000004"><a xlink:href="ie__device__cuda_8cu.html#a0391d9bf2a39582d39265da97820553f" target="_top" xlink:title="Store the last error message into the global static buffer.">
<polygon fill="white" stroke="#666666" points="421,-19 266,-19 266,0 421,0 421,-19"/>
<text text-anchor="middle" x="343.5" y="-7" font-family="Helvetica,sans-Serif" font-size="10.00">ie_cuda_set_last_error_cuda</text>
</a>
</g>
</g>
<!-- Node2&#45;&gt;Node4 -->
<g id="edge3_Node000002_Node000004" class="edge">
<title>Node2&#45;&gt;Node4</title>
<g id="a_edge3_Node000002_Node000004"><a xlink:title=" ">
<path fill="none" stroke="#63b8ff" d="M230.39,-25.09C240.73,-23.65 252.28,-22.05 263.92,-20.43"/>
<polygon fill="#63b8ff" stroke="#63b8ff" points="264.73,-23.85 274.16,-19 263.77,-16.92 264.73,-23.85"/>
</a>
</g>
</g>
</g>
</svg>
