<?xml version="1.0" encoding="UTF-8" standalone="no"?>
<!DOCTYPE svg PUBLIC "-//W3C//DTD SVG 1.1//EN"
 "http://www.w3.org/Graphics/SVG/1.1/DTD/svg11.dtd">
<!-- Generated by graphviz version 12.2.1 (20241206.2353)
 -->
<!-- Title: cuda_try_create Pages: 1 -->
<svg width="279pt" height="236pt"
 viewBox="0.00 0.00 279.25 235.75" xmlns="http://www.w3.org/2000/svg" xmlns:xlink="http://www.w3.org/1999/xlink">

<svg id="main" version="1.1" xmlns="http://www.w3.org/2000/svg" xmlns:xlink="http://www.w3.org/1999/xlink" xml:space="preserve">

<style type="text/css"><![CDATA[
.node, .edge {opacity: 0.7;}
.node.selected, .edge.selected {opacity: 1;}
.edge:hover path { stroke: red; }
.edge:hover polygon { stroke: red; fill: red; }
]]></style>
<script type="application/ecmascript" xlink:href="svg.min.js"/>
<svg id="graph" class="graph">
<g id="graph0" class="graph" transform="scale(1 1) rotate(0) translate(4 231.75)">
<title>cuda_try_create</title>
<!-- Node1 -->
<g id="Node000001" class="node">
<title>Node1</title>
<g id="a_Node000001"><a xlink:title="Try to initialize CUDA backend via dlopen.">
<polygon fill="#999999" stroke="#666666" points="94,-120.75 0,-120.75 0,-100 94,-100 94,-120.75"/>
<text text-anchor="middle" x="47" y="-107.25" font-family="Helvetica,sans-Serif" font-size="10.00">cuda_try_create</text>
</a>
</g>
</g>
<!-- Node2 -->
<g id="Node000002" class="node">
<title>Node2</title>
<g id="a_Node000002"><a xlink:href="ie__device__common_8c.html#afbcd46d9b25dd33110fdf48f5c83b017" target="_top" xlink:title="CUDA caps thunk used in the vtable.">
<polygon fill="white" stroke="#666666" points="250.62,-227.75 150.62,-227.75 150.62,-207 250.62,-207 250.62,-227.75"/>
<text text-anchor="middle" x="200.62" y="-214.25" font-family="Helvetica,sans-Serif" font-size="10.00">cuda_caps_thunk</text>
</a>
</g>
</g>
<!-- Node1&#45;&gt;Node2 -->
<g id="edge1_Node000001_Node000002" class="edge">
<title>Node1&#45;&gt;Node2</title>
<g id="a_edge1_Node000001_Node000002"><a xlink:title=" ">
<path fill="none" stroke="#63b8ff" d="M55.23,-121.23C68.08,-139.67 96.68,-177.07 130,-197.38 133.11,-199.27 136.42,-201 139.82,-202.56"/>
<polygon fill="#63b8ff" stroke="#63b8ff" points="138.3,-205.72 148.88,-206.23 140.92,-199.23 138.3,-205.72"/>
</a>
</g>
</g>
<!-- Node3 -->
<g id="Node000003" class="node">
<title>Node3</title>
<g id="a_Node000003"><a xlink:href="ie__device__common_8c.html#a7ecb9f771aea0ef0d125bbe31b53c87a" target="_top" xlink:title="Destroy CUDA backend instance.">
<polygon fill="white" stroke="#666666" points="257.75,-188.75 143.5,-188.75 143.5,-168 257.75,-168 257.75,-188.75"/>
<text text-anchor="middle" x="200.62" y="-175.25" font-family="Helvetica,sans-Serif" font-size="10.00">cuda_destroy_thunk</text>
</a>
</g>
</g>
<!-- Node1&#45;&gt;Node3 -->
<g id="edge2_Node000001_Node000003" class="edge">
<title>Node1&#45;&gt;Node3</title>
<g id="a_edge2_Node000001_Node000003"><a xlink:title=" ">
<path fill="none" stroke="#63b8ff" d="M63.05,-121.09C79.01,-132.02 105.28,-148.85 130,-159.38 133.86,-161.02 137.9,-162.56 142.01,-163.99"/>
<polygon fill="#63b8ff" stroke="#63b8ff" points="140.93,-167.32 151.52,-167.07 143.08,-160.66 140.93,-167.32"/>
</a>
</g>
</g>
<!-- Node4 -->
<g id="Node000004" class="node">
<title>Node4</title>
<g id="a_Node000004"><a xlink:href="ie__device__common_8c.html#a7bd28e144c0f372417e90fae8ece5ecc" target="_top" xlink:title="CUDA block&#45;sparse GEMV FP32 stub (unimplemented).">
<polygon fill="white" stroke="#666666" points="271.25,-150.12 130,-150.12 130,-116.62 271.25,-116.62 271.25,-150.12"/>
<text text-anchor="start" x="138" y="-136.62" font-family="Helvetica,sans-Serif" font-size="10.00">cuda_gemv_block_sparse</text>
<text text-anchor="middle" x="200.62" y="-123.88" font-family="Helvetica,sans-Serif" font-size="10.00">_f32_stub</text>
</a>
</g>
</g>
<!-- Node1&#45;&gt;Node4 -->
<g id="edge3_Node000001_Node000004" class="edge">
<title>Node1&#45;&gt;Node4</title>
<g id="a_edge3_Node000001_Node000004"><a xlink:title=" ">
<path fill="none" stroke="#63b8ff" d="M94.32,-117.4C101.98,-118.56 110.12,-119.8 118.35,-121.05"/>
<polygon fill="#63b8ff" stroke="#63b8ff" points="117.67,-124.48 128.09,-122.52 118.72,-117.56 117.67,-124.48"/>
</a>
</g>
</g>
<!-- Node5 -->
<g id="Node000005" class="node">
<title>Node5</title>
<g id="a_Node000005"><a xlink:href="ie__device__common_8c.html#a21aa199bdf7a1b0f258b1ef483fa9880" target="_top" xlink:title="CUDA GEMV FP32 stub (unimplemented).">
<polygon fill="white" stroke="#666666" points="260.38,-98.75 140.88,-98.75 140.88,-78 260.38,-78 260.38,-98.75"/>
<text text-anchor="middle" x="200.62" y="-85.25" font-family="Helvetica,sans-Serif" font-size="10.00">cuda_gemv_f32_stub</text>
</a>
</g>
</g>
<!-- Node1&#45;&gt;Node5 -->
<g id="edge4_Node000001_Node000005" class="edge">
<title>Node1&#45;&gt;Node5</title>
<g id="a_edge4_Node000001_Node000005"><a xlink:title=" ">
<path fill="none" stroke="#63b8ff" d="M94.32,-103.65C105.34,-102.06 117.35,-100.31 129.18,-98.6"/>
<polygon fill="#63b8ff" stroke="#63b8ff" points="129.54,-102.08 138.93,-97.18 128.53,-95.15 129.54,-102.08"/>
</a>
</g>
</g>
<!-- Node6 -->
<g id="Node000006" class="node">
<title>Node6</title>
<g id="a_Node000006"><a xlink:href="ie__device__common_8c.html#a917925724f117893e02930b1df41c2fd" target="_top" xlink:title="CUDA memcpy stub (unimplemented).">
<polygon fill="white" stroke="#666666" points="257.38,-59.75 143.88,-59.75 143.88,-39 257.38,-39 257.38,-59.75"/>
<text text-anchor="middle" x="200.62" y="-46.25" font-family="Helvetica,sans-Serif" font-size="10.00">cuda_memcpy_stub</text>
</a>
</g>
</g>
<!-- Node1&#45;&gt;Node6 -->
<g id="edge5_Node000001_Node000006" class="edge">
<title>Node1&#45;&gt;Node6</title>
<g id="a_edge5_Node000001_Node000006"><a xlink:title=" ">
<path fill="none" stroke="#63b8ff" d="M67.09,-99.57C83.43,-90.63 107.76,-78.05 130,-69.38 135.28,-67.32 140.87,-65.36 146.48,-63.54"/>
<polygon fill="#63b8ff" stroke="#63b8ff" points="147.28,-66.96 155.79,-60.65 145.2,-60.27 147.28,-66.96"/>
</a>
</g>
</g>
<!-- Node7 -->
<g id="Node000007" class="node">
<title>Node7</title>
<g id="a_Node000007"><a xlink:href="ie__device__common_8c.html#a5b5f48338cddd2bed011b4c2384bac25" target="_top" xlink:title="Try opening one of a list of shared objects.">
<polygon fill="white" stroke="#666666" points="241.62,-20.75 159.62,-20.75 159.62,0 241.62,0 241.62,-20.75"/>
<text text-anchor="middle" x="200.62" y="-7.25" font-family="Helvetica,sans-Serif" font-size="10.00">try_open_any</text>
</a>
</g>
</g>
<!-- Node1&#45;&gt;Node7 -->
<g id="edge6_Node000001_Node000007" class="edge">
<title>Node1&#45;&gt;Node7</title>
<g id="a_edge6_Node000001_Node000007"><a xlink:title=" ">
<path fill="none" stroke="#63b8ff" d="M56.08,-99.59C69.53,-82.41 98.19,-48.86 130,-30.38 135.71,-27.06 142.01,-24.26 148.42,-21.9"/>
<polygon fill="#63b8ff" stroke="#63b8ff" points="149.37,-25.28 157.77,-18.83 147.18,-18.63 149.37,-25.28"/>
</a>
</g>
</g>
</g>
</svg>
</svg>

<style type='text/css'>
<![CDATA[
[data-mouse-over-selected='false'] { opacity: 0.7; }
[data-mouse-over-selected='true']  { opacity: 1.0; }
]]>
</style>
<script type="application/ecmascript"><![CDATA[
document.addEventListener('DOMContentLoaded', (event) => {
  highlightEdges();
  highlightAdjacentNodes();
});
]]></script>
</svg>
