<?xml version="1.0" encoding="UTF-8" standalone="no"?>
<!DOCTYPE svg PUBLIC "-//W3C//DTD SVG 1.1//EN"
 "http://www.w3.org/Graphics/SVG/1.1/DTD/svg11.dtd">
<!-- Generated by graphviz version 12.2.1 (20241206.2353)
 -->
<!-- Title: ie_dequantize_act_fp8 Pages: 1 -->
<svg width="289pt" height="68pt"
 viewBox="0.00 0.00 289.00 67.75" xmlns="http://www.w3.org/2000/svg" xmlns:xlink="http://www.w3.org/1999/xlink">
<g id="graph0" class="graph" transform="scale(1 1) rotate(0) translate(4 63.75)">
<title>ie_dequantize_act_fp8</title>
<!-- Node1 -->
<g id="Node000001" class="node">
<title>Node1</title>
<g id="a_Node000001"><a xlink:title="Dequantize FP8 bytes to floats (E4M3 or E5M2).">
<polygon fill="#999999" stroke="#666666" points="125.5,-39.75 0,-39.75 0,-19 125.5,-19 125.5,-39.75"/>
<text text-anchor="middle" x="62.75" y="-26.25" font-family="Helvetica,sans-Serif" font-size="10.00">ie_dequantize_act_fp8</text>
</a>
</g>
</g>
<!-- Node2 -->
<g id="Node000002" class="node">
<title>Node2</title>
<g id="a_Node000002"><a xlink:href="act__fp8_8c.html#a52bd1c6672e488e69c328a8462a03638" target="_top" xlink:title=" ">
<polygon fill="white" stroke="#666666" points="281,-59.75 161.5,-59.75 161.5,-39 281,-39 281,-59.75"/>
<text text-anchor="middle" x="221.25" y="-46.25" font-family="Helvetica,sans-Serif" font-size="10.00">ie_unpack_fp8_e4m3</text>
</a>
</g>
</g>
<!-- Node1&#45;&gt;Node2 -->
<g id="edge1_Node000001_Node000002" class="edge">
<title>Node1&#45;&gt;Node2</title>
<g id="a_edge1_Node000001_Node000002"><a xlink:title=" ">
<path fill="none" stroke="#63b8ff" d="M125.6,-37.28C133.56,-38.3 141.75,-39.34 149.83,-40.38"/>
<polygon fill="#63b8ff" stroke="#63b8ff" points="149.28,-43.83 159.64,-41.63 150.17,-36.89 149.28,-43.83"/>
</a>
</g>
</g>
<!-- Node3 -->
<g id="Node000003" class="node">
<title>Node3</title>
<g id="a_Node000003"><a xlink:href="act__fp8_8c.html#a8980ac38b93f25c750abde5ec521b4d1" target="_top" xlink:title=" ">
<polygon fill="white" stroke="#666666" points="281,-20.75 161.5,-20.75 161.5,0 281,0 281,-20.75"/>
<text text-anchor="middle" x="221.25" y="-7.25" font-family="Helvetica,sans-Serif" font-size="10.00">ie_unpack_fp8_e5m2</text>
</a>
</g>
</g>
<!-- Node1&#45;&gt;Node3 -->
<g id="edge2_Node000001_Node000003" class="edge">
<title>Node1&#45;&gt;Node3</title>
<g id="a_edge2_Node000001_Node000003"><a xlink:title=" ">
<path fill="none" stroke="#63b8ff" d="M125.6,-21.87C133.56,-20.9 141.75,-19.91 149.83,-18.92"/>
<polygon fill="#63b8ff" stroke="#63b8ff" points="150.14,-22.41 159.64,-17.73 149.29,-15.46 150.14,-22.41"/>
</a>
</g>
</g>
</g>
</svg>
