<?xml version="1.0" encoding="UTF-8" standalone="no"?>
<!DOCTYPE svg PUBLIC "-//W3C//DTD SVG 1.1//EN"
 "http://www.w3.org/Graphics/SVG/1.1/DTD/svg11.dtd">
<!-- Generated by graphviz version 2.43.0 (0)
 -->
<!-- Title: engine/include/ie_quant.h Pages: 1 -->
<svg width="270pt" height="93pt"
 viewBox="0.00 0.00 269.50 93.00" xmlns="http://www.w3.org/2000/svg" xmlns:xlink="http://www.w3.org/1999/xlink">
<g id="graph0" class="graph" transform="scale(1 1) rotate(0) translate(4 89)">
<title>engine/include/ie_quant.h</title>
<!-- Node1 -->
<g id="Node000001" class="node">
<title>Node1</title>
<g id="a_Node000001"><a xlink:title="Post&#45;Training Quantization (PTQ) helpers for INT8 weight&#45;only paths.">
<polygon fill="#999999" stroke="#666666" points="200.5,-85 58.5,-85 58.5,-66 200.5,-66 200.5,-85"/>
<text text-anchor="middle" x="129.5" y="-73" font-family="Helvetica,sans-Serif" font-size="10.00">engine/include/ie_quant.h</text>
</a>
</g>
</g>
<!-- Node2 -->
<g id="Node000002" class="node">
<title>Node2</title>
<g id="a_Node000002"><a xlink:href="int8__ptq_8c.html" target="_top" xlink:title="Implementation of INT8 PTQ min&#45;max scaling and (de)quantization.">
<polygon fill="white" stroke="#666666" points="119,-30 0,-30 0,0 119,0 119,-30"/>
<text text-anchor="start" x="8" y="-18" font-family="Helvetica,sans-Serif" font-size="10.00">engine/src/quant/int8</text>
<text text-anchor="middle" x="59.5" y="-7" font-family="Helvetica,sans-Serif" font-size="10.00">_ptq.c</text>
</a>
</g>
</g>
<!-- Node1&#45;&gt;Node2 -->
<g id="edge1_Node000001_Node000002" class="edge">
<title>Node1&#45;&gt;Node2</title>
<g id="a_edge1_Node000001_Node000002"><a xlink:title=" ">
<path fill="none" stroke="#63b8ff" d="M111.23,-59.23C100.46,-50.23 86.92,-38.91 76.39,-30.11"/>
<polygon fill="#63b8ff" stroke="#63b8ff" points="109.25,-62.14 119.17,-65.87 113.74,-56.77 109.25,-62.14"/>
</a>
</g>
</g>
<!-- Node3 -->
<g id="Node000003" class="node">
<title>Node3</title>
<g id="a_Node000003"><a xlink:href="test__int8__ptq_8c.html" target="_top" xlink:title="C unit tests for INT8 PTQ min&#45;max scaling and (de)quantization.">
<polygon fill="white" stroke="#666666" points="261.5,-24.5 137.5,-24.5 137.5,-5.5 261.5,-5.5 261.5,-24.5"/>
<text text-anchor="middle" x="199.5" y="-12.5" font-family="Helvetica,sans-Serif" font-size="10.00">tests/c/test_int8_ptq.c</text>
</a>
</g>
</g>
<!-- Node1&#45;&gt;Node3 -->
<g id="edge2_Node000001_Node000003" class="edge">
<title>Node1&#45;&gt;Node3</title>
<g id="a_edge2_Node000001_Node000003"><a xlink:title=" ">
<path fill="none" stroke="#63b8ff" d="M147.78,-59.22C160.95,-48.21 178.26,-33.75 189.13,-24.67"/>
<polygon fill="#63b8ff" stroke="#63b8ff" points="145.26,-56.77 139.83,-65.87 149.75,-62.14 145.26,-56.77"/>
</a>
</g>
</g>
</g>
</svg>
