<?xml version="1.0" encoding="UTF-8" standalone="no"?>
<!DOCTYPE svg PUBLIC "-//W3C//DTD SVG 1.1//EN"
 "http://www.w3.org/Graphics/SVG/1.1/DTD/svg11.dtd">
<!-- Generated by graphviz version 2.43.0 (0)
 -->
<!-- Title: ie_batcher_create Pages: 1 -->
<svg width="389pt" height="113pt"
 viewBox="0.00 0.00 389.00 112.50" xmlns="http://www.w3.org/2000/svg" xmlns:xlink="http://www.w3.org/1999/xlink">
<g id="graph0" class="graph" transform="scale(1 1) rotate(0) translate(4 108.5)">
<title>ie_batcher_create</title>
<!-- Node1 -->
<g id="Node000001" class="node">
<title>Node1</title>
<g id="a_Node000001"><a xlink:title="Create a new asynchronous tokenizer batcher.">
<polygon fill="#999999" stroke="#666666" points="104,-57 0,-57 0,-38 104,-38 104,-57"/>
<text text-anchor="middle" x="52" y="-45" font-family="Helvetica,sans-Serif" font-size="10.00">ie_batcher_create</text>
</a>
</g>
</g>
<!-- Node2 -->
<g id="Node000002" class="node">
<title>Node2</title>
<g id="a_Node000002"><a xlink:href="ie__device__cuda_8cu.html#a5e3d9fee84981707669f5c2398f0c4ab" target="_top" xlink:title="Row&#45;wise GEMV kernel: each thread computes one output row.">
<polygon fill="white" stroke="#666666" points="381,-104.5 256,-104.5 256,-74.5 381,-74.5 381,-104.5"/>
<text text-anchor="start" x="264" y="-92.5" font-family="Helvetica,sans-Serif" font-size="10.00">ie_gemv_rowwise_f32</text>
<text text-anchor="middle" x="318.5" y="-81.5" font-family="Helvetica,sans-Serif" font-size="10.00">_kernel</text>
</a>
</g>
</g>
<!-- Node1&#45;&gt;Node2 -->
<g id="edge1_Node000001_Node000002" class="edge">
<title>Node1&#45;&gt;Node2</title>
<g id="a_edge1_Node000001_Node000002"><a xlink:title=" ">
<path fill="none" stroke="#63b8ff" d="M93.14,-57.02C107.83,-60.31 124.62,-63.83 140,-66.5 174.53,-72.5 213.09,-77.67 245.43,-81.59"/>
<polygon fill="#63b8ff" stroke="#63b8ff" points="245.35,-85.11 255.69,-82.82 246.18,-78.15 245.35,-85.11"/>
</a>
</g>
</g>
<!-- Node3 -->
<g id="Node000003" class="node">
<title>Node3</title>
<g id="a_Node000003"><a xlink:href="ie__batcher_8c.html#ab50c928126740940413626fd7ab7ce72" target="_top" xlink:title="Producer thread entry: tokenizes prompts in ascending index order.">
<polygon fill="white" stroke="#666666" points="220,-57 140,-57 140,-38 220,-38 220,-57"/>
<text text-anchor="middle" x="180" y="-45" font-family="Helvetica,sans-Serif" font-size="10.00">worker_main</text>
</a>
</g>
</g>
<!-- Node1&#45;&gt;Node3 -->
<g id="edge2_Node000001_Node000003" class="edge">
<title>Node1&#45;&gt;Node3</title>
<g id="a_edge2_Node000001_Node000003"><a xlink:title=" ">
<path fill="none" stroke="#63b8ff" d="M104.25,-47.5C112.68,-47.5 121.4,-47.5 129.77,-47.5"/>
<polygon fill="#63b8ff" stroke="#63b8ff" points="129.78,-51 139.78,-47.5 129.78,-44 129.78,-51"/>
</a>
</g>
</g>
<!-- Node6 -->
<g id="Node000006" class="node">
<title>Node6</title>
<g id="a_Node000006"><a xlink:href="ie__batcher_8c.html#a981c4f4b5894b549eb0b2f0358810c67" target="_top" xlink:title="calloc wrapper (zero&#45;initialized).">
<polygon fill="white" stroke="#666666" points="205.5,-20 154.5,-20 154.5,-1 205.5,-1 205.5,-20"/>
<text text-anchor="middle" x="180" y="-8" font-family="Helvetica,sans-Serif" font-size="10.00">xcalloc</text>
</a>
</g>
</g>
<!-- Node1&#45;&gt;Node6 -->
<g id="edge6_Node000001_Node000006" class="edge">
<title>Node1&#45;&gt;Node6</title>
<g id="a_edge6_Node000001_Node000006"><a xlink:title=" ">
<path fill="none" stroke="#63b8ff" d="M85.45,-37.97C103.54,-32.66 126.06,-26.05 144.47,-20.64"/>
<polygon fill="#63b8ff" stroke="#63b8ff" points="145.61,-23.95 154.22,-17.78 143.64,-17.24 145.61,-23.95"/>
</a>
</g>
</g>
<!-- Node3&#45;&gt;Node2 -->
<g id="edge4_Node000003_Node000002" class="edge">
<title>Node3&#45;&gt;Node2</title>
<g id="a_edge4_Node000003_Node000002"><a xlink:title=" ">
<path fill="none" stroke="#63b8ff" d="M211.97,-57.03C225.85,-61.3 242.69,-66.48 258.8,-71.44"/>
<polygon fill="#63b8ff" stroke="#63b8ff" points="258.12,-74.89 268.71,-74.49 260.18,-68.2 258.12,-74.89"/>
</a>
</g>
</g>
<!-- Node4 -->
<g id="Node000004" class="node">
<title>Node4</title>
<g id="a_Node000004"><a xlink:href="ie__batcher_8c.html#a9475e6883ae67815581f9573b97d2148" target="_top" xlink:title="Enqueue a tokenized item into the ring (blocks if full).">
<polygon fill="white" stroke="#666666" points="361.5,-56 275.5,-56 275.5,-37 361.5,-37 361.5,-56"/>
<text text-anchor="middle" x="318.5" y="-44" font-family="Helvetica,sans-Serif" font-size="10.00">enqueue_item</text>
</a>
</g>
</g>
<!-- Node3&#45;&gt;Node4 -->
<g id="edge3_Node000003_Node000004" class="edge">
<title>Node3&#45;&gt;Node4</title>
<g id="a_edge3_Node000003_Node000004"><a xlink:title=" ">
<path fill="none" stroke="#63b8ff" d="M220.12,-47.21C234.07,-47.11 250.02,-46.99 264.92,-46.89"/>
<polygon fill="#63b8ff" stroke="#63b8ff" points="265.06,-50.38 275.03,-46.81 265.01,-43.38 265.06,-50.38"/>
</a>
</g>
</g>
<!-- Node5 -->
<g id="Node000005" class="node">
<title>Node5</title>
<g id="a_Node000005"><a xlink:href="ie__batcher_8c.html#a691ff39201d7e90e9808bf7f5ddb2cb8" target="_top" xlink:title="Thread&#45;safe fetch of the next prompt index to process.">
<polygon fill="white" stroke="#666666" points="349.5,-19 287.5,-19 287.5,0 349.5,0 349.5,-19"/>
<text text-anchor="middle" x="318.5" y="-7" font-family="Helvetica,sans-Serif" font-size="10.00">pop_next</text>
</a>
</g>
</g>
<!-- Node3&#45;&gt;Node5 -->
<g id="edge5_Node000003_Node000005" class="edge">
<title>Node3&#45;&gt;Node5</title>
<g id="a_edge5_Node000003_Node000005"><a xlink:title=" ">
<path fill="none" stroke="#63b8ff" d="M215.44,-37.91C234.28,-32.67 257.7,-26.15 277.36,-20.68"/>
<polygon fill="#63b8ff" stroke="#63b8ff" points="278.55,-23.98 287.25,-17.92 276.68,-17.23 278.55,-23.98"/>
</a>
</g>
</g>
</g>
</svg>
