<?xml version="1.0" encoding="UTF-8" standalone="no"?>
<!DOCTYPE svg PUBLIC "-//W3C//DTD SVG 1.1//EN"
 "http://www.w3.org/Graphics/SVG/1.1/DTD/svg11.dtd">
<!-- Generated by graphviz version 12.2.1 (20241206.2353)
 -->
<!-- Title: ie_dequantize_act_int8_per_group Pages: 1 -->
<svg width="362pt" height="42pt"
 viewBox="0.00 0.00 362.00 41.50" xmlns="http://www.w3.org/2000/svg" xmlns:xlink="http://www.w3.org/1999/xlink">
<g id="graph0" class="graph" transform="scale(1 1) rotate(0) translate(4 37.5)">
<title>ie_dequantize_act_int8_per_group</title>
<!-- Node1 -->
<g id="Node000001" class="node">
<title>Node1</title>
<g id="a_Node000001"><a xlink:title="Dequantize per&#45;group INT8 activations to float.">
<polygon fill="#999999" stroke="#666666" points="354,-33.5 225.5,-33.5 225.5,0 354,0 354,-33.5"/>
<text text-anchor="start" x="233.5" y="-20" font-family="Helvetica,sans-Serif" font-size="10.00">ie_dequantize_act_int8</text>
<text text-anchor="middle" x="289.75" y="-7.25" font-family="Helvetica,sans-Serif" font-size="10.00">_per_group</text>
</a>
</g>
</g>
<!-- Node2 -->
<g id="Node000002" class="node">
<title>Node2</title>
<g id="a_Node000002"><a xlink:href="test__act__quant_8c.html#a21e36220792f5bceb2c110dc45605c5e" target="_top" xlink:title=" ">
<polygon fill="white" stroke="#666666" points="189.5,-27.12 76.75,-27.12 76.75,-6.38 189.5,-6.38 189.5,-27.12"/>
<text text-anchor="middle" x="133.12" y="-13.62" font-family="Helvetica,sans-Serif" font-size="10.00">test_int8_per_group</text>
</a>
</g>
</g>
<!-- Node1&#45;&gt;Node2 -->
<g id="edge1_Node000001_Node000002" class="edge">
<title>Node1&#45;&gt;Node2</title>
<g id="a_edge1_Node000001_Node000002"><a xlink:title=" ">
<path fill="none" stroke="#63b8ff" d="M213.93,-16.75C205.76,-16.75 197.56,-16.75 189.69,-16.75"/>
<polygon fill="#63b8ff" stroke="#63b8ff" points="213.9,-20.25 223.9,-16.75 213.9,-13.25 213.9,-20.25"/>
</a>
</g>
</g>
<!-- Node3 -->
<g id="Node000003" class="node">
<title>Node3</title>
<g id="a_Node000003"><a xlink:href="test__act__quant_8c.html#a840291bc02cba5474a4cb46a9b9566fe" target="_top" xlink:title=" ">
<polygon fill="white" stroke="#666666" points="40.75,-27.12 0,-27.12 0,-6.38 40.75,-6.38 40.75,-27.12"/>
<text text-anchor="middle" x="20.38" y="-13.62" font-family="Helvetica,sans-Serif" font-size="10.00">main</text>
</a>
</g>
</g>
<!-- Node2&#45;&gt;Node3 -->
<g id="edge2_Node000002_Node000003" class="edge">
<title>Node2&#45;&gt;Node3</title>
<g id="a_edge2_Node000002_Node000003"><a xlink:title=" ">
<path fill="none" stroke="#63b8ff" d="M65.18,-16.75C56.42,-16.75 48.06,-16.75 41.04,-16.75"/>
<polygon fill="#63b8ff" stroke="#63b8ff" points="64.91,-20.25 74.91,-16.75 64.91,-13.25 64.91,-20.25"/>
</a>
</g>
</g>
</g>
</svg>
