<?xml version="1.0" encoding="UTF-8" standalone="no"?>
<!DOCTYPE svg PUBLIC "-//W3C//DTD SVG 1.1//EN"
 "http://www.w3.org/Graphics/SVG/1.1/DTD/svg11.dtd">
<!-- Generated by graphviz version 2.43.0 (0)
 -->
<!-- Title: ie_dequantize_act_int8 Pages: 1 -->
<svg width="366pt" height="64pt"
 viewBox="0.00 0.00 366.00 64.00" xmlns="http://www.w3.org/2000/svg" xmlns:xlink="http://www.w3.org/1999/xlink">
<g id="graph0" class="graph" transform="scale(1 1) rotate(0) translate(4 60)">
<title>ie_dequantize_act_int8</title>
<!-- Node1 -->
<g id="Node000001" class="node">
<title>Node1</title>
<g id="a_Node000001"><a xlink:title="Dequantize INT8 activations to fp32 using per&#45;tensor parameters.">
<polygon fill="#999999" stroke="#666666" points="358,-37 229,-37 229,-18 358,-18 358,-37"/>
<text text-anchor="middle" x="293.5" y="-25" font-family="Helvetica,sans-Serif" font-size="10.00">ie_dequantize_act_int8</text>
</a>
</g>
</g>
<!-- Node2 -->
<g id="Node000002" class="node">
<title>Node2</title>
<g id="a_Node000002"><a xlink:href="microbench__act__path_8c.html#aa8d8e89d147a706279cd7995fcc08571" target="_top" xlink:title=" ">
<polygon fill="white" stroke="#666666" points="170,-56 100,-56 100,-37 170,-37 170,-56"/>
<text text-anchor="middle" x="135" y="-44" font-family="Helvetica,sans-Serif" font-size="10.00">bench_int8</text>
</a>
</g>
</g>
<!-- Node1&#45;&gt;Node2 -->
<g id="edge1_Node000001_Node000002" class="edge">
<title>Node1&#45;&gt;Node2</title>
<g id="a_edge1_Node000001_Node000002"><a xlink:title=" ">
<path fill="none" stroke="#63b8ff" d="M218.85,-36.44C201.77,-38.51 184.4,-40.62 170.01,-42.37"/>
<polygon fill="#63b8ff" stroke="#63b8ff" points="219.34,-39.91 228.85,-35.23 218.5,-32.96 219.34,-39.91"/>
</a>
</g>
</g>
<!-- Node4 -->
<g id="Node000004" class="node">
<title>Node4</title>
<g id="a_Node000004"><a xlink:href="test__act__quant_8c.html#a83ac16910c5fbcf8d045ba1a01bc2604" target="_top" xlink:title=" ">
<polygon fill="white" stroke="#666666" points="193,-19 77,-19 77,0 193,0 193,-19"/>
<text text-anchor="middle" x="135" y="-7" font-family="Helvetica,sans-Serif" font-size="10.00">test_int8_per_tensor</text>
</a>
</g>
</g>
<!-- Node1&#45;&gt;Node4 -->
<g id="edge3_Node000001_Node000004" class="edge">
<title>Node1&#45;&gt;Node4</title>
<g id="a_edge3_Node000001_Node000004"><a xlink:title=" ">
<path fill="none" stroke="#63b8ff" d="M218.76,-19.02C210.13,-18.03 201.42,-17.02 193.05,-16.06"/>
<polygon fill="#63b8ff" stroke="#63b8ff" points="218.51,-22.51 228.85,-20.18 219.31,-15.56 218.51,-22.51"/>
</a>
</g>
</g>
<!-- Node3 -->
<g id="Node000003" class="node">
<title>Node3</title>
<g id="a_Node000003"><a xlink:href="microbench__act__path_8c.html#a3c04138a5bfe5d72780bb7e82a18e627" target="_top" xlink:title=" ">
<polygon fill="white" stroke="#666666" points="41,-56 0,-56 0,-37 41,-37 41,-56"/>
<text text-anchor="middle" x="20.5" y="-44" font-family="Helvetica,sans-Serif" font-size="10.00">main</text>
</a>
</g>
</g>
<!-- Node2&#45;&gt;Node3 -->
<g id="edge2_Node000002_Node000003" class="edge">
<title>Node2&#45;&gt;Node3</title>
<g id="a_edge2_Node000002_Node000003"><a xlink:title=" ">
<path fill="none" stroke="#63b8ff" d="M89.69,-46.5C72.83,-46.5 54.47,-46.5 41.05,-46.5"/>
<polygon fill="#63b8ff" stroke="#63b8ff" points="89.94,-50 99.94,-46.5 89.94,-43 89.94,-50"/>
</a>
</g>
</g>
<!-- Node5 -->
<g id="Node000005" class="node">
<title>Node5</title>
<g id="a_Node000005"><a xlink:href="test__act__quant_8c.html#a840291bc02cba5474a4cb46a9b9566fe" target="_top" xlink:title=" ">
<polygon fill="white" stroke="#666666" points="41,-19 0,-19 0,0 41,0 41,-19"/>
<text text-anchor="middle" x="20.5" y="-7" font-family="Helvetica,sans-Serif" font-size="10.00">main</text>
</a>
</g>
</g>
<!-- Node4&#45;&gt;Node5 -->
<g id="edge4_Node000004_Node000005" class="edge">
<title>Node4&#45;&gt;Node5</title>
<g id="a_edge4_Node000004_Node000005"><a xlink:title=" ">
<path fill="none" stroke="#63b8ff" d="M66.62,-9.5C57.37,-9.5 48.55,-9.5 41.19,-9.5"/>
<polygon fill="#63b8ff" stroke="#63b8ff" points="66.76,-13 76.76,-9.5 66.76,-6 66.76,-13"/>
</a>
</g>
</g>
</g>
</svg>
