<?xml version="1.0" encoding="UTF-8" standalone="no"?>
<!DOCTYPE svg PUBLIC "-//W3C//DTD SVG 1.1//EN"
 "http://www.w3.org/Graphics/SVG/1.1/DTD/svg11.dtd">
<!-- Generated by graphviz version 2.43.0 (0)
 -->
<!-- Title: pop_next Pages: 1 -->
<!--zoomable 124 -->

<svg id="main" version="1.1" xmlns="http://www.w3.org/2000/svg" xmlns:xlink="http://www.w3.org/1999/xlink" xml:space="preserve" onload="init(evt)">
<style type="text/css"><![CDATA[
.node, .edge {opacity: 0.7;}
.node.selected, .edge.selected {opacity: 1;}
.edge:hover path { stroke: red; }
.edge:hover polygon { stroke: red; fill: red; }
]]></style>

<defs>
  <circle id="rim" cx="0" cy="0" r="7"/>
  <circle id="rim2" cx="0" cy="0" r="3.5"/>
  <g id="zoomPlus">
    <use xlink:href="#rim" fill="#404040"><set attributeName="fill" to="#808080" begin="zoomplus.mouseover" end="zoomplus.mouseout"/></use>
    <path d="M-4,0h8M0,-4v8" fill="none" stroke="white" stroke-width="1.5" pointer-events="none"/>
  </g>
  <g id="zoomMin">
    <use xlink:href="#rim" fill="#404040"><set attributeName="fill" to="#808080" begin="zoomminus.mouseover" end="zoomminus.mouseout"/></use>
    <path d="M-4,0h8" fill="none" stroke="white" stroke-width="1.5" pointer-events="none"/>
  </g>
  <g id="arrowUp" transform="translate(30 24)">
    <use xlink:href="#rim"/>
    <path pointer-events="none" fill="none" stroke="white" stroke-width="1.5" d="M0,-3.0v7 M-2.5,-0.5L0,-3.0L2.5,-0.5"/>
  </g>
  <g id="arrowRight" transform="rotate(90) translate(36 -43)">
    <use xlink:href="#rim"/>
    <path pointer-events="none" fill="none" stroke="white" stroke-width="1.5" d="M0,-3.0v7 M-2.5,-0.5L0,-3.0L2.5,-0.5"/>
  </g>
  <g id="arrowDown" transform="rotate(180) translate(-30 -48)">
    <use xlink:href="#rim"/>
    <path pointer-events="none" fill="none" stroke="white" stroke-width="1.5" d="M0,-3.0v7 M-2.5,-0.5L0,-3.0L2.5,-0.5"/>
  </g>
  <g id="arrowLeft" transform="rotate(270) translate(-36 17)">
    <use xlink:href="#rim"/>
    <path pointer-events="none" fill="none" stroke="white" stroke-width="1.5" d="M0,-3.0v7 M-2.5,-0.5L0,-3.0L2.5,-0.5"/>
  </g>
  <g id="resetDef">
    <use xlink:href="#rim2" fill="#404040"><set attributeName="fill" to="#808080" begin="reset.mouseover" end="reset.mouseout"/></use>
  </g>
</defs>
<script type="application/ecmascript">
var viewWidth = 562;
var viewHeight = 124;
var sectionId = 'dynsection-11';
</script>
<script type="application/ecmascript" xlink:href="svg.min.js"/>
<svg id="graph" class="graph">
<g id="viewport">
<title>pop_next</title>
<!-- Node1 -->
<g id="Node000001" class="node">
<title>Node1</title>
<g id="a_Node000001"><a xlink:title="Thread&#45;safe fetch of the next prompt index to process.">
<polygon fill="#999999" stroke="#666666" points="554,-67.5 492,-67.5 492,-48.5 554,-48.5 554,-67.5"/>
<text text-anchor="middle" x="523" y="-55.5" font-family="Helvetica,sans-Serif" font-size="10.00">pop_next</text>
</a>
</g>
</g>
<!-- Node2 -->
<g id="Node000002" class="node">
<title>Node2</title>
<g id="a_Node000002"><a xlink:href="ie__batcher_8c.html#ab50c928126740940413626fd7ab7ce72" target="_top" xlink:title="Producer thread entry: tokenizes prompts in ascending index order.">
<polygon fill="white" stroke="#666666" points="456,-67.5 376,-67.5 376,-48.5 456,-48.5 456,-67.5"/>
<text text-anchor="middle" x="416" y="-55.5" font-family="Helvetica,sans-Serif" font-size="10.00">worker_main</text>
</a>
</g>
</g>
<!-- Node1&#45;&gt;Node2 -->
<g id="edge1_Node000001_Node000002" class="edge">
<title>Node1&#45;&gt;Node2</title>
<g id="a_edge1_Node000001_Node000002"><a xlink:title=" ">
<path fill="none" stroke="#63b8ff" d="M481.89,-58C473.44,-58 464.53,-58 456.11,-58"/>
<polygon fill="#63b8ff" stroke="#63b8ff" points="481.91,-61.5 491.91,-58 481.91,-54.5 481.91,-61.5"/>
</a>
</g>
</g>
<!-- Node3 -->
<g id="Node000003" class="node">
<title>Node3</title>
<g id="a_Node000003"><a xlink:href="ie__batcher_8c.html#ab201d312c4f0fa59e31e99e221bd71f6" target="_top" xlink:title="Create a new asynchronous tokenizer batcher.">
<polygon fill="white" stroke="#666666" points="340,-67.5 236,-67.5 236,-48.5 340,-48.5 340,-67.5"/>
<text text-anchor="middle" x="288" y="-55.5" font-family="Helvetica,sans-Serif" font-size="10.00">ie_batcher_create</text>
</a>
</g>
</g>
<!-- Node2&#45;&gt;Node3 -->
<g id="edge2_Node000002_Node000003" class="edge">
<title>Node2&#45;&gt;Node3</title>
<g id="a_edge2_Node000002_Node000003"><a xlink:title=" ">
<path fill="none" stroke="#63b8ff" d="M365.79,-58C357.4,-58 348.66,-58 340.21,-58"/>
<polygon fill="#63b8ff" stroke="#63b8ff" points="365.82,-61.5 375.82,-58 365.82,-54.5 365.82,-61.5"/>
</a>
</g>
</g>
<!-- Node4 -->
<g id="Node000004" class="node">
<title>Node4</title>
<g id="a_Node000004"><a xlink:href="test__batcher_8c.html#a840a5fb06d03045c6f4e645ed682b7ad" target="_top" xlink:title="Validate basic prefetch, ordering, microbatch slicing and draining.">
<polygon fill="white" stroke="#666666" points="194.5,-116 82.5,-116 82.5,-86 194.5,-86 194.5,-116"/>
<text text-anchor="start" x="90.5" y="-104" font-family="Helvetica,sans-Serif" font-size="10.00">test_basic_prefetch</text>
<text text-anchor="middle" x="138.5" y="-93" font-family="Helvetica,sans-Serif" font-size="10.00">_and_order</text>
</a>
</g>
</g>
<!-- Node3&#45;&gt;Node4 -->
<g id="edge3_Node000003_Node000004" class="edge">
<title>Node3&#45;&gt;Node4</title>
<g id="a_edge3_Node000003_Node000004"><a xlink:title=" ">
<path fill="none" stroke="#63b8ff" d="M244.27,-70.46C227.62,-75.31 208.38,-80.92 190.98,-85.99"/>
<polygon fill="#63b8ff" stroke="#63b8ff" points="245.64,-73.7 254.26,-67.54 243.69,-66.98 245.64,-73.7"/>
</a>
</g>
</g>
<!-- Node6 -->
<g id="Node000006" class="node">
<title>Node6</title>
<g id="a_Node000006"><a xlink:href="test__batcher_8c.html#acebcf748df4676af1488302913dcc33e" target="_top" xlink:title="Validate graceful teardown: destroy after partial consumption.">
<polygon fill="white" stroke="#666666" points="200,-67.5 77,-67.5 77,-48.5 200,-48.5 200,-67.5"/>
<text text-anchor="middle" x="138.5" y="-55.5" font-family="Helvetica,sans-Serif" font-size="10.00">test_partial_teardown</text>
</a>
</g>
</g>
<!-- Node3&#45;&gt;Node6 -->
<g id="edge5_Node000003_Node000006" class="edge">
<title>Node3&#45;&gt;Node6</title>
<g id="a_edge5_Node000003_Node000006"><a xlink:title=" ">
<path fill="none" stroke="#63b8ff" d="M225.7,-58C217.28,-58 208.63,-58 200.22,-58"/>
<polygon fill="#63b8ff" stroke="#63b8ff" points="225.83,-61.5 235.83,-58 225.83,-54.5 225.83,-61.5"/>
</a>
</g>
</g>
<!-- Node7 -->
<g id="Node000007" class="node">
<title>Node7</title>
<g id="a_Node000007"><a xlink:href="test__batcher_8c.html#ae1015c7a7a149612ed323d43e7c93a0c" target="_top" xlink:title="Validate ring wrap behavior (tail truncation) and view sizes.">
<polygon fill="white" stroke="#666666" points="196.5,-30 80.5,-30 80.5,0 196.5,0 196.5,-30"/>
<text text-anchor="start" x="88.5" y="-18" font-family="Helvetica,sans-Serif" font-size="10.00">test_wrap_and_view</text>
<text text-anchor="middle" x="138.5" y="-7" font-family="Helvetica,sans-Serif" font-size="10.00">_limits</text>
</a>
</g>
</g>
<!-- Node3&#45;&gt;Node7 -->
<g id="edge7_Node000003_Node000007" class="edge">
<title>Node3&#45;&gt;Node7</title>
<g id="a_edge7_Node000003_Node000007"><a xlink:title=" ">
<path fill="none" stroke="#63b8ff" d="M244.27,-45.54C227.62,-40.69 208.38,-35.08 190.98,-30.01"/>
<polygon fill="#63b8ff" stroke="#63b8ff" points="243.69,-49.02 254.26,-48.46 245.64,-42.3 243.69,-49.02"/>
</a>
</g>
</g>
<!-- Node5 -->
<g id="Node000005" class="node">
<title>Node5</title>
<g id="a_Node000005"><a xlink:href="test__batcher_8c.html#a840291bc02cba5474a4cb46a9b9566fe" target="_top" xlink:title=" ">
<polygon fill="white" stroke="#666666" points="41,-67.5 0,-67.5 0,-48.5 41,-48.5 41,-67.5"/>
<text text-anchor="middle" x="20.5" y="-55.5" font-family="Helvetica,sans-Serif" font-size="10.00">main</text>
</a>
</g>
</g>
<!-- Node4&#45;&gt;Node5 -->
<g id="edge4_Node000004_Node000005" class="edge">
<title>Node4&#45;&gt;Node5</title>
<g id="a_edge4_Node000004_Node000005"><a xlink:title=" ">
<path fill="none" stroke="#63b8ff" d="M87.42,-82.44C71.04,-76.36 53.8,-69.97 41.06,-65.25"/>
<polygon fill="#63b8ff" stroke="#63b8ff" points="86.34,-85.77 96.93,-85.96 88.77,-79.2 86.34,-85.77"/>
</a>
</g>
</g>
<!-- Node6&#45;&gt;Node5 -->
<g id="edge6_Node000006_Node000005" class="edge">
<title>Node6&#45;&gt;Node5</title>
<g id="a_edge6_Node000006_Node000005"><a xlink:title=" ">
<path fill="none" stroke="#63b8ff" d="M66.56,-58C57.26,-58 48.43,-58 41.1,-58"/>
<polygon fill="#63b8ff" stroke="#63b8ff" points="66.78,-61.5 76.78,-58 66.78,-54.5 66.78,-61.5"/>
</a>
</g>
</g>
<!-- Node7&#45;&gt;Node5 -->
<g id="edge8_Node000007_Node000005" class="edge">
<title>Node7&#45;&gt;Node5</title>
<g id="a_edge8_Node000007_Node000005"><a xlink:title=" ">
<path fill="none" stroke="#63b8ff" d="M87.42,-33.56C71.04,-39.64 53.8,-46.03 41.06,-50.75"/>
<polygon fill="#63b8ff" stroke="#63b8ff" points="88.77,-36.8 96.93,-30.04 86.34,-30.23 88.77,-36.8"/>
</a>
</g>
</g>
</g>
</svg>

<g id="navigator" transform="translate(0 0)" fill="#404254">
  <rect fill="#f2f5e9" fill-opacity="0.5" stroke="#606060" stroke-width=".5" x="0" y="0" width="60" height="60"/>
  <use id="zoomplus" xlink:href="#zoomPlus" x="17" y="9" onmousedown="handleZoom(evt,'in')"/>
  <use id="zoomminus" xlink:href="#zoomMin" x="42" y="9" onmousedown="handleZoom(evt,'out')"/>
  <use id="reset" xlink:href="#resetDef" x="30" y="36" onmousedown="handleReset()"/>
   <use id="arrowup" xlink:href="#arrowUp" x="0" y="0" onmousedown="handlePan(0,-1)"/>
  <use id="arrowright" xlink:href="#arrowRight" x="0" y="0" onmousedown="handlePan(1,0)"/>
  <use id="arrowdown" xlink:href="#arrowDown" x="0" y="0" onmousedown="handlePan(0,1)"/>
  <use id="arrowleft" xlink:href="#arrowLeft" x="0" y="0" onmousedown="handlePan(-1,0)"/>
</g>
<svg viewBox="0 0 15 15" width="100%" height="30px" preserveAspectRatio="xMaxYMin meet">
 <g id="arrow_out" transform="scale(0.3 0.3)">
  <a xlink:href="ie__batcher_8c_a691ff39201d7e90e9808bf7f5ddb2cb8_icgraph_org.svg" target="_base">
   <rect id="button" ry="5" rx="5" y="6" x="6" height="38" width="38"
        fill="#f2f5e9" fill-opacity="0.5" stroke="#606060" stroke-width="1.0"/>
   <path id="arrow"
     d="M 11.500037,31.436501 C 11.940474,20.09759 22.043105,11.32322 32.158766,21.979434 L 37.068811,17.246167 C 37.068811,17.246167 37.088388,32 37.088388,32 L 22.160133,31.978069 C 22.160133,31.978069 26.997745,27.140456 26.997745,27.140456 C 18.528582,18.264221 13.291696,25.230495 11.500037,31.436501 z"
     style="fill:#404040;"/>
  </a>
 </g>
</svg>

<style type='text/css'>
<![CDATA[
[data-mouse-over-selected='false'] { opacity: 0.7; }
[data-mouse-over-selected='true']  { opacity: 1.0; }
]]>
</style>
<script type="application/ecmascript"><![CDATA[
document.addEventListener('DOMContentLoaded', (event) => {
  highlightEdges();
  highlightAdjacentNodes();
});
]]></script>
</svg>
