<?xml version="1.0" encoding="UTF-8" standalone="no"?>
<!DOCTYPE svg PUBLIC "-//W3C//DTD SVG 1.1//EN"
 "http://www.w3.org/Graphics/SVG/1.1/DTD/svg11.dtd">
<!-- Generated by graphviz version 2.43.0 (0)
 -->
<!-- Title: engine/include/ie_threadpool.h Pages: 1 -->
<svg width="284pt" height="95pt"
 viewBox="0.00 0.00 283.50 95.00" xmlns="http://www.w3.org/2000/svg" xmlns:xlink="http://www.w3.org/1999/xlink">
<g id="graph0" class="graph" transform="scale(1 1) rotate(0) translate(4 91)">
<title>engine/include/ie_threadpool.h</title>
<!-- Node1 -->
<g id="node1" class="node">
<title>Node1</title>
<g id="a_node1"><a xlink:title="Minimal thread&#45;pool interface with optional Linux CPU affinity.">
<polygon fill="#bfbfbf" stroke="black" points="49.5,-67.5 49.5,-86.5 216.5,-86.5 216.5,-67.5 49.5,-67.5"/>
<text text-anchor="middle" x="133" y="-74.5" font-family="Helvetica,sans-Serif" font-size="10.00">engine/include/ie_threadpool.h</text>
</a>
</g>
</g>
<!-- Node2 -->
<g id="node2" class="node">
<title>Node2</title>
<g id="a_node2"><a xlink:href="thread__pool_8c.html" target="_top" xlink:title="Minimal thread pool with synchronous parallel&#45;for and optional Linux CPU affinity.">
<polygon fill="none" stroke="black" points="0,-0.5 0,-30.5 120,-30.5 120,-0.5 0,-0.5"/>
<text text-anchor="start" x="8" y="-18.5" font-family="Helvetica,sans-Serif" font-size="10.00">engine/src/opt/thread</text>
<text text-anchor="middle" x="60" y="-7.5" font-family="Helvetica,sans-Serif" font-size="10.00">_pool.c</text>
</a>
</g>
</g>
<!-- Node1&#45;&gt;Node2 -->
<g id="edge1" class="edge">
<title>Node1&#45;&gt;Node2</title>
<path fill="none" stroke="midnightblue" d="M114.5,-60.92C103.04,-51.58 88.42,-39.66 77.2,-30.52"/>
<polygon fill="midnightblue" stroke="midnightblue" points="112.58,-63.87 122.54,-67.48 117,-58.44 112.58,-63.87"/>
</g>
<!-- Node3 -->
<g id="node3" class="node">
<title>Node3</title>
<g id="a_node3"><a xlink:href="test__threadpool_8c.html" target="_top" xlink:title="Unit test for ie_threadpool parallel&#45;for with contiguous partition.">
<polygon fill="none" stroke="black" points="138.5,-6 138.5,-25 275.5,-25 275.5,-6 138.5,-6"/>
<text text-anchor="middle" x="207" y="-13" font-family="Helvetica,sans-Serif" font-size="10.00">tests/c/test_threadpool.c</text>
</a>
</g>
</g>
<!-- Node1&#45;&gt;Node3 -->
<g id="edge2" class="edge">
<title>Node1&#45;&gt;Node3</title>
<path fill="none" stroke="midnightblue" d="M151.69,-60.97C165.84,-49.59 184.78,-34.37 196.42,-25.01"/>
<polygon fill="midnightblue" stroke="midnightblue" points="149.2,-58.48 143.6,-67.48 153.59,-63.94 149.2,-58.48"/>
</g>
</g>
</svg>
