<?xml version="1.0" encoding="UTF-8" standalone="no"?>
<!DOCTYPE svg PUBLIC "-//W3C//DTD SVG 1.1//EN"
 "http://www.w3.org/Graphics/SVG/1.1/DTD/svg11.dtd">
<!-- Generated by graphviz version 2.43.0 (0)
 -->
<!-- Title: ie_quantize_act_int8 Pages: 1 -->
<svg width="367pt" height="113pt"
 viewBox="0.00 0.00 367.00 113.00" xmlns="http://www.w3.org/2000/svg" xmlns:xlink="http://www.w3.org/1999/xlink">
<g id="graph0" class="graph" transform="scale(1 1) rotate(0) translate(4 109)">
<title>ie_quantize_act_int8</title>
<!-- Node1 -->
<g id="Node000001" class="node">
<title>Node1</title>
<g id="a_Node000001"><a xlink:title="Quantize fp32 activations to INT8 using per&#45;tensor parameters.">
<polygon fill="#999999" stroke="#666666" points="359,-62 242,-62 242,-43 359,-43 359,-62"/>
<text text-anchor="middle" x="300.5" y="-50" font-family="Helvetica,sans-Serif" font-size="10.00">ie_quantize_act_int8</text>
</a>
</g>
</g>
<!-- Node2 -->
<g id="Node000002" class="node">
<title>Node2</title>
<g id="a_Node000002"><a xlink:href="microbench__act__path_8c.html#aa8d8e89d147a706279cd7995fcc08571" target="_top" xlink:title=" ">
<polygon fill="white" stroke="#666666" points="176.5,-105 106.5,-105 106.5,-86 176.5,-86 176.5,-105"/>
<text text-anchor="middle" x="141.5" y="-93" font-family="Helvetica,sans-Serif" font-size="10.00">bench_int8</text>
</a>
</g>
</g>
<!-- Node1&#45;&gt;Node2 -->
<g id="edge1_Node000001_Node000002" class="edge">
<title>Node1&#45;&gt;Node2</title>
<g id="a_edge1_Node000001_Node000002"><a xlink:title=" ">
<path fill="none" stroke="#63b8ff" d="M254.75,-64.76C229.95,-71.55 199.59,-79.86 176.71,-86.13"/>
<polygon fill="#63b8ff" stroke="#63b8ff" points="255.94,-68.06 264.66,-62.04 254.09,-61.31 255.94,-68.06"/>
</a>
</g>
</g>
<!-- Node4 -->
<g id="Node000004" class="node">
<title>Node4</title>
<g id="a_Node000004"><a xlink:href="kv__cache_8c.html#a60418a220d683776a9ff5e04783e67d6" target="_top" xlink:title="Store one token’s K/V using INT8 per&#45;tensor parameters (one scale/zp per head).">
<polygon fill="white" stroke="#666666" points="206,-67.5 77,-67.5 77,-37.5 206,-37.5 206,-67.5"/>
<text text-anchor="start" x="85" y="-55.5" font-family="Helvetica,sans-Serif" font-size="10.00">ie_kv_store_token_int8</text>
<text text-anchor="middle" x="141.5" y="-44.5" font-family="Helvetica,sans-Serif" font-size="10.00">_per_tensor</text>
</a>
</g>
</g>
<!-- Node1&#45;&gt;Node4 -->
<g id="edge3_Node000001_Node000004" class="edge">
<title>Node1&#45;&gt;Node4</title>
<g id="a_edge3_Node000001_Node000004"><a xlink:title=" ">
<path fill="none" stroke="#63b8ff" d="M231.7,-52.5C223.22,-52.5 214.57,-52.5 206.15,-52.5"/>
<polygon fill="#63b8ff" stroke="#63b8ff" points="231.93,-56 241.93,-52.5 231.93,-49 231.93,-56"/>
</a>
</g>
</g>
<!-- Node5 -->
<g id="Node000005" class="node">
<title>Node5</title>
<g id="a_Node000005"><a xlink:href="test__act__quant_8c.html#a83ac16910c5fbcf8d045ba1a01bc2604" target="_top" xlink:title=" ">
<polygon fill="white" stroke="#666666" points="199.5,-19 83.5,-19 83.5,0 199.5,0 199.5,-19"/>
<text text-anchor="middle" x="141.5" y="-7" font-family="Helvetica,sans-Serif" font-size="10.00">test_int8_per_tensor</text>
</a>
</g>
</g>
<!-- Node1&#45;&gt;Node5 -->
<g id="edge4_Node000001_Node000005" class="edge">
<title>Node1&#45;&gt;Node5</title>
<g id="a_edge4_Node000001_Node000005"><a xlink:title=" ">
<path fill="none" stroke="#63b8ff" d="M254.83,-40.26C230.2,-33.52 200.09,-25.27 177.25,-19.02"/>
<polygon fill="#63b8ff" stroke="#63b8ff" points="254.09,-43.69 264.66,-42.96 255.94,-36.94 254.09,-43.69"/>
</a>
</g>
</g>
<!-- Node3 -->
<g id="Node000003" class="node">
<title>Node3</title>
<g id="a_Node000003"><a xlink:href="microbench__act__path_8c.html#a3c04138a5bfe5d72780bb7e82a18e627" target="_top" xlink:title=" ">
<polygon fill="white" stroke="#666666" points="41,-105 0,-105 0,-86 41,-86 41,-105"/>
<text text-anchor="middle" x="20.5" y="-93" font-family="Helvetica,sans-Serif" font-size="10.00">main</text>
</a>
</g>
</g>
<!-- Node2&#45;&gt;Node3 -->
<g id="edge2_Node000002_Node000003" class="edge">
<title>Node2&#45;&gt;Node3</title>
<g id="a_edge2_Node000002_Node000003"><a xlink:title=" ">
<path fill="none" stroke="#63b8ff" d="M96.15,-95.5C77.2,-95.5 56.05,-95.5 41.12,-95.5"/>
<polygon fill="#63b8ff" stroke="#63b8ff" points="96.4,-99 106.4,-95.5 96.4,-92 96.4,-99"/>
</a>
</g>
</g>
<!-- Node6 -->
<g id="Node000006" class="node">
<title>Node6</title>
<g id="a_Node000006"><a xlink:href="test__act__quant_8c.html#a840291bc02cba5474a4cb46a9b9566fe" target="_top" xlink:title=" ">
<polygon fill="white" stroke="#666666" points="41,-19 0,-19 0,0 41,0 41,-19"/>
<text text-anchor="middle" x="20.5" y="-7" font-family="Helvetica,sans-Serif" font-size="10.00">main</text>
</a>
</g>
</g>
<!-- Node5&#45;&gt;Node6 -->
<g id="edge5_Node000005_Node000006" class="edge">
<title>Node5&#45;&gt;Node6</title>
<g id="a_edge5_Node000005_Node000006"><a xlink:title=" ">
<path fill="none" stroke="#63b8ff" d="M73.43,-9.5C61.58,-9.5 50.13,-9.5 41.02,-9.5"/>
<polygon fill="#63b8ff" stroke="#63b8ff" points="73.44,-13 83.44,-9.5 73.44,-6 73.44,-13"/>
</a>
</g>
</g>
</g>
</svg>
