<?xml version="1.0" encoding="UTF-8" standalone="no"?>
<!DOCTYPE svg PUBLIC "-//W3C//DTD SVG 1.1//EN"
 "http://www.w3.org/Graphics/SVG/1.1/DTD/svg11.dtd">
<!-- Generated by graphviz version 2.43.0 (0)
 -->
<!-- Title: engine/include/ie_cpu.h Pages: 1 -->
<svg width="809pt" height="93pt"
 viewBox="0.00 0.00 809.00 93.00" xmlns="http://www.w3.org/2000/svg" xmlns:xlink="http://www.w3.org/1999/xlink">
<g id="graph0" class="graph" transform="scale(1 1) rotate(0) translate(4 89)">
<title>engine/include/ie_cpu.h</title>
<!-- Node1 -->
<g id="Node000001" class="node">
<title>Node1</title>
<g id="a_Node000001"><a xlink:title="Runtime CPU feature detection utilities.">
<polygon fill="#999999" stroke="#666666" points="435,-85 304,-85 304,-66 435,-66 435,-85"/>
<text text-anchor="middle" x="369.5" y="-73" font-family="Helvetica,sans-Serif" font-size="10.00">engine/include/ie_cpu.h</text>
</a>
</g>
</g>
<!-- Node2 -->
<g id="Node000002" class="node">
<title>Node2</title>
<g id="a_Node000002"><a xlink:href="ie__api_8c.html" target="_top" xlink:title="Stable public API implementation for creating, destroying, and running an engine instance.">
<polygon fill="white" stroke="#666666" points="107,-24.5 0,-24.5 0,-5.5 107,-5.5 107,-24.5"/>
<text text-anchor="middle" x="53.5" y="-12.5" font-family="Helvetica,sans-Serif" font-size="10.00">engine/src/ie_api.c</text>
</a>
</g>
</g>
<!-- Node1&#45;&gt;Node2 -->
<g id="edge1_Node000001_Node000002" class="edge">
<title>Node1&#45;&gt;Node2</title>
<g id="a_edge1_Node000001_Node000002"><a xlink:title=" ">
<path fill="none" stroke="#63b8ff" d="M306.35,-64.31C254.86,-55.8 180.32,-42.99 115.5,-30 107.17,-28.33 98.24,-26.4 89.83,-24.51"/>
<polygon fill="#63b8ff" stroke="#63b8ff" points="305.9,-67.79 316.33,-65.96 307.04,-60.88 305.9,-67.79"/>
</a>
</g>
</g>
<!-- Node3 -->
<g id="Node000003" class="node">
<title>Node3</title>
<g id="a_Node000003"><a xlink:href="gemv__generic_8c.html" target="_top" xlink:title=" ">
<polygon fill="white" stroke="#666666" points="230,-30 125,-30 125,0 230,0 230,-30"/>
<text text-anchor="start" x="133" y="-18" font-family="Helvetica,sans-Serif" font-size="10.00">engine/src/kernels</text>
<text text-anchor="middle" x="177.5" y="-7" font-family="Helvetica,sans-Serif" font-size="10.00">/gemv_generic.c</text>
</a>
</g>
</g>
<!-- Node1&#45;&gt;Node3 -->
<g id="edge2_Node000001_Node000003" class="edge">
<title>Node1&#45;&gt;Node3</title>
<g id="a_edge2_Node000001_Node000003"><a xlink:title=" ">
<path fill="none" stroke="#63b8ff" d="M332.01,-63.08C301,-53.63 256.84,-40.17 223.66,-30.06"/>
<polygon fill="#63b8ff" stroke="#63b8ff" points="331,-66.43 341.58,-65.99 333.04,-59.73 331,-66.43"/>
</a>
</g>
</g>
<!-- Node4 -->
<g id="Node000004" class="node">
<title>Node4</title>
<g id="a_Node000004"><a xlink:href="gemv__q4__generic_8c.html" target="_top" xlink:title="Portable Q4_0 GEMV (matrix&#45;vector) kernel with runtime dispatch.">
<polygon fill="white" stroke="#666666" points="362.5,-30 248.5,-30 248.5,0 362.5,0 362.5,-30"/>
<text text-anchor="start" x="256.5" y="-18" font-family="Helvetica,sans-Serif" font-size="10.00">engine/src/kernels</text>
<text text-anchor="middle" x="305.5" y="-7" font-family="Helvetica,sans-Serif" font-size="10.00">/gemv_q4_generic.c</text>
</a>
</g>
</g>
<!-- Node1&#45;&gt;Node4 -->
<g id="edge3_Node000001_Node000004" class="edge">
<title>Node1&#45;&gt;Node4</title>
<g id="a_edge3_Node000001_Node000004"><a xlink:title=" ">
<path fill="none" stroke="#63b8ff" d="M352.51,-58.97C342.7,-50.01 330.47,-38.82 320.94,-30.11"/>
<polygon fill="#63b8ff" stroke="#63b8ff" points="350.31,-61.7 360.06,-65.87 355.04,-56.54 350.31,-61.7"/>
</a>
</g>
</g>
<!-- Node5 -->
<g id="Node000005" class="node">
<title>Node5</title>
<g id="a_Node000005"><a xlink:href="cpu__features_8c.html" target="_top" xlink:title="Runtime CPU feature detection via CPUID/XGETBV (x86) with safe fallbacks.">
<polygon fill="white" stroke="#666666" points="486.5,-30 380.5,-30 380.5,0 486.5,0 486.5,-30"/>
<text text-anchor="start" x="388.5" y="-18" font-family="Helvetica,sans-Serif" font-size="10.00">engine/src/opt/cpu</text>
<text text-anchor="middle" x="433.5" y="-7" font-family="Helvetica,sans-Serif" font-size="10.00">_features.c</text>
</a>
</g>
</g>
<!-- Node1&#45;&gt;Node5 -->
<g id="edge4_Node000001_Node000005" class="edge">
<title>Node1&#45;&gt;Node5</title>
<g id="a_edge4_Node000001_Node000005"><a xlink:title=" ">
<path fill="none" stroke="#63b8ff" d="M386.49,-58.97C396.3,-50.01 408.53,-38.82 418.06,-30.11"/>
<polygon fill="#63b8ff" stroke="#63b8ff" points="383.96,-56.54 378.94,-65.87 388.69,-61.7 383.96,-56.54"/>
</a>
</g>
</g>
<!-- Node6 -->
<g id="Node000006" class="node">
<title>Node6</title>
<g id="a_Node000006"><a xlink:href="stream_8c.html" target="_top" xlink:title="Prefetch and non&#45;temporal (streaming) heuristics and helpers.">
<polygon fill="white" stroke="#666666" points="636,-24.5 505,-24.5 505,-5.5 636,-5.5 636,-24.5"/>
<text text-anchor="middle" x="570.5" y="-12.5" font-family="Helvetica,sans-Serif" font-size="10.00">engine/src/opt/stream.c</text>
</a>
</g>
</g>
<!-- Node1&#45;&gt;Node6 -->
<g id="edge5_Node000001_Node000006" class="edge">
<title>Node1&#45;&gt;Node6</title>
<g id="a_edge5_Node000001_Node000006"><a xlink:title=" ">
<path fill="none" stroke="#63b8ff" d="M408.64,-63.11C447.52,-51.79 506.24,-34.7 541.24,-24.52"/>
<polygon fill="#63b8ff" stroke="#63b8ff" points="407.35,-59.84 398.73,-65.99 409.31,-66.56 407.35,-59.84"/>
</a>
</g>
</g>
<!-- Node7 -->
<g id="Node000007" class="node">
<title>Node7</title>
<g id="a_Node000007"><a xlink:href="test__cpu__features_8c.html" target="_top" xlink:title="Smoke test for CPU feature detection (never crashes, sane flags).">
<polygon fill="white" stroke="#666666" points="801,-24.5 654,-24.5 654,-5.5 801,-5.5 801,-24.5"/>
<text text-anchor="middle" x="727.5" y="-12.5" font-family="Helvetica,sans-Serif" font-size="10.00">tests/c/test_cpu_features.c</text>
</a>
</g>
</g>
<!-- Node1&#45;&gt;Node7 -->
<g id="edge6_Node000001_Node000007" class="edge">
<title>Node1&#45;&gt;Node7</title>
<g id="a_edge6_Node000001_Node000007"><a xlink:title=" ">
<path fill="none" stroke="#63b8ff" d="M433.33,-64.38C489.29,-55.47 572.82,-42.06 645.5,-30 656.04,-28.25 667.34,-26.34 678.08,-24.51"/>
<polygon fill="#63b8ff" stroke="#63b8ff" points="432.53,-60.96 423.21,-65.99 433.63,-67.88 432.53,-60.96"/>
</a>
</g>
</g>
</g>
</svg>
