<?xml version="1.0" encoding="UTF-8" standalone="no"?>
<!DOCTYPE svg PUBLIC "-//W3C//DTD SVG 1.1//EN"
 "http://www.w3.org/Graphics/SVG/1.1/DTD/svg11.dtd">
<!-- Generated by graphviz version 12.2.1 (20241206.2353)
 -->
<!-- Title: engine/src/devices/ie_device_common.c Pages: 1 -->
<svg width="518pt" height="155pt"
 viewBox="0.00 0.00 517.62 155.00" xmlns="http://www.w3.org/2000/svg" xmlns:xlink="http://www.w3.org/1999/xlink">
<g id="graph0" class="graph" transform="scale(1 1) rotate(0) translate(4 151)">
<title>engine/src/devices/ie_device_common.c</title>
<!-- Node1 -->
<g id="Node000001" class="node">
<title>Node1</title>
<g id="a_Node000001"><a xlink:title="C11 implementation of the device abstraction with CPU backend and CUDA/Level Zero stubs resolved via ...">
<polygon fill="#999999" stroke="#666666" points="338.12,-147 216.38,-147 216.38,-113.5 338.12,-113.5 338.12,-147"/>
<text text-anchor="start" x="224.38" y="-133.5" font-family="Helvetica,sans-Serif" font-size="10.00">engine/src/devices</text>
<text text-anchor="middle" x="277.25" y="-120.75" font-family="Helvetica,sans-Serif" font-size="10.00">/ie_device_common.c</text>
</a>
</g>
</g>
<!-- Node2 -->
<g id="Node000002" class="node">
<title>Node2</title>
<g id="a_Node000002"><a xlink:href="ie__device_8h.html" target="_top" xlink:title="Device abstraction for CPU/GPU backends selected at runtime.">
<polygon fill="white" stroke="#666666" points="164,-77.5 92.5,-77.5 92.5,-56.75 164,-56.75 164,-77.5"/>
<text text-anchor="middle" x="128.25" y="-64" font-family="Helvetica,sans-Serif" font-size="10.00">ie_device.h</text>
</a>
</g>
</g>
<!-- Node1&#45;&gt;Node2 -->
<g id="edge1_Node000001_Node000002" class="edge">
<title>Node1&#45;&gt;Node2</title>
<g id="a_edge1_Node000001_Node000002"><a xlink:title=" ">
<path fill="none" stroke="#63b8ff" d="M237.71,-113.03C214.3,-103.43 184.93,-91.38 162.51,-82.18"/>
<polygon fill="#63b8ff" stroke="#63b8ff" points="164.09,-79.05 153.51,-78.49 161.44,-85.52 164.09,-79.05"/>
</a>
</g>
</g>
<!-- Node5 -->
<g id="Node000005" class="node">
<title>Node5</title>
<g id="a_Node000005"><a xlink:href="ie__kernels_8h.html" target="_top" xlink:title="Kernel dispatch points (generic/AVX2) for GEMV and vector ops.">
<polygon fill="white" stroke="#666666" points="74.5,-77.5 0,-77.5 0,-56.75 74.5,-56.75 74.5,-77.5"/>
<text text-anchor="middle" x="37.25" y="-64" font-family="Helvetica,sans-Serif" font-size="10.00">ie_kernels.h</text>
</a>
</g>
</g>
<!-- Node1&#45;&gt;Node5 -->
<g id="edge4_Node000001_Node000005" class="edge">
<title>Node1&#45;&gt;Node5</title>
<g id="a_edge4_Node000001_Node000005"><a xlink:title=" ">
<path fill="none" stroke="#63b8ff" d="M216.07,-113.67C175.49,-103.33 123,-89.96 85.4,-80.39"/>
<polygon fill="#63b8ff" stroke="#63b8ff" points="86.75,-77.12 76.19,-78.04 85.02,-83.9 86.75,-77.12"/>
</a>
</g>
</g>
<!-- Node6 -->
<g id="Node000006" class="node">
<title>Node6</title>
<g id="a_Node000006"><a xlink:title=" ">
<polygon fill="#e0e0e0" stroke="#999999" points="234.25,-77.5 182.25,-77.5 182.25,-56.75 234.25,-56.75 234.25,-77.5"/>
<text text-anchor="middle" x="208.25" y="-64" font-family="Helvetica,sans-Serif" font-size="10.00">ctype.h</text>
</a>
</g>
</g>
<!-- Node1&#45;&gt;Node6 -->
<g id="edge6_Node000001_Node000006" class="edge">
<title>Node1&#45;&gt;Node6</title>
<g id="a_edge6_Node000001_Node000006"><a xlink:title=" ">
<path fill="none" stroke="#63b8ff" d="M259.12,-113.19C249.46,-104.63 237.57,-94.1 227.72,-85.37"/>
<polygon fill="#63b8ff" stroke="#63b8ff" points="230.3,-82.98 220.49,-78.97 225.66,-88.22 230.3,-82.98"/>
</a>
</g>
</g>
<!-- Node7 -->
<g id="Node000007" class="node">
<title>Node7</title>
<g id="a_Node000007"><a xlink:title=" ">
<polygon fill="#e0e0e0" stroke="#999999" points="301.75,-77.5 252.75,-77.5 252.75,-56.75 301.75,-56.75 301.75,-77.5"/>
<text text-anchor="middle" x="277.25" y="-64" font-family="Helvetica,sans-Serif" font-size="10.00">dlfcn.h</text>
</a>
</g>
</g>
<!-- Node1&#45;&gt;Node7 -->
<g id="edge7_Node000001_Node000007" class="edge">
<title>Node1&#45;&gt;Node7</title>
<g id="a_edge7_Node000001_Node000007"><a xlink:title=" ">
<path fill="none" stroke="#63b8ff" d="M277.25,-113.19C277.25,-105.85 277.25,-97.07 277.25,-89.21"/>
<polygon fill="#63b8ff" stroke="#63b8ff" points="280.75,-89.48 277.25,-79.48 273.75,-89.48 280.75,-89.48"/>
</a>
</g>
</g>
<!-- Node8 -->
<g id="Node000008" class="node">
<title>Node8</title>
<g id="a_Node000008"><a xlink:title=" ">
<polygon fill="#e0e0e0" stroke="#999999" points="368.75,-77.5 319.75,-77.5 319.75,-56.75 368.75,-56.75 368.75,-77.5"/>
<text text-anchor="middle" x="344.25" y="-64" font-family="Helvetica,sans-Serif" font-size="10.00">stdio.h</text>
</a>
</g>
</g>
<!-- Node1&#45;&gt;Node8 -->
<g id="edge8_Node000001_Node000008" class="edge">
<title>Node1&#45;&gt;Node8</title>
<g id="a_edge8_Node000001_Node000008"><a xlink:title=" ">
<path fill="none" stroke="#63b8ff" d="M294.85,-113.19C304.14,-104.72 315.54,-94.31 325.05,-85.64"/>
<polygon fill="#63b8ff" stroke="#63b8ff" points="327.32,-88.31 332.34,-78.99 322.6,-83.14 327.32,-88.31"/>
</a>
</g>
</g>
<!-- Node9 -->
<g id="Node000009" class="node">
<title>Node9</title>
<g id="a_Node000009"><a xlink:title=" ">
<polygon fill="#e0e0e0" stroke="#999999" points="439.25,-77.5 387.25,-77.5 387.25,-56.75 439.25,-56.75 439.25,-77.5"/>
<text text-anchor="middle" x="413.25" y="-64" font-family="Helvetica,sans-Serif" font-size="10.00">stdlib.h</text>
</a>
</g>
</g>
<!-- Node1&#45;&gt;Node9 -->
<g id="edge9_Node000001_Node000009" class="edge">
<title>Node1&#45;&gt;Node9</title>
<g id="a_edge9_Node000001_Node000009"><a xlink:title=" ">
<path fill="none" stroke="#63b8ff" d="M313.34,-113.03C334.42,-103.56 360.79,-91.7 381.14,-82.56"/>
<polygon fill="#63b8ff" stroke="#63b8ff" points="382.4,-85.83 390.09,-78.54 379.53,-79.44 382.4,-85.83"/>
</a>
</g>
</g>
<!-- Node10 -->
<g id="Node000010" class="node">
<title>Node10</title>
<g id="a_Node000010"><a xlink:title=" ">
<polygon fill="#e0e0e0" stroke="#999999" points="509.62,-77.5 456.88,-77.5 456.88,-56.75 509.62,-56.75 509.62,-77.5"/>
<text text-anchor="middle" x="483.25" y="-64" font-family="Helvetica,sans-Serif" font-size="10.00">string.h</text>
</a>
</g>
</g>
<!-- Node1&#45;&gt;Node10 -->
<g id="edge10_Node000001_Node000010" class="edge">
<title>Node1&#45;&gt;Node10</title>
<g id="a_edge10_Node000001_Node000010"><a xlink:title=" ">
<path fill="none" stroke="#63b8ff" d="M331.91,-113.03C367.8,-102.38 413.8,-88.73 445.62,-79.29"/>
<polygon fill="#63b8ff" stroke="#63b8ff" points="446.61,-82.65 455.2,-76.45 444.62,-75.94 446.61,-82.65"/>
</a>
</g>
</g>
<!-- Node3 -->
<g id="Node000003" class="node">
<title>Node3</title>
<g id="a_Node000003"><a xlink:title=" ">
<polygon fill="#e0e0e0" stroke="#999999" points="74.75,-20.75 19.75,-20.75 19.75,0 74.75,0 74.75,-20.75"/>
<text text-anchor="middle" x="47.25" y="-7.25" font-family="Helvetica,sans-Serif" font-size="10.00">stddef.h</text>
</a>
</g>
</g>
<!-- Node2&#45;&gt;Node3 -->
<g id="edge2_Node000002_Node000003" class="edge">
<title>Node2&#45;&gt;Node3</title>
<g id="a_edge2_Node000002_Node000003"><a xlink:title=" ">
<path fill="none" stroke="#63b8ff" d="M113.77,-56.34C101.9,-48.32 84.88,-36.81 71.02,-27.44"/>
<polygon fill="#63b8ff" stroke="#63b8ff" points="73.1,-24.63 62.86,-21.93 69.18,-30.43 73.1,-24.63"/>
</a>
</g>
</g>
<!-- Node4 -->
<g id="Node000004" class="node">
<title>Node4</title>
<g id="a_Node000004"><a xlink:title=" ">
<polygon fill="#e0e0e0" stroke="#999999" points="154.62,-20.75 101.88,-20.75 101.88,0 154.62,0 154.62,-20.75"/>
<text text-anchor="middle" x="128.25" y="-7.25" font-family="Helvetica,sans-Serif" font-size="10.00">stdint.h</text>
</a>
</g>
</g>
<!-- Node2&#45;&gt;Node4 -->
<g id="edge3_Node000002_Node000004" class="edge">
<title>Node2&#45;&gt;Node4</title>
<g id="a_edge3_Node000002_Node000004"><a xlink:title=" ">
<path fill="none" stroke="#63b8ff" d="M128.25,-56.34C128.25,-49.72 128.25,-40.72 128.25,-32.52"/>
<polygon fill="#63b8ff" stroke="#63b8ff" points="131.75,-32.59 128.25,-22.59 124.75,-32.59 131.75,-32.59"/>
</a>
</g>
</g>
<!-- Node5&#45;&gt;Node3 -->
<g id="edge5_Node000005_Node000003" class="edge">
<title>Node5&#45;&gt;Node3</title>
<g id="a_edge5_Node000005_Node000003"><a xlink:title=" ">
<path fill="none" stroke="#63b8ff" d="M39.04,-56.34C40.26,-49.64 41.93,-40.51 43.44,-32.23"/>
<polygon fill="#63b8ff" stroke="#63b8ff" points="46.85,-33.03 45.21,-22.57 39.97,-31.78 46.85,-33.03"/>
</a>
</g>
</g>
</g>
</svg>
