<?xml version="1.0" encoding="UTF-8" standalone="no"?>
<!DOCTYPE svg PUBLIC "-//W3C//DTD SVG 1.1//EN"
 "http://www.w3.org/Graphics/SVG/1.1/DTD/svg11.dtd">
<!-- Generated by graphviz version 12.2.1 (20241206.2353)
 -->
<!-- Title: ie_cuda_set_err Pages: 1 -->
<svg width="261pt" height="302pt"
 viewBox="0.00 0.00 260.50 301.50" xmlns="http://www.w3.org/2000/svg" xmlns:xlink="http://www.w3.org/1999/xlink">

<svg id="main" version="1.1" xmlns="http://www.w3.org/2000/svg" xmlns:xlink="http://www.w3.org/1999/xlink" xml:space="preserve">

<style type="text/css"><![CDATA[
.node, .edge {opacity: 0.7;}
.node.selected, .edge.selected {opacity: 1;}
.edge:hover path { stroke: red; }
.edge:hover polygon { stroke: red; fill: red; }
]]></style>
<script type="application/ecmascript" xlink:href="svg.min.js"/>
<svg id="graph" class="graph">
<g id="graph0" class="graph" transform="scale(1 1) rotate(0) translate(4 297.5)">
<title>ie_cuda_set_err</title>
<!-- Node1 -->
<g id="Node000001" class="node">
<title>Node1</title>
<g id="a_Node000001"><a xlink:title="Set or clear the per&#45;thread CUDA error string buffer.">
<polygon fill="#999999" stroke="#666666" points="252.5,-157.12 160,-157.12 160,-136.38 252.5,-136.38 252.5,-157.12"/>
<text text-anchor="middle" x="206.25" y="-143.62" font-family="Helvetica,sans-Serif" font-size="10.00">ie_cuda_set_err</text>
</a>
</g>
</g>
<!-- Node2 -->
<g id="Node000002" class="node">
<title>Node2</title>
<g id="a_Node000002"><a xlink:href="group__IE__GPU.html#gaa2441c827e95b20c0413b0372ffc262b" target="_top" xlink:title="Compute y = act(alpha * W*x + bias + beta*y) in one pass.">
<polygon fill="white" stroke="#666666" points="124,-293.5 0,-293.5 0,-260 124,-260 124,-293.5"/>
<text text-anchor="start" x="8" y="-280" font-family="Helvetica,sans-Serif" font-size="10.00">ie_cuda_launch_gemv</text>
<text text-anchor="middle" x="62" y="-267.25" font-family="Helvetica,sans-Serif" font-size="10.00">_bias_act_f32</text>
</a>
</g>
</g>
<!-- Node1&#45;&gt;Node2 -->
<g id="edge1_Node000001_Node000002" class="edge">
<title>Node1&#45;&gt;Node2</title>
<g id="a_edge1_Node000001_Node000002"><a xlink:title=" ">
<path fill="none" stroke="#63b8ff" d="M193.74,-167.07C179.82,-190.07 154.43,-227.37 124,-250.75 119.71,-254.05 114.94,-257.01 110.01,-259.65"/>
<polygon fill="#63b8ff" stroke="#63b8ff" points="196.65,-169.03 198.7,-158.63 190.61,-165.48 196.65,-169.03"/>
</a>
</g>
</g>
<!-- Node3 -->
<g id="Node000003" class="node">
<title>Node3</title>
<g id="a_Node000003"><a xlink:href="group__IE__GPU.html#ga92e383308a681db6bb757c3add5906f0" target="_top" xlink:title="Compute y = alpha * W * x + beta * y (row&#45;wise GEMV).">
<polygon fill="white" stroke="#666666" points="124,-241.5 0,-241.5 0,-208 124,-208 124,-241.5"/>
<text text-anchor="start" x="8" y="-228" font-family="Helvetica,sans-Serif" font-size="10.00">ie_cuda_launch_gemv</text>
<text text-anchor="middle" x="62" y="-215.25" font-family="Helvetica,sans-Serif" font-size="10.00">_rowwise_f32</text>
</a>
</g>
</g>
<!-- Node1&#45;&gt;Node3 -->
<g id="edge2_Node000001_Node000003" class="edge">
<title>Node1&#45;&gt;Node3</title>
<g id="a_edge2_Node000001_Node000003"><a xlink:title=" ">
<path fill="none" stroke="#63b8ff" d="M181.05,-163.74C165.22,-174.48 143.86,-188.25 124,-198.75 118.2,-201.82 111.96,-204.81 105.76,-207.6"/>
<polygon fill="#63b8ff" stroke="#63b8ff" points="182.62,-166.91 188.89,-158.36 178.66,-161.14 182.62,-166.91"/>
</a>
</g>
</g>
<!-- Node4 -->
<g id="Node000004" class="node">
<title>Node4</title>
<g id="a_Node000004"><a xlink:href="group__IE__GPU.html#ga78cbe5a89ec13c5a9edca717f79caab8" target="_top" xlink:title="Row&#45;wise GEMV with FP8 activations (E4M3/E5M2), fused byte decode.">
<polygon fill="white" stroke="#666666" points="124,-189.5 0,-189.5 0,-156 124,-156 124,-189.5"/>
<text text-anchor="start" x="8" y="-176" font-family="Helvetica,sans-Serif" font-size="10.00">ie_cuda_launch_gemv</text>
<text text-anchor="middle" x="62" y="-163.25" font-family="Helvetica,sans-Serif" font-size="10.00">_rowwise_qfp8_f32</text>
</a>
</g>
</g>
<!-- Node1&#45;&gt;Node4 -->
<g id="edge3_Node000001_Node000004" class="edge">
<title>Node1&#45;&gt;Node4</title>
<g id="a_edge3_Node000001_Node000004"><a xlink:title=" ">
<path fill="none" stroke="#63b8ff" d="M148.73,-157.08C140.7,-158.55 132.42,-160.06 124.32,-161.54"/>
<polygon fill="#63b8ff" stroke="#63b8ff" points="149.15,-160.56 158.36,-155.32 147.89,-153.68 149.15,-160.56"/>
</a>
</g>
</g>
<!-- Node5 -->
<g id="Node000005" class="node">
<title>Node5</title>
<g id="a_Node000005"><a xlink:href="group__IE__GPU.html#ga525e3ca0d9d0030847aef26b70fa0cb9" target="_top" xlink:title="Row&#45;wise GEMV with INT8 activations (per&#45;tensor), fused dequantization.">
<polygon fill="white" stroke="#666666" points="124,-137.5 0,-137.5 0,-104 124,-104 124,-137.5"/>
<text text-anchor="start" x="8" y="-124" font-family="Helvetica,sans-Serif" font-size="10.00">ie_cuda_launch_gemv</text>
<text text-anchor="middle" x="62" y="-111.25" font-family="Helvetica,sans-Serif" font-size="10.00">_rowwise_qi8_f32</text>
</a>
</g>
</g>
<!-- Node1&#45;&gt;Node5 -->
<g id="edge4_Node000001_Node000005" class="edge">
<title>Node1&#45;&gt;Node5</title>
<g id="a_edge4_Node000001_Node000005"><a xlink:title=" ">
<path fill="none" stroke="#63b8ff" d="M148.73,-136.42C140.7,-134.95 132.42,-133.44 124.32,-131.96"/>
<polygon fill="#63b8ff" stroke="#63b8ff" points="147.89,-139.82 158.36,-138.18 149.15,-132.94 147.89,-139.82"/>
</a>
</g>
</g>
<!-- Node6 -->
<g id="Node000006" class="node">
<title>Node6</title>
<g id="a_Node000006"><a xlink:href="group__IE__GPU.html#ga72b6dfd858bd993a18d9c5dfb3112389" target="_top" xlink:title="Pack a row&#45;major matrix into Blocked&#45;K layout for better memory access.">
<polygon fill="white" stroke="#666666" points="121.75,-85.5 2.25,-85.5 2.25,-52 121.75,-52 121.75,-85.5"/>
<text text-anchor="start" x="10.25" y="-72" font-family="Helvetica,sans-Serif" font-size="10.00">ie_cuda_launch_pack</text>
<text text-anchor="middle" x="62" y="-59.25" font-family="Helvetica,sans-Serif" font-size="10.00">_w_blockedk_f32</text>
</a>
</g>
</g>
<!-- Node1&#45;&gt;Node6 -->
<g id="edge5_Node000001_Node000006" class="edge">
<title>Node1&#45;&gt;Node6</title>
<g id="a_edge5_Node000001_Node000006"><a xlink:title=" ">
<path fill="none" stroke="#63b8ff" d="M181.05,-129.76C165.22,-119.02 143.86,-105.25 124,-94.75 118.2,-91.68 111.96,-88.69 105.76,-85.9"/>
<polygon fill="#63b8ff" stroke="#63b8ff" points="178.66,-132.36 188.89,-135.14 182.62,-126.59 178.66,-132.36"/>
</a>
</g>
</g>
<!-- Node7 -->
<g id="Node000007" class="node">
<title>Node7</title>
<g id="a_Node000007"><a xlink:href="group__IE__GPU.html#ga4e8445935545f1b5bbb671826543ffab" target="_top" xlink:title="Compute y[i] = tanh(x[i]) for i in [0, n).">
<polygon fill="white" stroke="#666666" points="118.75,-33.5 5.25,-33.5 5.25,0 118.75,0 118.75,-33.5"/>
<text text-anchor="start" x="13.25" y="-20" font-family="Helvetica,sans-Serif" font-size="10.00">ie_cuda_launch_vec</text>
<text text-anchor="middle" x="62" y="-7.25" font-family="Helvetica,sans-Serif" font-size="10.00">_tanh_f32</text>
</a>
</g>
</g>
<!-- Node1&#45;&gt;Node7 -->
<g id="edge6_Node000001_Node000007" class="edge">
<title>Node1&#45;&gt;Node7</title>
<g id="a_edge6_Node000001_Node000007"><a xlink:title=" ">
<path fill="none" stroke="#63b8ff" d="M193.74,-126.43C179.82,-103.43 154.43,-66.13 124,-42.75 119.71,-39.45 114.94,-36.49 110.01,-33.85"/>
<polygon fill="#63b8ff" stroke="#63b8ff" points="190.61,-128.02 198.7,-134.87 196.65,-124.47 190.61,-128.02"/>
</a>
</g>
</g>
</g>
</svg>
</svg>

<style type='text/css'>
<![CDATA[
[data-mouse-over-selected='false'] { opacity: 0.7; }
[data-mouse-over-selected='true']  { opacity: 1.0; }
]]>
</style>
<script type="application/ecmascript"><![CDATA[
document.addEventListener('DOMContentLoaded', (event) => {
  highlightEdges();
  highlightAdjacentNodes();
});
]]></script>
</svg>
