<?xml version="1.0" encoding="UTF-8" standalone="no"?>
<!DOCTYPE svg PUBLIC "-//W3C//DTD SVG 1.1//EN"
 "http://www.w3.org/Graphics/SVG/1.1/DTD/svg11.dtd">
<!-- Generated by graphviz version 12.2.1 (20241206.2353)
 -->
<!-- Title: env_size Pages: 1 -->
<svg width="287pt" height="29pt"
 viewBox="0.00 0.00 287.00 28.75" xmlns="http://www.w3.org/2000/svg" xmlns:xlink="http://www.w3.org/1999/xlink">
<g id="graph0" class="graph" transform="scale(1 1) rotate(0) translate(4 24.75)">
<title>env_size</title>
<!-- Node1 -->
<g id="Node000001" class="node">
<title>Node1</title>
<g id="a_Node000001"><a xlink:title="Strict&#45;decimal environment reader with fallback.">
<polygon fill="#999999" stroke="#666666" points="279,-20.75 220.25,-20.75 220.25,0 279,0 279,-20.75"/>
<text text-anchor="middle" x="249.62" y="-7.25" font-family="Helvetica,sans-Serif" font-size="10.00">env_size</text>
</a>
</g>
</g>
<!-- Node2 -->
<g id="Node000002" class="node">
<title>Node2</title>
<g id="a_Node000002"><a xlink:href="ie__kv__instrumentation_8c.html#a0a8ac6ff4fa3502470774c6cb9e6f488" target="_top" xlink:title="Initialize KV counters and allocate a token set for the round.">
<polygon fill="white" stroke="#666666" points="184.25,-20.75 76.75,-20.75 76.75,0 184.25,0 184.25,-20.75"/>
<text text-anchor="middle" x="130.5" y="-7.25" font-family="Helvetica,sans-Serif" font-size="10.00">ie_kv_begin_round</text>
</a>
</g>
</g>
<!-- Node1&#45;&gt;Node2 -->
<g id="edge1_Node000001_Node000002" class="edge">
<title>Node1&#45;&gt;Node2</title>
<g id="a_edge1_Node000001_Node000002"><a xlink:title=" ">
<path fill="none" stroke="#63b8ff" d="M208.65,-10.38C200.9,-10.38 192.65,-10.38 184.55,-10.38"/>
<polygon fill="#63b8ff" stroke="#63b8ff" points="208.46,-13.88 218.46,-10.38 208.46,-6.88 208.46,-13.88"/>
</a>
</g>
</g>
<!-- Node3 -->
<g id="Node000003" class="node">
<title>Node3</title>
<g id="a_Node000003"><a xlink:href="main__infer_8c.html#a3c04138a5bfe5d72780bb7e82a18e627" target="_top" xlink:title="Program entry point.">
<polygon fill="white" stroke="#666666" points="40.75,-20.75 0,-20.75 0,0 40.75,0 40.75,-20.75"/>
<text text-anchor="middle" x="20.38" y="-7.25" font-family="Helvetica,sans-Serif" font-size="10.00">main</text>
</a>
</g>
</g>
<!-- Node2&#45;&gt;Node3 -->
<g id="edge2_Node000002_Node000003" class="edge">
<title>Node2&#45;&gt;Node3</title>
<g id="a_edge2_Node000002_Node000003"><a xlink:title=" ">
<path fill="none" stroke="#63b8ff" d="M64.93,-10.38C56.31,-10.38 48.06,-10.38 41.11,-10.38"/>
<polygon fill="#63b8ff" stroke="#63b8ff" points="64.87,-13.88 74.87,-10.38 64.87,-6.88 64.87,-13.88"/>
</a>
</g>
</g>
</g>
</svg>
