<?xml version="1.0" encoding="UTF-8" standalone="no"?>
<!DOCTYPE svg PUBLIC "-//W3C//DTD SVG 1.1//EN"
 "http://www.w3.org/Graphics/SVG/1.1/DTD/svg11.dtd">
<!-- Generated by graphviz version 2.43.0 (0)
 -->
<!-- Title: ie_device_memcpy Pages: 1 -->
<svg width="1094pt" height="581pt"
 viewBox="0.00 0.00 1094.00 581.00" xmlns="http://www.w3.org/2000/svg" xmlns:xlink="http://www.w3.org/1999/xlink">
<g id="graph0" class="graph" transform="scale(1 1) rotate(0) translate(4 577)">
<title>ie_device_memcpy</title>
<!-- Node1 -->
<g id="node1" class="node">
<title>Node1</title>
<g id="a_node1"><a xlink:title="Copy memory using the device backend.">
<polygon fill="#bfbfbf" stroke="black" points="0,-383.5 0,-402.5 111,-402.5 111,-383.5 0,-383.5"/>
<text text-anchor="middle" x="55.5" y="-390.5" font-family="Helvetica,sans-Serif" font-size="10.00">ie_device_memcpy</text>
</a>
</g>
</g>
<!-- Node2 -->
<g id="node2" class="node">
<title>Node2</title>
<g id="a_node2"><a xlink:href="ie__device__common_8c.html#a3e42fcc4b9579a9bf14520cb1afe733b" target="_top" xlink:title="Create a device backend.">
<polygon fill="none" stroke="black" points="297,-420.5 297,-439.5 396,-439.5 396,-420.5 297,-420.5"/>
<text text-anchor="middle" x="346.5" y="-427.5" font-family="Helvetica,sans-Serif" font-size="10.00">ie_device_create</text>
</a>
</g>
</g>
<!-- Node1&#45;&gt;Node2 -->
<g id="edge1" class="edge">
<title>Node1&#45;&gt;Node2</title>
<path fill="none" stroke="midnightblue" d="M74.23,-402.67C92.02,-411.78 120.52,-424.8 147,-430 193.35,-439.11 246.97,-438.46 286.79,-435.9"/>
<polygon fill="midnightblue" stroke="midnightblue" points="287.13,-439.38 296.86,-435.19 286.64,-432.4 287.13,-439.38"/>
</g>
<!-- Node28 -->
<g id="node28" class="node">
<title>Node28</title>
<g id="a_node28"><a xlink:href="ie__device__common_8c.html#a8f8a88a7dd6a58749275d2f3dea9a0ab" target="_top" xlink:title="Destroy a device instance.">
<polygon fill="none" stroke="black" points="294,-364.5 294,-383.5 399,-383.5 399,-364.5 294,-364.5"/>
<text text-anchor="middle" x="346.5" y="-371.5" font-family="Helvetica,sans-Serif" font-size="10.00">ie_device_destroy</text>
</a>
</g>
</g>
<!-- Node1&#45;&gt;Node28 -->
<g id="edge28" class="edge">
<title>Node1&#45;&gt;Node28</title>
<path fill="none" stroke="midnightblue" d="M93.21,-383.49C109.56,-379.73 129.12,-375.86 147,-374 192.63,-369.26 244.47,-369.45 283.73,-370.72"/>
<polygon fill="midnightblue" stroke="midnightblue" points="283.82,-374.23 293.94,-371.09 284.07,-367.23 283.82,-374.23"/>
</g>
<!-- Node29 -->
<g id="node29" class="node">
<title>Node29</title>
<g id="a_node29"><a xlink:href="ie__device__common_8c.html#ad8fe47f93fa5e18c7cf07a153f1de2fb" target="_top" xlink:title="Execute memcpy via backend or CPU fallback.">
<polygon fill="none" stroke="black" points="147,-383.5 147,-402.5 258,-402.5 258,-383.5 147,-383.5"/>
<text text-anchor="middle" x="202.5" y="-390.5" font-family="Helvetica,sans-Serif" font-size="10.00">ie_device_memcpy</text>
</a>
</g>
</g>
<!-- Node1&#45;&gt;Node29 -->
<g id="edge29" class="edge">
<title>Node1&#45;&gt;Node29</title>
<path fill="none" stroke="midnightblue" d="M111.32,-393C119.53,-393 128.06,-393 136.46,-393"/>
<polygon fill="midnightblue" stroke="midnightblue" points="136.6,-396.5 146.6,-393 136.6,-389.5 136.6,-396.5"/>
</g>
<!-- Node3 -->
<g id="node3" class="node">
<title>Node3</title>
<g id="a_node3"><a xlink:href="ie__device__common_8c.html#a49b8c853d1b641c9402ed5e92d8af962" target="_top" xlink:title="Report CPU device capabilities.">
<polygon fill="none" stroke="black" points="482.5,-553.5 482.5,-572.5 544.5,-572.5 544.5,-553.5 482.5,-553.5"/>
<text text-anchor="middle" x="513.5" y="-560.5" font-family="Helvetica,sans-Serif" font-size="10.00">cpu_caps</text>
</a>
</g>
</g>
<!-- Node2&#45;&gt;Node3 -->
<g id="edge2" class="edge">
<title>Node2&#45;&gt;Node3</title>
<path fill="none" stroke="midnightblue" d="M352.07,-439.73C363.01,-461.94 393.01,-516.59 435,-544 446.08,-551.23 459.67,-555.71 472.36,-558.48"/>
<polygon fill="midnightblue" stroke="midnightblue" points="471.81,-561.94 482.29,-560.37 473.11,-555.06 471.81,-561.94"/>
</g>
<!-- Node4 -->
<g id="node4" class="node">
<title>Node4</title>
<g id="a_node4"><a xlink:href="ie__device__common_8c.html#a94f0164f6cb0f1f874ad9b18194cfbc2" target="_top" xlink:title="Destroy CPU backend instance.">
<polygon fill="none" stroke="black" points="475.5,-515.5 475.5,-534.5 551.5,-534.5 551.5,-515.5 475.5,-515.5"/>
<text text-anchor="middle" x="513.5" y="-522.5" font-family="Helvetica,sans-Serif" font-size="10.00">cpu_destroy</text>
</a>
</g>
</g>
<!-- Node2&#45;&gt;Node4 -->
<g id="edge3" class="edge">
<title>Node2&#45;&gt;Node4</title>
<path fill="none" stroke="midnightblue" d="M355.63,-439.56C369.97,-455.77 401.41,-488.61 435,-506 444.42,-510.88 455.13,-514.53 465.52,-517.27"/>
<polygon fill="midnightblue" stroke="midnightblue" points="464.8,-520.69 475.34,-519.61 466.42,-513.88 464.8,-520.69"/>
</g>
<!-- Node5 -->
<g id="node5" class="node">
<title>Node5</title>
<g id="a_node5"><a xlink:href="ie__device__common_8c.html#a4cf6c8ed666278da8fdaf7f0b953138c" target="_top" xlink:title="CPU implementation of block&#45;sparse GEMV FP32.">
<polygon fill="none" stroke="black" points="435,-477.5 435,-496.5 592,-496.5 592,-477.5 435,-477.5"/>
<text text-anchor="middle" x="513.5" y="-484.5" font-family="Helvetica,sans-Serif" font-size="10.00">cpu_gemv_block_sparse_f32</text>
</a>
</g>
</g>
<!-- Node2&#45;&gt;Node5 -->
<g id="edge4" class="edge">
<title>Node2&#45;&gt;Node5</title>
<path fill="none" stroke="midnightblue" d="M366.93,-439.57C384.42,-447.91 410.99,-459.91 435,-468 442.38,-470.49 450.27,-472.8 458.07,-474.89"/>
<polygon fill="midnightblue" stroke="midnightblue" points="457.31,-478.31 467.87,-477.43 459.06,-471.54 457.31,-478.31"/>
</g>
<!-- Node8 -->
<g id="node8" class="node">
<title>Node8</title>
<g id="a_node8"><a xlink:href="ie__device__common_8c.html#a4fb9bb01bfbe71517f9df925ba9c93ec" target="_top" xlink:title="Execute dense GEMV FP32 on CPU using existing kernels.">
<polygon fill="none" stroke="black" points="469.5,-439.5 469.5,-458.5 557.5,-458.5 557.5,-439.5 469.5,-439.5"/>
<text text-anchor="middle" x="513.5" y="-446.5" font-family="Helvetica,sans-Serif" font-size="10.00">cpu_gemv_f32</text>
</a>
</g>
</g>
<!-- Node2&#45;&gt;Node8 -->
<g id="edge7" class="edge">
<title>Node2&#45;&gt;Node8</title>
<path fill="none" stroke="midnightblue" d="M396.11,-435.6C415.96,-437.88 438.96,-440.53 459.26,-442.87"/>
<polygon fill="midnightblue" stroke="midnightblue" points="458.95,-446.36 469.28,-444.02 459.75,-439.4 458.95,-446.36"/>
</g>
<!-- Node13 -->
<g id="node13" class="node">
<title>Node13</title>
<g id="a_node13"><a xlink:href="ie__device__common_8c.html#a4c7a3b8d7f7279d7680aa68e429e6206" target="_top" xlink:title="CPU memcpy implementation.">
<polygon fill="none" stroke="black" points="472.5,-401.5 472.5,-420.5 554.5,-420.5 554.5,-401.5 472.5,-401.5"/>
<text text-anchor="middle" x="513.5" y="-408.5" font-family="Helvetica,sans-Serif" font-size="10.00">cpu_memcpy</text>
</a>
</g>
</g>
<!-- Node2&#45;&gt;Node13 -->
<g id="edge12" class="edge">
<title>Node2&#45;&gt;Node13</title>
<path fill="none" stroke="midnightblue" d="M396.11,-424.4C416.94,-422 441.27,-419.2 462.27,-416.78"/>
<polygon fill="midnightblue" stroke="midnightblue" points="462.75,-420.25 472.29,-415.63 461.95,-413.3 462.75,-420.25"/>
</g>
<!-- Node14 -->
<g id="node14" class="node">
<title>Node14</title>
<g id="a_node14"><a xlink:href="ie__device__common_8c.html#ad03c405f3ef6802a820aa78ff999ecbe" target="_top" xlink:title="Allocate a CPU backend instance.">
<polygon fill="none" stroke="black" points="484,-363.5 484,-382.5 543,-382.5 543,-363.5 484,-363.5"/>
<text text-anchor="middle" x="513.5" y="-370.5" font-family="Helvetica,sans-Serif" font-size="10.00">cpu_new</text>
</a>
</g>
</g>
<!-- Node2&#45;&gt;Node14 -->
<g id="edge13" class="edge">
<title>Node2&#45;&gt;Node14</title>
<path fill="none" stroke="midnightblue" d="M366.93,-420.43C384.42,-412.09 410.99,-400.09 435,-392 447.41,-387.82 461.22,-384.13 473.71,-381.15"/>
<polygon fill="midnightblue" stroke="midnightblue" points="474.87,-384.47 483.83,-378.81 473.3,-377.65 474.87,-384.47"/>
</g>
<!-- Node15 -->
<g id="node15" class="node">
<title>Node15</title>
<g id="a_node15"><a xlink:href="ie__device__common_8c.html#ae4ac15a3b8fea25568b8cdeb2cd781fe" target="_top" xlink:title="Try to initialize CUDA backend via dlopen.">
<polygon fill="none" stroke="black" points="466,-322.5 466,-341.5 561,-341.5 561,-322.5 466,-322.5"/>
<text text-anchor="middle" x="513.5" y="-329.5" font-family="Helvetica,sans-Serif" font-size="10.00">cuda_try_create</text>
</a>
</g>
</g>
<!-- Node2&#45;&gt;Node15 -->
<g id="edge14" class="edge">
<title>Node2&#45;&gt;Node15</title>
<path fill="none" stroke="midnightblue" d="M362.53,-420.38C373.14,-413.32 387.46,-403.21 399,-393 416.67,-377.37 414.9,-366.35 435,-354 441.39,-350.07 448.5,-346.83 455.76,-344.15"/>
<polygon fill="midnightblue" stroke="midnightblue" points="457.3,-347.32 465.68,-340.83 455.09,-340.68 457.3,-347.32"/>
</g>
<!-- Node22 -->
<g id="node22" class="node">
<title>Node22</title>
<g id="a_node22"><a xlink:href="ie__device__common_8c.html#a6877d362577444879b41090af23950d6" target="_top" xlink:title="Try to initialize Level Zero backend via dlopen.">
<polygon fill="none" stroke="black" points="472,-126.5 472,-145.5 555,-145.5 555,-126.5 472,-126.5"/>
<text text-anchor="middle" x="513.5" y="-133.5" font-family="Helvetica,sans-Serif" font-size="10.00">ze_try_create</text>
</a>
</g>
</g>
<!-- Node2&#45;&gt;Node22 -->
<g id="edge21" class="edge">
<title>Node2&#45;&gt;Node22</title>
<path fill="none" stroke="midnightblue" d="M365.6,-420.31C376.44,-413.77 389.84,-404.28 399,-393 401.05,-390.48 478.41,-213.91 504.21,-154.94"/>
<polygon fill="midnightblue" stroke="midnightblue" points="507.48,-156.22 508.28,-145.65 501.06,-153.41 507.48,-156.22"/>
</g>
<!-- Node6 -->
<g id="node6" class="node">
<title>Node6</title>
<g id="a_node6"><a xlink:href="sparse__format_8h.html#ae9a2aad0ec5332237097030acf034961" target="_top" xlink:title="Perform a single&#45;precision block&#45;sparse matrix&#45;vector product.">
<polygon fill="none" stroke="black" points="628,-480.5 628,-499.5 777,-499.5 777,-480.5 628,-480.5"/>
<text text-anchor="middle" x="702.5" y="-487.5" font-family="Helvetica,sans-Serif" font-size="10.00">ie_gemv_block_sparse_f32</text>
</a>
</g>
</g>
<!-- Node5&#45;&gt;Node6 -->
<g id="edge5" class="edge">
<title>Node5&#45;&gt;Node6</title>
<path fill="none" stroke="midnightblue" d="M592.18,-488.25C600.69,-488.38 609.38,-488.52 617.96,-488.66"/>
<polygon fill="midnightblue" stroke="midnightblue" points="617.9,-492.16 627.96,-488.82 618.02,-485.16 617.9,-492.16"/>
</g>
<!-- Node7 -->
<g id="node7" class="node">
<title>Node7</title>
<g id="a_node7"><a xlink:href="gemm__block__sparse_8c.html#a3922fd0c3f07582c82640f45091460d8" target="_top" xlink:title="Compute the pointer to the first element of a given block.">
<polygon fill="none" stroke="black" points="814,-480.5 814,-499.5 913,-499.5 913,-480.5 814,-480.5"/>
<text text-anchor="middle" x="863.5" y="-487.5" font-family="Helvetica,sans-Serif" font-size="10.00">block_values_ptr</text>
</a>
</g>
</g>
<!-- Node6&#45;&gt;Node7 -->
<g id="edge6" class="edge">
<title>Node6&#45;&gt;Node7</title>
<path fill="none" stroke="midnightblue" d="M777.41,-490C786.18,-490 795.03,-490 803.55,-490"/>
<polygon fill="midnightblue" stroke="midnightblue" points="803.74,-493.5 813.74,-490 803.74,-486.5 803.74,-493.5"/>
</g>
<!-- Node9 -->
<g id="node9" class="node">
<title>Node9</title>
<g id="a_node9"><a xlink:href="ie__kernels_8h.html#a4e112b3396ed21919f404631c1d4d7fb" target="_top" xlink:title="GEMV: y[r] = dot(W[r, :], x) [+ bias[r]] for r in [0, rows).">
<polygon fill="none" stroke="black" points="662.5,-442.5 662.5,-461.5 742.5,-461.5 742.5,-442.5 662.5,-442.5"/>
<text text-anchor="middle" x="702.5" y="-449.5" font-family="Helvetica,sans-Serif" font-size="10.00">ie_gemv_f32</text>
</a>
</g>
</g>
<!-- Node8&#45;&gt;Node9 -->
<g id="edge8" class="edge">
<title>Node8&#45;&gt;Node9</title>
<path fill="none" stroke="midnightblue" d="M557.87,-449.7C586.15,-450.15 623.11,-450.74 652.46,-451.21"/>
<polygon fill="midnightblue" stroke="midnightblue" points="652.44,-454.71 662.5,-451.37 652.56,-447.71 652.44,-454.71"/>
</g>
<!-- Node10 -->
<g id="node10" class="node">
<title>Node10</title>
<g id="a_node10"><a xlink:href="gemv__generic_8c.html#a1b919f71b86ec1791fe53bc68d5c240d" target="_top" xlink:title="Install the best available float GEMV kernel for this process.">
<polygon fill="none" stroke="black" points="813,-442.5 813,-461.5 914,-461.5 914,-442.5 813,-442.5"/>
<text text-anchor="middle" x="863.5" y="-449.5" font-family="Helvetica,sans-Serif" font-size="10.00">ie_kernels_install</text>
</a>
</g>
</g>
<!-- Node9&#45;&gt;Node10 -->
<g id="edge9" class="edge">
<title>Node9&#45;&gt;Node10</title>
<path fill="none" stroke="midnightblue" d="M742.8,-452C760.81,-452 782.56,-452 802.55,-452"/>
<polygon fill="midnightblue" stroke="midnightblue" points="802.81,-455.5 812.81,-452 802.81,-448.5 802.81,-455.5"/>
</g>
<!-- Node11 -->
<g id="node11" class="node">
<title>Node11</title>
<g id="a_node11"><a xlink:href="gemv__generic_8c.html#a51096a373f5e5010d39cbf44e34b730d" target="_top" xlink:title="Generic C GEMV: y = W * x (+bias), optional blocked&#45;K layout.">
<polygon fill="none" stroke="black" points="961.5,-461.5 961.5,-480.5 1074.5,-480.5 1074.5,-461.5 961.5,-461.5"/>
<text text-anchor="middle" x="1018" y="-468.5" font-family="Helvetica,sans-Serif" font-size="10.00">gemv_generic_impl</text>
</a>
</g>
</g>
<!-- Node10&#45;&gt;Node11 -->
<g id="edge10" class="edge">
<title>Node10&#45;&gt;Node11</title>
<path fill="none" stroke="midnightblue" d="M914.01,-458.17C925.95,-459.66 938.9,-461.27 951.44,-462.83"/>
<polygon fill="midnightblue" stroke="midnightblue" points="951.04,-466.31 961.4,-464.07 951.91,-459.36 951.04,-466.31"/>
</g>
<!-- Node12 -->
<g id="node12" class="node">
<title>Node12</title>
<g id="a_node12"><a xlink:href="gemv__generic_8c.html#a63b484c2984caeed7dfc9b5002444f57" target="_top" xlink:title="AVX2/FMA GEMV (float path), provided by gemv_avx2.c.">
<polygon fill="none" stroke="black" points="950,-423.5 950,-442.5 1086,-442.5 1086,-423.5 950,-423.5"/>
<text text-anchor="middle" x="1018" y="-430.5" font-family="Helvetica,sans-Serif" font-size="10.00">ie_gemv_f32_avx2_impl</text>
</a>
</g>
</g>
<!-- Node10&#45;&gt;Node12 -->
<g id="edge11" class="edge">
<title>Node10&#45;&gt;Node12</title>
<path fill="none" stroke="midnightblue" d="M914.01,-445.83C922.35,-444.79 931.18,-443.69 940.03,-442.59"/>
<polygon fill="midnightblue" stroke="midnightblue" points="940.5,-446.06 949.99,-441.35 939.63,-439.11 940.5,-446.06"/>
</g>
<!-- Node16 -->
<g id="node16" class="node">
<title>Node16</title>
<g id="a_node16"><a xlink:href="ie__device__common_8c.html#afbcd46d9b25dd33110fdf48f5c83b017" target="_top" xlink:title="CUDA caps thunk used in the vtable.">
<polygon fill="none" stroke="black" points="652,-404.5 652,-423.5 753,-423.5 753,-404.5 652,-404.5"/>
<text text-anchor="middle" x="702.5" y="-411.5" font-family="Helvetica,sans-Serif" font-size="10.00">cuda_caps_thunk</text>
</a>
</g>
</g>
<!-- Node15&#45;&gt;Node16 -->
<g id="edge15" class="edge">
<title>Node15&#45;&gt;Node16</title>
<path fill="none" stroke="midnightblue" d="M561.02,-340.54C571.7,-343.74 582.66,-348.1 592,-354 612.5,-366.95 607.35,-382.29 628,-395 632.45,-397.74 637.28,-400.08 642.26,-402.09"/>
<polygon fill="midnightblue" stroke="midnightblue" points="641.4,-405.49 651.99,-405.55 643.75,-398.9 641.4,-405.49"/>
</g>
<!-- Node17 -->
<g id="node17" class="node">
<title>Node17</title>
<g id="a_node17"><a xlink:href="ie__device__common_8c.html#a7ecb9f771aea0ef0d125bbe31b53c87a" target="_top" xlink:title="Destroy CUDA backend instance.">
<polygon fill="none" stroke="black" points="645,-366.5 645,-385.5 760,-385.5 760,-366.5 645,-366.5"/>
<text text-anchor="middle" x="702.5" y="-373.5" font-family="Helvetica,sans-Serif" font-size="10.00">cuda_destroy_thunk</text>
</a>
</g>
</g>
<!-- Node15&#45;&gt;Node17 -->
<g id="edge16" class="edge">
<title>Node15&#45;&gt;Node17</title>
<path fill="none" stroke="midnightblue" d="M555.08,-341.55C583.26,-348.18 621,-357.06 651.11,-364.14"/>
<polygon fill="midnightblue" stroke="midnightblue" points="650.47,-367.59 661,-366.47 652.07,-360.77 650.47,-367.59"/>
</g>
<!-- Node18 -->
<g id="node18" class="node">
<title>Node18</title>
<g id="a_node18"><a xlink:href="ie__device__common_8c.html#a7bd28e144c0f372417e90fae8ece5ecc" target="_top" xlink:title="CUDA block&#45;sparse GEMV FP32 stub (unimplemented).">
<polygon fill="none" stroke="black" points="631.5,-317 631.5,-347 773.5,-347 773.5,-317 631.5,-317"/>
<text text-anchor="start" x="639.5" y="-335" font-family="Helvetica,sans-Serif" font-size="10.00">cuda_gemv_block_sparse</text>
<text text-anchor="middle" x="702.5" y="-324" font-family="Helvetica,sans-Serif" font-size="10.00">_f32_stub</text>
</a>
</g>
</g>
<!-- Node15&#45;&gt;Node18 -->
<g id="edge17" class="edge">
<title>Node15&#45;&gt;Node18</title>
<path fill="none" stroke="midnightblue" d="M561.21,-332C579.34,-332 600.65,-332 621.1,-332"/>
<polygon fill="midnightblue" stroke="midnightblue" points="621.37,-335.5 631.37,-332 621.37,-328.5 621.37,-335.5"/>
</g>
<!-- Node19 -->
<g id="node19" class="node">
<title>Node19</title>
<g id="a_node19"><a xlink:href="ie__device__common_8c.html#a21aa199bdf7a1b0f258b1ef483fa9880" target="_top" xlink:title="CUDA GEMV FP32 stub (unimplemented).">
<polygon fill="none" stroke="black" points="642.5,-278.5 642.5,-297.5 762.5,-297.5 762.5,-278.5 642.5,-278.5"/>
<text text-anchor="middle" x="702.5" y="-285.5" font-family="Helvetica,sans-Serif" font-size="10.00">cuda_gemv_f32_stub</text>
</a>
</g>
</g>
<!-- Node15&#45;&gt;Node19 -->
<g id="edge18" class="edge">
<title>Node15&#45;&gt;Node19</title>
<path fill="none" stroke="midnightblue" d="M555.08,-322.45C583.26,-315.82 621,-306.94 651.11,-299.86"/>
<polygon fill="midnightblue" stroke="midnightblue" points="652.07,-303.23 661,-297.53 650.47,-296.41 652.07,-303.23"/>
</g>
<!-- Node20 -->
<g id="node20" class="node">
<title>Node20</title>
<g id="a_node20"><a xlink:href="ie__device__common_8c.html#a917925724f117893e02930b1df41c2fd" target="_top" xlink:title="CUDA memcpy stub (unimplemented).">
<polygon fill="none" stroke="black" points="645.5,-240.5 645.5,-259.5 759.5,-259.5 759.5,-240.5 645.5,-240.5"/>
<text text-anchor="middle" x="702.5" y="-247.5" font-family="Helvetica,sans-Serif" font-size="10.00">cuda_memcpy_stub</text>
</a>
</g>
</g>
<!-- Node15&#45;&gt;Node20 -->
<g id="edge19" class="edge">
<title>Node15&#45;&gt;Node20</title>
<path fill="none" stroke="midnightblue" d="M528.96,-322.39C549.97,-308.8 590.53,-283.96 628,-269 634.17,-266.54 640.76,-264.31 647.36,-262.32"/>
<polygon fill="midnightblue" stroke="midnightblue" points="648.34,-265.68 657,-259.57 646.42,-258.94 648.34,-265.68"/>
</g>
<!-- Node21 -->
<g id="node21" class="node">
<title>Node21</title>
<g id="a_node21"><a xlink:href="ie__device__common_8c.html#a762f243e171746c069ca302b69473e6d" target="_top" xlink:title="Try opening one of a list of shared objects.">
<polygon fill="none" stroke="black" points="661,-202.5 661,-221.5 744,-221.5 744,-202.5 661,-202.5"/>
<text text-anchor="middle" x="702.5" y="-209.5" font-family="Helvetica,sans-Serif" font-size="10.00">try_open_any</text>
</a>
</g>
</g>
<!-- Node15&#45;&gt;Node21 -->
<g id="edge20" class="edge">
<title>Node15&#45;&gt;Node21</title>
<path fill="none" stroke="midnightblue" d="M522.5,-322.28C539.66,-302.08 582.15,-255.46 628,-231 635.19,-227.16 643.2,-224.07 651.21,-221.59"/>
<polygon fill="midnightblue" stroke="midnightblue" points="652.25,-224.93 660.92,-218.85 650.35,-218.19 652.25,-224.93"/>
</g>
<!-- Node22&#45;&gt;Node21 -->
<g id="edge22" class="edge">
<title>Node22&#45;&gt;Node21</title>
<path fill="none" stroke="midnightblue" d="M530.92,-145.65C552.56,-158.03 592.08,-179.51 628,-193 635.37,-195.77 643.31,-198.28 651.15,-200.5"/>
<polygon fill="midnightblue" stroke="midnightblue" points="650.4,-203.93 660.97,-203.16 652.23,-197.17 650.4,-203.93"/>
</g>
<!-- Node23 -->
<g id="node23" class="node">
<title>Node23</title>
<g id="a_node23"><a xlink:href="ie__device__common_8c.html#a6092fca6f907b5f2b1d74b02d7b06190" target="_top" xlink:title="Level Zero caps thunk used in the vtable.">
<polygon fill="none" stroke="black" points="658,-164.5 658,-183.5 747,-183.5 747,-164.5 658,-164.5"/>
<text text-anchor="middle" x="702.5" y="-171.5" font-family="Helvetica,sans-Serif" font-size="10.00">ze_caps_thunk</text>
</a>
</g>
</g>
<!-- Node22&#45;&gt;Node23 -->
<g id="edge23" class="edge">
<title>Node22&#45;&gt;Node23</title>
<path fill="none" stroke="midnightblue" d="M555.08,-144.25C582.17,-149.75 618.11,-157.06 647.6,-163.05"/>
<polygon fill="midnightblue" stroke="midnightblue" points="647.24,-166.55 657.74,-165.11 648.64,-159.69 647.24,-166.55"/>
</g>
<!-- Node24 -->
<g id="node24" class="node">
<title>Node24</title>
<g id="a_node24"><a xlink:href="ie__device__common_8c.html#af95512f035b8be6d514d77b1e55dda8d" target="_top" xlink:title="Destroy Level Zero backend instance.">
<polygon fill="none" stroke="black" points="651,-126.5 651,-145.5 754,-145.5 754,-126.5 651,-126.5"/>
<text text-anchor="middle" x="702.5" y="-133.5" font-family="Helvetica,sans-Serif" font-size="10.00">ze_destroy_thunk</text>
</a>
</g>
</g>
<!-- Node22&#45;&gt;Node24 -->
<g id="edge24" class="edge">
<title>Node22&#45;&gt;Node24</title>
<path fill="none" stroke="midnightblue" d="M555.08,-136C580.14,-136 612.77,-136 640.87,-136"/>
<polygon fill="midnightblue" stroke="midnightblue" points="640.99,-139.5 650.99,-136 640.99,-132.5 640.99,-139.5"/>
</g>
<!-- Node25 -->
<g id="node25" class="node">
<title>Node25</title>
<g id="a_node25"><a xlink:href="ie__device__common_8c.html#ac33423f1f8a9324015003fde2d2af98a" target="_top" xlink:title="Level Zero block&#45;sparse GEMV FP32 stub (unimplemented).">
<polygon fill="none" stroke="black" points="637.5,-77 637.5,-107 767.5,-107 767.5,-77 637.5,-77"/>
<text text-anchor="start" x="645.5" y="-95" font-family="Helvetica,sans-Serif" font-size="10.00">ze_gemv_block_sparse</text>
<text text-anchor="middle" x="702.5" y="-84" font-family="Helvetica,sans-Serif" font-size="10.00">_f32_stub</text>
</a>
</g>
</g>
<!-- Node22&#45;&gt;Node25 -->
<g id="edge25" class="edge">
<title>Node22&#45;&gt;Node25</title>
<path fill="none" stroke="midnightblue" d="M555.08,-126.45C576.32,-121.45 602.99,-115.18 627.74,-109.36"/>
<polygon fill="midnightblue" stroke="midnightblue" points="628.54,-112.76 637.47,-107.07 626.94,-105.95 628.54,-112.76"/>
</g>
<!-- Node26 -->
<g id="node26" class="node">
<title>Node26</title>
<g id="a_node26"><a xlink:href="ie__device__common_8c.html#aa5580146705fad2c537157820af8617e" target="_top" xlink:title="Level Zero GEMV FP32 stub (unimplemented).">
<polygon fill="none" stroke="black" points="648.5,-38.5 648.5,-57.5 756.5,-57.5 756.5,-38.5 648.5,-38.5"/>
<text text-anchor="middle" x="702.5" y="-45.5" font-family="Helvetica,sans-Serif" font-size="10.00">ze_gemv_f32_stub</text>
</a>
</g>
</g>
<!-- Node22&#45;&gt;Node26 -->
<g id="edge26" class="edge">
<title>Node22&#45;&gt;Node26</title>
<path fill="none" stroke="midnightblue" d="M527.44,-126.37C547.83,-111.62 589.12,-83.42 628,-67 633.82,-64.54 640.03,-62.34 646.29,-60.38"/>
<polygon fill="midnightblue" stroke="midnightblue" points="647.5,-63.68 656.11,-57.51 645.53,-56.96 647.5,-63.68"/>
</g>
<!-- Node27 -->
<g id="node27" class="node">
<title>Node27</title>
<g id="a_node27"><a xlink:href="ie__device__common_8c.html#a7adb715134a131666c7c75a0fe81b62c" target="_top" xlink:title="Level Zero memcpy stub (unimplemented).">
<polygon fill="none" stroke="black" points="651.5,-0.5 651.5,-19.5 753.5,-19.5 753.5,-0.5 651.5,-0.5"/>
<text text-anchor="middle" x="702.5" y="-7.5" font-family="Helvetica,sans-Serif" font-size="10.00">ze_memcpy_stub</text>
</a>
</g>
</g>
<!-- Node22&#45;&gt;Node27 -->
<g id="edge27" class="edge">
<title>Node22&#45;&gt;Node27</title>
<path fill="none" stroke="midnightblue" d="M521.86,-126.32C538.41,-105.26 580.82,-55.05 628,-29 632.25,-26.65 636.79,-24.59 641.46,-22.78"/>
<polygon fill="midnightblue" stroke="midnightblue" points="642.88,-25.99 651.17,-19.39 640.58,-19.38 642.88,-25.99"/>
</g>
<!-- Node29&#45;&gt;Node2 -->
<g id="edge30" class="edge">
<title>Node29&#45;&gt;Node2</title>
<path fill="none" stroke="midnightblue" d="M240.07,-402.53C257.98,-407.2 279.76,-412.87 298.85,-417.85"/>
<polygon fill="midnightblue" stroke="midnightblue" points="298,-421.24 308.56,-420.38 299.77,-414.47 298,-421.24"/>
</g>
<!-- Node29&#45;&gt;Node28 -->
<g id="edge31" class="edge">
<title>Node29&#45;&gt;Node28</title>
<path fill="none" stroke="midnightblue" d="M258.4,-385.65C266.61,-384.56 275.13,-383.42 283.47,-382.3"/>
<polygon fill="midnightblue" stroke="midnightblue" points="284.09,-385.75 293.54,-380.95 283.16,-378.81 284.09,-385.75"/>
</g>
<!-- Node29&#45;&gt;Node29 -->
<g id="edge32" class="edge">
<title>Node29&#45;&gt;Node29</title>
<path fill="none" stroke="midnightblue" d="M180.31,-402.76C169.51,-411.57 176.91,-421 202.5,-421 219.3,-421 228.26,-416.94 229.38,-411.65"/>
<polygon fill="midnightblue" stroke="midnightblue" points="232.45,-409.97 224.69,-402.76 226.26,-413.24 232.45,-409.97"/>
</g>
</g>
</svg>
