<?xml version="1.0" encoding="UTF-8" standalone="no"?>
<!DOCTYPE svg PUBLIC "-//W3C//DTD SVG 1.1//EN"
 "http://www.w3.org/Graphics/SVG/1.1/DTD/svg11.dtd">
<!-- Generated by graphviz version 12.2.1 (20241206.2353)
 -->
<!-- Title: engine/include/ie_config.h Pages: 1 -->
<svg width="274pt" height="86pt"
 viewBox="0.00 0.00 273.88 85.50" xmlns="http://www.w3.org/2000/svg" xmlns:xlink="http://www.w3.org/1999/xlink">
<g id="graph0" class="graph" transform="scale(1 1) rotate(0) translate(4 81.5)">
<title>engine/include/ie_config.h</title>
<!-- Node1 -->
<g id="Node000001" class="node">
<title>Node1</title>
<g id="a_Node000001"><a xlink:title="Tiny, header&#45;only helpers for engine configuration defaults and env overrides.">
<polygon fill="#999999" stroke="#666666" points="205.88,-77.5 63.12,-77.5 63.12,-56.75 205.88,-56.75 205.88,-77.5"/>
<text text-anchor="middle" x="134.5" y="-64" font-family="Helvetica,sans-Serif" font-size="10.00">engine/include/ie_config.h</text>
</a>
</g>
</g>
<!-- Node2 -->
<g id="Node000002" class="node">
<title>Node2</title>
<g id="a_Node000002"><a xlink:title=" ">
<polygon fill="#e0e0e0" stroke="#999999" points="55,-20.75 0,-20.75 0,0 55,0 55,-20.75"/>
<text text-anchor="middle" x="27.5" y="-7.25" font-family="Helvetica,sans-Serif" font-size="10.00">stddef.h</text>
</a>
</g>
</g>
<!-- Node1&#45;&gt;Node2 -->
<g id="edge1_Node000001_Node000002" class="edge">
<title>Node1&#45;&gt;Node2</title>
<g id="a_edge1_Node000001_Node000002"><a xlink:title=" ">
<path fill="none" stroke="#63b8ff" d="M115.37,-56.34C99.01,-47.97 75.22,-35.79 56.52,-26.22"/>
<polygon fill="#63b8ff" stroke="#63b8ff" points="58.31,-23.21 47.81,-21.77 55.12,-29.44 58.31,-23.21"/>
</a>
</g>
</g>
<!-- Node3 -->
<g id="Node000003" class="node">
<title>Node3</title>
<g id="a_Node000003"><a xlink:title=" ">
<polygon fill="#e0e0e0" stroke="#999999" points="125.88,-20.75 73.12,-20.75 73.12,0 125.88,0 125.88,-20.75"/>
<text text-anchor="middle" x="99.5" y="-7.25" font-family="Helvetica,sans-Serif" font-size="10.00">stdint.h</text>
</a>
</g>
</g>
<!-- Node1&#45;&gt;Node3 -->
<g id="edge2_Node000001_Node000003" class="edge">
<title>Node1&#45;&gt;Node3</title>
<g id="a_edge2_Node000001_Node000003"><a xlink:title=" ">
<path fill="none" stroke="#63b8ff" d="M128.24,-56.34C123.66,-49.17 117.3,-39.23 111.73,-30.51"/>
<polygon fill="#63b8ff" stroke="#63b8ff" points="114.85,-28.89 106.52,-22.35 108.96,-32.66 114.85,-28.89"/>
</a>
</g>
</g>
<!-- Node4 -->
<g id="Node000004" class="node">
<title>Node4</title>
<g id="a_Node000004"><a xlink:title=" ">
<polygon fill="#e0e0e0" stroke="#999999" points="195.5,-20.75 143.5,-20.75 143.5,0 195.5,0 195.5,-20.75"/>
<text text-anchor="middle" x="169.5" y="-7.25" font-family="Helvetica,sans-Serif" font-size="10.00">stdlib.h</text>
</a>
</g>
</g>
<!-- Node1&#45;&gt;Node4 -->
<g id="edge3_Node000001_Node000004" class="edge">
<title>Node1&#45;&gt;Node4</title>
<g id="a_edge3_Node000001_Node000004"><a xlink:title=" ">
<path fill="none" stroke="#63b8ff" d="M140.76,-56.34C145.34,-49.17 151.7,-39.23 157.27,-30.51"/>
<polygon fill="#63b8ff" stroke="#63b8ff" points="160.04,-32.66 162.48,-22.35 154.15,-28.89 160.04,-32.66"/>
</a>
</g>
</g>
<!-- Node5 -->
<g id="Node000005" class="node">
<title>Node5</title>
<g id="a_Node000005"><a xlink:title=" ">
<polygon fill="#e0e0e0" stroke="#999999" points="265.88,-20.75 213.12,-20.75 213.12,0 265.88,0 265.88,-20.75"/>
<text text-anchor="middle" x="239.5" y="-7.25" font-family="Helvetica,sans-Serif" font-size="10.00">string.h</text>
</a>
</g>
</g>
<!-- Node1&#45;&gt;Node5 -->
<g id="edge4_Node000001_Node000005" class="edge">
<title>Node1&#45;&gt;Node5</title>
<g id="a_edge4_Node000001_Node000005"><a xlink:title=" ">
<path fill="none" stroke="#63b8ff" d="M153.27,-56.34C169.25,-48.01 192.45,-35.91 210.76,-26.36"/>
<polygon fill="#63b8ff" stroke="#63b8ff" points="212.3,-29.51 219.55,-21.78 209.06,-23.3 212.3,-29.51"/>
</a>
</g>
</g>
</g>
</svg>
