<?xml version="1.0" encoding="UTF-8" standalone="no"?>
<!DOCTYPE svg PUBLIC "-//W3C//DTD SVG 1.1//EN"
 "http://www.w3.org/Graphics/SVG/1.1/DTD/svg11.dtd">
<!-- Generated by graphviz version 2.43.0 (0)
 -->
<!-- Title: ie_device_destroy Pages: 1 -->
<svg width="329pt" height="64pt"
 viewBox="0.00 0.00 329.00 64.00" xmlns="http://www.w3.org/2000/svg" xmlns:xlink="http://www.w3.org/1999/xlink">

<svg id="main" version="1.1" xmlns="http://www.w3.org/2000/svg" xmlns:xlink="http://www.w3.org/1999/xlink" xml:space="preserve" onload="init(evt)">
<style type="text/css"><![CDATA[
.node, .edge {opacity: 0.7;}
.node.selected, .edge.selected {opacity: 1;}
.edge:hover path { stroke: red; }
.edge:hover polygon { stroke: red; fill: red; }
]]></style>
<script type="application/ecmascript" xlink:href="svg.min.js"/>
<svg id="graph" class="graph">
<g id="graph0" class="graph" transform="scale(1 1) rotate(0) translate(4 60)">
<title>ie_device_destroy</title>
<!-- Node1 -->
<g id="Node000001" class="node">
<title>Node1</title>
<g id="a_Node000001"><a xlink:title="Destroy a device instance.">
<polygon fill="#999999" stroke="#666666" points="321,-37 216,-37 216,-18 321,-18 321,-37"/>
<text text-anchor="middle" x="268.5" y="-25" font-family="Helvetica,sans-Serif" font-size="10.00">ie_device_destroy</text>
</a>
</g>
</g>
<!-- Node2 -->
<g id="Node000002" class="node">
<title>Node2</title>
<g id="a_Node000002"><a xlink:href="test__device_8c.html#a7b62f3db43117555c60ec59d19c7c8d6" target="_top" xlink:title="Verify CPU device exposes GEMV capability.">
<polygon fill="white" stroke="#666666" points="171.5,-56 85.5,-56 85.5,-37 171.5,-37 171.5,-56"/>
<text text-anchor="middle" x="128.5" y="-44" font-family="Helvetica,sans-Serif" font-size="10.00">test_cpu_caps</text>
</a>
</g>
</g>
<!-- Node1&#45;&gt;Node2 -->
<g id="edge1_Node000001_Node000002" class="edge">
<title>Node1&#45;&gt;Node2</title>
<g id="a_edge1_Node000001_Node000002"><a xlink:title=" ">
<path fill="none" stroke="#63b8ff" d="M205.71,-36.01C194.2,-37.59 182.42,-39.21 171.67,-40.69"/>
<polygon fill="#63b8ff" stroke="#63b8ff" points="206.29,-39.46 215.72,-34.63 205.34,-32.53 206.29,-39.46"/>
</a>
</g>
</g>
<!-- Node4 -->
<g id="Node000004" class="node">
<title>Node4</title>
<g id="a_Node000004"><a xlink:href="test__device_8c.html#a548e6227513ac3fd772219dad3b0de22" target="_top" xlink:title="Ensure GPU request gracefully falls back to a working GEMV.">
<polygon fill="white" stroke="#666666" points="180,-19 77,-19 77,0 180,0 180,-19"/>
<text text-anchor="middle" x="128.5" y="-7" font-family="Helvetica,sans-Serif" font-size="10.00">test_gpu_fallback</text>
</a>
</g>
</g>
<!-- Node1&#45;&gt;Node4 -->
<g id="edge3_Node000001_Node000004" class="edge">
<title>Node1&#45;&gt;Node4</title>
<g id="a_edge3_Node000001_Node000004"><a xlink:title=" ">
<path fill="none" stroke="#63b8ff" d="M205.78,-19.45C197.22,-18.33 188.52,-17.2 180.19,-16.11"/>
<polygon fill="#63b8ff" stroke="#63b8ff" points="205.35,-22.92 215.72,-20.75 206.26,-15.98 205.35,-22.92"/>
</a>
</g>
</g>
<!-- Node3 -->
<g id="Node000003" class="node">
<title>Node3</title>
<g id="a_Node000003"><a xlink:href="test__device_8c.html#a840291bc02cba5474a4cb46a9b9566fe" target="_top" xlink:title="Test entry point.">
<polygon fill="white" stroke="#666666" points="41,-37 0,-37 0,-18 41,-18 41,-37"/>
<text text-anchor="middle" x="20.5" y="-25" font-family="Helvetica,sans-Serif" font-size="10.00">main</text>
</a>
</g>
</g>
<!-- Node2&#45;&gt;Node3 -->
<g id="edge2_Node000002_Node000003" class="edge">
<title>Node2&#45;&gt;Node3</title>
<g id="a_edge2_Node000002_Node000003"><a xlink:title=" ">
<path fill="none" stroke="#63b8ff" d="M75.18,-37.12C63.04,-34.95 50.86,-32.76 41.18,-31.03"/>
<polygon fill="#63b8ff" stroke="#63b8ff" points="74.84,-40.62 85.3,-38.94 76.08,-33.73 74.84,-40.62"/>
</a>
</g>
</g>
<!-- Node4&#45;&gt;Node3 -->
<g id="edge4_Node000004_Node000003" class="edge">
<title>Node4&#45;&gt;Node3</title>
<g id="a_edge4_Node000004_Node000003"><a xlink:title=" ">
<path fill="none" stroke="#63b8ff" d="M67.1,-19.76C57.67,-21.36 48.57,-22.9 41,-24.19"/>
<polygon fill="#63b8ff" stroke="#63b8ff" points="67.71,-23.2 76.98,-18.08 66.54,-16.3 67.71,-23.2"/>
</a>
</g>
</g>
</g>
</svg>
</svg>

<style type='text/css'>
<![CDATA[
[data-mouse-over-selected='false'] { opacity: 0.7; }
[data-mouse-over-selected='true']  { opacity: 1.0; }
]]>
</style>
<script type="application/ecmascript"><![CDATA[
document.addEventListener('DOMContentLoaded', (event) => {
  highlightEdges();
  highlightAdjacentNodes();
});
]]></script>
</svg>
