<?xml version="1.0" encoding="UTF-8" standalone="no"?>
<!DOCTYPE svg PUBLIC "-//W3C//DTD SVG 1.1//EN"
 "http://www.w3.org/Graphics/SVG/1.1/DTD/svg11.dtd">
<!-- Generated by graphviz version 2.43.0 (0)
 -->
<!-- Title: engine/include/ie_api.h Pages: 1 -->
<svg width="522pt" height="151pt"
 viewBox="0.00 0.00 522.00 151.00" xmlns="http://www.w3.org/2000/svg" xmlns:xlink="http://www.w3.org/1999/xlink">
<g id="graph0" class="graph" transform="scale(1 1) rotate(0) translate(4 147)">
<title>engine/include/ie_api.h</title>
<!-- Node1 -->
<g id="node1" class="node">
<title>Node1</title>
<g id="a_node1"><a xlink:title="Public C API for the inference engine (minimal surface used by CLI/tests).">
<polygon fill="#bfbfbf" stroke="black" points="216,-123.5 216,-142.5 345,-142.5 345,-123.5 216,-123.5"/>
<text text-anchor="middle" x="280.5" y="-130.5" font-family="Helvetica,sans-Serif" font-size="10.00">engine/include/ie_api.h</text>
</a>
</g>
</g>
<!-- Node2 -->
<g id="node2" class="node">
<title>Node2</title>
<g id="a_node2"><a xlink:href="ie__engine_8h.html" target="_top" xlink:title="Public engine façade (compatibility shim).">
<polygon fill="none" stroke="black" points="0,-62 0,-81 147,-81 147,-62 0,-62"/>
<text text-anchor="middle" x="73.5" y="-69" font-family="Helvetica,sans-Serif" font-size="10.00">engine/include/ie_engine.h</text>
</a>
</g>
</g>
<!-- Node1&#45;&gt;Node2 -->
<g id="edge1" class="edge">
<title>Node1&#45;&gt;Node2</title>
<path fill="none" stroke="midnightblue" d="M241.1,-120.68C200.88,-109.11 139.35,-91.43 103.1,-81.01"/>
<polygon fill="midnightblue" stroke="midnightblue" points="240.26,-124.08 250.84,-123.48 242.2,-117.35 240.26,-124.08"/>
</g>
<!-- Node4 -->
<g id="node4" class="node">
<title>Node4</title>
<g id="a_node4"><a xlink:href="util__metrics_8h.html" target="_top" xlink:title="Public helpers for runtime metrics (KV counters + RSS sampling).">
<polygon fill="none" stroke="black" points="165,-56.5 165,-86.5 272,-86.5 272,-56.5 165,-56.5"/>
<text text-anchor="start" x="173" y="-74.5" font-family="Helvetica,sans-Serif" font-size="10.00">engine/include/util</text>
<text text-anchor="middle" x="218.5" y="-63.5" font-family="Helvetica,sans-Serif" font-size="10.00">_metrics.h</text>
</a>
</g>
</g>
<!-- Node1&#45;&gt;Node4 -->
<g id="edge3" class="edge">
<title>Node1&#45;&gt;Node4</title>
<path fill="none" stroke="midnightblue" d="M264.21,-116.37C254.57,-107.11 242.45,-95.48 233.11,-86.52"/>
<polygon fill="midnightblue" stroke="midnightblue" points="261.98,-119.08 271.62,-123.48 266.83,-114.03 261.98,-119.08"/>
</g>
<!-- Node6 -->
<g id="node6" class="node">
<title>Node6</title>
<g id="a_node6"><a xlink:href="ie__api_8c.html" target="_top" xlink:title="CI&#45;friendly implementation of the public Inference Engine API.">
<polygon fill="none" stroke="black" points="290,-62 290,-81 397,-81 397,-62 290,-62"/>
<text text-anchor="middle" x="343.5" y="-69" font-family="Helvetica,sans-Serif" font-size="10.00">engine/src/ie_api.c</text>
</a>
</g>
</g>
<!-- Node1&#45;&gt;Node6 -->
<g id="edge6" class="edge">
<title>Node1&#45;&gt;Node6</title>
<path fill="none" stroke="midnightblue" d="M297.1,-116.32C309.07,-105.02 324.77,-90.19 334.49,-81.01"/>
<polygon fill="midnightblue" stroke="midnightblue" points="294.39,-114.06 289.53,-123.48 299.2,-119.15 294.39,-114.06"/>
</g>
<!-- Node7 -->
<g id="node7" class="node">
<title>Node7</title>
<g id="a_node7"><a xlink:href="test__api_8c.html" target="_top" xlink:title="Unit tests for the public engine API lifecycle and metrics.">
<polygon fill="none" stroke="black" points="415,-62 415,-81 514,-81 514,-62 415,-62"/>
<text text-anchor="middle" x="464.5" y="-69" font-family="Helvetica,sans-Serif" font-size="10.00">tests/c/test_api.c</text>
</a>
</g>
</g>
<!-- Node1&#45;&gt;Node7 -->
<g id="edge7" class="edge">
<title>Node1&#45;&gt;Node7</title>
<path fill="none" stroke="midnightblue" d="M316.43,-120.38C352.2,-108.82 406.24,-91.34 438.19,-81.01"/>
<polygon fill="midnightblue" stroke="midnightblue" points="315.3,-117.07 306.86,-123.48 317.45,-123.73 315.3,-117.07"/>
</g>
<!-- Node3 -->
<g id="node3" class="node">
<title>Node3</title>
<g id="a_node3"><a xlink:href="main__infer_8c.html" target="_top" xlink:title="CLI entry point for the inference engine (benchmark&#45;friendly).">
<polygon fill="none" stroke="black" points="8.5,-0.5 8.5,-19.5 138.5,-19.5 138.5,-0.5 8.5,-0.5"/>
<text text-anchor="middle" x="73.5" y="-7.5" font-family="Helvetica,sans-Serif" font-size="10.00">engine/src/main_infer.c</text>
</a>
</g>
</g>
<!-- Node2&#45;&gt;Node3 -->
<g id="edge2" class="edge">
<title>Node2&#45;&gt;Node3</title>
<path fill="none" stroke="midnightblue" d="M73.5,-51.82C73.5,-41 73.5,-27.9 73.5,-19.51"/>
<polygon fill="midnightblue" stroke="midnightblue" points="70,-51.98 73.5,-61.98 77,-51.98 70,-51.98"/>
</g>
<!-- Node4&#45;&gt;Node3 -->
<g id="edge4" class="edge">
<title>Node4&#45;&gt;Node3</title>
<path fill="none" stroke="midnightblue" d="M174.67,-52.52C148.14,-41.63 115.5,-28.23 94.6,-19.66"/>
<polygon fill="midnightblue" stroke="midnightblue" points="173.56,-55.84 184.14,-56.4 176.21,-49.37 173.56,-55.84"/>
</g>
<!-- Node5 -->
<g id="node5" class="node">
<title>Node5</title>
<g id="a_node5"><a xlink:href="util__metrics_8c.html" target="_top" xlink:title="Implementation of runtime metrics (KV counters + RSS sampling).">
<polygon fill="none" stroke="black" points="156.5,-0.5 156.5,-19.5 292.5,-19.5 292.5,-0.5 156.5,-0.5"/>
<text text-anchor="middle" x="224.5" y="-7.5" font-family="Helvetica,sans-Serif" font-size="10.00">engine/src/util_metrics.c</text>
</a>
</g>
</g>
<!-- Node4&#45;&gt;Node5 -->
<g id="edge5" class="edge">
<title>Node4&#45;&gt;Node5</title>
<path fill="none" stroke="midnightblue" d="M220.94,-46.29C221.89,-36.86 222.92,-26.65 223.63,-19.66"/>
<polygon fill="midnightblue" stroke="midnightblue" points="217.44,-46.1 219.92,-56.4 224.41,-46.8 217.44,-46.1"/>
</g>
</g>
</svg>
