<?xml version="1.0" encoding="UTF-8" standalone="no"?>
<!DOCTYPE svg PUBLIC "-//W3C//DTD SVG 1.1//EN"
 "http://www.w3.org/Graphics/SVG/1.1/DTD/svg11.dtd">
<!-- Generated by graphviz version 12.2.1 (20241206.2353)
 -->
<!-- Title: ie_device_memcpy Pages: 1 -->
<!--zoomable 458 -->

<svg id="main" version="1.1" xmlns="http://www.w3.org/2000/svg" xmlns:xlink="http://www.w3.org/1999/xlink" xml:space="preserve" onload="init(evt)">

<style type="text/css"><![CDATA[
.node, .edge {opacity: 0.7;}
.node.selected, .edge.selected {opacity: 1;}
.edge:hover path { stroke: red; }
.edge:hover polygon { stroke: red; fill: red; }
]]></style>

<defs>
  <circle id="rim" cx="0" cy="0" r="7"/>
  <circle id="rim2" cx="0" cy="0" r="3.5"/>
  <g id="zoomPlus">
    <use xlink:href="#rim" fill="#404040"><set attributeName="fill" to="#808080" begin="zoomplus.mouseover" end="zoomplus.mouseout"/></use>
    <path d="M-4,0h8M0,-4v8" fill="none" stroke="white" stroke-width="1.5" pointer-events="none"/>
  </g>
  <g id="zoomMin">
    <use xlink:href="#rim" fill="#404040"><set attributeName="fill" to="#808080" begin="zoomminus.mouseover" end="zoomminus.mouseout"/></use>
    <path d="M-4,0h8" fill="none" stroke="white" stroke-width="1.5" pointer-events="none"/>
  </g>
  <g id="arrowUp" transform="translate(30 24)">
    <use xlink:href="#rim"/>
    <path pointer-events="none" fill="none" stroke="white" stroke-width="1.5" d="M0,-3.0v7 M-2.5,-0.5L0,-3.0L2.5,-0.5"/>
  </g>
  <g id="arrowRight" transform="rotate(90) translate(36 -43)">
    <use xlink:href="#rim"/>
    <path pointer-events="none" fill="none" stroke="white" stroke-width="1.5" d="M0,-3.0v7 M-2.5,-0.5L0,-3.0L2.5,-0.5"/>
  </g>
  <g id="arrowDown" transform="rotate(180) translate(-30 -48)">
    <use xlink:href="#rim"/>
    <path pointer-events="none" fill="none" stroke="white" stroke-width="1.5" d="M0,-3.0v7 M-2.5,-0.5L0,-3.0L2.5,-0.5"/>
  </g>
  <g id="arrowLeft" transform="rotate(270) translate(-36 17)">
    <use xlink:href="#rim"/>
    <path pointer-events="none" fill="none" stroke="white" stroke-width="1.5" d="M0,-3.0v7 M-2.5,-0.5L0,-3.0L2.5,-0.5"/>
  </g>
  <g id="resetDef">
    <use xlink:href="#rim2" fill="#404040"><set attributeName="fill" to="#808080" begin="reset.mouseover" end="reset.mouseout"/></use>
  </g>
</defs>
<script type="application/ecmascript">
var viewWidth = 831;
var viewHeight = 458;
var sectionId = 'dynsection-9';
</script>
<script type="application/ecmascript" xlink:href="svg.min.js"/>
<svg id="graph" class="graph">
<g id="viewport">
<title>ie_device_memcpy</title>
<!-- Node1 -->
<g id="Node000001" class="node">
<title>Node1</title>
<g id="a_Node000001"><a xlink:title="Copy memory using the device backend.">
<polygon fill="#999999" stroke="#666666" points="110.5,-312.75 0,-312.75 0,-292 110.5,-292 110.5,-312.75"/>
<text text-anchor="middle" x="55.25" y="-299.25" font-family="Helvetica,sans-Serif" font-size="10.00">ie_device_memcpy</text>
</a>
</g>
</g>
<!-- Node1&#45;&gt;Node1 -->
<g id="edge24_Node000001_Node000001" class="edge">
<title>Node1&#45;&gt;Node1</title>
<g id="a_edge24_Node000001_Node000001"><a xlink:title=" ">
<path fill="none" stroke="#63b8ff" d="M32.13,-313.15C22.88,-321.81 30.59,-330.75 55.25,-330.75 68.74,-330.75 77.16,-328.08 80.5,-324.24"/>
<polygon fill="#63b8ff" stroke="#63b8ff" points="83.98,-323.79 78.66,-314.63 77.11,-325.11 83.98,-323.79"/>
</a>
</g>
</g>
<!-- Node2 -->
<g id="Node000002" class="node">
<title>Node2</title>
<g id="a_Node000002"><a xlink:href="ie__device__common_8c.html#a3e42fcc4b9579a9bf14520cb1afe733b" target="_top" xlink:title="Create a device for the requested kind, with CPU fallback.">
<polygon fill="white" stroke="#666666" points="248,-332.75 149.5,-332.75 149.5,-312 248,-312 248,-332.75"/>
<text text-anchor="middle" x="198.75" y="-319.25" font-family="Helvetica,sans-Serif" font-size="10.00">ie_device_create</text>
</a>
</g>
</g>
<!-- Node1&#45;&gt;Node2 -->
<g id="edge1_Node000001_Node000002" class="edge">
<title>Node1&#45;&gt;Node2</title>
<g id="a_edge1_Node000001_Node000002"><a xlink:title=" ">
<path fill="none" stroke="#63b8ff" d="M110.96,-310.11C119.82,-311.36 129.03,-312.66 138,-313.93"/>
<polygon fill="#63b8ff" stroke="#63b8ff" points="137.3,-317.37 147.69,-315.3 138.28,-310.43 137.3,-317.37"/>
</a>
</g>
</g>
<!-- Node23 -->
<g id="Node000023" class="node">
<title>Node23</title>
<g id="a_Node000023"><a xlink:href="ie__device__common_8c.html#a8f8a88a7dd6a58749275d2f3dea9a0ab" target="_top" xlink:title="Destroy a device handle and its backend implementation.">
<polygon fill="white" stroke="#666666" points="251,-293.75 146.5,-293.75 146.5,-273 251,-273 251,-293.75"/>
<text text-anchor="middle" x="198.75" y="-280.25" font-family="Helvetica,sans-Serif" font-size="10.00">ie_device_destroy</text>
</a>
</g>
</g>
<!-- Node1&#45;&gt;Node23 -->
<g id="edge23_Node000001_Node000023" class="edge">
<title>Node1&#45;&gt;Node23</title>
<g id="a_edge23_Node000001_Node000023"><a xlink:title=" ">
<path fill="none" stroke="#63b8ff" d="M110.96,-295.03C118.89,-293.96 127.1,-292.86 135.17,-291.78"/>
<polygon fill="#63b8ff" stroke="#63b8ff" points="135.49,-295.27 144.94,-290.47 134.56,-288.33 135.49,-295.27"/>
</a>
</g>
</g>
<!-- Node3 -->
<g id="Node000003" class="node">
<title>Node3</title>
<g id="a_Node000003"><a xlink:href="ie__device__common_8c.html#a49b8c853d1b641c9402ed5e92d8af962" target="_top" xlink:title="Report CPU device capabilities.">
<polygon fill="white" stroke="#666666" points="364.5,-449.75 303.5,-449.75 303.5,-429 364.5,-429 364.5,-449.75"/>
<text text-anchor="middle" x="334" y="-436.25" font-family="Helvetica,sans-Serif" font-size="10.00">cpu_caps</text>
</a>
</g>
</g>
<!-- Node2&#45;&gt;Node3 -->
<g id="edge2_Node000002_Node000003" class="edge">
<title>Node2&#45;&gt;Node3</title>
<g id="a_edge2_Node000002_Node000003"><a xlink:title=" ">
<path fill="none" stroke="#63b8ff" d="M206.98,-333.07C220.61,-352.54 251.9,-394.09 287,-419.38 288.93,-420.77 290.98,-422.09 293.09,-423.34"/>
<polygon fill="#63b8ff" stroke="#63b8ff" points="291.45,-426.43 301.93,-427.98 294.7,-420.24 291.45,-426.43"/>
</a>
</g>
</g>
<!-- Node4 -->
<g id="Node000004" class="node">
<title>Node4</title>
<g id="a_Node000004"><a xlink:href="ie__device__common_8c.html#a94f0164f6cb0f1f874ad9b18194cfbc2" target="_top" xlink:title="Destroy CPU implementation object.">
<polygon fill="white" stroke="#666666" points="371.62,-410.75 296.38,-410.75 296.38,-390 371.62,-390 371.62,-410.75"/>
<text text-anchor="middle" x="334" y="-397.25" font-family="Helvetica,sans-Serif" font-size="10.00">cpu_destroy</text>
</a>
</g>
</g>
<!-- Node2&#45;&gt;Node4 -->
<g id="edge3_Node000002_Node000004" class="edge">
<title>Node2&#45;&gt;Node4</title>
<g id="a_edge3_Node000002_Node000004"><a xlink:title=" ">
<path fill="none" stroke="#63b8ff" d="M214.08,-333.05C230.97,-345.35 260.16,-365.77 287,-380.38 289.7,-381.85 292.54,-383.29 295.41,-384.69"/>
<polygon fill="#63b8ff" stroke="#63b8ff" points="293.94,-387.87 304.49,-388.89 296.88,-381.51 293.94,-387.87"/>
</a>
</g>
</g>
<!-- Node5 -->
<g id="Node000005" class="node">
<title>Node5</title>
<g id="a_Node000005"><a xlink:href="ie__device__common_8c.html#a4fb9bb01bfbe71517f9df925ba9c93ec" target="_top" xlink:title="CPU implementation of GEMV FP32 via existing kernels.">
<polygon fill="white" stroke="#666666" points="377.62,-371.75 290.38,-371.75 290.38,-351 377.62,-351 377.62,-371.75"/>
<text text-anchor="middle" x="334" y="-358.25" font-family="Helvetica,sans-Serif" font-size="10.00">cpu_gemv_f32</text>
</a>
</g>
</g>
<!-- Node2&#45;&gt;Node5 -->
<g id="edge4_Node000002_Node000005" class="edge">
<title>Node2&#45;&gt;Node5</title>
<g id="a_edge4_Node000002_Node000005"><a xlink:title=" ">
<path fill="none" stroke="#63b8ff" d="M236.87,-333.24C251.88,-337.63 269.41,-342.76 285.35,-347.43"/>
<polygon fill="#63b8ff" stroke="#63b8ff" points="284.05,-350.69 294.63,-350.14 286.01,-343.98 284.05,-350.69"/>
</a>
</g>
</g>
<!-- Node10 -->
<g id="Node000010" class="node">
<title>Node10</title>
<g id="a_Node000010"><a xlink:href="ie__device__common_8c.html#a4c7a3b8d7f7279d7680aa68e429e6206" target="_top" xlink:title="CPU implementation of memcpy wrapper.">
<polygon fill="white" stroke="#666666" points="374.62,-332.75 293.38,-332.75 293.38,-312 374.62,-312 374.62,-332.75"/>
<text text-anchor="middle" x="334" y="-319.25" font-family="Helvetica,sans-Serif" font-size="10.00">cpu_memcpy</text>
</a>
</g>
</g>
<!-- Node2&#45;&gt;Node10 -->
<g id="edge9_Node000002_Node000010" class="edge">
<title>Node2&#45;&gt;Node10</title>
<g id="a_edge9_Node000002_Node000010"><a xlink:title=" ">
<path fill="none" stroke="#63b8ff" d="M248.23,-322.38C259.17,-322.38 270.81,-322.38 281.85,-322.38"/>
<polygon fill="#63b8ff" stroke="#63b8ff" points="281.57,-325.88 291.57,-322.38 281.57,-318.88 281.57,-325.88"/>
</a>
</g>
</g>
<!-- Node11 -->
<g id="Node000011" class="node">
<title>Node11</title>
<g id="a_Node000011"><a xlink:href="ie__device__common_8c.html#a4099e48a20d5155401706f728c99c435" target="_top" xlink:title="Allocate and initialize the CPU backend implementation.">
<polygon fill="white" stroke="#666666" points="363.38,-293.75 304.62,-293.75 304.62,-273 363.38,-273 363.38,-293.75"/>
<text text-anchor="middle" x="334" y="-280.25" font-family="Helvetica,sans-Serif" font-size="10.00">cpu_new</text>
</a>
</g>
</g>
<!-- Node2&#45;&gt;Node11 -->
<g id="edge10_Node000002_Node000011" class="edge">
<title>Node2&#45;&gt;Node11</title>
<g id="a_edge10_Node000002_Node000011"><a xlink:title=" ">
<path fill="none" stroke="#63b8ff" d="M236.87,-311.51C254.51,-306.35 275.62,-300.17 293.55,-294.92"/>
<polygon fill="#63b8ff" stroke="#63b8ff" points="294.46,-298.3 303.08,-292.13 292.5,-291.58 294.46,-298.3"/>
</a>
</g>
</g>
<!-- Node12 -->
<g id="Node000012" class="node">
<title>Node12</title>
<g id="a_Node000012"><a xlink:href="ie__device__common_8c.html#ae4ac15a3b8fea25568b8cdeb2cd781fe" target="_top" xlink:title="Attempt to construct a CUDA backend via dlopen (stub).">
<polygon fill="white" stroke="#666666" points="381,-254.75 287,-254.75 287,-234 381,-234 381,-254.75"/>
<text text-anchor="middle" x="334" y="-241.25" font-family="Helvetica,sans-Serif" font-size="10.00">cuda_try_create</text>
</a>
</g>
</g>
<!-- Node2&#45;&gt;Node12 -->
<g id="edge11_Node000002_Node000012" class="edge">
<title>Node2&#45;&gt;Node12</title>
<g id="a_edge11_Node000002_Node000012"><a xlink:title=" ">
<path fill="none" stroke="#63b8ff" d="M233.62,-311.61C239.65,-309.02 245.69,-305.95 251,-302.38 270.3,-289.39 267.95,-277.73 287,-264.38 288.95,-263.01 291.01,-261.71 293.13,-260.47"/>
<polygon fill="#63b8ff" stroke="#63b8ff" points="294.74,-263.58 302,-255.86 291.51,-257.36 294.74,-263.58"/>
</a>
</g>
</g>
<!-- Node18 -->
<g id="Node000018" class="node">
<title>Node18</title>
<g id="a_Node000018"><a xlink:href="ie__device__common_8c.html#a6877d362577444879b41090af23950d6" target="_top" xlink:title="Attempt to construct a Level Zero backend via dlopen (stub).">
<polygon fill="white" stroke="#666666" points="375,-118.75 293,-118.75 293,-98 375,-98 375,-118.75"/>
<text text-anchor="middle" x="334" y="-105.25" font-family="Helvetica,sans-Serif" font-size="10.00">ze_try_create</text>
</a>
</g>
</g>
<!-- Node2&#45;&gt;Node18 -->
<g id="edge17_Node000002_Node000018" class="edge">
<title>Node2&#45;&gt;Node18</title>
<g id="a_edge17_Node000002_Node000018"><a xlink:title=" ">
<path fill="none" stroke="#63b8ff" d="M237.96,-311.52C242.72,-309.05 247.23,-306.04 251,-302.38 257.61,-295.94 304.78,-179.04 324.44,-129.87"/>
<polygon fill="#63b8ff" stroke="#63b8ff" points="327.68,-131.19 328.14,-120.6 321.18,-128.59 327.68,-131.19"/>
</a>
</g>
</g>
<!-- Node6 -->
<g id="Node000006" class="node">
<title>Node6</title>
<g id="a_Node000006"><a xlink:href="gemv__generic_8c.html#a4e112b3396ed21919f404631c1d4d7fb" target="_top" xlink:title="GEMV: y[r] = dot(W[r, :], x) [+ bias[r]] for r in [0, rows).">
<polygon fill="white" stroke="#666666" points="505.38,-371.75 426.38,-371.75 426.38,-351 505.38,-351 505.38,-371.75"/>
<text text-anchor="middle" x="465.88" y="-358.25" font-family="Helvetica,sans-Serif" font-size="10.00">ie_gemv_f32</text>
</a>
</g>
</g>
<!-- Node5&#45;&gt;Node6 -->
<g id="edge5_Node000005_Node000006" class="edge">
<title>Node5&#45;&gt;Node6</title>
<g id="a_edge5_Node000005_Node000006"><a xlink:title=" ">
<path fill="none" stroke="#63b8ff" d="M377.89,-361.38C389.64,-361.38 402.5,-361.38 414.63,-361.38"/>
<polygon fill="#63b8ff" stroke="#63b8ff" points="414.46,-364.88 424.46,-361.38 414.46,-357.88 414.46,-364.88"/>
</a>
</g>
</g>
<!-- Node7 -->
<g id="Node000007" class="node">
<title>Node7</title>
<g id="a_Node000007"><a xlink:href="gemv__generic_8c.html#a1b919f71b86ec1791fe53bc68d5c240d" target="_top" xlink:title="Install the best available float GEMV kernel for this process.">
<polygon fill="white" stroke="#666666" points="651.5,-371.75 550.75,-371.75 550.75,-351 651.5,-351 651.5,-371.75"/>
<text text-anchor="middle" x="601.12" y="-358.25" font-family="Helvetica,sans-Serif" font-size="10.00">ie_kernels_install</text>
</a>
</g>
</g>
<!-- Node6&#45;&gt;Node7 -->
<g id="edge6_Node000006_Node000007" class="edge">
<title>Node6&#45;&gt;Node7</title>
<g id="a_edge6_Node000006_Node000007"><a xlink:title=" ">
<path fill="none" stroke="#63b8ff" d="M505.77,-361.38C516.26,-361.38 527.86,-361.38 539.24,-361.38"/>
<polygon fill="#63b8ff" stroke="#63b8ff" points="538.97,-364.88 548.97,-361.38 538.97,-357.88 538.97,-364.88"/>
</a>
</g>
</g>
<!-- Node8 -->
<g id="Node000008" class="node">
<title>Node8</title>
<g id="a_Node000008"><a xlink:href="gemv__generic_8c.html#a51096a373f5e5010d39cbf44e34b730d" target="_top" xlink:title="Generic C GEMV: y = W * x (+bias), optional blocked&#45;K layout.">
<polygon fill="white" stroke="#666666" points="811.12,-391.75 699.12,-391.75 699.12,-371 811.12,-371 811.12,-391.75"/>
<text text-anchor="middle" x="755.12" y="-378.25" font-family="Helvetica,sans-Serif" font-size="10.00">gemv_generic_impl</text>
</a>
</g>
</g>
<!-- Node7&#45;&gt;Node8 -->
<g id="edge7_Node000007_Node000008" class="edge">
<title>Node7&#45;&gt;Node8</title>
<g id="a_edge7_Node000007_Node000008"><a xlink:title=" ">
<path fill="none" stroke="#63b8ff" d="M651.9,-367.92C663.25,-369.42 675.49,-371.03 687.42,-372.6"/>
<polygon fill="#63b8ff" stroke="#63b8ff" points="686.85,-376.05 697.22,-373.89 687.76,-369.11 686.85,-376.05"/>
</a>
</g>
</g>
<!-- Node9 -->
<g id="Node000009" class="node">
<title>Node9</title>
<g id="a_Node000009"><a xlink:href="gemv__avx2_8c.html#a63b484c2984caeed7dfc9b5002444f57" target="_top" xlink:title="AVX2/FMA GEMV (float path), blocked&#45;K aware, with bias epilogue.">
<polygon fill="white" stroke="#666666" points="822.75,-352.75 687.5,-352.75 687.5,-332 822.75,-332 822.75,-352.75"/>
<text text-anchor="middle" x="755.12" y="-339.25" font-family="Helvetica,sans-Serif" font-size="10.00">ie_gemv_f32_avx2_impl</text>
</a>
</g>
</g>
<!-- Node7&#45;&gt;Node9 -->
<g id="edge8_Node000007_Node000009" class="edge">
<title>Node7&#45;&gt;Node9</title>
<g id="a_edge8_Node000007_Node000009"><a xlink:title=" ">
<path fill="none" stroke="#63b8ff" d="M651.9,-355.15C659.63,-354.19 667.79,-353.17 675.97,-352.14"/>
<polygon fill="#63b8ff" stroke="#63b8ff" points="676.13,-355.65 685.62,-350.94 675.26,-348.71 676.13,-355.65"/>
</a>
</g>
</g>
<!-- Node13 -->
<g id="Node000013" class="node">
<title>Node13</title>
<g id="a_Node000013"><a xlink:href="ie__device__common_8c.html#ad556dbc1215b961b5395a7948cd155a8" target="_top" xlink:title="Report CUDA capabilities (stub: unimplemented compute).">
<polygon fill="white" stroke="#666666" points="504.62,-332.75 427.12,-332.75 427.12,-312 504.62,-312 504.62,-332.75"/>
<text text-anchor="middle" x="465.88" y="-319.25" font-family="Helvetica,sans-Serif" font-size="10.00">cuda_caps_c</text>
</a>
</g>
</g>
<!-- Node12&#45;&gt;Node13 -->
<g id="edge12_Node000012_Node000013" class="edge">
<title>Node12&#45;&gt;Node13</title>
<g id="a_edge12_Node000012_Node000013"><a xlink:title=" ">
<path fill="none" stroke="#63b8ff" d="M364.66,-255.17C370.31,-257.8 376.01,-260.88 381,-264.38 400.05,-277.73 397.85,-289.16 417,-302.38 419.08,-303.81 421.28,-305.17 423.54,-306.45"/>
<polygon fill="#63b8ff" stroke="#63b8ff" points="421.89,-309.54 432.4,-310.92 425.04,-303.29 421.89,-309.54"/>
</a>
</g>
</g>
<!-- Node14 -->
<g id="Node000014" class="node">
<title>Node14</title>
<g id="a_Node000014"><a xlink:href="ie__device__common_8c.html#ad163f65fc15c9ca98d2ced5bfead8a06" target="_top" xlink:title="Destroy CUDA implementation and close libcuda handle.">
<polygon fill="white" stroke="#666666" points="511.75,-293.75 420,-293.75 420,-273 511.75,-273 511.75,-293.75"/>
<text text-anchor="middle" x="465.88" y="-280.25" font-family="Helvetica,sans-Serif" font-size="10.00">cuda_destroy_c</text>
</a>
</g>
</g>
<!-- Node12&#45;&gt;Node14 -->
<g id="edge13_Node000012_Node000014" class="edge">
<title>Node12&#45;&gt;Node14</title>
<g id="a_edge13_Node000012_Node000014"><a xlink:title=" ">
<path fill="none" stroke="#63b8ff" d="M371.18,-255.24C385.67,-259.59 402.56,-264.66 417.98,-269.29"/>
<polygon fill="#63b8ff" stroke="#63b8ff" points="416.86,-272.61 427.44,-272.13 418.87,-265.91 416.86,-272.61"/>
</a>
</g>
</g>
<!-- Node15 -->
<g id="Node000015" class="node">
<title>Node15</title>
<g id="a_Node000015"><a xlink:href="ie__device__common_8c.html#ab170c8ac731059b822713cd35cae51fe" target="_top" xlink:title="CUDA GEMV stub (returns unimplemented).">
<polygon fill="white" stroke="#666666" points="507.25,-254.75 424.5,-254.75 424.5,-234 507.25,-234 507.25,-254.75"/>
<text text-anchor="middle" x="465.88" y="-241.25" font-family="Helvetica,sans-Serif" font-size="10.00">cuda_gemv_c</text>
</a>
</g>
</g>
<!-- Node12&#45;&gt;Node15 -->
<g id="edge14_Node000012_Node000015" class="edge">
<title>Node12&#45;&gt;Node15</title>
<g id="a_edge14_Node000012_Node000015"><a xlink:title=" ">
<path fill="none" stroke="#63b8ff" d="M381.15,-244.38C391.33,-244.38 402.17,-244.38 412.56,-244.38"/>
<polygon fill="#63b8ff" stroke="#63b8ff" points="412.54,-247.88 422.54,-244.38 412.54,-240.88 412.54,-247.88"/>
</a>
</g>
</g>
<!-- Node16 -->
<g id="Node000016" class="node">
<title>Node16</title>
<g id="a_Node000016"><a xlink:href="ie__device__common_8c.html#acca54ad8925643337a1bab31bdf4b4f8" target="_top" xlink:title="CUDA memcpy stub (returns unimplemented).">
<polygon fill="white" stroke="#666666" points="514.75,-215.75 417,-215.75 417,-195 514.75,-195 514.75,-215.75"/>
<text text-anchor="middle" x="465.88" y="-202.25" font-family="Helvetica,sans-Serif" font-size="10.00">cuda_memcpy_c</text>
</a>
</g>
</g>
<!-- Node12&#45;&gt;Node16 -->
<g id="edge15_Node000012_Node000016" class="edge">
<title>Node12&#45;&gt;Node16</title>
<g id="a_edge15_Node000012_Node000016"><a xlink:title=" ">
<path fill="none" stroke="#63b8ff" d="M371.18,-233.51C385.67,-229.16 402.56,-224.09 417.98,-219.46"/>
<polygon fill="#63b8ff" stroke="#63b8ff" points="418.87,-222.84 427.44,-216.62 416.86,-216.14 418.87,-222.84"/>
</a>
</g>
</g>
<!-- Node17 -->
<g id="Node000017" class="node">
<title>Node17</title>
<g id="a_Node000017"><a xlink:href="ie__device__common_8c.html#a5b5f48338cddd2bed011b4c2384bac25" target="_top" xlink:title="Try to open one of the candidate shared libraries using dlopen.">
<polygon fill="white" stroke="#666666" points="506.88,-176.75 424.88,-176.75 424.88,-156 506.88,-156 506.88,-176.75"/>
<text text-anchor="middle" x="465.88" y="-163.25" font-family="Helvetica,sans-Serif" font-size="10.00">try_open_any</text>
</a>
</g>
</g>
<!-- Node12&#45;&gt;Node17 -->
<g id="edge16_Node000012_Node000017" class="edge">
<title>Node12&#45;&gt;Node17</title>
<g id="a_edge16_Node000012_Node000017"><a xlink:title=" ">
<path fill="none" stroke="#63b8ff" d="M348.32,-233.56C364.07,-221.11 391.37,-200.57 417,-186.38 419.81,-184.82 422.76,-183.31 425.76,-181.87"/>
<polygon fill="#63b8ff" stroke="#63b8ff" points="426.99,-185.15 434.66,-177.84 424.1,-178.78 426.99,-185.15"/>
</a>
</g>
</g>
<!-- Node18&#45;&gt;Node17 -->
<g id="edge18_Node000018_Node000017" class="edge">
<title>Node18&#45;&gt;Node17</title>
<g id="a_edge18_Node000018_Node000017"><a xlink:title=" ">
<path fill="none" stroke="#63b8ff" d="M357.52,-119.09C373.93,-126.84 396.75,-137.46 417,-146.38 420.57,-147.95 424.3,-149.56 428.04,-151.15"/>
<polygon fill="#63b8ff" stroke="#63b8ff" points="426.49,-154.3 437.06,-154.96 429.21,-147.85 426.49,-154.3"/>
</a>
</g>
</g>
<!-- Node19 -->
<g id="Node000019" class="node">
<title>Node19</title>
<g id="a_Node000019"><a xlink:href="ie__device__common_8c.html#a324768d76bae88d6bb688d5598d1223a" target="_top" xlink:title="Report Level Zero capabilities (stub: unimplemented compute).">
<polygon fill="white" stroke="#666666" points="498.62,-137.75 433.12,-137.75 433.12,-117 498.62,-117 498.62,-137.75"/>
<text text-anchor="middle" x="465.88" y="-124.25" font-family="Helvetica,sans-Serif" font-size="10.00">ze_caps_c</text>
</a>
</g>
</g>
<!-- Node18&#45;&gt;Node19 -->
<g id="edge19_Node000018_Node000019" class="edge">
<title>Node18&#45;&gt;Node19</title>
<g id="a_edge19_Node000018_Node000019"><a xlink:title=" ">
<path fill="none" stroke="#63b8ff" d="M375.38,-114.28C390.1,-116.44 406.79,-118.88 421.73,-121.06"/>
<polygon fill="#63b8ff" stroke="#63b8ff" points="420.86,-124.47 431.26,-122.46 421.88,-117.55 420.86,-124.47"/>
</a>
</g>
</g>
<!-- Node20 -->
<g id="Node000020" class="node">
<title>Node20</title>
<g id="a_Node000020"><a xlink:href="ie__device__common_8c.html#a94018036cde4e553d082aad200a3c4ff" target="_top" xlink:title="Destroy Level Zero implementation and close loader handle.">
<polygon fill="white" stroke="#666666" points="505.75,-98.75 426,-98.75 426,-78 505.75,-78 505.75,-98.75"/>
<text text-anchor="middle" x="465.88" y="-85.25" font-family="Helvetica,sans-Serif" font-size="10.00">ze_destroy_c</text>
</a>
</g>
</g>
<!-- Node18&#45;&gt;Node20 -->
<g id="edge20_Node000018_Node000020" class="edge">
<title>Node18&#45;&gt;Node20</title>
<g id="a_edge20_Node000018_Node000020"><a xlink:title=" ">
<path fill="none" stroke="#63b8ff" d="M375.38,-102.16C387.82,-100.24 401.67,-98.11 414.69,-96.1"/>
<polygon fill="#63b8ff" stroke="#63b8ff" points="415.01,-99.6 424.36,-94.61 413.94,-92.68 415.01,-99.6"/>
</a>
</g>
</g>
<!-- Node21 -->
<g id="Node000021" class="node">
<title>Node21</title>
<g id="a_Node000021"><a xlink:href="ie__device__common_8c.html#a57f5ec5d8bd44ff5f04b6f581a33dfde" target="_top" xlink:title="Level Zero GEMV stub (returns unimplemented).">
<polygon fill="white" stroke="#666666" points="501.25,-59.75 430.5,-59.75 430.5,-39 501.25,-39 501.25,-59.75"/>
<text text-anchor="middle" x="465.88" y="-46.25" font-family="Helvetica,sans-Serif" font-size="10.00">ze_gemv_c</text>
</a>
</g>
</g>
<!-- Node18&#45;&gt;Node21 -->
<g id="edge21_Node000018_Node000021" class="edge">
<title>Node18&#45;&gt;Node21</title>
<g id="a_edge21_Node000018_Node000021"><a xlink:title=" ">
<path fill="none" stroke="#63b8ff" d="M356.79,-97.66C373.24,-89.66 396.41,-78.56 417,-69.38 420.56,-67.78 424.29,-66.16 428.02,-64.56"/>
<polygon fill="#63b8ff" stroke="#63b8ff" points="429.2,-67.86 437.04,-60.74 426.47,-61.42 429.2,-67.86"/>
</a>
</g>
</g>
<!-- Node22 -->
<g id="Node000022" class="node">
<title>Node22</title>
<g id="a_Node000022"><a xlink:href="ie__device__common_8c.html#a0e34398da92bf6645c6ee75e561ca526" target="_top" xlink:title="Level Zero memcpy stub (returns unimplemented).">
<polygon fill="white" stroke="#666666" points="508.75,-20.75 423,-20.75 423,0 508.75,0 508.75,-20.75"/>
<text text-anchor="middle" x="465.88" y="-7.25" font-family="Helvetica,sans-Serif" font-size="10.00">ze_memcpy_c</text>
</a>
</g>
</g>
<!-- Node18&#45;&gt;Node22 -->
<g id="edge22_Node000018_Node000022" class="edge">
<title>Node18&#45;&gt;Node22</title>
<g id="a_edge22_Node000018_Node000022"><a xlink:title=" ">
<path fill="none" stroke="#63b8ff" d="M343.85,-97.76C357.92,-81.44 386.89,-50.02 417,-30.38 419.26,-28.9 421.65,-27.5 424.1,-26.17"/>
<polygon fill="#63b8ff" stroke="#63b8ff" points="425.59,-29.34 433.04,-21.8 422.52,-23.05 425.59,-29.34"/>
</a>
</g>
</g>
</g>
</svg>

<g id="navigator" transform="translate(0 0)" fill="#404254">
  <rect fill="#f2f5e9" fill-opacity="0.5" stroke="#606060" stroke-width=".5" x="0" y="0" width="60" height="60"/>
  <use id="zoomplus" xlink:href="#zoomPlus" x="17" y="9" onmousedown="handleZoom(evt,'in')"/>
  <use id="zoomminus" xlink:href="#zoomMin" x="42" y="9" onmousedown="handleZoom(evt,'out')"/>
  <use id="reset" xlink:href="#resetDef" x="30" y="36" onmousedown="handleReset()"/>
   <use id="arrowup" xlink:href="#arrowUp" x="0" y="0" onmousedown="handlePan(0,-1)"/>
  <use id="arrowright" xlink:href="#arrowRight" x="0" y="0" onmousedown="handlePan(1,0)"/>
  <use id="arrowdown" xlink:href="#arrowDown" x="0" y="0" onmousedown="handlePan(0,1)"/>
  <use id="arrowleft" xlink:href="#arrowLeft" x="0" y="0" onmousedown="handlePan(-1,0)"/>
</g>
<svg viewBox="0 0 15 15" width="100%" height="30px" preserveAspectRatio="xMaxYMin meet">
 <g id="arrow_out" transform="scale(0.3 0.3)">
  <a xlink:href="ie__device_8h_ad8fe47f93fa5e18c7cf07a153f1de2fb_cgraph_org.svg" target="_base">
   <rect id="button" ry="5" rx="5" y="6" x="6" height="38" width="38"
        fill="#f2f5e9" fill-opacity="0.5" stroke="#606060" stroke-width="1.0"/>
   <path id="arrow"
     d="M 11.500037,31.436501 C 11.940474,20.09759 22.043105,11.32322 32.158766,21.979434 L 37.068811,17.246167 C 37.068811,17.246167 37.088388,32 37.088388,32 L 22.160133,31.978069 C 22.160133,31.978069 26.997745,27.140456 26.997745,27.140456 C 18.528582,18.264221 13.291696,25.230495 11.500037,31.436501 z"
     style="fill:#404040;"/>
  </a>
 </g>
</svg>

<style type='text/css'>
<![CDATA[
[data-mouse-over-selected='false'] { opacity: 0.7; }
[data-mouse-over-selected='true']  { opacity: 1.0; }
]]>
</style>
<script type="application/ecmascript"><![CDATA[
document.addEventListener('DOMContentLoaded', (event) => {
  highlightEdges();
  highlightAdjacentNodes();
});
]]></script>
</svg>
