<?xml version="1.0" encoding="UTF-8" standalone="no"?>
<!DOCTYPE svg PUBLIC "-//W3C//DTD SVG 1.1//EN"
 "http://www.w3.org/Graphics/SVG/1.1/DTD/svg11.dtd">
<!-- Generated by graphviz version 2.43.0 (0)
 -->
<!-- Title: engine/include/ie_math.h Pages: 1 -->
<svg width="254pt" height="95pt"
 viewBox="0.00 0.00 253.50 95.00" xmlns="http://www.w3.org/2000/svg" xmlns:xlink="http://www.w3.org/1999/xlink">
<g id="graph0" class="graph" transform="scale(1 1) rotate(0) translate(4 91)">
<title>engine/include/ie_math.h</title>
<!-- Node1 -->
<g id="node1" class="node">
<title>Node1</title>
<g id="a_node1"><a xlink:title="Math utilities for activation functions and vector helpers.">
<polygon fill="#bfbfbf" stroke="black" points="54.5,-67.5 54.5,-86.5 194.5,-86.5 194.5,-67.5 54.5,-67.5"/>
<text text-anchor="middle" x="124.5" y="-74.5" font-family="Helvetica,sans-Serif" font-size="10.00">engine/include/ie_math.h</text>
</a>
</g>
</g>
<!-- Node2 -->
<g id="node2" class="node">
<title>Node2</title>
<g id="a_node2"><a xlink:href="fast__tanh_8c.html" target="_top" xlink:title="Fast tanh approximation (scalar and vector forms) with strict [&#45;1, 1] clamping.">
<polygon fill="none" stroke="black" points="0,-0.5 0,-30.5 117,-30.5 117,-0.5 0,-0.5"/>
<text text-anchor="start" x="8" y="-18.5" font-family="Helvetica,sans-Serif" font-size="10.00">engine/src/math/fast</text>
<text text-anchor="middle" x="58.5" y="-7.5" font-family="Helvetica,sans-Serif" font-size="10.00">_tanh.c</text>
</a>
</g>
</g>
<!-- Node1&#45;&gt;Node2 -->
<g id="edge1" class="edge">
<title>Node1&#45;&gt;Node2</title>
<path fill="none" stroke="midnightblue" d="M107.47,-60.65C97.15,-51.35 84.09,-39.57 74.05,-30.52"/>
<polygon fill="midnightblue" stroke="midnightblue" points="105.27,-63.38 115.04,-67.48 109.96,-58.18 105.27,-63.38"/>
</g>
<!-- Node3 -->
<g id="node3" class="node">
<title>Node3</title>
<g id="a_node3"><a xlink:href="test__math_8c.html" target="_top" xlink:title="Validate fast tanh approximation and libm path bounds.">
<polygon fill="none" stroke="black" points="135.5,-6 135.5,-25 245.5,-25 245.5,-6 135.5,-6"/>
<text text-anchor="middle" x="190.5" y="-13" font-family="Helvetica,sans-Serif" font-size="10.00">tests/c/test_math.c</text>
</a>
</g>
</g>
<!-- Node1&#45;&gt;Node3 -->
<g id="edge2" class="edge">
<title>Node1&#45;&gt;Node3</title>
<path fill="none" stroke="midnightblue" d="M141.53,-60.65C154.11,-49.31 170.78,-34.28 181.06,-25.01"/>
<polygon fill="midnightblue" stroke="midnightblue" points="139.04,-58.18 133.96,-67.48 143.73,-63.38 139.04,-58.18"/>
</g>
</g>
</svg>
