<?xml version="1.0" encoding="UTF-8" standalone="no"?>
<!DOCTYPE svg PUBLIC "-//W3C//DTD SVG 1.1//EN"
 "http://www.w3.org/Graphics/SVG/1.1/DTD/svg11.dtd">
<!-- Generated by graphviz version 2.43.0 (0)
 -->
<!-- Title: ie_gemv_qi8_f32 Pages: 1 -->
<!--zoomable 253 -->

<svg id="main" version="1.1" xmlns="http://www.w3.org/2000/svg" xmlns:xlink="http://www.w3.org/1999/xlink" xml:space="preserve" onload="init(evt)">
<style type="text/css"><![CDATA[
.node, .edge {opacity: 0.7;}
.node.selected, .edge.selected {opacity: 1;}
.edge:hover path { stroke: red; }
.edge:hover polygon { stroke: red; fill: red; }
]]></style>

<defs>
  <circle id="rim" cx="0" cy="0" r="7"/>
  <circle id="rim2" cx="0" cy="0" r="3.5"/>
  <g id="zoomPlus">
    <use xlink:href="#rim" fill="#404040"><set attributeName="fill" to="#808080" begin="zoomplus.mouseover" end="zoomplus.mouseout"/></use>
    <path d="M-4,0h8M0,-4v8" fill="none" stroke="white" stroke-width="1.5" pointer-events="none"/>
  </g>
  <g id="zoomMin">
    <use xlink:href="#rim" fill="#404040"><set attributeName="fill" to="#808080" begin="zoomminus.mouseover" end="zoomminus.mouseout"/></use>
    <path d="M-4,0h8" fill="none" stroke="white" stroke-width="1.5" pointer-events="none"/>
  </g>
  <g id="arrowUp" transform="translate(30 24)">
    <use xlink:href="#rim"/>
    <path pointer-events="none" fill="none" stroke="white" stroke-width="1.5" d="M0,-3.0v7 M-2.5,-0.5L0,-3.0L2.5,-0.5"/>
  </g>
  <g id="arrowRight" transform="rotate(90) translate(36 -43)">
    <use xlink:href="#rim"/>
    <path pointer-events="none" fill="none" stroke="white" stroke-width="1.5" d="M0,-3.0v7 M-2.5,-0.5L0,-3.0L2.5,-0.5"/>
  </g>
  <g id="arrowDown" transform="rotate(180) translate(-30 -48)">
    <use xlink:href="#rim"/>
    <path pointer-events="none" fill="none" stroke="white" stroke-width="1.5" d="M0,-3.0v7 M-2.5,-0.5L0,-3.0L2.5,-0.5"/>
  </g>
  <g id="arrowLeft" transform="rotate(270) translate(-36 17)">
    <use xlink:href="#rim"/>
    <path pointer-events="none" fill="none" stroke="white" stroke-width="1.5" d="M0,-3.0v7 M-2.5,-0.5L0,-3.0L2.5,-0.5"/>
  </g>
  <g id="resetDef">
    <use xlink:href="#rim2" fill="#404040"><set attributeName="fill" to="#808080" begin="reset.mouseover" end="reset.mouseout"/></use>
  </g>
</defs>
<script type="application/ecmascript">
var viewWidth = 787;
var viewHeight = 253;
var sectionId = 'dynsection-6';
</script>
<script type="application/ecmascript" xlink:href="svg.min.js"/>
<svg id="graph" class="graph">
<g id="viewport">
<title>ie_gemv_qi8_f32</title>
<!-- Node1 -->
<g id="Node000001" class="node">
<title>Node1</title>
<g id="a_Node000001"><a xlink:title="GEMV with per&#45;tensor INT8 activations (fused dequantization).">
<polygon fill="#999999" stroke="#666666" points="100,-196.78 0,-196.78 0,-177.78 100,-177.78 100,-196.78"/>
<text text-anchor="middle" x="50" y="-184.78" font-family="Helvetica,sans-Serif" font-size="10.00">ie_gemv_qi8_f32</text>
</a>
</g>
</g>
<!-- Node2 -->
<g id="Node000002" class="node">
<title>Node2</title>
<g id="a_Node000002"><a xlink:href="gemv__generic_8c.html#aae97939d123420c09e5c3d4d7575b934" target="_top" xlink:title="GEMV with per&#45;tensor INT8 activations (fused dequantization), C path.">
<polygon fill="white" stroke="#666666" points="618,-245.28 500,-245.28 500,-215.28 618,-215.28 618,-245.28"/>
<text text-anchor="start" x="508" y="-233.28" font-family="Helvetica,sans-Serif" font-size="10.00">gemv_qi8_f32_fused</text>
<text text-anchor="middle" x="559" y="-222.28" font-family="Helvetica,sans-Serif" font-size="10.00">_c_impl</text>
</a>
</g>
</g>
<!-- Node1&#45;&gt;Node2 -->
<g id="edge1_Node000001_Node000002" class="edge">
<title>Node1&#45;&gt;Node2</title>
<g id="a_edge1_Node000001_Node000002"><a xlink:title=" ">
<path fill="none" stroke="#63b8ff" d="M100.33,-196.22C112,-198.1 124.41,-199.93 136,-201.28 260.29,-215.75 406.08,-223.81 489.69,-227.58"/>
<polygon fill="#63b8ff" stroke="#63b8ff" points="489.67,-231.08 499.82,-228.03 489.98,-224.09 489.67,-231.08"/>
</a>
</g>
</g>
<!-- Node3 -->
<g id="Node000003" class="node">
<title>Node3</title>
<g id="a_Node000003"><a xlink:href="ie__device__cuda_8cu.html#a5e3d9fee84981707669f5c2398f0c4ab" target="_top" xlink:title="Row&#45;wise GEMV kernel: each thread computes one output row.">
<polygon fill="white" stroke="#666666" points="779,-126.28 654,-126.28 654,-96.28 779,-96.28 779,-126.28"/>
<text text-anchor="start" x="662" y="-114.28" font-family="Helvetica,sans-Serif" font-size="10.00">ie_gemv_rowwise_f32</text>
<text text-anchor="middle" x="716.5" y="-103.28" font-family="Helvetica,sans-Serif" font-size="10.00">_kernel</text>
</a>
</g>
</g>
<!-- Node1&#45;&gt;Node3 -->
<g id="edge13_Node000001_Node000003" class="edge">
<title>Node1&#45;&gt;Node3</title>
<g id="a_edge13_Node000001_Node000003"><a xlink:title=" ">
<path fill="none" stroke="#63b8ff" d="M100.19,-188.45C199.37,-189.79 429.88,-187.78 618,-147.28 636.28,-143.34 655.75,-136.69 672.44,-130.17"/>
<polygon fill="#63b8ff" stroke="#63b8ff" points="673.94,-133.34 681.91,-126.37 671.33,-126.84 673.94,-133.34"/>
</a>
</g>
</g>
<!-- Node4 -->
<g id="Node000004" class="node">
<title>Node4</title>
<g id="a_Node000004"><a xlink:href="gemv__avx2_8c.html#aa8a6c887be55a3af970b49855f86682d" target="_top" xlink:title="AVX2/FMA GEMV with per&#45;tensor INT8 activations, provided by gemv_avx2.c.">
<polygon fill="white" stroke="#666666" points="292,-120.78 136,-120.78 136,-101.78 292,-101.78 292,-120.78"/>
<text text-anchor="middle" x="214" y="-108.78" font-family="Helvetica,sans-Serif" font-size="10.00">ie_gemv_qi8_f32_avx2_impl</text>
</a>
</g>
</g>
<!-- Node1&#45;&gt;Node4 -->
<g id="edge3_Node000001_Node000004" class="edge">
<title>Node1&#45;&gt;Node4</title>
<g id="a_edge3_Node000001_Node000004"><a xlink:title=" ">
<path fill="none" stroke="#63b8ff" d="M71.52,-177.65C99.76,-164.41 150.79,-140.47 183.22,-125.25"/>
<polygon fill="#63b8ff" stroke="#63b8ff" points="185.08,-128.24 192.65,-120.83 182.11,-121.91 185.08,-128.24"/>
</a>
</g>
</g>
<!-- Node2&#45;&gt;Node3 -->
<g id="edge2_Node000002_Node000003" class="edge">
<title>Node2&#45;&gt;Node3</title>
<g id="a_edge2_Node000002_Node000003"><a xlink:title=" ">
<path fill="none" stroke="#63b8ff" d="M594.04,-215.27C602.15,-211.15 610.59,-206.4 618,-201.28 646.95,-181.28 676.06,-153.11 694.83,-133.64"/>
<polygon fill="#63b8ff" stroke="#63b8ff" points="697.38,-136.04 701.74,-126.38 692.31,-131.21 697.38,-136.04"/>
</a>
</g>
</g>
<!-- Node4&#45;&gt;Node3 -->
<g id="edge12_Node000004_Node000003" class="edge">
<title>Node4&#45;&gt;Node3</title>
<g id="a_edge12_Node000004_Node000003"><a xlink:title=" ">
<path fill="none" stroke="#63b8ff" d="M283.32,-120.8C298.03,-122.55 313.51,-124.17 328,-125.28 456.53,-135.09 489.69,-142.67 618,-130.28 626.39,-129.47 635.13,-128.28 643.78,-126.88"/>
<polygon fill="#63b8ff" stroke="#63b8ff" points="644.6,-130.29 653.87,-125.15 643.42,-123.39 644.6,-130.29"/>
</a>
</g>
</g>
<!-- Node5 -->
<g id="Node000005" class="node">
<title>Node5</title>
<g id="a_Node000005"><a xlink:href="gemv__avx2_8c.html#ab8bfc2b6932f6ab5333d08820254657b" target="_top" xlink:title="Free a buffer allocated by ie_aligned_malloc_64.">
<polygon fill="white" stroke="#666666" points="613.5,-120.78 504.5,-120.78 504.5,-101.78 613.5,-101.78 613.5,-120.78"/>
<text text-anchor="middle" x="559" y="-108.78" font-family="Helvetica,sans-Serif" font-size="10.00">ie_aligned_free_64</text>
</a>
</g>
</g>
<!-- Node4&#45;&gt;Node5 -->
<g id="edge4_Node000004_Node000005" class="edge">
<title>Node4&#45;&gt;Node5</title>
<g id="a_edge4_Node000004_Node000005"><a xlink:title=" ">
<path fill="none" stroke="#63b8ff" d="M292.4,-111.28C353.23,-111.28 436.92,-111.28 494,-111.28"/>
<polygon fill="#63b8ff" stroke="#63b8ff" points="494.34,-114.78 504.34,-111.28 494.34,-107.78 494.34,-114.78"/>
</a>
</g>
</g>
<!-- Node6 -->
<g id="Node000006" class="node">
<title>Node6</title>
<g id="a_Node000006"><a xlink:href="gemv__avx2_8c.html#a98f4555def3b7ae80b82b7dbdb90b616" target="_top" xlink:title="Allocate a 64&#45;byte aligned buffer with C11 aligned_alloc rules.">
<polygon fill="white" stroke="#666666" points="457,-82.78 335,-82.78 335,-63.78 457,-63.78 457,-82.78"/>
<text text-anchor="middle" x="396" y="-70.78" font-family="Helvetica,sans-Serif" font-size="10.00">ie_aligned_malloc_64</text>
</a>
</g>
</g>
<!-- Node4&#45;&gt;Node6 -->
<g id="edge6_Node000004_Node000006" class="edge">
<title>Node4&#45;&gt;Node6</title>
<g id="a_edge6_Node000004_Node000006"><a xlink:title=" ">
<path fill="none" stroke="#63b8ff" d="M260.42,-101.69C284.6,-96.59 314.53,-90.27 340.01,-84.89"/>
<polygon fill="#63b8ff" stroke="#63b8ff" points="340.84,-88.29 349.91,-82.8 339.4,-81.44 340.84,-88.29"/>
</a>
</g>
</g>
<!-- Node8 -->
<g id="Node000008" class="node">
<title>Node8</title>
<g id="a_Node000008"><a xlink:href="gemv__avx2_8c.html#a63b484c2984caeed7dfc9b5002444f57" target="_top" xlink:title="AVX2/FMA GEMV (fp32), blocked&#45;K aware, optional bias epilogue.">
<polygon fill="white" stroke="#666666" points="464,-26.78 328,-26.78 328,-7.78 464,-7.78 464,-26.78"/>
<text text-anchor="middle" x="396" y="-14.78" font-family="Helvetica,sans-Serif" font-size="10.00">ie_gemv_f32_avx2_impl</text>
</a>
</g>
</g>
<!-- Node4&#45;&gt;Node8 -->
<g id="edge10_Node000004_Node000008" class="edge">
<title>Node4&#45;&gt;Node8</title>
<g id="a_edge10_Node000004_Node000008"><a xlink:title=" ">
<path fill="none" stroke="#63b8ff" d="M233.25,-101.75C264.92,-85.21 330.22,-51.11 367.44,-31.67"/>
<polygon fill="#63b8ff" stroke="#63b8ff" points="369.46,-34.57 376.7,-26.84 366.22,-28.36 369.46,-34.57"/>
</a>
</g>
</g>
<!-- Node5&#45;&gt;Node3 -->
<g id="edge5_Node000005_Node000003" class="edge">
<title>Node5&#45;&gt;Node3</title>
<g id="a_edge5_Node000005_Node000003"><a xlink:title=" ">
<path fill="none" stroke="#63b8ff" d="M613.51,-111.28C623.27,-111.28 633.58,-111.28 643.76,-111.28"/>
<polygon fill="#63b8ff" stroke="#63b8ff" points="643.87,-114.78 653.87,-111.28 643.87,-107.78 643.87,-114.78"/>
</a>
</g>
</g>
<!-- Node6&#45;&gt;Node3 -->
<g id="edge7_Node000006_Node000003" class="edge">
<title>Node6&#45;&gt;Node3</title>
<g id="a_edge7_Node000006_Node000003"><a xlink:title=" ">
<path fill="none" stroke="#63b8ff" d="M457.2,-77.22C501.73,-80.5 563.8,-85.84 618,-93.28 626.33,-94.42 635.04,-95.79 643.67,-97.24"/>
<polygon fill="#63b8ff" stroke="#63b8ff" points="643.29,-100.73 653.74,-98.99 644.49,-93.83 643.29,-100.73"/>
</a>
</g>
</g>
<!-- Node7 -->
<g id="Node000007" class="node">
<title>Node7</title>
<g id="a_Node000007"><a xlink:href="gemv__avx2_8c.html#a18c7fc5422d78bcaf53f4d2d178ff3d6" target="_top" xlink:title="Round n up to a multiple of a (a must be power of two).">
<polygon fill="white" stroke="#666666" points="612.5,-44.78 505.5,-44.78 505.5,-25.78 612.5,-25.78 612.5,-44.78"/>
<text text-anchor="middle" x="559" y="-32.78" font-family="Helvetica,sans-Serif" font-size="10.00">ie_round_up_pow2</text>
</a>
</g>
</g>
<!-- Node6&#45;&gt;Node7 -->
<g id="edge8_Node000006_Node000007" class="edge">
<title>Node6&#45;&gt;Node7</title>
<g id="a_edge8_Node000006_Node000007"><a xlink:title=" ">
<path fill="none" stroke="#63b8ff" d="M437.63,-63.69C458.97,-58.65 485.31,-52.44 507.91,-47.1"/>
<polygon fill="#63b8ff" stroke="#63b8ff" points="508.74,-50.5 517.67,-44.8 507.13,-43.69 508.74,-50.5"/>
</a>
</g>
</g>
<!-- Node7&#45;&gt;Node3 -->
<g id="edge9_Node000007_Node000003" class="edge">
<title>Node7&#45;&gt;Node3</title>
<g id="a_edge9_Node000007_Node000003"><a xlink:title=" ">
<path fill="none" stroke="#63b8ff" d="M584.5,-44.8C594.93,-49.01 607.16,-54.16 618,-59.28 638.92,-69.16 661.78,-81.27 680.09,-91.32"/>
<polygon fill="#63b8ff" stroke="#63b8ff" points="678.51,-94.45 688.96,-96.22 681.9,-88.32 678.51,-94.45"/>
</a>
</g>
</g>
<!-- Node8&#45;&gt;Node3 -->
<g id="edge11_Node000008_Node000003" class="edge">
<title>Node8&#45;&gt;Node3</title>
<g id="a_edge11_Node000008_Node000003"><a xlink:title=" ">
<path fill="none" stroke="#63b8ff" d="M439.95,-7.73C485.86,0.39 559.89,7.35 618,-16.28 653.33,-30.65 682.86,-64.65 699.87,-87.83"/>
<polygon fill="#63b8ff" stroke="#63b8ff" points="697.11,-89.99 705.76,-96.12 702.82,-85.94 697.11,-89.99"/>
</a>
</g>
</g>
</g>
</svg>

<g id="navigator" transform="translate(0 0)" fill="#404254">
  <rect fill="#f2f5e9" fill-opacity="0.5" stroke="#606060" stroke-width=".5" x="0" y="0" width="60" height="60"/>
  <use id="zoomplus" xlink:href="#zoomPlus" x="17" y="9" onmousedown="handleZoom(evt,'in')"/>
  <use id="zoomminus" xlink:href="#zoomMin" x="42" y="9" onmousedown="handleZoom(evt,'out')"/>
  <use id="reset" xlink:href="#resetDef" x="30" y="36" onmousedown="handleReset()"/>
   <use id="arrowup" xlink:href="#arrowUp" x="0" y="0" onmousedown="handlePan(0,-1)"/>
  <use id="arrowright" xlink:href="#arrowRight" x="0" y="0" onmousedown="handlePan(1,0)"/>
  <use id="arrowdown" xlink:href="#arrowDown" x="0" y="0" onmousedown="handlePan(0,1)"/>
  <use id="arrowleft" xlink:href="#arrowLeft" x="0" y="0" onmousedown="handlePan(-1,0)"/>
</g>
<svg viewBox="0 0 15 15" width="100%" height="30px" preserveAspectRatio="xMaxYMin meet">
 <g id="arrow_out" transform="scale(0.3 0.3)">
  <a xlink:href="ie__kernels_8h_abd518beacb02189b5b640948ed348f25_cgraph_org.svg" target="_base">
   <rect id="button" ry="5" rx="5" y="6" x="6" height="38" width="38"
        fill="#f2f5e9" fill-opacity="0.5" stroke="#606060" stroke-width="1.0"/>
   <path id="arrow"
     d="M 11.500037,31.436501 C 11.940474,20.09759 22.043105,11.32322 32.158766,21.979434 L 37.068811,17.246167 C 37.068811,17.246167 37.088388,32 37.088388,32 L 22.160133,31.978069 C 22.160133,31.978069 26.997745,27.140456 26.997745,27.140456 C 18.528582,18.264221 13.291696,25.230495 11.500037,31.436501 z"
     style="fill:#404040;"/>
  </a>
 </g>
</svg>

<style type='text/css'>
<![CDATA[
[data-mouse-over-selected='false'] { opacity: 0.7; }
[data-mouse-over-selected='true']  { opacity: 1.0; }
]]>
</style>
<script type="application/ecmascript"><![CDATA[
document.addEventListener('DOMContentLoaded', (event) => {
  highlightEdges();
  highlightAdjacentNodes();
});
]]></script>
</svg>
