<?xml version="1.0" encoding="UTF-8" standalone="no"?>
<!DOCTYPE svg PUBLIC "-//W3C//DTD SVG 1.1//EN"
 "http://www.w3.org/Graphics/SVG/1.1/DTD/svg11.dtd">
<!-- Generated by graphviz version 12.2.1 (20241206.2353)
 -->
<!-- Title: ie_apply_activation Pages: 1 -->
<svg width="437pt" height="42pt"
 viewBox="0.00 0.00 437.00 41.50" xmlns="http://www.w3.org/2000/svg" xmlns:xlink="http://www.w3.org/1999/xlink">
<g id="graph0" class="graph" transform="scale(1 1) rotate(0) translate(4 37.5)">
<title>ie_apply_activation</title>
<!-- Node1 -->
<g id="Node000001" class="node">
<title>Node1</title>
<g id="a_Node000001"><a xlink:title="Apply activation in an epilogue.">
<polygon fill="#999999" stroke="#666666" points="429,-27.12 317.75,-27.12 317.75,-6.38 429,-6.38 429,-27.12"/>
<text text-anchor="middle" x="373.38" y="-13.62" font-family="Helvetica,sans-Serif" font-size="10.00">ie_apply_activation</text>
</a>
</g>
</g>
<!-- Node2 -->
<g id="Node000002" class="node">
<title>Node2</title>
<g id="a_Node000002"><a xlink:href="ie__kernels__cuda_8cu.html#ab9150fe6fc7da507974bfdd38b262ce2" target="_top" xlink:title="Kernel: fused GEMV + bias + activation.">
<polygon fill="white" stroke="#666666" points="281.75,-27.12 160,-27.12 160,-6.38 281.75,-6.38 281.75,-27.12"/>
<text text-anchor="middle" x="220.88" y="-13.62" font-family="Helvetica,sans-Serif" font-size="10.00">k_gemv_bias_act_f32</text>
</a>
</g>
</g>
<!-- Node1&#45;&gt;Node2 -->
<g id="edge1_Node000001_Node000002" class="edge">
<title>Node1&#45;&gt;Node2</title>
<g id="a_edge1_Node000001_Node000002"><a xlink:title=" ">
<path fill="none" stroke="#63b8ff" d="M306.38,-16.75C298.33,-16.75 290.14,-16.75 282.19,-16.75"/>
<polygon fill="#63b8ff" stroke="#63b8ff" points="306.1,-20.25 316.1,-16.75 306.1,-13.25 306.1,-20.25"/>
</a>
</g>
</g>
<!-- Node3 -->
<g id="Node000003" class="node">
<title>Node3</title>
<g id="a_Node000003"><a xlink:href="group__IE__GPU.html#gaa2441c827e95b20c0413b0372ffc262b" target="_top" xlink:title="Compute y = act(alpha * W*x + bias + beta*y) in one pass.">
<polygon fill="white" stroke="#666666" points="124,-33.5 0,-33.5 0,0 124,0 124,-33.5"/>
<text text-anchor="start" x="8" y="-20" font-family="Helvetica,sans-Serif" font-size="10.00">ie_cuda_launch_gemv</text>
<text text-anchor="middle" x="62" y="-7.25" font-family="Helvetica,sans-Serif" font-size="10.00">_bias_act_f32</text>
</a>
</g>
</g>
<!-- Node2&#45;&gt;Node3 -->
<g id="edge2_Node000002_Node000003" class="edge">
<title>Node2&#45;&gt;Node3</title>
<g id="a_edge2_Node000002_Node000003"><a xlink:title=" ">
<path fill="none" stroke="#63b8ff" d="M148.41,-16.75C140.37,-16.75 132.23,-16.75 124.34,-16.75"/>
<polygon fill="#63b8ff" stroke="#63b8ff" points="148.16,-20.25 158.16,-16.75 148.16,-13.25 148.16,-20.25"/>
</a>
</g>
</g>
</g>
</svg>
