<?xml version="1.0" encoding="UTF-8" standalone="no"?>
<!DOCTYPE svg PUBLIC "-//W3C//DTD SVG 1.1//EN"
 "http://www.w3.org/Graphics/SVG/1.1/DTD/svg11.dtd">
<!-- Generated by graphviz version 2.43.0 (0)
 -->
<!-- Title: engine/src/devices/ie_device_common.c Pages: 1 -->
<!--zoomable 207 -->
<svg id="main" version="1.1" xmlns="http://www.w3.org/2000/svg" xmlns:xlink="http://www.w3.org/1999/xlink" xml:space="preserve" onload="init(evt)">
<style type="text/css"><![CDATA[
.edge:hover path { stroke: red; }
.edge:hover polygon { stroke: red; fill: red; }
]]></style>
<script type="text/javascript"><![CDATA[
var edges = document.getElementsByTagName('g');
if (edges && edges.length) {
  for (var i=0;i<edges.length;i++) {
    if (edges[i].id.substr(0,4)=='edge') {
      edges[i].setAttribute('class','edge');
    }
  }
}
]]></script>
        <defs>
                <circle id="rim" cx="0" cy="0" r="7"/>
                <circle id="rim2" cx="0" cy="0" r="3.5"/>
                <g id="zoomPlus">
                        <use xlink:href="#rim" fill="#404040">
                                <set attributeName="fill" to="#808080" begin="zoomplus.mouseover" end="zoomplus.mouseout"/>
                        </use>
                        <path d="M-4,0h8M0,-4v8" fill="none" stroke="white" stroke-width="1.5" pointer-events="none"/>
                </g>
                <g id="zoomMin">
                        <use xlink:href="#rim" fill="#404040">
                                <set attributeName="fill" to="#808080" begin="zoomminus.mouseover" end="zoomminus.mouseout"/>
                        </use>
                        <path d="M-4,0h8" fill="none" stroke="white" stroke-width="1.5" pointer-events="none"/>
                </g>
                <g id="dirArrow">
                        <path fill="none" stroke="white" stroke-width="1.5" d="M0,-3.0v7 M-2.5,-0.5L0,-3.0L2.5,-0.5"/>
                </g>
               <g id="resetDef">
                       <use xlink:href="#rim2" fill="#404040">
                               <set attributeName="fill" to="#808080" begin="reset.mouseover" end="reset.mouseout"/>
                       </use>
               </g>
        </defs>

<script type="text/javascript">
var viewWidth = 599;
var viewHeight = 207;
var sectionId = 'dynsection-0';
</script>
<script xlink:href="svgpan.js"/>
<svg id="graph" class="graph">
<g id="viewport">
<title>engine/src/devices/ie_device_common.c</title>
<!-- Node1 -->
<g id="node1" class="node">
<title>Node1</title>
<g id="a_node1"><a xlink:title="C11 implementation of the device abstraction with CPU backend and CUDA/Level Zero stubs resolved via ...">
<polygon fill="#bfbfbf" stroke="black" points="259.58,-168.5 259.58,-198.5 381.58,-198.5 381.58,-168.5 259.58,-168.5"/>
<text text-anchor="start" x="267.58" y="-186.5" font-family="Helvetica,sans-Serif" font-size="10.00">engine/src/devices</text>
<text text-anchor="middle" x="320.58" y="-175.5" font-family="Helvetica,sans-Serif" font-size="10.00">/ie_device_common.c</text>
</a>
</g>
</g>
<!-- Node2 -->
<g id="node2" class="node">
<title>Node2</title>
<g id="a_node2"><a xlink:href="ie__device_8h.html" target="_top" xlink:title="Device abstraction for CPU/GPU backends selected at runtime.">
<polygon fill="none" stroke="black" points="156.58,-56.5 156.58,-75.5 228.58,-75.5 228.58,-56.5 156.58,-56.5"/>
<text text-anchor="middle" x="192.58" y="-63.5" font-family="Helvetica,sans-Serif" font-size="10.00">ie_device.h</text>
</a>
</g>
</g>
<!-- Node1&#45;&gt;Node2 -->
<g id="edge1" class="edge">
<title>Node1&#45;&gt;Node2</title>
<path fill="none" stroke="midnightblue" d="M295.22,-168.37C279.73,-159.1 260.01,-146.12 244.58,-132 228.82,-117.57 213.92,-98.12 204.14,-84.27"/>
<polygon fill="midnightblue" stroke="midnightblue" points="206.79,-81.95 198.24,-75.7 201.03,-85.92 206.79,-81.95"/>
</g>
<!-- Node5 -->
<g id="node5" class="node">
<title>Node5</title>
<g id="a_node5"><a xlink:href="ie__kernels_8h.html" target="_top" xlink:title=" ">
<polygon fill="none" stroke="black" points="54.08,-112.5 54.08,-131.5 129.08,-131.5 129.08,-112.5 54.08,-112.5"/>
<text text-anchor="middle" x="91.58" y="-119.5" font-family="Helvetica,sans-Serif" font-size="10.00">ie_kernels.h</text>
</a>
</g>
</g>
<!-- Node1&#45;&gt;Node5 -->
<g id="edge4" class="edge">
<title>Node1&#45;&gt;Node5</title>
<path fill="none" stroke="midnightblue" d="M266.6,-168.47C226.23,-157.99 171.78,-143.84 134.39,-134.12"/>
<polygon fill="midnightblue" stroke="midnightblue" points="134.88,-130.63 124.32,-131.51 133.12,-137.41 134.88,-130.63"/>
</g>
<!-- Node7 -->
<g id="node7" class="node">
<title>Node7</title>
<g id="a_node7"><a xlink:href="sparse__format_8h.html" target="_top" xlink:title="In&#45;memory representation and loader interface for block&#45;sparse matrices.">
<polygon fill="none" stroke="black" points="246.58,-56.5 246.58,-75.5 342.58,-75.5 342.58,-56.5 246.58,-56.5"/>
<text text-anchor="middle" x="294.58" y="-63.5" font-family="Helvetica,sans-Serif" font-size="10.00">sparse_format.h</text>
</a>
</g>
</g>
<!-- Node1&#45;&gt;Node7 -->
<g id="edge10" class="edge">
<title>Node1&#45;&gt;Node7</title>
<path fill="none" stroke="midnightblue" d="M289.24,-168.44C274.67,-160.11 258.77,-148.01 250.58,-132 241.31,-113.88 257.83,-94.78 273.21,-82.01"/>
<polygon fill="midnightblue" stroke="midnightblue" points="275.7,-84.51 281.46,-75.61 271.41,-78.98 275.7,-84.51"/>
</g>
<!-- Node9 -->
<g id="node9" class="node">
<title>Node9</title>
<g id="a_node9"><a xlink:title=" ">
<polygon fill="none" stroke="#bfbfbf" points="259.08,-112.5 259.08,-131.5 312.08,-131.5 312.08,-112.5 259.08,-112.5"/>
<text text-anchor="middle" x="285.58" y="-119.5" font-family="Helvetica,sans-Serif" font-size="10.00">ctype.h</text>
</a>
</g>
</g>
<!-- Node1&#45;&gt;Node9 -->
<g id="edge14" class="edge">
<title>Node1&#45;&gt;Node9</title>
<path fill="none" stroke="midnightblue" d="M312.29,-168.4C307.36,-160.02 301.07,-149.33 295.83,-140.42"/>
<polygon fill="midnightblue" stroke="midnightblue" points="298.76,-138.5 290.67,-131.66 292.73,-142.05 298.76,-138.5"/>
</g>
<!-- Node10 -->
<g id="node10" class="node">
<title>Node10</title>
<g id="a_node10"><a xlink:title=" ">
<polygon fill="none" stroke="#bfbfbf" points="330.58,-112.5 330.58,-131.5 380.58,-131.5 380.58,-112.5 330.58,-112.5"/>
<text text-anchor="middle" x="355.58" y="-119.5" font-family="Helvetica,sans-Serif" font-size="10.00">dlfcn.h</text>
</a>
</g>
</g>
<!-- Node1&#45;&gt;Node10 -->
<g id="edge15" class="edge">
<title>Node1&#45;&gt;Node10</title>
<path fill="none" stroke="midnightblue" d="M328.88,-168.4C333.8,-160.02 340.1,-149.33 345.33,-140.42"/>
<polygon fill="midnightblue" stroke="midnightblue" points="348.44,-142.05 350.49,-131.66 342.4,-138.5 348.44,-142.05"/>
</g>
<!-- Node11 -->
<g id="node11" class="node">
<title>Node11</title>
<g id="a_node11"><a xlink:title=" ">
<polygon fill="none" stroke="#bfbfbf" points="398.58,-112.5 398.58,-131.5 448.58,-131.5 448.58,-112.5 398.58,-112.5"/>
<text text-anchor="middle" x="423.58" y="-119.5" font-family="Helvetica,sans-Serif" font-size="10.00">stdio.h</text>
</a>
</g>
</g>
<!-- Node1&#45;&gt;Node11 -->
<g id="edge16" class="edge">
<title>Node1&#45;&gt;Node11</title>
<path fill="none" stroke="midnightblue" d="M344.99,-168.4C361.5,-158.86 383.2,-146.32 399.62,-136.84"/>
<polygon fill="midnightblue" stroke="midnightblue" points="401.69,-139.69 408.59,-131.66 398.18,-133.63 401.69,-139.69"/>
</g>
<!-- Node12 -->
<g id="node12" class="node">
<title>Node12</title>
<g id="a_node12"><a xlink:title=" ">
<polygon fill="none" stroke="#bfbfbf" points="467.08,-112.5 467.08,-131.5 520.08,-131.5 520.08,-112.5 467.08,-112.5"/>
<text text-anchor="middle" x="493.58" y="-119.5" font-family="Helvetica,sans-Serif" font-size="10.00">stdlib.h</text>
</a>
</g>
</g>
<!-- Node1&#45;&gt;Node12 -->
<g id="edge17" class="edge">
<title>Node1&#45;&gt;Node12</title>
<path fill="none" stroke="midnightblue" d="M361.58,-168.4C391.21,-158.21 430.81,-144.59 458.88,-134.93"/>
<polygon fill="midnightblue" stroke="midnightblue" points="460.34,-138.13 468.66,-131.57 458.07,-131.51 460.34,-138.13"/>
</g>
<!-- Node13 -->
<g id="node13" class="node">
<title>Node13</title>
<g id="a_node13"><a xlink:title=" ">
<polygon fill="none" stroke="#bfbfbf" points="538.08,-112.5 538.08,-131.5 591.08,-131.5 591.08,-112.5 538.08,-112.5"/>
<text text-anchor="middle" x="564.58" y="-119.5" font-family="Helvetica,sans-Serif" font-size="10.00">string.h</text>
</a>
</g>
</g>
<!-- Node1&#45;&gt;Node13 -->
<g id="edge18" class="edge">
<title>Node1&#45;&gt;Node13</title>
<path fill="none" stroke="midnightblue" d="M379.65,-168.47C419.16,-159.03 472.59,-146.16 527.87,-132.41"/>
<polygon fill="midnightblue" stroke="midnightblue" points="528.98,-135.73 537.84,-129.92 527.29,-128.94 528.98,-135.73"/>
</g>
<!-- Node3 -->
<g id="node3" class="node">
<title>Node3</title>
<g id="a_node3"><a xlink:title=" ">
<polygon fill="none" stroke="#bfbfbf" points="133.58,-0.5 133.58,-19.5 189.58,-19.5 189.58,-0.5 133.58,-0.5"/>
<text text-anchor="middle" x="161.58" y="-7.5" font-family="Helvetica,sans-Serif" font-size="10.00">stddef.h</text>
</a>
</g>
</g>
<!-- Node2&#45;&gt;Node3 -->
<g id="edge2" class="edge">
<title>Node2&#45;&gt;Node3</title>
<path fill="none" stroke="midnightblue" d="M187.46,-56.08C183.17,-48.61 176.92,-37.72 171.64,-28.52"/>
<polygon fill="midnightblue" stroke="midnightblue" points="174.62,-26.68 166.61,-19.75 168.55,-30.17 174.62,-26.68"/>
</g>
<!-- Node4 -->
<g id="node4" class="node">
<title>Node4</title>
<g id="a_node4"><a xlink:title=" ">
<polygon fill="none" stroke="#bfbfbf" points="46.08,-0.5 46.08,-19.5 99.08,-19.5 99.08,-0.5 46.08,-0.5"/>
<text text-anchor="middle" x="72.58" y="-7.5" font-family="Helvetica,sans-Serif" font-size="10.00">stdint.h</text>
</a>
</g>
</g>
<!-- Node2&#45;&gt;Node4 -->
<g id="edge3" class="edge">
<title>Node2&#45;&gt;Node4</title>
<path fill="none" stroke="midnightblue" d="M173.57,-56.44C153.99,-47.64 123.27,-33.81 100.85,-23.72"/>
<polygon fill="midnightblue" stroke="midnightblue" points="102.06,-20.43 91.51,-19.52 99.19,-26.81 102.06,-20.43"/>
</g>
<!-- Node5&#45;&gt;Node3 -->
<g id="edge5" class="edge">
<title>Node5&#45;&gt;Node3</title>
<path fill="none" stroke="midnightblue" d="M97.07,-112.37C108.58,-94.3 135.38,-52.18 150.57,-28.31"/>
<polygon fill="midnightblue" stroke="midnightblue" points="153.7,-29.91 156.11,-19.59 147.79,-26.15 153.7,-29.91"/>
</g>
<!-- Node5&#45;&gt;Node4 -->
<g id="edge6" class="edge">
<title>Node5&#45;&gt;Node4</title>
<path fill="none" stroke="midnightblue" d="M55.73,-112.4C36.7,-105.81 14.95,-94.59 3.58,-76 -9.46,-54.68 17.24,-35.79 41.13,-23.94"/>
<polygon fill="midnightblue" stroke="midnightblue" points="42.82,-27.01 50.4,-19.6 39.86,-20.67 42.82,-27.01"/>
</g>
<!-- Node6 -->
<g id="node6" class="node">
<title>Node6</title>
<g id="a_node6"><a xlink:href="ie__quant__act_8h.html" target="_top" xlink:title=" ">
<polygon fill="none" stroke="black" points="12.58,-56.5 12.58,-75.5 100.58,-75.5 100.58,-56.5 12.58,-56.5"/>
<text text-anchor="middle" x="56.58" y="-63.5" font-family="Helvetica,sans-Serif" font-size="10.00">ie_quant_act.h</text>
</a>
</g>
</g>
<!-- Node5&#45;&gt;Node6 -->
<g id="edge7" class="edge">
<title>Node5&#45;&gt;Node6</title>
<path fill="none" stroke="midnightblue" d="M85.8,-112.08C80.91,-104.53 73.75,-93.49 67.75,-84.23"/>
<polygon fill="midnightblue" stroke="midnightblue" points="70.63,-82.24 62.25,-75.75 64.76,-86.05 70.63,-82.24"/>
</g>
<!-- Node6&#45;&gt;Node3 -->
<g id="edge8" class="edge">
<title>Node6&#45;&gt;Node3</title>
<path fill="none" stroke="midnightblue" d="M73.45,-56.32C90.29,-47.66 116.39,-34.24 135.82,-24.25"/>
<polygon fill="midnightblue" stroke="midnightblue" points="137.46,-27.34 144.75,-19.65 134.26,-21.12 137.46,-27.34"/>
</g>
<!-- Node6&#45;&gt;Node4 -->
<g id="edge9" class="edge">
<title>Node6&#45;&gt;Node4</title>
<path fill="none" stroke="midnightblue" d="M59.22,-56.08C61.37,-48.85 64.46,-38.41 67.13,-29.4"/>
<polygon fill="midnightblue" stroke="midnightblue" points="70.5,-30.33 69.99,-19.75 63.79,-28.34 70.5,-30.33"/>
</g>
<!-- Node7&#45;&gt;Node3 -->
<g id="edge11" class="edge">
<title>Node7&#45;&gt;Node3</title>
<path fill="none" stroke="midnightblue" d="M273.51,-56.44C251.52,-47.52 216.85,-33.44 191.92,-23.32"/>
<polygon fill="midnightblue" stroke="midnightblue" points="193.14,-20.04 182.56,-19.52 190.51,-26.52 193.14,-20.04"/>
</g>
<!-- Node7&#45;&gt;Node4 -->
<g id="edge12" class="edge">
<title>Node7&#45;&gt;Node4</title>
<path fill="none" stroke="midnightblue" d="M259.41,-56.44C218.29,-46.44 150.59,-29.98 108.97,-19.85"/>
<polygon fill="midnightblue" stroke="midnightblue" points="109.78,-16.45 99.23,-17.48 108.12,-23.25 109.78,-16.45"/>
</g>
<!-- Node8 -->
<g id="node8" class="node">
<title>Node8</title>
<g id="a_node8"><a xlink:href="platform_8h.html" target="_top" xlink:title="Platform feature detection (baseline stubs).">
<polygon fill="none" stroke="black" points="260.58,-0.5 260.58,-19.5 328.58,-19.5 328.58,-0.5 260.58,-0.5"/>
<text text-anchor="middle" x="294.58" y="-7.5" font-family="Helvetica,sans-Serif" font-size="10.00">platform.h</text>
</a>
</g>
</g>
<!-- Node7&#45;&gt;Node8 -->
<g id="edge13" class="edge">
<title>Node7&#45;&gt;Node8</title>
<path fill="none" stroke="midnightblue" d="M294.58,-56.08C294.58,-49.01 294.58,-38.86 294.58,-29.99"/>
<polygon fill="midnightblue" stroke="midnightblue" points="298.08,-29.75 294.58,-19.75 291.08,-29.75 298.08,-29.75"/>
</g>
</g>
</svg>
        <g id="navigator" transform="translate(0 0)" fill="#404254">
                <rect fill="#f2f5e9" fill-opacity="0.5" stroke="#606060" stroke-width=".5" x="0" y="0" width="60" height="60"/>
                <use id="zoomplus" xlink:href="#zoomPlus" x="17" y="9" onmousedown="handleZoom(evt,'in')"/>
                <use id="zoomminus" xlink:href="#zoomMin" x="42" y="9" onmousedown="handleZoom(evt,'out')"/>
                <use id="reset" xlink:href="#resetDef" x="30" y="36" onmousedown="handleReset()"/>
                <g id="arrowUp" xlink:href="#dirArrow" transform="translate(30 24)" onmousedown="handlePan(0,-1)">
                  <use xlink:href="#rim" fill="#404040">
                        <set attributeName="fill" to="#808080" begin="arrowUp.mouseover" end="arrowUp.mouseout"/>
                  </use>
                  <path fill="none" stroke="white" stroke-width="1.5" d="M0,-3.0v7 M-2.5,-0.5L0,-3.0L2.5,-0.5"/>
                </g>
                <g id="arrowRight" xlink:href="#dirArrow" transform="rotate(90) translate(36 -43)" onmousedown="handlePan(1,0)">
                  <use xlink:href="#rim" fill="#404040">
                        <set attributeName="fill" to="#808080" begin="arrowRight.mouseover" end="arrowRight.mouseout"/>
                  </use>
                  <path fill="none" stroke="white" stroke-width="1.5" d="M0,-3.0v7 M-2.5,-0.5L0,-3.0L2.5,-0.5"/>
                </g>
                <g id="arrowDown" xlink:href="#dirArrow" transform="rotate(180) translate(-30 -48)" onmousedown="handlePan(0,1)">
                  <use xlink:href="#rim" fill="#404040">
                        <set attributeName="fill" to="#808080" begin="arrowDown.mouseover" end="arrowDown.mouseout"/>
                  </use>
                  <path fill="none" stroke="white" stroke-width="1.5" d="M0,-3.0v7 M-2.5,-0.5L0,-3.0L2.5,-0.5"/>
                </g>
                <g id="arrowLeft" xlink:href="#dirArrow" transform="rotate(270) translate(-36 17)" onmousedown="handlePan(-1,0)">
                  <use xlink:href="#rim" fill="#404040">
                        <set attributeName="fill" to="#808080" begin="arrowLeft.mouseover" end="arrowLeft.mouseout"/>
                  </use>
                  <path fill="none" stroke="white" stroke-width="1.5" d="M0,-3.0v7 M-2.5,-0.5L0,-3.0L2.5,-0.5"/>
                </g>
        </g>
        <svg viewBox="0 0 15 15" width="100%" height="30px" preserveAspectRatio="xMaxYMin meet">
         <g id="arrow_out" transform="scale(0.3 0.3)">
          <a xlink:href="ie__device__common_8c__incl_org.svg" target="_base">
           <rect id="button" ry="5" rx="5" y="6" x="6" height="38" width="38"
                fill="#f2f5e9" fill-opacity="0.5" stroke="#606060" stroke-width="1.0"/>
           <path id="arrow"
             d="M 11.500037,31.436501 C 11.940474,20.09759 22.043105,11.32322 32.158766,21.979434 L 37.068811,17.246167 C 37.068811,17.246167 37.088388,32 37.088388,32 L 22.160133,31.978069 C 22.160133,31.978069 26.997745,27.140456 26.997745,27.140456 C 18.528582,18.264221 13.291696,25.230495 11.500037,31.436501 z"
             style="fill:#404040;"/>
          </a>
         </g>
        </svg>
</svg>
