<?xml version="1.0" encoding="UTF-8" standalone="no"?>
<!DOCTYPE svg PUBLIC "-//W3C//DTD SVG 1.1//EN"
 "http://www.w3.org/Graphics/SVG/1.1/DTD/svg11.dtd">
<!-- Generated by graphviz version 2.43.0 (0)
 -->
<!-- Title: ensure_module_ready Pages: 1 -->
<svg width="524pt" height="141pt"
 viewBox="0.00 0.00 524.00 141.00" xmlns="http://www.w3.org/2000/svg" xmlns:xlink="http://www.w3.org/1999/xlink">
<g id="graph0" class="graph" transform="scale(1 1) rotate(0) translate(4 137)">
<title>ensure_module_ready</title>
<!-- Node1 -->
<g id="Node000001" class="node">
<title>Node1</title>
<g id="a_Node000001"><a xlink:title="Ensure the SPIR&#45;V module and all kernel handles are created.">
<polygon fill="#999999" stroke="#666666" points="125,-76 0,-76 0,-57 125,-57 125,-76"/>
<text text-anchor="middle" x="62.5" y="-64" font-family="Helvetica,sans-Serif" font-size="10.00">ensure_module_ready</text>
</a>
</g>
</g>
<!-- Node2 -->
<g id="Node000002" class="node">
<title>Node2</title>
<g id="a_Node000002"><a xlink:href="ie__kernel__ze_8cpp.html#a88fa59032491ae8cb4c70d153fef5bb0" target="_top" xlink:title="Ensure Level Zero context, device and immediate command list exist.">
<polygon fill="white" stroke="#666666" points="260,-133 161,-133 161,-114 260,-114 260,-133"/>
<text text-anchor="middle" x="210.5" y="-121" font-family="Helvetica,sans-Serif" font-size="10.00">ensure_ze_ready</text>
</a>
</g>
</g>
<!-- Node1&#45;&gt;Node2 -->
<g id="edge1_Node000001_Node000002" class="edge">
<title>Node1&#45;&gt;Node2</title>
<g id="a_edge1_Node000001_Node000002"><a xlink:title=" ">
<path fill="none" stroke="#63b8ff" d="M87.94,-76.04C111.94,-85.41 148.76,-99.79 175.59,-110.26"/>
<polygon fill="#63b8ff" stroke="#63b8ff" points="174.4,-113.55 184.98,-113.93 176.94,-107.03 174.4,-113.55"/>
</a>
</g>
</g>
<!-- Node3 -->
<g id="Node000003" class="node">
<title>Node3</title>
<g id="a_Node000003"><a xlink:href="ie__device__cuda_8cu.html#a5e3d9fee84981707669f5c2398f0c4ab" target="_top" xlink:title="Row&#45;wise GEMV kernel: each thread computes one output row.">
<polygon fill="white" stroke="#666666" points="516,-81.5 391,-81.5 391,-51.5 516,-51.5 516,-81.5"/>
<text text-anchor="start" x="399" y="-69.5" font-family="Helvetica,sans-Serif" font-size="10.00">ie_gemv_rowwise_f32</text>
<text text-anchor="middle" x="453.5" y="-58.5" font-family="Helvetica,sans-Serif" font-size="10.00">_kernel</text>
</a>
</g>
</g>
<!-- Node1&#45;&gt;Node3 -->
<g id="edge5_Node000001_Node000003" class="edge">
<title>Node1&#45;&gt;Node3</title>
<g id="a_edge5_Node000001_Node000003"><a xlink:title=" ">
<path fill="none" stroke="#63b8ff" d="M125.14,-66.5C194.6,-66.5 307.38,-66.5 380.75,-66.5"/>
<polygon fill="#63b8ff" stroke="#63b8ff" points="380.83,-70 390.83,-66.5 380.83,-63 380.83,-70"/>
</a>
</g>
</g>
<!-- Node4 -->
<g id="Node000004" class="node">
<title>Node4</title>
<g id="a_Node000004"><a xlink:href="ie__kernel__ze_8cpp.html#a0a2c7ad4a3f3268ce3651eca6f04b24e" target="_top" xlink:title="Set last error (thread&#45;local); truncates if needed.">
<polygon fill="white" stroke="#666666" points="350.5,-95 300.5,-95 300.5,-76 350.5,-76 350.5,-95"/>
<text text-anchor="middle" x="325.5" y="-83" font-family="Helvetica,sans-Serif" font-size="10.00">set_err</text>
</a>
</g>
</g>
<!-- Node1&#45;&gt;Node4 -->
<g id="edge8_Node000001_Node000004" class="edge">
<title>Node1&#45;&gt;Node4</title>
<g id="a_edge8_Node000001_Node000004"><a xlink:title=" ">
<path fill="none" stroke="#63b8ff" d="M125.02,-70.98C176.6,-74.73 248.34,-79.96 290.25,-83.01"/>
<polygon fill="#63b8ff" stroke="#63b8ff" points="290.26,-86.52 300.49,-83.75 290.77,-79.54 290.26,-86.52"/>
</a>
</g>
</g>
<!-- Node5 -->
<g id="Node000005" class="node">
<title>Node5</title>
<g id="a_Node000005"><a xlink:href="ie__kernel__ze_8cpp.html#a20d704d2968105641314c50897df8bdb" target="_top" xlink:title="Read a whole binary file into memory.">
<polygon fill="white" stroke="#666666" points="355,-19 296,-19 296,0 355,0 355,-19"/>
<text text-anchor="middle" x="325.5" y="-7" font-family="Helvetica,sans-Serif" font-size="10.00">read_file</text>
</a>
</g>
</g>
<!-- Node1&#45;&gt;Node5 -->
<g id="edge6_Node000001_Node000005" class="edge">
<title>Node1&#45;&gt;Node5</title>
<g id="a_edge6_Node000001_Node000005"><a xlink:title=" ">
<path fill="none" stroke="#63b8ff" d="M87.58,-56.99C107.1,-49.61 135.46,-39.64 161,-33.5 203.03,-23.39 252.23,-16.87 285.6,-13.21"/>
<polygon fill="#63b8ff" stroke="#63b8ff" points="286.27,-16.66 295.85,-12.12 285.53,-9.7 286.27,-16.66"/>
</a>
</g>
</g>
<!-- Node2&#45;&gt;Node3 -->
<g id="edge2_Node000002_Node000003" class="edge">
<title>Node2&#45;&gt;Node3</title>
<g id="a_edge2_Node000002_Node000003"><a xlink:title=" ">
<path fill="none" stroke="#63b8ff" d="M260.21,-119.97C288.25,-117.22 323.97,-112.48 355,-104.5 373.53,-99.74 393.32,-92.46 410.19,-85.54"/>
<polygon fill="#63b8ff" stroke="#63b8ff" points="411.89,-88.63 419.76,-81.54 409.18,-82.17 411.89,-88.63"/>
</a>
</g>
</g>
<!-- Node2&#45;&gt;Node4 -->
<g id="edge3_Node000002_Node000004" class="edge">
<title>Node2&#45;&gt;Node4</title>
<g id="a_edge3_Node000002_Node000004"><a xlink:title=" ">
<path fill="none" stroke="#63b8ff" d="M240.01,-113.91C255.39,-108.74 274.47,-102.32 290.6,-96.9"/>
<polygon fill="#63b8ff" stroke="#63b8ff" points="291.84,-100.17 300.21,-93.67 289.61,-93.54 291.84,-100.17"/>
</a>
</g>
</g>
<!-- Node4&#45;&gt;Node3 -->
<g id="edge4_Node000004_Node000003" class="edge">
<title>Node4&#45;&gt;Node3</title>
<g id="a_edge4_Node000004_Node000003"><a xlink:title=" ">
<path fill="none" stroke="#63b8ff" d="M350.79,-81.84C359.61,-80.51 370.07,-78.93 380.89,-77.3"/>
<polygon fill="#63b8ff" stroke="#63b8ff" points="381.51,-80.75 390.87,-75.79 380.46,-73.82 381.51,-80.75"/>
</a>
</g>
</g>
<!-- Node5&#45;&gt;Node3 -->
<g id="edge7_Node000005_Node000003" class="edge">
<title>Node5&#45;&gt;Node3</title>
<g id="a_edge7_Node000005_Node000003"><a xlink:title=" ">
<path fill="none" stroke="#63b8ff" d="M347.59,-19.04C364.48,-26.68 388.72,-37.65 409.65,-47.12"/>
<polygon fill="#63b8ff" stroke="#63b8ff" points="408.44,-50.41 418.99,-51.34 411.33,-44.03 408.44,-50.41"/>
</a>
</g>
</g>
</g>
</svg>
