<?xml version="1.0" encoding="UTF-8" standalone="no"?>
<!DOCTYPE svg PUBLIC "-//W3C//DTD SVG 1.1//EN"
 "http://www.w3.org/Graphics/SVG/1.1/DTD/svg11.dtd">
<!-- Generated by graphviz version 2.43.0 (0)
 -->
<!-- Title: ie_cfg_load_env Pages: 1 -->
<svg width="234pt" height="64pt"
 viewBox="0.00 0.00 234.00 64.00" xmlns="http://www.w3.org/2000/svg" xmlns:xlink="http://www.w3.org/1999/xlink">
<g id="graph0" class="graph" transform="scale(1 1) rotate(0) translate(4 60)">
<title>ie_cfg_load_env</title>
<!-- Node1 -->
<g id="Node000001" class="node">
<title>Node1</title>
<g id="a_Node000001"><a xlink:title="Load a snapshot of environment&#45;driven configuration into out.">
<polygon fill="#999999" stroke="#666666" points="95,-37 0,-37 0,-18 95,-18 95,-37"/>
<text text-anchor="middle" x="47.5" y="-25" font-family="Helvetica,sans-Serif" font-size="10.00">ie_cfg_load_env</text>
</a>
</g>
</g>
<!-- Node2 -->
<g id="Node000002" class="node">
<title>Node2</title>
<g id="a_Node000002"><a xlink:href="ie__config_8h.html#a59b1ce961c381706022c172fc10f10ec" target="_top" xlink:title="Parse an environment variable as long; fall back to a default on error.">
<polygon fill="white" stroke="#666666" points="226,-56 131,-56 131,-37 226,-37 226,-56"/>
<text text-anchor="middle" x="178.5" y="-44" font-family="Helvetica,sans-Serif" font-size="10.00">ie_cfg_env_long</text>
</a>
</g>
</g>
<!-- Node1&#45;&gt;Node2 -->
<g id="edge1_Node000001_Node000002" class="edge">
<title>Node1&#45;&gt;Node2</title>
<g id="a_edge1_Node000001_Node000002"><a xlink:title=" ">
<path fill="none" stroke="#63b8ff" d="M95.07,-34.36C103.48,-35.6 112.32,-36.9 120.97,-38.17"/>
<polygon fill="#63b8ff" stroke="#63b8ff" points="120.59,-41.66 131,-39.65 121.61,-34.73 120.59,-41.66"/>
</a>
</g>
</g>
<!-- Node3 -->
<g id="Node000003" class="node">
<title>Node3</title>
<g id="a_Node000003"><a xlink:href="ie__config_8h.html#a1ad0c81af6887bba183dffb2d5b4ac9e" target="_top" xlink:title="Return an environment variable value or a default when unset/empty.">
<polygon fill="white" stroke="#666666" points="222,-19 135,-19 135,0 222,0 222,-19"/>
<text text-anchor="middle" x="178.5" y="-7" font-family="Helvetica,sans-Serif" font-size="10.00">ie_cfg_env_str</text>
</a>
</g>
</g>
<!-- Node1&#45;&gt;Node3 -->
<g id="edge2_Node000001_Node000003" class="edge">
<title>Node1&#45;&gt;Node3</title>
<g id="a_edge2_Node000001_Node000003"><a xlink:title=" ">
<path fill="none" stroke="#63b8ff" d="M95.07,-21C104.71,-19.66 114.94,-18.23 124.78,-16.86"/>
<polygon fill="#63b8ff" stroke="#63b8ff" points="125.44,-20.3 134.86,-15.45 124.47,-13.37 125.44,-20.3"/>
</a>
</g>
</g>
</g>
</svg>
