<?xml version="1.0" encoding="UTF-8" standalone="no"?>
<!DOCTYPE svg PUBLIC "-//W3C//DTD SVG 1.1//EN"
 "http://www.w3.org/Graphics/SVG/1.1/DTD/svg11.dtd">
<!-- Generated by graphviz version 12.2.1 (20241206.2353)
 -->
<!-- Title: ie_kernels_install Pages: 1 -->
<!--zoomable 234 -->

<svg id="main" version="1.1" xmlns="http://www.w3.org/2000/svg" xmlns:xlink="http://www.w3.org/1999/xlink" xml:space="preserve" onload="init(evt)">

<style type="text/css"><![CDATA[
.node, .edge {opacity: 0.7;}
.node.selected, .edge.selected {opacity: 1;}
.edge:hover path { stroke: red; }
.edge:hover polygon { stroke: red; fill: red; }
]]></style>

<defs>
  <circle id="rim" cx="0" cy="0" r="7"/>
  <circle id="rim2" cx="0" cy="0" r="3.5"/>
  <g id="zoomPlus">
    <use xlink:href="#rim" fill="#404040"><set attributeName="fill" to="#808080" begin="zoomplus.mouseover" end="zoomplus.mouseout"/></use>
    <path d="M-4,0h8M0,-4v8" fill="none" stroke="white" stroke-width="1.5" pointer-events="none"/>
  </g>
  <g id="zoomMin">
    <use xlink:href="#rim" fill="#404040"><set attributeName="fill" to="#808080" begin="zoomminus.mouseover" end="zoomminus.mouseout"/></use>
    <path d="M-4,0h8" fill="none" stroke="white" stroke-width="1.5" pointer-events="none"/>
  </g>
  <g id="arrowUp" transform="translate(30 24)">
    <use xlink:href="#rim"/>
    <path pointer-events="none" fill="none" stroke="white" stroke-width="1.5" d="M0,-3.0v7 M-2.5,-0.5L0,-3.0L2.5,-0.5"/>
  </g>
  <g id="arrowRight" transform="rotate(90) translate(36 -43)">
    <use xlink:href="#rim"/>
    <path pointer-events="none" fill="none" stroke="white" stroke-width="1.5" d="M0,-3.0v7 M-2.5,-0.5L0,-3.0L2.5,-0.5"/>
  </g>
  <g id="arrowDown" transform="rotate(180) translate(-30 -48)">
    <use xlink:href="#rim"/>
    <path pointer-events="none" fill="none" stroke="white" stroke-width="1.5" d="M0,-3.0v7 M-2.5,-0.5L0,-3.0L2.5,-0.5"/>
  </g>
  <g id="arrowLeft" transform="rotate(270) translate(-36 17)">
    <use xlink:href="#rim"/>
    <path pointer-events="none" fill="none" stroke="white" stroke-width="1.5" d="M0,-3.0v7 M-2.5,-0.5L0,-3.0L2.5,-0.5"/>
  </g>
  <g id="resetDef">
    <use xlink:href="#rim2" fill="#404040"><set attributeName="fill" to="#808080" begin="reset.mouseover" end="reset.mouseout"/></use>
  </g>
</defs>
<script type="application/ecmascript">
var viewWidth = 881;
var viewHeight = 234;
var sectionId = 'dynsection-5';
</script>
<script type="application/ecmascript" xlink:href="svg.min.js"/>
<svg id="graph" class="graph">
<g id="viewport">
<title>ie_kernels_install</title>
<!-- Node1 -->
<g id="Node000001" class="node">
<title>Node1</title>
<g id="a_Node000001"><a xlink:title="Install the best available CPU kernels at runtime.">
<polygon fill="#999999" stroke="#666666" points="873.25,-22.16 772.5,-22.16 772.5,-1.41 873.25,-1.41 873.25,-22.16"/>
<text text-anchor="middle" x="822.88" y="-8.66" font-family="Helvetica,sans-Serif" font-size="10.00">ie_kernels_install</text>
</a>
</g>
</g>
<!-- Node2 -->
<g id="Node000002" class="node">
<title>Node2</title>
<g id="a_Node000002"><a xlink:href="gemv__generic_8c.html#a4e112b3396ed21919f404631c1d4d7fb" target="_top" xlink:title="GEMV: y[r] = dot(W[r, :], x) [+ bias[r]] for r in [0, rows).">
<polygon fill="white" stroke="#666666" points="736.5,-71.16 657.5,-71.16 657.5,-50.41 736.5,-50.41 736.5,-71.16"/>
<text text-anchor="middle" x="697" y="-57.66" font-family="Helvetica,sans-Serif" font-size="10.00">ie_gemv_f32</text>
</a>
</g>
</g>
<!-- Node1&#45;&gt;Node2 -->
<g id="edge1_Node000001_Node000002" class="edge">
<title>Node1&#45;&gt;Node2</title>
<g id="a_edge1_Node000001_Node000002"><a xlink:title=" ">
<path fill="none" stroke="#63b8ff" d="M783.75,-26.87C764.89,-34.33 742.56,-43.16 725.42,-49.95"/>
<polygon fill="#63b8ff" stroke="#63b8ff" points="784.96,-30.15 792.98,-23.22 782.39,-23.64 784.96,-30.15"/>
</a>
</g>
</g>
<!-- Node11 -->
<g id="Node000011" class="node">
<title>Node11</title>
<g id="a_Node000011"><a xlink:href="test__kernels_8c.html#a840291bc02cba5474a4cb46a9b9566fe" target="_top" xlink:title="Program entry: run all kernel tests and print &quot;ok test_kernels&quot; on success.">
<polygon fill="white" stroke="#666666" points="437.12,-45.16 396.38,-45.16 396.38,-24.41 437.12,-24.41 437.12,-45.16"/>
<text text-anchor="middle" x="416.75" y="-31.66" font-family="Helvetica,sans-Serif" font-size="10.00">main</text>
</a>
</g>
</g>
<!-- Node1&#45;&gt;Node11 -->
<g id="edge17_Node000001_Node000011" class="edge">
<title>Node1&#45;&gt;Node11</title>
<g id="a_edge17_Node000001_Node000011"><a xlink:title=" ">
<path fill="none" stroke="#63b8ff" d="M761.02,-5.52C696.37,-0.18 591.36,4.69 502,-8.79 479.3,-12.21 454.27,-20.55 437.44,-26.87"/>
<polygon fill="#63b8ff" stroke="#63b8ff" points="760.45,-8.98 770.71,-6.35 761.04,-2.01 760.45,-8.98"/>
</a>
</g>
</g>
<!-- Node3 -->
<g id="Node000003" class="node">
<title>Node3</title>
<g id="a_Node000003"><a xlink:href="ie__device__common_8c.html#a4fb9bb01bfbe71517f9df925ba9c93ec" target="_top" xlink:title="CPU implementation of GEMV FP32 via existing kernels.">
<polygon fill="white" stroke="#666666" points="605.38,-142.16 518.12,-142.16 518.12,-121.41 605.38,-121.41 605.38,-142.16"/>
<text text-anchor="middle" x="561.75" y="-128.66" font-family="Helvetica,sans-Serif" font-size="10.00">cpu_gemv_f32</text>
</a>
</g>
</g>
<!-- Node2&#45;&gt;Node3 -->
<g id="edge2_Node000002_Node000003" class="edge">
<title>Node2&#45;&gt;Node3</title>
<g id="a_edge2_Node000002_Node000003"><a xlink:title=" ">
<path fill="none" stroke="#63b8ff" d="M674.02,-78.74C659.73,-89.73 640.32,-103.44 621.5,-112.79 615.26,-115.89 608.4,-118.64 601.64,-121.02"/>
<polygon fill="#63b8ff" stroke="#63b8ff" points="676.15,-81.52 681.84,-72.59 671.82,-76.02 676.15,-81.52"/>
</a>
</g>
</g>
<!-- Node10 -->
<g id="Node000010" class="node">
<title>Node10</title>
<g id="a_Node000010"><a xlink:href="test__kernels_8c.html#a0ac9b0c3b1d865ef69bd2bc69d14a685" target="_top" xlink:title="Test: GEMV without bias, row&#45;major, blk_k=0.">
<polygon fill="white" stroke="#666666" points="621.5,-103.54 502,-103.54 502,-70.04 621.5,-70.04 621.5,-103.54"/>
<text text-anchor="start" x="510" y="-90.04" font-family="Helvetica,sans-Serif" font-size="10.00">test_gemv_rowmajor</text>
<text text-anchor="middle" x="561.75" y="-77.29" font-family="Helvetica,sans-Serif" font-size="10.00">_no_bias</text>
</a>
</g>
</g>
<!-- Node2&#45;&gt;Node10 -->
<g id="edge13_Node000002_Node000010" class="edge">
<title>Node2&#45;&gt;Node10</title>
<g id="a_edge13_Node000002_Node000010"><a xlink:title=" ">
<path fill="none" stroke="#63b8ff" d="M645.87,-70.57C638,-72.11 629.81,-73.71 621.77,-75.27"/>
<polygon fill="#63b8ff" stroke="#63b8ff" points="646.47,-74.02 655.61,-68.67 645.13,-67.15 646.47,-74.02"/>
</a>
</g>
</g>
<!-- Node12 -->
<g id="Node000012" class="node">
<title>Node12</title>
<g id="a_Node000012"><a xlink:href="test__kernels_8c.html#a2305be22b4279f3ac4d55f90584569cb" target="_top" xlink:title="Test: GEMV with bias epilogue, row&#45;major, blk_k=0.">
<polygon fill="white" stroke="#666666" points="621.5,-51.54 502,-51.54 502,-18.04 621.5,-18.04 621.5,-51.54"/>
<text text-anchor="start" x="510" y="-38.04" font-family="Helvetica,sans-Serif" font-size="10.00">test_gemv_rowmajor</text>
<text text-anchor="middle" x="561.75" y="-25.29" font-family="Helvetica,sans-Serif" font-size="10.00">_with_bias</text>
</a>
</g>
</g>
<!-- Node2&#45;&gt;Node12 -->
<g id="edge15_Node000002_Node000012" class="edge">
<title>Node2&#45;&gt;Node12</title>
<g id="a_edge15_Node000002_Node000012"><a xlink:title=" ">
<path fill="none" stroke="#63b8ff" d="M645.87,-51.01C638,-49.47 629.81,-47.87 621.77,-46.3"/>
<polygon fill="#63b8ff" stroke="#63b8ff" points="645.13,-54.43 655.61,-52.91 646.47,-47.56 645.13,-54.43"/>
</a>
</g>
</g>
<!-- Node4 -->
<g id="Node000004" class="node">
<title>Node4</title>
<g id="a_Node000004"><a xlink:href="ie__device__common_8c.html#a3e42fcc4b9579a9bf14520cb1afe733b" target="_top" xlink:title="Create a device handle for the requested kind (with fallback).">
<polygon fill="white" stroke="#666666" points="466,-142.16 367.5,-142.16 367.5,-121.41 466,-121.41 466,-142.16"/>
<text text-anchor="middle" x="416.75" y="-128.66" font-family="Helvetica,sans-Serif" font-size="10.00">ie_device_create</text>
</a>
</g>
</g>
<!-- Node3&#45;&gt;Node4 -->
<g id="edge3_Node000003_Node000004" class="edge">
<title>Node3&#45;&gt;Node4</title>
<g id="a_edge3_Node000003_Node000004"><a xlink:title=" ">
<path fill="none" stroke="#63b8ff" d="M506.52,-131.79C493.33,-131.79 479.3,-131.79 466.39,-131.79"/>
<polygon fill="#63b8ff" stroke="#63b8ff" points="506.33,-135.29 516.33,-131.79 506.33,-128.29 506.33,-135.29"/>
</a>
</g>
</g>
<!-- Node5 -->
<g id="Node000005" class="node">
<title>Node5</title>
<g id="a_Node000005"><a xlink:href="ie__device__common_8c.html#af9a99d92974f072775057b5def388b77" target="_top" xlink:title="Device&#45;side GEMV (FP32): y = W * x (+ optional bias).">
<polygon fill="white" stroke="#666666" points="331.5,-208.16 215,-208.16 215,-187.41 331.5,-187.41 331.5,-208.16"/>
<text text-anchor="middle" x="273.25" y="-194.66" font-family="Helvetica,sans-Serif" font-size="10.00">ie_device_gemv_f32</text>
</a>
</g>
</g>
<!-- Node4&#45;&gt;Node5 -->
<g id="edge4_Node000004_Node000005" class="edge">
<title>Node4&#45;&gt;Node5</title>
<g id="a_edge4_Node000004_Node000005"><a xlink:title=" ">
<path fill="none" stroke="#63b8ff" d="M385.33,-147.56C369.42,-155.65 349.54,-165.52 331.5,-173.79 321.7,-178.28 310.82,-182.92 301.2,-186.92"/>
<polygon fill="#63b8ff" stroke="#63b8ff" points="386.5,-150.89 393.81,-143.22 383.31,-144.66 386.5,-150.89"/>
</a>
</g>
</g>
<!-- Node6 -->
<g id="Node000006" class="node">
<title>Node6</title>
<g id="a_Node000006"><a xlink:href="test__device_8c.html#a548e6227513ac3fd772219dad3b0de22" target="_top" xlink:title="Ensure GPU request gracefully falls back to a working GEMV.">
<polygon fill="white" stroke="#666666" points="179,-170.16 76.75,-170.16 76.75,-149.41 179,-149.41 179,-170.16"/>
<text text-anchor="middle" x="127.88" y="-156.66" font-family="Helvetica,sans-Serif" font-size="10.00">test_gpu_fallback</text>
</a>
</g>
</g>
<!-- Node4&#45;&gt;Node6 -->
<g id="edge12_Node000004_Node000006" class="edge">
<title>Node4&#45;&gt;Node6</title>
<g id="a_edge12_Node000004_Node000006"><a xlink:title=" ">
<path fill="none" stroke="#63b8ff" d="M355.79,-138.29C347.63,-139.15 339.36,-140 331.5,-140.79 279.65,-145.99 220.28,-151.51 179.27,-155.25"/>
<polygon fill="#63b8ff" stroke="#63b8ff" points="356.12,-141.78 365.7,-137.24 355.38,-134.81 356.12,-141.78"/>
</a>
</g>
</g>
<!-- Node8 -->
<g id="Node000008" class="node">
<title>Node8</title>
<g id="a_Node000008"><a xlink:href="ie__device__common_8c.html#ad8fe47f93fa5e18c7cf07a153f1de2fb" target="_top" xlink:title="Copy memory using the device backend.">
<polygon fill="white" stroke="#666666" points="328.5,-114.16 218,-114.16 218,-93.41 328.5,-93.41 328.5,-114.16"/>
<text text-anchor="middle" x="273.25" y="-100.66" font-family="Helvetica,sans-Serif" font-size="10.00">ie_device_memcpy</text>
</a>
</g>
</g>
<!-- Node4&#45;&gt;Node8 -->
<g id="edge8_Node000004_Node000008" class="edge">
<title>Node4&#45;&gt;Node8</title>
<g id="a_edge8_Node000004_Node000008"><a xlink:title=" ">
<path fill="none" stroke="#63b8ff" d="M355.87,-119.94C346.91,-118.17 337.71,-116.35 328.86,-114.6"/>
<polygon fill="#63b8ff" stroke="#63b8ff" points="355.08,-123.35 365.57,-121.86 356.44,-116.49 355.08,-123.35"/>
</a>
</g>
</g>
<!-- Node9 -->
<g id="Node000009" class="node">
<title>Node9</title>
<g id="a_Node000009"><a xlink:href="test__device_8c.html#a7b62f3db43117555c60ec59d19c7c8d6" target="_top" xlink:title="Verify CPU device exposes GEMV capability.">
<polygon fill="white" stroke="#666666" points="170.38,-104.16 85.38,-104.16 85.38,-83.41 170.38,-83.41 170.38,-104.16"/>
<text text-anchor="middle" x="127.88" y="-90.66" font-family="Helvetica,sans-Serif" font-size="10.00">test_cpu_caps</text>
</a>
</g>
</g>
<!-- Node4&#45;&gt;Node9 -->
<g id="edge10_Node000004_Node000009" class="edge">
<title>Node4&#45;&gt;Node9</title>
<g id="a_edge10_Node000004_Node000009"><a xlink:title=" ">
<path fill="none" stroke="#63b8ff" d="M392.62,-114.62C376.43,-103.71 353.78,-90.58 331.5,-84.79 277.31,-70.7 212.27,-77.58 170.76,-84.82"/>
<polygon fill="#63b8ff" stroke="#63b8ff" points="390.37,-117.31 400.57,-120.17 394.38,-111.58 390.37,-117.31"/>
</a>
</g>
</g>
<!-- Node5&#45;&gt;Node5 -->
<g id="edge5_Node000005_Node000005" class="edge">
<title>Node5&#45;&gt;Node5</title>
<g id="a_edge5_Node000005_Node000005"><a xlink:title=" ">
<path fill="none" stroke="#63b8ff" d="M298.5,-219.65C295.16,-223.49 286.74,-226.16 273.25,-226.16 248.59,-226.16 240.88,-217.22 250.13,-208.56"/>
<polygon fill="#63b8ff" stroke="#63b8ff" points="301.98,-219.21 296.66,-210.05 295.11,-220.53 301.98,-219.21"/>
</a>
</g>
</g>
<!-- Node5&#45;&gt;Node6 -->
<g id="edge6_Node000005_Node000006" class="edge">
<title>Node5&#45;&gt;Node6</title>
<g id="a_edge6_Node000005_Node000006"><a xlink:title=" ">
<path fill="none" stroke="#63b8ff" d="M220.79,-184.15C203.99,-179.7 185.58,-174.82 169.68,-170.6"/>
<polygon fill="#63b8ff" stroke="#63b8ff" points="219.52,-187.44 230.08,-186.61 221.32,-180.67 219.52,-187.44"/>
</a>
</g>
</g>
<!-- Node7 -->
<g id="Node000007" class="node">
<title>Node7</title>
<g id="a_Node000007"><a xlink:href="test__device_8c.html#a840291bc02cba5474a4cb46a9b9566fe" target="_top" xlink:title="Test entry point.">
<polygon fill="white" stroke="#666666" points="40.75,-123.16 0,-123.16 0,-102.41 40.75,-102.41 40.75,-123.16"/>
<text text-anchor="middle" x="20.38" y="-109.66" font-family="Helvetica,sans-Serif" font-size="10.00">main</text>
</a>
</g>
</g>
<!-- Node6&#45;&gt;Node7 -->
<g id="edge7_Node000006_Node000007" class="edge">
<title>Node6&#45;&gt;Node7</title>
<g id="a_edge7_Node000006_Node000007"><a xlink:title=" ">
<path fill="none" stroke="#63b8ff" d="M92.55,-144.5C75.56,-136.93 55.66,-128.06 41.23,-121.63"/>
<polygon fill="#63b8ff" stroke="#63b8ff" points="90.73,-147.52 101.29,-148.39 93.58,-141.12 90.73,-147.52"/>
</a>
</g>
</g>
<!-- Node8&#45;&gt;Node8 -->
<g id="edge9_Node000008_Node000008" class="edge">
<title>Node8&#45;&gt;Node8</title>
<g id="a_edge9_Node000008_Node000008"><a xlink:title=" ">
<path fill="none" stroke="#63b8ff" d="M298.5,-125.65C295.16,-129.49 286.74,-132.16 273.25,-132.16 248.59,-132.16 240.88,-123.22 250.13,-114.56"/>
<polygon fill="#63b8ff" stroke="#63b8ff" points="301.98,-125.21 296.66,-116.05 295.11,-126.53 301.98,-125.21"/>
</a>
</g>
</g>
<!-- Node9&#45;&gt;Node7 -->
<g id="edge11_Node000009_Node000007" class="edge">
<title>Node9&#45;&gt;Node7</title>
<g id="a_edge11_Node000009_Node000007"><a xlink:title=" ">
<path fill="none" stroke="#63b8ff" d="M73.8,-103.35C62.17,-105.44 50.57,-107.53 41.24,-109.21"/>
<polygon fill="#63b8ff" stroke="#63b8ff" points="74.16,-106.84 83.39,-101.62 72.92,-99.95 74.16,-106.84"/>
</a>
</g>
</g>
<!-- Node10&#45;&gt;Node11 -->
<g id="edge14_Node000010_Node000011" class="edge">
<title>Node10&#45;&gt;Node11</title>
<g id="a_edge14_Node000010_Node000011"><a xlink:title=" ">
<path fill="none" stroke="#63b8ff" d="M503.01,-65.79C479.71,-57.32 454.38,-48.11 437.44,-41.95"/>
<polygon fill="#63b8ff" stroke="#63b8ff" points="501.51,-68.97 512.11,-69.1 503.91,-62.39 501.51,-68.97"/>
</a>
</g>
</g>
<!-- Node12&#45;&gt;Node11 -->
<g id="edge16_Node000012_Node000011" class="edge">
<title>Node12&#45;&gt;Node11</title>
<g id="a_edge16_Node000012_Node000011"><a xlink:title=" ">
<path fill="none" stroke="#63b8ff" d="M490.38,-34.79C470.95,-34.79 451.41,-34.79 437.5,-34.79"/>
<polygon fill="#63b8ff" stroke="#63b8ff" points="490.25,-38.29 500.25,-34.79 490.25,-31.29 490.25,-38.29"/>
</a>
</g>
</g>
</g>
</svg>

<g id="navigator" transform="translate(0 0)" fill="#404254">
  <rect fill="#f2f5e9" fill-opacity="0.5" stroke="#606060" stroke-width=".5" x="0" y="0" width="60" height="60"/>
  <use id="zoomplus" xlink:href="#zoomPlus" x="17" y="9" onmousedown="handleZoom(evt,'in')"/>
  <use id="zoomminus" xlink:href="#zoomMin" x="42" y="9" onmousedown="handleZoom(evt,'out')"/>
  <use id="reset" xlink:href="#resetDef" x="30" y="36" onmousedown="handleReset()"/>
   <use id="arrowup" xlink:href="#arrowUp" x="0" y="0" onmousedown="handlePan(0,-1)"/>
  <use id="arrowright" xlink:href="#arrowRight" x="0" y="0" onmousedown="handlePan(1,0)"/>
  <use id="arrowdown" xlink:href="#arrowDown" x="0" y="0" onmousedown="handlePan(0,1)"/>
  <use id="arrowleft" xlink:href="#arrowLeft" x="0" y="0" onmousedown="handlePan(-1,0)"/>
</g>
<svg viewBox="0 0 15 15" width="100%" height="30px" preserveAspectRatio="xMaxYMin meet">
 <g id="arrow_out" transform="scale(0.3 0.3)">
  <a xlink:href="ie__kernels_8h_a1b919f71b86ec1791fe53bc68d5c240d_icgraph_org.svg" target="_base">
   <rect id="button" ry="5" rx="5" y="6" x="6" height="38" width="38"
        fill="#f2f5e9" fill-opacity="0.5" stroke="#606060" stroke-width="1.0"/>
   <path id="arrow"
     d="M 11.500037,31.436501 C 11.940474,20.09759 22.043105,11.32322 32.158766,21.979434 L 37.068811,17.246167 C 37.068811,17.246167 37.088388,32 37.088388,32 L 22.160133,31.978069 C 22.160133,31.978069 26.997745,27.140456 26.997745,27.140456 C 18.528582,18.264221 13.291696,25.230495 11.500037,31.436501 z"
     style="fill:#404040;"/>
  </a>
 </g>
</svg>

<style type='text/css'>
<![CDATA[
[data-mouse-over-selected='false'] { opacity: 0.7; }
[data-mouse-over-selected='true']  { opacity: 1.0; }
]]>
</style>
<script type="application/ecmascript"><![CDATA[
document.addEventListener('DOMContentLoaded', (event) => {
  highlightEdges();
  highlightAdjacentNodes();
});
]]></script>
</svg>
