<?xml version="1.0" encoding="UTF-8" standalone="no"?>
<!DOCTYPE svg PUBLIC "-//W3C//DTD SVG 1.1//EN"
 "http://www.w3.org/Graphics/SVG/1.1/DTD/svg11.dtd">
<!-- Generated by graphviz version 2.43.0 (0)
 -->
<!-- Title: engine/include/ie_engine.h Pages: 1 -->
<svg width="155pt" height="140pt"
 viewBox="0.00 0.00 155.00 140.00" xmlns="http://www.w3.org/2000/svg" xmlns:xlink="http://www.w3.org/1999/xlink">
<g id="graph0" class="graph" transform="scale(1 1) rotate(0) translate(4 136)">
<title>engine/include/ie_engine.h</title>
<!-- Node1 -->
<g id="node1" class="node">
<title>Node1</title>
<g id="a_node1"><a xlink:title="Public engine façade (compatibility shim).">
<polygon fill="#bfbfbf" stroke="black" points="0,-112.5 0,-131.5 147,-131.5 147,-112.5 0,-112.5"/>
<text text-anchor="middle" x="73.5" y="-119.5" font-family="Helvetica,sans-Serif" font-size="10.00">engine/include/ie_engine.h</text>
</a>
</g>
</g>
<!-- Node2 -->
<g id="node2" class="node">
<title>Node2</title>
<g id="a_node2"><a xlink:title=" ">
<polygon fill="none" stroke="#bfbfbf" points="8.5,-0.5 8.5,-19.5 64.5,-19.5 64.5,-0.5 8.5,-0.5"/>
<text text-anchor="middle" x="36.5" y="-7.5" font-family="Helvetica,sans-Serif" font-size="10.00">stddef.h</text>
</a>
</g>
</g>
<!-- Node1&#45;&gt;Node2 -->
<g id="edge1" class="edge">
<title>Node1&#45;&gt;Node2</title>
<path fill="none" stroke="midnightblue" d="M63.06,-112.24C54.08,-103.97 41.75,-90.66 36.5,-76 31.2,-61.21 31.66,-43.28 33.19,-30.01"/>
<polygon fill="midnightblue" stroke="midnightblue" points="36.71,-30.13 34.69,-19.73 29.78,-29.12 36.71,-30.13"/>
</g>
<!-- Node3 -->
<g id="node3" class="node">
<title>Node3</title>
<g id="a_node3"><a xlink:title=" ">
<polygon fill="none" stroke="#bfbfbf" points="93,-0.5 93,-19.5 146,-19.5 146,-0.5 93,-0.5"/>
<text text-anchor="middle" x="119.5" y="-7.5" font-family="Helvetica,sans-Serif" font-size="10.00">stdint.h</text>
</a>
</g>
</g>
<!-- Node1&#45;&gt;Node3 -->
<g id="edge2" class="edge">
<title>Node1&#45;&gt;Node3</title>
<path fill="none" stroke="midnightblue" d="M83.13,-112.38C91.81,-104 104.17,-90.45 110.5,-76 116.86,-61.47 118.97,-43.52 119.56,-30.17"/>
<polygon fill="midnightblue" stroke="midnightblue" points="123.07,-29.89 119.77,-19.82 116.07,-29.75 123.07,-29.89"/>
</g>
<!-- Node4 -->
<g id="node4" class="node">
<title>Node4</title>
<g id="a_node4"><a xlink:href="ie__api_8h.html" target="_top" xlink:title="Public C API for the inference engine (minimal surface used by CLI/tests).">
<polygon fill="none" stroke="black" points="46,-56.5 46,-75.5 101,-75.5 101,-56.5 46,-56.5"/>
<text text-anchor="middle" x="73.5" y="-63.5" font-family="Helvetica,sans-Serif" font-size="10.00">ie_api.h</text>
</a>
</g>
</g>
<!-- Node1&#45;&gt;Node4 -->
<g id="edge3" class="edge">
<title>Node1&#45;&gt;Node4</title>
<path fill="none" stroke="midnightblue" d="M73.5,-112.08C73.5,-105.01 73.5,-94.86 73.5,-85.99"/>
<polygon fill="midnightblue" stroke="midnightblue" points="77,-85.75 73.5,-75.75 70,-85.75 77,-85.75"/>
</g>
<!-- Node4&#45;&gt;Node2 -->
<g id="edge4" class="edge">
<title>Node4&#45;&gt;Node2</title>
<path fill="none" stroke="midnightblue" d="M67.39,-56.08C62.22,-48.53 54.65,-37.49 48.31,-28.23"/>
<polygon fill="midnightblue" stroke="midnightblue" points="51.04,-26.02 42.5,-19.75 45.26,-29.98 51.04,-26.02"/>
</g>
<!-- Node4&#45;&gt;Node3 -->
<g id="edge5" class="edge">
<title>Node4&#45;&gt;Node3</title>
<path fill="none" stroke="midnightblue" d="M81.1,-56.08C87.73,-48.3 97.52,-36.8 105.56,-27.37"/>
<polygon fill="midnightblue" stroke="midnightblue" points="108.23,-29.63 112.05,-19.75 102.9,-25.09 108.23,-29.63"/>
</g>
</g>
</svg>
