<?xml version="1.0" encoding="UTF-8" standalone="no"?>
<!DOCTYPE svg PUBLIC "-//W3C//DTD SVG 1.1//EN"
 "http://www.w3.org/Graphics/SVG/1.1/DTD/svg11.dtd">
<!-- Generated by graphviz version 2.43.0 (0)
 -->
<!-- Title: engine/include/ie_topology.h Pages: 1 -->
<svg width="574pt" height="95pt"
 viewBox="0.00 0.00 573.50 95.00" xmlns="http://www.w3.org/2000/svg" xmlns:xlink="http://www.w3.org/1999/xlink">
<g id="graph0" class="graph" transform="scale(1 1) rotate(0) translate(4 91)">
<title>engine/include/ie_topology.h</title>
<!-- Node1 -->
<g id="node1" class="node">
<title>Node1</title>
<g id="a_node1"><a xlink:title=" ">
<polygon fill="#bfbfbf" stroke="black" points="198.5,-67.5 198.5,-86.5 353.5,-86.5 353.5,-67.5 198.5,-67.5"/>
<text text-anchor="middle" x="276" y="-74.5" font-family="Helvetica,sans-Serif" font-size="10.00">engine/include/ie_topology.h</text>
</a>
</g>
</g>
<!-- Node2 -->
<g id="node2" class="node">
<title>Node2</title>
<g id="a_node2"><a xlink:href="numa__policy_8c.html" target="_top" xlink:title=" ">
<polygon fill="none" stroke="black" points="0,-0.5 0,-30.5 116,-30.5 116,-0.5 0,-0.5"/>
<text text-anchor="start" x="8" y="-18.5" font-family="Helvetica,sans-Serif" font-size="10.00">engine/src/opt/numa</text>
<text text-anchor="middle" x="58" y="-7.5" font-family="Helvetica,sans-Serif" font-size="10.00">_policy.c</text>
</a>
</g>
</g>
<!-- Node1&#45;&gt;Node2 -->
<g id="edge1" class="edge">
<title>Node1&#45;&gt;Node2</title>
<path fill="none" stroke="midnightblue" d="M234.72,-64.73C199.14,-55.02 147.62,-40.96 109.38,-30.52"/>
<polygon fill="midnightblue" stroke="midnightblue" points="234.2,-68.22 244.77,-67.48 236.04,-61.47 234.2,-68.22"/>
</g>
<!-- Node3 -->
<g id="node3" class="node">
<title>Node3</title>
<g id="a_node3"><a xlink:href="replicate__hot_8c.html" target="_top" xlink:title="Replication of hot weight blobs per socket using first&#45;touch placement.">
<polygon fill="none" stroke="black" points="134.5,-0.5 134.5,-30.5 265.5,-30.5 265.5,-0.5 134.5,-0.5"/>
<text text-anchor="start" x="142.5" y="-18.5" font-family="Helvetica,sans-Serif" font-size="10.00">engine/src/opt/replicate</text>
<text text-anchor="middle" x="200" y="-7.5" font-family="Helvetica,sans-Serif" font-size="10.00">_hot.c</text>
</a>
</g>
</g>
<!-- Node1&#45;&gt;Node3 -->
<g id="edge2" class="edge">
<title>Node1&#45;&gt;Node3</title>
<path fill="none" stroke="midnightblue" d="M257.09,-61.2C245.11,-51.81 229.7,-39.75 217.91,-30.52"/>
<polygon fill="midnightblue" stroke="midnightblue" points="255.08,-64.07 265.11,-67.48 259.39,-58.55 255.08,-64.07"/>
</g>
<!-- Node4 -->
<g id="node4" class="node">
<title>Node4</title>
<g id="a_node4"><a xlink:href="topology_8c.html" target="_top" xlink:title=" ">
<polygon fill="none" stroke="black" points="284,-6 284,-25 422,-25 422,-6 284,-6"/>
<text text-anchor="middle" x="353" y="-13" font-family="Helvetica,sans-Serif" font-size="10.00">engine/src/opt/topology.c</text>
</a>
</g>
</g>
<!-- Node1&#45;&gt;Node4 -->
<g id="edge3" class="edge">
<title>Node1&#45;&gt;Node4</title>
<path fill="none" stroke="midnightblue" d="M295.03,-61.29C309.8,-49.88 329.76,-34.46 341.99,-25.01"/>
<polygon fill="midnightblue" stroke="midnightblue" points="292.81,-58.59 287.03,-67.48 297.09,-64.13 292.81,-58.59"/>
</g>
<!-- Node5 -->
<g id="node5" class="node">
<title>Node5</title>
<g id="a_node5"><a xlink:href="test__topology_8c.html" target="_top" xlink:title=" ">
<polygon fill="none" stroke="black" points="440.5,-6 440.5,-25 565.5,-25 565.5,-6 440.5,-6"/>
<text text-anchor="middle" x="503" y="-13" font-family="Helvetica,sans-Serif" font-size="10.00">tests/c/test_topology.c</text>
</a>
</g>
</g>
<!-- Node1&#45;&gt;Node5 -->
<g id="edge4" class="edge">
<title>Node1&#45;&gt;Node5</title>
<path fill="none" stroke="midnightblue" d="M318.36,-64.9C362.45,-53.34 430.53,-35.5 470.54,-25.01"/>
<polygon fill="midnightblue" stroke="midnightblue" points="317.31,-61.55 308.52,-67.48 319.08,-68.33 317.31,-61.55"/>
</g>
</g>
</svg>
