<?xml version="1.0" encoding="UTF-8" standalone="no"?>
<!DOCTYPE svg PUBLIC "-//W3C//DTD SVG 1.1//EN"
 "http://www.w3.org/Graphics/SVG/1.1/DTD/svg11.dtd">
<!-- Generated by graphviz version 2.43.0 (0)
 -->
<!-- Title: decode_piece_preview_ Pages: 1 -->
<svg width="688pt" height="214pt"
 viewBox="0.00 0.00 688.00 214.00" xmlns="http://www.w3.org/2000/svg" xmlns:xlink="http://www.w3.org/1999/xlink">
<g id="graph0" class="graph" transform="scale(1 1) rotate(0) translate(4 210)">
<title>decode_piece_preview_</title>
<!-- Node1 -->
<g id="Node000001" class="node">
<title>Node1</title>
<g id="a_Node000001"><a xlink:title=" ">
<polygon fill="#999999" stroke="#666666" points="133,-112 0,-112 0,-93 133,-93 133,-112"/>
<text text-anchor="middle" x="66.5" y="-100" font-family="Helvetica,sans-Serif" font-size="10.00">decode_piece_preview_</text>
</a>
</g>
</g>
<!-- Node2 -->
<g id="Node000002" class="node">
<title>Node2</title>
<g id="a_Node000002"><a xlink:href="tokenizer__gptoss_8c.html#ae372932b3912864351defd6ce553ed88" target="_top" xlink:title=" ">
<polygon fill="white" stroke="#666666" points="294,-112 169,-112 169,-93 294,-93 294,-112"/>
<text text-anchor="middle" x="231.5" y="-100" font-family="Helvetica,sans-Serif" font-size="10.00">ie_tok_gptoss_decode</text>
</a>
</g>
</g>
<!-- Node1&#45;&gt;Node2 -->
<g id="edge1_Node000001_Node000002" class="edge">
<title>Node1&#45;&gt;Node2</title>
<g id="a_edge1_Node000001_Node000002"><a xlink:title=" ">
<path fill="none" stroke="#63b8ff" d="M133.33,-102.5C141.68,-102.5 150.27,-102.5 158.71,-102.5"/>
<polygon fill="#63b8ff" stroke="#63b8ff" points="158.91,-106 168.91,-102.5 158.91,-99 158.91,-106"/>
</a>
</g>
</g>
<!-- Node3 -->
<g id="Node000003" class="node">
<title>Node3</title>
<g id="a_Node000003"><a xlink:href="tokenizer__gptoss_8c.html#a501bba302f86962f8c5332144c6271a8" target="_top" xlink:title=" ">
<polygon fill="white" stroke="#666666" points="465,-206 330,-206 330,-187 465,-187 465,-206"/>
<text text-anchor="middle" x="397.5" y="-194" font-family="Helvetica,sans-Serif" font-size="10.00">byteunicode_cp_to_byte</text>
</a>
</g>
</g>
<!-- Node2&#45;&gt;Node3 -->
<g id="edge2_Node000002_Node000003" class="edge">
<title>Node2&#45;&gt;Node3</title>
<g id="a_edge2_Node000002_Node000003"><a xlink:title=" ">
<path fill="none" stroke="#63b8ff" d="M242.11,-112.18C258.62,-128.28 294.1,-160.57 330,-178.5 333.79,-180.39 337.81,-182.11 341.91,-183.66"/>
<polygon fill="#63b8ff" stroke="#63b8ff" points="341,-187.04 351.59,-186.97 343.27,-180.42 341,-187.04"/>
</a>
</g>
</g>
<!-- Node4 -->
<g id="Node000004" class="node">
<title>Node4</title>
<g id="a_Node000004"><a xlink:href="tokenizer__gptoss_8c.html#a7c972b84c8f4ce52042d97c576c1485b" target="_top" xlink:title=" ">
<polygon fill="white" stroke="#666666" points="457,-169 338,-169 338,-150 457,-150 457,-169"/>
<text text-anchor="middle" x="397.5" y="-157" font-family="Helvetica,sans-Serif" font-size="10.00">strbuf_append_bytes</text>
</a>
</g>
</g>
<!-- Node2&#45;&gt;Node4 -->
<g id="edge3_Node000002_Node000004" class="edge">
<title>Node2&#45;&gt;Node4</title>
<g id="a_edge3_Node000002_Node000004"><a xlink:title=" ">
<path fill="none" stroke="#63b8ff" d="M259.95,-112.04C287.15,-121.49 329,-136.04 359.2,-146.54"/>
<polygon fill="#63b8ff" stroke="#63b8ff" points="358.37,-149.95 368.96,-149.93 360.66,-143.34 358.37,-149.95"/>
</a>
</g>
</g>
<!-- Node5 -->
<g id="Node000005" class="node">
<title>Node5</title>
<g id="a_Node000005"><a xlink:href="tokenizer__gptoss_8c.html#a5f7b595a9a9d4bd08b783020e9a6b637" target="_top" xlink:title=" ">
<polygon fill="white" stroke="#666666" points="588,-150 501,-150 501,-131 588,-131 588,-150"/>
<text text-anchor="middle" x="544.5" y="-138" font-family="Helvetica,sans-Serif" font-size="10.00">strbuf_reserve</text>
</a>
</g>
</g>
<!-- Node2&#45;&gt;Node5 -->
<g id="edge7_Node000002_Node000005" class="edge">
<title>Node2&#45;&gt;Node5</title>
<g id="a_edge7_Node000002_Node000005"><a xlink:title=" ">
<path fill="none" stroke="#63b8ff" d="M294.32,-110.05C351.73,-117.07 436.31,-127.4 490.65,-134.04"/>
<polygon fill="#63b8ff" stroke="#63b8ff" points="490.42,-137.54 500.77,-135.28 491.27,-130.59 490.42,-137.54"/>
</a>
</g>
</g>
<!-- Node7 -->
<g id="Node000007" class="node">
<title>Node7</title>
<g id="a_Node000007"><a xlink:href="tokenizer__gptoss_8c.html#ae1e8b4fd77be0253a87c488246992c63" target="_top" xlink:title=" ">
<polygon fill="white" stroke="#666666" points="432.5,-93 362.5,-93 362.5,-74 432.5,-74 432.5,-93"/>
<text text-anchor="middle" x="397.5" y="-81" font-family="Helvetica,sans-Serif" font-size="10.00">strbuf_free</text>
</a>
</g>
</g>
<!-- Node2&#45;&gt;Node7 -->
<g id="edge6_Node000002_Node000007" class="edge">
<title>Node2&#45;&gt;Node7</title>
<g id="a_edge6_Node000002_Node000007"><a xlink:title=" ">
<path fill="none" stroke="#63b8ff" d="M294.03,-95.37C313.33,-93.14 334.25,-90.71 352.12,-88.64"/>
<polygon fill="#63b8ff" stroke="#63b8ff" points="352.72,-92.1 362.25,-87.47 351.92,-85.14 352.72,-92.1"/>
</a>
</g>
</g>
<!-- Node8 -->
<g id="Node000008" class="node">
<title>Node8</title>
<g id="a_Node000008"><a xlink:href="tokenizer__gptoss_8c.html#a65dda7706f1a61f0bb0affe18aae7e87" target="_top" xlink:title=" ">
<polygon fill="white" stroke="#666666" points="437.5,-56 357.5,-56 357.5,-37 437.5,-37 437.5,-56"/>
<text text-anchor="middle" x="397.5" y="-44" font-family="Helvetica,sans-Serif" font-size="10.00">utf8_next_cp</text>
</a>
</g>
</g>
<!-- Node2&#45;&gt;Node8 -->
<g id="edge8_Node000002_Node000008" class="edge">
<title>Node2&#45;&gt;Node8</title>
<g id="a_edge8_Node000002_Node000008"><a xlink:title=" ">
<path fill="none" stroke="#63b8ff" d="M255.94,-92.97C275.57,-85.14 304.4,-74 330,-65.5 336.89,-63.21 344.24,-60.94 351.45,-58.81"/>
<polygon fill="#63b8ff" stroke="#63b8ff" points="352.5,-62.15 361.13,-56.01 350.55,-55.43 352.5,-62.15"/>
</a>
</g>
</g>
<!-- Node9 -->
<g id="Node000009" class="node">
<title>Node9</title>
<g id="a_Node000009"><a xlink:href="tokenizer__gptoss_8c.html#a76ab1829431e0d4b5530c5a262de3d95" target="_top" xlink:title=" ">
<polygon fill="white" stroke="#666666" points="434.5,-19 360.5,-19 360.5,0 434.5,0 434.5,-19"/>
<text text-anchor="middle" x="397.5" y="-7" font-family="Helvetica,sans-Serif" font-size="10.00">utf8_put_cp</text>
</a>
</g>
</g>
<!-- Node2&#45;&gt;Node9 -->
<g id="edge9_Node000002_Node000009" class="edge">
<title>Node2&#45;&gt;Node9</title>
<g id="a_edge9_Node000002_Node000009"><a xlink:title=" ">
<path fill="none" stroke="#63b8ff" d="M242.45,-92.89C259.2,-77.23 294.65,-46.18 330,-28.5 336.5,-25.25 343.64,-22.48 350.75,-20.13"/>
<polygon fill="#63b8ff" stroke="#63b8ff" points="351.83,-23.46 360.38,-17.2 349.8,-16.77 351.83,-23.46"/>
</a>
</g>
</g>
<!-- Node4&#45;&gt;Node5 -->
<g id="edge4_Node000004_Node000005" class="edge">
<title>Node4&#45;&gt;Node5</title>
<g id="a_edge4_Node000004_Node000005"><a xlink:title=" ">
<path fill="none" stroke="#63b8ff" d="M457.06,-151.83C468.14,-150.38 479.67,-148.86 490.56,-147.44"/>
<polygon fill="#63b8ff" stroke="#63b8ff" points="491.31,-150.87 500.77,-146.1 490.4,-143.93 491.31,-150.87"/>
</a>
</g>
</g>
<!-- Node6 -->
<g id="Node000006" class="node">
<title>Node6</title>
<g id="a_Node000006"><a xlink:href="tokenizer__gptoss_8c.html#aaf675a9c68e3173d0fd53dbbdc9a57a7" target="_top" xlink:title=" ">
<polygon fill="white" stroke="#666666" points="680,-150 624,-150 624,-131 680,-131 680,-150"/>
<text text-anchor="middle" x="652" y="-138" font-family="Helvetica,sans-Serif" font-size="10.00">xrealloc</text>
</a>
</g>
</g>
<!-- Node5&#45;&gt;Node6 -->
<g id="edge5_Node000005_Node000006" class="edge">
<title>Node5&#45;&gt;Node6</title>
<g id="a_edge5_Node000005_Node000006"><a xlink:title=" ">
<path fill="none" stroke="#63b8ff" d="M588.11,-140.5C596.55,-140.5 605.36,-140.5 613.61,-140.5"/>
<polygon fill="#63b8ff" stroke="#63b8ff" points="613.7,-144 623.7,-140.5 613.7,-137 613.7,-144"/>
</a>
</g>
</g>
</g>
</svg>
