<?xml version="1.0" encoding="UTF-8" standalone="no"?>
<!DOCTYPE svg PUBLIC "-//W3C//DTD SVG 1.1//EN"
 "http://www.w3.org/Graphics/SVG/1.1/DTD/svg11.dtd">
<!-- Generated by graphviz version 2.43.0 (0)
 -->
<!-- Title: enqueue_item Pages: 1 -->
<!--zoomable 127 -->
<svg id="main" version="1.1" xmlns="http://www.w3.org/2000/svg" xmlns:xlink="http://www.w3.org/1999/xlink" xml:space="preserve" onload="init(evt)">
<style type="text/css"><![CDATA[
.edge:hover path { stroke: red; }
.edge:hover polygon { stroke: red; fill: red; }
]]></style>
<script type="text/javascript"><![CDATA[
var edges = document.getElementsByTagName('g');
if (edges && edges.length) {
  for (var i=0;i<edges.length;i++) {
    if (edges[i].id.substr(0,4)=='edge') {
      edges[i].setAttribute('class','edge');
    }
  }
}
]]></script>
        <defs>
                <circle id="rim" cx="0" cy="0" r="7"/>
                <circle id="rim2" cx="0" cy="0" r="3.5"/>
                <g id="zoomPlus">
                        <use xlink:href="#rim" fill="#404040">
                                <set attributeName="fill" to="#808080" begin="zoomplus.mouseover" end="zoomplus.mouseout"/>
                        </use>
                        <path d="M-4,0h8M0,-4v8" fill="none" stroke="white" stroke-width="1.5" pointer-events="none"/>
                </g>
                <g id="zoomMin">
                        <use xlink:href="#rim" fill="#404040">
                                <set attributeName="fill" to="#808080" begin="zoomminus.mouseover" end="zoomminus.mouseout"/>
                        </use>
                        <path d="M-4,0h8" fill="none" stroke="white" stroke-width="1.5" pointer-events="none"/>
                </g>
                <g id="dirArrow">
                        <path fill="none" stroke="white" stroke-width="1.5" d="M0,-3.0v7 M-2.5,-0.5L0,-3.0L2.5,-0.5"/>
                </g>
               <g id="resetDef">
                       <use xlink:href="#rim2" fill="#404040">
                               <set attributeName="fill" to="#808080" begin="reset.mouseover" end="reset.mouseout"/>
                       </use>
               </g>
        </defs>

<script type="text/javascript">
var viewWidth = 586;
var viewHeight = 127;
var sectionId = 'dynsection-2';
</script>
<script xlink:href="svgpan.js"/>
<svg id="graph" class="graph">
<g id="viewport">
<title>enqueue_item</title>
<!-- Node1 -->
<g id="node1" class="node">
<title>Node1</title>
<g id="a_node1"><a xlink:title="Enqueue a tokenized item into the ring (blocks if full).">
<polygon fill="#bfbfbf" stroke="black" points="492,-50 492,-69 578,-69 578,-50 492,-50"/>
<text text-anchor="middle" x="535" y="-57" font-family="Helvetica,sans-Serif" font-size="10.00">enqueue_item</text>
</a>
</g>
</g>
<!-- Node2 -->
<g id="node2" class="node">
<title>Node2</title>
<g id="a_node2"><a xlink:href="ie__batcher_8c.html#a65ba0b7b023b2064be03f050ff7601e6" target="_top" xlink:title="Producer thread entry: tokenizes prompts in ascending index order.">
<polygon fill="none" stroke="black" points="376,-50 376,-69 456,-69 456,-50 376,-50"/>
<text text-anchor="middle" x="416" y="-57" font-family="Helvetica,sans-Serif" font-size="10.00">worker_main</text>
</a>
</g>
</g>
<!-- Node1&#45;&gt;Node2 -->
<g id="edge1" class="edge">
<title>Node1&#45;&gt;Node2</title>
<path fill="none" stroke="midnightblue" d="M481.75,-59.5C473.12,-59.5 464.3,-59.5 456.06,-59.5"/>
<polygon fill="midnightblue" stroke="midnightblue" points="481.76,-63 491.76,-59.5 481.76,-56 481.76,-63"/>
</g>
<!-- Node3 -->
<g id="node3" class="node">
<title>Node3</title>
<g id="a_node3"><a xlink:href="ie__batcher_8h.html#a51b0027aa744b7505af41defd2f029fa" target="_top" xlink:title="Create a new asynchronous tokenizer batcher.">
<polygon fill="none" stroke="black" points="236,-50 236,-69 340,-69 340,-50 236,-50"/>
<text text-anchor="middle" x="288" y="-57" font-family="Helvetica,sans-Serif" font-size="10.00">ie_batcher_create</text>
</a>
</g>
</g>
<!-- Node2&#45;&gt;Node3 -->
<g id="edge2" class="edge">
<title>Node2&#45;&gt;Node3</title>
<path fill="none" stroke="midnightblue" d="M365.79,-59.5C357.4,-59.5 348.66,-59.5 340.21,-59.5"/>
<polygon fill="midnightblue" stroke="midnightblue" points="365.82,-63 375.82,-59.5 365.82,-56 365.82,-63"/>
</g>
<!-- Node4 -->
<g id="node4" class="node">
<title>Node4</title>
<g id="a_node4"><a xlink:href="test__batcher_8c.html#a840a5fb06d03045c6f4e645ed682b7ad" target="_top" xlink:title="Validate basic prefetch, ordering, microbatch slicing and draining.">
<polygon fill="none" stroke="black" points="82.5,-88.5 82.5,-118.5 194.5,-118.5 194.5,-88.5 82.5,-88.5"/>
<text text-anchor="start" x="90.5" y="-106.5" font-family="Helvetica,sans-Serif" font-size="10.00">test_basic_prefetch</text>
<text text-anchor="middle" x="138.5" y="-95.5" font-family="Helvetica,sans-Serif" font-size="10.00">_and_order</text>
</a>
</g>
</g>
<!-- Node3&#45;&gt;Node4 -->
<g id="edge3" class="edge">
<title>Node3&#45;&gt;Node4</title>
<path fill="none" stroke="midnightblue" d="M245.25,-71.96C228.06,-77.08 208,-83.06 190,-88.43"/>
<polygon fill="midnightblue" stroke="midnightblue" points="246.41,-75.26 254.99,-69.05 244.41,-68.55 246.41,-75.26"/>
</g>
<!-- Node6 -->
<g id="node6" class="node">
<title>Node6</title>
<g id="a_node6"><a xlink:href="test__batcher_8c.html#acebcf748df4676af1488302913dcc33e" target="_top" xlink:title="Validate graceful teardown: destroy after partial consumption.">
<polygon fill="none" stroke="black" points="77,-50 77,-69 200,-69 200,-50 77,-50"/>
<text text-anchor="middle" x="138.5" y="-57" font-family="Helvetica,sans-Serif" font-size="10.00">test_partial_teardown</text>
</a>
</g>
</g>
<!-- Node3&#45;&gt;Node6 -->
<g id="edge5" class="edge">
<title>Node3&#45;&gt;Node6</title>
<path fill="none" stroke="midnightblue" d="M225.7,-59.5C217.28,-59.5 208.63,-59.5 200.22,-59.5"/>
<polygon fill="midnightblue" stroke="midnightblue" points="225.83,-63 235.83,-59.5 225.83,-56 225.83,-63"/>
</g>
<!-- Node7 -->
<g id="node7" class="node">
<title>Node7</title>
<g id="a_node7"><a xlink:href="test__batcher_8c.html#ae1015c7a7a149612ed323d43e7c93a0c" target="_top" xlink:title="Validate ring wrap behavior (tail truncation) and view sizes.">
<polygon fill="none" stroke="black" points="80.5,-0.5 80.5,-30.5 196.5,-30.5 196.5,-0.5 80.5,-0.5"/>
<text text-anchor="start" x="88.5" y="-18.5" font-family="Helvetica,sans-Serif" font-size="10.00">test_wrap_and_view</text>
<text text-anchor="middle" x="138.5" y="-7.5" font-family="Helvetica,sans-Serif" font-size="10.00">_limits</text>
</a>
</g>
</g>
<!-- Node3&#45;&gt;Node7 -->
<g id="edge7" class="edge">
<title>Node3&#45;&gt;Node7</title>
<path fill="none" stroke="midnightblue" d="M245.25,-47.04C228.06,-41.92 208,-35.94 190,-30.57"/>
<polygon fill="midnightblue" stroke="midnightblue" points="244.41,-50.45 254.99,-49.95 246.41,-43.74 244.41,-50.45"/>
</g>
<!-- Node5 -->
<g id="node5" class="node">
<title>Node5</title>
<g id="a_node5"><a xlink:href="test__batcher_8c.html#a840291bc02cba5474a4cb46a9b9566fe" target="_top" xlink:title=" ">
<polygon fill="none" stroke="black" points="0,-50 0,-69 41,-69 41,-50 0,-50"/>
<text text-anchor="middle" x="20.5" y="-57" font-family="Helvetica,sans-Serif" font-size="10.00">main</text>
</a>
</g>
</g>
<!-- Node4&#45;&gt;Node5 -->
<g id="edge4" class="edge">
<title>Node4&#45;&gt;Node5</title>
<path fill="none" stroke="midnightblue" d="M88.27,-84.83C71.65,-78.52 54.04,-71.84 41.08,-66.93"/>
<polygon fill="midnightblue" stroke="midnightblue" points="87.31,-88.21 97.9,-88.48 89.8,-81.66 87.31,-88.21"/>
</g>
<!-- Node6&#45;&gt;Node5 -->
<g id="edge6" class="edge">
<title>Node6&#45;&gt;Node5</title>
<path fill="none" stroke="midnightblue" d="M66.56,-59.5C57.26,-59.5 48.43,-59.5 41.1,-59.5"/>
<polygon fill="midnightblue" stroke="midnightblue" points="66.78,-63 76.78,-59.5 66.78,-56 66.78,-63"/>
</g>
<!-- Node7&#45;&gt;Node5 -->
<g id="edge8" class="edge">
<title>Node7&#45;&gt;Node5</title>
<path fill="none" stroke="midnightblue" d="M88.27,-34.17C71.65,-40.48 54.04,-47.16 41.08,-52.07"/>
<polygon fill="midnightblue" stroke="midnightblue" points="89.8,-37.34 97.9,-30.52 87.31,-30.79 89.8,-37.34"/>
</g>
</g>
</svg>
        <g id="navigator" transform="translate(0 0)" fill="#404254">
                <rect fill="#f2f5e9" fill-opacity="0.5" stroke="#606060" stroke-width=".5" x="0" y="0" width="60" height="60"/>
                <use id="zoomplus" xlink:href="#zoomPlus" x="17" y="9" onmousedown="handleZoom(evt,'in')"/>
                <use id="zoomminus" xlink:href="#zoomMin" x="42" y="9" onmousedown="handleZoom(evt,'out')"/>
                <use id="reset" xlink:href="#resetDef" x="30" y="36" onmousedown="handleReset()"/>
                <g id="arrowUp" xlink:href="#dirArrow" transform="translate(30 24)" onmousedown="handlePan(0,-1)">
                  <use xlink:href="#rim" fill="#404040">
                        <set attributeName="fill" to="#808080" begin="arrowUp.mouseover" end="arrowUp.mouseout"/>
                  </use>
                  <path fill="none" stroke="white" stroke-width="1.5" d="M0,-3.0v7 M-2.5,-0.5L0,-3.0L2.5,-0.5"/>
                </g>
                <g id="arrowRight" xlink:href="#dirArrow" transform="rotate(90) translate(36 -43)" onmousedown="handlePan(1,0)">
                  <use xlink:href="#rim" fill="#404040">
                        <set attributeName="fill" to="#808080" begin="arrowRight.mouseover" end="arrowRight.mouseout"/>
                  </use>
                  <path fill="none" stroke="white" stroke-width="1.5" d="M0,-3.0v7 M-2.5,-0.5L0,-3.0L2.5,-0.5"/>
                </g>
                <g id="arrowDown" xlink:href="#dirArrow" transform="rotate(180) translate(-30 -48)" onmousedown="handlePan(0,1)">
                  <use xlink:href="#rim" fill="#404040">
                        <set attributeName="fill" to="#808080" begin="arrowDown.mouseover" end="arrowDown.mouseout"/>
                  </use>
                  <path fill="none" stroke="white" stroke-width="1.5" d="M0,-3.0v7 M-2.5,-0.5L0,-3.0L2.5,-0.5"/>
                </g>
                <g id="arrowLeft" xlink:href="#dirArrow" transform="rotate(270) translate(-36 17)" onmousedown="handlePan(-1,0)">
                  <use xlink:href="#rim" fill="#404040">
                        <set attributeName="fill" to="#808080" begin="arrowLeft.mouseover" end="arrowLeft.mouseout"/>
                  </use>
                  <path fill="none" stroke="white" stroke-width="1.5" d="M0,-3.0v7 M-2.5,-0.5L0,-3.0L2.5,-0.5"/>
                </g>
        </g>
        <svg viewBox="0 0 15 15" width="100%" height="30px" preserveAspectRatio="xMaxYMin meet">
         <g id="arrow_out" transform="scale(0.3 0.3)">
          <a xlink:href="ie__batcher_8c_a9475e6883ae67815581f9573b97d2148_icgraph_org.svg" target="_base">
           <rect id="button" ry="5" rx="5" y="6" x="6" height="38" width="38"
                fill="#f2f5e9" fill-opacity="0.5" stroke="#606060" stroke-width="1.0"/>
           <path id="arrow"
             d="M 11.500037,31.436501 C 11.940474,20.09759 22.043105,11.32322 32.158766,21.979434 L 37.068811,17.246167 C 37.068811,17.246167 37.088388,32 37.088388,32 L 22.160133,31.978069 C 22.160133,31.978069 26.997745,27.140456 26.997745,27.140456 C 18.528582,18.264221 13.291696,25.230495 11.500037,31.436501 z"
             style="fill:#404040;"/>
          </a>
         </g>
        </svg>
</svg>
