<?xml version="1.0" encoding="UTF-8" standalone="no"?>
<!DOCTYPE svg PUBLIC "-//W3C//DTD SVG 1.1//EN"
 "http://www.w3.org/Graphics/SVG/1.1/DTD/svg11.dtd">
<!-- Generated by graphviz version 2.43.0 (0)
 -->
<!-- Title: set_err Pages: 1 -->
<svg width="569pt" height="197pt"
 viewBox="0.00 0.00 569.00 196.50" xmlns="http://www.w3.org/2000/svg" xmlns:xlink="http://www.w3.org/1999/xlink">
<g id="graph0" class="graph" transform="scale(1 1) rotate(0) translate(4 192.5)">
<title>set_err</title>
<!-- Node1 -->
<g id="node1" class="node">
<title>Node1</title>
<g id="a_node1"><a xlink:title="Set last error (thread&#45;local); truncates if needed.">
<polygon fill="#bfbfbf" stroke="black" points="511,-80.5 511,-99.5 561,-99.5 561,-80.5 511,-80.5"/>
<text text-anchor="middle" x="536" y="-87.5" font-family="Helvetica,sans-Serif" font-size="10.00">set_err</text>
</a>
</g>
</g>
<!-- Node2 -->
<g id="node2" class="node">
<title>Node2</title>
<g id="a_node2"><a xlink:href="ie__kernel__ze_8cpp.html#a46e8c280257654db04216d6acbefa0af" target="_top" xlink:title="Ensure the SPIR&#45;V module and all kernel handles are created.">
<polygon fill="none" stroke="black" points="215,-86.5 215,-105.5 340,-105.5 340,-86.5 215,-86.5"/>
<text text-anchor="middle" x="277.5" y="-93.5" font-family="Helvetica,sans-Serif" font-size="10.00">ensure_module_ready</text>
</a>
</g>
</g>
<!-- Node1&#45;&gt;Node2 -->
<g id="edge1" class="edge">
<title>Node1&#45;&gt;Node2</title>
<path fill="none" stroke="midnightblue" d="M500.52,-89.39C468.31,-88.96 418.88,-88.68 376,-90 364.39,-90.36 352.01,-90.95 340.11,-91.63"/>
<polygon fill="midnightblue" stroke="midnightblue" points="500.7,-92.89 510.75,-89.54 500.8,-85.89 500.7,-92.89"/>
</g>
<!-- Node3 -->
<g id="node3" class="node">
<title>Node3</title>
<g id="a_node3"><a xlink:href="group__IE__GPU__ZE.html#ga8b3a60d6c8ace36a7e0de49ef03666d4" target="_top" xlink:title="Fused GEMV + bias + activation: y = act(alpha*W*x + bias + beta*y).">
<polygon fill="none" stroke="black" points="20.5,-158 20.5,-188 158.5,-188 158.5,-158 20.5,-158"/>
<text text-anchor="start" x="28.5" y="-176" font-family="Helvetica,sans-Serif" font-size="10.00">ie_ze_launch_gemv_bias</text>
<text text-anchor="middle" x="89.5" y="-165" font-family="Helvetica,sans-Serif" font-size="10.00">_act_f32</text>
</a>
</g>
</g>
<!-- Node1&#45;&gt;Node3 -->
<g id="edge8" class="edge">
<title>Node1&#45;&gt;Node3</title>
<path fill="none" stroke="midnightblue" d="M522.44,-108.04C511.63,-121.93 494.7,-140.21 475,-149 372.23,-194.85 238.47,-190.8 158.84,-182.64"/>
<polygon fill="midnightblue" stroke="midnightblue" points="525.49,-109.8 528.63,-99.68 519.86,-105.64 525.49,-109.8"/>
</g>
<!-- Node4 -->
<g id="node4" class="node">
<title>Node4</title>
<g id="a_node4"><a xlink:href="group__IE__GPU__ZE.html#ga71484badcdb4416b3ac57397416f7d11" target="_top" xlink:title="Row&#45;wise GEMV FP32: y = alpha * W * x + beta * y.">
<polygon fill="none" stroke="black" points="0,-97.5 0,-116.5 179,-116.5 179,-97.5 0,-97.5"/>
<text text-anchor="middle" x="89.5" y="-104.5" font-family="Helvetica,sans-Serif" font-size="10.00">ie_ze_launch_gemv_rowwise_f32</text>
</a>
</g>
</g>
<!-- Node1&#45;&gt;Node4 -->
<g id="edge9" class="edge">
<title>Node1&#45;&gt;Node4</title>
<path fill="none" stroke="midnightblue" d="M515.91,-106.05C504.75,-114.36 489.95,-123.66 475,-128 350.6,-164.08 194.26,-133.52 125.58,-116.52"/>
<polygon fill="midnightblue" stroke="midnightblue" points="518.29,-108.63 524.01,-99.71 513.98,-103.11 518.29,-108.63"/>
</g>
<!-- Node5 -->
<g id="node5" class="node">
<title>Node5</title>
<g id="a_node5"><a xlink:href="group__IE__GPU__ZE.html#ga01b63c6c0def048b6eb55bc2b1f2b4c4" target="_top" xlink:title="Pack W (row&#45;major) into Blocked&#45;K layout into Wp.">
<polygon fill="none" stroke="black" points="28.5,-45 28.5,-75 150.5,-75 150.5,-45 28.5,-45"/>
<text text-anchor="start" x="36.5" y="-63" font-family="Helvetica,sans-Serif" font-size="10.00">ie_ze_launch_pack_w</text>
<text text-anchor="middle" x="89.5" y="-52" font-family="Helvetica,sans-Serif" font-size="10.00">_blockedk_f32</text>
</a>
</g>
</g>
<!-- Node1&#45;&gt;Node5 -->
<g id="edge10" class="edge">
<title>Node1&#45;&gt;Node5</title>
<path fill="none" stroke="midnightblue" d="M500.57,-87.02C492.2,-86.33 483.28,-85.61 475,-85 360.42,-76.5 226.52,-68.15 150.79,-63.58"/>
<polygon fill="midnightblue" stroke="midnightblue" points="500.52,-90.53 510.78,-87.88 501.11,-83.56 500.52,-90.53"/>
</g>
<!-- Node6 -->
<g id="node6" class="node">
<title>Node6</title>
<g id="a_node6"><a xlink:href="group__IE__GPU__ZE.html#ga8cc805ce0f117c564d8ba8ed1df08669" target="_top" xlink:title="Vector tanh: y[i] = tanh(x[i]) for i in [0, n).">
<polygon fill="none" stroke="black" points="14.5,-0.5 14.5,-19.5 164.5,-19.5 164.5,-0.5 14.5,-0.5"/>
<text text-anchor="middle" x="89.5" y="-7.5" font-family="Helvetica,sans-Serif" font-size="10.00">ie_ze_launch_vec_tanh_f32</text>
</a>
</g>
</g>
<!-- Node1&#45;&gt;Node6 -->
<g id="edge11" class="edge">
<title>Node1&#45;&gt;Node6</title>
<path fill="none" stroke="midnightblue" d="M500.98,-80.32C492.53,-78.09 483.47,-75.83 475,-74 365.69,-50.39 237.29,-30.59 159.99,-19.52"/>
<polygon fill="midnightblue" stroke="midnightblue" points="500.33,-83.77 510.9,-83.01 502.16,-77.02 500.33,-83.77"/>
</g>
<!-- Node7 -->
<g id="node7" class="node">
<title>Node7</title>
<g id="a_node7"><a xlink:href="ie__kernel__ze_8cpp.html#a88fa59032491ae8cb4c70d153fef5bb0" target="_top" xlink:title="Ensure Level Zero context, device and immediate command list exist.">
<polygon fill="none" stroke="black" points="376,-99.5 376,-118.5 475,-118.5 475,-99.5 376,-99.5"/>
<text text-anchor="middle" x="425.5" y="-106.5" font-family="Helvetica,sans-Serif" font-size="10.00">ensure_ze_ready</text>
</a>
</g>
</g>
<!-- Node1&#45;&gt;Node7 -->
<g id="edge6" class="edge">
<title>Node1&#45;&gt;Node7</title>
<path fill="none" stroke="midnightblue" d="M501.06,-95.94C492.93,-97.37 484.08,-98.92 475.41,-100.43"/>
<polygon fill="midnightblue" stroke="midnightblue" points="501.67,-99.39 510.92,-94.22 500.47,-92.49 501.67,-99.39"/>
</g>
<!-- Node2&#45;&gt;Node3 -->
<g id="edge2" class="edge">
<title>Node2&#45;&gt;Node3</title>
<path fill="none" stroke="midnightblue" d="M243.75,-109.56C211,-123.12 160.73,-143.93 126.78,-157.98"/>
<polygon fill="midnightblue" stroke="midnightblue" points="245.42,-112.66 253.32,-105.6 242.74,-106.19 245.42,-112.66"/>
</g>
<!-- Node2&#45;&gt;Node4 -->
<g id="edge3" class="edge">
<title>Node2&#45;&gt;Node4</title>
<path fill="none" stroke="midnightblue" d="M204.76,-100.24C196.4,-100.74 187.79,-101.25 179.23,-101.75"/>
<polygon fill="midnightblue" stroke="midnightblue" points="205.05,-103.73 214.82,-99.65 204.63,-96.74 205.05,-103.73"/>
</g>
<!-- Node2&#45;&gt;Node5 -->
<g id="edge4" class="edge">
<title>Node2&#45;&gt;Node5</title>
<path fill="none" stroke="midnightblue" d="M217.27,-84.54C196.02,-80.42 172.05,-75.78 150.71,-71.65"/>
<polygon fill="midnightblue" stroke="midnightblue" points="216.66,-87.98 227.14,-86.45 217.99,-81.11 216.66,-87.98"/>
</g>
<!-- Node2&#45;&gt;Node6 -->
<g id="edge5" class="edge">
<title>Node2&#45;&gt;Node6</title>
<path fill="none" stroke="midnightblue" d="M255.27,-80.63C236.11,-67.33 206.75,-48.35 179,-36 163.93,-29.29 146.66,-23.78 131.4,-19.57"/>
<polygon fill="midnightblue" stroke="midnightblue" points="253.37,-83.57 263.56,-86.47 257.4,-77.85 253.37,-83.57"/>
</g>
<!-- Node7&#45;&gt;Node2 -->
<g id="edge7" class="edge">
<title>Node7&#45;&gt;Node2</title>
<path fill="none" stroke="midnightblue" d="M365.76,-103.77C357.33,-103.02 348.64,-102.24 340.15,-101.49"/>
<polygon fill="midnightblue" stroke="midnightblue" points="365.61,-107.27 375.88,-104.67 366.23,-100.3 365.61,-107.27"/>
</g>
</g>
</svg>
