<?xml version="1.0" encoding="UTF-8" standalone="no"?>
<!DOCTYPE svg PUBLIC "-//W3C//DTD SVG 1.1//EN"
 "http://www.w3.org/Graphics/SVG/1.1/DTD/svg11.dtd">
<!-- Generated by graphviz version 2.43.0 (0)
 -->
<!-- Title: ie_quantize_act_int8_per_group Pages: 1 -->
<svg width="247pt" height="104pt"
 viewBox="0.00 0.00 247.00 104.00" xmlns="http://www.w3.org/2000/svg" xmlns:xlink="http://www.w3.org/1999/xlink">
<g id="graph0" class="graph" transform="scale(1 1) rotate(0) translate(4 100)">
<title>ie_quantize_act_int8_per_group</title>
<!-- Node1 -->
<g id="node1" class="node">
<title>Node1</title>
<g id="a_node1"><a xlink:title="Quantize fp32 activations to INT8 using per&#45;group parameters.">
<polygon fill="#bfbfbf" stroke="black" points="0,-33 0,-63 117,-63 117,-33 0,-33"/>
<text text-anchor="start" x="8" y="-51" font-family="Helvetica,sans-Serif" font-size="10.00">ie_quantize_act_int8</text>
<text text-anchor="middle" x="58.5" y="-40" font-family="Helvetica,sans-Serif" font-size="10.00">_per_group</text>
</a>
</g>
</g>
<!-- Node2 -->
<g id="node2" class="node">
<title>Node2</title>
<g id="a_node2"><a xlink:href="act__int8_8c.html#a7490ce5fac2e6e5e1b7812006550be41" target="_top" xlink:title=" ">
<polygon fill="none" stroke="black" points="172.5,-76.5 172.5,-95.5 219.5,-95.5 219.5,-76.5 172.5,-76.5"/>
<text text-anchor="middle" x="196" y="-83.5" font-family="Helvetica,sans-Serif" font-size="10.00">ie_rne</text>
</a>
</g>
</g>
<!-- Node1&#45;&gt;Node2 -->
<g id="edge1" class="edge">
<title>Node1&#45;&gt;Node2</title>
<path fill="none" stroke="midnightblue" d="M113.05,-63.02C129.76,-67.7 147.68,-72.73 162.48,-76.88"/>
<polygon fill="midnightblue" stroke="midnightblue" points="161.61,-80.27 172.18,-79.6 163.5,-73.53 161.61,-80.27"/>
</g>
<!-- Node3 -->
<g id="node3" class="node">
<title>Node3</title>
<g id="a_node3"><a xlink:href="act__int8_8c.html#adbe29326b240b464a7a7a8773210fb8f" target="_top" xlink:title=" ">
<polygon fill="none" stroke="black" points="166,-38.5 166,-57.5 226,-57.5 226,-38.5 166,-38.5"/>
<text text-anchor="middle" x="196" y="-45.5" font-family="Helvetica,sans-Serif" font-size="10.00">ie_sat_i8</text>
</a>
</g>
</g>
<!-- Node1&#45;&gt;Node3 -->
<g id="edge2" class="edge">
<title>Node1&#45;&gt;Node3</title>
<path fill="none" stroke="midnightblue" d="M117.36,-48C130.26,-48 143.66,-48 155.62,-48"/>
<polygon fill="midnightblue" stroke="midnightblue" points="155.71,-51.5 165.71,-48 155.71,-44.5 155.71,-51.5"/>
</g>
<!-- Node4 -->
<g id="node4" class="node">
<title>Node4</title>
<g id="a_node4"><a xlink:href="act__int8_8c.html#a312c061258a9180793b777e396301655" target="_top" xlink:title=" ">
<polygon fill="none" stroke="black" points="153,-0.5 153,-19.5 239,-19.5 239,-0.5 153,-0.5"/>
<text text-anchor="middle" x="196" y="-7.5" font-family="Helvetica,sans-Serif" font-size="10.00">ie_sat_sym_i8</text>
</a>
</g>
</g>
<!-- Node1&#45;&gt;Node4 -->
<g id="edge3" class="edge">
<title>Node1&#45;&gt;Node4</title>
<path fill="none" stroke="midnightblue" d="M113.05,-32.98C125.65,-29.45 138.94,-25.72 151.06,-22.32"/>
<polygon fill="midnightblue" stroke="midnightblue" points="152.24,-25.63 160.92,-19.56 150.35,-18.89 152.24,-25.63"/>
</g>
</g>
</svg>
