<?xml version="1.0" encoding="UTF-8" standalone="no"?>
<!DOCTYPE svg PUBLIC "-//W3C//DTD SVG 1.1//EN"
 "http://www.w3.org/Graphics/SVG/1.1/DTD/svg11.dtd">
<!-- Generated by graphviz version 2.43.0 (0)
 -->
<!-- Title: kv_insert_fifo Pages: 1 -->
<svg width="445pt" height="64pt"
 viewBox="0.00 0.00 445.00 64.00" xmlns="http://www.w3.org/2000/svg" xmlns:xlink="http://www.w3.org/1999/xlink">
<g id="graph0" class="graph" transform="scale(1 1) rotate(0) translate(4 60)">
<title>kv_insert_fifo</title>
<!-- Node1 -->
<g id="Node000001" class="node">
<title>Node1</title>
<g id="a_Node000001"><a xlink:title="Insert token into the FIFO set, evicting the oldest if full.">
<polygon fill="#999999" stroke="#666666" points="437,-37 354,-37 354,-18 437,-18 437,-37"/>
<text text-anchor="middle" x="395.5" y="-25" font-family="Helvetica,sans-Serif" font-size="10.00">kv_insert_fifo</text>
</a>
</g>
</g>
<!-- Node2 -->
<g id="Node000002" class="node">
<title>Node2</title>
<g id="a_Node000002"><a xlink:href="ie__kv__instrumentation_8c.html#a27b3df57a37a25798490912b1e92d716" target="_top" xlink:title="Report a produced token to the KV tracker.">
<polygon fill="white" stroke="#666666" points="318,-37 226,-37 226,-18 318,-18 318,-37"/>
<text text-anchor="middle" x="272" y="-25" font-family="Helvetica,sans-Serif" font-size="10.00">ie_kv_on_token</text>
</a>
</g>
</g>
<!-- Node1&#45;&gt;Node2 -->
<g id="edge1_Node000001_Node000002" class="edge">
<title>Node1&#45;&gt;Node2</title>
<g id="a_edge1_Node000001_Node000002"><a xlink:title=" ">
<path fill="none" stroke="#63b8ff" d="M343.56,-27.5C335.1,-27.5 326.38,-27.5 318.08,-27.5"/>
<polygon fill="#63b8ff" stroke="#63b8ff" points="343.7,-31 353.7,-27.5 343.7,-24 343.7,-31"/>
</a>
</g>
</g>
<!-- Node3 -->
<g id="Node000003" class="node">
<title>Node3</title>
<g id="a_Node000003"><a xlink:href="ie__api_8c.html#a21ab40e22d9192fe353ad6640610a01d" target="_top" xlink:title="Generate up to max_new_tokens from prompt.">
<polygon fill="white" stroke="#666666" points="190,-37 77,-37 77,-18 190,-18 190,-37"/>
<text text-anchor="middle" x="133.5" y="-25" font-family="Helvetica,sans-Serif" font-size="10.00">ie_engine_generate</text>
</a>
</g>
</g>
<!-- Node2&#45;&gt;Node3 -->
<g id="edge2_Node000002_Node000003" class="edge">
<title>Node2&#45;&gt;Node3</title>
<g id="a_edge2_Node000002_Node000003"><a xlink:title=" ">
<path fill="none" stroke="#63b8ff" d="M215.89,-27.5C207.52,-27.5 198.87,-27.5 190.48,-27.5"/>
<polygon fill="#63b8ff" stroke="#63b8ff" points="215.93,-31 225.93,-27.5 215.93,-24 215.93,-31"/>
</a>
</g>
</g>
<!-- Node4 -->
<g id="Node000004" class="node">
<title>Node4</title>
<g id="a_Node000004"><a xlink:href="main__infer_8c.html#a3c04138a5bfe5d72780bb7e82a18e627" target="_top" xlink:title=" ">
<polygon fill="white" stroke="#666666" points="41,-56 0,-56 0,-37 41,-37 41,-56"/>
<text text-anchor="middle" x="20.5" y="-44" font-family="Helvetica,sans-Serif" font-size="10.00">main</text>
</a>
</g>
</g>
<!-- Node3&#45;&gt;Node4 -->
<g id="edge3_Node000003_Node000004" class="edge">
<title>Node3&#45;&gt;Node4</title>
<g id="a_edge3_Node000003_Node000004"><a xlink:title=" ">
<path fill="none" stroke="#63b8ff" d="M66.58,-38.78C57.37,-40.36 48.56,-41.87 41.21,-43.13"/>
<polygon fill="#63b8ff" stroke="#63b8ff" points="67.41,-42.19 76.67,-37.06 66.23,-35.29 67.41,-42.19"/>
</a>
</g>
</g>
<!-- Node5 -->
<g id="Node000005" class="node">
<title>Node5</title>
<g id="a_Node000005"><a xlink:href="test__api_8c.html#a840291bc02cba5474a4cb46a9b9566fe" target="_top" xlink:title="Program entrypoint for API lifecycle tests.">
<polygon fill="white" stroke="#666666" points="41,-19 0,-19 0,0 41,0 41,-19"/>
<text text-anchor="middle" x="20.5" y="-7" font-family="Helvetica,sans-Serif" font-size="10.00">main</text>
</a>
</g>
</g>
<!-- Node3&#45;&gt;Node5 -->
<g id="edge4_Node000003_Node000005" class="edge">
<title>Node3&#45;&gt;Node5</title>
<g id="a_edge4_Node000003_Node000005"><a xlink:title=" ">
<path fill="none" stroke="#63b8ff" d="M66.58,-16.81C57.37,-15.32 48.56,-13.89 41.21,-12.7"/>
<polygon fill="#63b8ff" stroke="#63b8ff" points="66.24,-20.3 76.67,-18.45 67.36,-13.39 66.24,-20.3"/>
</a>
</g>
</g>
</g>
</svg>
