<?xml version="1.0" encoding="UTF-8" standalone="no"?>
<!DOCTYPE svg PUBLIC "-//W3C//DTD SVG 1.1//EN"
 "http://www.w3.org/Graphics/SVG/1.1/DTD/svg11.dtd">
<!-- Generated by graphviz version 12.2.1 (20241206.2353)
 -->
<!-- Title: ie_topology_init Pages: 1 -->
<svg width="429pt" height="158pt"
 viewBox="0.00 0.00 428.75 158.12" xmlns="http://www.w3.org/2000/svg" xmlns:xlink="http://www.w3.org/1999/xlink">

<svg id="main" version="1.1" xmlns="http://www.w3.org/2000/svg" xmlns:xlink="http://www.w3.org/1999/xlink" xml:space="preserve">

<style type="text/css"><![CDATA[
.node, .edge {opacity: 0.7;}
.node.selected, .edge.selected {opacity: 1;}
.edge:hover path { stroke: red; }
.edge:hover polygon { stroke: red; fill: red; }
]]></style>
<script type="application/ecmascript" xlink:href="svg.min.js"/>
<svg id="graph" class="graph">
<g id="graph0" class="graph" transform="scale(1 1) rotate(0) translate(4 154.12)">
<title>ie_topology_init</title>
<!-- Node1 -->
<g id="Node000001" class="node">
<title>Node1</title>
<g id="a_Node000001"><a xlink:title="Initialize and build a topology handle.">
<polygon fill="#999999" stroke="#666666" points="94,-78.75 0,-78.75 0,-58 94,-58 94,-78.75"/>
<text text-anchor="middle" x="47" y="-65.25" font-family="Helvetica,sans-Serif" font-size="10.00">ie_topology_init</text>
</a>
</g>
</g>
<!-- Node2 -->
<g id="Node000002" class="node">
<title>Node2</title>
<g id="a_Node000002"><a xlink:href="topology_8c.html#ad8cfb93824e1a4ef298700cc02a08eca" target="_top" xlink:title="Compute a small representative CPU per socket.">
<polygon fill="white" stroke="#666666" points="258.12,-150.12 131.88,-150.12 131.88,-116.62 258.12,-116.62 258.12,-150.12"/>
<text text-anchor="start" x="139.88" y="-136.62" font-family="Helvetica,sans-Serif" font-size="10.00">compute_first_cpu_per</text>
<text text-anchor="middle" x="195" y="-123.88" font-family="Helvetica,sans-Serif" font-size="10.00">_socket</text>
</a>
</g>
</g>
<!-- Node1&#45;&gt;Node2 -->
<g id="edge1_Node000001_Node000002" class="edge">
<title>Node1&#45;&gt;Node2</title>
<g id="a_edge1_Node000001_Node000002"><a xlink:title=" ">
<path fill="none" stroke="#63b8ff" d="M69.77,-79.15C86.2,-87.18 109.37,-98.29 130,-107.38 133.35,-108.85 136.81,-110.34 140.3,-111.83"/>
<polygon fill="#63b8ff" stroke="#63b8ff" points="138.85,-115.01 149.43,-115.65 141.56,-108.56 138.85,-115.01"/>
</a>
</g>
</g>
<!-- Node3 -->
<g id="Node000003" class="node">
<title>Node3</title>
<g id="a_Node000003"><a xlink:href="topology_8c.html#ac2ff6f9d841b750e25919edf2252eaa0" target="_top" xlink:title="Discover NUMA nodes by parsing node cpulist files in sysfs.">
<polygon fill="white" stroke="#666666" points="256.25,-98.75 133.75,-98.75 133.75,-78 256.25,-78 256.25,-98.75"/>
<text text-anchor="middle" x="195" y="-85.25" font-family="Helvetica,sans-Serif" font-size="10.00">discover_nodes_sysfs</text>
</a>
</g>
</g>
<!-- Node1&#45;&gt;Node3 -->
<g id="edge2_Node000001_Node000003" class="edge">
<title>Node1&#45;&gt;Node3</title>
<g id="a_edge2_Node000001_Node000003"><a xlink:title=" ">
<path fill="none" stroke="#63b8ff" d="M94.2,-74.7C103.14,-75.93 112.71,-77.24 122.25,-78.55"/>
<polygon fill="#63b8ff" stroke="#63b8ff" points="121.52,-81.98 131.9,-79.87 122.47,-75.04 121.52,-81.98"/>
</a>
</g>
</g>
<!-- Node5 -->
<g id="Node000005" class="node">
<title>Node5</title>
<g id="a_Node000005"><a xlink:href="topology_8c.html#a58ad73ea71bce017696988a53683e01e" target="_top" xlink:title="Discover sockets using per&#45;CPU physical_package_id in sysfs.">
<polygon fill="white" stroke="#666666" points="260,-59.75 130,-59.75 130,-39 260,-39 260,-59.75"/>
<text text-anchor="middle" x="195" y="-46.25" font-family="Helvetica,sans-Serif" font-size="10.00">discover_sockets_sysfs</text>
</a>
</g>
</g>
<!-- Node1&#45;&gt;Node5 -->
<g id="edge4_Node000001_Node000005" class="edge">
<title>Node1&#45;&gt;Node5</title>
<g id="a_edge4_Node000001_Node000005"><a xlink:title=" ">
<path fill="none" stroke="#63b8ff" d="M94.2,-62.36C101.95,-61.35 110.17,-60.28 118.44,-59.21"/>
<polygon fill="#63b8ff" stroke="#63b8ff" points="118.73,-62.7 128.2,-57.94 117.83,-55.76 118.73,-62.7"/>
</a>
</g>
</g>
<!-- Node7 -->
<g id="Node000007" class="node">
<title>Node7</title>
<g id="a_Node000007"><a xlink:href="topology_8c.html#ac538a49136035a7084e4a9b2f77828d0" target="_top" xlink:title="Return number of online CPUs using sysconf.">
<polygon fill="white" stroke="#666666" points="242.38,-20.75 147.62,-20.75 147.62,0 242.38,0 242.38,-20.75"/>
<text text-anchor="middle" x="195" y="-7.25" font-family="Helvetica,sans-Serif" font-size="10.00">get_online_cpus</text>
</a>
</g>
</g>
<!-- Node1&#45;&gt;Node7 -->
<g id="edge6_Node000001_Node000007" class="edge">
<title>Node1&#45;&gt;Node7</title>
<g id="a_edge6_Node000001_Node000007"><a xlink:title=" ">
<path fill="none" stroke="#63b8ff" d="M69.25,-57.59C85.61,-49.52 108.92,-38.51 130,-30.38 135.03,-28.43 140.33,-26.54 145.65,-24.74"/>
<polygon fill="#63b8ff" stroke="#63b8ff" points="146.63,-28.1 155.05,-21.66 144.46,-21.45 146.63,-28.1"/>
</a>
</g>
</g>
<!-- Node4 -->
<g id="Node000004" class="node">
<title>Node4</title>
<g id="a_Node000004"><a xlink:href="topology_8c.html#aec68f2b26b90f097bf018395a7cf1bde" target="_top" xlink:title="Apply a Linux cpulist string (e.g., &quot;0&#45;3,8,10&#45;11&quot;) to mark node for CPUs.">
<polygon fill="white" stroke="#666666" points="420.75,-98.75 296,-98.75 296,-78 420.75,-78 420.75,-98.75"/>
<text text-anchor="middle" x="358.38" y="-85.25" font-family="Helvetica,sans-Serif" font-size="10.00">apply_cpulist_to_node</text>
</a>
</g>
</g>
<!-- Node3&#45;&gt;Node4 -->
<g id="edge3_Node000003_Node000004" class="edge">
<title>Node3&#45;&gt;Node4</title>
<g id="a_edge3_Node000003_Node000004"><a xlink:title=" ">
<path fill="none" stroke="#63b8ff" d="M256.55,-88.38C265.64,-88.38 275.1,-88.38 284.42,-88.38"/>
<polygon fill="#63b8ff" stroke="#63b8ff" points="284.17,-91.88 294.17,-88.38 284.17,-84.88 284.17,-91.88"/>
</a>
</g>
</g>
<!-- Node6 -->
<g id="Node000006" class="node">
<title>Node6</title>
<g id="a_Node000006"><a xlink:href="topology_8c.html#a4f4f3c917428ad31f405b09aa9c0b1dd" target="_top" xlink:title="Read an integer from a text file.">
<polygon fill="white" stroke="#666666" points="396.38,-59.75 320.38,-59.75 320.38,-39 396.38,-39 396.38,-59.75"/>
<text text-anchor="middle" x="358.38" y="-46.25" font-family="Helvetica,sans-Serif" font-size="10.00">read_int_file</text>
</a>
</g>
</g>
<!-- Node5&#45;&gt;Node6 -->
<g id="edge5_Node000005_Node000006" class="edge">
<title>Node5&#45;&gt;Node6</title>
<g id="a_edge5_Node000005_Node000006"><a xlink:title=" ">
<path fill="none" stroke="#63b8ff" d="M260.24,-49.38C276.49,-49.38 293.67,-49.38 308.99,-49.38"/>
<polygon fill="#63b8ff" stroke="#63b8ff" points="308.78,-52.88 318.78,-49.38 308.78,-45.88 308.78,-52.88"/>
</a>
</g>
</g>
</g>
</svg>
</svg>

<style type='text/css'>
<![CDATA[
[data-mouse-over-selected='false'] { opacity: 0.7; }
[data-mouse-over-selected='true']  { opacity: 1.0; }
]]>
</style>
<script type="application/ecmascript"><![CDATA[
document.addEventListener('DOMContentLoaded', (event) => {
  highlightEdges();
  highlightAdjacentNodes();
});
]]></script>
</svg>
