<?xml version="1.0" encoding="UTF-8" standalone="no"?>
<!DOCTYPE svg PUBLIC "-//W3C//DTD SVG 1.1//EN"
 "http://www.w3.org/Graphics/SVG/1.1/DTD/svg11.dtd">
<!-- Generated by graphviz version 2.43.0 (0)
 -->
<!-- Title: cuda_gemv_f32_thunk Pages: 1 -->
<svg width="648pt" height="227pt"
 viewBox="0.00 0.00 648.00 226.50" xmlns="http://www.w3.org/2000/svg" xmlns:xlink="http://www.w3.org/1999/xlink">
<g id="graph0" class="graph" transform="scale(1 1) rotate(0) translate(4 222.5)">
<title>cuda_gemv_f32_thunk</title>
<!-- Node1 -->
<g id="Node000001" class="node">
<title>Node1</title>
<g id="a_Node000001"><a xlink:title="CUDA GEMV FP32 implementation.">
<polygon fill="#999999" stroke="#666666" points="127,-86.5 0,-86.5 0,-67.5 127,-67.5 127,-86.5"/>
<text text-anchor="middle" x="63.5" y="-74.5" font-family="Helvetica,sans-Serif" font-size="10.00">cuda_gemv_f32_thunk</text>
</a>
</g>
</g>
<!-- Node2 -->
<g id="Node000002" class="node">
<title>Node2</title>
<g id="a_Node000002"><a xlink:href="ie__device__common_8c.html#a56608584d5096e56c6de8baeb07edb11" target="_top" xlink:title="Ensure a device buffer has at least nbytes capacity.">
<polygon fill="white" stroke="#666666" points="288,-143.5 163,-143.5 163,-124.5 288,-124.5 288,-143.5"/>
<text text-anchor="middle" x="225.5" y="-131.5" font-family="Helvetica,sans-Serif" font-size="10.00">cuda_ensure_capacity</text>
</a>
</g>
</g>
<!-- Node1&#45;&gt;Node2 -->
<g id="edge1_Node000001_Node000002" class="edge">
<title>Node1&#45;&gt;Node2</title>
<g id="a_edge1_Node000001_Node000002"><a xlink:title=" ">
<path fill="none" stroke="#63b8ff" d="M91.28,-86.54C117.82,-95.99 158.65,-110.54 188.11,-121.04"/>
<polygon fill="#63b8ff" stroke="#63b8ff" points="187.04,-124.37 197.63,-124.43 189.39,-117.78 187.04,-124.37"/>
</a>
</g>
</g>
<!-- Node7 -->
<g id="Node000007" class="node">
<title>Node7</title>
<g id="a_Node000007"><a xlink:href="ie__device__cuda_8cu.html#aca120e7a1c8d8c71e0c9c55ff55b5a2e" target="_top" xlink:title="Launch a GEMV FP32 kernel: y = W*x + bias (bias optional).">
<polygon fill="white" stroke="#666666" points="279.5,-67.5 171.5,-67.5 171.5,-48.5 279.5,-48.5 279.5,-67.5"/>
<text text-anchor="middle" x="225.5" y="-55.5" font-family="Helvetica,sans-Serif" font-size="10.00">ie_cuda_gemv_f32</text>
</a>
</g>
</g>
<!-- Node1&#45;&gt;Node7 -->
<g id="edge8_Node000001_Node000007" class="edge">
<title>Node1&#45;&gt;Node7</title>
<g id="a_edge8_Node000001_Node000007"><a xlink:title=" ">
<path fill="none" stroke="#63b8ff" d="M127.28,-69.55C138.47,-68.22 150.14,-66.83 161.34,-65.5"/>
<polygon fill="#63b8ff" stroke="#63b8ff" points="161.96,-68.95 171.47,-64.3 161.13,-62 161.96,-68.95"/>
</a>
</g>
</g>
<!-- Node8 -->
<g id="Node000008" class="node">
<title>Node8</title>
<g id="a_Node000008"><a xlink:href="ie__device__cuda_8cu.html#a5e3d9fee84981707669f5c2398f0c4ab" target="_top" xlink:title="Row&#45;wise GEMV kernel: each thread computes one output row.">
<polygon fill="white" stroke="#666666" points="449,-30 324,-30 324,0 449,0 449,-30"/>
<text text-anchor="start" x="332" y="-18" font-family="Helvetica,sans-Serif" font-size="10.00">ie_gemv_rowwise_f32</text>
<text text-anchor="middle" x="386.5" y="-7" font-family="Helvetica,sans-Serif" font-size="10.00">_kernel</text>
</a>
</g>
</g>
<!-- Node1&#45;&gt;Node8 -->
<g id="edge15_Node000001_Node000008" class="edge">
<title>Node1&#45;&gt;Node8</title>
<g id="a_edge15_Node000001_Node000008"><a xlink:title=" ">
<path fill="none" stroke="#63b8ff" d="M84.75,-67.39C104.32,-58.54 135.03,-45.78 163,-39 212.57,-26.98 269.81,-20.98 313.82,-17.98"/>
<polygon fill="#63b8ff" stroke="#63b8ff" points="314.1,-21.47 323.85,-17.34 313.65,-14.49 314.1,-21.47"/>
</a>
</g>
</g>
<!-- Node9 -->
<g id="Node000009" class="node">
<title>Node9</title>
<g id="a_Node000009"><a xlink:href="ie__device__cuda_8cu.html#a13ade60bbdaef0afaf4b53fd42c1e38c" target="_top" xlink:title="Copy memory using CUDA.">
<polygon fill="white" stroke="#666666" points="437.5,-105.5 335.5,-105.5 335.5,-86.5 437.5,-86.5 437.5,-105.5"/>
<text text-anchor="middle" x="386.5" y="-93.5" font-family="Helvetica,sans-Serif" font-size="10.00">ie_cuda_memcpy</text>
</a>
</g>
</g>
<!-- Node1&#45;&gt;Node9 -->
<g id="edge12_Node000001_Node000009" class="edge">
<title>Node1&#45;&gt;Node9</title>
<g id="a_edge12_Node000001_Node000009"><a xlink:title=" ">
<path fill="none" stroke="#63b8ff" d="M127.15,-80.71C184.44,-84.1 268.61,-89.08 325.16,-92.43"/>
<polygon fill="#63b8ff" stroke="#63b8ff" points="325.19,-95.94 335.38,-93.03 325.6,-88.95 325.19,-95.94"/>
</a>
</g>
</g>
<!-- Node3 -->
<g id="Node000003" class="node">
<title>Node3</title>
<g id="a_Node000003"><a xlink:href="ie__device__cuda__stub_8c.html#a7aa3c245312a87827c310085cffdf6b5" target="_top" xlink:title="Free device memory allocated by ie_cuda_malloc().">
<polygon fill="white" stroke="#666666" points="426,-142.5 347,-142.5 347,-123.5 426,-123.5 426,-142.5"/>
<text text-anchor="middle" x="386.5" y="-130.5" font-family="Helvetica,sans-Serif" font-size="10.00">ie_cuda_free</text>
</a>
</g>
</g>
<!-- Node2&#45;&gt;Node3 -->
<g id="edge2_Node000002_Node000003" class="edge">
<title>Node2&#45;&gt;Node3</title>
<g id="a_edge2_Node000002_Node000003"><a xlink:title=" ">
<path fill="none" stroke="#63b8ff" d="M288.43,-133.61C304.44,-133.51 321.45,-133.4 336.69,-133.31"/>
<polygon fill="#63b8ff" stroke="#63b8ff" points="336.94,-136.81 346.92,-133.24 336.9,-129.81 336.94,-136.81"/>
</a>
</g>
</g>
<!-- Node6 -->
<g id="Node000006" class="node">
<title>Node6</title>
<g id="a_Node000006"><a xlink:href="ie__device__cuda_8cu.html#a5e37ce0218789795b250e4dfec782e6d" target="_top" xlink:title="Allocate device memory.">
<polygon fill="white" stroke="#666666" points="432.5,-218.5 340.5,-218.5 340.5,-199.5 432.5,-199.5 432.5,-218.5"/>
<text text-anchor="middle" x="386.5" y="-206.5" font-family="Helvetica,sans-Serif" font-size="10.00">ie_cuda_malloc</text>
</a>
</g>
</g>
<!-- Node2&#45;&gt;Node6 -->
<g id="edge5_Node000002_Node000006" class="edge">
<title>Node2&#45;&gt;Node6</title>
<g id="a_edge5_Node000002_Node000006"><a xlink:title=" ">
<path fill="none" stroke="#63b8ff" d="M243.48,-143.61C262.71,-154.32 295.14,-171.87 324,-185 332.26,-188.76 341.3,-192.49 349.84,-195.85"/>
<polygon fill="#63b8ff" stroke="#63b8ff" points="348.61,-199.13 359.2,-199.47 351.13,-192.6 348.61,-199.13"/>
</a>
</g>
</g>
<!-- Node4 -->
<g id="Node000004" class="node">
<title>Node4</title>
<g id="a_Node000004"><a xlink:href="ie__device__cuda_8cu.html#a4ed091f3252b0eddeb76bd1d8fc63168" target="_top" xlink:title="Clear the last error string (C ABI).">
<polygon fill="white" stroke="#666666" points="616,-127 509,-127 509,-97 616,-97 616,-127"/>
<text text-anchor="start" x="517" y="-115" font-family="Helvetica,sans-Serif" font-size="10.00">ie_cuda_clear_last</text>
<text text-anchor="middle" x="562.5" y="-104" font-family="Helvetica,sans-Serif" font-size="10.00">_error</text>
</a>
</g>
</g>
<!-- Node3&#45;&gt;Node4 -->
<g id="edge3_Node000003_Node000004" class="edge">
<title>Node3&#45;&gt;Node4</title>
<g id="a_edge3_Node000003_Node000004"><a xlink:title=" ">
<path fill="none" stroke="#63b8ff" d="M426.12,-128.34C447.4,-125.77 474.36,-122.52 498.6,-119.59"/>
<polygon fill="#63b8ff" stroke="#63b8ff" points="499.3,-123.03 508.8,-118.36 498.46,-116.08 499.3,-123.03"/>
</a>
</g>
</g>
<!-- Node5 -->
<g id="Node000005" class="node">
<title>Node5</title>
<g id="a_Node000005"><a xlink:href="ie__device__cuda_8cu.html#a0391d9bf2a39582d39265da97820553f" target="_top" xlink:title="Store the last error message into the global static buffer.">
<polygon fill="white" stroke="#666666" points="640,-172.5 485,-172.5 485,-153.5 640,-153.5 640,-172.5"/>
<text text-anchor="middle" x="562.5" y="-160.5" font-family="Helvetica,sans-Serif" font-size="10.00">ie_cuda_set_last_error_cuda</text>
</a>
</g>
</g>
<!-- Node3&#45;&gt;Node5 -->
<g id="edge4_Node000003_Node000005" class="edge">
<title>Node3&#45;&gt;Node5</title>
<g id="a_edge4_Node000003_Node000005"><a xlink:title=" ">
<path fill="none" stroke="#63b8ff" d="M426.12,-139.66C446.7,-143.21 472.59,-147.67 496.2,-151.74"/>
<polygon fill="#63b8ff" stroke="#63b8ff" points="495.71,-155.21 506.16,-153.46 496.9,-148.31 495.71,-155.21"/>
</a>
</g>
</g>
<!-- Node6&#45;&gt;Node4 -->
<g id="edge6_Node000006_Node000004" class="edge">
<title>Node6&#45;&gt;Node4</title>
<g id="a_edge6_Node000006_Node000004"><a xlink:title=" ">
<path fill="none" stroke="#63b8ff" d="M400.61,-199.33C418.92,-186.08 453.45,-162 485,-145 494.17,-140.06 504.23,-135.29 513.96,-130.98"/>
<polygon fill="#63b8ff" stroke="#63b8ff" points="515.36,-134.19 523.14,-127.01 512.57,-127.77 515.36,-134.19"/>
</a>
</g>
</g>
<!-- Node6&#45;&gt;Node5 -->
<g id="edge7_Node000006_Node000005" class="edge">
<title>Node6&#45;&gt;Node5</title>
<g id="a_edge7_Node000006_Node000005"><a xlink:title=" ">
<path fill="none" stroke="#63b8ff" d="M423.55,-199.47C450.27,-192.41 486.87,-182.73 515.66,-175.12"/>
<polygon fill="#63b8ff" stroke="#63b8ff" points="516.72,-178.46 525.49,-172.52 514.93,-171.69 516.72,-178.46"/>
</a>
</g>
</g>
<!-- Node7&#45;&gt;Node4 -->
<g id="edge9_Node000007_Node000004" class="edge">
<title>Node7&#45;&gt;Node4</title>
<g id="a_edge9_Node000007_Node000004"><a xlink:title=" ">
<path fill="none" stroke="#63b8ff" d="M279.54,-59.31C324.91,-61.19 391.74,-65.79 449,-77 469.6,-81.03 491.76,-87.46 510.92,-93.71"/>
<polygon fill="#63b8ff" stroke="#63b8ff" points="510.05,-97.11 520.64,-96.95 512.26,-90.46 510.05,-97.11"/>
</a>
</g>
</g>
<!-- Node7&#45;&gt;Node5 -->
<g id="edge10_Node000007_Node000005" class="edge">
<title>Node7&#45;&gt;Node5</title>
<g id="a_edge10_Node000007_Node000005"><a xlink:title=" ">
<path fill="none" stroke="#63b8ff" d="M237.03,-67.76C249.35,-79.21 270.31,-98.82 288,-116 304.23,-131.76 303.3,-142.86 324,-152 373.97,-174.07 435.74,-176.26 483.76,-173.23"/>
<polygon fill="#63b8ff" stroke="#63b8ff" points="484.07,-176.71 493.79,-172.51 483.57,-169.73 484.07,-176.71"/>
</a>
</g>
</g>
<!-- Node7&#45;&gt;Node8 -->
<g id="edge11_Node000007_Node000008" class="edge">
<title>Node7&#45;&gt;Node8</title>
<g id="a_edge11_Node000007_Node000008"><a xlink:title=" ">
<path fill="none" stroke="#63b8ff" d="M261.79,-48.46C279.01,-43.8 300.28,-38.05 320.31,-32.63"/>
<polygon fill="#63b8ff" stroke="#63b8ff" points="321.27,-36 330.01,-30.01 319.44,-29.24 321.27,-36"/>
</a>
</g>
</g>
<!-- Node9&#45;&gt;Node4 -->
<g id="edge13_Node000009_Node000004" class="edge">
<title>Node9&#45;&gt;Node4</title>
<g id="a_edge13_Node000009_Node000004"><a xlink:title=" ">
<path fill="none" stroke="#63b8ff" d="M437.83,-100.63C456.89,-102.38 478.83,-104.4 498.88,-106.24"/>
<polygon fill="#63b8ff" stroke="#63b8ff" points="498.58,-109.73 508.86,-107.16 499.23,-102.76 498.58,-109.73"/>
</a>
</g>
</g>
<!-- Node9&#45;&gt;Node5 -->
<g id="edge14_Node000009_Node000005" class="edge">
<title>Node9&#45;&gt;Node5</title>
<g id="a_edge14_Node000009_Node000005"><a xlink:title=" ">
<path fill="none" stroke="#63b8ff" d="M423.45,-105.6C431.97,-108.28 440.92,-111.45 449,-115 465.96,-122.45 468.19,-128.22 485,-136 496.28,-141.22 508.88,-146.06 520.55,-150.15"/>
<polygon fill="#63b8ff" stroke="#63b8ff" points="519.48,-153.48 530.08,-153.4 521.74,-146.86 519.48,-153.48"/>
</a>
</g>
</g>
</g>
</svg>
