<?xml version="1.0" encoding="UTF-8" standalone="no"?>
<!DOCTYPE svg PUBLIC "-//W3C//DTD SVG 1.1//EN"
 "http://www.w3.org/Graphics/SVG/1.1/DTD/svg11.dtd">
<!-- Generated by graphviz version 2.43.0 (0)
 -->
<!-- Title: ie_stream_should_use_nt Pages: 1 -->
<svg width="393pt" height="66pt"
 viewBox="0.00 0.00 393.00 66.00" xmlns="http://www.w3.org/2000/svg" xmlns:xlink="http://www.w3.org/1999/xlink">
<g id="graph0" class="graph" transform="scale(1 1) rotate(0) translate(4 62)">
<title>ie_stream_should_use_nt</title>
<!-- Node1 -->
<g id="node1" class="node">
<title>Node1</title>
<g id="a_node1"><a xlink:title="Decide if non&#45;temporal stores should be used for a given transfer size.">
<polygon fill="#bfbfbf" stroke="black" points="245,-19.5 245,-38.5 385,-38.5 385,-19.5 245,-19.5"/>
<text text-anchor="middle" x="315" y="-26.5" font-family="Helvetica,sans-Serif" font-size="10.00">ie_stream_should_use_nt</text>
</a>
</g>
</g>
<!-- Node2 -->
<g id="node2" class="node">
<title>Node2</title>
<g id="a_node2"><a xlink:href="ie__stream_8h.html#a13ab8c04be7e2aad6764804916e21757" target="_top" xlink:title="Copy n floats from src to dst using optional non&#45;temporal stores.">
<polygon fill="none" stroke="black" points="85.5,-38.5 85.5,-57.5 200.5,-57.5 200.5,-38.5 85.5,-38.5"/>
<text text-anchor="middle" x="143" y="-45.5" font-family="Helvetica,sans-Serif" font-size="10.00">ie_stream_copy_f32</text>
</a>
</g>
</g>
<!-- Node1&#45;&gt;Node2 -->
<g id="edge1" class="edge">
<title>Node1&#45;&gt;Node2</title>
<path fill="none" stroke="midnightblue" d="M234.78,-37.85C223.25,-39.14 211.57,-40.45 200.61,-41.67"/>
<polygon fill="midnightblue" stroke="midnightblue" points="235.31,-41.32 244.85,-36.73 234.53,-34.36 235.31,-41.32"/>
</g>
<!-- Node4 -->
<g id="node4" class="node">
<title>Node4</title>
<g id="a_node4"><a xlink:href="ie__stream_8h.html#ae7db5f748b4078d3d8064ee76d254353" target="_top" xlink:title="Set n floats at dst to value using optional non&#45;temporal stores.">
<polygon fill="none" stroke="black" points="77,-0.5 77,-19.5 209,-19.5 209,-0.5 77,-0.5"/>
<text text-anchor="middle" x="143" y="-7.5" font-family="Helvetica,sans-Serif" font-size="10.00">ie_stream_memset_f32</text>
</a>
</g>
</g>
<!-- Node1&#45;&gt;Node4 -->
<g id="edge3" class="edge">
<title>Node1&#45;&gt;Node4</title>
<path fill="none" stroke="midnightblue" d="M234.85,-20.15C226.27,-19.2 217.62,-18.23 209.24,-17.29"/>
<polygon fill="midnightblue" stroke="midnightblue" points="234.53,-23.64 244.85,-21.27 235.31,-16.68 234.53,-23.64"/>
</g>
<!-- Node3 -->
<g id="node3" class="node">
<title>Node3</title>
<g id="a_node3"><a xlink:href="microbench__stream_8c.html#a3c04138a5bfe5d72780bb7e82a18e627" target="_top" xlink:title="Microbenchmark main.">
<polygon fill="none" stroke="black" points="0,-38.5 0,-57.5 41,-57.5 41,-38.5 0,-38.5"/>
<text text-anchor="middle" x="20.5" y="-45.5" font-family="Helvetica,sans-Serif" font-size="10.00">main</text>
</a>
</g>
</g>
<!-- Node2&#45;&gt;Node3 -->
<g id="edge2" class="edge">
<title>Node2&#45;&gt;Node3</title>
<path fill="none" stroke="midnightblue" d="M75.23,-48C62.76,-48 50.66,-48 41.11,-48"/>
<polygon fill="midnightblue" stroke="midnightblue" points="75.28,-51.5 85.28,-48 75.28,-44.5 75.28,-51.5"/>
</g>
</g>
</svg>
