<?xml version="1.0" encoding="UTF-8" standalone="no"?>
<!DOCTYPE svg PUBLIC "-//W3C//DTD SVG 1.1//EN"
 "http://www.w3.org/Graphics/SVG/1.1/DTD/svg11.dtd">
<!-- Generated by graphviz version 12.2.1 (20241206.2353)
 -->
<!-- Title: engine/include/ie_cpu.h Pages: 1 -->
<svg width="278pt" height="98pt"
 viewBox="0.00 0.00 277.88 98.25" xmlns="http://www.w3.org/2000/svg" xmlns:xlink="http://www.w3.org/1999/xlink">
<g id="graph0" class="graph" transform="scale(1 1) rotate(0) translate(4 94.25)">
<title>engine/include/ie_cpu.h</title>
<!-- Node1 -->
<g id="Node000001" class="node">
<title>Node1</title>
<g id="a_Node000001"><a xlink:title="CPU feature detection API for runtime kernel dispatch.">
<polygon fill="#999999" stroke="#666666" points="190,-90.25 59.25,-90.25 59.25,-69.5 190,-69.5 190,-90.25"/>
<text text-anchor="middle" x="124.62" y="-76.75" font-family="Helvetica,sans-Serif" font-size="10.00">engine/include/ie_cpu.h</text>
</a>
</g>
</g>
<!-- Node2 -->
<g id="Node000002" class="node">
<title>Node2</title>
<g id="a_Node000002"><a xlink:href="cpu__features_8c.html" target="_top" xlink:title="Best&#45;effort CPU feature detection for AVX2 and FMA at runtime.">
<polygon fill="white" stroke="#666666" points="105.25,-33.5 0,-33.5 0,0 105.25,0 105.25,-33.5"/>
<text text-anchor="start" x="8" y="-20" font-family="Helvetica,sans-Serif" font-size="10.00">engine/src/opt/cpu</text>
<text text-anchor="middle" x="52.62" y="-7.25" font-family="Helvetica,sans-Serif" font-size="10.00">_features.c</text>
</a>
</g>
</g>
<!-- Node1&#45;&gt;Node2 -->
<g id="edge1_Node000001_Node000002" class="edge">
<title>Node1&#45;&gt;Node2</title>
<g id="a_edge1_Node000001_Node000002"><a xlink:title=" ">
<path fill="none" stroke="#63b8ff" d="M104.38,-61.69C94.16,-53.01 81.81,-42.53 71.75,-33.98"/>
<polygon fill="#63b8ff" stroke="#63b8ff" points="102.01,-64.27 111.9,-68.07 106.54,-58.93 102.01,-64.27"/>
</a>
</g>
</g>
<!-- Node3 -->
<g id="Node000003" class="node">
<title>Node3</title>
<g id="a_Node000003"><a xlink:href="test__cpu__features_8c.html" target="_top" xlink:title="Smoke test for CPU feature detection (never crashes, sane flags).">
<polygon fill="white" stroke="#666666" points="269.88,-27.12 123.38,-27.12 123.38,-6.38 269.88,-6.38 269.88,-27.12"/>
<text text-anchor="middle" x="196.62" y="-13.62" font-family="Helvetica,sans-Serif" font-size="10.00">tests/c/test_cpu_features.c</text>
</a>
</g>
</g>
<!-- Node1&#45;&gt;Node3 -->
<g id="edge2_Node000001_Node000003" class="edge">
<title>Node1&#45;&gt;Node3</title>
<g id="a_edge2_Node000001_Node000003"><a xlink:title=" ">
<path fill="none" stroke="#63b8ff" d="M144.6,-61.92C157.73,-50.77 174.44,-36.59 185.32,-27.34"/>
<polygon fill="#63b8ff" stroke="#63b8ff" points="142.71,-58.93 137.35,-68.07 147.24,-64.27 142.71,-58.93"/>
</a>
</g>
</g>
</g>
</svg>
