<?xml version="1.0" encoding="UTF-8" standalone="no"?>
<!DOCTYPE svg PUBLIC "-//W3C//DTD SVG 1.1//EN"
 "http://www.w3.org/Graphics/SVG/1.1/DTD/svg11.dtd">
<!-- Generated by graphviz version 12.2.1 (20241206.2353)
 -->
<!-- Title: engine/src/ie_api.c Pages: 1 -->
<svg width="545pt" height="142pt"
 viewBox="0.00 0.00 544.62 142.25" xmlns="http://www.w3.org/2000/svg" xmlns:xlink="http://www.w3.org/1999/xlink">
<g id="graph0" class="graph" transform="scale(1 1) rotate(0) translate(4 138.25)">
<title>engine/src/ie_api.c</title>
<!-- Node1 -->
<g id="Node000001" class="node">
<title>Node1</title>
<g id="a_Node000001"><a xlink:title="CI&#45;friendly implementation of the public Inference Engine API.">
<polygon fill="#999999" stroke="#666666" points="341.62,-134.25 234.88,-134.25 234.88,-113.5 341.62,-113.5 341.62,-134.25"/>
<text text-anchor="middle" x="288.25" y="-120.75" font-family="Helvetica,sans-Serif" font-size="10.00">engine/src/ie_api.c</text>
</a>
</g>
</g>
<!-- Node2 -->
<g id="Node000002" class="node">
<title>Node2</title>
<g id="a_Node000002"><a xlink:href="ie__api_8h.html" target="_top" xlink:title="Public C API for the inference engine (minimal surface used by CLI/tests).">
<polygon fill="white" stroke="#666666" points="206.38,-77.5 152.12,-77.5 152.12,-56.75 206.38,-56.75 206.38,-77.5"/>
<text text-anchor="middle" x="179.25" y="-64" font-family="Helvetica,sans-Serif" font-size="10.00">ie_api.h</text>
</a>
</g>
</g>
<!-- Node1&#45;&gt;Node2 -->
<g id="edge1_Node000001_Node000002" class="edge">
<title>Node1&#45;&gt;Node2</title>
<g id="a_edge1_Node000001_Node000002"><a xlink:title=" ">
<path fill="none" stroke="#63b8ff" d="M268.76,-113.09C252.1,-104.72 227.87,-92.54 208.81,-82.97"/>
<polygon fill="#63b8ff" stroke="#63b8ff" points="210.43,-79.87 199.92,-78.51 207.29,-86.12 210.43,-79.87"/>
</a>
</g>
</g>
<!-- Node4 -->
<g id="Node000004" class="node">
<title>Node4</title>
<g id="a_Node000004"><a xlink:title=" ">
<polygon fill="#e0e0e0" stroke="#999999" points="205.62,-20.75 152.88,-20.75 152.88,0 205.62,0 205.62,-20.75"/>
<text text-anchor="middle" x="179.25" y="-7.25" font-family="Helvetica,sans-Serif" font-size="10.00">stdint.h</text>
</a>
</g>
</g>
<!-- Node1&#45;&gt;Node4 -->
<g id="edge9_Node000001_Node000004" class="edge">
<title>Node1&#45;&gt;Node4</title>
<g id="a_edge9_Node000001_Node000004"><a xlink:title=" ">
<path fill="none" stroke="#63b8ff" d="M278.96,-113.37C260.71,-94.7 219.94,-52.99 196.58,-29.1"/>
<polygon fill="#63b8ff" stroke="#63b8ff" points="199.38,-26.96 189.89,-22.26 194.38,-31.85 199.38,-26.96"/>
</a>
</g>
</g>
<!-- Node5 -->
<g id="Node000005" class="node">
<title>Node5</title>
<g id="a_Node000005"><a xlink:href="ie__kv__instrumentation_8h.html" target="_top" xlink:title="Lightweight KV cache hit/miss instrumentation for benchmarks.">
<polygon fill="white" stroke="#666666" points="134.5,-77.5 0,-77.5 0,-56.75 134.5,-56.75 134.5,-77.5"/>
<text text-anchor="middle" x="67.25" y="-64" font-family="Helvetica,sans-Serif" font-size="10.00">ie_kv_instrumentation.h</text>
</a>
</g>
</g>
<!-- Node1&#45;&gt;Node5 -->
<g id="edge4_Node000001_Node000005" class="edge">
<title>Node1&#45;&gt;Node5</title>
<g id="a_edge4_Node000001_Node000005"><a xlink:title=" ">
<path fill="none" stroke="#63b8ff" d="M248.48,-113.02C211.99,-103.98 157.72,-90.54 118.09,-80.72"/>
<polygon fill="#63b8ff" stroke="#63b8ff" points="119.09,-77.36 108.54,-78.35 117.4,-84.16 119.09,-77.36"/>
</a>
</g>
</g>
<!-- Node6 -->
<g id="Node000006" class="node">
<title>Node6</title>
<g id="a_Node000006"><a xlink:title=" ">
<polygon fill="#e0e0e0" stroke="#999999" points="314.25,-77.5 262.25,-77.5 262.25,-56.75 314.25,-56.75 314.25,-77.5"/>
<text text-anchor="middle" x="288.25" y="-64" font-family="Helvetica,sans-Serif" font-size="10.00">ctype.h</text>
</a>
</g>
</g>
<!-- Node1&#45;&gt;Node6 -->
<g id="edge7_Node000001_Node000006" class="edge">
<title>Node1&#45;&gt;Node6</title>
<g id="a_edge7_Node000001_Node000006"><a xlink:title=" ">
<path fill="none" stroke="#63b8ff" d="M288.25,-113.09C288.25,-106.47 288.25,-97.47 288.25,-89.27"/>
<polygon fill="#63b8ff" stroke="#63b8ff" points="291.75,-89.34 288.25,-79.34 284.75,-89.34 291.75,-89.34"/>
</a>
</g>
</g>
<!-- Node7 -->
<g id="Node000007" class="node">
<title>Node7</title>
<g id="a_Node000007"><a xlink:title=" ">
<polygon fill="#e0e0e0" stroke="#999999" points="396.62,-77.5 331.88,-77.5 331.88,-56.75 396.62,-56.75 396.62,-77.5"/>
<text text-anchor="middle" x="364.25" y="-64" font-family="Helvetica,sans-Serif" font-size="10.00">inttypes.h</text>
</a>
</g>
</g>
<!-- Node1&#45;&gt;Node7 -->
<g id="edge8_Node000001_Node000007" class="edge">
<title>Node1&#45;&gt;Node7</title>
<g id="a_edge8_Node000001_Node000007"><a xlink:title=" ">
<path fill="none" stroke="#63b8ff" d="M301.84,-113.09C312.86,-105.15 328.64,-93.78 341.57,-84.46"/>
<polygon fill="#63b8ff" stroke="#63b8ff" points="343.48,-87.4 349.55,-78.71 339.39,-81.72 343.48,-87.4"/>
</a>
</g>
</g>
<!-- Node8 -->
<g id="Node000008" class="node">
<title>Node8</title>
<g id="a_Node000008"><a xlink:title=" ">
<polygon fill="#e0e0e0" stroke="#999999" points="466.25,-77.5 414.25,-77.5 414.25,-56.75 466.25,-56.75 466.25,-77.5"/>
<text text-anchor="middle" x="440.25" y="-64" font-family="Helvetica,sans-Serif" font-size="10.00">stdlib.h</text>
</a>
</g>
</g>
<!-- Node1&#45;&gt;Node8 -->
<g id="edge10_Node000001_Node000008" class="edge">
<title>Node1&#45;&gt;Node8</title>
<g id="a_edge10_Node000001_Node000008"><a xlink:title=" ">
<path fill="none" stroke="#63b8ff" d="M315.42,-113.09C339.89,-104.27 376.07,-91.24 403.18,-81.48"/>
<polygon fill="#63b8ff" stroke="#63b8ff" points="404.17,-84.84 412.4,-78.16 401.8,-78.25 404.17,-84.84"/>
</a>
</g>
</g>
<!-- Node9 -->
<g id="Node000009" class="node">
<title>Node9</title>
<g id="a_Node000009"><a xlink:title=" ">
<polygon fill="#e0e0e0" stroke="#999999" points="536.62,-77.5 483.88,-77.5 483.88,-56.75 536.62,-56.75 536.62,-77.5"/>
<text text-anchor="middle" x="510.25" y="-64" font-family="Helvetica,sans-Serif" font-size="10.00">string.h</text>
</a>
</g>
</g>
<!-- Node1&#45;&gt;Node9 -->
<g id="edge11_Node000001_Node000009" class="edge">
<title>Node1&#45;&gt;Node9</title>
<g id="a_edge11_Node000001_Node000009"><a xlink:title=" ">
<path fill="none" stroke="#63b8ff" d="M329.91,-113.06C365.48,-104.62 418.28,-91.93 472.63,-78.13"/>
<polygon fill="#63b8ff" stroke="#63b8ff" points="473.22,-81.59 482.05,-75.73 471.49,-74.81 473.22,-81.59"/>
</a>
</g>
</g>
<!-- Node3 -->
<g id="Node000003" class="node">
<title>Node3</title>
<g id="a_Node000003"><a xlink:title=" ">
<polygon fill="#e0e0e0" stroke="#999999" points="114.75,-20.75 59.75,-20.75 59.75,0 114.75,0 114.75,-20.75"/>
<text text-anchor="middle" x="87.25" y="-7.25" font-family="Helvetica,sans-Serif" font-size="10.00">stddef.h</text>
</a>
</g>
</g>
<!-- Node2&#45;&gt;Node3 -->
<g id="edge2_Node000002_Node000003" class="edge">
<title>Node2&#45;&gt;Node3</title>
<g id="a_edge2_Node000002_Node000003"><a xlink:title=" ">
<path fill="none" stroke="#63b8ff" d="M162.8,-56.34C149.07,-48.16 129.23,-36.36 113.33,-26.9"/>
<polygon fill="#63b8ff" stroke="#63b8ff" points="115.24,-23.96 104.86,-21.85 111.66,-29.97 115.24,-23.96"/>
</a>
</g>
</g>
<!-- Node2&#45;&gt;Node4 -->
<g id="edge3_Node000002_Node000004" class="edge">
<title>Node2&#45;&gt;Node4</title>
<g id="a_edge3_Node000002_Node000004"><a xlink:title=" ">
<path fill="none" stroke="#63b8ff" d="M179.25,-56.34C179.25,-49.72 179.25,-40.72 179.25,-32.52"/>
<polygon fill="#63b8ff" stroke="#63b8ff" points="182.75,-32.59 179.25,-22.59 175.75,-32.59 182.75,-32.59"/>
</a>
</g>
</g>
<!-- Node5&#45;&gt;Node3 -->
<g id="edge6_Node000005_Node000003" class="edge">
<title>Node5&#45;&gt;Node3</title>
<g id="a_edge6_Node000005_Node000003"><a xlink:title=" ">
<path fill="none" stroke="#63b8ff" d="M70.83,-56.34C73.33,-49.49 76.76,-40.09 79.84,-31.65"/>
<polygon fill="#63b8ff" stroke="#63b8ff" points="83.04,-33.09 83.19,-22.5 76.47,-30.69 83.04,-33.09"/>
</a>
</g>
</g>
<!-- Node5&#45;&gt;Node4 -->
<g id="edge5_Node000005_Node000004" class="edge">
<title>Node5&#45;&gt;Node4</title>
<g id="a_edge5_Node000005_Node000004"><a xlink:title=" ">
<path fill="none" stroke="#63b8ff" d="M87.27,-56.34C104.47,-47.93 129.53,-35.68 149.15,-26.09"/>
<polygon fill="#63b8ff" stroke="#63b8ff" points="150.59,-29.28 158.04,-21.74 147.52,-22.99 150.59,-29.28"/>
</a>
</g>
</g>
</g>
</svg>
