<?xml version="1.0" encoding="UTF-8" standalone="no"?>
<!DOCTYPE svg PUBLIC "-//W3C//DTD SVG 1.1//EN"
 "http://www.w3.org/Graphics/SVG/1.1/DTD/svg11.dtd">
<!-- Generated by graphviz version 2.43.0 (0)
 -->
<!-- Title: ie_act_i8_params_from_minmax Pages: 1 -->
<svg width="231pt" height="104pt"
 viewBox="0.00 0.00 231.00 104.00" xmlns="http://www.w3.org/2000/svg" xmlns:xlink="http://www.w3.org/1999/xlink">
<g id="graph0" class="graph" transform="scale(1 1) rotate(0) translate(4 100)">
<title>ie_act_i8_params_from_minmax</title>
<!-- Node1 -->
<g id="node1" class="node">
<title>Node1</title>
<g id="a_node1"><a xlink:title="Compute per&#45;tensor INT8 parameters from min/max.">
<polygon fill="#bfbfbf" stroke="black" points="0,-33 0,-63 131,-63 131,-33 0,-33"/>
<text text-anchor="start" x="8" y="-51" font-family="Helvetica,sans-Serif" font-size="10.00">ie_act_i8_params_from</text>
<text text-anchor="middle" x="65.5" y="-40" font-family="Helvetica,sans-Serif" font-size="10.00">_minmax</text>
</a>
</g>
</g>
<!-- Node2 -->
<g id="node2" class="node">
<title>Node2</title>
<g id="a_node2"><a xlink:href="act__int8_8c.html#a06921ebd025375319bac8a4b43888241" target="_top" xlink:title=" ">
<polygon fill="none" stroke="black" points="167,-76.5 167,-95.5 223,-95.5 223,-76.5 167,-76.5"/>
<text text-anchor="middle" x="195" y="-83.5" font-family="Helvetica,sans-Serif" font-size="10.00">ie_fabsf</text>
</a>
</g>
</g>
<!-- Node1&#45;&gt;Node2 -->
<g id="edge1" class="edge">
<title>Node1&#45;&gt;Node2</title>
<path fill="none" stroke="midnightblue" d="M116.89,-63.02C130.29,-67.01 144.52,-71.25 157.05,-74.99"/>
<polygon fill="midnightblue" stroke="midnightblue" points="156.11,-78.36 166.7,-77.86 158.11,-71.65 156.11,-78.36"/>
</g>
<!-- Node3 -->
<g id="node3" class="node">
<title>Node3</title>
<g id="a_node3"><a xlink:href="act__int8_8c.html#ad80154c444341a2ed6f1be5eb0bdb5de" target="_top" xlink:title=" ">
<polygon fill="none" stroke="black" points="167,-38.5 167,-57.5 223,-57.5 223,-38.5 167,-38.5"/>
<text text-anchor="middle" x="195" y="-45.5" font-family="Helvetica,sans-Serif" font-size="10.00">ie_maxf</text>
</a>
</g>
</g>
<!-- Node1&#45;&gt;Node3 -->
<g id="edge2" class="edge">
<title>Node1&#45;&gt;Node3</title>
<path fill="none" stroke="midnightblue" d="M131.37,-48C140.1,-48 148.79,-48 156.81,-48"/>
<polygon fill="midnightblue" stroke="midnightblue" points="156.9,-51.5 166.9,-48 156.9,-44.5 156.9,-51.5"/>
</g>
<!-- Node4 -->
<g id="node4" class="node">
<title>Node4</title>
<g id="a_node4"><a xlink:href="act__int8_8c.html#a7490ce5fac2e6e5e1b7812006550be41" target="_top" xlink:title=" ">
<polygon fill="none" stroke="black" points="171.5,-0.5 171.5,-19.5 218.5,-19.5 218.5,-0.5 171.5,-0.5"/>
<text text-anchor="middle" x="195" y="-7.5" font-family="Helvetica,sans-Serif" font-size="10.00">ie_rne</text>
</a>
</g>
</g>
<!-- Node1&#45;&gt;Node4 -->
<g id="edge3" class="edge">
<title>Node1&#45;&gt;Node4</title>
<path fill="none" stroke="midnightblue" d="M116.89,-32.98C131.87,-28.52 147.87,-23.75 161.4,-19.72"/>
<polygon fill="midnightblue" stroke="midnightblue" points="162.62,-23.01 171.2,-16.8 160.62,-16.3 162.62,-23.01"/>
</g>
</g>
</svg>
