<?xml version="1.0" encoding="UTF-8" standalone="no"?>
<!DOCTYPE svg PUBLIC "-//W3C//DTD SVG 1.1//EN"
 "http://www.w3.org/Graphics/SVG/1.1/DTD/svg11.dtd">
<!-- Generated by graphviz version 2.43.0 (0)
 -->
<!-- Title: engine/include/ie_io.h Pages: 1 -->
<svg width="1022pt" height="95pt"
 viewBox="0.00 0.00 1022.00 95.00" xmlns="http://www.w3.org/2000/svg" xmlns:xlink="http://www.w3.org/1999/xlink">
<g id="graph0" class="graph" transform="scale(1 1) rotate(0) translate(4 91)">
<title>engine/include/ie_io.h</title>
<!-- Node1 -->
<g id="node1" class="node">
<title>Node1</title>
<g id="a_node1"><a xlink:title="Public I/O interfaces: IEBIN v1 loader and lightweight tokenizer.">
<polygon fill="#bfbfbf" stroke="black" points="478.5,-67.5 478.5,-86.5 601.5,-86.5 601.5,-67.5 478.5,-67.5"/>
<text text-anchor="middle" x="540" y="-74.5" font-family="Helvetica,sans-Serif" font-size="10.00">engine/include/ie_io.h</text>
</a>
</g>
</g>
<!-- Node2 -->
<g id="node2" class="node">
<title>Node2</title>
<g id="a_node2"><a xlink:href="ie__tokenizer_8h.html" target="_top" xlink:title="Thin wrapper to avoid duplicate type/decl definitions.">
<polygon fill="none" stroke="black" points="0,-6 0,-25 158,-25 158,-6 0,-6"/>
<text text-anchor="middle" x="79" y="-13" font-family="Helvetica,sans-Serif" font-size="10.00">engine/include/ie_tokenizer.h</text>
</a>
</g>
</g>
<!-- Node1&#45;&gt;Node2 -->
<g id="edge1" class="edge">
<title>Node1&#45;&gt;Node2</title>
<path fill="none" stroke="midnightblue" d="M467.88,-68.23C392.66,-59.92 271.38,-45.89 167,-31 154.43,-29.21 140.88,-27.08 128.28,-25.01"/>
<polygon fill="midnightblue" stroke="midnightblue" points="467.86,-71.75 478.18,-69.37 468.63,-64.8 467.86,-71.75"/>
</g>
<!-- Node3 -->
<g id="node3" class="node">
<title>Node3</title>
<g id="a_node3"><a xlink:href="tokenizer_8c.html" target="_top" xlink:title="Minimal, dependency&#45;free tokenizer used by tests and the CLI harness.">
<polygon fill="none" stroke="black" points="176,-6 176,-25 310,-25 310,-6 176,-6"/>
<text text-anchor="middle" x="243" y="-13" font-family="Helvetica,sans-Serif" font-size="10.00">engine/src/io/tokenizer.c</text>
</a>
</g>
</g>
<!-- Node1&#45;&gt;Node3 -->
<g id="edge2" class="edge">
<title>Node1&#45;&gt;Node3</title>
<path fill="none" stroke="midnightblue" d="M487.46,-65.47C429.9,-53.94 338.7,-35.67 285.47,-25.01"/>
<polygon fill="midnightblue" stroke="midnightblue" points="486.95,-68.94 497.45,-67.48 488.33,-62.08 486.95,-68.94"/>
</g>
<!-- Node4 -->
<g id="node4" class="node">
<title>Node4</title>
<g id="a_node4"><a xlink:href="main__infer_8c.html" target="_top" xlink:title="CLI entry point for the inference engine (benchmark&#45;friendly).">
<polygon fill="none" stroke="black" points="328,-6 328,-25 458,-25 458,-6 328,-6"/>
<text text-anchor="middle" x="393" y="-13" font-family="Helvetica,sans-Serif" font-size="10.00">engine/src/main_infer.c</text>
</a>
</g>
</g>
<!-- Node1&#45;&gt;Node4 -->
<g id="edge3" class="edge">
<title>Node1&#45;&gt;Node4</title>
<path fill="none" stroke="midnightblue" d="M509.44,-63.63C480.88,-52.07 439,-35.12 414.02,-25.01"/>
<polygon fill="midnightblue" stroke="midnightblue" points="508.36,-66.97 518.94,-67.48 510.98,-60.48 508.36,-66.97"/>
</g>
<!-- Node5 -->
<g id="node5" class="node">
<title>Node5</title>
<g id="a_node5"><a xlink:href="weights_8c.html" target="_top" xlink:title="Implementation of the IEBIN v1 loader with relaxed JSON parsing.">
<polygon fill="none" stroke="black" points="476,-6 476,-25 604,-25 604,-6 476,-6"/>
<text text-anchor="middle" x="540" y="-13" font-family="Helvetica,sans-Serif" font-size="10.00">engine/src/io/weights.c</text>
</a>
</g>
</g>
<!-- Node1&#45;&gt;Node5 -->
<g id="edge4" class="edge">
<title>Node1&#45;&gt;Node5</title>
<path fill="none" stroke="midnightblue" d="M540,-57.32C540,-46.5 540,-33.4 540,-25.01"/>
<polygon fill="midnightblue" stroke="midnightblue" points="536.5,-57.48 540,-67.48 543.5,-57.48 536.5,-57.48"/>
</g>
<!-- Node6 -->
<g id="node6" class="node">
<title>Node6</title>
<g id="a_node6"><a xlink:href="test__dedup__loader_8c.html" target="_top" xlink:title="Sanity test for the deduplicated weight&#45;loader path.">
<polygon fill="none" stroke="black" points="622,-0.5 622,-30.5 728,-30.5 728,-0.5 622,-0.5"/>
<text text-anchor="start" x="630" y="-18.5" font-family="Helvetica,sans-Serif" font-size="10.00">tests/c/test_dedup</text>
<text text-anchor="middle" x="675" y="-7.5" font-family="Helvetica,sans-Serif" font-size="10.00">_loader.c</text>
</a>
</g>
</g>
<!-- Node1&#45;&gt;Node6 -->
<g id="edge5" class="edge">
<title>Node1&#45;&gt;Node6</title>
<path fill="none" stroke="midnightblue" d="M568.75,-63.33C590.59,-53.7 620.62,-40.47 643.18,-30.52"/>
<polygon fill="midnightblue" stroke="midnightblue" points="567.08,-60.24 559.34,-67.48 569.9,-66.64 567.08,-60.24"/>
</g>
<!-- Node7 -->
<g id="node7" class="node">
<title>Node7</title>
<g id="a_node7"><a xlink:href="test__tokenizer_8c.html" target="_top" xlink:title="Unit tests for the tokenizer (size query, encode, decode invariants).">
<polygon fill="none" stroke="black" points="746,-6 746,-25 874,-25 874,-6 746,-6"/>
<text text-anchor="middle" x="810" y="-13" font-family="Helvetica,sans-Serif" font-size="10.00">tests/c/test_tokenizer.c</text>
</a>
</g>
</g>
<!-- Node1&#45;&gt;Node7 -->
<g id="edge6" class="edge">
<title>Node1&#45;&gt;Node7</title>
<path fill="none" stroke="midnightblue" d="M588.74,-65.26C641.12,-53.72 723.3,-35.61 771.39,-25.01"/>
<polygon fill="midnightblue" stroke="midnightblue" points="587.7,-61.9 578.68,-67.48 589.2,-68.74 587.7,-61.9"/>
</g>
<!-- Node8 -->
<g id="node8" class="node">
<title>Node8</title>
<g id="a_node8"><a xlink:href="test__weights_8c.html" target="_top" xlink:title="Unit tests for baseline and deduplicated IEBIN loaders.">
<polygon fill="none" stroke="black" points="892,-6 892,-25 1014,-25 1014,-6 892,-6"/>
<text text-anchor="middle" x="953" y="-13" font-family="Helvetica,sans-Serif" font-size="10.00">tests/c/test_weights.c</text>
</a>
</g>
</g>
<!-- Node1&#45;&gt;Node8 -->
<g id="edge7" class="edge">
<title>Node1&#45;&gt;Node8</title>
<path fill="none" stroke="midnightblue" d="M611.52,-68.18C681.06,-60.2 789.59,-46.78 883,-31 893.16,-29.28 904.09,-27.16 914.22,-25.06"/>
<polygon fill="midnightblue" stroke="midnightblue" points="611.08,-64.7 601.54,-69.31 611.88,-71.66 611.08,-64.7"/>
</g>
</g>
</svg>
