<?xml version="1.0" encoding="UTF-8" standalone="no"?>
<!DOCTYPE svg PUBLIC "-//W3C//DTD SVG 1.1//EN"
 "http://www.w3.org/Graphics/SVG/1.1/DTD/svg11.dtd">
<!-- Generated by graphviz version 2.43.0 (0)
 -->
<!-- Title: ie_act_i8_group_params_from_data Pages: 1 -->
<svg width="402pt" height="146pt"
 viewBox="0.00 0.00 402.00 146.00" xmlns="http://www.w3.org/2000/svg" xmlns:xlink="http://www.w3.org/1999/xlink">
<g id="graph0" class="graph" transform="scale(1 1) rotate(0) translate(4 142)">
<title>ie_act_i8_group_params_from_data</title>
<!-- Node1 -->
<g id="node1" class="node">
<title>Node1</title>
<g id="a_node1"><a xlink:title="Compute per&#45;group INT8 parameters from data.">
<polygon fill="#bfbfbf" stroke="black" points="0,-33 0,-63 135,-63 135,-33 0,-33"/>
<text text-anchor="start" x="8" y="-51" font-family="Helvetica,sans-Serif" font-size="10.00">ie_act_i8_group_params</text>
<text text-anchor="middle" x="67.5" y="-40" font-family="Helvetica,sans-Serif" font-size="10.00">_from_data</text>
</a>
</g>
</g>
<!-- Node2 -->
<g id="node2" class="node">
<title>Node2</title>
<g id="a_node2"><a xlink:href="act__int8_8c.html#a383703e828dd5701507b0d1f6ab1cf73" target="_top" xlink:title="Compute per&#45;tensor INT8 parameters from observed min/max.">
<polygon fill="none" stroke="black" points="171,-77 171,-107 302,-107 302,-77 171,-77"/>
<text text-anchor="start" x="179" y="-95" font-family="Helvetica,sans-Serif" font-size="10.00">ie_act_i8_params_from</text>
<text text-anchor="middle" x="236.5" y="-84" font-family="Helvetica,sans-Serif" font-size="10.00">_minmax</text>
</a>
</g>
</g>
<!-- Node1&#45;&gt;Node2 -->
<g id="edge1" class="edge">
<title>Node1&#45;&gt;Node2</title>
<path fill="none" stroke="midnightblue" d="M125.5,-63.02C139.4,-66.68 154.39,-70.63 168.7,-74.4"/>
<polygon fill="midnightblue" stroke="midnightblue" points="167.91,-77.81 178.47,-76.97 169.69,-71.04 167.91,-77.81"/>
</g>
<!-- Node4 -->
<g id="node4" class="node">
<title>Node4</title>
<g id="a_node4"><a xlink:href="act__int8_8c.html#ad80154c444341a2ed6f1be5eb0bdb5de" target="_top" xlink:title=" ">
<polygon fill="none" stroke="black" points="338,-41.5 338,-60.5 394,-60.5 394,-41.5 338,-41.5"/>
<text text-anchor="middle" x="366" y="-48.5" font-family="Helvetica,sans-Serif" font-size="10.00">ie_maxf</text>
</a>
</g>
</g>
<!-- Node1&#45;&gt;Node4 -->
<g id="edge5" class="edge">
<title>Node1&#45;&gt;Node4</title>
<path fill="none" stroke="midnightblue" d="M135.04,-48.67C194.53,-49.28 279.55,-50.14 327.8,-50.62"/>
<polygon fill="midnightblue" stroke="midnightblue" points="327.77,-54.12 337.8,-50.72 327.84,-47.12 327.77,-54.12"/>
</g>
<!-- Node6 -->
<g id="node6" class="node">
<title>Node6</title>
<g id="a_node6"><a xlink:href="act__int8_8c.html#ab1c0766c72ff5b328ace7f8354021ff8" target="_top" xlink:title=" ">
<polygon fill="none" stroke="black" points="210,-0.5 210,-19.5 263,-19.5 263,-0.5 210,-0.5"/>
<text text-anchor="middle" x="236.5" y="-7.5" font-family="Helvetica,sans-Serif" font-size="10.00">ie_minf</text>
</a>
</g>
</g>
<!-- Node1&#45;&gt;Node6 -->
<g id="edge6" class="edge">
<title>Node1&#45;&gt;Node6</title>
<path fill="none" stroke="midnightblue" d="M134.5,-32.98C156.91,-27.88 181.09,-22.38 200.16,-18.04"/>
<polygon fill="midnightblue" stroke="midnightblue" points="200.94,-21.45 209.91,-15.82 199.39,-14.63 200.94,-21.45"/>
</g>
<!-- Node3 -->
<g id="node3" class="node">
<title>Node3</title>
<g id="a_node3"><a xlink:href="act__int8_8c.html#a06921ebd025375319bac8a4b43888241" target="_top" xlink:title=" ">
<polygon fill="none" stroke="black" points="338,-118.5 338,-137.5 394,-137.5 394,-118.5 338,-118.5"/>
<text text-anchor="middle" x="366" y="-125.5" font-family="Helvetica,sans-Serif" font-size="10.00">ie_fabsf</text>
</a>
</g>
</g>
<!-- Node2&#45;&gt;Node3 -->
<g id="edge2" class="edge">
<title>Node2&#45;&gt;Node3</title>
<path fill="none" stroke="midnightblue" d="M290.83,-107.06C303.39,-110.61 316.51,-114.31 328.16,-117.6"/>
<polygon fill="midnightblue" stroke="midnightblue" points="327.39,-121.02 337.97,-120.37 329.29,-114.28 327.39,-121.02"/>
</g>
<!-- Node2&#45;&gt;Node4 -->
<g id="edge3" class="edge">
<title>Node2&#45;&gt;Node4</title>
<path fill="none" stroke="midnightblue" d="M284.25,-76.97C298.78,-72.29 314.58,-67.22 328.31,-62.8"/>
<polygon fill="midnightblue" stroke="midnightblue" points="329.46,-66.11 337.9,-59.71 327.31,-59.44 329.46,-66.11"/>
</g>
<!-- Node5 -->
<g id="node5" class="node">
<title>Node5</title>
<g id="a_node5"><a xlink:href="act__int8_8c.html#a7490ce5fac2e6e5e1b7812006550be41" target="_top" xlink:title=" ">
<polygon fill="none" stroke="black" points="342.5,-80.5 342.5,-99.5 389.5,-99.5 389.5,-80.5 342.5,-80.5"/>
<text text-anchor="middle" x="366" y="-87.5" font-family="Helvetica,sans-Serif" font-size="10.00">ie_rne</text>
</a>
</g>
</g>
<!-- Node2&#45;&gt;Node5 -->
<g id="edge4" class="edge">
<title>Node2&#45;&gt;Node5</title>
<path fill="none" stroke="midnightblue" d="M302.37,-90.98C312.72,-90.82 323.02,-90.66 332.2,-90.51"/>
<polygon fill="midnightblue" stroke="midnightblue" points="332.45,-94.01 342.39,-90.35 332.34,-87.01 332.45,-94.01"/>
</g>
</g>
</svg>
