<?xml version="1.0" encoding="UTF-8" standalone="no"?>
<!DOCTYPE svg PUBLIC "-//W3C//DTD SVG 1.1//EN"
 "http://www.w3.org/Graphics/SVG/1.1/DTD/svg11.dtd">
<!-- Generated by graphviz version 12.2.1 (20241206.2353)
 -->
<!-- Title: ie_batcher_destroy Pages: 1 -->
<svg width="352pt" height="132pt"
 viewBox="0.00 0.00 352.25 131.50" xmlns="http://www.w3.org/2000/svg" xmlns:xlink="http://www.w3.org/1999/xlink">
<g id="graph0" class="graph" transform="scale(1 1) rotate(0) translate(4 127.5)">
<title>ie_batcher_destroy</title>
<!-- Node1 -->
<g id="Node000001" class="node">
<title>Node1</title>
<g id="a_Node000001"><a xlink:title="Destroy a batcher, joining workers and freeing all resources.">
<polygon fill="#999999" stroke="#666666" points="344.25,-72.12 235.25,-72.12 235.25,-51.38 344.25,-51.38 344.25,-72.12"/>
<text text-anchor="middle" x="289.75" y="-58.62" font-family="Helvetica,sans-Serif" font-size="10.00">ie_batcher_destroy</text>
</a>
</g>
</g>
<!-- Node2 -->
<g id="Node000002" class="node">
<title>Node2</title>
<g id="a_Node000002"><a xlink:href="test__batcher_8c.html#a840a5fb06d03045c6f4e645ed682b7ad" target="_top" xlink:title="Validate basic prefetch, ordering, microbatch slicing and draining.">
<polygon fill="white" stroke="#666666" points="193.62,-123.5 82.38,-123.5 82.38,-90 193.62,-90 193.62,-123.5"/>
<text text-anchor="start" x="90.38" y="-110" font-family="Helvetica,sans-Serif" font-size="10.00">test_basic_prefetch</text>
<text text-anchor="middle" x="138" y="-97.25" font-family="Helvetica,sans-Serif" font-size="10.00">_and_order</text>
</a>
</g>
</g>
<!-- Node1&#45;&gt;Node2 -->
<g id="edge1_Node000001_Node000002" class="edge">
<title>Node1&#45;&gt;Node2</title>
<g id="a_edge1_Node000001_Node000002"><a xlink:title=" ">
<path fill="none" stroke="#63b8ff" d="M242.12,-75.76C226.84,-80.35 209.72,-85.5 193.89,-90.26"/>
<polygon fill="#63b8ff" stroke="#63b8ff" points="242.86,-79.19 251.43,-72.96 240.85,-72.49 242.86,-79.19"/>
</a>
</g>
</g>
<!-- Node4 -->
<g id="Node000004" class="node">
<title>Node4</title>
<g id="a_Node000004"><a xlink:href="test__batcher_8c.html#acebcf748df4676af1488302913dcc33e" target="_top" xlink:title="Validate graceful teardown: destroy after partial consumption.">
<polygon fill="white" stroke="#666666" points="199.25,-72.12 76.75,-72.12 76.75,-51.38 199.25,-51.38 199.25,-72.12"/>
<text text-anchor="middle" x="138" y="-58.62" font-family="Helvetica,sans-Serif" font-size="10.00">test_partial_teardown</text>
</a>
</g>
</g>
<!-- Node1&#45;&gt;Node4 -->
<g id="edge3_Node000001_Node000004" class="edge">
<title>Node1&#45;&gt;Node4</title>
<g id="a_edge3_Node000001_Node000004"><a xlink:title=" ">
<path fill="none" stroke="#63b8ff" d="M223.6,-61.75C215.64,-61.75 207.53,-61.75 199.65,-61.75"/>
<polygon fill="#63b8ff" stroke="#63b8ff" points="223.6,-65.25 233.6,-61.75 223.6,-58.25 223.6,-65.25"/>
</a>
</g>
</g>
<!-- Node5 -->
<g id="Node000005" class="node">
<title>Node5</title>
<g id="a_Node000005"><a xlink:href="test__batcher_8c.html#ae1015c7a7a149612ed323d43e7c93a0c" target="_top" xlink:title="Validate ring wrap behavior (tail truncation) and view sizes.">
<polygon fill="white" stroke="#666666" points="195.88,-33.5 80.12,-33.5 80.12,0 195.88,0 195.88,-33.5"/>
<text text-anchor="start" x="88.12" y="-20" font-family="Helvetica,sans-Serif" font-size="10.00">test_wrap_and_view</text>
<text text-anchor="middle" x="138" y="-7.25" font-family="Helvetica,sans-Serif" font-size="10.00">_limits</text>
</a>
</g>
</g>
<!-- Node1&#45;&gt;Node5 -->
<g id="edge5_Node000001_Node000005" class="edge">
<title>Node1&#45;&gt;Node5</title>
<g id="a_edge5_Node000001_Node000005"><a xlink:title=" ">
<path fill="none" stroke="#63b8ff" d="M242.13,-47.74C227.59,-43.37 211.39,-38.5 196.21,-33.94"/>
<polygon fill="#63b8ff" stroke="#63b8ff" points="240.85,-51.01 251.43,-50.54 242.86,-44.31 240.85,-51.01"/>
</a>
</g>
</g>
<!-- Node3 -->
<g id="Node000003" class="node">
<title>Node3</title>
<g id="a_Node000003"><a xlink:href="test__batcher_8c.html#a840291bc02cba5474a4cb46a9b9566fe" target="_top" xlink:title=" ">
<polygon fill="white" stroke="#666666" points="40.75,-72.12 0,-72.12 0,-51.38 40.75,-51.38 40.75,-72.12"/>
<text text-anchor="middle" x="20.38" y="-58.62" font-family="Helvetica,sans-Serif" font-size="10.00">main</text>
</a>
</g>
</g>
<!-- Node2&#45;&gt;Node3 -->
<g id="edge2_Node000002_Node000003" class="edge">
<title>Node2&#45;&gt;Node3</title>
<g id="a_edge2_Node000002_Node000003"><a xlink:title=" ">
<path fill="none" stroke="#63b8ff" d="M82.33,-85.47C67.59,-79.74 52.58,-73.89 41.14,-69.44"/>
<polygon fill="#63b8ff" stroke="#63b8ff" points="80.96,-88.69 91.55,-89.06 83.5,-82.17 80.96,-88.69"/>
</a>
</g>
</g>
<!-- Node4&#45;&gt;Node3 -->
<g id="edge4_Node000004_Node000003" class="edge">
<title>Node4&#45;&gt;Node3</title>
<g id="a_edge4_Node000004_Node000003"><a xlink:title=" ">
<path fill="none" stroke="#63b8ff" d="M65.2,-61.75C56.44,-61.75 48.14,-61.75 41.16,-61.75"/>
<polygon fill="#63b8ff" stroke="#63b8ff" points="64.96,-65.25 74.96,-61.75 64.96,-58.25 64.96,-65.25"/>
</a>
</g>
</g>
<!-- Node5&#45;&gt;Node3 -->
<g id="edge6_Node000005_Node000003" class="edge">
<title>Node5&#45;&gt;Node3</title>
<g id="a_edge6_Node000005_Node000003"><a xlink:title=" ">
<path fill="none" stroke="#63b8ff" d="M82.33,-38.03C67.59,-43.76 52.58,-49.61 41.14,-54.06"/>
<polygon fill="#63b8ff" stroke="#63b8ff" points="83.5,-41.33 91.55,-34.44 80.96,-34.81 83.5,-41.33"/>
</a>
</g>
</g>
</g>
</svg>
