<?xml version="1.0" encoding="UTF-8" standalone="no"?>
<!DOCTYPE svg PUBLIC "-//W3C//DTD SVG 1.1//EN"
 "http://www.w3.org/Graphics/SVG/1.1/DTD/svg11.dtd">
<!-- Generated by graphviz version 2.43.0 (0)
 -->
<!-- Title: ie_cuda_clear_last_error Pages: 1 -->
<!--zoomable 435 -->

<svg id="main" version="1.1" xmlns="http://www.w3.org/2000/svg" xmlns:xlink="http://www.w3.org/1999/xlink" xml:space="preserve" onload="init(evt)">
<style type="text/css"><![CDATA[
.node, .edge {opacity: 0.7;}
.node.selected, .edge.selected {opacity: 1;}
.edge:hover path { stroke: red; }
.edge:hover polygon { stroke: red; fill: red; }
]]></style>

<defs>
  <circle id="rim" cx="0" cy="0" r="7"/>
  <circle id="rim2" cx="0" cy="0" r="3.5"/>
  <g id="zoomPlus">
    <use xlink:href="#rim" fill="#404040"><set attributeName="fill" to="#808080" begin="zoomplus.mouseover" end="zoomplus.mouseout"/></use>
    <path d="M-4,0h8M0,-4v8" fill="none" stroke="white" stroke-width="1.5" pointer-events="none"/>
  </g>
  <g id="zoomMin">
    <use xlink:href="#rim" fill="#404040"><set attributeName="fill" to="#808080" begin="zoomminus.mouseover" end="zoomminus.mouseout"/></use>
    <path d="M-4,0h8" fill="none" stroke="white" stroke-width="1.5" pointer-events="none"/>
  </g>
  <g id="arrowUp" transform="translate(30 24)">
    <use xlink:href="#rim"/>
    <path pointer-events="none" fill="none" stroke="white" stroke-width="1.5" d="M0,-3.0v7 M-2.5,-0.5L0,-3.0L2.5,-0.5"/>
  </g>
  <g id="arrowRight" transform="rotate(90) translate(36 -43)">
    <use xlink:href="#rim"/>
    <path pointer-events="none" fill="none" stroke="white" stroke-width="1.5" d="M0,-3.0v7 M-2.5,-0.5L0,-3.0L2.5,-0.5"/>
  </g>
  <g id="arrowDown" transform="rotate(180) translate(-30 -48)">
    <use xlink:href="#rim"/>
    <path pointer-events="none" fill="none" stroke="white" stroke-width="1.5" d="M0,-3.0v7 M-2.5,-0.5L0,-3.0L2.5,-0.5"/>
  </g>
  <g id="arrowLeft" transform="rotate(270) translate(-36 17)">
    <use xlink:href="#rim"/>
    <path pointer-events="none" fill="none" stroke="white" stroke-width="1.5" d="M0,-3.0v7 M-2.5,-0.5L0,-3.0L2.5,-0.5"/>
  </g>
  <g id="resetDef">
    <use xlink:href="#rim2" fill="#404040"><set attributeName="fill" to="#808080" begin="reset.mouseover" end="reset.mouseout"/></use>
  </g>
</defs>
<script type="application/ecmascript">
var viewWidth = 1123;
var viewHeight = 435;
var sectionId = 'dynsection-1';
</script>
<script type="application/ecmascript" xlink:href="svg.min.js"/>
<svg id="graph" class="graph">
<g id="viewport">
<title>ie_cuda_clear_last_error</title>
<!-- Node1 -->
<g id="Node000001" class="node">
<title>Node1</title>
<g id="a_Node000001"><a xlink:title="Clear the last error string (C ABI).">
<polygon fill="#999999" stroke="#666666" points="1115,-243.5 1008,-243.5 1008,-213.5 1115,-213.5 1115,-243.5"/>
<text text-anchor="start" x="1016" y="-231.5" font-family="Helvetica,sans-Serif" font-size="10.00">ie_cuda_clear_last</text>
<text text-anchor="middle" x="1061.5" y="-220.5" font-family="Helvetica,sans-Serif" font-size="10.00">_error</text>
</a>
</g>
</g>
<!-- Node2 -->
<g id="Node000002" class="node">
<title>Node2</title>
<g id="a_Node000002"><a xlink:href="ie__device__cuda__stub_8c.html#a7aa3c245312a87827c310085cffdf6b5" target="_top" xlink:title="Free device memory allocated by ie_cuda_malloc().">
<polygon fill="white" stroke="#666666" points="928.5,-427 849.5,-427 849.5,-408 928.5,-408 928.5,-427"/>
<text text-anchor="middle" x="889" y="-415" font-family="Helvetica,sans-Serif" font-size="10.00">ie_cuda_free</text>
</a>
</g>
</g>
<!-- Node1&#45;&gt;Node2 -->
<g id="edge1_Node000001_Node000002" class="edge">
<title>Node1&#45;&gt;Node2</title>
<g id="a_edge1_Node000001_Node000002"><a xlink:title=" ">
<path fill="none" stroke="#63b8ff" d="M1054.69,-253.8C1044.64,-291.63 1020.27,-362.45 972,-399.5 959.74,-408.91 943.58,-413.61 928.84,-415.89"/>
<polygon fill="#63b8ff" stroke="#63b8ff" points="1058.21,-254.18 1057.26,-243.62 1051.42,-252.46 1058.21,-254.18"/>
</a>
</g>
</g>
<!-- Node11 -->
<g id="Node000011" class="node">
<title>Node11</title>
<g id="a_Node000011"><a xlink:href="ie__device__cuda_8cu.html#aca120e7a1c8d8c71e0c9c55ff55b5a2e" target="_top" xlink:title="Launch a GEMV FP32 kernel: y = W*x + bias (bias optional).">
<polygon fill="white" stroke="#666666" points="761.5,-352 653.5,-352 653.5,-333 761.5,-333 761.5,-352"/>
<text text-anchor="middle" x="707.5" y="-340" font-family="Helvetica,sans-Serif" font-size="10.00">ie_cuda_gemv_f32</text>
</a>
</g>
</g>
<!-- Node1&#45;&gt;Node11 -->
<g id="edge12_Node000001_Node000011" class="edge">
<title>Node1&#45;&gt;Node11</title>
<g id="a_edge12_Node000001_Node000011"><a xlink:title=" ">
<path fill="none" stroke="#63b8ff" d="M1041.35,-251.59C1024.93,-269.7 999.62,-293.86 972,-306.5 904.09,-337.57 816.8,-343.75 761.73,-344.09"/>
<polygon fill="#63b8ff" stroke="#63b8ff" points="1044.26,-253.59 1048.24,-243.77 1039.01,-248.96 1044.26,-253.59"/>
</a>
</g>
</g>
<!-- Node12 -->
<g id="Node000012" class="node">
<title>Node12</title>
<g id="a_Node000012"><a xlink:href="ie__device__cuda_8cu.html#ab13dfa272ae7d081b8310b86c139ecf9" target="_top" xlink:title="Initialize CUDA for a given device ordinal and return basic identity strings.">
<polygon fill="white" stroke="#666666" points="583,-276 508,-276 508,-257 583,-257 583,-276"/>
<text text-anchor="middle" x="545.5" y="-264" font-family="Helvetica,sans-Serif" font-size="10.00">ie_cuda_init</text>
</a>
</g>
</g>
<!-- Node1&#45;&gt;Node12 -->
<g id="edge14_Node000001_Node000012" class="edge">
<title>Node1&#45;&gt;Node12</title>
<g id="a_edge14_Node000001_Node000012"><a xlink:title=" ">
<path fill="none" stroke="#63b8ff" d="M997.73,-240.05C989.11,-241.37 980.35,-242.57 972,-243.5 828.63,-259.47 656.79,-264.46 583.04,-265.93"/>
<polygon fill="#63b8ff" stroke="#63b8ff" points="998.43,-243.48 1007.76,-238.45 997.33,-236.57 998.43,-243.48"/>
</a>
</g>
</g>
<!-- Node13 -->
<g id="Node000013" class="node">
<title>Node13</title>
<g id="a_Node000013"><a xlink:href="ie__device__cuda__stub_8c.html#aa7d18bba67349415d8d7cf8c92ed5e77" target="_top" xlink:title="Returns non&#45;zero if at least one CUDA device is available.">
<polygon fill="white" stroke="#666666" points="604.5,-239 486.5,-239 486.5,-220 604.5,-220 604.5,-239"/>
<text text-anchor="middle" x="545.5" y="-227" font-family="Helvetica,sans-Serif" font-size="10.00">ie_cuda_is_available</text>
</a>
</g>
</g>
<!-- Node1&#45;&gt;Node13 -->
<g id="edge16_Node000001_Node000013" class="edge">
<title>Node1&#45;&gt;Node13</title>
<g id="a_edge16_Node000001_Node000013"><a xlink:title=" ">
<path fill="none" stroke="#63b8ff" d="M997.62,-228.62C897.27,-228.82 702.34,-229.2 604.9,-229.39"/>
<polygon fill="#63b8ff" stroke="#63b8ff" points="997.92,-232.12 1007.91,-228.6 997.9,-225.12 997.92,-232.12"/>
</a>
</g>
</g>
<!-- Node14 -->
<g id="Node000014" class="node">
<title>Node14</title>
<g id="a_Node000014"><a xlink:href="ie__kernels__cuda_8cu.html#aa81633d5c77b901773ef6fc77880bcf7" target="_top" xlink:title="Launch row&#45;wise GEMV for FP32 weights.">
<polygon fill="white" stroke="#666666" points="951.5,-200.5 826.5,-200.5 826.5,-170.5 951.5,-170.5 951.5,-200.5"/>
<text text-anchor="start" x="834.5" y="-188.5" font-family="Helvetica,sans-Serif" font-size="10.00">ie_cuda_launch_gemv</text>
<text text-anchor="middle" x="889" y="-177.5" font-family="Helvetica,sans-Serif" font-size="10.00">_rowwise_f32</text>
</a>
</g>
</g>
<!-- Node1&#45;&gt;Node14 -->
<g id="edge18_Node000001_Node000014" class="edge">
<title>Node1&#45;&gt;Node14</title>
<g id="a_edge18_Node000001_Node000014"><a xlink:title=" ">
<path fill="none" stroke="#63b8ff" d="M998.23,-212.79C982.33,-208.78 965.28,-204.48 949.52,-200.51"/>
<polygon fill="#63b8ff" stroke="#63b8ff" points="997.4,-216.2 1007.95,-215.25 999.11,-209.41 997.4,-216.2"/>
</a>
</g>
</g>
<!-- Node15 -->
<g id="Node000015" class="node">
<title>Node15</title>
<g id="a_Node000015"><a xlink:href="ie__kernels__cuda_8cu.html#aa9ffedaa4a5a25d803c1ad4bd31ddc2e" target="_top" xlink:title="Launch row&#45;wise GEMV for INT4 packed weights and INT8 input.">
<polygon fill="white" stroke="#666666" points="951.5,-152.5 826.5,-152.5 826.5,-122.5 951.5,-122.5 951.5,-152.5"/>
<text text-anchor="start" x="834.5" y="-140.5" font-family="Helvetica,sans-Serif" font-size="10.00">ie_cuda_launch_gemv</text>
<text text-anchor="middle" x="889" y="-129.5" font-family="Helvetica,sans-Serif" font-size="10.00">_rowwise_int4</text>
</a>
</g>
</g>
<!-- Node1&#45;&gt;Node15 -->
<g id="edge19_Node000001_Node000015" class="edge">
<title>Node1&#45;&gt;Node15</title>
<g id="a_edge19_Node000001_Node000015"><a xlink:title=" ">
<path fill="none" stroke="#63b8ff" d="M1036.7,-206.65C1019.74,-192.09 995.82,-173.49 972,-161.5 965.38,-158.17 958.21,-155.22 950.97,-152.63"/>
<polygon fill="#63b8ff" stroke="#63b8ff" points="1034.6,-209.47 1044.43,-213.43 1039.22,-204.21 1034.6,-209.47"/>
</a>
</g>
</g>
<!-- Node16 -->
<g id="Node000016" class="node">
<title>Node16</title>
<g id="a_Node000016"><a xlink:href="ie__kernels__cuda_8cu.html#af6109e70ea961268b02e355f2d83f072" target="_top" xlink:title="Launch row&#45;wise GEMV for INT8 weights and INT8 input.">
<polygon fill="white" stroke="#666666" points="951.5,-104.5 826.5,-104.5 826.5,-74.5 951.5,-74.5 951.5,-104.5"/>
<text text-anchor="start" x="834.5" y="-92.5" font-family="Helvetica,sans-Serif" font-size="10.00">ie_cuda_launch_gemv</text>
<text text-anchor="middle" x="889" y="-81.5" font-family="Helvetica,sans-Serif" font-size="10.00">_rowwise_int8</text>
</a>
</g>
</g>
<!-- Node1&#45;&gt;Node16 -->
<g id="edge20_Node000001_Node000016" class="edge">
<title>Node1&#45;&gt;Node16</title>
<g id="a_edge20_Node000001_Node000016"><a xlink:title=" ">
<path fill="none" stroke="#63b8ff" d="M1048.08,-204.44C1033.37,-178.28 1006.45,-137.06 972,-113.5 965.76,-109.23 958.74,-105.71 951.52,-102.81"/>
<polygon fill="#63b8ff" stroke="#63b8ff" points="1045.08,-206.24 1052.94,-213.34 1051.22,-202.89 1045.08,-206.24"/>
</a>
</g>
</g>
<!-- Node17 -->
<g id="Node000017" class="node">
<title>Node17</title>
<g id="a_Node000017"><a xlink:href="ie__device__cuda_8cu.html#a5e37ce0218789795b250e4dfec782e6d" target="_top" xlink:title="Allocate device memory.">
<polygon fill="white" stroke="#666666" points="935,-390 843,-390 843,-371 935,-371 935,-390"/>
<text text-anchor="middle" x="889" y="-378" font-family="Helvetica,sans-Serif" font-size="10.00">ie_cuda_malloc</text>
</a>
</g>
</g>
<!-- Node1&#45;&gt;Node17 -->
<g id="edge21_Node000001_Node000017" class="edge">
<title>Node1&#45;&gt;Node17</title>
<g id="a_edge21_Node000001_Node000017"><a xlink:title=" ">
<path fill="none" stroke="#63b8ff" d="M1049.85,-253.05C1036.03,-282.01 1009.23,-329.62 972,-356.5 961.18,-364.31 947.83,-369.6 935.07,-373.17"/>
<polygon fill="#63b8ff" stroke="#63b8ff" points="1053.17,-254.19 1054.18,-243.65 1046.82,-251.26 1053.17,-254.19"/>
</a>
</g>
</g>
<!-- Node18 -->
<g id="Node000018" class="node">
<title>Node18</title>
<g id="a_Node000018"><a xlink:href="ie__device__cuda_8cu.html#a13ade60bbdaef0afaf4b53fd42c1e38c" target="_top" xlink:title="Copy memory using CUDA.">
<polygon fill="white" stroke="#666666" points="758.5,-314 656.5,-314 656.5,-295 758.5,-295 758.5,-314"/>
<text text-anchor="middle" x="707.5" y="-302" font-family="Helvetica,sans-Serif" font-size="10.00">ie_cuda_memcpy</text>
</a>
</g>
</g>
<!-- Node1&#45;&gt;Node18 -->
<g id="edge23_Node000001_Node000018" class="edge">
<title>Node1&#45;&gt;Node18</title>
<g id="a_edge23_Node000001_Node000018"><a xlink:title=" ">
<path fill="none" stroke="#63b8ff" d="M1031.97,-249.64C1015.34,-260.81 993.47,-273.6 972,-280.5 900.5,-303.49 812.85,-306.9 758.84,-306.37"/>
<polygon fill="#63b8ff" stroke="#63b8ff" points="1034.4,-252.22 1040.63,-243.66 1030.42,-246.46 1034.4,-252.22"/>
</a>
</g>
</g>
<!-- Node20 -->
<g id="Node000020" class="node">
<title>Node20</title>
<g id="a_Node000020"><a xlink:href="ie__kernels__cuda_8cu.html#aa8805ca1fbbd61df4a3a4621d1816b04" target="_top" xlink:title="Launch FP32 weight packing into blocked&#45;K layout.">
<polygon fill="white" stroke="#666666" points="972,-56 806,-56 806,-37 972,-37 972,-56"/>
<text text-anchor="middle" x="889" y="-44" font-family="Helvetica,sans-Serif" font-size="10.00">ie_cuda_pack_w_blockedk_f32</text>
</a>
</g>
</g>
<!-- Node1&#45;&gt;Node20 -->
<g id="edge27_Node000001_Node000020" class="edge">
<title>Node1&#45;&gt;Node20</title>
<g id="a_edge27_Node000001_Node000020"><a xlink:title=" ">
<path fill="none" stroke="#63b8ff" d="M1053.96,-203.34C1043.2,-167.08 1018.18,-100.64 972,-65.5 967,-61.69 961.37,-58.63 955.45,-56.17"/>
<polygon fill="#63b8ff" stroke="#63b8ff" points="1050.65,-204.47 1056.74,-213.14 1057.38,-202.56 1050.65,-204.47"/>
</a>
</g>
</g>
<!-- Node21 -->
<g id="Node000021" class="node">
<title>Node21</title>
<g id="a_Node000021"><a xlink:href="ie__kernels__cuda_8cu.html#a53ac757ab5d6105fc442b0fa183df7e0" target="_top" xlink:title="Touch a given number of bytes per token on the GPU to ensure real CUDA activity.">
<polygon fill="white" stroke="#666666" points="948.5,-19 829.5,-19 829.5,0 948.5,0 948.5,-19"/>
<text text-anchor="middle" x="889" y="-7" font-family="Helvetica,sans-Serif" font-size="10.00">ie_cuda_touch_bytes</text>
</a>
</g>
</g>
<!-- Node1&#45;&gt;Node21 -->
<g id="edge28_Node000001_Node000021" class="edge">
<title>Node1&#45;&gt;Node21</title>
<g id="a_edge28_Node000001_Node000021"><a xlink:title=" ">
<path fill="none" stroke="#63b8ff" d="M1056.89,-203.46C1049.31,-160.51 1027.62,-73.04 972,-27.5 965.23,-21.96 957.13,-18.03 948.7,-15.25"/>
<polygon fill="#63b8ff" stroke="#63b8ff" points="1053.44,-204.07 1058.52,-213.37 1060.35,-202.93 1053.44,-204.07"/>
</a>
</g>
</g>
<!-- Node3 -->
<g id="Node000003" class="node">
<title>Node3</title>
<g id="a_Node000003"><a xlink:href="ie__device__common_8c.html#a7ecb9f771aea0ef0d125bbe31b53c87a" target="_top" xlink:title="Destroy CUDA backend instance and free device buffers.">
<polygon fill="white" stroke="#666666" points="765,-427 650,-427 650,-408 765,-408 765,-427"/>
<text text-anchor="middle" x="707.5" y="-415" font-family="Helvetica,sans-Serif" font-size="10.00">cuda_destroy_thunk</text>
</a>
</g>
</g>
<!-- Node2&#45;&gt;Node3 -->
<g id="edge2_Node000002_Node000003" class="edge">
<title>Node2&#45;&gt;Node3</title>
<g id="a_edge2_Node000002_Node000003"><a xlink:title=" ">
<path fill="none" stroke="#63b8ff" d="M839.3,-417.5C816.36,-417.5 788.86,-417.5 765.01,-417.5"/>
<polygon fill="#63b8ff" stroke="#63b8ff" points="839.49,-421 849.49,-417.5 839.49,-414 839.49,-421"/>
</a>
</g>
</g>
<!-- Node9 -->
<g id="Node000009" class="node">
<title>Node9</title>
<g id="a_Node000009"><a xlink:href="ie__device__common_8c.html#a56608584d5096e56c6de8baeb07edb11" target="_top" xlink:title="Ensure a device buffer has at least nbytes capacity.">
<polygon fill="white" stroke="#666666" points="770,-390 645,-390 645,-371 770,-371 770,-390"/>
<text text-anchor="middle" x="707.5" y="-378" font-family="Helvetica,sans-Serif" font-size="10.00">cuda_ensure_capacity</text>
</a>
</g>
</g>
<!-- Node2&#45;&gt;Node9 -->
<g id="edge9_Node000002_Node000009" class="edge">
<title>Node2&#45;&gt;Node9</title>
<g id="a_edge9_Node000002_Node000009"><a xlink:title=" ">
<path fill="none" stroke="#63b8ff" d="M839.38,-407.48C813.1,-402.06 780.83,-395.41 754.91,-390.07"/>
<polygon fill="#63b8ff" stroke="#63b8ff" points="838.99,-410.97 849.49,-409.56 840.41,-404.12 838.99,-410.97"/>
</a>
</g>
</g>
<!-- Node4 -->
<g id="Node000004" class="node">
<title>Node4</title>
<g id="a_Node000004"><a xlink:href="ie__device__common_8c.html#ae4ac15a3b8fea25568b8cdeb2cd781fe" target="_top" xlink:title="Initialize CUDA backend.">
<polygon fill="white" stroke="#666666" points="446,-314 351,-314 351,-295 446,-295 446,-314"/>
<text text-anchor="middle" x="398.5" y="-302" font-family="Helvetica,sans-Serif" font-size="10.00">cuda_try_create</text>
</a>
</g>
</g>
<!-- Node3&#45;&gt;Node4 -->
<g id="edge3_Node000003_Node000004" class="edge">
<title>Node3&#45;&gt;Node4</title>
<g id="a_edge3_Node000003_Node000004"><a xlink:title=" ">
<path fill="none" stroke="#63b8ff" d="M639.7,-406.85C593.95,-398.05 532.63,-383.26 482,-360.5 454.37,-348.08 425.96,-326.47 410.75,-314.04"/>
<polygon fill="#63b8ff" stroke="#63b8ff" points="639.32,-410.34 649.8,-408.74 640.61,-403.46 639.32,-410.34"/>
</a>
</g>
</g>
<!-- Node5 -->
<g id="Node000005" class="node">
<title>Node5</title>
<g id="a_Node000005"><a xlink:href="ie__device__common_8c.html#a3e42fcc4b9579a9bf14520cb1afe733b" target="_top" xlink:title="Create a device handle for the requested kind (with fallback).">
<polygon fill="white" stroke="#666666" points="315,-314 216,-314 216,-295 315,-295 315,-314"/>
<text text-anchor="middle" x="265.5" y="-302" font-family="Helvetica,sans-Serif" font-size="10.00">ie_device_create</text>
</a>
</g>
</g>
<!-- Node4&#45;&gt;Node5 -->
<g id="edge4_Node000004_Node000005" class="edge">
<title>Node4&#45;&gt;Node5</title>
<g id="a_edge4_Node000004_Node000005"><a xlink:title=" ">
<path fill="none" stroke="#63b8ff" d="M340.69,-304.5C332.17,-304.5 323.45,-304.5 315.12,-304.5"/>
<polygon fill="#63b8ff" stroke="#63b8ff" points="340.95,-308 350.95,-304.5 340.95,-301 340.95,-308"/>
</a>
</g>
</g>
<!-- Node6 -->
<g id="Node000006" class="node">
<title>Node6</title>
<g id="a_Node000006"><a xlink:href="test__device_8c.html#a7b62f3db43117555c60ec59d19c7c8d6" target="_top" xlink:title="Verify CPU device exposes GEMV capability.">
<polygon fill="white" stroke="#666666" points="171.5,-333 85.5,-333 85.5,-314 171.5,-314 171.5,-333"/>
<text text-anchor="middle" x="128.5" y="-321" font-family="Helvetica,sans-Serif" font-size="10.00">test_cpu_caps</text>
</a>
</g>
</g>
<!-- Node5&#45;&gt;Node6 -->
<g id="edge5_Node000005_Node000006" class="edge">
<title>Node5&#45;&gt;Node6</title>
<g id="a_edge5_Node000005_Node000006"><a xlink:title=" ">
<path fill="none" stroke="#63b8ff" d="M205.85,-312.75C194.44,-314.36 182.68,-316.02 171.91,-317.53"/>
<polygon fill="#63b8ff" stroke="#63b8ff" points="206.35,-316.22 215.76,-311.36 205.37,-309.29 206.35,-316.22"/>
</a>
</g>
</g>
<!-- Node8 -->
<g id="Node000008" class="node">
<title>Node8</title>
<g id="a_Node000008"><a xlink:href="test__device_8c.html#a548e6227513ac3fd772219dad3b0de22" target="_top" xlink:title="Ensure GPU request gracefully falls back to a working GEMV.">
<polygon fill="white" stroke="#666666" points="180,-296 77,-296 77,-277 180,-277 180,-296"/>
<text text-anchor="middle" x="128.5" y="-284" font-family="Helvetica,sans-Serif" font-size="10.00">test_gpu_fallback</text>
</a>
</g>
</g>
<!-- Node5&#45;&gt;Node8 -->
<g id="edge7_Node000005_Node000008" class="edge">
<title>Node5&#45;&gt;Node8</title>
<g id="a_edge7_Node000005_Node000008"><a xlink:title=" ">
<path fill="none" stroke="#63b8ff" d="M205.65,-296.65C197.25,-295.53 188.67,-294.39 180.44,-293.29"/>
<polygon fill="#63b8ff" stroke="#63b8ff" points="205.39,-300.15 215.76,-298 206.31,-293.21 205.39,-300.15"/>
</a>
</g>
</g>
<!-- Node7 -->
<g id="Node000007" class="node">
<title>Node7</title>
<g id="a_Node000007"><a xlink:href="test__device_8c.html#a840291bc02cba5474a4cb46a9b9566fe" target="_top" xlink:title="Test entry point.">
<polygon fill="white" stroke="#666666" points="41,-314 0,-314 0,-295 41,-295 41,-314"/>
<text text-anchor="middle" x="20.5" y="-302" font-family="Helvetica,sans-Serif" font-size="10.00">main</text>
</a>
</g>
</g>
<!-- Node6&#45;&gt;Node7 -->
<g id="edge6_Node000006_Node000007" class="edge">
<title>Node6&#45;&gt;Node7</title>
<g id="a_edge6_Node000006_Node000007"><a xlink:title=" ">
<path fill="none" stroke="#63b8ff" d="M75.18,-314.12C63.04,-311.95 50.86,-309.76 41.18,-308.03"/>
<polygon fill="#63b8ff" stroke="#63b8ff" points="74.84,-317.62 85.3,-315.94 76.08,-310.73 74.84,-317.62"/>
</a>
</g>
</g>
<!-- Node8&#45;&gt;Node7 -->
<g id="edge8_Node000008_Node000007" class="edge">
<title>Node8&#45;&gt;Node7</title>
<g id="a_edge8_Node000008_Node000007"><a xlink:title=" ">
<path fill="none" stroke="#63b8ff" d="M67.1,-296.76C57.67,-298.36 48.57,-299.9 41,-301.19"/>
<polygon fill="#63b8ff" stroke="#63b8ff" points="67.71,-300.2 76.98,-295.08 66.54,-293.3 67.71,-300.2"/>
</a>
</g>
</g>
<!-- Node10 -->
<g id="Node000010" class="node">
<title>Node10</title>
<g id="a_Node000010"><a xlink:href="ie__device__common_8c.html#a10d98754f37925ce0fd653a011fc9d47" target="_top" xlink:title="CUDA GEMV FP32 implementation.">
<polygon fill="white" stroke="#666666" points="609,-351 482,-351 482,-332 609,-332 609,-351"/>
<text text-anchor="middle" x="545.5" y="-339" font-family="Helvetica,sans-Serif" font-size="10.00">cuda_gemv_f32_thunk</text>
</a>
</g>
</g>
<!-- Node9&#45;&gt;Node10 -->
<g id="edge10_Node000009_Node000010" class="edge">
<title>Node9&#45;&gt;Node10</title>
<g id="a_edge10_Node000009_Node000010"><a xlink:title=" ">
<path fill="none" stroke="#63b8ff" d="M657.41,-368.53C634.32,-362.91 607.17,-356.29 585.51,-351.01"/>
<polygon fill="#63b8ff" stroke="#63b8ff" points="656.82,-371.99 667.36,-370.96 658.47,-365.19 656.82,-371.99"/>
</a>
</g>
</g>
<!-- Node10&#45;&gt;Node4 -->
<g id="edge11_Node000010_Node000004" class="edge">
<title>Node10&#45;&gt;Node4</title>
<g id="a_edge11_Node000010_Node000004"><a xlink:title=" ">
<path fill="none" stroke="#63b8ff" d="M497.23,-329.44C477.69,-324.45 455.35,-318.75 436.97,-314.06"/>
<polygon fill="#63b8ff" stroke="#63b8ff" points="496.6,-332.89 507.16,-331.97 498.33,-326.11 496.6,-332.89"/>
</a>
</g>
</g>
<!-- Node11&#45;&gt;Node10 -->
<g id="edge13_Node000011_Node000010" class="edge">
<title>Node11&#45;&gt;Node10</title>
<g id="a_edge13_Node000011_Node000010"><a xlink:title=" ">
<path fill="none" stroke="#63b8ff" d="M643.14,-342.1C631.99,-342.03 620.38,-341.96 609.25,-341.89"/>
<polygon fill="#63b8ff" stroke="#63b8ff" points="643.2,-345.6 653.22,-342.17 643.24,-338.6 643.2,-345.6"/>
</a>
</g>
</g>
<!-- Node12&#45;&gt;Node4 -->
<g id="edge15_Node000012_Node000004" class="edge">
<title>Node12&#45;&gt;Node4</title>
<g id="a_edge15_Node000012_Node000004"><a xlink:title=" ">
<path fill="none" stroke="#63b8ff" d="M498.01,-278.68C477.88,-283.96 454.66,-290.04 435.83,-294.98"/>
<polygon fill="#63b8ff" stroke="#63b8ff" points="499.12,-282.01 507.91,-276.09 497.35,-275.24 499.12,-282.01"/>
</a>
</g>
</g>
<!-- Node13&#45;&gt;Node4 -->
<g id="edge17_Node000013_Node000004" class="edge">
<title>Node13&#45;&gt;Node4</title>
<g id="a_edge17_Node000013_Node000004"><a xlink:title=" ">
<path fill="none" stroke="#63b8ff" d="M494.59,-242.27C490.26,-243.86 486.01,-245.6 482,-247.5 454.47,-260.55 426.03,-282.39 410.78,-294.91"/>
<polygon fill="#63b8ff" stroke="#63b8ff" points="495.77,-245.57 504.11,-239.05 493.52,-238.94 495.77,-245.57"/>
</a>
</g>
</g>
<!-- Node17&#45;&gt;Node9 -->
<g id="edge22_Node000017_Node000009" class="edge">
<title>Node17&#45;&gt;Node9</title>
<g id="a_edge22_Node000017_Node000009"><a xlink:title=" ">
<path fill="none" stroke="#63b8ff" d="M832.61,-380.5C812.8,-380.5 790.35,-380.5 770.05,-380.5"/>
<polygon fill="#63b8ff" stroke="#63b8ff" points="832.7,-384 842.7,-380.5 832.7,-377 832.7,-384"/>
</a>
</g>
</g>
<!-- Node18&#45;&gt;Node10 -->
<g id="edge24_Node000018_Node000010" class="edge">
<title>Node18&#45;&gt;Node10</title>
<g id="a_edge24_Node000018_Node000010"><a xlink:title=" ">
<path fill="none" stroke="#63b8ff" d="M655.52,-316.29C633.68,-321.34 608.5,-327.16 587.84,-331.94"/>
<polygon fill="#63b8ff" stroke="#63b8ff" points="656.34,-319.69 665.3,-314.03 654.76,-312.87 656.34,-319.69"/>
</a>
</g>
</g>
<!-- Node19 -->
<g id="Node000019" class="node">
<title>Node19</title>
<g id="a_Node000019"><a xlink:href="ie__device__common_8c.html#a3e7e82d7cc2da1e044d74015a6ac37cd" target="_top" xlink:title="CUDA memcpy implementation using the CUDA wrapper.">
<polygon fill="white" stroke="#666666" points="606,-314 485,-314 485,-295 606,-295 606,-314"/>
<text text-anchor="middle" x="545.5" y="-302" font-family="Helvetica,sans-Serif" font-size="10.00">cuda_memcpy_thunk</text>
</a>
</g>
</g>
<!-- Node18&#45;&gt;Node19 -->
<g id="edge25_Node000018_Node000019" class="edge">
<title>Node18&#45;&gt;Node19</title>
<g id="a_edge25_Node000018_Node000019"><a xlink:title=" ">
<path fill="none" stroke="#63b8ff" d="M646.01,-304.5C632.92,-304.5 619.09,-304.5 606.04,-304.5"/>
<polygon fill="#63b8ff" stroke="#63b8ff" points="646.31,-308 656.31,-304.5 646.31,-301 646.31,-308"/>
</a>
</g>
</g>
<!-- Node19&#45;&gt;Node4 -->
<g id="edge26_Node000019_Node000004" class="edge">
<title>Node19&#45;&gt;Node4</title>
<g id="a_edge26_Node000019_Node000004"><a xlink:title=" ">
<path fill="none" stroke="#63b8ff" d="M474.41,-304.5C464.88,-304.5 455.31,-304.5 446.33,-304.5"/>
<polygon fill="#63b8ff" stroke="#63b8ff" points="474.69,-308 484.69,-304.5 474.69,-301 474.69,-308"/>
</a>
</g>
</g>
</g>
</svg>

<g id="navigator" transform="translate(0 0)" fill="#404254">
  <rect fill="#f2f5e9" fill-opacity="0.5" stroke="#606060" stroke-width=".5" x="0" y="0" width="60" height="60"/>
  <use id="zoomplus" xlink:href="#zoomPlus" x="17" y="9" onmousedown="handleZoom(evt,'in')"/>
  <use id="zoomminus" xlink:href="#zoomMin" x="42" y="9" onmousedown="handleZoom(evt,'out')"/>
  <use id="reset" xlink:href="#resetDef" x="30" y="36" onmousedown="handleReset()"/>
   <use id="arrowup" xlink:href="#arrowUp" x="0" y="0" onmousedown="handlePan(0,-1)"/>
  <use id="arrowright" xlink:href="#arrowRight" x="0" y="0" onmousedown="handlePan(1,0)"/>
  <use id="arrowdown" xlink:href="#arrowDown" x="0" y="0" onmousedown="handlePan(0,1)"/>
  <use id="arrowleft" xlink:href="#arrowLeft" x="0" y="0" onmousedown="handlePan(-1,0)"/>
</g>
<svg viewBox="0 0 15 15" width="100%" height="30px" preserveAspectRatio="xMaxYMin meet">
 <g id="arrow_out" transform="scale(0.3 0.3)">
  <a xlink:href="ie__device__cuda_8cu_a4ed091f3252b0eddeb76bd1d8fc63168_icgraph_org.svg" target="_base">
   <rect id="button" ry="5" rx="5" y="6" x="6" height="38" width="38"
        fill="#f2f5e9" fill-opacity="0.5" stroke="#606060" stroke-width="1.0"/>
   <path id="arrow"
     d="M 11.500037,31.436501 C 11.940474,20.09759 22.043105,11.32322 32.158766,21.979434 L 37.068811,17.246167 C 37.068811,17.246167 37.088388,32 37.088388,32 L 22.160133,31.978069 C 22.160133,31.978069 26.997745,27.140456 26.997745,27.140456 C 18.528582,18.264221 13.291696,25.230495 11.500037,31.436501 z"
     style="fill:#404040;"/>
  </a>
 </g>
</svg>

<style type='text/css'>
<![CDATA[
[data-mouse-over-selected='false'] { opacity: 0.7; }
[data-mouse-over-selected='true']  { opacity: 1.0; }
]]>
</style>
<script type="application/ecmascript"><![CDATA[
document.addEventListener('DOMContentLoaded', (event) => {
  highlightEdges();
  highlightAdjacentNodes();
});
]]></script>
</svg>
