<?xml version="1.0" encoding="UTF-8" standalone="no"?>
<!DOCTYPE svg PUBLIC "-//W3C//DTD SVG 1.1//EN"
 "http://www.w3.org/Graphics/SVG/1.1/DTD/svg11.dtd">
<!-- Generated by graphviz version 12.2.1 (20241206.2353)
 -->
<!-- Title: engine/include/ie_kv_cache.h Pages: 1 -->
<svg width="152pt" height="155pt"
 viewBox="0.00 0.00 151.88 155.00" xmlns="http://www.w3.org/2000/svg" xmlns:xlink="http://www.w3.org/1999/xlink">

<svg id="main" version="1.1" xmlns="http://www.w3.org/2000/svg" xmlns:xlink="http://www.w3.org/1999/xlink" xml:space="preserve">

<style type="text/css"><![CDATA[
.node, .edge {opacity: 0.7;}
.node.selected, .edge.selected {opacity: 1;}
.edge:hover path { stroke: red; }
.edge:hover polygon { stroke: red; fill: red; }
]]></style>
<script type="application/ecmascript" xlink:href="svg.min.js"/>
<svg id="graph" class="graph">
<g id="graph0" class="graph" transform="scale(1 1) rotate(0) translate(4 151)">
<title>engine/include/ie_kv_cache.h</title>
<!-- Node1 -->
<g id="Node000001" class="node">
<title>Node1</title>
<g id="a_Node000001"><a xlink:title="Key/Value attention cache with INT8/FP8 compression and float round&#45;trip.">
<polygon fill="#999999" stroke="#666666" points="121.75,-147 5.25,-147 5.25,-113.5 121.75,-113.5 121.75,-147"/>
<text text-anchor="start" x="13.25" y="-133.5" font-family="Helvetica,sans-Serif" font-size="10.00">engine/include/ie_kv</text>
<text text-anchor="middle" x="63.5" y="-120.75" font-family="Helvetica,sans-Serif" font-size="10.00">_cache.h</text>
</a>
</g>
</g>
<!-- Node2 -->
<g id="Node000002" class="node">
<title>Node2</title>
<g id="a_Node000002"><a xlink:title=" ">
<polygon fill="#e0e0e0" stroke="#999999" points="55,-20.75 0,-20.75 0,0 55,0 55,-20.75"/>
<text text-anchor="middle" x="27.5" y="-7.25" font-family="Helvetica,sans-Serif" font-size="10.00">stddef.h</text>
</a>
</g>
</g>
<!-- Node1&#45;&gt;Node2 -->
<g id="edge1_Node000001_Node000002" class="edge">
<title>Node1&#45;&gt;Node2</title>
<g id="a_edge1_Node000001_Node000002"><a xlink:title=" ">
<path fill="none" stroke="#63b8ff" d="M39.87,-113.22C28.71,-104.19 16.54,-91.84 10.5,-77.5 4.17,-62.48 9.55,-44.52 15.88,-31.11"/>
<polygon fill="#63b8ff" stroke="#63b8ff" points="18.89,-32.89 20.48,-22.42 12.71,-29.62 18.89,-32.89"/>
</a>
</g>
</g>
<!-- Node3 -->
<g id="Node000003" class="node">
<title>Node3</title>
<g id="a_Node000003"><a xlink:title=" ">
<polygon fill="#e0e0e0" stroke="#999999" points="143.88,-20.75 91.12,-20.75 91.12,0 143.88,0 143.88,-20.75"/>
<text text-anchor="middle" x="117.5" y="-7.25" font-family="Helvetica,sans-Serif" font-size="10.00">stdint.h</text>
</a>
</g>
</g>
<!-- Node1&#45;&gt;Node3 -->
<g id="edge2_Node000001_Node000003" class="edge">
<title>Node1&#45;&gt;Node3</title>
<g id="a_edge2_Node000001_Node000003"><a xlink:title=" ">
<path fill="none" stroke="#63b8ff" d="M87.04,-113.18C98.17,-104.14 110.35,-91.79 116.5,-77.5 122.62,-63.27 122.57,-45.68 121.15,-32.22"/>
<polygon fill="#63b8ff" stroke="#63b8ff" points="124.61,-31.73 119.74,-22.32 117.68,-32.71 124.61,-31.73"/>
</a>
</g>
</g>
<!-- Node4 -->
<g id="Node000004" class="node">
<title>Node4</title>
<g id="a_Node000004"><a xlink:href="ie__quant__act_8h.html" target="_top" xlink:title="Activation quantization utilities (INT8 and FP8) for runtime paths.">
<polygon fill="white" stroke="#666666" points="107.12,-77.5 19.88,-77.5 19.88,-56.75 107.12,-56.75 107.12,-77.5"/>
<text text-anchor="middle" x="63.5" y="-64" font-family="Helvetica,sans-Serif" font-size="10.00">ie_quant_act.h</text>
</a>
</g>
</g>
<!-- Node1&#45;&gt;Node4 -->
<g id="edge3_Node000001_Node000004" class="edge">
<title>Node1&#45;&gt;Node4</title>
<g id="a_edge3_Node000001_Node000004"><a xlink:title=" ">
<path fill="none" stroke="#63b8ff" d="M63.5,-113.19C63.5,-105.85 63.5,-97.07 63.5,-89.21"/>
<polygon fill="#63b8ff" stroke="#63b8ff" points="67,-89.48 63.5,-79.48 60,-89.48 67,-89.48"/>
</a>
</g>
</g>
<!-- Node4&#45;&gt;Node2 -->
<g id="edge4_Node000004_Node000002" class="edge">
<title>Node4&#45;&gt;Node2</title>
<g id="a_edge4_Node000004_Node000002"><a xlink:title=" ">
<path fill="none" stroke="#63b8ff" d="M57.06,-56.34C52.35,-49.17 45.81,-39.23 40.08,-30.51"/>
<polygon fill="#63b8ff" stroke="#63b8ff" points="43.13,-28.78 34.71,-22.34 37.28,-32.62 43.13,-28.78"/>
</a>
</g>
</g>
<!-- Node4&#45;&gt;Node3 -->
<g id="edge5_Node000004_Node000003" class="edge">
<title>Node4&#45;&gt;Node3</title>
<g id="a_edge5_Node000004_Node000003"><a xlink:title=" ">
<path fill="none" stroke="#63b8ff" d="M73.15,-56.34C80.6,-48.78 91.11,-38.14 100.02,-29.1"/>
<polygon fill="#63b8ff" stroke="#63b8ff" points="102.34,-31.73 106.87,-22.16 97.35,-26.82 102.34,-31.73"/>
</a>
</g>
</g>
</g>
</svg>
</svg>

<style type='text/css'>
<![CDATA[
[data-mouse-over-selected='false'] { opacity: 0.7; }
[data-mouse-over-selected='true']  { opacity: 1.0; }
]]>
</style>
<script type="application/ecmascript"><![CDATA[
document.addEventListener('DOMContentLoaded', (event) => {
  highlightEdges();
  highlightAdjacentNodes();
});
]]></script>
</svg>
