<?xml version="1.0" encoding="UTF-8" standalone="no"?>
<!DOCTYPE svg PUBLIC "-//W3C//DTD SVG 1.1//EN"
 "http://www.w3.org/Graphics/SVG/1.1/DTD/svg11.dtd">
<!-- Generated by graphviz version 2.43.0 (0)
 -->
<!-- Title: cuda_gemv_q4_0_f32_thunk Pages: 1 -->
<svg width="655pt" height="138pt"
 viewBox="0.00 0.00 655.00 138.00" xmlns="http://www.w3.org/2000/svg" xmlns:xlink="http://www.w3.org/1999/xlink">
<g id="graph0" class="graph" transform="scale(1 1) rotate(0) translate(4 134)">
<title>cuda_gemv_q4_0_f32_thunk</title>
<!-- Node1 -->
<g id="Node000001" class="node">
<title>Node1</title>
<g id="a_Node000001"><a xlink:title="CUDA GEMV Q4_0 implementation.">
<polygon fill="#999999" stroke="#666666" points="122,-62.5 0,-62.5 0,-32.5 122,-32.5 122,-62.5"/>
<text text-anchor="start" x="8" y="-50.5" font-family="Helvetica,sans-Serif" font-size="10.00">cuda_gemv_q4_0_f32</text>
<text text-anchor="middle" x="61" y="-39.5" font-family="Helvetica,sans-Serif" font-size="10.00">_thunk</text>
</a>
</g>
</g>
<!-- Node2 -->
<g id="Node000002" class="node">
<title>Node2</title>
<g id="a_Node000002"><a xlink:href="ie__device__common_8c.html#a56608584d5096e56c6de8baeb07edb11" target="_top" xlink:title="Ensure a device buffer has at least nbytes capacity.">
<polygon fill="white" stroke="#666666" points="283,-95 158,-95 158,-76 283,-76 283,-95"/>
<text text-anchor="middle" x="220.5" y="-83" font-family="Helvetica,sans-Serif" font-size="10.00">cuda_ensure_capacity</text>
</a>
</g>
</g>
<!-- Node1&#45;&gt;Node2 -->
<g id="edge1_Node000001_Node000002" class="edge">
<title>Node1&#45;&gt;Node2</title>
<g id="a_edge1_Node000001_Node000002"><a xlink:title=" ">
<path fill="none" stroke="#63b8ff" d="M122.44,-62.08C138.09,-65.86 154.76,-69.88 169.79,-73.51"/>
<polygon fill="#63b8ff" stroke="#63b8ff" points="169.35,-77 179.9,-75.94 171,-70.2 169.35,-77"/>
</a>
</g>
</g>
<!-- Node7 -->
<g id="Node000007" class="node">
<title>Node7</title>
<g id="a_Node000007"><a xlink:href="ie__device__cuda__stub_8c.html#a5352cd0342ec8b242f5683c117bb8973" target="_top" xlink:title="Launch a GEMV Q4_0 kernel: y = dequant(Wq4) * x (+ optional BF16 bias).">
<polygon fill="white" stroke="#666666" points="456,-56 319,-56 319,-37 456,-37 456,-56"/>
<text text-anchor="middle" x="387.5" y="-44" font-family="Helvetica,sans-Serif" font-size="10.00">ie_cuda_gemv_q4_0_f32</text>
</a>
</g>
</g>
<!-- Node1&#45;&gt;Node7 -->
<g id="edge8_Node000001_Node000007" class="edge">
<title>Node1&#45;&gt;Node7</title>
<g id="a_edge8_Node000001_Node000007"><a xlink:title=" ">
<path fill="none" stroke="#63b8ff" d="M122.28,-47.31C174.93,-47.15 251.67,-46.92 308.89,-46.74"/>
<polygon fill="#63b8ff" stroke="#63b8ff" points="308.99,-50.24 318.98,-46.71 308.97,-43.24 308.99,-50.24"/>
</a>
</g>
</g>
<!-- Node8 -->
<g id="Node000008" class="node">
<title>Node8</title>
<g id="a_Node000008"><a xlink:href="ie__device__cuda__stub_8c.html#a13ade60bbdaef0afaf4b53fd42c1e38c" target="_top" xlink:title="Copy memory using CUDA.">
<polygon fill="white" stroke="#666666" points="438.5,-19 336.5,-19 336.5,0 438.5,0 438.5,-19"/>
<text text-anchor="middle" x="387.5" y="-7" font-family="Helvetica,sans-Serif" font-size="10.00">ie_cuda_memcpy</text>
</a>
</g>
</g>
<!-- Node1&#45;&gt;Node8 -->
<g id="edge11_Node000001_Node000008" class="edge">
<title>Node1&#45;&gt;Node8</title>
<g id="a_edge11_Node000001_Node000008"><a xlink:title=" ">
<path fill="none" stroke="#63b8ff" d="M122.28,-40.44C180.46,-33.63 268.06,-23.37 326.24,-16.56"/>
<polygon fill="#63b8ff" stroke="#63b8ff" points="326.86,-20.01 336.39,-15.37 326.05,-13.06 326.86,-20.01"/>
</a>
</g>
</g>
<!-- Node3 -->
<g id="Node000003" class="node">
<title>Node3</title>
<g id="a_Node000003"><a xlink:href="ie__device__cuda__stub_8c.html#a3cd69e11d8225356f06f8a1f4d9b3191" target="_top" xlink:title="Free device memory allocated by ie_cuda_malloc().">
<polygon fill="white" stroke="#666666" points="427,-130 348,-130 348,-111 427,-111 427,-130"/>
<text text-anchor="middle" x="387.5" y="-118" font-family="Helvetica,sans-Serif" font-size="10.00">ie_cuda_free</text>
</a>
</g>
</g>
<!-- Node2&#45;&gt;Node3 -->
<g id="edge2_Node000002_Node000003" class="edge">
<title>Node2&#45;&gt;Node3</title>
<g id="a_edge2_Node000002_Node000003"><a xlink:title=" ">
<path fill="none" stroke="#63b8ff" d="M266.59,-95.06C288.68,-99.75 315.31,-105.4 337.86,-110.18"/>
<polygon fill="#63b8ff" stroke="#63b8ff" points="337.4,-113.66 347.91,-112.31 338.85,-106.81 337.4,-113.66"/>
</a>
</g>
</g>
<!-- Node6 -->
<g id="Node000006" class="node">
<title>Node6</title>
<g id="a_Node000006"><a xlink:href="ie__device__cuda__stub_8c.html#a5e37ce0218789795b250e4dfec782e6d" target="_top" xlink:title="Allocate device memory.">
<polygon fill="white" stroke="#666666" points="433.5,-93 341.5,-93 341.5,-74 433.5,-74 433.5,-93"/>
<text text-anchor="middle" x="387.5" y="-81" font-family="Helvetica,sans-Serif" font-size="10.00">ie_cuda_malloc</text>
</a>
</g>
</g>
<!-- Node2&#45;&gt;Node6 -->
<g id="edge5_Node000002_Node000006" class="edge">
<title>Node2&#45;&gt;Node6</title>
<g id="a_edge5_Node000002_Node000006"><a xlink:title=" ">
<path fill="none" stroke="#63b8ff" d="M283.41,-84.75C299.01,-84.56 315.66,-84.36 330.93,-84.17"/>
<polygon fill="#63b8ff" stroke="#63b8ff" points="331.3,-87.67 341.25,-84.05 331.21,-80.67 331.3,-87.67"/>
</a>
</g>
</g>
<!-- Node4 -->
<g id="Node000004" class="node">
<title>Node4</title>
<g id="a_Node000004"><a xlink:href="ie__device__cuda_8cu.html#a4ed091f3252b0eddeb76bd1d8fc63168" target="_top" xlink:title="Clear the last error string (C ABI).">
<polygon fill="white" stroke="#666666" points="623,-101.5 516,-101.5 516,-71.5 623,-71.5 623,-101.5"/>
<text text-anchor="start" x="524" y="-89.5" font-family="Helvetica,sans-Serif" font-size="10.00">ie_cuda_clear_last</text>
<text text-anchor="middle" x="569.5" y="-78.5" font-family="Helvetica,sans-Serif" font-size="10.00">_error</text>
</a>
</g>
</g>
<!-- Node3&#45;&gt;Node4 -->
<g id="edge3_Node000003_Node000004" class="edge">
<title>Node3&#45;&gt;Node4</title>
<g id="a_edge3_Node000003_Node000004"><a xlink:title=" ">
<path fill="none" stroke="#63b8ff" d="M427.11,-113.21C450.11,-108.86 479.83,-103.25 506.08,-98.29"/>
<polygon fill="#63b8ff" stroke="#63b8ff" points="506.77,-101.72 515.95,-96.43 505.47,-94.84 506.77,-101.72"/>
</a>
</g>
</g>
<!-- Node5 -->
<g id="Node000005" class="node">
<title>Node5</title>
<g id="a_Node000005"><a xlink:href="ie__device__cuda_8cu.html#a0391d9bf2a39582d39265da97820553f" target="_top" xlink:title="Store the last error message into the global static buffer.">
<polygon fill="white" stroke="#666666" points="647,-53 492,-53 492,-34 647,-34 647,-53"/>
<text text-anchor="middle" x="569.5" y="-41" font-family="Helvetica,sans-Serif" font-size="10.00">ie_cuda_set_last_error_cuda</text>
</a>
</g>
</g>
<!-- Node3&#45;&gt;Node5 -->
<g id="edge4_Node000003_Node000005" class="edge">
<title>Node3&#45;&gt;Node5</title>
<g id="a_edge4_Node000003_Node000005"><a xlink:title=" ">
<path fill="none" stroke="#63b8ff" d="M427.2,-114.25C437.06,-111.59 447.31,-107.82 456,-102.5 476.4,-90.01 471.49,-74.81 492,-62.5 495.63,-60.32 499.5,-58.39 503.5,-56.68"/>
<polygon fill="#63b8ff" stroke="#63b8ff" points="504.9,-59.89 513.01,-53.08 502.42,-53.35 504.9,-59.89"/>
</a>
</g>
</g>
<!-- Node6&#45;&gt;Node4 -->
<g id="edge6_Node000006_Node000004" class="edge">
<title>Node6&#45;&gt;Node4</title>
<g id="a_edge6_Node000006_Node000004"><a xlink:title=" ">
<path fill="none" stroke="#63b8ff" d="M433.92,-84.26C455.6,-84.62 481.91,-85.06 505.48,-85.45"/>
<polygon fill="#63b8ff" stroke="#63b8ff" points="505.69,-88.95 515.75,-85.62 505.81,-81.95 505.69,-88.95"/>
</a>
</g>
</g>
<!-- Node6&#45;&gt;Node5 -->
<g id="edge7_Node000006_Node000005" class="edge">
<title>Node6&#45;&gt;Node5</title>
<g id="a_edge7_Node000006_Node000005"><a xlink:title=" ">
<path fill="none" stroke="#63b8ff" d="M431.61,-73.92C456.88,-68.3 489,-61.17 515.76,-55.22"/>
<polygon fill="#63b8ff" stroke="#63b8ff" points="516.73,-58.59 525.74,-53 515.22,-51.76 516.73,-58.59"/>
</a>
</g>
</g>
<!-- Node7&#45;&gt;Node4 -->
<g id="edge9_Node000007_Node000004" class="edge">
<title>Node7&#45;&gt;Node4</title>
<g id="a_edge9_Node000007_Node000004"><a xlink:title=" ">
<path fill="none" stroke="#63b8ff" d="M431.61,-56.08C453.83,-61.02 481.33,-67.13 505.84,-72.58"/>
<polygon fill="#63b8ff" stroke="#63b8ff" points="505.26,-76.03 515.78,-74.78 506.77,-69.2 505.26,-76.03"/>
</a>
</g>
</g>
<!-- Node7&#45;&gt;Node5 -->
<g id="edge10_Node000007_Node000005" class="edge">
<title>Node7&#45;&gt;Node5</title>
<g id="a_edge10_Node000007_Node000005"><a xlink:title=" ">
<path fill="none" stroke="#63b8ff" d="M456.04,-45.37C464.43,-45.23 473.09,-45.09 481.72,-44.95"/>
<polygon fill="#63b8ff" stroke="#63b8ff" points="481.87,-48.44 491.81,-44.78 481.76,-41.45 481.87,-48.44"/>
</a>
</g>
</g>
<!-- Node8&#45;&gt;Node4 -->
<g id="edge12_Node000008_Node000004" class="edge">
<title>Node8&#45;&gt;Node4</title>
<g id="a_edge12_Node000008_Node000004"><a xlink:title=" ">
<path fill="none" stroke="#63b8ff" d="M436.55,-19.04C443.31,-21.31 449.99,-24.09 456,-27.5 475.41,-38.51 472.83,-51.07 492,-62.5 496.44,-65.15 501.21,-67.54 506.11,-69.68"/>
<polygon fill="#63b8ff" stroke="#63b8ff" points="505.07,-73.03 515.65,-73.51 507.68,-66.54 505.07,-73.03"/>
</a>
</g>
</g>
<!-- Node8&#45;&gt;Node5 -->
<g id="edge13_Node000008_Node000005" class="edge">
<title>Node8&#45;&gt;Node5</title>
<g id="a_edge13_Node000008_Node000005"><a xlink:title=" ">
<path fill="none" stroke="#63b8ff" d="M438.64,-18.97C460.11,-23.03 485.37,-27.8 507.88,-32.05"/>
<polygon fill="#63b8ff" stroke="#63b8ff" points="507.53,-35.55 518,-33.96 508.83,-28.67 507.53,-35.55"/>
</a>
</g>
</g>
</g>
</svg>
