<?xml version="1.0" encoding="UTF-8" standalone="no"?>
<!DOCTYPE svg PUBLIC "-//W3C//DTD SVG 1.1//EN"
 "http://www.w3.org/Graphics/SVG/1.1/DTD/svg11.dtd">
<!-- Generated by graphviz version 2.43.0 (0)
 -->
<!-- Title: dalloc Pages: 1 -->
<svg width="269pt" height="166pt"
 viewBox="0.00 0.00 269.00 165.50" xmlns="http://www.w3.org/2000/svg" xmlns:xlink="http://www.w3.org/1999/xlink">
<g id="graph0" class="graph" transform="scale(1 1) rotate(0) translate(4 161.5)">
<title>dalloc</title>
<!-- Node1 -->
<g id="node1" class="node">
<title>Node1</title>
<g id="a_node1"><a xlink:title="Allocate device memory.">
<polygon fill="#bfbfbf" stroke="black" points="215,-66.5 215,-85.5 261,-85.5 261,-66.5 215,-66.5"/>
<text text-anchor="middle" x="238" y="-73.5" font-family="Helvetica,sans-Serif" font-size="10.00">dalloc</text>
</a>
</g>
</g>
<!-- Node2 -->
<g id="node2" class="node">
<title>Node2</title>
<g id="a_node2"><a xlink:href="group__IE__GPU__ZE.html#ga8b3a60d6c8ace36a7e0de49ef03666d4" target="_top" xlink:title="Fused GEMV + bias + activation: y = act(alpha*W*x + bias + beta*y).">
<polygon fill="none" stroke="black" points="20.5,-127 20.5,-157 158.5,-157 158.5,-127 20.5,-127"/>
<text text-anchor="start" x="28.5" y="-145" font-family="Helvetica,sans-Serif" font-size="10.00">ie_ze_launch_gemv_bias</text>
<text text-anchor="middle" x="89.5" y="-134" font-family="Helvetica,sans-Serif" font-size="10.00">_act_f32</text>
</a>
</g>
</g>
<!-- Node1&#45;&gt;Node2 -->
<g id="edge1" class="edge">
<title>Node1&#45;&gt;Node2</title>
<path fill="none" stroke="midnightblue" d="M217.82,-92.07C206.99,-100.48 192.87,-110.38 179,-117 171.08,-120.78 162.47,-124.09 153.84,-126.96"/>
<polygon fill="midnightblue" stroke="midnightblue" points="220.12,-94.72 225.74,-85.74 215.74,-89.25 220.12,-94.72"/>
</g>
<!-- Node3 -->
<g id="node3" class="node">
<title>Node3</title>
<g id="a_node3"><a xlink:href="group__IE__GPU__ZE.html#ga71484badcdb4416b3ac57397416f7d11" target="_top" xlink:title="Row&#45;wise GEMV FP32: y = alpha * W * x + beta * y.">
<polygon fill="none" stroke="black" points="0,-88.5 0,-107.5 179,-107.5 179,-88.5 0,-88.5"/>
<text text-anchor="middle" x="89.5" y="-95.5" font-family="Helvetica,sans-Serif" font-size="10.00">ie_ze_launch_gemv_rowwise_f32</text>
</a>
</g>
</g>
<!-- Node1&#45;&gt;Node3 -->
<g id="edge2" class="edge">
<title>Node1&#45;&gt;Node3</title>
<path fill="none" stroke="midnightblue" d="M204.53,-80.88C189.6,-83.12 171.36,-85.86 153.89,-88.48"/>
<polygon fill="midnightblue" stroke="midnightblue" points="205.38,-84.29 214.75,-79.34 204.34,-77.37 205.38,-84.29"/>
</g>
<!-- Node4 -->
<g id="node4" class="node">
<title>Node4</title>
<g id="a_node4"><a xlink:href="group__IE__GPU__ZE.html#ga01b63c6c0def048b6eb55bc2b1f2b4c4" target="_top" xlink:title="Pack W (row&#45;major) into Blocked&#45;K layout into Wp.">
<polygon fill="none" stroke="black" points="28.5,-39 28.5,-69 150.5,-69 150.5,-39 28.5,-39"/>
<text text-anchor="start" x="36.5" y="-57" font-family="Helvetica,sans-Serif" font-size="10.00">ie_ze_launch_pack_w</text>
<text text-anchor="middle" x="89.5" y="-46" font-family="Helvetica,sans-Serif" font-size="10.00">_blockedk_f32</text>
</a>
</g>
</g>
<!-- Node1&#45;&gt;Node4 -->
<g id="edge3" class="edge">
<title>Node1&#45;&gt;Node4</title>
<path fill="none" stroke="midnightblue" d="M204.45,-71.11C188.62,-68.74 169.09,-65.8 150.69,-63.04"/>
<polygon fill="midnightblue" stroke="midnightblue" points="204.34,-74.63 214.75,-72.66 205.38,-67.71 204.34,-74.63"/>
</g>
<!-- Node5 -->
<g id="node5" class="node">
<title>Node5</title>
<g id="a_node5"><a xlink:href="group__IE__GPU__ZE.html#ga8cc805ce0f117c564d8ba8ed1df08669" target="_top" xlink:title="Vector tanh: y[i] = tanh(x[i]) for i in [0, n).">
<polygon fill="none" stroke="black" points="14.5,-0.5 14.5,-19.5 164.5,-19.5 164.5,-0.5 14.5,-0.5"/>
<text text-anchor="middle" x="89.5" y="-7.5" font-family="Helvetica,sans-Serif" font-size="10.00">ie_ze_launch_vec_tanh_f32</text>
</a>
</g>
</g>
<!-- Node1&#45;&gt;Node5 -->
<g id="edge4" class="edge">
<title>Node1&#45;&gt;Node5</title>
<path fill="none" stroke="midnightblue" d="M220.2,-59.3C209.31,-49.38 194.33,-37.34 179,-30 169.91,-25.65 159.83,-22.22 149.83,-19.53"/>
<polygon fill="midnightblue" stroke="midnightblue" points="218,-62.03 227.67,-66.36 222.81,-56.94 218,-62.03"/>
</g>
</g>
</svg>
