<?xml version="1.0" encoding="UTF-8" standalone="no"?>
<!DOCTYPE svg PUBLIC "-//W3C//DTD SVG 1.1//EN"
 "http://www.w3.org/Graphics/SVG/1.1/DTD/svg11.dtd">
<!-- Generated by graphviz version 2.43.0 (0)
 -->
<!-- Title: engine/include/ie_kv_cache.h Pages: 1 -->
<svg width="154pt" height="151pt"
 viewBox="0.00 0.00 153.50 151.00" xmlns="http://www.w3.org/2000/svg" xmlns:xlink="http://www.w3.org/1999/xlink">
<g id="graph0" class="graph" transform="scale(1 1) rotate(0) translate(4 147)">
<title>engine/include/ie_kv_cache.h</title>
<!-- Node1 -->
<g id="node1" class="node">
<title>Node1</title>
<g id="a_node1"><a xlink:title="Key/Value attention cache with INT8/FP8 compression and float round&#45;trip.">
<polygon fill="#bfbfbf" stroke="black" points="6.5,-112.5 6.5,-142.5 123.5,-142.5 123.5,-112.5 6.5,-112.5"/>
<text text-anchor="start" x="14.5" y="-130.5" font-family="Helvetica,sans-Serif" font-size="10.00">engine/include/ie_kv</text>
<text text-anchor="middle" x="65" y="-119.5" font-family="Helvetica,sans-Serif" font-size="10.00">_cache.h</text>
</a>
</g>
</g>
<!-- Node2 -->
<g id="node2" class="node">
<title>Node2</title>
<g id="a_node2"><a xlink:title=" ">
<polygon fill="none" stroke="#bfbfbf" points="0,-0.5 0,-19.5 56,-19.5 56,-0.5 0,-0.5"/>
<text text-anchor="middle" x="28" y="-7.5" font-family="Helvetica,sans-Serif" font-size="10.00">stddef.h</text>
</a>
</g>
</g>
<!-- Node1&#45;&gt;Node2 -->
<g id="edge1" class="edge">
<title>Node1&#45;&gt;Node2</title>
<path fill="none" stroke="midnightblue" d="M43.3,-112.47C31.66,-103.58 18.41,-90.95 12,-76 5.44,-60.68 11.25,-42.12 17.63,-28.76"/>
<polygon fill="midnightblue" stroke="midnightblue" points="20.84,-30.18 22.43,-19.7 14.66,-26.9 20.84,-30.18"/>
</g>
<!-- Node3 -->
<g id="node3" class="node">
<title>Node3</title>
<g id="a_node3"><a xlink:title=" ">
<polygon fill="none" stroke="#bfbfbf" points="92.5,-0.5 92.5,-19.5 145.5,-19.5 145.5,-0.5 92.5,-0.5"/>
<text text-anchor="middle" x="119" y="-7.5" font-family="Helvetica,sans-Serif" font-size="10.00">stdint.h</text>
</a>
</g>
</g>
<!-- Node1&#45;&gt;Node3 -->
<g id="edge2" class="edge">
<title>Node1&#45;&gt;Node3</title>
<path fill="none" stroke="midnightblue" d="M86.61,-112.43C98.23,-103.53 111.48,-90.9 118,-76 124.36,-61.46 124.04,-43.28 122.45,-29.85"/>
<polygon fill="midnightblue" stroke="midnightblue" points="125.9,-29.23 120.94,-19.86 118.98,-30.27 125.9,-29.23"/>
</g>
<!-- Node4 -->
<g id="node4" class="node">
<title>Node4</title>
<g id="a_node4"><a xlink:href="ie__quant__act_8h.html" target="_top" xlink:title=" ">
<polygon fill="none" stroke="black" points="21,-56.5 21,-75.5 109,-75.5 109,-56.5 21,-56.5"/>
<text text-anchor="middle" x="65" y="-63.5" font-family="Helvetica,sans-Serif" font-size="10.00">ie_quant_act.h</text>
</a>
</g>
</g>
<!-- Node1&#45;&gt;Node4 -->
<g id="edge3" class="edge">
<title>Node1&#45;&gt;Node4</title>
<path fill="none" stroke="midnightblue" d="M65,-112.4C65,-104.47 65,-94.46 65,-85.86"/>
<polygon fill="midnightblue" stroke="midnightblue" points="68.5,-85.66 65,-75.66 61.5,-85.66 68.5,-85.66"/>
</g>
<!-- Node4&#45;&gt;Node2 -->
<g id="edge4" class="edge">
<title>Node4&#45;&gt;Node2</title>
<path fill="none" stroke="midnightblue" d="M58.89,-56.08C53.72,-48.53 46.15,-37.49 39.81,-28.23"/>
<polygon fill="midnightblue" stroke="midnightblue" points="42.54,-26.02 34,-19.75 36.76,-29.98 42.54,-26.02"/>
</g>
<!-- Node4&#45;&gt;Node3 -->
<g id="edge5" class="edge">
<title>Node4&#45;&gt;Node3</title>
<path fill="none" stroke="midnightblue" d="M73.92,-56.08C81.78,-48.22 93.43,-36.57 102.92,-27.08"/>
<polygon fill="midnightblue" stroke="midnightblue" points="105.65,-29.3 110.25,-19.75 100.7,-24.35 105.65,-29.3"/>
</g>
</g>
</svg>
