<?xml version="1.0" encoding="UTF-8" standalone="no"?>
<!DOCTYPE svg PUBLIC "-//W3C//DTD SVG 1.1//EN"
 "http://www.w3.org/Graphics/SVG/1.1/DTD/svg11.dtd">
<!-- Generated by graphviz version 2.43.0 (0)
 -->
<!-- Title: ze_try_create Pages: 1 -->
<svg width="418pt" height="212pt"
 viewBox="0.00 0.00 418.00 212.26" xmlns="http://www.w3.org/2000/svg" xmlns:xlink="http://www.w3.org/1999/xlink">
<g id="graph0" class="graph" transform="scale(1 1) rotate(0) translate(4 208.26)">
<title>ze_try_create</title>
<!-- Node1 -->
<g id="Node000001" class="node">
<title>Node1</title>
<g id="a_Node000001"><a xlink:title="Try to initialize Level Zero backend (stub).">
<polygon fill="#999999" stroke="#666666" points="83,-120 0,-120 0,-101 83,-101 83,-120"/>
<text text-anchor="middle" x="41.5" y="-108" font-family="Helvetica,sans-Serif" font-size="10.00">ze_try_create</text>
</a>
</g>
</g>
<!-- Node2 -->
<g id="Node000002" class="node">
<title>Node2</title>
<g id="a_Node000002"><a xlink:href="ie__device__cuda_8cu.html#a5e3d9fee84981707669f5c2398f0c4ab" target="_top" xlink:title="Row&#45;wise GEMV kernel: each thread computes one output row.">
<polygon fill="white" stroke="#666666" points="410,-125.5 285,-125.5 285,-95.5 410,-95.5 410,-125.5"/>
<text text-anchor="start" x="293" y="-113.5" font-family="Helvetica,sans-Serif" font-size="10.00">ie_gemv_rowwise_f32</text>
<text text-anchor="middle" x="347.5" y="-102.5" font-family="Helvetica,sans-Serif" font-size="10.00">_kernel</text>
</a>
</g>
</g>
<!-- Node1&#45;&gt;Node2 -->
<g id="edge1_Node000001_Node000002" class="edge">
<title>Node1&#45;&gt;Node2</title>
<g id="a_edge1_Node000001_Node000002"><a xlink:title=" ">
<path fill="none" stroke="#63b8ff" d="M48.16,-120.04C59.18,-137.58 85.42,-174.4 119,-188.5 172.27,-210.87 194.48,-207.62 249,-188.5 280.28,-177.53 308.98,-151.83 327.02,-132.91"/>
<polygon fill="#63b8ff" stroke="#63b8ff" points="329.63,-135.25 333.85,-125.54 324.49,-130.5 329.63,-135.25"/>
</a>
</g>
</g>
<!-- Node3 -->
<g id="Node000003" class="node">
<title>Node3</title>
<g id="a_Node000003"><a xlink:href="ie__device__common_8c.html#a6092fca6f907b5f2b1d74b02d7b06190" target="_top" xlink:title="Level Zero caps thunk used in the vtable.">
<polygon fill="white" stroke="#666666" points="228.5,-179 139.5,-179 139.5,-160 228.5,-160 228.5,-179"/>
<text text-anchor="middle" x="184" y="-167" font-family="Helvetica,sans-Serif" font-size="10.00">ze_caps_thunk</text>
</a>
</g>
</g>
<!-- Node1&#45;&gt;Node3 -->
<g id="edge2_Node000001_Node000003" class="edge">
<title>Node1&#45;&gt;Node3</title>
<g id="a_edge2_Node000001_Node000003"><a xlink:title=" ">
<path fill="none" stroke="#63b8ff" d="M57.84,-120.01C72.95,-129.07 96.92,-142.6 119,-151.5 123.83,-153.45 128.94,-155.26 134.09,-156.94"/>
<polygon fill="#63b8ff" stroke="#63b8ff" points="133.38,-160.38 143.96,-159.98 135.44,-153.69 133.38,-160.38"/>
</a>
</g>
</g>
<!-- Node4 -->
<g id="Node000004" class="node">
<title>Node4</title>
<g id="a_Node000004"><a xlink:href="ie__device__common_8c.html#af95512f035b8be6d514d77b1e55dda8d" target="_top" xlink:title="Destroy Level Zero backend instance.">
<polygon fill="white" stroke="#666666" points="235.5,-142 132.5,-142 132.5,-123 235.5,-123 235.5,-142"/>
<text text-anchor="middle" x="184" y="-130" font-family="Helvetica,sans-Serif" font-size="10.00">ze_destroy_thunk</text>
</a>
</g>
</g>
<!-- Node1&#45;&gt;Node4 -->
<g id="edge4_Node000001_Node000004" class="edge">
<title>Node1&#45;&gt;Node4</title>
<g id="a_edge4_Node000001_Node000004"><a xlink:title=" ">
<path fill="none" stroke="#63b8ff" d="M83.14,-116.86C95.41,-118.78 109.16,-120.94 122.43,-123.02"/>
<polygon fill="#63b8ff" stroke="#63b8ff" points="122.04,-126.5 132.46,-124.59 123.12,-119.58 122.04,-126.5"/>
</a>
</g>
</g>
<!-- Node5 -->
<g id="Node000005" class="node">
<title>Node5</title>
<g id="a_Node000005"><a xlink:href="ie__device__common_8c.html#ac33423f1f8a9324015003fde2d2af98a" target="_top" xlink:title="Level Zero block&#45;sparse GEMV FP32 stub (unimplemented).">
<polygon fill="white" stroke="#666666" points="249,-104.5 119,-104.5 119,-74.5 249,-74.5 249,-104.5"/>
<text text-anchor="start" x="127" y="-92.5" font-family="Helvetica,sans-Serif" font-size="10.00">ze_gemv_block_sparse</text>
<text text-anchor="middle" x="184" y="-81.5" font-family="Helvetica,sans-Serif" font-size="10.00">_f32_stub</text>
</a>
</g>
</g>
<!-- Node1&#45;&gt;Node5 -->
<g id="edge6_Node000001_Node000005" class="edge">
<title>Node1&#45;&gt;Node5</title>
<g id="a_edge6_Node000001_Node000005"><a xlink:title=" ">
<path fill="none" stroke="#63b8ff" d="M83.14,-104.43C91.26,-103.21 100.04,-101.9 108.89,-100.58"/>
<polygon fill="#63b8ff" stroke="#63b8ff" points="109.52,-104.02 118.89,-99.08 108.49,-97.1 109.52,-104.02"/>
</a>
</g>
</g>
<!-- Node6 -->
<g id="Node000006" class="node">
<title>Node6</title>
<g id="a_Node000006"><a xlink:href="ie__device__common_8c.html#aa5580146705fad2c537157820af8617e" target="_top" xlink:title="Level Zero GEMV FP32 stub (unimplemented).">
<polygon fill="white" stroke="#666666" points="238,-56 130,-56 130,-37 238,-37 238,-56"/>
<text text-anchor="middle" x="184" y="-44" font-family="Helvetica,sans-Serif" font-size="10.00">ze_gemv_f32_stub</text>
</a>
</g>
</g>
<!-- Node1&#45;&gt;Node6 -->
<g id="edge8_Node000001_Node000006" class="edge">
<title>Node1&#45;&gt;Node6</title>
<g id="a_edge8_Node000001_Node000006"><a xlink:title=" ">
<path fill="none" stroke="#63b8ff" d="M56.33,-100.96C71.25,-91.02 95.97,-75.52 119,-65.5 124.31,-63.19 129.99,-61.06 135.68,-59.12"/>
<polygon fill="#63b8ff" stroke="#63b8ff" points="136.78,-62.45 145.23,-56.05 134.64,-55.78 136.78,-62.45"/>
</a>
</g>
</g>
<!-- Node7 -->
<g id="Node000007" class="node">
<title>Node7</title>
<g id="a_Node000007"><a xlink:href="ie__device__common_8c.html#a7adb715134a131666c7c75a0fe81b62c" target="_top" xlink:title="Level Zero memcpy stub (unimplemented).">
<polygon fill="white" stroke="#666666" points="235,-19 133,-19 133,0 235,0 235,-19"/>
<text text-anchor="middle" x="184" y="-7" font-family="Helvetica,sans-Serif" font-size="10.00">ze_memcpy_stub</text>
</a>
</g>
</g>
<!-- Node1&#45;&gt;Node7 -->
<g id="edge10_Node000001_Node000007" class="edge">
<title>Node1&#45;&gt;Node7</title>
<g id="a_edge10_Node000001_Node000007"><a xlink:title=" ">
<path fill="none" stroke="#63b8ff" d="M48.86,-100.84C60.64,-83.71 87.55,-47.97 119,-28.5 122.4,-26.4 126.04,-24.52 129.79,-22.84"/>
<polygon fill="#63b8ff" stroke="#63b8ff" points="131.3,-26 139.31,-19.06 128.72,-19.5 131.3,-26"/>
</a>
</g>
</g>
<!-- Node3&#45;&gt;Node2 -->
<g id="edge3_Node000003_Node000002" class="edge">
<title>Node3&#45;&gt;Node2</title>
<g id="a_edge3_Node000003_Node000002"><a xlink:title=" ">
<path fill="none" stroke="#63b8ff" d="M221.8,-159.99C230.76,-157.45 240.28,-154.55 249,-151.5 267.26,-145.12 287,-137.05 303.91,-129.76"/>
<polygon fill="#63b8ff" stroke="#63b8ff" points="305.74,-132.78 313.51,-125.58 302.94,-126.36 305.74,-132.78"/>
</a>
</g>
</g>
<!-- Node4&#45;&gt;Node2 -->
<g id="edge5_Node000004_Node000002" class="edge">
<title>Node4&#45;&gt;Node2</title>
<g id="a_edge5_Node000004_Node000002"><a xlink:title=" ">
<path fill="none" stroke="#63b8ff" d="M235.66,-125.6C248.11,-123.9 261.69,-122.05 274.93,-120.25"/>
<polygon fill="#63b8ff" stroke="#63b8ff" points="275.53,-123.7 284.96,-118.88 274.58,-116.76 275.53,-123.7"/>
</a>
</g>
</g>
<!-- Node5&#45;&gt;Node2 -->
<g id="edge7_Node000005_Node000002" class="edge">
<title>Node5&#45;&gt;Node2</title>
<g id="a_edge7_Node000005_Node000002"><a xlink:title=" ">
<path fill="none" stroke="#63b8ff" d="M249.29,-97.86C257.61,-98.94 266.17,-100.05 274.6,-101.15"/>
<polygon fill="#63b8ff" stroke="#63b8ff" points="274.43,-104.66 284.79,-102.48 275.33,-97.72 274.43,-104.66"/>
</a>
</g>
</g>
<!-- Node6&#45;&gt;Node2 -->
<g id="edge9_Node000006_Node000002" class="edge">
<title>Node6&#45;&gt;Node2</title>
<g id="a_edge9_Node000006_Node000002"><a xlink:title=" ">
<path fill="none" stroke="#63b8ff" d="M220.51,-56.05C229.87,-58.84 239.89,-62.07 249,-65.5 268.58,-72.88 289.72,-82.44 307.31,-90.84"/>
<polygon fill="#63b8ff" stroke="#63b8ff" points="306.15,-94.17 316.67,-95.37 309.2,-87.87 306.15,-94.17"/>
</a>
</g>
</g>
<!-- Node7&#45;&gt;Node2 -->
<g id="edge11_Node000007_Node000002" class="edge">
<title>Node7&#45;&gt;Node2</title>
<g id="a_edge11_Node000007_Node000002"><a xlink:title=" ">
<path fill="none" stroke="#63b8ff" d="M226.29,-19.03C234.06,-21.58 241.96,-24.71 249,-28.5 278.14,-44.19 306.52,-69.55 325.08,-87.92"/>
<polygon fill="#63b8ff" stroke="#63b8ff" points="322.88,-90.67 332.41,-95.31 327.85,-85.75 322.88,-90.67"/>
</a>
</g>
</g>
</g>
</svg>
