<?xml version="1.0" encoding="UTF-8" standalone="no"?>
<!DOCTYPE svg PUBLIC "-//W3C//DTD SVG 1.1//EN"
 "http://www.w3.org/Graphics/SVG/1.1/DTD/svg11.dtd">
<!-- Generated by graphviz version 2.43.0 (0)
 -->
<!-- Title: cuda_try_create Pages: 1 -->
<!--zoomable 328 -->

<svg id="main" version="1.1" xmlns="http://www.w3.org/2000/svg" xmlns:xlink="http://www.w3.org/1999/xlink" xml:space="preserve" onload="init(evt)">
<style type="text/css"><![CDATA[
.node, .edge {opacity: 0.7;}
.node.selected, .edge.selected {opacity: 1;}
.edge:hover path { stroke: red; }
.edge:hover polygon { stroke: red; fill: red; }
]]></style>

<defs>
  <circle id="rim" cx="0" cy="0" r="7"/>
  <circle id="rim2" cx="0" cy="0" r="3.5"/>
  <g id="zoomPlus">
    <use xlink:href="#rim" fill="#404040"><set attributeName="fill" to="#808080" begin="zoomplus.mouseover" end="zoomplus.mouseout"/></use>
    <path d="M-4,0h8M0,-4v8" fill="none" stroke="white" stroke-width="1.5" pointer-events="none"/>
  </g>
  <g id="zoomMin">
    <use xlink:href="#rim" fill="#404040"><set attributeName="fill" to="#808080" begin="zoomminus.mouseover" end="zoomminus.mouseout"/></use>
    <path d="M-4,0h8" fill="none" stroke="white" stroke-width="1.5" pointer-events="none"/>
  </g>
  <g id="arrowUp" transform="translate(30 24)">
    <use xlink:href="#rim"/>
    <path pointer-events="none" fill="none" stroke="white" stroke-width="1.5" d="M0,-3.0v7 M-2.5,-0.5L0,-3.0L2.5,-0.5"/>
  </g>
  <g id="arrowRight" transform="rotate(90) translate(36 -43)">
    <use xlink:href="#rim"/>
    <path pointer-events="none" fill="none" stroke="white" stroke-width="1.5" d="M0,-3.0v7 M-2.5,-0.5L0,-3.0L2.5,-0.5"/>
  </g>
  <g id="arrowDown" transform="rotate(180) translate(-30 -48)">
    <use xlink:href="#rim"/>
    <path pointer-events="none" fill="none" stroke="white" stroke-width="1.5" d="M0,-3.0v7 M-2.5,-0.5L0,-3.0L2.5,-0.5"/>
  </g>
  <g id="arrowLeft" transform="rotate(270) translate(-36 17)">
    <use xlink:href="#rim"/>
    <path pointer-events="none" fill="none" stroke="white" stroke-width="1.5" d="M0,-3.0v7 M-2.5,-0.5L0,-3.0L2.5,-0.5"/>
  </g>
  <g id="resetDef">
    <use xlink:href="#rim2" fill="#404040"><set attributeName="fill" to="#808080" begin="reset.mouseover" end="reset.mouseout"/></use>
  </g>
</defs>
<script type="application/ecmascript">
var viewWidth = 806;
var viewHeight = 328;
var sectionId = 'dynsection-23';
</script>
<script type="application/ecmascript" xlink:href="svg.min.js"/>
<svg id="graph" class="graph">
<g id="viewport">
<title>cuda_try_create</title>
<!-- Node1 -->
<g id="Node000001" class="node">
<title>Node1</title>
<g id="a_Node000001"><a xlink:title="Initialize CUDA backend.">
<polygon fill="#999999" stroke="#666666" points="95,-187 0,-187 0,-168 95,-168 95,-187"/>
<text text-anchor="middle" x="47.5" y="-175" font-family="Helvetica,sans-Serif" font-size="10.00">cuda_try_create</text>
</a>
</g>
</g>
<!-- Node2 -->
<g id="Node000002" class="node">
<title>Node2</title>
<g id="a_Node000002"><a xlink:href="ie__device__common_8c.html#afbcd46d9b25dd33110fdf48f5c83b017" target="_top" xlink:title="Report CUDA device capabilities.">
<polygon fill="white" stroke="#666666" points="252.5,-320 151.5,-320 151.5,-301 252.5,-301 252.5,-320"/>
<text text-anchor="middle" x="202" y="-308" font-family="Helvetica,sans-Serif" font-size="10.00">cuda_caps_thunk</text>
</a>
</g>
</g>
<!-- Node1&#45;&gt;Node2 -->
<g id="edge1_Node000001_Node000002" class="edge">
<title>Node1&#45;&gt;Node2</title>
<g id="a_edge1_Node000001_Node000002"><a xlink:title=" ">
<path fill="none" stroke="#63b8ff" d="M53.26,-187.19C64.11,-208.3 92.74,-258.81 131,-286.5 136.94,-290.8 143.71,-294.37 150.64,-297.33"/>
<polygon fill="#63b8ff" stroke="#63b8ff" points="149.55,-300.66 160.14,-301 152.07,-294.13 149.55,-300.66"/>
</a>
</g>
</g>
<!-- Node3 -->
<g id="Node000003" class="node">
<title>Node3</title>
<g id="a_Node000003"><a xlink:href="ie__device__common_8c.html#a7ecb9f771aea0ef0d125bbe31b53c87a" target="_top" xlink:title="Destroy CUDA backend instance and free device buffers.">
<polygon fill="white" stroke="#666666" points="429,-206 314,-206 314,-187 429,-187 429,-206"/>
<text text-anchor="middle" x="371.5" y="-194" font-family="Helvetica,sans-Serif" font-size="10.00">cuda_destroy_thunk</text>
</a>
</g>
</g>
<!-- Node1&#45;&gt;Node3 -->
<g id="edge2_Node000001_Node000003" class="edge">
<title>Node1&#45;&gt;Node3</title>
<g id="a_edge2_Node000001_Node000003"><a xlink:title=" ">
<path fill="none" stroke="#63b8ff" d="M95.32,-180.26C150.18,-183.5 241.47,-188.89 303.73,-192.56"/>
<polygon fill="#63b8ff" stroke="#63b8ff" points="303.66,-196.06 313.85,-193.16 304.08,-189.07 303.66,-196.06"/>
</a>
</g>
</g>
<!-- Node7 -->
<g id="Node000007" class="node">
<title>Node7</title>
<g id="a_Node000007"><a xlink:href="ie__device__common_8c.html#a921cb64a1eee6157e3e99dbef039632c" target="_top" xlink:title="CUDA block&#45;sparse GEMV implementation.">
<polygon fill="white" stroke="#666666" points="273,-44.5 131,-44.5 131,-14.5 273,-14.5 273,-44.5"/>
<text text-anchor="start" x="139" y="-32.5" font-family="Helvetica,sans-Serif" font-size="10.00">cuda_gemv_block_sparse</text>
<text text-anchor="middle" x="202" y="-21.5" font-family="Helvetica,sans-Serif" font-size="10.00">_f32_unimpl</text>
</a>
</g>
</g>
<!-- Node1&#45;&gt;Node7 -->
<g id="edge6_Node000001_Node000007" class="edge">
<title>Node1&#45;&gt;Node7</title>
<g id="a_edge6_Node000001_Node000007"><a xlink:title=" ">
<path fill="none" stroke="#63b8ff" d="M52.3,-167.88C61.91,-144.75 89.44,-85.56 131,-53.5 132.82,-52.1 134.72,-50.77 136.7,-49.52"/>
<polygon fill="#63b8ff" stroke="#63b8ff" points="138.67,-52.43 145.7,-44.51 135.26,-46.32 138.67,-52.43"/>
</a>
</g>
</g>
<!-- Node8 -->
<g id="Node000008" class="node">
<title>Node8</title>
<g id="a_Node000008"><a xlink:href="ie__device__common_8c.html#a10d98754f37925ce0fd653a011fc9d47" target="_top" xlink:title="CUDA GEMV FP32 implementation.">
<polygon fill="white" stroke="#666666" points="265.5,-168 138.5,-168 138.5,-149 265.5,-149 265.5,-168"/>
<text text-anchor="middle" x="202" y="-156" font-family="Helvetica,sans-Serif" font-size="10.00">cuda_gemv_f32_thunk</text>
</a>
</g>
</g>
<!-- Node1&#45;&gt;Node8 -->
<g id="edge7_Node000001_Node000008" class="edge">
<title>Node1&#45;&gt;Node8</title>
<g id="a_edge7_Node000001_Node000008"><a xlink:title=" ">
<path fill="none" stroke="#63b8ff" d="M95.08,-171.7C105.65,-170.38 117.12,-168.95 128.48,-167.54"/>
<polygon fill="#63b8ff" stroke="#63b8ff" points="128.92,-171.01 138.41,-166.3 128.05,-164.06 128.92,-171.01"/>
</a>
</g>
</g>
<!-- Node13 -->
<g id="Node000013" class="node">
<title>Node13</title>
<g id="a_Node000013"><a xlink:href="ie__device__common_8c.html#ab97116893ac6fb20f32aaf7462a13b50" target="_top" xlink:title="CUDA GEMV Q4_0 implementation.">
<polygon fill="white" stroke="#666666" points="263,-130.5 141,-130.5 141,-100.5 263,-100.5 263,-130.5"/>
<text text-anchor="start" x="149" y="-118.5" font-family="Helvetica,sans-Serif" font-size="10.00">cuda_gemv_q4_0_f32</text>
<text text-anchor="middle" x="202" y="-107.5" font-family="Helvetica,sans-Serif" font-size="10.00">_thunk</text>
</a>
</g>
</g>
<!-- Node1&#45;&gt;Node13 -->
<g id="edge19_Node000001_Node000013" class="edge">
<title>Node1&#45;&gt;Node13</title>
<g id="a_edge19_Node000001_Node000013"><a xlink:title=" ">
<path fill="none" stroke="#63b8ff" d="M67.93,-167.87C84.49,-159.83 109.04,-148.29 131,-139.5 135.65,-137.64 140.51,-135.78 145.4,-133.98"/>
<polygon fill="#63b8ff" stroke="#63b8ff" points="146.6,-137.27 154.82,-130.59 144.22,-130.69 146.6,-137.27"/>
</a>
</g>
</g>
<!-- Node15 -->
<g id="Node000015" class="node">
<title>Node15</title>
<g id="a_Node000015"><a xlink:href="ie__device__common_8c.html#a3e7e82d7cc2da1e044d74015a6ac37cd" target="_top" xlink:title="CUDA memcpy implementation using the CUDA wrapper.">
<polygon fill="white" stroke="#666666" points="262.5,-82 141.5,-82 141.5,-63 262.5,-63 262.5,-82"/>
<text text-anchor="middle" x="202" y="-70" font-family="Helvetica,sans-Serif" font-size="10.00">cuda_memcpy_thunk</text>
</a>
</g>
</g>
<!-- Node1&#45;&gt;Node15 -->
<g id="edge25_Node000001_Node000015" class="edge">
<title>Node1&#45;&gt;Node15</title>
<g id="a_edge25_Node000001_Node000015"><a xlink:title=" ">
<path fill="none" stroke="#63b8ff" d="M54.99,-167.86C67.51,-150.01 96.84,-111.77 131,-91.5 134.65,-89.33 138.56,-87.4 142.59,-85.69"/>
<polygon fill="#63b8ff" stroke="#63b8ff" points="144.04,-88.89 152.16,-82.08 141.57,-82.34 144.04,-88.89"/>
</a>
</g>
</g>
<!-- Node16 -->
<g id="Node000016" class="node">
<title>Node16</title>
<g id="a_Node000016"><a xlink:href="ie__device__cuda__stub_8c.html#ab13dfa272ae7d081b8310b86c139ecf9" target="_top" xlink:title="Initialize CUDA for a given device ordinal and return basic identity strings.">
<polygon fill="white" stroke="#666666" points="576,-245 501,-245 501,-226 576,-226 576,-245"/>
<text text-anchor="middle" x="538.5" y="-233" font-family="Helvetica,sans-Serif" font-size="10.00">ie_cuda_init</text>
</a>
</g>
</g>
<!-- Node1&#45;&gt;Node16 -->
<g id="edge27_Node000001_Node000016" class="edge">
<title>Node1&#45;&gt;Node16</title>
<g id="a_edge27_Node000001_Node000016"><a xlink:title=" ">
<path fill="none" stroke="#63b8ff" d="M77.59,-187.04C93.25,-191.81 113,-197.25 131,-200.5 259.82,-223.79 414.49,-231.7 490.56,-234.29"/>
<polygon fill="#63b8ff" stroke="#63b8ff" points="490.65,-237.79 500.76,-234.62 490.88,-230.8 490.65,-237.79"/>
</a>
</g>
</g>
<!-- Node17 -->
<g id="Node000017" class="node">
<title>Node17</title>
<g id="a_Node000017"><a xlink:href="ie__device__cuda__stub_8c.html#aa7d18bba67349415d8d7cf8c92ed5e77" target="_top" xlink:title="Returns non&#45;zero if at least one CUDA device is available.">
<polygon fill="white" stroke="#666666" points="597.5,-282 479.5,-282 479.5,-263 597.5,-263 597.5,-282"/>
<text text-anchor="middle" x="538.5" y="-270" font-family="Helvetica,sans-Serif" font-size="10.00">ie_cuda_is_available</text>
</a>
</g>
</g>
<!-- Node1&#45;&gt;Node17 -->
<g id="edge30_Node000001_Node000017" class="edge">
<title>Node1&#45;&gt;Node17</title>
<g id="a_edge30_Node000001_Node000017"><a xlink:title=" ">
<path fill="none" stroke="#63b8ff" d="M61.44,-187.08C77.06,-198.1 104.54,-215.8 131,-224.5 245.59,-262.18 386.93,-270.99 469.17,-272.66"/>
<polygon fill="#63b8ff" stroke="#63b8ff" points="469.34,-276.16 479.4,-272.83 469.46,-269.16 469.34,-276.16"/>
</a>
</g>
</g>
<!-- Node4 -->
<g id="Node000004" class="node">
<title>Node4</title>
<g id="a_Node000004"><a xlink:href="ie__device__cuda__stub_8c.html#a3cd69e11d8225356f06f8a1f4d9b3191" target="_top" xlink:title="Free device memory allocated by ie_cuda_malloc().">
<polygon fill="white" stroke="#666666" points="578,-171 499,-171 499,-152 578,-152 578,-171"/>
<text text-anchor="middle" x="538.5" y="-159" font-family="Helvetica,sans-Serif" font-size="10.00">ie_cuda_free</text>
</a>
</g>
</g>
<!-- Node3&#45;&gt;Node4 -->
<g id="edge3_Node000003_Node000004" class="edge">
<title>Node3&#45;&gt;Node4</title>
<g id="a_edge3_Node000003_Node000004"><a xlink:title=" ">
<path fill="none" stroke="#63b8ff" d="M417.59,-186.94C439.68,-182.25 466.31,-176.6 488.86,-171.82"/>
<polygon fill="#63b8ff" stroke="#63b8ff" points="489.85,-175.19 498.91,-169.69 488.4,-168.34 489.85,-175.19"/>
</a>
</g>
</g>
<!-- Node5 -->
<g id="Node000005" class="node">
<title>Node5</title>
<g id="a_Node000005"><a xlink:href="ie__device__cuda_8cu.html#a4ed091f3252b0eddeb76bd1d8fc63168" target="_top" xlink:title="Clear the last error string (C ABI).">
<polygon fill="white" stroke="#666666" points="774,-151.5 667,-151.5 667,-121.5 774,-121.5 774,-151.5"/>
<text text-anchor="start" x="675" y="-139.5" font-family="Helvetica,sans-Serif" font-size="10.00">ie_cuda_clear_last</text>
<text text-anchor="middle" x="720.5" y="-128.5" font-family="Helvetica,sans-Serif" font-size="10.00">_error</text>
</a>
</g>
</g>
<!-- Node4&#45;&gt;Node5 -->
<g id="edge4_Node000004_Node000005" class="edge">
<title>Node4&#45;&gt;Node5</title>
<g id="a_edge4_Node000004_Node000005"><a xlink:title=" ">
<path fill="none" stroke="#63b8ff" d="M578.11,-156.14C601,-152.96 630.56,-148.85 656.73,-145.22"/>
<polygon fill="#63b8ff" stroke="#63b8ff" points="657.53,-148.64 666.95,-143.8 656.56,-141.71 657.53,-148.64"/>
</a>
</g>
</g>
<!-- Node6 -->
<g id="Node000006" class="node">
<title>Node6</title>
<g id="a_Node000006"><a xlink:href="ie__device__cuda_8cu.html#a0391d9bf2a39582d39265da97820553f" target="_top" xlink:title="Store the last error message into the global static buffer.">
<polygon fill="white" stroke="#666666" points="798,-189 643,-189 643,-170 798,-170 798,-189"/>
<text text-anchor="middle" x="720.5" y="-177" font-family="Helvetica,sans-Serif" font-size="10.00">ie_cuda_set_last_error_cuda</text>
</a>
</g>
</g>
<!-- Node4&#45;&gt;Node6 -->
<g id="edge5_Node000004_Node000006" class="edge">
<title>Node4&#45;&gt;Node6</title>
<g id="a_edge5_Node000004_Node000006"><a xlink:title=" ">
<path fill="none" stroke="#63b8ff" d="M578.11,-165.36C594.21,-166.97 613.61,-168.91 632.8,-170.83"/>
<polygon fill="#63b8ff" stroke="#63b8ff" points="632.51,-174.32 642.81,-171.83 633.2,-167.35 632.51,-174.32"/>
</a>
</g>
</g>
<!-- Node9 -->
<g id="Node000009" class="node">
<title>Node9</title>
<g id="a_Node000009"><a xlink:href="ie__device__common_8c.html#a56608584d5096e56c6de8baeb07edb11" target="_top" xlink:title="Ensure a device buffer has at least nbytes capacity.">
<polygon fill="white" stroke="#666666" points="434,-130 309,-130 309,-111 434,-111 434,-130"/>
<text text-anchor="middle" x="371.5" y="-118" font-family="Helvetica,sans-Serif" font-size="10.00">cuda_ensure_capacity</text>
</a>
</g>
</g>
<!-- Node8&#45;&gt;Node9 -->
<g id="edge8_Node000008_Node000009" class="edge">
<title>Node8&#45;&gt;Node9</title>
<g id="a_edge8_Node000008_Node000009"><a xlink:title=" ">
<path fill="none" stroke="#63b8ff" d="M245.27,-148.91C267.57,-143.85 295.12,-137.6 318.7,-132.25"/>
<polygon fill="#63b8ff" stroke="#63b8ff" points="319.56,-135.65 328.54,-130.02 318.01,-128.82 319.56,-135.65"/>
</a>
</g>
</g>
<!-- Node11 -->
<g id="Node000011" class="node">
<title>Node11</title>
<g id="a_Node000011"><a xlink:href="ie__device__cuda__stub_8c.html#aca120e7a1c8d8c71e0c9c55ff55b5a2e" target="_top" xlink:title="Launch a GEMV FP32 kernel: y = W*x + bias (bias optional).">
<polygon fill="white" stroke="#666666" points="592.5,-208 484.5,-208 484.5,-189 592.5,-189 592.5,-208"/>
<text text-anchor="middle" x="538.5" y="-196" font-family="Helvetica,sans-Serif" font-size="10.00">ie_cuda_gemv_f32</text>
</a>
</g>
</g>
<!-- Node8&#45;&gt;Node11 -->
<g id="edge13_Node000008_Node000011" class="edge">
<title>Node8&#45;&gt;Node11</title>
<g id="a_edge13_Node000008_Node000011"><a xlink:title=" ">
<path fill="none" stroke="#63b8ff" d="M265.97,-161.67C312.54,-164.5 377.43,-169.46 434,-177.5 451.14,-179.93 469.71,-183.43 486.33,-186.87"/>
<polygon fill="#63b8ff" stroke="#63b8ff" points="485.89,-190.36 496.39,-189 487.33,-183.51 485.89,-190.36"/>
</a>
</g>
</g>
<!-- Node12 -->
<g id="Node000012" class="node">
<title>Node12</title>
<g id="a_Node000012"><a xlink:href="ie__device__cuda__stub_8c.html#a13ade60bbdaef0afaf4b53fd42c1e38c" target="_top" xlink:title="Copy memory using CUDA.">
<polygon fill="white" stroke="#666666" points="422.5,-93 320.5,-93 320.5,-74 422.5,-74 422.5,-93"/>
<text text-anchor="middle" x="371.5" y="-81" font-family="Helvetica,sans-Serif" font-size="10.00">ie_cuda_memcpy</text>
</a>
</g>
</g>
<!-- Node8&#45;&gt;Node12 -->
<g id="edge16_Node000008_Node000012" class="edge">
<title>Node8&#45;&gt;Node12</title>
<g id="a_edge16_Node000008_Node000012"><a xlink:title=" ">
<path fill="none" stroke="#63b8ff" d="M251.86,-148.96C259.22,-146.48 266.51,-143.38 273,-139.5 292.97,-127.56 289.15,-113.63 309,-101.5 311.67,-99.87 314.49,-98.38 317.4,-97.02"/>
<polygon fill="#63b8ff" stroke="#63b8ff" points="319,-100.15 326.92,-93.11 316.34,-93.67 319,-100.15"/>
</a>
</g>
</g>
<!-- Node9&#45;&gt;Node4 -->
<g id="edge9_Node000009_Node000004" class="edge">
<title>Node9&#45;&gt;Node4</title>
<g id="a_edge9_Node000009_Node000004"><a xlink:title=" ">
<path fill="none" stroke="#63b8ff" d="M410.77,-130.01C434.11,-135.81 464.17,-143.28 489.15,-149.49"/>
<polygon fill="#63b8ff" stroke="#63b8ff" points="488.6,-152.96 499.15,-151.97 490.29,-146.16 488.6,-152.96"/>
</a>
</g>
</g>
<!-- Node10 -->
<g id="Node000010" class="node">
<title>Node10</title>
<g id="a_Node000010"><a xlink:href="ie__device__cuda__stub_8c.html#a5e37ce0218789795b250e4dfec782e6d" target="_top" xlink:title="Allocate device memory.">
<polygon fill="white" stroke="#666666" points="584.5,-95 492.5,-95 492.5,-76 584.5,-76 584.5,-95"/>
<text text-anchor="middle" x="538.5" y="-83" font-family="Helvetica,sans-Serif" font-size="10.00">ie_cuda_malloc</text>
</a>
</g>
</g>
<!-- Node9&#45;&gt;Node10 -->
<g id="edge10_Node000009_Node000010" class="edge">
<title>Node9&#45;&gt;Node10</title>
<g id="a_edge10_Node000009_Node000010"><a xlink:title=" ">
<path fill="none" stroke="#63b8ff" d="M417.59,-110.94C437.69,-106.67 461.54,-101.61 482.66,-97.13"/>
<polygon fill="#63b8ff" stroke="#63b8ff" points="483.41,-100.55 492.47,-95.05 481.96,-93.7 483.41,-100.55"/>
</a>
</g>
</g>
<!-- Node10&#45;&gt;Node5 -->
<g id="edge11_Node000010_Node000005" class="edge">
<title>Node10&#45;&gt;Node5</title>
<g id="a_edge11_Node000010_Node000005"><a xlink:title=" ">
<path fill="none" stroke="#63b8ff" d="M573.36,-95.09C596.86,-101.75 628.87,-110.82 656.94,-118.77"/>
<polygon fill="#63b8ff" stroke="#63b8ff" points="656.11,-122.18 666.68,-121.54 658.02,-115.44 656.11,-122.18"/>
</a>
</g>
</g>
<!-- Node10&#45;&gt;Node6 -->
<g id="edge12_Node000010_Node000006" class="edge">
<title>Node10&#45;&gt;Node6</title>
<g id="a_edge12_Node000010_Node000006"><a xlink:title=" ">
<path fill="none" stroke="#63b8ff" d="M579.05,-95.02C588.79,-98.55 598.77,-103.26 607,-109.5 629.11,-126.27 620.1,-144.84 643,-160.5 645.91,-162.49 649.01,-164.27 652.24,-165.87"/>
<polygon fill="#63b8ff" stroke="#63b8ff" points="651.02,-169.16 661.59,-169.89 653.78,-162.73 651.02,-169.16"/>
</a>
</g>
</g>
<!-- Node11&#45;&gt;Node5 -->
<g id="edge14_Node000011_Node000005" class="edge">
<title>Node11&#45;&gt;Node5</title>
<g id="a_edge14_Node000011_Node000005"><a xlink:title=" ">
<path fill="none" stroke="#63b8ff" d="M578.87,-188.93C588.22,-186.24 598.07,-183.07 607,-179.5 623.8,-172.79 626.3,-167.46 643,-160.5 647.7,-158.54 652.61,-156.65 657.59,-154.86"/>
<polygon fill="#63b8ff" stroke="#63b8ff" points="658.9,-158.11 667.19,-151.51 656.6,-151.5 658.9,-158.11"/>
</a>
</g>
</g>
<!-- Node11&#45;&gt;Node6 -->
<g id="edge15_Node000011_Node000006" class="edge">
<title>Node11&#45;&gt;Node6</title>
<g id="a_edge15_Node000011_Node000006"><a xlink:title=" ">
<path fill="none" stroke="#63b8ff" d="M592.53,-192.9C605.22,-191.56 619.09,-190.1 632.85,-188.65"/>
<polygon fill="#63b8ff" stroke="#63b8ff" points="633.26,-192.12 642.84,-187.59 632.53,-185.16 633.26,-192.12"/>
</a>
</g>
</g>
<!-- Node12&#45;&gt;Node5 -->
<g id="edge17_Node000012_Node000005" class="edge">
<title>Node12&#45;&gt;Node5</title>
<g id="a_edge17_Node000012_Node000005"><a xlink:title=" ">
<path fill="none" stroke="#63b8ff" d="M405.87,-73.97C452.02,-62.38 537.53,-46.65 607,-66.5 640,-75.93 672.75,-98.14 694.33,-115.04"/>
<polygon fill="#63b8ff" stroke="#63b8ff" points="692.31,-117.91 702.3,-121.44 696.7,-112.45 692.31,-117.91"/>
</a>
</g>
</g>
<!-- Node12&#45;&gt;Node6 -->
<g id="edge18_Node000012_Node000006" class="edge">
<title>Node12&#45;&gt;Node6</title>
<g id="a_edge18_Node000012_Node000006"><a xlink:title=" ">
<path fill="none" stroke="#63b8ff" d="M415.27,-93.09C472.84,-106.19 572.07,-129.55 607,-142.5 623.77,-148.72 626.22,-154.31 643,-160.5 649.8,-163.01 657.05,-165.29 664.29,-167.34"/>
<polygon fill="#63b8ff" stroke="#63b8ff" points="663.53,-170.76 674.1,-169.97 665.35,-164 663.53,-170.76"/>
</a>
</g>
</g>
<!-- Node13&#45;&gt;Node9 -->
<g id="edge20_Node000013_Node000009" class="edge">
<title>Node13&#45;&gt;Node9</title>
<g id="a_edge20_Node000013_Node000009"><a xlink:title=" ">
<path fill="none" stroke="#63b8ff" d="M263.47,-117.31C274.92,-117.65 287,-118.01 298.76,-118.36"/>
<polygon fill="#63b8ff" stroke="#63b8ff" points="298.89,-121.86 308.99,-118.66 299.1,-114.87 298.89,-121.86"/>
</a>
</g>
</g>
<!-- Node13&#45;&gt;Node12 -->
<g id="edge24_Node000013_Node000012" class="edge">
<title>Node13&#45;&gt;Node12</title>
<g id="a_edge24_Node000013_Node000012"><a xlink:title=" ">
<path fill="none" stroke="#63b8ff" d="M263.47,-103.95C278.85,-101.01 295.36,-97.86 310.7,-94.93"/>
<polygon fill="#63b8ff" stroke="#63b8ff" points="311.42,-98.35 320.58,-93.04 310.11,-91.47 311.42,-98.35"/>
</a>
</g>
</g>
<!-- Node14 -->
<g id="Node000014" class="node">
<title>Node14</title>
<g id="a_Node000014"><a xlink:href="ie__device__cuda__stub_8c.html#a5352cd0342ec8b242f5683c117bb8973" target="_top" xlink:title="Launch a GEMV Q4_0 kernel: y = dequant(Wq4) * x (+ optional BF16 bias).">
<polygon fill="white" stroke="#666666" points="607,-19 470,-19 470,0 607,0 607,-19"/>
<text text-anchor="middle" x="538.5" y="-7" font-family="Helvetica,sans-Serif" font-size="10.00">ie_cuda_gemv_q4_0_f32</text>
</a>
</g>
</g>
<!-- Node13&#45;&gt;Node14 -->
<g id="edge21_Node000013_Node000014" class="edge">
<title>Node13&#45;&gt;Node14</title>
<g id="a_edge21_Node000013_Node000014"><a xlink:title=" ">
<path fill="none" stroke="#63b8ff" d="M250.84,-100.46C258.41,-97.5 266.03,-94.16 273,-90.5 290.47,-81.31 291.07,-72.74 309,-64.5 356.82,-42.52 414.47,-28.72 459.89,-20.45"/>
<polygon fill="#63b8ff" stroke="#63b8ff" points="460.74,-23.85 469.98,-18.66 459.52,-16.96 460.74,-23.85"/>
</a>
</g>
</g>
<!-- Node14&#45;&gt;Node5 -->
<g id="edge22_Node000014_Node000005" class="edge">
<title>Node14&#45;&gt;Node5</title>
<g id="a_edge22_Node000014_Node000005"><a xlink:title=" ">
<path fill="none" stroke="#63b8ff" d="M574.69,-19.05C585.47,-22.74 597.09,-27.54 607,-33.5 643.54,-55.48 678.62,-90.55 699.62,-113.56"/>
<polygon fill="#63b8ff" stroke="#63b8ff" points="697.16,-116.05 706.44,-121.15 702.36,-111.37 697.16,-116.05"/>
</a>
</g>
</g>
<!-- Node14&#45;&gt;Node6 -->
<g id="edge23_Node000014_Node000006" class="edge">
<title>Node14&#45;&gt;Node6</title>
<g id="a_edge23_Node000014_Node000006"><a xlink:title=" ">
<path fill="none" stroke="#63b8ff" d="M554.86,-19.09C569.97,-29.23 592.79,-46.49 607,-66.5 632.91,-102.97 609.49,-130.86 643,-160.5 644.75,-162.05 646.6,-163.47 648.54,-164.79"/>
<polygon fill="#63b8ff" stroke="#63b8ff" points="647.1,-167.99 657.53,-169.85 650.54,-161.89 647.1,-167.99"/>
</a>
</g>
</g>
<!-- Node15&#45;&gt;Node12 -->
<g id="edge26_Node000015_Node000012" class="edge">
<title>Node15&#45;&gt;Node12</title>
<g id="a_edge26_Node000015_Node000012"><a xlink:title=" ">
<path fill="none" stroke="#63b8ff" d="M262.53,-76.41C278.03,-77.43 294.75,-78.53 310.29,-79.55"/>
<polygon fill="#63b8ff" stroke="#63b8ff" points="310.1,-83.04 320.3,-80.2 310.55,-76.06 310.1,-83.04"/>
</a>
</g>
</g>
<!-- Node16&#45;&gt;Node5 -->
<g id="edge28_Node000016_Node000005" class="edge">
<title>Node16&#45;&gt;Node5</title>
<g id="a_edge28_Node000016_Node000005"><a xlink:title=" ">
<path fill="none" stroke="#63b8ff" d="M576.03,-230.3C586.75,-227.49 598,-223.16 607,-216.5 630.79,-198.9 619.48,-178.45 643,-160.5 647.43,-157.12 652.34,-154.22 657.47,-151.71"/>
<polygon fill="#63b8ff" stroke="#63b8ff" points="659.12,-154.81 666.9,-147.63 656.34,-148.39 659.12,-154.81"/>
</a>
</g>
</g>
<!-- Node16&#45;&gt;Node6 -->
<g id="edge29_Node000016_Node000006" class="edge">
<title>Node16&#45;&gt;Node6</title>
<g id="a_edge29_Node000016_Node000006"><a xlink:title=" ">
<path fill="none" stroke="#63b8ff" d="M574.62,-225.93C585.07,-222.99 596.52,-219.7 607,-216.5 632.07,-208.85 660.07,-199.65 681.86,-192.33"/>
<polygon fill="#63b8ff" stroke="#63b8ff" points="683.05,-195.63 691.41,-189.12 680.81,-188.99 683.05,-195.63"/>
</a>
</g>
</g>
<!-- Node17&#45;&gt;Node5 -->
<g id="edge31_Node000017_Node000005" class="edge">
<title>Node17&#45;&gt;Node5</title>
<g id="a_edge31_Node000017_Node000005"><a xlink:title=" ">
<path fill="none" stroke="#63b8ff" d="M592.54,-262.88C597.81,-260.43 602.77,-257.35 607,-253.5 639.79,-223.68 610.65,-190.8 643,-160.5 647.3,-156.48 652.26,-153.13 657.55,-150.34"/>
<polygon fill="#63b8ff" stroke="#63b8ff" points="659.07,-153.49 666.71,-146.16 656.16,-147.13 659.07,-153.49"/>
</a>
</g>
</g>
<!-- Node17&#45;&gt;Node6 -->
<g id="edge32_Node000017_Node000006" class="edge">
<title>Node17&#45;&gt;Node6</title>
<g id="a_edge32_Node000017_Node000006"><a xlink:title=" ">
<path fill="none" stroke="#63b8ff" d="M581.27,-262.91C589.95,-260.32 598.91,-257.19 607,-253.5 641.77,-237.63 678.01,-211.86 699.66,-195.29"/>
<polygon fill="#63b8ff" stroke="#63b8ff" points="701.99,-197.92 707.74,-189.02 697.69,-192.39 701.99,-197.92"/>
</a>
</g>
</g>
</g>
</svg>

<g id="navigator" transform="translate(0 0)" fill="#404254">
  <rect fill="#f2f5e9" fill-opacity="0.5" stroke="#606060" stroke-width=".5" x="0" y="0" width="60" height="60"/>
  <use id="zoomplus" xlink:href="#zoomPlus" x="17" y="9" onmousedown="handleZoom(evt,'in')"/>
  <use id="zoomminus" xlink:href="#zoomMin" x="42" y="9" onmousedown="handleZoom(evt,'out')"/>
  <use id="reset" xlink:href="#resetDef" x="30" y="36" onmousedown="handleReset()"/>
   <use id="arrowup" xlink:href="#arrowUp" x="0" y="0" onmousedown="handlePan(0,-1)"/>
  <use id="arrowright" xlink:href="#arrowRight" x="0" y="0" onmousedown="handlePan(1,0)"/>
  <use id="arrowdown" xlink:href="#arrowDown" x="0" y="0" onmousedown="handlePan(0,1)"/>
  <use id="arrowleft" xlink:href="#arrowLeft" x="0" y="0" onmousedown="handlePan(-1,0)"/>
</g>
<svg viewBox="0 0 15 15" width="100%" height="30px" preserveAspectRatio="xMaxYMin meet">
 <g id="arrow_out" transform="scale(0.3 0.3)">
  <a xlink:href="ie__device__common_8c_ae4ac15a3b8fea25568b8cdeb2cd781fe_cgraph_org.svg" target="_base">
   <rect id="button" ry="5" rx="5" y="6" x="6" height="38" width="38"
        fill="#f2f5e9" fill-opacity="0.5" stroke="#606060" stroke-width="1.0"/>
   <path id="arrow"
     d="M 11.500037,31.436501 C 11.940474,20.09759 22.043105,11.32322 32.158766,21.979434 L 37.068811,17.246167 C 37.068811,17.246167 37.088388,32 37.088388,32 L 22.160133,31.978069 C 22.160133,31.978069 26.997745,27.140456 26.997745,27.140456 C 18.528582,18.264221 13.291696,25.230495 11.500037,31.436501 z"
     style="fill:#404040;"/>
  </a>
 </g>
</svg>

<style type='text/css'>
<![CDATA[
[data-mouse-over-selected='false'] { opacity: 0.7; }
[data-mouse-over-selected='true']  { opacity: 1.0; }
]]>
</style>
<script type="application/ecmascript"><![CDATA[
document.addEventListener('DOMContentLoaded', (event) => {
  highlightEdges();
  highlightAdjacentNodes();
});
]]></script>
</svg>
