<?xml version="1.0" encoding="UTF-8" standalone="no"?>
<!DOCTYPE svg PUBLIC "-//W3C//DTD SVG 1.1//EN"
 "http://www.w3.org/Graphics/SVG/1.1/DTD/svg11.dtd">
<!-- Generated by graphviz version 12.2.1 (20241206.2353)
 -->
<!-- Title: ze_destroy_c Pages: 1 -->
<svg width="708pt" height="158pt"
 viewBox="0.00 0.00 707.75 157.79" xmlns="http://www.w3.org/2000/svg" xmlns:xlink="http://www.w3.org/1999/xlink">
<g id="graph0" class="graph" transform="scale(1 1) rotate(0) translate(4 153.79)">
<title>ze_destroy_c</title>
<!-- Node1 -->
<g id="Node000001" class="node">
<title>Node1</title>
<g id="a_Node000001"><a xlink:title="Destroy Level Zero implementation and close loader handle.">
<polygon fill="#999999" stroke="#666666" points="699.75,-65.79 620,-65.79 620,-45.04 699.75,-45.04 699.75,-65.79"/>
<text text-anchor="middle" x="659.88" y="-52.29" font-family="Helvetica,sans-Serif" font-size="10.00">ze_destroy_c</text>
</a>
</g>
</g>
<!-- Node2 -->
<g id="Node000002" class="node">
<title>Node2</title>
<g id="a_Node000002"><a xlink:href="ie__device__common_8c.html#a6877d362577444879b41090af23950d6" target="_top" xlink:title="Attempt to construct a Level Zero backend via dlopen (stub).">
<polygon fill="white" stroke="#666666" points="584,-65.79 502,-65.79 502,-45.04 584,-45.04 584,-65.79"/>
<text text-anchor="middle" x="543" y="-52.29" font-family="Helvetica,sans-Serif" font-size="10.00">ze_try_create</text>
</a>
</g>
</g>
<!-- Node1&#45;&gt;Node2 -->
<g id="edge1_Node000001_Node000002" class="edge">
<title>Node1&#45;&gt;Node2</title>
<g id="a_edge1_Node000001_Node000002"><a xlink:title=" ">
<path fill="none" stroke="#63b8ff" d="M608.41,-55.42C600.31,-55.42 592.02,-55.42 584.21,-55.42"/>
<polygon fill="#63b8ff" stroke="#63b8ff" points="608.15,-58.92 618.15,-55.42 608.15,-51.92 608.15,-58.92"/>
</a>
</g>
</g>
<!-- Node3 -->
<g id="Node000003" class="node">
<title>Node3</title>
<g id="a_Node000003"><a xlink:href="ie__device__common_8c.html#a3e42fcc4b9579a9bf14520cb1afe733b" target="_top" xlink:title="Create a device handle for the requested kind (with fallback).">
<polygon fill="white" stroke="#666666" points="466,-65.79 367.5,-65.79 367.5,-45.04 466,-45.04 466,-65.79"/>
<text text-anchor="middle" x="416.75" y="-52.29" font-family="Helvetica,sans-Serif" font-size="10.00">ie_device_create</text>
</a>
</g>
</g>
<!-- Node2&#45;&gt;Node3 -->
<g id="edge2_Node000002_Node000003" class="edge">
<title>Node2&#45;&gt;Node3</title>
<g id="a_edge2_Node000002_Node000003"><a xlink:title=" ">
<path fill="none" stroke="#63b8ff" d="M490.2,-55.42C482.23,-55.42 474.02,-55.42 466.12,-55.42"/>
<polygon fill="#63b8ff" stroke="#63b8ff" points="490.15,-58.92 500.15,-55.42 490.15,-51.92 490.15,-58.92"/>
</a>
</g>
</g>
<!-- Node4 -->
<g id="Node000004" class="node">
<title>Node4</title>
<g id="a_Node000004"><a xlink:href="ie__device__common_8c.html#af9a99d92974f072775057b5def388b77" target="_top" xlink:title="Device&#45;side GEMV (FP32): y = W * x (+ optional bias).">
<polygon fill="white" stroke="#666666" points="331.5,-131.79 215,-131.79 215,-111.04 331.5,-111.04 331.5,-131.79"/>
<text text-anchor="middle" x="273.25" y="-118.29" font-family="Helvetica,sans-Serif" font-size="10.00">ie_device_gemv_f32</text>
</a>
</g>
</g>
<!-- Node3&#45;&gt;Node4 -->
<g id="edge3_Node000003_Node000004" class="edge">
<title>Node3&#45;&gt;Node4</title>
<g id="a_edge3_Node000003_Node000004"><a xlink:title=" ">
<path fill="none" stroke="#63b8ff" d="M385.33,-71.18C369.42,-79.28 349.54,-89.15 331.5,-97.42 321.7,-101.91 310.82,-106.55 301.2,-110.54"/>
<polygon fill="#63b8ff" stroke="#63b8ff" points="386.5,-74.51 393.81,-66.84 383.31,-68.28 386.5,-74.51"/>
</a>
</g>
</g>
<!-- Node5 -->
<g id="Node000005" class="node">
<title>Node5</title>
<g id="a_Node000005"><a xlink:href="test__device_8c.html#a548e6227513ac3fd772219dad3b0de22" target="_top" xlink:title="Ensure GPU request gracefully falls back to a working GEMV.">
<polygon fill="white" stroke="#666666" points="179,-93.79 76.75,-93.79 76.75,-73.04 179,-73.04 179,-93.79"/>
<text text-anchor="middle" x="127.88" y="-80.29" font-family="Helvetica,sans-Serif" font-size="10.00">test_gpu_fallback</text>
</a>
</g>
</g>
<!-- Node3&#45;&gt;Node5 -->
<g id="edge11_Node000003_Node000005" class="edge">
<title>Node3&#45;&gt;Node5</title>
<g id="a_edge11_Node000003_Node000005"><a xlink:title=" ">
<path fill="none" stroke="#63b8ff" d="M355.79,-61.92C347.63,-62.77 339.36,-63.63 331.5,-64.42 279.65,-69.62 220.28,-75.13 179.27,-78.87"/>
<polygon fill="#63b8ff" stroke="#63b8ff" points="356.12,-65.4 365.7,-60.87 355.38,-58.44 356.12,-65.4"/>
</a>
</g>
</g>
<!-- Node7 -->
<g id="Node000007" class="node">
<title>Node7</title>
<g id="a_Node000007"><a xlink:href="ie__device__common_8c.html#ad8fe47f93fa5e18c7cf07a153f1de2fb" target="_top" xlink:title="Copy memory using the device backend.">
<polygon fill="white" stroke="#666666" points="328.5,-37.79 218,-37.79 218,-17.04 328.5,-17.04 328.5,-37.79"/>
<text text-anchor="middle" x="273.25" y="-24.29" font-family="Helvetica,sans-Serif" font-size="10.00">ie_device_memcpy</text>
</a>
</g>
</g>
<!-- Node3&#45;&gt;Node7 -->
<g id="edge7_Node000003_Node000007" class="edge">
<title>Node3&#45;&gt;Node7</title>
<g id="a_edge7_Node000003_Node000007"><a xlink:title=" ">
<path fill="none" stroke="#63b8ff" d="M355.87,-43.57C346.91,-41.79 337.71,-39.97 328.86,-38.22"/>
<polygon fill="#63b8ff" stroke="#63b8ff" points="355.08,-46.98 365.57,-45.49 356.44,-40.11 355.08,-46.98"/>
</a>
</g>
</g>
<!-- Node8 -->
<g id="Node000008" class="node">
<title>Node8</title>
<g id="a_Node000008"><a xlink:href="test__device_8c.html#a7b62f3db43117555c60ec59d19c7c8d6" target="_top" xlink:title="Verify CPU device exposes GEMV capability.">
<polygon fill="white" stroke="#666666" points="170.38,-27.79 85.38,-27.79 85.38,-7.04 170.38,-7.04 170.38,-27.79"/>
<text text-anchor="middle" x="127.88" y="-14.29" font-family="Helvetica,sans-Serif" font-size="10.00">test_cpu_caps</text>
</a>
</g>
</g>
<!-- Node3&#45;&gt;Node8 -->
<g id="edge9_Node000003_Node000008" class="edge">
<title>Node3&#45;&gt;Node8</title>
<g id="a_edge9_Node000003_Node000008"><a xlink:title=" ">
<path fill="none" stroke="#63b8ff" d="M392.62,-38.25C376.43,-27.33 353.78,-14.21 331.5,-8.42 277.31,5.68 212.27,-1.21 170.76,-8.45"/>
<polygon fill="#63b8ff" stroke="#63b8ff" points="390.37,-40.94 400.57,-43.8 394.38,-35.2 390.37,-40.94"/>
</a>
</g>
</g>
<!-- Node4&#45;&gt;Node4 -->
<g id="edge4_Node000004_Node000004" class="edge">
<title>Node4&#45;&gt;Node4</title>
<g id="a_edge4_Node000004_Node000004"><a xlink:title=" ">
<path fill="none" stroke="#63b8ff" d="M298.5,-143.28C295.16,-147.12 286.74,-149.79 273.25,-149.79 248.59,-149.79 240.88,-140.85 250.13,-132.19"/>
<polygon fill="#63b8ff" stroke="#63b8ff" points="301.98,-142.84 296.66,-133.67 295.11,-144.15 301.98,-142.84"/>
</a>
</g>
</g>
<!-- Node4&#45;&gt;Node5 -->
<g id="edge5_Node000004_Node000005" class="edge">
<title>Node4&#45;&gt;Node5</title>
<g id="a_edge5_Node000004_Node000005"><a xlink:title=" ">
<path fill="none" stroke="#63b8ff" d="M220.79,-107.78C203.99,-103.32 185.58,-98.44 169.68,-94.23"/>
<polygon fill="#63b8ff" stroke="#63b8ff" points="219.52,-111.06 230.08,-110.24 221.32,-104.29 219.52,-111.06"/>
</a>
</g>
</g>
<!-- Node6 -->
<g id="Node000006" class="node">
<title>Node6</title>
<g id="a_Node000006"><a xlink:href="test__device_8c.html#a840291bc02cba5474a4cb46a9b9566fe" target="_top" xlink:title="Test entry point.">
<polygon fill="white" stroke="#666666" points="40.75,-46.79 0,-46.79 0,-26.04 40.75,-26.04 40.75,-46.79"/>
<text text-anchor="middle" x="20.38" y="-33.29" font-family="Helvetica,sans-Serif" font-size="10.00">main</text>
</a>
</g>
</g>
<!-- Node5&#45;&gt;Node6 -->
<g id="edge6_Node000005_Node000006" class="edge">
<title>Node5&#45;&gt;Node6</title>
<g id="a_edge6_Node000005_Node000006"><a xlink:title=" ">
<path fill="none" stroke="#63b8ff" d="M92.55,-68.12C75.56,-60.55 55.66,-51.69 41.23,-45.26"/>
<polygon fill="#63b8ff" stroke="#63b8ff" points="90.73,-71.14 101.29,-72.02 93.58,-64.75 90.73,-71.14"/>
</a>
</g>
</g>
<!-- Node7&#45;&gt;Node7 -->
<g id="edge8_Node000007_Node000007" class="edge">
<title>Node7&#45;&gt;Node7</title>
<g id="a_edge8_Node000007_Node000007"><a xlink:title=" ">
<path fill="none" stroke="#63b8ff" d="M298.5,-49.28C295.16,-53.12 286.74,-55.79 273.25,-55.79 248.59,-55.79 240.88,-46.85 250.13,-38.19"/>
<polygon fill="#63b8ff" stroke="#63b8ff" points="301.98,-48.84 296.66,-39.67 295.11,-50.15 301.98,-48.84"/>
</a>
</g>
</g>
<!-- Node8&#45;&gt;Node6 -->
<g id="edge10_Node000008_Node000006" class="edge">
<title>Node8&#45;&gt;Node6</title>
<g id="a_edge10_Node000008_Node000006"><a xlink:title=" ">
<path fill="none" stroke="#63b8ff" d="M73.8,-26.97C62.17,-29.07 50.57,-31.16 41.24,-32.84"/>
<polygon fill="#63b8ff" stroke="#63b8ff" points="74.16,-30.46 83.39,-25.25 72.92,-23.58 74.16,-30.46"/>
</a>
</g>
</g>
</g>
</svg>
