<?xml version="1.0" encoding="UTF-8" standalone="no"?>
<!DOCTYPE svg PUBLIC "-//W3C//DTD SVG 1.1//EN"
 "http://www.w3.org/Graphics/SVG/1.1/DTD/svg11.dtd">
<!-- Generated by graphviz version 2.43.0 (0)
 -->
<!-- Title: ie_act_i8_params_from_minmax Pages: 1 -->
<svg width="764pt" height="177pt"
 viewBox="0.00 0.00 764.00 177.00" xmlns="http://www.w3.org/2000/svg" xmlns:xlink="http://www.w3.org/1999/xlink">
<g id="graph0" class="graph" transform="scale(1 1) rotate(0) translate(4 173)">
<title>ie_act_i8_params_from_minmax</title>
<!-- Node1 -->
<g id="Node000001" class="node">
<title>Node1</title>
<g id="a_Node000001"><a xlink:title="Compute per&#45;tensor INT8 parameters from observed min/max.">
<polygon fill="#999999" stroke="#666666" points="756,-107.5 625,-107.5 625,-77.5 756,-77.5 756,-107.5"/>
<text text-anchor="start" x="633" y="-95.5" font-family="Helvetica,sans-Serif" font-size="10.00">ie_act_i8_params_from</text>
<text text-anchor="middle" x="690.5" y="-84.5" font-family="Helvetica,sans-Serif" font-size="10.00">_minmax</text>
</a>
</g>
</g>
<!-- Node2 -->
<g id="Node000002" class="node">
<title>Node2</title>
<g id="a_Node000002"><a xlink:href="microbench__act__path_8c.html#aa8d8e89d147a706279cd7995fcc08571" target="_top" xlink:title=" ">
<polygon fill="white" stroke="#666666" points="556.5,-169 486.5,-169 486.5,-150 556.5,-150 556.5,-169"/>
<text text-anchor="middle" x="521.5" y="-157" font-family="Helvetica,sans-Serif" font-size="10.00">bench_int8</text>
</a>
</g>
</g>
<!-- Node1&#45;&gt;Node2 -->
<g id="edge1_Node000001_Node000002" class="edge">
<title>Node1&#45;&gt;Node2</title>
<g id="a_edge1_Node000001_Node000002"><a xlink:title=" ">
<path fill="none" stroke="#63b8ff" d="M652,-112.25C633.38,-121.58 610.35,-132.42 589,-140.5 578.67,-144.41 567.18,-147.97 556.69,-150.91"/>
<polygon fill="#63b8ff" stroke="#63b8ff" points="653.7,-115.32 661.03,-107.67 650.53,-109.07 653.7,-115.32"/>
</a>
</g>
</g>
<!-- Node4 -->
<g id="Node000004" class="node">
<title>Node4</title>
<g id="a_Node000004"><a xlink:href="act__int8_8c.html#ad17e6b199c1c826b681db341c72701ef" target="_top" xlink:title="Compute per&#45;group INT8 parameters from data.">
<polygon fill="white" stroke="#666666" points="589,-131.5 454,-131.5 454,-101.5 589,-101.5 589,-131.5"/>
<text text-anchor="start" x="462" y="-119.5" font-family="Helvetica,sans-Serif" font-size="10.00">ie_act_i8_group_params</text>
<text text-anchor="middle" x="521.5" y="-108.5" font-family="Helvetica,sans-Serif" font-size="10.00">_from_data</text>
</a>
</g>
</g>
<!-- Node1&#45;&gt;Node4 -->
<g id="edge3_Node000001_Node000004" class="edge">
<title>Node1&#45;&gt;Node4</title>
<g id="a_edge3_Node000001_Node000004"><a xlink:title=" ">
<path fill="none" stroke="#63b8ff" d="M614.92,-103.22C606.32,-104.45 597.59,-105.71 589.1,-106.93"/>
<polygon fill="#63b8ff" stroke="#63b8ff" points="615.53,-106.67 624.93,-101.78 614.54,-99.74 615.53,-106.67"/>
</a>
</g>
</g>
<!-- Node11 -->
<g id="Node000011" class="node">
<title>Node11</title>
<g id="a_Node000011"><a xlink:href="kv__cache_8c.html#a60418a220d683776a9ff5e04783e67d6" target="_top" xlink:title="Store a token&#39;s K/V slice into an INT8 cache using per&#45;tensor params.">
<polygon fill="white" stroke="#666666" points="586,-83.5 457,-83.5 457,-53.5 586,-53.5 586,-83.5"/>
<text text-anchor="start" x="465" y="-71.5" font-family="Helvetica,sans-Serif" font-size="10.00">ie_kv_store_token_int8</text>
<text text-anchor="middle" x="521.5" y="-60.5" font-family="Helvetica,sans-Serif" font-size="10.00">_per_tensor</text>
</a>
</g>
</g>
<!-- Node1&#45;&gt;Node11 -->
<g id="edge10_Node000001_Node000011" class="edge">
<title>Node1&#45;&gt;Node11</title>
<g id="a_edge10_Node000001_Node000011"><a xlink:title=" ">
<path fill="none" stroke="#63b8ff" d="M614.96,-81.79C605.32,-80.4 595.51,-78.99 586.07,-77.64"/>
<polygon fill="#63b8ff" stroke="#63b8ff" points="614.54,-85.26 624.93,-83.22 615.53,-78.33 614.54,-85.26"/>
</a>
</g>
</g>
<!-- Node12 -->
<g id="Node000012" class="node">
<title>Node12</title>
<g id="a_Node000012"><a xlink:href="test__act__quant_8c.html#a83ac16910c5fbcf8d045ba1a01bc2604" target="_top" xlink:title=" ">
<polygon fill="white" stroke="#666666" points="411.5,-38 295.5,-38 295.5,-19 411.5,-19 411.5,-38"/>
<text text-anchor="middle" x="353.5" y="-26" font-family="Helvetica,sans-Serif" font-size="10.00">test_int8_per_tensor</text>
</a>
</g>
</g>
<!-- Node1&#45;&gt;Node12 -->
<g id="edge11_Node000001_Node000012" class="edge">
<title>Node1&#45;&gt;Node12</title>
<g id="a_edge11_Node000001_Node000012"><a xlink:title=" ">
<path fill="none" stroke="#63b8ff" d="M655.67,-72.38C636.73,-62.16 612.3,-50.62 589,-44.5 530,-29 459.93,-26.15 411.85,-26.46"/>
<polygon fill="#63b8ff" stroke="#63b8ff" points="654.05,-75.49 664.5,-77.27 657.44,-69.36 654.05,-75.49"/>
</a>
</g>
</g>
<!-- Node3 -->
<g id="Node000003" class="node">
<title>Node3</title>
<g id="a_Node000003"><a xlink:href="microbench__act__path_8c.html#a3c04138a5bfe5d72780bb7e82a18e627" target="_top" xlink:title=" ">
<polygon fill="white" stroke="#666666" points="374,-169 333,-169 333,-150 374,-150 374,-169"/>
<text text-anchor="middle" x="353.5" y="-157" font-family="Helvetica,sans-Serif" font-size="10.00">main</text>
</a>
</g>
</g>
<!-- Node2&#45;&gt;Node3 -->
<g id="edge2_Node000002_Node000003" class="edge">
<title>Node2&#45;&gt;Node3</title>
<g id="a_edge2_Node000002_Node000003"><a xlink:title=" ">
<path fill="none" stroke="#63b8ff" d="M475.76,-159.5C442.67,-159.5 399.18,-159.5 374.29,-159.5"/>
<polygon fill="#63b8ff" stroke="#63b8ff" points="476.1,-163 486.1,-159.5 476.1,-156 476.1,-163"/>
</a>
</g>
</g>
<!-- Node5 -->
<g id="Node000005" class="node">
<title>Node5</title>
<g id="a_Node000005"><a xlink:href="kv__cache_8c.html#a5b546a5423f4572607a07d8d55146024" target="_top" xlink:title="Store a token&#39;s K/V slice into an INT8 cache using per&#45;group params.">
<polygon fill="white" stroke="#666666" points="418,-131.5 289,-131.5 289,-101.5 418,-101.5 418,-131.5"/>
<text text-anchor="start" x="297" y="-119.5" font-family="Helvetica,sans-Serif" font-size="10.00">ie_kv_store_token_int8</text>
<text text-anchor="middle" x="353.5" y="-108.5" font-family="Helvetica,sans-Serif" font-size="10.00">_per_group</text>
</a>
</g>
</g>
<!-- Node4&#45;&gt;Node5 -->
<g id="edge4_Node000004_Node000005" class="edge">
<title>Node4&#45;&gt;Node5</title>
<g id="a_edge4_Node000004_Node000005"><a xlink:title=" ">
<path fill="none" stroke="#63b8ff" d="M443.88,-116.5C435.26,-116.5 426.54,-116.5 418.11,-116.5"/>
<polygon fill="#63b8ff" stroke="#63b8ff" points="443.94,-120 453.94,-116.5 443.94,-113 443.94,-120"/>
</a>
</g>
</g>
<!-- Node6 -->
<g id="Node000006" class="node">
<title>Node6</title>
<g id="a_Node000006"><a xlink:href="test__act__quant_8c.html#a21e36220792f5bceb2c110dc45605c5e" target="_top" xlink:title=" ">
<polygon fill="white" stroke="#666666" points="410,-80 297,-80 297,-61 410,-61 410,-80"/>
<text text-anchor="middle" x="353.5" y="-68" font-family="Helvetica,sans-Serif" font-size="10.00">test_int8_per_group</text>
</a>
</g>
</g>
<!-- Node4&#45;&gt;Node6 -->
<g id="edge5_Node000004_Node000006" class="edge">
<title>Node4&#45;&gt;Node6</title>
<g id="a_edge5_Node000004_Node000006"><a xlink:title=" ">
<path fill="none" stroke="#63b8ff" d="M456.47,-98.76C433.57,-92.41 408.62,-85.5 389.13,-80.1"/>
<polygon fill="#63b8ff" stroke="#63b8ff" points="455.57,-102.14 466.15,-101.44 457.44,-95.39 455.57,-102.14"/>
</a>
</g>
</g>
<!-- Node7 -->
<g id="Node000007" class="node">
<title>Node7</title>
<g id="a_Node000007"><a xlink:href="test__act__quant_8c.html#a840291bc02cba5474a4cb46a9b9566fe" target="_top" xlink:title=" ">
<polygon fill="white" stroke="#666666" points="253,-56 212,-56 212,-37 253,-37 253,-56"/>
<text text-anchor="middle" x="232.5" y="-44" font-family="Helvetica,sans-Serif" font-size="10.00">main</text>
</a>
</g>
</g>
<!-- Node6&#45;&gt;Node7 -->
<g id="edge6_Node000006_Node000007" class="edge">
<title>Node6&#45;&gt;Node7</title>
<g id="a_edge6_Node000006_Node000007"><a xlink:title=" ">
<path fill="none" stroke="#63b8ff" d="M295.23,-58.95C280.07,-55.89 264.72,-52.8 253.11,-50.46"/>
<polygon fill="#63b8ff" stroke="#63b8ff" points="294.63,-62.4 305.13,-60.95 296.02,-55.54 294.63,-62.4"/>
</a>
</g>
</g>
<!-- Node8 -->
<g id="Node000008" class="node">
<title>Node8</title>
<g id="a_Node000008"><a xlink:href="namespacerun__harness__report.html#a44f04d3bd6b98ff6d40eb3d01c1c63d1" target="_top" xlink:title=" ">
<polygon fill="white" stroke="#666666" points="157,-93 19,-93 19,-74 157,-74 157,-93"/>
<text text-anchor="middle" x="88" y="-81" font-family="Helvetica,sans-Serif" font-size="10.00">run_harness_report.main</text>
</a>
</g>
</g>
<!-- Node7&#45;&gt;Node8 -->
<g id="edge7_Node000007_Node000008" class="edge">
<title>Node7&#45;&gt;Node8</title>
<g id="a_edge7_Node000007_Node000008"><a xlink:title=" ">
<path fill="none" stroke="#63b8ff" d="M202.45,-57.21C193.99,-60.12 184.68,-63.13 176,-65.5 164.69,-68.59 152.43,-71.43 140.78,-73.9"/>
<polygon fill="#63b8ff" stroke="#63b8ff" points="203.64,-60.51 211.91,-53.88 201.31,-53.9 203.64,-60.51"/>
</a>
</g>
</g>
<!-- Node9 -->
<g id="Node000009" class="node">
<title>Node9</title>
<g id="a_Node000009"><a xlink:href="namespacegenerate__expected__tokens.html#ad6ceee9df7d5cc27d83e6a14f56c09af" target="_top" xlink:title=" ">
<polygon fill="white" stroke="#666666" points="176,-56 0,-56 0,-37 176,-37 176,-56"/>
<text text-anchor="middle" x="88" y="-44" font-family="Helvetica,sans-Serif" font-size="10.00">generate_expected_tokens.main</text>
</a>
</g>
</g>
<!-- Node7&#45;&gt;Node9 -->
<g id="edge8_Node000007_Node000009" class="edge">
<title>Node7&#45;&gt;Node9</title>
<g id="a_edge8_Node000007_Node000009"><a xlink:title=" ">
<path fill="none" stroke="#63b8ff" d="M201.81,-46.5C194.1,-46.5 185.38,-46.5 176.3,-46.5"/>
<polygon fill="#63b8ff" stroke="#63b8ff" points="201.98,-50 211.98,-46.5 201.98,-43 201.98,-50"/>
</a>
</g>
</g>
<!-- Node10 -->
<g id="Node000010" class="node">
<title>Node10</title>
<g id="a_Node000010"><a xlink:href="namespaceprompts__normalize.html#a80275919158749e882f08f36b7aaf306" target="_top" xlink:title=" ">
<polygon fill="white" stroke="#666666" points="157.5,-19 18.5,-19 18.5,0 157.5,0 157.5,-19"/>
<text text-anchor="middle" x="88" y="-7" font-family="Helvetica,sans-Serif" font-size="10.00">prompts_normalize.main</text>
</a>
</g>
</g>
<!-- Node7&#45;&gt;Node10 -->
<g id="edge9_Node000007_Node000010" class="edge">
<title>Node7&#45;&gt;Node10</title>
<g id="a_edge9_Node000007_Node000010"><a xlink:title=" ">
<path fill="none" stroke="#63b8ff" d="M202.45,-35.79C193.99,-32.88 184.68,-29.87 176,-27.5 164.69,-24.41 152.43,-21.57 140.78,-19.1"/>
<polygon fill="#63b8ff" stroke="#63b8ff" points="201.31,-39.1 211.91,-39.12 203.64,-32.49 201.31,-39.1"/>
</a>
</g>
</g>
<!-- Node12&#45;&gt;Node7 -->
<g id="edge12_Node000012_Node000007" class="edge">
<title>Node12&#45;&gt;Node7</title>
<g id="a_edge12_Node000012_Node000007"><a xlink:title=" ">
<path fill="none" stroke="#63b8ff" d="M285.43,-38.65C273.58,-40.44 262.13,-42.17 253.02,-43.55"/>
<polygon fill="#63b8ff" stroke="#63b8ff" points="286.08,-42.09 295.44,-37.13 285.03,-35.17 286.08,-42.09"/>
</a>
</g>
</g>
</g>
</svg>
