<?xml version="1.0" encoding="UTF-8" standalone="no"?>
<!DOCTYPE svg PUBLIC "-//W3C//DTD SVG 1.1//EN"
 "http://www.w3.org/Graphics/SVG/1.1/DTD/svg11.dtd">
<!-- Generated by graphviz version 2.43.0 (0)
 -->
<!-- Title: ie_kv_add_hits Pages: 1 -->
<!--zoomable 119 -->

<svg id="main" version="1.1" xmlns="http://www.w3.org/2000/svg" xmlns:xlink="http://www.w3.org/1999/xlink" xml:space="preserve" onload="init(evt)">
<style type="text/css"><![CDATA[
.node, .edge {opacity: 0.7;}
.node.selected, .edge.selected {opacity: 1;}
.edge:hover path { stroke: red; }
.edge:hover polygon { stroke: red; fill: red; }
]]></style>

<defs>
  <circle id="rim" cx="0" cy="0" r="7"/>
  <circle id="rim2" cx="0" cy="0" r="3.5"/>
  <g id="zoomPlus">
    <use xlink:href="#rim" fill="#404040"><set attributeName="fill" to="#808080" begin="zoomplus.mouseover" end="zoomplus.mouseout"/></use>
    <path d="M-4,0h8M0,-4v8" fill="none" stroke="white" stroke-width="1.5" pointer-events="none"/>
  </g>
  <g id="zoomMin">
    <use xlink:href="#rim" fill="#404040"><set attributeName="fill" to="#808080" begin="zoomminus.mouseover" end="zoomminus.mouseout"/></use>
    <path d="M-4,0h8" fill="none" stroke="white" stroke-width="1.5" pointer-events="none"/>
  </g>
  <g id="arrowUp" transform="translate(30 24)">
    <use xlink:href="#rim"/>
    <path pointer-events="none" fill="none" stroke="white" stroke-width="1.5" d="M0,-3.0v7 M-2.5,-0.5L0,-3.0L2.5,-0.5"/>
  </g>
  <g id="arrowRight" transform="rotate(90) translate(36 -43)">
    <use xlink:href="#rim"/>
    <path pointer-events="none" fill="none" stroke="white" stroke-width="1.5" d="M0,-3.0v7 M-2.5,-0.5L0,-3.0L2.5,-0.5"/>
  </g>
  <g id="arrowDown" transform="rotate(180) translate(-30 -48)">
    <use xlink:href="#rim"/>
    <path pointer-events="none" fill="none" stroke="white" stroke-width="1.5" d="M0,-3.0v7 M-2.5,-0.5L0,-3.0L2.5,-0.5"/>
  </g>
  <g id="arrowLeft" transform="rotate(270) translate(-36 17)">
    <use xlink:href="#rim"/>
    <path pointer-events="none" fill="none" stroke="white" stroke-width="1.5" d="M0,-3.0v7 M-2.5,-0.5L0,-3.0L2.5,-0.5"/>
  </g>
  <g id="resetDef">
    <use xlink:href="#rim2" fill="#404040"><set attributeName="fill" to="#808080" begin="reset.mouseover" end="reset.mouseout"/></use>
  </g>
</defs>
<script type="application/ecmascript">
var viewWidth = 809;
var viewHeight = 119;
var sectionId = 'dynsection-1';
</script>
<script type="application/ecmascript" xlink:href="svg.min.js"/>
<svg id="graph" class="graph">
<g id="viewport">
<title>ie_kv_add_hits</title>
<!-- Node1 -->
<g id="Node000001" class="node">
<title>Node1</title>
<g id="a_Node000001"><a xlink:title="Add to the KV &quot;hit&quot; counter.">
<polygon fill="#999999" stroke="#666666" points="801,-37 712,-37 712,-18 801,-18 801,-37"/>
<text text-anchor="middle" x="756.5" y="-25" font-family="Helvetica,sans-Serif" font-size="10.00">ie_kv_add_hits</text>
</a>
</g>
</g>
<!-- Node2 -->
<g id="Node000002" class="node">
<title>Node2</title>
<g id="a_Node000002"><a xlink:href="infer__gptoss_8c.html#a463151430d9b4dce6eae9210c3c598f0" target="_top" xlink:title=" ">
<polygon fill="white" stroke="#666666" points="676,-56 552,-56 552,-37 676,-37 676,-56"/>
<text text-anchor="middle" x="614" y="-44" font-family="Helvetica,sans-Serif" font-size="10.00">ie_forward_one_token</text>
</a>
</g>
</g>
<!-- Node1&#45;&gt;Node2 -->
<g id="edge1_Node000001_Node000002" class="edge">
<title>Node1&#45;&gt;Node2</title>
<g id="a_edge1_Node000001_Node000002"><a xlink:title=" ">
<path fill="none" stroke="#63b8ff" d="M701.8,-34.76C693.43,-35.89 684.72,-37.07 676.2,-38.22"/>
<polygon fill="#63b8ff" stroke="#63b8ff" points="702.37,-38.22 711.82,-33.41 701.44,-31.28 702.37,-38.22"/>
</a>
</g>
</g>
<!-- Node10 -->
<g id="Node000010" class="node">
<title>Node10</title>
<g id="a_Node000010"><a xlink:href="kv__cache_8c.html#ab881936b3269214a8b76239dd79f5a29" target="_top" xlink:title="Report KV hit to instrumentation layers.">
<polygon fill="white" stroke="#666666" points="670.5,-19 557.5,-19 557.5,0 670.5,0 670.5,-19"/>
<text text-anchor="middle" x="614" y="-7" font-family="Helvetica,sans-Serif" font-size="10.00">ie_kv_hit_add_local</text>
</a>
</g>
</g>
<!-- Node1&#45;&gt;Node10 -->
<g id="edge12_Node000001_Node000010" class="edge">
<title>Node1&#45;&gt;Node10</title>
<g id="a_edge12_Node000001_Node000010"><a xlink:title=" ">
<path fill="none" stroke="#63b8ff" d="M701.79,-20.62C691.57,-19.31 680.85,-17.94 670.58,-16.62"/>
<polygon fill="#63b8ff" stroke="#63b8ff" points="701.45,-24.1 711.82,-21.9 702.34,-17.16 701.45,-24.1"/>
</a>
</g>
</g>
<!-- Node3 -->
<g id="Node000003" class="node">
<title>Node3</title>
<g id="a_Node000003"><a xlink:href="infer__gptoss_8c.html#a39827a388a0b7dd6d161e99b111c5546" target="_top" xlink:title="Prefill: consume a prompt, update the KV cache, and produce logits.">
<polygon fill="white" stroke="#666666" points="516,-93 392,-93 392,-74 516,-74 516,-93"/>
<text text-anchor="middle" x="454" y="-81" font-family="Helvetica,sans-Serif" font-size="10.00">ie_gptoss_infer_prefill</text>
</a>
</g>
</g>
<!-- Node2&#45;&gt;Node3 -->
<g id="edge2_Node000002_Node000003" class="edge">
<title>Node2&#45;&gt;Node3</title>
<g id="a_edge2_Node000002_Node000003"><a xlink:title=" ">
<path fill="none" stroke="#63b8ff" d="M562.37,-58.36C540.87,-63.39 516.13,-69.18 495.83,-73.94"/>
<polygon fill="#63b8ff" stroke="#63b8ff" points="563.37,-61.72 572.31,-56.03 561.78,-54.9 563.37,-61.72"/>
</a>
</g>
</g>
<!-- Node9 -->
<g id="Node000009" class="node">
<title>Node9</title>
<g id="a_Node000009"><a xlink:href="infer__gptoss_8c.html#a52a0e33daf64ca5524b6440cecc8d2f6" target="_top" xlink:title="Step: consume one token, update the KV cache, and produce next logits.">
<polygon fill="white" stroke="#666666" points="512.5,-56 395.5,-56 395.5,-37 512.5,-37 512.5,-56"/>
<text text-anchor="middle" x="454" y="-44" font-family="Helvetica,sans-Serif" font-size="10.00">ie_gptoss_infer_step</text>
</a>
</g>
</g>
<!-- Node2&#45;&gt;Node9 -->
<g id="edge9_Node000002_Node000009" class="edge">
<title>Node2&#45;&gt;Node9</title>
<g id="a_edge9_Node000002_Node000009"><a xlink:title=" ">
<path fill="none" stroke="#63b8ff" d="M541.8,-46.5C532.01,-46.5 522.06,-46.5 512.56,-46.5"/>
<polygon fill="#63b8ff" stroke="#63b8ff" points="541.91,-50 551.91,-46.5 541.91,-43 541.91,-50"/>
</a>
</g>
</g>
<!-- Node4 -->
<g id="Node000004" class="node">
<title>Node4</title>
<g id="a_Node000004"><a xlink:href="ie__api_8c.html#a950ac9a0efe5a4fe068a288e57099c4a" target="_top" xlink:title="Generate tokens and optionally return timing statistics.">
<polygon fill="white" stroke="#666666" points="356,-93 226,-93 226,-74 356,-74 356,-93"/>
<text text-anchor="middle" x="291" y="-81" font-family="Helvetica,sans-Serif" font-size="10.00">ie_engine_generate_ex</text>
</a>
</g>
</g>
<!-- Node3&#45;&gt;Node4 -->
<g id="edge3_Node000003_Node000004" class="edge">
<title>Node3&#45;&gt;Node4</title>
<g id="a_edge3_Node000003_Node000004"><a xlink:title=" ">
<path fill="none" stroke="#63b8ff" d="M381.46,-83.5C373.01,-83.5 364.43,-83.5 356.1,-83.5"/>
<polygon fill="#63b8ff" stroke="#63b8ff" points="381.67,-87 391.67,-83.5 381.67,-80 381.67,-87"/>
</a>
</g>
</g>
<!-- Node8 -->
<g id="Node000008" class="node">
<title>Node8</title>
<g id="a_Node000008"><a xlink:href="generate__gptoss_8c.html#a69606d6441b5c86670cfcc955721a308" target="_top" xlink:title="Generate up to max_new tokens for a prompt string using GPT&#45;OSS.">
<polygon fill="white" stroke="#666666" points="347,-56 235,-56 235,-37 347,-37 347,-56"/>
<text text-anchor="middle" x="291" y="-44" font-family="Helvetica,sans-Serif" font-size="10.00">ie_generate_gptoss</text>
</a>
</g>
</g>
<!-- Node3&#45;&gt;Node8 -->
<g id="edge8_Node000003_Node000008" class="edge">
<title>Node3&#45;&gt;Node8</title>
<g id="a_edge8_Node000003_Node000008"><a xlink:title=" ">
<path fill="none" stroke="#63b8ff" d="M401.7,-71.71C379.73,-66.66 354.39,-60.84 333.6,-56.06"/>
<polygon fill="#63b8ff" stroke="#63b8ff" points="401.01,-75.14 411.54,-73.97 402.58,-68.32 401.01,-75.14"/>
</a>
</g>
</g>
<!-- Node5 -->
<g id="Node000005" class="node">
<title>Node5</title>
<g id="a_Node000005"><a xlink:href="ie__api_8c.html#ad32cf2cd209832e4cd577a5a1e31970f" target="_top" xlink:title="Generate up to max_new tokens for the given prompt.">
<polygon fill="white" stroke="#666666" points="190,-74 77,-74 77,-55 190,-55 190,-74"/>
<text text-anchor="middle" x="133.5" y="-62" font-family="Helvetica,sans-Serif" font-size="10.00">ie_engine_generate</text>
</a>
</g>
</g>
<!-- Node4&#45;&gt;Node5 -->
<g id="edge4_Node000004_Node000005" class="edge">
<title>Node4&#45;&gt;Node5</title>
<g id="a_edge4_Node000004_Node000005"><a xlink:title=" ">
<path fill="none" stroke="#63b8ff" d="M215.75,-74.43C207.1,-73.37 198.4,-72.31 190.06,-71.29"/>
<polygon fill="#63b8ff" stroke="#63b8ff" points="215.5,-77.92 225.85,-75.66 216.35,-70.98 215.5,-77.92"/>
</a>
</g>
</g>
<!-- Node6 -->
<g id="Node000006" class="node">
<title>Node6</title>
<g id="a_Node000006"><a xlink:href="main__infer_8c.html#a3c04138a5bfe5d72780bb7e82a18e627" target="_top" xlink:title="main.">
<polygon fill="white" stroke="#666666" points="41,-111 0,-111 0,-92 41,-92 41,-111"/>
<text text-anchor="middle" x="20.5" y="-99" font-family="Helvetica,sans-Serif" font-size="10.00">main</text>
</a>
</g>
</g>
<!-- Node4&#45;&gt;Node6 -->
<g id="edge7_Node000004_Node000006" class="edge">
<title>Node4&#45;&gt;Node6</title>
<g id="a_edge7_Node000004_Node000006"><a xlink:title=" ">
<path fill="none" stroke="#63b8ff" d="M215.59,-88.49C156.2,-92.47 77.18,-97.77 41.04,-100.19"/>
<polygon fill="#63b8ff" stroke="#63b8ff" points="215.94,-91.97 225.69,-87.81 215.48,-84.99 215.94,-91.97"/>
</a>
</g>
</g>
<!-- Node5&#45;&gt;Node6 -->
<g id="edge5_Node000005_Node000006" class="edge">
<title>Node5&#45;&gt;Node6</title>
<g id="a_edge5_Node000005_Node000006"><a xlink:title=" ">
<path fill="none" stroke="#63b8ff" d="M94.32,-77.23C76.46,-83.18 55.94,-90.02 41.24,-94.92"/>
<polygon fill="#63b8ff" stroke="#63b8ff" points="95.53,-80.51 103.91,-74.03 93.32,-73.87 95.53,-80.51"/>
</a>
</g>
</g>
<!-- Node7 -->
<g id="Node000007" class="node">
<title>Node7</title>
<g id="a_Node000007"><a xlink:href="test__api_8c.html#a840291bc02cba5474a4cb46a9b9566fe" target="_top" xlink:title=" ">
<polygon fill="white" stroke="#666666" points="41,-74 0,-74 0,-55 41,-55 41,-74"/>
<text text-anchor="middle" x="20.5" y="-62" font-family="Helvetica,sans-Serif" font-size="10.00">main</text>
</a>
</g>
</g>
<!-- Node5&#45;&gt;Node7 -->
<g id="edge6_Node000005_Node000007" class="edge">
<title>Node5&#45;&gt;Node7</title>
<g id="a_edge6_Node000005_Node000007"><a xlink:title=" ">
<path fill="none" stroke="#63b8ff" d="M66.58,-64.5C57.37,-64.5 48.56,-64.5 41.21,-64.5"/>
<polygon fill="#63b8ff" stroke="#63b8ff" points="66.67,-68 76.67,-64.5 66.67,-61 66.67,-68"/>
</a>
</g>
</g>
<!-- Node9&#45;&gt;Node4 -->
<g id="edge10_Node000009_Node000004" class="edge">
<title>Node9&#45;&gt;Node4</title>
<g id="a_edge10_Node000009_Node000004"><a xlink:title=" ">
<path fill="none" stroke="#63b8ff" d="M401.7,-58.29C379.73,-63.34 354.39,-69.16 333.6,-73.94"/>
<polygon fill="#63b8ff" stroke="#63b8ff" points="402.58,-61.68 411.54,-56.03 401.01,-54.86 402.58,-61.68"/>
</a>
</g>
</g>
<!-- Node9&#45;&gt;Node8 -->
<g id="edge11_Node000009_Node000008" class="edge">
<title>Node9&#45;&gt;Node8</title>
<g id="a_edge11_Node000009_Node000008"><a xlink:title=" ">
<path fill="none" stroke="#63b8ff" d="M385.25,-46.5C372.54,-46.5 359.39,-46.5 347.11,-46.5"/>
<polygon fill="#63b8ff" stroke="#63b8ff" points="385.33,-50 395.33,-46.5 385.33,-43 385.33,-50"/>
</a>
</g>
</g>
<!-- Node11 -->
<g id="Node000011" class="node">
<title>Node11</title>
<g id="a_Node000011"><a xlink:href="kv__cache_8c.html#ac4d09efdefb7662b78e44d9b2127bdcf" target="_top" xlink:title="Load token t as FP32 K/V slices from any storage encoding.">
<polygon fill="white" stroke="#666666" points="515,-19 393,-19 393,0 515,0 515,-19"/>
<text text-anchor="middle" x="454" y="-7" font-family="Helvetica,sans-Serif" font-size="10.00">ie_kv_load_token_f32</text>
</a>
</g>
</g>
<!-- Node10&#45;&gt;Node11 -->
<g id="edge13_Node000010_Node000011" class="edge">
<title>Node10&#45;&gt;Node11</title>
<g id="a_edge13_Node000010_Node000011"><a xlink:title=" ">
<path fill="none" stroke="#63b8ff" d="M547.2,-9.5C536.54,-9.5 525.55,-9.5 515.03,-9.5"/>
<polygon fill="#63b8ff" stroke="#63b8ff" points="547.3,-13 557.3,-9.5 547.3,-6 547.3,-13"/>
</a>
</g>
</g>
</g>
</svg>

<g id="navigator" transform="translate(0 0)" fill="#404254">
  <rect fill="#f2f5e9" fill-opacity="0.5" stroke="#606060" stroke-width=".5" x="0" y="0" width="60" height="60"/>
  <use id="zoomplus" xlink:href="#zoomPlus" x="17" y="9" onmousedown="handleZoom(evt,'in')"/>
  <use id="zoomminus" xlink:href="#zoomMin" x="42" y="9" onmousedown="handleZoom(evt,'out')"/>
  <use id="reset" xlink:href="#resetDef" x="30" y="36" onmousedown="handleReset()"/>
   <use id="arrowup" xlink:href="#arrowUp" x="0" y="0" onmousedown="handlePan(0,-1)"/>
  <use id="arrowright" xlink:href="#arrowRight" x="0" y="0" onmousedown="handlePan(1,0)"/>
  <use id="arrowdown" xlink:href="#arrowDown" x="0" y="0" onmousedown="handlePan(0,1)"/>
  <use id="arrowleft" xlink:href="#arrowLeft" x="0" y="0" onmousedown="handlePan(-1,0)"/>
</g>
<svg viewBox="0 0 15 15" width="100%" height="30px" preserveAspectRatio="xMaxYMin meet">
 <g id="arrow_out" transform="scale(0.3 0.3)">
  <a xlink:href="ie__kv__instrumentation_8c_a9897c8f0778487dbf6988f0253a195a3_icgraph_org.svg" target="_base">
   <rect id="button" ry="5" rx="5" y="6" x="6" height="38" width="38"
        fill="#f2f5e9" fill-opacity="0.5" stroke="#606060" stroke-width="1.0"/>
   <path id="arrow"
     d="M 11.500037,31.436501 C 11.940474,20.09759 22.043105,11.32322 32.158766,21.979434 L 37.068811,17.246167 C 37.068811,17.246167 37.088388,32 37.088388,32 L 22.160133,31.978069 C 22.160133,31.978069 26.997745,27.140456 26.997745,27.140456 C 18.528582,18.264221 13.291696,25.230495 11.500037,31.436501 z"
     style="fill:#404040;"/>
  </a>
 </g>
</svg>

<style type='text/css'>
<![CDATA[
[data-mouse-over-selected='false'] { opacity: 0.7; }
[data-mouse-over-selected='true']  { opacity: 1.0; }
]]>
</style>
<script type="application/ecmascript"><![CDATA[
document.addEventListener('DOMContentLoaded', (event) => {
  highlightEdges();
  highlightAdjacentNodes();
});
]]></script>
</svg>
