<?xml version="1.0" encoding="UTF-8" standalone="no"?>
<!DOCTYPE svg PUBLIC "-//W3C//DTD SVG 1.1//EN"
 "http://www.w3.org/Graphics/SVG/1.1/DTD/svg11.dtd">
<!-- Generated by graphviz version 2.43.0 (0)
 -->
<!-- Title: engine/include/ie_device.h Pages: 1 -->
<!--zoomable 225 -->

<svg id="main" version="1.1" xmlns="http://www.w3.org/2000/svg" xmlns:xlink="http://www.w3.org/1999/xlink" xml:space="preserve" onload="init(evt)">
<style type="text/css"><![CDATA[
.node, .edge {opacity: 0.7;}
.node.selected, .edge.selected {opacity: 1;}
.edge:hover path { stroke: red; }
.edge:hover polygon { stroke: red; fill: red; }
]]></style>

<defs>
  <circle id="rim" cx="0" cy="0" r="7"/>
  <circle id="rim2" cx="0" cy="0" r="3.5"/>
  <g id="zoomPlus">
    <use xlink:href="#rim" fill="#404040"><set attributeName="fill" to="#808080" begin="zoomplus.mouseover" end="zoomplus.mouseout"/></use>
    <path d="M-4,0h8M0,-4v8" fill="none" stroke="white" stroke-width="1.5" pointer-events="none"/>
  </g>
  <g id="zoomMin">
    <use xlink:href="#rim" fill="#404040"><set attributeName="fill" to="#808080" begin="zoomminus.mouseover" end="zoomminus.mouseout"/></use>
    <path d="M-4,0h8" fill="none" stroke="white" stroke-width="1.5" pointer-events="none"/>
  </g>
  <g id="arrowUp" transform="translate(30 24)">
    <use xlink:href="#rim"/>
    <path pointer-events="none" fill="none" stroke="white" stroke-width="1.5" d="M0,-3.0v7 M-2.5,-0.5L0,-3.0L2.5,-0.5"/>
  </g>
  <g id="arrowRight" transform="rotate(90) translate(36 -43)">
    <use xlink:href="#rim"/>
    <path pointer-events="none" fill="none" stroke="white" stroke-width="1.5" d="M0,-3.0v7 M-2.5,-0.5L0,-3.0L2.5,-0.5"/>
  </g>
  <g id="arrowDown" transform="rotate(180) translate(-30 -48)">
    <use xlink:href="#rim"/>
    <path pointer-events="none" fill="none" stroke="white" stroke-width="1.5" d="M0,-3.0v7 M-2.5,-0.5L0,-3.0L2.5,-0.5"/>
  </g>
  <g id="arrowLeft" transform="rotate(270) translate(-36 17)">
    <use xlink:href="#rim"/>
    <path pointer-events="none" fill="none" stroke="white" stroke-width="1.5" d="M0,-3.0v7 M-2.5,-0.5L0,-3.0L2.5,-0.5"/>
  </g>
  <g id="resetDef">
    <use xlink:href="#rim2" fill="#404040"><set attributeName="fill" to="#808080" begin="reset.mouseover" end="reset.mouseout"/></use>
  </g>
</defs>
<script type="application/ecmascript">
var viewWidth = 902;
var viewHeight = 225;
var sectionId = 'dynsection-1';
</script>
<script type="application/ecmascript" xlink:href="svg.min.js"/>
<svg id="graph" class="graph">
<g id="viewport">
<title>engine/include/ie_device.h</title>
<!-- Node1 -->
<g id="Node000001" class="node">
<title>Node1</title>
<g id="a_Node000001"><a xlink:title="Device abstraction for CPU/GPU backends selected at runtime.">
<polygon fill="#999999" stroke="#666666" points="662,-217 516,-217 516,-198 662,-198 662,-217"/>
<text text-anchor="middle" x="589" y="-205" font-family="Helvetica,sans-Serif" font-size="10.00">engine/include/ie_device.h</text>
</a>
</g>
</g>
<!-- Node2 -->
<g id="Node000002" class="node">
<title>Node2</title>
<g id="a_Node000002"><a xlink:href="generate__gptoss_8h.html" target="_top" xlink:title="High&#45;level GPT&#45;OSS token generation loop (prompt &#45;&gt; token IDs) built on ie_gptoss_infer_prefill/step(...">
<polygon fill="white" stroke="#666666" points="134,-96 0,-96 0,-66 134,-66 134,-96"/>
<text text-anchor="start" x="8" y="-84" font-family="Helvetica,sans-Serif" font-size="10.00">engine/include/generate</text>
<text text-anchor="middle" x="67" y="-73" font-family="Helvetica,sans-Serif" font-size="10.00">_gptoss.h</text>
</a>
</g>
</g>
<!-- Node1&#45;&gt;Node2 -->
<g id="edge1_Node000001_Node000002" class="edge">
<title>Node1&#45;&gt;Node2</title>
<g id="a_edge1_Node000001_Node000002"><a xlink:title=" ">
<path fill="none" stroke="#63b8ff" d="M505.85,-200.15C441.3,-193.95 349.96,-182.39 272,-162 207.5,-145.13 135.68,-114.09 96.49,-96.03"/>
<polygon fill="#63b8ff" stroke="#63b8ff" points="505.69,-203.65 515.98,-201.1 506.35,-196.68 505.69,-203.65"/>
</a>
</g>
</g>
<!-- Node4 -->
<g id="Node000004" class="node">
<title>Node4</title>
<g id="a_Node000004"><a xlink:href="ie__infer_8h.html" target="_top" xlink:title="Inference interface for the GPT&#45;OSS runtime.">
<polygon fill="white" stroke="#666666" points="417,-156.5 281,-156.5 281,-137.5 417,-137.5 417,-156.5"/>
<text text-anchor="middle" x="349" y="-144.5" font-family="Helvetica,sans-Serif" font-size="10.00">engine/include/ie_infer.h</text>
</a>
</g>
</g>
<!-- Node1&#45;&gt;Node4 -->
<g id="edge3_Node000001_Node000004" class="edge">
<title>Node1&#45;&gt;Node4</title>
<g id="a_edge3_Node000001_Node000004"><a xlink:title=" ">
<path fill="none" stroke="#63b8ff" d="M544.32,-195.61C497.94,-184.3 426.35,-166.85 383.94,-156.52"/>
<polygon fill="#63b8ff" stroke="#63b8ff" points="543.56,-199.03 554.1,-197.99 545.22,-192.22 543.56,-199.03"/>
</a>
</g>
</g>
<!-- Node6 -->
<g id="Node000006" class="node">
<title>Node6</title>
<g id="a_Node000006"><a xlink:href="ie__api_8c.html" target="_top" xlink:title="Stable public API implementation for creating, destroying, and running an engine instance.">
<polygon fill="white" stroke="#666666" points="373.5,-24.5 266.5,-24.5 266.5,-5.5 373.5,-5.5 373.5,-24.5"/>
<text text-anchor="middle" x="320" y="-12.5" font-family="Helvetica,sans-Serif" font-size="10.00">engine/src/ie_api.c</text>
</a>
</g>
</g>
<!-- Node1&#45;&gt;Node6 -->
<g id="edge14_Node000001_Node000006" class="edge">
<title>Node1&#45;&gt;Node6</title>
<g id="a_edge14_Node000001_Node000006"><a xlink:title=" ">
<path fill="none" stroke="#63b8ff" d="M596.03,-188.2C606.03,-158.73 620.11,-100.59 591,-66 560.79,-30.11 429.02,-39.09 383,-30 374.54,-28.33 365.46,-26.4 356.92,-24.51"/>
<polygon fill="#63b8ff" stroke="#63b8ff" points="592.6,-187.38 592.5,-197.98 599.19,-189.76 592.6,-187.38"/>
</a>
</g>
</g>
<!-- Node10 -->
<g id="Node000010" class="node">
<title>Node10</title>
<g id="a_Node000010"><a xlink:href="infer__gptoss_8c.html" target="_top" xlink:title="GPT&#45;OSS inference entrypoints with a CPU&#45;first forward pass.">
<polygon fill="white" stroke="#666666" points="582,-96 474,-96 474,-66 582,-66 582,-96"/>
<text text-anchor="start" x="482" y="-84" font-family="Helvetica,sans-Serif" font-size="10.00">engine/src/runtime</text>
<text text-anchor="middle" x="528" y="-73" font-family="Helvetica,sans-Serif" font-size="10.00">/infer_gptoss.c</text>
</a>
</g>
</g>
<!-- Node1&#45;&gt;Node10 -->
<g id="edge15_Node000001_Node000010" class="edge">
<title>Node1&#45;&gt;Node10</title>
<g id="a_edge15_Node000001_Node000010"><a xlink:title=" ">
<path fill="none" stroke="#63b8ff" d="M580.38,-188.91C568.19,-164.03 546.14,-119.03 534.94,-96.16"/>
<polygon fill="#63b8ff" stroke="#63b8ff" points="577.26,-190.5 584.81,-197.94 583.55,-187.42 577.26,-190.5"/>
</a>
</g>
</g>
<!-- Node11 -->
<g id="Node000011" class="node">
<title>Node11</title>
<g id="a_Node000011"><a xlink:href="ie__device__common_8c.html" target="_top" xlink:title="C11 device abstraction with CPU backend and a real CUDA backend.">
<polygon fill="white" stroke="#666666" points="760,-162 638,-162 638,-132 760,-132 760,-162"/>
<text text-anchor="start" x="646" y="-150" font-family="Helvetica,sans-Serif" font-size="10.00">engine/src/devices</text>
<text text-anchor="middle" x="699" y="-139" font-family="Helvetica,sans-Serif" font-size="10.00">/ie_device_common.c</text>
</a>
</g>
</g>
<!-- Node1&#45;&gt;Node11 -->
<g id="edge13_Node000001_Node000011" class="edge">
<title>Node1&#45;&gt;Node11</title>
<g id="a_edge13_Node000001_Node000011"><a xlink:title=" ">
<path fill="none" stroke="#63b8ff" d="M614.25,-193.07C631.66,-183.81 654.77,-171.52 672.46,-162.11"/>
<polygon fill="#63b8ff" stroke="#63b8ff" points="612.42,-190.08 605.23,-197.87 615.7,-196.26 612.42,-190.08"/>
</a>
</g>
</g>
<!-- Node12 -->
<g id="Node000012" class="node">
<title>Node12</title>
<g id="a_Node000012"><a xlink:href="test__device_8c.html" target="_top" xlink:title="Unit tests for ie_device API (selection and CPU fallback).">
<polygon fill="white" stroke="#666666" points="894,-156.5 778,-156.5 778,-137.5 894,-137.5 894,-156.5"/>
<text text-anchor="middle" x="836" y="-144.5" font-family="Helvetica,sans-Serif" font-size="10.00">tests/c/test_device.c</text>
</a>
</g>
</g>
<!-- Node1&#45;&gt;Node12 -->
<g id="edge16_Node000001_Node000012" class="edge">
<title>Node1&#45;&gt;Node12</title>
<g id="a_edge16_Node000001_Node000012"><a xlink:title=" ">
<path fill="none" stroke="#63b8ff" d="M634.68,-195.68C682.41,-184.38 756.3,-166.88 800.04,-156.52"/>
<polygon fill="#63b8ff" stroke="#63b8ff" points="633.84,-192.28 624.92,-197.99 635.45,-199.09 633.84,-192.28"/>
</a>
</g>
</g>
<!-- Node3 -->
<g id="Node000003" class="node">
<title>Node3</title>
<g id="a_Node000003"><a xlink:href="generate__gptoss_8c.html" target="_top" xlink:title="Convenience token generation wrapper for the GPT&#45;OSS forward pass.">
<polygon fill="white" stroke="#666666" points="121.5,-30 12.5,-30 12.5,0 121.5,0 121.5,-30"/>
<text text-anchor="start" x="20.5" y="-18" font-family="Helvetica,sans-Serif" font-size="10.00">engine/src/runtime</text>
<text text-anchor="middle" x="67" y="-7" font-family="Helvetica,sans-Serif" font-size="10.00">/generate_gptoss.c</text>
</a>
</g>
</g>
<!-- Node2&#45;&gt;Node3 -->
<g id="edge2_Node000002_Node000003" class="edge">
<title>Node2&#45;&gt;Node3</title>
<g id="a_edge2_Node000002_Node000003"><a xlink:title=" ">
<path fill="none" stroke="#63b8ff" d="M67,-55.54C67,-46.96 67,-37.61 67,-30.16"/>
<polygon fill="#63b8ff" stroke="#63b8ff" points="63.5,-55.8 67,-65.8 70.5,-55.8 63.5,-55.8"/>
</a>
</g>
</g>
<!-- Node4&#45;&gt;Node2 -->
<g id="edge4_Node000004_Node000002" class="edge">
<title>Node4&#45;&gt;Node2</title>
<g id="a_edge4_Node000004_Node000002"><a xlink:title=" ">
<path fill="none" stroke="#63b8ff" d="M301.24,-135.16C253.75,-124.38 180.68,-107.8 128.8,-96.02"/>
<polygon fill="#63b8ff" stroke="#63b8ff" points="300.73,-138.63 311.26,-137.44 302.28,-131.81 300.73,-138.63"/>
</a>
</g>
</g>
<!-- Node5 -->
<g id="Node000005" class="node">
<title>Node5</title>
<g id="a_Node000005"><a xlink:href="gptoss__hparams_8h.html" target="_top" xlink:title="Load GPT&#45;OSS hyperparameters from a HuggingFace&#45;style config.json.">
<polygon fill="white" stroke="#666666" points="275.5,-96 152.5,-96 152.5,-66 275.5,-66 275.5,-96"/>
<text text-anchor="start" x="160.5" y="-84" font-family="Helvetica,sans-Serif" font-size="10.00">engine/include/gptoss</text>
<text text-anchor="middle" x="214" y="-73" font-family="Helvetica,sans-Serif" font-size="10.00">_hparams.h</text>
</a>
</g>
</g>
<!-- Node4&#45;&gt;Node5 -->
<g id="edge5_Node000004_Node000005" class="edge">
<title>Node4&#45;&gt;Node5</title>
<g id="a_edge5_Node000004_Node000005"><a xlink:title=" ">
<path fill="none" stroke="#63b8ff" d="M321.74,-133.08C299.13,-122.36 267.05,-107.15 243.78,-96.12"/>
<polygon fill="#63b8ff" stroke="#63b8ff" points="320.26,-136.25 330.79,-137.37 323.26,-129.92 320.26,-136.25"/>
</a>
</g>
</g>
<!-- Node4&#45;&gt;Node6 -->
<g id="edge11_Node000004_Node000006" class="edge">
<title>Node4&#45;&gt;Node6</title>
<g id="a_edge11_Node000004_Node000006"><a xlink:title=" ">
<path fill="none" stroke="#63b8ff" d="M337.56,-128.66C332.07,-119.38 326.04,-107.51 323,-96 316.32,-70.74 317.83,-39.44 319.11,-24.59"/>
<polygon fill="#63b8ff" stroke="#63b8ff" points="334.67,-130.65 342.93,-137.28 340.61,-126.94 334.67,-130.65"/>
</a>
</g>
</g>
<!-- Node8 -->
<g id="Node000008" class="node">
<title>Node8</title>
<g id="a_Node000008"><a xlink:href="gptoss__weights__index_8h.html" target="_top" xlink:title="GPT&#45;OSS weight indexing and name&#45;resolution over tensor_map.json and (optional) dedup views.">
<polygon fill="white" stroke="#666666" points="455.5,-96 332.5,-96 332.5,-66 455.5,-66 455.5,-96"/>
<text text-anchor="start" x="340.5" y="-84" font-family="Helvetica,sans-Serif" font-size="10.00">engine/include/gptoss</text>
<text text-anchor="middle" x="394" y="-73" font-family="Helvetica,sans-Serif" font-size="10.00">_weights_index.h</text>
</a>
</g>
</g>
<!-- Node4&#45;&gt;Node8 -->
<g id="edge9_Node000004_Node000008" class="edge">
<title>Node4&#45;&gt;Node8</title>
<g id="a_edge9_Node000004_Node000008"><a xlink:title=" ">
<path fill="none" stroke="#63b8ff" d="M361.01,-128.92C368.15,-118.76 377.12,-106.01 383.9,-96.36"/>
<polygon fill="#63b8ff" stroke="#63b8ff" points="357.96,-127.18 355.07,-137.37 363.68,-131.2 357.96,-127.18"/>
</a>
</g>
</g>
<!-- Node4&#45;&gt;Node10 -->
<g id="edge12_Node000004_Node000010" class="edge">
<title>Node4&#45;&gt;Node10</title>
<g id="a_edge12_Node000004_Node000010"><a xlink:title=" ">
<path fill="none" stroke="#63b8ff" d="M382.76,-133.93C412.83,-123.18 456.84,-107.44 488.52,-96.12"/>
<polygon fill="#63b8ff" stroke="#63b8ff" points="381.38,-130.71 373.14,-137.37 383.74,-137.3 381.38,-130.71"/>
</a>
</g>
</g>
<!-- Node5&#45;&gt;Node3 -->
<g id="edge7_Node000005_Node000003" class="edge">
<title>Node5&#45;&gt;Node3</title>
<g id="a_edge7_Node000005_Node000003"><a xlink:title=" ">
<path fill="none" stroke="#63b8ff" d="M172.47,-61.92C149.24,-51.8 120.71,-39.38 99.18,-30.01"/>
<polygon fill="#63b8ff" stroke="#63b8ff" points="171.17,-65.17 181.74,-65.95 173.97,-58.75 171.17,-65.17"/>
</a>
</g>
</g>
<!-- Node5&#45;&gt;Node6 -->
<g id="edge6_Node000005_Node000006" class="edge">
<title>Node5&#45;&gt;Node6</title>
<g id="a_edge6_Node000005_Node000006"><a xlink:title=" ">
<path fill="none" stroke="#63b8ff" d="M246.05,-60.65C266.01,-48.6 290.7,-33.69 305.89,-24.52"/>
<polygon fill="#63b8ff" stroke="#63b8ff" points="244.01,-57.79 237.26,-65.95 247.63,-63.78 244.01,-57.79"/>
</a>
</g>
</g>
<!-- Node7 -->
<g id="Node000007" class="node">
<title>Node7</title>
<g id="a_Node000007"><a xlink:href="gptoss__hparams_8c.html" target="_top" xlink:title="HuggingFace config.json loader for GPT&#45;OSS hyperparameters (with IEJSON shape inference).">
<polygon fill="white" stroke="#666666" points="248,-30 140,-30 140,0 248,0 248,-30"/>
<text text-anchor="start" x="148" y="-18" font-family="Helvetica,sans-Serif" font-size="10.00">engine/src/runtime</text>
<text text-anchor="middle" x="194" y="-7" font-family="Helvetica,sans-Serif" font-size="10.00">/gptoss_hparams.c</text>
</a>
</g>
</g>
<!-- Node5&#45;&gt;Node7 -->
<g id="edge8_Node000005_Node000007" class="edge">
<title>Node5&#45;&gt;Node7</title>
<g id="a_edge8_Node000005_Node000007"><a xlink:title=" ">
<path fill="none" stroke="#63b8ff" d="M206.53,-56.11C203.81,-47.38 200.81,-37.78 198.43,-30.16"/>
<polygon fill="#63b8ff" stroke="#63b8ff" points="203.24,-57.3 209.56,-65.8 209.92,-55.21 203.24,-57.3"/>
</a>
</g>
</g>
<!-- Node9 -->
<g id="Node000009" class="node">
<title>Node9</title>
<g id="a_Node000009"><a xlink:href="gptoss__weights__index_8c.html" target="_top" xlink:title="GPT&#45;OSS weight indexing, name probing, and tensor resolution.">
<polygon fill="white" stroke="#666666" points="528,-30 392,-30 392,0 528,0 528,-30"/>
<text text-anchor="start" x="400" y="-18" font-family="Helvetica,sans-Serif" font-size="10.00">engine/src/runtime</text>
<text text-anchor="middle" x="460" y="-7" font-family="Helvetica,sans-Serif" font-size="10.00">/gptoss_weights_index.c</text>
</a>
</g>
</g>
<!-- Node8&#45;&gt;Node9 -->
<g id="edge10_Node000008_Node000009" class="edge">
<title>Node8&#45;&gt;Node9</title>
<g id="a_edge10_Node000008_Node000009"><a xlink:title=" ">
<path fill="none" stroke="#63b8ff" d="M416.02,-58.65C425.69,-49.27 436.77,-38.53 445.39,-30.16"/>
<polygon fill="#63b8ff" stroke="#63b8ff" points="413.39,-56.32 408.65,-65.8 418.26,-61.35 413.39,-56.32"/>
</a>
</g>
</g>
</g>
</svg>

<g id="navigator" transform="translate(0 0)" fill="#404254">
  <rect fill="#f2f5e9" fill-opacity="0.5" stroke="#606060" stroke-width=".5" x="0" y="0" width="60" height="60"/>
  <use id="zoomplus" xlink:href="#zoomPlus" x="17" y="9" onmousedown="handleZoom(evt,'in')"/>
  <use id="zoomminus" xlink:href="#zoomMin" x="42" y="9" onmousedown="handleZoom(evt,'out')"/>
  <use id="reset" xlink:href="#resetDef" x="30" y="36" onmousedown="handleReset()"/>
   <use id="arrowup" xlink:href="#arrowUp" x="0" y="0" onmousedown="handlePan(0,-1)"/>
  <use id="arrowright" xlink:href="#arrowRight" x="0" y="0" onmousedown="handlePan(1,0)"/>
  <use id="arrowdown" xlink:href="#arrowDown" x="0" y="0" onmousedown="handlePan(0,1)"/>
  <use id="arrowleft" xlink:href="#arrowLeft" x="0" y="0" onmousedown="handlePan(-1,0)"/>
</g>
<svg viewBox="0 0 15 15" width="100%" height="30px" preserveAspectRatio="xMaxYMin meet">
 <g id="arrow_out" transform="scale(0.3 0.3)">
  <a xlink:href="ie__device_8h__dep__incl_org.svg" target="_base">
   <rect id="button" ry="5" rx="5" y="6" x="6" height="38" width="38"
        fill="#f2f5e9" fill-opacity="0.5" stroke="#606060" stroke-width="1.0"/>
   <path id="arrow"
     d="M 11.500037,31.436501 C 11.940474,20.09759 22.043105,11.32322 32.158766,21.979434 L 37.068811,17.246167 C 37.068811,17.246167 37.088388,32 37.088388,32 L 22.160133,31.978069 C 22.160133,31.978069 26.997745,27.140456 26.997745,27.140456 C 18.528582,18.264221 13.291696,25.230495 11.500037,31.436501 z"
     style="fill:#404040;"/>
  </a>
 </g>
</svg>

<style type='text/css'>
<![CDATA[
[data-mouse-over-selected='false'] { opacity: 0.7; }
[data-mouse-over-selected='true']  { opacity: 1.0; }
]]>
</style>
<script type="application/ecmascript"><![CDATA[
document.addEventListener('DOMContentLoaded', (event) => {
  highlightEdges();
  highlightAdjacentNodes();
});
]]></script>
</svg>
