<?xml version="1.0" encoding="UTF-8" standalone="no"?>
<!DOCTYPE svg PUBLIC "-//W3C//DTD SVG 1.1//EN"
 "http://www.w3.org/Graphics/SVG/1.1/DTD/svg11.dtd">
<!-- Generated by graphviz version 2.43.0 (0)
 -->
<!-- Title: cuda_ensure_capacity Pages: 1 -->
<svg width="485pt" height="121pt"
 viewBox="0.00 0.00 485.00 121.00" xmlns="http://www.w3.org/2000/svg" xmlns:xlink="http://www.w3.org/1999/xlink">

<svg id="main" version="1.1" xmlns="http://www.w3.org/2000/svg" xmlns:xlink="http://www.w3.org/1999/xlink" xml:space="preserve" onload="init(evt)">
<style type="text/css"><![CDATA[
.node, .edge {opacity: 0.7;}
.node.selected, .edge.selected {opacity: 1;}
.edge:hover path { stroke: red; }
.edge:hover polygon { stroke: red; fill: red; }
]]></style>
<script type="application/ecmascript" xlink:href="svg.min.js"/>
<svg id="graph" class="graph">
<g id="graph0" class="graph" transform="scale(1 1) rotate(0) translate(4 117)">
<title>cuda_ensure_capacity</title>
<!-- Node1 -->
<g id="Node000001" class="node">
<title>Node1</title>
<g id="a_Node000001"><a xlink:title="Ensure a device buffer has at least nbytes capacity.">
<polygon fill="#999999" stroke="#666666" points="125,-67.5 0,-67.5 0,-48.5 125,-48.5 125,-67.5"/>
<text text-anchor="middle" x="62.5" y="-55.5" font-family="Helvetica,sans-Serif" font-size="10.00">cuda_ensure_capacity</text>
</a>
</g>
</g>
<!-- Node2 -->
<g id="Node000002" class="node">
<title>Node2</title>
<g id="a_Node000002"><a xlink:href="ie__device__cuda__stub_8c.html#a7aa3c245312a87827c310085cffdf6b5" target="_top" xlink:title="Free device memory allocated by ie_cuda_malloc().">
<polygon fill="white" stroke="#666666" points="263,-67.5 184,-67.5 184,-48.5 263,-48.5 263,-67.5"/>
<text text-anchor="middle" x="223.5" y="-55.5" font-family="Helvetica,sans-Serif" font-size="10.00">ie_cuda_free</text>
</a>
</g>
</g>
<!-- Node1&#45;&gt;Node2 -->
<g id="edge1_Node000001_Node000002" class="edge">
<title>Node1&#45;&gt;Node2</title>
<g id="a_edge1_Node000001_Node000002"><a xlink:title=" ">
<path fill="none" stroke="#63b8ff" d="M125.43,-58C141.44,-58 158.45,-58 173.69,-58"/>
<polygon fill="#63b8ff" stroke="#63b8ff" points="173.92,-61.5 183.92,-58 173.92,-54.5 173.92,-61.5"/>
</a>
</g>
</g>
<!-- Node5 -->
<g id="Node000005" class="node">
<title>Node5</title>
<g id="a_Node000005"><a xlink:href="ie__device__cuda_8cu.html#a5e37ce0218789795b250e4dfec782e6d" target="_top" xlink:title="Allocate device memory.">
<polygon fill="white" stroke="#666666" points="269.5,-104.5 177.5,-104.5 177.5,-85.5 269.5,-85.5 269.5,-104.5"/>
<text text-anchor="middle" x="223.5" y="-92.5" font-family="Helvetica,sans-Serif" font-size="10.00">ie_cuda_malloc</text>
</a>
</g>
</g>
<!-- Node1&#45;&gt;Node5 -->
<g id="edge4_Node000001_Node000005" class="edge">
<title>Node1&#45;&gt;Node5</title>
<g id="a_edge4_Node000001_Node000005"><a xlink:title=" ">
<path fill="none" stroke="#63b8ff" d="M104.45,-67.53C124.86,-72.28 149.75,-78.07 171.4,-83.11"/>
<polygon fill="#63b8ff" stroke="#63b8ff" points="170.88,-86.58 181.42,-85.44 172.47,-79.76 170.88,-86.58"/>
</a>
</g>
</g>
<!-- Node6 -->
<g id="Node000006" class="node">
<title>Node6</title>
<g id="a_Node000006"><a xlink:href="ie__device__cuda_8cu.html#a5e3d9fee84981707669f5c2398f0c4ab" target="_top" xlink:title="Row&#45;wise GEMV kernel: each thread computes one output row.">
<polygon fill="white" stroke="#666666" points="286,-30 161,-30 161,0 286,0 286,-30"/>
<text text-anchor="start" x="169" y="-18" font-family="Helvetica,sans-Serif" font-size="10.00">ie_gemv_rowwise_f32</text>
<text text-anchor="middle" x="223.5" y="-7" font-family="Helvetica,sans-Serif" font-size="10.00">_kernel</text>
</a>
</g>
</g>
<!-- Node1&#45;&gt;Node6 -->
<g id="edge7_Node000001_Node000006" class="edge">
<title>Node1&#45;&gt;Node6</title>
<g id="a_edge7_Node000001_Node000006"><a xlink:title=" ">
<path fill="none" stroke="#63b8ff" d="M98.79,-48.46C116.01,-43.8 137.28,-38.05 157.31,-32.63"/>
<polygon fill="#63b8ff" stroke="#63b8ff" points="158.27,-36 167.01,-30.01 156.44,-29.24 158.27,-36"/>
</a>
</g>
</g>
<!-- Node3 -->
<g id="Node000003" class="node">
<title>Node3</title>
<g id="a_Node000003"><a xlink:href="ie__device__cuda_8cu.html#a4ed091f3252b0eddeb76bd1d8fc63168" target="_top" xlink:title="Clear the last error string (C ABI).">
<polygon fill="white" stroke="#666666" points="453,-113 346,-113 346,-83 453,-83 453,-113"/>
<text text-anchor="start" x="354" y="-101" font-family="Helvetica,sans-Serif" font-size="10.00">ie_cuda_clear_last</text>
<text text-anchor="middle" x="399.5" y="-90" font-family="Helvetica,sans-Serif" font-size="10.00">_error</text>
</a>
</g>
</g>
<!-- Node2&#45;&gt;Node3 -->
<g id="edge2_Node000002_Node000003" class="edge">
<title>Node2&#45;&gt;Node3</title>
<g id="a_edge2_Node000002_Node000003"><a xlink:title=" ">
<path fill="none" stroke="#63b8ff" d="M263.12,-66.88C284.5,-71.79 311.6,-78.02 335.93,-83.62"/>
<polygon fill="#63b8ff" stroke="#63b8ff" points="335.27,-87.06 345.8,-85.89 336.84,-80.23 335.27,-87.06"/>
</a>
</g>
</g>
<!-- Node4 -->
<g id="Node000004" class="node">
<title>Node4</title>
<g id="a_Node000004"><a xlink:href="ie__device__cuda_8cu.html#a0391d9bf2a39582d39265da97820553f" target="_top" xlink:title="Store the last error message into the global static buffer.">
<polygon fill="white" stroke="#666666" points="477,-64.5 322,-64.5 322,-45.5 477,-45.5 477,-64.5"/>
<text text-anchor="middle" x="399.5" y="-52.5" font-family="Helvetica,sans-Serif" font-size="10.00">ie_cuda_set_last_error_cuda</text>
</a>
</g>
</g>
<!-- Node2&#45;&gt;Node4 -->
<g id="edge3_Node000002_Node000004" class="edge">
<title>Node2&#45;&gt;Node4</title>
<g id="a_edge3_Node000002_Node000004"><a xlink:title=" ">
<path fill="none" stroke="#63b8ff" d="M263.12,-57.33C277.6,-57.08 294.7,-56.79 311.78,-56.5"/>
<polygon fill="#63b8ff" stroke="#63b8ff" points="311.88,-59.99 321.82,-56.32 311.76,-53 311.88,-59.99"/>
</a>
</g>
</g>
<!-- Node5&#45;&gt;Node3 -->
<g id="edge5_Node000005_Node000003" class="edge">
<title>Node5&#45;&gt;Node3</title>
<g id="a_edge5_Node000005_Node000003"><a xlink:title=" ">
<path fill="none" stroke="#63b8ff" d="M269.76,-95.78C289.84,-96.13 313.81,-96.54 335.59,-96.92"/>
<polygon fill="#63b8ff" stroke="#63b8ff" points="335.69,-100.42 345.75,-97.09 335.81,-93.42 335.69,-100.42"/>
</a>
</g>
</g>
<!-- Node5&#45;&gt;Node4 -->
<g id="edge6_Node000005_Node000004" class="edge">
<title>Node5&#45;&gt;Node4</title>
<g id="a_edge6_Node000005_Node000004"><a xlink:title=" ">
<path fill="none" stroke="#63b8ff" d="M266.18,-85.42C290.5,-79.83 321.37,-72.73 347.18,-66.8"/>
<polygon fill="#63b8ff" stroke="#63b8ff" points="348.2,-70.15 357.16,-64.5 346.63,-63.33 348.2,-70.15"/>
</a>
</g>
</g>
</g>
</svg>
</svg>

<style type='text/css'>
<![CDATA[
[data-mouse-over-selected='false'] { opacity: 0.7; }
[data-mouse-over-selected='true']  { opacity: 1.0; }
]]>
</style>
<script type="application/ecmascript"><![CDATA[
document.addEventListener('DOMContentLoaded', (event) => {
  highlightEdges();
  highlightAdjacentNodes();
});
]]></script>
</svg>
