<?xml version="1.0" encoding="UTF-8" standalone="no"?>
<!DOCTYPE svg PUBLIC "-//W3C//DTD SVG 1.1//EN"
 "http://www.w3.org/Graphics/SVG/1.1/DTD/svg11.dtd">
<!-- Generated by graphviz version 12.2.1 (20241206.2353)
 -->
<!-- Title: ie_device_gemv_block_sparse_f32 Pages: 1 -->
<!--zoomable 596 -->

<svg id="main" version="1.1" xmlns="http://www.w3.org/2000/svg" xmlns:xlink="http://www.w3.org/1999/xlink" xml:space="preserve" onload="init(evt)">

<style type="text/css"><![CDATA[
.node, .edge {opacity: 0.7;}
.node.selected, .edge.selected {opacity: 1;}
.edge:hover path { stroke: red; }
.edge:hover polygon { stroke: red; fill: red; }
]]></style>

<defs>
  <circle id="rim" cx="0" cy="0" r="7"/>
  <circle id="rim2" cx="0" cy="0" r="3.5"/>
  <g id="zoomPlus">
    <use xlink:href="#rim" fill="#404040"><set attributeName="fill" to="#808080" begin="zoomplus.mouseover" end="zoomplus.mouseout"/></use>
    <path d="M-4,0h8M0,-4v8" fill="none" stroke="white" stroke-width="1.5" pointer-events="none"/>
  </g>
  <g id="zoomMin">
    <use xlink:href="#rim" fill="#404040"><set attributeName="fill" to="#808080" begin="zoomminus.mouseover" end="zoomminus.mouseout"/></use>
    <path d="M-4,0h8" fill="none" stroke="white" stroke-width="1.5" pointer-events="none"/>
  </g>
  <g id="arrowUp" transform="translate(30 24)">
    <use xlink:href="#rim"/>
    <path pointer-events="none" fill="none" stroke="white" stroke-width="1.5" d="M0,-3.0v7 M-2.5,-0.5L0,-3.0L2.5,-0.5"/>
  </g>
  <g id="arrowRight" transform="rotate(90) translate(36 -43)">
    <use xlink:href="#rim"/>
    <path pointer-events="none" fill="none" stroke="white" stroke-width="1.5" d="M0,-3.0v7 M-2.5,-0.5L0,-3.0L2.5,-0.5"/>
  </g>
  <g id="arrowDown" transform="rotate(180) translate(-30 -48)">
    <use xlink:href="#rim"/>
    <path pointer-events="none" fill="none" stroke="white" stroke-width="1.5" d="M0,-3.0v7 M-2.5,-0.5L0,-3.0L2.5,-0.5"/>
  </g>
  <g id="arrowLeft" transform="rotate(270) translate(-36 17)">
    <use xlink:href="#rim"/>
    <path pointer-events="none" fill="none" stroke="white" stroke-width="1.5" d="M0,-3.0v7 M-2.5,-0.5L0,-3.0L2.5,-0.5"/>
  </g>
  <g id="resetDef">
    <use xlink:href="#rim2" fill="#404040"><set attributeName="fill" to="#808080" begin="reset.mouseover" end="reset.mouseout"/></use>
  </g>
</defs>
<script type="application/ecmascript">
var viewWidth = 960;
var viewHeight = 596;
var sectionId = 'dynsection-20';
</script>
<script type="application/ecmascript" xlink:href="svg.min.js"/>
<svg id="graph" class="graph">
<g id="viewport">
<title>ie_device_gemv_block_sparse_f32</title>
<!-- Node1 -->
<g id="Node000001" class="node">
<title>Node1</title>
<g id="a_Node000001"><a xlink:title="Execute block&#45;sparse GEMV FP32 or CPU fallback.">
<polygon fill="#999999" stroke="#666666" points="127,-437.12 0,-437.12 0,-403.62 127,-403.62 127,-437.12"/>
<text text-anchor="start" x="8" y="-423.62" font-family="Helvetica,sans-Serif" font-size="10.00">ie_device_gemv_block</text>
<text text-anchor="middle" x="63.5" y="-410.88" font-family="Helvetica,sans-Serif" font-size="10.00">_sparse_f32</text>
</a>
</g>
</g>
<!-- Node1&#45;&gt;Node1 -->
<g id="edge29_Node000001_Node000001" class="edge">
<title>Node1&#45;&gt;Node1</title>
<g id="a_edge29_Node000001_Node000001"><a xlink:title=" ">
<path fill="none" stroke="#63b8ff" d="M36.22,-437.54C31.59,-446.74 40.68,-455.12 63.5,-455.12 75.98,-455.12 84.36,-452.62 88.62,-448.84"/>
<polygon fill="#63b8ff" stroke="#63b8ff" points="92.06,-449.5 90.5,-439.03 85.18,-448.19 92.06,-449.5"/>
</a>
</g>
</g>
<!-- Node2 -->
<g id="Node000002" class="node">
<title>Node2</title>
<g id="a_Node000002"><a xlink:href="ie__device__common_8c.html#a3e42fcc4b9579a9bf14520cb1afe733b" target="_top" xlink:title="Create a device backend.">
<polygon fill="white" stroke="#666666" points="264.5,-450.75 166,-450.75 166,-430 264.5,-430 264.5,-450.75"/>
<text text-anchor="middle" x="215.25" y="-437.25" font-family="Helvetica,sans-Serif" font-size="10.00">ie_device_create</text>
</a>
</g>
</g>
<!-- Node1&#45;&gt;Node2 -->
<g id="edge1_Node000001_Node000002" class="edge">
<title>Node1&#45;&gt;Node2</title>
<g id="a_edge1_Node000001_Node000002"><a xlink:title=" ">
<path fill="none" stroke="#63b8ff" d="M127.14,-428.74C136.16,-429.95 145.42,-431.18 154.38,-432.38"/>
<polygon fill="#63b8ff" stroke="#63b8ff" points="153.65,-435.81 164.03,-433.67 154.58,-428.87 153.65,-435.81"/>
</a>
</g>
</g>
<!-- Node28 -->
<g id="Node000028" class="node">
<title>Node28</title>
<g id="a_Node000028"><a xlink:href="ie__device__common_8c.html#a8f8a88a7dd6a58749275d2f3dea9a0ab" target="_top" xlink:title="Destroy a device instance.">
<polygon fill="white" stroke="#666666" points="267.5,-411.75 163,-411.75 163,-391 267.5,-391 267.5,-411.75"/>
<text text-anchor="middle" x="215.25" y="-398.25" font-family="Helvetica,sans-Serif" font-size="10.00">ie_device_destroy</text>
</a>
</g>
</g>
<!-- Node1&#45;&gt;Node28 -->
<g id="edge28_Node000001_Node000028" class="edge">
<title>Node1&#45;&gt;Node28</title>
<g id="a_edge28_Node000001_Node000028"><a xlink:title=" ">
<path fill="none" stroke="#63b8ff" d="M127.14,-412.43C135.2,-411.4 143.46,-410.36 151.52,-409.33"/>
<polygon fill="#63b8ff" stroke="#63b8ff" points="151.77,-412.83 161.25,-408.1 150.89,-405.89 151.77,-412.83"/>
</a>
</g>
</g>
<!-- Node3 -->
<g id="Node000003" class="node">
<title>Node3</title>
<g id="a_Node000003"><a xlink:href="ie__device__common_8c.html#a49b8c853d1b641c9402ed5e92d8af962" target="_top" xlink:title="Report CPU device capabilities.">
<polygon fill="white" stroke="#666666" points="412.12,-587.75 351.12,-587.75 351.12,-567 412.12,-567 412.12,-587.75"/>
<text text-anchor="middle" x="381.62" y="-574.25" font-family="Helvetica,sans-Serif" font-size="10.00">cpu_caps</text>
</a>
</g>
</g>
<!-- Node2&#45;&gt;Node3 -->
<g id="edge2_Node000002_Node000003" class="edge">
<title>Node2&#45;&gt;Node3</title>
<g id="a_edge2_Node000002_Node000003"><a xlink:title=" ">
<path fill="none" stroke="#63b8ff" d="M221.08,-451.01C232.14,-474.15 261.65,-529.24 303.5,-557.38 314.22,-564.58 327.39,-569.19 339.79,-572.14"/>
<polygon fill="#63b8ff" stroke="#63b8ff" points="338.88,-575.53 349.38,-574.11 340.29,-568.67 338.88,-575.53"/>
</a>
</g>
</g>
<!-- Node4 -->
<g id="Node000004" class="node">
<title>Node4</title>
<g id="a_Node000004"><a xlink:href="ie__device__common_8c.html#a94f0164f6cb0f1f874ad9b18194cfbc2" target="_top" xlink:title="Destroy CPU backend instance.">
<polygon fill="white" stroke="#666666" points="419.25,-548.75 344,-548.75 344,-528 419.25,-528 419.25,-548.75"/>
<text text-anchor="middle" x="381.62" y="-535.25" font-family="Helvetica,sans-Serif" font-size="10.00">cpu_destroy</text>
</a>
</g>
</g>
<!-- Node2&#45;&gt;Node4 -->
<g id="edge3_Node000002_Node000004" class="edge">
<title>Node2&#45;&gt;Node4</title>
<g id="a_edge3_Node000002_Node000004"><a xlink:title=" ">
<path fill="none" stroke="#63b8ff" d="M225.25,-451.23C239.89,-468.15 270.54,-500.73 303.5,-518.38 312.45,-523.17 322.6,-526.85 332.54,-529.68"/>
<polygon fill="#63b8ff" stroke="#63b8ff" points="331.57,-533.04 342.12,-532.13 333.3,-526.26 331.57,-533.04"/>
</a>
</g>
</g>
<!-- Node5 -->
<g id="Node000005" class="node">
<title>Node5</title>
<g id="a_Node000005"><a xlink:href="ie__device__common_8c.html#a4cf6c8ed666278da8fdaf7f0b953138c" target="_top" xlink:title="CPU implementation of block&#45;sparse GEMV FP32.">
<polygon fill="white" stroke="#666666" points="459.75,-509.75 303.5,-509.75 303.5,-489 459.75,-489 459.75,-509.75"/>
<text text-anchor="middle" x="381.62" y="-496.25" font-family="Helvetica,sans-Serif" font-size="10.00">cpu_gemv_block_sparse_f32</text>
</a>
</g>
</g>
<!-- Node2&#45;&gt;Node5 -->
<g id="edge4_Node000002_Node000005" class="edge">
<title>Node2&#45;&gt;Node5</title>
<g id="a_edge4_Node000002_Node000005"><a xlink:title=" ">
<path fill="none" stroke="#63b8ff" d="M237.71,-451.18C255.13,-459.65 280.48,-471.31 303.5,-479.38 309.69,-481.54 316.23,-483.59 322.78,-485.5"/>
<polygon fill="#63b8ff" stroke="#63b8ff" points="321.72,-488.84 332.3,-488.15 323.6,-482.09 321.72,-488.84"/>
</a>
</g>
</g>
<!-- Node8 -->
<g id="Node000008" class="node">
<title>Node8</title>
<g id="a_Node000008"><a xlink:href="ie__device__common_8c.html#a4fb9bb01bfbe71517f9df925ba9c93ec" target="_top" xlink:title="Execute dense GEMV FP32 on CPU using existing kernels.">
<polygon fill="white" stroke="#666666" points="425.25,-470.75 338,-470.75 338,-450 425.25,-450 425.25,-470.75"/>
<text text-anchor="middle" x="381.62" y="-457.25" font-family="Helvetica,sans-Serif" font-size="10.00">cpu_gemv_f32</text>
</a>
</g>
</g>
<!-- Node2&#45;&gt;Node8 -->
<g id="edge7_Node000002_Node000008" class="edge">
<title>Node2&#45;&gt;Node8</title>
<g id="a_edge7_Node000002_Node000008"><a xlink:title=" ">
<path fill="none" stroke="#63b8ff" d="M264.68,-446.27C283.99,-448.62 306.32,-451.33 326.2,-453.75"/>
<polygon fill="#63b8ff" stroke="#63b8ff" points="325.72,-457.22 336.07,-454.95 326.57,-450.27 325.72,-457.22"/>
</a>
</g>
</g>
<!-- Node13 -->
<g id="Node000013" class="node">
<title>Node13</title>
<g id="a_Node000013"><a xlink:href="ie__device__common_8c.html#a4c7a3b8d7f7279d7680aa68e429e6206" target="_top" xlink:title="CPU memcpy implementation.">
<polygon fill="white" stroke="#666666" points="422.25,-431.75 341,-431.75 341,-411 422.25,-411 422.25,-431.75"/>
<text text-anchor="middle" x="381.62" y="-418.25" font-family="Helvetica,sans-Serif" font-size="10.00">cpu_memcpy</text>
</a>
</g>
</g>
<!-- Node2&#45;&gt;Node13 -->
<g id="edge12_Node000002_Node000013" class="edge">
<title>Node2&#45;&gt;Node13</title>
<g id="a_edge12_Node000002_Node000013"><a xlink:title=" ">
<path fill="none" stroke="#63b8ff" d="M264.68,-434.78C284.96,-432.43 308.56,-429.7 329.16,-427.32"/>
<polygon fill="#63b8ff" stroke="#63b8ff" points="329.53,-430.8 339.06,-426.18 328.73,-423.85 329.53,-430.8"/>
</a>
</g>
</g>
<!-- Node14 -->
<g id="Node000014" class="node">
<title>Node14</title>
<g id="a_Node000014"><a xlink:href="ie__device__common_8c.html#a4099e48a20d5155401706f728c99c435" target="_top" xlink:title="Allocate a CPU backend instance.">
<polygon fill="white" stroke="#666666" points="411,-392.75 352.25,-392.75 352.25,-372 411,-372 411,-392.75"/>
<text text-anchor="middle" x="381.62" y="-379.25" font-family="Helvetica,sans-Serif" font-size="10.00">cpu_new</text>
</a>
</g>
</g>
<!-- Node2&#45;&gt;Node14 -->
<g id="edge13_Node000002_Node000014" class="edge">
<title>Node2&#45;&gt;Node14</title>
<g id="a_edge13_Node000002_Node000014"><a xlink:title=" ">
<path fill="none" stroke="#63b8ff" d="M245.44,-429.52C252.7,-426.67 260.43,-423.51 267.5,-420.38 283.85,-413.12 286.75,-408.65 303.5,-402.38 315.5,-397.88 328.91,-394.01 341.15,-390.92"/>
<polygon fill="#63b8ff" stroke="#63b8ff" points="341.61,-394.41 350.51,-388.65 339.96,-387.6 341.61,-394.41"/>
</a>
</g>
</g>
<!-- Node15 -->
<g id="Node000015" class="node">
<title>Node15</title>
<g id="a_Node000015"><a xlink:href="ie__device__common_8c.html#ae4ac15a3b8fea25568b8cdeb2cd781fe" target="_top" xlink:title="Try to initialize CUDA backend via dlopen.">
<polygon fill="white" stroke="#666666" points="428.62,-350.75 334.62,-350.75 334.62,-330 428.62,-330 428.62,-350.75"/>
<text text-anchor="middle" x="381.62" y="-337.25" font-family="Helvetica,sans-Serif" font-size="10.00">cuda_try_create</text>
</a>
</g>
</g>
<!-- Node2&#45;&gt;Node15 -->
<g id="edge14_Node000002_Node000015" class="edge">
<title>Node2&#45;&gt;Node15</title>
<g id="a_edge14_Node000002_Node000015"><a xlink:title=" ">
<path fill="none" stroke="#63b8ff" d="M252.6,-429.57C257.92,-427.06 263.08,-424.02 267.5,-420.38 290.61,-401.31 279.62,-381.48 303.5,-363.38 309.56,-358.78 316.53,-355.1 323.75,-352.15"/>
<polygon fill="#63b8ff" stroke="#63b8ff" points="324.76,-355.51 333,-348.85 322.4,-348.92 324.76,-355.51"/>
</a>
</g>
</g>
<!-- Node22 -->
<g id="Node000022" class="node">
<title>Node22</title>
<g id="a_Node000022"><a xlink:href="ie__device__common_8c.html#a6877d362577444879b41090af23950d6" target="_top" xlink:title="Try to initialize Level Zero backend via dlopen.">
<polygon fill="white" stroke="#666666" points="422.62,-149.75 340.62,-149.75 340.62,-129 422.62,-129 422.62,-149.75"/>
<text text-anchor="middle" x="381.62" y="-136.25" font-family="Helvetica,sans-Serif" font-size="10.00">ze_try_create</text>
</a>
</g>
</g>
<!-- Node2&#45;&gt;Node22 -->
<g id="edge21_Node000002_Node000022" class="edge">
<title>Node2&#45;&gt;Node22</title>
<g id="a_edge21_Node000002_Node000022"><a xlink:title=" ">
<path fill="none" stroke="#63b8ff" d="M254.89,-429.56C259.53,-427.09 263.9,-424.06 267.5,-420.38 300.22,-386.89 286.36,-364.94 303.5,-321.38 326.65,-262.53 356.43,-194.1 371.31,-160.37"/>
<polygon fill="#63b8ff" stroke="#63b8ff" points="374.45,-161.91 375.3,-151.35 368.05,-159.08 374.45,-161.91"/>
</a>
</g>
</g>
<!-- Node6 -->
<g id="Node000006" class="node">
<title>Node6</title>
<g id="a_Node000006"><a xlink:href="gemm__block__sparse_8c.html#ae9a2aad0ec5332237097030acf034961" target="_top" xlink:title="Perform a single&#45;precision block&#45;sparse matrix&#45;vector product.">
<polygon fill="white" stroke="#666666" points="643.75,-512.75 495.75,-512.75 495.75,-492 643.75,-492 643.75,-512.75"/>
<text text-anchor="middle" x="569.75" y="-499.25" font-family="Helvetica,sans-Serif" font-size="10.00">ie_gemv_block_sparse_f32</text>
</a>
</g>
</g>
<!-- Node5&#45;&gt;Node6 -->
<g id="edge5_Node000005_Node000006" class="edge">
<title>Node5&#45;&gt;Node6</title>
<g id="a_edge5_Node000005_Node000006"><a xlink:title=" ">
<path fill="none" stroke="#63b8ff" d="M460.21,-500.63C468.05,-500.75 476.04,-500.88 483.96,-501.01"/>
<polygon fill="#63b8ff" stroke="#63b8ff" points="483.89,-504.51 493.95,-501.17 484.01,-497.51 483.89,-504.51"/>
</a>
</g>
</g>
<!-- Node7 -->
<g id="Node000007" class="node">
<title>Node7</title>
<g id="a_Node000007"><a xlink:href="gemm__block__sparse_8c.html#a05f40c15c1dabe19a303a4d5a897b212" target="_top" xlink:title="Compute the pointer to the first element of a given block.">
<polygon fill="white" stroke="#666666" points="779.38,-512.75 680.88,-512.75 680.88,-492 779.38,-492 779.38,-512.75"/>
<text text-anchor="middle" x="730.12" y="-499.25" font-family="Helvetica,sans-Serif" font-size="10.00">block_values_ptr</text>
</a>
</g>
</g>
<!-- Node6&#45;&gt;Node7 -->
<g id="edge6_Node000006_Node000007" class="edge">
<title>Node6&#45;&gt;Node7</title>
<g id="a_edge6_Node000006_Node000007"><a xlink:title=" ">
<path fill="none" stroke="#63b8ff" d="M643.91,-502.38C652.39,-502.38 660.97,-502.38 669.25,-502.38"/>
<polygon fill="#63b8ff" stroke="#63b8ff" points="669.19,-505.88 679.19,-502.38 669.19,-498.88 669.19,-505.88"/>
</a>
</g>
</g>
<!-- Node9 -->
<g id="Node000009" class="node">
<title>Node9</title>
<g id="a_Node000009"><a xlink:href="gemv__generic_8c.html#a4e112b3396ed21919f404631c1d4d7fb" target="_top" xlink:title="GEMV: y[r] = dot(W[r, :], x) [+ bias[r]] for r in [0, rows).">
<polygon fill="white" stroke="#666666" points="609.25,-473.75 530.25,-473.75 530.25,-453 609.25,-453 609.25,-473.75"/>
<text text-anchor="middle" x="569.75" y="-460.25" font-family="Helvetica,sans-Serif" font-size="10.00">ie_gemv_f32</text>
</a>
</g>
</g>
<!-- Node8&#45;&gt;Node9 -->
<g id="edge8_Node000008_Node000009" class="edge">
<title>Node8&#45;&gt;Node9</title>
<g id="a_edge8_Node000008_Node000009"><a xlink:title=" ">
<path fill="none" stroke="#63b8ff" d="M425.33,-461.06C453.18,-461.51 489.65,-462.1 518.85,-462.57"/>
<polygon fill="#63b8ff" stroke="#63b8ff" points="518.48,-466.07 528.54,-462.73 518.59,-459.07 518.48,-466.07"/>
</a>
</g>
</g>
<!-- Node10 -->
<g id="Node000010" class="node">
<title>Node10</title>
<g id="a_Node000010"><a xlink:href="gemv__generic_8c.html#a1b919f71b86ec1791fe53bc68d5c240d" target="_top" xlink:title="Install the best available float GEMV kernel for this process.">
<polygon fill="white" stroke="#666666" points="780.5,-473.75 679.75,-473.75 679.75,-453 780.5,-453 780.5,-473.75"/>
<text text-anchor="middle" x="730.12" y="-460.25" font-family="Helvetica,sans-Serif" font-size="10.00">ie_kernels_install</text>
</a>
</g>
</g>
<!-- Node9&#45;&gt;Node10 -->
<g id="edge9_Node000009_Node000010" class="edge">
<title>Node9&#45;&gt;Node10</title>
<g id="a_edge9_Node000009_Node000010"><a xlink:title=" ">
<path fill="none" stroke="#63b8ff" d="M609.49,-463.38C627.1,-463.38 648.35,-463.38 668.03,-463.38"/>
<polygon fill="#63b8ff" stroke="#63b8ff" points="667.88,-466.88 677.88,-463.38 667.88,-459.88 667.88,-466.88"/>
</a>
</g>
</g>
<!-- Node11 -->
<g id="Node000011" class="node">
<title>Node11</title>
<g id="a_Node000011"><a xlink:href="gemv__generic_8c.html#a51096a373f5e5010d39cbf44e34b730d" target="_top" xlink:title="Generic C GEMV: y = W * x (+bias), optional blocked&#45;K layout.">
<polygon fill="white" stroke="#666666" points="940.12,-493.75 828.12,-493.75 828.12,-473 940.12,-473 940.12,-493.75"/>
<text text-anchor="middle" x="884.12" y="-480.25" font-family="Helvetica,sans-Serif" font-size="10.00">gemv_generic_impl</text>
</a>
</g>
</g>
<!-- Node10&#45;&gt;Node11 -->
<g id="edge10_Node000010_Node000011" class="edge">
<title>Node10&#45;&gt;Node11</title>
<g id="a_edge10_Node000010_Node000011"><a xlink:title=" ">
<path fill="none" stroke="#63b8ff" d="M780.9,-469.92C792.25,-471.42 804.49,-473.03 816.42,-474.6"/>
<polygon fill="#63b8ff" stroke="#63b8ff" points="815.85,-478.05 826.22,-475.89 816.76,-471.11 815.85,-478.05"/>
</a>
</g>
</g>
<!-- Node12 -->
<g id="Node000012" class="node">
<title>Node12</title>
<g id="a_Node000012"><a xlink:href="gemv__avx2_8c.html#a63b484c2984caeed7dfc9b5002444f57" target="_top" xlink:title="AVX2/FMA GEMV (float path), blocked&#45;K aware, with bias epilogue.">
<polygon fill="white" stroke="#666666" points="951.75,-454.75 816.5,-454.75 816.5,-434 951.75,-434 951.75,-454.75"/>
<text text-anchor="middle" x="884.12" y="-441.25" font-family="Helvetica,sans-Serif" font-size="10.00">ie_gemv_f32_avx2_impl</text>
</a>
</g>
</g>
<!-- Node10&#45;&gt;Node12 -->
<g id="edge11_Node000010_Node000012" class="edge">
<title>Node10&#45;&gt;Node12</title>
<g id="a_edge11_Node000010_Node000012"><a xlink:title=" ">
<path fill="none" stroke="#63b8ff" d="M780.9,-457.15C788.63,-456.19 796.79,-455.17 804.97,-454.14"/>
<polygon fill="#63b8ff" stroke="#63b8ff" points="805.13,-457.65 814.62,-452.94 804.26,-450.71 805.13,-457.65"/>
</a>
</g>
</g>
<!-- Node16 -->
<g id="Node000016" class="node">
<title>Node16</title>
<g id="a_Node000016"><a xlink:href="ie__device__common_8c.html#afbcd46d9b25dd33110fdf48f5c83b017" target="_top" xlink:title="CUDA caps thunk used in the vtable.">
<polygon fill="white" stroke="#666666" points="619.75,-434.75 519.75,-434.75 519.75,-414 619.75,-414 619.75,-434.75"/>
<text text-anchor="middle" x="569.75" y="-421.25" font-family="Helvetica,sans-Serif" font-size="10.00">cuda_caps_thunk</text>
</a>
</g>
</g>
<!-- Node15&#45;&gt;Node16 -->
<g id="edge15_Node000015_Node000016" class="edge">
<title>Node15&#45;&gt;Node16</title>
<g id="a_edge15_Node000015_Node000016"><a xlink:title=" ">
<path fill="none" stroke="#63b8ff" d="M428.92,-349.61C439.55,-352.95 450.46,-357.42 459.75,-363.38 480.17,-376.46 475.19,-391.52 495.75,-404.38 499.94,-406.99 504.47,-409.27 509.15,-411.26"/>
<polygon fill="#63b8ff" stroke="#63b8ff" points="507.56,-414.4 518.15,-414.62 510.01,-407.84 507.56,-414.4"/>
</a>
</g>
</g>
<!-- Node17 -->
<g id="Node000017" class="node">
<title>Node17</title>
<g id="a_Node000017"><a xlink:href="ie__device__common_8c.html#a7ecb9f771aea0ef0d125bbe31b53c87a" target="_top" xlink:title="Destroy CUDA backend instance.">
<polygon fill="white" stroke="#666666" points="626.88,-395.75 512.62,-395.75 512.62,-375 626.88,-375 626.88,-395.75"/>
<text text-anchor="middle" x="569.75" y="-382.25" font-family="Helvetica,sans-Serif" font-size="10.00">cuda_destroy_thunk</text>
</a>
</g>
</g>
<!-- Node15&#45;&gt;Node17 -->
<g id="edge16_Node000015_Node000017" class="edge">
<title>Node15&#45;&gt;Node17</title>
<g id="a_edge16_Node000015_Node000017"><a xlink:title=" ">
<path fill="none" stroke="#63b8ff" d="M427.21,-351.15C452.92,-357.37 485.48,-365.24 512.88,-371.87"/>
<polygon fill="#63b8ff" stroke="#63b8ff" points="511.87,-375.22 522.42,-374.17 513.52,-368.42 511.87,-375.22"/>
</a>
</g>
</g>
<!-- Node18 -->
<g id="Node000018" class="node">
<title>Node18</title>
<g id="a_Node000018"><a xlink:href="ie__device__common_8c.html#a7bd28e144c0f372417e90fae8ece5ecc" target="_top" xlink:title="CUDA block&#45;sparse GEMV FP32 stub (unimplemented).">
<polygon fill="white" stroke="#666666" points="640.38,-357.12 499.12,-357.12 499.12,-323.62 640.38,-323.62 640.38,-357.12"/>
<text text-anchor="start" x="507.12" y="-343.62" font-family="Helvetica,sans-Serif" font-size="10.00">cuda_gemv_block_sparse</text>
<text text-anchor="middle" x="569.75" y="-330.88" font-family="Helvetica,sans-Serif" font-size="10.00">_f32_stub</text>
</a>
</g>
</g>
<!-- Node15&#45;&gt;Node18 -->
<g id="edge17_Node000015_Node000018" class="edge">
<title>Node15&#45;&gt;Node18</title>
<g id="a_edge17_Node000015_Node000018"><a xlink:title=" ">
<path fill="none" stroke="#63b8ff" d="M429.11,-340.38C446.84,-340.38 467.6,-340.38 487.61,-340.38"/>
<polygon fill="#63b8ff" stroke="#63b8ff" points="487.44,-343.88 497.44,-340.38 487.44,-336.88 487.44,-343.88"/>
</a>
</g>
</g>
<!-- Node19 -->
<g id="Node000019" class="node">
<title>Node19</title>
<g id="a_Node000019"><a xlink:href="ie__device__common_8c.html#a21aa199bdf7a1b0f258b1ef483fa9880" target="_top" xlink:title="CUDA GEMV FP32 stub (unimplemented).">
<polygon fill="white" stroke="#666666" points="629.5,-305.75 510,-305.75 510,-285 629.5,-285 629.5,-305.75"/>
<text text-anchor="middle" x="569.75" y="-292.25" font-family="Helvetica,sans-Serif" font-size="10.00">cuda_gemv_f32_stub</text>
</a>
</g>
</g>
<!-- Node15&#45;&gt;Node19 -->
<g id="edge18_Node000015_Node000019" class="edge">
<title>Node15&#45;&gt;Node19</title>
<g id="a_edge18_Node000015_Node000019"><a xlink:title=" ">
<path fill="none" stroke="#63b8ff" d="M427.21,-329.6C452.92,-323.38 485.48,-315.51 512.88,-308.88"/>
<polygon fill="#63b8ff" stroke="#63b8ff" points="513.52,-312.33 522.42,-306.58 511.87,-305.53 513.52,-312.33"/>
</a>
</g>
</g>
<!-- Node20 -->
<g id="Node000020" class="node">
<title>Node20</title>
<g id="a_Node000020"><a xlink:href="ie__device__common_8c.html#a917925724f117893e02930b1df41c2fd" target="_top" xlink:title="CUDA memcpy stub (unimplemented).">
<polygon fill="white" stroke="#666666" points="626.5,-266.75 513,-266.75 513,-246 626.5,-246 626.5,-266.75"/>
<text text-anchor="middle" x="569.75" y="-253.25" font-family="Helvetica,sans-Serif" font-size="10.00">cuda_memcpy_stub</text>
</a>
</g>
</g>
<!-- Node15&#45;&gt;Node20 -->
<g id="edge19_Node000015_Node000020" class="edge">
<title>Node15&#45;&gt;Node20</title>
<g id="a_edge19_Node000015_Node000020"><a xlink:title=" ">
<path fill="none" stroke="#63b8ff" d="M398.47,-329.73C419.78,-315.81 459.24,-291.43 495.75,-276.38 500.93,-274.24 506.41,-272.26 511.95,-270.44"/>
<polygon fill="#63b8ff" stroke="#63b8ff" points="512.64,-273.89 521.16,-267.6 510.57,-267.2 512.64,-273.89"/>
</a>
</g>
</g>
<!-- Node21 -->
<g id="Node000021" class="node">
<title>Node21</title>
<g id="a_Node000021"><a xlink:href="ie__device__common_8c.html#a5b5f48338cddd2bed011b4c2384bac25" target="_top" xlink:title="Try opening one of a list of shared objects.">
<polygon fill="white" stroke="#666666" points="610.75,-227.75 528.75,-227.75 528.75,-207 610.75,-207 610.75,-227.75"/>
<text text-anchor="middle" x="569.75" y="-214.25" font-family="Helvetica,sans-Serif" font-size="10.00">try_open_any</text>
</a>
</g>
</g>
<!-- Node15&#45;&gt;Node21 -->
<g id="edge20_Node000015_Node000021" class="edge">
<title>Node15&#45;&gt;Node21</title>
<g id="a_edge20_Node000015_Node000021"><a xlink:title=" ">
<path fill="none" stroke="#63b8ff" d="M391.37,-329.55C408.92,-308.56 450.6,-262.21 495.75,-237.38 502.48,-233.67 509.94,-230.62 517.45,-228.11"/>
<polygon fill="#63b8ff" stroke="#63b8ff" points="518.39,-231.48 526.96,-225.25 516.37,-224.78 518.39,-231.48"/>
</a>
</g>
</g>
<!-- Node22&#45;&gt;Node21 -->
<g id="edge22_Node000022_Node000021" class="edge">
<title>Node22&#45;&gt;Node21</title>
<g id="a_edge22_Node000022_Node000021"><a xlink:title=" ">
<path fill="none" stroke="#63b8ff" d="M400.89,-150.24C422.82,-162.92 460.98,-183.87 495.75,-197.38 502.66,-200.06 510.08,-202.54 517.43,-204.76"/>
<polygon fill="#63b8ff" stroke="#63b8ff" points="516.45,-208.12 527.03,-207.52 518.39,-201.39 516.45,-208.12"/>
</a>
</g>
</g>
<!-- Node23 -->
<g id="Node000023" class="node">
<title>Node23</title>
<g id="a_Node000023"><a xlink:href="ie__device__common_8c.html#a6092fca6f907b5f2b1d74b02d7b06190" target="_top" xlink:title="Level Zero caps thunk used in the vtable.">
<polygon fill="white" stroke="#666666" points="613.75,-188.75 525.75,-188.75 525.75,-168 613.75,-168 613.75,-188.75"/>
<text text-anchor="middle" x="569.75" y="-175.25" font-family="Helvetica,sans-Serif" font-size="10.00">ze_caps_thunk</text>
</a>
</g>
</g>
<!-- Node22&#45;&gt;Node23 -->
<g id="edge23_Node000022_Node000023" class="edge">
<title>Node22&#45;&gt;Node23</title>
<g id="a_edge23_Node000022_Node000023"><a xlink:title=" ">
<path fill="none" stroke="#63b8ff" d="M423.01,-147.84C449.72,-153.43 485.07,-160.84 514.26,-166.96"/>
<polygon fill="#63b8ff" stroke="#63b8ff" points="513.54,-170.38 524.04,-169.01 514.97,-163.53 513.54,-170.38"/>
</a>
</g>
</g>
<!-- Node24 -->
<g id="Node000024" class="node">
<title>Node24</title>
<g id="a_Node000024"><a xlink:href="ie__device__common_8c.html#af95512f035b8be6d514d77b1e55dda8d" target="_top" xlink:title="Destroy Level Zero backend instance.">
<polygon fill="white" stroke="#666666" points="620.88,-149.75 518.62,-149.75 518.62,-129 620.88,-129 620.88,-149.75"/>
<text text-anchor="middle" x="569.75" y="-136.25" font-family="Helvetica,sans-Serif" font-size="10.00">ze_destroy_thunk</text>
</a>
</g>
</g>
<!-- Node22&#45;&gt;Node24 -->
<g id="edge24_Node000022_Node000024" class="edge">
<title>Node22&#45;&gt;Node24</title>
<g id="a_edge24_Node000022_Node000024"><a xlink:title=" ">
<path fill="none" stroke="#63b8ff" d="M423.01,-139.38C447.54,-139.38 479.34,-139.38 506.98,-139.38"/>
<polygon fill="#63b8ff" stroke="#63b8ff" points="506.62,-142.88 516.62,-139.38 506.62,-135.88 506.62,-142.88"/>
</a>
</g>
</g>
<!-- Node25 -->
<g id="Node000025" class="node">
<title>Node25</title>
<g id="a_Node000025"><a xlink:href="ie__device__common_8c.html#ac33423f1f8a9324015003fde2d2af98a" target="_top" xlink:title="Level Zero block&#45;sparse GEMV FP32 stub (unimplemented).">
<polygon fill="white" stroke="#666666" points="634.38,-111.12 505.12,-111.12 505.12,-77.62 634.38,-77.62 634.38,-111.12"/>
<text text-anchor="start" x="513.12" y="-97.62" font-family="Helvetica,sans-Serif" font-size="10.00">ze_gemv_block_sparse</text>
<text text-anchor="middle" x="569.75" y="-84.88" font-family="Helvetica,sans-Serif" font-size="10.00">_f32_stub</text>
</a>
</g>
</g>
<!-- Node22&#45;&gt;Node25 -->
<g id="edge25_Node000022_Node000025" class="edge">
<title>Node22&#45;&gt;Node25</title>
<g id="a_edge25_Node000022_Node000025"><a xlink:title=" ">
<path fill="none" stroke="#63b8ff" d="M423.01,-129.61C443.69,-124.61 469.54,-118.36 493.7,-112.52"/>
<polygon fill="#63b8ff" stroke="#63b8ff" points="494.29,-115.98 503.19,-110.23 492.64,-109.17 494.29,-115.98"/>
</a>
</g>
</g>
<!-- Node26 -->
<g id="Node000026" class="node">
<title>Node26</title>
<g id="a_Node000026"><a xlink:href="ie__device__common_8c.html#aa5580146705fad2c537157820af8617e" target="_top" xlink:title="Level Zero GEMV FP32 stub (unimplemented).">
<polygon fill="white" stroke="#666666" points="623.5,-59.75 516,-59.75 516,-39 623.5,-39 623.5,-59.75"/>
<text text-anchor="middle" x="569.75" y="-46.25" font-family="Helvetica,sans-Serif" font-size="10.00">ze_gemv_f32_stub</text>
</a>
</g>
</g>
<!-- Node22&#45;&gt;Node26 -->
<g id="edge26_Node000022_Node000026" class="edge">
<title>Node22&#45;&gt;Node26</title>
<g id="a_edge26_Node000022_Node000026"><a xlink:title=" ">
<path fill="none" stroke="#63b8ff" d="M396.48,-128.69C417.07,-113.3 457.43,-84.92 495.75,-68.38 499.76,-66.64 503.97,-65.04 508.25,-63.56"/>
<polygon fill="#63b8ff" stroke="#63b8ff" points="509.07,-66.97 517.53,-60.6 506.94,-60.3 509.07,-66.97"/>
</a>
</g>
</g>
<!-- Node27 -->
<g id="Node000027" class="node">
<title>Node27</title>
<g id="a_Node000027"><a xlink:href="ie__device__common_8c.html#a7adb715134a131666c7c75a0fe81b62c" target="_top" xlink:title="Level Zero memcpy stub (unimplemented).">
<polygon fill="white" stroke="#666666" points="620.5,-20.75 519,-20.75 519,0 620.5,0 620.5,-20.75"/>
<text text-anchor="middle" x="569.75" y="-7.25" font-family="Helvetica,sans-Serif" font-size="10.00">ze_memcpy_stub</text>
</a>
</g>
</g>
<!-- Node22&#45;&gt;Node27 -->
<g id="edge27_Node000022_Node000027" class="edge">
<title>Node22&#45;&gt;Node27</title>
<g id="a_edge27_Node000022_Node000027"><a xlink:title=" ">
<path fill="none" stroke="#63b8ff" d="M390.7,-128.57C407.66,-106.66 449.28,-56.8 495.75,-30.38 499.62,-28.17 503.75,-26.2 508,-24.44"/>
<polygon fill="#63b8ff" stroke="#63b8ff" points="509.13,-27.75 517.3,-21.01 506.71,-21.19 509.13,-27.75"/>
</a>
</g>
</g>
</g>
</svg>

<g id="navigator" transform="translate(0 0)" fill="#404254">
  <rect fill="#f2f5e9" fill-opacity="0.5" stroke="#606060" stroke-width=".5" x="0" y="0" width="60" height="60"/>
  <use id="zoomplus" xlink:href="#zoomPlus" x="17" y="9" onmousedown="handleZoom(evt,'in')"/>
  <use id="zoomminus" xlink:href="#zoomMin" x="42" y="9" onmousedown="handleZoom(evt,'out')"/>
  <use id="reset" xlink:href="#resetDef" x="30" y="36" onmousedown="handleReset()"/>
   <use id="arrowup" xlink:href="#arrowUp" x="0" y="0" onmousedown="handlePan(0,-1)"/>
  <use id="arrowright" xlink:href="#arrowRight" x="0" y="0" onmousedown="handlePan(1,0)"/>
  <use id="arrowdown" xlink:href="#arrowDown" x="0" y="0" onmousedown="handlePan(0,1)"/>
  <use id="arrowleft" xlink:href="#arrowLeft" x="0" y="0" onmousedown="handlePan(-1,0)"/>
</g>
<svg viewBox="0 0 15 15" width="100%" height="30px" preserveAspectRatio="xMaxYMin meet">
 <g id="arrow_out" transform="scale(0.3 0.3)">
  <a xlink:href="ie__device__common_8c_ae46eb0813b9477e0f3f2084c4d52d33e_cgraph_org.svg" target="_base">
   <rect id="button" ry="5" rx="5" y="6" x="6" height="38" width="38"
        fill="#f2f5e9" fill-opacity="0.5" stroke="#606060" stroke-width="1.0"/>
   <path id="arrow"
     d="M 11.500037,31.436501 C 11.940474,20.09759 22.043105,11.32322 32.158766,21.979434 L 37.068811,17.246167 C 37.068811,17.246167 37.088388,32 37.088388,32 L 22.160133,31.978069 C 22.160133,31.978069 26.997745,27.140456 26.997745,27.140456 C 18.528582,18.264221 13.291696,25.230495 11.500037,31.436501 z"
     style="fill:#404040;"/>
  </a>
 </g>
</svg>

<style type='text/css'>
<![CDATA[
[data-mouse-over-selected='false'] { opacity: 0.7; }
[data-mouse-over-selected='true']  { opacity: 1.0; }
]]>
</style>
<script type="application/ecmascript"><![CDATA[
document.addEventListener('DOMContentLoaded', (event) => {
  highlightEdges();
  highlightAdjacentNodes();
});
]]></script>
</svg>
