<?xml version="1.0" encoding="UTF-8" standalone="no"?>
<!DOCTYPE svg PUBLIC "-//W3C//DTD SVG 1.1//EN"
 "http://www.w3.org/Graphics/SVG/1.1/DTD/svg11.dtd">
<!-- Generated by graphviz version 12.2.1 (20241206.2353)
 -->
<!-- Title: memcpy_imm Pages: 1 -->
<svg width="309pt" height="170pt"
 viewBox="0.00 0.00 309.25 170.12" xmlns="http://www.w3.org/2000/svg" xmlns:xlink="http://www.w3.org/1999/xlink">

<svg id="main" version="1.1" xmlns="http://www.w3.org/2000/svg" xmlns:xlink="http://www.w3.org/1999/xlink" xml:space="preserve">

<style type="text/css"><![CDATA[
.node, .edge {opacity: 0.7;}
.node.selected, .edge.selected {opacity: 1;}
.edge:hover path { stroke: red; }
.edge:hover polygon { stroke: red; fill: red; }
]]></style>
<script type="application/ecmascript" xlink:href="svg.min.js"/>
<svg id="graph" class="graph">
<g id="graph0" class="graph" transform="scale(1 1) rotate(0) translate(4 166.12)">
<title>memcpy_imm</title>
<!-- Node1 -->
<g id="Node000001" class="node">
<title>Node1</title>
<g id="a_Node000001"><a xlink:title="Copy host→device or device→host using immediate command list.">
<polygon fill="#999999" stroke="#666666" points="301.25,-87.75 214.75,-87.75 214.75,-67 301.25,-67 301.25,-87.75"/>
<text text-anchor="middle" x="258" y="-74.25" font-family="Helvetica,sans-Serif" font-size="10.00">memcpy_imm</text>
</a>
</g>
</g>
<!-- Node2 -->
<g id="Node000002" class="node">
<title>Node2</title>
<g id="a_Node000002"><a xlink:href="group__IE__GPU__ZE.html#ga8b3a60d6c8ace36a7e0de49ef03666d4" target="_top" xlink:title="Fused GEMV + bias + activation: y = act(alpha*W*x + bias + beta*y).">
<polygon fill="white" stroke="#666666" points="158.12,-162.12 20.62,-162.12 20.62,-128.62 158.12,-128.62 158.12,-162.12"/>
<text text-anchor="start" x="28.62" y="-148.62" font-family="Helvetica,sans-Serif" font-size="10.00">ie_ze_launch_gemv_bias</text>
<text text-anchor="middle" x="89.38" y="-135.88" font-family="Helvetica,sans-Serif" font-size="10.00">_act_f32</text>
</a>
</g>
</g>
<!-- Node1&#45;&gt;Node2 -->
<g id="edge1_Node000001_Node000002" class="edge">
<title>Node1&#45;&gt;Node2</title>
<g id="a_edge1_Node000001_Node000002"><a xlink:title=" ">
<path fill="none" stroke="#63b8ff" d="M229.54,-93.92C214.83,-102.31 196.2,-112.22 178.75,-119.38 171.06,-122.53 162.84,-125.48 154.64,-128.17"/>
<polygon fill="#63b8ff" stroke="#63b8ff" points="231.29,-96.95 238.18,-88.89 227.77,-90.9 231.29,-96.95"/>
</a>
</g>
</g>
<!-- Node3 -->
<g id="Node000003" class="node">
<title>Node3</title>
<g id="a_Node000003"><a xlink:href="group__IE__GPU__ZE.html#ga71484badcdb4416b3ac57397416f7d11" target="_top" xlink:title="Row&#45;wise GEMV FP32: y = alpha * W * x + beta * y.">
<polygon fill="white" stroke="#666666" points="178.75,-110.75 0,-110.75 0,-90 178.75,-90 178.75,-110.75"/>
<text text-anchor="middle" x="89.38" y="-97.25" font-family="Helvetica,sans-Serif" font-size="10.00">ie_ze_launch_gemv_rowwise_f32</text>
</a>
</g>
</g>
<!-- Node1&#45;&gt;Node3 -->
<g id="edge2_Node000001_Node000003" class="edge">
<title>Node1&#45;&gt;Node3</title>
<g id="a_edge2_Node000001_Node000003"><a xlink:title=" ">
<path fill="none" stroke="#63b8ff" d="M203.42,-84.77C192.46,-86.28 180.7,-87.91 169.07,-89.51"/>
<polygon fill="#63b8ff" stroke="#63b8ff" points="203.6,-88.28 213.02,-83.45 202.64,-81.35 203.6,-88.28"/>
</a>
</g>
</g>
<!-- Node4 -->
<g id="Node000004" class="node">
<title>Node4</title>
<g id="a_Node000004"><a xlink:href="group__IE__GPU__ZE.html#ga01b63c6c0def048b6eb55bc2b1f2b4c4" target="_top" xlink:title="Pack W (row&#45;major) into Blocked&#45;K layout into Wp.">
<polygon fill="white" stroke="#666666" points="149.88,-72.12 28.88,-72.12 28.88,-38.62 149.88,-38.62 149.88,-72.12"/>
<text text-anchor="start" x="36.88" y="-58.62" font-family="Helvetica,sans-Serif" font-size="10.00">ie_ze_launch_pack_w</text>
<text text-anchor="middle" x="89.38" y="-45.88" font-family="Helvetica,sans-Serif" font-size="10.00">_blockedk_f32</text>
</a>
</g>
</g>
<!-- Node1&#45;&gt;Node4 -->
<g id="edge3_Node000001_Node000004" class="edge">
<title>Node1&#45;&gt;Node4</title>
<g id="a_edge3_Node000001_Node000004"><a xlink:title=" ">
<path fill="none" stroke="#63b8ff" d="M203.13,-70.26C186.19,-68.03 167.38,-65.54 150.06,-63.26"/>
<polygon fill="#63b8ff" stroke="#63b8ff" points="202.65,-73.73 213.02,-71.57 203.57,-66.79 202.65,-73.73"/>
</a>
</g>
</g>
<!-- Node5 -->
<g id="Node000005" class="node">
<title>Node5</title>
<g id="a_Node000005"><a xlink:href="group__IE__GPU__ZE.html#ga8cc805ce0f117c564d8ba8ed1df08669" target="_top" xlink:title="Vector tanh: y[i] = tanh(x[i]) for i in [0, n).">
<polygon fill="white" stroke="#666666" points="164.12,-20.75 14.62,-20.75 14.62,0 164.12,0 164.12,-20.75"/>
<text text-anchor="middle" x="89.38" y="-7.25" font-family="Helvetica,sans-Serif" font-size="10.00">ie_ze_launch_vec_tanh_f32</text>
</a>
</g>
</g>
<!-- Node1&#45;&gt;Node5 -->
<g id="edge4_Node000001_Node000005" class="edge">
<title>Node1&#45;&gt;Node5</title>
<g id="a_edge4_Node000001_Node000005"><a xlink:title=" ">
<path fill="none" stroke="#63b8ff" d="M233.76,-60.21C218.75,-49.88 198.41,-37.25 178.75,-29.38 170.74,-26.17 162.09,-23.46 153.45,-21.19"/>
<polygon fill="#63b8ff" stroke="#63b8ff" points="231.37,-62.81 241.56,-65.72 235.41,-57.09 231.37,-62.81"/>
</a>
</g>
</g>
</g>
</svg>
</svg>

<style type='text/css'>
<![CDATA[
[data-mouse-over-selected='false'] { opacity: 0.7; }
[data-mouse-over-selected='true']  { opacity: 1.0; }
]]>
</style>
<script type="application/ecmascript"><![CDATA[
document.addEventListener('DOMContentLoaded', (event) => {
  highlightEdges();
  highlightAdjacentNodes();
});
]]></script>
</svg>
