<?xml version="1.0" encoding="UTF-8" standalone="no"?>
<!DOCTYPE svg PUBLIC "-//W3C//DTD SVG 1.1//EN"
 "http://www.w3.org/Graphics/SVG/1.1/DTD/svg11.dtd">
<!-- Generated by graphviz version 2.43.0 (0)
 -->
<!-- Title: ie_device_memcpy Pages: 1 -->
<svg width="947pt" height="581pt"
 viewBox="0.00 0.00 947.00 581.00" xmlns="http://www.w3.org/2000/svg" xmlns:xlink="http://www.w3.org/1999/xlink">
<g id="graph0" class="graph" transform="scale(1 1) rotate(0) translate(4 577)">
<title>ie_device_memcpy</title>
<!-- Node1 -->
<g id="node1" class="node">
<title>Node1</title>
<g id="a_node1"><a xlink:title="Execute memcpy via backend or CPU fallback.">
<polygon fill="#bfbfbf" stroke="black" points="0,-401.5 0,-420.5 111,-420.5 111,-401.5 0,-401.5"/>
<text text-anchor="middle" x="55.5" y="-408.5" font-family="Helvetica,sans-Serif" font-size="10.00">ie_device_memcpy</text>
</a>
</g>
</g>
<!-- Node1&#45;&gt;Node1 -->
<g id="edge29" class="edge">
<title>Node1&#45;&gt;Node1</title>
<path fill="none" stroke="midnightblue" d="M33.31,-420.76C22.51,-429.57 29.91,-439 55.5,-439 72.3,-439 81.26,-434.94 82.38,-429.65"/>
<polygon fill="midnightblue" stroke="midnightblue" points="85.45,-427.97 77.69,-420.76 79.26,-431.24 85.45,-427.97"/>
</g>
<!-- Node2 -->
<g id="node2" class="node">
<title>Node2</title>
<g id="a_node2"><a xlink:href="ie__device__common_8c.html#a3e42fcc4b9579a9bf14520cb1afe733b" target="_top" xlink:title="Create a device backend.">
<polygon fill="none" stroke="black" points="150,-420.5 150,-439.5 249,-439.5 249,-420.5 150,-420.5"/>
<text text-anchor="middle" x="199.5" y="-427.5" font-family="Helvetica,sans-Serif" font-size="10.00">ie_device_create</text>
</a>
</g>
</g>
<!-- Node1&#45;&gt;Node2 -->
<g id="edge1" class="edge">
<title>Node1&#45;&gt;Node2</title>
<path fill="none" stroke="midnightblue" d="M111.4,-418.35C120.69,-419.59 130.36,-420.88 139.74,-422.14"/>
<polygon fill="midnightblue" stroke="midnightblue" points="139.39,-425.62 149.77,-423.48 140.32,-418.68 139.39,-425.62"/>
</g>
<!-- Node28 -->
<g id="node28" class="node">
<title>Node28</title>
<g id="a_node28"><a xlink:href="ie__device__common_8c.html#a8f8a88a7dd6a58749275d2f3dea9a0ab" target="_top" xlink:title="Destroy a device instance.">
<polygon fill="none" stroke="black" points="147,-382.5 147,-401.5 252,-401.5 252,-382.5 147,-382.5"/>
<text text-anchor="middle" x="199.5" y="-389.5" font-family="Helvetica,sans-Serif" font-size="10.00">ie_device_destroy</text>
</a>
</g>
</g>
<!-- Node1&#45;&gt;Node28 -->
<g id="edge28" class="edge">
<title>Node1&#45;&gt;Node28</title>
<path fill="none" stroke="midnightblue" d="M111.4,-403.65C119.61,-402.56 128.13,-401.42 136.47,-400.3"/>
<polygon fill="midnightblue" stroke="midnightblue" points="137.09,-403.75 146.54,-398.95 136.16,-396.81 137.09,-403.75"/>
</g>
<!-- Node3 -->
<g id="node3" class="node">
<title>Node3</title>
<g id="a_node3"><a xlink:href="ie__device__common_8c.html#a49b8c853d1b641c9402ed5e92d8af962" target="_top" xlink:title="Report CPU device capabilities.">
<polygon fill="none" stroke="black" points="335.5,-553.5 335.5,-572.5 397.5,-572.5 397.5,-553.5 335.5,-553.5"/>
<text text-anchor="middle" x="366.5" y="-560.5" font-family="Helvetica,sans-Serif" font-size="10.00">cpu_caps</text>
</a>
</g>
</g>
<!-- Node2&#45;&gt;Node3 -->
<g id="edge2" class="edge">
<title>Node2&#45;&gt;Node3</title>
<path fill="none" stroke="midnightblue" d="M205.07,-439.73C216.01,-461.94 246.01,-516.59 288,-544 299.08,-551.23 312.67,-555.71 325.36,-558.48"/>
<polygon fill="midnightblue" stroke="midnightblue" points="324.81,-561.94 335.29,-560.37 326.11,-555.06 324.81,-561.94"/>
</g>
<!-- Node4 -->
<g id="node4" class="node">
<title>Node4</title>
<g id="a_node4"><a xlink:href="ie__device__common_8c.html#a94f0164f6cb0f1f874ad9b18194cfbc2" target="_top" xlink:title="Destroy CPU backend instance.">
<polygon fill="none" stroke="black" points="328.5,-515.5 328.5,-534.5 404.5,-534.5 404.5,-515.5 328.5,-515.5"/>
<text text-anchor="middle" x="366.5" y="-522.5" font-family="Helvetica,sans-Serif" font-size="10.00">cpu_destroy</text>
</a>
</g>
</g>
<!-- Node2&#45;&gt;Node4 -->
<g id="edge3" class="edge">
<title>Node2&#45;&gt;Node4</title>
<path fill="none" stroke="midnightblue" d="M208.63,-439.56C222.97,-455.77 254.41,-488.61 288,-506 297.42,-510.88 308.13,-514.53 318.52,-517.27"/>
<polygon fill="midnightblue" stroke="midnightblue" points="317.8,-520.69 328.34,-519.61 319.42,-513.88 317.8,-520.69"/>
</g>
<!-- Node5 -->
<g id="node5" class="node">
<title>Node5</title>
<g id="a_node5"><a xlink:href="ie__device__common_8c.html#a4cf6c8ed666278da8fdaf7f0b953138c" target="_top" xlink:title="CPU implementation of block&#45;sparse GEMV FP32.">
<polygon fill="none" stroke="black" points="288,-477.5 288,-496.5 445,-496.5 445,-477.5 288,-477.5"/>
<text text-anchor="middle" x="366.5" y="-484.5" font-family="Helvetica,sans-Serif" font-size="10.00">cpu_gemv_block_sparse_f32</text>
</a>
</g>
</g>
<!-- Node2&#45;&gt;Node5 -->
<g id="edge4" class="edge">
<title>Node2&#45;&gt;Node5</title>
<path fill="none" stroke="midnightblue" d="M219.93,-439.57C237.42,-447.91 263.99,-459.91 288,-468 295.38,-470.49 303.27,-472.8 311.07,-474.89"/>
<polygon fill="midnightblue" stroke="midnightblue" points="310.31,-478.31 320.87,-477.43 312.06,-471.54 310.31,-478.31"/>
</g>
<!-- Node8 -->
<g id="node8" class="node">
<title>Node8</title>
<g id="a_node8"><a xlink:href="ie__device__common_8c.html#a4fb9bb01bfbe71517f9df925ba9c93ec" target="_top" xlink:title="Execute dense GEMV FP32 on CPU using existing kernels.">
<polygon fill="none" stroke="black" points="322.5,-439.5 322.5,-458.5 410.5,-458.5 410.5,-439.5 322.5,-439.5"/>
<text text-anchor="middle" x="366.5" y="-446.5" font-family="Helvetica,sans-Serif" font-size="10.00">cpu_gemv_f32</text>
</a>
</g>
</g>
<!-- Node2&#45;&gt;Node8 -->
<g id="edge7" class="edge">
<title>Node2&#45;&gt;Node8</title>
<path fill="none" stroke="midnightblue" d="M249.11,-435.6C268.96,-437.88 291.96,-440.53 312.26,-442.87"/>
<polygon fill="midnightblue" stroke="midnightblue" points="311.95,-446.36 322.28,-444.02 312.75,-439.4 311.95,-446.36"/>
</g>
<!-- Node13 -->
<g id="node13" class="node">
<title>Node13</title>
<g id="a_node13"><a xlink:href="ie__device__common_8c.html#a4c7a3b8d7f7279d7680aa68e429e6206" target="_top" xlink:title="CPU memcpy implementation.">
<polygon fill="none" stroke="black" points="325.5,-401.5 325.5,-420.5 407.5,-420.5 407.5,-401.5 325.5,-401.5"/>
<text text-anchor="middle" x="366.5" y="-408.5" font-family="Helvetica,sans-Serif" font-size="10.00">cpu_memcpy</text>
</a>
</g>
</g>
<!-- Node2&#45;&gt;Node13 -->
<g id="edge12" class="edge">
<title>Node2&#45;&gt;Node13</title>
<path fill="none" stroke="midnightblue" d="M249.11,-424.4C269.94,-422 294.27,-419.2 315.27,-416.78"/>
<polygon fill="midnightblue" stroke="midnightblue" points="315.75,-420.25 325.29,-415.63 314.95,-413.3 315.75,-420.25"/>
</g>
<!-- Node14 -->
<g id="node14" class="node">
<title>Node14</title>
<g id="a_node14"><a xlink:href="ie__device__common_8c.html#ad03c405f3ef6802a820aa78ff999ecbe" target="_top" xlink:title="Allocate a CPU backend instance.">
<polygon fill="none" stroke="black" points="337,-363.5 337,-382.5 396,-382.5 396,-363.5 337,-363.5"/>
<text text-anchor="middle" x="366.5" y="-370.5" font-family="Helvetica,sans-Serif" font-size="10.00">cpu_new</text>
</a>
</g>
</g>
<!-- Node2&#45;&gt;Node14 -->
<g id="edge13" class="edge">
<title>Node2&#45;&gt;Node14</title>
<path fill="none" stroke="midnightblue" d="M228.57,-420.41C236.25,-417.58 244.51,-414.34 252,-411 268.52,-403.63 271.09,-398.42 288,-392 300.36,-387.3 314.29,-383.47 326.88,-380.5"/>
<polygon fill="midnightblue" stroke="midnightblue" points="327.66,-383.92 336.65,-378.31 326.12,-377.09 327.66,-383.92"/>
</g>
<!-- Node15 -->
<g id="node15" class="node">
<title>Node15</title>
<g id="a_node15"><a xlink:href="ie__device__common_8c.html#ae4ac15a3b8fea25568b8cdeb2cd781fe" target="_top" xlink:title="Try to initialize CUDA backend via dlopen.">
<polygon fill="none" stroke="black" points="319,-322.5 319,-341.5 414,-341.5 414,-322.5 319,-322.5"/>
<text text-anchor="middle" x="366.5" y="-329.5" font-family="Helvetica,sans-Serif" font-size="10.00">cuda_try_create</text>
</a>
</g>
</g>
<!-- Node2&#45;&gt;Node15 -->
<g id="edge14" class="edge">
<title>Node2&#45;&gt;Node15</title>
<path fill="none" stroke="midnightblue" d="M235.95,-420.44C241.67,-417.94 247.26,-414.84 252,-411 275.29,-392.15 264,-371.94 288,-354 294.3,-349.29 301.57,-345.59 309.09,-342.68"/>
<polygon fill="midnightblue" stroke="midnightblue" points="310.35,-345.94 318.68,-339.4 308.09,-339.32 310.35,-345.94"/>
</g>
<!-- Node22 -->
<g id="node22" class="node">
<title>Node22</title>
<g id="a_node22"><a xlink:href="ie__device__common_8c.html#a6877d362577444879b41090af23950d6" target="_top" xlink:title="Try to initialize Level Zero backend via dlopen.">
<polygon fill="none" stroke="black" points="325,-126.5 325,-145.5 408,-145.5 408,-126.5 325,-126.5"/>
<text text-anchor="middle" x="366.5" y="-133.5" font-family="Helvetica,sans-Serif" font-size="10.00">ze_try_create</text>
</a>
</g>
</g>
<!-- Node2&#45;&gt;Node22 -->
<g id="edge21" class="edge">
<title>Node2&#45;&gt;Node22</title>
<path fill="none" stroke="midnightblue" d="M238.52,-420.37C243.48,-417.92 248.16,-414.84 252,-411 284.79,-378.17 270.69,-356.05 288,-313 311.49,-254.59 342.2,-186.68 356.91,-154.61"/>
<polygon fill="midnightblue" stroke="midnightblue" points="360.09,-156.05 361.09,-145.51 353.73,-153.13 360.09,-156.05"/>
</g>
<!-- Node6 -->
<g id="node6" class="node">
<title>Node6</title>
<g id="a_node6"><a xlink:href="sparse__format_8h.html#ae9a2aad0ec5332237097030acf034961" target="_top" xlink:title="Perform a single&#45;precision block&#45;sparse matrix&#45;vector product.">
<polygon fill="none" stroke="black" points="481,-480.5 481,-499.5 630,-499.5 630,-480.5 481,-480.5"/>
<text text-anchor="middle" x="555.5" y="-487.5" font-family="Helvetica,sans-Serif" font-size="10.00">ie_gemv_block_sparse_f32</text>
</a>
</g>
</g>
<!-- Node5&#45;&gt;Node6 -->
<g id="edge5" class="edge">
<title>Node5&#45;&gt;Node6</title>
<path fill="none" stroke="midnightblue" d="M445.18,-488.25C453.69,-488.38 462.38,-488.52 470.96,-488.66"/>
<polygon fill="midnightblue" stroke="midnightblue" points="470.9,-492.16 480.96,-488.82 471.02,-485.16 470.9,-492.16"/>
</g>
<!-- Node7 -->
<g id="node7" class="node">
<title>Node7</title>
<g id="a_node7"><a xlink:href="gemm__block__sparse_8c.html#a3922fd0c3f07582c82640f45091460d8" target="_top" xlink:title="Compute the pointer to the first element of a given block.">
<polygon fill="none" stroke="black" points="667,-480.5 667,-499.5 766,-499.5 766,-480.5 667,-480.5"/>
<text text-anchor="middle" x="716.5" y="-487.5" font-family="Helvetica,sans-Serif" font-size="10.00">block_values_ptr</text>
</a>
</g>
</g>
<!-- Node6&#45;&gt;Node7 -->
<g id="edge6" class="edge">
<title>Node6&#45;&gt;Node7</title>
<path fill="none" stroke="midnightblue" d="M630.41,-490C639.18,-490 648.03,-490 656.55,-490"/>
<polygon fill="midnightblue" stroke="midnightblue" points="656.74,-493.5 666.74,-490 656.74,-486.5 656.74,-493.5"/>
</g>
<!-- Node9 -->
<g id="node9" class="node">
<title>Node9</title>
<g id="a_node9"><a xlink:href="ie__kernels_8h.html#a4e112b3396ed21919f404631c1d4d7fb" target="_top" xlink:title="GEMV (fp32): y[r] = dot(W[r,:], x) + (bias ? bias[r] : 0).">
<polygon fill="none" stroke="black" points="515.5,-442.5 515.5,-461.5 595.5,-461.5 595.5,-442.5 515.5,-442.5"/>
<text text-anchor="middle" x="555.5" y="-449.5" font-family="Helvetica,sans-Serif" font-size="10.00">ie_gemv_f32</text>
</a>
</g>
</g>
<!-- Node8&#45;&gt;Node9 -->
<g id="edge8" class="edge">
<title>Node8&#45;&gt;Node9</title>
<path fill="none" stroke="midnightblue" d="M410.87,-449.7C439.15,-450.15 476.11,-450.74 505.46,-451.21"/>
<polygon fill="midnightblue" stroke="midnightblue" points="505.44,-454.71 515.5,-451.37 505.56,-447.71 505.44,-454.71"/>
</g>
<!-- Node10 -->
<g id="node10" class="node">
<title>Node10</title>
<g id="a_node10"><a xlink:href="gemv__generic_8c.html#a1b919f71b86ec1791fe53bc68d5c240d" target="_top" xlink:title="Install the best available fp32 GEMV kernel.">
<polygon fill="none" stroke="black" points="666,-442.5 666,-461.5 767,-461.5 767,-442.5 666,-442.5"/>
<text text-anchor="middle" x="716.5" y="-449.5" font-family="Helvetica,sans-Serif" font-size="10.00">ie_kernels_install</text>
</a>
</g>
</g>
<!-- Node9&#45;&gt;Node10 -->
<g id="edge9" class="edge">
<title>Node9&#45;&gt;Node10</title>
<path fill="none" stroke="midnightblue" d="M595.8,-452C613.81,-452 635.56,-452 655.55,-452"/>
<polygon fill="midnightblue" stroke="midnightblue" points="655.81,-455.5 665.81,-452 655.81,-448.5 655.81,-455.5"/>
</g>
<!-- Node11 -->
<g id="node11" class="node">
<title>Node11</title>
<g id="a_node11"><a xlink:href="gemv__generic_8c.html#a51096a373f5e5010d39cbf44e34b730d" target="_top" xlink:title="Generic C GEMV: y = W * x (+bias), optional blocked&#45;K traversal.">
<polygon fill="none" stroke="black" points="814.5,-461.5 814.5,-480.5 927.5,-480.5 927.5,-461.5 814.5,-461.5"/>
<text text-anchor="middle" x="871" y="-468.5" font-family="Helvetica,sans-Serif" font-size="10.00">gemv_generic_impl</text>
</a>
</g>
</g>
<!-- Node10&#45;&gt;Node11 -->
<g id="edge10" class="edge">
<title>Node10&#45;&gt;Node11</title>
<path fill="none" stroke="midnightblue" d="M767.01,-458.17C778.95,-459.66 791.9,-461.27 804.44,-462.83"/>
<polygon fill="midnightblue" stroke="midnightblue" points="804.04,-466.31 814.4,-464.07 804.91,-459.36 804.04,-466.31"/>
</g>
<!-- Node12 -->
<g id="node12" class="node">
<title>Node12</title>
<g id="a_node12"><a xlink:href="gemv__generic_8c.html#a63b484c2984caeed7dfc9b5002444f57" target="_top" xlink:title="AVX2/FMA GEMV (fp32), provided by gemv_avx2.c.">
<polygon fill="none" stroke="black" points="803,-423.5 803,-442.5 939,-442.5 939,-423.5 803,-423.5"/>
<text text-anchor="middle" x="871" y="-430.5" font-family="Helvetica,sans-Serif" font-size="10.00">ie_gemv_f32_avx2_impl</text>
</a>
</g>
</g>
<!-- Node10&#45;&gt;Node12 -->
<g id="edge11" class="edge">
<title>Node10&#45;&gt;Node12</title>
<path fill="none" stroke="midnightblue" d="M767.01,-445.83C775.35,-444.79 784.18,-443.69 793.03,-442.59"/>
<polygon fill="midnightblue" stroke="midnightblue" points="793.5,-446.06 802.99,-441.35 792.63,-439.11 793.5,-446.06"/>
</g>
<!-- Node16 -->
<g id="node16" class="node">
<title>Node16</title>
<g id="a_node16"><a xlink:href="ie__device__common_8c.html#afbcd46d9b25dd33110fdf48f5c83b017" target="_top" xlink:title="CUDA caps thunk used in the vtable.">
<polygon fill="none" stroke="black" points="505,-404.5 505,-423.5 606,-423.5 606,-404.5 505,-404.5"/>
<text text-anchor="middle" x="555.5" y="-411.5" font-family="Helvetica,sans-Serif" font-size="10.00">cuda_caps_thunk</text>
</a>
</g>
</g>
<!-- Node15&#45;&gt;Node16 -->
<g id="edge15" class="edge">
<title>Node15&#45;&gt;Node16</title>
<path fill="none" stroke="midnightblue" d="M414.02,-340.54C424.7,-343.74 435.66,-348.1 445,-354 465.5,-366.95 460.35,-382.29 481,-395 485.45,-397.74 490.28,-400.08 495.26,-402.09"/>
<polygon fill="midnightblue" stroke="midnightblue" points="494.4,-405.49 504.99,-405.55 496.75,-398.9 494.4,-405.49"/>
</g>
<!-- Node17 -->
<g id="node17" class="node">
<title>Node17</title>
<g id="a_node17"><a xlink:href="ie__device__common_8c.html#a7ecb9f771aea0ef0d125bbe31b53c87a" target="_top" xlink:title="Destroy CUDA backend instance.">
<polygon fill="none" stroke="black" points="498,-366.5 498,-385.5 613,-385.5 613,-366.5 498,-366.5"/>
<text text-anchor="middle" x="555.5" y="-373.5" font-family="Helvetica,sans-Serif" font-size="10.00">cuda_destroy_thunk</text>
</a>
</g>
</g>
<!-- Node15&#45;&gt;Node17 -->
<g id="edge16" class="edge">
<title>Node15&#45;&gt;Node17</title>
<path fill="none" stroke="midnightblue" d="M408.08,-341.55C436.26,-348.18 474,-357.06 504.11,-364.14"/>
<polygon fill="midnightblue" stroke="midnightblue" points="503.47,-367.59 514,-366.47 505.07,-360.77 503.47,-367.59"/>
</g>
<!-- Node18 -->
<g id="node18" class="node">
<title>Node18</title>
<g id="a_node18"><a xlink:href="ie__device__common_8c.html#a7bd28e144c0f372417e90fae8ece5ecc" target="_top" xlink:title="CUDA block&#45;sparse GEMV FP32 stub (unimplemented).">
<polygon fill="none" stroke="black" points="484.5,-317 484.5,-347 626.5,-347 626.5,-317 484.5,-317"/>
<text text-anchor="start" x="492.5" y="-335" font-family="Helvetica,sans-Serif" font-size="10.00">cuda_gemv_block_sparse</text>
<text text-anchor="middle" x="555.5" y="-324" font-family="Helvetica,sans-Serif" font-size="10.00">_f32_stub</text>
</a>
</g>
</g>
<!-- Node15&#45;&gt;Node18 -->
<g id="edge17" class="edge">
<title>Node15&#45;&gt;Node18</title>
<path fill="none" stroke="midnightblue" d="M414.21,-332C432.34,-332 453.65,-332 474.1,-332"/>
<polygon fill="midnightblue" stroke="midnightblue" points="474.37,-335.5 484.37,-332 474.37,-328.5 474.37,-335.5"/>
</g>
<!-- Node19 -->
<g id="node19" class="node">
<title>Node19</title>
<g id="a_node19"><a xlink:href="ie__device__common_8c.html#a21aa199bdf7a1b0f258b1ef483fa9880" target="_top" xlink:title="CUDA GEMV FP32 stub (unimplemented).">
<polygon fill="none" stroke="black" points="495.5,-278.5 495.5,-297.5 615.5,-297.5 615.5,-278.5 495.5,-278.5"/>
<text text-anchor="middle" x="555.5" y="-285.5" font-family="Helvetica,sans-Serif" font-size="10.00">cuda_gemv_f32_stub</text>
</a>
</g>
</g>
<!-- Node15&#45;&gt;Node19 -->
<g id="edge18" class="edge">
<title>Node15&#45;&gt;Node19</title>
<path fill="none" stroke="midnightblue" d="M408.08,-322.45C436.26,-315.82 474,-306.94 504.11,-299.86"/>
<polygon fill="midnightblue" stroke="midnightblue" points="505.07,-303.23 514,-297.53 503.47,-296.41 505.07,-303.23"/>
</g>
<!-- Node20 -->
<g id="node20" class="node">
<title>Node20</title>
<g id="a_node20"><a xlink:href="ie__device__common_8c.html#a917925724f117893e02930b1df41c2fd" target="_top" xlink:title="CUDA memcpy stub (unimplemented).">
<polygon fill="none" stroke="black" points="498.5,-240.5 498.5,-259.5 612.5,-259.5 612.5,-240.5 498.5,-240.5"/>
<text text-anchor="middle" x="555.5" y="-247.5" font-family="Helvetica,sans-Serif" font-size="10.00">cuda_memcpy_stub</text>
</a>
</g>
</g>
<!-- Node15&#45;&gt;Node20 -->
<g id="edge19" class="edge">
<title>Node15&#45;&gt;Node20</title>
<path fill="none" stroke="midnightblue" d="M381.96,-322.39C402.97,-308.8 443.53,-283.96 481,-269 487.17,-266.54 493.76,-264.31 500.36,-262.32"/>
<polygon fill="midnightblue" stroke="midnightblue" points="501.34,-265.68 510,-259.57 499.42,-258.94 501.34,-265.68"/>
</g>
<!-- Node21 -->
<g id="node21" class="node">
<title>Node21</title>
<g id="a_node21"><a xlink:href="ie__device__common_8c.html#a762f243e171746c069ca302b69473e6d" target="_top" xlink:title="Try opening one of a list of shared objects.">
<polygon fill="none" stroke="black" points="514,-202.5 514,-221.5 597,-221.5 597,-202.5 514,-202.5"/>
<text text-anchor="middle" x="555.5" y="-209.5" font-family="Helvetica,sans-Serif" font-size="10.00">try_open_any</text>
</a>
</g>
</g>
<!-- Node15&#45;&gt;Node21 -->
<g id="edge20" class="edge">
<title>Node15&#45;&gt;Node21</title>
<path fill="none" stroke="midnightblue" d="M375.5,-322.28C392.66,-302.08 435.15,-255.46 481,-231 488.19,-227.16 496.2,-224.07 504.21,-221.59"/>
<polygon fill="midnightblue" stroke="midnightblue" points="505.25,-224.93 513.92,-218.85 503.35,-218.19 505.25,-224.93"/>
</g>
<!-- Node22&#45;&gt;Node21 -->
<g id="edge22" class="edge">
<title>Node22&#45;&gt;Node21</title>
<path fill="none" stroke="midnightblue" d="M383.92,-145.65C405.56,-158.03 445.08,-179.51 481,-193 488.37,-195.77 496.31,-198.28 504.15,-200.5"/>
<polygon fill="midnightblue" stroke="midnightblue" points="503.4,-203.93 513.97,-203.16 505.23,-197.17 503.4,-203.93"/>
</g>
<!-- Node23 -->
<g id="node23" class="node">
<title>Node23</title>
<g id="a_node23"><a xlink:href="ie__device__common_8c.html#a6092fca6f907b5f2b1d74b02d7b06190" target="_top" xlink:title="Level Zero caps thunk used in the vtable.">
<polygon fill="none" stroke="black" points="511,-164.5 511,-183.5 600,-183.5 600,-164.5 511,-164.5"/>
<text text-anchor="middle" x="555.5" y="-171.5" font-family="Helvetica,sans-Serif" font-size="10.00">ze_caps_thunk</text>
</a>
</g>
</g>
<!-- Node22&#45;&gt;Node23 -->
<g id="edge23" class="edge">
<title>Node22&#45;&gt;Node23</title>
<path fill="none" stroke="midnightblue" d="M408.08,-144.25C435.17,-149.75 471.11,-157.06 500.6,-163.05"/>
<polygon fill="midnightblue" stroke="midnightblue" points="500.24,-166.55 510.74,-165.11 501.64,-159.69 500.24,-166.55"/>
</g>
<!-- Node24 -->
<g id="node24" class="node">
<title>Node24</title>
<g id="a_node24"><a xlink:href="ie__device__common_8c.html#af95512f035b8be6d514d77b1e55dda8d" target="_top" xlink:title="Destroy Level Zero backend instance.">
<polygon fill="none" stroke="black" points="504,-126.5 504,-145.5 607,-145.5 607,-126.5 504,-126.5"/>
<text text-anchor="middle" x="555.5" y="-133.5" font-family="Helvetica,sans-Serif" font-size="10.00">ze_destroy_thunk</text>
</a>
</g>
</g>
<!-- Node22&#45;&gt;Node24 -->
<g id="edge24" class="edge">
<title>Node22&#45;&gt;Node24</title>
<path fill="none" stroke="midnightblue" d="M408.08,-136C433.14,-136 465.77,-136 493.87,-136"/>
<polygon fill="midnightblue" stroke="midnightblue" points="493.99,-139.5 503.99,-136 493.99,-132.5 493.99,-139.5"/>
</g>
<!-- Node25 -->
<g id="node25" class="node">
<title>Node25</title>
<g id="a_node25"><a xlink:href="ie__device__common_8c.html#ac33423f1f8a9324015003fde2d2af98a" target="_top" xlink:title="Level Zero block&#45;sparse GEMV FP32 stub (unimplemented).">
<polygon fill="none" stroke="black" points="490.5,-77 490.5,-107 620.5,-107 620.5,-77 490.5,-77"/>
<text text-anchor="start" x="498.5" y="-95" font-family="Helvetica,sans-Serif" font-size="10.00">ze_gemv_block_sparse</text>
<text text-anchor="middle" x="555.5" y="-84" font-family="Helvetica,sans-Serif" font-size="10.00">_f32_stub</text>
</a>
</g>
</g>
<!-- Node22&#45;&gt;Node25 -->
<g id="edge25" class="edge">
<title>Node22&#45;&gt;Node25</title>
<path fill="none" stroke="midnightblue" d="M408.08,-126.45C429.32,-121.45 455.99,-115.18 480.74,-109.36"/>
<polygon fill="midnightblue" stroke="midnightblue" points="481.54,-112.76 490.47,-107.07 479.94,-105.95 481.54,-112.76"/>
</g>
<!-- Node26 -->
<g id="node26" class="node">
<title>Node26</title>
<g id="a_node26"><a xlink:href="ie__device__common_8c.html#aa5580146705fad2c537157820af8617e" target="_top" xlink:title="Level Zero GEMV FP32 stub (unimplemented).">
<polygon fill="none" stroke="black" points="501.5,-38.5 501.5,-57.5 609.5,-57.5 609.5,-38.5 501.5,-38.5"/>
<text text-anchor="middle" x="555.5" y="-45.5" font-family="Helvetica,sans-Serif" font-size="10.00">ze_gemv_f32_stub</text>
</a>
</g>
</g>
<!-- Node22&#45;&gt;Node26 -->
<g id="edge26" class="edge">
<title>Node22&#45;&gt;Node26</title>
<path fill="none" stroke="midnightblue" d="M380.83,-126.35C401.4,-111.84 442.54,-84.39 481,-68 487.61,-65.18 494.72,-62.66 501.83,-60.44"/>
<polygon fill="midnightblue" stroke="midnightblue" points="502.87,-63.78 511.46,-57.59 500.88,-57.07 502.87,-63.78"/>
</g>
<!-- Node27 -->
<g id="node27" class="node">
<title>Node27</title>
<g id="a_node27"><a xlink:href="ie__device__common_8c.html#a7adb715134a131666c7c75a0fe81b62c" target="_top" xlink:title="Level Zero memcpy stub (unimplemented).">
<polygon fill="none" stroke="black" points="504.5,-0.5 504.5,-19.5 606.5,-19.5 606.5,-0.5 504.5,-0.5"/>
<text text-anchor="middle" x="555.5" y="-7.5" font-family="Helvetica,sans-Serif" font-size="10.00">ze_memcpy_stub</text>
</a>
</g>
</g>
<!-- Node22&#45;&gt;Node27 -->
<g id="edge27" class="edge">
<title>Node22&#45;&gt;Node27</title>
<path fill="none" stroke="midnightblue" d="M374.86,-126.32C391.41,-105.26 433.82,-55.05 481,-29 485.25,-26.65 489.79,-24.59 494.46,-22.78"/>
<polygon fill="midnightblue" stroke="midnightblue" points="495.88,-25.99 504.17,-19.39 493.58,-19.38 495.88,-25.99"/>
</g>
</g>
</svg>
