<?xml version="1.0" encoding="UTF-8" standalone="no"?>
<!DOCTYPE svg PUBLIC "-//W3C//DTD SVG 1.1//EN"
 "http://www.w3.org/Graphics/SVG/1.1/DTD/svg11.dtd">
<!-- Generated by graphviz version 2.43.0 (0)
 -->
<!-- Title: engine/src/devices/ie_device_common.c Pages: 1 -->
<svg width="638pt" height="151pt"
 viewBox="0.00 0.00 638.00 151.00" xmlns="http://www.w3.org/2000/svg" xmlns:xlink="http://www.w3.org/1999/xlink">
<g id="graph0" class="graph" transform="scale(1 1) rotate(0) translate(4 147)">
<title>engine/src/devices/ie_device_common.c</title>
<!-- Node1 -->
<g id="node1" class="node">
<title>Node1</title>
<g id="a_node1"><a xlink:title="C11 implementation of the device abstraction with CPU backend and CUDA/Level Zero stubs resolved via ...">
<polygon fill="#bfbfbf" stroke="black" points="298.5,-112.5 298.5,-142.5 420.5,-142.5 420.5,-112.5 298.5,-112.5"/>
<text text-anchor="start" x="306.5" y="-130.5" font-family="Helvetica,sans-Serif" font-size="10.00">engine/src/devices</text>
<text text-anchor="middle" x="359.5" y="-119.5" font-family="Helvetica,sans-Serif" font-size="10.00">/ie_device_common.c</text>
</a>
</g>
</g>
<!-- Node2 -->
<g id="node2" class="node">
<title>Node2</title>
<g id="a_node2"><a xlink:href="ie__device_8h.html" target="_top" xlink:title="Device abstraction for CPU/GPU backends selected at runtime.">
<polygon fill="none" stroke="black" points="93.5,-56.5 93.5,-75.5 165.5,-75.5 165.5,-56.5 93.5,-56.5"/>
<text text-anchor="middle" x="129.5" y="-63.5" font-family="Helvetica,sans-Serif" font-size="10.00">ie_device.h</text>
</a>
</g>
</g>
<!-- Node1&#45;&gt;Node2 -->
<g id="edge1" class="edge">
<title>Node1&#45;&gt;Node2</title>
<path fill="none" stroke="midnightblue" d="M305.28,-112.47C264.74,-101.99 210.05,-87.84 172.49,-78.12"/>
<polygon fill="midnightblue" stroke="midnightblue" points="172.94,-74.62 162.38,-75.51 171.19,-81.4 172.94,-74.62"/>
</g>
<!-- Node5 -->
<g id="node5" class="node">
<title>Node5</title>
<g id="a_node5"><a xlink:href="ie__kernels_8h.html" target="_top" xlink:title="Kernel dispatch points (generic/AVX2) for GEMV and vector ops.">
<polygon fill="none" stroke="black" points="0,-56.5 0,-75.5 75,-75.5 75,-56.5 0,-56.5"/>
<text text-anchor="middle" x="37.5" y="-63.5" font-family="Helvetica,sans-Serif" font-size="10.00">ie_kernels.h</text>
</a>
</g>
</g>
<!-- Node1&#45;&gt;Node5 -->
<g id="edge4" class="edge">
<title>Node1&#45;&gt;Node5</title>
<path fill="none" stroke="midnightblue" d="M298.31,-115.4C244.85,-105.67 164.86,-91.04 85.4,-76.16"/>
<polygon fill="midnightblue" stroke="midnightblue" points="85.68,-72.65 75.21,-74.25 84.39,-79.53 85.68,-72.65"/>
</g>
<!-- Node6 -->
<g id="node6" class="node">
<title>Node6</title>
<g id="a_node6"><a xlink:href="sparse__format_8h.html" target="_top" xlink:title="In&#45;memory representation and loader interface for block&#45;sparse matrices.">
<polygon fill="none" stroke="black" points="183.5,-56.5 183.5,-75.5 279.5,-75.5 279.5,-56.5 183.5,-56.5"/>
<text text-anchor="middle" x="231.5" y="-63.5" font-family="Helvetica,sans-Serif" font-size="10.00">sparse_format.h</text>
</a>
</g>
</g>
<!-- Node1&#45;&gt;Node6 -->
<g id="edge6" class="edge">
<title>Node1&#45;&gt;Node6</title>
<path fill="none" stroke="midnightblue" d="M329.17,-112.4C307.98,-102.55 279.91,-89.5 259.3,-79.92"/>
<polygon fill="midnightblue" stroke="midnightblue" points="260.67,-76.7 250.13,-75.66 257.72,-83.05 260.67,-76.7"/>
</g>
<!-- Node8 -->
<g id="node8" class="node">
<title>Node8</title>
<g id="a_node8"><a xlink:title=" ">
<polygon fill="none" stroke="#bfbfbf" points="298,-56.5 298,-75.5 351,-75.5 351,-56.5 298,-56.5"/>
<text text-anchor="middle" x="324.5" y="-63.5" font-family="Helvetica,sans-Serif" font-size="10.00">ctype.h</text>
</a>
</g>
</g>
<!-- Node1&#45;&gt;Node8 -->
<g id="edge10" class="edge">
<title>Node1&#45;&gt;Node8</title>
<path fill="none" stroke="midnightblue" d="M351.21,-112.4C346.28,-104.02 339.99,-93.33 334.75,-84.42"/>
<polygon fill="midnightblue" stroke="midnightblue" points="337.68,-82.5 329.59,-75.66 331.65,-86.05 337.68,-82.5"/>
</g>
<!-- Node9 -->
<g id="node9" class="node">
<title>Node9</title>
<g id="a_node9"><a xlink:title=" ">
<polygon fill="none" stroke="#bfbfbf" points="369.5,-56.5 369.5,-75.5 419.5,-75.5 419.5,-56.5 369.5,-56.5"/>
<text text-anchor="middle" x="394.5" y="-63.5" font-family="Helvetica,sans-Serif" font-size="10.00">dlfcn.h</text>
</a>
</g>
</g>
<!-- Node1&#45;&gt;Node9 -->
<g id="edge11" class="edge">
<title>Node1&#45;&gt;Node9</title>
<path fill="none" stroke="midnightblue" d="M367.79,-112.4C372.72,-104.02 379.01,-93.33 384.25,-84.42"/>
<polygon fill="midnightblue" stroke="midnightblue" points="387.35,-86.05 389.41,-75.66 381.32,-82.5 387.35,-86.05"/>
</g>
<!-- Node10 -->
<g id="node10" class="node">
<title>Node10</title>
<g id="a_node10"><a xlink:title=" ">
<polygon fill="none" stroke="#bfbfbf" points="437.5,-56.5 437.5,-75.5 487.5,-75.5 487.5,-56.5 437.5,-56.5"/>
<text text-anchor="middle" x="462.5" y="-63.5" font-family="Helvetica,sans-Serif" font-size="10.00">stdio.h</text>
</a>
</g>
</g>
<!-- Node1&#45;&gt;Node10 -->
<g id="edge12" class="edge">
<title>Node1&#45;&gt;Node10</title>
<path fill="none" stroke="midnightblue" d="M383.91,-112.4C400.42,-102.86 422.12,-90.32 438.54,-80.84"/>
<polygon fill="midnightblue" stroke="midnightblue" points="440.6,-83.69 447.51,-75.66 437.1,-77.63 440.6,-83.69"/>
</g>
<!-- Node11 -->
<g id="node11" class="node">
<title>Node11</title>
<g id="a_node11"><a xlink:title=" ">
<polygon fill="none" stroke="#bfbfbf" points="506,-56.5 506,-75.5 559,-75.5 559,-56.5 506,-56.5"/>
<text text-anchor="middle" x="532.5" y="-63.5" font-family="Helvetica,sans-Serif" font-size="10.00">stdlib.h</text>
</a>
</g>
</g>
<!-- Node1&#45;&gt;Node11 -->
<g id="edge13" class="edge">
<title>Node1&#45;&gt;Node11</title>
<path fill="none" stroke="midnightblue" d="M400.5,-112.4C430.13,-102.21 469.73,-88.59 497.8,-78.93"/>
<polygon fill="midnightblue" stroke="midnightblue" points="499.26,-82.13 507.58,-75.57 496.98,-75.51 499.26,-82.13"/>
</g>
<!-- Node12 -->
<g id="node12" class="node">
<title>Node12</title>
<g id="a_node12"><a xlink:title=" ">
<polygon fill="none" stroke="#bfbfbf" points="577,-56.5 577,-75.5 630,-75.5 630,-56.5 577,-56.5"/>
<text text-anchor="middle" x="603.5" y="-63.5" font-family="Helvetica,sans-Serif" font-size="10.00">string.h</text>
</a>
</g>
</g>
<!-- Node1&#45;&gt;Node12 -->
<g id="edge14" class="edge">
<title>Node1&#45;&gt;Node12</title>
<path fill="none" stroke="midnightblue" d="M418.56,-112.47C458.08,-103.03 511.51,-90.16 566.78,-76.41"/>
<polygon fill="midnightblue" stroke="midnightblue" points="567.9,-79.73 576.76,-73.92 566.21,-72.94 567.9,-79.73"/>
</g>
<!-- Node3 -->
<g id="node3" class="node">
<title>Node3</title>
<g id="a_node3"><a xlink:title=" ">
<polygon fill="none" stroke="#bfbfbf" points="76.5,-0.5 76.5,-19.5 132.5,-19.5 132.5,-0.5 76.5,-0.5"/>
<text text-anchor="middle" x="104.5" y="-7.5" font-family="Helvetica,sans-Serif" font-size="10.00">stddef.h</text>
</a>
</g>
</g>
<!-- Node2&#45;&gt;Node3 -->
<g id="edge2" class="edge">
<title>Node2&#45;&gt;Node3</title>
<path fill="none" stroke="midnightblue" d="M125.37,-56.08C121.99,-48.77 117.08,-38.18 112.88,-29.1"/>
<polygon fill="midnightblue" stroke="midnightblue" points="115.93,-27.36 108.55,-19.75 109.58,-30.3 115.93,-27.36"/>
</g>
<!-- Node4 -->
<g id="node4" class="node">
<title>Node4</title>
<g id="a_node4"><a xlink:title=" ">
<polygon fill="none" stroke="#bfbfbf" points="151,-0.5 151,-19.5 204,-19.5 204,-0.5 151,-0.5"/>
<text text-anchor="middle" x="177.5" y="-7.5" font-family="Helvetica,sans-Serif" font-size="10.00">stdint.h</text>
</a>
</g>
</g>
<!-- Node2&#45;&gt;Node4 -->
<g id="edge3" class="edge">
<title>Node2&#45;&gt;Node4</title>
<path fill="none" stroke="midnightblue" d="M137.43,-56.08C144.35,-48.3 154.57,-36.8 162.95,-27.37"/>
<polygon fill="midnightblue" stroke="midnightblue" points="165.69,-29.55 169.72,-19.75 160.46,-24.9 165.69,-29.55"/>
</g>
<!-- Node5&#45;&gt;Node3 -->
<g id="edge5" class="edge">
<title>Node5&#45;&gt;Node3</title>
<path fill="none" stroke="midnightblue" d="M48.26,-56.32C58.27,-48.26 73.39,-36.08 85.43,-26.37"/>
<polygon fill="midnightblue" stroke="midnightblue" points="87.95,-28.83 93.54,-19.83 83.56,-23.38 87.95,-28.83"/>
</g>
<!-- Node6&#45;&gt;Node3 -->
<g id="edge7" class="edge">
<title>Node6&#45;&gt;Node3</title>
<path fill="none" stroke="midnightblue" d="M211.38,-56.44C190.48,-47.56 157.57,-33.56 133.78,-23.45"/>
<polygon fill="midnightblue" stroke="midnightblue" points="135.1,-20.21 124.53,-19.52 132.36,-26.65 135.1,-20.21"/>
</g>
<!-- Node6&#45;&gt;Node4 -->
<g id="edge8" class="edge">
<title>Node6&#45;&gt;Node4</title>
<path fill="none" stroke="midnightblue" d="M222.58,-56.08C214.72,-48.22 203.07,-36.57 193.58,-27.08"/>
<polygon fill="midnightblue" stroke="midnightblue" points="195.8,-24.35 186.25,-19.75 190.85,-29.3 195.8,-24.35"/>
</g>
<!-- Node7 -->
<g id="node7" class="node">
<title>Node7</title>
<g id="a_node7"><a xlink:href="platform_8h.html" target="_top" xlink:title="Platform feature detection (baseline stubs).">
<polygon fill="none" stroke="black" points="222.5,-0.5 222.5,-19.5 290.5,-19.5 290.5,-0.5 222.5,-0.5"/>
<text text-anchor="middle" x="256.5" y="-7.5" font-family="Helvetica,sans-Serif" font-size="10.00">platform.h</text>
</a>
</g>
</g>
<!-- Node6&#45;&gt;Node7 -->
<g id="edge9" class="edge">
<title>Node6&#45;&gt;Node7</title>
<path fill="none" stroke="midnightblue" d="M235.63,-56.08C239.01,-48.77 243.92,-38.18 248.12,-29.1"/>
<polygon fill="midnightblue" stroke="midnightblue" points="251.42,-30.3 252.45,-19.75 245.07,-27.36 251.42,-30.3"/>
</g>
</g>
</svg>
