<?xml version="1.0" encoding="UTF-8" standalone="no"?>
<!DOCTYPE svg PUBLIC "-//W3C//DTD SVG 1.1//EN"
 "http://www.w3.org/Graphics/SVG/1.1/DTD/svg11.dtd">
<!-- Generated by graphviz version 2.43.0 (0)
 -->
<!-- Title: Graphical Class Hierarchy Pages: 1 -->
<svg width="315pt" height="362pt"
 viewBox="0.00 0.00 315.00 361.50" xmlns="http://www.w3.org/2000/svg" xmlns:xlink="http://www.w3.org/1999/xlink">
<g id="graph0" class="graph" transform="scale(1 1) rotate(0) translate(4 357.5)">
<title>Graphical Class Hierarchy</title>
<!-- Node74 -->
<g id="node1" class="node">
<title>Node74</title>
<g id="a_node1"><a xlink:title=" ">
<polygon fill="none" stroke="#bfbfbf" points="0,-170 0,-189 101,-189 101,-170 0,-170"/>
<text text-anchor="middle" x="50.5" y="-177" font-family="Helvetica,sans-Serif" font-size="10.00">unittest.TestCase</text>
</a>
</g>
</g>
<!-- Node0 -->
<g id="node2" class="node">
<title>Node0</title>
<g id="a_node2"><a xlink:href="classtest__cli_1_1CLITests.html" target="_top" xlink:title=" ">
<polygon fill="none" stroke="black" points="174.5,-334 174.5,-353 269.5,-353 269.5,-334 174.5,-334"/>
<text text-anchor="middle" x="222" y="-341" font-family="Helvetica,sans-Serif" font-size="10.00">test_cli.CLITests</text>
</a>
</g>
</g>
<!-- Node74&#45;&gt;Node0 -->
<g id="edge1" class="edge">
<title>Node74&#45;&gt;Node0</title>
<path fill="none" stroke="midnightblue" d="M57.32,-198.88C67.83,-230.4 93.07,-292.45 137,-324.5 147.75,-332.34 161.18,-337.03 174.12,-339.8"/>
<polygon fill="midnightblue" stroke="midnightblue" points="60.58,-197.57 54.21,-189.1 53.91,-199.69 60.58,-197.57"/>
</g>
<!-- Node76 -->
<g id="node3" class="node">
<title>Node76</title>
<g id="a_node3"><a xlink:href="classtest__cli__error__paths_1_1CLIErrorPathsTests.html" target="_top" xlink:title=" ">
<polygon fill="none" stroke="black" points="145,-284.5 145,-314.5 299,-314.5 299,-284.5 145,-284.5"/>
<text text-anchor="start" x="153" y="-302.5" font-family="Helvetica,sans-Serif" font-size="10.00">test_cli_error_paths.CLIError</text>
<text text-anchor="middle" x="222" y="-291.5" font-family="Helvetica,sans-Serif" font-size="10.00">PathsTests</text>
</a>
</g>
</g>
<!-- Node74&#45;&gt;Node76 -->
<g id="edge2" class="edge">
<title>Node74&#45;&gt;Node76</title>
<path fill="none" stroke="midnightblue" d="M62.9,-197.61C77.47,-219.3 104.73,-255.24 137,-275.5 142.39,-278.89 148.28,-281.81 154.35,-284.33"/>
<polygon fill="midnightblue" stroke="midnightblue" points="65.68,-195.47 57.28,-189.01 59.82,-199.3 65.68,-195.47"/>
</g>
<!-- Node77 -->
<g id="node4" class="node">
<title>Node77</title>
<g id="a_node4"><a xlink:href="classtest__cli__flags_1_1CLIFeatureFlagsTests.html" target="_top" xlink:title=" ">
<polygon fill="none" stroke="black" points="154.5,-235.5 154.5,-265.5 289.5,-265.5 289.5,-235.5 154.5,-235.5"/>
<text text-anchor="start" x="162.5" y="-253.5" font-family="Helvetica,sans-Serif" font-size="10.00">test_cli_flags.CLIFeature</text>
<text text-anchor="middle" x="222" y="-242.5" font-family="Helvetica,sans-Serif" font-size="10.00">FlagsTests</text>
</a>
</g>
</g>
<!-- Node74&#45;&gt;Node77 -->
<g id="edge3" class="edge">
<title>Node74&#45;&gt;Node77</title>
<path fill="none" stroke="midnightblue" d="M75.03,-194.32C91.82,-204.41 115.19,-217.52 137,-226.5 144.85,-229.73 153.29,-232.7 161.68,-235.36"/>
<polygon fill="midnightblue" stroke="midnightblue" points="76.79,-191.29 66.43,-189.06 73.14,-197.26 76.79,-191.29"/>
</g>
<!-- Node78 -->
<g id="node5" class="node">
<title>Node78</title>
<g id="a_node5"><a xlink:href="classtest__determinism_1_1DeterminismTests.html" target="_top" xlink:title=" ">
<polygon fill="none" stroke="black" points="137,-186.5 137,-216.5 307,-216.5 307,-186.5 137,-186.5"/>
<text text-anchor="start" x="145" y="-204.5" font-family="Helvetica,sans-Serif" font-size="10.00">test_determinism.Determinism</text>
<text text-anchor="middle" x="222" y="-193.5" font-family="Helvetica,sans-Serif" font-size="10.00">Tests</text>
</a>
</g>
</g>
<!-- Node74&#45;&gt;Node78 -->
<g id="edge4" class="edge">
<title>Node74&#45;&gt;Node78</title>
<path fill="none" stroke="midnightblue" d="M111.58,-187.3C119.76,-188.36 128.26,-189.46 136.76,-190.57"/>
<polygon fill="midnightblue" stroke="midnightblue" points="111.81,-183.8 101.44,-185.98 110.91,-190.74 111.81,-183.8"/>
</g>
<!-- Node79 -->
<g id="node6" class="node">
<title>Node79</title>
<g id="a_node6"><a xlink:href="classtest__harness_1_1HarnessTests.html" target="_top" xlink:title=" ">
<polygon fill="none" stroke="black" points="149,-148 149,-167 295,-167 295,-148 149,-148"/>
<text text-anchor="middle" x="222" y="-155" font-family="Helvetica,sans-Serif" font-size="10.00">test_harness.HarnessTests</text>
</a>
</g>
</g>
<!-- Node74&#45;&gt;Node79 -->
<g id="edge5" class="edge">
<title>Node74&#45;&gt;Node79</title>
<path fill="none" stroke="midnightblue" d="M111.4,-171.73C123.5,-170.15 136.34,-168.49 148.81,-166.87"/>
<polygon fill="midnightblue" stroke="midnightblue" points="110.91,-168.26 101.44,-173.02 111.81,-175.2 110.91,-168.26"/>
</g>
<!-- Node80 -->
<g id="node7" class="node">
<title>Node80</title>
<g id="a_node7"><a xlink:href="classtest__harness__more_1_1HarnessMoreTests.html" target="_top" xlink:title=" ">
<polygon fill="none" stroke="black" points="146,-98.5 146,-128.5 298,-128.5 298,-98.5 146,-98.5"/>
<text text-anchor="start" x="154" y="-116.5" font-family="Helvetica,sans-Serif" font-size="10.00">test_harness_more.Harness</text>
<text text-anchor="middle" x="222" y="-105.5" font-family="Helvetica,sans-Serif" font-size="10.00">MoreTests</text>
</a>
</g>
</g>
<!-- Node74&#45;&gt;Node80 -->
<g id="edge6" class="edge">
<title>Node74&#45;&gt;Node80</title>
<path fill="none" stroke="midnightblue" d="M78.58,-165.16C95.16,-156.72 116.97,-146.23 137,-138.5 146.23,-134.94 156.18,-131.58 165.91,-128.54"/>
<polygon fill="midnightblue" stroke="midnightblue" points="76.76,-162.16 69.48,-169.85 79.97,-168.38 76.76,-162.16"/>
</g>
<!-- Node81 -->
<g id="node8" class="node">
<title>Node81</title>
<g id="a_node8"><a xlink:href="classtest__metrics__ring_1_1MetricsRingTests.html" target="_top" xlink:title=" ">
<polygon fill="none" stroke="black" points="152,-49.5 152,-79.5 292,-79.5 292,-49.5 152,-49.5"/>
<text text-anchor="start" x="160" y="-67.5" font-family="Helvetica,sans-Serif" font-size="10.00">test_metrics_ring.Metrics</text>
<text text-anchor="middle" x="222" y="-56.5" font-family="Helvetica,sans-Serif" font-size="10.00">RingTests</text>
</a>
</g>
</g>
<!-- Node74&#45;&gt;Node81 -->
<g id="edge7" class="edge">
<title>Node74&#45;&gt;Node81</title>
<path fill="none" stroke="midnightblue" d="M63.89,-161.66C78.92,-141.32 106.11,-108.44 137,-89.5 143.23,-85.68 150.07,-82.42 157.08,-79.63"/>
<polygon fill="midnightblue" stroke="midnightblue" points="61.05,-159.62 58.04,-169.78 66.73,-163.71 61.05,-159.62"/>
</g>
<!-- Node82 -->
<g id="node9" class="node">
<title>Node82</title>
<g id="a_node9"><a xlink:href="classtest__ptq__calib__pipeline_1_1PTQCalibPipelineTests.html" target="_top" xlink:title=" ">
<polygon fill="none" stroke="black" points="156,-0.5 156,-30.5 288,-30.5 288,-0.5 156,-0.5"/>
<text text-anchor="start" x="164" y="-18.5" font-family="Helvetica,sans-Serif" font-size="10.00">test_ptq_calib_pipeline.</text>
<text text-anchor="middle" x="222" y="-7.5" font-family="Helvetica,sans-Serif" font-size="10.00">PTQCalibPipelineTests</text>
</a>
</g>
</g>
<!-- Node74&#45;&gt;Node82 -->
<g id="edge8" class="edge">
<title>Node74&#45;&gt;Node82</title>
<path fill="none" stroke="midnightblue" d="M58.27,-159.97C69.71,-129.82 95.76,-72.14 137,-40.5 142.67,-36.15 149.1,-32.55 155.8,-29.58"/>
<polygon fill="midnightblue" stroke="midnightblue" points="54.85,-159.14 54.71,-169.73 61.42,-161.53 54.85,-159.14"/>
</g>
</g>
</svg>
