<?xml version="1.0" encoding="UTF-8" standalone="no"?>
<!DOCTYPE svg PUBLIC "-//W3C//DTD SVG 1.1//EN"
 "http://www.w3.org/Graphics/SVG/1.1/DTD/svg11.dtd">
<!-- Generated by graphviz version 2.43.0 (0)
 -->
<!-- Title: clamp_q4 Pages: 1 -->
<svg width="249pt" height="78pt"
 viewBox="0.00 0.00 249.00 77.50" xmlns="http://www.w3.org/2000/svg" xmlns:xlink="http://www.w3.org/1999/xlink">
<g id="graph0" class="graph" transform="scale(1 1) rotate(0) translate(4 73.5)">
<title>clamp_q4</title>
<!-- Node1 -->
<g id="node1" class="node">
<title>Node1</title>
<g id="a_node1"><a xlink:title="Clamp a float to the symmetric INT4 range [&#45;7, +7] and convert to int.">
<polygon fill="#bfbfbf" stroke="black" points="177,-28 177,-47 241,-47 241,-28 177,-28"/>
<text text-anchor="middle" x="209" y="-35" font-family="Helvetica,sans-Serif" font-size="10.00">clamp_q4</text>
</a>
</g>
</g>
<!-- Node2 -->
<g id="node2" class="node">
<title>Node2</title>
<g id="a_node2"><a xlink:href="group__ie__int4__quant.html#gabbd1e0545969cb21f4bce5e48e75e276" target="_top" xlink:title="Quantize a float32 matrix to packed INT4 with per&#45;row scales.">
<polygon fill="none" stroke="black" points="0,-50 0,-69 141,-69 141,-50 0,-50"/>
<text text-anchor="middle" x="70.5" y="-57" font-family="Helvetica,sans-Serif" font-size="10.00">ie_int4_quantize_per_row</text>
</a>
</g>
</g>
<!-- Node1&#45;&gt;Node2 -->
<g id="edge1" class="edge">
<title>Node1&#45;&gt;Node2</title>
<path fill="none" stroke="midnightblue" d="M166.63,-44.17C155.27,-46 142.74,-48.02 130.59,-49.98"/>
<polygon fill="midnightblue" stroke="midnightblue" points="167.37,-47.59 176.68,-42.55 166.25,-40.68 167.37,-47.59"/>
</g>
<!-- Node3 -->
<g id="node3" class="node">
<title>Node3</title>
<g id="a_node3"><a xlink:href="group__ie__int4__quant.html#ga66ddd8b08ec6b704f6744718bfc7f5aa" target="_top" xlink:title="Quantize a float32 matrix to packed INT4 using a single (per&#45;tensor) scale.">
<polygon fill="none" stroke="black" points="11.5,-0.5 11.5,-30.5 129.5,-30.5 129.5,-0.5 11.5,-0.5"/>
<text text-anchor="start" x="19.5" y="-18.5" font-family="Helvetica,sans-Serif" font-size="10.00">ie_int4_quantize_per</text>
<text text-anchor="middle" x="70.5" y="-7.5" font-family="Helvetica,sans-Serif" font-size="10.00">_tensor</text>
</a>
</g>
</g>
<!-- Node1&#45;&gt;Node3 -->
<g id="edge2" class="edge">
<title>Node1&#45;&gt;Node3</title>
<path fill="none" stroke="midnightblue" d="M166.81,-30.86C155.15,-28.98 142.23,-26.9 129.77,-24.89"/>
<polygon fill="midnightblue" stroke="midnightblue" points="166.25,-34.32 176.68,-32.45 167.37,-27.41 166.25,-34.32"/>
</g>
</g>
</svg>
