<?xml version="1.0" encoding="UTF-8" standalone="no"?>
<!DOCTYPE svg PUBLIC "-//W3C//DTD SVG 1.1//EN"
 "http://www.w3.org/Graphics/SVG/1.1/DTD/svg11.dtd">
<!-- Generated by graphviz version 2.43.0 (0)
 -->
<!-- Title: engine/src/quant/int8_ptq.c Pages: 1 -->
<svg width="280pt" height="151pt"
 viewBox="0.00 0.00 279.50 151.00" xmlns="http://www.w3.org/2000/svg" xmlns:xlink="http://www.w3.org/1999/xlink">
<g id="graph0" class="graph" transform="scale(1 1) rotate(0) translate(4 147)">
<title>engine/src/quant/int8_ptq.c</title>
<!-- Node1 -->
<g id="node1" class="node">
<title>Node1</title>
<g id="a_node1"><a xlink:title="Implementation of INT8 PTQ min&#45;max scaling and (de)quantization.">
<polygon fill="#bfbfbf" stroke="black" points="67.5,-112.5 67.5,-142.5 186.5,-142.5 186.5,-112.5 67.5,-112.5"/>
<text text-anchor="start" x="75.5" y="-130.5" font-family="Helvetica,sans-Serif" font-size="10.00">engine/src/quant/int8</text>
<text text-anchor="middle" x="127" y="-119.5" font-family="Helvetica,sans-Serif" font-size="10.00">_ptq.c</text>
</a>
</g>
</g>
<!-- Node2 -->
<g id="node2" class="node">
<title>Node2</title>
<g id="a_node2"><a xlink:href="ie__quant_8h.html" target="_top" xlink:title="Post&#45;Training Quantization (PTQ) helpers for INT8 weight&#45;only paths.">
<polygon fill="none" stroke="black" points="31,-56.5 31,-75.5 99,-75.5 99,-56.5 31,-56.5"/>
<text text-anchor="middle" x="65" y="-63.5" font-family="Helvetica,sans-Serif" font-size="10.00">ie_quant.h</text>
</a>
</g>
</g>
<!-- Node1&#45;&gt;Node2 -->
<g id="edge1" class="edge">
<title>Node1&#45;&gt;Node2</title>
<path fill="none" stroke="midnightblue" d="M112.31,-112.4C103.02,-103.49 91,-91.95 81.4,-82.74"/>
<polygon fill="midnightblue" stroke="midnightblue" points="83.66,-80.06 74.02,-75.66 78.81,-85.11 83.66,-80.06"/>
</g>
<!-- Node3 -->
<g id="node3" class="node">
<title>Node3</title>
<g id="a_node3"><a xlink:title=" ">
<polygon fill="none" stroke="#bfbfbf" points="0,-0.5 0,-19.5 56,-19.5 56,-0.5 0,-0.5"/>
<text text-anchor="middle" x="28" y="-7.5" font-family="Helvetica,sans-Serif" font-size="10.00">stddef.h</text>
</a>
</g>
</g>
<!-- Node1&#45;&gt;Node3 -->
<g id="edge6" class="edge">
<title>Node1&#45;&gt;Node3</title>
<path fill="none" stroke="midnightblue" d="M70.09,-112.4C51.51,-104.8 32.87,-93.3 22,-76 13.25,-62.09 16.34,-43.07 20.66,-29.21"/>
<polygon fill="midnightblue" stroke="midnightblue" points="23.97,-30.37 24.03,-19.78 17.37,-28.02 23.97,-30.37"/>
</g>
<!-- Node4 -->
<g id="node4" class="node">
<title>Node4</title>
<g id="a_node4"><a xlink:title=" ">
<polygon fill="none" stroke="#bfbfbf" points="87.5,-0.5 87.5,-19.5 140.5,-19.5 140.5,-0.5 87.5,-0.5"/>
<text text-anchor="middle" x="114" y="-7.5" font-family="Helvetica,sans-Serif" font-size="10.00">stdint.h</text>
</a>
</g>
</g>
<!-- Node1&#45;&gt;Node4 -->
<g id="edge7" class="edge">
<title>Node1&#45;&gt;Node4</title>
<path fill="none" stroke="midnightblue" d="M125.41,-112.34C123.07,-91.62 118.73,-53.02 116.13,-29.9"/>
<polygon fill="midnightblue" stroke="midnightblue" points="119.57,-29.22 114.98,-19.67 112.62,-30 119.57,-29.22"/>
</g>
<!-- Node5 -->
<g id="node5" class="node">
<title>Node5</title>
<g id="a_node5"><a xlink:title=" ">
<polygon fill="none" stroke="#bfbfbf" points="155.5,-56.5 155.5,-75.5 202.5,-75.5 202.5,-56.5 155.5,-56.5"/>
<text text-anchor="middle" x="179" y="-63.5" font-family="Helvetica,sans-Serif" font-size="10.00">float.h</text>
</a>
</g>
</g>
<!-- Node1&#45;&gt;Node5 -->
<g id="edge4" class="edge">
<title>Node1&#45;&gt;Node5</title>
<path fill="none" stroke="midnightblue" d="M139.32,-112.4C146.96,-103.66 156.79,-92.41 164.76,-83.3"/>
<polygon fill="midnightblue" stroke="midnightblue" points="167.49,-85.49 171.43,-75.66 162.22,-80.88 167.49,-85.49"/>
</g>
<!-- Node6 -->
<g id="node6" class="node">
<title>Node6</title>
<g id="a_node6"><a xlink:title=" ">
<polygon fill="none" stroke="#bfbfbf" points="220.5,-56.5 220.5,-75.5 271.5,-75.5 271.5,-56.5 220.5,-56.5"/>
<text text-anchor="middle" x="246" y="-63.5" font-family="Helvetica,sans-Serif" font-size="10.00">math.h</text>
</a>
</g>
</g>
<!-- Node1&#45;&gt;Node6 -->
<g id="edge5" class="edge">
<title>Node1&#45;&gt;Node6</title>
<path fill="none" stroke="midnightblue" d="M155.2,-112.4C174.72,-102.64 200.53,-89.74 219.63,-80.18"/>
<polygon fill="midnightblue" stroke="midnightblue" points="221.31,-83.26 228.68,-75.66 218.17,-77 221.31,-83.26"/>
</g>
<!-- Node2&#45;&gt;Node3 -->
<g id="edge2" class="edge">
<title>Node2&#45;&gt;Node3</title>
<path fill="none" stroke="midnightblue" d="M58.89,-56.08C53.72,-48.53 46.15,-37.49 39.81,-28.23"/>
<polygon fill="midnightblue" stroke="midnightblue" points="42.54,-26.02 34,-19.75 36.76,-29.98 42.54,-26.02"/>
</g>
<!-- Node2&#45;&gt;Node4 -->
<g id="edge3" class="edge">
<title>Node2&#45;&gt;Node4</title>
<path fill="none" stroke="midnightblue" d="M73.09,-56.08C80.16,-48.3 90.59,-36.8 99.15,-27.37"/>
<polygon fill="midnightblue" stroke="midnightblue" points="101.93,-29.51 106.06,-19.75 96.75,-24.8 101.93,-29.51"/>
</g>
</g>
</svg>
