<?xml version="1.0" encoding="UTF-8" standalone="no"?>
<!DOCTYPE svg PUBLIC "-//W3C//DTD SVG 1.1//EN"
 "http://www.w3.org/Graphics/SVG/1.1/DTD/svg11.dtd">
<!-- Generated by graphviz version 2.43.0 (0)
 -->
<!-- Title: clamp_sym_int8 Pages: 1 -->
<svg width="520pt" height="116pt"
 viewBox="0.00 0.00 520.00 115.50" xmlns="http://www.w3.org/2000/svg" xmlns:xlink="http://www.w3.org/1999/xlink">
<g id="graph0" class="graph" transform="scale(1 1) rotate(0) translate(4 111.5)">
<title>clamp_sym_int8</title>
<!-- Node1 -->
<g id="node1" class="node">
<title>Node1</title>
<g id="a_node1"><a xlink:title="Clamp a float value to the symmetric INT8 range and round to nearest.">
<polygon fill="#bfbfbf" stroke="black" points="415,-38.5 415,-57.5 512,-57.5 512,-38.5 415,-38.5"/>
<text text-anchor="middle" x="463.5" y="-45.5" font-family="Helvetica,sans-Serif" font-size="10.00">clamp_sym_int8</text>
</a>
</g>
</g>
<!-- Node2 -->
<g id="node2" class="node">
<title>Node2</title>
<g id="a_node2"><a xlink:href="ie__quant_8h.html#af45e61af59caa6f75b228f0fa2ebcead" target="_top" xlink:title="Quantize FP32 weights to INT8 using precomputed scales.">
<polygon fill="none" stroke="black" points="261,-38.5 261,-57.5 379,-57.5 379,-38.5 261,-38.5"/>
<text text-anchor="middle" x="320" y="-45.5" font-family="Helvetica,sans-Serif" font-size="10.00">ie_ptq_quantize_int8</text>
</a>
</g>
</g>
<!-- Node1&#45;&gt;Node2 -->
<g id="edge1" class="edge">
<title>Node1&#45;&gt;Node2</title>
<path fill="none" stroke="midnightblue" d="M404.84,-48C396.38,-48 387.67,-48 379.2,-48"/>
<polygon fill="midnightblue" stroke="midnightblue" points="404.99,-51.5 414.99,-48 404.99,-44.5 404.99,-51.5"/>
</g>
<!-- Node3 -->
<g id="node3" class="node">
<title>Node3</title>
<g id="a_node3"><a xlink:href="test__int8__ptq_8c.html#a8ae74b307e2995ddbc1b9aba3b77c0a3" target="_top" xlink:title="Test per&#45;row scaling on a matrix with different row magnitudes.">
<polygon fill="none" stroke="black" points="78,-77 78,-107 224,-107 224,-77 78,-77"/>
<text text-anchor="start" x="86" y="-95" font-family="Helvetica,sans-Serif" font-size="10.00">test_per_row_independent</text>
<text text-anchor="middle" x="151" y="-84" font-family="Helvetica,sans-Serif" font-size="10.00">_scales</text>
</a>
</g>
</g>
<!-- Node2&#45;&gt;Node3 -->
<g id="edge2" class="edge">
<title>Node2&#45;&gt;Node3</title>
<path fill="none" stroke="midnightblue" d="M273.08,-60.1C253.33,-65.3 230.04,-71.44 209.18,-76.93"/>
<polygon fill="midnightblue" stroke="midnightblue" points="273.99,-63.48 282.76,-57.55 272.2,-56.71 273.99,-63.48"/>
</g>
<!-- Node5 -->
<g id="node5" class="node">
<title>Node5</title>
<g id="a_node5"><a xlink:href="test__int8__ptq_8c.html#a3792beb85f04b90aa7eee559045c2748" target="_top" xlink:title="Smoke test for per&#45;tensor scale, quantize and dequantize.">
<polygon fill="none" stroke="black" points="80,-38.5 80,-57.5 222,-57.5 222,-38.5 80,-38.5"/>
<text text-anchor="middle" x="151" y="-45.5" font-family="Helvetica,sans-Serif" font-size="10.00">test_per_tensor_roundtrip</text>
</a>
</g>
</g>
<!-- Node2&#45;&gt;Node5 -->
<g id="edge4" class="edge">
<title>Node2&#45;&gt;Node5</title>
<path fill="none" stroke="midnightblue" d="M250.55,-48C241.18,-48 231.54,-48 222.14,-48"/>
<polygon fill="midnightblue" stroke="midnightblue" points="250.59,-51.5 260.59,-48 250.59,-44.5 250.59,-51.5"/>
</g>
<!-- Node6 -->
<g id="node6" class="node">
<title>Node6</title>
<g id="a_node6"><a xlink:href="test__int8__ptq_8c.html#ab9ef656d54b1e5e856eda1c73fb90787" target="_top" xlink:title="Validate symmetric clamping at the INT8 limits.">
<polygon fill="none" stroke="black" points="77,-0.5 77,-19.5 225,-19.5 225,-0.5 77,-0.5"/>
<text text-anchor="middle" x="151" y="-7.5" font-family="Helvetica,sans-Serif" font-size="10.00">test_saturation_symmetric</text>
</a>
</g>
</g>
<!-- Node2&#45;&gt;Node6 -->
<g id="edge6" class="edge">
<title>Node2&#45;&gt;Node6</title>
<path fill="none" stroke="midnightblue" d="M267.04,-36.18C243.49,-30.82 216.03,-24.57 193.84,-19.52"/>
<polygon fill="midnightblue" stroke="midnightblue" points="266.33,-39.6 276.86,-38.41 267.88,-32.78 266.33,-39.6"/>
</g>
<!-- Node4 -->
<g id="node4" class="node">
<title>Node4</title>
<g id="a_node4"><a xlink:href="test__int8__ptq_8c.html#a840291bc02cba5474a4cb46a9b9566fe" target="_top" xlink:title="Program entry: runs all PTQ unit tests.">
<polygon fill="none" stroke="black" points="0,-38.5 0,-57.5 41,-57.5 41,-38.5 0,-38.5"/>
<text text-anchor="middle" x="20.5" y="-45.5" font-family="Helvetica,sans-Serif" font-size="10.00">main</text>
</a>
</g>
</g>
<!-- Node3&#45;&gt;Node4 -->
<g id="edge3" class="edge">
<title>Node3&#45;&gt;Node4</title>
<path fill="none" stroke="midnightblue" d="M96.63,-73.73C76.98,-67 55.92,-59.79 41.11,-54.72"/>
<polygon fill="midnightblue" stroke="midnightblue" points="95.54,-77.05 106.14,-76.98 97.81,-70.43 95.54,-77.05"/>
</g>
<!-- Node5&#45;&gt;Node4 -->
<g id="edge5" class="edge">
<title>Node5&#45;&gt;Node4</title>
<path fill="none" stroke="midnightblue" d="M69.54,-48C59.06,-48 49.2,-48 41.17,-48"/>
<polygon fill="midnightblue" stroke="midnightblue" points="69.73,-51.5 79.73,-48 69.73,-44.5 69.73,-51.5"/>
</g>
<!-- Node6&#45;&gt;Node4 -->
<g id="edge7" class="edge">
<title>Node6&#45;&gt;Node4</title>
<path fill="none" stroke="midnightblue" d="M101.39,-22.11C93.22,-24.3 84.85,-26.64 77,-29 65,-32.61 51.72,-37.14 41.16,-40.87"/>
<polygon fill="midnightblue" stroke="midnightblue" points="102.43,-25.45 111.21,-19.52 100.64,-18.68 102.43,-25.45"/>
</g>
</g>
</svg>
