<?xml version="1.0" encoding="UTF-8" standalone="no"?>
<!DOCTYPE svg PUBLIC "-//W3C//DTD SVG 1.1//EN"
 "http://www.w3.org/Graphics/SVG/1.1/DTD/svg11.dtd">
<!-- Generated by graphviz version 12.2.1 (20241206.2353)
 -->
<!-- Title: ceil_div_sz Pages: 1 -->
<svg width="345pt" height="29pt"
 viewBox="0.00 0.00 344.75 28.75" xmlns="http://www.w3.org/2000/svg" xmlns:xlink="http://www.w3.org/1999/xlink">
<g id="graph0" class="graph" transform="scale(1 1) rotate(0) translate(4 24.75)">
<title>ceil_div_sz</title>
<!-- Node1 -->
<g id="Node000001" class="node">
<title>Node1</title>
<g id="a_Node000001"><a xlink:title="Compute ceil_div(a,b) for size_t.">
<polygon fill="#999999" stroke="#666666" points="336.75,-20.75 267.5,-20.75 267.5,0 336.75,0 336.75,-20.75"/>
<text text-anchor="middle" x="302.12" y="-7.25" font-family="Helvetica,sans-Serif" font-size="10.00">ceil_div_sz</text>
</a>
</g>
</g>
<!-- Node2 -->
<g id="Node000002" class="node">
<title>Node2</title>
<g id="a_Node000002"><a xlink:href="kv__cache_8c.html#ae7ae5636d2bd2306eb7aacdfcd67d171" target="_top" xlink:title="Validate options and populate derived fields in kv (no allocation).">
<polygon fill="white" stroke="#666666" points="231.5,-20.75 99.25,-20.75 99.25,0 231.5,0 231.5,-20.75"/>
<text text-anchor="middle" x="165.38" y="-7.25" font-family="Helvetica,sans-Serif" font-size="10.00">kv_validate_and_derive</text>
</a>
</g>
</g>
<!-- Node1&#45;&gt;Node2 -->
<g id="edge1_Node000001_Node000002" class="edge">
<title>Node1&#45;&gt;Node2</title>
<g id="a_edge1_Node000001_Node000002"><a xlink:title=" ">
<path fill="none" stroke="#63b8ff" d="M255.82,-10.38C248.12,-10.38 239.99,-10.38 231.89,-10.38"/>
<polygon fill="#63b8ff" stroke="#63b8ff" points="255.61,-13.88 265.61,-10.38 255.61,-6.88 255.61,-13.88"/>
</a>
</g>
</g>
<!-- Node3 -->
<g id="Node000003" class="node">
<title>Node3</title>
<g id="a_Node000003"><a xlink:href="kv__cache_8c.html#aee468d29a9d01d0168240ac86b9de0be" target="_top" xlink:title="Initialize a KV cache with the given options and allocate backing memory.">
<polygon fill="white" stroke="#666666" points="63.25,-20.75 0,-20.75 0,0 63.25,0 63.25,-20.75"/>
<text text-anchor="middle" x="31.62" y="-7.25" font-family="Helvetica,sans-Serif" font-size="10.00">ie_kv_init</text>
</a>
</g>
</g>
<!-- Node2&#45;&gt;Node3 -->
<g id="edge2_Node000002_Node000003" class="edge">
<title>Node2&#45;&gt;Node3</title>
<g id="a_edge2_Node000002_Node000003"><a xlink:title=" ">
<path fill="none" stroke="#63b8ff" d="M87.43,-10.38C79.1,-10.38 71.01,-10.38 63.72,-10.38"/>
<polygon fill="#63b8ff" stroke="#63b8ff" points="87.37,-13.88 97.37,-10.38 87.37,-6.88 87.37,-13.88"/>
</a>
</g>
</g>
</g>
</svg>
