<?xml version="1.0" encoding="UTF-8" standalone="no"?>
<!DOCTYPE svg PUBLIC "-//W3C//DTD SVG 1.1//EN"
 "http://www.w3.org/Graphics/SVG/1.1/DTD/svg11.dtd">
<!-- Generated by graphviz version 2.43.0 (0)
 -->
<!-- Title: ie_kv_store_token_int8_per_group Pages: 1 -->
<!--zoomable 408 -->

<svg id="main" version="1.1" xmlns="http://www.w3.org/2000/svg" xmlns:xlink="http://www.w3.org/1999/xlink" xml:space="preserve" onload="init(evt)">
<style type="text/css"><![CDATA[
.node, .edge {opacity: 0.7;}
.node.selected, .edge.selected {opacity: 1;}
.edge:hover path { stroke: red; }
.edge:hover polygon { stroke: red; fill: red; }
]]></style>

<defs>
  <circle id="rim" cx="0" cy="0" r="7"/>
  <circle id="rim2" cx="0" cy="0" r="3.5"/>
  <g id="zoomPlus">
    <use xlink:href="#rim" fill="#404040"><set attributeName="fill" to="#808080" begin="zoomplus.mouseover" end="zoomplus.mouseout"/></use>
    <path d="M-4,0h8M0,-4v8" fill="none" stroke="white" stroke-width="1.5" pointer-events="none"/>
  </g>
  <g id="zoomMin">
    <use xlink:href="#rim" fill="#404040"><set attributeName="fill" to="#808080" begin="zoomminus.mouseover" end="zoomminus.mouseout"/></use>
    <path d="M-4,0h8" fill="none" stroke="white" stroke-width="1.5" pointer-events="none"/>
  </g>
  <g id="arrowUp" transform="translate(30 24)">
    <use xlink:href="#rim"/>
    <path pointer-events="none" fill="none" stroke="white" stroke-width="1.5" d="M0,-3.0v7 M-2.5,-0.5L0,-3.0L2.5,-0.5"/>
  </g>
  <g id="arrowRight" transform="rotate(90) translate(36 -43)">
    <use xlink:href="#rim"/>
    <path pointer-events="none" fill="none" stroke="white" stroke-width="1.5" d="M0,-3.0v7 M-2.5,-0.5L0,-3.0L2.5,-0.5"/>
  </g>
  <g id="arrowDown" transform="rotate(180) translate(-30 -48)">
    <use xlink:href="#rim"/>
    <path pointer-events="none" fill="none" stroke="white" stroke-width="1.5" d="M0,-3.0v7 M-2.5,-0.5L0,-3.0L2.5,-0.5"/>
  </g>
  <g id="arrowLeft" transform="rotate(270) translate(-36 17)">
    <use xlink:href="#rim"/>
    <path pointer-events="none" fill="none" stroke="white" stroke-width="1.5" d="M0,-3.0v7 M-2.5,-0.5L0,-3.0L2.5,-0.5"/>
  </g>
  <g id="resetDef">
    <use xlink:href="#rim2" fill="#404040"><set attributeName="fill" to="#808080" begin="reset.mouseover" end="reset.mouseout"/></use>
  </g>
</defs>
<script type="application/ecmascript">
var viewWidth = 758;
var viewHeight = 408;
var sectionId = 'dynsection-16';
</script>
<script type="application/ecmascript" xlink:href="svg.min.js"/>
<svg id="graph" class="graph">
<g id="viewport">
<title>ie_kv_store_token_int8_per_group</title>
<!-- Node1 -->
<g id="Node000001" class="node">
<title>Node1</title>
<g id="a_Node000001"><a xlink:title="Store one token’s K/V using INT8 per&#45;group parameters along head_dim.">
<polygon fill="#999999" stroke="#666666" points="129,-154.61 0,-154.61 0,-124.61 129,-124.61 129,-154.61"/>
<text text-anchor="start" x="8" y="-142.61" font-family="Helvetica,sans-Serif" font-size="10.00">ie_kv_store_token_int8</text>
<text text-anchor="middle" x="64.5" y="-131.61" font-family="Helvetica,sans-Serif" font-size="10.00">_per_group</text>
</a>
</g>
</g>
<!-- Node2 -->
<g id="Node000002" class="node">
<title>Node2</title>
<g id="a_Node000002"><a xlink:href="act__int8_8c.html#ad17e6b199c1c826b681db341c72701ef" target="_top" xlink:title="Compute per&#45;group INT8 parameters from data.">
<polygon fill="white" stroke="#666666" points="300,-272.61 165,-272.61 165,-242.61 300,-242.61 300,-272.61"/>
<text text-anchor="start" x="173" y="-260.61" font-family="Helvetica,sans-Serif" font-size="10.00">ie_act_i8_group_params</text>
<text text-anchor="middle" x="232.5" y="-249.61" font-family="Helvetica,sans-Serif" font-size="10.00">_from_data</text>
</a>
</g>
</g>
<!-- Node1&#45;&gt;Node2 -->
<g id="edge1_Node000001_Node000002" class="edge">
<title>Node1&#45;&gt;Node2</title>
<g id="a_edge1_Node000001_Node000002"><a xlink:title=" ">
<path fill="none" stroke="#63b8ff" d="M86.86,-154.8C116.12,-175.6 168.79,-213.04 201.86,-236.54"/>
<polygon fill="#63b8ff" stroke="#63b8ff" points="200.04,-239.54 210.22,-242.49 204.1,-233.84 200.04,-239.54"/>
</a>
</g>
</g>
<!-- Node5 -->
<g id="Node000005" class="node">
<title>Node5</title>
<g id="a_Node000005"><a xlink:href="ie__device__cuda_8cu.html#a5e3d9fee84981707669f5c2398f0c4ab" target="_top" xlink:title="Row&#45;wise GEMV kernel: each thread computes one output row.">
<polygon fill="white" stroke="#666666" points="750,-230.61 625,-230.61 625,-200.61 750,-200.61 750,-230.61"/>
<text text-anchor="start" x="633" y="-218.61" font-family="Helvetica,sans-Serif" font-size="10.00">ie_gemv_rowwise_f32</text>
<text text-anchor="middle" x="687.5" y="-207.61" font-family="Helvetica,sans-Serif" font-size="10.00">_kernel</text>
</a>
</g>
</g>
<!-- Node1&#45;&gt;Node5 -->
<g id="edge14_Node000001_Node000005" class="edge">
<title>Node1&#45;&gt;Node5</title>
<g id="a_edge14_Node000001_Node000005"><a xlink:title=" ">
<path fill="none" stroke="#63b8ff" d="M72.73,-154.85C86.86,-183.2 120.65,-244.55 165,-281.61 229.24,-335.3 254.93,-339.72 336,-360.61 445.01,-388.71 490.62,-427.32 589,-372.61 639.92,-344.3 667.65,-277.16 679.48,-240.52"/>
<polygon fill="#63b8ff" stroke="#63b8ff" points="682.93,-241.22 682.52,-230.63 676.24,-239.16 682.93,-241.22"/>
</a>
</g>
</g>
<!-- Node9 -->
<g id="Node000009" class="node">
<title>Node9</title>
<g id="a_Node000009"><a xlink:href="act__int8_8c.html#a8e3abfa039c2b7c2fca327f68a2d7b09" target="_top" xlink:title="Quantize fp32 activations to INT8 using per&#45;group parameters.">
<polygon fill="white" stroke="#666666" points="460,-154.61 343,-154.61 343,-124.61 460,-124.61 460,-154.61"/>
<text text-anchor="start" x="351" y="-142.61" font-family="Helvetica,sans-Serif" font-size="10.00">ie_quantize_act_int8</text>
<text text-anchor="middle" x="401.5" y="-131.61" font-family="Helvetica,sans-Serif" font-size="10.00">_per_group</text>
</a>
</g>
</g>
<!-- Node1&#45;&gt;Node9 -->
<g id="edge15_Node000001_Node000009" class="edge">
<title>Node1&#45;&gt;Node9</title>
<g id="a_edge15_Node000001_Node000009"><a xlink:title=" ">
<path fill="none" stroke="#63b8ff" d="M129.3,-139.61C187.53,-139.61 273.34,-139.61 332.77,-139.61"/>
<polygon fill="#63b8ff" stroke="#63b8ff" points="332.81,-143.11 342.81,-139.61 332.81,-136.11 332.81,-143.11"/>
</a>
</g>
</g>
<!-- Node12 -->
<g id="Node000012" class="node">
<title>Node12</title>
<g id="a_Node000012"><a xlink:href="kv__cache_8c.html#a51dbee8312b98b2d1e701dff311671ca" target="_top" xlink:title="Compute param index for (t,h,g) triplet.">
<polygon fill="white" stroke="#666666" points="272.5,-102.11 192.5,-102.11 192.5,-83.11 272.5,-83.11 272.5,-102.11"/>
<text text-anchor="middle" x="232.5" y="-90.11" font-family="Helvetica,sans-Serif" font-size="10.00">param_index</text>
</a>
</g>
</g>
<!-- Node1&#45;&gt;Node12 -->
<g id="edge22_Node000001_Node000012" class="edge">
<title>Node1&#45;&gt;Node12</title>
<g id="a_edge22_Node000001_Node000012"><a xlink:title=" ">
<path fill="none" stroke="#63b8ff" d="M118.48,-124.61C140.92,-118.26 166.75,-110.94 188.05,-104.91"/>
<polygon fill="#63b8ff" stroke="#63b8ff" points="189.13,-108.25 197.79,-102.16 187.22,-101.51 189.13,-108.25"/>
</a>
</g>
</g>
<!-- Node13 -->
<g id="Node000013" class="node">
<title>Node13</title>
<g id="a_Node000013"><a xlink:href="kv__cache_8c.html#acaff19ff67c66594ad4c72d3a9cc35d6" target="_top" xlink:title="Compute payload index for (t,h,d) triplet.">
<polygon fill="white" stroke="#666666" points="276.5,-46.11 188.5,-46.11 188.5,-27.11 276.5,-27.11 276.5,-46.11"/>
<text text-anchor="middle" x="232.5" y="-34.11" font-family="Helvetica,sans-Serif" font-size="10.00">payload_index</text>
</a>
</g>
</g>
<!-- Node1&#45;&gt;Node13 -->
<g id="edge24_Node000001_Node000013" class="edge">
<title>Node1&#45;&gt;Node13</title>
<g id="a_edge24_Node000001_Node000013"><a xlink:title=" ">
<path fill="none" stroke="#63b8ff" d="M87.78,-124.51C107.79,-111.08 138.07,-91.08 165,-74.61 178.11,-66.6 192.93,-58.07 205.25,-51.14"/>
<polygon fill="#63b8ff" stroke="#63b8ff" points="207.1,-54.11 214.11,-46.18 203.68,-48.01 207.1,-54.11"/>
</a>
</g>
</g>
<!-- Node3 -->
<g id="Node000003" class="node">
<title>Node3</title>
<g id="a_Node000003"><a xlink:href="act__int8_8c.html#a383703e828dd5701507b0d1f6ab1cf73" target="_top" xlink:title="Compute per&#45;tensor INT8 parameters from observed min/max.">
<polygon fill="white" stroke="#666666" points="467,-315.61 336,-315.61 336,-285.61 467,-285.61 467,-315.61"/>
<text text-anchor="start" x="344" y="-303.61" font-family="Helvetica,sans-Serif" font-size="10.00">ie_act_i8_params_from</text>
<text text-anchor="middle" x="401.5" y="-292.61" font-family="Helvetica,sans-Serif" font-size="10.00">_minmax</text>
</a>
</g>
</g>
<!-- Node2&#45;&gt;Node3 -->
<g id="edge2_Node000002_Node000003" class="edge">
<title>Node2&#45;&gt;Node3</title>
<g id="a_edge2_Node000002_Node000003"><a xlink:title=" ">
<path fill="none" stroke="#63b8ff" d="M291.91,-272.65C304.88,-275.99 318.73,-279.56 332.06,-282.99"/>
<polygon fill="#63b8ff" stroke="#63b8ff" points="331.57,-286.48 342.12,-285.58 333.31,-279.7 331.57,-286.48"/>
</a>
</g>
</g>
<!-- Node2&#45;&gt;Node5 -->
<g id="edge10_Node000002_Node000005" class="edge">
<title>Node2&#45;&gt;Node5</title>
<g id="a_edge10_Node000002_Node000005"><a xlink:title=" ">
<path fill="none" stroke="#63b8ff" d="M251.03,-272.66C270.44,-288.41 303.31,-312.49 336,-324.61 441.83,-363.84 488.14,-397.27 589,-346.61 633.12,-324.45 662.33,-271.82 676.5,-240.43"/>
<polygon fill="#63b8ff" stroke="#63b8ff" points="679.8,-241.61 680.58,-231.05 673.38,-238.82 679.8,-241.61"/>
</a>
</g>
</g>
<!-- Node6 -->
<g id="Node000006" class="node">
<title>Node6</title>
<g id="a_Node000006"><a xlink:href="act__int8_8c.html#ad80154c444341a2ed6f1be5eb0bdb5de" target="_top" xlink:title=" ">
<polygon fill="white" stroke="#666666" points="574,-281.11 518,-281.11 518,-262.11 574,-262.11 574,-281.11"/>
<text text-anchor="middle" x="546" y="-269.11" font-family="Helvetica,sans-Serif" font-size="10.00">ie_maxf</text>
</a>
</g>
</g>
<!-- Node2&#45;&gt;Node6 -->
<g id="edge11_Node000002_Node000006" class="edge">
<title>Node2&#45;&gt;Node6</title>
<g id="a_edge11_Node000002_Node000006"><a xlink:title=" ">
<path fill="none" stroke="#63b8ff" d="M300.32,-260.62C363.58,-263.46 456.26,-267.62 507.49,-269.93"/>
<polygon fill="#63b8ff" stroke="#63b8ff" points="507.62,-273.44 517.76,-270.39 507.93,-266.44 507.62,-273.44"/>
</a>
</g>
</g>
<!-- Node8 -->
<g id="Node000008" class="node">
<title>Node8</title>
<g id="a_Node000008"><a xlink:href="act__int8_8c.html#ab1c0766c72ff5b328ace7f8354021ff8" target="_top" xlink:title=" ">
<polygon fill="white" stroke="#666666" points="428,-214.11 375,-214.11 375,-195.11 428,-195.11 428,-214.11"/>
<text text-anchor="middle" x="401.5" y="-202.11" font-family="Helvetica,sans-Serif" font-size="10.00">ie_minf</text>
</a>
</g>
</g>
<!-- Node2&#45;&gt;Node8 -->
<g id="edge12_Node000002_Node000008" class="edge">
<title>Node2&#45;&gt;Node8</title>
<g id="a_edge12_Node000002_Node000008"><a xlink:title=" ">
<path fill="none" stroke="#63b8ff" d="M280.91,-242.57C307.69,-234.07 340.61,-223.62 365.12,-215.84"/>
<polygon fill="#63b8ff" stroke="#63b8ff" points="366.27,-219.15 374.74,-212.79 364.15,-212.48 366.27,-219.15"/>
</a>
</g>
</g>
<!-- Node4 -->
<g id="Node000004" class="node">
<title>Node4</title>
<g id="a_Node000004"><a xlink:href="act__int8_8c.html#a06921ebd025375319bac8a4b43888241" target="_top" xlink:title=" ">
<polygon fill="white" stroke="#666666" points="574,-318.11 518,-318.11 518,-299.11 574,-299.11 574,-318.11"/>
<text text-anchor="middle" x="546" y="-306.11" font-family="Helvetica,sans-Serif" font-size="10.00">ie_fabsf</text>
</a>
</g>
</g>
<!-- Node3&#45;&gt;Node4 -->
<g id="edge3_Node000003_Node000004" class="edge">
<title>Node3&#45;&gt;Node4</title>
<g id="a_edge3_Node000003_Node000004"><a xlink:title=" ">
<path fill="none" stroke="#63b8ff" d="M467.08,-304.24C481,-305.02 495.27,-305.82 507.72,-306.52"/>
<polygon fill="#63b8ff" stroke="#63b8ff" points="507.53,-310.01 517.71,-307.08 507.93,-303.02 507.53,-310.01"/>
</a>
</g>
</g>
<!-- Node3&#45;&gt;Node5 -->
<g id="edge5_Node000003_Node000005" class="edge">
<title>Node3&#45;&gt;Node5</title>
<g id="a_edge5_Node000003_Node000005"><a xlink:title=" ">
<path fill="none" stroke="#63b8ff" d="M434.7,-315.65C473.13,-331.3 538.53,-350.59 589,-327.61 628.46,-309.65 658.15,-266.95 673.88,-239.77"/>
<polygon fill="#63b8ff" stroke="#63b8ff" points="677.03,-241.31 678.85,-230.87 670.92,-237.89 677.03,-241.31"/>
</a>
</g>
</g>
<!-- Node3&#45;&gt;Node6 -->
<g id="edge6_Node000003_Node000006" class="edge">
<title>Node3&#45;&gt;Node6</title>
<g id="a_edge6_Node000003_Node000006"><a xlink:title=" ">
<path fill="none" stroke="#63b8ff" d="M467.08,-287.47C481,-284.64 495.27,-281.73 507.72,-279.2"/>
<polygon fill="#63b8ff" stroke="#63b8ff" points="508.61,-282.59 517.71,-277.16 507.22,-275.73 508.61,-282.59"/>
</a>
</g>
</g>
<!-- Node7 -->
<g id="Node000007" class="node">
<title>Node7</title>
<g id="a_Node000007"><a xlink:href="act__int8_8c.html#a7490ce5fac2e6e5e1b7812006550be41" target="_top" xlink:title=" ">
<polygon fill="white" stroke="#666666" points="569.5,-244.11 522.5,-244.11 522.5,-225.11 569.5,-225.11 569.5,-244.11"/>
<text text-anchor="middle" x="546" y="-232.11" font-family="Helvetica,sans-Serif" font-size="10.00">ie_rne</text>
</a>
</g>
</g>
<!-- Node3&#45;&gt;Node7 -->
<g id="edge8_Node000003_Node000007" class="edge">
<title>Node3&#45;&gt;Node7</title>
<g id="a_edge8_Node000003_Node000007"><a xlink:title=" ">
<path fill="none" stroke="#63b8ff" d="M434.59,-285.48C454.3,-276.22 480.08,-264.16 503,-253.61 506.66,-251.93 510.5,-250.17 514.31,-248.44"/>
<polygon fill="#63b8ff" stroke="#63b8ff" points="515.95,-251.54 523.61,-244.23 513.06,-245.17 515.95,-251.54"/>
</a>
</g>
</g>
<!-- Node4&#45;&gt;Node5 -->
<g id="edge4_Node000004_Node000005" class="edge">
<title>Node4&#45;&gt;Node5</title>
<g id="a_edge4_Node000004_Node000005"><a xlink:title=" ">
<path fill="none" stroke="#63b8ff" d="M572.38,-298.95C577.98,-296.49 583.8,-293.66 589,-290.61 615.44,-275.11 642.87,-253.42 661.88,-237.35"/>
<polygon fill="#63b8ff" stroke="#63b8ff" points="664.16,-240.01 669.48,-230.85 659.61,-234.69 664.16,-240.01"/>
</a>
</g>
</g>
<!-- Node6&#45;&gt;Node5 -->
<g id="edge7_Node000006_Node000005" class="edge">
<title>Node6&#45;&gt;Node5</title>
<g id="a_edge7_Node000006_Node000005"><a xlink:title=" ">
<path fill="none" stroke="#63b8ff" d="M570.98,-261.99C589.81,-254.43 616.6,-243.67 639.65,-234.42"/>
<polygon fill="#63b8ff" stroke="#63b8ff" points="640.95,-237.67 648.93,-230.69 638.35,-231.17 640.95,-237.67"/>
</a>
</g>
</g>
<!-- Node7&#45;&gt;Node5 -->
<g id="edge9_Node000007_Node000005" class="edge">
<title>Node7&#45;&gt;Node5</title>
<g id="a_edge9_Node000007_Node000005"><a xlink:title=" ">
<path fill="none" stroke="#63b8ff" d="M569.72,-231.52C582.19,-229.82 598.41,-227.61 614.78,-225.38"/>
<polygon fill="#63b8ff" stroke="#63b8ff" points="615.51,-228.81 624.95,-223.99 614.57,-221.88 615.51,-228.81"/>
</a>
</g>
</g>
<!-- Node8&#45;&gt;Node5 -->
<g id="edge13_Node000008_Node000005" class="edge">
<title>Node8&#45;&gt;Node5</title>
<g id="a_edge13_Node000008_Node000005"><a xlink:title=" ">
<path fill="none" stroke="#63b8ff" d="M428.2,-205.61C469.89,-207.22 553.72,-210.47 614.6,-212.83"/>
<polygon fill="#63b8ff" stroke="#63b8ff" points="614.8,-216.34 624.92,-213.23 615.07,-209.34 614.8,-216.34"/>
</a>
</g>
</g>
<!-- Node9&#45;&gt;Node5 -->
<g id="edge16_Node000009_Node000005" class="edge">
<title>Node9&#45;&gt;Node5</title>
<g id="a_edge16_Node000009_Node000005"><a xlink:title=" ">
<path fill="none" stroke="#63b8ff" d="M458.61,-154.63C505.04,-167.05 571.09,-184.73 620.14,-197.85"/>
<polygon fill="#63b8ff" stroke="#63b8ff" points="619.46,-201.29 630.02,-200.5 621.27,-194.53 619.46,-201.29"/>
</a>
</g>
</g>
<!-- Node9&#45;&gt;Node7 -->
<g id="edge17_Node000009_Node000007" class="edge">
<title>Node9&#45;&gt;Node7</title>
<g id="a_edge17_Node000009_Node000007"><a xlink:title=" ">
<path fill="none" stroke="#63b8ff" d="M425.08,-154.66C451.59,-172.34 495.32,-201.49 522.01,-219.29"/>
<polygon fill="#63b8ff" stroke="#63b8ff" points="520.1,-222.22 530.36,-224.85 523.98,-216.39 520.1,-222.22"/>
</a>
</g>
</g>
<!-- Node10 -->
<g id="Node000010" class="node">
<title>Node10</title>
<g id="a_Node000010"><a xlink:href="act__int8_8c.html#adbe29326b240b464a7a7a8773210fb8f" target="_top" xlink:title=" ">
<polygon fill="white" stroke="#666666" points="576,-130.11 516,-130.11 516,-111.11 576,-111.11 576,-130.11"/>
<text text-anchor="middle" x="546" y="-118.11" font-family="Helvetica,sans-Serif" font-size="10.00">ie_sat_i8</text>
</a>
</g>
</g>
<!-- Node9&#45;&gt;Node10 -->
<g id="edge18_Node000009_Node000010" class="edge">
<title>Node9&#45;&gt;Node10</title>
<g id="a_edge18_Node000009_Node000010"><a xlink:title=" ">
<path fill="none" stroke="#63b8ff" d="M460.05,-131.94C475.31,-129.9 491.45,-127.75 505.51,-125.88"/>
<polygon fill="#63b8ff" stroke="#63b8ff" points="506.36,-129.29 515.81,-124.5 505.44,-122.36 506.36,-129.29"/>
</a>
</g>
</g>
<!-- Node11 -->
<g id="Node000011" class="node">
<title>Node11</title>
<g id="a_Node000011"><a xlink:href="act__int8_8c.html#a312c061258a9180793b777e396301655" target="_top" xlink:title=" ">
<polygon fill="white" stroke="#666666" points="589,-93.11 503,-93.11 503,-74.11 589,-74.11 589,-93.11"/>
<text text-anchor="middle" x="546" y="-81.11" font-family="Helvetica,sans-Serif" font-size="10.00">ie_sat_sym_i8</text>
</a>
</g>
</g>
<!-- Node9&#45;&gt;Node11 -->
<g id="edge20_Node000009_Node000011" class="edge">
<title>Node9&#45;&gt;Node11</title>
<g id="a_edge20_Node000009_Node000011"><a xlink:title=" ">
<path fill="none" stroke="#63b8ff" d="M440.69,-124.6C462.61,-115.99 489.89,-105.27 511.06,-96.95"/>
<polygon fill="#63b8ff" stroke="#63b8ff" points="512.58,-100.11 520.61,-93.2 510.02,-93.6 512.58,-100.11"/>
</a>
</g>
</g>
<!-- Node10&#45;&gt;Node5 -->
<g id="edge19_Node000010_Node000005" class="edge">
<title>Node10&#45;&gt;Node5</title>
<g id="a_edge19_Node000010_Node000005"><a xlink:title=" ">
<path fill="none" stroke="#63b8ff" d="M564.83,-130.23C572.4,-134.46 581.24,-139.59 589,-144.61 613.35,-160.37 639.89,-179.86 659.13,-194.43"/>
<polygon fill="#63b8ff" stroke="#63b8ff" points="657.08,-197.27 667.15,-200.55 661.32,-191.7 657.08,-197.27"/>
</a>
</g>
</g>
<!-- Node11&#45;&gt;Node5 -->
<g id="edge21_Node000011_Node000005" class="edge">
<title>Node11&#45;&gt;Node5</title>
<g id="a_edge21_Node000011_Node000005"><a xlink:title=" ">
<path fill="none" stroke="#63b8ff" d="M572.87,-93.18C578.45,-95.82 584.13,-98.97 589,-102.61 623.01,-128.03 653.43,-167.21 670.92,-192.12"/>
<polygon fill="#63b8ff" stroke="#63b8ff" points="668.21,-194.35 676.76,-200.6 673.97,-190.38 668.21,-194.35"/>
</a>
</g>
</g>
<!-- Node12&#45;&gt;Node5 -->
<g id="edge23_Node000012_Node000005" class="edge">
<title>Node12&#45;&gt;Node5</title>
<g id="a_edge23_Node000012_Node000005"><a xlink:title=" ">
<path fill="none" stroke="#63b8ff" d="M256.06,-82.96C315.03,-59.34 476.93,-4.79 589,-65.61 638.2,-92.31 666.44,-155.75 678.86,-190.98"/>
<polygon fill="#63b8ff" stroke="#63b8ff" points="675.57,-192.16 682.08,-200.52 682.2,-189.92 675.57,-192.16"/>
</a>
</g>
</g>
<!-- Node13&#45;&gt;Node5 -->
<g id="edge25_Node000013_Node000005" class="edge">
<title>Node13&#45;&gt;Node5</title>
<g id="a_edge25_Node000013_Node000005"><a xlink:title=" ">
<path fill="none" stroke="#63b8ff" d="M263.38,-27.01C328.18,-8.12 484.19,26.82 589,-36.61 645.42,-70.75 671.36,-150.04 681.3,-190.65"/>
<polygon fill="#63b8ff" stroke="#63b8ff" points="677.93,-191.6 683.6,-200.55 684.75,-190.02 677.93,-191.6"/>
</a>
</g>
</g>
</g>
</svg>

<g id="navigator" transform="translate(0 0)" fill="#404254">
  <rect fill="#f2f5e9" fill-opacity="0.5" stroke="#606060" stroke-width=".5" x="0" y="0" width="60" height="60"/>
  <use id="zoomplus" xlink:href="#zoomPlus" x="17" y="9" onmousedown="handleZoom(evt,'in')"/>
  <use id="zoomminus" xlink:href="#zoomMin" x="42" y="9" onmousedown="handleZoom(evt,'out')"/>
  <use id="reset" xlink:href="#resetDef" x="30" y="36" onmousedown="handleReset()"/>
   <use id="arrowup" xlink:href="#arrowUp" x="0" y="0" onmousedown="handlePan(0,-1)"/>
  <use id="arrowright" xlink:href="#arrowRight" x="0" y="0" onmousedown="handlePan(1,0)"/>
  <use id="arrowdown" xlink:href="#arrowDown" x="0" y="0" onmousedown="handlePan(0,1)"/>
  <use id="arrowleft" xlink:href="#arrowLeft" x="0" y="0" onmousedown="handlePan(-1,0)"/>
</g>
<svg viewBox="0 0 15 15" width="100%" height="30px" preserveAspectRatio="xMaxYMin meet">
 <g id="arrow_out" transform="scale(0.3 0.3)">
  <a xlink:href="kv__cache_8c_a5b546a5423f4572607a07d8d55146024_cgraph_org.svg" target="_base">
   <rect id="button" ry="5" rx="5" y="6" x="6" height="38" width="38"
        fill="#f2f5e9" fill-opacity="0.5" stroke="#606060" stroke-width="1.0"/>
   <path id="arrow"
     d="M 11.500037,31.436501 C 11.940474,20.09759 22.043105,11.32322 32.158766,21.979434 L 37.068811,17.246167 C 37.068811,17.246167 37.088388,32 37.088388,32 L 22.160133,31.978069 C 22.160133,31.978069 26.997745,27.140456 26.997745,27.140456 C 18.528582,18.264221 13.291696,25.230495 11.500037,31.436501 z"
     style="fill:#404040;"/>
  </a>
 </g>
</svg>

<style type='text/css'>
<![CDATA[
[data-mouse-over-selected='false'] { opacity: 0.7; }
[data-mouse-over-selected='true']  { opacity: 1.0; }
]]>
</style>
<script type="application/ecmascript"><![CDATA[
document.addEventListener('DOMContentLoaded', (event) => {
  highlightEdges();
  highlightAdjacentNodes();
});
]]></script>
</svg>
