<?xml version="1.0" encoding="UTF-8" standalone="no"?>
<!DOCTYPE svg PUBLIC "-//W3C//DTD SVG 1.1//EN"
 "http://www.w3.org/Graphics/SVG/1.1/DTD/svg11.dtd">
<!-- Generated by graphviz version 2.43.0 (0)
 -->
<!-- Title: ie_kv_store_token_fp8 Pages: 1 -->
<!--zoomable 250 -->

<svg id="main" version="1.1" xmlns="http://www.w3.org/2000/svg" xmlns:xlink="http://www.w3.org/1999/xlink" xml:space="preserve" onload="init(evt)">
<style type="text/css"><![CDATA[
.node, .edge {opacity: 0.7;}
.node.selected, .edge.selected {opacity: 1;}
.edge:hover path { stroke: red; }
.edge:hover polygon { stroke: red; fill: red; }
]]></style>

<defs>
  <circle id="rim" cx="0" cy="0" r="7"/>
  <circle id="rim2" cx="0" cy="0" r="3.5"/>
  <g id="zoomPlus">
    <use xlink:href="#rim" fill="#404040"><set attributeName="fill" to="#808080" begin="zoomplus.mouseover" end="zoomplus.mouseout"/></use>
    <path d="M-4,0h8M0,-4v8" fill="none" stroke="white" stroke-width="1.5" pointer-events="none"/>
  </g>
  <g id="zoomMin">
    <use xlink:href="#rim" fill="#404040"><set attributeName="fill" to="#808080" begin="zoomminus.mouseover" end="zoomminus.mouseout"/></use>
    <path d="M-4,0h8" fill="none" stroke="white" stroke-width="1.5" pointer-events="none"/>
  </g>
  <g id="arrowUp" transform="translate(30 24)">
    <use xlink:href="#rim"/>
    <path pointer-events="none" fill="none" stroke="white" stroke-width="1.5" d="M0,-3.0v7 M-2.5,-0.5L0,-3.0L2.5,-0.5"/>
  </g>
  <g id="arrowRight" transform="rotate(90) translate(36 -43)">
    <use xlink:href="#rim"/>
    <path pointer-events="none" fill="none" stroke="white" stroke-width="1.5" d="M0,-3.0v7 M-2.5,-0.5L0,-3.0L2.5,-0.5"/>
  </g>
  <g id="arrowDown" transform="rotate(180) translate(-30 -48)">
    <use xlink:href="#rim"/>
    <path pointer-events="none" fill="none" stroke="white" stroke-width="1.5" d="M0,-3.0v7 M-2.5,-0.5L0,-3.0L2.5,-0.5"/>
  </g>
  <g id="arrowLeft" transform="rotate(270) translate(-36 17)">
    <use xlink:href="#rim"/>
    <path pointer-events="none" fill="none" stroke="white" stroke-width="1.5" d="M0,-3.0v7 M-2.5,-0.5L0,-3.0L2.5,-0.5"/>
  </g>
  <g id="resetDef">
    <use xlink:href="#rim2" fill="#404040"><set attributeName="fill" to="#808080" begin="reset.mouseover" end="reset.mouseout"/></use>
  </g>
</defs>
<script type="application/ecmascript">
var viewWidth = 711;
var viewHeight = 250;
var sectionId = 'dynsection-15';
</script>
<script type="application/ecmascript" xlink:href="svg.min.js"/>
<svg id="graph" class="graph">
<g id="viewport">
<title>ie_kv_store_token_fp8</title>
<!-- Node1 -->
<g id="Node000001" class="node">
<title>Node1</title>
<g id="a_Node000001"><a xlink:title="Store one token’s K/V as FP8 (E4M3/E5M2), no scale arrays.">
<polygon fill="#999999" stroke="#666666" points="126,-227.79 0,-227.79 0,-208.79 126,-208.79 126,-227.79"/>
<text text-anchor="middle" x="63" y="-215.79" font-family="Helvetica,sans-Serif" font-size="10.00">ie_kv_store_token_fp8</text>
</a>
</g>
</g>
<!-- Node2 -->
<g id="Node000002" class="node">
<title>Node2</title>
<g id="a_Node000002"><a xlink:href="ie__device__cuda_8cu.html#a5e3d9fee84981707669f5c2398f0c4ab" target="_top" xlink:title="Row&#45;wise GEMV kernel: each thread computes one output row.">
<polygon fill="white" stroke="#666666" points="703,-176.29 578,-176.29 578,-146.29 703,-146.29 703,-176.29"/>
<text text-anchor="start" x="586" y="-164.29" font-family="Helvetica,sans-Serif" font-size="10.00">ie_gemv_rowwise_f32</text>
<text text-anchor="middle" x="640.5" y="-153.29" font-family="Helvetica,sans-Serif" font-size="10.00">_kernel</text>
</a>
</g>
</g>
<!-- Node1&#45;&gt;Node2 -->
<g id="edge1_Node000001_Node000002" class="edge">
<title>Node1&#45;&gt;Node2</title>
<g id="a_edge1_Node000001_Node000002"><a xlink:title=" ">
<path fill="none" stroke="#63b8ff" d="M106.7,-227.87C123.8,-231.25 143.74,-234.62 162,-236.29 331.17,-251.69 377.17,-236.36 542,-195.29 558.57,-191.16 576.3,-185.4 592.04,-179.79"/>
<polygon fill="#63b8ff" stroke="#63b8ff" points="593.35,-183.03 601.55,-176.33 590.96,-176.46 593.35,-183.03"/>
</a>
</g>
</g>
<!-- Node3 -->
<g id="Node000003" class="node">
<title>Node3</title>
<g id="a_Node000003"><a xlink:href="act__fp8_8c.html#a91772f4827e6d4c82915434eb55a9f17" target="_top" xlink:title="Quantize fp32 activations to FP8.">
<polygon fill="white" stroke="#666666" points="276,-151.79 162,-151.79 162,-132.79 276,-132.79 276,-151.79"/>
<text text-anchor="middle" x="219" y="-139.79" font-family="Helvetica,sans-Serif" font-size="10.00">ie_quantize_act_fp8</text>
</a>
</g>
</g>
<!-- Node1&#45;&gt;Node3 -->
<g id="edge2_Node000001_Node000003" class="edge">
<title>Node1&#45;&gt;Node3</title>
<g id="a_edge2_Node000001_Node000003"><a xlink:title=" ">
<path fill="none" stroke="#63b8ff" d="M83.5,-208.66C110.23,-195.47 158.44,-171.68 189.3,-156.45"/>
<polygon fill="#63b8ff" stroke="#63b8ff" points="191.24,-159.4 198.65,-151.83 188.14,-153.12 191.24,-159.4"/>
</a>
</g>
</g>
<!-- Node9 -->
<g id="Node000009" class="node">
<title>Node9</title>
<g id="a_Node000009"><a xlink:href="kv__cache_8c.html#acaff19ff67c66594ad4c72d3a9cc35d6" target="_top" xlink:title="Compute payload index for (t,h,d) triplet.">
<polygon fill="white" stroke="#666666" points="263,-227.79 175,-227.79 175,-208.79 263,-208.79 263,-227.79"/>
<text text-anchor="middle" x="219" y="-215.79" font-family="Helvetica,sans-Serif" font-size="10.00">payload_index</text>
</a>
</g>
</g>
<!-- Node1&#45;&gt;Node9 -->
<g id="edge15_Node000001_Node000009" class="edge">
<title>Node1&#45;&gt;Node9</title>
<g id="a_edge15_Node000001_Node000009"><a xlink:title=" ">
<path fill="none" stroke="#63b8ff" d="M126.19,-218.29C138.98,-218.29 152.32,-218.29 164.76,-218.29"/>
<polygon fill="#63b8ff" stroke="#63b8ff" points="164.95,-221.79 174.95,-218.29 164.95,-214.79 164.95,-221.79"/>
</a>
</g>
</g>
<!-- Node3&#45;&gt;Node2 -->
<g id="edge3_Node000003_Node000002" class="edge">
<title>Node3&#45;&gt;Node2</title>
<g id="a_edge3_Node000003_Node000002"><a xlink:title=" ">
<path fill="none" stroke="#63b8ff" d="M276.14,-144.83C351.47,-148.24 485.33,-154.3 567.85,-158.04"/>
<polygon fill="#63b8ff" stroke="#63b8ff" points="567.75,-161.54 577.9,-158.5 568.07,-154.55 567.75,-161.54"/>
</a>
</g>
</g>
<!-- Node4 -->
<g id="Node000004" class="node">
<title>Node4</title>
<g id="a_Node000004"><a xlink:href="act__fp8_8c.html#a202a6a4b5ffeadd5e70ea00de8307dd4" target="_top" xlink:title=" ">
<polygon fill="white" stroke="#666666" points="420,-76.79 312,-76.79 312,-57.79 420,-57.79 420,-76.79"/>
<text text-anchor="middle" x="366" y="-64.79" font-family="Helvetica,sans-Serif" font-size="10.00">ie_pack_fp8_e4m3</text>
</a>
</g>
</g>
<!-- Node3&#45;&gt;Node4 -->
<g id="edge4_Node000003_Node000004" class="edge">
<title>Node3&#45;&gt;Node4</title>
<g id="a_edge4_Node000003_Node000004"><a xlink:title=" ">
<path fill="none" stroke="#63b8ff" d="M233.17,-132.78C250.56,-120.56 282.44,-99.24 312,-85.29 315.76,-83.51 319.74,-81.83 323.76,-80.26"/>
<polygon fill="#63b8ff" stroke="#63b8ff" points="324.98,-83.54 333.15,-76.79 322.55,-76.97 324.98,-83.54"/>
</a>
</g>
</g>
<!-- Node8 -->
<g id="Node000008" class="node">
<title>Node8</title>
<g id="a_Node000008"><a xlink:href="act__fp8_8c.html#a3c2a81020974f897eee0c71515548031" target="_top" xlink:title=" ">
<polygon fill="white" stroke="#666666" points="420,-113.79 312,-113.79 312,-94.79 420,-94.79 420,-113.79"/>
<text text-anchor="middle" x="366" y="-101.79" font-family="Helvetica,sans-Serif" font-size="10.00">ie_pack_fp8_e5m2</text>
</a>
</g>
</g>
<!-- Node3&#45;&gt;Node8 -->
<g id="edge10_Node000003_Node000008" class="edge">
<title>Node3&#45;&gt;Node8</title>
<g id="a_edge10_Node000003_Node000008"><a xlink:title=" ">
<path fill="none" stroke="#63b8ff" d="M256.59,-132.7C275.47,-127.75 298.69,-121.67 318.79,-116.4"/>
<polygon fill="#63b8ff" stroke="#63b8ff" points="319.89,-119.73 328.67,-113.81 318.11,-112.96 319.89,-119.73"/>
</a>
</g>
</g>
<!-- Node4&#45;&gt;Node2 -->
<g id="edge5_Node000004_Node000002" class="edge">
<title>Node4&#45;&gt;Node2</title>
<g id="a_edge5_Node000004_Node000002"><a xlink:title=" ">
<path fill="none" stroke="#63b8ff" d="M377.79,-57.59C393.6,-44.11 424.6,-20.34 456,-11.29 492.73,-0.69 508.41,6.94 542,-11.29 591.2,-37.98 619.44,-101.43 631.86,-136.65"/>
<polygon fill="#63b8ff" stroke="#63b8ff" points="628.57,-137.84 635.08,-146.19 635.2,-135.6 628.57,-137.84"/>
</a>
</g>
</g>
<!-- Node5 -->
<g id="Node000005" class="node">
<title>Node5</title>
<g id="a_Node000005"><a xlink:href="act__fp8_8c.html#a08593e027322e5927a6665304aba8805" target="_top" xlink:title=" ">
<polygon fill="white" stroke="#666666" points="539,-39.79 459,-39.79 459,-20.79 539,-20.79 539,-39.79"/>
<text text-anchor="middle" x="499" y="-27.79" font-family="Helvetica,sans-Serif" font-size="10.00">ie_is_inf_u32</text>
</a>
</g>
</g>
<!-- Node4&#45;&gt;Node5 -->
<g id="edge6_Node000004_Node000005" class="edge">
<title>Node4&#45;&gt;Node5</title>
<g id="a_edge6_Node000004_Node000005"><a xlink:title=" ">
<path fill="none" stroke="#63b8ff" d="M400.74,-57.76C416.96,-53.18 436.61,-47.62 453.99,-42.72"/>
<polygon fill="#63b8ff" stroke="#63b8ff" points="455.25,-46 463.92,-39.91 453.35,-39.26 455.25,-46"/>
</a>
</g>
</g>
<!-- Node6 -->
<g id="Node000006" class="node">
<title>Node6</title>
<g id="a_Node000006"><a xlink:href="act__fp8_8c.html#a95270af9941bb86c1a4f2144cbeed878" target="_top" xlink:title=" ">
<polygon fill="white" stroke="#666666" points="542,-113.79 456,-113.79 456,-94.79 542,-94.79 542,-113.79"/>
<text text-anchor="middle" x="499" y="-101.79" font-family="Helvetica,sans-Serif" font-size="10.00">ie_is_nan_u32</text>
</a>
</g>
</g>
<!-- Node4&#45;&gt;Node6 -->
<g id="edge7_Node000004_Node000006" class="edge">
<title>Node4&#45;&gt;Node6</title>
<g id="a_edge7_Node000004_Node000006"><a xlink:title=" ">
<path fill="none" stroke="#63b8ff" d="M400.74,-76.81C416.96,-81.4 436.61,-86.95 453.99,-91.86"/>
<polygon fill="#63b8ff" stroke="#63b8ff" points="453.35,-95.31 463.92,-94.66 455.25,-88.58 453.35,-95.31"/>
</a>
</g>
</g>
<!-- Node7 -->
<g id="Node000007" class="node">
<title>Node7</title>
<g id="a_Node000007"><a xlink:href="act__fp8_8c.html#a75acd58ddf5bde128ebf893b5186eda3" target="_top" xlink:title=" ">
<polygon fill="white" stroke="#666666" points="542,-76.79 456,-76.79 456,-57.79 542,-57.79 542,-76.79"/>
<text text-anchor="middle" x="499" y="-64.79" font-family="Helvetica,sans-Serif" font-size="10.00">ie_u32_from_f</text>
</a>
</g>
</g>
<!-- Node4&#45;&gt;Node7 -->
<g id="edge8_Node000004_Node000007" class="edge">
<title>Node4&#45;&gt;Node7</title>
<g id="a_edge8_Node000004_Node000007"><a xlink:title=" ">
<path fill="none" stroke="#63b8ff" d="M420.28,-67.29C428.55,-67.29 437.09,-67.29 445.34,-67.29"/>
<polygon fill="#63b8ff" stroke="#63b8ff" points="445.6,-70.79 455.6,-67.29 445.6,-63.79 445.6,-70.79"/>
</a>
</g>
</g>
<!-- Node7&#45;&gt;Node2 -->
<g id="edge9_Node000007_Node000002" class="edge">
<title>Node7&#45;&gt;Node2</title>
<g id="a_edge9_Node000007_Node000002"><a xlink:title=" ">
<path fill="none" stroke="#63b8ff" d="M525.39,-76.92C531,-79.39 536.81,-82.22 542,-85.29 568.68,-101.04 596.28,-123.2 615.27,-139.53"/>
<polygon fill="#63b8ff" stroke="#63b8ff" points="613.02,-142.2 622.86,-146.13 617.61,-136.92 613.02,-142.2"/>
</a>
</g>
</g>
<!-- Node8&#45;&gt;Node2 -->
<g id="edge11_Node000008_Node000002" class="edge">
<title>Node8&#45;&gt;Node2</title>
<g id="a_edge11_Node000008_Node000002"><a xlink:title=" ">
<path fill="none" stroke="#63b8ff" d="M412.61,-113.83C454.99,-122.69 518.79,-136.04 567.95,-146.32"/>
<polygon fill="#63b8ff" stroke="#63b8ff" points="567.39,-149.78 577.89,-148.4 568.82,-142.93 567.39,-149.78"/>
</a>
</g>
</g>
<!-- Node8&#45;&gt;Node5 -->
<g id="edge12_Node000008_Node000005" class="edge">
<title>Node8&#45;&gt;Node5</title>
<g id="a_edge12_Node000008_Node000005"><a xlink:title=" ">
<path fill="none" stroke="#63b8ff" d="M400.89,-94.74C407.49,-92.17 414.16,-89.04 420,-85.29 439.3,-72.87 437.09,-61.28 456,-48.29 457.91,-46.97 459.94,-45.72 462.02,-44.54"/>
<polygon fill="#63b8ff" stroke="#63b8ff" points="464.05,-47.44 471.39,-39.8 460.89,-41.19 464.05,-47.44"/>
</a>
</g>
</g>
<!-- Node8&#45;&gt;Node6 -->
<g id="edge13_Node000008_Node000006" class="edge">
<title>Node8&#45;&gt;Node6</title>
<g id="a_edge13_Node000008_Node000006"><a xlink:title=" ">
<path fill="none" stroke="#63b8ff" d="M420.28,-104.29C428.55,-104.29 437.09,-104.29 445.34,-104.29"/>
<polygon fill="#63b8ff" stroke="#63b8ff" points="445.6,-107.79 455.6,-104.29 445.6,-100.79 445.6,-107.79"/>
</a>
</g>
</g>
<!-- Node8&#45;&gt;Node7 -->
<g id="edge14_Node000008_Node000007" class="edge">
<title>Node8&#45;&gt;Node7</title>
<g id="a_edge14_Node000008_Node000007"><a xlink:title=" ">
<path fill="none" stroke="#63b8ff" d="M400.74,-94.76C416.96,-90.18 436.61,-84.62 453.99,-79.72"/>
<polygon fill="#63b8ff" stroke="#63b8ff" points="455.25,-83 463.92,-76.91 453.35,-76.26 455.25,-83"/>
</a>
</g>
</g>
<!-- Node9&#45;&gt;Node2 -->
<g id="edge16_Node000009_Node000002" class="edge">
<title>Node9&#45;&gt;Node2</title>
<g id="a_edge16_Node000009_Node000002"><a xlink:title=" ">
<path fill="none" stroke="#63b8ff" d="M263.31,-212.4C335.3,-202.62 480.29,-182.92 567.74,-171.04"/>
<polygon fill="#63b8ff" stroke="#63b8ff" points="568.42,-174.48 577.85,-169.66 567.47,-167.54 568.42,-174.48"/>
</a>
</g>
</g>
</g>
</svg>

<g id="navigator" transform="translate(0 0)" fill="#404254">
  <rect fill="#f2f5e9" fill-opacity="0.5" stroke="#606060" stroke-width=".5" x="0" y="0" width="60" height="60"/>
  <use id="zoomplus" xlink:href="#zoomPlus" x="17" y="9" onmousedown="handleZoom(evt,'in')"/>
  <use id="zoomminus" xlink:href="#zoomMin" x="42" y="9" onmousedown="handleZoom(evt,'out')"/>
  <use id="reset" xlink:href="#resetDef" x="30" y="36" onmousedown="handleReset()"/>
   <use id="arrowup" xlink:href="#arrowUp" x="0" y="0" onmousedown="handlePan(0,-1)"/>
  <use id="arrowright" xlink:href="#arrowRight" x="0" y="0" onmousedown="handlePan(1,0)"/>
  <use id="arrowdown" xlink:href="#arrowDown" x="0" y="0" onmousedown="handlePan(0,1)"/>
  <use id="arrowleft" xlink:href="#arrowLeft" x="0" y="0" onmousedown="handlePan(-1,0)"/>
</g>
<svg viewBox="0 0 15 15" width="100%" height="30px" preserveAspectRatio="xMaxYMin meet">
 <g id="arrow_out" transform="scale(0.3 0.3)">
  <a xlink:href="kv__cache_8c_ac56756d0ff12628cbbba305e3c8af8a9_cgraph_org.svg" target="_base">
   <rect id="button" ry="5" rx="5" y="6" x="6" height="38" width="38"
        fill="#f2f5e9" fill-opacity="0.5" stroke="#606060" stroke-width="1.0"/>
   <path id="arrow"
     d="M 11.500037,31.436501 C 11.940474,20.09759 22.043105,11.32322 32.158766,21.979434 L 37.068811,17.246167 C 37.068811,17.246167 37.088388,32 37.088388,32 L 22.160133,31.978069 C 22.160133,31.978069 26.997745,27.140456 26.997745,27.140456 C 18.528582,18.264221 13.291696,25.230495 11.500037,31.436501 z"
     style="fill:#404040;"/>
  </a>
 </g>
</svg>

<style type='text/css'>
<![CDATA[
[data-mouse-over-selected='false'] { opacity: 0.7; }
[data-mouse-over-selected='true']  { opacity: 1.0; }
]]>
</style>
<script type="application/ecmascript"><![CDATA[
document.addEventListener('DOMContentLoaded', (event) => {
  highlightEdges();
  highlightAdjacentNodes();
});
]]></script>
</svg>
