<?xml version="1.0" encoding="UTF-8" standalone="no"?>
<!DOCTYPE svg PUBLIC "-//W3C//DTD SVG 1.1//EN"
 "http://www.w3.org/Graphics/SVG/1.1/DTD/svg11.dtd">
<!-- Generated by graphviz version 2.43.0 (0)
 -->
<!-- Title: ie_kv_store_token_int8_per_group Pages: 1 -->
<!--zoomable 252 -->
<svg id="main" version="1.1" xmlns="http://www.w3.org/2000/svg" xmlns:xlink="http://www.w3.org/1999/xlink" xml:space="preserve" onload="init(evt)">
<style type="text/css"><![CDATA[
.edge:hover path { stroke: red; }
.edge:hover polygon { stroke: red; fill: red; }
]]></style>
<script type="text/javascript"><![CDATA[
var edges = document.getElementsByTagName('g');
if (edges && edges.length) {
  for (var i=0;i<edges.length;i++) {
    if (edges[i].id.substr(0,4)=='edge') {
      edges[i].setAttribute('class','edge');
    }
  }
}
]]></script>
        <defs>
                <circle id="rim" cx="0" cy="0" r="7"/>
                <circle id="rim2" cx="0" cy="0" r="3.5"/>
                <g id="zoomPlus">
                        <use xlink:href="#rim" fill="#404040">
                                <set attributeName="fill" to="#808080" begin="zoomplus.mouseover" end="zoomplus.mouseout"/>
                        </use>
                        <path d="M-4,0h8M0,-4v8" fill="none" stroke="white" stroke-width="1.5" pointer-events="none"/>
                </g>
                <g id="zoomMin">
                        <use xlink:href="#rim" fill="#404040">
                                <set attributeName="fill" to="#808080" begin="zoomminus.mouseover" end="zoomminus.mouseout"/>
                        </use>
                        <path d="M-4,0h8" fill="none" stroke="white" stroke-width="1.5" pointer-events="none"/>
                </g>
                <g id="dirArrow">
                        <path fill="none" stroke="white" stroke-width="1.5" d="M0,-3.0v7 M-2.5,-0.5L0,-3.0L2.5,-0.5"/>
                </g>
               <g id="resetDef">
                       <use xlink:href="#rim2" fill="#404040">
                               <set attributeName="fill" to="#808080" begin="reset.mouseover" end="reset.mouseout"/>
                       </use>
               </g>
        </defs>

<script type="text/javascript">
var viewWidth = 567;
var viewHeight = 252;
var sectionId = 'dynsection-8';
</script>
<script xlink:href="svgpan.js"/>
<svg id="graph" class="graph">
<g id="viewport">
<title>ie_kv_store_token_int8_per_group</title>
<!-- Node1 -->
<g id="node1" class="node">
<title>Node1</title>
<g id="a_node1"><a xlink:title="Store one token’s K/V using INT8 per&#45;group parameters along head_dim.">
<polygon fill="#bfbfbf" stroke="black" points="0,-55 0,-85 129,-85 129,-55 0,-55"/>
<text text-anchor="start" x="8" y="-73" font-family="Helvetica,sans-Serif" font-size="10.00">ie_kv_store_token_int8</text>
<text text-anchor="middle" x="64.5" y="-62" font-family="Helvetica,sans-Serif" font-size="10.00">_per_group</text>
</a>
</g>
</g>
<!-- Node2 -->
<g id="node2" class="node">
<title>Node2</title>
<g id="a_node2"><a xlink:href="ie__quant__act_8h.html#ad17e6b199c1c826b681db341c72701ef" target="_top" xlink:title="Compute per&#45;group INT8 parameters from data.">
<polygon fill="none" stroke="black" points="165,-156 165,-186 300,-186 300,-156 165,-156"/>
<text text-anchor="start" x="173" y="-174" font-family="Helvetica,sans-Serif" font-size="10.00">ie_act_i8_group_params</text>
<text text-anchor="middle" x="232.5" y="-163" font-family="Helvetica,sans-Serif" font-size="10.00">_from_data</text>
</a>
</g>
</g>
<!-- Node1&#45;&gt;Node2 -->
<g id="edge1" class="edge">
<title>Node1&#45;&gt;Node2</title>
<path fill="none" stroke="midnightblue" d="M90.35,-85.12C119.04,-102.58 166.35,-131.36 198.2,-150.74"/>
<polygon fill="midnightblue" stroke="midnightblue" points="196.39,-153.73 206.75,-155.94 200.03,-147.75 196.39,-153.73"/>
</g>
<!-- Node8 -->
<g id="node8" class="node">
<title>Node8</title>
<g id="a_node8"><a xlink:href="ie__quant__act_8h.html#a8e3abfa039c2b7c2fca327f68a2d7b09" target="_top" xlink:title="Quantize fp32 activations to INT8 using per&#45;group parameters.">
<polygon fill="none" stroke="black" points="174,-77 174,-107 291,-107 291,-77 174,-77"/>
<text text-anchor="start" x="182" y="-95" font-family="Helvetica,sans-Serif" font-size="10.00">ie_quantize_act_int8</text>
<text text-anchor="middle" x="232.5" y="-84" font-family="Helvetica,sans-Serif" font-size="10.00">_per_group</text>
</a>
</g>
</g>
<!-- Node1&#45;&gt;Node8 -->
<g id="edge8" class="edge">
<title>Node1&#45;&gt;Node8</title>
<path fill="none" stroke="midnightblue" d="M129.21,-78.44C140.59,-79.95 152.49,-81.53 163.98,-83.05"/>
<polygon fill="midnightblue" stroke="midnightblue" points="163.57,-86.53 173.94,-84.37 164.49,-79.59 163.57,-86.53"/>
</g>
<!-- Node11 -->
<g id="node11" class="node">
<title>Node11</title>
<g id="a_node11"><a xlink:href="kv__cache_8c.html#a51dbee8312b98b2d1e701dff311671ca" target="_top" xlink:title="Compute param index for (t,h,g) triplet.">
<polygon fill="none" stroke="black" points="192.5,-38.5 192.5,-57.5 272.5,-57.5 272.5,-38.5 192.5,-38.5"/>
<text text-anchor="middle" x="232.5" y="-45.5" font-family="Helvetica,sans-Serif" font-size="10.00">param_index</text>
</a>
</g>
</g>
<!-- Node1&#45;&gt;Node11 -->
<g id="edge12" class="edge">
<title>Node1&#45;&gt;Node11</title>
<path fill="none" stroke="midnightblue" d="M129.21,-61.56C146.77,-59.23 165.56,-56.74 182.18,-54.54"/>
<polygon fill="midnightblue" stroke="midnightblue" points="182.76,-57.99 192.21,-53.21 181.84,-51.05 182.76,-57.99"/>
</g>
<!-- Node12 -->
<g id="node12" class="node">
<title>Node12</title>
<g id="a_node12"><a xlink:href="kv__cache_8c.html#acaff19ff67c66594ad4c72d3a9cc35d6" target="_top" xlink:title="Compute payload index for (t,h,d) triplet.">
<polygon fill="none" stroke="black" points="188.5,-0.5 188.5,-19.5 276.5,-19.5 276.5,-0.5 188.5,-0.5"/>
<text text-anchor="middle" x="232.5" y="-7.5" font-family="Helvetica,sans-Serif" font-size="10.00">payload_index</text>
</a>
</g>
</g>
<!-- Node1&#45;&gt;Node12 -->
<g id="edge13" class="edge">
<title>Node1&#45;&gt;Node12</title>
<path fill="none" stroke="midnightblue" d="M99.21,-55C118.31,-46.78 142.76,-36.73 165,-29 171.55,-26.72 178.54,-24.5 185.42,-22.44"/>
<polygon fill="midnightblue" stroke="midnightblue" points="186.76,-25.69 195.38,-19.52 184.79,-18.97 186.76,-25.69"/>
</g>
<!-- Node3 -->
<g id="node3" class="node">
<title>Node3</title>
<g id="a_node3"><a xlink:href="act__int8_8c.html#a383703e828dd5701507b0d1f6ab1cf73" target="_top" xlink:title="Compute per&#45;tensor INT8 parameters from observed min/max.">
<polygon fill="none" stroke="black" points="336,-178 336,-208 467,-208 467,-178 336,-178"/>
<text text-anchor="start" x="344" y="-196" font-family="Helvetica,sans-Serif" font-size="10.00">ie_act_i8_params_from</text>
<text text-anchor="middle" x="401.5" y="-185" font-family="Helvetica,sans-Serif" font-size="10.00">_minmax</text>
</a>
</g>
</g>
<!-- Node2&#45;&gt;Node3 -->
<g id="edge2" class="edge">
<title>Node2&#45;&gt;Node3</title>
<path fill="none" stroke="midnightblue" d="M300.46,-179.82C308.88,-180.93 317.52,-182.07 326.04,-183.19"/>
<polygon fill="midnightblue" stroke="midnightblue" points="325.59,-186.66 335.97,-184.5 326.51,-179.72 325.59,-186.66"/>
</g>
<!-- Node5 -->
<g id="node5" class="node">
<title>Node5</title>
<g id="a_node5"><a xlink:href="act__int8_8c.html#ad80154c444341a2ed6f1be5eb0bdb5de" target="_top" xlink:title=" ">
<polygon fill="none" stroke="black" points="503,-224.5 503,-243.5 559,-243.5 559,-224.5 503,-224.5"/>
<text text-anchor="middle" x="531" y="-231.5" font-family="Helvetica,sans-Serif" font-size="10.00">ie_maxf</text>
</a>
</g>
</g>
<!-- Node2&#45;&gt;Node5 -->
<g id="edge6" class="edge">
<title>Node2&#45;&gt;Node5</title>
<path fill="none" stroke="midnightblue" d="M259.53,-186.02C279.71,-196.88 308.73,-210.86 336,-218 389.16,-231.92 453.05,-234.61 492.6,-234.72"/>
<polygon fill="midnightblue" stroke="midnightblue" points="492.84,-238.22 502.83,-234.7 492.82,-231.22 492.84,-238.22"/>
</g>
<!-- Node7 -->
<g id="node7" class="node">
<title>Node7</title>
<g id="a_node7"><a xlink:href="act__int8_8c.html#ab1c0766c72ff5b328ace7f8354021ff8" target="_top" xlink:title=" ">
<polygon fill="none" stroke="black" points="375,-139.5 375,-158.5 428,-158.5 428,-139.5 375,-139.5"/>
<text text-anchor="middle" x="401.5" y="-146.5" font-family="Helvetica,sans-Serif" font-size="10.00">ie_minf</text>
</a>
</g>
</g>
<!-- Node2&#45;&gt;Node7 -->
<g id="edge7" class="edge">
<title>Node2&#45;&gt;Node7</title>
<path fill="none" stroke="midnightblue" d="M300.46,-162.18C322.41,-159.29 345.95,-156.19 364.67,-153.72"/>
<polygon fill="midnightblue" stroke="midnightblue" points="365.36,-157.16 374.82,-152.38 364.45,-150.22 365.36,-157.16"/>
</g>
<!-- Node4 -->
<g id="node4" class="node">
<title>Node4</title>
<g id="a_node4"><a xlink:href="act__int8_8c.html#a06921ebd025375319bac8a4b43888241" target="_top" xlink:title=" ">
<polygon fill="none" stroke="black" points="503,-183.5 503,-202.5 559,-202.5 559,-183.5 503,-183.5"/>
<text text-anchor="middle" x="531" y="-190.5" font-family="Helvetica,sans-Serif" font-size="10.00">ie_fabsf</text>
</a>
</g>
</g>
<!-- Node3&#45;&gt;Node4 -->
<g id="edge3" class="edge">
<title>Node3&#45;&gt;Node4</title>
<path fill="none" stroke="midnightblue" d="M467.37,-193C476.1,-193 484.79,-193 492.81,-193"/>
<polygon fill="midnightblue" stroke="midnightblue" points="492.9,-196.5 502.9,-193 492.9,-189.5 492.9,-196.5"/>
</g>
<!-- Node3&#45;&gt;Node5 -->
<g id="edge4" class="edge">
<title>Node3&#45;&gt;Node5</title>
<path fill="none" stroke="midnightblue" d="M449.25,-208.03C463.78,-212.71 479.58,-217.78 493.31,-222.2"/>
<polygon fill="midnightblue" stroke="midnightblue" points="492.31,-225.56 502.9,-225.29 494.46,-218.89 492.31,-225.56"/>
</g>
<!-- Node6 -->
<g id="node6" class="node">
<title>Node6</title>
<g id="a_node6"><a xlink:href="act__int8_8c.html#a7490ce5fac2e6e5e1b7812006550be41" target="_top" xlink:title=" ">
<polygon fill="none" stroke="black" points="507.5,-123.5 507.5,-142.5 554.5,-142.5 554.5,-123.5 507.5,-123.5"/>
<text text-anchor="middle" x="531" y="-130.5" font-family="Helvetica,sans-Serif" font-size="10.00">ie_rne</text>
</a>
</g>
</g>
<!-- Node3&#45;&gt;Node6 -->
<g id="edge5" class="edge">
<title>Node3&#45;&gt;Node6</title>
<path fill="none" stroke="midnightblue" d="M443.8,-177.96C451.59,-174.86 459.61,-171.47 467,-168 479.92,-161.94 493.84,-154.33 505.29,-147.76"/>
<polygon fill="midnightblue" stroke="midnightblue" points="507.38,-150.59 514.26,-142.54 503.86,-144.54 507.38,-150.59"/>
</g>
<!-- Node8&#45;&gt;Node6 -->
<g id="edge9" class="edge">
<title>Node8&#45;&gt;Node6</title>
<path fill="none" stroke="midnightblue" d="M291.02,-99.95C352.37,-108.44 447.39,-121.58 497.12,-128.45"/>
<polygon fill="midnightblue" stroke="midnightblue" points="496.91,-131.96 507.3,-129.86 497.87,-125.02 496.91,-131.96"/>
</g>
<!-- Node9 -->
<g id="node9" class="node">
<title>Node9</title>
<g id="a_node9"><a xlink:href="act__int8_8c.html#adbe29326b240b464a7a7a8773210fb8f" target="_top" xlink:title=" ">
<polygon fill="none" stroke="black" points="371.5,-63.5 371.5,-82.5 431.5,-82.5 431.5,-63.5 371.5,-63.5"/>
<text text-anchor="middle" x="401.5" y="-70.5" font-family="Helvetica,sans-Serif" font-size="10.00">ie_sat_i8</text>
</a>
</g>
</g>
<!-- Node8&#45;&gt;Node9 -->
<g id="edge10" class="edge">
<title>Node8&#45;&gt;Node9</title>
<path fill="none" stroke="midnightblue" d="M291.44,-85.41C314.49,-82.79 340.41,-79.84 361.2,-77.47"/>
<polygon fill="midnightblue" stroke="midnightblue" points="361.72,-80.93 371.26,-76.33 360.93,-73.98 361.72,-80.93"/>
</g>
<!-- Node10 -->
<g id="node10" class="node">
<title>Node10</title>
<g id="a_node10"><a xlink:href="act__int8_8c.html#a312c061258a9180793b777e396301655" target="_top" xlink:title=" ">
<polygon fill="none" stroke="black" points="358.5,-25.5 358.5,-44.5 444.5,-44.5 444.5,-25.5 358.5,-25.5"/>
<text text-anchor="middle" x="401.5" y="-32.5" font-family="Helvetica,sans-Serif" font-size="10.00">ie_sat_sym_i8</text>
</a>
</g>
</g>
<!-- Node8&#45;&gt;Node10 -->
<g id="edge11" class="edge">
<title>Node8&#45;&gt;Node10</title>
<path fill="none" stroke="midnightblue" d="M273.68,-76.95C299.63,-67.26 329.7,-56.09 336,-54 342.62,-51.8 349.67,-49.59 356.59,-47.5"/>
<polygon fill="midnightblue" stroke="midnightblue" points="357.97,-50.74 366.55,-44.53 355.97,-44.03 357.97,-50.74"/>
</g>
</g>
</svg>
        <g id="navigator" transform="translate(0 0)" fill="#404254">
                <rect fill="#f2f5e9" fill-opacity="0.5" stroke="#606060" stroke-width=".5" x="0" y="0" width="60" height="60"/>
                <use id="zoomplus" xlink:href="#zoomPlus" x="17" y="9" onmousedown="handleZoom(evt,'in')"/>
                <use id="zoomminus" xlink:href="#zoomMin" x="42" y="9" onmousedown="handleZoom(evt,'out')"/>
                <use id="reset" xlink:href="#resetDef" x="30" y="36" onmousedown="handleReset()"/>
                <g id="arrowUp" xlink:href="#dirArrow" transform="translate(30 24)" onmousedown="handlePan(0,-1)">
                  <use xlink:href="#rim" fill="#404040">
                        <set attributeName="fill" to="#808080" begin="arrowUp.mouseover" end="arrowUp.mouseout"/>
                  </use>
                  <path fill="none" stroke="white" stroke-width="1.5" d="M0,-3.0v7 M-2.5,-0.5L0,-3.0L2.5,-0.5"/>
                </g>
                <g id="arrowRight" xlink:href="#dirArrow" transform="rotate(90) translate(36 -43)" onmousedown="handlePan(1,0)">
                  <use xlink:href="#rim" fill="#404040">
                        <set attributeName="fill" to="#808080" begin="arrowRight.mouseover" end="arrowRight.mouseout"/>
                  </use>
                  <path fill="none" stroke="white" stroke-width="1.5" d="M0,-3.0v7 M-2.5,-0.5L0,-3.0L2.5,-0.5"/>
                </g>
                <g id="arrowDown" xlink:href="#dirArrow" transform="rotate(180) translate(-30 -48)" onmousedown="handlePan(0,1)">
                  <use xlink:href="#rim" fill="#404040">
                        <set attributeName="fill" to="#808080" begin="arrowDown.mouseover" end="arrowDown.mouseout"/>
                  </use>
                  <path fill="none" stroke="white" stroke-width="1.5" d="M0,-3.0v7 M-2.5,-0.5L0,-3.0L2.5,-0.5"/>
                </g>
                <g id="arrowLeft" xlink:href="#dirArrow" transform="rotate(270) translate(-36 17)" onmousedown="handlePan(-1,0)">
                  <use xlink:href="#rim" fill="#404040">
                        <set attributeName="fill" to="#808080" begin="arrowLeft.mouseover" end="arrowLeft.mouseout"/>
                  </use>
                  <path fill="none" stroke="white" stroke-width="1.5" d="M0,-3.0v7 M-2.5,-0.5L0,-3.0L2.5,-0.5"/>
                </g>
        </g>
        <svg viewBox="0 0 15 15" width="100%" height="30px" preserveAspectRatio="xMaxYMin meet">
         <g id="arrow_out" transform="scale(0.3 0.3)">
          <a xlink:href="kv__cache_8c_a5b546a5423f4572607a07d8d55146024_cgraph_org.svg" target="_base">
           <rect id="button" ry="5" rx="5" y="6" x="6" height="38" width="38"
                fill="#f2f5e9" fill-opacity="0.5" stroke="#606060" stroke-width="1.0"/>
           <path id="arrow"
             d="M 11.500037,31.436501 C 11.940474,20.09759 22.043105,11.32322 32.158766,21.979434 L 37.068811,17.246167 C 37.068811,17.246167 37.088388,32 37.088388,32 L 22.160133,31.978069 C 22.160133,31.978069 26.997745,27.140456 26.997745,27.140456 C 18.528582,18.264221 13.291696,25.230495 11.500037,31.436501 z"
             style="fill:#404040;"/>
          </a>
         </g>
        </svg>
</svg>
