<?xml version="1.0" encoding="UTF-8" standalone="no"?>
<!DOCTYPE svg PUBLIC "-//W3C//DTD SVG 1.1//EN"
 "http://www.w3.org/Graphics/SVG/1.1/DTD/svg11.dtd">
<!-- Generated by graphviz version 12.2.1 (20241206.2353)
 -->
<!-- Title: engine/src/io/loader_mmap.c Pages: 1 -->
<svg width="452pt" height="155pt"
 viewBox="0.00 0.00 452.00 155.00" xmlns="http://www.w3.org/2000/svg" xmlns:xlink="http://www.w3.org/1999/xlink">
<g id="graph0" class="graph" transform="scale(1 1) rotate(0) translate(4 151)">
<title>engine/src/io/loader_mmap.c</title>
<!-- Node1 -->
<g id="Node000001" class="node">
<title>Node1</title>
<g id="a_Node000001"><a xlink:title="Portable file loader with an mmap&#45;first strategy and safe fallbacks.">
<polygon fill="#999999" stroke="#666666" points="221.25,-147 109.25,-147 109.25,-113.5 221.25,-113.5 221.25,-147"/>
<text text-anchor="start" x="117.25" y="-133.5" font-family="Helvetica,sans-Serif" font-size="10.00">engine/src/io/loader</text>
<text text-anchor="middle" x="165.25" y="-120.75" font-family="Helvetica,sans-Serif" font-size="10.00">_mmap.c</text>
</a>
</g>
</g>
<!-- Node2 -->
<g id="Node000002" class="node">
<title>Node2</title>
<g id="a_Node000002"><a xlink:title=" ">
<polygon fill="#e0e0e0" stroke="#999999" points="50.5,-77.5 0,-77.5 0,-56.75 50.5,-56.75 50.5,-77.5"/>
<text text-anchor="middle" x="25.25" y="-64" font-family="Helvetica,sans-Serif" font-size="10.00">errno.h</text>
</a>
</g>
</g>
<!-- Node1&#45;&gt;Node2 -->
<g id="edge1_Node000001_Node000002" class="edge">
<title>Node1&#45;&gt;Node2</title>
<g id="a_edge1_Node000001_Node000002"><a xlink:title=" ">
<path fill="none" stroke="#63b8ff" d="M128.1,-113.03C106.3,-103.51 79.01,-91.6 58.01,-82.43"/>
<polygon fill="#63b8ff" stroke="#63b8ff" points="59.63,-79.31 49.06,-78.52 56.82,-85.73 59.63,-79.31"/>
</a>
</g>
</g>
<!-- Node3 -->
<g id="Node000003" class="node">
<title>Node3</title>
<g id="a_Node000003"><a xlink:title=" ">
<polygon fill="#e0e0e0" stroke="#999999" points="213.62,-20.75 160.88,-20.75 160.88,0 213.62,0 213.62,-20.75"/>
<text text-anchor="middle" x="187.25" y="-7.25" font-family="Helvetica,sans-Serif" font-size="10.00">stdint.h</text>
</a>
</g>
</g>
<!-- Node1&#45;&gt;Node3 -->
<g id="edge2_Node000001_Node000003" class="edge">
<title>Node1&#45;&gt;Node3</title>
<g id="a_edge2_Node000001_Node000003"><a xlink:title=" ">
<path fill="none" stroke="#63b8ff" d="M132,-113.04C108.68,-99.33 83.86,-78.5 97.25,-56.75 108.68,-38.19 130.29,-26.95 149.47,-20.3"/>
<polygon fill="#63b8ff" stroke="#63b8ff" points="150.44,-23.66 158.94,-17.34 148.36,-16.98 150.44,-23.66"/>
</a>
</g>
</g>
<!-- Node4 -->
<g id="Node000004" class="node">
<title>Node4</title>
<g id="a_Node000004"><a xlink:title=" ">
<polygon fill="#e0e0e0" stroke="#999999" points="155.75,-77.5 106.75,-77.5 106.75,-56.75 155.75,-56.75 155.75,-77.5"/>
<text text-anchor="middle" x="131.25" y="-64" font-family="Helvetica,sans-Serif" font-size="10.00">stdio.h</text>
</a>
</g>
</g>
<!-- Node1&#45;&gt;Node4 -->
<g id="edge3_Node000001_Node000004" class="edge">
<title>Node1&#45;&gt;Node4</title>
<g id="a_edge3_Node000001_Node000004"><a xlink:title=" ">
<path fill="none" stroke="#63b8ff" d="M156.32,-113.19C151.99,-105.42 146.76,-96.02 142.2,-87.82"/>
<polygon fill="#63b8ff" stroke="#63b8ff" points="145.38,-86.33 137.46,-79.29 139.26,-89.73 145.38,-86.33"/>
</a>
</g>
</g>
<!-- Node5 -->
<g id="Node000005" class="node">
<title>Node5</title>
<g id="a_Node000005"><a xlink:title=" ">
<polygon fill="#e0e0e0" stroke="#999999" points="226.25,-77.5 174.25,-77.5 174.25,-56.75 226.25,-56.75 226.25,-77.5"/>
<text text-anchor="middle" x="200.25" y="-64" font-family="Helvetica,sans-Serif" font-size="10.00">stdlib.h</text>
</a>
</g>
</g>
<!-- Node1&#45;&gt;Node5 -->
<g id="edge4_Node000001_Node000005" class="edge">
<title>Node1&#45;&gt;Node5</title>
<g id="a_edge4_Node000001_Node000005"><a xlink:title=" ">
<path fill="none" stroke="#63b8ff" d="M174.45,-113.19C178.9,-105.42 184.28,-96.02 188.97,-87.82"/>
<polygon fill="#63b8ff" stroke="#63b8ff" points="191.93,-89.7 193.86,-79.28 185.86,-86.22 191.93,-89.7"/>
</a>
</g>
</g>
<!-- Node6 -->
<g id="Node000006" class="node">
<title>Node6</title>
<g id="a_Node000006"><a xlink:title=" ">
<polygon fill="#e0e0e0" stroke="#999999" points="296.62,-77.5 243.88,-77.5 243.88,-56.75 296.62,-56.75 296.62,-77.5"/>
<text text-anchor="middle" x="270.25" y="-64" font-family="Helvetica,sans-Serif" font-size="10.00">string.h</text>
</a>
</g>
</g>
<!-- Node1&#45;&gt;Node6 -->
<g id="edge5_Node000001_Node000006" class="edge">
<title>Node1&#45;&gt;Node6</title>
<g id="a_edge5_Node000001_Node000006"><a xlink:title=" ">
<path fill="none" stroke="#63b8ff" d="M193.11,-113.03C208.86,-103.86 228.44,-92.47 243.93,-83.45"/>
<polygon fill="#63b8ff" stroke="#63b8ff" points="245.24,-86.73 252.12,-78.68 241.72,-80.68 245.24,-86.73"/>
</a>
</g>
</g>
<!-- Node7 -->
<g id="Node000007" class="node">
<title>Node7</title>
<g id="a_Node000007"><a xlink:href="ie__mmap__tuning_8h.html" target="_top" xlink:title="Portable helpers for mmap tuning (madvise/fadvise, THP/HugeTLB, readahead).">
<polygon fill="white" stroke="#666666" points="421.62,-77.5 314.88,-77.5 314.88,-56.75 421.62,-56.75 421.62,-77.5"/>
<text text-anchor="middle" x="368.25" y="-64" font-family="Helvetica,sans-Serif" font-size="10.00">ie_mmap_tuning.h</text>
</a>
</g>
</g>
<!-- Node1&#45;&gt;Node7 -->
<g id="edge6_Node000001_Node000007" class="edge">
<title>Node1&#45;&gt;Node7</title>
<g id="a_edge6_Node000001_Node000007"><a xlink:title=" ">
<path fill="none" stroke="#63b8ff" d="M219.12,-113.03C252.18,-103.08 293.95,-90.5 324.87,-81.19"/>
<polygon fill="#63b8ff" stroke="#63b8ff" points="325.72,-84.59 334.29,-78.35 323.7,-77.88 325.72,-84.59"/>
</a>
</g>
</g>
<!-- Node7&#45;&gt;Node3 -->
<g id="edge8_Node000007_Node000003" class="edge">
<title>Node7&#45;&gt;Node3</title>
<g id="a_edge8_Node000007_Node000003"><a xlink:title=" ">
<path fill="none" stroke="#63b8ff" d="M335.89,-56.34C304.78,-46.93 257.78,-32.71 224.99,-22.79"/>
<polygon fill="#63b8ff" stroke="#63b8ff" points="226.06,-19.46 215.48,-19.91 224.03,-26.16 226.06,-19.46"/>
</a>
</g>
</g>
<!-- Node8 -->
<g id="Node000008" class="node">
<title>Node8</title>
<g id="a_Node000008"><a xlink:title=" ">
<polygon fill="#e0e0e0" stroke="#999999" points="354.75,-20.75 299.75,-20.75 299.75,0 354.75,0 354.75,-20.75"/>
<text text-anchor="middle" x="327.25" y="-7.25" font-family="Helvetica,sans-Serif" font-size="10.00">stddef.h</text>
</a>
</g>
</g>
<!-- Node7&#45;&gt;Node8 -->
<g id="edge7_Node000007_Node000008" class="edge">
<title>Node7&#45;&gt;Node8</title>
<g id="a_edge7_Node000007_Node000008"><a xlink:title=" ">
<path fill="none" stroke="#63b8ff" d="M360.92,-56.34C355.5,-49.1 347.94,-39.01 341.36,-30.22"/>
<polygon fill="#63b8ff" stroke="#63b8ff" points="344.22,-28.2 335.42,-22.29 338.62,-32.39 344.22,-28.2"/>
</a>
</g>
</g>
<!-- Node9 -->
<g id="Node000009" class="node">
<title>Node9</title>
<g id="a_Node000009"><a xlink:title=" ">
<polygon fill="#e0e0e0" stroke="#999999" points="444,-20.75 372.5,-20.75 372.5,0 444,0 444,-20.75"/>
<text text-anchor="middle" x="408.25" y="-7.25" font-family="Helvetica,sans-Serif" font-size="10.00">sys/types.h</text>
</a>
</g>
</g>
<!-- Node7&#45;&gt;Node9 -->
<g id="edge9_Node000007_Node000009" class="edge">
<title>Node7&#45;&gt;Node9</title>
<g id="a_edge9_Node000007_Node000009"><a xlink:title=" ">
<path fill="none" stroke="#63b8ff" d="M375.4,-56.34C380.69,-49.1 388.06,-39.01 394.48,-30.22"/>
<polygon fill="#63b8ff" stroke="#63b8ff" points="397.19,-32.44 400.27,-22.3 391.54,-28.31 397.19,-32.44"/>
</a>
</g>
</g>
</g>
</svg>
