<?xml version="1.0" encoding="UTF-8" standalone="no"?>
<!DOCTYPE svg PUBLIC "-//W3C//DTD SVG 1.1//EN"
 "http://www.w3.org/Graphics/SVG/1.1/DTD/svg11.dtd">
<!-- Generated by graphviz version 2.43.0 (0)
 -->
<!-- Title: engine/src/io/loader_mmap.c Pages: 1 -->
<svg width="457pt" height="148pt"
 viewBox="0.00 0.00 456.50 148.00" xmlns="http://www.w3.org/2000/svg" xmlns:xlink="http://www.w3.org/1999/xlink">
<g id="graph0" class="graph" transform="scale(1 1) rotate(0) translate(4 144)">
<title>engine/src/io/loader_mmap.c</title>
<!-- Node1 -->
<g id="Node000001" class="node">
<title>Node1</title>
<g id="a_Node000001"><a xlink:title="Portable file loader with an mmap&#45;first strategy and safe fallbacks.">
<polygon fill="#999999" stroke="#666666" points="224,-140 111,-140 111,-110 224,-110 224,-140"/>
<text text-anchor="start" x="119" y="-128" font-family="Helvetica,sans-Serif" font-size="10.00">engine/src/io/loader</text>
<text text-anchor="middle" x="167.5" y="-117" font-family="Helvetica,sans-Serif" font-size="10.00">_mmap.c</text>
</a>
</g>
</g>
<!-- Node2 -->
<g id="Node000002" class="node">
<title>Node2</title>
<g id="a_Node000002"><a xlink:title=" ">
<polygon fill="#e0e0e0" stroke="#999999" points="51,-74 0,-74 0,-55 51,-55 51,-74"/>
<text text-anchor="middle" x="25.5" y="-62" font-family="Helvetica,sans-Serif" font-size="10.00">errno.h</text>
</a>
</g>
</g>
<!-- Node1&#45;&gt;Node2 -->
<g id="edge1_Node000001_Node000002" class="edge">
<title>Node1&#45;&gt;Node2</title>
<g id="a_edge1_Node000001_Node000002"><a xlink:title=" ">
<path fill="none" stroke="#63b8ff" d="M133.49,-109.99C109.9,-100.27 78.76,-87.44 55.98,-78.06"/>
<polygon fill="#63b8ff" stroke="#63b8ff" points="57.05,-74.71 46.47,-74.14 54.38,-81.18 57.05,-74.71"/>
</a>
</g>
</g>
<!-- Node3 -->
<g id="Node000003" class="node">
<title>Node3</title>
<g id="a_Node000003"><a xlink:title=" ">
<polygon fill="#e0e0e0" stroke="#999999" points="216,-19 163,-19 163,0 216,0 216,-19"/>
<text text-anchor="middle" x="189.5" y="-7" font-family="Helvetica,sans-Serif" font-size="10.00">stdint.h</text>
</a>
</g>
</g>
<!-- Node1&#45;&gt;Node3 -->
<g id="edge2_Node000001_Node000003" class="edge">
<title>Node1&#45;&gt;Node3</title>
<g id="a_edge2_Node000001_Node000003"><a xlink:title=" ">
<path fill="none" stroke="#63b8ff" d="M135.84,-109.91C111.75,-97.07 84.87,-76.84 98.5,-55 110.45,-35.86 133.28,-24.72 153.09,-18.38"/>
<polygon fill="#63b8ff" stroke="#63b8ff" points="154.17,-21.71 162.8,-15.56 152.22,-14.99 154.17,-21.71"/>
</a>
</g>
</g>
<!-- Node4 -->
<g id="Node000004" class="node">
<title>Node4</title>
<g id="a_Node000004"><a xlink:title=" ">
<polygon fill="#e0e0e0" stroke="#999999" points="157.5,-74 107.5,-74 107.5,-55 157.5,-55 157.5,-74"/>
<text text-anchor="middle" x="132.5" y="-62" font-family="Helvetica,sans-Serif" font-size="10.00">stdio.h</text>
</a>
</g>
</g>
<!-- Node1&#45;&gt;Node4 -->
<g id="edge3_Node000001_Node000004" class="edge">
<title>Node1&#45;&gt;Node4</title>
<g id="a_edge3_Node000001_Node000004"><a xlink:title=" ">
<path fill="none" stroke="#63b8ff" d="M159.03,-109.84C154.21,-101.78 148.13,-91.62 143,-83.06"/>
<polygon fill="#63b8ff" stroke="#63b8ff" points="145.88,-81.05 137.74,-74.27 139.88,-84.64 145.88,-81.05"/>
</a>
</g>
</g>
<!-- Node5 -->
<g id="Node000005" class="node">
<title>Node5</title>
<g id="a_Node000005"><a xlink:title=" ">
<polygon fill="#e0e0e0" stroke="#999999" points="229,-74 176,-74 176,-55 229,-55 229,-74"/>
<text text-anchor="middle" x="202.5" y="-62" font-family="Helvetica,sans-Serif" font-size="10.00">stdlib.h</text>
</a>
</g>
</g>
<!-- Node1&#45;&gt;Node5 -->
<g id="edge4_Node000001_Node000005" class="edge">
<title>Node1&#45;&gt;Node5</title>
<g id="a_edge4_Node000001_Node000005"><a xlink:title=" ">
<path fill="none" stroke="#63b8ff" d="M175.97,-109.84C180.79,-101.78 186.87,-91.62 192,-83.06"/>
<polygon fill="#63b8ff" stroke="#63b8ff" points="195.12,-84.64 197.26,-74.27 189.12,-81.05 195.12,-84.64"/>
</a>
</g>
</g>
<!-- Node6 -->
<g id="Node000006" class="node">
<title>Node6</title>
<g id="a_Node000006"><a xlink:title=" ">
<polygon fill="#e0e0e0" stroke="#999999" points="300,-74 247,-74 247,-55 300,-55 300,-74"/>
<text text-anchor="middle" x="273.5" y="-62" font-family="Helvetica,sans-Serif" font-size="10.00">string.h</text>
</a>
</g>
</g>
<!-- Node1&#45;&gt;Node6 -->
<g id="edge5_Node000001_Node000006" class="edge">
<title>Node1&#45;&gt;Node6</title>
<g id="a_edge5_Node000001_Node000006"><a xlink:title=" ">
<path fill="none" stroke="#63b8ff" d="M192.89,-109.99C209.79,-100.66 231.88,-88.47 248.66,-79.21"/>
<polygon fill="#63b8ff" stroke="#63b8ff" points="250.78,-82.04 257.85,-74.14 247.4,-75.91 250.78,-82.04"/>
</a>
</g>
</g>
<!-- Node7 -->
<g id="Node000007" class="node">
<title>Node7</title>
<g id="a_Node000007"><a xlink:href="ie__mmap__tuning_8h.html" target="_top" xlink:title="Portable helpers for mmap tuning (madvise/fadvise, THP/HugeTLB, readahead).">
<polygon fill="white" stroke="#666666" points="425,-74 318,-74 318,-55 425,-55 425,-74"/>
<text text-anchor="middle" x="371.5" y="-62" font-family="Helvetica,sans-Serif" font-size="10.00">ie_mmap_tuning.h</text>
</a>
</g>
</g>
<!-- Node1&#45;&gt;Node7 -->
<g id="edge6_Node000001_Node000007" class="edge">
<title>Node1&#45;&gt;Node7</title>
<g id="a_edge6_Node000001_Node000007"><a xlink:title=" ">
<path fill="none" stroke="#63b8ff" d="M216.36,-109.99C251.72,-99.85 298.9,-86.32 331.91,-76.85"/>
<polygon fill="#63b8ff" stroke="#63b8ff" points="333.02,-80.17 341.67,-74.05 331.09,-73.45 333.02,-80.17"/>
</a>
</g>
</g>
<!-- Node7&#45;&gt;Node3 -->
<g id="edge8_Node000007_Node000003" class="edge">
<title>Node7&#45;&gt;Node3</title>
<g id="a_edge8_Node000007_Node000003"><a xlink:title=" ">
<path fill="none" stroke="#63b8ff" d="M342.26,-54.98C310.52,-45.74 259.82,-30.98 225.62,-21.02"/>
<polygon fill="#63b8ff" stroke="#63b8ff" points="226.59,-17.65 216.01,-18.22 224.63,-24.38 226.59,-17.65"/>
</a>
</g>
</g>
<!-- Node8 -->
<g id="Node000008" class="node">
<title>Node8</title>
<g id="a_Node000008"><a xlink:title=" ">
<polygon fill="#e0e0e0" stroke="#999999" points="358.5,-19 302.5,-19 302.5,0 358.5,0 358.5,-19"/>
<text text-anchor="middle" x="330.5" y="-7" font-family="Helvetica,sans-Serif" font-size="10.00">stddef.h</text>
</a>
</g>
</g>
<!-- Node7&#45;&gt;Node8 -->
<g id="edge7_Node000007_Node000008" class="edge">
<title>Node7&#45;&gt;Node8</title>
<g id="a_edge7_Node000007_Node000008"><a xlink:title=" ">
<path fill="none" stroke="#63b8ff" d="M364.73,-54.75C358.94,-47.26 350.44,-36.28 343.36,-27.13"/>
<polygon fill="#63b8ff" stroke="#63b8ff" points="346.03,-24.86 337.14,-19.09 340.49,-29.14 346.03,-24.86"/>
</a>
</g>
</g>
<!-- Node9 -->
<g id="Node000009" class="node">
<title>Node9</title>
<g id="a_Node000009"><a xlink:title=" ">
<polygon fill="#e0e0e0" stroke="#999999" points="448.5,-19 376.5,-19 376.5,0 448.5,0 448.5,-19"/>
<text text-anchor="middle" x="412.5" y="-7" font-family="Helvetica,sans-Serif" font-size="10.00">sys/types.h</text>
</a>
</g>
</g>
<!-- Node7&#45;&gt;Node9 -->
<g id="edge9_Node000007_Node000009" class="edge">
<title>Node7&#45;&gt;Node9</title>
<g id="a_edge9_Node000007_Node000009"><a xlink:title=" ">
<path fill="none" stroke="#63b8ff" d="M378.27,-54.75C384.06,-47.26 392.56,-36.28 399.64,-27.13"/>
<polygon fill="#63b8ff" stroke="#63b8ff" points="402.51,-29.14 405.86,-19.09 396.97,-24.86 402.51,-29.14"/>
</a>
</g>
</g>
</g>
</svg>
