<?xml version="1.0" encoding="UTF-8" standalone="no"?>
<!DOCTYPE svg PUBLIC "-//W3C//DTD SVG 1.1//EN"
 "http://www.w3.org/Graphics/SVG/1.1/DTD/svg11.dtd">
<!-- Generated by graphviz version 2.43.0 (0)
 -->
<!-- Title: ie_mmap_close Pages: 1 -->
<svg width="424pt" height="28pt"
 viewBox="0.00 0.00 424.00 28.00" xmlns="http://www.w3.org/2000/svg" xmlns:xlink="http://www.w3.org/1999/xlink">
<g id="graph0" class="graph" transform="scale(1 1) rotate(0) translate(4 24)">
<title>ie_mmap_close</title>
<!-- Node1 -->
<g id="node1" class="node">
<title>Node1</title>
<g id="a_node1"><a xlink:title="Unmap or free a region previously returned by ie_mmap_open.">
<polygon fill="#bfbfbf" stroke="black" points="323,-0.5 323,-19.5 416,-19.5 416,-0.5 323,-0.5"/>
<text text-anchor="middle" x="369.5" y="-7.5" font-family="Helvetica,sans-Serif" font-size="10.00">ie_mmap_close</text>
</a>
</g>
</g>
<!-- Node2 -->
<g id="node2" class="node">
<title>Node2</title>
<g id="a_node2"><a xlink:href="loader__mmap_8c.html#ae0425e5b96985d237a72670802706850" target="_top" xlink:title="Close a set of mappings created by ie_mmap_open_many.">
<polygon fill="none" stroke="black" points="161,-0.5 161,-19.5 287,-19.5 287,-0.5 161,-0.5"/>
<text text-anchor="middle" x="224" y="-7.5" font-family="Helvetica,sans-Serif" font-size="10.00">ie_mmap_close_many</text>
</a>
</g>
</g>
<!-- Node1&#45;&gt;Node2 -->
<g id="edge1" class="edge">
<title>Node1&#45;&gt;Node2</title>
<path fill="none" stroke="midnightblue" d="M312.67,-10C304.29,-10 295.61,-10 287.11,-10"/>
<polygon fill="midnightblue" stroke="midnightblue" points="312.7,-13.5 322.7,-10 312.7,-6.5 312.7,-13.5"/>
</g>
<!-- Node3 -->
<g id="node3" class="node">
<title>Node3</title>
<g id="a_node3"><a xlink:href="loader__mmap_8c.html#a2bde25f2740b83eea51afd55da478d36" target="_top" xlink:title="Map multiple files (read&#45;only) in one call.">
<polygon fill="none" stroke="black" points="0,-0.5 0,-19.5 125,-19.5 125,-0.5 0,-0.5"/>
<text text-anchor="middle" x="62.5" y="-7.5" font-family="Helvetica,sans-Serif" font-size="10.00">ie_mmap_open_many</text>
</a>
</g>
</g>
<!-- Node2&#45;&gt;Node3 -->
<g id="edge2" class="edge">
<title>Node2&#45;&gt;Node3</title>
<path fill="none" stroke="midnightblue" d="M150.6,-10C142.12,-10 133.52,-10 125.19,-10"/>
<polygon fill="midnightblue" stroke="midnightblue" points="150.88,-13.5 160.88,-10 150.88,-6.5 150.88,-13.5"/>
</g>
</g>
</svg>
