<?xml version="1.0" encoding="UTF-8" standalone="no"?>
<!DOCTYPE svg PUBLIC "-//W3C//DTD SVG 1.1//EN"
 "http://www.w3.org/Graphics/SVG/1.1/DTD/svg11.dtd">
<!-- Generated by graphviz version 2.43.0 (0)
 -->
<!-- Title: engine/src/io/loader_mmap.c Pages: 1 -->
<svg width="457pt" height="151pt"
 viewBox="0.00 0.00 456.50 151.00" xmlns="http://www.w3.org/2000/svg" xmlns:xlink="http://www.w3.org/1999/xlink">
<g id="graph0" class="graph" transform="scale(1 1) rotate(0) translate(4 147)">
<title>engine/src/io/loader_mmap.c</title>
<!-- Node1 -->
<g id="node1" class="node">
<title>Node1</title>
<g id="a_node1"><a xlink:title="Portable file loader with an mmap&#45;first strategy and safe fallbacks.">
<polygon fill="#bfbfbf" stroke="black" points="111,-112.5 111,-142.5 224,-142.5 224,-112.5 111,-112.5"/>
<text text-anchor="start" x="119" y="-130.5" font-family="Helvetica,sans-Serif" font-size="10.00">engine/src/io/loader</text>
<text text-anchor="middle" x="167.5" y="-119.5" font-family="Helvetica,sans-Serif" font-size="10.00">_mmap.c</text>
</a>
</g>
</g>
<!-- Node2 -->
<g id="node2" class="node">
<title>Node2</title>
<g id="a_node2"><a xlink:title=" ">
<polygon fill="none" stroke="#bfbfbf" points="0,-56.5 0,-75.5 51,-75.5 51,-56.5 0,-56.5"/>
<text text-anchor="middle" x="25.5" y="-63.5" font-family="Helvetica,sans-Serif" font-size="10.00">errno.h</text>
</a>
</g>
</g>
<!-- Node1&#45;&gt;Node2 -->
<g id="edge1" class="edge">
<title>Node1&#45;&gt;Node2</title>
<path fill="none" stroke="midnightblue" d="M133.85,-112.4C110.02,-102.42 78.35,-89.15 55.41,-79.53"/>
<polygon fill="midnightblue" stroke="midnightblue" points="56.74,-76.29 46.16,-75.66 54.03,-82.75 56.74,-76.29"/>
</g>
<!-- Node3 -->
<g id="node3" class="node">
<title>Node3</title>
<g id="a_node3"><a xlink:title=" ">
<polygon fill="none" stroke="#bfbfbf" points="163,-0.5 163,-19.5 216,-19.5 216,-0.5 163,-0.5"/>
<text text-anchor="middle" x="189.5" y="-7.5" font-family="Helvetica,sans-Serif" font-size="10.00">stdint.h</text>
</a>
</g>
</g>
<!-- Node1&#45;&gt;Node3 -->
<g id="edge2" class="edge">
<title>Node1&#45;&gt;Node3</title>
<path fill="none" stroke="midnightblue" d="M136.26,-112.26C112.02,-99.09 84.68,-78.26 98.5,-56 110.43,-36.79 133.27,-25.53 153.08,-19.08"/>
<polygon fill="midnightblue" stroke="midnightblue" points="154.19,-22.4 162.79,-16.21 152.21,-15.69 154.19,-22.4"/>
</g>
<!-- Node4 -->
<g id="node4" class="node">
<title>Node4</title>
<g id="a_node4"><a xlink:title=" ">
<polygon fill="none" stroke="#bfbfbf" points="107.5,-56.5 107.5,-75.5 157.5,-75.5 157.5,-56.5 107.5,-56.5"/>
<text text-anchor="middle" x="132.5" y="-63.5" font-family="Helvetica,sans-Serif" font-size="10.00">stdio.h</text>
</a>
</g>
</g>
<!-- Node1&#45;&gt;Node4 -->
<g id="edge3" class="edge">
<title>Node1&#45;&gt;Node4</title>
<path fill="none" stroke="midnightblue" d="M159.21,-112.4C154.28,-104.02 147.99,-93.33 142.75,-84.42"/>
<polygon fill="midnightblue" stroke="midnightblue" points="145.68,-82.5 137.59,-75.66 139.65,-86.05 145.68,-82.5"/>
</g>
<!-- Node5 -->
<g id="node5" class="node">
<title>Node5</title>
<g id="a_node5"><a xlink:title=" ">
<polygon fill="none" stroke="#bfbfbf" points="176,-56.5 176,-75.5 229,-75.5 229,-56.5 176,-56.5"/>
<text text-anchor="middle" x="202.5" y="-63.5" font-family="Helvetica,sans-Serif" font-size="10.00">stdlib.h</text>
</a>
</g>
</g>
<!-- Node1&#45;&gt;Node5 -->
<g id="edge4" class="edge">
<title>Node1&#45;&gt;Node5</title>
<path fill="none" stroke="midnightblue" d="M175.79,-112.4C180.72,-104.02 187.01,-93.33 192.25,-84.42"/>
<polygon fill="midnightblue" stroke="midnightblue" points="195.35,-86.05 197.41,-75.66 189.32,-82.5 195.35,-86.05"/>
</g>
<!-- Node6 -->
<g id="node6" class="node">
<title>Node6</title>
<g id="a_node6"><a xlink:title=" ">
<polygon fill="none" stroke="#bfbfbf" points="247,-56.5 247,-75.5 300,-75.5 300,-56.5 247,-56.5"/>
<text text-anchor="middle" x="273.5" y="-63.5" font-family="Helvetica,sans-Serif" font-size="10.00">string.h</text>
</a>
</g>
</g>
<!-- Node1&#45;&gt;Node6 -->
<g id="edge5" class="edge">
<title>Node1&#45;&gt;Node6</title>
<path fill="none" stroke="midnightblue" d="M192.62,-112.4C209.77,-102.77 232.36,-90.09 249.31,-80.58"/>
<polygon fill="midnightblue" stroke="midnightblue" points="251.07,-83.6 258.08,-75.66 247.64,-77.5 251.07,-83.6"/>
</g>
<!-- Node7 -->
<g id="node7" class="node">
<title>Node7</title>
<g id="a_node7"><a xlink:href="ie__mmap__tuning_8h.html" target="_top" xlink:title="Portable helpers for mmap tuning (madvise/fadvise, THP/HugeTLB, readahead).">
<polygon fill="none" stroke="black" points="318,-56.5 318,-75.5 425,-75.5 425,-56.5 318,-56.5"/>
<text text-anchor="middle" x="371.5" y="-63.5" font-family="Helvetica,sans-Serif" font-size="10.00">ie_mmap_tuning.h</text>
</a>
</g>
</g>
<!-- Node1&#45;&gt;Node7 -->
<g id="edge6" class="edge">
<title>Node1&#45;&gt;Node7</title>
<path fill="none" stroke="midnightblue" d="M215.59,-112.47C251.24,-102.08 299.23,-88.08 332.51,-78.37"/>
<polygon fill="midnightblue" stroke="midnightblue" points="333.72,-81.67 342.34,-75.51 331.76,-74.95 333.72,-81.67"/>
</g>
<!-- Node7&#45;&gt;Node3 -->
<g id="edge8" class="edge">
<title>Node7&#45;&gt;Node3</title>
<path fill="none" stroke="midnightblue" d="M342.66,-56.44C311.01,-47.05 260.13,-31.95 225.78,-21.77"/>
<polygon fill="midnightblue" stroke="midnightblue" points="226.71,-18.39 216.13,-18.9 224.72,-25.1 226.71,-18.39"/>
</g>
<!-- Node8 -->
<g id="node8" class="node">
<title>Node8</title>
<g id="a_node8"><a xlink:title=" ">
<polygon fill="none" stroke="#bfbfbf" points="302.5,-0.5 302.5,-19.5 358.5,-19.5 358.5,-0.5 302.5,-0.5"/>
<text text-anchor="middle" x="330.5" y="-7.5" font-family="Helvetica,sans-Serif" font-size="10.00">stddef.h</text>
</a>
</g>
</g>
<!-- Node7&#45;&gt;Node8 -->
<g id="edge7" class="edge">
<title>Node7&#45;&gt;Node8</title>
<path fill="none" stroke="midnightblue" d="M364.73,-56.08C358.94,-48.46 350.44,-37.26 343.36,-27.94"/>
<polygon fill="midnightblue" stroke="midnightblue" points="345.98,-25.6 337.14,-19.75 340.4,-29.83 345.98,-25.6"/>
</g>
<!-- Node9 -->
<g id="node9" class="node">
<title>Node9</title>
<g id="a_node9"><a xlink:title=" ">
<polygon fill="none" stroke="#bfbfbf" points="376.5,-0.5 376.5,-19.5 448.5,-19.5 448.5,-0.5 376.5,-0.5"/>
<text text-anchor="middle" x="412.5" y="-7.5" font-family="Helvetica,sans-Serif" font-size="10.00">sys/types.h</text>
</a>
</g>
</g>
<!-- Node7&#45;&gt;Node9 -->
<g id="edge9" class="edge">
<title>Node7&#45;&gt;Node9</title>
<path fill="none" stroke="midnightblue" d="M378.27,-56.08C384.06,-48.46 392.56,-37.26 399.64,-27.94"/>
<polygon fill="midnightblue" stroke="midnightblue" points="402.6,-29.83 405.86,-19.75 397.02,-25.6 402.6,-29.83"/>
</g>
</g>
</svg>
