<?xml version="1.0" encoding="UTF-8" standalone="no"?>
<!DOCTYPE svg PUBLIC "-//W3C//DTD SVG 1.1//EN"
 "http://www.w3.org/Graphics/SVG/1.1/DTD/svg11.dtd">
<!-- Generated by graphviz version 2.43.0 (0)
 -->
<!-- Title: safe_strcpy Pages: 1 -->
<svg width="408pt" height="104pt"
 viewBox="0.00 0.00 408.00 104.00" xmlns="http://www.w3.org/2000/svg" xmlns:xlink="http://www.w3.org/1999/xlink">
<g id="graph0" class="graph" transform="scale(1 1) rotate(0) translate(4 100)">
<title>safe_strcpy</title>
<!-- Node1 -->
<g id="node1" class="node">
<title>Node1</title>
<g id="a_node1"><a xlink:title="Safely copy a string into a fixed buffer (always NUL&#45;terminates).">
<polygon fill="#bfbfbf" stroke="black" points="327,-38.5 327,-57.5 400,-57.5 400,-38.5 327,-38.5"/>
<text text-anchor="middle" x="363.5" y="-45.5" font-family="Helvetica,sans-Serif" font-size="10.00">safe_strcpy</text>
</a>
</g>
</g>
<!-- Node2 -->
<g id="node2" class="node">
<title>Node2</title>
<g id="a_node2"><a xlink:href="main__infer_8c.html#a680d5eb9763f52ea89ce1764e01121dc" target="_top" xlink:title="Attempt to canonicalize a directory with realpath().">
<polygon fill="none" stroke="black" points="227,-76.5 227,-95.5 291,-95.5 291,-76.5 227,-76.5"/>
<text text-anchor="middle" x="259" y="-83.5" font-family="Helvetica,sans-Serif" font-size="10.00">canon_dir</text>
</a>
</g>
</g>
<!-- Node1&#45;&gt;Node2 -->
<g id="edge1" class="edge">
<title>Node1&#45;&gt;Node2</title>
<path fill="none" stroke="midnightblue" d="M327.12,-61.12C313.56,-66.14 298.36,-71.78 285.86,-76.41"/>
<polygon fill="midnightblue" stroke="midnightblue" points="328.48,-64.35 336.63,-57.59 326.04,-57.78 328.48,-64.35"/>
</g>
<!-- Node3 -->
<g id="node3" class="node">
<title>Node3</title>
<g id="a_node3"><a xlink:href="main__infer_8c.html#ae06567450eeb2b05b0039400021225ae" target="_top" xlink:title="Resolve IEBIN paths based on CLI flags and –model&#45;dir.">
<polygon fill="none" stroke="black" points="77,-38.5 77,-57.5 191,-57.5 191,-38.5 77,-38.5"/>
<text text-anchor="middle" x="134" y="-45.5" font-family="Helvetica,sans-Serif" font-size="10.00">resolve_iebin_paths</text>
</a>
</g>
</g>
<!-- Node1&#45;&gt;Node3 -->
<g id="edge6" class="edge">
<title>Node1&#45;&gt;Node3</title>
<path fill="none" stroke="midnightblue" d="M316.68,-48C280.46,-48 229.74,-48 191.09,-48"/>
<polygon fill="midnightblue" stroke="midnightblue" points="316.95,-51.5 326.95,-48 316.95,-44.5 316.95,-51.5"/>
</g>
<!-- Node5 -->
<g id="node5" class="node">
<title>Node5</title>
<g id="a_node5"><a xlink:href="main__infer_8c.html#adca9b33a342b8635e28ba51aecb365f6" target="_top" xlink:title="Join a directory and a leaf name into a single path.">
<polygon fill="none" stroke="black" points="228,-0.5 228,-19.5 290,-19.5 290,-0.5 228,-0.5"/>
<text text-anchor="middle" x="259" y="-7.5" font-family="Helvetica,sans-Serif" font-size="10.00">join_path</text>
</a>
</g>
</g>
<!-- Node1&#45;&gt;Node5 -->
<g id="edge4" class="edge">
<title>Node1&#45;&gt;Node5</title>
<path fill="none" stroke="midnightblue" d="M327.12,-34.88C313.56,-29.86 298.36,-24.22 285.86,-19.59"/>
<polygon fill="midnightblue" stroke="midnightblue" points="326.04,-38.22 336.63,-38.41 328.48,-31.65 326.04,-38.22"/>
</g>
<!-- Node2&#45;&gt;Node3 -->
<g id="edge2" class="edge">
<title>Node2&#45;&gt;Node3</title>
<path fill="none" stroke="midnightblue" d="M216.96,-73.32C200.34,-68.19 181.47,-62.36 166.03,-57.59"/>
<polygon fill="midnightblue" stroke="midnightblue" points="216.37,-76.8 226.96,-76.41 218.44,-70.12 216.37,-76.8"/>
</g>
<!-- Node4 -->
<g id="node4" class="node">
<title>Node4</title>
<g id="a_node4"><a xlink:href="main__infer_8c.html#a3c04138a5bfe5d72780bb7e82a18e627" target="_top" xlink:title="Program entry point.">
<polygon fill="none" stroke="black" points="0,-38.5 0,-57.5 41,-57.5 41,-38.5 0,-38.5"/>
<text text-anchor="middle" x="20.5" y="-45.5" font-family="Helvetica,sans-Serif" font-size="10.00">main</text>
</a>
</g>
</g>
<!-- Node3&#45;&gt;Node4 -->
<g id="edge3" class="edge">
<title>Node3&#45;&gt;Node4</title>
<path fill="none" stroke="midnightblue" d="M66.7,-48C57.37,-48 48.45,-48 41.04,-48"/>
<polygon fill="midnightblue" stroke="midnightblue" points="66.92,-51.5 76.92,-48 66.92,-44.5 66.92,-51.5"/>
</g>
<!-- Node5&#45;&gt;Node3 -->
<g id="edge5" class="edge">
<title>Node5&#45;&gt;Node3</title>
<path fill="none" stroke="midnightblue" d="M218.28,-22.27C201.36,-27.5 181.91,-33.51 166.06,-38.4"/>
<polygon fill="midnightblue" stroke="midnightblue" points="219.39,-25.59 227.91,-19.3 217.32,-18.9 219.39,-25.59"/>
</g>
</g>
</svg>
