<?xml version="1.0" encoding="UTF-8" standalone="no"?>
<!DOCTYPE svg PUBLIC "-//W3C//DTD SVG 1.1//EN"
 "http://www.w3.org/Graphics/SVG/1.1/DTD/svg11.dtd">
<!-- Generated by graphviz version 2.43.0 (0)
 -->
<!-- Title: path_is_abs Pages: 1 -->
<svg width="423pt" height="64pt"
 viewBox="0.00 0.00 423.00 64.00" xmlns="http://www.w3.org/2000/svg" xmlns:xlink="http://www.w3.org/1999/xlink">

<svg id="main" version="1.1" xmlns="http://www.w3.org/2000/svg" xmlns:xlink="http://www.w3.org/1999/xlink" xml:space="preserve" onload="init(evt)">
<style type="text/css"><![CDATA[
.node, .edge {opacity: 0.7;}
.node.selected, .edge.selected {opacity: 1;}
.edge:hover path { stroke: red; }
.edge:hover polygon { stroke: red; fill: red; }
]]></style>
<script type="application/ecmascript" xlink:href="svg.min.js"/>
<svg id="graph" class="graph">
<g id="graph0" class="graph" transform="scale(1 1) rotate(0) translate(4 60)">
<title>path_is_abs</title>
<!-- Node1 -->
<g id="Node000001" class="node">
<title>Node1</title>
<g id="a_Node000001"><a xlink:title="Check if a path is absolute (POSIX).">
<polygon fill="#999999" stroke="#666666" points="415,-38 341,-38 341,-19 415,-19 415,-38"/>
<text text-anchor="middle" x="378" y="-26" font-family="Helvetica,sans-Serif" font-size="10.00">path_is_abs</text>
</a>
</g>
</g>
<!-- Node2 -->
<g id="Node000002" class="node">
<title>Node2</title>
<g id="a_Node000002"><a xlink:href="main__infer_8c.html#adca9b33a342b8635e28ba51aecb365f6" target="_top" xlink:title="Join directory and filename into a single path.">
<polygon fill="white" stroke="#666666" points="305,-38 243,-38 243,-19 305,-19 305,-38"/>
<text text-anchor="middle" x="274" y="-26" font-family="Helvetica,sans-Serif" font-size="10.00">join_path</text>
</a>
</g>
</g>
<!-- Node1&#45;&gt;Node2 -->
<g id="edge1_Node000001_Node000002" class="edge">
<title>Node1&#45;&gt;Node2</title>
<g id="a_edge1_Node000001_Node000002"><a xlink:title=" ">
<path fill="none" stroke="#63b8ff" d="M330.69,-28.5C321.99,-28.5 313.11,-28.5 305.07,-28.5"/>
<polygon fill="#63b8ff" stroke="#63b8ff" points="330.75,-32 340.75,-28.5 330.75,-25 330.75,-32"/>
</a>
</g>
</g>
<!-- Node3 -->
<g id="Node000003" class="node">
<title>Node3</title>
<g id="a_Node000003"><a xlink:href="main__infer_8c.html#ad6b894571e18a35f21d8451e008fae37" target="_top" xlink:title="Resolve model JSON/BIN paths based on model_dir and precision defaults.">
<polygon fill="white" stroke="#666666" points="202.5,-56 81.5,-56 81.5,-37 202.5,-37 202.5,-56"/>
<text text-anchor="middle" x="142" y="-44" font-family="Helvetica,sans-Serif" font-size="10.00">resolve_model_paths</text>
</a>
</g>
</g>
<!-- Node1&#45;&gt;Node3 -->
<g id="edge6_Node000001_Node000003" class="edge">
<title>Node1&#45;&gt;Node3</title>
<g id="a_edge6_Node000001_Node000003"><a xlink:title=" ">
<path fill="none" stroke="#63b8ff" d="M338.08,-40.73C327.46,-43.52 315.88,-46.09 305,-47.5 271.39,-51.86 233.53,-51.89 202.86,-50.71"/>
<polygon fill="#63b8ff" stroke="#63b8ff" points="339.21,-44.05 347.91,-38 337.34,-37.3 339.21,-44.05"/>
</a>
</g>
</g>
<!-- Node5 -->
<g id="Node000005" class="node">
<title>Node5</title>
<g id="a_Node000005"><a xlink:href="main__infer_8c.html#a0271a21f39c53534b7a1a3cc7eb94596" target="_top" xlink:title="Resolve a tokenizer path under a model directory.">
<polygon fill="white" stroke="#666666" points="207,-19 77,-19 77,0 207,0 207,-19"/>
<text text-anchor="middle" x="142" y="-7" font-family="Helvetica,sans-Serif" font-size="10.00">resolve_tokenizer_path</text>
</a>
</g>
</g>
<!-- Node1&#45;&gt;Node5 -->
<g id="edge7_Node000001_Node000005" class="edge">
<title>Node1&#45;&gt;Node5</title>
<g id="a_edge7_Node000001_Node000005"><a xlink:title=" ">
<path fill="none" stroke="#63b8ff" d="M336.01,-16.46C325.96,-14 315.16,-11.78 305,-10.5 272.91,-6.45 236.96,-5.84 207.09,-6.39"/>
<polygon fill="#63b8ff" stroke="#63b8ff" points="335.21,-19.87 345.77,-18.96 336.95,-13.09 335.21,-19.87"/>
</a>
</g>
</g>
<!-- Node2&#45;&gt;Node3 -->
<g id="edge2_Node000002_Node000003" class="edge">
<title>Node2&#45;&gt;Node3</title>
<g id="a_edge2_Node000002_Node000003"><a xlink:title=" ">
<path fill="none" stroke="#63b8ff" d="M232.86,-34.06C223.3,-35.38 212.9,-36.82 202.67,-38.24"/>
<polygon fill="#63b8ff" stroke="#63b8ff" points="233.42,-37.51 242.85,-32.67 232.46,-30.58 233.42,-37.51"/>
</a>
</g>
</g>
<!-- Node2&#45;&gt;Node5 -->
<g id="edge4_Node000002_Node000005" class="edge">
<title>Node2&#45;&gt;Node5</title>
<g id="a_edge4_Node000002_Node000005"><a xlink:title=" ">
<path fill="none" stroke="#63b8ff" d="M232.87,-22.63C224.69,-21.44 215.89,-20.15 207.12,-18.87"/>
<polygon fill="#63b8ff" stroke="#63b8ff" points="232.45,-26.11 242.85,-24.09 233.46,-19.18 232.45,-26.11"/>
</a>
</g>
</g>
<!-- Node4 -->
<g id="Node000004" class="node">
<title>Node4</title>
<g id="a_Node000004"><a xlink:href="main__infer_8c.html#a3c04138a5bfe5d72780bb7e82a18e627" target="_top" xlink:title="main.">
<polygon fill="white" stroke="#666666" points="41,-37 0,-37 0,-18 41,-18 41,-37"/>
<text text-anchor="middle" x="20.5" y="-25" font-family="Helvetica,sans-Serif" font-size="10.00">main</text>
</a>
</g>
</g>
<!-- Node3&#45;&gt;Node4 -->
<g id="edge3_Node000003_Node000004" class="edge">
<title>Node3&#45;&gt;Node4</title>
<g id="a_edge3_Node000003_Node000004"><a xlink:title=" ">
<path fill="none" stroke="#63b8ff" d="M71.12,-35.39C60.18,-33.65 49.71,-31.99 41.23,-30.64"/>
<polygon fill="#63b8ff" stroke="#63b8ff" points="70.82,-38.89 81.25,-37 71.92,-31.97 70.82,-38.89"/>
</a>
</g>
</g>
<!-- Node5&#45;&gt;Node4 -->
<g id="edge5_Node000005_Node000004" class="edge">
<title>Node5&#45;&gt;Node4</title>
<g id="a_edge5_Node000005_Node000004"><a xlink:title=" ">
<path fill="none" stroke="#63b8ff" d="M67.84,-20.52C58.06,-21.99 48.79,-23.39 41.14,-24.54"/>
<polygon fill="#63b8ff" stroke="#63b8ff" points="68.38,-23.98 77.75,-19.03 67.34,-17.06 68.38,-23.98"/>
</a>
</g>
</g>
</g>
</svg>
</svg>

<style type='text/css'>
<![CDATA[
[data-mouse-over-selected='false'] { opacity: 0.7; }
[data-mouse-over-selected='true']  { opacity: 1.0; }
]]>
</style>
<script type="application/ecmascript"><![CDATA[
document.addEventListener('DOMContentLoaded', (event) => {
  highlightEdges();
  highlightAdjacentNodes();
});
]]></script>
</svg>
