<?xml version="1.0" encoding="UTF-8" standalone="no"?>
<!DOCTYPE svg PUBLIC "-//W3C//DTD SVG 1.1//EN"
 "http://www.w3.org/Graphics/SVG/1.1/DTD/svg11.dtd">
<!-- Generated by graphviz version 12.2.1 (20241206.2353)
 -->
<!-- Title: main Pages: 1 -->
<!--zoomable 729 -->

<svg id="main" version="1.1" xmlns="http://www.w3.org/2000/svg" xmlns:xlink="http://www.w3.org/1999/xlink" xml:space="preserve" onload="init(evt)">

<style type="text/css"><![CDATA[
.node, .edge {opacity: 0.7;}
.node.selected, .edge.selected {opacity: 1;}
.edge:hover path { stroke: red; }
.edge:hover polygon { stroke: red; fill: red; }
]]></style>

<defs>
  <circle id="rim" cx="0" cy="0" r="7"/>
  <circle id="rim2" cx="0" cy="0" r="3.5"/>
  <g id="zoomPlus">
    <use xlink:href="#rim" fill="#404040"><set attributeName="fill" to="#808080" begin="zoomplus.mouseover" end="zoomplus.mouseout"/></use>
    <path d="M-4,0h8M0,-4v8" fill="none" stroke="white" stroke-width="1.5" pointer-events="none"/>
  </g>
  <g id="zoomMin">
    <use xlink:href="#rim" fill="#404040"><set attributeName="fill" to="#808080" begin="zoomminus.mouseover" end="zoomminus.mouseout"/></use>
    <path d="M-4,0h8" fill="none" stroke="white" stroke-width="1.5" pointer-events="none"/>
  </g>
  <g id="arrowUp" transform="translate(30 24)">
    <use xlink:href="#rim"/>
    <path pointer-events="none" fill="none" stroke="white" stroke-width="1.5" d="M0,-3.0v7 M-2.5,-0.5L0,-3.0L2.5,-0.5"/>
  </g>
  <g id="arrowRight" transform="rotate(90) translate(36 -43)">
    <use xlink:href="#rim"/>
    <path pointer-events="none" fill="none" stroke="white" stroke-width="1.5" d="M0,-3.0v7 M-2.5,-0.5L0,-3.0L2.5,-0.5"/>
  </g>
  <g id="arrowDown" transform="rotate(180) translate(-30 -48)">
    <use xlink:href="#rim"/>
    <path pointer-events="none" fill="none" stroke="white" stroke-width="1.5" d="M0,-3.0v7 M-2.5,-0.5L0,-3.0L2.5,-0.5"/>
  </g>
  <g id="arrowLeft" transform="rotate(270) translate(-36 17)">
    <use xlink:href="#rim"/>
    <path pointer-events="none" fill="none" stroke="white" stroke-width="1.5" d="M0,-3.0v7 M-2.5,-0.5L0,-3.0L2.5,-0.5"/>
  </g>
  <g id="resetDef">
    <use xlink:href="#rim2" fill="#404040"><set attributeName="fill" to="#808080" begin="reset.mouseover" end="reset.mouseout"/></use>
  </g>
</defs>
<script type="application/ecmascript">
var viewWidth = 552;
var viewHeight = 729;
var sectionId = 'dynsection-5';
</script>
<script type="application/ecmascript" xlink:href="svg.min.js"/>
<svg id="graph" class="graph">
<g id="viewport">
<title>main</title>
<!-- Node1 -->
<g id="Node000001" class="node">
<title>Node1</title>
<g id="a_Node000001"><a xlink:title="Program entry point.">
<polygon fill="#999999" stroke="#666666" points="40.75,-369.75 0,-369.75 0,-349 40.75,-349 40.75,-369.75"/>
<text text-anchor="middle" x="20.38" y="-356.25" font-family="Helvetica,sans-Serif" font-size="10.00">main</text>
</a>
</g>
</g>
<!-- Node2 -->
<g id="Node000002" class="node">
<title>Node2</title>
<g id="a_Node000002"><a xlink:href="main__infer_8c.html#a72ab94aafe7740f1343d317daa89ca15" target="_top" xlink:title="Case&#45;insensitive ASCII equality check (NULL&#45;safe).">
<polygon fill="white" stroke="#666666" points="358.88,-720.75 300.12,-720.75 300.12,-700 358.88,-700 358.88,-720.75"/>
<text text-anchor="middle" x="329.5" y="-707.25" font-family="Helvetica,sans-Serif" font-size="10.00">ascii_ieq</text>
</a>
</g>
</g>
<!-- Node1&#45;&gt;Node2 -->
<g id="edge1_Node000001_Node000002" class="edge">
<title>Node1&#45;&gt;Node2</title>
<g id="a_edge1_Node000001_Node000002"><a xlink:title=" ">
<path fill="none" stroke="#63b8ff" d="M21.88,-369.97C24.36,-417.38 36.77,-609.65 76.75,-651.38 132.27,-709.33 233.03,-715.11 288.76,-713.33"/>
<polygon fill="#63b8ff" stroke="#63b8ff" points="288.58,-716.84 298.42,-712.91 288.28,-709.84 288.58,-716.84"/>
</a>
</g>
</g>
<!-- Node3 -->
<g id="Node000003" class="node">
<title>Node3</title>
<g id="a_Node000003"><a xlink:href="main__infer_8c.html#a9675b1f5b8b73e24233f92cb11e31f6a" target="_top" xlink:title="Parse an environment variable as a long with a default fallback.">
<polygon fill="white" stroke="#666666" points="185.38,-603.75 125.12,-603.75 125.12,-583 185.38,-583 185.38,-603.75"/>
<text text-anchor="middle" x="155.25" y="-590.25" font-family="Helvetica,sans-Serif" font-size="10.00">env_long</text>
</a>
</g>
</g>
<!-- Node1&#45;&gt;Node3 -->
<g id="edge2_Node000001_Node000003" class="edge">
<title>Node1&#45;&gt;Node3</title>
<g id="a_edge2_Node000001_Node000003"><a xlink:title=" ">
<path fill="none" stroke="#63b8ff" d="M22.72,-370.17C27.81,-409.41 47.16,-543.81 76.75,-573.38 86.58,-583.2 100.55,-588.4 113.94,-591.09"/>
<polygon fill="#63b8ff" stroke="#63b8ff" points="113.02,-594.49 123.44,-592.57 114.1,-587.57 113.02,-594.49"/>
</a>
</g>
</g>
<!-- Node4 -->
<g id="Node000004" class="node">
<title>Node4</title>
<g id="a_Node000004"><a xlink:href="main__infer_8c.html#a1da65df4642943745d356d6de2983f02" target="_top" xlink:title="Get environment variable as string with a default fallback.">
<polygon fill="white" stroke="#666666" points="181.25,-564.75 129.25,-564.75 129.25,-544 181.25,-544 181.25,-564.75"/>
<text text-anchor="middle" x="155.25" y="-551.25" font-family="Helvetica,sans-Serif" font-size="10.00">env_str</text>
</a>
</g>
</g>
<!-- Node1&#45;&gt;Node4 -->
<g id="edge3_Node000001_Node000004" class="edge">
<title>Node1&#45;&gt;Node4</title>
<g id="a_edge3_Node000001_Node000004"><a xlink:title=" ">
<path fill="none" stroke="#63b8ff" d="M21.39,-369.84C22.03,-400.07 28.17,-488.35 76.75,-534.38 87.73,-544.78 103.4,-549.95 117.77,-552.46"/>
<polygon fill="#63b8ff" stroke="#63b8ff" points="117.03,-555.89 127.4,-553.75 117.96,-548.96 117.03,-555.89"/>
</a>
</g>
</g>
<!-- Node5 -->
<g id="Node000005" class="node">
<title>Node5</title>
<g id="a_Node000005"><a xlink:href="ie__api_8c.html#a29d800407f90ba6b44385725da64f27d" target="_top" xlink:title="Create a new engine instance.">
<polygon fill="white" stroke="#666666" points="204.88,-525.75 105.62,-525.75 105.62,-505 204.88,-505 204.88,-525.75"/>
<text text-anchor="middle" x="155.25" y="-512.25" font-family="Helvetica,sans-Serif" font-size="10.00">ie_engine_create</text>
</a>
</g>
</g>
<!-- Node1&#45;&gt;Node5 -->
<g id="edge4_Node000001_Node000005" class="edge">
<title>Node1&#45;&gt;Node5</title>
<g id="a_edge4_Node000001_Node000005"><a xlink:title=" ">
<path fill="none" stroke="#63b8ff" d="M22.5,-370.07C25.8,-395.76 37.79,-461.32 76.75,-495.38 82.04,-500 88.26,-503.57 94.83,-506.34"/>
<polygon fill="#63b8ff" stroke="#63b8ff" points="93.36,-509.53 103.95,-509.54 95.68,-502.92 93.36,-509.53"/>
</a>
</g>
</g>
<!-- Node8 -->
<g id="Node000008" class="node">
<title>Node8</title>
<g id="a_Node000008"><a xlink:href="ie__api_8c.html#a8a724f7097b3e19da8d7dd97fba4415e" target="_top" xlink:title="Destroy an engine and free its resources.">
<polygon fill="white" stroke="#666666" points="207.88,-447.75 102.62,-447.75 102.62,-427 207.88,-427 207.88,-447.75"/>
<text text-anchor="middle" x="155.25" y="-434.25" font-family="Helvetica,sans-Serif" font-size="10.00">ie_engine_destroy</text>
</a>
</g>
</g>
<!-- Node1&#45;&gt;Node8 -->
<g id="edge7_Node000001_Node000008" class="edge">
<title>Node1&#45;&gt;Node8</title>
<g id="a_edge7_Node000001_Node000008"><a xlink:title=" ">
<path fill="none" stroke="#63b8ff" d="M28.68,-370.1C38.2,-383.24 56.1,-405.26 76.75,-417.38 81.38,-420.09 86.37,-422.44 91.51,-424.47"/>
<polygon fill="#63b8ff" stroke="#63b8ff" points="90.19,-427.72 100.78,-427.72 92.5,-421.11 90.19,-427.72"/>
</a>
</g>
</g>
<!-- Node9 -->
<g id="Node000009" class="node">
<title>Node9</title>
<g id="a_Node000009"><a xlink:href="ie__api_8c.html#a21ab40e22d9192fe353ad6640610a01d" target="_top" xlink:title="Generate up to max_new_tokens from prompt.">
<polygon fill="white" stroke="#666666" points="211.25,-486.75 99.25,-486.75 99.25,-466 211.25,-466 211.25,-486.75"/>
<text text-anchor="middle" x="155.25" y="-473.25" font-family="Helvetica,sans-Serif" font-size="10.00">ie_engine_generate</text>
</a>
</g>
</g>
<!-- Node1&#45;&gt;Node9 -->
<g id="edge8_Node000001_Node000009" class="edge">
<title>Node1&#45;&gt;Node9</title>
<g id="a_edge8_Node000001_Node000009"><a xlink:title=" ">
<path fill="none" stroke="#63b8ff" d="M24.38,-369.98C30.64,-390.06 47.01,-433.66 76.75,-456.38 80.31,-459.1 84.21,-461.45 88.3,-463.48"/>
<polygon fill="#63b8ff" stroke="#63b8ff" points="86.81,-466.65 97.38,-467.32 89.53,-460.21 86.81,-466.65"/>
</a>
</g>
</g>
<!-- Node14 -->
<g id="Node000014" class="node">
<title>Node14</title>
<g id="a_Node000014"><a xlink:href="ie__api_8c.html#ac1c4268d66d8a840276e0a72c9ace902" target="_top" xlink:title="Snapshot engine metrics into out.">
<polygon fill="white" stroke="#666666" points="207.88,-408.75 102.62,-408.75 102.62,-388 207.88,-388 207.88,-408.75"/>
<text text-anchor="middle" x="155.25" y="-395.25" font-family="Helvetica,sans-Serif" font-size="10.00">ie_engine_metrics</text>
</a>
</g>
</g>
<!-- Node1&#45;&gt;Node14 -->
<g id="edge14_Node000001_Node000014" class="edge">
<title>Node1&#45;&gt;Node14</title>
<g id="a_edge14_Node000001_Node000014"><a xlink:title=" ">
<path fill="none" stroke="#63b8ff" d="M41.25,-366.61C51.74,-370.33 64.87,-374.81 76.75,-378.38 83.82,-380.5 91.29,-382.6 98.7,-384.6"/>
<polygon fill="#63b8ff" stroke="#63b8ff" points="97.8,-387.98 108.36,-387.16 99.59,-381.21 97.8,-387.98"/>
</a>
</g>
</g>
<!-- Node15 -->
<g id="Node000015" class="node">
<title>Node15</title>
<g id="a_Node000015"><a xlink:href="ie__kv__instrumentation_8c.html#a0a8ac6ff4fa3502470774c6cb9e6f488" target="_top" xlink:title="Initialize KV counters and allocate a token set for the round.">
<polygon fill="white" stroke="#666666" points="209,-369.75 101.5,-369.75 101.5,-349 209,-349 209,-369.75"/>
<text text-anchor="middle" x="155.25" y="-356.25" font-family="Helvetica,sans-Serif" font-size="10.00">ie_kv_begin_round</text>
</a>
</g>
</g>
<!-- Node1&#45;&gt;Node15 -->
<g id="edge15_Node000001_Node000015" class="edge">
<title>Node1&#45;&gt;Node15</title>
<g id="a_edge15_Node000001_Node000015"><a xlink:title=" ">
<path fill="none" stroke="#63b8ff" d="M40.98,-359.38C54.07,-359.38 72.1,-359.38 89.92,-359.38"/>
<polygon fill="#63b8ff" stroke="#63b8ff" points="89.73,-362.88 99.73,-359.38 89.73,-355.88 89.73,-362.88"/>
</a>
</g>
</g>
<!-- Node17 -->
<g id="Node000017" class="node">
<title>Node17</title>
<g id="a_Node000017"><a xlink:href="ie__kv__instrumentation_8c.html#a2c9789a487a67ebc8e6054aa0b991e4e" target="_top" xlink:title="Finalize the round and return hit/miss counters.">
<polygon fill="white" stroke="#666666" points="208.62,-330.75 101.88,-330.75 101.88,-310 208.62,-310 208.62,-330.75"/>
<text text-anchor="middle" x="155.25" y="-317.25" font-family="Helvetica,sans-Serif" font-size="10.00">ie_kv_finish_round</text>
</a>
</g>
</g>
<!-- Node1&#45;&gt;Node17 -->
<g id="edge17_Node000001_Node000017" class="edge">
<title>Node1&#45;&gt;Node17</title>
<g id="a_edge17_Node000001_Node000017"><a xlink:title=" ">
<path fill="none" stroke="#63b8ff" d="M41.25,-352.14C51.74,-348.42 64.87,-343.94 76.75,-340.38 83.82,-338.25 91.29,-336.15 98.7,-334.15"/>
<polygon fill="#63b8ff" stroke="#63b8ff" points="99.59,-337.54 108.36,-331.59 97.8,-330.77 99.59,-337.54"/>
</a>
</g>
</g>
<!-- Node18 -->
<g id="Node000018" class="node">
<title>Node18</title>
<g id="a_Node000018"><a xlink:href="group__IE__METRICS.html#ga0b083c9fbf90d02c9ef387ab34220a34" target="_top" xlink:title="Best&#45;effort sampling of peak RSS (resident set size).">
<polygon fill="white" stroke="#666666" points="233.75,-291.75 76.75,-291.75 76.75,-271 233.75,-271 233.75,-291.75"/>
<text text-anchor="middle" x="155.25" y="-278.25" font-family="Helvetica,sans-Serif" font-size="10.00">ie_metrics_sample_rss_peak</text>
</a>
</g>
</g>
<!-- Node1&#45;&gt;Node18 -->
<g id="edge18_Node000001_Node000018" class="edge">
<title>Node1&#45;&gt;Node18</title>
<g id="a_edge18_Node000001_Node000018"><a xlink:title=" ">
<path fill="none" stroke="#63b8ff" d="M28.68,-348.65C38.2,-335.51 56.1,-313.49 76.75,-301.38 79.93,-299.51 83.28,-297.82 86.73,-296.28"/>
<polygon fill="#63b8ff" stroke="#63b8ff" points="87.88,-299.59 95.91,-292.68 85.33,-293.07 87.88,-299.59"/>
</a>
</g>
</g>
<!-- Node24 -->
<g id="Node000024" class="node">
<title>Node24</title>
<g id="a_Node000024"><a xlink:href="group__ie__io__weights.html#ga06c2b7e35d1f82a11e4605e23a1976f5" target="_top" xlink:title="Close weights resources (currently a no&#45;op; reserved for future use).">
<polygon fill="white" stroke="#666666" points="204.88,-252.75 105.62,-252.75 105.62,-232 204.88,-232 204.88,-252.75"/>
<text text-anchor="middle" x="155.25" y="-239.25" font-family="Helvetica,sans-Serif" font-size="10.00">ie_weights_close</text>
</a>
</g>
</g>
<!-- Node1&#45;&gt;Node24 -->
<g id="edge24_Node000001_Node000024" class="edge">
<title>Node1&#45;&gt;Node24</title>
<g id="a_edge24_Node000001_Node000024"><a xlink:title=" ">
<path fill="none" stroke="#63b8ff" d="M24.38,-348.77C30.64,-328.69 47.01,-285.09 76.75,-262.38 82.06,-258.32 88.1,-255.09 94.42,-252.5"/>
<polygon fill="#63b8ff" stroke="#63b8ff" points="95.5,-255.83 103.8,-249.24 93.2,-249.22 95.5,-255.83"/>
</a>
</g>
</g>
<!-- Node25 -->
<g id="Node000025" class="node">
<title>Node25</title>
<g id="a_Node000025"><a xlink:href="group__ie__io__weights.html#ga522dac028ee37aae1307ffdb6d65ec1d" target="_top" xlink:title="Open and parse IEBIN v1 metadata and resolve the weights path.">
<polygon fill="white" stroke="#666666" points="204.12,-213.75 106.38,-213.75 106.38,-193 204.12,-193 204.12,-213.75"/>
<text text-anchor="middle" x="155.25" y="-200.25" font-family="Helvetica,sans-Serif" font-size="10.00">ie_weights_open</text>
</a>
</g>
</g>
<!-- Node1&#45;&gt;Node25 -->
<g id="edge25_Node000001_Node000025" class="edge">
<title>Node1&#45;&gt;Node25</title>
<g id="a_edge25_Node000001_Node000025"><a xlink:title=" ">
<path fill="none" stroke="#63b8ff" d="M22.5,-348.68C25.8,-322.99 37.79,-257.43 76.75,-223.38 82.17,-218.63 88.58,-214.99 95.35,-212.2"/>
<polygon fill="#63b8ff" stroke="#63b8ff" points="96.44,-215.53 104.76,-208.97 94.16,-208.91 96.44,-215.53"/>
</a>
</g>
</g>
<!-- Node32 -->
<g id="Node000032" class="node">
<title>Node32</title>
<g id="a_Node000032"><a xlink:href="group__ie__io__weights.html#ga095d7f59c4cba2b530bac039bca8b7a9" target="_top" xlink:title="Touch the weights binary to verify readability (and optionally warm caches).">
<polygon fill="white" stroke="#666666" points="205.62,-174.75 104.88,-174.75 104.88,-154 205.62,-154 205.62,-174.75"/>
<text text-anchor="middle" x="155.25" y="-161.25" font-family="Helvetica,sans-Serif" font-size="10.00">ie_weights_touch</text>
</a>
</g>
</g>
<!-- Node1&#45;&gt;Node32 -->
<g id="edge33_Node000001_Node000032" class="edge">
<title>Node1&#45;&gt;Node32</title>
<g id="a_edge33_Node000001_Node000032"><a xlink:title=" ">
<path fill="none" stroke="#63b8ff" d="M21.39,-348.91C22.03,-318.68 28.17,-230.4 76.75,-184.38 81.66,-179.72 87.51,-176.12 93.76,-173.33"/>
<polygon fill="#63b8ff" stroke="#63b8ff" points="94.95,-176.61 103.13,-169.88 92.54,-170.04 94.95,-176.61"/>
</a>
</g>
</g>
<!-- Node34 -->
<g id="Node000034" class="node">
<title>Node34</title>
<g id="a_Node000034"><a xlink:href="main__infer_8c.html#a4fdbfffdaa0f22a01822f6a62bb7e95e" target="_top" xlink:title="Get a monotonic wall&#45;clock timestamp in seconds.">
<polygon fill="white" stroke="#666666" points="184.25,-135.75 126.25,-135.75 126.25,-115 184.25,-115 184.25,-135.75"/>
<text text-anchor="middle" x="155.25" y="-122.25" font-family="Helvetica,sans-Serif" font-size="10.00">now_sec</text>
</a>
</g>
</g>
<!-- Node1&#45;&gt;Node34 -->
<g id="edge35_Node000001_Node000034" class="edge">
<title>Node1&#45;&gt;Node34</title>
<g id="a_edge35_Node000001_Node000034"><a xlink:title=" ">
<path fill="none" stroke="#63b8ff" d="M22.72,-348.58C27.81,-309.34 47.16,-174.94 76.75,-145.38 86.81,-135.32 101.21,-130.11 114.88,-127.48"/>
<polygon fill="#63b8ff" stroke="#63b8ff" points="115.19,-130.97 124.57,-126.04 114.17,-124.04 115.19,-130.97"/>
</a>
</g>
</g>
<!-- Node35 -->
<g id="Node000035" class="node">
<title>Node35</title>
<g id="a_Node000035"><a xlink:href="main__infer_8c.html#a456ba954f3884bcf5f72fc3e779de284" target="_top" xlink:title="Parse command&#45;line flags into a cli_extras_t container.">
<polygon fill="white" stroke="#666666" points="191,-642.75 119.5,-642.75 119.5,-622 191,-622 191,-642.75"/>
<text text-anchor="middle" x="155.25" y="-629.25" font-family="Helvetica,sans-Serif" font-size="10.00">parse_flags</text>
</a>
</g>
</g>
<!-- Node1&#45;&gt;Node35 -->
<g id="edge36_Node000001_Node000035" class="edge">
<title>Node1&#45;&gt;Node35</title>
<g id="a_edge36_Node000001_Node000035"><a xlink:title=" ">
<path fill="none" stroke="#63b8ff" d="M22.24,-369.97C25.98,-413.31 42.2,-576.52 76.75,-612.38 85.08,-621.02 96.61,-626.11 108.24,-629.05"/>
<polygon fill="#63b8ff" stroke="#63b8ff" points="107.34,-632.44 117.83,-630.97 108.71,-625.58 107.34,-632.44"/>
</a>
</g>
</g>
<!-- Node39 -->
<g id="Node000039" class="node">
<title>Node39</title>
<g id="a_Node000039"><a xlink:href="main__infer_8c.html#a5db8fa11a9c7e98dabe7f05ea69f4000" target="_top" xlink:title="Print a single JSON summary line for the last run.">
<polygon fill="white" stroke="#666666" points="203.75,-96.75 106.75,-96.75 106.75,-76 203.75,-76 203.75,-96.75"/>
<text text-anchor="middle" x="155.25" y="-83.25" font-family="Helvetica,sans-Serif" font-size="10.00">print_json_result</text>
</a>
</g>
</g>
<!-- Node1&#45;&gt;Node39 -->
<g id="edge41_Node000001_Node000039" class="edge">
<title>Node1&#45;&gt;Node39</title>
<g id="a_edge41_Node000001_Node000039"><a xlink:title=" ">
<path fill="none" stroke="#63b8ff" d="M22.24,-348.78C25.98,-305.44 42.2,-142.23 76.75,-106.38 82.06,-100.86 88.68,-96.8 95.79,-93.81"/>
<polygon fill="#63b8ff" stroke="#63b8ff" points="96.7,-97.19 105.04,-90.65 94.44,-90.57 96.7,-97.19"/>
</a>
</g>
</g>
<!-- Node40 -->
<g id="Node000040" class="node">
<title>Node40</title>
<g id="a_Node000040"><a xlink:href="main__infer_8c.html#a609fc6d778b714530dadf2ef012acf5c" target="_top" xlink:title="Read the first non&#45;empty line from a text file.">
<polygon fill="white" stroke="#666666" points="225.12,-57.75 85.38,-57.75 85.38,-37 225.12,-37 225.12,-57.75"/>
<text text-anchor="middle" x="155.25" y="-44.25" font-family="Helvetica,sans-Serif" font-size="10.00">read_first_nonempty_line</text>
</a>
</g>
</g>
<!-- Node1&#45;&gt;Node40 -->
<g id="edge42_Node000001_Node000040" class="edge">
<title>Node1&#45;&gt;Node40</title>
<g id="a_edge42_Node000001_Node000040"><a xlink:title=" ">
<path fill="none" stroke="#63b8ff" d="M21.9,-348.8C24.48,-301.48 37.24,-109.55 76.75,-67.38 77.61,-66.46 78.5,-65.59 79.42,-64.75"/>
<polygon fill="#63b8ff" stroke="#63b8ff" points="81.2,-67.78 87.27,-59.1 77.11,-62.1 81.2,-67.78"/>
</a>
</g>
</g>
<!-- Node6 -->
<g id="Node000006" class="node">
<title>Node6</title>
<g id="a_Node000006"><a xlink:href="ie__api_8c.html#a72ab94aafe7740f1343d317daa89ca15" target="_top" xlink:title="Case&#45;insensitive ASCII string equality check (NULL&#45;safe).">
<polygon fill="white" stroke="#666666" points="358.88,-564.75 300.12,-564.75 300.12,-544 358.88,-544 358.88,-564.75"/>
<text text-anchor="middle" x="329.5" y="-551.25" font-family="Helvetica,sans-Serif" font-size="10.00">ascii_ieq</text>
</a>
</g>
</g>
<!-- Node5&#45;&gt;Node6 -->
<g id="edge5_Node000005_Node000006" class="edge">
<title>Node5&#45;&gt;Node6</title>
<g id="a_edge5_Node000005_Node000006"><a xlink:title=" ">
<path fill="none" stroke="#63b8ff" d="M204.23,-526.24C230.82,-532.26 263.49,-539.65 288.65,-545.35"/>
<polygon fill="#63b8ff" stroke="#63b8ff" points="287.64,-548.71 298.16,-547.51 289.18,-541.88 287.64,-548.71"/>
</a>
</g>
</g>
<!-- Node7 -->
<g id="Node000007" class="node">
<title>Node7</title>
<g id="a_Node000007"><a xlink:href="ie__api_8c.html#aee4ab6bebc1781cfbfe821e0e89d8823" target="_top" xlink:title="32&#45;bit FNV&#45;1a hash for C strings (NULL&#45;safe).">
<polygon fill="white" stroke="#666666" points="357.38,-525.75 301.62,-525.75 301.62,-505 357.38,-505 357.38,-525.75"/>
<text text-anchor="middle" x="329.5" y="-512.25" font-family="Helvetica,sans-Serif" font-size="10.00">fnv1a32</text>
</a>
</g>
</g>
<!-- Node5&#45;&gt;Node7 -->
<g id="edge6_Node000005_Node000007" class="edge">
<title>Node5&#45;&gt;Node7</title>
<g id="a_edge6_Node000005_Node000007"><a xlink:title=" ">
<path fill="none" stroke="#63b8ff" d="M205.15,-515.38C232.11,-515.38 265.1,-515.38 290.17,-515.38"/>
<polygon fill="#63b8ff" stroke="#63b8ff" points="289.92,-518.88 299.92,-515.38 289.92,-511.88 289.92,-518.88"/>
</a>
</g>
</g>
<!-- Node9&#45;&gt;Node7 -->
<g id="edge9_Node000009_Node000007" class="edge">
<title>Node9&#45;&gt;Node7</title>
<g id="a_edge9_Node000009_Node000007"><a xlink:title=" ">
<path fill="none" stroke="#63b8ff" d="M204.23,-487.24C231.34,-493.38 264.76,-500.94 290.11,-506.68"/>
<polygon fill="#63b8ff" stroke="#63b8ff" points="289.14,-510.05 299.67,-508.85 290.69,-503.23 289.14,-510.05"/>
</a>
</g>
</g>
<!-- Node10 -->
<g id="Node000010" class="node">
<title>Node10</title>
<g id="a_Node000010"><a xlink:href="ie__kv__instrumentation_8c.html#a27b3df57a37a25798490912b1e92d716" target="_top" xlink:title="Report a produced token to the KV tracker.">
<polygon fill="white" stroke="#666666" points="375.38,-486.75 283.62,-486.75 283.62,-466 375.38,-466 375.38,-486.75"/>
<text text-anchor="middle" x="329.5" y="-473.25" font-family="Helvetica,sans-Serif" font-size="10.00">ie_kv_on_token</text>
</a>
</g>
</g>
<!-- Node9&#45;&gt;Node10 -->
<g id="edge10_Node000009_Node000010" class="edge">
<title>Node9&#45;&gt;Node10</title>
<g id="a_edge10_Node000009_Node000010"><a xlink:title=" ">
<path fill="none" stroke="#63b8ff" d="M211.7,-476.38C230.93,-476.38 252.51,-476.38 271.83,-476.38"/>
<polygon fill="#63b8ff" stroke="#63b8ff" points="271.71,-479.88 281.71,-476.38 271.71,-472.88 271.71,-479.88"/>
</a>
</g>
</g>
<!-- Node13 -->
<g id="Node000013" class="node">
<title>Node13</title>
<g id="a_Node000013"><a xlink:href="ie__api_8c.html#a22d32f0b2752f3aa310c127054b03e22" target="_top" xlink:title="One step of a xorshift64* PRNG (period ≈ 2^64&#45;1).">
<polygon fill="white" stroke="#666666" points="370.88,-447.75 288.12,-447.75 288.12,-427 370.88,-427 370.88,-447.75"/>
<text text-anchor="middle" x="329.5" y="-434.25" font-family="Helvetica,sans-Serif" font-size="10.00">xorshift64star</text>
</a>
</g>
</g>
<!-- Node9&#45;&gt;Node13 -->
<g id="edge13_Node000009_Node000013" class="edge">
<title>Node9&#45;&gt;Node13</title>
<g id="a_edge13_Node000009_Node000013"><a xlink:title=" ">
<path fill="none" stroke="#63b8ff" d="M204.23,-465.51C226.82,-460.4 253.79,-454.29 276.82,-449.08"/>
<polygon fill="#63b8ff" stroke="#63b8ff" points="277.32,-452.55 286.3,-446.93 275.77,-445.72 277.32,-452.55"/>
</a>
</g>
</g>
<!-- Node11 -->
<g id="Node000011" class="node">
<title>Node11</title>
<g id="a_Node000011"><a xlink:href="ie__kv__instrumentation_8c.html#a37bd44541ec645006f436707ca67b407" target="_top" xlink:title="Linear membership test in the FIFO set.">
<polygon fill="white" stroke="#666666" points="521.88,-505.75 447.38,-505.75 447.38,-485 521.88,-485 521.88,-505.75"/>
<text text-anchor="middle" x="484.62" y="-492.25" font-family="Helvetica,sans-Serif" font-size="10.00">kv_contains</text>
</a>
</g>
</g>
<!-- Node10&#45;&gt;Node11 -->
<g id="edge11_Node000010_Node000011" class="edge">
<title>Node10&#45;&gt;Node11</title>
<g id="a_edge11_Node000010_Node000011"><a xlink:title=" ">
<path fill="none" stroke="#63b8ff" d="M375.61,-481.97C394.55,-484.32 416.6,-487.06 435.81,-489.44"/>
<polygon fill="#63b8ff" stroke="#63b8ff" points="435.2,-492.89 445.56,-490.65 436.06,-485.95 435.2,-492.89"/>
</a>
</g>
</g>
<!-- Node12 -->
<g id="Node000012" class="node">
<title>Node12</title>
<g id="a_Node000012"><a xlink:href="ie__kv__instrumentation_8c.html#a83b5153f7145e76551b31ced07063538" target="_top" xlink:title="Insert token into the FIFO set, evicting the oldest if full.">
<polygon fill="white" stroke="#666666" points="525.62,-466.75 443.62,-466.75 443.62,-446 525.62,-446 525.62,-466.75"/>
<text text-anchor="middle" x="484.62" y="-453.25" font-family="Helvetica,sans-Serif" font-size="10.00">kv_insert_fifo</text>
</a>
</g>
</g>
<!-- Node10&#45;&gt;Node12 -->
<g id="edge12_Node000010_Node000012" class="edge">
<title>Node10&#45;&gt;Node12</title>
<g id="a_edge12_Node000010_Node000012"><a xlink:title=" ">
<path fill="none" stroke="#63b8ff" d="M375.61,-470.48C393.28,-468.17 413.66,-465.51 431.92,-463.13"/>
<polygon fill="#63b8ff" stroke="#63b8ff" points="432.3,-466.61 441.76,-461.84 431.39,-459.67 432.3,-466.61"/>
</a>
</g>
</g>
<!-- Node16 -->
<g id="Node000016" class="node">
<title>Node16</title>
<g id="a_Node000016"><a xlink:href="ie__kv__instrumentation_8c.html#a886abd7a4ad752897b4469e29cc344e3" target="_top" xlink:title="Strict&#45;decimal environment reader with fallback.">
<polygon fill="white" stroke="#666666" points="358.88,-408.75 300.12,-408.75 300.12,-388 358.88,-388 358.88,-408.75"/>
<text text-anchor="middle" x="329.5" y="-395.25" font-family="Helvetica,sans-Serif" font-size="10.00">env_size</text>
</a>
</g>
</g>
<!-- Node15&#45;&gt;Node16 -->
<g id="edge16_Node000015_Node000016" class="edge">
<title>Node15&#45;&gt;Node16</title>
<g id="a_edge16_Node000015_Node000016"><a xlink:title=" ">
<path fill="none" stroke="#63b8ff" d="M204.23,-370.24C230.82,-376.26 263.49,-383.65 288.65,-389.35"/>
<polygon fill="#63b8ff" stroke="#63b8ff" points="287.64,-392.71 298.16,-391.51 289.18,-385.88 287.64,-392.71"/>
</a>
</g>
</g>
<!-- Node19 -->
<g id="Node000019" class="node">
<title>Node19</title>
<g id="a_Node000019"><a xlink:href="util__metrics_8c.html#aad9404d49721a4fdd407e2eff25b6489" target="_top" xlink:title="Debug print controlled by IE_DEBUG_RSS=1.">
<polygon fill="white" stroke="#666666" points="346.5,-369.75 312.5,-369.75 312.5,-349 346.5,-349 346.5,-369.75"/>
<text text-anchor="middle" x="329.5" y="-356.25" font-family="Helvetica,sans-Serif" font-size="10.00">dbg</text>
</a>
</g>
</g>
<!-- Node18&#45;&gt;Node19 -->
<g id="edge19_Node000018_Node000019" class="edge">
<title>Node18&#45;&gt;Node19</title>
<g id="a_edge19_Node000018_Node000019"><a xlink:title=" ">
<path fill="none" stroke="#63b8ff" d="M213.6,-292.25C220.63,-294.7 227.52,-297.71 233.75,-301.38 253.79,-313.19 250.17,-326.82 269.75,-339.38 279.24,-345.46 290.78,-349.91 301.12,-353.05"/>
<polygon fill="#63b8ff" stroke="#63b8ff" points="300.07,-356.39 310.64,-355.65 301.92,-349.64 300.07,-356.39"/>
</a>
</g>
</g>
<!-- Node21 -->
<g id="Node000021" class="node">
<title>Node21</title>
<g id="a_Node000021"><a xlink:href="util__metrics_8c.html#a5994eb8315fd500be4501693592b9c5a" target="_top" xlink:title="Round up kB to MiB (ceil), clamped to 32&#45;bit.">
<polygon fill="white" stroke="#666666" points="375.75,-330.75 283.25,-330.75 283.25,-310 375.75,-310 375.75,-330.75"/>
<text text-anchor="middle" x="329.5" y="-317.25" font-family="Helvetica,sans-Serif" font-size="10.00">kib_to_mib_ceil</text>
</a>
</g>
</g>
<!-- Node18&#45;&gt;Node21 -->
<g id="edge21_Node000018_Node000021" class="edge">
<title>Node18&#45;&gt;Node21</title>
<g id="a_edge21_Node000018_Node000021"><a xlink:title=" ">
<path fill="none" stroke="#63b8ff" d="M204.23,-292.24C225.17,-296.98 249.88,-302.57 271.72,-307.52"/>
<polygon fill="#63b8ff" stroke="#63b8ff" points="270.85,-310.91 281.37,-309.71 272.39,-304.08 270.85,-310.91"/>
</a>
</g>
</g>
<!-- Node22 -->
<g id="Node000022" class="node">
<title>Node22</title>
<g id="a_Node000022"><a xlink:href="util__metrics_8c.html#a68100912a526773182982dfe9e401718" target="_top" xlink:title="Grep one numeric (kB) key from a procfs text file.">
<polygon fill="white" stroke="#666666" points="387.38,-291.75 271.62,-291.75 271.62,-271 387.38,-271 387.38,-291.75"/>
<text text-anchor="middle" x="329.5" y="-278.25" font-family="Helvetica,sans-Serif" font-size="10.00">read_proc_kb_single</text>
</a>
</g>
</g>
<!-- Node18&#45;&gt;Node22 -->
<g id="edge22_Node000018_Node000022" class="edge">
<title>Node18&#45;&gt;Node22</title>
<g id="a_edge22_Node000018_Node000022"><a xlink:title=" ">
<path fill="none" stroke="#63b8ff" d="M234.06,-281.38C242.64,-281.38 251.33,-281.38 259.79,-281.38"/>
<polygon fill="#63b8ff" stroke="#63b8ff" points="259.64,-284.88 269.64,-281.38 259.64,-277.88 259.64,-284.88"/>
</a>
</g>
</g>
<!-- Node20 -->
<g id="Node000020" class="node">
<title>Node20</title>
<g id="a_Node000020"><a xlink:href="util__metrics_8c.html#a122cec7f60fc2c07fdfcc3df4032b791" target="_top" xlink:title="Return 1 if the env var name is a truthy flag (1,true,yes,on).">
<polygon fill="white" stroke="#666666" points="513.25,-369.75 456,-369.75 456,-349 513.25,-349 513.25,-369.75"/>
<text text-anchor="middle" x="484.62" y="-356.25" font-family="Helvetica,sans-Serif" font-size="10.00">env_flag</text>
</a>
</g>
</g>
<!-- Node19&#45;&gt;Node20 -->
<g id="edge20_Node000019_Node000020" class="edge">
<title>Node19&#45;&gt;Node20</title>
<g id="a_edge20_Node000019_Node000020"><a xlink:title=" ">
<path fill="none" stroke="#63b8ff" d="M346.89,-359.38C369.94,-359.38 412.66,-359.38 444.24,-359.38"/>
<polygon fill="#63b8ff" stroke="#63b8ff" points="444.22,-362.88 454.22,-359.38 444.22,-355.88 444.22,-362.88"/>
</a>
</g>
</g>
<!-- Node23 -->
<g id="Node000023" class="node">
<title>Node23</title>
<g id="a_Node000023"><a xlink:href="util__metrics_8c.html#a586d223d4a6c80952b53d76d31adccc2" target="_top" xlink:title="Parse integer kB from a &quot;Key: &#160;&#160;12345 kB&quot; style line.">
<polygon fill="white" stroke="#666666" points="544,-291.75 425.25,-291.75 425.25,-271 544,-271 544,-291.75"/>
<text text-anchor="middle" x="484.62" y="-278.25" font-family="Helvetica,sans-Serif" font-size="10.00">parse_status_kb_line</text>
</a>
</g>
</g>
<!-- Node22&#45;&gt;Node23 -->
<g id="edge23_Node000022_Node000023" class="edge">
<title>Node22&#45;&gt;Node23</title>
<g id="a_edge23_Node000022_Node000023"><a xlink:title=" ">
<path fill="none" stroke="#63b8ff" d="M387.52,-281.38C395.97,-281.38 404.77,-281.38 413.45,-281.38"/>
<polygon fill="#63b8ff" stroke="#63b8ff" points="413.25,-284.88 423.25,-281.38 413.25,-277.88 413.25,-284.88"/>
</a>
</g>
</g>
<!-- Node26 -->
<g id="Node000026" class="node">
<title>Node26</title>
<g id="a_Node000026"><a xlink:href="weights_8c.html#ae3307b59271742c37862abf0b9698d23" target="_top" xlink:title=" ">
<polygon fill="white" stroke="#666666" points="503.88,-234.75 465.38,-234.75 465.38,-214 503.88,-214 503.88,-234.75"/>
<text text-anchor="middle" x="484.62" y="-221.25" font-family="Helvetica,sans-Serif" font-size="10.00">cpyz</text>
</a>
</g>
</g>
<!-- Node25&#45;&gt;Node26 -->
<g id="edge26_Node000025_Node000026" class="edge">
<title>Node25&#45;&gt;Node26</title>
<g id="a_edge26_Node000025_Node000026"><a xlink:title=" ">
<path fill="none" stroke="#63b8ff" d="M204.03,-214.22C224.19,-218.28 248,-222.38 269.75,-224.38 335.07,-230.37 412.08,-228.09 453.54,-226.1"/>
<polygon fill="#63b8ff" stroke="#63b8ff" points="453.66,-229.6 463.47,-225.59 453.3,-222.61 453.66,-229.6"/>
</a>
</g>
</g>
<!-- Node27 -->
<g id="Node000027" class="node">
<title>Node27</title>
<g id="a_Node000027"><a xlink:href="weights_8c.html#a7bb1dd9958b072fc5d1a80373cc074ff" target="_top" xlink:title=" ">
<polygon fill="white" stroke="#666666" points="360,-215.75 299,-215.75 299,-195 360,-195 360,-215.75"/>
<text text-anchor="middle" x="329.5" y="-202.25" font-family="Helvetica,sans-Serif" font-size="10.00">join_path</text>
</a>
</g>
</g>
<!-- Node25&#45;&gt;Node27 -->
<g id="edge27_Node000025_Node000027" class="edge">
<title>Node25&#45;&gt;Node27</title>
<g id="a_edge27_Node000025_Node000027"><a xlink:title=" ">
<path fill="none" stroke="#63b8ff" d="M204.23,-203.93C230.36,-204.24 262.35,-204.61 287.33,-204.9"/>
<polygon fill="#63b8ff" stroke="#63b8ff" points="287.07,-208.39 297.11,-205.01 287.15,-201.39 287.07,-208.39"/>
</a>
</g>
</g>
<!-- Node28 -->
<g id="Node000028" class="node">
<title>Node28</title>
<g id="a_Node000028"><a xlink:href="weights_8c.html#a7415d89bc8bd657819e06ac0fc53da95" target="_top" xlink:title=" ">
<polygon fill="white" stroke="#666666" points="361.88,-176.75 297.12,-176.75 297.12,-156 361.88,-156 361.88,-176.75"/>
<text text-anchor="middle" x="329.5" y="-163.25" font-family="Helvetica,sans-Serif" font-size="10.00">last_slash</text>
</a>
</g>
</g>
<!-- Node25&#45;&gt;Node28 -->
<g id="edge29_Node000025_Node000028" class="edge">
<title>Node25&#45;&gt;Node28</title>
<g id="a_edge29_Node000025_Node000028"><a xlink:title=" ">
<path fill="none" stroke="#63b8ff" d="M204.23,-193.07C229.75,-187.59 260.88,-180.9 285.59,-175.59"/>
<polygon fill="#63b8ff" stroke="#63b8ff" points="286.28,-179.02 295.33,-173.5 284.81,-172.18 286.28,-179.02"/>
</a>
</g>
</g>
<!-- Node29 -->
<g id="Node000029" class="node">
<title>Node29</title>
<g id="a_Node000029"><a xlink:href="weights_8c.html#a7d467c1ab0baceed9b0fdad7b5a8accf" target="_top" xlink:title=" ">
<polygon fill="white" stroke="#666666" points="369.38,-137.75 289.62,-137.75 289.62,-117 369.38,-117 369.38,-137.75"/>
<text text-anchor="middle" x="329.5" y="-124.25" font-family="Helvetica,sans-Serif" font-size="10.00">read_all_text</text>
</a>
</g>
</g>
<!-- Node25&#45;&gt;Node29 -->
<g id="edge30_Node000025_Node000029" class="edge">
<title>Node25&#45;&gt;Node29</title>
<g id="a_edge30_Node000025_Node000029"><a xlink:title=" ">
<path fill="none" stroke="#63b8ff" d="M204.53,-195.16C214.58,-192.3 224.82,-188.48 233.75,-183.38 253.4,-172.15 250.54,-159.33 269.75,-147.38 272.67,-145.55 275.78,-143.88 278.99,-142.34"/>
<polygon fill="#63b8ff" stroke="#63b8ff" points="280.22,-145.61 288.04,-138.46 277.47,-139.18 280.22,-145.61"/>
</a>
</g>
</g>
<!-- Node30 -->
<g id="Node000030" class="node">
<title>Node30</title>
<g id="a_Node000030"><a xlink:href="weights_8c.html#a5c6ba72035c0c5110c91879350c8647f" target="_top" xlink:title=" ">
<polygon fill="white" stroke="#666666" points="381.75,-98.75 277.25,-98.75 277.25,-78 381.75,-78 381.75,-98.75"/>
<text text-anchor="middle" x="329.5" y="-85.25" font-family="Helvetica,sans-Serif" font-size="10.00">scan_json_key_int</text>
</a>
</g>
</g>
<!-- Node25&#45;&gt;Node30 -->
<g id="edge31_Node000025_Node000030" class="edge">
<title>Node25&#45;&gt;Node30</title>
<g id="a_edge31_Node000025_Node000030"><a xlink:title=" ">
<path fill="none" stroke="#63b8ff" d="M204.41,-197.79C214.91,-194.8 225.38,-190.26 233.75,-183.38 262.32,-159.9 242.09,-132.91 269.75,-108.38 271.19,-107.1 272.72,-105.9 274.31,-104.78"/>
<polygon fill="#63b8ff" stroke="#63b8ff" points="275.81,-107.95 282.71,-99.91 272.3,-101.89 275.81,-107.95"/>
</a>
</g>
</g>
<!-- Node31 -->
<g id="Node000031" class="node">
<title>Node31</title>
<g id="a_Node000031"><a xlink:href="weights_8c.html#a3c438658d11f74ba4af8273c7e390311" target="_top" xlink:title=" ">
<polygon fill="white" stroke="#666666" points="389.25,-59.75 269.75,-59.75 269.75,-39 389.25,-39 389.25,-59.75"/>
<text text-anchor="middle" x="329.5" y="-46.25" font-family="Helvetica,sans-Serif" font-size="10.00">scan_json_key_string</text>
</a>
</g>
</g>
<!-- Node25&#45;&gt;Node31 -->
<g id="edge32_Node000025_Node000031" class="edge">
<title>Node25&#45;&gt;Node31</title>
<g id="a_edge32_Node000025_Node000031"><a xlink:title=" ">
<path fill="none" stroke="#63b8ff" d="M204.34,-198.86C215.09,-195.84 225.68,-191.02 233.75,-183.38 272.31,-146.82 232.6,-107.36 269.75,-69.38 270.77,-68.34 271.84,-67.35 272.96,-66.41"/>
<polygon fill="#63b8ff" stroke="#63b8ff" points="274.67,-69.48 281.07,-61.04 270.8,-63.65 274.67,-69.48"/>
</a>
</g>
</g>
<!-- Node27&#45;&gt;Node26 -->
<g id="edge28_Node000027_Node000026" class="edge">
<title>Node27&#45;&gt;Node26</title>
<g id="a_edge28_Node000027_Node000026"><a xlink:title=" ">
<path fill="none" stroke="#63b8ff" d="M360.39,-209.08C387.38,-212.43 426.88,-217.33 453.84,-220.68"/>
<polygon fill="#63b8ff" stroke="#63b8ff" points="453.05,-224.11 463.4,-221.87 453.91,-217.16 453.05,-224.11"/>
</a>
</g>
</g>
<!-- Node33 -->
<g id="Node000033" class="node">
<title>Node33</title>
<g id="a_Node000033"><a xlink:href="weights_8c.html#aabb19f4a5e5385962c6db57f611bb785" target="_top" xlink:title=" ">
<polygon fill="white" stroke="#666666" points="358.5,-20.75 300.5,-20.75 300.5,0 358.5,0 358.5,-20.75"/>
<text text-anchor="middle" x="329.5" y="-7.25" font-family="Helvetica,sans-Serif" font-size="10.00">ie_pread</text>
</a>
</g>
</g>
<!-- Node32&#45;&gt;Node33 -->
<g id="edge34_Node000032_Node000033" class="edge">
<title>Node32&#45;&gt;Node33</title>
<g id="a_edge34_Node000032_Node000033"><a xlink:title=" ">
<path fill="none" stroke="#63b8ff" d="M205.95,-159.39C216.14,-156.36 226.09,-151.64 233.75,-144.38 272.31,-107.82 232.6,-68.36 269.75,-30.38 275.17,-24.84 282.17,-20.83 289.45,-17.94"/>
<polygon fill="#63b8ff" stroke="#63b8ff" points="290.3,-21.34 298.71,-14.91 288.12,-14.69 290.3,-21.34"/>
</a>
</g>
</g>
<!-- Node35&#45;&gt;Node2 -->
<g id="edge37_Node000035_Node000002" class="edge">
<title>Node35&#45;&gt;Node2</title>
<g id="a_edge37_Node000035_Node000002"><a xlink:title=" ">
<path fill="none" stroke="#63b8ff" d="M175.13,-643.09C197.33,-655.44 235.51,-675.89 269.75,-690.38 275.92,-692.98 282.55,-695.5 289.06,-697.83"/>
<polygon fill="#63b8ff" stroke="#63b8ff" points="287.78,-701.08 298.37,-701.03 290.06,-694.47 287.78,-701.08"/>
</a>
</g>
</g>
<!-- Node36 -->
<g id="Node000036" class="node">
<title>Node36</title>
<g id="a_Node000036"><a xlink:href="main__infer_8c.html#a25c42477bc56f4eb2d2a5c53e4510d70" target="_top" xlink:title="Initialize a cli_extras_t with default values.">
<polygon fill="white" stroke="#666666" points="383.62,-681.75 275.38,-681.75 275.38,-661 383.62,-661 383.62,-681.75"/>
<text text-anchor="middle" x="329.5" y="-668.25" font-family="Helvetica,sans-Serif" font-size="10.00">cli_extras_defaults</text>
</a>
</g>
</g>
<!-- Node35&#45;&gt;Node36 -->
<g id="edge38_Node000035_Node000036" class="edge">
<title>Node35&#45;&gt;Node36</title>
<g id="a_edge38_Node000035_Node000036"><a xlink:title=" ">
<path fill="none" stroke="#63b8ff" d="M191.11,-640.27C213.64,-645.37 243.54,-652.14 269.69,-658.06"/>
<polygon fill="#63b8ff" stroke="#63b8ff" points="268.64,-661.41 279.16,-660.2 270.18,-654.58 268.64,-661.41"/>
</a>
</g>
</g>
<!-- Node37 -->
<g id="Node000037" class="node">
<title>Node37</title>
<g id="a_Node000037"><a xlink:href="main__infer_8c.html#a42cabe54dce1190125a12e4c0360ce22" target="_top" xlink:title="Convert a string to long with strict validation; exits with code 2 on failure.">
<polygon fill="white" stroke="#666666" points="360,-642.75 299,-642.75 299,-622 360,-622 360,-642.75"/>
<text text-anchor="middle" x="329.5" y="-629.25" font-family="Helvetica,sans-Serif" font-size="10.00">safe_atoi</text>
</a>
</g>
</g>
<!-- Node35&#45;&gt;Node37 -->
<g id="edge39_Node000035_Node000037" class="edge">
<title>Node35&#45;&gt;Node37</title>
<g id="a_edge39_Node000035_Node000037"><a xlink:title=" ">
<path fill="none" stroke="#63b8ff" d="M191.11,-632.38C218.97,-632.38 258.07,-632.38 287.45,-632.38"/>
<polygon fill="#63b8ff" stroke="#63b8ff" points="287.07,-635.88 297.07,-632.38 287.07,-628.88 287.07,-635.88"/>
</a>
</g>
</g>
<!-- Node38 -->
<g id="Node000038" class="node">
<title>Node38</title>
<g id="a_Node000038"><a xlink:href="main__infer_8c.html#ad96d407a911fbb914fa8e4cfbf2faf0f" target="_top" xlink:title="Print CLI usage information to stderr.">
<polygon fill="white" stroke="#666666" points="352.12,-603.75 306.88,-603.75 306.88,-583 352.12,-583 352.12,-603.75"/>
<text text-anchor="middle" x="329.5" y="-590.25" font-family="Helvetica,sans-Serif" font-size="10.00">usage</text>
</a>
</g>
</g>
<!-- Node35&#45;&gt;Node38 -->
<g id="edge40_Node000035_Node000038" class="edge">
<title>Node35&#45;&gt;Node38</title>
<g id="a_edge40_Node000035_Node000038"><a xlink:title=" ">
<path fill="none" stroke="#63b8ff" d="M191.11,-624.48C221.57,-617.59 265.48,-607.64 295.41,-600.87"/>
<polygon fill="#63b8ff" stroke="#63b8ff" points="296.07,-604.31 305.05,-598.69 294.52,-597.48 296.07,-604.31"/>
</a>
</g>
</g>
</g>
</svg>

<g id="navigator" transform="translate(0 0)" fill="#404254">
  <rect fill="#f2f5e9" fill-opacity="0.5" stroke="#606060" stroke-width=".5" x="0" y="0" width="60" height="60"/>
  <use id="zoomplus" xlink:href="#zoomPlus" x="17" y="9" onmousedown="handleZoom(evt,'in')"/>
  <use id="zoomminus" xlink:href="#zoomMin" x="42" y="9" onmousedown="handleZoom(evt,'out')"/>
  <use id="reset" xlink:href="#resetDef" x="30" y="36" onmousedown="handleReset()"/>
   <use id="arrowup" xlink:href="#arrowUp" x="0" y="0" onmousedown="handlePan(0,-1)"/>
  <use id="arrowright" xlink:href="#arrowRight" x="0" y="0" onmousedown="handlePan(1,0)"/>
  <use id="arrowdown" xlink:href="#arrowDown" x="0" y="0" onmousedown="handlePan(0,1)"/>
  <use id="arrowleft" xlink:href="#arrowLeft" x="0" y="0" onmousedown="handlePan(-1,0)"/>
</g>
<svg viewBox="0 0 15 15" width="100%" height="30px" preserveAspectRatio="xMaxYMin meet">
 <g id="arrow_out" transform="scale(0.3 0.3)">
  <a xlink:href="main__infer_8c_a3c04138a5bfe5d72780bb7e82a18e627_cgraph_org.svg" target="_base">
   <rect id="button" ry="5" rx="5" y="6" x="6" height="38" width="38"
        fill="#f2f5e9" fill-opacity="0.5" stroke="#606060" stroke-width="1.0"/>
   <path id="arrow"
     d="M 11.500037,31.436501 C 11.940474,20.09759 22.043105,11.32322 32.158766,21.979434 L 37.068811,17.246167 C 37.068811,17.246167 37.088388,32 37.088388,32 L 22.160133,31.978069 C 22.160133,31.978069 26.997745,27.140456 26.997745,27.140456 C 18.528582,18.264221 13.291696,25.230495 11.500037,31.436501 z"
     style="fill:#404040;"/>
  </a>
 </g>
</svg>

<style type='text/css'>
<![CDATA[
[data-mouse-over-selected='false'] { opacity: 0.7; }
[data-mouse-over-selected='true']  { opacity: 1.0; }
]]>
</style>
<script type="application/ecmascript"><![CDATA[
document.addEventListener('DOMContentLoaded', (event) => {
  highlightEdges();
  highlightAdjacentNodes();
});
]]></script>
</svg>
