<?xml version="1.0" encoding="UTF-8" standalone="no"?>
<!DOCTYPE svg PUBLIC "-//W3C//DTD SVG 1.1//EN"
 "http://www.w3.org/Graphics/SVG/1.1/DTD/svg11.dtd">
<!-- Generated by graphviz version 2.43.0 (0)
 -->
<!-- Title: ascii_ieq Pages: 1 -->
<svg width="271pt" height="140pt"
 viewBox="0.00 0.00 271.00 140.00" xmlns="http://www.w3.org/2000/svg" xmlns:xlink="http://www.w3.org/1999/xlink">

<svg id="main" version="1.1" xmlns="http://www.w3.org/2000/svg" xmlns:xlink="http://www.w3.org/1999/xlink" xml:space="preserve" onload="init(evt)">
<style type="text/css"><![CDATA[
.node, .edge {opacity: 0.7;}
.node.selected, .edge.selected {opacity: 1;}
.edge:hover path { stroke: red; }
.edge:hover polygon { stroke: red; fill: red; }
]]></style>
<script type="application/ecmascript" xlink:href="svg.min.js"/>
<svg id="graph" class="graph">
<g id="graph0" class="graph" transform="scale(1 1) rotate(0) translate(4 136)">
<title>ascii_ieq</title>
<!-- Node1 -->
<g id="Node000001" class="node">
<title>Node1</title>
<g id="a_Node000001"><a xlink:title="Case&#45;insensitive ASCII equality.">
<polygon fill="#999999" stroke="#666666" points="263,-75 204,-75 204,-56 263,-56 263,-75"/>
<text text-anchor="middle" x="233.5" y="-63" font-family="Helvetica,sans-Serif" font-size="10.00">ascii_ieq</text>
</a>
</g>
</g>
<!-- Node2 -->
<g id="Node000002" class="node">
<title>Node2</title>
<g id="a_Node000002"><a xlink:href="main__infer_8c.html#ae26c03bc6150b42f62a01df020935733" target="_top" xlink:title="Check whether device string selects CPU.">
<polygon fill="white" stroke="#666666" points="165,-132 80,-132 80,-113 165,-113 165,-132"/>
<text text-anchor="middle" x="122.5" y="-120" font-family="Helvetica,sans-Serif" font-size="10.00">device_is_cpu</text>
</a>
</g>
</g>
<!-- Node1&#45;&gt;Node2 -->
<g id="edge1_Node000001_Node000002" class="edge">
<title>Node1&#45;&gt;Node2</title>
<g id="a_edge1_Node000001_Node000002"><a xlink:title=" ">
<path fill="none" stroke="#63b8ff" d="M205.13,-79.81C185.3,-90.18 159.03,-103.92 141.72,-112.97"/>
<polygon fill="#63b8ff" stroke="#63b8ff" points="206.77,-82.9 214.01,-75.17 203.53,-76.7 206.77,-82.9"/>
</a>
</g>
</g>
<!-- Node3 -->
<g id="Node000003" class="node">
<title>Node3</title>
<g id="a_Node000003"><a xlink:href="main__infer_8c.html#a3c04138a5bfe5d72780bb7e82a18e627" target="_top" xlink:title="main.">
<polygon fill="white" stroke="#666666" points="41,-75 0,-75 0,-56 41,-56 41,-75"/>
<text text-anchor="middle" x="20.5" y="-63" font-family="Helvetica,sans-Serif" font-size="10.00">main</text>
</a>
</g>
</g>
<!-- Node1&#45;&gt;Node3 -->
<g id="edge5_Node000001_Node000003" class="edge">
<title>Node1&#45;&gt;Node3</title>
<g id="a_edge5_Node000001_Node000003"><a xlink:title=" ">
<path fill="none" stroke="#63b8ff" d="M193.6,-65.5C148.51,-65.5 75.95,-65.5 41.24,-65.5"/>
<polygon fill="#63b8ff" stroke="#63b8ff" points="193.6,-69 203.6,-65.5 193.6,-62 193.6,-69"/>
</a>
</g>
</g>
<!-- Node4 -->
<g id="Node000004" class="node">
<title>Node4</title>
<g id="a_Node000004"><a xlink:href="main__infer_8c.html#a43b384fdf1f1e4cc7304e6164461af44" target="_top" xlink:title="Check whether device string selects CUDA.">
<polygon fill="white" stroke="#666666" points="168,-56 77,-56 77,-37 168,-37 168,-56"/>
<text text-anchor="middle" x="122.5" y="-44" font-family="Helvetica,sans-Serif" font-size="10.00">device_is_cuda</text>
</a>
</g>
</g>
<!-- Node1&#45;&gt;Node4 -->
<g id="edge3_Node000001_Node000004" class="edge">
<title>Node1&#45;&gt;Node4</title>
<g id="a_edge3_Node000001_Node000004"><a xlink:title=" ">
<path fill="none" stroke="#63b8ff" d="M193.79,-58.75C185.57,-57.32 176.82,-55.8 168.39,-54.33"/>
<polygon fill="#63b8ff" stroke="#63b8ff" points="193.41,-62.24 203.86,-60.51 194.61,-55.34 193.41,-62.24"/>
</a>
</g>
</g>
<!-- Node5 -->
<g id="Node000005" class="node">
<title>Node5</title>
<g id="a_Node000005"><a xlink:href="main__infer_8c.html#a456ba954f3884bcf5f72fc3e779de284" target="_top" xlink:title="Parse CLI flags into cli_extras_t.">
<polygon fill="white" stroke="#666666" points="158.5,-19 86.5,-19 86.5,0 158.5,0 158.5,-19"/>
<text text-anchor="middle" x="122.5" y="-7" font-family="Helvetica,sans-Serif" font-size="10.00">parse_flags</text>
</a>
</g>
</g>
<!-- Node1&#45;&gt;Node5 -->
<g id="edge6_Node000001_Node000005" class="edge">
<title>Node1&#45;&gt;Node5</title>
<g id="a_edge6_Node000001_Node000005"><a xlink:title=" ">
<path fill="none" stroke="#63b8ff" d="M207.99,-50.54C196.1,-43.51 181.49,-35.22 168,-28.5 161.38,-25.2 154.06,-21.93 147.29,-19.05"/>
<polygon fill="#63b8ff" stroke="#63b8ff" points="206.5,-53.72 216.88,-55.85 210.09,-47.71 206.5,-53.72"/>
</a>
</g>
</g>
<!-- Node2&#45;&gt;Node3 -->
<g id="edge2_Node000002_Node000003" class="edge">
<title>Node2&#45;&gt;Node3</title>
<g id="a_edge2_Node000002_Node000003"><a xlink:title=" ">
<path fill="none" stroke="#63b8ff" d="M94.04,-107.92C88.38,-104.85 82.48,-101.6 77,-98.5 63.54,-90.87 48.46,-81.88 37.43,-75.21"/>
<polygon fill="#63b8ff" stroke="#63b8ff" points="92.75,-111.21 103.22,-112.86 96.07,-105.04 92.75,-111.21"/>
</a>
</g>
</g>
<!-- Node4&#45;&gt;Node3 -->
<g id="edge4_Node000004_Node000003" class="edge">
<title>Node4&#45;&gt;Node3</title>
<g id="a_edge4_Node000004_Node000003"><a xlink:title=" ">
<path fill="none" stroke="#63b8ff" d="M66.78,-56.9C57.61,-58.64 48.65,-60.34 41.15,-61.77"/>
<polygon fill="#63b8ff" stroke="#63b8ff" points="67.59,-60.3 76.76,-55 66.29,-53.43 67.59,-60.3"/>
</a>
</g>
</g>
<!-- Node5&#45;&gt;Node3 -->
<g id="edge7_Node000005_Node000003" class="edge">
<title>Node5&#45;&gt;Node3</title>
<g id="a_edge7_Node000005_Node000003"><a xlink:title=" ">
<path fill="none" stroke="#63b8ff" d="M87.33,-23.32C83.8,-24.98 80.3,-26.72 77,-28.5 61.72,-36.76 45.29,-48.05 34.31,-55.97"/>
<polygon fill="#63b8ff" stroke="#63b8ff" points="88.94,-26.44 96.63,-19.16 86.08,-20.05 88.94,-26.44"/>
</a>
</g>
</g>
</g>
</svg>
</svg>

<style type='text/css'>
<![CDATA[
[data-mouse-over-selected='false'] { opacity: 0.7; }
[data-mouse-over-selected='true']  { opacity: 1.0; }
]]>
</style>
<script type="application/ecmascript"><![CDATA[
document.addEventListener('DOMContentLoaded', (event) => {
  highlightEdges();
  highlightAdjacentNodes();
});
]]></script>
</svg>
