<?xml version="1.0" encoding="UTF-8" standalone="no"?>
<!DOCTYPE svg PUBLIC "-//W3C//DTD SVG 1.1//EN"
 "http://www.w3.org/Graphics/SVG/1.1/DTD/svg11.dtd">
<!-- Generated by graphviz version 2.43.0 (0)
 -->
<!-- Title: engine/src/main_chat.c Pages: 1 -->
<svg width="552pt" height="137pt"
 viewBox="0.00 0.00 552.00 137.00" xmlns="http://www.w3.org/2000/svg" xmlns:xlink="http://www.w3.org/1999/xlink">
<g id="graph0" class="graph" transform="scale(1 1) rotate(0) translate(4 133)">
<title>engine/src/main_chat.c</title>
<!-- Node1 -->
<g id="Node000001" class="node">
<title>Node1</title>
<g id="a_Node000001"><a xlink:title="Interactive CLI for tokenizer validation and (later) text generation.">
<polygon fill="#999999" stroke="#666666" points="269,-129 140,-129 140,-110 269,-110 269,-129"/>
<text text-anchor="middle" x="204.5" y="-117" font-family="Helvetica,sans-Serif" font-size="10.00">engine/src/main_chat.c</text>
</a>
</g>
</g>
<!-- Node2 -->
<g id="Node000002" class="node">
<title>Node2</title>
<g id="a_Node000002"><a xlink:title=" ">
<polygon fill="#e0e0e0" stroke="#999999" points="53,-74 0,-74 0,-55 53,-55 53,-74"/>
<text text-anchor="middle" x="26.5" y="-62" font-family="Helvetica,sans-Serif" font-size="10.00">ctype.h</text>
</a>
</g>
</g>
<!-- Node1&#45;&gt;Node2 -->
<g id="edge1_Node000001_Node000002" class="edge">
<title>Node1&#45;&gt;Node2</title>
<g id="a_edge1_Node000001_Node000002"><a xlink:title=" ">
<path fill="none" stroke="#63b8ff" d="M175.9,-109.98C145.26,-100.86 96.55,-86.36 63.13,-76.41"/>
<polygon fill="#63b8ff" stroke="#63b8ff" points="63.86,-72.97 53.28,-73.47 61.87,-79.68 63.86,-72.97"/>
</a>
</g>
</g>
<!-- Node3 -->
<g id="Node000003" class="node">
<title>Node3</title>
<g id="a_Node000003"><a xlink:title=" ">
<polygon fill="#e0e0e0" stroke="#999999" points="222,-19 169,-19 169,0 222,0 222,-19"/>
<text text-anchor="middle" x="195.5" y="-7" font-family="Helvetica,sans-Serif" font-size="10.00">stdint.h</text>
</a>
</g>
</g>
<!-- Node1&#45;&gt;Node3 -->
<g id="edge2_Node000001_Node000003" class="edge">
<title>Node1&#45;&gt;Node3</title>
<g id="a_edge2_Node000001_Node000003"><a xlink:title=" ">
<path fill="none" stroke="#63b8ff" d="M155.65,-109.95C135,-103.65 112.88,-92.77 100.5,-74 82.85,-47.25 125.31,-28.97 159.04,-19.13"/>
<polygon fill="#63b8ff" stroke="#63b8ff" points="160,-22.49 168.71,-16.46 158.14,-15.75 160,-22.49"/>
</a>
</g>
</g>
<!-- Node4 -->
<g id="Node000004" class="node">
<title>Node4</title>
<g id="a_Node000004"><a xlink:title=" ">
<polygon fill="#e0e0e0" stroke="#999999" points="159.5,-74 109.5,-74 109.5,-55 159.5,-55 159.5,-74"/>
<text text-anchor="middle" x="134.5" y="-62" font-family="Helvetica,sans-Serif" font-size="10.00">stdio.h</text>
</a>
</g>
</g>
<!-- Node1&#45;&gt;Node4 -->
<g id="edge3_Node000001_Node000004" class="edge">
<title>Node1&#45;&gt;Node4</title>
<g id="a_edge3_Node000001_Node000004"><a xlink:title=" ">
<path fill="none" stroke="#63b8ff" d="M193.25,-109.98C182.7,-102 166.7,-89.88 154.06,-80.31"/>
<polygon fill="#63b8ff" stroke="#63b8ff" points="156.04,-77.42 145.95,-74.17 151.81,-83 156.04,-77.42"/>
</a>
</g>
</g>
<!-- Node5 -->
<g id="Node000005" class="node">
<title>Node5</title>
<g id="a_Node000005"><a xlink:title=" ">
<polygon fill="#e0e0e0" stroke="#999999" points="231,-74 178,-74 178,-55 231,-55 231,-74"/>
<text text-anchor="middle" x="204.5" y="-62" font-family="Helvetica,sans-Serif" font-size="10.00">stdlib.h</text>
</a>
</g>
</g>
<!-- Node1&#45;&gt;Node5 -->
<g id="edge4_Node000001_Node000005" class="edge">
<title>Node1&#45;&gt;Node5</title>
<g id="a_edge4_Node000001_Node000005"><a xlink:title=" ">
<path fill="none" stroke="#63b8ff" d="M204.5,-109.75C204.5,-102.8 204.5,-92.85 204.5,-84.13"/>
<polygon fill="#63b8ff" stroke="#63b8ff" points="208,-84.09 204.5,-74.09 201,-84.09 208,-84.09"/>
</a>
</g>
</g>
<!-- Node6 -->
<g id="Node000006" class="node">
<title>Node6</title>
<g id="a_Node000006"><a xlink:title=" ">
<polygon fill="#e0e0e0" stroke="#999999" points="302,-74 249,-74 249,-55 302,-55 302,-74"/>
<text text-anchor="middle" x="275.5" y="-62" font-family="Helvetica,sans-Serif" font-size="10.00">string.h</text>
</a>
</g>
</g>
<!-- Node1&#45;&gt;Node6 -->
<g id="edge5_Node000001_Node000006" class="edge">
<title>Node1&#45;&gt;Node6</title>
<g id="a_edge5_Node000001_Node000006"><a xlink:title=" ">
<path fill="none" stroke="#63b8ff" d="M215.91,-109.98C226.61,-102 242.84,-89.88 255.66,-80.31"/>
<polygon fill="#63b8ff" stroke="#63b8ff" points="257.97,-82.96 263.89,-74.17 253.78,-77.35 257.97,-82.96"/>
</a>
</g>
</g>
<!-- Node7 -->
<g id="Node000007" class="node">
<title>Node7</title>
<g id="a_Node000007"><a xlink:href="util__logging_8h.html" target="_top" xlink:title="Minimal logging interface (printf&#45;style), used by CLI and tests.">
<polygon fill="white" stroke="#666666" points="544,-74 461,-74 461,-55 544,-55 544,-74"/>
<text text-anchor="middle" x="502.5" y="-62" font-family="Helvetica,sans-Serif" font-size="10.00">util_logging.h</text>
</a>
</g>
</g>
<!-- Node1&#45;&gt;Node7 -->
<g id="edge6_Node000001_Node000007" class="edge">
<title>Node1&#45;&gt;Node7</title>
<g id="a_edge6_Node000001_Node000007"><a xlink:title=" ">
<path fill="none" stroke="#63b8ff" d="M252.38,-109.98C306.74,-100.32 395.12,-84.6 450.96,-74.67"/>
<polygon fill="#63b8ff" stroke="#63b8ff" points="451.76,-78.08 460.99,-72.88 450.53,-71.19 451.76,-78.08"/>
</a>
</g>
</g>
<!-- Node9 -->
<g id="Node000009" class="node">
<title>Node9</title>
<g id="a_Node000009"><a xlink:href="ie__tokenizer__gptoss_8h.html" target="_top" xlink:title="GPT&#45;OSS tokenizer loader + encode/decode for:">
<polygon fill="white" stroke="#666666" points="442.5,-74 320.5,-74 320.5,-55 442.5,-55 442.5,-74"/>
<text text-anchor="middle" x="381.5" y="-62" font-family="Helvetica,sans-Serif" font-size="10.00">ie_tokenizer_gptoss.h</text>
</a>
</g>
</g>
<!-- Node1&#45;&gt;Node9 -->
<g id="edge8_Node000001_Node000009" class="edge">
<title>Node1&#45;&gt;Node9</title>
<g id="a_edge8_Node000001_Node000009"><a xlink:title=" ">
<path fill="none" stroke="#63b8ff" d="M232.94,-109.98C262.78,-101.05 309.88,-86.94 343.03,-77.02"/>
<polygon fill="#63b8ff" stroke="#63b8ff" points="344.26,-80.3 352.84,-74.08 342.26,-73.6 344.26,-80.3"/>
</a>
</g>
</g>
<!-- Node8 -->
<g id="Node000008" class="node">
<title>Node8</title>
<g id="a_Node000008"><a xlink:title=" ">
<polygon fill="#e0e0e0" stroke="#999999" points="530.5,-19 474.5,-19 474.5,0 530.5,0 530.5,-19"/>
<text text-anchor="middle" x="502.5" y="-7" font-family="Helvetica,sans-Serif" font-size="10.00">stdarg.h</text>
</a>
</g>
</g>
<!-- Node7&#45;&gt;Node8 -->
<g id="edge7_Node000007_Node000008" class="edge">
<title>Node7&#45;&gt;Node8</title>
<g id="a_edge7_Node000007_Node000008"><a xlink:title=" ">
<path fill="none" stroke="#63b8ff" d="M502.5,-54.75C502.5,-47.8 502.5,-37.85 502.5,-29.13"/>
<polygon fill="#63b8ff" stroke="#63b8ff" points="506,-29.09 502.5,-19.09 499,-29.09 506,-29.09"/>
</a>
</g>
</g>
<!-- Node9&#45;&gt;Node3 -->
<g id="edge10_Node000009_Node000003" class="edge">
<title>Node9&#45;&gt;Node3</title>
<g id="a_edge10_Node000009_Node000003"><a xlink:title=" ">
<path fill="none" stroke="#63b8ff" d="M351.62,-54.98C319.09,-45.72 267.06,-30.89 232.11,-20.93"/>
<polygon fill="#63b8ff" stroke="#63b8ff" points="232.87,-17.51 222.29,-18.13 230.95,-24.24 232.87,-17.51"/>
</a>
</g>
</g>
<!-- Node10 -->
<g id="Node000010" class="node">
<title>Node10</title>
<g id="a_Node000010"><a xlink:title=" ">
<polygon fill="#e0e0e0" stroke="#999999" points="409.5,-19 353.5,-19 353.5,0 409.5,0 409.5,-19"/>
<text text-anchor="middle" x="381.5" y="-7" font-family="Helvetica,sans-Serif" font-size="10.00">stddef.h</text>
</a>
</g>
</g>
<!-- Node9&#45;&gt;Node10 -->
<g id="edge9_Node000009_Node000010" class="edge">
<title>Node9&#45;&gt;Node10</title>
<g id="a_edge9_Node000009_Node000010"><a xlink:title=" ">
<path fill="none" stroke="#63b8ff" d="M381.5,-54.75C381.5,-47.8 381.5,-37.85 381.5,-29.13"/>
<polygon fill="#63b8ff" stroke="#63b8ff" points="385,-29.09 381.5,-19.09 378,-29.09 385,-29.09"/>
</a>
</g>
</g>
</g>
</svg>
