<?xml version="1.0" encoding="UTF-8" standalone="no"?>
<!DOCTYPE svg PUBLIC "-//W3C//DTD SVG 1.1//EN"
 "http://www.w3.org/Graphics/SVG/1.1/DTD/svg11.dtd">
<!-- Generated by graphviz version 2.43.0 (0)
 -->
<!-- Title: engine/src/main_infer.c Pages: 1 -->
<svg width="1273pt" height="196pt"
 viewBox="0.00 0.00 1273.00 196.00" xmlns="http://www.w3.org/2000/svg" xmlns:xlink="http://www.w3.org/1999/xlink">
<g id="graph0" class="graph" transform="scale(1 1) rotate(0) translate(4 192)">
<title>engine/src/main_infer.c</title>
<!-- Node1 -->
<g id="node1" class="node">
<title>Node1</title>
<g id="a_node1"><a xlink:title="CLI entry point for the inference engine (benchmark&#45;friendly).">
<polygon fill="#bfbfbf" stroke="black" points="510.5,-168.5 510.5,-187.5 640.5,-187.5 640.5,-168.5 510.5,-168.5"/>
<text text-anchor="middle" x="575.5" y="-175.5" font-family="Helvetica,sans-Serif" font-size="10.00">engine/src/main_infer.c</text>
</a>
</g>
</g>
<!-- Node2 -->
<g id="node2" class="node">
<title>Node2</title>
<g id="a_node2"><a xlink:title=" ">
<polygon fill="none" stroke="#bfbfbf" points="0,-112.5 0,-131.5 51,-131.5 51,-112.5 0,-112.5"/>
<text text-anchor="middle" x="25.5" y="-119.5" font-family="Helvetica,sans-Serif" font-size="10.00">errno.h</text>
</a>
</g>
</g>
<!-- Node1&#45;&gt;Node2 -->
<g id="edge1" class="edge">
<title>Node1&#45;&gt;Node2</title>
<path fill="none" stroke="midnightblue" d="M510.28,-174.9C413.84,-171.01 227.52,-160.46 60.95,-131.98"/>
<polygon fill="midnightblue" stroke="midnightblue" points="61.47,-128.52 51.02,-130.26 60.27,-135.42 61.47,-128.52"/>
</g>
<!-- Node3 -->
<g id="node3" class="node">
<title>Node3</title>
<g id="a_node3"><a xlink:title=" ">
<polygon fill="none" stroke="#bfbfbf" points="69,-112.5 69,-131.5 116,-131.5 116,-112.5 69,-112.5"/>
<text text-anchor="middle" x="92.5" y="-119.5" font-family="Helvetica,sans-Serif" font-size="10.00">fcntl.h</text>
</a>
</g>
</g>
<!-- Node1&#45;&gt;Node3 -->
<g id="edge2" class="edge">
<title>Node1&#45;&gt;Node3</title>
<path fill="none" stroke="midnightblue" d="M510.39,-174.08C424.32,-169.42 267.93,-158.23 126.33,-132.06"/>
<polygon fill="midnightblue" stroke="midnightblue" points="126.63,-128.56 116.16,-130.15 125.34,-135.44 126.63,-128.56"/>
</g>
<!-- Node4 -->
<g id="node4" class="node">
<title>Node4</title>
<g id="a_node4"><a xlink:title=" ">
<polygon fill="none" stroke="#bfbfbf" points="134,-112.5 134,-131.5 199,-131.5 199,-112.5 134,-112.5"/>
<text text-anchor="middle" x="166.5" y="-119.5" font-family="Helvetica,sans-Serif" font-size="10.00">inttypes.h</text>
</a>
</g>
</g>
<!-- Node1&#45;&gt;Node4 -->
<g id="edge3" class="edge">
<title>Node1&#45;&gt;Node4</title>
<path fill="none" stroke="midnightblue" d="M510.42,-170.92C438.82,-163.8 320.19,-150.78 209.15,-132.15"/>
<polygon fill="midnightblue" stroke="midnightblue" points="209.56,-128.67 199.12,-130.45 208.39,-135.57 209.56,-128.67"/>
</g>
<!-- Node5 -->
<g id="node5" class="node">
<title>Node5</title>
<g id="a_node5"><a xlink:title=" ">
<polygon fill="none" stroke="#bfbfbf" points="217,-112.5 217,-131.5 270,-131.5 270,-112.5 217,-112.5"/>
<text text-anchor="middle" x="243.5" y="-119.5" font-family="Helvetica,sans-Serif" font-size="10.00">limits.h</text>
</a>
</g>
</g>
<!-- Node1&#45;&gt;Node5 -->
<g id="edge4" class="edge">
<title>Node1&#45;&gt;Node5</title>
<path fill="none" stroke="midnightblue" d="M512.87,-168.47C453.8,-160.16 362.89,-146.65 284.5,-132 283.21,-131.76 281.9,-131.51 280.58,-131.25"/>
<polygon fill="midnightblue" stroke="midnightblue" points="280.86,-127.73 270.36,-129.15 279.45,-134.59 280.86,-127.73"/>
</g>
<!-- Node6 -->
<g id="node6" class="node">
<title>Node6</title>
<g id="a_node6"><a xlink:title=" ">
<polygon fill="none" stroke="#bfbfbf" points="907,-0.5 907,-19.5 960,-19.5 960,-0.5 907,-0.5"/>
<text text-anchor="middle" x="933.5" y="-7.5" font-family="Helvetica,sans-Serif" font-size="10.00">stdint.h</text>
</a>
</g>
</g>
<!-- Node1&#45;&gt;Node6 -->
<g id="edge5" class="edge">
<title>Node1&#45;&gt;Node6</title>
<path fill="none" stroke="midnightblue" d="M640.8,-175.23C754.5,-171.44 983.83,-160.44 1058.5,-132 1097.71,-117.06 1115.58,-113.45 1134.5,-76 1138.51,-68.07 1140.06,-62.94 1134.5,-56 1114.32,-30.8 1022.61,-18.76 970.32,-13.86"/>
<polygon fill="midnightblue" stroke="midnightblue" points="970.38,-10.35 960.11,-12.94 969.76,-17.32 970.38,-10.35"/>
</g>
<!-- Node7 -->
<g id="node7" class="node">
<title>Node7</title>
<g id="a_node7"><a xlink:title=" ">
<polygon fill="none" stroke="#bfbfbf" points="326.5,-112.5 326.5,-131.5 376.5,-131.5 376.5,-112.5 326.5,-112.5"/>
<text text-anchor="middle" x="351.5" y="-119.5" font-family="Helvetica,sans-Serif" font-size="10.00">stdio.h</text>
</a>
</g>
</g>
<!-- Node1&#45;&gt;Node7 -->
<g id="edge6" class="edge">
<title>Node1&#45;&gt;Node7</title>
<path fill="none" stroke="midnightblue" d="M538.29,-168.49C501.96,-160.12 444.86,-146.77 386.49,-132.2"/>
<polygon fill="midnightblue" stroke="midnightblue" points="387.28,-128.79 376.73,-129.76 385.58,-135.58 387.28,-128.79"/>
</g>
<!-- Node8 -->
<g id="node8" class="node">
<title>Node8</title>
<g id="a_node8"><a xlink:title=" ">
<polygon fill="none" stroke="#bfbfbf" points="395,-112.5 395,-131.5 448,-131.5 448,-112.5 395,-112.5"/>
<text text-anchor="middle" x="421.5" y="-119.5" font-family="Helvetica,sans-Serif" font-size="10.00">stdlib.h</text>
</a>
</g>
</g>
<!-- Node1&#45;&gt;Node8 -->
<g id="edge7" class="edge">
<title>Node1&#45;&gt;Node8</title>
<path fill="none" stroke="midnightblue" d="M551.1,-168.44C525.3,-159.4 484.42,-145.06 455.48,-134.92"/>
<polygon fill="midnightblue" stroke="midnightblue" points="456.38,-131.52 445.79,-131.52 454.07,-138.13 456.38,-131.52"/>
</g>
<!-- Node9 -->
<g id="node9" class="node">
<title>Node9</title>
<g id="a_node9"><a xlink:title=" ">
<polygon fill="none" stroke="#bfbfbf" points="466,-112.5 466,-131.5 519,-131.5 519,-112.5 466,-112.5"/>
<text text-anchor="middle" x="492.5" y="-119.5" font-family="Helvetica,sans-Serif" font-size="10.00">string.h</text>
</a>
</g>
</g>
<!-- Node1&#45;&gt;Node9 -->
<g id="edge8" class="edge">
<title>Node1&#45;&gt;Node9</title>
<path fill="none" stroke="midnightblue" d="M562.16,-168.32C549.34,-159.98 529.72,-147.21 514.56,-137.35"/>
<polygon fill="midnightblue" stroke="midnightblue" points="516.09,-134.17 505.8,-131.65 512.28,-140.04 516.09,-134.17"/>
</g>
<!-- Node10 -->
<g id="node10" class="node">
<title>Node10</title>
<g id="a_node10"><a xlink:title=" ">
<polygon fill="none" stroke="#bfbfbf" points="537,-112.5 537,-131.5 614,-131.5 614,-112.5 537,-112.5"/>
<text text-anchor="middle" x="575.5" y="-119.5" font-family="Helvetica,sans-Serif" font-size="10.00">sys/mman.h</text>
</a>
</g>
</g>
<!-- Node1&#45;&gt;Node10 -->
<g id="edge9" class="edge">
<title>Node1&#45;&gt;Node10</title>
<path fill="none" stroke="midnightblue" d="M575.5,-168.08C575.5,-161.01 575.5,-150.86 575.5,-141.99"/>
<polygon fill="midnightblue" stroke="midnightblue" points="579,-141.75 575.5,-131.75 572,-141.75 579,-141.75"/>
</g>
<!-- Node11 -->
<g id="node11" class="node">
<title>Node11</title>
<g id="a_node11"><a xlink:title=" ">
<polygon fill="none" stroke="#bfbfbf" points="632.5,-112.5 632.5,-131.5 696.5,-131.5 696.5,-112.5 632.5,-112.5"/>
<text text-anchor="middle" x="664.5" y="-119.5" font-family="Helvetica,sans-Serif" font-size="10.00">sys/stat.h</text>
</a>
</g>
</g>
<!-- Node1&#45;&gt;Node11 -->
<g id="edge10" class="edge">
<title>Node1&#45;&gt;Node11</title>
<path fill="none" stroke="midnightblue" d="M589.8,-168.32C603.68,-159.9 624.99,-146.97 641.3,-137.07"/>
<polygon fill="midnightblue" stroke="midnightblue" points="643.5,-139.83 650.24,-131.65 639.87,-133.85 643.5,-139.83"/>
</g>
<!-- Node12 -->
<g id="node12" class="node">
<title>Node12</title>
<g id="a_node12"><a xlink:title=" ">
<polygon fill="none" stroke="#bfbfbf" points="714.5,-112.5 714.5,-131.5 762.5,-131.5 762.5,-112.5 714.5,-112.5"/>
<text text-anchor="middle" x="738.5" y="-119.5" font-family="Helvetica,sans-Serif" font-size="10.00">time.h</text>
</a>
</g>
</g>
<!-- Node1&#45;&gt;Node12 -->
<g id="edge11" class="edge">
<title>Node1&#45;&gt;Node12</title>
<path fill="none" stroke="midnightblue" d="M601.33,-168.44C629.23,-159.2 673.82,-144.43 704.54,-134.25"/>
<polygon fill="midnightblue" stroke="midnightblue" points="706,-137.46 714.39,-130.99 703.79,-130.81 706,-137.46"/>
</g>
<!-- Node13 -->
<g id="node13" class="node">
<title>Node13</title>
<g id="a_node13"><a xlink:title=" ">
<polygon fill="none" stroke="#bfbfbf" points="780.5,-112.5 780.5,-131.5 836.5,-131.5 836.5,-112.5 780.5,-112.5"/>
<text text-anchor="middle" x="808.5" y="-119.5" font-family="Helvetica,sans-Serif" font-size="10.00">unistd.h</text>
</a>
</g>
</g>
<!-- Node1&#45;&gt;Node13 -->
<g id="edge12" class="edge">
<title>Node1&#45;&gt;Node13</title>
<path fill="none" stroke="midnightblue" d="M613.47,-168.43C650.9,-159.96 709.98,-146.49 770.17,-132.29"/>
<polygon fill="midnightblue" stroke="midnightblue" points="771.3,-135.62 780.23,-129.92 769.69,-128.81 771.3,-135.62"/>
</g>
<!-- Node14 -->
<g id="node14" class="node">
<title>Node14</title>
<g id="a_node14"><a xlink:href="ie__engine_8h.html" target="_top" xlink:title="Public engine façade (compatibility shim).">
<polygon fill="none" stroke="black" points="855,-112.5 855,-131.5 928,-131.5 928,-112.5 855,-112.5"/>
<text text-anchor="middle" x="891.5" y="-119.5" font-family="Helvetica,sans-Serif" font-size="10.00">ie_engine.h</text>
</a>
</g>
</g>
<!-- Node1&#45;&gt;Node14 -->
<g id="edge13" class="edge">
<title>Node1&#45;&gt;Node14</title>
<path fill="none" stroke="midnightblue" d="M629.37,-168.48C681.79,-160.08 763.95,-146.65 844.98,-132.05"/>
<polygon fill="midnightblue" stroke="midnightblue" points="845.64,-135.49 854.86,-130.27 844.4,-128.6 845.64,-135.49"/>
</g>
<!-- Node17 -->
<g id="node17" class="node">
<title>Node17</title>
<g id="a_node17"><a xlink:href="ie__io_8h.html" target="_top" xlink:title=" ">
<polygon fill="none" stroke="black" points="734,-56.5 734,-75.5 783,-75.5 783,-56.5 734,-56.5"/>
<text text-anchor="middle" x="758.5" y="-63.5" font-family="Helvetica,sans-Serif" font-size="10.00">ie_io.h</text>
</a>
</g>
</g>
<!-- Node1&#45;&gt;Node17 -->
<g id="edge19" class="edge">
<title>Node1&#45;&gt;Node17</title>
<path fill="none" stroke="midnightblue" d="M510.34,-174.89C442.14,-171.14 341.67,-160.76 317.5,-132 311.78,-125.2 311.54,-118.6 317.5,-112 344.59,-82 624.24,-70.93 723.66,-67.93"/>
<polygon fill="midnightblue" stroke="midnightblue" points="723.89,-71.42 733.79,-67.63 723.69,-64.43 723.89,-71.42"/>
</g>
<!-- Node18 -->
<g id="node18" class="node">
<title>Node18</title>
<g id="a_node18"><a xlink:href="ie__kv__instrumentation_8h.html" target="_top" xlink:title="Lightweight KV cache hit/miss instrumentation for benchmarks.">
<polygon fill="none" stroke="black" points="990,-56.5 990,-75.5 1125,-75.5 1125,-56.5 990,-56.5"/>
<text text-anchor="middle" x="1057.5" y="-63.5" font-family="Helvetica,sans-Serif" font-size="10.00">ie_kv_instrumentation.h</text>
</a>
</g>
</g>
<!-- Node1&#45;&gt;Node18 -->
<g id="edge22" class="edge">
<title>Node1&#45;&gt;Node18</title>
<path fill="none" stroke="midnightblue" d="M640.66,-174.61C760.73,-169.65 1007.42,-156.56 1037.5,-132 1051.06,-120.93 1055.62,-100.89 1057.06,-85.98"/>
<polygon fill="midnightblue" stroke="midnightblue" points="1060.56,-85.99 1057.65,-75.81 1053.57,-85.59 1060.56,-85.99"/>
</g>
<!-- Node19 -->
<g id="node19" class="node">
<title>Node19</title>
<g id="a_node19"><a xlink:href="util__metrics_8h.html" target="_top" xlink:title="Public helpers for runtime metrics (KV counters + RSS sampling).">
<polygon fill="none" stroke="black" points="946,-112.5 946,-131.5 1029,-131.5 1029,-112.5 946,-112.5"/>
<text text-anchor="middle" x="987.5" y="-119.5" font-family="Helvetica,sans-Serif" font-size="10.00">util_metrics.h</text>
</a>
</g>
</g>
<!-- Node1&#45;&gt;Node19 -->
<g id="edge25" class="edge">
<title>Node1&#45;&gt;Node19</title>
<path fill="none" stroke="midnightblue" d="M640.52,-169.9C710.78,-162 826.28,-148.36 935.87,-132.03"/>
<polygon fill="midnightblue" stroke="midnightblue" points="936.41,-135.48 945.78,-130.54 935.37,-128.56 936.41,-135.48"/>
</g>
<!-- Node20 -->
<g id="node20" class="node">
<title>Node20</title>
<g id="a_node20"><a xlink:href="util__logging_8h.html" target="_top" xlink:title="Minimal logging interface (printf&#45;style), used by CLI and tests.">
<polygon fill="none" stroke="black" points="1182,-112.5 1182,-131.5 1265,-131.5 1265,-112.5 1182,-112.5"/>
<text text-anchor="middle" x="1223.5" y="-119.5" font-family="Helvetica,sans-Serif" font-size="10.00">util_logging.h</text>
</a>
</g>
</g>
<!-- Node1&#45;&gt;Node20 -->
<g id="edge28" class="edge">
<title>Node1&#45;&gt;Node20</title>
<path fill="none" stroke="midnightblue" d="M640.93,-173.82C750.26,-168.09 976.85,-154.53 1167.5,-132 1168.97,-131.83 1170.45,-131.64 1171.95,-131.45"/>
<polygon fill="midnightblue" stroke="midnightblue" points="1172.54,-134.9 1181.96,-130.07 1171.58,-127.97 1172.54,-134.9"/>
</g>
<!-- Node14&#45;&gt;Node6 -->
<g id="edge15" class="edge">
<title>Node14&#45;&gt;Node6</title>
<path fill="none" stroke="midnightblue" d="M883.98,-112.26C873.93,-99.47 858.5,-75.09 868.5,-56 875.78,-42.11 889.51,-31.65 902.48,-24.33"/>
<polygon fill="midnightblue" stroke="midnightblue" points="904.43,-27.27 911.69,-19.55 901.2,-21.05 904.43,-27.27"/>
</g>
<!-- Node15 -->
<g id="node15" class="node">
<title>Node15</title>
<g id="a_node15"><a xlink:title=" ">
<polygon fill="none" stroke="#bfbfbf" points="822.5,-0.5 822.5,-19.5 878.5,-19.5 878.5,-0.5 822.5,-0.5"/>
<text text-anchor="middle" x="850.5" y="-7.5" font-family="Helvetica,sans-Serif" font-size="10.00">stddef.h</text>
</a>
</g>
</g>
<!-- Node14&#45;&gt;Node15 -->
<g id="edge14" class="edge">
<title>Node14&#45;&gt;Node15</title>
<path fill="none" stroke="midnightblue" d="M874,-112.46C860.71,-104.92 843.42,-92.53 835.5,-76 828.32,-61.02 833.9,-42.42 840.19,-28.96"/>
<polygon fill="midnightblue" stroke="midnightblue" points="843.43,-30.3 844.94,-19.81 837.22,-27.08 843.43,-30.3"/>
</g>
<!-- Node16 -->
<g id="node16" class="node">
<title>Node16</title>
<g id="a_node16"><a xlink:href="ie__api_8h.html" target="_top" xlink:title="Public C API for the inference engine (minimal surface used by CLI/tests).">
<polygon fill="none" stroke="black" points="878,-56.5 878,-75.5 933,-75.5 933,-56.5 878,-56.5"/>
<text text-anchor="middle" x="905.5" y="-63.5" font-family="Helvetica,sans-Serif" font-size="10.00">ie_api.h</text>
</a>
</g>
</g>
<!-- Node14&#45;&gt;Node16 -->
<g id="edge16" class="edge">
<title>Node14&#45;&gt;Node16</title>
<path fill="none" stroke="midnightblue" d="M893.81,-112.08C895.67,-104.93 898.34,-94.64 900.65,-85.69"/>
<polygon fill="midnightblue" stroke="midnightblue" points="904.11,-86.31 903.23,-75.75 897.33,-84.55 904.11,-86.31"/>
</g>
<!-- Node16&#45;&gt;Node6 -->
<g id="edge18" class="edge">
<title>Node16&#45;&gt;Node6</title>
<path fill="none" stroke="midnightblue" d="M910.12,-56.08C913.96,-48.69 919.52,-37.95 924.26,-28.81"/>
<polygon fill="midnightblue" stroke="midnightblue" points="927.47,-30.24 928.96,-19.75 921.25,-27.02 927.47,-30.24"/>
</g>
<!-- Node16&#45;&gt;Node15 -->
<g id="edge17" class="edge">
<title>Node16&#45;&gt;Node15</title>
<path fill="none" stroke="midnightblue" d="M896.42,-56.08C888.33,-48.14 876.3,-36.34 866.59,-26.8"/>
<polygon fill="midnightblue" stroke="midnightblue" points="869,-24.26 859.41,-19.75 864.1,-29.25 869,-24.26"/>
</g>
<!-- Node17&#45;&gt;Node6 -->
<g id="edge21" class="edge">
<title>Node17&#45;&gt;Node6</title>
<path fill="none" stroke="midnightblue" d="M783.2,-57.38C812.96,-48.2 863.19,-32.69 897.32,-22.16"/>
<polygon fill="midnightblue" stroke="midnightblue" points="898.4,-25.5 906.92,-19.2 896.33,-18.81 898.4,-25.5"/>
</g>
<!-- Node17&#45;&gt;Node15 -->
<g id="edge20" class="edge">
<title>Node17&#45;&gt;Node15</title>
<path fill="none" stroke="midnightblue" d="M773.28,-56.32C787.77,-47.82 810.07,-34.73 826.99,-24.8"/>
<polygon fill="midnightblue" stroke="midnightblue" points="828.9,-27.74 835.76,-19.65 825.36,-21.7 828.9,-27.74"/>
</g>
<!-- Node18&#45;&gt;Node6 -->
<g id="edge23" class="edge">
<title>Node18&#45;&gt;Node6</title>
<path fill="none" stroke="midnightblue" d="M1037.85,-56.44C1017.54,-47.6 985.6,-33.69 962.4,-23.59"/>
<polygon fill="midnightblue" stroke="midnightblue" points="963.62,-20.3 953.06,-19.52 960.83,-26.72 963.62,-20.3"/>
</g>
<!-- Node18&#45;&gt;Node15 -->
<g id="edge24" class="edge">
<title>Node18&#45;&gt;Node15</title>
<path fill="none" stroke="midnightblue" d="M1024.7,-56.44C987.76,-46.81 927.8,-31.17 888.76,-20.98"/>
<polygon fill="midnightblue" stroke="midnightblue" points="889.38,-17.53 878.82,-18.39 887.61,-24.3 889.38,-17.53"/>
</g>
<!-- Node19&#45;&gt;Node6 -->
<g id="edge26" class="edge">
<title>Node19&#45;&gt;Node6</title>
<path fill="none" stroke="midnightblue" d="M983.26,-112.37C974.43,-94.38 953.9,-52.55 942.15,-28.63"/>
<polygon fill="midnightblue" stroke="midnightblue" points="945.27,-27.03 937.72,-19.59 938.98,-30.11 945.27,-27.03"/>
</g>
<!-- Node19&#45;&gt;Node16 -->
<g id="edge27" class="edge">
<title>Node19&#45;&gt;Node16</title>
<path fill="none" stroke="midnightblue" d="M974.33,-112.32C961.65,-103.98 942.27,-91.21 927.29,-81.35"/>
<polygon fill="midnightblue" stroke="midnightblue" points="928.92,-78.23 918.64,-75.65 925.07,-84.08 928.92,-78.23"/>
</g>
<!-- Node21 -->
<g id="node21" class="node">
<title>Node21</title>
<g id="a_node21"><a xlink:title=" ">
<polygon fill="none" stroke="#bfbfbf" points="1195.5,-56.5 1195.5,-75.5 1251.5,-75.5 1251.5,-56.5 1195.5,-56.5"/>
<text text-anchor="middle" x="1223.5" y="-63.5" font-family="Helvetica,sans-Serif" font-size="10.00">stdarg.h</text>
</a>
</g>
</g>
<!-- Node20&#45;&gt;Node21 -->
<g id="edge29" class="edge">
<title>Node20&#45;&gt;Node21</title>
<path fill="none" stroke="midnightblue" d="M1223.5,-112.08C1223.5,-105.01 1223.5,-94.86 1223.5,-85.99"/>
<polygon fill="midnightblue" stroke="midnightblue" points="1227,-85.75 1223.5,-75.75 1220,-85.75 1227,-85.75"/>
</g>
</g>
</svg>
