<?xml version="1.0" encoding="UTF-8" standalone="no"?>
<!DOCTYPE svg PUBLIC "-//W3C//DTD SVG 1.1//EN"
 "http://www.w3.org/Graphics/SVG/1.1/DTD/svg11.dtd">
<!-- Generated by graphviz version 2.43.0 (0)
 -->
<!-- Title: is_int4_precision Pages: 1 -->
<svg width="374pt" height="52pt"
 viewBox="0.00 0.00 374.00 51.50" xmlns="http://www.w3.org/2000/svg" xmlns:xlink="http://www.w3.org/1999/xlink">
<g id="graph0" class="graph" transform="scale(1 1) rotate(0) translate(4 47.5)">
<title>is_int4_precision</title>
<!-- Node1 -->
<g id="Node000001" class="node">
<title>Node1</title>
<g id="a_Node000001"><a xlink:title=" ">
<polygon fill="#999999" stroke="#666666" points="98,-38 0,-38 0,-19 98,-19 98,-38"/>
<text text-anchor="middle" x="49" y="-26" font-family="Helvetica,sans-Serif" font-size="10.00">is_int4_precision</text>
</a>
</g>
</g>
<!-- Node2 -->
<g id="Node000002" class="node">
<title>Node2</title>
<g id="a_Node000002"><a xlink:href="ie__device__cuda_8cu.html#a5e3d9fee84981707669f5c2398f0c4ab" target="_top" xlink:title="Row&#45;wise GEMV kernel: each thread computes one output row.">
<polygon fill="white" stroke="#666666" points="366,-43.5 241,-43.5 241,-13.5 366,-13.5 366,-43.5"/>
<text text-anchor="start" x="249" y="-31.5" font-family="Helvetica,sans-Serif" font-size="10.00">ie_gemv_rowwise_f32</text>
<text text-anchor="middle" x="303.5" y="-20.5" font-family="Helvetica,sans-Serif" font-size="10.00">_kernel</text>
</a>
</g>
</g>
<!-- Node1&#45;&gt;Node2 -->
<g id="edge1_Node000001_Node000002" class="edge">
<title>Node1&#45;&gt;Node2</title>
<g id="a_edge1_Node000001_Node000002"><a xlink:title=" ">
<path fill="none" stroke="#63b8ff" d="M98.09,-28.5C135.58,-28.5 188.22,-28.5 230.7,-28.5"/>
<polygon fill="#63b8ff" stroke="#63b8ff" points="230.71,-32 240.71,-28.5 230.71,-25 230.71,-32"/>
</a>
</g>
</g>
<!-- Node3 -->
<g id="Node000003" class="node">
<title>Node3</title>
<g id="a_Node000003"><a xlink:href="main__infer_8c.html#a55469391e7680b876a48cdc0d3d24632" target="_top" xlink:title=" ">
<polygon fill="white" stroke="#666666" points="205,-19 134,-19 134,0 205,0 205,-19"/>
<text text-anchor="middle" x="169.5" y="-7" font-family="Helvetica,sans-Serif" font-size="10.00">starts_with</text>
</a>
</g>
</g>
<!-- Node1&#45;&gt;Node3 -->
<g id="edge2_Node000001_Node000003" class="edge">
<title>Node1&#45;&gt;Node3</title>
<g id="a_edge2_Node000001_Node000003"><a xlink:title=" ">
<path fill="none" stroke="#63b8ff" d="M98.2,-20.77C106.67,-19.41 115.46,-18 123.83,-16.66"/>
<polygon fill="#63b8ff" stroke="#63b8ff" points="124.47,-20.1 133.79,-15.07 123.36,-13.19 124.47,-20.1"/>
</a>
</g>
</g>
<!-- Node3&#45;&gt;Node2 -->
<g id="edge3_Node000003_Node000002" class="edge">
<title>Node3&#45;&gt;Node2</title>
<g id="a_edge3_Node000003_Node000002"><a xlink:title=" ">
<path fill="none" stroke="#63b8ff" d="M205.18,-14.49C213.17,-15.64 221.96,-16.91 230.89,-18.19"/>
<polygon fill="#63b8ff" stroke="#63b8ff" points="230.6,-21.69 240.99,-19.65 231.59,-14.76 230.6,-21.69"/>
</a>
</g>
</g>
</g>
</svg>
