<?xml version="1.0" encoding="UTF-8" standalone="no"?>
<!DOCTYPE svg PUBLIC "-//W3C//DTD SVG 1.1//EN"
 "http://www.w3.org/Graphics/SVG/1.1/DTD/svg11.dtd">
<!-- Generated by graphviz version 2.43.0 (0)
 -->
<!-- Title: min_size Pages: 1 -->
<svg width="297pt" height="76pt"
 viewBox="0.00 0.00 297.00 75.50" xmlns="http://www.w3.org/2000/svg" xmlns:xlink="http://www.w3.org/1999/xlink">

<svg id="main" version="1.1" xmlns="http://www.w3.org/2000/svg" xmlns:xlink="http://www.w3.org/1999/xlink" xml:space="preserve" onload="init(evt)">
<style type="text/css"><![CDATA[
.node, .edge {opacity: 0.7;}
.node.selected, .edge.selected {opacity: 1;}
.edge:hover path { stroke: red; }
.edge:hover polygon { stroke: red; fill: red; }
]]></style>
<script type="application/ecmascript" xlink:href="svg.min.js"/>
<svg id="graph" class="graph">
<g id="graph0" class="graph" transform="scale(1 1) rotate(0) translate(4 71.5)">
<title>min_size</title>
<!-- Node1 -->
<g id="Node000001" class="node">
<title>Node1</title>
<g id="a_Node000001"><a xlink:title="Return the smaller of two size_t values.">
<polygon fill="#999999" stroke="#666666" points="289,-45.5 229,-45.5 229,-26.5 289,-26.5 289,-45.5"/>
<text text-anchor="middle" x="259" y="-33.5" font-family="Helvetica,sans-Serif" font-size="10.00">min_size</text>
</a>
</g>
</g>
<!-- Node2 -->
<g id="Node000002" class="node">
<title>Node2</title>
<g id="a_Node000002"><a xlink:href="main__infer_8c.html#a44a0de9d17f6eff8a4764537268ab5d1" target="_top" xlink:title="Strict CUDA touch: cudaMalloc + repeated cudaMemset + optional D2H copy.">
<polygon fill="white" stroke="#666666" points="191,-67.5 79,-67.5 79,-48.5 191,-48.5 191,-67.5"/>
<text text-anchor="middle" x="135" y="-55.5" font-family="Helvetica,sans-Serif" font-size="10.00">cudart_touch_bytes</text>
</a>
</g>
</g>
<!-- Node1&#45;&gt;Node2 -->
<g id="edge1_Node000001_Node000002" class="edge">
<title>Node1&#45;&gt;Node2</title>
<g id="a_edge1_Node000001_Node000002"><a xlink:title=" ">
<path fill="none" stroke="#63b8ff" d="M218.8,-43.07C209.26,-44.79 198.9,-46.66 188.84,-48.47"/>
<polygon fill="#63b8ff" stroke="#63b8ff" points="219.56,-46.49 228.78,-41.27 218.32,-39.6 219.56,-46.49"/>
</a>
</g>
</g>
<!-- Node4 -->
<g id="Node000004" class="node">
<title>Node4</title>
<g id="a_Node000004"><a xlink:href="main__infer_8c.html#a4e30eb4737647a78c4dbebb5b008a5bd" target="_top" xlink:title="Decode token IDs into UTF&#45;8 text (best&#45;effort).">
<polygon fill="white" stroke="#666666" points="193,-30 77,-30 77,0 193,0 193,-30"/>
<text text-anchor="start" x="85" y="-18" font-family="Helvetica,sans-Serif" font-size="10.00">decode_tokens_best</text>
<text text-anchor="middle" x="135" y="-7" font-family="Helvetica,sans-Serif" font-size="10.00">_effort</text>
</a>
</g>
</g>
<!-- Node1&#45;&gt;Node4 -->
<g id="edge3_Node000001_Node000004" class="edge">
<title>Node1&#45;&gt;Node4</title>
<g id="a_edge3_Node000001_Node000004"><a xlink:title=" ">
<path fill="none" stroke="#63b8ff" d="M218.81,-29.25C210.64,-27.85 201.87,-26.34 193.21,-24.85"/>
<polygon fill="#63b8ff" stroke="#63b8ff" points="218.33,-32.72 228.78,-30.97 219.52,-25.82 218.33,-32.72"/>
</a>
</g>
</g>
<!-- Node3 -->
<g id="Node000003" class="node">
<title>Node3</title>
<g id="a_Node000003"><a xlink:href="main__infer_8c.html#a3c04138a5bfe5d72780bb7e82a18e627" target="_top" xlink:title="main.">
<polygon fill="white" stroke="#666666" points="41,-45.5 0,-45.5 0,-26.5 41,-26.5 41,-45.5"/>
<text text-anchor="middle" x="20.5" y="-33.5" font-family="Helvetica,sans-Serif" font-size="10.00">main</text>
</a>
</g>
</g>
<!-- Node2&#45;&gt;Node3 -->
<g id="edge2_Node000002_Node000003" class="edge">
<title>Node2&#45;&gt;Node3</title>
<g id="a_edge2_Node000002_Node000003"><a xlink:title=" ">
<path fill="none" stroke="#63b8ff" d="M75.41,-46.54C63.04,-44.12 50.82,-41.73 41.16,-39.84"/>
<polygon fill="#63b8ff" stroke="#63b8ff" points="74.82,-49.99 85.31,-48.48 76.17,-43.12 74.82,-49.99"/>
</a>
</g>
</g>
<!-- Node4&#45;&gt;Node3 -->
<g id="edge4_Node000004_Node000003" class="edge">
<title>Node4&#45;&gt;Node3</title>
<g id="a_edge4_Node000004_Node000003"><a xlink:title=" ">
<path fill="none" stroke="#63b8ff" d="M66.91,-27.52C57.56,-29.27 48.63,-30.94 41.19,-32.32"/>
<polygon fill="#63b8ff" stroke="#63b8ff" points="67.57,-30.96 76.76,-25.68 66.29,-24.08 67.57,-30.96"/>
</a>
</g>
</g>
</g>
</svg>
</svg>

<style type='text/css'>
<![CDATA[
[data-mouse-over-selected='false'] { opacity: 0.7; }
[data-mouse-over-selected='true']  { opacity: 1.0; }
]]>
</style>
<script type="application/ecmascript"><![CDATA[
document.addEventListener('DOMContentLoaded', (event) => {
  highlightEdges();
  highlightAdjacentNodes();
});
]]></script>
</svg>
