<?xml version="1.0" encoding="UTF-8" standalone="no"?>
<!DOCTYPE svg PUBLIC "-//W3C//DTD SVG 1.1//EN"
 "http://www.w3.org/Graphics/SVG/1.1/DTD/svg11.dtd">
<!-- Generated by graphviz version 2.43.0 (0)
 -->
<!-- Title: cli_extras_defaults Pages: 1 -->
<svg width="302pt" height="28pt"
 viewBox="0.00 0.00 302.00 28.00" xmlns="http://www.w3.org/2000/svg" xmlns:xlink="http://www.w3.org/1999/xlink">
<g id="graph0" class="graph" transform="scale(1 1) rotate(0) translate(4 24)">
<title>cli_extras_defaults</title>
<!-- Node1 -->
<g id="node1" class="node">
<title>Node1</title>
<g id="a_node1"><a xlink:title="Initialize a cli_extras_t with default values.">
<polygon fill="#bfbfbf" stroke="black" points="185,-0.5 185,-19.5 294,-19.5 294,-0.5 185,-0.5"/>
<text text-anchor="middle" x="239.5" y="-7.5" font-family="Helvetica,sans-Serif" font-size="10.00">cli_extras_defaults</text>
</a>
</g>
</g>
<!-- Node2 -->
<g id="node2" class="node">
<title>Node2</title>
<g id="a_node2"><a xlink:href="main__infer_8c.html#a456ba954f3884bcf5f72fc3e779de284" target="_top" xlink:title="Parse command&#45;line flags into a cli_extras_t container.">
<polygon fill="none" stroke="black" points="77,-0.5 77,-19.5 149,-19.5 149,-0.5 77,-0.5"/>
<text text-anchor="middle" x="113" y="-7.5" font-family="Helvetica,sans-Serif" font-size="10.00">parse_flags</text>
</a>
</g>
</g>
<!-- Node1&#45;&gt;Node2 -->
<g id="edge1" class="edge">
<title>Node1&#45;&gt;Node2</title>
<path fill="none" stroke="midnightblue" d="M174.97,-10C166.08,-10 157.23,-10 149.14,-10"/>
<polygon fill="midnightblue" stroke="midnightblue" points="174.98,-13.5 184.98,-10 174.98,-6.5 174.98,-13.5"/>
</g>
<!-- Node3 -->
<g id="node3" class="node">
<title>Node3</title>
<g id="a_node3"><a xlink:href="main__infer_8c.html#a3c04138a5bfe5d72780bb7e82a18e627" target="_top" xlink:title="Program entry point.">
<polygon fill="none" stroke="black" points="0,-0.5 0,-19.5 41,-19.5 41,-0.5 0,-0.5"/>
<text text-anchor="middle" x="20.5" y="-7.5" font-family="Helvetica,sans-Serif" font-size="10.00">main</text>
</a>
</g>
</g>
<!-- Node2&#45;&gt;Node3 -->
<g id="edge2" class="edge">
<title>Node2&#45;&gt;Node3</title>
<path fill="none" stroke="midnightblue" d="M66.67,-10C57.67,-10 48.68,-10 41.11,-10"/>
<polygon fill="midnightblue" stroke="midnightblue" points="66.75,-13.5 76.75,-10 66.75,-6.5 66.75,-13.5"/>
</g>
</g>
</svg>
