<?xml version="1.0" encoding="UTF-8" standalone="no"?>
<!DOCTYPE svg PUBLIC "-//W3C//DTD SVG 1.1//EN"
 "http://www.w3.org/Graphics/SVG/1.1/DTD/svg11.dtd">
<!-- Generated by graphviz version 2.43.0 (0)
 -->
<!-- Title: canon_dir Pages: 1 -->
<svg width="306pt" height="27pt"
 viewBox="0.00 0.00 306.00 27.00" xmlns="http://www.w3.org/2000/svg" xmlns:xlink="http://www.w3.org/1999/xlink">
<g id="graph0" class="graph" transform="scale(1 1) rotate(0) translate(4 23)">
<title>canon_dir</title>
<!-- Node1 -->
<g id="Node000001" class="node">
<title>Node1</title>
<g id="a_Node000001"><a xlink:title="Canonicalize a directory path with realpath when possible.">
<polygon fill="#999999" stroke="#666666" points="298,-19 234,-19 234,0 298,0 298,-19"/>
<text text-anchor="middle" x="266" y="-7" font-family="Helvetica,sans-Serif" font-size="10.00">canon_dir</text>
</a>
</g>
</g>
<!-- Node2 -->
<g id="Node000002" class="node">
<title>Node2</title>
<g id="a_Node000002"><a xlink:href="main__infer_8c.html#ad6b894571e18a35f21d8451e008fae37" target="_top" xlink:title="Resolve model JSON/BIN paths based on model_dir and precision defaults.">
<polygon fill="white" stroke="#666666" points="198,-19 77,-19 77,0 198,0 198,-19"/>
<text text-anchor="middle" x="137.5" y="-7" font-family="Helvetica,sans-Serif" font-size="10.00">resolve_model_paths</text>
</a>
</g>
</g>
<!-- Node1&#45;&gt;Node2 -->
<g id="edge1_Node000001_Node000002" class="edge">
<title>Node1&#45;&gt;Node2</title>
<g id="a_edge1_Node000001_Node000002"><a xlink:title=" ">
<path fill="none" stroke="#63b8ff" d="M223.69,-9.5C215.48,-9.5 206.71,-9.5 198.04,-9.5"/>
<polygon fill="#63b8ff" stroke="#63b8ff" points="223.73,-13 233.73,-9.5 223.73,-6 223.73,-13"/>
</a>
</g>
</g>
<!-- Node3 -->
<g id="Node000003" class="node">
<title>Node3</title>
<g id="a_Node000003"><a xlink:href="main__infer_8c.html#a3c04138a5bfe5d72780bb7e82a18e627" target="_top" xlink:title=" ">
<polygon fill="white" stroke="#666666" points="41,-19 0,-19 0,0 41,0 41,-19"/>
<text text-anchor="middle" x="20.5" y="-7" font-family="Helvetica,sans-Serif" font-size="10.00">main</text>
</a>
</g>
</g>
<!-- Node2&#45;&gt;Node3 -->
<g id="edge2_Node000002_Node000003" class="edge">
<title>Node2&#45;&gt;Node3</title>
<g id="a_edge2_Node000002_Node000003"><a xlink:title=" ">
<path fill="none" stroke="#63b8ff" d="M66.75,-9.5C57.44,-9.5 48.58,-9.5 41.21,-9.5"/>
<polygon fill="#63b8ff" stroke="#63b8ff" points="66.98,-13 76.98,-9.5 66.98,-6 66.98,-13"/>
</a>
</g>
</g>
</g>
</svg>
