<?xml version="1.0" encoding="UTF-8" standalone="no"?>
<!DOCTYPE svg PUBLIC "-//W3C//DTD SVG 1.1//EN"
 "http://www.w3.org/Graphics/SVG/1.1/DTD/svg11.dtd">
<!-- Generated by graphviz version 2.43.0 (0)
 -->
<!-- Title: resolve_model_paths Pages: 1 -->
<!--zoomable 249 -->

<svg id="main" version="1.1" xmlns="http://www.w3.org/2000/svg" xmlns:xlink="http://www.w3.org/1999/xlink" xml:space="preserve" onload="init(evt)">
<style type="text/css"><![CDATA[
.node, .edge {opacity: 0.7;}
.node.selected, .edge.selected {opacity: 1;}
.edge:hover path { stroke: red; }
.edge:hover polygon { stroke: red; fill: red; }
]]></style>

<defs>
  <circle id="rim" cx="0" cy="0" r="7"/>
  <circle id="rim2" cx="0" cy="0" r="3.5"/>
  <g id="zoomPlus">
    <use xlink:href="#rim" fill="#404040"><set attributeName="fill" to="#808080" begin="zoomplus.mouseover" end="zoomplus.mouseout"/></use>
    <path d="M-4,0h8M0,-4v8" fill="none" stroke="white" stroke-width="1.5" pointer-events="none"/>
  </g>
  <g id="zoomMin">
    <use xlink:href="#rim" fill="#404040"><set attributeName="fill" to="#808080" begin="zoomminus.mouseover" end="zoomminus.mouseout"/></use>
    <path d="M-4,0h8" fill="none" stroke="white" stroke-width="1.5" pointer-events="none"/>
  </g>
  <g id="arrowUp" transform="translate(30 24)">
    <use xlink:href="#rim"/>
    <path pointer-events="none" fill="none" stroke="white" stroke-width="1.5" d="M0,-3.0v7 M-2.5,-0.5L0,-3.0L2.5,-0.5"/>
  </g>
  <g id="arrowRight" transform="rotate(90) translate(36 -43)">
    <use xlink:href="#rim"/>
    <path pointer-events="none" fill="none" stroke="white" stroke-width="1.5" d="M0,-3.0v7 M-2.5,-0.5L0,-3.0L2.5,-0.5"/>
  </g>
  <g id="arrowDown" transform="rotate(180) translate(-30 -48)">
    <use xlink:href="#rim"/>
    <path pointer-events="none" fill="none" stroke="white" stroke-width="1.5" d="M0,-3.0v7 M-2.5,-0.5L0,-3.0L2.5,-0.5"/>
  </g>
  <g id="arrowLeft" transform="rotate(270) translate(-36 17)">
    <use xlink:href="#rim"/>
    <path pointer-events="none" fill="none" stroke="white" stroke-width="1.5" d="M0,-3.0v7 M-2.5,-0.5L0,-3.0L2.5,-0.5"/>
  </g>
  <g id="resetDef">
    <use xlink:href="#rim2" fill="#404040"><set attributeName="fill" to="#808080" begin="reset.mouseover" end="reset.mouseout"/></use>
  </g>
</defs>
<script type="application/ecmascript">
var viewWidth = 534;
var viewHeight = 249;
var sectionId = 'dynsection-40';
</script>
<script type="application/ecmascript" xlink:href="svg.min.js"/>
<svg id="graph" class="graph">
<g id="viewport">
<title>resolve_model_paths</title>
<!-- Node1 -->
<g id="Node000001" class="node">
<title>Node1</title>
<g id="a_Node000001"><a xlink:title=" ">
<polygon fill="#999999" stroke="#666666" points="121,-132 0,-132 0,-113 121,-113 121,-132"/>
<text text-anchor="middle" x="60.5" y="-120" font-family="Helvetica,sans-Serif" font-size="10.00">resolve_model_paths</text>
</a>
</g>
</g>
<!-- Node2 -->
<g id="Node000002" class="node">
<title>Node2</title>
<g id="a_Node000002"><a xlink:href="main__infer_8c.html#a680d5eb9763f52ea89ce1764e01121dc" target="_top" xlink:title=" ">
<polygon fill="white" stroke="#666666" points="238,-208 174,-208 174,-189 238,-189 238,-208"/>
<text text-anchor="middle" x="206" y="-196" font-family="Helvetica,sans-Serif" font-size="10.00">canon_dir</text>
</a>
</g>
</g>
<!-- Node1&#45;&gt;Node2 -->
<g id="edge1_Node000001_Node000002" class="edge">
<title>Node1&#45;&gt;Node2</title>
<g id="a_edge1_Node000001_Node000002"><a xlink:title=" ">
<path fill="none" stroke="#63b8ff" d="M78.66,-132.08C97.7,-142.65 129.39,-160.08 157,-174.5 163.22,-177.74 169.92,-181.16 176.3,-184.35"/>
<polygon fill="#63b8ff" stroke="#63b8ff" points="174.79,-187.51 185.3,-188.85 177.92,-181.25 174.79,-187.51"/>
</a>
</g>
</g>
<!-- Node3 -->
<g id="Node000003" class="node">
<title>Node3</title>
<g id="a_Node000003"><a xlink:href="ie__device__cuda_8cu.html#a5e3d9fee84981707669f5c2398f0c4ab" target="_top" xlink:title="Row&#45;wise GEMV kernel: each thread computes one output row.">
<polygon fill="white" stroke="#666666" points="526,-156.5 401,-156.5 401,-126.5 526,-126.5 526,-156.5"/>
<text text-anchor="start" x="409" y="-144.5" font-family="Helvetica,sans-Serif" font-size="10.00">ie_gemv_rowwise_f32</text>
<text text-anchor="middle" x="463.5" y="-133.5" font-family="Helvetica,sans-Serif" font-size="10.00">_kernel</text>
</a>
</g>
</g>
<!-- Node1&#45;&gt;Node3 -->
<g id="edge5_Node000001_Node000003" class="edge">
<title>Node1&#45;&gt;Node3</title>
<g id="a_edge5_Node000001_Node000003"><a xlink:title=" ">
<path fill="none" stroke="#63b8ff" d="M67.78,-132.09C81.37,-151.92 115.61,-197.28 157,-217.5 210.94,-243.85 231.09,-230.71 291,-234.5 323.82,-236.57 334.47,-246.73 365,-234.5 399.85,-220.54 429.33,-187.53 446.47,-164.85"/>
<polygon fill="#63b8ff" stroke="#63b8ff" points="449.34,-166.85 452.42,-156.72 443.69,-162.72 449.34,-166.85"/>
</a>
</g>
</g>
<!-- Node4 -->
<g id="Node000004" class="node">
<title>Node4</title>
<g id="a_Node000004"><a xlink:href="main__infer_8c.html#a210133797f21fcee710ec892841dce42" target="_top" xlink:title=" ">
<polygon fill="white" stroke="#666666" points="364.5,-208 291.5,-208 291.5,-189 364.5,-189 364.5,-208"/>
<text text-anchor="middle" x="328" y="-196" font-family="Helvetica,sans-Serif" font-size="10.00">safe_strcpy</text>
</a>
</g>
</g>
<!-- Node1&#45;&gt;Node4 -->
<g id="edge18_Node000001_Node000004" class="edge">
<title>Node1&#45;&gt;Node4</title>
<g id="a_edge18_Node000001_Node000004"><a xlink:title=" ">
<path fill="none" stroke="#63b8ff" d="M94.86,-132.05C142.74,-145.76 231.01,-171.02 283.82,-186.14"/>
<polygon fill="#63b8ff" stroke="#63b8ff" points="282.99,-189.54 293.57,-188.93 284.92,-182.81 282.99,-189.54"/>
</a>
</g>
</g>
<!-- Node5 -->
<g id="Node000005" class="node">
<title>Node5</title>
<g id="a_Node000005"><a xlink:href="main__infer_8c.html#a937426768611822fbe840722069c7043" target="_top" xlink:title=" ">
<polygon fill="white" stroke="#666666" points="255,-132 157,-132 157,-113 255,-113 255,-132"/>
<text text-anchor="middle" x="206" y="-120" font-family="Helvetica,sans-Serif" font-size="10.00">is_int4_precision</text>
</a>
</g>
</g>
<!-- Node1&#45;&gt;Node5 -->
<g id="edge6_Node000001_Node000005" class="edge">
<title>Node1&#45;&gt;Node5</title>
<g id="a_edge6_Node000001_Node000005"><a xlink:title=" ">
<path fill="none" stroke="#63b8ff" d="M121.11,-122.5C129.54,-122.5 138.2,-122.5 146.61,-122.5"/>
<polygon fill="#63b8ff" stroke="#63b8ff" points="146.71,-126 156.71,-122.5 146.71,-119 146.71,-126"/>
</a>
</g>
</g>
<!-- Node7 -->
<g id="Node000007" class="node">
<title>Node7</title>
<g id="a_Node000007"><a xlink:href="main__infer_8c.html#adca9b33a342b8635e28ba51aecb365f6" target="_top" xlink:title=" ">
<polygon fill="white" stroke="#666666" points="237,-95 175,-95 175,-76 237,-76 237,-95"/>
<text text-anchor="middle" x="206" y="-83" font-family="Helvetica,sans-Serif" font-size="10.00">join_path</text>
</a>
</g>
</g>
<!-- Node1&#45;&gt;Node7 -->
<g id="edge10_Node000001_Node000007" class="edge">
<title>Node1&#45;&gt;Node7</title>
<g id="a_edge10_Node000001_Node000007"><a xlink:title=" ">
<path fill="none" stroke="#63b8ff" d="M98.45,-112.97C118.87,-107.71 144.23,-101.17 165.09,-95.79"/>
<polygon fill="#63b8ff" stroke="#63b8ff" points="166.12,-99.14 174.93,-93.25 164.37,-92.36 166.12,-99.14"/>
</a>
</g>
</g>
<!-- Node8 -->
<g id="Node000008" class="node">
<title>Node8</title>
<g id="a_Node000008"><a xlink:href="main__infer_8c.html#a35a9aadd511e6b3688d01a67a12c7651" target="_top" xlink:title=" ">
<polygon fill="white" stroke="#666666" points="365,-56 291,-56 291,-37 365,-37 365,-56"/>
<text text-anchor="middle" x="328" y="-44" font-family="Helvetica,sans-Serif" font-size="10.00">path_is_abs</text>
</a>
</g>
</g>
<!-- Node1&#45;&gt;Node8 -->
<g id="edge17_Node000001_Node000008" class="edge">
<title>Node1&#45;&gt;Node8</title>
<g id="a_edge17_Node000001_Node000008"><a xlink:title=" ">
<path fill="none" stroke="#63b8ff" d="M73.96,-112.88C91.44,-99.95 124.75,-77.32 157,-66.5 197.34,-52.96 245.74,-48.31 280.56,-46.84"/>
<polygon fill="#63b8ff" stroke="#63b8ff" points="281.03,-50.33 290.91,-46.48 280.79,-43.33 281.03,-50.33"/>
</a>
</g>
</g>
<!-- Node9 -->
<g id="Node000009" class="node">
<title>Node9</title>
<g id="a_Node000009"><a xlink:href="main__infer_8c.html#a0cbea455e9868581360f43c63db6554c" target="_top" xlink:title=" ">
<polygon fill="white" stroke="#666666" points="364.5,-19 291.5,-19 291.5,0 364.5,0 364.5,-19"/>
<text text-anchor="middle" x="328" y="-7" font-family="Helvetica,sans-Serif" font-size="10.00">path_exists</text>
</a>
</g>
</g>
<!-- Node1&#45;&gt;Node9 -->
<g id="edge15_Node000001_Node000009" class="edge">
<title>Node1&#45;&gt;Node9</title>
<g id="a_edge15_Node000001_Node000009"><a xlink:title=" ">
<path fill="none" stroke="#63b8ff" d="M70.23,-112.99C85.92,-96.51 120.64,-62.78 157,-45.5 196.56,-26.7 245.92,-17.65 281.24,-13.33"/>
<polygon fill="#63b8ff" stroke="#63b8ff" points="281.73,-16.8 291.27,-12.19 280.94,-9.84 281.73,-16.8"/>
</a>
</g>
</g>
<!-- Node2&#45;&gt;Node3 -->
<g id="edge2_Node000002_Node000003" class="edge">
<title>Node2&#45;&gt;Node3</title>
<g id="a_edge2_Node000002_Node000003"><a xlink:title=" ">
<path fill="none" stroke="#63b8ff" d="M231.53,-208C263.21,-218.82 319.67,-233.08 365,-217.5 395.55,-207 423.87,-182.58 442.04,-164.23"/>
<polygon fill="#63b8ff" stroke="#63b8ff" points="444.77,-166.44 449.17,-156.8 439.72,-161.59 444.77,-166.44"/>
</a>
</g>
</g>
<!-- Node2&#45;&gt;Node4 -->
<g id="edge3_Node000002_Node000004" class="edge">
<title>Node2&#45;&gt;Node4</title>
<g id="a_edge3_Node000002_Node000004"><a xlink:title=" ">
<path fill="none" stroke="#63b8ff" d="M238.22,-198.5C251.29,-198.5 266.76,-198.5 281.09,-198.5"/>
<polygon fill="#63b8ff" stroke="#63b8ff" points="281.27,-202 291.27,-198.5 281.27,-195 281.27,-202"/>
</a>
</g>
</g>
<!-- Node4&#45;&gt;Node3 -->
<g id="edge4_Node000004_Node000003" class="edge">
<title>Node4&#45;&gt;Node3</title>
<g id="a_edge4_Node000004_Node000003"><a xlink:title=" ">
<path fill="none" stroke="#63b8ff" d="M351.34,-188.96C369.47,-181.22 395.58,-170.07 417.94,-160.53"/>
<polygon fill="#63b8ff" stroke="#63b8ff" points="419.44,-163.69 427.26,-156.55 416.69,-157.25 419.44,-163.69"/>
</a>
</g>
</g>
<!-- Node5&#45;&gt;Node3 -->
<g id="edge7_Node000005_Node000003" class="edge">
<title>Node5&#45;&gt;Node3</title>
<g id="a_edge7_Node000005_Node000003"><a xlink:title=" ">
<path fill="none" stroke="#63b8ff" d="M241.04,-132.01C256.2,-135.77 274.36,-139.64 291,-141.5 323.57,-145.14 359.83,-145.65 390.59,-145.05"/>
<polygon fill="#63b8ff" stroke="#63b8ff" points="390.89,-148.54 400.8,-144.8 390.72,-141.54 390.89,-148.54"/>
</a>
</g>
</g>
<!-- Node6 -->
<g id="Node000006" class="node">
<title>Node6</title>
<g id="a_Node000006"><a xlink:href="main__infer_8c.html#a55469391e7680b876a48cdc0d3d24632" target="_top" xlink:title=" ">
<polygon fill="white" stroke="#666666" points="363.5,-132 292.5,-132 292.5,-113 363.5,-113 363.5,-132"/>
<text text-anchor="middle" x="328" y="-120" font-family="Helvetica,sans-Serif" font-size="10.00">starts_with</text>
</a>
</g>
</g>
<!-- Node5&#45;&gt;Node6 -->
<g id="edge8_Node000005_Node000006" class="edge">
<title>Node5&#45;&gt;Node6</title>
<g id="a_edge8_Node000005_Node000006"><a xlink:title=" ">
<path fill="none" stroke="#63b8ff" d="M255.12,-122.5C264.02,-122.5 273.29,-122.5 282.09,-122.5"/>
<polygon fill="#63b8ff" stroke="#63b8ff" points="282.17,-126 292.17,-122.5 282.17,-119 282.17,-126"/>
</a>
</g>
</g>
<!-- Node6&#45;&gt;Node3 -->
<g id="edge9_Node000006_Node000003" class="edge">
<title>Node6&#45;&gt;Node3</title>
<g id="a_edge9_Node000006_Node000003"><a xlink:title=" ">
<path fill="none" stroke="#63b8ff" d="M363.73,-127.44C372.07,-128.63 381.28,-129.94 390.63,-131.27"/>
<polygon fill="#63b8ff" stroke="#63b8ff" points="390.4,-134.77 400.79,-132.72 391.39,-127.84 390.4,-134.77"/>
</a>
</g>
</g>
<!-- Node7&#45;&gt;Node3 -->
<g id="edge11_Node000007_Node000003" class="edge">
<title>Node7&#45;&gt;Node3</title>
<g id="a_edge11_Node000007_Node000003"><a xlink:title=" ">
<path fill="none" stroke="#63b8ff" d="M237.11,-86.62C269.21,-88.35 321.32,-92.69 365,-103.5 383.72,-108.13 403.68,-115.46 420.64,-122.45"/>
<polygon fill="#63b8ff" stroke="#63b8ff" points="419.67,-125.83 430.24,-126.5 422.39,-119.39 419.67,-125.83"/>
</a>
</g>
</g>
<!-- Node7&#45;&gt;Node4 -->
<g id="edge14_Node000007_Node000004" class="edge">
<title>Node7&#45;&gt;Node4</title>
<g id="a_edge14_Node000007_Node000004"><a xlink:title=" ">
<path fill="none" stroke="#63b8ff" d="M237.03,-93.79C243.31,-96.31 249.65,-99.51 255,-103.5 269.79,-114.52 298.88,-156.24 315.2,-180.58"/>
<polygon fill="#63b8ff" stroke="#63b8ff" points="312.31,-182.56 320.77,-188.95 318.14,-178.69 312.31,-182.56"/>
</a>
</g>
</g>
<!-- Node7&#45;&gt;Node8 -->
<g id="edge12_Node000007_Node000008" class="edge">
<title>Node7&#45;&gt;Node8</title>
<g id="a_edge12_Node000007_Node000008"><a xlink:title=" ">
<path fill="none" stroke="#63b8ff" d="M236.36,-75.96C251.9,-70.91 271.2,-64.64 287.98,-59.18"/>
<polygon fill="#63b8ff" stroke="#63b8ff" points="289.1,-62.5 297.53,-56.08 286.94,-55.84 289.1,-62.5"/>
</a>
</g>
</g>
<!-- Node8&#45;&gt;Node3 -->
<g id="edge13_Node000008_Node000003" class="edge">
<title>Node8&#45;&gt;Node3</title>
<g id="a_edge13_Node000008_Node000003"><a xlink:title=" ">
<path fill="none" stroke="#63b8ff" d="M343.81,-56.17C350.34,-60.49 358.1,-65.69 365,-70.5 388.49,-86.87 414.71,-106.02 434.04,-120.3"/>
<polygon fill="#63b8ff" stroke="#63b8ff" points="432.01,-123.15 442.13,-126.29 436.18,-117.53 432.01,-123.15"/>
</a>
</g>
</g>
<!-- Node9&#45;&gt;Node3 -->
<g id="edge16_Node000009_Node000003" class="edge">
<title>Node9&#45;&gt;Node3</title>
<g id="a_edge16_Node000009_Node000003"><a xlink:title=" ">
<path fill="none" stroke="#63b8ff" d="M351.54,-19.03C356.2,-21.47 360.93,-24.32 365,-27.5 398.44,-53.64 428.82,-92.7 446.48,-117.64"/>
<polygon fill="#63b8ff" stroke="#63b8ff" points="443.81,-119.93 452.4,-126.14 449.56,-115.93 443.81,-119.93"/>
</a>
</g>
</g>
</g>
</svg>

<g id="navigator" transform="translate(0 0)" fill="#404254">
  <rect fill="#f2f5e9" fill-opacity="0.5" stroke="#606060" stroke-width=".5" x="0" y="0" width="60" height="60"/>
  <use id="zoomplus" xlink:href="#zoomPlus" x="17" y="9" onmousedown="handleZoom(evt,'in')"/>
  <use id="zoomminus" xlink:href="#zoomMin" x="42" y="9" onmousedown="handleZoom(evt,'out')"/>
  <use id="reset" xlink:href="#resetDef" x="30" y="36" onmousedown="handleReset()"/>
   <use id="arrowup" xlink:href="#arrowUp" x="0" y="0" onmousedown="handlePan(0,-1)"/>
  <use id="arrowright" xlink:href="#arrowRight" x="0" y="0" onmousedown="handlePan(1,0)"/>
  <use id="arrowdown" xlink:href="#arrowDown" x="0" y="0" onmousedown="handlePan(0,1)"/>
  <use id="arrowleft" xlink:href="#arrowLeft" x="0" y="0" onmousedown="handlePan(-1,0)"/>
</g>
<svg viewBox="0 0 15 15" width="100%" height="30px" preserveAspectRatio="xMaxYMin meet">
 <g id="arrow_out" transform="scale(0.3 0.3)">
  <a xlink:href="main__infer_8c_ad6b894571e18a35f21d8451e008fae37_cgraph_org.svg" target="_base">
   <rect id="button" ry="5" rx="5" y="6" x="6" height="38" width="38"
        fill="#f2f5e9" fill-opacity="0.5" stroke="#606060" stroke-width="1.0"/>
   <path id="arrow"
     d="M 11.500037,31.436501 C 11.940474,20.09759 22.043105,11.32322 32.158766,21.979434 L 37.068811,17.246167 C 37.068811,17.246167 37.088388,32 37.088388,32 L 22.160133,31.978069 C 22.160133,31.978069 26.997745,27.140456 26.997745,27.140456 C 18.528582,18.264221 13.291696,25.230495 11.500037,31.436501 z"
     style="fill:#404040;"/>
  </a>
 </g>
</svg>

<style type='text/css'>
<![CDATA[
[data-mouse-over-selected='false'] { opacity: 0.7; }
[data-mouse-over-selected='true']  { opacity: 1.0; }
]]>
</style>
<script type="application/ecmascript"><![CDATA[
document.addEventListener('DOMContentLoaded', (event) => {
  highlightEdges();
  highlightAdjacentNodes();
});
]]></script>
</svg>
