<?xml version="1.0" encoding="UTF-8" standalone="no"?>
<!DOCTYPE svg PUBLIC "-//W3C//DTD SVG 1.1//EN"
 "http://www.w3.org/Graphics/SVG/1.1/DTD/svg11.dtd">
<!-- Generated by graphviz version 2.43.0 (0)
 -->
<!-- Title: engine/src/main_infer.c Pages: 1 -->
<!--zoomable 192 -->

<svg id="main" version="1.1" xmlns="http://www.w3.org/2000/svg" xmlns:xlink="http://www.w3.org/1999/xlink" xml:space="preserve" onload="init(evt)">
<style type="text/css"><![CDATA[
.node, .edge {opacity: 0.7;}
.node.selected, .edge.selected {opacity: 1;}
.edge:hover path { stroke: red; }
.edge:hover polygon { stroke: red; fill: red; }
]]></style>

<defs>
  <circle id="rim" cx="0" cy="0" r="7"/>
  <circle id="rim2" cx="0" cy="0" r="3.5"/>
  <g id="zoomPlus">
    <use xlink:href="#rim" fill="#404040"><set attributeName="fill" to="#808080" begin="zoomplus.mouseover" end="zoomplus.mouseout"/></use>
    <path d="M-4,0h8M0,-4v8" fill="none" stroke="white" stroke-width="1.5" pointer-events="none"/>
  </g>
  <g id="zoomMin">
    <use xlink:href="#rim" fill="#404040"><set attributeName="fill" to="#808080" begin="zoomminus.mouseover" end="zoomminus.mouseout"/></use>
    <path d="M-4,0h8" fill="none" stroke="white" stroke-width="1.5" pointer-events="none"/>
  </g>
  <g id="arrowUp" transform="translate(30 24)">
    <use xlink:href="#rim"/>
    <path pointer-events="none" fill="none" stroke="white" stroke-width="1.5" d="M0,-3.0v7 M-2.5,-0.5L0,-3.0L2.5,-0.5"/>
  </g>
  <g id="arrowRight" transform="rotate(90) translate(36 -43)">
    <use xlink:href="#rim"/>
    <path pointer-events="none" fill="none" stroke="white" stroke-width="1.5" d="M0,-3.0v7 M-2.5,-0.5L0,-3.0L2.5,-0.5"/>
  </g>
  <g id="arrowDown" transform="rotate(180) translate(-30 -48)">
    <use xlink:href="#rim"/>
    <path pointer-events="none" fill="none" stroke="white" stroke-width="1.5" d="M0,-3.0v7 M-2.5,-0.5L0,-3.0L2.5,-0.5"/>
  </g>
  <g id="arrowLeft" transform="rotate(270) translate(-36 17)">
    <use xlink:href="#rim"/>
    <path pointer-events="none" fill="none" stroke="white" stroke-width="1.5" d="M0,-3.0v7 M-2.5,-0.5L0,-3.0L2.5,-0.5"/>
  </g>
  <g id="resetDef">
    <use xlink:href="#rim2" fill="#404040"><set attributeName="fill" to="#808080" begin="reset.mouseover" end="reset.mouseout"/></use>
  </g>
</defs>
<script type="application/ecmascript">
var viewWidth = 1386;
var viewHeight = 192;
var sectionId = 'dynsection-0';
</script>
<script type="application/ecmascript" xlink:href="svg.min.js"/>
<svg id="graph" class="graph">
<g id="viewport">
<title>engine/src/main_infer.c</title>
<!-- Node1 -->
<g id="Node000001" class="node">
<title>Node1</title>
<g id="a_Node000001"><a xlink:title="CLI entry point for the inference engine (benchmark&#45;friendly).">
<polygon fill="#999999" stroke="#666666" points="667,-184 537,-184 537,-165 667,-165 667,-184"/>
<text text-anchor="middle" x="602" y="-172" font-family="Helvetica,sans-Serif" font-size="10.00">engine/src/main_infer.c</text>
</a>
</g>
</g>
<!-- Node2 -->
<g id="Node000002" class="node">
<title>Node2</title>
<g id="a_Node000002"><a xlink:title=" ">
<polygon fill="#e0e0e0" stroke="#999999" points="50,-129 0,-129 0,-110 50,-110 50,-129"/>
<text text-anchor="middle" x="25" y="-117" font-family="Helvetica,sans-Serif" font-size="10.00">dlfcn.h</text>
</a>
</g>
</g>
<!-- Node1&#45;&gt;Node2 -->
<g id="edge1_Node000001_Node000002" class="edge">
<title>Node1&#45;&gt;Node2</title>
<g id="a_edge1_Node000001_Node000002"><a xlink:title=" ">
<path fill="none" stroke="#63b8ff" d="M536.8,-171.59C436.33,-167.89 237.57,-157.58 60.19,-128.92"/>
<polygon fill="#63b8ff" stroke="#63b8ff" points="60.59,-125.44 50.16,-127.27 59.46,-132.35 60.59,-125.44"/>
</a>
</g>
</g>
<!-- Node3 -->
<g id="Node000003" class="node">
<title>Node3</title>
<g id="a_Node000003"><a xlink:title=" ">
<polygon fill="#e0e0e0" stroke="#999999" points="119.5,-129 68.5,-129 68.5,-110 119.5,-110 119.5,-129"/>
<text text-anchor="middle" x="94" y="-117" font-family="Helvetica,sans-Serif" font-size="10.00">errno.h</text>
</a>
</g>
</g>
<!-- Node1&#45;&gt;Node3 -->
<g id="edge2_Node000001_Node000003" class="edge">
<title>Node1&#45;&gt;Node3</title>
<g id="a_edge2_Node000001_Node000003"><a xlink:title=" ">
<path fill="none" stroke="#63b8ff" d="M536.81,-170.51C447.02,-165.69 280.18,-154.26 129.44,-129.01"/>
<polygon fill="#63b8ff" stroke="#63b8ff" points="129.98,-125.55 119.53,-127.32 128.8,-132.45 129.98,-125.55"/>
</a>
</g>
</g>
<!-- Node4 -->
<g id="Node000004" class="node">
<title>Node4</title>
<g id="a_Node000004"><a xlink:title=" ">
<polygon fill="#e0e0e0" stroke="#999999" points="184.5,-129 137.5,-129 137.5,-110 184.5,-110 184.5,-129"/>
<text text-anchor="middle" x="161" y="-117" font-family="Helvetica,sans-Serif" font-size="10.00">fcntl.h</text>
</a>
</g>
</g>
<!-- Node1&#45;&gt;Node4 -->
<g id="edge3_Node000001_Node000004" class="edge">
<title>Node1&#45;&gt;Node4</title>
<g id="a_edge3_Node000001_Node000004"><a xlink:title=" ">
<path fill="none" stroke="#63b8ff" d="M536.74,-169.46C457.78,-163.88 320.72,-152.03 194.87,-129.1"/>
<polygon fill="#63b8ff" stroke="#63b8ff" points="195.14,-125.59 184.67,-127.22 193.87,-132.48 195.14,-125.59"/>
</a>
</g>
</g>
<!-- Node5 -->
<g id="Node000005" class="node">
<title>Node5</title>
<g id="a_Node000005"><a xlink:title=" ">
<polygon fill="#e0e0e0" stroke="#999999" points="267.5,-129 202.5,-129 202.5,-110 267.5,-110 267.5,-129"/>
<text text-anchor="middle" x="235" y="-117" font-family="Helvetica,sans-Serif" font-size="10.00">inttypes.h</text>
</a>
</g>
</g>
<!-- Node1&#45;&gt;Node5 -->
<g id="edge4_Node000001_Node000005" class="edge">
<title>Node1&#45;&gt;Node5</title>
<g id="a_edge4_Node000001_Node000005"><a xlink:title=" ">
<path fill="none" stroke="#63b8ff" d="M536.85,-165.94C473.16,-158.25 373.2,-145.38 277.75,-129.21"/>
<polygon fill="#63b8ff" stroke="#63b8ff" points="278.08,-125.71 267.64,-127.48 276.9,-132.61 278.08,-125.71"/>
</a>
</g>
</g>
<!-- Node6 -->
<g id="Node000006" class="node">
<title>Node6</title>
<g id="a_Node000006"><a xlink:title=" ">
<polygon fill="#e0e0e0" stroke="#999999" points="338.5,-129 285.5,-129 285.5,-110 338.5,-110 338.5,-129"/>
<text text-anchor="middle" x="312" y="-117" font-family="Helvetica,sans-Serif" font-size="10.00">limits.h</text>
</a>
</g>
</g>
<!-- Node1&#45;&gt;Node6 -->
<g id="edge5_Node000001_Node000006" class="edge">
<title>Node1&#45;&gt;Node6</title>
<g id="a_edge5_Node000001_Node000006"><a xlink:title=" ">
<path fill="none" stroke="#63b8ff" d="M551.85,-164.96C501.51,-156.28 421.77,-142.27 353,-129 351.72,-128.75 350.41,-128.5 349.09,-128.24"/>
<polygon fill="#63b8ff" stroke="#63b8ff" points="349.38,-124.73 338.89,-126.18 348,-131.59 349.38,-124.73"/>
</a>
</g>
</g>
<!-- Node7 -->
<g id="Node000007" class="node">
<title>Node7</title>
<g id="a_Node000007"><a xlink:title=" ">
<polygon fill="#e0e0e0" stroke="#999999" points="1024.5,-19 971.5,-19 971.5,0 1024.5,0 1024.5,-19"/>
<text text-anchor="middle" x="998" y="-7" font-family="Helvetica,sans-Serif" font-size="10.00">stdint.h</text>
</a>
</g>
</g>
<!-- Node1&#45;&gt;Node7 -->
<g id="edge6_Node000001_Node000007" class="edge">
<title>Node1&#45;&gt;Node7</title>
<g id="a_edge6_Node000001_Node000007"><a xlink:title=" ">
<path fill="none" stroke="#63b8ff" d="M536.83,-174.09C458.22,-172.59 341.81,-161.96 386,-110 460.89,-21.95 840.86,-11.61 961.31,-10.56"/>
<polygon fill="#63b8ff" stroke="#63b8ff" points="961.52,-14.06 971.5,-10.49 961.47,-7.06 961.52,-14.06"/>
</a>
</g>
</g>
<!-- Node8 -->
<g id="Node000008" class="node">
<title>Node8</title>
<g id="a_Node000008"><a xlink:title=" ">
<polygon fill="#e0e0e0" stroke="#999999" points="445,-129 395,-129 395,-110 445,-110 445,-129"/>
<text text-anchor="middle" x="420" y="-117" font-family="Helvetica,sans-Serif" font-size="10.00">stdio.h</text>
</a>
</g>
</g>
<!-- Node1&#45;&gt;Node8 -->
<g id="edge7_Node000001_Node000008" class="edge">
<title>Node1&#45;&gt;Node8</title>
<g id="a_edge7_Node000001_Node000008"><a xlink:title=" ">
<path fill="none" stroke="#63b8ff" d="M572.76,-164.98C540.7,-155.65 489.29,-140.68 455.09,-130.72"/>
<polygon fill="#63b8ff" stroke="#63b8ff" points="455.65,-127.24 445.07,-127.8 453.69,-133.96 455.65,-127.24"/>
</a>
</g>
</g>
<!-- Node9 -->
<g id="Node000009" class="node">
<title>Node9</title>
<g id="a_Node000009"><a xlink:title=" ">
<polygon fill="#e0e0e0" stroke="#999999" points="516.5,-129 463.5,-129 463.5,-110 516.5,-110 516.5,-129"/>
<text text-anchor="middle" x="490" y="-117" font-family="Helvetica,sans-Serif" font-size="10.00">stdlib.h</text>
</a>
</g>
</g>
<!-- Node1&#45;&gt;Node9 -->
<g id="edge8_Node000001_Node000009" class="edge">
<title>Node1&#45;&gt;Node9</title>
<g id="a_edge8_Node000001_Node000009"><a xlink:title=" ">
<path fill="none" stroke="#63b8ff" d="M584.01,-164.98C566.07,-156.5 538.28,-143.35 517.57,-133.54"/>
<polygon fill="#63b8ff" stroke="#63b8ff" points="518.86,-130.28 508.32,-129.17 515.86,-136.61 518.86,-130.28"/>
</a>
</g>
</g>
<!-- Node10 -->
<g id="Node000010" class="node">
<title>Node10</title>
<g id="a_Node000010"><a xlink:title=" ">
<polygon fill="#e0e0e0" stroke="#999999" points="587.5,-129 534.5,-129 534.5,-110 587.5,-110 587.5,-129"/>
<text text-anchor="middle" x="561" y="-117" font-family="Helvetica,sans-Serif" font-size="10.00">string.h</text>
</a>
</g>
</g>
<!-- Node1&#45;&gt;Node10 -->
<g id="edge9_Node000001_Node000010" class="edge">
<title>Node1&#45;&gt;Node10</title>
<g id="a_edge9_Node000001_Node000010"><a xlink:title=" ">
<path fill="none" stroke="#63b8ff" d="M595.23,-164.75C589.44,-157.26 580.94,-146.28 573.86,-137.13"/>
<polygon fill="#63b8ff" stroke="#63b8ff" points="576.53,-134.86 567.64,-129.09 570.99,-139.14 576.53,-134.86"/>
</a>
</g>
</g>
<!-- Node11 -->
<g id="Node000011" class="node">
<title>Node11</title>
<g id="a_Node000011"><a xlink:title=" ">
<polygon fill="#e0e0e0" stroke="#999999" points="682.5,-129 605.5,-129 605.5,-110 682.5,-110 682.5,-129"/>
<text text-anchor="middle" x="644" y="-117" font-family="Helvetica,sans-Serif" font-size="10.00">sys/mman.h</text>
</a>
</g>
</g>
<!-- Node1&#45;&gt;Node11 -->
<g id="edge10_Node000001_Node000011" class="edge">
<title>Node1&#45;&gt;Node11</title>
<g id="a_edge10_Node000001_Node000011"><a xlink:title=" ">
<path fill="none" stroke="#63b8ff" d="M608.94,-164.75C614.87,-157.26 623.57,-146.28 630.82,-137.13"/>
<polygon fill="#63b8ff" stroke="#63b8ff" points="633.73,-139.1 637.19,-129.09 628.24,-134.75 633.73,-139.1"/>
</a>
</g>
</g>
<!-- Node12 -->
<g id="Node000012" class="node">
<title>Node12</title>
<g id="a_Node000012"><a xlink:title=" ">
<polygon fill="#e0e0e0" stroke="#999999" points="765,-129 701,-129 701,-110 765,-110 765,-129"/>
<text text-anchor="middle" x="733" y="-117" font-family="Helvetica,sans-Serif" font-size="10.00">sys/stat.h</text>
</a>
</g>
</g>
<!-- Node1&#45;&gt;Node12 -->
<g id="edge11_Node000001_Node000012" class="edge">
<title>Node1&#45;&gt;Node12</title>
<g id="a_edge11_Node000001_Node000012"><a xlink:title=" ">
<path fill="none" stroke="#63b8ff" d="M623.05,-164.98C644.41,-156.34 677.7,-142.87 702.06,-133.02"/>
<polygon fill="#63b8ff" stroke="#63b8ff" points="703.61,-136.17 711.57,-129.17 700.99,-129.68 703.61,-136.17"/>
</a>
</g>
</g>
<!-- Node13 -->
<g id="Node000013" class="node">
<title>Node13</title>
<g id="a_Node000013"><a xlink:title=" ">
<polygon fill="#e0e0e0" stroke="#999999" points="831,-129 783,-129 783,-110 831,-110 831,-129"/>
<text text-anchor="middle" x="807" y="-117" font-family="Helvetica,sans-Serif" font-size="10.00">time.h</text>
</a>
</g>
</g>
<!-- Node1&#45;&gt;Node13 -->
<g id="edge12_Node000001_Node000013" class="edge">
<title>Node1&#45;&gt;Node13</title>
<g id="a_edge12_Node000001_Node000013"><a xlink:title=" ">
<path fill="none" stroke="#63b8ff" d="M634.94,-164.98C672.7,-155.22 734.31,-139.29 772.65,-129.38"/>
<polygon fill="#63b8ff" stroke="#63b8ff" points="774,-132.65 782.81,-126.75 772.25,-125.87 774,-132.65"/>
</a>
</g>
</g>
<!-- Node14 -->
<g id="Node000014" class="node">
<title>Node14</title>
<g id="a_Node000014"><a xlink:title=" ">
<polygon fill="#e0e0e0" stroke="#999999" points="905,-129 849,-129 849,-110 905,-110 905,-129"/>
<text text-anchor="middle" x="877" y="-117" font-family="Helvetica,sans-Serif" font-size="10.00">unistd.h</text>
</a>
</g>
</g>
<!-- Node1&#45;&gt;Node14 -->
<g id="edge13_Node000001_Node000014" class="edge">
<title>Node1&#45;&gt;Node14</title>
<g id="a_edge13_Node000001_Node000014"><a xlink:title=" ">
<path fill="none" stroke="#63b8ff" d="M650.89,-164.96C696.92,-156.79 768.03,-143.82 838.77,-129.19"/>
<polygon fill="#63b8ff" stroke="#63b8ff" points="839.67,-132.58 848.74,-127.12 838.24,-125.73 839.67,-132.58"/>
</a>
</g>
</g>
<!-- Node15 -->
<g id="Node000015" class="node">
<title>Node15</title>
<g id="a_Node000015"><a xlink:href="ie__engine_8h.html" target="_top" xlink:title="Public engine façade (compatibility shim).">
<polygon fill="white" stroke="#666666" points="1097.5,-129 1024.5,-129 1024.5,-110 1097.5,-110 1097.5,-129"/>
<text text-anchor="middle" x="1061" y="-117" font-family="Helvetica,sans-Serif" font-size="10.00">ie_engine.h</text>
</a>
</g>
</g>
<!-- Node1&#45;&gt;Node15 -->
<g id="edge14_Node000001_Node000015" class="edge">
<title>Node1&#45;&gt;Node15</title>
<g id="a_edge14_Node000001_Node000015"><a xlink:title=" ">
<path fill="none" stroke="#63b8ff" d="M667.29,-168C746.79,-160.95 885.36,-147.58 1014.32,-128.99"/>
<polygon fill="#63b8ff" stroke="#63b8ff" points="1014.99,-132.43 1024.38,-127.52 1013.98,-125.5 1014.99,-132.43"/>
</a>
</g>
</g>
<!-- Node18 -->
<g id="Node000018" class="node">
<title>Node18</title>
<g id="a_Node000018"><a xlink:href="ie__io_8h.html" target="_top" xlink:title=" ">
<polygon fill="white" stroke="#666666" points="1289.5,-74 1240.5,-74 1240.5,-55 1289.5,-55 1289.5,-74"/>
<text text-anchor="middle" x="1265" y="-62" font-family="Helvetica,sans-Serif" font-size="10.00">ie_io.h</text>
</a>
</g>
</g>
<!-- Node1&#45;&gt;Node18 -->
<g id="edge20_Node000001_Node000018" class="edge">
<title>Node1&#45;&gt;Node18</title>
<g id="a_edge20_Node000001_Node000018"><a xlink:title=" ">
<path fill="none" stroke="#63b8ff" d="M667.21,-170.93C788.73,-165.65 1045.24,-152.11 1131,-129 1172.4,-117.84 1216.65,-94.33 1242.51,-79.25"/>
<polygon fill="#63b8ff" stroke="#63b8ff" points="1244.36,-82.23 1251.17,-74.12 1240.79,-76.21 1244.36,-82.23"/>
</a>
</g>
</g>
<!-- Node19 -->
<g id="Node000019" class="node">
<title>Node19</title>
<g id="a_Node000019"><a xlink:href="ie__kv__instrumentation_8h.html" target="_top" xlink:title="Lightweight KV cache hit/miss instrumentation for benchmarks.">
<polygon fill="white" stroke="#666666" points="1222.5,-74 1087.5,-74 1087.5,-55 1222.5,-55 1222.5,-74"/>
<text text-anchor="middle" x="1155" y="-62" font-family="Helvetica,sans-Serif" font-size="10.00">ie_kv_instrumentation.h</text>
</a>
</g>
</g>
<!-- Node1&#45;&gt;Node19 -->
<g id="edge23_Node000001_Node000019" class="edge">
<title>Node1&#45;&gt;Node19</title>
<g id="a_edge23_Node000001_Node000019"><a xlink:title=" ">
<path fill="none" stroke="#63b8ff" d="M667.34,-174.14C786.16,-174.26 1032.13,-169.44 1106,-129 1124.46,-118.9 1138.2,-98.59 1146.36,-83.65"/>
<polygon fill="#63b8ff" stroke="#63b8ff" points="1149.68,-84.86 1151.11,-74.36 1143.44,-81.67 1149.68,-84.86"/>
</a>
</g>
</g>
<!-- Node20 -->
<g id="Node000020" class="node">
<title>Node20</title>
<g id="a_Node000020"><a xlink:href="util__logging_8h.html" target="_top" xlink:title="Minimal logging interface (printf&#45;style), used by CLI and tests.">
<polygon fill="white" stroke="#666666" points="1377.5,-129 1294.5,-129 1294.5,-110 1377.5,-110 1377.5,-129"/>
<text text-anchor="middle" x="1336" y="-117" font-family="Helvetica,sans-Serif" font-size="10.00">util_logging.h</text>
</a>
</g>
</g>
<!-- Node1&#45;&gt;Node20 -->
<g id="edge26_Node000001_Node000020" class="edge">
<title>Node1&#45;&gt;Node20</title>
<g id="a_edge26_Node000001_Node000020"><a xlink:title=" ">
<path fill="none" stroke="#63b8ff" d="M667.09,-169.45C782.95,-162.14 1032.57,-145.92 1243,-129 1256.39,-127.92 1270.86,-126.65 1284.31,-125.43"/>
<polygon fill="#63b8ff" stroke="#63b8ff" points="1284.71,-128.9 1294.35,-124.5 1284.07,-121.93 1284.71,-128.9"/>
</a>
</g>
</g>
<!-- Node22 -->
<g id="Node000022" class="node">
<title>Node22</title>
<g id="a_Node000022"><a xlink:href="util__metrics_8h.html" target="_top" xlink:title="Public helpers for runtime metrics (KV counters + RSS sampling).">
<polygon fill="white" stroke="#666666" points="1006.5,-129 923.5,-129 923.5,-110 1006.5,-110 1006.5,-129"/>
<text text-anchor="middle" x="965" y="-117" font-family="Helvetica,sans-Serif" font-size="10.00">util_metrics.h</text>
</a>
</g>
</g>
<!-- Node1&#45;&gt;Node22 -->
<g id="edge28_Node000001_Node000022" class="edge">
<title>Node1&#45;&gt;Node22</title>
<g id="a_edge28_Node000001_Node000022"><a xlink:title=" ">
<path fill="none" stroke="#63b8ff" d="M664.81,-164.98C725.65,-156.63 820.78,-143.31 913.18,-129.1"/>
<polygon fill="#63b8ff" stroke="#63b8ff" points="913.92,-132.52 923.26,-127.54 912.85,-125.6 913.92,-132.52"/>
</a>
</g>
</g>
<!-- Node15&#45;&gt;Node7 -->
<g id="edge16_Node000015_Node000007" class="edge">
<title>Node15&#45;&gt;Node7</title>
<g id="a_edge16_Node000015_Node000007"><a xlink:title=" ">
<path fill="none" stroke="#63b8ff" d="M1055.84,-109.66C1045.46,-91.85 1021.84,-51.37 1008.21,-28.01"/>
<polygon fill="#63b8ff" stroke="#63b8ff" points="1011.11,-26.03 1003.05,-19.16 1005.07,-29.56 1011.11,-26.03"/>
</a>
</g>
</g>
<!-- Node16 -->
<g id="Node000016" class="node">
<title>Node16</title>
<g id="a_Node000016"><a xlink:title=" ">
<polygon fill="#e0e0e0" stroke="#999999" points="1109,-19 1053,-19 1053,0 1109,0 1109,-19"/>
<text text-anchor="middle" x="1081" y="-7" font-family="Helvetica,sans-Serif" font-size="10.00">stddef.h</text>
</a>
</g>
</g>
<!-- Node15&#45;&gt;Node16 -->
<g id="edge15_Node000015_Node000016" class="edge">
<title>Node15&#45;&gt;Node16</title>
<g id="a_edge15_Node000015_Node000016"><a xlink:title=" ">
<path fill="none" stroke="#63b8ff" d="M1062.64,-109.66C1065.88,-92.17 1073.17,-52.8 1077.52,-29.27"/>
<polygon fill="#63b8ff" stroke="#63b8ff" points="1081.02,-29.63 1079.4,-19.16 1074.13,-28.35 1081.02,-29.63"/>
</a>
</g>
</g>
<!-- Node17 -->
<g id="Node000017" class="node">
<title>Node17</title>
<g id="a_Node000017"><a xlink:href="ie__api_8h.html" target="_top" xlink:title="Public C API for the inference engine (minimal surface used by CLI/tests).">
<polygon fill="white" stroke="#666666" points="992.5,-74 937.5,-74 937.5,-55 992.5,-55 992.5,-74"/>
<text text-anchor="middle" x="965" y="-62" font-family="Helvetica,sans-Serif" font-size="10.00">ie_api.h</text>
</a>
</g>
</g>
<!-- Node15&#45;&gt;Node17 -->
<g id="edge17_Node000015_Node000017" class="edge">
<title>Node15&#45;&gt;Node17</title>
<g id="a_edge17_Node000015_Node000017"><a xlink:title=" ">
<path fill="none" stroke="#63b8ff" d="M1045.58,-109.98C1030.55,-101.69 1007.46,-88.94 989.84,-79.22"/>
<polygon fill="#63b8ff" stroke="#63b8ff" points="991.15,-75.94 980.7,-74.17 987.77,-82.07 991.15,-75.94"/>
</a>
</g>
</g>
<!-- Node17&#45;&gt;Node7 -->
<g id="edge19_Node000017_Node000007" class="edge">
<title>Node17&#45;&gt;Node7</title>
<g id="a_edge19_Node000017_Node000007"><a xlink:title=" ">
<path fill="none" stroke="#63b8ff" d="M970.45,-54.75C975.01,-47.42 981.67,-36.73 987.29,-27.7"/>
<polygon fill="#63b8ff" stroke="#63b8ff" points="990.34,-29.43 992.65,-19.09 984.4,-25.73 990.34,-29.43"/>
</a>
</g>
</g>
<!-- Node17&#45;&gt;Node16 -->
<g id="edge18_Node000017_Node000016" class="edge">
<title>Node17&#45;&gt;Node16</title>
<g id="a_edge18_Node000017_Node000016"><a xlink:title=" ">
<path fill="none" stroke="#63b8ff" d="M983.64,-54.98C1002.3,-46.46 1031.25,-33.23 1052.74,-23.41"/>
<polygon fill="#63b8ff" stroke="#63b8ff" points="1054.38,-26.51 1062.02,-19.17 1051.47,-20.14 1054.38,-26.51"/>
</a>
</g>
</g>
<!-- Node18&#45;&gt;Node7 -->
<g id="edge22_Node000018_Node000007" class="edge">
<title>Node18&#45;&gt;Node7</title>
<g id="a_edge22_Node000018_Node000007"><a xlink:title=" ">
<path fill="none" stroke="#63b8ff" d="M1240.17,-56.92C1237.42,-56.25 1234.66,-55.59 1232,-55 1213.02,-50.76 1095.58,-28.72 1034.63,-17.33"/>
<polygon fill="#63b8ff" stroke="#63b8ff" points="1035.12,-13.86 1024.65,-15.47 1033.84,-20.74 1035.12,-13.86"/>
</a>
</g>
</g>
<!-- Node18&#45;&gt;Node16 -->
<g id="edge21_Node000018_Node000016" class="edge">
<title>Node18&#45;&gt;Node16</title>
<g id="a_edge21_Node000018_Node000016"><a xlink:title=" ">
<path fill="none" stroke="#63b8ff" d="M1240.18,-56.35C1208.98,-47.36 1155.11,-31.85 1118.78,-21.38"/>
<polygon fill="#63b8ff" stroke="#63b8ff" points="1119.61,-17.98 1109.03,-18.57 1117.67,-24.7 1119.61,-17.98"/>
</a>
</g>
</g>
<!-- Node19&#45;&gt;Node7 -->
<g id="edge24_Node000019_Node000007" class="edge">
<title>Node19&#45;&gt;Node7</title>
<g id="a_edge24_Node000019_Node000007"><a xlink:title=" ">
<path fill="none" stroke="#63b8ff" d="M1129.78,-54.98C1103.64,-46.16 1062.6,-32.31 1033.27,-22.41"/>
<polygon fill="#63b8ff" stroke="#63b8ff" points="1034.02,-18.96 1023.42,-19.08 1031.78,-25.6 1034.02,-18.96"/>
</a>
</g>
</g>
<!-- Node19&#45;&gt;Node16 -->
<g id="edge25_Node000019_Node000016" class="edge">
<title>Node19&#45;&gt;Node16</title>
<g id="a_edge25_Node000019_Node000016"><a xlink:title=" ">
<path fill="none" stroke="#63b8ff" d="M1143.11,-54.98C1131.85,-46.92 1114.71,-34.65 1101.29,-25.03"/>
<polygon fill="#63b8ff" stroke="#63b8ff" points="1103.27,-22.15 1093.11,-19.17 1099.2,-27.84 1103.27,-22.15"/>
</a>
</g>
</g>
<!-- Node21 -->
<g id="Node000021" class="node">
<title>Node21</title>
<g id="a_Node000021"><a xlink:title=" ">
<polygon fill="#e0e0e0" stroke="#999999" points="1364,-74 1308,-74 1308,-55 1364,-55 1364,-74"/>
<text text-anchor="middle" x="1336" y="-62" font-family="Helvetica,sans-Serif" font-size="10.00">stdarg.h</text>
</a>
</g>
</g>
<!-- Node20&#45;&gt;Node21 -->
<g id="edge27_Node000020_Node000021" class="edge">
<title>Node20&#45;&gt;Node21</title>
<g id="a_edge27_Node000020_Node000021"><a xlink:title=" ">
<path fill="none" stroke="#63b8ff" d="M1336,-109.75C1336,-102.8 1336,-92.85 1336,-84.13"/>
<polygon fill="#63b8ff" stroke="#63b8ff" points="1339.5,-84.09 1336,-74.09 1332.5,-84.09 1339.5,-84.09"/>
</a>
</g>
</g>
<!-- Node22&#45;&gt;Node7 -->
<g id="edge29_Node000022_Node000007" class="edge">
<title>Node22&#45;&gt;Node7</title>
<g id="a_edge29_Node000022_Node000007"><a xlink:title=" ">
<path fill="none" stroke="#63b8ff" d="M953.74,-109.95C939.23,-97.83 917.07,-74.91 928,-55 935.77,-40.85 950.17,-30.56 963.89,-23.46"/>
<polygon fill="#63b8ff" stroke="#63b8ff" points="965.66,-26.49 973.19,-19.05 962.66,-20.17 965.66,-26.49"/>
</a>
</g>
</g>
<!-- Node22&#45;&gt;Node17 -->
<g id="edge30_Node000022_Node000017" class="edge">
<title>Node22&#45;&gt;Node17</title>
<g id="a_edge30_Node000022_Node000017"><a xlink:title=" ">
<path fill="none" stroke="#63b8ff" d="M965,-109.75C965,-102.8 965,-92.85 965,-84.13"/>
<polygon fill="#63b8ff" stroke="#63b8ff" points="968.5,-84.09 965,-74.09 961.5,-84.09 968.5,-84.09"/>
</a>
</g>
</g>
</g>
</svg>

<g id="navigator" transform="translate(0 0)" fill="#404254">
  <rect fill="#f2f5e9" fill-opacity="0.5" stroke="#606060" stroke-width=".5" x="0" y="0" width="60" height="60"/>
  <use id="zoomplus" xlink:href="#zoomPlus" x="17" y="9" onmousedown="handleZoom(evt,'in')"/>
  <use id="zoomminus" xlink:href="#zoomMin" x="42" y="9" onmousedown="handleZoom(evt,'out')"/>
  <use id="reset" xlink:href="#resetDef" x="30" y="36" onmousedown="handleReset()"/>
   <use id="arrowup" xlink:href="#arrowUp" x="0" y="0" onmousedown="handlePan(0,-1)"/>
  <use id="arrowright" xlink:href="#arrowRight" x="0" y="0" onmousedown="handlePan(1,0)"/>
  <use id="arrowdown" xlink:href="#arrowDown" x="0" y="0" onmousedown="handlePan(0,1)"/>
  <use id="arrowleft" xlink:href="#arrowLeft" x="0" y="0" onmousedown="handlePan(-1,0)"/>
</g>
<svg viewBox="0 0 15 15" width="100%" height="30px" preserveAspectRatio="xMaxYMin meet">
 <g id="arrow_out" transform="scale(0.3 0.3)">
  <a xlink:href="main__infer_8c__incl_org.svg" target="_base">
   <rect id="button" ry="5" rx="5" y="6" x="6" height="38" width="38"
        fill="#f2f5e9" fill-opacity="0.5" stroke="#606060" stroke-width="1.0"/>
   <path id="arrow"
     d="M 11.500037,31.436501 C 11.940474,20.09759 22.043105,11.32322 32.158766,21.979434 L 37.068811,17.246167 C 37.068811,17.246167 37.088388,32 37.088388,32 L 22.160133,31.978069 C 22.160133,31.978069 26.997745,27.140456 26.997745,27.140456 C 18.528582,18.264221 13.291696,25.230495 11.500037,31.436501 z"
     style="fill:#404040;"/>
  </a>
 </g>
</svg>

<style type='text/css'>
<![CDATA[
[data-mouse-over-selected='false'] { opacity: 0.7; }
[data-mouse-over-selected='true']  { opacity: 1.0; }
]]>
</style>
<script type="application/ecmascript"><![CDATA[
document.addEventListener('DOMContentLoaded', (event) => {
  highlightEdges();
  highlightAdjacentNodes();
});
]]></script>
</svg>
