<?xml version="1.0" encoding="UTF-8" standalone="no"?>
<!DOCTYPE svg PUBLIC "-//W3C//DTD SVG 1.1//EN"
 "http://www.w3.org/Graphics/SVG/1.1/DTD/svg11.dtd">
<!-- Generated by graphviz version 2.43.0 (0)
 -->
<!-- Title: heap_strdup Pages: 1 -->
<svg width="482pt" height="84pt"
 viewBox="0.00 0.00 482.00 84.00" xmlns="http://www.w3.org/2000/svg" xmlns:xlink="http://www.w3.org/1999/xlink">

<svg id="main" version="1.1" xmlns="http://www.w3.org/2000/svg" xmlns:xlink="http://www.w3.org/1999/xlink" xml:space="preserve" onload="init(evt)">
<style type="text/css"><![CDATA[
.node, .edge {opacity: 0.7;}
.node.selected, .edge.selected {opacity: 1;}
.edge:hover path { stroke: red; }
.edge:hover polygon { stroke: red; fill: red; }
]]></style>
<script type="application/ecmascript" xlink:href="svg.min.js"/>
<svg id="graph" class="graph">
<g id="graph0" class="graph" transform="scale(1 1) rotate(0) translate(4 80)">
<title>heap_strdup</title>
<!-- Node1 -->
<g id="Node000001" class="node">
<title>Node1</title>
<g id="a_Node000001"><a xlink:title="Heap&#45;duplicate a string (portable replacement for strdup).">
<polygon fill="#999999" stroke="#666666" points="474,-76 397,-76 397,-57 474,-57 474,-76"/>
<text text-anchor="middle" x="435.5" y="-64" font-family="Helvetica,sans-Serif" font-size="10.00">heap_strdup</text>
</a>
</g>
</g>
<!-- Node2 -->
<g id="Node000002" class="node">
<title>Node2</title>
<g id="a_Node000002"><a xlink:href="main__infer_8c.html#a3c04138a5bfe5d72780bb7e82a18e627" target="_top" xlink:title="main.">
<polygon fill="white" stroke="#666666" points="41,-57 0,-57 0,-38 41,-38 41,-57"/>
<text text-anchor="middle" x="20.5" y="-45" font-family="Helvetica,sans-Serif" font-size="10.00">main</text>
</a>
</g>
</g>
<!-- Node1&#45;&gt;Node2 -->
<g id="edge1_Node000001_Node000002" class="edge">
<title>Node1&#45;&gt;Node2</title>
<g id="a_edge1_Node000001_Node000002"><a xlink:title=" ">
<path fill="none" stroke="#63b8ff" d="M386.86,-69.61C318.06,-73.25 187.06,-76.97 77,-61.5 64.9,-59.8 51.61,-56.5 41.07,-53.53"/>
<polygon fill="#63b8ff" stroke="#63b8ff" points="387.16,-73.1 396.95,-69.05 386.77,-66.11 387.16,-73.1"/>
</a>
</g>
</g>
<!-- Node3 -->
<g id="Node000003" class="node">
<title>Node3</title>
<g id="a_Node000003"><a xlink:href="main__infer_8c.html#a9be857b0051297813c2cb218accbb5c8" target="_top" xlink:title="Push a prompt string copy into the list.">
<polygon fill="white" stroke="#666666" points="361,-57 232,-57 232,-38 361,-38 361,-57"/>
<text text-anchor="middle" x="296.5" y="-45" font-family="Helvetica,sans-Serif" font-size="10.00">prompt_list_push_copy</text>
</a>
</g>
</g>
<!-- Node1&#45;&gt;Node3 -->
<g id="edge2_Node000001_Node000003" class="edge">
<title>Node1&#45;&gt;Node3</title>
<g id="a_edge2_Node000001_Node000003"><a xlink:title=" ">
<path fill="none" stroke="#63b8ff" d="M386.58,-59.85C378.38,-58.72 369.75,-57.52 361.21,-56.34"/>
<polygon fill="#63b8ff" stroke="#63b8ff" points="386.32,-63.35 396.7,-61.26 387.28,-56.42 386.32,-63.35"/>
</a>
</g>
</g>
<!-- Node3&#45;&gt;Node2 -->
<g id="edge3_Node000003_Node000002" class="edge">
<title>Node3&#45;&gt;Node2</title>
<g id="a_edge3_Node000003_Node000002"><a xlink:title=" ">
<path fill="none" stroke="#63b8ff" d="M221.59,-47.5C160.62,-47.5 78.31,-47.5 41.15,-47.5"/>
<polygon fill="#63b8ff" stroke="#63b8ff" points="221.95,-51 231.95,-47.5 221.95,-44 221.95,-51"/>
</a>
</g>
</g>
<!-- Node4 -->
<g id="Node000004" class="node">
<title>Node4</title>
<g id="a_Node000004"><a xlink:href="main__infer_8c.html#a3d826199fc8a9ddb8a49f324c2ff1dc5" target="_top" xlink:title="Read all non&#45;empty lines from a prompts file into memory.">
<polygon fill="white" stroke="#666666" points="196,-19 77,-19 77,0 196,0 196,-19"/>
<text text-anchor="middle" x="136.5" y="-7" font-family="Helvetica,sans-Serif" font-size="10.00">prompt_list_read_file</text>
</a>
</g>
</g>
<!-- Node3&#45;&gt;Node4 -->
<g id="edge4_Node000003_Node000004" class="edge">
<title>Node3&#45;&gt;Node4</title>
<g id="a_edge4_Node000003_Node000004"><a xlink:title=" ">
<path fill="none" stroke="#63b8ff" d="M245.74,-35.53C223.6,-30.21 197.89,-24.02 177.08,-19.02"/>
<polygon fill="#63b8ff" stroke="#63b8ff" points="245.09,-38.98 255.63,-37.91 246.73,-32.17 245.09,-38.98"/>
</a>
</g>
</g>
<!-- Node4&#45;&gt;Node2 -->
<g id="edge5_Node000004_Node000002" class="edge">
<title>Node4&#45;&gt;Node2</title>
<g id="a_edge5_Node000004_Node000002"><a xlink:title=" ">
<path fill="none" stroke="#63b8ff" d="M96.99,-22.34C78.29,-28.57 56.6,-35.8 41.28,-40.91"/>
<polygon fill="#63b8ff" stroke="#63b8ff" points="98.35,-25.57 106.73,-19.09 96.14,-18.93 98.35,-25.57"/>
</a>
</g>
</g>
</g>
</svg>
</svg>

<style type='text/css'>
<![CDATA[
[data-mouse-over-selected='false'] { opacity: 0.7; }
[data-mouse-over-selected='true']  { opacity: 1.0; }
]]>
</style>
<script type="application/ecmascript"><![CDATA[
document.addEventListener('DOMContentLoaded', (event) => {
  highlightEdges();
  highlightAdjacentNodes();
});
]]></script>
</svg>
