<?xml version="1.0" encoding="UTF-8" standalone="no"?>
<!DOCTYPE svg PUBLIC "-//W3C//DTD SVG 1.1//EN"
 "http://www.w3.org/Graphics/SVG/1.1/DTD/svg11.dtd">
<!-- Generated by graphviz version 2.43.0 (0)
 -->
<!-- Title: starts_with Pages: 1 -->
<svg width="447pt" height="28pt"
 viewBox="0.00 0.00 447.00 28.00" xmlns="http://www.w3.org/2000/svg" xmlns:xlink="http://www.w3.org/1999/xlink">
<g id="graph0" class="graph" transform="scale(1 1) rotate(0) translate(4 24)">
<title>starts_with</title>
<!-- Node1 -->
<g id="node1" class="node">
<title>Node1</title>
<g id="a_node1"><a xlink:title="Check whether a string starts with a given prefix (byte&#45;wise).">
<polygon fill="#bfbfbf" stroke="black" points="368,-0.5 368,-19.5 439,-19.5 439,-0.5 368,-0.5"/>
<text text-anchor="middle" x="403.5" y="-7.5" font-family="Helvetica,sans-Serif" font-size="10.00">starts_with</text>
</a>
</g>
</g>
<!-- Node2 -->
<g id="node2" class="node">
<title>Node2</title>
<g id="a_node2"><a xlink:href="main__infer_8c.html#a937426768611822fbe840722069c7043" target="_top" xlink:title="Check whether a precision label refers to int4&#45;family weights.">
<polygon fill="none" stroke="black" points="234,-0.5 234,-19.5 332,-19.5 332,-0.5 234,-0.5"/>
<text text-anchor="middle" x="283" y="-7.5" font-family="Helvetica,sans-Serif" font-size="10.00">is_int4_precision</text>
</a>
</g>
</g>
<!-- Node1&#45;&gt;Node2 -->
<g id="edge1" class="edge">
<title>Node1&#45;&gt;Node2</title>
<path fill="none" stroke="midnightblue" d="M357.88,-10C349.45,-10 340.6,-10 332.07,-10"/>
<polygon fill="midnightblue" stroke="midnightblue" points="357.91,-13.5 367.91,-10 357.91,-6.5 357.91,-13.5"/>
</g>
<!-- Node3 -->
<g id="node3" class="node">
<title>Node3</title>
<g id="a_node3"><a xlink:href="main__infer_8c.html#ad6b894571e18a35f21d8451e008fae37" target="_top" xlink:title="Resolve model JSON/BIN paths using CLI overrides, model_dir, and precision.">
<polygon fill="none" stroke="black" points="77,-0.5 77,-19.5 198,-19.5 198,-0.5 77,-0.5"/>
<text text-anchor="middle" x="137.5" y="-7.5" font-family="Helvetica,sans-Serif" font-size="10.00">resolve_model_paths</text>
</a>
</g>
</g>
<!-- Node2&#45;&gt;Node3 -->
<g id="edge2" class="edge">
<title>Node2&#45;&gt;Node3</title>
<path fill="none" stroke="midnightblue" d="M223.67,-10C215.21,-10 206.5,-10 198.03,-10"/>
<polygon fill="midnightblue" stroke="midnightblue" points="223.82,-13.5 233.82,-10 223.82,-6.5 223.82,-13.5"/>
</g>
<!-- Node4 -->
<g id="node4" class="node">
<title>Node4</title>
<g id="a_node4"><a xlink:href="main__infer_8c.html#a3c04138a5bfe5d72780bb7e82a18e627" target="_top" xlink:title="Program entry point.">
<polygon fill="none" stroke="black" points="0,-0.5 0,-19.5 41,-19.5 41,-0.5 0,-0.5"/>
<text text-anchor="middle" x="20.5" y="-7.5" font-family="Helvetica,sans-Serif" font-size="10.00">main</text>
</a>
</g>
</g>
<!-- Node3&#45;&gt;Node4 -->
<g id="edge3" class="edge">
<title>Node3&#45;&gt;Node4</title>
<path fill="none" stroke="midnightblue" d="M66.75,-10C57.44,-10 48.58,-10 41.21,-10"/>
<polygon fill="midnightblue" stroke="midnightblue" points="66.98,-13.5 76.98,-10 66.98,-6.5 66.98,-13.5"/>
</g>
</g>
</svg>
