<?xml version="1.0" encoding="UTF-8" standalone="no"?>
<!DOCTYPE svg PUBLIC "-//W3C//DTD SVG 1.1//EN"
 "http://www.w3.org/Graphics/SVG/1.1/DTD/svg11.dtd">
<!-- Generated by graphviz version 2.43.0 (0)
 -->
<!-- Title: join_path Pages: 1 -->
<svg width="304pt" height="28pt"
 viewBox="0.00 0.00 304.00 28.00" xmlns="http://www.w3.org/2000/svg" xmlns:xlink="http://www.w3.org/1999/xlink">
<g id="graph0" class="graph" transform="scale(1 1) rotate(0) translate(4 24)">
<title>join_path</title>
<!-- Node1 -->
<g id="node1" class="node">
<title>Node1</title>
<g id="a_node1"><a xlink:title="Join a directory and a leaf name into a single POSIX path.">
<polygon fill="#bfbfbf" stroke="black" points="234,-0.5 234,-19.5 296,-19.5 296,-0.5 234,-0.5"/>
<text text-anchor="middle" x="265" y="-7.5" font-family="Helvetica,sans-Serif" font-size="10.00">join_path</text>
</a>
</g>
</g>
<!-- Node2 -->
<g id="node2" class="node">
<title>Node2</title>
<g id="a_node2"><a xlink:href="main__infer_8c.html#ad6b894571e18a35f21d8451e008fae37" target="_top" xlink:title="Resolve model JSON/BIN paths using CLI overrides, model_dir, and precision.">
<polygon fill="none" stroke="black" points="77,-0.5 77,-19.5 198,-19.5 198,-0.5 77,-0.5"/>
<text text-anchor="middle" x="137.5" y="-7.5" font-family="Helvetica,sans-Serif" font-size="10.00">resolve_model_paths</text>
</a>
</g>
</g>
<!-- Node1&#45;&gt;Node2 -->
<g id="edge1" class="edge">
<title>Node1&#45;&gt;Node2</title>
<path fill="none" stroke="midnightblue" d="M223.89,-10C215.67,-10 206.84,-10 198.1,-10"/>
<polygon fill="midnightblue" stroke="midnightblue" points="223.94,-13.5 233.94,-10 223.94,-6.5 223.94,-13.5"/>
</g>
<!-- Node3 -->
<g id="node3" class="node">
<title>Node3</title>
<g id="a_node3"><a xlink:href="main__infer_8c.html#a3c04138a5bfe5d72780bb7e82a18e627" target="_top" xlink:title="Program entry point.">
<polygon fill="none" stroke="black" points="0,-0.5 0,-19.5 41,-19.5 41,-0.5 0,-0.5"/>
<text text-anchor="middle" x="20.5" y="-7.5" font-family="Helvetica,sans-Serif" font-size="10.00">main</text>
</a>
</g>
</g>
<!-- Node2&#45;&gt;Node3 -->
<g id="edge2" class="edge">
<title>Node2&#45;&gt;Node3</title>
<path fill="none" stroke="midnightblue" d="M66.75,-10C57.44,-10 48.58,-10 41.21,-10"/>
<polygon fill="midnightblue" stroke="midnightblue" points="66.98,-13.5 76.98,-10 66.98,-6.5 66.98,-13.5"/>
</g>
</g>
</svg>
