<?xml version="1.0" encoding="UTF-8" standalone="no"?>
<!DOCTYPE svg PUBLIC "-//W3C//DTD SVG 1.1//EN"
 "http://www.w3.org/Graphics/SVG/1.1/DTD/svg11.dtd">
<!-- Generated by graphviz version 2.43.0 (0)
 -->
<!-- Title: bench_int8 Pages: 1 -->
<svg width="367pt" height="187pt"
 viewBox="0.00 0.00 367.00 187.00" xmlns="http://www.w3.org/2000/svg" xmlns:xlink="http://www.w3.org/1999/xlink">
<g id="graph0" class="graph" transform="scale(1 1) rotate(0) translate(4 183)">
<title>bench_int8</title>
<!-- Node1 -->
<g id="Node000001" class="node">
<title>Node1</title>
<g id="a_Node000001"><a xlink:title=" ">
<polygon fill="#999999" stroke="#666666" points="70,-93 0,-93 0,-74 70,-74 70,-93"/>
<text text-anchor="middle" x="35" y="-81" font-family="Helvetica,sans-Serif" font-size="10.00">bench_int8</text>
</a>
</g>
</g>
<!-- Node2 -->
<g id="Node000002" class="node">
<title>Node2</title>
<g id="a_Node000002"><a xlink:href="microbench__act__path_8c.html#a5d3710c85b882bf49d968768e567a9c7" target="_top" xlink:title=" ">
<polygon fill="white" stroke="#666666" points="210,-179 133,-179 133,-160 210,-160 210,-179"/>
<text text-anchor="middle" x="171.5" y="-167" font-family="Helvetica,sans-Serif" font-size="10.00">fill_gaussian</text>
</a>
</g>
</g>
<!-- Node1&#45;&gt;Node2 -->
<g id="edge1_Node000001_Node000002" class="edge">
<title>Node1&#45;&gt;Node2</title>
<g id="a_edge1_Node000001_Node000002"><a xlink:title=" ">
<path fill="none" stroke="#63b8ff" d="M43.52,-93.21C55.3,-107.76 79.51,-135.15 106,-150.5 111.24,-153.54 117.01,-156.12 122.87,-158.32"/>
<polygon fill="#63b8ff" stroke="#63b8ff" points="122.16,-161.77 132.76,-161.65 124.4,-155.14 122.16,-161.77"/>
</a>
</g>
</g>
<!-- Node3 -->
<g id="Node000003" class="node">
<title>Node3</title>
<g id="a_Node000003"><a xlink:href="act__int8_8c.html#a383703e828dd5701507b0d1f6ab1cf73" target="_top" xlink:title="Compute per&#45;tensor INT8 parameters from observed min/max.">
<polygon fill="white" stroke="#666666" points="237,-141.5 106,-141.5 106,-111.5 237,-111.5 237,-141.5"/>
<text text-anchor="start" x="114" y="-129.5" font-family="Helvetica,sans-Serif" font-size="10.00">ie_act_i8_params_from</text>
<text text-anchor="middle" x="171.5" y="-118.5" font-family="Helvetica,sans-Serif" font-size="10.00">_minmax</text>
</a>
</g>
</g>
<!-- Node1&#45;&gt;Node3 -->
<g id="edge2_Node000001_Node000003" class="edge">
<title>Node1&#45;&gt;Node3</title>
<g id="a_edge2_Node000001_Node000003"><a xlink:title=" ">
<path fill="none" stroke="#63b8ff" d="M65.85,-93.04C80.02,-97.57 97.43,-103.14 113.96,-108.43"/>
<polygon fill="#63b8ff" stroke="#63b8ff" points="112.97,-111.78 123.56,-111.49 115.1,-105.11 112.97,-111.78"/>
</a>
</g>
</g>
<!-- Node7 -->
<g id="Node000007" class="node">
<title>Node7</title>
<g id="a_Node000007"><a xlink:href="act__int8_8c.html#aa7d3ff181746bd40d9d863e51ac0b024" target="_top" xlink:title="Dequantize INT8 activations to fp32 using per&#45;tensor parameters.">
<polygon fill="white" stroke="#666666" points="236,-93 107,-93 107,-74 236,-74 236,-93"/>
<text text-anchor="middle" x="171.5" y="-81" font-family="Helvetica,sans-Serif" font-size="10.00">ie_dequantize_act_int8</text>
</a>
</g>
</g>
<!-- Node1&#45;&gt;Node7 -->
<g id="edge6_Node000001_Node000007" class="edge">
<title>Node1&#45;&gt;Node7</title>
<g id="a_edge6_Node000001_Node000007"><a xlink:title=" ">
<path fill="none" stroke="#63b8ff" d="M70.29,-83.5C78.52,-83.5 87.62,-83.5 96.89,-83.5"/>
<polygon fill="#63b8ff" stroke="#63b8ff" points="96.98,-87 106.98,-83.5 96.98,-80 96.98,-87"/>
</a>
</g>
</g>
<!-- Node8 -->
<g id="Node000008" class="node">
<title>Node8</title>
<g id="a_Node000008"><a xlink:href="act__int8_8c.html#a6d9a5a967125879dcd69327e9d5fa04b" target="_top" xlink:title="Quantize fp32 activations to INT8 using per&#45;tensor parameters.">
<polygon fill="white" stroke="#666666" points="230,-56 113,-56 113,-37 230,-37 230,-56"/>
<text text-anchor="middle" x="171.5" y="-44" font-family="Helvetica,sans-Serif" font-size="10.00">ie_quantize_act_int8</text>
</a>
</g>
</g>
<!-- Node1&#45;&gt;Node8 -->
<g id="edge7_Node000001_Node000008" class="edge">
<title>Node1&#45;&gt;Node8</title>
<g id="a_edge7_Node000001_Node000008"><a xlink:title=" ">
<path fill="none" stroke="#63b8ff" d="M70.29,-74.07C87.23,-69.41 107.88,-63.73 126.02,-58.73"/>
<polygon fill="#63b8ff" stroke="#63b8ff" points="127.09,-62.07 135.81,-56.04 125.24,-55.32 127.09,-62.07"/>
</a>
</g>
</g>
<!-- Node11 -->
<g id="Node000011" class="node">
<title>Node11</title>
<g id="a_Node000011"><a xlink:href="microbench__act__path_8c.html#a22e248c6fb13408ca0c3399b4a73d8d8" target="_top" xlink:title=" ">
<polygon fill="white" stroke="#666666" points="212.5,-19 130.5,-19 130.5,0 212.5,0 212.5,-19"/>
<text text-anchor="middle" x="171.5" y="-7" font-family="Helvetica,sans-Serif" font-size="10.00">now_seconds</text>
</a>
</g>
</g>
<!-- Node1&#45;&gt;Node11 -->
<g id="edge11_Node000001_Node000011" class="edge">
<title>Node1&#45;&gt;Node11</title>
<g id="a_edge11_Node000001_Node000011"><a xlink:title=" ">
<path fill="none" stroke="#63b8ff" d="M45.59,-73.98C58.35,-61.81 82.1,-40.83 106,-28.5 110.62,-26.12 115.57,-23.99 120.62,-22.1"/>
<polygon fill="#63b8ff" stroke="#63b8ff" points="122.03,-25.32 130.35,-18.76 119.76,-18.7 122.03,-25.32"/>
</a>
</g>
</g>
<!-- Node4 -->
<g id="Node000004" class="node">
<title>Node4</title>
<g id="a_Node000004"><a xlink:href="act__int8_8c.html#a06921ebd025375319bac8a4b43888241" target="_top" xlink:title=" ">
<polygon fill="white" stroke="#666666" points="344,-172 288,-172 288,-153 344,-153 344,-172"/>
<text text-anchor="middle" x="316" y="-160" font-family="Helvetica,sans-Serif" font-size="10.00">ie_fabsf</text>
</a>
</g>
</g>
<!-- Node3&#45;&gt;Node4 -->
<g id="edge3_Node000003_Node000004" class="edge">
<title>Node3&#45;&gt;Node4</title>
<g id="a_edge3_Node000003_Node000004"><a xlink:title=" ">
<path fill="none" stroke="#63b8ff" d="M232.11,-141.56C247.7,-145.5 264.05,-149.63 278.07,-153.17"/>
<polygon fill="#63b8ff" stroke="#63b8ff" points="277.27,-156.58 287.82,-155.63 278.99,-149.79 277.27,-156.58"/>
</a>
</g>
</g>
<!-- Node5 -->
<g id="Node000005" class="node">
<title>Node5</title>
<g id="a_Node000005"><a xlink:href="act__int8_8c.html#ad80154c444341a2ed6f1be5eb0bdb5de" target="_top" xlink:title=" ">
<polygon fill="white" stroke="#666666" points="344,-135 288,-135 288,-116 344,-116 344,-135"/>
<text text-anchor="middle" x="316" y="-123" font-family="Helvetica,sans-Serif" font-size="10.00">ie_maxf</text>
</a>
</g>
</g>
<!-- Node3&#45;&gt;Node5 -->
<g id="edge4_Node000003_Node000005" class="edge">
<title>Node3&#45;&gt;Node5</title>
<g id="a_edge4_Node000003_Node000005"><a xlink:title=" ">
<path fill="none" stroke="#63b8ff" d="M237.08,-126.05C250.86,-125.95 264.98,-125.85 277.35,-125.76"/>
<polygon fill="#63b8ff" stroke="#63b8ff" points="277.74,-129.26 287.71,-125.69 277.69,-122.26 277.74,-129.26"/>
</a>
</g>
</g>
<!-- Node6 -->
<g id="Node000006" class="node">
<title>Node6</title>
<g id="a_Node000006"><a xlink:href="act__int8_8c.html#a7490ce5fac2e6e5e1b7812006550be41" target="_top" xlink:title=" ">
<polygon fill="white" stroke="#666666" points="339.5,-97 292.5,-97 292.5,-78 339.5,-78 339.5,-97"/>
<text text-anchor="middle" x="316" y="-85" font-family="Helvetica,sans-Serif" font-size="10.00">ie_rne</text>
</a>
</g>
</g>
<!-- Node3&#45;&gt;Node6 -->
<g id="edge5_Node000003_Node000006" class="edge">
<title>Node3&#45;&gt;Node6</title>
<g id="a_edge5_Node000003_Node000006"><a xlink:title=" ">
<path fill="none" stroke="#63b8ff" d="M227.59,-111.42C246.1,-106.36 266.13,-100.87 282.35,-96.44"/>
<polygon fill="#63b8ff" stroke="#63b8ff" points="283.68,-99.7 292.4,-93.69 281.83,-92.95 283.68,-99.7"/>
</a>
</g>
</g>
<!-- Node8&#45;&gt;Node6 -->
<g id="edge8_Node000008_Node000006" class="edge">
<title>Node8&#45;&gt;Node6</title>
<g id="a_edge8_Node000008_Node000006"><a xlink:title=" ">
<path fill="none" stroke="#63b8ff" d="M205.55,-56.01C228.76,-62.69 259.64,-71.57 282.68,-78.2"/>
<polygon fill="#63b8ff" stroke="#63b8ff" points="281.76,-81.58 292.34,-80.98 283.7,-74.85 281.76,-81.58"/>
</a>
</g>
</g>
<!-- Node9 -->
<g id="Node000009" class="node">
<title>Node9</title>
<g id="a_Node000009"><a xlink:href="act__int8_8c.html#adbe29326b240b464a7a7a8773210fb8f" target="_top" xlink:title=" ">
<polygon fill="white" stroke="#666666" points="346,-57 286,-57 286,-38 346,-38 346,-57"/>
<text text-anchor="middle" x="316" y="-45" font-family="Helvetica,sans-Serif" font-size="10.00">ie_sat_i8</text>
</a>
</g>
</g>
<!-- Node8&#45;&gt;Node9 -->
<g id="edge9_Node000008_Node000009" class="edge">
<title>Node8&#45;&gt;Node9</title>
<g id="a_edge9_Node000008_Node000009"><a xlink:title=" ">
<path fill="none" stroke="#63b8ff" d="M230.05,-46.9C245.31,-47.01 261.45,-47.12 275.51,-47.22"/>
<polygon fill="#63b8ff" stroke="#63b8ff" points="275.79,-50.72 285.81,-47.3 275.84,-43.73 275.79,-50.72"/>
</a>
</g>
</g>
<!-- Node10 -->
<g id="Node000010" class="node">
<title>Node10</title>
<g id="a_Node000010"><a xlink:href="act__int8_8c.html#a312c061258a9180793b777e396301655" target="_top" xlink:title=" ">
<polygon fill="white" stroke="#666666" points="359,-20 273,-20 273,-1 359,-1 359,-20"/>
<text text-anchor="middle" x="316" y="-8" font-family="Helvetica,sans-Serif" font-size="10.00">ie_sat_sym_i8</text>
</a>
</g>
</g>
<!-- Node8&#45;&gt;Node10 -->
<g id="edge10_Node000008_Node000010" class="edge">
<title>Node8&#45;&gt;Node10</title>
<g id="a_edge10_Node000008_Node000010"><a xlink:title=" ">
<path fill="none" stroke="#63b8ff" d="M210.31,-36.95C227.79,-32.53 248.73,-27.24 267.28,-22.56"/>
<polygon fill="#63b8ff" stroke="#63b8ff" points="268.17,-25.94 277.01,-20.1 266.46,-19.15 268.17,-25.94"/>
</a>
</g>
</g>
</g>
</svg>
