<?xml version="1.0" encoding="UTF-8" standalone="no"?>
<!DOCTYPE svg PUBLIC "-//W3C//DTD SVG 1.1//EN"
 "http://www.w3.org/Graphics/SVG/1.1/DTD/svg11.dtd">
<!-- Generated by graphviz version 2.43.0 (0)
 -->
<!-- Title: main Pages: 1 -->
<!--zoomable 324 -->

<svg id="main" version="1.1" xmlns="http://www.w3.org/2000/svg" xmlns:xlink="http://www.w3.org/1999/xlink" xml:space="preserve" onload="init(evt)">
<style type="text/css"><![CDATA[
.node, .edge {opacity: 0.7;}
.node.selected, .edge.selected {opacity: 1;}
.edge:hover path { stroke: red; }
.edge:hover polygon { stroke: red; fill: red; }
]]></style>

<defs>
  <circle id="rim" cx="0" cy="0" r="7"/>
  <circle id="rim2" cx="0" cy="0" r="3.5"/>
  <g id="zoomPlus">
    <use xlink:href="#rim" fill="#404040"><set attributeName="fill" to="#808080" begin="zoomplus.mouseover" end="zoomplus.mouseout"/></use>
    <path d="M-4,0h8M0,-4v8" fill="none" stroke="white" stroke-width="1.5" pointer-events="none"/>
  </g>
  <g id="zoomMin">
    <use xlink:href="#rim" fill="#404040"><set attributeName="fill" to="#808080" begin="zoomminus.mouseover" end="zoomminus.mouseout"/></use>
    <path d="M-4,0h8" fill="none" stroke="white" stroke-width="1.5" pointer-events="none"/>
  </g>
  <g id="arrowUp" transform="translate(30 24)">
    <use xlink:href="#rim"/>
    <path pointer-events="none" fill="none" stroke="white" stroke-width="1.5" d="M0,-3.0v7 M-2.5,-0.5L0,-3.0L2.5,-0.5"/>
  </g>
  <g id="arrowRight" transform="rotate(90) translate(36 -43)">
    <use xlink:href="#rim"/>
    <path pointer-events="none" fill="none" stroke="white" stroke-width="1.5" d="M0,-3.0v7 M-2.5,-0.5L0,-3.0L2.5,-0.5"/>
  </g>
  <g id="arrowDown" transform="rotate(180) translate(-30 -48)">
    <use xlink:href="#rim"/>
    <path pointer-events="none" fill="none" stroke="white" stroke-width="1.5" d="M0,-3.0v7 M-2.5,-0.5L0,-3.0L2.5,-0.5"/>
  </g>
  <g id="arrowLeft" transform="rotate(270) translate(-36 17)">
    <use xlink:href="#rim"/>
    <path pointer-events="none" fill="none" stroke="white" stroke-width="1.5" d="M0,-3.0v7 M-2.5,-0.5L0,-3.0L2.5,-0.5"/>
  </g>
  <g id="resetDef">
    <use xlink:href="#rim2" fill="#404040"><set attributeName="fill" to="#808080" begin="reset.mouseover" end="reset.mouseout"/></use>
  </g>
</defs>
<script type="application/ecmascript">
var viewWidth = 597;
var viewHeight = 324;
var sectionId = 'dynsection-6';
</script>
<script type="application/ecmascript" xlink:href="svg.min.js"/>
<svg id="graph" class="graph">
<g id="viewport">
<title>main</title>
<!-- Node1 -->
<g id="Node000001" class="node">
<title>Node1</title>
<g id="a_Node000001"><a xlink:title=" ">
<polygon fill="#999999" stroke="#666666" points="41,-130 0,-130 0,-111 41,-111 41,-130"/>
<text text-anchor="middle" x="20.5" y="-118" font-family="Helvetica,sans-Serif" font-size="10.00">main</text>
</a>
</g>
</g>
<!-- Node2 -->
<g id="Node000002" class="node">
<title>Node2</title>
<g id="a_Node000002"><a xlink:href="microbench__block__sparse_8c.html#a1151a97db14a549537170c84ed1fc692" target="_top" xlink:title="Build an ie_block_sparse_matrix_t from a dense matrix in memory.">
<polygon fill="white" stroke="#666666" points="216.5,-243 86.5,-243 86.5,-224 216.5,-224 216.5,-243"/>
<text text-anchor="middle" x="151.5" y="-231" font-family="Helvetica,sans-Serif" font-size="10.00">dense_to_block_sparse</text>
</a>
</g>
</g>
<!-- Node1&#45;&gt;Node2 -->
<g id="edge1_Node000001_Node000002" class="edge">
<title>Node1&#45;&gt;Node2</title>
<g id="a_edge1_Node000001_Node000002"><a xlink:title=" ">
<path fill="none" stroke="#63b8ff" d="M24.27,-130.02C30.4,-149.32 47,-193.11 77,-215.5 78.84,-216.87 80.77,-218.14 82.77,-219.31"/>
<polygon fill="#63b8ff" stroke="#63b8ff" points="81.41,-222.55 91.93,-223.87 84.53,-216.28 81.41,-222.55"/>
</a>
</g>
</g>
<!-- Node8 -->
<g id="Node000008" class="node">
<title>Node8</title>
<g id="a_Node000008"><a xlink:href="microbench__block__sparse_8c.html#a0bb86ae3f74d09b38ea3c1e35b8cdf9e" target="_top" xlink:title="Row&#45;major GEMV: y = W * x.">
<polygon fill="white" stroke="#666666" points="199.5,-206 103.5,-206 103.5,-187 199.5,-187 199.5,-206"/>
<text text-anchor="middle" x="151.5" y="-194" font-family="Helvetica,sans-Serif" font-size="10.00">gemv_rowmajor</text>
</a>
</g>
</g>
<!-- Node1&#45;&gt;Node8 -->
<g id="edge7_Node000001_Node000008" class="edge">
<title>Node1&#45;&gt;Node8</title>
<g id="a_edge7_Node000001_Node000008"><a xlink:title=" ">
<path fill="none" stroke="#63b8ff" d="M29.54,-130.29C39.55,-141.89 57.68,-161.07 77,-172.5 84.39,-176.87 92.68,-180.56 100.95,-183.63"/>
<polygon fill="#63b8ff" stroke="#63b8ff" points="100.01,-187 110.6,-186.95 102.29,-180.39 100.01,-187"/>
</a>
</g>
</g>
<!-- Node9 -->
<g id="Node000009" class="node">
<title>Node9</title>
<g id="a_Node000009"><a xlink:href="sparse__io_8c.html#aabe296f29c7c70d44eab337b8a0f1a8c" target="_top" xlink:title="Compute the logical density (non&#45;zero blocks / total blocks).">
<polygon fill="white" stroke="#666666" points="413,-168 277,-168 277,-149 413,-149 413,-168"/>
<text text-anchor="middle" x="345" y="-156" font-family="Helvetica,sans-Serif" font-size="10.00">ie_block_sparse_density</text>
</a>
</g>
</g>
<!-- Node1&#45;&gt;Node9 -->
<g id="edge8_Node000001_Node000009" class="edge">
<title>Node1&#45;&gt;Node9</title>
<g id="a_edge8_Node000001_Node000009"><a xlink:title=" ">
<path fill="none" stroke="#63b8ff" d="M41.19,-128.63C51.65,-132.6 64.82,-137.03 77,-139.5 140.11,-152.32 213.12,-156.83 266.83,-158.27"/>
<polygon fill="#63b8ff" stroke="#63b8ff" points="266.89,-161.77 276.97,-158.51 267.06,-154.77 266.89,-161.77"/>
</a>
</g>
</g>
<!-- Node10 -->
<g id="Node000010" class="node">
<title>Node10</title>
<g id="a_Node000010"><a xlink:href="sparse__io_8c.html#ac8f8ef0741fb1ea4ea51a9e41414c318" target="_top" xlink:title="Release all heap&#45;allocated storage owned by a block&#45;sparse matrix.">
<polygon fill="white" stroke="#666666" points="219.5,-130 83.5,-130 83.5,-111 219.5,-111 219.5,-130"/>
<text text-anchor="middle" x="151.5" y="-118" font-family="Helvetica,sans-Serif" font-size="10.00">ie_block_sparse_release</text>
</a>
</g>
</g>
<!-- Node1&#45;&gt;Node10 -->
<g id="edge10_Node000001_Node000010" class="edge">
<title>Node1&#45;&gt;Node10</title>
<g id="a_edge10_Node000001_Node000010"><a xlink:title=" ">
<path fill="none" stroke="#63b8ff" d="M41.09,-120.5C50.07,-120.5 61.35,-120.5 73.23,-120.5"/>
<polygon fill="#63b8ff" stroke="#63b8ff" points="73.31,-124 83.31,-120.5 73.31,-117 73.31,-124"/>
</a>
</g>
</g>
<!-- Node11 -->
<g id="Node000011" class="node">
<title>Node11</title>
<g id="a_Node000011"><a xlink:href="gemm__block__sparse_8c.html#ae9a2aad0ec5332237097030acf034961" target="_top" xlink:title="Perform a single&#45;precision block&#45;sparse matrix&#45;vector product.">
<polygon fill="white" stroke="#666666" points="226,-93 77,-93 77,-74 226,-74 226,-93"/>
<text text-anchor="middle" x="151.5" y="-81" font-family="Helvetica,sans-Serif" font-size="10.00">ie_gemv_block_sparse_f32</text>
</a>
</g>
</g>
<!-- Node1&#45;&gt;Node11 -->
<g id="edge12_Node000001_Node000011" class="edge">
<title>Node1&#45;&gt;Node11</title>
<g id="a_edge12_Node000001_Node000011"><a xlink:title=" ">
<path fill="none" stroke="#63b8ff" d="M41.14,-113.3C51.7,-109.55 64.98,-105.02 77,-101.5 84.02,-99.44 91.47,-97.43 98.82,-95.54"/>
<polygon fill="#63b8ff" stroke="#63b8ff" points="99.89,-98.88 108.73,-93.04 98.18,-92.09 99.89,-98.88"/>
</a>
</g>
</g>
<!-- Node13 -->
<g id="Node000013" class="node">
<title>Node13</title>
<g id="a_Node000013"><a xlink:href="microbench__block__sparse_8c.html#ac2fb7e70bd8769725c6e8c3aed17bf50" target="_top" xlink:title="Initialize an array with pseudo&#45;random FP32 in [&#45;scale, +scale].">
<polygon fill="white" stroke="#666666" points="181,-56 122,-56 122,-37 181,-37 181,-56"/>
<text text-anchor="middle" x="151.5" y="-44" font-family="Helvetica,sans-Serif" font-size="10.00">init_rand</text>
</a>
</g>
</g>
<!-- Node1&#45;&gt;Node13 -->
<g id="edge14_Node000001_Node000013" class="edge">
<title>Node1&#45;&gt;Node13</title>
<g id="a_edge14_Node000001_Node000013"><a xlink:title=" ">
<path fill="none" stroke="#63b8ff" d="M28.23,-110.99C37.66,-98.39 56.03,-76.37 77,-64.5 87.61,-58.49 100.19,-54.48 111.91,-51.8"/>
<polygon fill="#63b8ff" stroke="#63b8ff" points="112.82,-55.18 121.93,-49.77 111.43,-48.32 112.82,-55.18"/>
</a>
</g>
</g>
<!-- Node14 -->
<g id="Node000014" class="node">
<title>Node14</title>
<g id="a_Node000014"><a xlink:href="microbench__block__sparse_8c.html#a8a295707b83706041868cd34f3c663d5" target="_top" xlink:title="Portable timestamp in seconds using C11 timespec_get.">
<polygon fill="white" stroke="#666666" points="175,-19 128,-19 128,0 175,0 175,-19"/>
<text text-anchor="middle" x="151.5" y="-7" font-family="Helvetica,sans-Serif" font-size="10.00">now_s</text>
</a>
</g>
</g>
<!-- Node1&#45;&gt;Node14 -->
<g id="edge15_Node000001_Node000014" class="edge">
<title>Node1&#45;&gt;Node14</title>
<g id="a_edge15_Node000001_Node000014"><a xlink:title=" ">
<path fill="none" stroke="#63b8ff" d="M24.43,-110.89C30.75,-91.85 47.51,-49.29 77,-27.5 88.7,-18.85 104.04,-14.32 117.67,-11.96"/>
<polygon fill="#63b8ff" stroke="#63b8ff" points="118.27,-15.41 127.68,-10.54 117.29,-8.48 118.27,-15.41"/>
</a>
</g>
</g>
<!-- Node3 -->
<g id="Node000003" class="node">
<title>Node3</title>
<g id="a_Node000003"><a xlink:href="microbench__block__sparse_8c.html#aa9d2cb46eeb965c3408c4de94ae65e07" target="_top" xlink:title="Decide whether a block is non&#45;zero under a simple max&#45;abs rule.">
<polygon fill="white" stroke="#666666" points="395.5,-316 294.5,-316 294.5,-297 395.5,-297 395.5,-316"/>
<text text-anchor="middle" x="345" y="-304" font-family="Helvetica,sans-Serif" font-size="10.00">block_is_nonzero</text>
</a>
</g>
</g>
<!-- Node2&#45;&gt;Node3 -->
<g id="edge2_Node000002_Node000003" class="edge">
<title>Node2&#45;&gt;Node3</title>
<g id="a_edge2_Node000002_Node000003"><a xlink:title=" ">
<path fill="none" stroke="#63b8ff" d="M168.27,-243.01C189.06,-255.17 227.11,-276.13 262,-288.5 269.24,-291.07 276.98,-293.34 284.71,-295.34"/>
<polygon fill="#63b8ff" stroke="#63b8ff" points="283.9,-298.74 294.44,-297.71 285.55,-291.94 283.9,-298.74"/>
</a>
</g>
</g>
<!-- Node4 -->
<g id="Node000004" class="node">
<title>Node4</title>
<g id="a_Node000004"><a xlink:href="sparse__io_8c.html#ace3311d6d76dd6a9b17488b66311b98a" target="_top" xlink:title="Initialize a block&#45;sparse matrix descriptor to a safe empty state.">
<polygon fill="white" stroke="#666666" points="403,-279 287,-279 287,-260 403,-260 403,-279"/>
<text text-anchor="middle" x="345" y="-267" font-family="Helvetica,sans-Serif" font-size="10.00">ie_block_sparse_init</text>
</a>
</g>
</g>
<!-- Node2&#45;&gt;Node4 -->
<g id="edge3_Node000002_Node000004" class="edge">
<title>Node2&#45;&gt;Node4</title>
<g id="a_edge3_Node000002_Node000004"><a xlink:title=" ">
<path fill="none" stroke="#63b8ff" d="M203.06,-243.01C227.62,-247.62 257.32,-253.2 283.11,-258.05"/>
<polygon fill="#63b8ff" stroke="#63b8ff" points="282.68,-261.53 293.15,-259.94 283.97,-254.65 282.68,-261.53"/>
</a>
</g>
</g>
<!-- Node6 -->
<g id="Node000006" class="node">
<title>Node6</title>
<g id="a_Node000006"><a xlink:href="sparse__io_8c.html#afcc239def447f7ccdf07b59ce0e47467" target="_top" xlink:title="Compute the theoretical number of block columns for a given layout.">
<polygon fill="white" stroke="#666666" points="426,-242 264,-242 264,-223 426,-223 426,-242"/>
<text text-anchor="middle" x="345" y="-230" font-family="Helvetica,sans-Serif" font-size="10.00">ie_block_sparse_n_block_cols</text>
</a>
</g>
</g>
<!-- Node2&#45;&gt;Node6 -->
<g id="edge5_Node000002_Node000006" class="edge">
<title>Node2&#45;&gt;Node6</title>
<g id="a_edge5_Node000002_Node000006"><a xlink:title=" ">
<path fill="none" stroke="#63b8ff" d="M216.53,-233.17C228.46,-233.1 241.12,-233.04 253.67,-232.97"/>
<polygon fill="#63b8ff" stroke="#63b8ff" points="253.7,-236.47 263.68,-232.92 253.66,-229.47 253.7,-236.47"/>
</a>
</g>
</g>
<!-- Node7 -->
<g id="Node000007" class="node">
<title>Node7</title>
<g id="a_Node000007"><a xlink:href="sparse__io_8c.html#a2df04db78871f064e33eb709ed62ed4f" target="_top" xlink:title="Compute the theoretical number of block rows for a given layout.">
<polygon fill="white" stroke="#666666" points="428,-205 262,-205 262,-186 428,-186 428,-205"/>
<text text-anchor="middle" x="345" y="-193" font-family="Helvetica,sans-Serif" font-size="10.00">ie_block_sparse_n_block_rows</text>
</a>
</g>
</g>
<!-- Node2&#45;&gt;Node7 -->
<g id="edge6_Node000002_Node000007" class="edge">
<title>Node2&#45;&gt;Node7</title>
<g id="a_edge6_Node000002_Node000007"><a xlink:title=" ">
<path fill="none" stroke="#63b8ff" d="M200.82,-223.91C226.66,-218.78 258.67,-212.43 285.86,-207.04"/>
<polygon fill="#63b8ff" stroke="#63b8ff" points="286.9,-210.4 296.02,-205.02 285.53,-203.53 286.9,-210.4"/>
</a>
</g>
</g>
<!-- Node5 -->
<g id="Node000005" class="node">
<title>Node5</title>
<g id="a_Node000005"><a xlink:href="ie__device__cuda_8cu.html#a5e3d9fee84981707669f5c2398f0c4ab" target="_top" xlink:title="Row&#45;wise GEMV kernel: each thread computes one output row.">
<polygon fill="white" stroke="#666666" points="589,-173.5 464,-173.5 464,-143.5 589,-143.5 589,-173.5"/>
<text text-anchor="start" x="472" y="-161.5" font-family="Helvetica,sans-Serif" font-size="10.00">ie_gemv_rowwise_f32</text>
<text text-anchor="middle" x="526.5" y="-150.5" font-family="Helvetica,sans-Serif" font-size="10.00">_kernel</text>
</a>
</g>
</g>
<!-- Node4&#45;&gt;Node5 -->
<g id="edge4_Node000004_Node000005" class="edge">
<title>Node4&#45;&gt;Node5</title>
<g id="a_edge4_Node000004_Node000005"><a xlink:title=" ">
<path fill="none" stroke="#63b8ff" d="M403.02,-261.23C411.67,-258.78 420.28,-255.61 428,-251.5 460.45,-234.23 489.8,-203.12 507.63,-181.67"/>
<polygon fill="#63b8ff" stroke="#63b8ff" points="510.52,-183.66 514.1,-173.69 505.08,-179.25 510.52,-183.66"/>
</a>
</g>
</g>
<!-- Node9&#45;&gt;Node5 -->
<g id="edge9_Node000009_Node000005" class="edge">
<title>Node9&#45;&gt;Node5</title>
<g id="a_edge9_Node000009_Node000005"><a xlink:title=" ">
<path fill="none" stroke="#63b8ff" d="M413.09,-158.5C426.35,-158.5 440.3,-158.5 453.7,-158.5"/>
<polygon fill="#63b8ff" stroke="#63b8ff" points="453.82,-162 463.82,-158.5 453.82,-155 453.82,-162"/>
</a>
</g>
</g>
<!-- Node10&#45;&gt;Node5 -->
<g id="edge11_Node000010_Node000005" class="edge">
<title>Node10&#45;&gt;Node5</title>
<g id="a_edge11_Node000010_Node000005"><a xlink:title=" ">
<path fill="none" stroke="#63b8ff" d="M219.51,-123.3C275.43,-126.13 357.13,-131.41 428,-140.5 436.34,-141.57 445.06,-142.89 453.69,-144.32"/>
<polygon fill="#63b8ff" stroke="#63b8ff" points="453.32,-147.81 463.77,-146.04 454.5,-140.91 453.32,-147.81"/>
</a>
</g>
</g>
<!-- Node12 -->
<g id="Node000012" class="node">
<title>Node12</title>
<g id="a_Node000012"><a xlink:href="gemm__block__sparse_8c.html#a05f40c15c1dabe19a303a4d5a897b212" target="_top" xlink:title="Compute the pointer to the first element of a given block.">
<polygon fill="white" stroke="#666666" points="394.5,-92 295.5,-92 295.5,-73 394.5,-73 394.5,-92"/>
<text text-anchor="middle" x="345" y="-80" font-family="Helvetica,sans-Serif" font-size="10.00">block_values_ptr</text>
</a>
</g>
</g>
<!-- Node11&#45;&gt;Node12 -->
<g id="edge13_Node000011_Node000012" class="edge">
<title>Node11&#45;&gt;Node12</title>
<g id="a_edge13_Node000011_Node000012"><a xlink:title=" ">
<path fill="none" stroke="#63b8ff" d="M226.26,-83.11C245.82,-83.01 266.68,-82.9 285.31,-82.81"/>
<polygon fill="#63b8ff" stroke="#63b8ff" points="285.43,-86.31 295.42,-82.75 285.4,-79.31 285.43,-86.31"/>
</a>
</g>
</g>
</g>
</svg>

<g id="navigator" transform="translate(0 0)" fill="#404254">
  <rect fill="#f2f5e9" fill-opacity="0.5" stroke="#606060" stroke-width=".5" x="0" y="0" width="60" height="60"/>
  <use id="zoomplus" xlink:href="#zoomPlus" x="17" y="9" onmousedown="handleZoom(evt,'in')"/>
  <use id="zoomminus" xlink:href="#zoomMin" x="42" y="9" onmousedown="handleZoom(evt,'out')"/>
  <use id="reset" xlink:href="#resetDef" x="30" y="36" onmousedown="handleReset()"/>
   <use id="arrowup" xlink:href="#arrowUp" x="0" y="0" onmousedown="handlePan(0,-1)"/>
  <use id="arrowright" xlink:href="#arrowRight" x="0" y="0" onmousedown="handlePan(1,0)"/>
  <use id="arrowdown" xlink:href="#arrowDown" x="0" y="0" onmousedown="handlePan(0,1)"/>
  <use id="arrowleft" xlink:href="#arrowLeft" x="0" y="0" onmousedown="handlePan(-1,0)"/>
</g>
<svg viewBox="0 0 15 15" width="100%" height="30px" preserveAspectRatio="xMaxYMin meet">
 <g id="arrow_out" transform="scale(0.3 0.3)">
  <a xlink:href="microbench__block__sparse_8c_a3c04138a5bfe5d72780bb7e82a18e627_cgraph_org.svg" target="_base">
   <rect id="button" ry="5" rx="5" y="6" x="6" height="38" width="38"
        fill="#f2f5e9" fill-opacity="0.5" stroke="#606060" stroke-width="1.0"/>
   <path id="arrow"
     d="M 11.500037,31.436501 C 11.940474,20.09759 22.043105,11.32322 32.158766,21.979434 L 37.068811,17.246167 C 37.068811,17.246167 37.088388,32 37.088388,32 L 22.160133,31.978069 C 22.160133,31.978069 26.997745,27.140456 26.997745,27.140456 C 18.528582,18.264221 13.291696,25.230495 11.500037,31.436501 z"
     style="fill:#404040;"/>
  </a>
 </g>
</svg>

<style type='text/css'>
<![CDATA[
[data-mouse-over-selected='false'] { opacity: 0.7; }
[data-mouse-over-selected='true']  { opacity: 1.0; }
]]>
</style>
<script type="application/ecmascript"><![CDATA[
document.addEventListener('DOMContentLoaded', (event) => {
  highlightEdges();
  highlightAdjacentNodes();
});
]]></script>
</svg>
