<?xml version="1.0" encoding="UTF-8" standalone="no"?>
<!DOCTYPE svg PUBLIC "-//W3C//DTD SVG 1.1//EN"
 "http://www.w3.org/Graphics/SVG/1.1/DTD/svg11.dtd">
<!-- Generated by graphviz version 2.43.0 (0)
 -->
<!-- Title: main Pages: 1 -->
<svg width="549pt" height="341pt"
 viewBox="0.00 0.00 549.00 341.00" xmlns="http://www.w3.org/2000/svg" xmlns:xlink="http://www.w3.org/1999/xlink">
<g id="graph0" class="graph" transform="scale(1 1) rotate(0) translate(4 337)">
<title>main</title>
<!-- Node1 -->
<g id="node1" class="node">
<title>Node1</title>
<g id="a_node1"><a xlink:title="Microbenchmark main.">
<polygon fill="#bfbfbf" stroke="black" points="0,-82.5 0,-101.5 41,-101.5 41,-82.5 0,-82.5"/>
<text text-anchor="middle" x="20.5" y="-89.5" font-family="Helvetica,sans-Serif" font-size="10.00">main</text>
</a>
</g>
</g>
<!-- Node2 -->
<g id="node2" class="node">
<title>Node2</title>
<g id="a_node2"><a xlink:href="ie__stream_8h.html#a13ab8c04be7e2aad6764804916e21757" target="_top" xlink:title="Copy n floats from src to dst using optional non&#45;temporal stores.">
<polygon fill="none" stroke="black" points="80,-218.5 80,-237.5 195,-237.5 195,-218.5 80,-218.5"/>
<text text-anchor="middle" x="137.5" y="-225.5" font-family="Helvetica,sans-Serif" font-size="10.00">ie_stream_copy_f32</text>
</a>
</g>
</g>
<!-- Node1&#45;&gt;Node2 -->
<g id="edge1" class="edge">
<title>Node1&#45;&gt;Node2</title>
<path fill="none" stroke="midnightblue" d="M29.77,-101.78C49.08,-124.62 97.36,-181.71 121.81,-210.63"/>
<polygon fill="midnightblue" stroke="midnightblue" points="119.17,-212.93 128.3,-218.31 124.52,-208.41 119.17,-212.93"/>
</g>
<!-- Node8 -->
<g id="node8" class="node">
<title>Node8</title>
<g id="a_node8"><a xlink:href="ie__stream_8h.html#a5f40dacb3d8b8372c8490a0276b951e8" target="_top" xlink:title="Initialize policy with detected cache sizes and sane defaults.">
<polygon fill="none" stroke="black" points="77,-126.5 77,-145.5 198,-145.5 198,-126.5 77,-126.5"/>
<text text-anchor="middle" x="137.5" y="-133.5" font-family="Helvetica,sans-Serif" font-size="10.00">ie_stream_policy_init</text>
</a>
</g>
</g>
<!-- Node1&#45;&gt;Node8 -->
<g id="edge9" class="edge">
<title>Node1&#45;&gt;Node8</title>
<path fill="none" stroke="midnightblue" d="M41.11,-100.96C51.66,-105.66 64.94,-111.38 77,-116 83.36,-118.44 90.16,-120.88 96.8,-123.17"/>
<polygon fill="midnightblue" stroke="midnightblue" points="95.77,-126.52 106.36,-126.41 98.02,-119.89 95.77,-126.52"/>
</g>
<!-- Node11 -->
<g id="node11" class="node">
<title>Node11</title>
<g id="a_node11"><a xlink:href="ie__stream_8h.html#a9367e6cdfb8d095de13293228dc2cc38" target="_top" xlink:title="Prefetch a range using T0 hint at a given stride and lead distance.">
<polygon fill="none" stroke="black" points="82,-77 82,-107 193,-107 193,-77 82,-77"/>
<text text-anchor="start" x="90" y="-95" font-family="Helvetica,sans-Serif" font-size="10.00">ie_stream_prefetch</text>
<text text-anchor="middle" x="137.5" y="-84" font-family="Helvetica,sans-Serif" font-size="10.00">_range_t0</text>
</a>
</g>
</g>
<!-- Node1&#45;&gt;Node11 -->
<g id="edge12" class="edge">
<title>Node1&#45;&gt;Node11</title>
<path fill="none" stroke="midnightblue" d="M41.01,-92C49.64,-92 60.35,-92 71.43,-92"/>
<polygon fill="midnightblue" stroke="midnightblue" points="71.67,-95.5 81.67,-92 71.67,-88.5 71.67,-95.5"/>
</g>
<!-- Node13 -->
<g id="node13" class="node">
<title>Node13</title>
<g id="a_node13"><a xlink:href="microbench__stream_8c.html#a4fdbfffdaa0f22a01822f6a62bb7e95e" target="_top" xlink:title="Read high&#45;resolution monotonic time (seconds).">
<polygon fill="none" stroke="black" points="108,-38.5 108,-57.5 167,-57.5 167,-38.5 108,-38.5"/>
<text text-anchor="middle" x="137.5" y="-45.5" font-family="Helvetica,sans-Serif" font-size="10.00">now_sec</text>
</a>
</g>
</g>
<!-- Node1&#45;&gt;Node13 -->
<g id="edge14" class="edge">
<title>Node1&#45;&gt;Node13</title>
<path fill="none" stroke="midnightblue" d="M41.05,-82.54C51.58,-77.61 64.86,-71.65 77,-67 83.67,-64.44 90.84,-61.95 97.82,-59.64"/>
<polygon fill="midnightblue" stroke="midnightblue" points="99.37,-62.82 107.82,-56.43 97.23,-56.16 99.37,-62.82"/>
</g>
<!-- Node14 -->
<g id="node14" class="node">
<title>Node14</title>
<g id="a_node14"><a xlink:href="microbench__stream_8c.html#ac031fe365f13cd4046dba432735b28f6" target="_top" xlink:title="Simple command&#45;line parsing.">
<polygon fill="none" stroke="black" points="102.5,-0.5 102.5,-19.5 172.5,-19.5 172.5,-0.5 102.5,-0.5"/>
<text text-anchor="middle" x="137.5" y="-7.5" font-family="Helvetica,sans-Serif" font-size="10.00">parse_args</text>
</a>
</g>
</g>
<!-- Node1&#45;&gt;Node14 -->
<g id="edge15" class="edge">
<title>Node1&#45;&gt;Node14</title>
<path fill="none" stroke="midnightblue" d="M27.46,-82.43C36.52,-68.67 55.04,-43.35 77,-29 81.88,-25.81 87.34,-23.12 92.92,-20.86"/>
<polygon fill="midnightblue" stroke="midnightblue" points="94.13,-24.15 102.34,-17.46 91.75,-17.56 94.13,-24.15"/>
</g>
<!-- Node3 -->
<g id="node3" class="node">
<title>Node3</title>
<g id="a_node3"><a xlink:href="stream_8c.html#a209af35ff3b6ba68d29aa6cebd04a36c" target="_top" xlink:title="Clamp a double to [0.0, 1.0].">
<polygon fill="none" stroke="black" points="267.5,-313.5 267.5,-332.5 340.5,-332.5 340.5,-313.5 267.5,-313.5"/>
<text text-anchor="middle" x="304" y="-320.5" font-family="Helvetica,sans-Serif" font-size="10.00">ie_clamp01</text>
</a>
</g>
</g>
<!-- Node2&#45;&gt;Node3 -->
<g id="edge2" class="edge">
<title>Node2&#45;&gt;Node3</title>
<path fill="none" stroke="midnightblue" d="M147.88,-237.67C164,-253.77 198.68,-286.04 234,-304 241.32,-307.72 249.47,-310.79 257.52,-313.29"/>
<polygon fill="midnightblue" stroke="midnightblue" points="256.65,-316.69 267.23,-316.07 258.58,-309.96 256.65,-316.69"/>
</g>
<!-- Node4 -->
<g id="node4" class="node">
<title>Node4</title>
<g id="a_node4"><a xlink:href="stream_8c.html#a6caed8f050edb118d1b888b8b91b5549" target="_top" xlink:title="Streaming store copy (AVX2 if available).">
<polygon fill="none" stroke="black" points="244.5,-275.5 244.5,-294.5 363.5,-294.5 363.5,-275.5 244.5,-275.5"/>
<text text-anchor="middle" x="304" y="-282.5" font-family="Helvetica,sans-Serif" font-size="10.00">ie_nt_copy_f32_avx2</text>
</a>
</g>
</g>
<!-- Node2&#45;&gt;Node4 -->
<g id="edge3" class="edge">
<title>Node2&#45;&gt;Node4</title>
<path fill="none" stroke="midnightblue" d="M166.03,-237.54C193.32,-246.99 235.3,-261.54 265.59,-272.04"/>
<polygon fill="midnightblue" stroke="midnightblue" points="264.78,-275.46 275.38,-275.43 267.07,-268.85 264.78,-275.46"/>
</g>
<!-- Node5 -->
<g id="node5" class="node">
<title>Node5</title>
<g id="a_node5"><a xlink:href="stream_8c.html#a595b79d2d4a2ee4b29b91ac03014dc86" target="_top" xlink:title=" ">
<polygon fill="none" stroke="black" points="420.5,-237.5 420.5,-256.5 530.5,-256.5 530.5,-237.5 420.5,-237.5"/>
<text text-anchor="middle" x="475.5" y="-244.5" font-family="Helvetica,sans-Serif" font-size="10.00">ie_scalar_copy_f32</text>
</a>
</g>
</g>
<!-- Node2&#45;&gt;Node5 -->
<g id="edge7" class="edge">
<title>Node2&#45;&gt;Node5</title>
<path fill="none" stroke="midnightblue" d="M195.12,-231.2C254.64,-234.57 348.13,-239.85 410.35,-243.37"/>
<polygon fill="midnightblue" stroke="midnightblue" points="410.25,-246.87 420.43,-243.94 410.65,-239.88 410.25,-246.87"/>
</g>
<!-- Node6 -->
<g id="node6" class="node">
<title>Node6</title>
<g id="a_node6"><a xlink:href="stream_8c.html#a08dffd4006d1feb19beeaee81ff360b2" target="_top" xlink:title="Streaming store copy (AVX&#45;512 if available).">
<polygon fill="none" stroke="black" points="238.5,-199.5 238.5,-218.5 369.5,-218.5 369.5,-199.5 238.5,-199.5"/>
<text text-anchor="middle" x="304" y="-206.5" font-family="Helvetica,sans-Serif" font-size="10.00">ie_nt_copy_f32_avx512</text>
</a>
</g>
</g>
<!-- Node2&#45;&gt;Node6 -->
<g id="edge5" class="edge">
<title>Node2&#45;&gt;Node6</title>
<path fill="none" stroke="midnightblue" d="M195.11,-221.46C205.78,-220.23 217.1,-218.92 228.23,-217.64"/>
<polygon fill="midnightblue" stroke="midnightblue" points="228.84,-221.09 238.37,-216.46 228.04,-214.14 228.84,-221.09"/>
</g>
<!-- Node7 -->
<g id="node7" class="node">
<title>Node7</title>
<g id="a_node7"><a xlink:href="stream_8c.html#af51c48e8b0afa485e060090f734d1cb1" target="_top" xlink:title="Decide if non&#45;temporal stores should be used for a given transfer size.">
<polygon fill="none" stroke="black" points="234,-161.5 234,-180.5 374,-180.5 374,-161.5 234,-161.5"/>
<text text-anchor="middle" x="304" y="-168.5" font-family="Helvetica,sans-Serif" font-size="10.00">ie_stream_should_use_nt</text>
</a>
</g>
</g>
<!-- Node2&#45;&gt;Node7 -->
<g id="edge8" class="edge">
<title>Node2&#45;&gt;Node7</title>
<path fill="none" stroke="midnightblue" d="M160.63,-218.39C179.82,-210.25 208.45,-198.57 234,-190 240.96,-187.66 248.39,-185.39 255.7,-183.28"/>
<polygon fill="midnightblue" stroke="midnightblue" points="256.85,-186.59 265.53,-180.51 254.96,-179.85 256.85,-186.59"/>
</g>
<!-- Node4&#45;&gt;Node5 -->
<g id="edge4" class="edge">
<title>Node4&#45;&gt;Node5</title>
<path fill="none" stroke="midnightblue" d="M347.77,-275.41C370.34,-270.35 398.22,-264.1 422.08,-258.75"/>
<polygon fill="midnightblue" stroke="midnightblue" points="423.04,-262.12 432.04,-256.52 421.51,-255.29 423.04,-262.12"/>
</g>
<!-- Node6&#45;&gt;Node5 -->
<g id="edge6" class="edge">
<title>Node6&#45;&gt;Node5</title>
<path fill="none" stroke="midnightblue" d="M347.77,-218.59C370.34,-223.65 398.22,-229.9 422.08,-235.25"/>
<polygon fill="midnightblue" stroke="midnightblue" points="421.51,-238.71 432.04,-237.48 423.04,-231.88 421.51,-238.71"/>
</g>
<!-- Node9 -->
<g id="node9" class="node">
<title>Node9</title>
<g id="a_node9"><a xlink:href="stream_8c.html#a6b3e804aea00c4b2e9a4d9c33d7d11d9" target="_top" xlink:title="Best&#45;effort cache discovery on Linux sysfs.">
<polygon fill="none" stroke="black" points="239,-123.5 239,-142.5 369,-142.5 369,-123.5 239,-123.5"/>
<text text-anchor="middle" x="304" y="-130.5" font-family="Helvetica,sans-Serif" font-size="10.00">ie_detect_caches_linux</text>
</a>
</g>
</g>
<!-- Node8&#45;&gt;Node9 -->
<g id="edge10" class="edge">
<title>Node8&#45;&gt;Node9</title>
<path fill="none" stroke="midnightblue" d="M198.35,-134.91C208.21,-134.73 218.52,-134.54 228.68,-134.36"/>
<polygon fill="midnightblue" stroke="midnightblue" points="228.82,-137.85 238.75,-134.17 228.69,-130.85 228.82,-137.85"/>
</g>
<!-- Node10 -->
<g id="node10" class="node">
<title>Node10</title>
<g id="a_node10"><a xlink:href="stream_8c.html#aa8b9868ec9d59cff70ebebba0a0193cf" target="_top" xlink:title="Parse a sysfs cache size file that looks like &quot;32K\n&quot; or &quot;12M\n&quot;.">
<polygon fill="none" stroke="black" points="410,-123.5 410,-142.5 541,-142.5 541,-123.5 410,-123.5"/>
<text text-anchor="middle" x="475.5" y="-130.5" font-family="Helvetica,sans-Serif" font-size="10.00">ie_read_cache_size_file</text>
</a>
</g>
</g>
<!-- Node9&#45;&gt;Node10 -->
<g id="edge11" class="edge">
<title>Node9&#45;&gt;Node10</title>
<path fill="none" stroke="midnightblue" d="M369.08,-133C379.06,-133 389.46,-133 399.65,-133"/>
<polygon fill="midnightblue" stroke="midnightblue" points="399.77,-136.5 409.77,-133 399.77,-129.5 399.77,-136.5"/>
</g>
<!-- Node12 -->
<g id="node12" class="node">
<title>Node12</title>
<g id="a_node12"><a xlink:href="stream_8c.html#a77afa6fcb0e13c92f024812038ba0291" target="_top" xlink:title="Issue a T0 (cache&#45;hot) prefetch distance bytes ahead of base.">
<polygon fill="none" stroke="black" points="241,-82.5 241,-101.5 367,-101.5 367,-82.5 241,-82.5"/>
<text text-anchor="middle" x="304" y="-89.5" font-family="Helvetica,sans-Serif" font-size="10.00">ie_stream_prefetch_t0</text>
</a>
</g>
</g>
<!-- Node11&#45;&gt;Node12 -->
<g id="edge13" class="edge">
<title>Node11&#45;&gt;Node12</title>
<path fill="none" stroke="midnightblue" d="M193.28,-92C205.3,-92 218.2,-92 230.79,-92"/>
<polygon fill="midnightblue" stroke="midnightblue" points="230.79,-95.5 240.79,-92 230.79,-88.5 230.79,-95.5"/>
</g>
</g>
</svg>
