<?xml version="1.0" encoding="UTF-8" standalone="no"?>
<!DOCTYPE svg PUBLIC "-//W3C//DTD SVG 1.1//EN"
 "http://www.w3.org/Graphics/SVG/1.1/DTD/svg11.dtd">
<!-- Generated by graphviz version 2.43.0 (0)
 -->
<!-- Title: main Pages: 1 -->
<svg width="710pt" height="407pt"
 viewBox="0.00 0.00 710.00 407.00" xmlns="http://www.w3.org/2000/svg" xmlns:xlink="http://www.w3.org/1999/xlink">
<g id="graph0" class="graph" transform="scale(1 1) rotate(0) translate(4 403)">
<title>main</title>
<!-- Node1 -->
<g id="Node000001" class="node">
<title>Node1</title>
<g id="a_Node000001"><a xlink:title="Microbenchmark main.">
<polygon fill="#999999" stroke="#666666" points="41,-114 0,-114 0,-95 41,-95 41,-114"/>
<text text-anchor="middle" x="20.5" y="-102" font-family="Helvetica,sans-Serif" font-size="10.00">main</text>
</a>
</g>
</g>
<!-- Node2 -->
<g id="Node000002" class="node">
<title>Node2</title>
<g id="a_Node000002"><a xlink:href="stream_8c.html#a13ab8c04be7e2aad6764804916e21757" target="_top" xlink:title="Copy n floats from src to dst using optional non&#45;temporal stores.">
<polygon fill="white" stroke="#666666" points="195,-285 80,-285 80,-266 195,-266 195,-285"/>
<text text-anchor="middle" x="137.5" y="-273" font-family="Helvetica,sans-Serif" font-size="10.00">ie_stream_copy_f32</text>
</a>
</g>
</g>
<!-- Node1&#45;&gt;Node2 -->
<g id="edge1_Node000001_Node000002" class="edge">
<title>Node1&#45;&gt;Node2</title>
<g id="a_edge1_Node000001_Node000002"><a xlink:title=" ">
<path fill="none" stroke="#63b8ff" d="M28.01,-114.18C46.59,-141.81 100.08,-221.34 124.31,-257.37"/>
<polygon fill="#63b8ff" stroke="#63b8ff" points="121.57,-259.58 130.06,-265.92 127.38,-255.67 121.57,-259.58"/>
</a>
</g>
</g>
<!-- Node9 -->
<g id="Node000009" class="node">
<title>Node9</title>
<g id="a_Node000009"><a xlink:href="stream_8c.html#a5f40dacb3d8b8372c8490a0276b951e8" target="_top" xlink:title="Initialize policy with detected cache sizes and sane defaults.">
<polygon fill="white" stroke="#666666" points="198,-152 77,-152 77,-133 198,-133 198,-152"/>
<text text-anchor="middle" x="137.5" y="-140" font-family="Helvetica,sans-Serif" font-size="10.00">ie_stream_policy_init</text>
</a>
</g>
</g>
<!-- Node1&#45;&gt;Node9 -->
<g id="edge15_Node000001_Node000009" class="edge">
<title>Node1&#45;&gt;Node9</title>
<g id="a_edge15_Node000001_Node000009"><a xlink:title=" ">
<path fill="none" stroke="#63b8ff" d="M41.01,-110.95C56.51,-116.07 78.67,-123.39 97.74,-129.69"/>
<polygon fill="#63b8ff" stroke="#63b8ff" points="96.79,-133.06 107.38,-132.88 98.99,-126.42 96.79,-133.06"/>
</a>
</g>
</g>
<!-- Node12 -->
<g id="Node000012" class="node">
<title>Node12</title>
<g id="a_Node000012"><a xlink:href="stream_8c.html#a9367e6cdfb8d095de13293228dc2cc38" target="_top" xlink:title="Prefetch a range using T0 hint at a given stride and lead distance.">
<polygon fill="white" stroke="#666666" points="355,-62.5 244,-62.5 244,-32.5 355,-32.5 355,-62.5"/>
<text text-anchor="start" x="252" y="-50.5" font-family="Helvetica,sans-Serif" font-size="10.00">ie_stream_prefetch</text>
<text text-anchor="middle" x="299.5" y="-39.5" font-family="Helvetica,sans-Serif" font-size="10.00">_range_t0</text>
</a>
</g>
</g>
<!-- Node1&#45;&gt;Node12 -->
<g id="edge21_Node000001_Node000012" class="edge">
<title>Node1&#45;&gt;Node12</title>
<g id="a_edge21_Node000001_Node000012"><a xlink:title=" ">
<path fill="none" stroke="#63b8ff" d="M41.09,-103.81C73.94,-102.32 142.04,-97.77 198,-84.5 216.75,-80.05 236.8,-73.14 254.01,-66.49"/>
<polygon fill="#63b8ff" stroke="#63b8ff" points="255.78,-69.56 263.79,-62.62 253.2,-63.05 255.78,-69.56"/>
</a>
</g>
</g>
<!-- Node14 -->
<g id="Node000014" class="node">
<title>Node14</title>
<g id="a_Node000014"><a xlink:href="microbench__stream_8c.html#a4fdbfffdaa0f22a01822f6a62bb7e95e" target="_top" xlink:title="Read high&#45;resolution monotonic time (seconds).">
<polygon fill="white" stroke="#666666" points="167,-76 108,-76 108,-57 167,-57 167,-76"/>
<text text-anchor="middle" x="137.5" y="-64" font-family="Helvetica,sans-Serif" font-size="10.00">now_sec</text>
</a>
</g>
</g>
<!-- Node1&#45;&gt;Node14 -->
<g id="edge25_Node000001_Node000014" class="edge">
<title>Node1&#45;&gt;Node14</title>
<g id="a_edge25_Node000001_Node000014"><a xlink:title=" ">
<path fill="none" stroke="#63b8ff" d="M41.01,-98.05C56.62,-92.9 78.98,-85.51 98.14,-79.17"/>
<polygon fill="#63b8ff" stroke="#63b8ff" points="99.42,-82.44 107.82,-75.98 97.23,-75.79 99.42,-82.44"/>
</a>
</g>
</g>
<!-- Node15 -->
<g id="Node000015" class="node">
<title>Node15</title>
<g id="a_Node000015"><a xlink:href="microbench__stream_8c.html#ac031fe365f13cd4046dba432735b28f6" target="_top" xlink:title="Simple command&#45;line parsing.">
<polygon fill="white" stroke="#666666" points="172.5,-39 102.5,-39 102.5,-20 172.5,-20 172.5,-39"/>
<text text-anchor="middle" x="137.5" y="-27" font-family="Helvetica,sans-Serif" font-size="10.00">parse_args</text>
</a>
</g>
</g>
<!-- Node1&#45;&gt;Node15 -->
<g id="edge26_Node000001_Node000015" class="edge">
<title>Node1&#45;&gt;Node15</title>
<g id="a_edge26_Node000001_Node000015"><a xlink:title=" ">
<path fill="none" stroke="#63b8ff" d="M28.29,-94.98C37.79,-82.33 56.23,-60.13 77,-47.5 81.78,-44.59 87.07,-42.12 92.46,-40.03"/>
<polygon fill="#63b8ff" stroke="#63b8ff" points="93.88,-43.25 102.19,-36.68 91.6,-36.63 93.88,-43.25"/>
</a>
</g>
</g>
<!-- Node3 -->
<g id="Node000003" class="node">
<title>Node3</title>
<g id="a_Node000003"><a xlink:href="stream_8c.html#a209af35ff3b6ba68d29aa6cebd04a36c" target="_top" xlink:title="Clamp a double to [0.0, 1.0].">
<polygon fill="white" stroke="#666666" points="507.5,-399 434.5,-399 434.5,-380 507.5,-380 507.5,-399"/>
<text text-anchor="middle" x="471" y="-387" font-family="Helvetica,sans-Serif" font-size="10.00">ie_clamp01</text>
</a>
</g>
</g>
<!-- Node2&#45;&gt;Node3 -->
<g id="edge2_Node000002_Node000003" class="edge">
<title>Node2&#45;&gt;Node3</title>
<g id="a_edge2_Node000002_Node000003"><a xlink:title=" ">
<path fill="none" stroke="#63b8ff" d="M145.3,-285.25C159.33,-304.48 193.59,-347.04 234,-365.5 295.38,-393.54 374.86,-395.52 424.13,-393.31"/>
<polygon fill="#63b8ff" stroke="#63b8ff" points="424.37,-396.8 434.17,-392.78 424,-389.81 424.37,-396.8"/>
</a>
</g>
</g>
<!-- Node4 -->
<g id="Node000004" class="node">
<title>Node4</title>
<g id="a_Node000004"><a xlink:href="ie__device__cuda_8cu.html#a5e3d9fee84981707669f5c2398f0c4ab" target="_top" xlink:title="Row&#45;wise GEMV kernel: each thread computes one output row.">
<polygon fill="white" stroke="#666666" points="702,-214.5 577,-214.5 577,-184.5 702,-184.5 702,-214.5"/>
<text text-anchor="start" x="585" y="-202.5" font-family="Helvetica,sans-Serif" font-size="10.00">ie_gemv_rowwise_f32</text>
<text text-anchor="middle" x="639.5" y="-191.5" font-family="Helvetica,sans-Serif" font-size="10.00">_kernel</text>
</a>
</g>
</g>
<!-- Node2&#45;&gt;Node4 -->
<g id="edge4_Node000002_Node000004" class="edge">
<title>Node2&#45;&gt;Node4</title>
<g id="a_edge4_Node000002_Node000004"><a xlink:title=" ">
<path fill="none" stroke="#63b8ff" d="M149.89,-285.15C166.89,-298.83 200.5,-323.26 234,-332.5 365.62,-368.79 419.86,-384.49 541,-321.5 582.06,-300.15 611.72,-253.03 626.92,-224"/>
<polygon fill="#63b8ff" stroke="#63b8ff" points="630.12,-225.41 631.51,-214.91 623.88,-222.25 630.12,-225.41"/>
</a>
</g>
</g>
<!-- Node5 -->
<g id="Node000005" class="node">
<title>Node5</title>
<g id="a_Node000005"><a xlink:href="stream_8c.html#a6caed8f050edb118d1b888b8b91b5549" target="_top" xlink:title="Streaming store copy using AVX2 (compile&#45;time gated).">
<polygon fill="white" stroke="#666666" points="359,-323 240,-323 240,-304 359,-304 359,-323"/>
<text text-anchor="middle" x="299.5" y="-311" font-family="Helvetica,sans-Serif" font-size="10.00">ie_nt_copy_f32_avx2</text>
</a>
</g>
</g>
<!-- Node2&#45;&gt;Node5 -->
<g id="edge5_Node000002_Node000005" class="edge">
<title>Node2&#45;&gt;Node5</title>
<g id="a_edge5_Node000002_Node000005"><a xlink:title=" ">
<path fill="none" stroke="#63b8ff" d="M178.87,-285.09C199.99,-290.1 226.03,-296.29 248.42,-301.61"/>
<polygon fill="#63b8ff" stroke="#63b8ff" points="247.88,-305.07 258.42,-303.98 249.49,-298.26 247.88,-305.07"/>
</a>
</g>
</g>
<!-- Node6 -->
<g id="Node000006" class="node">
<title>Node6</title>
<g id="a_Node000006"><a xlink:href="stream_8c.html#a595b79d2d4a2ee4b29b91ac03014dc86" target="_top" xlink:title="Scalar copy fallback for float arrays.">
<polygon fill="white" stroke="#666666" points="526,-285 416,-285 416,-266 526,-266 526,-285"/>
<text text-anchor="middle" x="471" y="-273" font-family="Helvetica,sans-Serif" font-size="10.00">ie_scalar_copy_f32</text>
</a>
</g>
</g>
<!-- Node2&#45;&gt;Node6 -->
<g id="edge12_Node000002_Node000006" class="edge">
<title>Node2&#45;&gt;Node6</title>
<g id="a_edge12_Node000002_Node000006"><a xlink:title=" ">
<path fill="none" stroke="#63b8ff" d="M195.11,-275.5C253.5,-275.5 344.41,-275.5 405.53,-275.5"/>
<polygon fill="#63b8ff" stroke="#63b8ff" points="405.82,-279 415.82,-275.5 405.82,-272 405.82,-279"/>
</a>
</g>
</g>
<!-- Node7 -->
<g id="Node000007" class="node">
<title>Node7</title>
<g id="a_Node000007"><a xlink:href="stream_8c.html#a08dffd4006d1feb19beeaee81ff360b2" target="_top" xlink:title="Streaming store copy using AVX&#45;512F (compile&#45;time gated).">
<polygon fill="white" stroke="#666666" points="365,-247 234,-247 234,-228 365,-228 365,-247"/>
<text text-anchor="middle" x="299.5" y="-235" font-family="Helvetica,sans-Serif" font-size="10.00">ie_nt_copy_f32_avx512</text>
</a>
</g>
</g>
<!-- Node2&#45;&gt;Node7 -->
<g id="edge9_Node000002_Node000007" class="edge">
<title>Node2&#45;&gt;Node7</title>
<g id="a_edge9_Node000002_Node000007"><a xlink:title=" ">
<path fill="none" stroke="#63b8ff" d="M178.87,-265.91C199.99,-260.9 226.03,-254.71 248.42,-249.39"/>
<polygon fill="#63b8ff" stroke="#63b8ff" points="249.49,-252.74 258.42,-247.02 247.88,-245.93 249.49,-252.74"/>
</a>
</g>
</g>
<!-- Node8 -->
<g id="Node000008" class="node">
<title>Node8</title>
<g id="a_Node000008"><a xlink:href="stream_8c.html#af51c48e8b0afa485e060090f734d1cb1" target="_top" xlink:title="Decide whether a memory operation of bytes should use non&#45;temporal stores.">
<polygon fill="white" stroke="#666666" points="541,-209 401,-209 401,-190 541,-190 541,-209"/>
<text text-anchor="middle" x="471" y="-197" font-family="Helvetica,sans-Serif" font-size="10.00">ie_stream_should_use_nt</text>
</a>
</g>
</g>
<!-- Node2&#45;&gt;Node8 -->
<g id="edge13_Node000002_Node000008" class="edge">
<title>Node2&#45;&gt;Node8</title>
<g id="a_edge13_Node000002_Node000008"><a xlink:title=" ">
<path fill="none" stroke="#63b8ff" d="M150.61,-265.96C167.96,-252.88 201.39,-229.85 234,-219.5 284.57,-203.44 344.12,-198.49 390.74,-197.53"/>
<polygon fill="#63b8ff" stroke="#63b8ff" points="390.85,-201.03 400.79,-197.38 390.74,-194.03 390.85,-201.03"/>
</a>
</g>
</g>
<!-- Node3&#45;&gt;Node4 -->
<g id="edge3_Node000003_Node000004" class="edge">
<title>Node3&#45;&gt;Node4</title>
<g id="a_edge3_Node000003_Node000004"><a xlink:title=" ">
<path fill="none" stroke="#63b8ff" d="M507.78,-382.26C519.28,-378.64 531.49,-373.3 541,-365.5 587.56,-327.29 616.88,-260.61 630.17,-224.49"/>
<polygon fill="#63b8ff" stroke="#63b8ff" points="633.58,-225.33 633.63,-214.74 626.98,-222.99 633.58,-225.33"/>
</a>
</g>
</g>
<!-- Node5&#45;&gt;Node4 -->
<g id="edge6_Node000005_Node000004" class="edge">
<title>Node5&#45;&gt;Node4</title>
<g id="a_edge6_Node000005_Node000004"><a xlink:title=" ">
<path fill="none" stroke="#63b8ff" d="M359.12,-319.68C409.59,-322.54 483.21,-320.7 541,-294.5 575.55,-278.84 605.1,-245.47 622.34,-222.76"/>
<polygon fill="#63b8ff" stroke="#63b8ff" points="625.21,-224.76 628.33,-214.64 619.58,-220.61 625.21,-224.76"/>
</a>
</g>
</g>
<!-- Node5&#45;&gt;Node6 -->
<g id="edge7_Node000005_Node000006" class="edge">
<title>Node5&#45;&gt;Node6</title>
<g id="a_edge7_Node000005_Node000006"><a xlink:title=" ">
<path fill="none" stroke="#63b8ff" d="M343.27,-303.91C365.84,-298.85 393.72,-292.6 417.58,-287.25"/>
<polygon fill="#63b8ff" stroke="#63b8ff" points="418.54,-290.62 427.54,-285.02 417.01,-283.79 418.54,-290.62"/>
</a>
</g>
</g>
<!-- Node6&#45;&gt;Node4 -->
<g id="edge8_Node000006_Node000004" class="edge">
<title>Node6&#45;&gt;Node4</title>
<g id="a_edge8_Node000006_Node000004"><a xlink:title=" ">
<path fill="none" stroke="#63b8ff" d="M502.62,-265.99C514.74,-261.93 528.68,-256.89 541,-251.5 562.5,-242.09 585.72,-229.8 604.1,-219.53"/>
<polygon fill="#63b8ff" stroke="#63b8ff" points="605.98,-222.49 612.97,-214.52 602.54,-216.39 605.98,-222.49"/>
</a>
</g>
</g>
<!-- Node7&#45;&gt;Node4 -->
<g id="edge10_Node000007_Node000004" class="edge">
<title>Node7&#45;&gt;Node4</title>
<g id="a_edge10_Node000007_Node000004"><a xlink:title=" ">
<path fill="none" stroke="#63b8ff" d="M365.02,-234.4C413.57,-231.58 481.66,-226.6 541,-218.5 549.35,-217.36 558.07,-215.96 566.71,-214.45"/>
<polygon fill="#63b8ff" stroke="#63b8ff" points="567.57,-217.85 576.78,-212.62 566.32,-210.96 567.57,-217.85"/>
</a>
</g>
</g>
<!-- Node7&#45;&gt;Node6 -->
<g id="edge11_Node000007_Node000006" class="edge">
<title>Node7&#45;&gt;Node6</title>
<g id="a_edge11_Node000007_Node000006"><a xlink:title=" ">
<path fill="none" stroke="#63b8ff" d="M343.27,-247.09C365.84,-252.15 393.72,-258.4 417.58,-263.75"/>
<polygon fill="#63b8ff" stroke="#63b8ff" points="417.01,-267.21 427.54,-265.98 418.54,-260.38 417.01,-267.21"/>
</a>
</g>
</g>
<!-- Node8&#45;&gt;Node4 -->
<g id="edge14_Node000008_Node000004" class="edge">
<title>Node8&#45;&gt;Node4</title>
<g id="a_edge14_Node000008_Node000004"><a xlink:title=" ">
<path fill="none" stroke="#63b8ff" d="M541.16,-199.5C549.61,-199.5 558.26,-199.5 566.75,-199.5"/>
<polygon fill="#63b8ff" stroke="#63b8ff" points="566.99,-203 576.99,-199.5 566.99,-196 566.99,-203"/>
</a>
</g>
</g>
<!-- Node9&#45;&gt;Node4 -->
<g id="edge20_Node000009_Node000004" class="edge">
<title>Node9&#45;&gt;Node4</title>
<g id="a_edge20_Node000009_Node000004"><a xlink:title=" ">
<path fill="none" stroke="#63b8ff" d="M198.02,-146.66C276.74,-152.53 419.68,-164.46 541,-181.5 549.48,-182.69 558.35,-184.1 567.14,-185.6"/>
<polygon fill="#63b8ff" stroke="#63b8ff" points="566.54,-189.05 577,-187.32 567.75,-182.15 566.54,-189.05"/>
</a>
</g>
</g>
<!-- Node10 -->
<g id="Node000010" class="node">
<title>Node10</title>
<g id="a_Node000010"><a xlink:href="stream_8c.html#a6b3e804aea00c4b2e9a4d9c33d7d11d9" target="_top" xlink:title="Best&#45;effort cache discovery on Linux sysfs.">
<polygon fill="white" stroke="#666666" points="364.5,-133 234.5,-133 234.5,-114 364.5,-114 364.5,-133"/>
<text text-anchor="middle" x="299.5" y="-121" font-family="Helvetica,sans-Serif" font-size="10.00">ie_detect_caches_linux</text>
</a>
</g>
</g>
<!-- Node9&#45;&gt;Node10 -->
<g id="edge16_Node000009_Node000010" class="edge">
<title>Node9&#45;&gt;Node10</title>
<g id="a_edge16_Node000009_Node000010"><a xlink:title=" ">
<path fill="none" stroke="#63b8ff" d="M198.08,-135.43C206.57,-134.42 215.39,-133.37 224.13,-132.33"/>
<polygon fill="#63b8ff" stroke="#63b8ff" points="224.79,-135.78 234.31,-131.12 223.97,-128.83 224.79,-135.78"/>
</a>
</g>
</g>
<!-- Node10&#45;&gt;Node4 -->
<g id="edge17_Node000010_Node000004" class="edge">
<title>Node10&#45;&gt;Node4</title>
<g id="a_edge17_Node000010_Node000004"><a xlink:title=" ">
<path fill="none" stroke="#63b8ff" d="M364.61,-123.17C413.83,-124.51 482.98,-129.89 541,-147.5 564.66,-154.68 589.22,-167.82 607.76,-179.09"/>
<polygon fill="#63b8ff" stroke="#63b8ff" points="606.02,-182.12 616.36,-184.44 609.72,-176.18 606.02,-182.12"/>
</a>
</g>
</g>
<!-- Node11 -->
<g id="Node000011" class="node">
<title>Node11</title>
<g id="a_Node000011"><a xlink:href="stream_8c.html#aa8b9868ec9d59cff70ebebba0a0193cf" target="_top" xlink:title="Parse a sysfs cache size file containing values like &quot;32K\n&quot; or &quot;12M\n&quot;.">
<polygon fill="white" stroke="#666666" points="536.5,-95 405.5,-95 405.5,-76 536.5,-76 536.5,-95"/>
<text text-anchor="middle" x="471" y="-83" font-family="Helvetica,sans-Serif" font-size="10.00">ie_read_cache_size_file</text>
</a>
</g>
</g>
<!-- Node10&#45;&gt;Node11 -->
<g id="edge18_Node000010_Node000011" class="edge">
<title>Node10&#45;&gt;Node11</title>
<g id="a_edge18_Node000010_Node000011"><a xlink:title=" ">
<path fill="none" stroke="#63b8ff" d="M343.27,-113.91C365.84,-108.85 393.72,-102.6 417.58,-97.25"/>
<polygon fill="#63b8ff" stroke="#63b8ff" points="418.54,-100.62 427.54,-95.02 417.01,-93.79 418.54,-100.62"/>
</a>
</g>
</g>
<!-- Node11&#45;&gt;Node4 -->
<g id="edge19_Node000011_Node000004" class="edge">
<title>Node11&#45;&gt;Node4</title>
<g id="a_edge19_Node000011_Node000004"><a xlink:title=" ">
<path fill="none" stroke="#63b8ff" d="M508.35,-95.04C519.27,-98.71 530.99,-103.5 541,-109.5 571.52,-127.8 600.72,-156.79 619.07,-176.9"/>
<polygon fill="#63b8ff" stroke="#63b8ff" points="616.5,-179.28 625.78,-184.4 621.71,-174.61 616.5,-179.28"/>
</a>
</g>
</g>
<!-- Node12&#45;&gt;Node4 -->
<g id="edge22_Node000012_Node000004" class="edge">
<title>Node12&#45;&gt;Node4</title>
<g id="a_edge22_Node000012_Node000004"><a xlink:title=" ">
<path fill="none" stroke="#63b8ff" d="M355.3,-39.42C406.61,-34.59 483.75,-34.59 541,-66.5 584.55,-90.78 613.97,-143.57 628.33,-174.85"/>
<polygon fill="#63b8ff" stroke="#63b8ff" points="625.21,-176.46 632.46,-184.19 631.61,-173.63 625.21,-176.46"/>
</a>
</g>
</g>
<!-- Node13 -->
<g id="Node000013" class="node">
<title>Node13</title>
<g id="a_Node000013"><a xlink:href="stream_8c.html#a77afa6fcb0e13c92f024812038ba0291" target="_top" xlink:title="Issue a temporal (T0) prefetch at base+distance (best&#45;effort).">
<polygon fill="white" stroke="#666666" points="534,-19 408,-19 408,0 534,0 534,-19"/>
<text text-anchor="middle" x="471" y="-7" font-family="Helvetica,sans-Serif" font-size="10.00">ie_stream_prefetch_t0</text>
</a>
</g>
</g>
<!-- Node12&#45;&gt;Node13 -->
<g id="edge23_Node000012_Node000013" class="edge">
<title>Node12&#45;&gt;Node13</title>
<g id="a_edge23_Node000012_Node000013"><a xlink:title=" ">
<path fill="none" stroke="#63b8ff" d="M355.06,-35.27C375.1,-30.78 397.72,-25.7 417.57,-21.25"/>
<polygon fill="#63b8ff" stroke="#63b8ff" points="418.37,-24.66 427.36,-19.06 416.84,-17.83 418.37,-24.66"/>
</a>
</g>
</g>
<!-- Node13&#45;&gt;Node4 -->
<g id="edge24_Node000013_Node000004" class="edge">
<title>Node13&#45;&gt;Node4</title>
<g id="a_edge24_Node000013_Node000004"><a xlink:title=" ">
<path fill="none" stroke="#63b8ff" d="M514.6,-19.07C523.96,-22.54 533.35,-27.22 541,-33.5 587.56,-71.71 616.88,-138.39 630.17,-174.51"/>
<polygon fill="#63b8ff" stroke="#63b8ff" points="626.98,-176.01 633.63,-184.26 633.58,-173.67 626.98,-176.01"/>
</a>
</g>
</g>
</g>
</svg>
