<?xml version="1.0" encoding="UTF-8" standalone="no"?>
<!DOCTYPE svg PUBLIC "-//W3C//DTD SVG 1.1//EN"
 "http://www.w3.org/Graphics/SVG/1.1/DTD/svg11.dtd">
<!-- Generated by graphviz version 2.43.0 (0)
 -->
<!-- Title: fill_gaussian Pages: 1 -->
<svg width="268pt" height="66pt"
 viewBox="0.00 0.00 268.00 66.00" xmlns="http://www.w3.org/2000/svg" xmlns:xlink="http://www.w3.org/1999/xlink">
<g id="graph0" class="graph" transform="scale(1 1) rotate(0) translate(4 62)">
<title>fill_gaussian</title>
<!-- Node1 -->
<g id="node1" class="node">
<title>Node1</title>
<g id="a_node1"><a xlink:title=" ">
<polygon fill="#bfbfbf" stroke="black" points="183,-19.5 183,-38.5 260,-38.5 260,-19.5 183,-19.5"/>
<text text-anchor="middle" x="221.5" y="-26.5" font-family="Helvetica,sans-Serif" font-size="10.00">fill_gaussian</text>
</a>
</g>
</g>
<!-- Node2 -->
<g id="node2" class="node">
<title>Node2</title>
<g id="a_node2"><a xlink:href="microbench__act__path_8c.html#a3ddaada8ef50378cb1e48d907c7b6430" target="_top" xlink:title=" ">
<polygon fill="none" stroke="black" points="78.5,-38.5 78.5,-57.5 145.5,-57.5 145.5,-38.5 78.5,-38.5"/>
<text text-anchor="middle" x="112" y="-45.5" font-family="Helvetica,sans-Serif" font-size="10.00">bench_fp8</text>
</a>
</g>
</g>
<!-- Node1&#45;&gt;Node2 -->
<g id="edge1" class="edge">
<title>Node1&#45;&gt;Node2</title>
<path fill="none" stroke="midnightblue" d="M173.05,-37.39C163.83,-39.02 154.36,-40.69 145.75,-42.21"/>
<polygon fill="midnightblue" stroke="midnightblue" points="173.66,-40.83 182.9,-35.65 172.45,-33.94 173.66,-40.83"/>
</g>
<!-- Node4 -->
<g id="node4" class="node">
<title>Node4</title>
<g id="a_node4"><a xlink:href="microbench__act__path_8c.html#aa8d8e89d147a706279cd7995fcc08571" target="_top" xlink:title=" ">
<polygon fill="none" stroke="black" points="77,-0.5 77,-19.5 147,-19.5 147,-0.5 77,-0.5"/>
<text text-anchor="middle" x="112" y="-7.5" font-family="Helvetica,sans-Serif" font-size="10.00">bench_int8</text>
</a>
</g>
</g>
<!-- Node1&#45;&gt;Node4 -->
<g id="edge3" class="edge">
<title>Node1&#45;&gt;Node4</title>
<path fill="none" stroke="midnightblue" d="M172.88,-20.58C164.22,-19.05 155.34,-17.48 147.16,-16.04"/>
<polygon fill="midnightblue" stroke="midnightblue" points="172.45,-24.06 182.9,-22.35 173.66,-17.17 172.45,-24.06"/>
</g>
<!-- Node3 -->
<g id="node3" class="node">
<title>Node3</title>
<g id="a_node3"><a xlink:href="microbench__act__path_8c.html#a3c04138a5bfe5d72780bb7e82a18e627" target="_top" xlink:title=" ">
<polygon fill="none" stroke="black" points="0,-19.5 0,-38.5 41,-38.5 41,-19.5 0,-19.5"/>
<text text-anchor="middle" x="20.5" y="-26.5" font-family="Helvetica,sans-Serif" font-size="10.00">main</text>
</a>
</g>
</g>
<!-- Node2&#45;&gt;Node3 -->
<g id="edge2" class="edge">
<title>Node2&#45;&gt;Node3</title>
<path fill="none" stroke="midnightblue" d="M68.57,-38.99C58.99,-36.96 49.26,-34.89 41.15,-33.17"/>
<polygon fill="midnightblue" stroke="midnightblue" points="67.93,-42.43 78.44,-41.09 69.38,-35.59 67.93,-42.43"/>
</g>
<!-- Node4&#45;&gt;Node3 -->
<g id="edge4" class="edge">
<title>Node4&#45;&gt;Node3</title>
<path fill="none" stroke="midnightblue" d="M66.85,-19.37C57.87,-21.28 48.85,-23.19 41.24,-24.81"/>
<polygon fill="midnightblue" stroke="midnightblue" points="67.85,-22.74 76.91,-17.24 66.4,-15.89 67.85,-22.74"/>
</g>
</g>
</svg>
