<?xml version="1.0" encoding="UTF-8" standalone="no"?>
<!DOCTYPE svg PUBLIC "-//W3C//DTD SVG 1.1//EN"
 "http://www.w3.org/Graphics/SVG/1.1/DTD/svg11.dtd">
<!-- Generated by graphviz version 12.2.1 (20241206.2353)
 -->
<!-- Title: main Pages: 1 -->
<svg width="548pt" height="348pt"
 viewBox="0.00 0.00 547.50 347.75" xmlns="http://www.w3.org/2000/svg" xmlns:xlink="http://www.w3.org/1999/xlink">
<g id="graph0" class="graph" transform="scale(1 1) rotate(0) translate(4 343.75)">
<title>main</title>
<!-- Node1 -->
<g id="Node000001" class="node">
<title>Node1</title>
<g id="a_Node000001"><a xlink:title="Microbenchmark main.">
<polygon fill="#999999" stroke="#666666" points="40.75,-104.75 0,-104.75 0,-84 40.75,-84 40.75,-104.75"/>
<text text-anchor="middle" x="20.38" y="-91.25" font-family="Helvetica,sans-Serif" font-size="10.00">main</text>
</a>
</g>
</g>
<!-- Node2 -->
<g id="Node000002" class="node">
<title>Node2</title>
<g id="a_Node000002"><a xlink:href="stream_8c.html#a13ab8c04be7e2aad6764804916e21757" target="_top" xlink:title="Copy n floats from src to dst using optional non&#45;temporal stores.">
<polygon fill="white" stroke="#666666" points="194,-243.75 79.75,-243.75 79.75,-223 194,-223 194,-243.75"/>
<text text-anchor="middle" x="136.88" y="-230.25" font-family="Helvetica,sans-Serif" font-size="10.00">ie_stream_copy_f32</text>
</a>
</g>
</g>
<!-- Node1&#45;&gt;Node2 -->
<g id="edge1_Node000001_Node000002" class="edge">
<title>Node1&#45;&gt;Node2</title>
<g id="a_edge1_Node000001_Node000002"><a xlink:title=" ">
<path fill="none" stroke="#63b8ff" d="M29.98,-104.82C49.13,-128.07 95.49,-184.35 120.03,-214.14"/>
<polygon fill="#63b8ff" stroke="#63b8ff" points="117.15,-216.14 126.21,-221.64 122.55,-211.69 117.15,-216.14"/>
</a>
</g>
</g>
<!-- Node8 -->
<g id="Node000008" class="node">
<title>Node8</title>
<g id="a_Node000008"><a xlink:href="stream_8c.html#a5f40dacb3d8b8372c8490a0276b951e8" target="_top" xlink:title="Initialize policy with detected cache sizes and sane defaults.">
<polygon fill="white" stroke="#666666" points="197,-149.75 76.75,-149.75 76.75,-129 197,-129 197,-149.75"/>
<text text-anchor="middle" x="136.88" y="-136.25" font-family="Helvetica,sans-Serif" font-size="10.00">ie_stream_policy_init</text>
</a>
</g>
</g>
<!-- Node1&#45;&gt;Node8 -->
<g id="edge9_Node000001_Node000008" class="edge">
<title>Node1&#45;&gt;Node8</title>
<g id="a_edge9_Node000001_Node000008"><a xlink:title=" ">
<path fill="none" stroke="#63b8ff" d="M41.1,-104.39C51.55,-109.5 64.69,-115.63 76.75,-120.38 80.64,-121.91 84.71,-123.41 88.81,-124.86"/>
<polygon fill="#63b8ff" stroke="#63b8ff" points="87.63,-128.15 98.23,-128.06 89.89,-121.53 87.63,-128.15"/>
</a>
</g>
</g>
<!-- Node11 -->
<g id="Node000011" class="node">
<title>Node11</title>
<g id="a_Node000011"><a xlink:href="stream_8c.html#a9367e6cdfb8d095de13293228dc2cc38" target="_top" xlink:title="Prefetch a range using T0 hint at a given stride and lead distance.">
<polygon fill="white" stroke="#666666" points="192.12,-111.12 81.62,-111.12 81.62,-77.62 192.12,-77.62 192.12,-111.12"/>
<text text-anchor="start" x="89.62" y="-97.62" font-family="Helvetica,sans-Serif" font-size="10.00">ie_stream_prefetch</text>
<text text-anchor="middle" x="136.88" y="-84.88" font-family="Helvetica,sans-Serif" font-size="10.00">_range_t0</text>
</a>
</g>
</g>
<!-- Node1&#45;&gt;Node11 -->
<g id="edge12_Node000001_Node000011" class="edge">
<title>Node1&#45;&gt;Node11</title>
<g id="a_edge12_Node000001_Node000011"><a xlink:title=" ">
<path fill="none" stroke="#63b8ff" d="M41.06,-94.38C49.41,-94.38 59.67,-94.38 70.33,-94.38"/>
<polygon fill="#63b8ff" stroke="#63b8ff" points="69.99,-97.88 79.99,-94.38 69.99,-90.88 69.99,-97.88"/>
</a>
</g>
</g>
<!-- Node13 -->
<g id="Node000013" class="node">
<title>Node13</title>
<g id="a_Node000013"><a xlink:href="microbench__stream_8c.html#a4fdbfffdaa0f22a01822f6a62bb7e95e" target="_top" xlink:title="Read high&#45;resolution monotonic time (seconds).">
<polygon fill="white" stroke="#666666" points="165.88,-59.75 107.88,-59.75 107.88,-39 165.88,-39 165.88,-59.75"/>
<text text-anchor="middle" x="136.88" y="-46.25" font-family="Helvetica,sans-Serif" font-size="10.00">now_sec</text>
</a>
</g>
</g>
<!-- Node1&#45;&gt;Node13 -->
<g id="edge14_Node000001_Node000013" class="edge">
<title>Node1&#45;&gt;Node13</title>
<g id="a_edge14_Node000001_Node000013"><a xlink:title=" ">
<path fill="none" stroke="#63b8ff" d="M41.1,-84.36C51.55,-79.25 64.69,-73.12 76.75,-68.38 83.27,-65.81 90.29,-63.32 97.13,-61.04"/>
<polygon fill="#63b8ff" stroke="#63b8ff" points="97.77,-64.51 106.2,-58.1 95.61,-57.85 97.77,-64.51"/>
</a>
</g>
</g>
<!-- Node14 -->
<g id="Node000014" class="node">
<title>Node14</title>
<g id="a_Node000014"><a xlink:href="microbench__stream_8c.html#ac031fe365f13cd4046dba432735b28f6" target="_top" xlink:title="Simple command&#45;line parsing.">
<polygon fill="white" stroke="#666666" points="171.5,-20.75 102.25,-20.75 102.25,0 171.5,0 171.5,-20.75"/>
<text text-anchor="middle" x="136.88" y="-7.25" font-family="Helvetica,sans-Serif" font-size="10.00">parse_args</text>
</a>
</g>
</g>
<!-- Node1&#45;&gt;Node14 -->
<g id="edge15_Node000001_Node000014" class="edge">
<title>Node1&#45;&gt;Node14</title>
<g id="a_edge15_Node000001_Node000014"><a xlink:title=" ">
<path fill="none" stroke="#63b8ff" d="M27.93,-83.76C37.16,-69.64 55.29,-44.8 76.75,-30.38 81.24,-27.36 86.22,-24.76 91.33,-22.53"/>
<polygon fill="#63b8ff" stroke="#63b8ff" points="92.42,-25.86 100.49,-19 89.9,-19.33 92.42,-25.86"/>
</a>
</g>
</g>
<!-- Node3 -->
<g id="Node000003" class="node">
<title>Node3</title>
<g id="a_Node000003"><a xlink:href="stream_8c.html#a209af35ff3b6ba68d29aa6cebd04a36c" target="_top" xlink:title="Clamp a double to [0.0, 1.0].">
<polygon fill="white" stroke="#666666" points="339,-339.75 266.75,-339.75 266.75,-319 339,-319 339,-339.75"/>
<text text-anchor="middle" x="302.88" y="-326.25" font-family="Helvetica,sans-Serif" font-size="10.00">ie_clamp01</text>
</a>
</g>
</g>
<!-- Node2&#45;&gt;Node3 -->
<g id="edge2_Node000002_Node000003" class="edge">
<title>Node2&#45;&gt;Node3</title>
<g id="a_edge2_Node000002_Node000003"><a xlink:title=" ">
<path fill="none" stroke="#63b8ff" d="M148.29,-244.05C164.81,-260.38 198.66,-291.57 233,-309.38 240.06,-313.04 247.89,-316.12 255.66,-318.68"/>
<polygon fill="#63b8ff" stroke="#63b8ff" points="254.49,-321.98 265.07,-321.52 256.51,-315.28 254.49,-321.98"/>
</a>
</g>
</g>
<!-- Node4 -->
<g id="Node000004" class="node">
<title>Node4</title>
<g id="a_Node000004"><a xlink:href="stream_8c.html#a6caed8f050edb118d1b888b8b91b5549" target="_top" xlink:title="Streaming store copy (AVX2 if available).">
<polygon fill="white" stroke="#666666" points="362.25,-300.75 243.5,-300.75 243.5,-280 362.25,-280 362.25,-300.75"/>
<text text-anchor="middle" x="302.88" y="-287.25" font-family="Helvetica,sans-Serif" font-size="10.00">ie_nt_copy_f32_avx2</text>
</a>
</g>
</g>
<!-- Node2&#45;&gt;Node4 -->
<g id="edge3_Node000002_Node000004" class="edge">
<title>Node2&#45;&gt;Node4</title>
<g id="a_edge3_Node000002_Node000004"><a xlink:title=" ">
<path fill="none" stroke="#63b8ff" d="M169.11,-244.23C194.87,-253.18 231.65,-265.97 259.97,-275.81"/>
<polygon fill="#63b8ff" stroke="#63b8ff" points="258.73,-279.09 269.33,-279.06 261.03,-272.47 258.73,-279.09"/>
</a>
</g>
</g>
<!-- Node5 -->
<g id="Node000005" class="node">
<title>Node5</title>
<g id="a_Node000005"><a xlink:href="stream_8c.html#a595b79d2d4a2ee4b29b91ac03014dc86" target="_top" xlink:title=" ">
<polygon fill="white" stroke="#666666" points="528.62,-262.75 419.62,-262.75 419.62,-242 528.62,-242 528.62,-262.75"/>
<text text-anchor="middle" x="474.12" y="-249.25" font-family="Helvetica,sans-Serif" font-size="10.00">ie_scalar_copy_f32</text>
</a>
</g>
</g>
<!-- Node2&#45;&gt;Node5 -->
<g id="edge7_Node000002_Node000005" class="edge">
<title>Node2&#45;&gt;Node5</title>
<g id="a_edge7_Node000002_Node000005"><a xlink:title=" ">
<path fill="none" stroke="#63b8ff" d="M194.37,-236.58C253.39,-239.92 345.88,-245.16 407.96,-248.68"/>
<polygon fill="#63b8ff" stroke="#63b8ff" points="407.49,-252.16 417.67,-249.23 407.88,-245.17 407.49,-252.16"/>
</a>
</g>
</g>
<!-- Node6 -->
<g id="Node000006" class="node">
<title>Node6</title>
<g id="a_Node000006"><a xlink:href="stream_8c.html#a08dffd4006d1feb19beeaee81ff360b2" target="_top" xlink:title="Streaming store copy (AVX&#45;512 if available).">
<polygon fill="white" stroke="#666666" points="368.25,-224.75 237.5,-224.75 237.5,-204 368.25,-204 368.25,-224.75"/>
<text text-anchor="middle" x="302.88" y="-211.25" font-family="Helvetica,sans-Serif" font-size="10.00">ie_nt_copy_f32_avx512</text>
</a>
</g>
</g>
<!-- Node2&#45;&gt;Node6 -->
<g id="edge5_Node000002_Node000006" class="edge">
<title>Node2&#45;&gt;Node6</title>
<g id="a_edge5_Node000002_Node000006"><a xlink:title=" ">
<path fill="none" stroke="#63b8ff" d="M194.31,-226.84C204.45,-225.66 215.17,-224.42 225.76,-223.19"/>
<polygon fill="#63b8ff" stroke="#63b8ff" points="226.12,-226.67 235.66,-222.05 225.32,-219.72 226.12,-226.67"/>
</a>
</g>
</g>
<!-- Node7 -->
<g id="Node000007" class="node">
<title>Node7</title>
<g id="a_Node000007"><a xlink:href="stream_8c.html#af51c48e8b0afa485e060090f734d1cb1" target="_top" xlink:title="Decide if non&#45;temporal stores should be used for a given transfer size.">
<polygon fill="white" stroke="#666666" points="372.75,-185.75 233,-185.75 233,-165 372.75,-165 372.75,-185.75"/>
<text text-anchor="middle" x="302.88" y="-172.25" font-family="Helvetica,sans-Serif" font-size="10.00">ie_stream_should_use_nt</text>
</a>
</g>
</g>
<!-- Node2&#45;&gt;Node7 -->
<g id="edge8_Node000002_Node000007" class="edge">
<title>Node2&#45;&gt;Node7</title>
<g id="a_edge8_Node000002_Node000007"><a xlink:title=" ">
<path fill="none" stroke="#63b8ff" d="M163.06,-222.54C182.09,-214.54 208.95,-203.65 233,-195.38 238.81,-193.38 244.95,-191.4 251.06,-189.52"/>
<polygon fill="#63b8ff" stroke="#63b8ff" points="251.95,-192.91 260.52,-186.68 249.93,-186.2 251.95,-192.91"/>
</a>
</g>
</g>
<!-- Node4&#45;&gt;Node5 -->
<g id="edge4_Node000004_Node000005" class="edge">
<title>Node4&#45;&gt;Node5</title>
<g id="a_edge4_Node000004_Node000005"><a xlink:title=" ">
<path fill="none" stroke="#63b8ff" d="M351.92,-279.59C371.22,-275.26 393.66,-270.22 413.94,-265.66"/>
<polygon fill="#63b8ff" stroke="#63b8ff" points="414.49,-269.13 423.48,-263.52 412.96,-262.3 414.49,-269.13"/>
</a>
</g>
</g>
<!-- Node6&#45;&gt;Node5 -->
<g id="edge6_Node000006_Node000005" class="edge">
<title>Node6&#45;&gt;Node5</title>
<g id="a_edge6_Node000006_Node000005"><a xlink:title=" ">
<path fill="none" stroke="#63b8ff" d="M351.92,-225.16C371.22,-229.49 393.66,-234.53 413.94,-239.09"/>
<polygon fill="#63b8ff" stroke="#63b8ff" points="412.96,-242.45 423.48,-241.23 414.49,-235.62 412.96,-242.45"/>
</a>
</g>
</g>
<!-- Node9 -->
<g id="Node000009" class="node">
<title>Node9</title>
<g id="a_Node000009"><a xlink:href="stream_8c.html#a6b3e804aea00c4b2e9a4d9c33d7d11d9" target="_top" xlink:title="Best&#45;effort cache discovery on Linux sysfs.">
<polygon fill="white" stroke="#666666" points="367.5,-146.75 238.25,-146.75 238.25,-126 367.5,-126 367.5,-146.75"/>
<text text-anchor="middle" x="302.88" y="-133.25" font-family="Helvetica,sans-Serif" font-size="10.00">ie_detect_caches_linux</text>
</a>
</g>
</g>
<!-- Node8&#45;&gt;Node9 -->
<g id="edge10_Node000008_Node000009" class="edge">
<title>Node8&#45;&gt;Node9</title>
<g id="a_edge10_Node000008_Node000009"><a xlink:title=" ">
<path fill="none" stroke="#63b8ff" d="M197.08,-138.29C206.58,-138.12 216.52,-137.94 226.33,-137.76"/>
<polygon fill="#63b8ff" stroke="#63b8ff" points="226.32,-141.26 236.25,-137.58 226.19,-134.26 226.32,-141.26"/>
</a>
</g>
</g>
<!-- Node10 -->
<g id="Node000010" class="node">
<title>Node10</title>
<g id="a_Node000010"><a xlink:href="stream_8c.html#aa8b9868ec9d59cff70ebebba0a0193cf" target="_top" xlink:title="Parse a sysfs cache size file that looks like &quot;32K\n&quot; or &quot;12M\n&quot;.">
<polygon fill="white" stroke="#666666" points="539.5,-146.75 408.75,-146.75 408.75,-126 539.5,-126 539.5,-146.75"/>
<text text-anchor="middle" x="474.12" y="-133.25" font-family="Helvetica,sans-Serif" font-size="10.00">ie_read_cache_size_file</text>
</a>
</g>
</g>
<!-- Node9&#45;&gt;Node10 -->
<g id="edge11_Node000009_Node000010" class="edge">
<title>Node9&#45;&gt;Node10</title>
<g id="a_edge11_Node000009_Node000010"><a xlink:title=" ">
<path fill="none" stroke="#63b8ff" d="M367.86,-136.38C377.42,-136.38 387.34,-136.38 397.12,-136.38"/>
<polygon fill="#63b8ff" stroke="#63b8ff" points="396.97,-139.88 406.97,-136.38 396.97,-132.88 396.97,-139.88"/>
</a>
</g>
</g>
<!-- Node12 -->
<g id="Node000012" class="node">
<title>Node12</title>
<g id="a_Node000012"><a xlink:href="stream_8c.html#a77afa6fcb0e13c92f024812038ba0291" target="_top" xlink:title="Issue a T0 (cache&#45;hot) prefetch distance bytes ahead of base.">
<polygon fill="white" stroke="#666666" points="365.62,-104.75 240.12,-104.75 240.12,-84 365.62,-84 365.62,-104.75"/>
<text text-anchor="middle" x="302.88" y="-91.25" font-family="Helvetica,sans-Serif" font-size="10.00">ie_stream_prefetch_t0</text>
</a>
</g>
</g>
<!-- Node11&#45;&gt;Node12 -->
<g id="edge13_Node000011_Node000012" class="edge">
<title>Node11&#45;&gt;Node12</title>
<g id="a_edge13_Node000011_Node000012"><a xlink:title=" ">
<path fill="none" stroke="#63b8ff" d="M192.48,-94.38C203.99,-94.38 216.32,-94.38 228.39,-94.38"/>
<polygon fill="#63b8ff" stroke="#63b8ff" points="228.34,-97.88 238.34,-94.38 228.34,-90.88 228.34,-97.88"/>
</a>
</g>
</g>
</g>
</svg>
