<?xml version="1.0" encoding="UTF-8" standalone="no"?>
<!DOCTYPE svg PUBLIC "-//W3C//DTD SVG 1.1//EN"
 "http://www.w3.org/Graphics/SVG/1.1/DTD/svg11.dtd">
<!-- Generated by graphviz version 12.2.1 (20241206.2353)
 -->
<!-- Title: benchmarks/src/microbench_block_sparse.c Pages: 1 -->
<svg width="510pt" height="155pt"
 viewBox="0.00 0.00 509.75 155.00" xmlns="http://www.w3.org/2000/svg" xmlns:xlink="http://www.w3.org/1999/xlink">
<g id="graph0" class="graph" transform="scale(1 1) rotate(0) translate(4 151)">
<title>benchmarks/src/microbench_block_sparse.c</title>
<!-- Node1 -->
<g id="Node000001" class="node">
<title>Node1</title>
<g id="a_Node000001"><a xlink:title="Microbenchmark comparing dense vs block&#45;sparse GEMV (FP32).">
<polygon fill="#999999" stroke="#666666" points="273.88,-147 120.62,-147 120.62,-113.5 273.88,-113.5 273.88,-147"/>
<text text-anchor="start" x="128.62" y="-133.5" font-family="Helvetica,sans-Serif" font-size="10.00">benchmarks/src/microbench</text>
<text text-anchor="middle" x="197.25" y="-120.75" font-family="Helvetica,sans-Serif" font-size="10.00">_block_sparse.c</text>
</a>
</g>
</g>
<!-- Node2 -->
<g id="Node000002" class="node">
<title>Node2</title>
<g id="a_Node000002"><a xlink:title=" ">
<polygon fill="#e0e0e0" stroke="#999999" points="50.5,-77.5 0,-77.5 0,-56.75 50.5,-56.75 50.5,-77.5"/>
<text text-anchor="middle" x="25.25" y="-64" font-family="Helvetica,sans-Serif" font-size="10.00">math.h</text>
</a>
</g>
</g>
<!-- Node1&#45;&gt;Node2 -->
<g id="edge1_Node000001_Node000002" class="edge">
<title>Node1&#45;&gt;Node2</title>
<g id="a_edge1_Node000001_Node000002"><a xlink:title=" ">
<path fill="none" stroke="#63b8ff" d="M151.61,-113.03C123.39,-103 87.68,-90.31 61.43,-80.98"/>
<polygon fill="#63b8ff" stroke="#63b8ff" points="62.83,-77.76 52.23,-77.71 60.48,-84.36 62.83,-77.76"/>
</a>
</g>
</g>
<!-- Node3 -->
<g id="Node000003" class="node">
<title>Node3</title>
<g id="a_Node000003"><a xlink:title=" ">
<polygon fill="#e0e0e0" stroke="#999999" points="117.75,-77.5 68.75,-77.5 68.75,-56.75 117.75,-56.75 117.75,-77.5"/>
<text text-anchor="middle" x="93.25" y="-64" font-family="Helvetica,sans-Serif" font-size="10.00">stdio.h</text>
</a>
</g>
</g>
<!-- Node1&#45;&gt;Node3 -->
<g id="edge2_Node000001_Node000003" class="edge">
<title>Node1&#45;&gt;Node3</title>
<g id="a_edge2_Node000001_Node000003"><a xlink:title=" ">
<path fill="none" stroke="#63b8ff" d="M169.65,-113.03C154.2,-103.95 135.04,-92.68 119.76,-83.71"/>
<polygon fill="#63b8ff" stroke="#63b8ff" points="121.61,-80.73 111.21,-78.68 118.06,-86.77 121.61,-80.73"/>
</a>
</g>
</g>
<!-- Node4 -->
<g id="Node000004" class="node">
<title>Node4</title>
<g id="a_Node000004"><a xlink:title=" ">
<polygon fill="#e0e0e0" stroke="#999999" points="188.25,-77.5 136.25,-77.5 136.25,-56.75 188.25,-56.75 188.25,-77.5"/>
<text text-anchor="middle" x="162.25" y="-64" font-family="Helvetica,sans-Serif" font-size="10.00">stdlib.h</text>
</a>
</g>
</g>
<!-- Node1&#45;&gt;Node4 -->
<g id="edge3_Node000001_Node000004" class="edge">
<title>Node1&#45;&gt;Node4</title>
<g id="a_edge3_Node000001_Node000004"><a xlink:title=" ">
<path fill="none" stroke="#63b8ff" d="M188.05,-113.19C183.6,-105.42 178.22,-96.02 173.53,-87.82"/>
<polygon fill="#63b8ff" stroke="#63b8ff" points="176.64,-86.22 168.64,-79.28 170.57,-89.7 176.64,-86.22"/>
</a>
</g>
</g>
<!-- Node5 -->
<g id="Node000005" class="node">
<title>Node5</title>
<g id="a_Node000005"><a xlink:title=" ">
<polygon fill="#e0e0e0" stroke="#999999" points="258.62,-77.5 205.88,-77.5 205.88,-56.75 258.62,-56.75 258.62,-77.5"/>
<text text-anchor="middle" x="232.25" y="-64" font-family="Helvetica,sans-Serif" font-size="10.00">string.h</text>
</a>
</g>
</g>
<!-- Node1&#45;&gt;Node5 -->
<g id="edge4_Node000001_Node000005" class="edge">
<title>Node1&#45;&gt;Node5</title>
<g id="a_edge4_Node000001_Node000005"><a xlink:title=" ">
<path fill="none" stroke="#63b8ff" d="M206.45,-113.19C210.9,-105.42 216.28,-96.02 220.97,-87.82"/>
<polygon fill="#63b8ff" stroke="#63b8ff" points="223.93,-89.7 225.86,-79.28 217.86,-86.22 223.93,-89.7"/>
</a>
</g>
</g>
<!-- Node6 -->
<g id="Node000006" class="node">
<title>Node6</title>
<g id="a_Node000006"><a xlink:title=" ">
<polygon fill="#e0e0e0" stroke="#999999" points="324,-77.5 276.5,-77.5 276.5,-56.75 324,-56.75 324,-77.5"/>
<text text-anchor="middle" x="300.25" y="-64" font-family="Helvetica,sans-Serif" font-size="10.00">time.h</text>
</a>
</g>
</g>
<!-- Node1&#45;&gt;Node6 -->
<g id="edge5_Node000001_Node000006" class="edge">
<title>Node1&#45;&gt;Node6</title>
<g id="a_edge5_Node000001_Node000006"><a xlink:title=" ">
<path fill="none" stroke="#63b8ff" d="M224.58,-113.03C239.88,-103.95 258.87,-92.68 273.99,-83.71"/>
<polygon fill="#63b8ff" stroke="#63b8ff" points="275.64,-86.8 282.45,-78.69 272.07,-80.78 275.64,-86.8"/>
</a>
</g>
</g>
<!-- Node7 -->
<g id="Node000007" class="node">
<title>Node7</title>
<g id="a_Node000007"><a xlink:href="sparse__format_8h.html" target="_top" xlink:title="In&#45;memory representation and loader interface for block&#45;sparse matrices.">
<polygon fill="white" stroke="#666666" points="438,-77.5 342.5,-77.5 342.5,-56.75 438,-56.75 438,-77.5"/>
<text text-anchor="middle" x="390.25" y="-64" font-family="Helvetica,sans-Serif" font-size="10.00">sparse_format.h</text>
</a>
</g>
</g>
<!-- Node1&#45;&gt;Node7 -->
<g id="edge6_Node000001_Node000007" class="edge">
<title>Node1&#45;&gt;Node7</title>
<g id="a_edge6_Node000001_Node000007"><a xlink:title=" ">
<path fill="none" stroke="#63b8ff" d="M248.46,-113.03C279.76,-103.12 319.26,-90.61 348.62,-81.31"/>
<polygon fill="#63b8ff" stroke="#63b8ff" points="349.42,-84.73 357.9,-78.37 347.31,-78.05 349.42,-84.73"/>
</a>
</g>
</g>
<!-- Node8 -->
<g id="Node000008" class="node">
<title>Node8</title>
<g id="a_Node000008"><a xlink:title=" ">
<polygon fill="#e0e0e0" stroke="#999999" points="345.75,-20.75 290.75,-20.75 290.75,0 345.75,0 345.75,-20.75"/>
<text text-anchor="middle" x="318.25" y="-7.25" font-family="Helvetica,sans-Serif" font-size="10.00">stddef.h</text>
</a>
</g>
</g>
<!-- Node7&#45;&gt;Node8 -->
<g id="edge7_Node000007_Node000008" class="edge">
<title>Node7&#45;&gt;Node8</title>
<g id="a_edge7_Node000007_Node000008"><a xlink:title=" ">
<path fill="none" stroke="#63b8ff" d="M377.38,-56.34C367.04,-48.47 352.28,-37.25 340.1,-27.99"/>
<polygon fill="#63b8ff" stroke="#63b8ff" points="342.29,-25.26 332.22,-21.99 338.06,-30.83 342.29,-25.26"/>
</a>
</g>
</g>
<!-- Node9 -->
<g id="Node000009" class="node">
<title>Node9</title>
<g id="a_Node000009"><a xlink:title=" ">
<polygon fill="#e0e0e0" stroke="#999999" points="416.62,-20.75 363.88,-20.75 363.88,0 416.62,0 416.62,-20.75"/>
<text text-anchor="middle" x="390.25" y="-7.25" font-family="Helvetica,sans-Serif" font-size="10.00">stdint.h</text>
</a>
</g>
</g>
<!-- Node7&#45;&gt;Node9 -->
<g id="edge8_Node000007_Node000009" class="edge">
<title>Node7&#45;&gt;Node9</title>
<g id="a_edge8_Node000007_Node000009"><a xlink:title=" ">
<path fill="none" stroke="#63b8ff" d="M390.25,-56.34C390.25,-49.72 390.25,-40.72 390.25,-32.52"/>
<polygon fill="#63b8ff" stroke="#63b8ff" points="393.75,-32.59 390.25,-22.59 386.75,-32.59 393.75,-32.59"/>
</a>
</g>
</g>
<!-- Node10 -->
<g id="Node000010" class="node">
<title>Node10</title>
<g id="a_Node000010"><a xlink:href="platform_8h.html" target="_top" xlink:title="Platform feature detection (baseline stubs).">
<polygon fill="white" stroke="#666666" points="501.75,-20.75 434.75,-20.75 434.75,0 501.75,0 501.75,-20.75"/>
<text text-anchor="middle" x="468.25" y="-7.25" font-family="Helvetica,sans-Serif" font-size="10.00">platform.h</text>
</a>
</g>
</g>
<!-- Node7&#45;&gt;Node10 -->
<g id="edge9_Node000007_Node000010" class="edge">
<title>Node7&#45;&gt;Node10</title>
<g id="a_edge9_Node000007_Node000010"><a xlink:title=" ">
<path fill="none" stroke="#63b8ff" d="M404.19,-56.34C415.62,-48.32 432.02,-36.81 445.36,-27.44"/>
<polygon fill="#63b8ff" stroke="#63b8ff" points="447.01,-30.56 453.19,-21.95 442.99,-24.83 447.01,-30.56"/>
</a>
</g>
</g>
</g>
</svg>
