<?xml version="1.0" encoding="UTF-8" standalone="no"?>
<!DOCTYPE svg PUBLIC "-//W3C//DTD SVG 1.1//EN"
 "http://www.w3.org/Graphics/SVG/1.1/DTD/svg11.dtd">
<!-- Generated by graphviz version 12.2.1 (20241206.2353)
 -->
<!-- Title: dense_to_block_sparse Pages: 1 -->
<svg width="339pt" height="146pt"
 viewBox="0.00 0.00 338.50 145.75" xmlns="http://www.w3.org/2000/svg" xmlns:xlink="http://www.w3.org/1999/xlink">

<svg id="main" version="1.1" xmlns="http://www.w3.org/2000/svg" xmlns:xlink="http://www.w3.org/1999/xlink" xml:space="preserve">

<style type="text/css"><![CDATA[
.node, .edge {opacity: 0.7;}
.node.selected, .edge.selected {opacity: 1;}
.edge:hover path { stroke: red; }
.edge:hover polygon { stroke: red; fill: red; }
]]></style>
<script type="application/ecmascript" xlink:href="svg.min.js"/>
<svg id="graph" class="graph">
<g id="graph0" class="graph" transform="scale(1 1) rotate(0) translate(4 141.75)">
<title>dense_to_block_sparse</title>
<!-- Node1 -->
<g id="Node000001" class="node">
<title>Node1</title>
<g id="a_Node000001"><a xlink:title="Build an ie_block_sparse_matrix_t from a dense matrix in memory.">
<polygon fill="#999999" stroke="#666666" points="129.25,-78.75 0,-78.75 0,-58 129.25,-58 129.25,-78.75"/>
<text text-anchor="middle" x="64.62" y="-65.25" font-family="Helvetica,sans-Serif" font-size="10.00">dense_to_block_sparse</text>
</a>
</g>
</g>
<!-- Node2 -->
<g id="Node000002" class="node">
<title>Node2</title>
<g id="a_Node000002"><a xlink:href="microbench__block__sparse_8c.html#aa9d2cb46eeb965c3408c4de94ae65e07" target="_top" xlink:title="Decide whether a block is non&#45;zero under a simple max&#45;abs rule.">
<polygon fill="white" stroke="#666666" points="297.88,-137.75 197.88,-137.75 197.88,-117 297.88,-117 297.88,-137.75"/>
<text text-anchor="middle" x="247.88" y="-124.25" font-family="Helvetica,sans-Serif" font-size="10.00">block_is_nonzero</text>
</a>
</g>
</g>
<!-- Node1&#45;&gt;Node2 -->
<g id="edge1_Node000001_Node000002" class="edge">
<title>Node1&#45;&gt;Node2</title>
<g id="a_edge1_Node000001_Node000002"><a xlink:title=" ">
<path fill="none" stroke="#63b8ff" d="M90.27,-79.08C110.24,-87.5 139.22,-99.13 165.25,-107.38 172.35,-109.62 179.87,-111.77 187.35,-113.77"/>
<polygon fill="#63b8ff" stroke="#63b8ff" points="186.22,-117.09 196.77,-116.2 187.97,-110.31 186.22,-117.09"/>
</a>
</g>
</g>
<!-- Node3 -->
<g id="Node000003" class="node">
<title>Node3</title>
<g id="a_Node000003"><a xlink:href="sparse__io_8c.html#ace3311d6d76dd6a9b17488b66311b98a" target="_top" xlink:title="Initialize a block&#45;sparse matrix descriptor to a safe empty state.">
<polygon fill="white" stroke="#666666" points="305.38,-98.75 190.38,-98.75 190.38,-78 305.38,-78 305.38,-98.75"/>
<text text-anchor="middle" x="247.88" y="-85.25" font-family="Helvetica,sans-Serif" font-size="10.00">ie_block_sparse_init</text>
</a>
</g>
</g>
<!-- Node1&#45;&gt;Node3 -->
<g id="edge2_Node000001_Node000003" class="edge">
<title>Node1&#45;&gt;Node3</title>
<g id="a_edge2_Node000001_Node000003"><a xlink:title=" ">
<path fill="none" stroke="#63b8ff" d="M129.53,-75.43C145.51,-77.19 162.71,-79.09 178.88,-80.87"/>
<polygon fill="#63b8ff" stroke="#63b8ff" points="178.06,-84.3 188.38,-81.92 178.83,-77.34 178.06,-84.3"/>
</a>
</g>
</g>
<!-- Node4 -->
<g id="Node000004" class="node">
<title>Node4</title>
<g id="a_Node000004"><a xlink:href="sparse__io_8c.html#afcc239def447f7ccdf07b59ce0e47467" target="_top" xlink:title="Compute the theoretical number of block columns for a given layout.">
<polygon fill="white" stroke="#666666" points="328.62,-59.75 167.12,-59.75 167.12,-39 328.62,-39 328.62,-59.75"/>
<text text-anchor="middle" x="247.88" y="-46.25" font-family="Helvetica,sans-Serif" font-size="10.00">ie_block_sparse_n_block_cols</text>
</a>
</g>
</g>
<!-- Node1&#45;&gt;Node4 -->
<g id="edge3_Node000001_Node000004" class="edge">
<title>Node1&#45;&gt;Node4</title>
<g id="a_edge3_Node000001_Node000004"><a xlink:title=" ">
<path fill="none" stroke="#63b8ff" d="M129.53,-61.68C137.89,-60.8 146.58,-59.89 155.29,-58.98"/>
<polygon fill="#63b8ff" stroke="#63b8ff" points="155.63,-62.46 165.21,-57.94 154.9,-55.5 155.63,-62.46"/>
</a>
</g>
</g>
<!-- Node5 -->
<g id="Node000005" class="node">
<title>Node5</title>
<g id="a_Node000005"><a xlink:href="sparse__io_8c.html#a2df04db78871f064e33eb709ed62ed4f" target="_top" xlink:title="Compute the theoretical number of block rows for a given layout.">
<polygon fill="white" stroke="#666666" points="330.5,-20.75 165.25,-20.75 165.25,0 330.5,0 330.5,-20.75"/>
<text text-anchor="middle" x="247.88" y="-7.25" font-family="Helvetica,sans-Serif" font-size="10.00">ie_block_sparse_n_block_rows</text>
</a>
</g>
</g>
<!-- Node1&#45;&gt;Node5 -->
<g id="edge4_Node000001_Node000005" class="edge">
<title>Node1&#45;&gt;Node5</title>
<g id="a_edge4_Node000001_Node000005"><a xlink:title=" ">
<path fill="none" stroke="#63b8ff" d="M91.12,-57.65C111.07,-49.5 139.63,-38.37 165.25,-30.38 172.36,-28.16 179.88,-26.03 187.37,-24.04"/>
<polygon fill="#63b8ff" stroke="#63b8ff" points="187.98,-27.5 196.79,-21.61 186.24,-20.72 187.98,-27.5"/>
</a>
</g>
</g>
</g>
</svg>
</svg>

<style type='text/css'>
<![CDATA[
[data-mouse-over-selected='false'] { opacity: 0.7; }
[data-mouse-over-selected='true']  { opacity: 1.0; }
]]>
</style>
<script type="application/ecmascript"><![CDATA[
document.addEventListener('DOMContentLoaded', (event) => {
  highlightEdges();
  highlightAdjacentNodes();
});
]]></script>
</svg>
