<?xml version="1.0" encoding="UTF-8" standalone="no"?>
<!DOCTYPE svg PUBLIC "-//W3C//DTD SVG 1.1//EN"
 "http://www.w3.org/Graphics/SVG/1.1/DTD/svg11.dtd">
<!-- Generated by graphviz version 12.2.1 (20241206.2353)
 -->
<!-- Title: benchmarks/src/microbench_stream.c Pages: 1 -->
<svg width="417pt" height="155pt"
 viewBox="0.00 0.00 417.25 155.00" xmlns="http://www.w3.org/2000/svg" xmlns:xlink="http://www.w3.org/1999/xlink">

<svg id="main" version="1.1" xmlns="http://www.w3.org/2000/svg" xmlns:xlink="http://www.w3.org/1999/xlink" xml:space="preserve">

<style type="text/css"><![CDATA[
.node, .edge {opacity: 0.7;}
.node.selected, .edge.selected {opacity: 1;}
.edge:hover path { stroke: red; }
.edge:hover polygon { stroke: red; fill: red; }
]]></style>
<script type="application/ecmascript" xlink:href="svg.min.js"/>
<svg id="graph" class="graph">
<g id="graph0" class="graph" transform="scale(1 1) rotate(0) translate(4 151)">
<title>benchmarks/src/microbench_stream.c</title>
<!-- Node1 -->
<g id="Node000001" class="node">
<title>Node1</title>
<g id="a_Node000001"><a xlink:title="Sweep prefetch distances and NT ratios for streaming copy bandwidth.">
<polygon fill="#999999" stroke="#666666" points="324.12,-147 170.88,-147 170.88,-113.5 324.12,-113.5 324.12,-147"/>
<text text-anchor="start" x="178.88" y="-133.5" font-family="Helvetica,sans-Serif" font-size="10.00">benchmarks/src/microbench</text>
<text text-anchor="middle" x="247.5" y="-120.75" font-family="Helvetica,sans-Serif" font-size="10.00">_stream.c</text>
</a>
</g>
</g>
<!-- Node2 -->
<g id="Node000002" class="node">
<title>Node2</title>
<g id="a_Node000002"><a xlink:href="ie__stream_8h.html" target="_top" xlink:title="Portable wrappers for controlled prefetching and non&#45;temporal (streaming) stores.">
<polygon fill="white" stroke="#666666" points="136.38,-77.5 62.62,-77.5 62.62,-56.75 136.38,-56.75 136.38,-77.5"/>
<text text-anchor="middle" x="99.5" y="-64" font-family="Helvetica,sans-Serif" font-size="10.00">ie_stream.h</text>
</a>
</g>
</g>
<!-- Node1&#45;&gt;Node2 -->
<g id="edge1_Node000001_Node000002" class="edge">
<title>Node1&#45;&gt;Node2</title>
<g id="a_edge1_Node000001_Node000002"><a xlink:title=" ">
<path fill="none" stroke="#63b8ff" d="M208.23,-113.03C185.08,-103.47 156.06,-91.49 133.83,-82.3"/>
<polygon fill="#63b8ff" stroke="#63b8ff" points="135.18,-79.08 124.6,-78.49 132.51,-85.55 135.18,-79.08"/>
</a>
</g>
</g>
<!-- Node6 -->
<g id="Node000006" class="node">
<title>Node6</title>
<g id="a_Node000006"><a xlink:title=" ">
<polygon fill="#e0e0e0" stroke="#999999" points="203,-77.5 154,-77.5 154,-56.75 203,-56.75 203,-77.5"/>
<text text-anchor="middle" x="178.5" y="-64" font-family="Helvetica,sans-Serif" font-size="10.00">stdio.h</text>
</a>
</g>
</g>
<!-- Node1&#45;&gt;Node6 -->
<g id="edge5_Node000001_Node000006" class="edge">
<title>Node1&#45;&gt;Node6</title>
<g id="a_edge5_Node000001_Node000006"><a xlink:title=" ">
<path fill="none" stroke="#63b8ff" d="M229.37,-113.19C219.71,-104.63 207.82,-94.1 197.97,-85.37"/>
<polygon fill="#63b8ff" stroke="#63b8ff" points="200.55,-82.98 190.74,-78.97 195.91,-88.22 200.55,-82.98"/>
</a>
</g>
</g>
<!-- Node7 -->
<g id="Node000007" class="node">
<title>Node7</title>
<g id="a_Node000007"><a xlink:title=" ">
<polygon fill="#e0e0e0" stroke="#999999" points="273.5,-77.5 221.5,-77.5 221.5,-56.75 273.5,-56.75 273.5,-77.5"/>
<text text-anchor="middle" x="247.5" y="-64" font-family="Helvetica,sans-Serif" font-size="10.00">stdlib.h</text>
</a>
</g>
</g>
<!-- Node1&#45;&gt;Node7 -->
<g id="edge6_Node000001_Node000007" class="edge">
<title>Node1&#45;&gt;Node7</title>
<g id="a_edge6_Node000001_Node000007"><a xlink:title=" ">
<path fill="none" stroke="#63b8ff" d="M247.5,-113.19C247.5,-105.85 247.5,-97.07 247.5,-89.21"/>
<polygon fill="#63b8ff" stroke="#63b8ff" points="251,-89.48 247.5,-79.48 244,-89.48 251,-89.48"/>
</a>
</g>
</g>
<!-- Node8 -->
<g id="Node000008" class="node">
<title>Node8</title>
<g id="a_Node000008"><a xlink:title=" ">
<polygon fill="#e0e0e0" stroke="#999999" points="343.88,-77.5 291.12,-77.5 291.12,-56.75 343.88,-56.75 343.88,-77.5"/>
<text text-anchor="middle" x="317.5" y="-64" font-family="Helvetica,sans-Serif" font-size="10.00">string.h</text>
</a>
</g>
</g>
<!-- Node1&#45;&gt;Node8 -->
<g id="edge7_Node000001_Node000008" class="edge">
<title>Node1&#45;&gt;Node8</title>
<g id="a_edge7_Node000001_Node000008"><a xlink:title=" ">
<path fill="none" stroke="#63b8ff" d="M265.89,-113.19C275.69,-104.63 287.75,-94.1 297.75,-85.37"/>
<polygon fill="#63b8ff" stroke="#63b8ff" points="299.86,-88.18 305.09,-78.96 295.25,-82.9 299.86,-88.18"/>
</a>
</g>
</g>
<!-- Node9 -->
<g id="Node000009" class="node">
<title>Node9</title>
<g id="a_Node000009"><a xlink:title=" ">
<polygon fill="#e0e0e0" stroke="#999999" points="409.25,-77.5 361.75,-77.5 361.75,-56.75 409.25,-56.75 409.25,-77.5"/>
<text text-anchor="middle" x="385.5" y="-64" font-family="Helvetica,sans-Serif" font-size="10.00">time.h</text>
</a>
</g>
</g>
<!-- Node1&#45;&gt;Node9 -->
<g id="edge8_Node000001_Node000009" class="edge">
<title>Node1&#45;&gt;Node9</title>
<g id="a_edge8_Node000001_Node000009"><a xlink:title=" ">
<path fill="none" stroke="#63b8ff" d="M284.12,-113.03C305.51,-103.56 332.26,-91.7 352.92,-82.56"/>
<polygon fill="#63b8ff" stroke="#63b8ff" points="354.29,-85.78 362.01,-78.53 351.45,-79.38 354.29,-85.78"/>
</a>
</g>
</g>
<!-- Node3 -->
<g id="Node000003" class="node">
<title>Node3</title>
<g id="a_Node000003"><a xlink:title=" ">
<polygon fill="#e0e0e0" stroke="#999999" points="55,-20.75 0,-20.75 0,0 55,0 55,-20.75"/>
<text text-anchor="middle" x="27.5" y="-7.25" font-family="Helvetica,sans-Serif" font-size="10.00">stddef.h</text>
</a>
</g>
</g>
<!-- Node2&#45;&gt;Node3 -->
<g id="edge2_Node000002_Node000003" class="edge">
<title>Node2&#45;&gt;Node3</title>
<g id="a_edge2_Node000002_Node000003"><a xlink:title=" ">
<path fill="none" stroke="#63b8ff" d="M86.63,-56.34C76.29,-48.47 61.53,-37.25 49.35,-27.99"/>
<polygon fill="#63b8ff" stroke="#63b8ff" points="51.54,-25.26 41.47,-21.99 47.31,-30.83 51.54,-25.26"/>
</a>
</g>
</g>
<!-- Node4 -->
<g id="Node000004" class="node">
<title>Node4</title>
<g id="a_Node000004"><a xlink:title=" ">
<polygon fill="#e0e0e0" stroke="#999999" points="125.88,-20.75 73.12,-20.75 73.12,0 125.88,0 125.88,-20.75"/>
<text text-anchor="middle" x="99.5" y="-7.25" font-family="Helvetica,sans-Serif" font-size="10.00">stdint.h</text>
</a>
</g>
</g>
<!-- Node2&#45;&gt;Node4 -->
<g id="edge3_Node000002_Node000004" class="edge">
<title>Node2&#45;&gt;Node4</title>
<g id="a_edge3_Node000002_Node000004"><a xlink:title=" ">
<path fill="none" stroke="#63b8ff" d="M99.5,-56.34C99.5,-49.72 99.5,-40.72 99.5,-32.52"/>
<polygon fill="#63b8ff" stroke="#63b8ff" points="103,-32.59 99.5,-22.59 96,-32.59 103,-32.59"/>
</a>
</g>
</g>
<!-- Node5 -->
<g id="Node000005" class="node">
<title>Node5</title>
<g id="a_Node000005"><a xlink:title=" ">
<polygon fill="#e0e0e0" stroke="#999999" points="205,-20.75 144,-20.75 144,0 205,0 205,-20.75"/>
<text text-anchor="middle" x="174.5" y="-7.25" font-family="Helvetica,sans-Serif" font-size="10.00">stdbool.h</text>
</a>
</g>
</g>
<!-- Node2&#45;&gt;Node5 -->
<g id="edge4_Node000002_Node000005" class="edge">
<title>Node2&#45;&gt;Node5</title>
<g id="a_edge4_Node000002_Node000005"><a xlink:title=" ">
<path fill="none" stroke="#63b8ff" d="M112.91,-56.34C123.79,-48.4 139.36,-37.03 152.12,-27.71"/>
<polygon fill="#63b8ff" stroke="#63b8ff" points="153.97,-30.69 159.99,-21.97 149.84,-25.04 153.97,-30.69"/>
</a>
</g>
</g>
</g>
</svg>
</svg>

<style type='text/css'>
<![CDATA[
[data-mouse-over-selected='false'] { opacity: 0.7; }
[data-mouse-over-selected='true']  { opacity: 1.0; }
]]>
</style>
<script type="application/ecmascript"><![CDATA[
document.addEventListener('DOMContentLoaded', (event) => {
  highlightEdges();
  highlightAdjacentNodes();
});
]]></script>
</svg>
