<?xml version="1.0" encoding="UTF-8" standalone="no"?>
<!DOCTYPE svg PUBLIC "-//W3C//DTD SVG 1.1//EN"
 "http://www.w3.org/Graphics/SVG/1.1/DTD/svg11.dtd">
<!-- Generated by graphviz version 2.43.0 (0)
 -->
<!-- Title: bench_fp8 Pages: 1 -->
<svg width="515pt" height="161pt"
 viewBox="0.00 0.00 515.00 161.00" xmlns="http://www.w3.org/2000/svg" xmlns:xlink="http://www.w3.org/1999/xlink">
<g id="graph0" class="graph" transform="scale(1 1) rotate(0) translate(4 157)">
<title>bench_fp8</title>
<!-- Node1 -->
<g id="node1" class="node">
<title>Node1</title>
<g id="a_node1"><a xlink:title=" ">
<polygon fill="#bfbfbf" stroke="black" points="0,-76.5 0,-95.5 67,-95.5 67,-76.5 0,-76.5"/>
<text text-anchor="middle" x="33.5" y="-83.5" font-family="Helvetica,sans-Serif" font-size="10.00">bench_fp8</text>
</a>
</g>
</g>
<!-- Node2 -->
<g id="node2" class="node">
<title>Node2</title>
<g id="a_node2"><a xlink:href="microbench__act__path_8c.html#a5d3710c85b882bf49d968768e567a9c7" target="_top" xlink:title=" ">
<polygon fill="none" stroke="black" points="127.5,-133.5 127.5,-152.5 204.5,-152.5 204.5,-133.5 127.5,-133.5"/>
<text text-anchor="middle" x="166" y="-140.5" font-family="Helvetica,sans-Serif" font-size="10.00">fill_gaussian</text>
</a>
</g>
</g>
<!-- Node1&#45;&gt;Node2 -->
<g id="edge1" class="edge">
<title>Node1&#45;&gt;Node2</title>
<path fill="none" stroke="midnightblue" d="M49.54,-95.55C63.12,-103.88 83.85,-115.86 103,-124 108.18,-126.2 113.7,-128.27 119.23,-130.17"/>
<polygon fill="midnightblue" stroke="midnightblue" points="118.54,-133.62 129.13,-133.4 120.71,-126.97 118.54,-133.62"/>
</g>
<!-- Node3 -->
<g id="node3" class="node">
<title>Node3</title>
<g id="a_node3"><a xlink:href="ie__quant__act_8h.html#aca462f5af36ea8b096edc92c4252db71" target="_top" xlink:title="Dequantize FP8 bytes to floats (E4M3 or E5M2).">
<polygon fill="none" stroke="black" points="103,-95.5 103,-114.5 229,-114.5 229,-95.5 103,-95.5"/>
<text text-anchor="middle" x="166" y="-102.5" font-family="Helvetica,sans-Serif" font-size="10.00">ie_dequantize_act_fp8</text>
</a>
</g>
</g>
<!-- Node1&#45;&gt;Node3 -->
<g id="edge2" class="edge">
<title>Node1&#45;&gt;Node3</title>
<path fill="none" stroke="midnightblue" d="M67.09,-90.75C74.99,-91.9 83.75,-93.17 92.69,-94.47"/>
<polygon fill="midnightblue" stroke="midnightblue" points="92.42,-97.97 102.82,-95.95 93.43,-91.04 92.42,-97.97"/>
</g>
<!-- Node6 -->
<g id="node6" class="node">
<title>Node6</title>
<g id="a_node6"><a xlink:href="ie__quant__act_8h.html#a91772f4827e6d4c82915434eb55a9f17" target="_top" xlink:title="Quantize activations to FP8 (E4M3 or E5M2).">
<polygon fill="none" stroke="black" points="109,-57.5 109,-76.5 223,-76.5 223,-57.5 109,-57.5"/>
<text text-anchor="middle" x="166" y="-64.5" font-family="Helvetica,sans-Serif" font-size="10.00">ie_quantize_act_fp8</text>
</a>
</g>
</g>
<!-- Node1&#45;&gt;Node6 -->
<g id="edge5" class="edge">
<title>Node1&#45;&gt;Node6</title>
<path fill="none" stroke="midnightblue" d="M67.09,-81.25C76.8,-79.84 87.82,-78.24 98.86,-76.63"/>
<polygon fill="midnightblue" stroke="midnightblue" points="99.58,-80.06 108.98,-75.16 98.58,-73.13 99.58,-80.06"/>
</g>
<!-- Node12 -->
<g id="node12" class="node">
<title>Node12</title>
<g id="a_node12"><a xlink:href="microbench__act__path_8c.html#a22e248c6fb13408ca0c3399b4a73d8d8" target="_top" xlink:title=" ">
<polygon fill="none" stroke="black" points="125,-19.5 125,-38.5 207,-38.5 207,-19.5 125,-19.5"/>
<text text-anchor="middle" x="166" y="-26.5" font-family="Helvetica,sans-Serif" font-size="10.00">now_seconds</text>
</a>
</g>
</g>
<!-- Node1&#45;&gt;Node12 -->
<g id="edge14" class="edge">
<title>Node1&#45;&gt;Node12</title>
<path fill="none" stroke="midnightblue" d="M49.54,-76.45C63.12,-68.12 83.85,-56.14 103,-48 108.18,-45.8 113.7,-43.73 119.23,-41.83"/>
<polygon fill="midnightblue" stroke="midnightblue" points="120.71,-45.03 129.13,-38.6 118.54,-38.38 120.71,-45.03"/>
</g>
<!-- Node4 -->
<g id="node4" class="node">
<title>Node4</title>
<g id="a_node4"><a xlink:href="act__fp8_8c.html#a52bd1c6672e488e69c328a8462a03638" target="_top" xlink:title=" ">
<polygon fill="none" stroke="black" points="265,-133.5 265,-152.5 385,-152.5 385,-133.5 265,-133.5"/>
<text text-anchor="middle" x="325" y="-140.5" font-family="Helvetica,sans-Serif" font-size="10.00">ie_unpack_fp8_e4m3</text>
</a>
</g>
</g>
<!-- Node3&#45;&gt;Node4 -->
<g id="edge3" class="edge">
<title>Node3&#45;&gt;Node4</title>
<path fill="none" stroke="midnightblue" d="M206.62,-114.59C227.34,-119.6 252.89,-125.79 274.86,-131.11"/>
<polygon fill="midnightblue" stroke="midnightblue" points="274.12,-134.53 284.67,-133.48 275.77,-127.73 274.12,-134.53"/>
</g>
<!-- Node5 -->
<g id="node5" class="node">
<title>Node5</title>
<g id="a_node5"><a xlink:href="act__fp8_8c.html#a8980ac38b93f25c750abde5ec521b4d1" target="_top" xlink:title=" ">
<polygon fill="none" stroke="black" points="265,-95.5 265,-114.5 385,-114.5 385,-95.5 265,-95.5"/>
<text text-anchor="middle" x="325" y="-102.5" font-family="Helvetica,sans-Serif" font-size="10.00">ie_unpack_fp8_e5m2</text>
</a>
</g>
</g>
<!-- Node3&#45;&gt;Node5 -->
<g id="edge4" class="edge">
<title>Node3&#45;&gt;Node5</title>
<path fill="none" stroke="midnightblue" d="M229.05,-105C237.55,-105 246.32,-105 254.94,-105"/>
<polygon fill="midnightblue" stroke="midnightblue" points="254.96,-108.5 264.96,-105 254.96,-101.5 254.96,-108.5"/>
</g>
<!-- Node7 -->
<g id="node7" class="node">
<title>Node7</title>
<g id="a_node7"><a xlink:href="act__fp8_8c.html#a202a6a4b5ffeadd5e70ea00de8307dd4" target="_top" xlink:title=" ">
<polygon fill="none" stroke="black" points="271,-57.5 271,-76.5 379,-76.5 379,-57.5 271,-57.5"/>
<text text-anchor="middle" x="325" y="-64.5" font-family="Helvetica,sans-Serif" font-size="10.00">ie_pack_fp8_e4m3</text>
</a>
</g>
</g>
<!-- Node6&#45;&gt;Node7 -->
<g id="edge6" class="edge">
<title>Node6&#45;&gt;Node7</title>
<path fill="none" stroke="midnightblue" d="M223.24,-67C235.34,-67 248.2,-67 260.55,-67"/>
<polygon fill="midnightblue" stroke="midnightblue" points="260.78,-70.5 270.78,-67 260.78,-63.5 260.78,-70.5"/>
</g>
<!-- Node11 -->
<g id="node11" class="node">
<title>Node11</title>
<g id="a_node11"><a xlink:href="act__fp8_8c.html#a3c2a81020974f897eee0c71515548031" target="_top" xlink:title=" ">
<polygon fill="none" stroke="black" points="271,-19.5 271,-38.5 379,-38.5 379,-19.5 271,-19.5"/>
<text text-anchor="middle" x="325" y="-26.5" font-family="Helvetica,sans-Serif" font-size="10.00">ie_pack_fp8_e5m2</text>
</a>
</g>
</g>
<!-- Node6&#45;&gt;Node11 -->
<g id="edge10" class="edge">
<title>Node6&#45;&gt;Node11</title>
<path fill="none" stroke="midnightblue" d="M206.62,-57.41C227.34,-52.4 252.89,-46.21 274.86,-40.89"/>
<polygon fill="midnightblue" stroke="midnightblue" points="275.77,-44.27 284.67,-38.52 274.12,-37.47 275.77,-44.27"/>
</g>
<!-- Node8 -->
<g id="node8" class="node">
<title>Node8</title>
<g id="a_node8"><a xlink:href="act__fp8_8c.html#a08593e027322e5927a6665304aba8805" target="_top" xlink:title=" ">
<polygon fill="none" stroke="black" points="424,-76.5 424,-95.5 504,-95.5 504,-76.5 424,-76.5"/>
<text text-anchor="middle" x="464" y="-83.5" font-family="Helvetica,sans-Serif" font-size="10.00">ie_is_inf_u32</text>
</a>
</g>
</g>
<!-- Node7&#45;&gt;Node8 -->
<g id="edge7" class="edge">
<title>Node7&#45;&gt;Node8</title>
<path fill="none" stroke="midnightblue" d="M379.36,-74.4C390.75,-75.98 402.73,-77.64 413.95,-79.2"/>
<polygon fill="midnightblue" stroke="midnightblue" points="413.61,-82.68 424,-80.59 414.57,-75.75 413.61,-82.68"/>
</g>
<!-- Node9 -->
<g id="node9" class="node">
<title>Node9</title>
<g id="a_node9"><a xlink:href="act__fp8_8c.html#a95270af9941bb86c1a4f2144cbeed878" target="_top" xlink:title=" ">
<polygon fill="none" stroke="black" points="421,-38.5 421,-57.5 507,-57.5 507,-38.5 421,-38.5"/>
<text text-anchor="middle" x="464" y="-45.5" font-family="Helvetica,sans-Serif" font-size="10.00">ie_is_nan_u32</text>
</a>
</g>
</g>
<!-- Node7&#45;&gt;Node9 -->
<g id="edge8" class="edge">
<title>Node7&#45;&gt;Node9</title>
<path fill="none" stroke="midnightblue" d="M379.36,-59.6C389.62,-58.18 400.35,-56.69 410.57,-55.27"/>
<polygon fill="midnightblue" stroke="midnightblue" points="411.17,-58.72 420.59,-53.88 410.21,-51.79 411.17,-58.72"/>
</g>
<!-- Node10 -->
<g id="node10" class="node">
<title>Node10</title>
<g id="a_node10"><a xlink:href="act__fp8_8c.html#a75acd58ddf5bde128ebf893b5186eda3" target="_top" xlink:title=" ">
<polygon fill="none" stroke="black" points="421,-0.5 421,-19.5 507,-19.5 507,-0.5 421,-0.5"/>
<text text-anchor="middle" x="464" y="-7.5" font-family="Helvetica,sans-Serif" font-size="10.00">ie_u32_from_f</text>
</a>
</g>
</g>
<!-- Node7&#45;&gt;Node10 -->
<g id="edge9" class="edge">
<title>Node7&#45;&gt;Node10</title>
<path fill="none" stroke="midnightblue" d="M359.14,-57.45C367.67,-54.68 376.77,-51.47 385,-48 401.67,-40.98 404.75,-36.95 421,-29 424.54,-27.27 428.27,-25.5 431.99,-23.77"/>
<polygon fill="midnightblue" stroke="midnightblue" points="433.45,-26.95 441.08,-19.61 430.53,-20.59 433.45,-26.95"/>
</g>
<!-- Node11&#45;&gt;Node8 -->
<g id="edge11" class="edge">
<title>Node11&#45;&gt;Node8</title>
<path fill="none" stroke="midnightblue" d="M359.14,-38.55C367.67,-41.32 376.77,-44.53 385,-48 401.67,-55.02 404.75,-59.05 421,-67 424.54,-68.73 428.27,-70.5 431.99,-72.23"/>
<polygon fill="midnightblue" stroke="midnightblue" points="430.53,-75.41 441.08,-76.39 433.45,-69.05 430.53,-75.41"/>
</g>
<!-- Node11&#45;&gt;Node9 -->
<g id="edge12" class="edge">
<title>Node11&#45;&gt;Node9</title>
<path fill="none" stroke="midnightblue" d="M379.36,-36.4C389.62,-37.82 400.35,-39.31 410.57,-40.73"/>
<polygon fill="midnightblue" stroke="midnightblue" points="410.21,-44.21 420.59,-42.12 411.17,-37.28 410.21,-44.21"/>
</g>
<!-- Node11&#45;&gt;Node10 -->
<g id="edge13" class="edge">
<title>Node11&#45;&gt;Node10</title>
<path fill="none" stroke="midnightblue" d="M379.36,-21.6C389.62,-20.18 400.35,-18.69 410.57,-17.27"/>
<polygon fill="midnightblue" stroke="midnightblue" points="411.17,-20.72 420.59,-15.88 410.21,-13.79 411.17,-20.72"/>
</g>
</g>
</svg>
