<?xml version="1.0" encoding="UTF-8" standalone="no"?>
<!DOCTYPE svg PUBLIC "-//W3C//DTD SVG 1.1//EN"
 "http://www.w3.org/Graphics/SVG/1.1/DTD/svg11.dtd">
<!-- Generated by graphviz version 2.43.0 (0)
 -->
<!-- Title: main Pages: 1 -->
<svg width="436pt" height="313pt"
 viewBox="0.00 0.00 436.00 313.00" xmlns="http://www.w3.org/2000/svg" xmlns:xlink="http://www.w3.org/1999/xlink">
<g id="graph0" class="graph" transform="scale(1 1) rotate(0) translate(4 309)">
<title>main</title>
<!-- Node1 -->
<g id="node1" class="node">
<title>Node1</title>
<g id="a_node1"><a xlink:title=" ">
<polygon fill="#bfbfbf" stroke="black" points="0,-114.5 0,-133.5 41,-133.5 41,-114.5 0,-114.5"/>
<text text-anchor="middle" x="20.5" y="-121.5" font-family="Helvetica,sans-Serif" font-size="10.00">main</text>
</a>
</g>
</g>
<!-- Node2 -->
<g id="node2" class="node">
<title>Node2</title>
<g id="a_node2"><a xlink:href="microbench__block__sparse_8c.html#a1151a97db14a549537170c84ed1fc692" target="_top" xlink:title="Build an ie_block_sparse_matrix_t from a dense matrix in memory.">
<polygon fill="none" stroke="black" points="86.5,-228.5 86.5,-247.5 216.5,-247.5 216.5,-228.5 86.5,-228.5"/>
<text text-anchor="middle" x="151.5" y="-235.5" font-family="Helvetica,sans-Serif" font-size="10.00">dense_to_block_sparse</text>
</a>
</g>
</g>
<!-- Node1&#45;&gt;Node2 -->
<g id="edge1" class="edge">
<title>Node1&#45;&gt;Node2</title>
<path fill="none" stroke="midnightblue" d="M24.39,-133.78C30.64,-153.17 47.29,-196.53 77,-219 79.49,-220.89 82.16,-222.59 84.94,-224.12"/>
<polygon fill="midnightblue" stroke="midnightblue" points="83.61,-227.36 94.15,-228.46 86.6,-221.03 83.61,-227.36"/>
</g>
<!-- Node7 -->
<g id="node7" class="node">
<title>Node7</title>
<g id="a_node7"><a xlink:href="microbench__block__sparse_8c.html#a0bb86ae3f74d09b38ea3c1e35b8cdf9e" target="_top" xlink:title="Row&#45;major GEMV: y = W * x.">
<polygon fill="none" stroke="black" points="103.5,-190.5 103.5,-209.5 199.5,-209.5 199.5,-190.5 103.5,-190.5"/>
<text text-anchor="middle" x="151.5" y="-197.5" font-family="Helvetica,sans-Serif" font-size="10.00">gemv_rowmajor</text>
</a>
</g>
</g>
<!-- Node1&#45;&gt;Node7 -->
<g id="edge6" class="edge">
<title>Node1&#45;&gt;Node7</title>
<path fill="none" stroke="midnightblue" d="M28.21,-133.65C37.63,-146.43 55.98,-168.8 77,-181 82.11,-183.97 87.69,-186.48 93.41,-188.6"/>
<polygon fill="midnightblue" stroke="midnightblue" points="92.52,-191.99 103.12,-191.82 94.73,-185.35 92.52,-191.99"/>
</g>
<!-- Node8 -->
<g id="node8" class="node">
<title>Node8</title>
<g id="a_node8"><a xlink:href="sparse__format_8h.html#aabe296f29c7c70d44eab337b8a0f1a8c" target="_top" xlink:title="Compute the logical density (non&#45;zero blocks / total blocks).">
<polygon fill="none" stroke="black" points="83.5,-152.5 83.5,-171.5 219.5,-171.5 219.5,-152.5 83.5,-152.5"/>
<text text-anchor="middle" x="151.5" y="-159.5" font-family="Helvetica,sans-Serif" font-size="10.00">ie_block_sparse_density</text>
</a>
</g>
</g>
<!-- Node1&#45;&gt;Node8 -->
<g id="edge7" class="edge">
<title>Node1&#45;&gt;Node8</title>
<path fill="none" stroke="midnightblue" d="M41.16,-131.14C51.72,-134.87 65,-139.4 77,-143 84.9,-145.37 93.33,-147.71 101.55,-149.91"/>
<polygon fill="midnightblue" stroke="midnightblue" points="100.88,-153.35 111.44,-152.5 102.65,-146.58 100.88,-153.35"/>
</g>
<!-- Node9 -->
<g id="node9" class="node">
<title>Node9</title>
<g id="a_node9"><a xlink:href="sparse__format_8h.html#ac8f8ef0741fb1ea4ea51a9e41414c318" target="_top" xlink:title="Release all heap&#45;allocated storage owned by a block&#45;sparse matrix.">
<polygon fill="none" stroke="black" points="83.5,-114.5 83.5,-133.5 219.5,-133.5 219.5,-114.5 83.5,-114.5"/>
<text text-anchor="middle" x="151.5" y="-121.5" font-family="Helvetica,sans-Serif" font-size="10.00">ie_block_sparse_release</text>
</a>
</g>
</g>
<!-- Node1&#45;&gt;Node9 -->
<g id="edge8" class="edge">
<title>Node1&#45;&gt;Node9</title>
<path fill="none" stroke="midnightblue" d="M41.09,-124C50.07,-124 61.35,-124 73.23,-124"/>
<polygon fill="midnightblue" stroke="midnightblue" points="73.31,-127.5 83.31,-124 73.31,-120.5 73.31,-127.5"/>
</g>
<!-- Node10 -->
<g id="node10" class="node">
<title>Node10</title>
<g id="a_node10"><a xlink:href="sparse__format_8h.html#ae9a2aad0ec5332237097030acf034961" target="_top" xlink:title="Perform a single&#45;precision block&#45;sparse matrix&#45;vector product.">
<polygon fill="none" stroke="black" points="77,-76.5 77,-95.5 226,-95.5 226,-76.5 77,-76.5"/>
<text text-anchor="middle" x="151.5" y="-83.5" font-family="Helvetica,sans-Serif" font-size="10.00">ie_gemv_block_sparse_f32</text>
</a>
</g>
</g>
<!-- Node1&#45;&gt;Node10 -->
<g id="edge9" class="edge">
<title>Node1&#45;&gt;Node10</title>
<path fill="none" stroke="midnightblue" d="M41.16,-116.86C51.72,-113.13 65,-108.6 77,-105 84.9,-102.63 93.33,-100.29 101.55,-98.09"/>
<polygon fill="midnightblue" stroke="midnightblue" points="102.65,-101.42 111.44,-95.5 100.88,-94.65 102.65,-101.42"/>
</g>
<!-- Node12 -->
<g id="node12" class="node">
<title>Node12</title>
<g id="a_node12"><a xlink:href="microbench__block__sparse_8c.html#ac2fb7e70bd8769725c6e8c3aed17bf50" target="_top" xlink:title="Initialize an array with pseudo&#45;random FP32 in [&#45;scale, +scale].">
<polygon fill="none" stroke="black" points="122,-38.5 122,-57.5 181,-57.5 181,-38.5 122,-38.5"/>
<text text-anchor="middle" x="151.5" y="-45.5" font-family="Helvetica,sans-Serif" font-size="10.00">init_rand</text>
</a>
</g>
</g>
<!-- Node1&#45;&gt;Node12 -->
<g id="edge11" class="edge">
<title>Node1&#45;&gt;Node12</title>
<path fill="none" stroke="midnightblue" d="M28.21,-114.35C37.63,-101.57 55.98,-79.2 77,-67 87.58,-60.86 100.15,-56.67 111.88,-53.83"/>
<polygon fill="midnightblue" stroke="midnightblue" points="112.86,-57.2 121.89,-51.67 111.38,-50.36 112.86,-57.2"/>
</g>
<!-- Node13 -->
<g id="node13" class="node">
<title>Node13</title>
<g id="a_node13"><a xlink:href="microbench__block__sparse_8c.html#a8a295707b83706041868cd34f3c663d5" target="_top" xlink:title="Portable timestamp in seconds using C11 timespec_get.">
<polygon fill="none" stroke="black" points="128,-0.5 128,-19.5 175,-19.5 175,-0.5 128,-0.5"/>
<text text-anchor="middle" x="151.5" y="-7.5" font-family="Helvetica,sans-Serif" font-size="10.00">now_s</text>
</a>
</g>
</g>
<!-- Node1&#45;&gt;Node13 -->
<g id="edge12" class="edge">
<title>Node1&#45;&gt;Node13</title>
<path fill="none" stroke="midnightblue" d="M24.39,-114.22C30.64,-94.83 47.29,-51.47 77,-29 88.73,-20.13 104.19,-15.38 117.91,-12.85"/>
<polygon fill="midnightblue" stroke="midnightblue" points="118.61,-16.28 127.97,-11.31 117.55,-9.36 118.61,-16.28"/>
</g>
<!-- Node3 -->
<g id="node3" class="node">
<title>Node3</title>
<g id="a_node3"><a xlink:href="microbench__block__sparse_8c.html#aa9d2cb46eeb965c3408c4de94ae65e07" target="_top" xlink:title="Decide whether a block is non&#45;zero under a simple max&#45;abs rule.">
<polygon fill="none" stroke="black" points="294.5,-285.5 294.5,-304.5 395.5,-304.5 395.5,-285.5 294.5,-285.5"/>
<text text-anchor="middle" x="345" y="-292.5" font-family="Helvetica,sans-Serif" font-size="10.00">block_is_nonzero</text>
</a>
</g>
</g>
<!-- Node2&#45;&gt;Node3 -->
<g id="edge2" class="edge">
<title>Node2&#45;&gt;Node3</title>
<path fill="none" stroke="midnightblue" d="M177.48,-247.52C199.52,-255.72 232.61,-267.52 262,-276 270.57,-278.47 279.71,-280.85 288.67,-283.03"/>
<polygon fill="midnightblue" stroke="midnightblue" points="288.13,-286.49 298.66,-285.4 289.74,-279.68 288.13,-286.49"/>
</g>
<!-- Node4 -->
<g id="node4" class="node">
<title>Node4</title>
<g id="a_node4"><a xlink:href="sparse__format_8h.html#ace3311d6d76dd6a9b17488b66311b98a" target="_top" xlink:title="Initialize a block&#45;sparse matrix descriptor to a safe empty state.">
<polygon fill="none" stroke="black" points="287,-247.5 287,-266.5 403,-266.5 403,-247.5 287,-247.5"/>
<text text-anchor="middle" x="345" y="-254.5" font-family="Helvetica,sans-Serif" font-size="10.00">ie_block_sparse_init</text>
</a>
</g>
</g>
<!-- Node2&#45;&gt;Node4 -->
<g id="edge3" class="edge">
<title>Node2&#45;&gt;Node4</title>
<path fill="none" stroke="midnightblue" d="M216.53,-244.35C235.88,-246.27 257.18,-248.39 276.74,-250.33"/>
<polygon fill="midnightblue" stroke="midnightblue" points="276.49,-253.82 286.79,-251.32 277.18,-246.85 276.49,-253.82"/>
</g>
<!-- Node5 -->
<g id="node5" class="node">
<title>Node5</title>
<g id="a_node5"><a xlink:href="sparse__format_8h.html#afcc239def447f7ccdf07b59ce0e47467" target="_top" xlink:title="Compute the theoretical number of block columns for a given layout.">
<polygon fill="none" stroke="black" points="264,-209.5 264,-228.5 426,-228.5 426,-209.5 264,-209.5"/>
<text text-anchor="middle" x="345" y="-216.5" font-family="Helvetica,sans-Serif" font-size="10.00">ie_block_sparse_n_block_cols</text>
</a>
</g>
</g>
<!-- Node2&#45;&gt;Node5 -->
<g id="edge4" class="edge">
<title>Node2&#45;&gt;Node5</title>
<path fill="none" stroke="midnightblue" d="M216.53,-231.65C228.46,-230.46 241.12,-229.21 253.67,-227.96"/>
<polygon fill="midnightblue" stroke="midnightblue" points="254.07,-231.44 263.68,-226.97 253.38,-224.47 254.07,-231.44"/>
</g>
<!-- Node6 -->
<g id="node6" class="node">
<title>Node6</title>
<g id="a_node6"><a xlink:href="sparse__format_8h.html#a2df04db78871f064e33eb709ed62ed4f" target="_top" xlink:title="Compute the theoretical number of block rows for a given layout.">
<polygon fill="none" stroke="black" points="262,-171.5 262,-190.5 428,-190.5 428,-171.5 262,-171.5"/>
<text text-anchor="middle" x="345" y="-178.5" font-family="Helvetica,sans-Serif" font-size="10.00">ie_block_sparse_n_block_rows</text>
</a>
</g>
</g>
<!-- Node2&#45;&gt;Node6 -->
<g id="edge5" class="edge">
<title>Node2&#45;&gt;Node6</title>
<path fill="none" stroke="midnightblue" d="M196.17,-228.5C206.12,-225.84 216.54,-222.66 226,-219 242.87,-212.47 245.05,-206.32 262,-200 268.95,-197.41 276.37,-195.1 283.8,-193.06"/>
<polygon fill="midnightblue" stroke="midnightblue" points="284.72,-196.44 293.53,-190.54 282.97,-189.66 284.72,-196.44"/>
</g>
<!-- Node11 -->
<g id="node11" class="node">
<title>Node11</title>
<g id="a_node11"><a xlink:href="gemm__block__sparse_8c.html#a3922fd0c3f07582c82640f45091460d8" target="_top" xlink:title="Compute the pointer to the first element of a given block.">
<polygon fill="none" stroke="black" points="295.5,-76.5 295.5,-95.5 394.5,-95.5 394.5,-76.5 295.5,-76.5"/>
<text text-anchor="middle" x="345" y="-83.5" font-family="Helvetica,sans-Serif" font-size="10.00">block_values_ptr</text>
</a>
</g>
</g>
<!-- Node10&#45;&gt;Node11 -->
<g id="edge10" class="edge">
<title>Node10&#45;&gt;Node11</title>
<path fill="none" stroke="midnightblue" d="M226.26,-86C245.82,-86 266.68,-86 285.31,-86"/>
<polygon fill="midnightblue" stroke="midnightblue" points="285.42,-89.5 295.42,-86 285.42,-82.5 285.42,-89.5"/>
</g>
</g>
</svg>
