<?xml version="1.0" encoding="UTF-8" standalone="no"?>
<!DOCTYPE svg PUBLIC "-//W3C//DTD SVG 1.1//EN"
 "http://www.w3.org/Graphics/SVG/1.1/DTD/svg11.dtd">
<!-- Generated by graphviz version 12.2.1 (20241206.2353)
 -->
<!-- Title: engine/src/io/mmap_tuning.c Pages: 1 -->
<svg width="441pt" height="155pt"
 viewBox="0.00 0.00 441.00 155.00" xmlns="http://www.w3.org/2000/svg" xmlns:xlink="http://www.w3.org/1999/xlink">
<g id="graph0" class="graph" transform="scale(1 1) rotate(0) translate(4 151)">
<title>engine/src/io/mmap_tuning.c</title>
<!-- Node1 -->
<g id="Node000001" class="node">
<title>Node1</title>
<g id="a_Node000001"><a xlink:title="Implementation of portable mmap tuning helpers.">
<polygon fill="#999999" stroke="#666666" points="320.88,-147 208.12,-147 208.12,-113.5 320.88,-113.5 320.88,-147"/>
<text text-anchor="start" x="216.12" y="-133.5" font-family="Helvetica,sans-Serif" font-size="10.00">engine/src/io/mmap</text>
<text text-anchor="middle" x="264.5" y="-120.75" font-family="Helvetica,sans-Serif" font-size="10.00">_tuning.c</text>
</a>
</g>
</g>
<!-- Node2 -->
<g id="Node000002" class="node">
<title>Node2</title>
<g id="a_Node000002"><a xlink:href="ie__mmap__tuning_8h.html" target="_top" xlink:title="Portable helpers for mmap tuning (madvise/fadvise, THP/HugeTLB, readahead).">
<polygon fill="white" stroke="#666666" points="152.88,-77.5 46.12,-77.5 46.12,-56.75 152.88,-56.75 152.88,-77.5"/>
<text text-anchor="middle" x="99.5" y="-64" font-family="Helvetica,sans-Serif" font-size="10.00">ie_mmap_tuning.h</text>
</a>
</g>
</g>
<!-- Node1&#45;&gt;Node2 -->
<g id="edge1_Node000001_Node000002" class="edge">
<title>Node1&#45;&gt;Node2</title>
<g id="a_edge1_Node000001_Node000002"><a xlink:title=" ">
<path fill="none" stroke="#63b8ff" d="M220.72,-113.03C194.44,-103.29 161.38,-91.05 136.42,-81.8"/>
<polygon fill="#63b8ff" stroke="#63b8ff" points="137.94,-78.63 127.35,-78.44 135.51,-85.2 137.94,-78.63"/>
</a>
</g>
</g>
<!-- Node6 -->
<g id="Node000006" class="node">
<title>Node6</title>
<g id="a_Node000006"><a xlink:title=" ">
<polygon fill="#e0e0e0" stroke="#999999" points="221.75,-77.5 171.25,-77.5 171.25,-56.75 221.75,-56.75 221.75,-77.5"/>
<text text-anchor="middle" x="196.5" y="-64" font-family="Helvetica,sans-Serif" font-size="10.00">errno.h</text>
</a>
</g>
</g>
<!-- Node1&#45;&gt;Node6 -->
<g id="edge5_Node000001_Node000006" class="edge">
<title>Node1&#45;&gt;Node6</title>
<g id="a_edge5_Node000001_Node000006"><a xlink:title=" ">
<path fill="none" stroke="#63b8ff" d="M246.63,-113.19C237.21,-104.72 225.64,-94.31 215.98,-85.64"/>
<polygon fill="#63b8ff" stroke="#63b8ff" points="218.35,-83.06 208.57,-78.98 213.67,-88.27 218.35,-83.06"/>
</a>
</g>
</g>
<!-- Node7 -->
<g id="Node000007" class="node">
<title>Node7</title>
<g id="a_Node000007"><a xlink:title=" ">
<polygon fill="#e0e0e0" stroke="#999999" points="289,-77.5 240,-77.5 240,-56.75 289,-56.75 289,-77.5"/>
<text text-anchor="middle" x="264.5" y="-64" font-family="Helvetica,sans-Serif" font-size="10.00">stdio.h</text>
</a>
</g>
</g>
<!-- Node1&#45;&gt;Node7 -->
<g id="edge6_Node000001_Node000007" class="edge">
<title>Node1&#45;&gt;Node7</title>
<g id="a_edge6_Node000001_Node000007"><a xlink:title=" ">
<path fill="none" stroke="#63b8ff" d="M264.5,-113.19C264.5,-105.85 264.5,-97.07 264.5,-89.21"/>
<polygon fill="#63b8ff" stroke="#63b8ff" points="268,-89.48 264.5,-79.48 261,-89.48 268,-89.48"/>
</a>
</g>
</g>
<!-- Node8 -->
<g id="Node000008" class="node">
<title>Node8</title>
<g id="a_Node000008"><a xlink:title=" ">
<polygon fill="#e0e0e0" stroke="#999999" points="359.88,-77.5 307.12,-77.5 307.12,-56.75 359.88,-56.75 359.88,-77.5"/>
<text text-anchor="middle" x="333.5" y="-64" font-family="Helvetica,sans-Serif" font-size="10.00">string.h</text>
</a>
</g>
</g>
<!-- Node1&#45;&gt;Node8 -->
<g id="edge7_Node000001_Node000008" class="edge">
<title>Node1&#45;&gt;Node8</title>
<g id="a_edge7_Node000001_Node000008"><a xlink:title=" ">
<path fill="none" stroke="#63b8ff" d="M282.63,-113.19C292.29,-104.63 304.18,-94.1 314.03,-85.37"/>
<polygon fill="#63b8ff" stroke="#63b8ff" points="316.09,-88.22 321.26,-78.97 311.45,-82.98 316.09,-88.22"/>
</a>
</g>
</g>
<!-- Node9 -->
<g id="Node000009" class="node">
<title>Node9</title>
<g id="a_Node000009"><a xlink:title=" ">
<polygon fill="#e0e0e0" stroke="#999999" points="433,-77.5 378,-77.5 378,-56.75 433,-56.75 433,-77.5"/>
<text text-anchor="middle" x="405.5" y="-64" font-family="Helvetica,sans-Serif" font-size="10.00">unistd.h</text>
</a>
</g>
</g>
<!-- Node1&#45;&gt;Node9 -->
<g id="edge8_Node000001_Node000009" class="edge">
<title>Node1&#45;&gt;Node9</title>
<g id="a_edge8_Node000001_Node000009"><a xlink:title=" ">
<path fill="none" stroke="#63b8ff" d="M301.92,-113.03C323.87,-103.51 351.36,-91.6 372.5,-82.43"/>
<polygon fill="#63b8ff" stroke="#63b8ff" points="373.75,-85.71 381.53,-78.52 370.96,-79.28 373.75,-85.71"/>
</a>
</g>
</g>
<!-- Node3 -->
<g id="Node000003" class="node">
<title>Node3</title>
<g id="a_Node000003"><a xlink:title=" ">
<polygon fill="#e0e0e0" stroke="#999999" points="55,-20.75 0,-20.75 0,0 55,0 55,-20.75"/>
<text text-anchor="middle" x="27.5" y="-7.25" font-family="Helvetica,sans-Serif" font-size="10.00">stddef.h</text>
</a>
</g>
</g>
<!-- Node2&#45;&gt;Node3 -->
<g id="edge2_Node000002_Node000003" class="edge">
<title>Node2&#45;&gt;Node3</title>
<g id="a_edge2_Node000002_Node000003"><a xlink:title=" ">
<path fill="none" stroke="#63b8ff" d="M86.63,-56.34C76.29,-48.47 61.53,-37.25 49.35,-27.99"/>
<polygon fill="#63b8ff" stroke="#63b8ff" points="51.54,-25.26 41.47,-21.99 47.31,-30.83 51.54,-25.26"/>
</a>
</g>
</g>
<!-- Node4 -->
<g id="Node000004" class="node">
<title>Node4</title>
<g id="a_Node000004"><a xlink:title=" ">
<polygon fill="#e0e0e0" stroke="#999999" points="125.88,-20.75 73.12,-20.75 73.12,0 125.88,0 125.88,-20.75"/>
<text text-anchor="middle" x="99.5" y="-7.25" font-family="Helvetica,sans-Serif" font-size="10.00">stdint.h</text>
</a>
</g>
</g>
<!-- Node2&#45;&gt;Node4 -->
<g id="edge3_Node000002_Node000004" class="edge">
<title>Node2&#45;&gt;Node4</title>
<g id="a_edge3_Node000002_Node000004"><a xlink:title=" ">
<path fill="none" stroke="#63b8ff" d="M99.5,-56.34C99.5,-49.72 99.5,-40.72 99.5,-32.52"/>
<polygon fill="#63b8ff" stroke="#63b8ff" points="103,-32.59 99.5,-22.59 96,-32.59 103,-32.59"/>
</a>
</g>
</g>
<!-- Node5 -->
<g id="Node000005" class="node">
<title>Node5</title>
<g id="a_Node000005"><a xlink:title=" ">
<polygon fill="#e0e0e0" stroke="#999999" points="215.25,-20.75 143.75,-20.75 143.75,0 215.25,0 215.25,-20.75"/>
<text text-anchor="middle" x="179.5" y="-7.25" font-family="Helvetica,sans-Serif" font-size="10.00">sys/types.h</text>
</a>
</g>
</g>
<!-- Node2&#45;&gt;Node5 -->
<g id="edge4_Node000002_Node000005" class="edge">
<title>Node2&#45;&gt;Node5</title>
<g id="a_edge4_Node000002_Node000005"><a xlink:title=" ">
<path fill="none" stroke="#63b8ff" d="M113.8,-56.34C125.52,-48.32 142.34,-36.81 156.03,-27.44"/>
<polygon fill="#63b8ff" stroke="#63b8ff" points="157.8,-30.47 164.07,-21.93 153.84,-24.69 157.8,-30.47"/>
</a>
</g>
</g>
</g>
</svg>
