<?xml version="1.0" encoding="UTF-8" standalone="no"?>
<!DOCTYPE svg PUBLIC "-//W3C//DTD SVG 1.1//EN"
 "http://www.w3.org/Graphics/SVG/1.1/DTD/svg11.dtd">
<!-- Generated by graphviz version 2.43.0 (0)
 -->
<!-- Title: hf_to_iebin_stream.main Pages: 1 -->
<!--zoomable 190 -->

<svg id="main" version="1.1" xmlns="http://www.w3.org/2000/svg" xmlns:xlink="http://www.w3.org/1999/xlink" xml:space="preserve" onload="init(evt)">
<style type="text/css"><![CDATA[
.node, .edge {opacity: 0.7;}
.node.selected, .edge.selected {opacity: 1;}
.edge:hover path { stroke: red; }
.edge:hover polygon { stroke: red; fill: red; }
]]></style>

<defs>
  <circle id="rim" cx="0" cy="0" r="7"/>
  <circle id="rim2" cx="0" cy="0" r="3.5"/>
  <g id="zoomPlus">
    <use xlink:href="#rim" fill="#404040"><set attributeName="fill" to="#808080" begin="zoomplus.mouseover" end="zoomplus.mouseout"/></use>
    <path d="M-4,0h8M0,-4v8" fill="none" stroke="white" stroke-width="1.5" pointer-events="none"/>
  </g>
  <g id="zoomMin">
    <use xlink:href="#rim" fill="#404040"><set attributeName="fill" to="#808080" begin="zoomminus.mouseover" end="zoomminus.mouseout"/></use>
    <path d="M-4,0h8" fill="none" stroke="white" stroke-width="1.5" pointer-events="none"/>
  </g>
  <g id="arrowUp" transform="translate(30 24)">
    <use xlink:href="#rim"/>
    <path pointer-events="none" fill="none" stroke="white" stroke-width="1.5" d="M0,-3.0v7 M-2.5,-0.5L0,-3.0L2.5,-0.5"/>
  </g>
  <g id="arrowRight" transform="rotate(90) translate(36 -43)">
    <use xlink:href="#rim"/>
    <path pointer-events="none" fill="none" stroke="white" stroke-width="1.5" d="M0,-3.0v7 M-2.5,-0.5L0,-3.0L2.5,-0.5"/>
  </g>
  <g id="arrowDown" transform="rotate(180) translate(-30 -48)">
    <use xlink:href="#rim"/>
    <path pointer-events="none" fill="none" stroke="white" stroke-width="1.5" d="M0,-3.0v7 M-2.5,-0.5L0,-3.0L2.5,-0.5"/>
  </g>
  <g id="arrowLeft" transform="rotate(270) translate(-36 17)">
    <use xlink:href="#rim"/>
    <path pointer-events="none" fill="none" stroke="white" stroke-width="1.5" d="M0,-3.0v7 M-2.5,-0.5L0,-3.0L2.5,-0.5"/>
  </g>
  <g id="resetDef">
    <use xlink:href="#rim2" fill="#404040"><set attributeName="fill" to="#808080" begin="reset.mouseover" end="reset.mouseout"/></use>
  </g>
</defs>
<script type="application/ecmascript">
var viewWidth = 695;
var viewHeight = 190;
var sectionId = 'dynsection-3';
</script>
<script type="application/ecmascript" xlink:href="svg.min.js"/>
<svg id="graph" class="graph">
<g id="viewport">
<title>hf_to_iebin_stream.main</title>
<!-- Node1 -->
<g id="Node000001" class="node">
<title>Node1</title>
<g id="a_Node000001"><a xlink:title=" ">
<polygon fill="#999999" stroke="#666666" points="138,-121.5 0,-121.5 0,-102.5 138,-102.5 138,-121.5"/>
<text text-anchor="middle" x="69" y="-109.5" font-family="Helvetica,sans-Serif" font-size="10.00">hf_to_iebin_stream.main</text>
</a>
</g>
</g>
<!-- Node1&#45;&gt;Node1 -->
<g id="edge7_Node000001_Node000001" class="edge">
<title>Node1&#45;&gt;Node1</title>
<g id="a_edge7_Node000001_Node000001"><a xlink:title=" ">
<path fill="none" stroke="#63b8ff" d="M40.95,-121.58C27.3,-130.23 36.65,-139.5 69,-139.5 91.24,-139.5 102.61,-135.12 103.11,-129.57"/>
<polygon fill="#63b8ff" stroke="#63b8ff" points="105.88,-127.44 97.05,-121.58 100.3,-131.67 105.88,-127.44"/>
</a>
</g>
</g>
<!-- Node2 -->
<g id="Node000002" class="node">
<title>Node2</title>
<g id="a_Node000002"><a xlink:href="namespacehf__to__iebin__stream.html#ad6d5845e3a10015c477f7d5d593a6734" target="_top" xlink:title=" ">
<polygon fill="white" stroke="#666666" points="329,-181.5 174,-181.5 174,-162.5 329,-162.5 329,-181.5"/>
<text text-anchor="middle" x="251.5" y="-169.5" font-family="Helvetica,sans-Serif" font-size="10.00">hf_to_iebin_stream.align_up</text>
</a>
</g>
</g>
<!-- Node1&#45;&gt;Node2 -->
<g id="edge1_Node000001_Node000002" class="edge">
<title>Node1&#45;&gt;Node2</title>
<g id="a_edge1_Node000001_Node000002"><a xlink:title=" ">
<path fill="none" stroke="#63b8ff" d="M96.86,-121.54C117.82,-128.92 147.69,-139.32 174,-148 185.45,-151.78 197.91,-155.75 209.39,-159.34"/>
<polygon fill="#63b8ff" stroke="#63b8ff" points="208.58,-162.76 219.17,-162.4 210.67,-156.08 208.58,-162.76"/>
</a>
</g>
</g>
<!-- Node3 -->
<g id="Node000003" class="node">
<title>Node3</title>
<g id="a_Node000003"><a xlink:href="ie__device__cuda_8cu.html#a5e3d9fee84981707669f5c2398f0c4ab" target="_top" xlink:title="Row&#45;wise GEMV kernel: each thread computes one output row.">
<polygon fill="white" stroke="#666666" points="687,-92 562,-92 562,-62 687,-62 687,-92"/>
<text text-anchor="start" x="570" y="-80" font-family="Helvetica,sans-Serif" font-size="10.00">ie_gemv_rowwise_f32</text>
<text text-anchor="middle" x="624.5" y="-69" font-family="Helvetica,sans-Serif" font-size="10.00">_kernel</text>
</a>
</g>
</g>
<!-- Node1&#45;&gt;Node3 -->
<g id="edge2_Node000001_Node000003" class="edge">
<title>Node1&#45;&gt;Node3</title>
<g id="a_edge2_Node000001_Node000003"><a xlink:title=" ">
<path fill="none" stroke="#63b8ff" d="M138.24,-114.25C150.16,-114.56 162.44,-114.83 174,-115 330.63,-117.26 371.03,-119.9 526,-97 534.35,-95.77 543.07,-94.27 551.71,-92.67"/>
<polygon fill="#63b8ff" stroke="#63b8ff" points="552.63,-96.06 561.79,-90.74 551.31,-89.18 552.63,-96.06"/>
</a>
</g>
</g>
<!-- Node4 -->
<g id="Node000004" class="node">
<title>Node4</title>
<g id="a_Node000004"><a xlink:href="namespacehf__to__iebin__stream.html#a945e31086e049119fcb2dcc1ab32fa17" target="_top" xlink:title=" ">
<polygon fill="white" stroke="#666666" points="318.5,-106 184.5,-106 184.5,-76 318.5,-76 318.5,-106"/>
<text text-anchor="start" x="192.5" y="-94" font-family="Helvetica,sans-Serif" font-size="10.00">hf_to_iebin_stream.load</text>
<text text-anchor="middle" x="251.5" y="-83" font-family="Helvetica,sans-Serif" font-size="10.00">_index</text>
</a>
</g>
</g>
<!-- Node1&#45;&gt;Node4 -->
<g id="edge3_Node000001_Node000004" class="edge">
<title>Node1&#45;&gt;Node4</title>
<g id="a_edge3_Node000001_Node000004"><a xlink:title=" ">
<path fill="none" stroke="#63b8ff" d="M138.24,-104.06C150.02,-102.69 162.33,-101.26 174.3,-99.87"/>
<polygon fill="#63b8ff" stroke="#63b8ff" points="174.73,-103.34 184.26,-98.71 173.92,-96.39 174.73,-103.34"/>
</a>
</g>
</g>
<!-- Node6 -->
<g id="Node000006" class="node">
<title>Node6</title>
<g id="a_Node000006"><a xlink:href="namespacehf__to__iebin__stream.html#aa8ad5a8ebfc7d44aead7abb5aaa71dd0" target="_top" xlink:title=" ">
<polygon fill="white" stroke="#666666" points="508,-30 383,-30 383,0 508,0 508,-30"/>
<text text-anchor="start" x="391" y="-18" font-family="Helvetica,sans-Serif" font-size="10.00">hf_to_iebin_stream.np</text>
<text text-anchor="middle" x="445.5" y="-7" font-family="Helvetica,sans-Serif" font-size="10.00">_ensure_contig</text>
</a>
</g>
</g>
<!-- Node1&#45;&gt;Node6 -->
<g id="edge8_Node000001_Node000006" class="edge">
<title>Node1&#45;&gt;Node6</title>
<g id="a_edge8_Node000001_Node000006"><a xlink:title=" ">
<path fill="none" stroke="#63b8ff" d="M88.7,-102.43C109.16,-92.3 143.17,-76.51 174,-67 240.04,-46.63 317.71,-32.69 372.84,-24.41"/>
<polygon fill="#63b8ff" stroke="#63b8ff" points="373.49,-27.85 382.87,-22.93 372.46,-20.93 373.49,-27.85"/>
</a>
</g>
</g>
<!-- Node4&#45;&gt;Node3 -->
<g id="edge4_Node000004_Node000003" class="edge">
<title>Node4&#45;&gt;Node3</title>
<g id="a_edge4_Node000004_Node000003"><a xlink:title=" ">
<path fill="none" stroke="#63b8ff" d="M318.83,-88.5C384.35,-86.02 484.27,-82.25 551.64,-79.71"/>
<polygon fill="#63b8ff" stroke="#63b8ff" points="551.89,-83.2 561.75,-79.33 551.63,-76.21 551.89,-83.2"/>
</a>
</g>
</g>
<!-- Node5 -->
<g id="Node000005" class="node">
<title>Node5</title>
<g id="a_Node000005"><a xlink:href="namespacehf__to__iebin__stream.html#ad8dd183012774408e2e4579fdba5ce76" target="_top" xlink:title=" ">
<polygon fill="white" stroke="#666666" points="526,-67.5 365,-67.5 365,-48.5 526,-48.5 526,-67.5"/>
<text text-anchor="middle" x="445.5" y="-55.5" font-family="Helvetica,sans-Serif" font-size="10.00">hf_to_iebin_stream.read_json</text>
</a>
</g>
</g>
<!-- Node4&#45;&gt;Node5 -->
<g id="edge5_Node000004_Node000005" class="edge">
<title>Node4&#45;&gt;Node5</title>
<g id="a_edge5_Node000004_Node000005"><a xlink:title=" ">
<path fill="none" stroke="#63b8ff" d="M318.58,-79.64C338.16,-76.28 359.59,-72.59 379.13,-69.24"/>
<polygon fill="#63b8ff" stroke="#63b8ff" points="379.89,-72.66 389.15,-67.51 378.7,-65.76 379.89,-72.66"/>
</a>
</g>
</g>
<!-- Node5&#45;&gt;Node3 -->
<g id="edge6_Node000005_Node000003" class="edge">
<title>Node5&#45;&gt;Node3</title>
<g id="a_edge6_Node000005_Node000003"><a xlink:title=" ">
<path fill="none" stroke="#63b8ff" d="M526.2,-66.56C534.68,-67.47 543.27,-68.39 551.65,-69.29"/>
<polygon fill="#63b8ff" stroke="#63b8ff" points="551.43,-72.78 561.75,-70.37 552.18,-65.82 551.43,-72.78"/>
</a>
</g>
</g>
<!-- Node6&#45;&gt;Node3 -->
<g id="edge9_Node000006_Node000003" class="edge">
<title>Node6&#45;&gt;Node3</title>
<g id="a_edge9_Node000006_Node000003"><a xlink:title=" ">
<path fill="none" stroke="#63b8ff" d="M498.43,-30.04C507.66,-32.89 517.14,-35.94 526,-39 542.78,-44.79 560.96,-51.7 577.02,-58.03"/>
<polygon fill="#63b8ff" stroke="#63b8ff" points="576.13,-61.44 586.71,-61.88 578.71,-54.93 576.13,-61.44"/>
</a>
</g>
</g>
</g>
</svg>

<g id="navigator" transform="translate(0 0)" fill="#404254">
  <rect fill="#f2f5e9" fill-opacity="0.5" stroke="#606060" stroke-width=".5" x="0" y="0" width="60" height="60"/>
  <use id="zoomplus" xlink:href="#zoomPlus" x="17" y="9" onmousedown="handleZoom(evt,'in')"/>
  <use id="zoomminus" xlink:href="#zoomMin" x="42" y="9" onmousedown="handleZoom(evt,'out')"/>
  <use id="reset" xlink:href="#resetDef" x="30" y="36" onmousedown="handleReset()"/>
   <use id="arrowup" xlink:href="#arrowUp" x="0" y="0" onmousedown="handlePan(0,-1)"/>
  <use id="arrowright" xlink:href="#arrowRight" x="0" y="0" onmousedown="handlePan(1,0)"/>
  <use id="arrowdown" xlink:href="#arrowDown" x="0" y="0" onmousedown="handlePan(0,1)"/>
  <use id="arrowleft" xlink:href="#arrowLeft" x="0" y="0" onmousedown="handlePan(-1,0)"/>
</g>
<svg viewBox="0 0 15 15" width="100%" height="30px" preserveAspectRatio="xMaxYMin meet">
 <g id="arrow_out" transform="scale(0.3 0.3)">
  <a xlink:href="namespacehf__to__iebin__stream_aedd1fb465230e977d7d66d5bc70b48fc_cgraph_org.svg" target="_base">
   <rect id="button" ry="5" rx="5" y="6" x="6" height="38" width="38"
        fill="#f2f5e9" fill-opacity="0.5" stroke="#606060" stroke-width="1.0"/>
   <path id="arrow"
     d="M 11.500037,31.436501 C 11.940474,20.09759 22.043105,11.32322 32.158766,21.979434 L 37.068811,17.246167 C 37.068811,17.246167 37.088388,32 37.088388,32 L 22.160133,31.978069 C 22.160133,31.978069 26.997745,27.140456 26.997745,27.140456 C 18.528582,18.264221 13.291696,25.230495 11.500037,31.436501 z"
     style="fill:#404040;"/>
  </a>
 </g>
</svg>

<style type='text/css'>
<![CDATA[
[data-mouse-over-selected='false'] { opacity: 0.7; }
[data-mouse-over-selected='true']  { opacity: 1.0; }
]]>
</style>
<script type="application/ecmascript"><![CDATA[
document.addEventListener('DOMContentLoaded', (event) => {
  highlightEdges();
  highlightAdjacentNodes();
});
]]></script>
</svg>
