<?xml version="1.0" encoding="UTF-8" standalone="no"?>
<!DOCTYPE svg PUBLIC "-//W3C//DTD SVG 1.1//EN"
 "http://www.w3.org/Graphics/SVG/1.1/DTD/svg11.dtd">
<!-- Generated by graphviz version 2.43.0 (0)
 -->
<!-- Title: update_performance_md._render_device Pages: 1 -->
<svg width="485pt" height="134pt"
 viewBox="0.00 0.00 485.00 134.00" xmlns="http://www.w3.org/2000/svg" xmlns:xlink="http://www.w3.org/1999/xlink">
<g id="graph0" class="graph" transform="scale(1 1) rotate(0) translate(4 130)">
<title>update_performance_md._render_device</title>
<!-- Node1 -->
<g id="Node000001" class="node">
<title>Node1</title>
<g id="a_Node000001"><a xlink:title=" ">
<polygon fill="#999999" stroke="#666666" points="118,-78 0,-78 0,-48 118,-48 118,-78"/>
<text text-anchor="start" x="8" y="-66" font-family="Helvetica,sans-Serif" font-size="10.00">update_performance</text>
<text text-anchor="middle" x="59" y="-55" font-family="Helvetica,sans-Serif" font-size="10.00">_md._render_device</text>
</a>
</g>
</g>
<!-- Node2 -->
<g id="Node000002" class="node">
<title>Node2</title>
<g id="a_Node000002"><a xlink:href="namespaceupdate__performance__md.html#a4093efa4a4b832d477bd5b012b9e36ca" target="_top" xlink:title=" ">
<polygon fill="white" stroke="#666666" points="297.5,-126 172.5,-126 172.5,-96 297.5,-96 297.5,-126"/>
<text text-anchor="start" x="180.5" y="-114" font-family="Helvetica,sans-Serif" font-size="10.00">update_performance</text>
<text text-anchor="middle" x="235" y="-103" font-family="Helvetica,sans-Serif" font-size="10.00">_md._bandwidth_gbps</text>
</a>
</g>
</g>
<!-- Node1&#45;&gt;Node2 -->
<g id="edge1_Node000001_Node000002" class="edge">
<title>Node1&#45;&gt;Node2</title>
<g id="a_edge1_Node000001_Node000002"><a xlink:title=" ">
<path fill="none" stroke="#63b8ff" d="M114.58,-78.06C132.15,-82.9 151.78,-88.32 169.97,-93.34"/>
<polygon fill="#63b8ff" stroke="#63b8ff" points="169.05,-96.71 179.62,-96 170.91,-89.96 169.05,-96.71"/>
</a>
</g>
</g>
<!-- Node4 -->
<g id="Node000004" class="node">
<title>Node4</title>
<g id="a_Node000004"><a xlink:href="namespaceupdate__performance__md.html#a7784dd84e748de0bac09a6ec05a0ab1e" target="_top" xlink:title=" ">
<polygon fill="white" stroke="#666666" points="294,-78 176,-78 176,-48 294,-48 294,-78"/>
<text text-anchor="start" x="184" y="-66" font-family="Helvetica,sans-Serif" font-size="10.00">update_performance</text>
<text text-anchor="middle" x="235" y="-55" font-family="Helvetica,sans-Serif" font-size="10.00">_md._bytes_touched</text>
</a>
</g>
</g>
<!-- Node1&#45;&gt;Node4 -->
<g id="edge3_Node000001_Node000004" class="edge">
<title>Node1&#45;&gt;Node4</title>
<g id="a_edge3_Node000001_Node000004"><a xlink:title=" ">
<path fill="none" stroke="#63b8ff" d="M118.42,-63C133.57,-63 150.01,-63 165.62,-63"/>
<polygon fill="#63b8ff" stroke="#63b8ff" points="165.73,-66.5 175.73,-63 165.73,-59.5 165.73,-66.5"/>
</a>
</g>
</g>
<!-- Node6 -->
<g id="Node000006" class="node">
<title>Node6</title>
<g id="a_Node000006"><a xlink:href="namespaceupdate__performance__md.html#abf22fbfdc994349f7c3f7dbdafde0ae1" target="_top" xlink:title=" ">
<polygon fill="white" stroke="#666666" points="316,-30 154,-30 154,0 316,0 316,-30"/>
<text text-anchor="start" x="162" y="-18" font-family="Helvetica,sans-Serif" font-size="10.00">update_performance</text>
<text text-anchor="middle" x="235" y="-7" font-family="Helvetica,sans-Serif" font-size="10.00">_md._render_memory_details</text>
</a>
</g>
</g>
<!-- Node1&#45;&gt;Node6 -->
<g id="edge5_Node000001_Node000006" class="edge">
<title>Node1&#45;&gt;Node6</title>
<g id="a_edge5_Node000001_Node000006"><a xlink:title=" ">
<path fill="none" stroke="#63b8ff" d="M114.58,-47.94C132.15,-43.1 151.78,-37.68 169.97,-32.66"/>
<polygon fill="#63b8ff" stroke="#63b8ff" points="170.91,-36.04 179.62,-30 169.05,-29.29 170.91,-36.04"/>
</a>
</g>
</g>
<!-- Node3 -->
<g id="Node000003" class="node">
<title>Node3</title>
<g id="a_Node000003"><a xlink:href="namespaceupdate__performance__md.html#a4ccc20cb0021ee1fdf18fa3d38860810" target="_top" xlink:title=" ">
<polygon fill="white" stroke="#666666" points="473.5,-126 355.5,-126 355.5,-96 473.5,-96 473.5,-126"/>
<text text-anchor="start" x="363.5" y="-114" font-family="Helvetica,sans-Serif" font-size="10.00">update_performance</text>
<text text-anchor="middle" x="414.5" y="-103" font-family="Helvetica,sans-Serif" font-size="10.00">_md._bytes_to_gb</text>
</a>
</g>
</g>
<!-- Node2&#45;&gt;Node3 -->
<g id="edge2_Node000002_Node000003" class="edge">
<title>Node2&#45;&gt;Node3</title>
<g id="a_edge2_Node000002_Node000003"><a xlink:title=" ">
<path fill="none" stroke="#63b8ff" d="M297.58,-111C312.94,-111 329.5,-111 345.17,-111"/>
<polygon fill="#63b8ff" stroke="#63b8ff" points="345.31,-114.5 355.31,-111 345.31,-107.5 345.31,-114.5"/>
</a>
</g>
</g>
<!-- Node5 -->
<g id="Node000005" class="node">
<title>Node5</title>
<g id="a_Node000005"><a xlink:href="ie__device__cuda_8cu.html#a5e3d9fee84981707669f5c2398f0c4ab" target="_top" xlink:title="Row&#45;wise GEMV kernel: each thread computes one output row.">
<polygon fill="white" stroke="#666666" points="477,-54 352,-54 352,-24 477,-24 477,-54"/>
<text text-anchor="start" x="360" y="-42" font-family="Helvetica,sans-Serif" font-size="10.00">ie_gemv_rowwise_f32</text>
<text text-anchor="middle" x="414.5" y="-31" font-family="Helvetica,sans-Serif" font-size="10.00">_kernel</text>
</a>
</g>
</g>
<!-- Node4&#45;&gt;Node5 -->
<g id="edge4_Node000004_Node000005" class="edge">
<title>Node4&#45;&gt;Node5</title>
<g id="a_edge4_Node000004_Node000005"><a xlink:title=" ">
<path fill="none" stroke="#63b8ff" d="M294.12,-55.14C309.3,-53.09 325.84,-50.85 341.64,-48.72"/>
<polygon fill="#63b8ff" stroke="#63b8ff" points="342.45,-52.14 351.89,-47.33 341.51,-45.2 342.45,-52.14"/>
</a>
</g>
</g>
<!-- Node6&#45;&gt;Node5 -->
<g id="edge6_Node000006_Node000005" class="edge">
<title>Node6&#45;&gt;Node5</title>
<g id="a_edge6_Node000006_Node000005"><a xlink:title=" ">
<path fill="none" stroke="#63b8ff" d="M316.18,-25.84C324.67,-26.99 333.27,-28.15 341.66,-29.29"/>
<polygon fill="#63b8ff" stroke="#63b8ff" points="341.38,-32.78 351.76,-30.65 342.32,-25.84 341.38,-32.78"/>
</a>
</g>
</g>
</g>
</svg>
