<?xml version="1.0" encoding="UTF-8" standalone="no"?>
<!DOCTYPE svg PUBLIC "-//W3C//DTD SVG 1.1//EN"
 "http://www.w3.org/Graphics/SVG/1.1/DTD/svg11.dtd">
<!-- Generated by graphviz version 2.43.0 (0)
 -->
<!-- Title: update_performance_md._b Pages: 1 -->
<svg width="637pt" height="62pt"
 viewBox="0.00 0.00 637.00 61.50" xmlns="http://www.w3.org/2000/svg" xmlns:xlink="http://www.w3.org/1999/xlink">
<g id="graph0" class="graph" transform="scale(1 1) rotate(0) translate(4 57.5)">
<title>update_performance_md._b</title>
<!-- Node1 -->
<g id="Node000001" class="node">
<title>Node1</title>
<g id="a_Node000001"><a xlink:title=" ">
<polygon fill="#999999" stroke="#666666" points="629,-35.5 511,-35.5 511,-5.5 629,-5.5 629,-35.5"/>
<text text-anchor="start" x="519" y="-23.5" font-family="Helvetica,sans-Serif" font-size="10.00">update_performance</text>
<text text-anchor="middle" x="570" y="-12.5" font-family="Helvetica,sans-Serif" font-size="10.00">_md._b</text>
</a>
</g>
</g>
<!-- Node2 -->
<g id="Node000002" class="node">
<title>Node2</title>
<g id="a_Node000002"><a xlink:href="namespaceupdate__performance__md.html#ad7b1c005b98467703eadbbadd3af02a1" target="_top" xlink:title=" ">
<polygon fill="white" stroke="#666666" points="475,-35.5 329,-35.5 329,-5.5 475,-5.5 475,-35.5"/>
<text text-anchor="start" x="337" y="-23.5" font-family="Helvetica,sans-Serif" font-size="10.00">update_performance</text>
<text text-anchor="middle" x="402" y="-12.5" font-family="Helvetica,sans-Serif" font-size="10.00">_md._extract_token_check</text>
</a>
</g>
</g>
<!-- Node1&#45;&gt;Node2 -->
<g id="edge1_Node000001_Node000002" class="edge">
<title>Node1&#45;&gt;Node2</title>
<g id="a_edge1_Node000001_Node000002"><a xlink:title=" ">
<path fill="none" stroke="#63b8ff" d="M500.73,-20.5C492.26,-20.5 483.57,-20.5 475.04,-20.5"/>
<polygon fill="#63b8ff" stroke="#63b8ff" points="500.94,-24 510.94,-20.5 500.94,-17 500.94,-24"/>
</a>
</g>
</g>
<!-- Node3 -->
<g id="Node000003" class="node">
<title>Node3</title>
<g id="a_Node000003"><a xlink:href="namespaceupdate__performance__md.html#a4544b016a168619b5aac59ff52f48dd0" target="_top" xlink:title=" ">
<polygon fill="white" stroke="#666666" points="293,-41 154,-41 154,0 293,0 293,-41"/>
<text text-anchor="start" x="162" y="-29" font-family="Helvetica,sans-Serif" font-size="10.00">update_performance</text>
<text text-anchor="start" x="162" y="-18" font-family="Helvetica,sans-Serif" font-size="10.00">_md._render_per_prompt</text>
<text text-anchor="middle" x="223.5" y="-7" font-family="Helvetica,sans-Serif" font-size="10.00">_side_by_side</text>
</a>
</g>
</g>
<!-- Node2&#45;&gt;Node3 -->
<g id="edge2_Node000002_Node000003" class="edge">
<title>Node2&#45;&gt;Node3</title>
<g id="a_edge2_Node000002_Node000003"><a xlink:title=" ">
<path fill="none" stroke="#63b8ff" d="M318.91,-20.5C310.3,-20.5 301.61,-20.5 293.18,-20.5"/>
<polygon fill="#63b8ff" stroke="#63b8ff" points="318.96,-24 328.96,-20.5 318.96,-17 318.96,-24"/>
</a>
</g>
</g>
<!-- Node4 -->
<g id="Node000004" class="node">
<title>Node4</title>
<g id="a_Node000004"><a xlink:href="namespaceupdate__performance__md.html#ae757be851b94bcca07c264e51d9d0d15" target="_top" xlink:title=" ">
<polygon fill="white" stroke="#666666" points="118,-35.5 0,-35.5 0,-5.5 118,-5.5 118,-35.5"/>
<text text-anchor="start" x="8" y="-23.5" font-family="Helvetica,sans-Serif" font-size="10.00">update_performance</text>
<text text-anchor="middle" x="59" y="-12.5" font-family="Helvetica,sans-Serif" font-size="10.00">_md.main</text>
</a>
</g>
</g>
<!-- Node3&#45;&gt;Node4 -->
<g id="edge3_Node000003_Node000004" class="edge">
<title>Node3&#45;&gt;Node4</title>
<g id="a_edge3_Node000003_Node000004"><a xlink:title=" ">
<path fill="none" stroke="#63b8ff" d="M143.32,-20.5C134.87,-20.5 126.39,-20.5 118.25,-20.5"/>
<polygon fill="#63b8ff" stroke="#63b8ff" points="143.59,-24 153.59,-20.5 143.59,-17 143.59,-24"/>
</a>
</g>
</g>
<!-- Node4&#45;&gt;Node4 -->
<g id="edge4_Node000004_Node000004" class="edge">
<title>Node4&#45;&gt;Node4</title>
<g id="a_edge4_Node000004_Node000004"><a xlink:title=" ">
<path fill="none" stroke="#63b8ff" d="M87.71,-46.1C83.78,-50.47 74.21,-53.5 59,-53.5 33.38,-53.5 23.77,-44.91 30.17,-35.78"/>
<polygon fill="#63b8ff" stroke="#63b8ff" points="91.21,-45.82 87.83,-35.78 84.21,-45.73 91.21,-45.82"/>
</a>
</g>
</g>
</g>
</svg>
