<?xml version="1.0" encoding="UTF-8" standalone="no"?>
<!DOCTYPE svg PUBLIC "-//W3C//DTD SVG 1.1//EN"
 "http://www.w3.org/Graphics/SVG/1.1/DTD/svg11.dtd">
<!-- Generated by graphviz version 2.43.0 (0)
 -->
<!-- Title: metrics_exporter.collect_metrics_from_summary Pages: 1 -->
<svg width="505pt" height="140pt"
 viewBox="0.00 0.00 505.00 140.00" xmlns="http://www.w3.org/2000/svg" xmlns:xlink="http://www.w3.org/1999/xlink">
<g id="graph0" class="graph" transform="scale(1 1) rotate(0) translate(4 136)">
<title>metrics_exporter.collect_metrics_from_summary</title>
<!-- Node1 -->
<g id="Node000001" class="node">
<title>Node1</title>
<g id="a_Node000001"><a xlink:title=" ">
<polygon fill="#999999" stroke="#666666" points="139,-80.5 0,-80.5 0,-50.5 139,-50.5 139,-80.5"/>
<text text-anchor="start" x="8" y="-68.5" font-family="Helvetica,sans-Serif" font-size="10.00">metrics_exporter.collect</text>
<text text-anchor="middle" x="69.5" y="-57.5" font-family="Helvetica,sans-Serif" font-size="10.00">_metrics_from_summary</text>
</a>
</g>
</g>
<!-- Node2 -->
<g id="Node000002" class="node">
<title>Node2</title>
<g id="a_Node000002"><a xlink:href="namespacemetrics__exporter.html#a524a69c6d1d2cb93c5395e646fd38a17" target="_top" xlink:title=" ">
<polygon fill="white" stroke="#666666" points="336,-132 175,-132 175,-113 336,-113 336,-132"/>
<text text-anchor="middle" x="255.5" y="-120" font-family="Helvetica,sans-Serif" font-size="10.00">metrics_exporter._gauge_line</text>
</a>
</g>
</g>
<!-- Node1&#45;&gt;Node2 -->
<g id="edge1_Node000001_Node000002" class="edge">
<title>Node1&#45;&gt;Node2</title>
<g id="a_edge1_Node000001_Node000002"><a xlink:title=" ">
<path fill="none" stroke="#63b8ff" d="M117.8,-80.58C135.7,-86.25 156.28,-92.72 175,-98.5 187.16,-102.26 200.39,-106.28 212.5,-109.93"/>
<polygon fill="#63b8ff" stroke="#63b8ff" points="211.78,-113.37 222.37,-112.9 213.8,-106.67 211.78,-113.37"/>
</a>
</g>
</g>
<!-- Node3 -->
<g id="Node000003" class="node">
<title>Node3</title>
<g id="a_Node000003"><a xlink:href="ie__device__cuda_8cu.html#a5e3d9fee84981707669f5c2398f0c4ab" target="_top" xlink:title="Row&#45;wise GEMV kernel: each thread computes one output row.">
<polygon fill="white" stroke="#666666" points="497,-99.5 372,-99.5 372,-69.5 497,-69.5 497,-99.5"/>
<text text-anchor="start" x="380" y="-87.5" font-family="Helvetica,sans-Serif" font-size="10.00">ie_gemv_rowwise_f32</text>
<text text-anchor="middle" x="434.5" y="-76.5" font-family="Helvetica,sans-Serif" font-size="10.00">_kernel</text>
</a>
</g>
</g>
<!-- Node1&#45;&gt;Node3 -->
<g id="edge6_Node000001_Node000003" class="edge">
<title>Node1&#45;&gt;Node3</title>
<g id="a_edge6_Node000001_Node000003"><a xlink:title=" ">
<path fill="none" stroke="#63b8ff" d="M139.2,-69.1C202.81,-72.43 297.03,-77.36 361.63,-80.74"/>
<polygon fill="#63b8ff" stroke="#63b8ff" points="361.56,-84.24 371.73,-81.27 361.93,-77.25 361.56,-84.24"/>
</a>
</g>
</g>
<!-- Node4 -->
<g id="Node000004" class="node">
<title>Node4</title>
<g id="a_Node000004"><a xlink:href="namespacemetrics__exporter.html#a4a94480fb22d48f18b188821dcefad52" target="_top" xlink:title=" ">
<polygon fill="white" stroke="#666666" points="333,-56 178,-56 178,-37 333,-37 333,-56"/>
<text text-anchor="middle" x="255.5" y="-44" font-family="Helvetica,sans-Serif" font-size="10.00">metrics_exporter._help_type</text>
</a>
</g>
</g>
<!-- Node1&#45;&gt;Node4 -->
<g id="edge3_Node000001_Node000004" class="edge">
<title>Node1&#45;&gt;Node4</title>
<g id="a_edge3_Node000001_Node000004"><a xlink:title=" ">
<path fill="none" stroke="#63b8ff" d="M139.01,-58.43C148.42,-57.45 158.17,-56.45 167.85,-55.45"/>
<polygon fill="#63b8ff" stroke="#63b8ff" points="168.3,-58.92 177.88,-54.41 167.58,-51.96 168.3,-58.92"/>
</a>
</g>
</g>
<!-- Node5 -->
<g id="Node000005" class="node">
<title>Node5</title>
<g id="a_Node000005"><a xlink:href="namespacemetrics__exporter.html#a19ebb3e24ffe47ca3dc9b2a184c35b2a" target="_top" xlink:title=" ">
<polygon fill="white" stroke="#666666" points="330,-19 181,-19 181,0 330,0 330,-19"/>
<text text-anchor="middle" x="255.5" y="-7" font-family="Helvetica,sans-Serif" font-size="10.00">metrics_exporter._label_str</text>
</a>
</g>
</g>
<!-- Node1&#45;&gt;Node5 -->
<g id="edge4_Node000001_Node000005" class="edge">
<title>Node1&#45;&gt;Node5</title>
<g id="a_edge4_Node000001_Node000005"><a xlink:title=" ">
<path fill="none" stroke="#63b8ff" d="M109.87,-50.45C129.32,-43.3 153.22,-34.94 175,-28.5 183.4,-26.02 192.38,-23.62 201.16,-21.43"/>
<polygon fill="#63b8ff" stroke="#63b8ff" points="202.07,-24.81 210.96,-19.03 200.41,-18.01 202.07,-24.81"/>
</a>
</g>
</g>
<!-- Node2&#45;&gt;Node3 -->
<g id="edge2_Node000002_Node000003" class="edge">
<title>Node2&#45;&gt;Node3</title>
<g id="a_edge2_Node000002_Node000003"><a xlink:title=" ">
<path fill="none" stroke="#63b8ff" d="M301.16,-112.91C319.56,-108.96 341.33,-104.29 361.85,-99.88"/>
<polygon fill="#63b8ff" stroke="#63b8ff" points="362.76,-103.27 371.8,-97.75 361.29,-96.42 362.76,-103.27"/>
</a>
</g>
</g>
<!-- Node5&#45;&gt;Node3 -->
<g id="edge5_Node000005_Node000003" class="edge">
<title>Node5&#45;&gt;Node3</title>
<g id="a_edge5_Node000005_Node000003"><a xlink:title=" ">
<path fill="none" stroke="#63b8ff" d="M306.38,-19.1C316.35,-21.66 326.64,-24.78 336,-28.5 359.54,-37.85 384.27,-52.11 402.93,-63.9"/>
<polygon fill="#63b8ff" stroke="#63b8ff" points="401.27,-66.99 411.57,-69.46 405.06,-61.1 401.27,-66.99"/>
</a>
</g>
</g>
</g>
</svg>
