<?xml version="1.0" encoding="UTF-8" standalone="no"?>
<!DOCTYPE svg PUBLIC "-//W3C//DTD SVG 1.1//EN"
 "http://www.w3.org/Graphics/SVG/1.1/DTD/svg11.dtd">
<!-- Generated by graphviz version 2.43.0 (0)
 -->
<!-- Title: gen_q4_bytes_worker.wanted Pages: 1 -->
<svg width="354pt" height="45pt"
 viewBox="0.00 0.00 354.00 45.00" xmlns="http://www.w3.org/2000/svg" xmlns:xlink="http://www.w3.org/1999/xlink">
<g id="graph0" class="graph" transform="scale(1 1) rotate(0) translate(4 41)">
<title>gen_q4_bytes_worker.wanted</title>
<!-- Node1 -->
<g id="Node000001" class="node">
<title>Node1</title>
<g id="a_Node000001"><a xlink:title=" ">
<polygon fill="#999999" stroke="#666666" points="346,-19 185,-19 185,0 346,0 346,-19"/>
<text text-anchor="middle" x="265.5" y="-7" font-family="Helvetica,sans-Serif" font-size="10.00">gen_q4_bytes_worker.wanted</text>
</a>
</g>
</g>
<!-- Node2 -->
<g id="Node000002" class="node">
<title>Node2</title>
<g id="a_Node000002"><a xlink:href="namespacegen__q4__bytes__worker.html#ad8bac42fb7b7d5601691eaf3536eae1d" target="_top" xlink:title=" ">
<polygon fill="white" stroke="#666666" points="149,-19 0,-19 0,0 149,0 149,-19"/>
<text text-anchor="middle" x="74.5" y="-7" font-family="Helvetica,sans-Serif" font-size="10.00">gen_q4_bytes_worker.main</text>
</a>
</g>
</g>
<!-- Node1&#45;&gt;Node2 -->
<g id="edge1_Node000001_Node000002" class="edge">
<title>Node1&#45;&gt;Node2</title>
<g id="a_edge1_Node000001_Node000002"><a xlink:title=" ">
<path fill="none" stroke="#63b8ff" d="M174.88,-9.5C166.31,-9.5 157.69,-9.5 149.29,-9.5"/>
<polygon fill="#63b8ff" stroke="#63b8ff" points="174.89,-13 184.89,-9.5 174.89,-6 174.89,-13"/>
</a>
</g>
</g>
<!-- Node2&#45;&gt;Node2 -->
<g id="edge2_Node000002_Node000002" class="edge">
<title>Node2&#45;&gt;Node2</title>
<g id="a_edge2_Node000002_Node000002"><a xlink:title=" ">
<path fill="none" stroke="#63b8ff" d="M110.11,-27.07C109.59,-32.62 97.72,-37 74.5,-37 40.73,-37 30.97,-27.73 45.22,-19.08"/>
<polygon fill="#63b8ff" stroke="#63b8ff" points="112.73,-24.75 103.78,-19.08 107.25,-29.1 112.73,-24.75"/>
</a>
</g>
</g>
</g>
</svg>
