<?xml version="1.0" encoding="UTF-8" standalone="no"?>
<!DOCTYPE svg PUBLIC "-//W3C//DTD SVG 1.1//EN"
 "http://www.w3.org/Graphics/SVG/1.1/DTD/svg11.dtd">
<!-- Generated by graphviz version 2.43.0 (0)
 -->
<!-- Title: dedup_extract_int4._ceil_div Pages: 1 -->
<svg width="593pt" height="39pt"
 viewBox="0.00 0.00 593.00 39.00" xmlns="http://www.w3.org/2000/svg" xmlns:xlink="http://www.w3.org/1999/xlink">
<g id="graph0" class="graph" transform="scale(1 1) rotate(0) translate(4 35)">
<title>dedup_extract_int4._ceil_div</title>
<!-- Node1 -->
<g id="node1" class="node">
<title>Node1</title>
<g id="a_node1"><a xlink:title=" ">
<polygon fill="#bfbfbf" stroke="black" points="472,-0.5 472,-30.5 585,-30.5 585,-0.5 472,-0.5"/>
<text text-anchor="start" x="480" y="-18.5" font-family="Helvetica,sans-Serif" font-size="10.00">dedup_extract_int4.</text>
<text text-anchor="middle" x="528.5" y="-7.5" font-family="Helvetica,sans-Serif" font-size="10.00">_ceil_div</text>
</a>
</g>
</g>
<!-- Node2 -->
<g id="node2" class="node">
<title>Node2</title>
<g id="a_node2"><a xlink:href="namespacededup__extract__int4.html#a9a19e28b92742a699efc5e008e747841" target="_top" xlink:title=" ">
<polygon fill="none" stroke="black" points="323,-0.5 323,-30.5 436,-30.5 436,-0.5 323,-0.5"/>
<text text-anchor="start" x="331" y="-18.5" font-family="Helvetica,sans-Serif" font-size="10.00">dedup_extract_int4.</text>
<text text-anchor="middle" x="379.5" y="-7.5" font-family="Helvetica,sans-Serif" font-size="10.00">_mask_bytes</text>
</a>
</g>
</g>
<!-- Node1&#45;&gt;Node2 -->
<g id="edge1" class="edge">
<title>Node1&#45;&gt;Node2</title>
<path fill="none" stroke="midnightblue" d="M461.92,-15.5C453.32,-15.5 444.57,-15.5 436.15,-15.5"/>
<polygon fill="midnightblue" stroke="midnightblue" points="461.93,-19 471.93,-15.5 461.93,-12 461.93,-19"/>
</g>
<!-- Node3 -->
<g id="node3" class="node">
<title>Node3</title>
<g id="a_node3"><a xlink:href="namespacededup__extract__int4.html#ad7443195c1d80f3a0e99221c369d9b2a" target="_top" xlink:title=" ">
<polygon fill="none" stroke="black" points="174,-0.5 174,-30.5 287,-30.5 287,-0.5 174,-0.5"/>
<text text-anchor="start" x="182" y="-18.5" font-family="Helvetica,sans-Serif" font-size="10.00">dedup_extract_int4.</text>
<text text-anchor="middle" x="230.5" y="-7.5" font-family="Helvetica,sans-Serif" font-size="10.00">_diff_default_target</text>
</a>
</g>
</g>
<!-- Node2&#45;&gt;Node3 -->
<g id="edge2" class="edge">
<title>Node2&#45;&gt;Node3</title>
<path fill="none" stroke="midnightblue" d="M312.92,-15.5C304.32,-15.5 295.57,-15.5 287.15,-15.5"/>
<polygon fill="midnightblue" stroke="midnightblue" points="312.93,-19 322.93,-15.5 312.93,-12 312.93,-19"/>
</g>
<!-- Node4 -->
<g id="node4" class="node">
<title>Node4</title>
<g id="a_node4"><a xlink:href="namespacededup__extract__int4.html#ac97f2d8358c29021b64dc6d651c3714d" target="_top" xlink:title=" ">
<polygon fill="none" stroke="black" points="0,-6 0,-25 138,-25 138,-6 0,-6"/>
<text text-anchor="middle" x="69" y="-13" font-family="Helvetica,sans-Serif" font-size="10.00">dedup_extract_int4.main</text>
</a>
</g>
</g>
<!-- Node3&#45;&gt;Node4 -->
<g id="edge3" class="edge">
<title>Node3&#45;&gt;Node4</title>
<path fill="none" stroke="midnightblue" d="M163.59,-15.5C155.17,-15.5 146.55,-15.5 138.11,-15.5"/>
<polygon fill="midnightblue" stroke="midnightblue" points="163.71,-19 173.71,-15.5 163.71,-12 163.71,-19"/>
</g>
</g>
</svg>
