<?xml version="1.0" encoding="UTF-8" standalone="no"?>
<!DOCTYPE svg PUBLIC "-//W3C//DTD SVG 1.1//EN"
 "http://www.w3.org/Graphics/SVG/1.1/DTD/svg11.dtd">
<!-- Generated by graphviz version 2.43.0 (0)
 -->
<!-- Title: generate_expected_tokens.main Pages: 1 -->
<!--zoomable 499 -->

<svg id="main" version="1.1" xmlns="http://www.w3.org/2000/svg" xmlns:xlink="http://www.w3.org/1999/xlink" xml:space="preserve" onload="init(evt)">
<style type="text/css"><![CDATA[
.node, .edge {opacity: 0.7;}
.node.selected, .edge.selected {opacity: 1;}
.edge:hover path { stroke: red; }
.edge:hover polygon { stroke: red; fill: red; }
]]></style>

<defs>
  <circle id="rim" cx="0" cy="0" r="7"/>
  <circle id="rim2" cx="0" cy="0" r="3.5"/>
  <g id="zoomPlus">
    <use xlink:href="#rim" fill="#404040"><set attributeName="fill" to="#808080" begin="zoomplus.mouseover" end="zoomplus.mouseout"/></use>
    <path d="M-4,0h8M0,-4v8" fill="none" stroke="white" stroke-width="1.5" pointer-events="none"/>
  </g>
  <g id="zoomMin">
    <use xlink:href="#rim" fill="#404040"><set attributeName="fill" to="#808080" begin="zoomminus.mouseover" end="zoomminus.mouseout"/></use>
    <path d="M-4,0h8" fill="none" stroke="white" stroke-width="1.5" pointer-events="none"/>
  </g>
  <g id="arrowUp" transform="translate(30 24)">
    <use xlink:href="#rim"/>
    <path pointer-events="none" fill="none" stroke="white" stroke-width="1.5" d="M0,-3.0v7 M-2.5,-0.5L0,-3.0L2.5,-0.5"/>
  </g>
  <g id="arrowRight" transform="rotate(90) translate(36 -43)">
    <use xlink:href="#rim"/>
    <path pointer-events="none" fill="none" stroke="white" stroke-width="1.5" d="M0,-3.0v7 M-2.5,-0.5L0,-3.0L2.5,-0.5"/>
  </g>
  <g id="arrowDown" transform="rotate(180) translate(-30 -48)">
    <use xlink:href="#rim"/>
    <path pointer-events="none" fill="none" stroke="white" stroke-width="1.5" d="M0,-3.0v7 M-2.5,-0.5L0,-3.0L2.5,-0.5"/>
  </g>
  <g id="arrowLeft" transform="rotate(270) translate(-36 17)">
    <use xlink:href="#rim"/>
    <path pointer-events="none" fill="none" stroke="white" stroke-width="1.5" d="M0,-3.0v7 M-2.5,-0.5L0,-3.0L2.5,-0.5"/>
  </g>
  <g id="resetDef">
    <use xlink:href="#rim2" fill="#404040"><set attributeName="fill" to="#808080" begin="reset.mouseover" end="reset.mouseout"/></use>
  </g>
</defs>
<script type="application/ecmascript">
var viewWidth = 983;
var viewHeight = 499;
var sectionId = 'dynsection-4';
</script>
<script type="application/ecmascript" xlink:href="svg.min.js"/>
<svg id="graph" class="graph">
<g id="viewport">
<title>generate_expected_tokens.main</title>
<!-- Node1 -->
<g id="Node000001" class="node">
<title>Node1</title>
<g id="a_Node000001"><a xlink:title=" ">
<polygon fill="#999999" stroke="#666666" points="176,-389 0,-389 0,-370 176,-370 176,-389"/>
<text text-anchor="middle" x="88" y="-377" font-family="Helvetica,sans-Serif" font-size="10.00">generate_expected_tokens.main</text>
</a>
</g>
</g>
<!-- Node2 -->
<g id="Node000002" class="node">
<title>Node2</title>
<g id="a_Node000002"><a xlink:href="namespacegenerate__expected__tokens.html#a82d03c33551cdb9afb838c10d97f3ebd" target="_top" xlink:title=" ">
<polygon fill="white" stroke="#666666" points="363,-490.5 212,-490.5 212,-460.5 363,-460.5 363,-490.5"/>
<text text-anchor="start" x="220" y="-478.5" font-family="Helvetica,sans-Serif" font-size="10.00">generate_expected_tokens.</text>
<text text-anchor="middle" x="287.5" y="-467.5" font-family="Helvetica,sans-Serif" font-size="10.00">_extract_expected_lines</text>
</a>
</g>
</g>
<!-- Node1&#45;&gt;Node2 -->
<g id="edge1_Node000001_Node000002" class="edge">
<title>Node1&#45;&gt;Node2</title>
<g id="a_edge1_Node000001_Node000002"><a xlink:title=" ">
<path fill="none" stroke="#63b8ff" d="M103.22,-389.21C125.57,-404.16 170.67,-433.01 212,-451.5 216.16,-453.36 220.51,-455.15 224.92,-456.84"/>
<polygon fill="#63b8ff" stroke="#63b8ff" points="224.06,-460.25 234.65,-460.41 226.47,-453.68 224.06,-460.25"/>
</a>
</g>
</g>
<!-- Node3 -->
<g id="Node000003" class="node">
<title>Node3</title>
<g id="a_Node000003"><a xlink:href="namespacegenerate__expected__tokens.html#a12028633b70c1a804610688f3d3f50da" target="_top" xlink:title=" ">
<polygon fill="white" stroke="#666666" points="363,-442.5 212,-442.5 212,-412.5 363,-412.5 363,-442.5"/>
<text text-anchor="start" x="220" y="-430.5" font-family="Helvetica,sans-Serif" font-size="10.00">generate_expected_tokens.</text>
<text text-anchor="middle" x="287.5" y="-419.5" font-family="Helvetica,sans-Serif" font-size="10.00">_parse_args</text>
</a>
</g>
</g>
<!-- Node1&#45;&gt;Node3 -->
<g id="edge2_Node000001_Node000003" class="edge">
<title>Node1&#45;&gt;Node3</title>
<g id="a_edge2_Node000001_Node000003"><a xlink:title=" ">
<path fill="none" stroke="#63b8ff" d="M128.49,-389.1C153.17,-395.1 185.68,-403 214.8,-410.07"/>
<polygon fill="#63b8ff" stroke="#63b8ff" points="213.98,-413.48 224.52,-412.44 215.63,-406.67 213.98,-413.48"/>
</a>
</g>
</g>
<!-- Node4 -->
<g id="Node000004" class="node">
<title>Node4</title>
<g id="a_Node000004"><a xlink:href="namespacegenerate__expected__tokens.html#a34827957e5c1f0a4b663de2c3ab2ae6e" target="_top" xlink:title=" ">
<polygon fill="white" stroke="#666666" points="363,-394.5 212,-394.5 212,-364.5 363,-364.5 363,-394.5"/>
<text text-anchor="start" x="220" y="-382.5" font-family="Helvetica,sans-Serif" font-size="10.00">generate_expected_tokens.</text>
<text text-anchor="middle" x="287.5" y="-371.5" font-family="Helvetica,sans-Serif" font-size="10.00">_repo_root_from_here</text>
</a>
</g>
</g>
<!-- Node1&#45;&gt;Node4 -->
<g id="edge3_Node000001_Node000004" class="edge">
<title>Node1&#45;&gt;Node4</title>
<g id="a_edge3_Node000001_Node000004"><a xlink:title=" ">
<path fill="none" stroke="#63b8ff" d="M176.2,-379.5C184.65,-379.5 193.21,-379.5 201.64,-379.5"/>
<polygon fill="#63b8ff" stroke="#63b8ff" points="201.83,-383 211.83,-379.5 201.83,-376 201.83,-383"/>
</a>
</g>
</g>
<!-- Node5 -->
<g id="Node000005" class="node">
<title>Node5</title>
<g id="a_Node000005"><a xlink:href="namespacegenerate__expected__tokens.html#a1bd99e337229abd6b584da454c57c34c" target="_top" xlink:title=" ">
<polygon fill="white" stroke="#666666" points="363,-346.5 212,-346.5 212,-316.5 363,-316.5 363,-346.5"/>
<text text-anchor="start" x="220" y="-334.5" font-family="Helvetica,sans-Serif" font-size="10.00">generate_expected_tokens.</text>
<text text-anchor="middle" x="287.5" y="-323.5" font-family="Helvetica,sans-Serif" font-size="10.00">_run_engine</text>
</a>
</g>
</g>
<!-- Node1&#45;&gt;Node5 -->
<g id="edge4_Node000001_Node000005" class="edge">
<title>Node1&#45;&gt;Node5</title>
<g id="a_edge4_Node000001_Node000005"><a xlink:title=" ">
<path fill="none" stroke="#63b8ff" d="M128.49,-369.9C153.17,-363.9 185.68,-356 214.8,-348.93"/>
<polygon fill="#63b8ff" stroke="#63b8ff" points="215.63,-352.33 224.52,-346.56 213.98,-345.52 215.63,-352.33"/>
</a>
</g>
</g>
<!-- Node6 -->
<g id="Node000006" class="node">
<title>Node6</title>
<g id="a_Node000006"><a xlink:href="test__act__quant_8c.html#a840291bc02cba5474a4cb46a9b9566fe" target="_top" xlink:title=" ">
<polygon fill="white" stroke="#666666" points="308,-298 267,-298 267,-279 308,-279 308,-298"/>
<text text-anchor="middle" x="287.5" y="-286" font-family="Helvetica,sans-Serif" font-size="10.00">main</text>
</a>
</g>
</g>
<!-- Node1&#45;&gt;Node6 -->
<g id="edge5_Node000001_Node000006" class="edge">
<title>Node1&#45;&gt;Node6</title>
<g id="a_edge5_Node000001_Node000006"><a xlink:title=" ">
<path fill="none" stroke="#63b8ff" d="M102.36,-369.97C124.28,-354.75 169.66,-324.89 212,-307.5 226.27,-301.64 242.83,-297.2 256.71,-294.09"/>
<polygon fill="#63b8ff" stroke="#63b8ff" points="257.67,-297.47 266.73,-291.97 256.22,-290.62 257.67,-297.47"/>
</a>
</g>
</g>
<!-- Node7 -->
<g id="Node000007" class="node">
<title>Node7</title>
<g id="a_Node000007"><a xlink:href="test__act__quant_8c.html#a4e29e70dc75d159784f30252375c4c24" target="_top" xlink:title=" ">
<polygon fill="white" stroke="#666666" points="503.5,-261 410.5,-261 410.5,-242 503.5,-242 503.5,-261"/>
<text text-anchor="middle" x="457" y="-249" font-family="Helvetica,sans-Serif" font-size="10.00">test_fp8_sweep</text>
</a>
</g>
</g>
<!-- Node6&#45;&gt;Node7 -->
<g id="edge6_Node000006_Node000007" class="edge">
<title>Node6&#45;&gt;Node7</title>
<g id="a_edge6_Node000006_Node000007"><a xlink:title=" ">
<path fill="none" stroke="#63b8ff" d="M308.04,-284.18C331.19,-279.07 370.7,-270.34 403.07,-263.19"/>
<polygon fill="#63b8ff" stroke="#63b8ff" points="403.85,-266.6 412.86,-261.03 402.34,-259.77 403.85,-266.6"/>
</a>
</g>
</g>
<!-- Node19 -->
<g id="Node000019" class="node">
<title>Node19</title>
<g id="a_Node000019"><a xlink:href="test__act__quant_8c.html#a21e36220792f5bceb2c110dc45605c5e" target="_top" xlink:title=" ">
<polygon fill="white" stroke="#666666" points="513.5,-298 400.5,-298 400.5,-279 513.5,-279 513.5,-298"/>
<text text-anchor="middle" x="457" y="-286" font-family="Helvetica,sans-Serif" font-size="10.00">test_int8_per_group</text>
</a>
</g>
</g>
<!-- Node6&#45;&gt;Node19 -->
<g id="edge21_Node000006_Node000019" class="edge">
<title>Node6&#45;&gt;Node19</title>
<g id="a_edge21_Node000006_Node000019"><a xlink:title=" ">
<path fill="none" stroke="#63b8ff" d="M308.04,-288.5C328.19,-288.5 360.73,-288.5 390.17,-288.5"/>
<polygon fill="#63b8ff" stroke="#63b8ff" points="390.43,-292 400.43,-288.5 390.43,-285 390.43,-292"/>
</a>
</g>
</g>
<!-- Node30 -->
<g id="Node000030" class="node">
<title>Node30</title>
<g id="a_Node000030"><a xlink:href="test__act__quant_8c.html#a83ac16910c5fbcf8d045ba1a01bc2604" target="_top" xlink:title=" ">
<polygon fill="white" stroke="#666666" points="515,-335 399,-335 399,-316 515,-316 515,-335"/>
<text text-anchor="middle" x="457" y="-323" font-family="Helvetica,sans-Serif" font-size="10.00">test_int8_per_tensor</text>
</a>
</g>
</g>
<!-- Node6&#45;&gt;Node30 -->
<g id="edge35_Node000006_Node000030" class="edge">
<title>Node6&#45;&gt;Node30</title>
<g id="a_edge35_Node000006_Node000030"><a xlink:title=" ">
<path fill="none" stroke="#63b8ff" d="M308.04,-292.82C331.19,-297.93 370.7,-306.66 403.07,-313.81"/>
<polygon fill="#63b8ff" stroke="#63b8ff" points="402.34,-317.23 412.86,-315.97 403.85,-310.4 402.34,-317.23"/>
</a>
</g>
</g>
<!-- Node8 -->
<g id="Node000008" class="node">
<title>Node8</title>
<g id="a_Node000008"><a xlink:href="test__act__quant_8c.html#a39c84b4b2f56a8f2ec1b75b7d2c1d497" target="_top" xlink:title=" ">
<polygon fill="white" stroke="#666666" points="649.5,-261 587.5,-261 587.5,-242 649.5,-242 649.5,-261"/>
<text text-anchor="middle" x="618.5" y="-249" font-family="Helvetica,sans-Serif" font-size="10.00">fill_range</text>
</a>
</g>
</g>
<!-- Node7&#45;&gt;Node8 -->
<g id="edge7_Node000007_Node000008" class="edge">
<title>Node7&#45;&gt;Node8</title>
<g id="a_edge7_Node000007_Node000008"><a xlink:title=" ">
<path fill="none" stroke="#63b8ff" d="M503.71,-251.5C526.91,-251.5 554.85,-251.5 577.24,-251.5"/>
<polygon fill="#63b8ff" stroke="#63b8ff" points="577.41,-255 587.41,-251.5 577.41,-248 577.41,-255"/>
</a>
</g>
</g>
<!-- Node9 -->
<g id="Node000009" class="node">
<title>Node9</title>
<g id="a_Node000009"><a xlink:href="act__fp8_8c.html#aca462f5af36ea8b096edc92c4252db71" target="_top" xlink:title="Dequantize FP8 bytes to fp32.">
<polygon fill="white" stroke="#666666" points="681.5,-127 555.5,-127 555.5,-108 681.5,-108 681.5,-127"/>
<text text-anchor="middle" x="618.5" y="-115" font-family="Helvetica,sans-Serif" font-size="10.00">ie_dequantize_act_fp8</text>
</a>
</g>
</g>
<!-- Node7&#45;&gt;Node9 -->
<g id="edge8_Node000007_Node000009" class="edge">
<title>Node7&#45;&gt;Node9</title>
<g id="a_edge8_Node000007_Node000009"><a xlink:title=" ">
<path fill="none" stroke="#63b8ff" d="M463.07,-241.8C475.17,-219.63 507.96,-164.98 551,-136.5 554.09,-134.46 557.39,-132.63 560.82,-131"/>
<polygon fill="#63b8ff" stroke="#63b8ff" points="562.24,-134.2 570.12,-127.12 559.54,-127.74 562.24,-134.2"/>
</a>
</g>
</g>
<!-- Node12 -->
<g id="Node000012" class="node">
<title>Node12</title>
<g id="a_Node000012"><a xlink:href="act__fp8_8c.html#a91772f4827e6d4c82915434eb55a9f17" target="_top" xlink:title="Quantize fp32 activations to FP8.">
<polygon fill="white" stroke="#666666" points="675.5,-74 561.5,-74 561.5,-55 675.5,-55 675.5,-74"/>
<text text-anchor="middle" x="618.5" y="-62" font-family="Helvetica,sans-Serif" font-size="10.00">ie_quantize_act_fp8</text>
</a>
</g>
</g>
<!-- Node7&#45;&gt;Node12 -->
<g id="edge11_Node000007_Node000012" class="edge">
<title>Node7&#45;&gt;Node12</title>
<g id="a_edge11_Node000007_Node000012"><a xlink:title=" ">
<path fill="none" stroke="#63b8ff" d="M461.78,-241.74C472.31,-215.65 504.28,-143.3 551,-99.5 560.06,-91.01 571.56,-84 582.45,-78.54"/>
<polygon fill="#63b8ff" stroke="#63b8ff" points="584.23,-81.57 591.78,-74.14 581.25,-75.24 584.23,-81.57"/>
</a>
</g>
</g>
<!-- Node18 -->
<g id="Node000018" class="node">
<title>Node18</title>
<g id="a_Node000018"><a xlink:href="test__act__quant_8c.html#a38b4b69f6c9e30a70285f7bc1e98ea8e" target="_top" xlink:title=" ">
<polygon fill="white" stroke="#666666" points="637.5,-298 599.5,-298 599.5,-279 637.5,-279 637.5,-298"/>
<text text-anchor="middle" x="618.5" y="-286" font-family="Helvetica,sans-Serif" font-size="10.00">mse</text>
</a>
</g>
</g>
<!-- Node7&#45;&gt;Node18 -->
<g id="edge20_Node000007_Node000018" class="edge">
<title>Node7&#45;&gt;Node18</title>
<g id="a_edge20_Node000007_Node000018"><a xlink:title=" ">
<path fill="none" stroke="#63b8ff" d="M499.08,-261.03C527.34,-267.59 564.16,-276.13 589.19,-281.93"/>
<polygon fill="#63b8ff" stroke="#63b8ff" points="588.61,-285.39 599.14,-284.24 590.19,-278.57 588.61,-285.39"/>
</a>
</g>
</g>
<!-- Node10 -->
<g id="Node000010" class="node">
<title>Node10</title>
<g id="a_Node000010"><a xlink:href="act__fp8_8c.html#a52bd1c6672e488e69c328a8462a03638" target="_top" xlink:title=" ">
<polygon fill="white" stroke="#666666" points="847.5,-111 727.5,-111 727.5,-92 847.5,-92 847.5,-111"/>
<text text-anchor="middle" x="787.5" y="-99" font-family="Helvetica,sans-Serif" font-size="10.00">ie_unpack_fp8_e4m3</text>
</a>
</g>
</g>
<!-- Node9&#45;&gt;Node10 -->
<g id="edge9_Node000009_Node000010" class="edge">
<title>Node9&#45;&gt;Node10</title>
<g id="a_edge9_Node000009_Node000010"><a xlink:title=" ">
<path fill="none" stroke="#63b8ff" d="M681.68,-111.54C693.23,-110.44 705.36,-109.27 717.11,-108.15"/>
<polygon fill="#63b8ff" stroke="#63b8ff" points="717.69,-111.61 727.31,-107.17 717.02,-104.64 717.69,-111.61"/>
</a>
</g>
</g>
<!-- Node11 -->
<g id="Node000011" class="node">
<title>Node11</title>
<g id="a_Node000011"><a xlink:href="act__fp8_8c.html#a8980ac38b93f25c750abde5ec521b4d1" target="_top" xlink:title=" ">
<polygon fill="white" stroke="#666666" points="847.5,-148 727.5,-148 727.5,-129 847.5,-129 847.5,-148"/>
<text text-anchor="middle" x="787.5" y="-136" font-family="Helvetica,sans-Serif" font-size="10.00">ie_unpack_fp8_e5m2</text>
</a>
</g>
</g>
<!-- Node9&#45;&gt;Node11 -->
<g id="edge10_Node000009_Node000011" class="edge">
<title>Node9&#45;&gt;Node11</title>
<g id="a_edge10_Node000009_Node000011"><a xlink:title=" ">
<path fill="none" stroke="#63b8ff" d="M681.68,-125.32C693.23,-126.77 705.36,-128.3 717.11,-129.77"/>
<polygon fill="#63b8ff" stroke="#63b8ff" points="716.95,-133.28 727.31,-131.06 717.82,-126.34 716.95,-133.28"/>
</a>
</g>
</g>
<!-- Node13 -->
<g id="Node000013" class="node">
<title>Node13</title>
<g id="a_Node000013"><a xlink:href="act__fp8_8c.html#a202a6a4b5ffeadd5e70ea00de8307dd4" target="_top" xlink:title=" ">
<polygon fill="white" stroke="#666666" points="841.5,-74 733.5,-74 733.5,-55 841.5,-55 841.5,-74"/>
<text text-anchor="middle" x="787.5" y="-62" font-family="Helvetica,sans-Serif" font-size="10.00">ie_pack_fp8_e4m3</text>
</a>
</g>
</g>
<!-- Node12&#45;&gt;Node13 -->
<g id="edge12_Node000012_Node000013" class="edge">
<title>Node12&#45;&gt;Node13</title>
<g id="a_edge12_Node000012_Node000013"><a xlink:title=" ">
<path fill="none" stroke="#63b8ff" d="M675.57,-64.5C690.89,-64.5 707.58,-64.5 723.27,-64.5"/>
<polygon fill="#63b8ff" stroke="#63b8ff" points="723.4,-68 733.4,-64.5 723.4,-61 723.4,-68"/>
</a>
</g>
</g>
<!-- Node17 -->
<g id="Node000017" class="node">
<title>Node17</title>
<g id="a_Node000017"><a xlink:href="act__fp8_8c.html#a3c2a81020974f897eee0c71515548031" target="_top" xlink:title=" ">
<polygon fill="white" stroke="#666666" points="841.5,-37 733.5,-37 733.5,-18 841.5,-18 841.5,-37"/>
<text text-anchor="middle" x="787.5" y="-25" font-family="Helvetica,sans-Serif" font-size="10.00">ie_pack_fp8_e5m2</text>
</a>
</g>
</g>
<!-- Node12&#45;&gt;Node17 -->
<g id="edge16_Node000012_Node000017" class="edge">
<title>Node12&#45;&gt;Node17</title>
<g id="a_edge16_Node000012_Node000017"><a xlink:title=" ">
<path fill="none" stroke="#63b8ff" d="M662.51,-54.97C684.14,-50.18 710.56,-44.32 733.45,-39.25"/>
<polygon fill="#63b8ff" stroke="#63b8ff" points="734.34,-42.64 743.35,-37.06 732.83,-35.81 734.34,-42.64"/>
</a>
</g>
</g>
<!-- Node14 -->
<g id="Node000014" class="node">
<title>Node14</title>
<g id="a_Node000014"><a xlink:href="act__fp8_8c.html#a08593e027322e5927a6665304aba8805" target="_top" xlink:title=" ">
<polygon fill="white" stroke="#666666" points="972,-56 892,-56 892,-37 972,-37 972,-56"/>
<text text-anchor="middle" x="932" y="-44" font-family="Helvetica,sans-Serif" font-size="10.00">ie_is_inf_u32</text>
</a>
</g>
</g>
<!-- Node13&#45;&gt;Node14 -->
<g id="edge13_Node000013_Node000014" class="edge">
<title>Node13&#45;&gt;Node14</title>
<g id="a_edge13_Node000013_Node000014"><a xlink:title=" ">
<path fill="none" stroke="#63b8ff" d="M841.56,-57.8C854.67,-56.14 868.67,-54.37 881.6,-52.74"/>
<polygon fill="#63b8ff" stroke="#63b8ff" points="882.22,-56.19 891.7,-51.46 881.34,-49.24 882.22,-56.19"/>
</a>
</g>
</g>
<!-- Node15 -->
<g id="Node000015" class="node">
<title>Node15</title>
<g id="a_Node000015"><a xlink:href="act__fp8_8c.html#a95270af9941bb86c1a4f2144cbeed878" target="_top" xlink:title=" ">
<polygon fill="white" stroke="#666666" points="975,-19 889,-19 889,0 975,0 975,-19"/>
<text text-anchor="middle" x="932" y="-7" font-family="Helvetica,sans-Serif" font-size="10.00">ie_is_nan_u32</text>
</a>
</g>
</g>
<!-- Node13&#45;&gt;Node15 -->
<g id="edge14_Node000013_Node000015" class="edge">
<title>Node13&#45;&gt;Node15</title>
<g id="a_edge14_Node000013_Node000015"><a xlink:title=" ">
<path fill="none" stroke="#63b8ff" d="M825.04,-54.96C834.27,-52.22 844.09,-49.01 853,-45.5 869.65,-38.95 872.77,-35.03 889,-27.5 892.02,-26.1 895.18,-24.67 898.36,-23.27"/>
<polygon fill="#63b8ff" stroke="#63b8ff" points="900.01,-26.36 907.79,-19.16 897.22,-19.94 900.01,-26.36"/>
</a>
</g>
</g>
<!-- Node16 -->
<g id="Node000016" class="node">
<title>Node16</title>
<g id="a_Node000016"><a xlink:href="act__fp8_8c.html#a75acd58ddf5bde128ebf893b5186eda3" target="_top" xlink:title=" ">
<polygon fill="white" stroke="#666666" points="975,-93 889,-93 889,-74 975,-74 975,-93"/>
<text text-anchor="middle" x="932" y="-81" font-family="Helvetica,sans-Serif" font-size="10.00">ie_u32_from_f</text>
</a>
</g>
</g>
<!-- Node13&#45;&gt;Node16 -->
<g id="edge15_Node000013_Node000016" class="edge">
<title>Node13&#45;&gt;Node16</title>
<g id="a_edge15_Node000013_Node000016"><a xlink:title=" ">
<path fill="none" stroke="#63b8ff" d="M841.56,-71.57C853.68,-73.19 866.55,-74.91 878.63,-76.52"/>
<polygon fill="#63b8ff" stroke="#63b8ff" points="878.2,-79.99 888.57,-77.84 879.12,-73.05 878.2,-79.99"/>
</a>
</g>
</g>
<!-- Node17&#45;&gt;Node14 -->
<g id="edge17_Node000017_Node000014" class="edge">
<title>Node17&#45;&gt;Node14</title>
<g id="a_edge17_Node000017_Node000014"><a xlink:title=" ">
<path fill="none" stroke="#63b8ff" d="M841.56,-34.57C854.67,-36.32 868.67,-38.19 881.6,-39.91"/>
<polygon fill="#63b8ff" stroke="#63b8ff" points="881.33,-43.41 891.7,-41.26 882.25,-36.47 881.33,-43.41"/>
</a>
</g>
</g>
<!-- Node17&#45;&gt;Node15 -->
<g id="edge18_Node000017_Node000015" class="edge">
<title>Node17&#45;&gt;Node15</title>
<g id="a_edge18_Node000017_Node000015"><a xlink:title=" ">
<path fill="none" stroke="#63b8ff" d="M841.56,-20.8C853.68,-19.27 866.55,-17.64 878.63,-16.11"/>
<polygon fill="#63b8ff" stroke="#63b8ff" points="879.09,-19.59 888.57,-14.86 878.21,-12.64 879.09,-19.59"/>
</a>
</g>
</g>
<!-- Node17&#45;&gt;Node16 -->
<g id="edge19_Node000017_Node000016" class="edge">
<title>Node17&#45;&gt;Node16</title>
<g id="a_edge19_Node000017_Node000016"><a xlink:title=" ">
<path fill="none" stroke="#63b8ff" d="M828.22,-37C836.53,-39.43 845.15,-42.28 853,-45.5 869.93,-52.45 872.57,-57.44 889,-65.5 891.92,-66.93 894.98,-68.37 898.07,-69.77"/>
<polygon fill="#63b8ff" stroke="#63b8ff" points="896.7,-72.99 907.26,-73.83 899.53,-66.59 896.7,-72.99"/>
</a>
</g>
</g>
<!-- Node19&#45;&gt;Node18 -->
<g id="edge34_Node000019_Node000018" class="edge">
<title>Node19&#45;&gt;Node18</title>
<g id="a_edge34_Node000019_Node000018"><a xlink:title=" ">
<path fill="none" stroke="#63b8ff" d="M513.79,-288.5C539.34,-288.5 568.51,-288.5 589.39,-288.5"/>
<polygon fill="#63b8ff" stroke="#63b8ff" points="589.49,-292 599.49,-288.5 589.49,-285 589.49,-292"/>
</a>
</g>
</g>
<!-- Node20 -->
<g id="Node000020" class="node">
<title>Node20</title>
<g id="a_Node000020"><a xlink:href="act__int8_8c.html#ad17e6b199c1c826b681db341c72701ef" target="_top" xlink:title="Compute per&#45;group INT8 parameters from data.">
<polygon fill="white" stroke="#666666" points="686,-175.5 551,-175.5 551,-145.5 686,-145.5 686,-175.5"/>
<text text-anchor="start" x="559" y="-163.5" font-family="Helvetica,sans-Serif" font-size="10.00">ie_act_i8_group_params</text>
<text text-anchor="middle" x="618.5" y="-152.5" font-family="Helvetica,sans-Serif" font-size="10.00">_from_data</text>
</a>
</g>
</g>
<!-- Node19&#45;&gt;Node20 -->
<g id="edge22_Node000019_Node000020" class="edge">
<title>Node19&#45;&gt;Node20</title>
<g id="a_edge22_Node000019_Node000020"><a xlink:title=" ">
<path fill="none" stroke="#63b8ff" d="M502.17,-278.95C506.84,-276.71 511.25,-273.93 515,-270.5 545.6,-242.56 520.98,-213.06 551,-184.5 552.25,-183.31 553.57,-182.17 554.94,-181.1"/>
<polygon fill="#63b8ff" stroke="#63b8ff" points="556.92,-183.98 563.29,-175.51 553.03,-178.16 556.92,-183.98"/>
</a>
</g>
</g>
<!-- Node26 -->
<g id="Node000026" class="node">
<title>Node26</title>
<g id="a_Node000026"><a xlink:href="act__int8_8c.html#a725b47baea6b1f41980edb5e307cfa0f" target="_top" xlink:title="Dequantize per&#45;group INT8 activations to fp32.">
<polygon fill="white" stroke="#666666" points="683,-223.5 554,-223.5 554,-193.5 683,-193.5 683,-223.5"/>
<text text-anchor="start" x="562" y="-211.5" font-family="Helvetica,sans-Serif" font-size="10.00">ie_dequantize_act_int8</text>
<text text-anchor="middle" x="618.5" y="-200.5" font-family="Helvetica,sans-Serif" font-size="10.00">_per_group</text>
</a>
</g>
</g>
<!-- Node19&#45;&gt;Node26 -->
<g id="edge29_Node000019_Node000026" class="edge">
<title>Node19&#45;&gt;Node26</title>
<g id="a_edge29_Node000019_Node000026"><a xlink:title=" ">
<path fill="none" stroke="#63b8ff" d="M497.15,-278.97C503.36,-276.67 509.52,-273.88 515,-270.5 534.53,-258.46 531.8,-246.06 551,-233.5 554.07,-231.49 557.33,-229.61 560.68,-227.86"/>
<polygon fill="#63b8ff" stroke="#63b8ff" points="562.24,-230.99 569.74,-223.51 559.21,-224.68 562.24,-230.99"/>
</a>
</g>
</g>
<!-- Node27 -->
<g id="Node000027" class="node">
<title>Node27</title>
<g id="a_Node000027"><a xlink:href="act__int8_8c.html#a8e3abfa039c2b7c2fca327f68a2d7b09" target="_top" xlink:title="Quantize fp32 activations to INT8 using per&#45;group parameters.">
<polygon fill="white" stroke="#666666" points="677,-384.5 560,-384.5 560,-354.5 677,-354.5 677,-384.5"/>
<text text-anchor="start" x="568" y="-372.5" font-family="Helvetica,sans-Serif" font-size="10.00">ie_quantize_act_int8</text>
<text text-anchor="middle" x="618.5" y="-361.5" font-family="Helvetica,sans-Serif" font-size="10.00">_per_group</text>
</a>
</g>
</g>
<!-- Node19&#45;&gt;Node27 -->
<g id="edge30_Node000019_Node000027" class="edge">
<title>Node19&#45;&gt;Node27</title>
<g id="a_edge30_Node000019_Node000027"><a xlink:title=" ">
<path fill="none" stroke="#63b8ff" d="M490.74,-298.03C498.81,-300.75 507.33,-303.96 515,-307.5 540.49,-319.28 567.61,-335.88 587.54,-348.94"/>
<polygon fill="#63b8ff" stroke="#63b8ff" points="585.62,-351.87 595.89,-354.48 589.49,-346.03 585.62,-351.87"/>
</a>
</g>
</g>
<!-- Node21 -->
<g id="Node000021" class="node">
<title>Node21</title>
<g id="a_Node000021"><a xlink:href="act__int8_8c.html#a383703e828dd5701507b0d1f6ab1cf73" target="_top" xlink:title="Compute per&#45;tensor INT8 parameters from observed min/max.">
<polygon fill="white" stroke="#666666" points="853,-298.5 722,-298.5 722,-268.5 853,-268.5 853,-298.5"/>
<text text-anchor="start" x="730" y="-286.5" font-family="Helvetica,sans-Serif" font-size="10.00">ie_act_i8_params_from</text>
<text text-anchor="middle" x="787.5" y="-275.5" font-family="Helvetica,sans-Serif" font-size="10.00">_minmax</text>
</a>
</g>
</g>
<!-- Node20&#45;&gt;Node21 -->
<g id="edge23_Node000020_Node000021" class="edge">
<title>Node20&#45;&gt;Node21</title>
<g id="a_edge23_Node000020_Node000021"><a xlink:title=" ">
<path fill="none" stroke="#63b8ff" d="M671.2,-175.63C676.43,-178.18 681.48,-181.12 686,-184.5 707.65,-200.68 703.14,-214.15 722,-233.5 732.17,-243.93 744.57,-254.05 755.77,-262.42"/>
<polygon fill="#63b8ff" stroke="#63b8ff" points="753.9,-265.39 764.05,-268.46 758.03,-259.74 753.9,-265.39"/>
</a>
</g>
</g>
<!-- Node23 -->
<g id="Node000023" class="node">
<title>Node23</title>
<g id="a_Node000023"><a xlink:href="act__int8_8c.html#ad80154c444341a2ed6f1be5eb0bdb5de" target="_top" xlink:title=" ">
<polygon fill="white" stroke="#666666" points="960,-213 904,-213 904,-194 960,-194 960,-213"/>
<text text-anchor="middle" x="932" y="-201" font-family="Helvetica,sans-Serif" font-size="10.00">ie_maxf</text>
</a>
</g>
</g>
<!-- Node20&#45;&gt;Node23 -->
<g id="edge27_Node000020_Node000023" class="edge">
<title>Node20&#45;&gt;Node23</title>
<g id="a_edge27_Node000020_Node000023"><a xlink:title=" ">
<path fill="none" stroke="#63b8ff" d="M686.32,-169.72C749.71,-178.47 842.65,-191.3 893.81,-198.37"/>
<polygon fill="#63b8ff" stroke="#63b8ff" points="893.38,-201.84 903.76,-199.74 894.33,-194.91 893.38,-201.84"/>
</a>
</g>
</g>
<!-- Node25 -->
<g id="Node000025" class="node">
<title>Node25</title>
<g id="a_Node000025"><a xlink:href="act__int8_8c.html#ab1c0766c72ff5b328ace7f8354021ff8" target="_top" xlink:title=" ">
<polygon fill="white" stroke="#666666" points="814,-224 761,-224 761,-205 814,-205 814,-224"/>
<text text-anchor="middle" x="787.5" y="-212" font-family="Helvetica,sans-Serif" font-size="10.00">ie_minf</text>
</a>
</g>
</g>
<!-- Node20&#45;&gt;Node25 -->
<g id="edge28_Node000020_Node000025" class="edge">
<title>Node20&#45;&gt;Node25</title>
<g id="a_edge28_Node000020_Node000025"><a xlink:title=" ">
<path fill="none" stroke="#63b8ff" d="M666.02,-175.54C692.99,-184.26 726.42,-195.07 751.22,-203.09"/>
<polygon fill="#63b8ff" stroke="#63b8ff" points="750.34,-206.49 760.93,-206.23 752.5,-199.83 750.34,-206.49"/>
</a>
</g>
</g>
<!-- Node22 -->
<g id="Node000022" class="node">
<title>Node22</title>
<g id="a_Node000022"><a xlink:href="act__int8_8c.html#a06921ebd025375319bac8a4b43888241" target="_top" xlink:title=" ">
<polygon fill="white" stroke="#666666" points="960,-293 904,-293 904,-274 960,-274 960,-293"/>
<text text-anchor="middle" x="932" y="-281" font-family="Helvetica,sans-Serif" font-size="10.00">ie_fabsf</text>
</a>
</g>
</g>
<!-- Node21&#45;&gt;Node22 -->
<g id="edge24_Node000021_Node000022" class="edge">
<title>Node21&#45;&gt;Node22</title>
<g id="a_edge24_Node000021_Node000022"><a xlink:title=" ">
<path fill="none" stroke="#63b8ff" d="M853.08,-283.5C866.86,-283.5 880.98,-283.5 893.35,-283.5"/>
<polygon fill="#63b8ff" stroke="#63b8ff" points="893.71,-287 903.71,-283.5 893.71,-280 893.71,-287"/>
</a>
</g>
</g>
<!-- Node21&#45;&gt;Node23 -->
<g id="edge25_Node000021_Node000023" class="edge">
<title>Node21&#45;&gt;Node23</title>
<g id="a_edge25_Node000021_Node000023"><a xlink:title=" ">
<path fill="none" stroke="#63b8ff" d="M815.3,-268.45C841.01,-254.02 879.57,-232.37 905,-218.1"/>
<polygon fill="#63b8ff" stroke="#63b8ff" points="906.72,-221.14 913.73,-213.2 903.3,-215.04 906.72,-221.14"/>
</a>
</g>
</g>
<!-- Node24 -->
<g id="Node000024" class="node">
<title>Node24</title>
<g id="a_Node000024"><a xlink:href="act__int8_8c.html#a7490ce5fac2e6e5e1b7812006550be41" target="_top" xlink:title=" ">
<polygon fill="white" stroke="#666666" points="955.5,-346 908.5,-346 908.5,-327 955.5,-327 955.5,-346"/>
<text text-anchor="middle" x="932" y="-334" font-family="Helvetica,sans-Serif" font-size="10.00">ie_rne</text>
</a>
</g>
</g>
<!-- Node21&#45;&gt;Node24 -->
<g id="edge26_Node000021_Node000024" class="edge">
<title>Node21&#45;&gt;Node24</title>
<g id="a_edge26_Node000021_Node000024"><a xlink:title=" ">
<path fill="none" stroke="#63b8ff" d="M828.95,-298.55C851.02,-306.75 877.96,-316.77 898.62,-324.46"/>
<polygon fill="#63b8ff" stroke="#63b8ff" points="897.61,-327.82 908.2,-328.02 900.05,-321.25 897.61,-327.82"/>
</a>
</g>
</g>
<!-- Node27&#45;&gt;Node24 -->
<g id="edge31_Node000027_Node000024" class="edge">
<title>Node27&#45;&gt;Node24</title>
<g id="a_edge31_Node000027_Node000024"><a xlink:title=" ">
<path fill="none" stroke="#63b8ff" d="M677.2,-361.87C691.8,-360.02 707.47,-358.12 722,-356.5 784.32,-349.57 857.26,-342.92 898.4,-339.31"/>
<polygon fill="#63b8ff" stroke="#63b8ff" points="898.74,-342.79 908.4,-338.43 898.13,-335.82 898.74,-342.79"/>
</a>
</g>
</g>
<!-- Node28 -->
<g id="Node000028" class="node">
<title>Node28</title>
<g id="a_Node000028"><a xlink:href="act__int8_8c.html#adbe29326b240b464a7a7a8773210fb8f" target="_top" xlink:title=" ">
<polygon fill="white" stroke="#666666" points="817.5,-384 757.5,-384 757.5,-365 817.5,-365 817.5,-384"/>
<text text-anchor="middle" x="787.5" y="-372" font-family="Helvetica,sans-Serif" font-size="10.00">ie_sat_i8</text>
</a>
</g>
</g>
<!-- Node27&#45;&gt;Node28 -->
<g id="edge32_Node000027_Node000028" class="edge">
<title>Node27&#45;&gt;Node28</title>
<g id="a_edge32_Node000027_Node000028"><a xlink:title=" ">
<path fill="none" stroke="#63b8ff" d="M677.44,-371.23C700.49,-371.92 726.41,-372.7 747.2,-373.32"/>
<polygon fill="#63b8ff" stroke="#63b8ff" points="747.16,-376.82 757.26,-373.62 747.37,-369.83 747.16,-376.82"/>
</a>
</g>
</g>
<!-- Node29 -->
<g id="Node000029" class="node">
<title>Node29</title>
<g id="a_Node000029"><a xlink:href="act__int8_8c.html#a312c061258a9180793b777e396301655" target="_top" xlink:title=" ">
<polygon fill="white" stroke="#666666" points="830.5,-421 744.5,-421 744.5,-402 830.5,-402 830.5,-421"/>
<text text-anchor="middle" x="787.5" y="-409" font-family="Helvetica,sans-Serif" font-size="10.00">ie_sat_sym_i8</text>
</a>
</g>
</g>
<!-- Node27&#45;&gt;Node29 -->
<g id="edge33_Node000027_Node000029" class="edge">
<title>Node27&#45;&gt;Node29</title>
<g id="a_edge33_Node000027_Node000029"><a xlink:title=" ">
<path fill="none" stroke="#63b8ff" d="M677.44,-384.07C697.4,-389.09 719.52,-394.66 738.6,-399.45"/>
<polygon fill="#63b8ff" stroke="#63b8ff" points="738,-402.91 748.55,-401.96 739.71,-396.12 738,-402.91"/>
</a>
</g>
</g>
<!-- Node30&#45;&gt;Node8 -->
<g id="edge36_Node000030_Node000008" class="edge">
<title>Node30&#45;&gt;Node8</title>
<g id="a_edge36_Node000030_Node000008"><a xlink:title=" ">
<path fill="none" stroke="#63b8ff" d="M497.15,-315.97C503.36,-313.67 509.52,-310.88 515,-307.5 534.53,-295.46 531.31,-282.27 551,-270.5 559.1,-265.66 568.49,-262 577.62,-259.25"/>
<polygon fill="#63b8ff" stroke="#63b8ff" points="578.61,-262.61 587.35,-256.62 576.78,-255.85 578.61,-262.61"/>
</a>
</g>
</g>
<!-- Node30&#45;&gt;Node18 -->
<g id="edge43_Node000030_Node000018" class="edge">
<title>Node30&#45;&gt;Node18</title>
<g id="a_edge43_Node000030_Node000018"><a xlink:title=" ">
<path fill="none" stroke="#63b8ff" d="M499.08,-315.97C527.34,-309.41 564.16,-300.87 589.19,-295.07"/>
<polygon fill="#63b8ff" stroke="#63b8ff" points="590.19,-298.43 599.14,-292.76 588.61,-291.61 590.19,-298.43"/>
</a>
</g>
</g>
<!-- Node30&#45;&gt;Node21 -->
<g id="edge37_Node000030_Node000021" class="edge">
<title>Node30&#45;&gt;Node21</title>
<g id="a_edge37_Node000030_Node000021"><a xlink:title=" ">
<path fill="none" stroke="#63b8ff" d="M515.45,-323.44C561.73,-321.19 628.35,-316.6 686,-307.5 697.24,-305.73 709.08,-303.36 720.53,-300.8"/>
<polygon fill="#63b8ff" stroke="#63b8ff" points="721.51,-304.16 730.47,-298.51 719.93,-297.34 721.51,-304.16"/>
</a>
</g>
</g>
<!-- Node31 -->
<g id="Node000031" class="node">
<title>Node31</title>
<g id="a_Node000031"><a xlink:href="act__int8_8c.html#aa7d3ff181746bd40d9d863e51ac0b024" target="_top" xlink:title="Dequantize INT8 activations to fp32 using per&#45;tensor parameters.">
<polygon fill="white" stroke="#666666" points="683,-422 554,-422 554,-403 683,-403 683,-422"/>
<text text-anchor="middle" x="618.5" y="-410" font-family="Helvetica,sans-Serif" font-size="10.00">ie_dequantize_act_int8</text>
</a>
</g>
</g>
<!-- Node30&#45;&gt;Node31 -->
<g id="edge38_Node000030_Node000031" class="edge">
<title>Node30&#45;&gt;Node31</title>
<g id="a_edge38_Node000030_Node000031"><a xlink:title=" ">
<path fill="none" stroke="#63b8ff" d="M468.35,-335.01C484.72,-349.58 518.12,-377.42 551,-393.5 555.67,-395.78 560.66,-397.84 565.72,-399.67"/>
<polygon fill="#63b8ff" stroke="#63b8ff" points="564.91,-403.09 575.51,-402.94 567.13,-396.45 564.91,-403.09"/>
</a>
</g>
</g>
<!-- Node32 -->
<g id="Node000032" class="node">
<title>Node32</title>
<g id="a_Node000032"><a xlink:href="act__int8_8c.html#a6d9a5a967125879dcd69327e9d5fa04b" target="_top" xlink:title="Quantize fp32 activations to INT8 using per&#45;tensor parameters.">
<polygon fill="white" stroke="#666666" points="677,-459 560,-459 560,-440 677,-440 677,-459"/>
<text text-anchor="middle" x="618.5" y="-447" font-family="Helvetica,sans-Serif" font-size="10.00">ie_quantize_act_int8</text>
</a>
</g>
</g>
<!-- Node30&#45;&gt;Node32 -->
<g id="edge39_Node000030_Node000032" class="edge">
<title>Node30&#45;&gt;Node32</title>
<g id="a_edge39_Node000030_Node000032"><a xlink:title=" ">
<path fill="none" stroke="#63b8ff" d="M463.63,-335.09C476.39,-355.97 509.66,-405.73 551,-431.5 553.65,-433.16 556.46,-434.66 559.36,-436.03"/>
<polygon fill="#63b8ff" stroke="#63b8ff" points="558.29,-439.37 568.87,-439.95 560.96,-432.9 558.29,-439.37"/>
</a>
</g>
</g>
<!-- Node32&#45;&gt;Node24 -->
<g id="edge40_Node000032_Node000024" class="edge">
<title>Node32&#45;&gt;Node24</title>
<g id="a_edge40_Node000032_Node000024"><a xlink:title=" ">
<path fill="none" stroke="#63b8ff" d="M677.13,-456.8C726.59,-460.37 798.34,-458.94 853,-430.5 885.28,-413.71 909.34,-377.19 921.68,-354.94"/>
<polygon fill="#63b8ff" stroke="#63b8ff" points="924.78,-356.58 926.39,-346.11 918.6,-353.29 924.78,-356.58"/>
</a>
</g>
</g>
<!-- Node32&#45;&gt;Node28 -->
<g id="edge41_Node000032_Node000028" class="edge">
<title>Node32&#45;&gt;Node28</title>
<g id="a_edge41_Node000032_Node000028"><a xlink:title=" ">
<path fill="none" stroke="#63b8ff" d="M667.32,-440C673.83,-437.73 680.25,-434.93 686,-431.5 705.97,-419.57 702.16,-405.65 722,-393.5 729.74,-388.76 738.73,-385.15 747.49,-382.41"/>
<polygon fill="#63b8ff" stroke="#63b8ff" points="748.53,-385.76 757.21,-379.69 746.64,-379.02 748.53,-385.76"/>
</a>
</g>
</g>
<!-- Node32&#45;&gt;Node29 -->
<g id="edge42_Node000032_Node000029" class="edge">
<title>Node32&#45;&gt;Node29</title>
<g id="a_edge42_Node000032_Node000029"><a xlink:title=" ">
<path fill="none" stroke="#63b8ff" d="M661.64,-439.91C683.88,-434.85 711.35,-428.6 734.86,-423.25"/>
<polygon fill="#63b8ff" stroke="#63b8ff" points="735.69,-426.65 744.66,-421.02 734.13,-419.83 735.69,-426.65"/>
</a>
</g>
</g>
</g>
</svg>

<g id="navigator" transform="translate(0 0)" fill="#404254">
  <rect fill="#f2f5e9" fill-opacity="0.5" stroke="#606060" stroke-width=".5" x="0" y="0" width="60" height="60"/>
  <use id="zoomplus" xlink:href="#zoomPlus" x="17" y="9" onmousedown="handleZoom(evt,'in')"/>
  <use id="zoomminus" xlink:href="#zoomMin" x="42" y="9" onmousedown="handleZoom(evt,'out')"/>
  <use id="reset" xlink:href="#resetDef" x="30" y="36" onmousedown="handleReset()"/>
   <use id="arrowup" xlink:href="#arrowUp" x="0" y="0" onmousedown="handlePan(0,-1)"/>
  <use id="arrowright" xlink:href="#arrowRight" x="0" y="0" onmousedown="handlePan(1,0)"/>
  <use id="arrowdown" xlink:href="#arrowDown" x="0" y="0" onmousedown="handlePan(0,1)"/>
  <use id="arrowleft" xlink:href="#arrowLeft" x="0" y="0" onmousedown="handlePan(-1,0)"/>
</g>
<svg viewBox="0 0 15 15" width="100%" height="30px" preserveAspectRatio="xMaxYMin meet">
 <g id="arrow_out" transform="scale(0.3 0.3)">
  <a xlink:href="namespacegenerate__expected__tokens_ad6ceee9df7d5cc27d83e6a14f56c09af_cgraph_org.svg" target="_base">
   <rect id="button" ry="5" rx="5" y="6" x="6" height="38" width="38"
        fill="#f2f5e9" fill-opacity="0.5" stroke="#606060" stroke-width="1.0"/>
   <path id="arrow"
     d="M 11.500037,31.436501 C 11.940474,20.09759 22.043105,11.32322 32.158766,21.979434 L 37.068811,17.246167 C 37.068811,17.246167 37.088388,32 37.088388,32 L 22.160133,31.978069 C 22.160133,31.978069 26.997745,27.140456 26.997745,27.140456 C 18.528582,18.264221 13.291696,25.230495 11.500037,31.436501 z"
     style="fill:#404040;"/>
  </a>
 </g>
</svg>

<style type='text/css'>
<![CDATA[
[data-mouse-over-selected='false'] { opacity: 0.7; }
[data-mouse-over-selected='true']  { opacity: 1.0; }
]]>
</style>
<script type="application/ecmascript"><![CDATA[
document.addEventListener('DOMContentLoaded', (event) => {
  highlightEdges();
  highlightAdjacentNodes();
});
]]></script>
</svg>
