<?xml version="1.0" encoding="UTF-8" standalone="no"?>
<!DOCTYPE svg PUBLIC "-//W3C//DTD SVG 1.1//EN"
 "http://www.w3.org/Graphics/SVG/1.1/DTD/svg11.dtd">
<!-- Generated by graphviz version 2.43.0 (0)
 -->
<!-- Title: gen_q4_bytes_stream.main Pages: 1 -->
<svg width="376pt" height="209pt"
 viewBox="0.00 0.00 376.00 208.50" xmlns="http://www.w3.org/2000/svg" xmlns:xlink="http://www.w3.org/1999/xlink">

<svg id="main" version="1.1" xmlns="http://www.w3.org/2000/svg" xmlns:xlink="http://www.w3.org/1999/xlink" xml:space="preserve" onload="init(evt)">
<style type="text/css"><![CDATA[
.node, .edge {opacity: 0.7;}
.node.selected, .edge.selected {opacity: 1;}
.edge:hover path { stroke: red; }
.edge:hover polygon { stroke: red; fill: red; }
]]></style>
<script type="application/ecmascript" xlink:href="svg.min.js"/>
<svg id="graph" class="graph">
<g id="graph0" class="graph" transform="scale(1 1) rotate(0) translate(4 204.5)">
<title>gen_q4_bytes_stream.main</title>
<!-- Node1 -->
<g id="Node000001" class="node">
<title>Node1</title>
<g id="a_Node000001"><a xlink:title=" ">
<polygon fill="#999999" stroke="#666666" points="152,-99 0,-99 0,-80 152,-80 152,-99"/>
<text text-anchor="middle" x="76" y="-87" font-family="Helvetica,sans-Serif" font-size="10.00">gen_q4_bytes_stream.main</text>
</a>
</g>
</g>
<!-- Node1&#45;&gt;Node1 -->
<g id="edge4_Node000001_Node000001" class="edge">
<title>Node1&#45;&gt;Node1</title>
<g id="a_edge4_Node000001_Node000001"><a xlink:title=" ">
<path fill="none" stroke="#63b8ff" d="M44.87,-99.08C29.72,-107.73 40.1,-117 76,-117 101.24,-117 113.87,-112.42 113.87,-106.69"/>
<polygon fill="#63b8ff" stroke="#63b8ff" points="116.39,-104.25 107.13,-99.08 111.15,-108.89 116.39,-104.25"/>
</a>
</g>
</g>
<!-- Node2 -->
<g id="Node000002" class="node">
<title>Node2</title>
<g id="a_Node000002"><a xlink:href="namespacegen__q4__bytes__stream.html#ae7963ef72f9ef7d9f89c4e4765b5d28e" target="_top" xlink:title=" ">
<polygon fill="white" stroke="#666666" points="341.5,-200.5 214.5,-200.5 214.5,-170.5 341.5,-170.5 341.5,-200.5"/>
<text text-anchor="start" x="222.5" y="-188.5" font-family="Helvetica,sans-Serif" font-size="10.00">gen_q4_bytes_stream.</text>
<text text-anchor="middle" x="278" y="-177.5" font-family="Helvetica,sans-Serif" font-size="10.00">_iter_shards</text>
</a>
</g>
</g>
<!-- Node1&#45;&gt;Node2 -->
<g id="edge1_Node000001_Node000002" class="edge">
<title>Node1&#45;&gt;Node2</title>
<g id="a_edge1_Node000001_Node000002"><a xlink:title=" ">
<path fill="none" stroke="#63b8ff" d="M88.92,-99.05C108.5,-114.3 149.19,-144.2 188,-161.5 193.34,-163.88 198.96,-166.07 204.69,-168.07"/>
<polygon fill="#63b8ff" stroke="#63b8ff" points="203.78,-171.46 214.37,-171.27 205.98,-164.81 203.78,-171.46"/>
</a>
</g>
</g>
<!-- Node3 -->
<g id="Node000003" class="node">
<title>Node3</title>
<g id="a_Node000003"><a xlink:href="namespacegen__q4__bytes__stream.html#af3971e11af95fbef8d68007cd2c85e5e" target="_top" xlink:title=" ">
<polygon fill="white" stroke="#666666" points="341.5,-152.5 214.5,-152.5 214.5,-122.5 341.5,-122.5 341.5,-152.5"/>
<text text-anchor="start" x="222.5" y="-140.5" font-family="Helvetica,sans-Serif" font-size="10.00">gen_q4_bytes_stream.</text>
<text text-anchor="middle" x="278" y="-129.5" font-family="Helvetica,sans-Serif" font-size="10.00">_load_state_dict</text>
</a>
</g>
</g>
<!-- Node1&#45;&gt;Node3 -->
<g id="edge2_Node000001_Node000003" class="edge">
<title>Node1&#45;&gt;Node3</title>
<g id="a_edge2_Node000001_Node000003"><a xlink:title=" ">
<path fill="none" stroke="#63b8ff" d="M116.99,-99.1C141.98,-105.1 174.91,-113 204.39,-120.07"/>
<polygon fill="#63b8ff" stroke="#63b8ff" points="203.7,-123.51 214.24,-122.44 205.33,-116.7 203.7,-123.51"/>
</a>
</g>
</g>
<!-- Node4 -->
<g id="Node000004" class="node">
<title>Node4</title>
<g id="a_Node000004"><a xlink:href="namespacegen__q4__bytes__stream.html#ad39dbe04e04650f5ef864ab06ccf939a" target="_top" xlink:title=" ">
<polygon fill="white" stroke="#666666" points="341.5,-104.5 214.5,-104.5 214.5,-74.5 341.5,-74.5 341.5,-104.5"/>
<text text-anchor="start" x="222.5" y="-92.5" font-family="Helvetica,sans-Serif" font-size="10.00">gen_q4_bytes_stream.</text>
<text text-anchor="middle" x="278" y="-81.5" font-family="Helvetica,sans-Serif" font-size="10.00">_pack_int4_from_int8</text>
</a>
</g>
</g>
<!-- Node1&#45;&gt;Node4 -->
<g id="edge3_Node000001_Node000004" class="edge">
<title>Node1&#45;&gt;Node4</title>
<g id="a_edge3_Node000001_Node000004"><a xlink:title=" ">
<path fill="none" stroke="#63b8ff" d="M152.04,-89.5C169.02,-89.5 187.03,-89.5 203.93,-89.5"/>
<polygon fill="#63b8ff" stroke="#63b8ff" points="204.29,-93 214.29,-89.5 204.29,-86 204.29,-93"/>
</a>
</g>
</g>
<!-- Node5 -->
<g id="Node000005" class="node">
<title>Node5</title>
<g id="a_Node000005"><a xlink:href="namespacegen__q4__bytes__stream.html#a9c210240851cd20010b592be966a6fab" target="_top" xlink:title=" ">
<polygon fill="white" stroke="#666666" points="368,-56 188,-56 188,-37 368,-37 368,-56"/>
<text text-anchor="middle" x="278" y="-44" font-family="Helvetica,sans-Serif" font-size="10.00">gen_q4_bytes_stream.parse_args</text>
</a>
</g>
</g>
<!-- Node1&#45;&gt;Node5 -->
<g id="edge5_Node000001_Node000005" class="edge">
<title>Node1&#45;&gt;Node5</title>
<g id="a_edge5_Node000001_Node000005"><a xlink:title=" ">
<path fill="none" stroke="#63b8ff" d="M121.02,-79.95C141.4,-75.54 165.93,-70.24 188,-65.5 199.11,-63.11 211,-60.57 222.36,-58.14"/>
<polygon fill="#63b8ff" stroke="#63b8ff" points="223.13,-61.56 232.18,-56.05 221.66,-54.71 223.13,-61.56"/>
</a>
</g>
</g>
<!-- Node6 -->
<g id="Node000006" class="node">
<title>Node6</title>
<g id="a_Node000006"><a xlink:href="namespacegen__q4__bytes__stream.html#a1919c9467f0437530567f57b4447e600" target="_top" xlink:title=" ">
<polygon fill="white" stroke="#666666" points="359.5,-19 196.5,-19 196.5,0 359.5,0 359.5,-19"/>
<text text-anchor="middle" x="278" y="-7" font-family="Helvetica,sans-Serif" font-size="10.00">gen_q4_bytes_stream.wanted</text>
</a>
</g>
</g>
<!-- Node1&#45;&gt;Node6 -->
<g id="edge6_Node000001_Node000006" class="edge">
<title>Node1&#45;&gt;Node6</title>
<g id="a_edge6_Node000001_Node000006"><a xlink:title=" ">
<path fill="none" stroke="#63b8ff" d="M91.07,-79.99C111.54,-66.58 151.11,-42.23 188,-28.5 195.18,-25.83 202.84,-23.48 210.53,-21.44"/>
<polygon fill="#63b8ff" stroke="#63b8ff" points="211.41,-24.83 220.27,-19.01 209.72,-18.04 211.41,-24.83"/>
</a>
</g>
</g>
</g>
</svg>
</svg>

<style type='text/css'>
<![CDATA[
[data-mouse-over-selected='false'] { opacity: 0.7; }
[data-mouse-over-selected='true']  { opacity: 1.0; }
]]>
</style>
<script type="application/ecmascript"><![CDATA[
document.addEventListener('DOMContentLoaded', (event) => {
  highlightEdges();
  highlightAdjacentNodes();
});
]]></script>
</svg>
