<?xml version="1.0" encoding="UTF-8" standalone="no"?>
<!DOCTYPE svg PUBLIC "-//W3C//DTD SVG 1.1//EN"
 "http://www.w3.org/Graphics/SVG/1.1/DTD/svg11.dtd">
<!-- Generated by graphviz version 2.43.0 (0)
 -->
<!-- Title: dedup_extract_int4.main Pages: 1 -->
<!--zoomable 340 -->

<svg id="main" version="1.1" xmlns="http://www.w3.org/2000/svg" xmlns:xlink="http://www.w3.org/1999/xlink" xml:space="preserve" onload="init(evt)">
<style type="text/css"><![CDATA[
.node, .edge {opacity: 0.7;}
.node.selected, .edge.selected {opacity: 1;}
.edge:hover path { stroke: red; }
.edge:hover polygon { stroke: red; fill: red; }
]]></style>

<defs>
  <circle id="rim" cx="0" cy="0" r="7"/>
  <circle id="rim2" cx="0" cy="0" r="3.5"/>
  <g id="zoomPlus">
    <use xlink:href="#rim" fill="#404040"><set attributeName="fill" to="#808080" begin="zoomplus.mouseover" end="zoomplus.mouseout"/></use>
    <path d="M-4,0h8M0,-4v8" fill="none" stroke="white" stroke-width="1.5" pointer-events="none"/>
  </g>
  <g id="zoomMin">
    <use xlink:href="#rim" fill="#404040"><set attributeName="fill" to="#808080" begin="zoomminus.mouseover" end="zoomminus.mouseout"/></use>
    <path d="M-4,0h8" fill="none" stroke="white" stroke-width="1.5" pointer-events="none"/>
  </g>
  <g id="arrowUp" transform="translate(30 24)">
    <use xlink:href="#rim"/>
    <path pointer-events="none" fill="none" stroke="white" stroke-width="1.5" d="M0,-3.0v7 M-2.5,-0.5L0,-3.0L2.5,-0.5"/>
  </g>
  <g id="arrowRight" transform="rotate(90) translate(36 -43)">
    <use xlink:href="#rim"/>
    <path pointer-events="none" fill="none" stroke="white" stroke-width="1.5" d="M0,-3.0v7 M-2.5,-0.5L0,-3.0L2.5,-0.5"/>
  </g>
  <g id="arrowDown" transform="rotate(180) translate(-30 -48)">
    <use xlink:href="#rim"/>
    <path pointer-events="none" fill="none" stroke="white" stroke-width="1.5" d="M0,-3.0v7 M-2.5,-0.5L0,-3.0L2.5,-0.5"/>
  </g>
  <g id="arrowLeft" transform="rotate(270) translate(-36 17)">
    <use xlink:href="#rim"/>
    <path pointer-events="none" fill="none" stroke="white" stroke-width="1.5" d="M0,-3.0v7 M-2.5,-0.5L0,-3.0L2.5,-0.5"/>
  </g>
  <g id="resetDef">
    <use xlink:href="#rim2" fill="#404040"><set attributeName="fill" to="#808080" begin="reset.mouseover" end="reset.mouseout"/></use>
  </g>
</defs>
<script type="application/ecmascript">
var viewWidth = 605;
var viewHeight = 340;
var sectionId = 'dynsection-16';
</script>
<script type="application/ecmascript" xlink:href="svg.min.js"/>
<svg id="graph" class="graph">
<g id="viewport">
<title>dedup_extract_int4.main</title>
<!-- Node1 -->
<g id="Node000001" class="node">
<title>Node1</title>
<g id="a_Node000001"><a xlink:title=" ">
<polygon fill="#999999" stroke="#666666" points="138,-192.5 0,-192.5 0,-173.5 138,-173.5 138,-192.5"/>
<text text-anchor="middle" x="69" y="-180.5" font-family="Helvetica,sans-Serif" font-size="10.00">dedup_extract_int4.main</text>
</a>
</g>
</g>
<!-- Node1&#45;&gt;Node1 -->
<g id="edge17_Node000001_Node000001" class="edge">
<title>Node1&#45;&gt;Node1</title>
<g id="a_edge17_Node000001_Node000001"><a xlink:title=" ">
<path fill="none" stroke="#63b8ff" d="M44.34,-192.58C32.34,-201.23 40.56,-210.5 69,-210.5 87.66,-210.5 97.62,-206.51 98.87,-201.32"/>
<polygon fill="#63b8ff" stroke="#63b8ff" points="101.79,-199.38 93.66,-192.58 95.77,-202.97 101.79,-199.38"/>
</a>
</g>
</g>
<!-- Node2 -->
<g id="Node000002" class="node">
<title>Node2</title>
<g id="a_Node000002"><a xlink:href="namespacededup__extract__int4.html#a57d59c8c9f4c8e010b307c3aa29e66a3" target="_top" xlink:title=" ">
<polygon fill="white" stroke="#666666" points="287,-332 174,-332 174,-302 287,-302 287,-332"/>
<text text-anchor="start" x="182" y="-320" font-family="Helvetica,sans-Serif" font-size="10.00">dedup_extract_int4.</text>
<text text-anchor="middle" x="230.5" y="-309" font-family="Helvetica,sans-Serif" font-size="10.00">_bitset_popcount</text>
</a>
</g>
</g>
<!-- Node1&#45;&gt;Node2 -->
<g id="edge1_Node000001_Node000002" class="edge">
<title>Node1&#45;&gt;Node2</title>
<g id="a_edge1_Node000001_Node000002"><a xlink:title=" ">
<path fill="none" stroke="#63b8ff" d="M77.79,-192.68C94.07,-212.45 133.54,-258.14 174,-288 178.21,-291.11 182.8,-294.07 187.48,-296.84"/>
<polygon fill="#63b8ff" stroke="#63b8ff" points="186.07,-300.06 196.5,-301.9 189.49,-293.95 186.07,-300.06"/>
</a>
</g>
</g>
<!-- Node3 -->
<g id="Node000003" class="node">
<title>Node3</title>
<g id="a_Node000003"><a xlink:href="ie__device__cuda_8cu.html#a5e3d9fee84981707669f5c2398f0c4ab" target="_top" xlink:title="Row&#45;wise GEMV kernel: each thread computes one output row.">
<polygon fill="white" stroke="#666666" points="448,-198 323,-198 323,-168 448,-168 448,-198"/>
<text text-anchor="start" x="331" y="-186" font-family="Helvetica,sans-Serif" font-size="10.00">ie_gemv_rowwise_f32</text>
<text text-anchor="middle" x="385.5" y="-175" font-family="Helvetica,sans-Serif" font-size="10.00">_kernel</text>
</a>
</g>
</g>
<!-- Node1&#45;&gt;Node3 -->
<g id="edge16_Node000001_Node000003" class="edge">
<title>Node1&#45;&gt;Node3</title>
<g id="a_edge16_Node000001_Node000003"><a xlink:title=" ">
<path fill="none" stroke="#63b8ff" d="M79.5,-192.67C96.58,-209.28 134.38,-242.62 174,-255 221.94,-269.97 239.3,-270.7 287,-255 316.73,-245.21 344.83,-222.49 363.15,-205.17"/>
<polygon fill="#63b8ff" stroke="#63b8ff" points="365.66,-207.61 370.39,-198.13 360.78,-202.6 365.66,-207.61"/>
</a>
</g>
</g>
<!-- Node4 -->
<g id="Node000004" class="node">
<title>Node4</title>
<g id="a_Node000004"><a xlink:href="namespacededup__extract__int4.html#ad7443195c1d80f3a0e99221c369d9b2a" target="_top" xlink:title=" ">
<polygon fill="white" stroke="#666666" points="287,-54 174,-54 174,-24 287,-24 287,-54"/>
<text text-anchor="start" x="182" y="-42" font-family="Helvetica,sans-Serif" font-size="10.00">dedup_extract_int4.</text>
<text text-anchor="middle" x="230.5" y="-31" font-family="Helvetica,sans-Serif" font-size="10.00">_diff_default_target</text>
</a>
</g>
</g>
<!-- Node1&#45;&gt;Node4 -->
<g id="edge3_Node000001_Node000004" class="edge">
<title>Node1&#45;&gt;Node4</title>
<g id="a_edge3_Node000001_Node000004"><a xlink:title=" ">
<path fill="none" stroke="#63b8ff" d="M76.15,-173.3C90.68,-151.05 129.3,-95.75 174,-63 175.82,-61.66 177.73,-60.38 179.7,-59.16"/>
<polygon fill="#63b8ff" stroke="#63b8ff" points="181.62,-62.09 188.62,-54.14 178.19,-55.99 181.62,-62.09"/>
</a>
</g>
</g>
<!-- Node8 -->
<g id="Node000008" class="node">
<title>Node8</title>
<g id="a_Node000008"><a xlink:href="namespacededup__extract__int4.html#a4a04b8f391981f4146fcfadadde32729" target="_top" xlink:title=" ">
<polygon fill="white" stroke="#666666" points="287,-246 174,-246 174,-216 287,-216 287,-246"/>
<text text-anchor="start" x="182" y="-234" font-family="Helvetica,sans-Serif" font-size="10.00">dedup_extract_int4.</text>
<text text-anchor="middle" x="230.5" y="-223" font-family="Helvetica,sans-Serif" font-size="10.00">_load_json</text>
</a>
</g>
</g>
<!-- Node1&#45;&gt;Node8 -->
<g id="edge8_Node000001_Node000008" class="edge">
<title>Node1&#45;&gt;Node8</title>
<g id="a_edge8_Node000001_Node000008"><a xlink:title=" ">
<path fill="none" stroke="#63b8ff" d="M101.89,-192.6C121.3,-198.44 146.71,-206.09 169.75,-213.02"/>
<polygon fill="#63b8ff" stroke="#63b8ff" points="168.86,-216.41 179.45,-215.94 170.88,-209.7 168.86,-216.41"/>
</a>
</g>
</g>
<!-- Node9 -->
<g id="Node000009" class="node">
<title>Node9</title>
<g id="a_Node000009"><a xlink:href="namespacededup__extract__int4.html#a0bdd2995b409d4cc057ba6b3651c7e1a" target="_top" xlink:title=" ">
<polygon fill="white" stroke="#666666" points="287,-198 174,-198 174,-168 287,-168 287,-198"/>
<text text-anchor="start" x="182" y="-186" font-family="Helvetica,sans-Serif" font-size="10.00">dedup_extract_int4.</text>
<text text-anchor="middle" x="230.5" y="-175" font-family="Helvetica,sans-Serif" font-size="10.00">_parse_tensor_map</text>
</a>
</g>
</g>
<!-- Node1&#45;&gt;Node9 -->
<g id="edge10_Node000001_Node000009" class="edge">
<title>Node1&#45;&gt;Node9</title>
<g id="a_edge10_Node000001_Node000009"><a xlink:title=" ">
<path fill="none" stroke="#63b8ff" d="M138.11,-183C146.53,-183 155.14,-183 163.53,-183"/>
<polygon fill="#63b8ff" stroke="#63b8ff" points="163.64,-186.5 173.64,-183 163.64,-179.5 163.64,-186.5"/>
</a>
</g>
</g>
<!-- Node10 -->
<g id="Node000010" class="node">
<title>Node10</title>
<g id="a_Node000010"><a xlink:href="namespacededup__extract__int4.html#ada8bb32ca0dc04fb322d3a577018bece" target="_top" xlink:title=" ">
<polygon fill="white" stroke="#666666" points="287,-150 174,-150 174,-120 287,-120 287,-150"/>
<text text-anchor="start" x="182" y="-138" font-family="Helvetica,sans-Serif" font-size="10.00">dedup_extract_int4.</text>
<text text-anchor="middle" x="230.5" y="-127" font-family="Helvetica,sans-Serif" font-size="10.00">_read_slice</text>
</a>
</g>
</g>
<!-- Node1&#45;&gt;Node10 -->
<g id="edge12_Node000001_Node000010" class="edge">
<title>Node1&#45;&gt;Node10</title>
<g id="a_edge12_Node000001_Node000010"><a xlink:title=" ">
<path fill="none" stroke="#63b8ff" d="M101.89,-173.4C121.3,-167.56 146.71,-159.91 169.75,-152.98"/>
<polygon fill="#63b8ff" stroke="#63b8ff" points="170.88,-156.3 179.45,-150.06 168.86,-149.59 170.88,-156.3"/>
</a>
</g>
</g>
<!-- Node11 -->
<g id="Node000011" class="node">
<title>Node11</title>
<g id="a_Node000011"><a xlink:href="namespacededup__extract__int4.html#a41f75afeca7923cb3c3e94c4b8dfd855" target="_top" xlink:title=" ">
<polygon fill="white" stroke="#666666" points="287,-102 174,-102 174,-72 287,-72 287,-102"/>
<text text-anchor="start" x="182" y="-90" font-family="Helvetica,sans-Serif" font-size="10.00">dedup_extract_int4.</text>
<text text-anchor="middle" x="230.5" y="-79" font-family="Helvetica,sans-Serif" font-size="10.00">_write_json</text>
</a>
</g>
</g>
<!-- Node1&#45;&gt;Node11 -->
<g id="edge14_Node000001_Node000011" class="edge">
<title>Node1&#45;&gt;Node11</title>
<g id="a_edge14_Node000001_Node000011"><a xlink:title=" ">
<path fill="none" stroke="#63b8ff" d="M82.29,-173.29C101.23,-158.61 139.06,-130.4 174,-111 176.85,-109.42 179.82,-107.87 182.84,-106.37"/>
<polygon fill="#63b8ff" stroke="#63b8ff" points="184.46,-109.47 191.99,-102.02 181.46,-103.15 184.46,-109.47"/>
</a>
</g>
</g>
<!-- Node2&#45;&gt;Node3 -->
<g id="edge2_Node000002_Node000003" class="edge">
<title>Node2&#45;&gt;Node3</title>
<g id="a_edge2_Node000002_Node000003"><a xlink:title=" ">
<path fill="none" stroke="#63b8ff" d="M264.91,-301.9C272.47,-297.85 280.26,-293.15 287,-288 318.56,-263.91 348.67,-229.04 366.86,-206.2"/>
<polygon fill="#63b8ff" stroke="#63b8ff" points="369.81,-208.11 373.23,-198.08 364.31,-203.79 369.81,-208.11"/>
</a>
</g>
</g>
<!-- Node4&#45;&gt;Node3 -->
<g id="edge7_Node000004_Node000003" class="edge">
<title>Node4&#45;&gt;Node3</title>
<g id="a_edge7_Node000004_Node000003"><a xlink:title=" ">
<path fill="none" stroke="#63b8ff" d="M272.48,-54C277.59,-56.64 282.57,-59.64 287,-63 322.6,-89.97 353.11,-132.57 370.11,-159.09"/>
<polygon fill="#63b8ff" stroke="#63b8ff" points="367.26,-161.14 375.54,-167.75 373.19,-157.42 367.26,-161.14"/>
</a>
</g>
</g>
<!-- Node5 -->
<g id="Node000005" class="node">
<title>Node5</title>
<g id="a_Node000005"><a xlink:href="namespacededup__extract__int4.html#a5016107a71fd3ff0d055392d4bd529c3" target="_top" xlink:title=" ">
<polygon fill="white" stroke="#666666" points="442,-78 329,-78 329,-48 442,-48 442,-78"/>
<text text-anchor="start" x="337" y="-66" font-family="Helvetica,sans-Serif" font-size="10.00">dedup_extract_int4.</text>
<text text-anchor="middle" x="385.5" y="-55" font-family="Helvetica,sans-Serif" font-size="10.00">_bitset_set</text>
</a>
</g>
</g>
<!-- Node4&#45;&gt;Node5 -->
<g id="edge4_Node000004_Node000005" class="edge">
<title>Node4&#45;&gt;Node5</title>
<g id="a_edge4_Node000004_Node000005"><a xlink:title=" ">
<path fill="none" stroke="#63b8ff" d="M287.17,-47.73C297.46,-49.35 308.3,-51.05 318.86,-52.7"/>
<polygon fill="#63b8ff" stroke="#63b8ff" points="318.45,-56.18 328.87,-54.27 319.54,-49.27 318.45,-56.18"/>
</a>
</g>
</g>
<!-- Node6 -->
<g id="Node000006" class="node">
<title>Node6</title>
<g id="a_Node000006"><a xlink:href="namespacededup__extract__int4.html#a9a19e28b92742a699efc5e008e747841" target="_top" xlink:title=" ">
<polygon fill="white" stroke="#666666" points="442,-30 329,-30 329,0 442,0 442,-30"/>
<text text-anchor="start" x="337" y="-18" font-family="Helvetica,sans-Serif" font-size="10.00">dedup_extract_int4.</text>
<text text-anchor="middle" x="385.5" y="-7" font-family="Helvetica,sans-Serif" font-size="10.00">_mask_bytes</text>
</a>
</g>
</g>
<!-- Node4&#45;&gt;Node6 -->
<g id="edge5_Node000004_Node000006" class="edge">
<title>Node4&#45;&gt;Node6</title>
<g id="a_edge5_Node000004_Node000006"><a xlink:title=" ">
<path fill="none" stroke="#63b8ff" d="M287.17,-30.27C297.46,-28.65 308.3,-26.95 318.86,-25.3"/>
<polygon fill="#63b8ff" stroke="#63b8ff" points="319.54,-28.73 328.87,-23.73 318.45,-21.82 319.54,-28.73"/>
</a>
</g>
</g>
<!-- Node7 -->
<g id="Node000007" class="node">
<title>Node7</title>
<g id="a_Node000007"><a xlink:href="namespacededup__extract__int4.html#a79e4668e369ab3af8602b22e2fe13168" target="_top" xlink:title=" ">
<polygon fill="white" stroke="#666666" points="597,-30 484,-30 484,0 597,0 597,-30"/>
<text text-anchor="start" x="492" y="-18" font-family="Helvetica,sans-Serif" font-size="10.00">dedup_extract_int4.</text>
<text text-anchor="middle" x="540.5" y="-7" font-family="Helvetica,sans-Serif" font-size="10.00">_ceil_div</text>
</a>
</g>
</g>
<!-- Node6&#45;&gt;Node7 -->
<g id="edge6_Node000006_Node000007" class="edge">
<title>Node6&#45;&gt;Node7</title>
<g id="a_edge6_Node000006_Node000007"><a xlink:title=" ">
<path fill="none" stroke="#63b8ff" d="M442.17,-15C452.46,-15 463.3,-15 473.86,-15"/>
<polygon fill="#63b8ff" stroke="#63b8ff" points="473.87,-18.5 483.87,-15 473.87,-11.5 473.87,-18.5"/>
</a>
</g>
</g>
<!-- Node8&#45;&gt;Node3 -->
<g id="edge9_Node000008_Node000003" class="edge">
<title>Node8&#45;&gt;Node3</title>
<g id="a_edge9_Node000008_Node000003"><a xlink:title=" ">
<path fill="none" stroke="#63b8ff" d="M279.49,-215.94C294.59,-211.21 311.41,-205.93 327.09,-201.01"/>
<polygon fill="#63b8ff" stroke="#63b8ff" points="328.19,-204.34 336.68,-198 326.09,-197.66 328.19,-204.34"/>
</a>
</g>
</g>
<!-- Node9&#45;&gt;Node3 -->
<g id="edge11_Node000009_Node000003" class="edge">
<title>Node9&#45;&gt;Node3</title>
<g id="a_edge11_Node000009_Node000003"><a xlink:title=" ">
<path fill="none" stroke="#63b8ff" d="M287.17,-183C295.52,-183 304.23,-183 312.86,-183"/>
<polygon fill="#63b8ff" stroke="#63b8ff" points="312.92,-186.5 322.92,-183 312.92,-179.5 312.92,-186.5"/>
</a>
</g>
</g>
<!-- Node10&#45;&gt;Node3 -->
<g id="edge13_Node000010_Node000003" class="edge">
<title>Node10&#45;&gt;Node3</title>
<g id="a_edge13_Node000010_Node000003"><a xlink:title=" ">
<path fill="none" stroke="#63b8ff" d="M279.49,-150.06C294.59,-154.79 311.41,-160.07 327.09,-164.99"/>
<polygon fill="#63b8ff" stroke="#63b8ff" points="326.09,-168.34 336.68,-168 328.19,-161.66 326.09,-168.34"/>
</a>
</g>
</g>
<!-- Node11&#45;&gt;Node3 -->
<g id="edge15_Node000011_Node000003" class="edge">
<title>Node11&#45;&gt;Node3</title>
<g id="a_edge15_Node000011_Node000003"><a xlink:title=" ">
<path fill="none" stroke="#63b8ff" d="M269.39,-102C275.39,-104.77 281.45,-107.81 287,-111 312.74,-125.81 339.73,-146.17 358.77,-161.46"/>
<polygon fill="#63b8ff" stroke="#63b8ff" points="356.7,-164.29 366.67,-167.88 361.12,-158.86 356.7,-164.29"/>
</a>
</g>
</g>
</g>
</svg>

<g id="navigator" transform="translate(0 0)" fill="#404254">
  <rect fill="#f2f5e9" fill-opacity="0.5" stroke="#606060" stroke-width=".5" x="0" y="0" width="60" height="60"/>
  <use id="zoomplus" xlink:href="#zoomPlus" x="17" y="9" onmousedown="handleZoom(evt,'in')"/>
  <use id="zoomminus" xlink:href="#zoomMin" x="42" y="9" onmousedown="handleZoom(evt,'out')"/>
  <use id="reset" xlink:href="#resetDef" x="30" y="36" onmousedown="handleReset()"/>
   <use id="arrowup" xlink:href="#arrowUp" x="0" y="0" onmousedown="handlePan(0,-1)"/>
  <use id="arrowright" xlink:href="#arrowRight" x="0" y="0" onmousedown="handlePan(1,0)"/>
  <use id="arrowdown" xlink:href="#arrowDown" x="0" y="0" onmousedown="handlePan(0,1)"/>
  <use id="arrowleft" xlink:href="#arrowLeft" x="0" y="0" onmousedown="handlePan(-1,0)"/>
</g>
<svg viewBox="0 0 15 15" width="100%" height="30px" preserveAspectRatio="xMaxYMin meet">
 <g id="arrow_out" transform="scale(0.3 0.3)">
  <a xlink:href="namespacededup__extract__int4_ac97f2d8358c29021b64dc6d651c3714d_cgraph_org.svg" target="_base">
   <rect id="button" ry="5" rx="5" y="6" x="6" height="38" width="38"
        fill="#f2f5e9" fill-opacity="0.5" stroke="#606060" stroke-width="1.0"/>
   <path id="arrow"
     d="M 11.500037,31.436501 C 11.940474,20.09759 22.043105,11.32322 32.158766,21.979434 L 37.068811,17.246167 C 37.068811,17.246167 37.088388,32 37.088388,32 L 22.160133,31.978069 C 22.160133,31.978069 26.997745,27.140456 26.997745,27.140456 C 18.528582,18.264221 13.291696,25.230495 11.500037,31.436501 z"
     style="fill:#404040;"/>
  </a>
 </g>
</svg>

<style type='text/css'>
<![CDATA[
[data-mouse-over-selected='false'] { opacity: 0.7; }
[data-mouse-over-selected='true']  { opacity: 1.0; }
]]>
</style>
<script type="application/ecmascript"><![CDATA[
document.addEventListener('DOMContentLoaded', (event) => {
  highlightEdges();
  highlightAdjacentNodes();
});
]]></script>
</svg>
