<?xml version="1.0" encoding="UTF-8" standalone="no"?>
<!DOCTYPE svg PUBLIC "-//W3C//DTD SVG 1.1//EN"
 "http://www.w3.org/Graphics/SVG/1.1/DTD/svg11.dtd">
<!-- Generated by graphviz version 12.2.1 (20241206.2353)
 -->
<!-- Title: update_performance_md.main Pages: 1 -->
<svg width="634pt" height="913pt"
 viewBox="0.00 0.00 633.75 912.50" xmlns="http://www.w3.org/2000/svg" xmlns:xlink="http://www.w3.org/1999/xlink">
<g id="graph0" class="graph" transform="scale(1 1) rotate(0) translate(4 908.5)">
<title>update_performance_md.main</title>
<!-- Node1 -->
<g id="Node000001" class="node">
<title>Node1</title>
<g id="a_Node000001"><a xlink:title=" ">
<polygon fill="#999999" stroke="#666666" points="117.25,-351.5 0,-351.5 0,-318 117.25,-318 117.25,-351.5"/>
<text text-anchor="start" x="8" y="-338" font-family="Helvetica,sans-Serif" font-size="10.00">update_performance</text>
<text text-anchor="middle" x="58.62" y="-325.25" font-family="Helvetica,sans-Serif" font-size="10.00">_md.main</text>
</a>
</g>
</g>
<!-- Node1&#45;&gt;Node1 -->
<g id="edge34_Node000001_Node000001" class="edge">
<title>Node1&#45;&gt;Node1</title>
<g id="a_edge34_Node000001_Node000001"><a xlink:title=" ">
<path fill="none" stroke="#63b8ff" d="M30.74,-351.91C26,-361.12 35.3,-369.5 58.62,-369.5 71.75,-369.5 80.43,-366.85 84.67,-362.89"/>
<polygon fill="#63b8ff" stroke="#63b8ff" points="88.06,-363.85 86.26,-353.41 81.16,-362.69 88.06,-363.85"/>
</a>
</g>
</g>
<!-- Node2 -->
<g id="Node000002" class="node">
<title>Node2</title>
<g id="a_Node000002"><a xlink:href="namespaceupdate__performance__md.html#aa822beedd3ad900a093ef302f613dba7" target="_top" xlink:title=" ">
<polygon fill="white" stroke="#666666" points="272.38,-735.5 155.12,-735.5 155.12,-702 272.38,-702 272.38,-735.5"/>
<text text-anchor="start" x="163.12" y="-722" font-family="Helvetica,sans-Serif" font-size="10.00">update_performance</text>
<text text-anchor="middle" x="213.75" y="-709.25" font-family="Helvetica,sans-Serif" font-size="10.00">_md._agg</text>
</a>
</g>
</g>
<!-- Node1&#45;&gt;Node2 -->
<g id="edge1_Node000001_Node000002" class="edge">
<title>Node1&#45;&gt;Node2</title>
<g id="a_edge1_Node000001_Node000002"><a xlink:title=" ">
<path fill="none" stroke="#63b8ff" d="M64.56,-351.9C77.23,-395.23 112.8,-512.34 153.25,-605.75 166.33,-635.96 184.26,-669.14 197,-691.68"/>
<polygon fill="#63b8ff" stroke="#63b8ff" points="193.88,-693.28 201.88,-700.22 199.96,-689.8 193.88,-693.28"/>
</a>
</g>
</g>
<!-- Node10 -->
<g id="Node000010" class="node">
<title>Node10</title>
<g id="a_Node000010"><a xlink:href="namespaceupdate__performance__md.html#a88eb703199878325a3c8eb44a6fca5ac" target="_top" xlink:title=" ">
<polygon fill="white" stroke="#666666" points="450,-615.5 332.75,-615.5 332.75,-582 450,-582 450,-615.5"/>
<text text-anchor="start" x="340.75" y="-602" font-family="Helvetica,sans-Serif" font-size="10.00">update_performance</text>
<text text-anchor="middle" x="391.38" y="-589.25" font-family="Helvetica,sans-Serif" font-size="10.00">_md._filesize</text>
</a>
</g>
</g>
<!-- Node1&#45;&gt;Node10 -->
<g id="edge11_Node000001_Node000010" class="edge">
<title>Node1&#45;&gt;Node10</title>
<g id="a_edge11_Node000001_Node000010"><a xlink:title=" ">
<path fill="none" stroke="#63b8ff" d="M61.55,-351.95C67.19,-393.74 87.67,-501.02 153.25,-553.75 200.31,-591.58 269.52,-601.08 321.04,-602.16"/>
<polygon fill="#63b8ff" stroke="#63b8ff" points="320.86,-605.66 330.89,-602.25 320.93,-598.66 320.86,-605.66"/>
</a>
</g>
</g>
<!-- Node11 -->
<g id="Node000011" class="node">
<title>Node11</title>
<g id="a_Node000011"><a xlink:href="namespaceupdate__performance__md.html#a686e7769dbdebc33f261f7596cb5cd18" target="_top" xlink:title=" ">
<polygon fill="white" stroke="#666666" points="451.12,-563.5 331.62,-563.5 331.62,-530 451.12,-530 451.12,-563.5"/>
<text text-anchor="start" x="339.62" y="-550" font-family="Helvetica,sans-Serif" font-size="10.00">update_performance</text>
<text text-anchor="middle" x="391.38" y="-537.25" font-family="Helvetica,sans-Serif" font-size="10.00">_md._find_model_bin</text>
</a>
</g>
</g>
<!-- Node1&#45;&gt;Node11 -->
<g id="edge12_Node000001_Node000011" class="edge">
<title>Node1&#45;&gt;Node11</title>
<g id="a_edge12_Node000001_Node000011"><a xlink:title=" ">
<path fill="none" stroke="#63b8ff" d="M62.49,-351.85C69.86,-389.86 93.26,-481.28 153.25,-522.75 201.59,-556.16 269.26,-559.89 319.95,-556.59"/>
<polygon fill="#63b8ff" stroke="#63b8ff" points="319.93,-560.1 329.64,-555.84 319.4,-553.12 319.93,-560.1"/>
</a>
</g>
</g>
<!-- Node12 -->
<g id="Node000012" class="node">
<title>Node12</title>
<g id="a_Node000012"><a xlink:href="namespaceupdate__performance__md.html#abe82b6ec47b6fc78fb19bb37a6726fce" target="_top" xlink:title=" ">
<polygon fill="white" stroke="#666666" points="272.38,-461.5 155.12,-461.5 155.12,-428 272.38,-428 272.38,-461.5"/>
<text text-anchor="start" x="163.12" y="-448" font-family="Helvetica,sans-Serif" font-size="10.00">update_performance</text>
<text text-anchor="middle" x="213.75" y="-435.25" font-family="Helvetica,sans-Serif" font-size="10.00">_md._merge_shared</text>
</a>
</g>
</g>
<!-- Node1&#45;&gt;Node12 -->
<g id="edge13_Node000001_Node000012" class="edge">
<title>Node1&#45;&gt;Node12</title>
<g id="a_edge13_Node000001_Node000012"><a xlink:title=" ">
<path fill="none" stroke="#63b8ff" d="M75.54,-351.99C93.18,-370.35 123.13,-399.38 153.25,-418.75 155.1,-419.94 157.01,-421.1 158.97,-422.22"/>
<polygon fill="#63b8ff" stroke="#63b8ff" points="157.2,-425.25 167.67,-426.86 160.49,-419.07 157.2,-425.25"/>
</a>
</g>
</g>
<!-- Node13 -->
<g id="Node000013" class="node">
<title>Node13</title>
<g id="a_Node000013"><a xlink:href="namespaceupdate__performance__md.html#a17ae6536535cdd081f87d0a1f28fe161" target="_top" xlink:title=" ">
<polygon fill="white" stroke="#666666" points="272.38,-409.5 155.12,-409.5 155.12,-376 272.38,-376 272.38,-409.5"/>
<text text-anchor="start" x="163.12" y="-396" font-family="Helvetica,sans-Serif" font-size="10.00">update_performance</text>
<text text-anchor="middle" x="213.75" y="-383.25" font-family="Helvetica,sans-Serif" font-size="10.00">_md._parse</text>
</a>
</g>
</g>
<!-- Node1&#45;&gt;Node13 -->
<g id="edge14_Node000001_Node000013" class="edge">
<title>Node1&#45;&gt;Node13</title>
<g id="a_edge14_Node000001_Node000013"><a xlink:title=" ">
<path fill="none" stroke="#63b8ff" d="M105.15,-351.99C121.43,-358.16 139.97,-365.18 157.01,-371.64"/>
<polygon fill="#63b8ff" stroke="#63b8ff" points="155.39,-374.77 165.98,-375.04 157.87,-368.22 155.39,-374.77"/>
</a>
</g>
</g>
<!-- Node14 -->
<g id="Node000014" class="node">
<title>Node14</title>
<g id="a_Node000014"><a xlink:href="namespaceupdate__performance__md.html#ac4d341cc6dc059359d9ed3dd061352d5" target="_top" xlink:title=" ">
<polygon fill="white" stroke="#666666" points="272.38,-357.88 155.12,-357.88 155.12,-311.62 272.38,-311.62 272.38,-357.88"/>
<text text-anchor="start" x="163.12" y="-344.38" font-family="Helvetica,sans-Serif" font-size="10.00">update_performance</text>
<text text-anchor="start" x="163.12" y="-331.62" font-family="Helvetica,sans-Serif" font-size="10.00">_md._partition_runs</text>
<text text-anchor="middle" x="213.75" y="-318.88" font-family="Helvetica,sans-Serif" font-size="10.00">_and_summary</text>
</a>
</g>
</g>
<!-- Node1&#45;&gt;Node14 -->
<g id="edge15_Node000001_Node000014" class="edge">
<title>Node1&#45;&gt;Node14</title>
<g id="a_edge15_Node000001_Node000014"><a xlink:title=" ">
<path fill="none" stroke="#63b8ff" d="M117.51,-334.75C125.99,-334.75 134.8,-334.75 143.48,-334.75"/>
<polygon fill="#63b8ff" stroke="#63b8ff" points="143.26,-338.25 153.26,-334.75 143.26,-331.25 143.26,-338.25"/>
</a>
</g>
</g>
<!-- Node15 -->
<g id="Node000015" class="node">
<title>Node15</title>
<g id="a_Node000015"><a xlink:href="namespaceupdate__performance__md.html#a58798198c090e92e0b0e5886cb68d58a" target="_top" xlink:title=" ">
<polygon fill="white" stroke="#666666" points="272.38,-293.5 155.12,-293.5 155.12,-260 272.38,-260 272.38,-293.5"/>
<text text-anchor="start" x="163.12" y="-280" font-family="Helvetica,sans-Serif" font-size="10.00">update_performance</text>
<text text-anchor="middle" x="213.75" y="-267.25" font-family="Helvetica,sans-Serif" font-size="10.00">_md._pick_first</text>
</a>
</g>
</g>
<!-- Node1&#45;&gt;Node15 -->
<g id="edge16_Node000001_Node000015" class="edge">
<title>Node1&#45;&gt;Node15</title>
<g id="a_edge16_Node000001_Node000015"><a xlink:title=" ">
<path fill="none" stroke="#63b8ff" d="M105.15,-317.51C121.43,-311.34 139.97,-304.32 157.01,-297.86"/>
<polygon fill="#63b8ff" stroke="#63b8ff" points="157.87,-301.28 165.98,-294.46 155.39,-294.73 157.87,-301.28"/>
</a>
</g>
</g>
<!-- Node16 -->
<g id="Node000016" class="node">
<title>Node16</title>
<g id="a_Node000016"><a xlink:href="namespaceupdate__performance__md.html#a9bc426f3865fd06809eade1e79ea91a4" target="_top" xlink:title=" ">
<polygon fill="white" stroke="#666666" points="274.25,-241.5 153.25,-241.5 153.25,-208 274.25,-208 274.25,-241.5"/>
<text text-anchor="start" x="161.25" y="-228" font-family="Helvetica,sans-Serif" font-size="10.00">update_performance</text>
<text text-anchor="middle" x="213.75" y="-215.25" font-family="Helvetica,sans-Serif" font-size="10.00">_md._read_json_lines</text>
</a>
</g>
</g>
<!-- Node1&#45;&gt;Node16 -->
<g id="edge17_Node000001_Node000016" class="edge">
<title>Node1&#45;&gt;Node16</title>
<g id="a_edge17_Node000001_Node000016"><a xlink:title=" ">
<path fill="none" stroke="#63b8ff" d="M75.54,-317.51C93.18,-299.15 123.13,-270.12 153.25,-250.75 155.1,-249.56 157.01,-248.4 158.97,-247.28"/>
<polygon fill="#63b8ff" stroke="#63b8ff" points="160.49,-250.43 167.67,-242.64 157.2,-244.25 160.49,-250.43"/>
</a>
</g>
</g>
<!-- Node17 -->
<g id="Node000017" class="node">
<title>Node17</title>
<g id="a_Node000017"><a xlink:href="namespaceupdate__performance__md.html#aa6279954597713b99c29f22496f5beb6" target="_top" xlink:title=" ">
<polygon fill="white" stroke="#666666" points="272.38,-189.5 155.12,-189.5 155.12,-156 272.38,-156 272.38,-189.5"/>
<text text-anchor="start" x="163.12" y="-176" font-family="Helvetica,sans-Serif" font-size="10.00">update_performance</text>
<text text-anchor="middle" x="213.75" y="-163.25" font-family="Helvetica,sans-Serif" font-size="10.00">_md._render_device</text>
</a>
</g>
</g>
<!-- Node1&#45;&gt;Node17 -->
<g id="edge18_Node000001_Node000017" class="edge">
<title>Node1&#45;&gt;Node17</title>
<g id="a_edge18_Node000001_Node000017"><a xlink:title=" ">
<path fill="none" stroke="#63b8ff" d="M67.35,-317.87C81.01,-289.71 111.91,-232.87 153.25,-198.75 154.37,-197.82 155.54,-196.92 156.73,-196.05"/>
<polygon fill="#63b8ff" stroke="#63b8ff" points="158.58,-199.02 165.12,-190.69 154.81,-193.12 158.58,-199.02"/>
</a>
</g>
</g>
<!-- Node22 -->
<g id="Node000022" class="node">
<title>Node22</title>
<g id="a_Node000022"><a xlink:href="namespaceupdate__performance__md.html#a7638e6f2223e8b49afbcf5ef17a4eb8c" target="_top" xlink:title=" ">
<polygon fill="white" stroke="#666666" points="272.38,-137.5 155.12,-137.5 155.12,-104 272.38,-104 272.38,-137.5"/>
<text text-anchor="start" x="163.12" y="-124" font-family="Helvetica,sans-Serif" font-size="10.00">update_performance</text>
<text text-anchor="middle" x="213.75" y="-111.25" font-family="Helvetica,sans-Serif" font-size="10.00">_md._render_shared</text>
</a>
</g>
</g>
<!-- Node1&#45;&gt;Node22 -->
<g id="edge23_Node000001_Node000022" class="edge">
<title>Node1&#45;&gt;Node22</title>
<g id="a_edge23_Node000001_Node000022"><a xlink:title=" ">
<path fill="none" stroke="#63b8ff" d="M63.88,-317.56C73.68,-281.33 101.07,-196.38 153.25,-146.75 154.13,-145.91 155.04,-145.1 155.97,-144.32"/>
<polygon fill="#63b8ff" stroke="#63b8ff" points="157.68,-147.4 163.79,-138.74 153.61,-141.7 157.68,-147.4"/>
</a>
</g>
</g>
<!-- Node23 -->
<g id="Node000023" class="node">
<title>Node23</title>
<g id="a_Node000023"><a xlink:href="namespaceupdate__performance__md.html#ae2f704218ec574584f252cc8112f62f3" target="_top" xlink:title=" ">
<polygon fill="white" stroke="#666666" points="272.75,-513.5 154.75,-513.5 154.75,-480 272.75,-480 272.75,-513.5"/>
<text text-anchor="start" x="162.75" y="-500" font-family="Helvetica,sans-Serif" font-size="10.00">update_performance</text>
<text text-anchor="middle" x="213.75" y="-487.25" font-family="Helvetica,sans-Serif" font-size="10.00">_md._render_system</text>
</a>
</g>
</g>
<!-- Node1&#45;&gt;Node23 -->
<g id="edge24_Node000001_Node000023" class="edge">
<title>Node1&#45;&gt;Node23</title>
<g id="a_edge24_Node000001_Node000023"><a xlink:title=" ">
<path fill="none" stroke="#63b8ff" d="M67.35,-351.63C81.01,-379.79 111.91,-436.63 153.25,-470.75 154.37,-471.68 155.54,-472.58 156.73,-473.45"/>
<polygon fill="#63b8ff" stroke="#63b8ff" points="154.81,-476.38 165.12,-478.81 158.58,-470.48 154.81,-476.38"/>
</a>
</g>
</g>
<!-- Node29 -->
<g id="Node000029" class="node">
<title>Node29</title>
<g id="a_Node000029"><a xlink:href="namespaceupdate__performance__md.html#ab6c1860d6b58938b3e07103ead71212c" target="_top" xlink:title=" ">
<polygon fill="white" stroke="#666666" points="272.38,-85.5 155.12,-85.5 155.12,-52 272.38,-52 272.38,-85.5"/>
<text text-anchor="start" x="163.12" y="-72" font-family="Helvetica,sans-Serif" font-size="10.00">update_performance</text>
<text text-anchor="middle" x="213.75" y="-59.25" font-family="Helvetica,sans-Serif" font-size="10.00">_md._render_table</text>
</a>
</g>
</g>
<!-- Node1&#45;&gt;Node29 -->
<g id="edge32_Node000001_Node000029" class="edge">
<title>Node1&#45;&gt;Node29</title>
<g id="a_edge32_Node000001_Node000029"><a xlink:title=" ">
<path fill="none" stroke="#63b8ff" d="M61.77,-317.53C68.01,-274.44 89.88,-160.7 153.25,-94.75 153.85,-94.13 154.47,-93.51 155.1,-92.92"/>
<polygon fill="#63b8ff" stroke="#63b8ff" points="157.17,-95.74 162.92,-86.84 152.88,-90.21 157.17,-95.74"/>
</a>
</g>
</g>
<!-- Node30 -->
<g id="Node000030" class="node">
<title>Node30</title>
<g id="a_Node000030"><a xlink:href="namespaceupdate__performance__md.html#ad51cd35cde32ba00a7491d0c8c27573f" target="_top" xlink:title=" ">
<polygon fill="white" stroke="#666666" points="272.38,-33.5 155.12,-33.5 155.12,0 272.38,0 272.38,-33.5"/>
<text text-anchor="start" x="163.12" y="-20" font-family="Helvetica,sans-Serif" font-size="10.00">update_performance</text>
<text text-anchor="middle" x="213.75" y="-7.25" font-family="Helvetica,sans-Serif" font-size="10.00">_md._take_last3</text>
</a>
</g>
</g>
<!-- Node1&#45;&gt;Node30 -->
<g id="edge33_Node000001_Node000030" class="edge">
<title>Node1&#45;&gt;Node30</title>
<g id="a_edge33_Node000001_Node000030"><a xlink:title=" ">
<path fill="none" stroke="#63b8ff" d="M60.37,-317.54C63.39,-268.37 78.5,-125.52 153.25,-42.75 153.82,-42.12 154.4,-41.51 155,-40.91"/>
<polygon fill="#63b8ff" stroke="#63b8ff" points="156.89,-43.88 162.44,-34.85 152.47,-38.46 156.89,-43.88"/>
</a>
</g>
</g>
<!-- Node3 -->
<g id="Node000003" class="node">
<title>Node3</title>
<g id="a_Node000003"><a xlink:href="namespaceupdate__performance__md.html#ad85fa0c1fbe674e652d3c7e25cb5476b" target="_top" xlink:title=" ">
<polygon fill="white" stroke="#666666" points="450,-850.5 332.75,-850.5 332.75,-817 450,-817 450,-850.5"/>
<text text-anchor="start" x="340.75" y="-837" font-family="Helvetica,sans-Serif" font-size="10.00">update_performance</text>
<text text-anchor="middle" x="391.38" y="-824.25" font-family="Helvetica,sans-Serif" font-size="10.00">_md._agg_numeric</text>
</a>
</g>
</g>
<!-- Node2&#45;&gt;Node3 -->
<g id="edge2_Node000002_Node000003" class="edge">
<title>Node2&#45;&gt;Node3</title>
<g id="a_edge2_Node000002_Node000003"><a xlink:title=" ">
<path fill="none" stroke="#63b8ff" d="M231.46,-735.69C249.62,-753.4 280.08,-781.16 310.25,-799.75 317.41,-804.16 325.23,-808.26 333.11,-811.97"/>
<polygon fill="#63b8ff" stroke="#63b8ff" points="331.49,-815.09 342.05,-816.01 334.37,-808.7 331.49,-815.09"/>
</a>
</g>
</g>
<!-- Node5 -->
<g id="Node000005" class="node">
<title>Node5</title>
<g id="a_Node000005"><a xlink:href="namespaceupdate__performance__md.html#a0a92266d40ea5f29cd6587638192c323" target="_top" xlink:title=" ">
<polygon fill="white" stroke="#666666" points="625.75,-800.5 508.5,-800.5 508.5,-767 625.75,-767 625.75,-800.5"/>
<text text-anchor="start" x="516.5" y="-787" font-family="Helvetica,sans-Serif" font-size="10.00">update_performance</text>
<text text-anchor="middle" x="567.12" y="-774.25" font-family="Helvetica,sans-Serif" font-size="10.00">_md._mean</text>
</a>
</g>
</g>
<!-- Node2&#45;&gt;Node5 -->
<g id="edge8_Node000002_Node000005" class="edge">
<title>Node2&#45;&gt;Node5</title>
<g id="a_edge8_Node000002_Node000005"><a xlink:title=" ">
<path fill="none" stroke="#63b8ff" d="M241.57,-735.89C260.1,-746.79 285.72,-760.07 310.25,-766.75 371.75,-783.51 444.49,-786.84 496.67,-786.52"/>
<polygon fill="#63b8ff" stroke="#63b8ff" points="496.66,-790.02 506.62,-786.41 496.58,-783.02 496.66,-790.02"/>
</a>
</g>
</g>
<!-- Node7 -->
<g id="Node000007" class="node">
<title>Node7</title>
<g id="a_Node000007"><a xlink:href="namespaceupdate__performance__md.html#adba0036b37ceae9c03dfb96407283aeb" target="_top" xlink:title=" ">
<polygon fill="white" stroke="#666666" points="450,-757.5 332.75,-757.5 332.75,-724 450,-724 450,-757.5"/>
<text text-anchor="start" x="340.75" y="-744" font-family="Helvetica,sans-Serif" font-size="10.00">update_performance</text>
<text text-anchor="middle" x="391.38" y="-731.25" font-family="Helvetica,sans-Serif" font-size="10.00">_md._agg_sum</text>
</a>
</g>
</g>
<!-- Node2&#45;&gt;Node7 -->
<g id="edge6_Node000002_Node000007" class="edge">
<title>Node2&#45;&gt;Node7</title>
<g id="a_edge6_Node000002_Node000007"><a xlink:title=" ">
<path fill="none" stroke="#63b8ff" d="M272.74,-726.01C288.33,-727.97 305.34,-730.1 321.46,-732.12"/>
<polygon fill="#63b8ff" stroke="#63b8ff" points="320.58,-735.53 330.94,-733.3 321.45,-728.59 320.58,-735.53"/>
</a>
</g>
</g>
<!-- Node8 -->
<g id="Node000008" class="node">
<title>Node8</title>
<g id="a_Node000008"><a xlink:href="namespaceupdate__performance__md.html#a58569c9d780e11c4bd776e9ae8fba715" target="_top" xlink:title=" ">
<polygon fill="white" stroke="#666666" points="625.75,-730.5 508.5,-730.5 508.5,-697 625.75,-697 625.75,-730.5"/>
<text text-anchor="start" x="516.5" y="-717" font-family="Helvetica,sans-Serif" font-size="10.00">update_performance</text>
<text text-anchor="middle" x="567.12" y="-704.25" font-family="Helvetica,sans-Serif" font-size="10.00">_md._sum_f</text>
</a>
</g>
</g>
<!-- Node2&#45;&gt;Node8 -->
<g id="edge9_Node000002_Node000008" class="edge">
<title>Node2&#45;&gt;Node8</title>
<g id="a_edge9_Node000002_Node000008"><a xlink:title=" ">
<path fill="none" stroke="#63b8ff" d="M272.82,-715.97C285.17,-715.47 298.14,-715.03 310.25,-714.75 373.42,-713.3 445.39,-713.16 496.87,-713.31"/>
<polygon fill="#63b8ff" stroke="#63b8ff" points="496.67,-716.81 506.68,-713.34 496.69,-709.81 496.67,-716.81"/>
</a>
</g>
</g>
<!-- Node9 -->
<g id="Node000009" class="node">
<title>Node9</title>
<g id="a_Node000009"><a xlink:href="namespaceupdate__performance__md.html#a4af1c202680564086d3bef963f814780" target="_top" xlink:title=" ">
<polygon fill="white" stroke="#666666" points="450,-667.5 332.75,-667.5 332.75,-634 450,-634 450,-667.5"/>
<text text-anchor="start" x="340.75" y="-654" font-family="Helvetica,sans-Serif" font-size="10.00">update_performance</text>
<text text-anchor="middle" x="391.38" y="-641.25" font-family="Helvetica,sans-Serif" font-size="10.00">_md._sum_i</text>
</a>
</g>
</g>
<!-- Node2&#45;&gt;Node9 -->
<g id="edge10_Node000002_Node000009" class="edge">
<title>Node2&#45;&gt;Node9</title>
<g id="a_edge10_Node000002_Node000009"><a xlink:title=" ">
<path fill="none" stroke="#63b8ff" d="M258.97,-701.61C275.11,-695.36 293.5,-688.23 310.25,-681.75 318.37,-678.61 326.95,-675.29 335.36,-672.03"/>
<polygon fill="#63b8ff" stroke="#63b8ff" points="336.4,-675.38 344.46,-668.51 333.87,-668.85 336.4,-675.38"/>
</a>
</g>
</g>
<!-- Node4 -->
<g id="Node000004" class="node">
<title>Node4</title>
<g id="a_Node000004"><a xlink:href="namespaceupdate__performance__md.html#a91f019a522a78e6359ae3101f456bfa3" target="_top" xlink:title=" ">
<polygon fill="white" stroke="#666666" points="625.75,-852.5 508.5,-852.5 508.5,-819 625.75,-819 625.75,-852.5"/>
<text text-anchor="start" x="516.5" y="-839" font-family="Helvetica,sans-Serif" font-size="10.00">update_performance</text>
<text text-anchor="middle" x="567.12" y="-826.25" font-family="Helvetica,sans-Serif" font-size="10.00">_md._max_or_none</text>
</a>
</g>
</g>
<!-- Node3&#45;&gt;Node4 -->
<g id="edge3_Node000003_Node000004" class="edge">
<title>Node3&#45;&gt;Node4</title>
<g id="a_edge3_Node000003_Node000004"><a xlink:title=" ">
<path fill="none" stroke="#63b8ff" d="M450.23,-834.42C465.24,-834.59 481.57,-834.78 497.09,-834.96"/>
<polygon fill="#63b8ff" stroke="#63b8ff" points="496.67,-838.45 506.71,-835.07 496.75,-831.45 496.67,-838.45"/>
</a>
</g>
</g>
<!-- Node3&#45;&gt;Node5 -->
<g id="edge4_Node000003_Node000005" class="edge">
<title>Node3&#45;&gt;Node5</title>
<g id="a_edge4_Node000003_Node000005"><a xlink:title=" ">
<path fill="none" stroke="#63b8ff" d="M450.23,-817.1C465.39,-812.74 481.88,-807.99 497.54,-803.49"/>
<polygon fill="#63b8ff" stroke="#63b8ff" points="498.13,-806.96 506.77,-800.83 496.19,-800.23 498.13,-806.96"/>
</a>
</g>
</g>
<!-- Node6 -->
<g id="Node000006" class="node">
<title>Node6</title>
<g id="a_Node000006"><a xlink:href="namespaceupdate__performance__md.html#a324f3044150ad284473b7a900c0a2765" target="_top" xlink:title=" ">
<polygon fill="white" stroke="#666666" points="625.75,-904.5 508.5,-904.5 508.5,-871 625.75,-871 625.75,-904.5"/>
<text text-anchor="start" x="516.5" y="-891" font-family="Helvetica,sans-Serif" font-size="10.00">update_performance</text>
<text text-anchor="middle" x="567.12" y="-878.25" font-family="Helvetica,sans-Serif" font-size="10.00">_md._min_or_none</text>
</a>
</g>
</g>
<!-- Node3&#45;&gt;Node6 -->
<g id="edge5_Node000003_Node000006" class="edge">
<title>Node3&#45;&gt;Node6</title>
<g id="a_edge5_Node000003_Node000006"><a xlink:title=" ">
<path fill="none" stroke="#63b8ff" d="M447.83,-850.98C464.52,-856.17 483.01,-861.92 500.31,-867.29"/>
<polygon fill="#63b8ff" stroke="#63b8ff" points="498.87,-870.51 509.46,-870.14 500.94,-863.83 498.87,-870.51"/>
</a>
</g>
</g>
<!-- Node7&#45;&gt;Node8 -->
<g id="edge7_Node000007_Node000008" class="edge">
<title>Node7&#45;&gt;Node8</title>
<g id="a_edge7_Node000007_Node000008"><a xlink:title=" ">
<path fill="none" stroke="#63b8ff" d="M450.23,-731.76C465.24,-729.43 481.57,-726.89 497.09,-724.48"/>
<polygon fill="#63b8ff" stroke="#63b8ff" points="497.39,-727.97 506.73,-722.98 496.31,-721.06 497.39,-727.97"/>
</a>
</g>
</g>
<!-- Node18 -->
<g id="Node000018" class="node">
<title>Node18</title>
<g id="a_Node000018"><a xlink:href="namespaceupdate__performance__md.html#a4093efa4a4b832d477bd5b012b9e36ca" target="_top" xlink:title=" ">
<polygon fill="white" stroke="#666666" points="453.75,-241.5 329,-241.5 329,-208 453.75,-208 453.75,-241.5"/>
<text text-anchor="start" x="337" y="-228" font-family="Helvetica,sans-Serif" font-size="10.00">update_performance</text>
<text text-anchor="middle" x="391.38" y="-215.25" font-family="Helvetica,sans-Serif" font-size="10.00">_md._bandwidth_gbps</text>
</a>
</g>
</g>
<!-- Node17&#45;&gt;Node18 -->
<g id="edge19_Node000017_Node000018" class="edge">
<title>Node17&#45;&gt;Node18</title>
<g id="a_edge19_Node000017_Node000018"><a xlink:title=" ">
<path fill="none" stroke="#63b8ff" d="M272.74,-189.92C288.25,-194.51 305.16,-199.52 321.2,-204.27"/>
<polygon fill="#63b8ff" stroke="#63b8ff" points="320.11,-207.6 330.69,-207.08 322.1,-200.88 320.11,-207.6"/>
</a>
</g>
</g>
<!-- Node20 -->
<g id="Node000020" class="node">
<title>Node20</title>
<g id="a_Node000020"><a xlink:href="namespaceupdate__performance__md.html#a7784dd84e748de0bac09a6ec05a0ab1e" target="_top" xlink:title=" ">
<polygon fill="white" stroke="#666666" points="450,-189.5 332.75,-189.5 332.75,-156 450,-156 450,-189.5"/>
<text text-anchor="start" x="340.75" y="-176" font-family="Helvetica,sans-Serif" font-size="10.00">update_performance</text>
<text text-anchor="middle" x="391.38" y="-163.25" font-family="Helvetica,sans-Serif" font-size="10.00">_md._bytes_touched</text>
</a>
</g>
</g>
<!-- Node17&#45;&gt;Node20 -->
<g id="edge21_Node000017_Node000020" class="edge">
<title>Node17&#45;&gt;Node20</title>
<g id="a_edge21_Node000017_Node000020"><a xlink:title=" ">
<path fill="none" stroke="#63b8ff" d="M272.74,-172.75C288.18,-172.75 305.01,-172.75 320.99,-172.75"/>
<polygon fill="#63b8ff" stroke="#63b8ff" points="320.93,-176.25 330.93,-172.75 320.93,-169.25 320.93,-176.25"/>
</a>
</g>
</g>
<!-- Node21 -->
<g id="Node000021" class="node">
<title>Node21</title>
<g id="a_Node000021"><a xlink:href="namespaceupdate__performance__md.html#abf22fbfdc994349f7c3f7dbdafde0ae1" target="_top" xlink:title=" ">
<polygon fill="white" stroke="#666666" points="472.12,-137.5 310.62,-137.5 310.62,-104 472.12,-104 472.12,-137.5"/>
<text text-anchor="start" x="318.62" y="-124" font-family="Helvetica,sans-Serif" font-size="10.00">update_performance</text>
<text text-anchor="middle" x="391.38" y="-111.25" font-family="Helvetica,sans-Serif" font-size="10.00">_md._render_memory_details</text>
</a>
</g>
</g>
<!-- Node17&#45;&gt;Node21 -->
<g id="edge22_Node000017_Node000021" class="edge">
<title>Node17&#45;&gt;Node21</title>
<g id="a_edge22_Node000017_Node000021"><a xlink:title=" ">
<path fill="none" stroke="#63b8ff" d="M272.74,-155.58C288.25,-150.99 305.16,-145.98 321.2,-141.23"/>
<polygon fill="#63b8ff" stroke="#63b8ff" points="322.1,-144.62 330.69,-138.42 320.11,-137.9 322.1,-144.62"/>
</a>
</g>
</g>
<!-- Node19 -->
<g id="Node000019" class="node">
<title>Node19</title>
<g id="a_Node000019"><a xlink:href="namespaceupdate__performance__md.html#a4ccc20cb0021ee1fdf18fa3d38860810" target="_top" xlink:title=" ">
<polygon fill="white" stroke="#666666" points="625.75,-241.5 508.5,-241.5 508.5,-208 625.75,-208 625.75,-241.5"/>
<text text-anchor="start" x="516.5" y="-228" font-family="Helvetica,sans-Serif" font-size="10.00">update_performance</text>
<text text-anchor="middle" x="567.12" y="-215.25" font-family="Helvetica,sans-Serif" font-size="10.00">_md._bytes_to_gb</text>
</a>
</g>
</g>
<!-- Node18&#45;&gt;Node19 -->
<g id="edge20_Node000018_Node000019" class="edge">
<title>Node18&#45;&gt;Node19</title>
<g id="a_edge20_Node000018_Node000019"><a xlink:title=" ">
<path fill="none" stroke="#63b8ff" d="M454.12,-224.75C467.98,-224.75 482.76,-224.75 496.9,-224.75"/>
<polygon fill="#63b8ff" stroke="#63b8ff" points="496.55,-228.25 506.55,-224.75 496.55,-221.25 496.55,-228.25"/>
</a>
</g>
</g>
<!-- Node23&#45;&gt;Node10 -->
<g id="edge30_Node000023_Node000010" class="edge">
<title>Node23&#45;&gt;Node10</title>
<g id="a_edge30_Node000023_Node000010"><a xlink:title=" ">
<path fill="none" stroke="#63b8ff" d="M232.03,-513.71C250.17,-530.71 280.2,-556.61 310.25,-572.75 313.95,-574.74 317.82,-576.6 321.78,-578.35"/>
<polygon fill="#63b8ff" stroke="#63b8ff" points="320.45,-581.59 331.04,-582.14 323.11,-575.11 320.45,-581.59"/>
</a>
</g>
</g>
<!-- Node23&#45;&gt;Node11 -->
<g id="edge31_Node000023_Node000011" class="edge">
<title>Node23&#45;&gt;Node11</title>
<g id="a_edge31_Node000023_Node000011"><a xlink:title=" ">
<path fill="none" stroke="#63b8ff" d="M273.23,-513.4C288.39,-517.72 304.87,-522.41 320.55,-526.87"/>
<polygon fill="#63b8ff" stroke="#63b8ff" points="319.22,-530.13 329.8,-529.5 321.14,-523.4 319.22,-530.13"/>
</a>
</g>
</g>
<!-- Node24 -->
<g id="Node000024" class="node">
<title>Node24</title>
<g id="a_Node000024"><a xlink:href="namespaceupdate__performance__md.html#a5907f23bd97111610fd3e5ada859d0e3" target="_top" xlink:title=" ">
<polygon fill="white" stroke="#666666" points="463.88,-511.5 318.88,-511.5 318.88,-478 463.88,-478 463.88,-511.5"/>
<text text-anchor="start" x="326.88" y="-498" font-family="Helvetica,sans-Serif" font-size="10.00">update_performance</text>
<text text-anchor="middle" x="391.38" y="-485.25" font-family="Helvetica,sans-Serif" font-size="10.00">_md._discover_cpu_model</text>
</a>
</g>
</g>
<!-- Node23&#45;&gt;Node24 -->
<g id="edge25_Node000023_Node000024" class="edge">
<title>Node23&#45;&gt;Node24</title>
<g id="a_edge25_Node000023_Node000024"><a xlink:title=" ">
<path fill="none" stroke="#63b8ff" d="M273.23,-496.08C284.08,-495.96 295.61,-495.83 307.03,-495.7"/>
<polygon fill="#63b8ff" stroke="#63b8ff" points="306.92,-499.2 316.88,-495.59 306.84,-492.2 306.92,-499.2"/>
</a>
</g>
</g>
<!-- Node25 -->
<g id="Node000025" class="node">
<title>Node25</title>
<g id="a_Node000025"><a xlink:href="namespaceupdate__performance__md.html#a6a06b952c4884f671dc4ff66459dab7a" target="_top" xlink:title=" ">
<polygon fill="white" stroke="#666666" points="450,-459.5 332.75,-459.5 332.75,-426 450,-426 450,-459.5"/>
<text text-anchor="start" x="340.75" y="-446" font-family="Helvetica,sans-Serif" font-size="10.00">update_performance</text>
<text text-anchor="middle" x="391.38" y="-433.25" font-family="Helvetica,sans-Serif" font-size="10.00">_md._discover_git</text>
</a>
</g>
</g>
<!-- Node23&#45;&gt;Node25 -->
<g id="edge26_Node000023_Node000025" class="edge">
<title>Node23&#45;&gt;Node25</title>
<g id="a_edge26_Node000023_Node000025"><a xlink:title=" ">
<path fill="none" stroke="#63b8ff" d="M270.8,-479.52C287.68,-474.33 306.36,-468.58 323.85,-463.21"/>
<polygon fill="#63b8ff" stroke="#63b8ff" points="324.58,-466.64 333.11,-460.36 322.52,-459.95 324.58,-466.64"/>
</a>
</g>
</g>
<!-- Node26 -->
<g id="Node000026" class="node">
<title>Node26</title>
<g id="a_Node000026"><a xlink:href="namespaceupdate__performance__md.html#a7a78996953638c0e2197c7bff773dc6d" target="_top" xlink:title=" ">
<polygon fill="white" stroke="#666666" points="452.25,-407.5 330.5,-407.5 330.5,-374 452.25,-374 452.25,-407.5"/>
<text text-anchor="start" x="338.5" y="-394" font-family="Helvetica,sans-Serif" font-size="10.00">update_performance</text>
<text text-anchor="middle" x="391.38" y="-381.25" font-family="Helvetica,sans-Serif" font-size="10.00">_md._discover_kernel</text>
</a>
</g>
</g>
<!-- Node23&#45;&gt;Node26 -->
<g id="edge27_Node000023_Node000026" class="edge">
<title>Node23&#45;&gt;Node26</title>
<g id="a_edge27_Node000023_Node000026"><a xlink:title=" ">
<path fill="none" stroke="#63b8ff" d="M261.46,-479.52C266,-476.92 270.36,-474.01 274.25,-470.75 296.36,-452.23 287.26,-434.17 310.25,-416.75 313.38,-414.38 316.73,-412.23 320.22,-410.26"/>
<polygon fill="#63b8ff" stroke="#63b8ff" points="321.62,-413.47 329.02,-405.89 318.5,-407.2 321.62,-413.47"/>
</a>
</g>
</g>
<!-- Node27 -->
<g id="Node000027" class="node">
<title>Node27</title>
<g id="a_Node000027"><a xlink:href="namespaceupdate__performance__md.html#a90c17965e4c2a62a1d074a32d5216978" target="_top" xlink:title=" ">
<polygon fill="white" stroke="#666666" points="472.5,-355.5 310.25,-355.5 310.25,-322 472.5,-322 472.5,-355.5"/>
<text text-anchor="start" x="318.25" y="-342" font-family="Helvetica,sans-Serif" font-size="10.00">update_performance</text>
<text text-anchor="middle" x="391.38" y="-329.25" font-family="Helvetica,sans-Serif" font-size="10.00">_md._discover_mem_total_gb</text>
</a>
</g>
</g>
<!-- Node23&#45;&gt;Node27 -->
<g id="edge28_Node000023_Node000027" class="edge">
<title>Node23&#45;&gt;Node27</title>
<g id="a_edge28_Node000023_Node000027"><a xlink:title=" ">
<path fill="none" stroke="#63b8ff" d="M263.83,-479.55C267.65,-476.99 271.2,-474.07 274.25,-470.75 307.91,-434.11 274.83,-399.69 310.25,-364.75 311,-364.01 311.77,-363.29 312.57,-362.59"/>
<polygon fill="#63b8ff" stroke="#63b8ff" points="314.52,-365.49 320.5,-356.75 310.37,-359.86 314.52,-365.49"/>
</a>
</g>
</g>
<!-- Node28 -->
<g id="Node000028" class="node">
<title>Node28</title>
<g id="a_Node000028"><a xlink:href="namespaceupdate__performance__md.html#a235b9ee2b969787968ac8f4b9595013b" target="_top" xlink:title=" ">
<polygon fill="white" stroke="#666666" points="450,-303.5 332.75,-303.5 332.75,-270 450,-270 450,-303.5"/>
<text text-anchor="start" x="340.75" y="-290" font-family="Helvetica,sans-Serif" font-size="10.00">update_performance</text>
<text text-anchor="middle" x="391.38" y="-277.25" font-family="Helvetica,sans-Serif" font-size="10.00">_md._discover_os</text>
</a>
</g>
</g>
<!-- Node23&#45;&gt;Node28 -->
<g id="edge29_Node000023_Node000028" class="edge">
<title>Node23&#45;&gt;Node28</title>
<g id="a_edge29_Node000023_Node000028"><a xlink:title=" ">
<path fill="none" stroke="#63b8ff" d="M264.49,-479.68C268.12,-477.1 271.45,-474.14 274.25,-470.75 320.17,-415.27 261.66,-365.91 310.25,-312.75 313.88,-308.78 318.13,-305.41 322.73,-302.55"/>
<polygon fill="#63b8ff" stroke="#63b8ff" points="324.03,-305.82 331.27,-298.08 320.79,-299.62 324.03,-305.82"/>
</a>
</g>
</g>
</g>
</svg>
