<?xml version="1.0" encoding="UTF-8" standalone="no"?>
<!DOCTYPE svg PUBLIC "-//W3C//DTD SVG 1.1//EN"
 "http://www.w3.org/Graphics/SVG/1.1/DTD/svg11.dtd">
<!-- Generated by graphviz version 2.43.0 (0)
 -->
<!-- Title: dedup_prepare_and_extract_all.main Pages: 1 -->
<!--zoomable 328 -->

<svg id="main" version="1.1" xmlns="http://www.w3.org/2000/svg" xmlns:xlink="http://www.w3.org/1999/xlink" xml:space="preserve" onload="init(evt)">
<style type="text/css"><![CDATA[
.node, .edge {opacity: 0.7;}
.node.selected, .edge.selected {opacity: 1;}
.edge:hover path { stroke: red; }
.edge:hover polygon { stroke: red; fill: red; }
]]></style>

<defs>
  <circle id="rim" cx="0" cy="0" r="7"/>
  <circle id="rim2" cx="0" cy="0" r="3.5"/>
  <g id="zoomPlus">
    <use xlink:href="#rim" fill="#404040"><set attributeName="fill" to="#808080" begin="zoomplus.mouseover" end="zoomplus.mouseout"/></use>
    <path d="M-4,0h8M0,-4v8" fill="none" stroke="white" stroke-width="1.5" pointer-events="none"/>
  </g>
  <g id="zoomMin">
    <use xlink:href="#rim" fill="#404040"><set attributeName="fill" to="#808080" begin="zoomminus.mouseover" end="zoomminus.mouseout"/></use>
    <path d="M-4,0h8" fill="none" stroke="white" stroke-width="1.5" pointer-events="none"/>
  </g>
  <g id="arrowUp" transform="translate(30 24)">
    <use xlink:href="#rim"/>
    <path pointer-events="none" fill="none" stroke="white" stroke-width="1.5" d="M0,-3.0v7 M-2.5,-0.5L0,-3.0L2.5,-0.5"/>
  </g>
  <g id="arrowRight" transform="rotate(90) translate(36 -43)">
    <use xlink:href="#rim"/>
    <path pointer-events="none" fill="none" stroke="white" stroke-width="1.5" d="M0,-3.0v7 M-2.5,-0.5L0,-3.0L2.5,-0.5"/>
  </g>
  <g id="arrowDown" transform="rotate(180) translate(-30 -48)">
    <use xlink:href="#rim"/>
    <path pointer-events="none" fill="none" stroke="white" stroke-width="1.5" d="M0,-3.0v7 M-2.5,-0.5L0,-3.0L2.5,-0.5"/>
  </g>
  <g id="arrowLeft" transform="rotate(270) translate(-36 17)">
    <use xlink:href="#rim"/>
    <path pointer-events="none" fill="none" stroke="white" stroke-width="1.5" d="M0,-3.0v7 M-2.5,-0.5L0,-3.0L2.5,-0.5"/>
  </g>
  <g id="resetDef">
    <use xlink:href="#rim2" fill="#404040"><set attributeName="fill" to="#808080" begin="reset.mouseover" end="reset.mouseout"/></use>
  </g>
</defs>
<script type="application/ecmascript">
var viewWidth = 885;
var viewHeight = 328;
var sectionId = 'dynsection-14';
</script>
<script type="application/ecmascript" xlink:href="svg.min.js"/>
<svg id="graph" class="graph">
<g id="viewport">
<title>dedup_prepare_and_extract_all.main</title>
<!-- Node1 -->
<g id="Node000001" class="node">
<title>Node1</title>
<g id="a_Node000001"><a xlink:title=" ">
<polygon fill="#999999" stroke="#666666" points="152,-91.19 0,-91.19 0,-61.19 152,-61.19 152,-91.19"/>
<text text-anchor="start" x="8" y="-79.19" font-family="Helvetica,sans-Serif" font-size="10.00">dedup_prepare_and_extract</text>
<text text-anchor="middle" x="76" y="-68.19" font-family="Helvetica,sans-Serif" font-size="10.00">_all.main</text>
</a>
</g>
</g>
<!-- Node1&#45;&gt;Node1 -->
<g id="edge16_Node000001_Node000001" class="edge">
<title>Node1&#45;&gt;Node1</title>
<g id="a_edge16_Node000001_Node000001"><a xlink:title=" ">
<path fill="none" stroke="#63b8ff" d="M42.95,-91.46C35.61,-100.59 46.62,-109.19 76,-109.19 93.44,-109.19 104.41,-106.16 108.91,-101.79"/>
<polygon fill="#63b8ff" stroke="#63b8ff" points="112.41,-101.51 109.05,-91.46 105.41,-101.41 112.41,-101.51"/>
</a>
</g>
</g>
<!-- Node2 -->
<g id="Node000002" class="node">
<title>Node2</title>
<g id="a_Node000002"><a xlink:href="namespacededup__prepare__and__extract__all.html#a06789ce5a72299437e115b723205b8e5" target="_top" xlink:title=" ">
<polygon fill="white" stroke="#666666" points="340,-163.69 188,-163.69 188,-122.69 340,-122.69 340,-163.69"/>
<text text-anchor="start" x="196" y="-151.69" font-family="Helvetica,sans-Serif" font-size="10.00">dedup_prepare_and_extract</text>
<text text-anchor="start" x="196" y="-140.69" font-family="Helvetica,sans-Serif" font-size="10.00">_all._prepare_groups_and</text>
<text text-anchor="middle" x="264" y="-129.69" font-family="Helvetica,sans-Serif" font-size="10.00">_tensor_map</text>
</a>
</g>
</g>
<!-- Node1&#45;&gt;Node2 -->
<g id="edge1_Node000001_Node000002" class="edge">
<title>Node1&#45;&gt;Node2</title>
<g id="a_edge1_Node000001_Node000002"><a xlink:title=" ">
<path fill="none" stroke="#63b8ff" d="M118.74,-91.22C141.54,-99.43 170.3,-109.8 196.14,-119.1"/>
<polygon fill="#63b8ff" stroke="#63b8ff" points="195.29,-122.52 205.88,-122.61 197.66,-115.93 195.29,-122.52"/>
</a>
</g>
</g>
<!-- Node5 -->
<g id="Node000005" class="node">
<title>Node5</title>
<g id="a_Node000005"><a xlink:href="ie__device__cuda_8cu.html#a5e3d9fee84981707669f5c2398f0c4ab" target="_top" xlink:title="Row&#45;wise GEMV kernel: each thread computes one output row.">
<polygon fill="white" stroke="#666666" points="877,-172.19 752,-172.19 752,-142.19 877,-142.19 877,-172.19"/>
<text text-anchor="start" x="760" y="-160.19" font-family="Helvetica,sans-Serif" font-size="10.00">ie_gemv_rowwise_f32</text>
<text text-anchor="middle" x="814.5" y="-149.19" font-family="Helvetica,sans-Serif" font-size="10.00">_kernel</text>
</a>
</g>
</g>
<!-- Node1&#45;&gt;Node5 -->
<g id="edge15_Node000001_Node000005" class="edge">
<title>Node1&#45;&gt;Node5</title>
<g id="a_edge15_Node000001_Node000005"><a xlink:title=" ">
<path fill="none" stroke="#63b8ff" d="M119.66,-61.07C226.99,-25.75 514.07,51.58 716,-52.19 752.26,-70.82 782.05,-108.62 798.79,-133.42"/>
<polygon fill="#63b8ff" stroke="#63b8ff" points="795.95,-135.47 804.36,-141.91 801.8,-131.63 795.95,-135.47"/>
</a>
</g>
</g>
<!-- Node3 -->
<g id="Node000003" class="node">
<title>Node3</title>
<g id="a_Node000003"><a xlink:href="namespacededup__prepare__and__extract__all.html#a0483b84b3e426f5e4d969801279b2cf0" target="_top" xlink:title=" ">
<polygon fill="white" stroke="#666666" points="528,-282.19 376,-282.19 376,-252.19 528,-252.19 528,-282.19"/>
<text text-anchor="start" x="384" y="-270.19" font-family="Helvetica,sans-Serif" font-size="10.00">dedup_prepare_and_extract</text>
<text text-anchor="middle" x="452" y="-259.19" font-family="Helvetica,sans-Serif" font-size="10.00">_all._as_list_tensors</text>
</a>
</g>
</g>
<!-- Node2&#45;&gt;Node3 -->
<g id="edge2_Node000002_Node000003" class="edge">
<title>Node2&#45;&gt;Node3</title>
<g id="a_edge2_Node000002_Node000003"><a xlink:title=" ">
<path fill="none" stroke="#63b8ff" d="M285.03,-164.07C306.08,-185.07 340.94,-217.25 376,-238.19 381.96,-241.75 388.43,-245.02 395,-247.98"/>
<polygon fill="#63b8ff" stroke="#63b8ff" points="394.05,-251.38 404.63,-252.09 396.8,-244.94 394.05,-251.38"/>
</a>
</g>
</g>
<!-- Node2&#45;&gt;Node5 -->
<g id="edge14_Node000002_Node000005" class="edge">
<title>Node2&#45;&gt;Node5</title>
<g id="a_edge14_Node000002_Node000005"><a xlink:title=" ">
<path fill="none" stroke="#63b8ff" d="M320.79,-163.79C406.59,-192.58 575.71,-237.85 716,-205.19 739.27,-199.77 763.37,-187.97 781.79,-177.43"/>
<polygon fill="#63b8ff" stroke="#63b8ff" points="783.77,-180.32 790.6,-172.23 780.21,-174.29 783.77,-180.32"/>
</a>
</g>
</g>
<!-- Node6 -->
<g id="Node000006" class="node">
<title>Node6</title>
<g id="a_Node000006"><a xlink:href="namespacededup__prepare__and__extract__all.html#a2fae51d7cc3110f0004551ac26d2f050" target="_top" xlink:title=" ">
<polygon fill="white" stroke="#666666" points="716,-196.19 564,-196.19 564,-166.19 716,-166.19 716,-196.19"/>
<text text-anchor="start" x="572" y="-184.19" font-family="Helvetica,sans-Serif" font-size="10.00">dedup_prepare_and_extract</text>
<text text-anchor="middle" x="640" y="-173.19" font-family="Helvetica,sans-Serif" font-size="10.00">_all._build_name_to_index</text>
</a>
</g>
</g>
<!-- Node2&#45;&gt;Node6 -->
<g id="edge6_Node000002_Node000006" class="edge">
<title>Node2&#45;&gt;Node6</title>
<g id="a_edge6_Node000002_Node000006"><a xlink:title=" ">
<path fill="none" stroke="#63b8ff" d="M340.23,-150.83C401.99,-157.11 489.43,-165.99 553.77,-172.53"/>
<polygon fill="#63b8ff" stroke="#63b8ff" points="553.58,-176.03 563.89,-173.56 554.29,-169.06 553.58,-176.03"/>
</a>
</g>
</g>
<!-- Node7 -->
<g id="Node000007" class="node">
<title>Node7</title>
<g id="a_Node000007"><a xlink:href="namespacededup__prepare__and__extract__all.html#a8775f6b101d32d056aebff3d069f65a4" target="_top" xlink:title=" ">
<polygon fill="white" stroke="#666666" points="716,-148.19 564,-148.19 564,-118.19 716,-118.19 716,-148.19"/>
<text text-anchor="start" x="572" y="-136.19" font-family="Helvetica,sans-Serif" font-size="10.00">dedup_prepare_and_extract</text>
<text text-anchor="middle" x="640" y="-125.19" font-family="Helvetica,sans-Serif" font-size="10.00">_all._load_json</text>
</a>
</g>
</g>
<!-- Node2&#45;&gt;Node7 -->
<g id="edge8_Node000002_Node000007" class="edge">
<title>Node2&#45;&gt;Node7</title>
<g id="a_edge8_Node000002_Node000007"><a xlink:title=" ">
<path fill="none" stroke="#63b8ff" d="M340.23,-141.18C401.99,-139.52 489.43,-137.19 553.77,-135.47"/>
<polygon fill="#63b8ff" stroke="#63b8ff" points="553.98,-138.96 563.89,-135.2 553.8,-131.96 553.98,-138.96"/>
</a>
</g>
</g>
<!-- Node8 -->
<g id="Node000008" class="node">
<title>Node8</title>
<g id="a_Node000008"><a xlink:href="namespacededup__prepare__and__extract__all.html#aff86add16d357753dee28bda484019c6" target="_top" xlink:title=" ">
<polygon fill="white" stroke="#666666" points="528,-115.19 376,-115.19 376,-85.19 528,-85.19 528,-115.19"/>
<text text-anchor="start" x="384" y="-103.19" font-family="Helvetica,sans-Serif" font-size="10.00">dedup_prepare_and_extract</text>
<text text-anchor="middle" x="452" y="-92.19" font-family="Helvetica,sans-Serif" font-size="10.00">_all._make_virtual_slices</text>
</a>
</g>
</g>
<!-- Node2&#45;&gt;Node8 -->
<g id="edge10_Node000002_Node000008" class="edge">
<title>Node2&#45;&gt;Node8</title>
<g id="a_edge10_Node000002_Node000008"><a xlink:title=" ">
<path fill="none" stroke="#63b8ff" d="M340.12,-125.82C352.01,-123.07 364.31,-120.23 376.2,-117.48"/>
<polygon fill="#63b8ff" stroke="#63b8ff" points="377.11,-120.86 386.07,-115.2 375.54,-114.04 377.11,-120.86"/>
</a>
</g>
</g>
<!-- Node9 -->
<g id="Node000009" class="node">
<title>Node9</title>
<g id="a_Node000009"><a xlink:href="namespacededup__prepare__and__extract__all.html#a45246e5fd8e820172df1bd4e9253a791" target="_top" xlink:title=" ">
<polygon fill="white" stroke="#666666" points="528,-67.19 376,-67.19 376,-37.19 528,-37.19 528,-67.19"/>
<text text-anchor="start" x="384" y="-55.19" font-family="Helvetica,sans-Serif" font-size="10.00">dedup_prepare_and_extract</text>
<text text-anchor="middle" x="452" y="-44.19" font-family="Helvetica,sans-Serif" font-size="10.00">_all._save_json</text>
</a>
</g>
</g>
<!-- Node2&#45;&gt;Node9 -->
<g id="edge12_Node000002_Node000009" class="edge">
<title>Node2&#45;&gt;Node9</title>
<g id="a_edge12_Node000002_Node000009"><a xlink:title=" ">
<path fill="none" stroke="#63b8ff" d="M295.05,-122.41C316.8,-108.04 347.31,-89.22 376,-76.19 380.1,-74.32 384.39,-72.54 388.75,-70.85"/>
<polygon fill="#63b8ff" stroke="#63b8ff" points="390.19,-74.05 398.36,-67.31 387.77,-67.49 390.19,-74.05"/>
</a>
</g>
</g>
<!-- Node4 -->
<g id="Node000004" class="node">
<title>Node4</title>
<g id="a_Node000004"><a xlink:href="namespacededup__prepare__and__extract__all.html#a75e66061d3a65f6e4777698ac5cb20a7" target="_top" xlink:title=" ">
<polygon fill="white" stroke="#666666" points="716,-320.19 564,-320.19 564,-290.19 716,-290.19 716,-320.19"/>
<text text-anchor="start" x="572" y="-308.19" font-family="Helvetica,sans-Serif" font-size="10.00">dedup_prepare_and_extract</text>
<text text-anchor="middle" x="640" y="-297.19" font-family="Helvetica,sans-Serif" font-size="10.00">_all._dtype_size</text>
</a>
</g>
</g>
<!-- Node3&#45;&gt;Node4 -->
<g id="edge3_Node000003_Node000004" class="edge">
<title>Node3&#45;&gt;Node4</title>
<g id="a_edge3_Node000003_Node000004"><a xlink:title=" ">
<path fill="none" stroke="#63b8ff" d="M526.51,-282.21C536.01,-284.15 545.79,-286.14 555.43,-288.11"/>
<polygon fill="#63b8ff" stroke="#63b8ff" points="554.91,-291.58 565.41,-290.15 556.32,-284.72 554.91,-291.58"/>
</a>
</g>
</g>
<!-- Node3&#45;&gt;Node5 -->
<g id="edge5_Node000003_Node000005" class="edge">
<title>Node3&#45;&gt;Node5</title>
<g id="a_edge5_Node000003_Node000005"><a xlink:title=" ">
<path fill="none" stroke="#63b8ff" d="M528.15,-270.22C582.39,-269.75 656.28,-263.55 716,-238.19 746.98,-225.03 775.74,-198.69 793.88,-179.61"/>
<polygon fill="#63b8ff" stroke="#63b8ff" points="796.52,-181.9 800.75,-172.19 791.38,-177.15 796.52,-181.9"/>
</a>
</g>
</g>
<!-- Node4&#45;&gt;Node5 -->
<g id="edge4_Node000004_Node000005" class="edge">
<title>Node4&#45;&gt;Node5</title>
<g id="a_edge4_Node000004_Node000005"><a xlink:title=" ">
<path fill="none" stroke="#63b8ff" d="M690.89,-290.08C699.68,-286.27 708.42,-281.67 716,-276.19 751.99,-250.13 782.39,-207.67 799.25,-181.15"/>
<polygon fill="#63b8ff" stroke="#63b8ff" points="802.33,-182.82 804.64,-172.48 796.39,-179.12 802.33,-182.82"/>
</a>
</g>
</g>
<!-- Node6&#45;&gt;Node5 -->
<g id="edge7_Node000006_Node000005" class="edge">
<title>Node6&#45;&gt;Node5</title>
<g id="a_edge7_Node000006_Node000005"><a xlink:title=" ">
<path fill="none" stroke="#63b8ff" d="M716.16,-170.73C724.61,-169.55 733.22,-168.36 741.63,-167.19"/>
<polygon fill="#63b8ff" stroke="#63b8ff" points="742.35,-170.62 751.77,-165.78 741.39,-163.69 742.35,-170.62"/>
</a>
</g>
</g>
<!-- Node7&#45;&gt;Node5 -->
<g id="edge9_Node000007_Node000005" class="edge">
<title>Node7&#45;&gt;Node5</title>
<g id="a_edge9_Node000007_Node000005"><a xlink:title=" ">
<path fill="none" stroke="#63b8ff" d="M716.16,-143.64C724.61,-144.82 733.22,-146.02 741.63,-147.19"/>
<polygon fill="#63b8ff" stroke="#63b8ff" points="741.39,-150.69 751.77,-148.6 742.35,-143.75 741.39,-150.69"/>
</a>
</g>
</g>
<!-- Node8&#45;&gt;Node5 -->
<g id="edge11_Node000008_Node000005" class="edge">
<title>Node8&#45;&gt;Node5</title>
<g id="a_edge11_Node000008_Node000005"><a xlink:title=" ">
<path fill="none" stroke="#63b8ff" d="M528.13,-94.46C581.38,-92.39 654.07,-93.65 716,-109.19 739.01,-114.96 762.94,-126.65 781.34,-137.04"/>
<polygon fill="#63b8ff" stroke="#63b8ff" points="779.75,-140.17 790.16,-142.16 783.27,-134.11 779.75,-140.17"/>
</a>
</g>
</g>
<!-- Node9&#45;&gt;Node5 -->
<g id="edge13_Node000009_Node000005" class="edge">
<title>Node9&#45;&gt;Node5</title>
<g id="a_edge13_Node000009_Node000005"><a xlink:title=" ">
<path fill="none" stroke="#63b8ff" d="M528.19,-53.5C582.11,-56.63 655.6,-65.45 716,-89.19 743.44,-99.97 770.62,-119.89 789.28,-135.4"/>
<polygon fill="#63b8ff" stroke="#63b8ff" points="787.09,-138.14 796.98,-141.95 791.63,-132.8 787.09,-138.14"/>
</a>
</g>
</g>
</g>
</svg>

<g id="navigator" transform="translate(0 0)" fill="#404254">
  <rect fill="#f2f5e9" fill-opacity="0.5" stroke="#606060" stroke-width=".5" x="0" y="0" width="60" height="60"/>
  <use id="zoomplus" xlink:href="#zoomPlus" x="17" y="9" onmousedown="handleZoom(evt,'in')"/>
  <use id="zoomminus" xlink:href="#zoomMin" x="42" y="9" onmousedown="handleZoom(evt,'out')"/>
  <use id="reset" xlink:href="#resetDef" x="30" y="36" onmousedown="handleReset()"/>
   <use id="arrowup" xlink:href="#arrowUp" x="0" y="0" onmousedown="handlePan(0,-1)"/>
  <use id="arrowright" xlink:href="#arrowRight" x="0" y="0" onmousedown="handlePan(1,0)"/>
  <use id="arrowdown" xlink:href="#arrowDown" x="0" y="0" onmousedown="handlePan(0,1)"/>
  <use id="arrowleft" xlink:href="#arrowLeft" x="0" y="0" onmousedown="handlePan(-1,0)"/>
</g>
<svg viewBox="0 0 15 15" width="100%" height="30px" preserveAspectRatio="xMaxYMin meet">
 <g id="arrow_out" transform="scale(0.3 0.3)">
  <a xlink:href="namespacededup__prepare__and__extract__all_af483d81f771e2aefe15bf2b91c56cb9c_cgraph_org.svg" target="_base">
   <rect id="button" ry="5" rx="5" y="6" x="6" height="38" width="38"
        fill="#f2f5e9" fill-opacity="0.5" stroke="#606060" stroke-width="1.0"/>
   <path id="arrow"
     d="M 11.500037,31.436501 C 11.940474,20.09759 22.043105,11.32322 32.158766,21.979434 L 37.068811,17.246167 C 37.068811,17.246167 37.088388,32 37.088388,32 L 22.160133,31.978069 C 22.160133,31.978069 26.997745,27.140456 26.997745,27.140456 C 18.528582,18.264221 13.291696,25.230495 11.500037,31.436501 z"
     style="fill:#404040;"/>
  </a>
 </g>
</svg>

<style type='text/css'>
<![CDATA[
[data-mouse-over-selected='false'] { opacity: 0.7; }
[data-mouse-over-selected='true']  { opacity: 1.0; }
]]>
</style>
<script type="application/ecmascript"><![CDATA[
document.addEventListener('DOMContentLoaded', (event) => {
  highlightEdges();
  highlightAdjacentNodes();
});
]]></script>
</svg>
