<?xml version="1.0" encoding="UTF-8" standalone="no"?>
<!DOCTYPE svg PUBLIC "-//W3C//DTD SVG 1.1//EN"
 "http://www.w3.org/Graphics/SVG/1.1/DTD/svg11.dtd">
<!-- Generated by graphviz version 2.43.0 (0)
 -->
<!-- Title: verify_strict_ids.main Pages: 1 -->
<svg width="284pt" height="124pt"
 viewBox="0.00 0.00 284.00 123.50" xmlns="http://www.w3.org/2000/svg" xmlns:xlink="http://www.w3.org/1999/xlink">
<g id="graph0" class="graph" transform="scale(1 1) rotate(0) translate(4 119.5)">
<title>verify_strict_ids.main</title>
<!-- Node1 -->
<g id="Node000001" class="node">
<title>Node1</title>
<g id="a_Node000001"><a xlink:title=" ">
<polygon fill="#999999" stroke="#666666" points="122,-72.5 0,-72.5 0,-53.5 122,-53.5 122,-72.5"/>
<text text-anchor="middle" x="61" y="-60.5" font-family="Helvetica,sans-Serif" font-size="10.00">verify_strict_ids.main</text>
</a>
</g>
</g>
<!-- Node1&#45;&gt;Node1 -->
<g id="edge4_Node000001_Node000001" class="edge">
<title>Node1&#45;&gt;Node1</title>
<g id="a_edge4_Node000001_Node000001"><a xlink:title=" ">
<path fill="none" stroke="#63b8ff" d="M36.96,-72.58C25.26,-81.23 33.27,-90.5 61,-90.5 79.2,-90.5 88.9,-86.51 90.12,-81.32"/>
<polygon fill="#63b8ff" stroke="#63b8ff" points="93.09,-79.47 85.04,-72.58 87.04,-82.99 93.09,-79.47"/>
</a>
</g>
</g>
<!-- Node2 -->
<g id="Node000002" class="node">
<title>Node2</title>
<g id="a_Node000002"><a xlink:href="namespaceverify__strict__ids.html#aa54da4fa026c3098099a5e6978cbeebe" target="_top" xlink:title=" ">
<polygon fill="white" stroke="#666666" points="276,-115.5 158,-115.5 158,-96.5 276,-96.5 276,-115.5"/>
<text text-anchor="middle" x="217" y="-103.5" font-family="Helvetica,sans-Serif" font-size="10.00">verify_strict_ids._fail</text>
</a>
</g>
</g>
<!-- Node1&#45;&gt;Node2 -->
<g id="edge1_Node000001_Node000002" class="edge">
<title>Node1&#45;&gt;Node2</title>
<g id="a_edge1_Node000001_Node000002"><a xlink:title=" ">
<path fill="none" stroke="#63b8ff" d="M96.18,-72.54C118.61,-78.81 148.15,-87.05 172.28,-93.79"/>
<polygon fill="#63b8ff" stroke="#63b8ff" points="171.35,-97.17 181.92,-96.48 173.23,-90.42 171.35,-97.17"/>
</a>
</g>
</g>
<!-- Node3 -->
<g id="Node000003" class="node">
<title>Node3</title>
<g id="a_Node000003"><a xlink:href="namespaceverify__strict__ids.html#a46476cad6300d8ac71ffebc44565d870" target="_top" xlink:title=" ">
<polygon fill="white" stroke="#666666" points="267,-78 167,-78 167,-48 267,-48 267,-78"/>
<text text-anchor="start" x="175" y="-66" font-family="Helvetica,sans-Serif" font-size="10.00">verify_strict_ids.</text>
<text text-anchor="middle" x="217" y="-55" font-family="Helvetica,sans-Serif" font-size="10.00">_iter_per_prompt</text>
</a>
</g>
</g>
<!-- Node1&#45;&gt;Node3 -->
<g id="edge2_Node000001_Node000003" class="edge">
<title>Node1&#45;&gt;Node3</title>
<g id="a_edge2_Node000001_Node000003"><a xlink:title=" ">
<path fill="none" stroke="#63b8ff" d="M122.42,-63C133.65,-63 145.37,-63 156.56,-63"/>
<polygon fill="#63b8ff" stroke="#63b8ff" points="156.67,-66.5 166.67,-63 156.67,-59.5 156.67,-66.5"/>
</a>
</g>
</g>
<!-- Node4 -->
<g id="Node000004" class="node">
<title>Node4</title>
<g id="a_Node000004"><a xlink:href="namespaceverify__strict__ids.html#ab1dc500e2c0e703d429019762815e2d2" target="_top" xlink:title=" ">
<polygon fill="white" stroke="#666666" points="265.5,-30 168.5,-30 168.5,0 265.5,0 265.5,-30"/>
<text text-anchor="start" x="176.5" y="-18" font-family="Helvetica,sans-Serif" font-size="10.00">verify_strict_ids.</text>
<text text-anchor="middle" x="217" y="-7" font-family="Helvetica,sans-Serif" font-size="10.00">_load_jsonl</text>
</a>
</g>
</g>
<!-- Node1&#45;&gt;Node4 -->
<g id="edge3_Node000001_Node000004" class="edge">
<title>Node1&#45;&gt;Node4</title>
<g id="a_edge3_Node000001_Node000004"><a xlink:title=" ">
<path fill="none" stroke="#63b8ff" d="M92.79,-53.4C111.6,-47.54 136.25,-39.86 158.55,-32.91"/>
<polygon fill="#63b8ff" stroke="#63b8ff" points="159.77,-36.19 168.27,-29.88 157.69,-29.51 159.77,-36.19"/>
</a>
</g>
</g>
</g>
</svg>
