<?xml version="1.0" encoding="UTF-8" standalone="no"?>
<!DOCTYPE svg PUBLIC "-//W3C//DTD SVG 1.1//EN"
 "http://www.w3.org/Graphics/SVG/1.1/DTD/svg11.dtd">
<!-- Generated by graphviz version 2.43.0 (0)
 -->
<!-- Title: inspect_tokpack.main Pages: 1 -->
<svg width="450pt" height="82pt"
 viewBox="0.00 0.00 450.00 82.00" xmlns="http://www.w3.org/2000/svg" xmlns:xlink="http://www.w3.org/1999/xlink">
<g id="graph0" class="graph" transform="scale(1 1) rotate(0) translate(4 78)">
<title>inspect_tokpack.main</title>
<!-- Node1 -->
<g id="Node000001" class="node">
<title>Node1</title>
<g id="a_Node000001"><a xlink:title=" ">
<polygon fill="#999999" stroke="#666666" points="124,-56 0,-56 0,-37 124,-37 124,-56"/>
<text text-anchor="middle" x="62" y="-44" font-family="Helvetica,sans-Serif" font-size="10.00">inspect_tokpack.main</text>
</a>
</g>
</g>
<!-- Node1&#45;&gt;Node1 -->
<g id="edge2_Node000001_Node000001" class="edge">
<title>Node1&#45;&gt;Node1</title>
<g id="a_edge2_Node000001_Node000001"><a xlink:title=" ">
<path fill="none" stroke="#63b8ff" d="M36.72,-56.08C24.43,-64.73 32.85,-74 62,-74 81.13,-74 91.33,-70.01 92.61,-64.82"/>
<polygon fill="#63b8ff" stroke="#63b8ff" points="95.48,-62.79 87.28,-56.08 89.5,-66.44 95.48,-62.79"/>
</a>
</g>
</g>
<!-- Node2 -->
<g id="Node000002" class="node">
<title>Node2</title>
<g id="a_Node000002"><a xlink:href="namespaceinspect__tokpack.html#a15327156d14fb120d1641573d3e79587" target="_top" xlink:title=" ">
<polygon fill="white" stroke="#666666" points="442,-56 328,-56 328,-37 442,-37 442,-56"/>
<text text-anchor="middle" x="385" y="-44" font-family="Helvetica,sans-Serif" font-size="10.00">inspect_tokpack.die</text>
</a>
</g>
</g>
<!-- Node1&#45;&gt;Node2 -->
<g id="edge1_Node000001_Node000002" class="edge">
<title>Node1&#45;&gt;Node2</title>
<g id="a_edge1_Node000001_Node000002"><a xlink:title=" ">
<path fill="none" stroke="#63b8ff" d="M102.39,-56.01C119.91,-59.78 140.87,-63.64 160,-65.5 218.39,-71.17 233.64,-71.46 292,-65.5 306.62,-64.01 322.35,-61.21 336.6,-58.21"/>
<polygon fill="#63b8ff" stroke="#63b8ff" points="337.65,-61.56 346.67,-56.01 336.15,-54.73 337.65,-61.56"/>
</a>
</g>
</g>
<!-- Node3 -->
<g id="Node000003" class="node">
<title>Node3</title>
<g id="a_Node000003"><a xlink:href="namespaceinspect__tokpack.html#ad25c6a1e438eca3cd08a0949f0cc03aa" target="_top" xlink:title=" ">
<polygon fill="white" stroke="#666666" points="292,-56 160,-56 160,-37 292,-37 292,-56"/>
<text text-anchor="middle" x="226" y="-44" font-family="Helvetica,sans-Serif" font-size="10.00">inspect_tokpack.rd_u16</text>
</a>
</g>
</g>
<!-- Node1&#45;&gt;Node3 -->
<g id="edge3_Node000001_Node000003" class="edge">
<title>Node1&#45;&gt;Node3</title>
<g id="a_edge3_Node000001_Node000003"><a xlink:title=" ">
<path fill="none" stroke="#63b8ff" d="M124.25,-46.5C132.62,-46.5 141.29,-46.5 149.87,-46.5"/>
<polygon fill="#63b8ff" stroke="#63b8ff" points="149.89,-50 159.89,-46.5 149.89,-43 149.89,-50"/>
</a>
</g>
</g>
<!-- Node4 -->
<g id="Node000004" class="node">
<title>Node4</title>
<g id="a_Node000004"><a xlink:href="namespaceinspect__tokpack.html#a99a680c301ae0e6fc4b3dcc1e5bc48ae" target="_top" xlink:title=" ">
<polygon fill="white" stroke="#666666" points="292,-19 160,-19 160,0 292,0 292,-19"/>
<text text-anchor="middle" x="226" y="-7" font-family="Helvetica,sans-Serif" font-size="10.00">inspect_tokpack.rd_u32</text>
</a>
</g>
</g>
<!-- Node1&#45;&gt;Node4 -->
<g id="edge5_Node000001_Node000004" class="edge">
<title>Node1&#45;&gt;Node4</title>
<g id="a_edge5_Node000001_Node000004"><a xlink:title=" ">
<path fill="none" stroke="#63b8ff" d="M104.72,-36.97C125.61,-32.2 151.11,-26.38 173.24,-21.32"/>
<polygon fill="#63b8ff" stroke="#63b8ff" points="174.17,-24.7 183.14,-19.06 172.61,-17.87 174.17,-24.7"/>
</a>
</g>
</g>
<!-- Node3&#45;&gt;Node2 -->
<g id="edge4_Node000003_Node000002" class="edge">
<title>Node3&#45;&gt;Node2</title>
<g id="a_edge4_Node000003_Node000002"><a xlink:title=" ">
<path fill="none" stroke="#63b8ff" d="M292.22,-46.5C300.6,-46.5 309.2,-46.5 317.6,-46.5"/>
<polygon fill="#63b8ff" stroke="#63b8ff" points="317.73,-50 327.73,-46.5 317.73,-43 317.73,-50"/>
</a>
</g>
</g>
<!-- Node4&#45;&gt;Node2 -->
<g id="edge6_Node000004_Node000002" class="edge">
<title>Node4&#45;&gt;Node2</title>
<g id="a_edge6_Node000004_Node000002"><a xlink:title=" ">
<path fill="none" stroke="#63b8ff" d="M267.43,-19.03C287.59,-23.78 312.17,-29.57 333.55,-34.61"/>
<polygon fill="#63b8ff" stroke="#63b8ff" points="332.9,-38.05 343.43,-36.94 334.5,-31.24 332.9,-38.05"/>
</a>
</g>
</g>
</g>
</svg>
