<?xml version="1.0" encoding="UTF-8" standalone="no"?>
<!DOCTYPE svg PUBLIC "-//W3C//DTD SVG 1.1//EN"
 "http://www.w3.org/Graphics/SVG/1.1/DTD/svg11.dtd">
<!-- Generated by graphviz version 12.2.1 (20241206.2353)
 -->
<!-- Title: gen_q4_bytes_stream.wanted Pages: 1 -->
<svg width="357pt" height="47pt"
 viewBox="0.00 0.00 357.25 46.75" xmlns="http://www.w3.org/2000/svg" xmlns:xlink="http://www.w3.org/1999/xlink">
<g id="graph0" class="graph" transform="scale(1 1) rotate(0) translate(4 42.75)">
<title>gen_q4_bytes_stream.wanted</title>
<!-- Node1 -->
<g id="Node000001" class="node">
<title>Node1</title>
<g id="a_Node000001"><a xlink:title=" ">
<polygon fill="#999999" stroke="#666666" points="349.25,-20.75 187,-20.75 187,0 349.25,0 349.25,-20.75"/>
<text text-anchor="middle" x="268.12" y="-7.25" font-family="Helvetica,sans-Serif" font-size="10.00">gen_q4_bytes_stream.wanted</text>
</a>
</g>
</g>
<!-- Node2 -->
<g id="Node000002" class="node">
<title>Node2</title>
<g id="a_Node000002"><a xlink:href="namespacegen__q4__bytes__stream.html#afa99129fbee72066f8340739bf0916c1" target="_top" xlink:title=" ">
<polygon fill="white" stroke="#666666" points="151,-20.75 0,-20.75 0,0 151,0 151,-20.75"/>
<text text-anchor="middle" x="75.5" y="-7.25" font-family="Helvetica,sans-Serif" font-size="10.00">gen_q4_bytes_stream.main</text>
</a>
</g>
</g>
<!-- Node1&#45;&gt;Node2 -->
<g id="edge1_Node000001_Node000002" class="edge">
<title>Node1&#45;&gt;Node2</title>
<g id="a_edge1_Node000001_Node000002"><a xlink:title=" ">
<path fill="none" stroke="#63b8ff" d="M175.26,-10.38C167.24,-10.38 159.18,-10.38 151.32,-10.38"/>
<polygon fill="#63b8ff" stroke="#63b8ff" points="175.05,-13.88 185.05,-10.38 175.05,-6.88 175.05,-13.88"/>
</a>
</g>
</g>
<!-- Node2&#45;&gt;Node2 -->
<g id="edge2_Node000002_Node000002" class="edge">
<title>Node2&#45;&gt;Node2</title>
<g id="a_edge2_Node000002_Node000002"><a xlink:title=" ">
<path fill="none" stroke="#63b8ff" d="M109.39,-32.24C104.9,-36.08 93.61,-38.75 75.5,-38.75 42.39,-38.75 32.05,-29.81 44.46,-21.15"/>
<polygon fill="#63b8ff" stroke="#63b8ff" points="112.8,-31.42 106.92,-22.61 106.02,-33.17 112.8,-31.42"/>
</a>
</g>
</g>
</g>
</svg>
