<?xml version="1.0" encoding="UTF-8" standalone="no"?>
<!DOCTYPE svg PUBLIC "-//W3C//DTD SVG 1.1//EN"
 "http://www.w3.org/Graphics/SVG/1.1/DTD/svg11.dtd">
<!-- Generated by graphviz version 12.2.1 (20241206.2353)
 -->
<!-- Title: metrics_exporter.collect_metrics_from_summary Pages: 1 -->
<svg width="342pt" height="68pt"
 viewBox="0.00 0.00 342.25 67.75" xmlns="http://www.w3.org/2000/svg" xmlns:xlink="http://www.w3.org/1999/xlink">
<g id="graph0" class="graph" transform="scale(1 1) rotate(0) translate(4 63.75)">
<title>metrics_exporter.collect_metrics_from_summary</title>
<!-- Node1 -->
<g id="Node000001" class="node">
<title>Node1</title>
<g id="a_Node000001"><a xlink:title=" ">
<polygon fill="#999999" stroke="#666666" points="138.25,-46.12 0,-46.12 0,-12.62 138.25,-12.62 138.25,-46.12"/>
<text text-anchor="start" x="8" y="-32.62" font-family="Helvetica,sans-Serif" font-size="10.00">metrics_exporter.collect</text>
<text text-anchor="middle" x="69.12" y="-19.88" font-family="Helvetica,sans-Serif" font-size="10.00">_metrics_from_summary</text>
</a>
</g>
</g>
<!-- Node2 -->
<g id="Node000002" class="node">
<title>Node2</title>
<g id="a_Node000002"><a xlink:href="namespacemetrics__exporter.html#a524a69c6d1d2cb93c5395e646fd38a17" target="_top" xlink:title=" ">
<polygon fill="white" stroke="#666666" points="334.25,-59.75 174.25,-59.75 174.25,-39 334.25,-39 334.25,-59.75"/>
<text text-anchor="middle" x="254.25" y="-46.25" font-family="Helvetica,sans-Serif" font-size="10.00">metrics_exporter._gauge_line</text>
</a>
</g>
</g>
<!-- Node1&#45;&gt;Node2 -->
<g id="edge1_Node000001_Node000002" class="edge">
<title>Node1&#45;&gt;Node2</title>
<g id="a_edge1_Node000001_Node000002"><a xlink:title=" ">
<path fill="none" stroke="#63b8ff" d="M138.57,-36.85C146.38,-37.7 154.42,-38.58 162.45,-39.46"/>
<polygon fill="#63b8ff" stroke="#63b8ff" points="161.96,-42.93 172.28,-40.53 162.72,-35.97 161.96,-42.93"/>
</a>
</g>
</g>
<!-- Node3 -->
<g id="Node000003" class="node">
<title>Node3</title>
<g id="a_Node000003"><a xlink:href="namespacemetrics__exporter.html#a4a94480fb22d48f18b188821dcefad52" target="_top" xlink:title=" ">
<polygon fill="white" stroke="#666666" points="331.62,-20.75 176.88,-20.75 176.88,0 331.62,0 331.62,-20.75"/>
<text text-anchor="middle" x="254.25" y="-7.25" font-family="Helvetica,sans-Serif" font-size="10.00">metrics_exporter._help_type</text>
</a>
</g>
</g>
<!-- Node1&#45;&gt;Node3 -->
<g id="edge2_Node000001_Node000003" class="edge">
<title>Node1&#45;&gt;Node3</title>
<g id="a_edge2_Node000001_Node000003"><a xlink:title=" ">
<path fill="none" stroke="#63b8ff" d="M138.57,-22.27C147.29,-21.37 156.3,-20.43 165.27,-19.5"/>
<polygon fill="#63b8ff" stroke="#63b8ff" points="165.49,-23 175.07,-18.49 164.76,-16.04 165.49,-23"/>
</a>
</g>
</g>
</g>
</svg>
