<?xml version="1.0" encoding="UTF-8" standalone="no"?>
<!DOCTYPE svg PUBLIC "-//W3C//DTD SVG 1.1//EN"
 "http://www.w3.org/Graphics/SVG/1.1/DTD/svg11.dtd">
<!-- Generated by graphviz version 2.43.0 (0)
 -->
<!-- Title: update_performance_md._render_system Pages: 1 -->
<svg width="487pt" height="364pt"
 viewBox="0.00 0.00 487.00 364.00" xmlns="http://www.w3.org/2000/svg" xmlns:xlink="http://www.w3.org/1999/xlink">

<svg id="main" version="1.1" xmlns="http://www.w3.org/2000/svg" xmlns:xlink="http://www.w3.org/1999/xlink" xml:space="preserve" onload="init(evt)">
<style type="text/css"><![CDATA[
.node, .edge {opacity: 0.7;}
.node.selected, .edge.selected {opacity: 1;}
.edge:hover path { stroke: red; }
.edge:hover polygon { stroke: red; fill: red; }
]]></style>
<script type="application/ecmascript" xlink:href="svg.min.js"/>
<svg id="graph" class="graph">
<g id="graph0" class="graph" transform="scale(1 1) rotate(0) translate(4 360)">
<title>update_performance_md._render_system</title>
<!-- Node1 -->
<g id="Node000001" class="node">
<title>Node1</title>
<g id="a_Node000001"><a xlink:title=" ">
<polygon fill="#999999" stroke="#666666" points="119,-198 0,-198 0,-168 119,-168 119,-198"/>
<text text-anchor="start" x="8" y="-186" font-family="Helvetica,sans-Serif" font-size="10.00">update_performance</text>
<text text-anchor="middle" x="59.5" y="-175" font-family="Helvetica,sans-Serif" font-size="10.00">_md._render_system</text>
</a>
</g>
</g>
<!-- Node2 -->
<g id="Node000002" class="node">
<title>Node2</title>
<g id="a_Node000002"><a xlink:href="namespaceupdate__performance__md.html#a5907f23bd97111610fd3e5ada859d0e3" target="_top" xlink:title=" ">
<polygon fill="white" stroke="#666666" points="309.5,-356 163.5,-356 163.5,-326 309.5,-326 309.5,-356"/>
<text text-anchor="start" x="171.5" y="-344" font-family="Helvetica,sans-Serif" font-size="10.00">update_performance</text>
<text text-anchor="middle" x="236.5" y="-333" font-family="Helvetica,sans-Serif" font-size="10.00">_md._discover_cpu_model</text>
</a>
</g>
</g>
<!-- Node1&#45;&gt;Node2 -->
<g id="edge1_Node000001_Node000002" class="edge">
<title>Node1&#45;&gt;Node2</title>
<g id="a_edge1_Node000001_Node000002"><a xlink:title=" ">
<path fill="none" stroke="#63b8ff" d="M67.68,-198C81.16,-224.65 112.76,-280.41 155,-312 159.8,-315.59 165.09,-318.77 170.59,-321.58"/>
<polygon fill="#63b8ff" stroke="#63b8ff" points="169.46,-324.91 180.01,-325.96 172.42,-318.57 169.46,-324.91"/>
</a>
</g>
</g>
<!-- Node3 -->
<g id="Node000003" class="node">
<title>Node3</title>
<g id="a_Node000003"><a xlink:href="ie__device__cuda_8cu.html#a5e3d9fee84981707669f5c2398f0c4ab" target="_top" xlink:title="Row&#45;wise GEMV kernel: each thread computes one output row.">
<polygon fill="white" stroke="#666666" points="479,-198 354,-198 354,-168 479,-168 479,-198"/>
<text text-anchor="start" x="362" y="-186" font-family="Helvetica,sans-Serif" font-size="10.00">ie_gemv_rowwise_f32</text>
<text text-anchor="middle" x="416.5" y="-175" font-family="Helvetica,sans-Serif" font-size="10.00">_kernel</text>
</a>
</g>
</g>
<!-- Node1&#45;&gt;Node3 -->
<g id="edge15_Node000001_Node000003" class="edge">
<title>Node1&#45;&gt;Node3</title>
<g id="a_edge15_Node000001_Node000003"><a xlink:title=" ">
<path fill="none" stroke="#63b8ff" d="M69.78,-198.31C84.54,-220.97 115.74,-262.56 155,-279 221.82,-306.99 250.96,-306.46 318,-279 353.48,-264.47 382.97,-230.11 399.93,-206.69"/>
<polygon fill="#63b8ff" stroke="#63b8ff" points="402.92,-208.52 405.8,-198.32 397.19,-204.5 402.92,-208.52"/>
</a>
</g>
</g>
<!-- Node4 -->
<g id="Node000004" class="node">
<title>Node4</title>
<g id="a_Node000004"><a xlink:href="namespaceupdate__performance__md.html#a6a06b952c4884f671dc4ff66459dab7a" target="_top" xlink:title=" ">
<polygon fill="white" stroke="#666666" points="295.5,-270 177.5,-270 177.5,-240 295.5,-240 295.5,-270"/>
<text text-anchor="start" x="185.5" y="-258" font-family="Helvetica,sans-Serif" font-size="10.00">update_performance</text>
<text text-anchor="middle" x="236.5" y="-247" font-family="Helvetica,sans-Serif" font-size="10.00">_md._discover_git</text>
</a>
</g>
</g>
<!-- Node1&#45;&gt;Node4 -->
<g id="edge3_Node000001_Node000004" class="edge">
<title>Node1&#45;&gt;Node4</title>
<g id="a_edge3_Node000001_Node000004"><a xlink:title=" ">
<path fill="none" stroke="#63b8ff" d="M87.19,-198.19C105.8,-208.37 131.42,-221.58 155,-231 159.99,-232.99 165.22,-234.91 170.51,-236.73"/>
<polygon fill="#63b8ff" stroke="#63b8ff" points="169.46,-240.07 180.05,-239.9 171.67,-233.43 169.46,-240.07"/>
</a>
</g>
</g>
<!-- Node5 -->
<g id="Node000005" class="node">
<title>Node5</title>
<g id="a_Node000005"><a xlink:href="namespaceupdate__performance__md.html#a7a78996953638c0e2197c7bff773dc6d" target="_top" xlink:title=" ">
<polygon fill="white" stroke="#666666" points="297.5,-222 175.5,-222 175.5,-192 297.5,-192 297.5,-222"/>
<text text-anchor="start" x="183.5" y="-210" font-family="Helvetica,sans-Serif" font-size="10.00">update_performance</text>
<text text-anchor="middle" x="236.5" y="-199" font-family="Helvetica,sans-Serif" font-size="10.00">_md._discover_kernel</text>
</a>
</g>
</g>
<!-- Node1&#45;&gt;Node5 -->
<g id="edge5_Node000001_Node000005" class="edge">
<title>Node1&#45;&gt;Node5</title>
<g id="a_edge5_Node000001_Node000005"><a xlink:title=" ">
<path fill="none" stroke="#63b8ff" d="M119.26,-191.06C134.08,-193.09 150.15,-195.29 165.46,-197.4"/>
<polygon fill="#63b8ff" stroke="#63b8ff" points="165.02,-200.87 175.4,-198.76 165.97,-193.93 165.02,-200.87"/>
</a>
</g>
</g>
<!-- Node6 -->
<g id="Node000006" class="node">
<title>Node6</title>
<g id="a_Node000006"><a xlink:href="namespaceupdate__performance__md.html#a90c17965e4c2a62a1d074a32d5216978" target="_top" xlink:title=" ">
<polygon fill="white" stroke="#666666" points="318,-174 155,-174 155,-144 318,-144 318,-174"/>
<text text-anchor="start" x="163" y="-162" font-family="Helvetica,sans-Serif" font-size="10.00">update_performance</text>
<text text-anchor="middle" x="236.5" y="-151" font-family="Helvetica,sans-Serif" font-size="10.00">_md._discover_mem_total_gb</text>
</a>
</g>
</g>
<!-- Node1&#45;&gt;Node6 -->
<g id="edge7_Node000001_Node000006" class="edge">
<title>Node1&#45;&gt;Node6</title>
<g id="a_edge7_Node000001_Node000006"><a xlink:title=" ">
<path fill="none" stroke="#63b8ff" d="M119.26,-174.94C127.47,-173.82 136.05,-172.64 144.68,-171.45"/>
<polygon fill="#63b8ff" stroke="#63b8ff" points="145.38,-174.89 154.81,-170.07 144.43,-167.96 145.38,-174.89"/>
</a>
</g>
</g>
<!-- Node7 -->
<g id="Node000007" class="node">
<title>Node7</title>
<g id="a_Node000007"><a xlink:href="namespaceupdate__performance__md.html#a235b9ee2b969787968ac8f4b9595013b" target="_top" xlink:title=" ">
<polygon fill="white" stroke="#666666" points="295.5,-126 177.5,-126 177.5,-96 295.5,-96 295.5,-126"/>
<text text-anchor="start" x="185.5" y="-114" font-family="Helvetica,sans-Serif" font-size="10.00">update_performance</text>
<text text-anchor="middle" x="236.5" y="-103" font-family="Helvetica,sans-Serif" font-size="10.00">_md._discover_os</text>
</a>
</g>
</g>
<!-- Node1&#45;&gt;Node7 -->
<g id="edge9_Node000001_Node000007" class="edge">
<title>Node1&#45;&gt;Node7</title>
<g id="a_edge9_Node000001_Node000007"><a xlink:title=" ">
<path fill="none" stroke="#63b8ff" d="M87.19,-167.81C105.8,-157.63 131.42,-144.42 155,-135 159.99,-133.01 165.22,-131.09 170.51,-129.27"/>
<polygon fill="#63b8ff" stroke="#63b8ff" points="171.67,-132.57 180.05,-126.1 169.46,-125.93 171.67,-132.57"/>
</a>
</g>
</g>
<!-- Node8 -->
<g id="Node000008" class="node">
<title>Node8</title>
<g id="a_Node000008"><a xlink:href="namespaceupdate__performance__md.html#ada48e4cdbccbb654fccaa391ec7c9dc5" target="_top" xlink:title=" ">
<polygon fill="white" stroke="#666666" points="295.5,-78 177.5,-78 177.5,-48 295.5,-48 295.5,-78"/>
<text text-anchor="start" x="185.5" y="-66" font-family="Helvetica,sans-Serif" font-size="10.00">update_performance</text>
<text text-anchor="middle" x="236.5" y="-55" font-family="Helvetica,sans-Serif" font-size="10.00">_md._filesize_follow</text>
</a>
</g>
</g>
<!-- Node1&#45;&gt;Node8 -->
<g id="edge11_Node000001_Node000008" class="edge">
<title>Node1&#45;&gt;Node8</title>
<g id="a_edge11_Node000001_Node000008"><a xlink:title=" ">
<path fill="none" stroke="#63b8ff" d="M71.54,-167.67C87.57,-146.49 119.33,-108.46 155,-87 159.08,-84.55 163.43,-82.33 167.91,-80.32"/>
<polygon fill="#63b8ff" stroke="#63b8ff" points="169.33,-83.53 177.26,-76.51 166.68,-77.05 169.33,-83.53"/>
</a>
</g>
</g>
<!-- Node9 -->
<g id="Node000009" class="node">
<title>Node9</title>
<g id="a_Node000009"><a xlink:href="namespaceupdate__performance__md.html#a686e7769dbdebc33f261f7596cb5cd18" target="_top" xlink:title=" ">
<polygon fill="white" stroke="#666666" points="296.5,-30 176.5,-30 176.5,0 296.5,0 296.5,-30"/>
<text text-anchor="start" x="184.5" y="-18" font-family="Helvetica,sans-Serif" font-size="10.00">update_performance</text>
<text text-anchor="middle" x="236.5" y="-7" font-family="Helvetica,sans-Serif" font-size="10.00">_md._find_model_bin</text>
</a>
</g>
</g>
<!-- Node1&#45;&gt;Node9 -->
<g id="edge13_Node000001_Node000009" class="edge">
<title>Node1&#45;&gt;Node9</title>
<g id="a_edge13_Node000001_Node000009"><a xlink:title=" ">
<path fill="none" stroke="#63b8ff" d="M66.26,-167.85C78.19,-138.47 108.47,-73.64 155,-39 158.82,-36.16 162.98,-33.65 167.32,-31.43"/>
<polygon fill="#63b8ff" stroke="#63b8ff" points="168.79,-34.61 176.45,-27.3 165.9,-28.24 168.79,-34.61"/>
</a>
</g>
</g>
<!-- Node2&#45;&gt;Node3 -->
<g id="edge2_Node000002_Node000003" class="edge">
<title>Node2&#45;&gt;Node3</title>
<g id="a_edge2_Node000002_Node000003"><a xlink:title=" ">
<path fill="none" stroke="#63b8ff" d="M292.92,-325.87C301.76,-322.12 310.46,-317.55 318,-312 356.39,-283.74 386.75,-236.21 402.84,-207.41"/>
<polygon fill="#63b8ff" stroke="#63b8ff" points="406.03,-208.87 407.74,-198.42 399.88,-205.52 406.03,-208.87"/>
</a>
</g>
</g>
<!-- Node4&#45;&gt;Node3 -->
<g id="edge4_Node000004_Node000003" class="edge">
<title>Node4&#45;&gt;Node3</title>
<g id="a_edge4_Node000004_Node000003"><a xlink:title=" ">
<path fill="none" stroke="#63b8ff" d="M292.48,-239.95C301.1,-237.21 309.85,-234.19 318,-231 338.64,-222.91 360.88,-212.13 378.9,-202.84"/>
<polygon fill="#63b8ff" stroke="#63b8ff" points="380.66,-205.87 387.9,-198.14 377.42,-199.66 380.66,-205.87"/>
</a>
</g>
</g>
<!-- Node5&#45;&gt;Node3 -->
<g id="edge6_Node000005_Node000003" class="edge">
<title>Node5&#45;&gt;Node3</title>
<g id="a_edge6_Node000005_Node000003"><a xlink:title=" ">
<path fill="none" stroke="#63b8ff" d="M297.76,-198.87C312.57,-196.88 328.57,-194.72 343.86,-192.66"/>
<polygon fill="#63b8ff" stroke="#63b8ff" points="344.34,-196.13 353.78,-191.32 343.4,-189.19 344.34,-196.13"/>
</a>
</g>
</g>
<!-- Node6&#45;&gt;Node3 -->
<g id="edge8_Node000006_Node000003" class="edge">
<title>Node6&#45;&gt;Node3</title>
<g id="a_edge8_Node000006_Node000003"><a xlink:title=" ">
<path fill="none" stroke="#63b8ff" d="M318.17,-169.88C326.67,-171.02 335.27,-172.18 343.66,-173.31"/>
<polygon fill="#63b8ff" stroke="#63b8ff" points="343.4,-176.81 353.77,-174.68 344.33,-169.87 343.4,-176.81"/>
</a>
</g>
</g>
<!-- Node7&#45;&gt;Node3 -->
<g id="edge10_Node000007_Node000003" class="edge">
<title>Node7&#45;&gt;Node3</title>
<g id="a_edge10_Node000007_Node000003"><a xlink:title=" ">
<path fill="none" stroke="#63b8ff" d="M292.48,-126.05C301.1,-128.79 309.85,-131.81 318,-135 338.64,-143.09 360.88,-153.87 378.9,-163.16"/>
<polygon fill="#63b8ff" stroke="#63b8ff" points="377.42,-166.34 387.9,-167.86 380.66,-160.13 377.42,-166.34"/>
</a>
</g>
</g>
<!-- Node8&#45;&gt;Node3 -->
<g id="edge12_Node000008_Node000003" class="edge">
<title>Node8&#45;&gt;Node3</title>
<g id="a_edge12_Node000008_Node000003"><a xlink:title=" ">
<path fill="none" stroke="#63b8ff" d="M295.68,-76.61C303.44,-79.48 311.09,-82.92 318,-87 350.28,-106.07 379.82,-138.12 397.73,-159.89"/>
<polygon fill="#63b8ff" stroke="#63b8ff" points="395,-162.09 404,-167.69 400.45,-157.7 395,-162.09"/>
</a>
</g>
</g>
<!-- Node9&#45;&gt;Node3 -->
<g id="edge14_Node000009_Node000003" class="edge">
<title>Node9&#45;&gt;Node3</title>
<g id="a_edge14_Node000009_Node000003"><a xlink:title=" ">
<path fill="none" stroke="#63b8ff" d="M296.9,-27.55C304.4,-30.58 311.65,-34.34 318,-39 360.62,-70.25 390.54,-126.1 405.2,-158.29"/>
<polygon fill="#63b8ff" stroke="#63b8ff" points="402.18,-160.11 409.43,-167.85 408.59,-157.28 402.18,-160.11"/>
</a>
</g>
</g>
</g>
</svg>
</svg>

<style type='text/css'>
<![CDATA[
[data-mouse-over-selected='false'] { opacity: 0.7; }
[data-mouse-over-selected='true']  { opacity: 1.0; }
]]>
</style>
<script type="application/ecmascript"><![CDATA[
document.addEventListener('DOMContentLoaded', (event) => {
  highlightEdges();
  highlightAdjacentNodes();
});
]]></script>
</svg>
