<?xml version="1.0" encoding="UTF-8" standalone="no"?>
<!DOCTYPE svg PUBLIC "-//W3C//DTD SVG 1.1//EN"
 "http://www.w3.org/Graphics/SVG/1.1/DTD/svg11.dtd">
<!-- Generated by graphviz version 2.43.0 (0)
 -->
<!-- Title: ptq_from_source.main Pages: 1 -->
<svg width="332pt" height="78pt"
 viewBox="0.00 0.00 332.00 77.50" xmlns="http://www.w3.org/2000/svg" xmlns:xlink="http://www.w3.org/1999/xlink">
<g id="graph0" class="graph" transform="scale(1 1) rotate(0) translate(4 73.5)">
<title>ptq_from_source.main</title>
<!-- Node1 -->
<g id="node1" class="node">
<title>Node1</title>
<g id="a_node1"><a xlink:title=" ">
<polygon fill="#bfbfbf" stroke="black" points="0,-28 0,-47 126,-47 126,-28 0,-28"/>
<text text-anchor="middle" x="63" y="-35" font-family="Helvetica,sans-Serif" font-size="10.00">ptq_from_source.main</text>
</a>
</g>
</g>
<!-- Node2 -->
<g id="node2" class="node">
<title>Node2</title>
<g id="a_node2"><a xlink:href="namespaceptq__from__source.html#a20b037d46e7d26f9255981da01193437" target="_top" xlink:title=" ">
<polygon fill="none" stroke="black" points="162,-50 162,-69 324,-69 324,-50 162,-50"/>
<text text-anchor="middle" x="243" y="-57" font-family="Helvetica,sans-Serif" font-size="10.00">ptq_from_source.export_onnx</text>
</a>
</g>
</g>
<!-- Node1&#45;&gt;Node2 -->
<g id="edge1" class="edge">
<title>Node1&#45;&gt;Node2</title>
<path fill="none" stroke="midnightblue" d="M126.26,-45.19C135.56,-46.34 145.29,-47.55 154.99,-48.75"/>
<polygon fill="midnightblue" stroke="midnightblue" points="154.71,-52.24 165.06,-49.99 155.57,-45.29 154.71,-52.24"/>
</g>
<!-- Node3 -->
<g id="node3" class="node">
<title>Node3</title>
<g id="a_node3"><a xlink:href="namespaceptq__from__source.html#aa66029bb09d156055e81635a23485ba4" target="_top" xlink:title=" ">
<polygon fill="none" stroke="black" points="176.5,-0.5 176.5,-30.5 309.5,-30.5 309.5,-0.5 176.5,-0.5"/>
<text text-anchor="start" x="184.5" y="-18.5" font-family="Helvetica,sans-Serif" font-size="10.00">ptq_from_source.export</text>
<text text-anchor="middle" x="243" y="-7.5" font-family="Helvetica,sans-Serif" font-size="10.00">_torch</text>
</a>
</g>
</g>
<!-- Node1&#45;&gt;Node3 -->
<g id="edge2" class="edge">
<title>Node1&#45;&gt;Node3</title>
<path fill="none" stroke="midnightblue" d="M126.26,-29.81C139.2,-28.21 152.97,-26.5 166.34,-24.85"/>
<polygon fill="midnightblue" stroke="midnightblue" points="166.96,-28.3 176.45,-23.6 166.1,-21.35 166.96,-28.3"/>
</g>
</g>
</svg>
