<?xml version="1.0" encoding="UTF-8" standalone="no"?>
<!DOCTYPE svg PUBLIC "-//W3C//DTD SVG 1.1//EN"
 "http://www.w3.org/Graphics/SVG/1.1/DTD/svg11.dtd">
<!-- Generated by graphviz version 2.43.0 (0)
 -->
<!-- Title: dedup_verify_int4.main Pages: 1 -->
<!--zoomable 230 -->

<svg id="main" version="1.1" xmlns="http://www.w3.org/2000/svg" xmlns:xlink="http://www.w3.org/1999/xlink" xml:space="preserve" onload="init(evt)">
<style type="text/css"><![CDATA[
.node, .edge {opacity: 0.7;}
.node.selected, .edge.selected {opacity: 1;}
.edge:hover path { stroke: red; }
.edge:hover polygon { stroke: red; fill: red; }
]]></style>

<defs>
  <circle id="rim" cx="0" cy="0" r="7"/>
  <circle id="rim2" cx="0" cy="0" r="3.5"/>
  <g id="zoomPlus">
    <use xlink:href="#rim" fill="#404040"><set attributeName="fill" to="#808080" begin="zoomplus.mouseover" end="zoomplus.mouseout"/></use>
    <path d="M-4,0h8M0,-4v8" fill="none" stroke="white" stroke-width="1.5" pointer-events="none"/>
  </g>
  <g id="zoomMin">
    <use xlink:href="#rim" fill="#404040"><set attributeName="fill" to="#808080" begin="zoomminus.mouseover" end="zoomminus.mouseout"/></use>
    <path d="M-4,0h8" fill="none" stroke="white" stroke-width="1.5" pointer-events="none"/>
  </g>
  <g id="arrowUp" transform="translate(30 24)">
    <use xlink:href="#rim"/>
    <path pointer-events="none" fill="none" stroke="white" stroke-width="1.5" d="M0,-3.0v7 M-2.5,-0.5L0,-3.0L2.5,-0.5"/>
  </g>
  <g id="arrowRight" transform="rotate(90) translate(36 -43)">
    <use xlink:href="#rim"/>
    <path pointer-events="none" fill="none" stroke="white" stroke-width="1.5" d="M0,-3.0v7 M-2.5,-0.5L0,-3.0L2.5,-0.5"/>
  </g>
  <g id="arrowDown" transform="rotate(180) translate(-30 -48)">
    <use xlink:href="#rim"/>
    <path pointer-events="none" fill="none" stroke="white" stroke-width="1.5" d="M0,-3.0v7 M-2.5,-0.5L0,-3.0L2.5,-0.5"/>
  </g>
  <g id="arrowLeft" transform="rotate(270) translate(-36 17)">
    <use xlink:href="#rim"/>
    <path pointer-events="none" fill="none" stroke="white" stroke-width="1.5" d="M0,-3.0v7 M-2.5,-0.5L0,-3.0L2.5,-0.5"/>
  </g>
  <g id="resetDef">
    <use xlink:href="#rim2" fill="#404040"><set attributeName="fill" to="#808080" begin="reset.mouseover" end="reset.mouseout"/></use>
  </g>
</defs>
<script type="application/ecmascript">
var viewWidth = 573;
var viewHeight = 230;
var sectionId = 'dynsection-9';
</script>
<script type="application/ecmascript" xlink:href="svg.min.js"/>
<svg id="graph" class="graph">
<g id="viewport">
<title>dedup_verify_int4.main</title>
<!-- Node1 -->
<g id="Node000001" class="node">
<title>Node1</title>
<g id="a_Node000001"><a xlink:title=" ">
<polygon fill="#999999" stroke="#666666" points="131,-120.5 0,-120.5 0,-101.5 131,-101.5 131,-120.5"/>
<text text-anchor="middle" x="65.5" y="-108.5" font-family="Helvetica,sans-Serif" font-size="10.00">dedup_verify_int4.main</text>
</a>
</g>
</g>
<!-- Node1&#45;&gt;Node1 -->
<g id="edge8_Node000001_Node000001" class="edge">
<title>Node1&#45;&gt;Node1</title>
<g id="a_edge8_Node000001_Node000001"><a xlink:title=" ">
<path fill="none" stroke="#63b8ff" d="M41.46,-120.58C29.76,-129.23 37.77,-138.5 65.5,-138.5 83.7,-138.5 93.4,-134.51 94.62,-129.32"/>
<polygon fill="#63b8ff" stroke="#63b8ff" points="97.59,-127.47 89.54,-120.58 91.54,-130.99 97.59,-127.47"/>
</a>
</g>
</g>
<!-- Node2 -->
<g id="Node000002" class="node">
<title>Node2</title>
<g id="a_Node000002"><a xlink:href="namespacededup__verify__int4.html#a50ebc96274885e224b879ee106b7bf7f" target="_top" xlink:title=" ">
<polygon fill="white" stroke="#666666" points="276.5,-222 169.5,-222 169.5,-192 276.5,-192 276.5,-222"/>
<text text-anchor="start" x="177.5" y="-210" font-family="Helvetica,sans-Serif" font-size="10.00">dedup_verify_int4.</text>
<text text-anchor="middle" x="223" y="-199" font-family="Helvetica,sans-Serif" font-size="10.00">_load_json</text>
</a>
</g>
</g>
<!-- Node1&#45;&gt;Node2 -->
<g id="edge1_Node000001_Node000002" class="edge">
<title>Node1&#45;&gt;Node2</title>
<g id="a_edge1_Node000001_Node000002"><a xlink:title=" ">
<path fill="none" stroke="#63b8ff" d="M78.32,-120.73C96.57,-135.46 133.03,-163.71 167,-183 169.68,-184.52 172.47,-186.01 175.31,-187.45"/>
<polygon fill="#63b8ff" stroke="#63b8ff" points="173.97,-190.69 184.5,-191.9 177.02,-184.39 173.97,-190.69"/>
</a>
</g>
</g>
<!-- Node3 -->
<g id="Node000003" class="node">
<title>Node3</title>
<g id="a_Node000003"><a xlink:href="namespacededup__verify__int4.html#a269856b1624aef4d1351b79182380938" target="_top" xlink:title=" ">
<polygon fill="white" stroke="#666666" points="279,-174 167,-174 167,-144 279,-144 279,-174"/>
<text text-anchor="start" x="175" y="-162" font-family="Helvetica,sans-Serif" font-size="10.00">dedup_verify_int4.</text>
<text text-anchor="middle" x="223" y="-151" font-family="Helvetica,sans-Serif" font-size="10.00">_parse_tensor_map</text>
</a>
</g>
</g>
<!-- Node1&#45;&gt;Node3 -->
<g id="edge2_Node000001_Node000003" class="edge">
<title>Node1&#45;&gt;Node3</title>
<g id="a_edge2_Node000001_Node000003"><a xlink:title=" ">
<path fill="none" stroke="#63b8ff" d="M97.59,-120.6C116.43,-126.41 141.07,-134.02 163.44,-140.92"/>
<polygon fill="#63b8ff" stroke="#63b8ff" points="162.61,-144.33 173.2,-143.94 164.68,-137.64 162.61,-144.33"/>
</a>
</g>
</g>
<!-- Node4 -->
<g id="Node000004" class="node">
<title>Node4</title>
<g id="a_Node000004"><a xlink:href="namespacededup__verify__int4.html#a4a5fda1cc948165c07aee1d0b8e41694" target="_top" xlink:title=" ">
<polygon fill="white" stroke="#666666" points="276.5,-126 169.5,-126 169.5,-96 276.5,-96 276.5,-126"/>
<text text-anchor="start" x="177.5" y="-114" font-family="Helvetica,sans-Serif" font-size="10.00">dedup_verify_int4.</text>
<text text-anchor="middle" x="223" y="-103" font-family="Helvetica,sans-Serif" font-size="10.00">_read_all</text>
</a>
</g>
</g>
<!-- Node1&#45;&gt;Node4 -->
<g id="edge3_Node000001_Node000004" class="edge">
<title>Node1&#45;&gt;Node4</title>
<g id="a_edge3_Node000001_Node000004"><a xlink:title=" ">
<path fill="none" stroke="#63b8ff" d="M131.1,-111C140.31,-111 149.78,-111 158.96,-111"/>
<polygon fill="#63b8ff" stroke="#63b8ff" points="159.19,-114.5 169.19,-111 159.19,-107.5 159.19,-114.5"/>
</a>
</g>
</g>
<!-- Node5 -->
<g id="Node000005" class="node">
<title>Node5</title>
<g id="a_Node000005"><a xlink:href="namespacededup__verify__int4.html#af42a1322c476e0f9bee3f4e73efad478" target="_top" xlink:title=" ">
<polygon fill="white" stroke="#666666" points="276.5,-78 169.5,-78 169.5,-48 276.5,-48 276.5,-78"/>
<text text-anchor="start" x="177.5" y="-66" font-family="Helvetica,sans-Serif" font-size="10.00">dedup_verify_int4.</text>
<text text-anchor="middle" x="223" y="-55" font-family="Helvetica,sans-Serif" font-size="10.00">_read_slice</text>
</a>
</g>
</g>
<!-- Node1&#45;&gt;Node5 -->
<g id="edge4_Node000001_Node000005" class="edge">
<title>Node1&#45;&gt;Node5</title>
<g id="a_edge4_Node000001_Node000005"><a xlink:title=" ">
<path fill="none" stroke="#63b8ff" d="M97.59,-101.4C116.43,-95.59 141.07,-87.98 163.44,-81.08"/>
<polygon fill="#63b8ff" stroke="#63b8ff" points="164.68,-84.36 173.2,-78.06 162.61,-77.67 164.68,-84.36"/>
</a>
</g>
</g>
<!-- Node6 -->
<g id="Node000006" class="node">
<title>Node6</title>
<g id="a_Node000006"><a xlink:href="namespacededup__verify__int4.html#adffd5bd389c51893ada348285b406135" target="_top" xlink:title=" ">
<polygon fill="white" stroke="#666666" points="276.5,-30 169.5,-30 169.5,0 276.5,0 276.5,-30"/>
<text text-anchor="start" x="177.5" y="-18" font-family="Helvetica,sans-Serif" font-size="10.00">dedup_verify_int4.</text>
<text text-anchor="middle" x="223" y="-7" font-family="Helvetica,sans-Serif" font-size="10.00">_reconstruct</text>
</a>
</g>
</g>
<!-- Node1&#45;&gt;Node6 -->
<g id="edge5_Node000001_Node000006" class="edge">
<title>Node1&#45;&gt;Node6</title>
<g id="a_edge5_Node000001_Node000006"><a xlink:title=" ">
<path fill="none" stroke="#63b8ff" d="M78.32,-101.27C96.57,-86.54 133.03,-58.29 167,-39 169.68,-37.48 172.47,-35.99 175.31,-34.55"/>
<polygon fill="#63b8ff" stroke="#63b8ff" points="177.02,-37.61 184.5,-30.1 173.97,-31.31 177.02,-37.61"/>
</a>
</g>
</g>
<!-- Node7 -->
<g id="Node000007" class="node">
<title>Node7</title>
<g id="a_Node000007"><a xlink:href="namespacededup__verify__int4.html#a788d976f08691140744343eb98f7a064" target="_top" xlink:title=" ">
<polygon fill="white" stroke="#666666" points="422,-30 315,-30 315,0 422,0 422,-30"/>
<text text-anchor="start" x="323" y="-18" font-family="Helvetica,sans-Serif" font-size="10.00">dedup_verify_int4.</text>
<text text-anchor="middle" x="368.5" y="-7" font-family="Helvetica,sans-Serif" font-size="10.00">_mask_nbytes</text>
</a>
</g>
</g>
<!-- Node6&#45;&gt;Node7 -->
<g id="edge6_Node000006_Node000007" class="edge">
<title>Node6&#45;&gt;Node7</title>
<g id="a_edge6_Node000006_Node000007"><a xlink:title=" ">
<path fill="none" stroke="#63b8ff" d="M276.62,-15C285.78,-15 295.4,-15 304.8,-15"/>
<polygon fill="#63b8ff" stroke="#63b8ff" points="304.89,-18.5 314.89,-15 304.89,-11.5 304.89,-18.5"/>
</a>
</g>
</g>
<!-- Node8 -->
<g id="Node000008" class="node">
<title>Node8</title>
<g id="a_Node000008"><a xlink:href="namespacededup__verify__int4.html#a9afff5005d6f44db475458f3b5cb4a4d" target="_top" xlink:title=" ">
<polygon fill="white" stroke="#666666" points="565,-30 458,-30 458,0 565,0 565,-30"/>
<text text-anchor="start" x="466" y="-18" font-family="Helvetica,sans-Serif" font-size="10.00">dedup_verify_int4.</text>
<text text-anchor="middle" x="511.5" y="-7" font-family="Helvetica,sans-Serif" font-size="10.00">_ceil_div</text>
</a>
</g>
</g>
<!-- Node7&#45;&gt;Node8 -->
<g id="edge7_Node000007_Node000008" class="edge">
<title>Node7&#45;&gt;Node8</title>
<g id="a_edge7_Node000007_Node000008"><a xlink:title=" ">
<path fill="none" stroke="#63b8ff" d="M422,-15C430.44,-15 439.26,-15 447.9,-15"/>
<polygon fill="#63b8ff" stroke="#63b8ff" points="447.95,-18.5 457.95,-15 447.95,-11.5 447.95,-18.5"/>
</a>
</g>
</g>
</g>
</svg>

<g id="navigator" transform="translate(0 0)" fill="#404254">
  <rect fill="#f2f5e9" fill-opacity="0.5" stroke="#606060" stroke-width=".5" x="0" y="0" width="60" height="60"/>
  <use id="zoomplus" xlink:href="#zoomPlus" x="17" y="9" onmousedown="handleZoom(evt,'in')"/>
  <use id="zoomminus" xlink:href="#zoomMin" x="42" y="9" onmousedown="handleZoom(evt,'out')"/>
  <use id="reset" xlink:href="#resetDef" x="30" y="36" onmousedown="handleReset()"/>
   <use id="arrowup" xlink:href="#arrowUp" x="0" y="0" onmousedown="handlePan(0,-1)"/>
  <use id="arrowright" xlink:href="#arrowRight" x="0" y="0" onmousedown="handlePan(1,0)"/>
  <use id="arrowdown" xlink:href="#arrowDown" x="0" y="0" onmousedown="handlePan(0,1)"/>
  <use id="arrowleft" xlink:href="#arrowLeft" x="0" y="0" onmousedown="handlePan(-1,0)"/>
</g>
<svg viewBox="0 0 15 15" width="100%" height="30px" preserveAspectRatio="xMaxYMin meet">
 <g id="arrow_out" transform="scale(0.3 0.3)">
  <a xlink:href="namespacededup__verify__int4_a0d8b8a07124bb237925517046ff60605_cgraph_org.svg" target="_base">
   <rect id="button" ry="5" rx="5" y="6" x="6" height="38" width="38"
        fill="#f2f5e9" fill-opacity="0.5" stroke="#606060" stroke-width="1.0"/>
   <path id="arrow"
     d="M 11.500037,31.436501 C 11.940474,20.09759 22.043105,11.32322 32.158766,21.979434 L 37.068811,17.246167 C 37.068811,17.246167 37.088388,32 37.088388,32 L 22.160133,31.978069 C 22.160133,31.978069 26.997745,27.140456 26.997745,27.140456 C 18.528582,18.264221 13.291696,25.230495 11.500037,31.436501 z"
     style="fill:#404040;"/>
  </a>
 </g>
</svg>

<style type='text/css'>
<![CDATA[
[data-mouse-over-selected='false'] { opacity: 0.7; }
[data-mouse-over-selected='true']  { opacity: 1.0; }
]]>
</style>
<script type="application/ecmascript"><![CDATA[
document.addEventListener('DOMContentLoaded', (event) => {
  highlightEdges();
  highlightAdjacentNodes();
});
]]></script>
</svg>
