<?xml version="1.0" encoding="UTF-8" standalone="no"?>
<!DOCTYPE svg PUBLIC "-//W3C//DTD SVG 1.1//EN"
 "http://www.w3.org/Graphics/SVG/1.1/DTD/svg11.dtd">
<!-- Generated by graphviz version 2.43.0 (0)
 -->
<!-- Title: update_performance_md._filesize Pages: 1 -->
<svg width="435pt" height="61pt"
 viewBox="0.00 0.00 435.00 61.00" xmlns="http://www.w3.org/2000/svg" xmlns:xlink="http://www.w3.org/1999/xlink">
<g id="graph0" class="graph" transform="scale(1 1) rotate(0) translate(4 57)">
<title>update_performance_md._filesize</title>
<!-- Node1 -->
<g id="node1" class="node">
<title>Node1</title>
<g id="a_node1"><a xlink:title=" ">
<polygon fill="#bfbfbf" stroke="black" points="309,-0.5 309,-30.5 427,-30.5 427,-0.5 309,-0.5"/>
<text text-anchor="start" x="317" y="-18.5" font-family="Helvetica,sans-Serif" font-size="10.00">update_performance</text>
<text text-anchor="middle" x="368" y="-7.5" font-family="Helvetica,sans-Serif" font-size="10.00">_md._filesize</text>
</a>
</g>
</g>
<!-- Node2 -->
<g id="node2" class="node">
<title>Node2</title>
<g id="a_node2"><a xlink:href="namespaceupdate__performance__md.html#ae2f704218ec574584f252cc8112f62f3" target="_top" xlink:title=" ">
<polygon fill="none" stroke="black" points="154,-22.5 154,-52.5 273,-52.5 273,-22.5 154,-22.5"/>
<text text-anchor="start" x="162" y="-40.5" font-family="Helvetica,sans-Serif" font-size="10.00">update_performance</text>
<text text-anchor="middle" x="213.5" y="-29.5" font-family="Helvetica,sans-Serif" font-size="10.00">_md._render_system</text>
</a>
</g>
</g>
<!-- Node1&#45;&gt;Node2 -->
<g id="edge1" class="edge">
<title>Node1&#45;&gt;Node2</title>
<path fill="none" stroke="midnightblue" d="M298.92,-25.32C290.34,-26.56 281.61,-27.82 273.19,-29.03"/>
<polygon fill="midnightblue" stroke="midnightblue" points="299.51,-28.77 308.91,-23.88 298.51,-21.84 299.51,-28.77"/>
</g>
<!-- Node3 -->
<g id="node3" class="node">
<title>Node3</title>
<g id="a_node3"><a xlink:href="namespaceupdate__performance__md.html#ae757be851b94bcca07c264e51d9d0d15" target="_top" xlink:title=" ">
<polygon fill="none" stroke="black" points="0,-0.5 0,-30.5 118,-30.5 118,-0.5 0,-0.5"/>
<text text-anchor="start" x="8" y="-18.5" font-family="Helvetica,sans-Serif" font-size="10.00">update_performance</text>
<text text-anchor="middle" x="59" y="-7.5" font-family="Helvetica,sans-Serif" font-size="10.00">_md.main</text>
</a>
</g>
</g>
<!-- Node1&#45;&gt;Node3 -->
<g id="edge3" class="edge">
<title>Node1&#45;&gt;Node3</title>
<path fill="none" stroke="midnightblue" d="M298.74,-13.88C290.07,-13.72 281.33,-13.59 273,-13.5 220.11,-12.94 206.89,-12.94 154,-13.5 142.41,-13.62 130.02,-13.83 118.16,-14.07"/>
<polygon fill="midnightblue" stroke="midnightblue" points="298.77,-17.38 308.84,-14.07 298.91,-10.38 298.77,-17.38"/>
</g>
<!-- Node2&#45;&gt;Node3 -->
<g id="edge2" class="edge">
<title>Node2&#45;&gt;Node3</title>
<path fill="none" stroke="midnightblue" d="M143.94,-27.61C135.31,-26.37 126.56,-25.1 118.12,-23.88"/>
<polygon fill="midnightblue" stroke="midnightblue" points="143.58,-31.09 153.98,-29.06 144.58,-24.17 143.58,-31.09"/>
</g>
</g>
</svg>
