<?xml version="1.0" encoding="UTF-8" standalone="no"?>
<!DOCTYPE svg PUBLIC "-//W3C//DTD SVG 1.1//EN"
 "http://www.w3.org/Graphics/SVG/1.1/DTD/svg11.dtd">
<!-- Generated by graphviz version 2.43.0 (0)
 -->
<!-- Title: make_baseline_md.main Pages: 1 -->
<svg width="332pt" height="137pt"
 viewBox="0.00 0.00 332.00 137.00" xmlns="http://www.w3.org/2000/svg" xmlns:xlink="http://www.w3.org/1999/xlink">
<g id="graph0" class="graph" transform="scale(1 1) rotate(0) translate(4 133)">
<title>make_baseline_md.main</title>
<!-- Node1 -->
<g id="node1" class="node">
<title>Node1</title>
<g id="a_node1"><a xlink:title=" ">
<polygon fill="#bfbfbf" stroke="black" points="0,-55 0,-74 139,-74 139,-55 0,-55"/>
<text text-anchor="middle" x="69.5" y="-62" font-family="Helvetica,sans-Serif" font-size="10.00">make_baseline_md.main</text>
</a>
</g>
</g>
<!-- Node2 -->
<g id="node2" class="node">
<title>Node2</title>
<g id="a_node2"><a xlink:href="namespacemake__baseline__md.html#a5160c0308186e0023cc54bdf5b53ecd0" target="_top" xlink:title=" ">
<polygon fill="none" stroke="black" points="175,-98.5 175,-128.5 324,-128.5 324,-98.5 175,-98.5"/>
<text text-anchor="start" x="183" y="-116.5" font-family="Helvetica,sans-Serif" font-size="10.00">make_baseline_md.newest</text>
<text text-anchor="middle" x="249.5" y="-105.5" font-family="Helvetica,sans-Serif" font-size="10.00">_report_dir</text>
</a>
</g>
</g>
<!-- Node1&#45;&gt;Node2 -->
<g id="edge1" class="edge">
<title>Node1&#45;&gt;Node2</title>
<path fill="none" stroke="midnightblue" d="M105.24,-74.06C127.68,-80.24 157.56,-88.46 184.22,-95.8"/>
<polygon fill="midnightblue" stroke="midnightblue" points="183.31,-99.18 193.88,-98.46 185.16,-92.43 183.31,-99.18"/>
</g>
<!-- Node3 -->
<g id="node3" class="node">
<title>Node3</title>
<g id="a_node3"><a xlink:href="namespacemake__baseline__md.html#ae69e0e5bb3636b0548dd22d6b8fcb7ad" target="_top" xlink:title=" ">
<polygon fill="none" stroke="black" points="181.5,-49.5 181.5,-79.5 317.5,-79.5 317.5,-49.5 181.5,-49.5"/>
<text text-anchor="start" x="189.5" y="-67.5" font-family="Helvetica,sans-Serif" font-size="10.00">make_baseline_md.read</text>
<text text-anchor="middle" x="249.5" y="-56.5" font-family="Helvetica,sans-Serif" font-size="10.00">_samples</text>
</a>
</g>
</g>
<!-- Node1&#45;&gt;Node3 -->
<g id="edge2" class="edge">
<title>Node1&#45;&gt;Node3</title>
<path fill="none" stroke="midnightblue" d="M139.06,-64.5C149.6,-64.5 160.55,-64.5 171.26,-64.5"/>
<polygon fill="midnightblue" stroke="midnightblue" points="171.44,-68 181.44,-64.5 171.44,-61 171.44,-68"/>
</g>
<!-- Node4 -->
<g id="node4" class="node">
<title>Node4</title>
<g id="a_node4"><a xlink:href="namespacemake__baseline__md.html#aeb37a8c1de65989aec4ce9d92f112ed6" target="_top" xlink:title=" ">
<polygon fill="none" stroke="black" points="181.5,-0.5 181.5,-30.5 317.5,-30.5 317.5,-0.5 181.5,-0.5"/>
<text text-anchor="start" x="189.5" y="-18.5" font-family="Helvetica,sans-Serif" font-size="10.00">make_baseline_md.read</text>
<text text-anchor="middle" x="249.5" y="-7.5" font-family="Helvetica,sans-Serif" font-size="10.00">_summary</text>
</a>
</g>
</g>
<!-- Node1&#45;&gt;Node4 -->
<g id="edge3" class="edge">
<title>Node1&#45;&gt;Node4</title>
<path fill="none" stroke="midnightblue" d="M105.24,-54.94C127.68,-48.76 157.56,-40.54 184.22,-33.2"/>
<polygon fill="midnightblue" stroke="midnightblue" points="185.16,-36.57 193.88,-30.54 183.31,-29.82 185.16,-36.57"/>
</g>
</g>
</svg>
