<?xml version="1.0" encoding="UTF-8" standalone="no"?>
<!DOCTYPE svg PUBLIC "-//W3C//DTD SVG 1.1//EN"
 "http://www.w3.org/Graphics/SVG/1.1/DTD/svg11.dtd">
<!-- Generated by graphviz version 2.43.0 (0)
 -->
<!-- Title: update_performance_md._agg_numeric Pages: 1 -->
<svg width="441pt" height="172pt"
 viewBox="0.00 0.00 441.00 172.00" xmlns="http://www.w3.org/2000/svg" xmlns:xlink="http://www.w3.org/1999/xlink">
<g id="graph0" class="graph" transform="scale(1 1) rotate(0) translate(4 168)">
<title>update_performance_md._agg_numeric</title>
<!-- Node1 -->
<g id="Node000001" class="node">
<title>Node1</title>
<g id="a_Node000001"><a xlink:title=" ">
<polygon fill="#999999" stroke="#666666" points="118,-99 0,-99 0,-69 118,-69 118,-99"/>
<text text-anchor="start" x="8" y="-87" font-family="Helvetica,sans-Serif" font-size="10.00">update_performance</text>
<text text-anchor="middle" x="59" y="-76" font-family="Helvetica,sans-Serif" font-size="10.00">_md._agg_numeric</text>
</a>
</g>
</g>
<!-- Node2 -->
<g id="Node000002" class="node">
<title>Node2</title>
<g id="a_Node000002"><a xlink:href="namespaceupdate__performance__md.html#a91f019a522a78e6359ae3101f456bfa3" target="_top" xlink:title=" ">
<polygon fill="white" stroke="#666666" points="272,-164 154,-164 154,-134 272,-134 272,-164"/>
<text text-anchor="start" x="162" y="-152" font-family="Helvetica,sans-Serif" font-size="10.00">update_performance</text>
<text text-anchor="middle" x="213" y="-141" font-family="Helvetica,sans-Serif" font-size="10.00">_md._max_or_none</text>
</a>
</g>
</g>
<!-- Node1&#45;&gt;Node2 -->
<g id="edge1_Node000001_Node000002" class="edge">
<title>Node1&#45;&gt;Node2</title>
<g id="a_edge1_Node000001_Node000002"><a xlink:title=" ">
<path fill="none" stroke="#63b8ff" d="M95.25,-99.08C116.76,-108.27 144.44,-120.11 167.46,-129.95"/>
<polygon fill="#63b8ff" stroke="#63b8ff" points="166.1,-133.18 176.67,-133.89 168.86,-126.74 166.1,-133.18"/>
</a>
</g>
</g>
<!-- Node3 -->
<g id="Node000003" class="node">
<title>Node3</title>
<g id="a_Node000003"><a xlink:href="ie__device__cuda_8cu.html#a5e3d9fee84981707669f5c2398f0c4ab" target="_top" xlink:title="Row&#45;wise GEMV kernel: each thread computes one output row.">
<polygon fill="white" stroke="#666666" points="433,-99 308,-99 308,-69 433,-69 433,-99"/>
<text text-anchor="start" x="316" y="-87" font-family="Helvetica,sans-Serif" font-size="10.00">ie_gemv_rowwise_f32</text>
<text text-anchor="middle" x="370.5" y="-76" font-family="Helvetica,sans-Serif" font-size="10.00">_kernel</text>
</a>
</g>
</g>
<!-- Node1&#45;&gt;Node3 -->
<g id="edge7_Node000001_Node000003" class="edge">
<title>Node1&#45;&gt;Node3</title>
<g id="a_edge7_Node000001_Node000003"><a xlink:title=" ">
<path fill="none" stroke="#63b8ff" d="M118.16,-86.15C130.02,-86.5 142.41,-86.82 154,-87 206.44,-87.84 219.56,-87.81 272,-87 280.34,-86.87 289.07,-86.68 297.75,-86.46"/>
<polygon fill="#63b8ff" stroke="#63b8ff" points="297.97,-89.95 307.87,-86.18 297.78,-82.96 297.97,-89.95"/>
</a>
</g>
</g>
<!-- Node4 -->
<g id="Node000004" class="node">
<title>Node4</title>
<g id="a_Node000004"><a xlink:href="namespaceupdate__performance__md.html#a0a92266d40ea5f29cd6587638192c323" target="_top" xlink:title=" ">
<polygon fill="white" stroke="#666666" points="272,-78 154,-78 154,-48 272,-48 272,-78"/>
<text text-anchor="start" x="162" y="-66" font-family="Helvetica,sans-Serif" font-size="10.00">update_performance</text>
<text text-anchor="middle" x="213" y="-55" font-family="Helvetica,sans-Serif" font-size="10.00">_md._mean</text>
</a>
</g>
</g>
<!-- Node1&#45;&gt;Node4 -->
<g id="edge3_Node000001_Node000004" class="edge">
<title>Node1&#45;&gt;Node4</title>
<g id="a_edge3_Node000001_Node000004"><a xlink:title=" ">
<path fill="none" stroke="#63b8ff" d="M118.33,-75.94C126.7,-74.79 135.36,-73.59 143.9,-72.41"/>
<polygon fill="#63b8ff" stroke="#63b8ff" points="144.4,-75.87 153.82,-71.04 143.44,-68.94 144.4,-75.87"/>
</a>
</g>
</g>
<!-- Node5 -->
<g id="Node000005" class="node">
<title>Node5</title>
<g id="a_Node000005"><a xlink:href="namespaceupdate__performance__md.html#a324f3044150ad284473b7a900c0a2765" target="_top" xlink:title=" ">
<polygon fill="white" stroke="#666666" points="272,-30 154,-30 154,0 272,0 272,-30"/>
<text text-anchor="start" x="162" y="-18" font-family="Helvetica,sans-Serif" font-size="10.00">update_performance</text>
<text text-anchor="middle" x="213" y="-7" font-family="Helvetica,sans-Serif" font-size="10.00">_md._min_or_none</text>
</a>
</g>
</g>
<!-- Node1&#45;&gt;Node5 -->
<g id="edge5_Node000001_Node000005" class="edge">
<title>Node1&#45;&gt;Node5</title>
<g id="a_edge5_Node000001_Node000005"><a xlink:title=" ">
<path fill="none" stroke="#63b8ff" d="M90.29,-68.99C108.61,-60.03 132.52,-48.58 154,-39 157.65,-37.37 161.44,-35.72 165.26,-34.08"/>
<polygon fill="#63b8ff" stroke="#63b8ff" points="166.9,-37.19 174.74,-30.07 164.17,-30.74 166.9,-37.19"/>
</a>
</g>
</g>
<!-- Node2&#45;&gt;Node3 -->
<g id="edge2_Node000002_Node000003" class="edge">
<title>Node2&#45;&gt;Node3</title>
<g id="a_edge2_Node000002_Node000003"><a xlink:title=" ">
<path fill="none" stroke="#63b8ff" d="M250.07,-133.92C272.07,-124.73 300.39,-112.89 323.93,-103.05"/>
<polygon fill="#63b8ff" stroke="#63b8ff" points="325.48,-106.19 333.36,-99.11 322.78,-99.73 325.48,-106.19"/>
</a>
</g>
</g>
<!-- Node4&#45;&gt;Node3 -->
<g id="edge4_Node000004_Node000003" class="edge">
<title>Node4&#45;&gt;Node3</title>
<g id="a_edge4_Node000004_Node000003"><a xlink:title=" ">
<path fill="none" stroke="#63b8ff" d="M272.34,-70.88C280.71,-72.01 289.39,-73.18 297.97,-74.34"/>
<polygon fill="#63b8ff" stroke="#63b8ff" points="297.59,-77.82 307.97,-75.69 298.53,-70.88 297.59,-77.82"/>
</a>
</g>
</g>
<!-- Node5&#45;&gt;Node3 -->
<g id="edge6_Node000005_Node000003" class="edge">
<title>Node5&#45;&gt;Node3</title>
<g id="a_edge6_Node000005_Node000003"><a xlink:title=" ">
<path fill="none" stroke="#63b8ff" d="M250.91,-30.01C257.94,-32.94 265.21,-36.03 272,-39 290.59,-47.13 311,-56.48 328.32,-64.55"/>
<polygon fill="#63b8ff" stroke="#63b8ff" points="327.05,-67.82 337.59,-68.88 330.01,-61.48 327.05,-67.82"/>
</a>
</g>
</g>
</g>
</svg>
