<?xml version="1.0" encoding="UTF-8" standalone="no"?>
<!DOCTYPE svg PUBLIC "-//W3C//DTD SVG 1.1//EN"
 "http://www.w3.org/Graphics/SVG/1.1/DTD/svg11.dtd">
<!-- Generated by graphviz version 2.43.0 (0)
 -->
<!-- Title: verify_report_tokens.check_hash_fields Pages: 1 -->
<!--zoomable 187 -->

<svg id="main" version="1.1" xmlns="http://www.w3.org/2000/svg" xmlns:xlink="http://www.w3.org/1999/xlink" xml:space="preserve" onload="init(evt)">
<style type="text/css"><![CDATA[
.node, .edge {opacity: 0.7;}
.node.selected, .edge.selected {opacity: 1;}
.edge:hover path { stroke: red; }
.edge:hover polygon { stroke: red; fill: red; }
]]></style>

<defs>
  <circle id="rim" cx="0" cy="0" r="7"/>
  <circle id="rim2" cx="0" cy="0" r="3.5"/>
  <g id="zoomPlus">
    <use xlink:href="#rim" fill="#404040"><set attributeName="fill" to="#808080" begin="zoomplus.mouseover" end="zoomplus.mouseout"/></use>
    <path d="M-4,0h8M0,-4v8" fill="none" stroke="white" stroke-width="1.5" pointer-events="none"/>
  </g>
  <g id="zoomMin">
    <use xlink:href="#rim" fill="#404040"><set attributeName="fill" to="#808080" begin="zoomminus.mouseover" end="zoomminus.mouseout"/></use>
    <path d="M-4,0h8" fill="none" stroke="white" stroke-width="1.5" pointer-events="none"/>
  </g>
  <g id="arrowUp" transform="translate(30 24)">
    <use xlink:href="#rim"/>
    <path pointer-events="none" fill="none" stroke="white" stroke-width="1.5" d="M0,-3.0v7 M-2.5,-0.5L0,-3.0L2.5,-0.5"/>
  </g>
  <g id="arrowRight" transform="rotate(90) translate(36 -43)">
    <use xlink:href="#rim"/>
    <path pointer-events="none" fill="none" stroke="white" stroke-width="1.5" d="M0,-3.0v7 M-2.5,-0.5L0,-3.0L2.5,-0.5"/>
  </g>
  <g id="arrowDown" transform="rotate(180) translate(-30 -48)">
    <use xlink:href="#rim"/>
    <path pointer-events="none" fill="none" stroke="white" stroke-width="1.5" d="M0,-3.0v7 M-2.5,-0.5L0,-3.0L2.5,-0.5"/>
  </g>
  <g id="arrowLeft" transform="rotate(270) translate(-36 17)">
    <use xlink:href="#rim"/>
    <path pointer-events="none" fill="none" stroke="white" stroke-width="1.5" d="M0,-3.0v7 M-2.5,-0.5L0,-3.0L2.5,-0.5"/>
  </g>
  <g id="resetDef">
    <use xlink:href="#rim2" fill="#404040"><set attributeName="fill" to="#808080" begin="reset.mouseover" end="reset.mouseout"/></use>
  </g>
</defs>
<script type="application/ecmascript">
var viewWidth = 744;
var viewHeight = 187;
var sectionId = 'dynsection-3';
</script>
<script type="application/ecmascript" xlink:href="svg.min.js"/>
<svg id="graph" class="graph">
<g id="viewport">
<title>verify_report_tokens.check_hash_fields</title>
<!-- Node1 -->
<g id="Node000001" class="node">
<title>Node1</title>
<g id="a_Node000001"><a xlink:title=" ">
<polygon fill="#999999" stroke="#666666" points="148,-105.5 0,-105.5 0,-75.5 148,-75.5 148,-105.5"/>
<text text-anchor="start" x="8" y="-93.5" font-family="Helvetica,sans-Serif" font-size="10.00">verify_report_tokens.check</text>
<text text-anchor="middle" x="74" y="-82.5" font-family="Helvetica,sans-Serif" font-size="10.00">_hash_fields</text>
</a>
</g>
</g>
<!-- Node2 -->
<g id="Node000002" class="node">
<title>Node2</title>
<g id="a_Node000002"><a xlink:href="namespaceverify__report__tokens.html#af8914c6f7a07b7038e95d3fae3c052c5" target="_top" xlink:title=" ">
<polygon fill="white" stroke="#666666" points="542,-115.5 411,-115.5 411,-85.5 542,-85.5 542,-115.5"/>
<text text-anchor="start" x="419" y="-103.5" font-family="Helvetica,sans-Serif" font-size="10.00">verify_report_tokens.as</text>
<text text-anchor="middle" x="476.5" y="-92.5" font-family="Helvetica,sans-Serif" font-size="10.00">_int_list</text>
</a>
</g>
</g>
<!-- Node1&#45;&gt;Node2 -->
<g id="edge1_Node000001_Node000002" class="edge">
<title>Node1&#45;&gt;Node2</title>
<g id="a_edge1_Node000001_Node000002"><a xlink:title=" ">
<path fill="none" stroke="#63b8ff" d="M91.14,-105.66C111.12,-123.3 147.08,-151.41 184,-162.5 260.19,-185.39 285.95,-182.32 363,-162.5 393.94,-154.54 425.48,-136.07 447.26,-121.35"/>
<polygon fill="#63b8ff" stroke="#63b8ff" points="449.46,-124.09 455.68,-115.52 445.47,-118.33 449.46,-124.09"/>
</a>
</g>
</g>
<!-- Node4 -->
<g id="Node000004" class="node">
<title>Node4</title>
<g id="a_Node000004"><a xlink:href="namespaceverify__report__tokens.html#a0e22c33a4172a688784538c4d56555f1" target="_top" xlink:title=" ">
<polygon fill="white" stroke="#666666" points="343.5,-153.5 203.5,-153.5 203.5,-123.5 343.5,-123.5 343.5,-153.5"/>
<text text-anchor="start" x="211.5" y="-141.5" font-family="Helvetica,sans-Serif" font-size="10.00">verify_report_tokens.best</text>
<text text-anchor="middle" x="273.5" y="-130.5" font-family="Helvetica,sans-Serif" font-size="10.00">_effort_get_meta</text>
</a>
</g>
</g>
<!-- Node1&#45;&gt;Node4 -->
<g id="edge3_Node000001_Node000004" class="edge">
<title>Node1&#45;&gt;Node4</title>
<g id="a_edge3_Node000001_Node000004"><a xlink:title=" ">
<path fill="none" stroke="#63b8ff" d="M136.95,-105.56C157.26,-110.49 180,-116.02 200.96,-121.11"/>
<polygon fill="#63b8ff" stroke="#63b8ff" points="200.23,-124.54 210.77,-123.5 201.88,-117.73 200.23,-124.54"/>
</a>
</g>
</g>
<!-- Node5 -->
<g id="Node000005" class="node">
<title>Node5</title>
<g id="a_Node000005"><a xlink:href="namespaceverify__report__tokens.html#ab1cb62142583a275fe65faf3637faa56" target="_top" xlink:title=" ">
<polygon fill="white" stroke="#666666" points="341,-105.5 206,-105.5 206,-75.5 341,-75.5 341,-105.5"/>
<text text-anchor="start" x="214" y="-93.5" font-family="Helvetica,sans-Serif" font-size="10.00">verify_report_tokens.get</text>
<text text-anchor="middle" x="273.5" y="-82.5" font-family="Helvetica,sans-Serif" font-size="10.00">_generated_ids</text>
</a>
</g>
</g>
<!-- Node1&#45;&gt;Node5 -->
<g id="edge4_Node000001_Node000005" class="edge">
<title>Node1&#45;&gt;Node5</title>
<g id="a_edge4_Node000001_Node000005"><a xlink:title=" ">
<path fill="none" stroke="#63b8ff" d="M148.26,-90.5C163.75,-90.5 180.14,-90.5 195.75,-90.5"/>
<polygon fill="#63b8ff" stroke="#63b8ff" points="195.88,-94 205.88,-90.5 195.88,-87 195.88,-94"/>
</a>
</g>
</g>
<!-- Node6 -->
<g id="Node000006" class="node">
<title>Node6</title>
<g id="a_Node000006"><a xlink:href="namespaceverify__report__tokens.html#a1b04e461296bac8e04ec7387a4fc1bfb" target="_top" xlink:title=" ">
<polygon fill="white" stroke="#666666" points="554,-51.5 399,-51.5 399,-21.5 554,-21.5 554,-51.5"/>
<text text-anchor="start" x="407" y="-39.5" font-family="Helvetica,sans-Serif" font-size="10.00">verify_report_tokens.sha256</text>
<text text-anchor="middle" x="476.5" y="-28.5" font-family="Helvetica,sans-Serif" font-size="10.00">_bytes</text>
</a>
</g>
</g>
<!-- Node1&#45;&gt;Node6 -->
<g id="edge6_Node000001_Node000006" class="edge">
<title>Node1&#45;&gt;Node6</title>
<g id="a_edge6_Node000001_Node000006"><a xlink:title=" ">
<path fill="none" stroke="#63b8ff" d="M137.3,-75.5C152.52,-72.19 168.79,-68.95 184,-66.5 252.35,-55.49 330.4,-47.71 388.53,-42.84"/>
<polygon fill="#63b8ff" stroke="#63b8ff" points="389.1,-46.3 398.77,-41.99 388.52,-39.33 389.1,-46.3"/>
</a>
</g>
</g>
<!-- Node7 -->
<g id="Node000007" class="node">
<title>Node7</title>
<g id="a_Node000007"><a xlink:href="namespaceverify__report__tokens.html#a88fdecd42e4d860dea3c9e7be68c9aad" target="_top" xlink:title=" ">
<polygon fill="white" stroke="#666666" points="363,-19 184,-19 184,0 363,0 363,-19"/>
<text text-anchor="middle" x="273.5" y="-7" font-family="Helvetica,sans-Serif" font-size="10.00">verify_report_tokens.sha256_utf8</text>
</a>
</g>
</g>
<!-- Node1&#45;&gt;Node7 -->
<g id="edge7_Node000001_Node000007" class="edge">
<title>Node1&#45;&gt;Node7</title>
<g id="a_edge7_Node000001_Node000007"><a xlink:title=" ">
<path fill="none" stroke="#63b8ff" d="M100.25,-75.28C121.88,-62.74 154.17,-45.18 184,-33.5 195.46,-29.01 208.08,-25.04 220.1,-21.69"/>
<polygon fill="#63b8ff" stroke="#63b8ff" points="221.28,-25 230.03,-19.02 219.46,-18.24 221.28,-25"/>
</a>
</g>
</g>
<!-- Node3 -->
<g id="Node000003" class="node">
<title>Node3</title>
<g id="a_Node000003"><a xlink:href="namespaceverify__report__tokens.html#af16896818e9fdf8c4b336858d002ea4d" target="_top" xlink:title=" ">
<polygon fill="white" stroke="#666666" points="736,-110 590,-110 590,-91 736,-91 736,-110"/>
<text text-anchor="middle" x="663" y="-98" font-family="Helvetica,sans-Serif" font-size="10.00">verify_report_tokens.is_int</text>
</a>
</g>
</g>
<!-- Node2&#45;&gt;Node3 -->
<g id="edge2_Node000002_Node000003" class="edge">
<title>Node2&#45;&gt;Node3</title>
<g id="a_edge2_Node000002_Node000003"><a xlink:title=" ">
<path fill="none" stroke="#63b8ff" d="M542.03,-100.5C554.25,-100.5 567.18,-100.5 579.85,-100.5"/>
<polygon fill="#63b8ff" stroke="#63b8ff" points="579.95,-104 589.95,-100.5 579.95,-97 579.95,-104"/>
</a>
</g>
</g>
<!-- Node5&#45;&gt;Node2 -->
<g id="edge5_Node000005_Node000002" class="edge">
<title>Node5&#45;&gt;Node2</title>
<g id="a_edge5_Node000005_Node000002"><a xlink:title=" ">
<path fill="none" stroke="#63b8ff" d="M341.15,-93.82C360.22,-94.76 381.14,-95.81 400.67,-96.78"/>
<polygon fill="#63b8ff" stroke="#63b8ff" points="400.58,-100.28 410.74,-97.28 400.92,-93.29 400.58,-100.28"/>
</a>
</g>
</g>
<!-- Node7&#45;&gt;Node6 -->
<g id="edge8_Node000007_Node000006" class="edge">
<title>Node7&#45;&gt;Node6</title>
<g id="a_edge8_Node000007_Node000006"><a xlink:title=" ">
<path fill="none" stroke="#63b8ff" d="M345.37,-19.02C359.42,-20.91 374.31,-22.91 388.82,-24.86"/>
<polygon fill="#63b8ff" stroke="#63b8ff" points="388.41,-28.33 398.79,-26.2 389.34,-21.4 388.41,-28.33"/>
</a>
</g>
</g>
</g>
</svg>

<g id="navigator" transform="translate(0 0)" fill="#404254">
  <rect fill="#f2f5e9" fill-opacity="0.5" stroke="#606060" stroke-width=".5" x="0" y="0" width="60" height="60"/>
  <use id="zoomplus" xlink:href="#zoomPlus" x="17" y="9" onmousedown="handleZoom(evt,'in')"/>
  <use id="zoomminus" xlink:href="#zoomMin" x="42" y="9" onmousedown="handleZoom(evt,'out')"/>
  <use id="reset" xlink:href="#resetDef" x="30" y="36" onmousedown="handleReset()"/>
   <use id="arrowup" xlink:href="#arrowUp" x="0" y="0" onmousedown="handlePan(0,-1)"/>
  <use id="arrowright" xlink:href="#arrowRight" x="0" y="0" onmousedown="handlePan(1,0)"/>
  <use id="arrowdown" xlink:href="#arrowDown" x="0" y="0" onmousedown="handlePan(0,1)"/>
  <use id="arrowleft" xlink:href="#arrowLeft" x="0" y="0" onmousedown="handlePan(-1,0)"/>
</g>
<svg viewBox="0 0 15 15" width="100%" height="30px" preserveAspectRatio="xMaxYMin meet">
 <g id="arrow_out" transform="scale(0.3 0.3)">
  <a xlink:href="namespaceverify__report__tokens_ae4d529c7a156d7b3e86da13e81e40d5f_cgraph_org.svg" target="_base">
   <rect id="button" ry="5" rx="5" y="6" x="6" height="38" width="38"
        fill="#f2f5e9" fill-opacity="0.5" stroke="#606060" stroke-width="1.0"/>
   <path id="arrow"
     d="M 11.500037,31.436501 C 11.940474,20.09759 22.043105,11.32322 32.158766,21.979434 L 37.068811,17.246167 C 37.068811,17.246167 37.088388,32 37.088388,32 L 22.160133,31.978069 C 22.160133,31.978069 26.997745,27.140456 26.997745,27.140456 C 18.528582,18.264221 13.291696,25.230495 11.500037,31.436501 z"
     style="fill:#404040;"/>
  </a>
 </g>
</svg>

<style type='text/css'>
<![CDATA[
[data-mouse-over-selected='false'] { opacity: 0.7; }
[data-mouse-over-selected='true']  { opacity: 1.0; }
]]>
</style>
<script type="application/ecmascript"><![CDATA[
document.addEventListener('DOMContentLoaded', (event) => {
  highlightEdges();
  highlightAdjacentNodes();
});
]]></script>
</svg>
