<?xml version="1.0" encoding="UTF-8" standalone="no"?>
<!DOCTYPE svg PUBLIC "-//W3C//DTD SVG 1.1//EN"
 "http://www.w3.org/Graphics/SVG/1.1/DTD/svg11.dtd">
<!-- Generated by graphviz version 2.43.0 (0)
 -->
<!-- Title: dedup_prepare_and_extract_all._prepare_groups_and_tensor_map Pages: 1 -->
<!--zoomable 291 -->

<svg id="main" version="1.1" xmlns="http://www.w3.org/2000/svg" xmlns:xlink="http://www.w3.org/1999/xlink" xml:space="preserve" onload="init(evt)">
<style type="text/css"><![CDATA[
.node, .edge {opacity: 0.7;}
.node.selected, .edge.selected {opacity: 1;}
.edge:hover path { stroke: red; }
.edge:hover polygon { stroke: red; fill: red; }
]]></style>

<defs>
  <circle id="rim" cx="0" cy="0" r="7"/>
  <circle id="rim2" cx="0" cy="0" r="3.5"/>
  <g id="zoomPlus">
    <use xlink:href="#rim" fill="#404040"><set attributeName="fill" to="#808080" begin="zoomplus.mouseover" end="zoomplus.mouseout"/></use>
    <path d="M-4,0h8M0,-4v8" fill="none" stroke="white" stroke-width="1.5" pointer-events="none"/>
  </g>
  <g id="zoomMin">
    <use xlink:href="#rim" fill="#404040"><set attributeName="fill" to="#808080" begin="zoomminus.mouseover" end="zoomminus.mouseout"/></use>
    <path d="M-4,0h8" fill="none" stroke="white" stroke-width="1.5" pointer-events="none"/>
  </g>
  <g id="arrowUp" transform="translate(30 24)">
    <use xlink:href="#rim"/>
    <path pointer-events="none" fill="none" stroke="white" stroke-width="1.5" d="M0,-3.0v7 M-2.5,-0.5L0,-3.0L2.5,-0.5"/>
  </g>
  <g id="arrowRight" transform="rotate(90) translate(36 -43)">
    <use xlink:href="#rim"/>
    <path pointer-events="none" fill="none" stroke="white" stroke-width="1.5" d="M0,-3.0v7 M-2.5,-0.5L0,-3.0L2.5,-0.5"/>
  </g>
  <g id="arrowDown" transform="rotate(180) translate(-30 -48)">
    <use xlink:href="#rim"/>
    <path pointer-events="none" fill="none" stroke="white" stroke-width="1.5" d="M0,-3.0v7 M-2.5,-0.5L0,-3.0L2.5,-0.5"/>
  </g>
  <g id="arrowLeft" transform="rotate(270) translate(-36 17)">
    <use xlink:href="#rim"/>
    <path pointer-events="none" fill="none" stroke="white" stroke-width="1.5" d="M0,-3.0v7 M-2.5,-0.5L0,-3.0L2.5,-0.5"/>
  </g>
  <g id="resetDef">
    <use xlink:href="#rim2" fill="#404040"><set attributeName="fill" to="#808080" begin="reset.mouseover" end="reset.mouseout"/></use>
  </g>
</defs>
<script type="application/ecmascript">
var viewWidth = 697;
var viewHeight = 291;
var sectionId = 'dynsection-10';
</script>
<script type="application/ecmascript" xlink:href="svg.min.js"/>
<svg id="graph" class="graph">
<g id="viewport">
<title>dedup_prepare_and_extract_all._prepare_groups_and_tensor_map</title>
<!-- Node1 -->
<g id="Node000001" class="node">
<title>Node1</title>
<g id="a_Node000001"><a xlink:title=" ">
<polygon fill="#999999" stroke="#666666" points="152,-145.5 0,-145.5 0,-104.5 152,-104.5 152,-145.5"/>
<text text-anchor="start" x="8" y="-133.5" font-family="Helvetica,sans-Serif" font-size="10.00">dedup_prepare_and_extract</text>
<text text-anchor="start" x="8" y="-122.5" font-family="Helvetica,sans-Serif" font-size="10.00">_all._prepare_groups_and</text>
<text text-anchor="middle" x="76" y="-111.5" font-family="Helvetica,sans-Serif" font-size="10.00">_tensor_map</text>
</a>
</g>
</g>
<!-- Node2 -->
<g id="Node000002" class="node">
<title>Node2</title>
<g id="a_Node000002"><a xlink:href="namespacededup__prepare__and__extract__all.html#a0483b84b3e426f5e4d969801279b2cf0" target="_top" xlink:title=" ">
<polygon fill="white" stroke="#666666" points="340,-245 188,-245 188,-215 340,-215 340,-245"/>
<text text-anchor="start" x="196" y="-233" font-family="Helvetica,sans-Serif" font-size="10.00">dedup_prepare_and_extract</text>
<text text-anchor="middle" x="264" y="-222" font-family="Helvetica,sans-Serif" font-size="10.00">_all._as_list_tensors</text>
</a>
</g>
</g>
<!-- Node1&#45;&gt;Node2 -->
<g id="edge1_Node000001_Node000002" class="edge">
<title>Node1&#45;&gt;Node2</title>
<g id="a_edge1_Node000001_Node000002"><a xlink:title=" ">
<path fill="none" stroke="#63b8ff" d="M103.27,-145.57C125.09,-162.01 157.42,-184.9 188,-201 194.86,-204.61 202.28,-208.02 209.68,-211.15"/>
<polygon fill="#63b8ff" stroke="#63b8ff" points="208.43,-214.42 219.01,-214.95 211.07,-207.94 208.43,-214.42"/>
</a>
</g>
</g>
<!-- Node4 -->
<g id="Node000004" class="node">
<title>Node4</title>
<g id="a_Node000004"><a xlink:href="ie__device__cuda_8cu.html#a5e3d9fee84981707669f5c2398f0c4ab" target="_top" xlink:title="Row&#45;wise GEMV kernel: each thread computes one output row.">
<polygon fill="white" stroke="#666666" points="689,-159 564,-159 564,-129 689,-129 689,-159"/>
<text text-anchor="start" x="572" y="-147" font-family="Helvetica,sans-Serif" font-size="10.00">ie_gemv_rowwise_f32</text>
<text text-anchor="middle" x="626.5" y="-136" font-family="Helvetica,sans-Serif" font-size="10.00">_kernel</text>
</a>
</g>
</g>
<!-- Node1&#45;&gt;Node4 -->
<g id="edge13_Node000001_Node000004" class="edge">
<title>Node1&#45;&gt;Node4</title>
<g id="a_edge13_Node000001_Node000004"><a xlink:title=" ">
<path fill="none" stroke="#63b8ff" d="M152.14,-142.07C241.76,-160.14 396.04,-184 528,-168 539.9,-166.56 552.44,-164.16 564.41,-161.42"/>
<polygon fill="#63b8ff" stroke="#63b8ff" points="565.4,-164.78 574.32,-159.06 563.78,-157.97 565.4,-164.78"/>
</a>
</g>
</g>
<!-- Node5 -->
<g id="Node000005" class="node">
<title>Node5</title>
<g id="a_Node000005"><a xlink:href="namespacededup__prepare__and__extract__all.html#a2fae51d7cc3110f0004551ac26d2f050" target="_top" xlink:title=" ">
<polygon fill="white" stroke="#666666" points="528,-159 376,-159 376,-129 528,-129 528,-159"/>
<text text-anchor="start" x="384" y="-147" font-family="Helvetica,sans-Serif" font-size="10.00">dedup_prepare_and_extract</text>
<text text-anchor="middle" x="452" y="-136" font-family="Helvetica,sans-Serif" font-size="10.00">_all._build_name_to_index</text>
</a>
</g>
</g>
<!-- Node1&#45;&gt;Node5 -->
<g id="edge5_Node000001_Node000005" class="edge">
<title>Node1&#45;&gt;Node5</title>
<g id="a_edge5_Node000001_Node000005"><a xlink:title=" ">
<path fill="none" stroke="#63b8ff" d="M152.23,-128.82C213.99,-131.96 301.43,-136.4 365.77,-139.67"/>
<polygon fill="#63b8ff" stroke="#63b8ff" points="365.72,-143.17 375.89,-140.18 366.08,-136.18 365.72,-143.17"/>
</a>
</g>
</g>
<!-- Node6 -->
<g id="Node000006" class="node">
<title>Node6</title>
<g id="a_Node000006"><a xlink:href="namespacededup__prepare__and__extract__all.html#a8775f6b101d32d056aebff3d069f65a4" target="_top" xlink:title=" ">
<polygon fill="white" stroke="#666666" points="528,-111 376,-111 376,-81 528,-81 528,-111"/>
<text text-anchor="start" x="384" y="-99" font-family="Helvetica,sans-Serif" font-size="10.00">dedup_prepare_and_extract</text>
<text text-anchor="middle" x="452" y="-88" font-family="Helvetica,sans-Serif" font-size="10.00">_all._load_json</text>
</a>
</g>
</g>
<!-- Node1&#45;&gt;Node6 -->
<g id="edge7_Node000001_Node000006" class="edge">
<title>Node1&#45;&gt;Node6</title>
<g id="a_edge7_Node000001_Node000006"><a xlink:title=" ">
<path fill="none" stroke="#63b8ff" d="M152.23,-119.17C213.99,-114.38 301.43,-107.6 365.77,-102.61"/>
<polygon fill="#63b8ff" stroke="#63b8ff" points="366.19,-106.09 375.89,-101.82 365.64,-99.11 366.19,-106.09"/>
</a>
</g>
</g>
<!-- Node7 -->
<g id="Node000007" class="node">
<title>Node7</title>
<g id="a_Node000007"><a xlink:href="namespacededup__prepare__and__extract__all.html#aff86add16d357753dee28bda484019c6" target="_top" xlink:title=" ">
<polygon fill="white" stroke="#666666" points="340,-78 188,-78 188,-48 340,-48 340,-78"/>
<text text-anchor="start" x="196" y="-66" font-family="Helvetica,sans-Serif" font-size="10.00">dedup_prepare_and_extract</text>
<text text-anchor="middle" x="264" y="-55" font-family="Helvetica,sans-Serif" font-size="10.00">_all._make_virtual_slices</text>
</a>
</g>
</g>
<!-- Node1&#45;&gt;Node7 -->
<g id="edge9_Node000001_Node000007" class="edge">
<title>Node1&#45;&gt;Node7</title>
<g id="a_edge9_Node000001_Node000007"><a xlink:title=" ">
<path fill="none" stroke="#63b8ff" d="M138.68,-104.44C161.14,-96.95 186.37,-88.54 208.2,-81.27"/>
<polygon fill="#63b8ff" stroke="#63b8ff" points="209.59,-84.49 217.97,-78.01 207.38,-77.85 209.59,-84.49"/>
</a>
</g>
</g>
<!-- Node8 -->
<g id="Node000008" class="node">
<title>Node8</title>
<g id="a_Node000008"><a xlink:href="namespacededup__prepare__and__extract__all.html#a45246e5fd8e820172df1bd4e9253a791" target="_top" xlink:title=" ">
<polygon fill="white" stroke="#666666" points="340,-30 188,-30 188,0 340,0 340,-30"/>
<text text-anchor="start" x="196" y="-18" font-family="Helvetica,sans-Serif" font-size="10.00">dedup_prepare_and_extract</text>
<text text-anchor="middle" x="264" y="-7" font-family="Helvetica,sans-Serif" font-size="10.00">_all._save_json</text>
</a>
</g>
</g>
<!-- Node1&#45;&gt;Node8 -->
<g id="edge11_Node000001_Node000008" class="edge">
<title>Node1&#45;&gt;Node8</title>
<g id="a_edge11_Node000001_Node000008"><a xlink:title=" ">
<path fill="none" stroke="#63b8ff" d="M98.77,-104.36C120.06,-85.13 154.13,-56.82 188,-39 191.44,-37.19 195.04,-35.48 198.73,-33.89"/>
<polygon fill="#63b8ff" stroke="#63b8ff" points="200.06,-37.12 208.01,-30.12 197.43,-30.63 200.06,-37.12"/>
</a>
</g>
</g>
<!-- Node3 -->
<g id="Node000003" class="node">
<title>Node3</title>
<g id="a_Node000003"><a xlink:href="namespacededup__prepare__and__extract__all.html#a75e66061d3a65f6e4777698ac5cb20a7" target="_top" xlink:title=" ">
<polygon fill="white" stroke="#666666" points="528,-283 376,-283 376,-253 528,-253 528,-283"/>
<text text-anchor="start" x="384" y="-271" font-family="Helvetica,sans-Serif" font-size="10.00">dedup_prepare_and_extract</text>
<text text-anchor="middle" x="452" y="-260" font-family="Helvetica,sans-Serif" font-size="10.00">_all._dtype_size</text>
</a>
</g>
</g>
<!-- Node2&#45;&gt;Node3 -->
<g id="edge2_Node000002_Node000003" class="edge">
<title>Node2&#45;&gt;Node3</title>
<g id="a_edge2_Node000002_Node000003"><a xlink:title=" ">
<path fill="none" stroke="#63b8ff" d="M338.51,-245.02C348.01,-246.96 357.79,-248.96 367.43,-250.93"/>
<polygon fill="#63b8ff" stroke="#63b8ff" points="366.91,-254.39 377.41,-252.97 368.32,-247.54 366.91,-254.39"/>
</a>
</g>
</g>
<!-- Node2&#45;&gt;Node4 -->
<g id="edge4_Node000002_Node000004" class="edge">
<title>Node2&#45;&gt;Node4</title>
<g id="a_edge4_Node000002_Node000004"><a xlink:title=" ">
<path fill="none" stroke="#63b8ff" d="M340.17,-229.98C393.75,-228 466.83,-221.23 528,-201 552.91,-192.76 578.42,-177.56 597.09,-164.93"/>
<polygon fill="#63b8ff" stroke="#63b8ff" points="599.19,-167.73 605.42,-159.16 595.21,-161.98 599.19,-167.73"/>
</a>
</g>
</g>
<!-- Node3&#45;&gt;Node4 -->
<g id="edge3_Node000003_Node000004" class="edge">
<title>Node3&#45;&gt;Node4</title>
<g id="a_edge3_Node000003_Node000004"><a xlink:title=" ">
<path fill="none" stroke="#63b8ff" d="M500.83,-252.84C510.18,-248.97 519.66,-244.35 528,-239 559.08,-219.05 588.54,-188.06 606.78,-166.94"/>
<polygon fill="#63b8ff" stroke="#63b8ff" points="609.63,-168.99 613.43,-159.1 604.3,-164.46 609.63,-168.99"/>
</a>
</g>
</g>
<!-- Node5&#45;&gt;Node4 -->
<g id="edge6_Node000005_Node000004" class="edge">
<title>Node5&#45;&gt;Node4</title>
<g id="a_edge6_Node000005_Node000004"><a xlink:title=" ">
<path fill="none" stroke="#63b8ff" d="M528.16,-144C536.61,-144 545.22,-144 553.63,-144"/>
<polygon fill="#63b8ff" stroke="#63b8ff" points="553.77,-147.5 563.77,-144 553.77,-140.5 553.77,-147.5"/>
</a>
</g>
</g>
<!-- Node6&#45;&gt;Node4 -->
<g id="edge8_Node000006_Node000004" class="edge">
<title>Node6&#45;&gt;Node4</title>
<g id="a_edge8_Node000006_Node000004"><a xlink:title=" ">
<path fill="none" stroke="#63b8ff" d="M507.11,-111.06C524.45,-115.88 543.81,-121.27 561.77,-126.27"/>
<polygon fill="#63b8ff" stroke="#63b8ff" points="561.01,-129.69 571.59,-129 562.89,-122.94 561.01,-129.69"/>
</a>
</g>
</g>
<!-- Node7&#45;&gt;Node4 -->
<g id="edge10_Node000007_Node000004" class="edge">
<title>Node7&#45;&gt;Node4</title>
<g id="a_edge10_Node000007_Node000004"><a xlink:title=" ">
<path fill="none" stroke="#63b8ff" d="M340.28,-53.95C394.08,-50.24 467.38,-50.89 528,-72 557.39,-82.23 585.35,-104.67 603.74,-121.79"/>
<polygon fill="#63b8ff" stroke="#63b8ff" points="601.37,-124.37 611.01,-128.76 606.21,-119.31 601.37,-124.37"/>
</a>
</g>
</g>
<!-- Node8&#45;&gt;Node4 -->
<g id="edge12_Node000008_Node000004" class="edge">
<title>Node8&#45;&gt;Node4</title>
<g id="a_edge12_Node000008_Node000004"><a xlink:title=" ">
<path fill="none" stroke="#63b8ff" d="M340.03,-11.85C394.71,-12.47 469.2,-19.5 528,-48 562.31,-64.63 591.92,-98.14 609.24,-120.83"/>
<polygon fill="#63b8ff" stroke="#63b8ff" points="606.49,-122.99 615.26,-128.94 612.11,-118.82 606.49,-122.99"/>
</a>
</g>
</g>
</g>
</svg>

<g id="navigator" transform="translate(0 0)" fill="#404254">
  <rect fill="#f2f5e9" fill-opacity="0.5" stroke="#606060" stroke-width=".5" x="0" y="0" width="60" height="60"/>
  <use id="zoomplus" xlink:href="#zoomPlus" x="17" y="9" onmousedown="handleZoom(evt,'in')"/>
  <use id="zoomminus" xlink:href="#zoomMin" x="42" y="9" onmousedown="handleZoom(evt,'out')"/>
  <use id="reset" xlink:href="#resetDef" x="30" y="36" onmousedown="handleReset()"/>
   <use id="arrowup" xlink:href="#arrowUp" x="0" y="0" onmousedown="handlePan(0,-1)"/>
  <use id="arrowright" xlink:href="#arrowRight" x="0" y="0" onmousedown="handlePan(1,0)"/>
  <use id="arrowdown" xlink:href="#arrowDown" x="0" y="0" onmousedown="handlePan(0,1)"/>
  <use id="arrowleft" xlink:href="#arrowLeft" x="0" y="0" onmousedown="handlePan(-1,0)"/>
</g>
<svg viewBox="0 0 15 15" width="100%" height="30px" preserveAspectRatio="xMaxYMin meet">
 <g id="arrow_out" transform="scale(0.3 0.3)">
  <a xlink:href="namespacededup__prepare__and__extract__all_a06789ce5a72299437e115b723205b8e5_cgraph_org.svg" target="_base">
   <rect id="button" ry="5" rx="5" y="6" x="6" height="38" width="38"
        fill="#f2f5e9" fill-opacity="0.5" stroke="#606060" stroke-width="1.0"/>
   <path id="arrow"
     d="M 11.500037,31.436501 C 11.940474,20.09759 22.043105,11.32322 32.158766,21.979434 L 37.068811,17.246167 C 37.068811,17.246167 37.088388,32 37.088388,32 L 22.160133,31.978069 C 22.160133,31.978069 26.997745,27.140456 26.997745,27.140456 C 18.528582,18.264221 13.291696,25.230495 11.500037,31.436501 z"
     style="fill:#404040;"/>
  </a>
 </g>
</svg>

<style type='text/css'>
<![CDATA[
[data-mouse-over-selected='false'] { opacity: 0.7; }
[data-mouse-over-selected='true']  { opacity: 1.0; }
]]>
</style>
<script type="application/ecmascript"><![CDATA[
document.addEventListener('DOMContentLoaded', (event) => {
  highlightEdges();
  highlightAdjacentNodes();
});
]]></script>
</svg>
