<?xml version="1.0" encoding="UTF-8" standalone="no"?>
<!DOCTYPE svg PUBLIC "-//W3C//DTD SVG 1.1//EN"
 "http://www.w3.org/Graphics/SVG/1.1/DTD/svg11.dtd">
<!-- Generated by graphviz version 12.2.1 (20241206.2353)
 -->
<!-- Title: harness.main Pages: 1 -->
<svg width="262pt" height="68pt"
 viewBox="0.00 0.00 262.00 67.75" xmlns="http://www.w3.org/2000/svg" xmlns:xlink="http://www.w3.org/1999/xlink">
<g id="graph0" class="graph" transform="scale(1 1) rotate(0) translate(4 63.75)">
<title>harness.main</title>
<!-- Node1 -->
<g id="Node000001" class="node">
<title>Node1</title>
<g id="a_Node000001"><a xlink:title=" ">
<polygon fill="#999999" stroke="#666666" points="82,-39.75 0,-39.75 0,-19 82,-19 82,-39.75"/>
<text text-anchor="middle" x="41" y="-26.25" font-family="Helvetica,sans-Serif" font-size="10.00">harness.main</text>
</a>
</g>
</g>
<!-- Node1&#45;&gt;Node1 -->
<g id="edge1_Node000001_Node000001" class="edge">
<title>Node1&#45;&gt;Node1</title>
<g id="a_edge1_Node000001_Node000001"><a xlink:title=" ">
<path fill="none" stroke="#63b8ff" d="M17.64,-40.15C8.29,-48.81 16.08,-57.75 41,-57.75 54.63,-57.75 63.13,-55.08 66.51,-51.24"/>
<polygon fill="#63b8ff" stroke="#63b8ff" points="69.99,-50.78 64.65,-41.63 63.12,-52.12 69.99,-50.78"/>
</a>
</g>
</g>
<!-- Node2 -->
<g id="Node000002" class="node">
<title>Node2</title>
<g id="a_Node000002"><a xlink:href="namespaceharness.html#ac9f1bde483441516bc8042ea477fe3c5" target="_top" xlink:title=" ">
<polygon fill="white" stroke="#666666" points="254,-59.75 118,-59.75 118,-39 254,-39 254,-59.75"/>
<text text-anchor="middle" x="186" y="-46.25" font-family="Helvetica,sans-Serif" font-size="10.00">harness.make_summary</text>
</a>
</g>
</g>
<!-- Node1&#45;&gt;Node2 -->
<g id="edge2_Node000001_Node000002" class="edge">
<title>Node1&#45;&gt;Node2</title>
<g id="a_edge2_Node000001_Node000002"><a xlink:title=" ">
<path fill="none" stroke="#63b8ff" d="M82.21,-35C89.82,-36.06 98.02,-37.21 106.35,-38.38"/>
<polygon fill="#63b8ff" stroke="#63b8ff" points="105.86,-41.84 116.25,-39.76 106.83,-34.91 105.86,-41.84"/>
</a>
</g>
</g>
<!-- Node3 -->
<g id="Node000003" class="node">
<title>Node3</title>
<g id="a_Node000003"><a xlink:href="namespaceharness.html#abadd908805b591f82fae7f35b779f642" target="_top" xlink:title=" ">
<polygon fill="white" stroke="#666666" points="241.25,-20.75 130.75,-20.75 130.75,0 241.25,0 241.25,-20.75"/>
<text text-anchor="middle" x="186" y="-7.25" font-family="Helvetica,sans-Serif" font-size="10.00">harness.parse_args</text>
</a>
</g>
</g>
<!-- Node1&#45;&gt;Node3 -->
<g id="edge3_Node000001_Node000003" class="edge">
<title>Node1&#45;&gt;Node3</title>
<g id="a_edge3_Node000001_Node000003"><a xlink:title=" ">
<path fill="none" stroke="#63b8ff" d="M82.21,-24.03C93.78,-22.5 106.7,-20.78 119.38,-19.09"/>
<polygon fill="#63b8ff" stroke="#63b8ff" points="119.46,-22.61 128.92,-17.83 118.54,-15.67 119.46,-22.61"/>
</a>
</g>
</g>
</g>
</svg>
