<?xml version="1.0" encoding="UTF-8" standalone="no"?>
<!DOCTYPE svg PUBLIC "-//W3C//DTD SVG 1.1//EN"
 "http://www.w3.org/Graphics/SVG/1.1/DTD/svg11.dtd">
<!-- Generated by graphviz version 12.2.1 (20241206.2353)
 -->
<!-- Title: q4_pack_stream.safe Pages: 1 -->
<svg width="288pt" height="47pt"
 viewBox="0.00 0.00 288.25 46.75" xmlns="http://www.w3.org/2000/svg" xmlns:xlink="http://www.w3.org/1999/xlink">
<g id="graph0" class="graph" transform="scale(1 1) rotate(0) translate(4 42.75)">
<title>q4_pack_stream.safe</title>
<!-- Node1 -->
<g id="Node000001" class="node">
<title>Node1</title>
<g id="a_Node000001"><a xlink:title=" ">
<polygon fill="#999999" stroke="#666666" points="280.25,-20.75 160,-20.75 160,0 280.25,0 280.25,-20.75"/>
<text text-anchor="middle" x="220.12" y="-7.25" font-family="Helvetica,sans-Serif" font-size="10.00">q4_pack_stream.safe</text>
</a>
</g>
</g>
<!-- Node2 -->
<g id="Node000002" class="node">
<title>Node2</title>
<g id="a_Node000002"><a xlink:href="namespaceq4__pack__stream.html#aa0eb42b018a2bb4a3104267f15b25322" target="_top" xlink:title=" ">
<polygon fill="white" stroke="#666666" points="124,-20.75 0,-20.75 0,0 124,0 124,-20.75"/>
<text text-anchor="middle" x="62" y="-7.25" font-family="Helvetica,sans-Serif" font-size="10.00">q4_pack_stream.main</text>
</a>
</g>
</g>
<!-- Node1&#45;&gt;Node2 -->
<g id="edge1_Node000001_Node000002" class="edge">
<title>Node1&#45;&gt;Node2</title>
<g id="a_edge1_Node000001_Node000002"><a xlink:title=" ">
<path fill="none" stroke="#63b8ff" d="M148.42,-10.38C140.39,-10.38 132.27,-10.38 124.38,-10.38"/>
<polygon fill="#63b8ff" stroke="#63b8ff" points="148.14,-13.88 158.14,-10.38 148.14,-6.88 148.14,-13.88"/>
</a>
</g>
</g>
<!-- Node2&#45;&gt;Node2 -->
<g id="edge2_Node000002_Node000002" class="edge">
<title>Node2&#45;&gt;Node2</title>
<g id="a_edge2_Node000002_Node000002"><a xlink:title=" ">
<path fill="none" stroke="#63b8ff" d="M89.82,-32.24C86.14,-36.08 76.86,-38.75 62,-38.75 34.82,-38.75 26.33,-29.81 36.52,-21.15"/>
<polygon fill="#63b8ff" stroke="#63b8ff" points="93.29,-31.69 87.79,-22.63 86.44,-33.14 93.29,-31.69"/>
</a>
</g>
</g>
</g>
</svg>
