<?xml version="1.0" encoding="UTF-8" standalone="no"?>
<!DOCTYPE svg PUBLIC "-//W3C//DTD SVG 1.1//EN"
 "http://www.w3.org/Graphics/SVG/1.1/DTD/svg11.dtd">
<!-- Generated by graphviz version 2.43.0 (0)
 -->
<!-- Title: dedup_prepare_and_extract_all.main Pages: 1 -->
<svg width="536pt" height="88pt"
 viewBox="0.00 0.00 536.00 88.00" xmlns="http://www.w3.org/2000/svg" xmlns:xlink="http://www.w3.org/1999/xlink">
<g id="graph0" class="graph" transform="scale(1 1) rotate(0) translate(4 84)">
<title>dedup_prepare_and_extract_all.main</title>
<!-- Node1 -->
<g id="node1" class="node">
<title>Node1</title>
<g id="a_node1"><a xlink:title=" ">
<polygon fill="#bfbfbf" stroke="black" points="0,-24.5 0,-54.5 152,-54.5 152,-24.5 0,-24.5"/>
<text text-anchor="start" x="8" y="-42.5" font-family="Helvetica,sans-Serif" font-size="10.00">dedup_prepare_and_extract</text>
<text text-anchor="middle" x="76" y="-31.5" font-family="Helvetica,sans-Serif" font-size="10.00">_all.main</text>
</a>
</g>
</g>
<!-- Node2 -->
<g id="node2" class="node">
<title>Node2</title>
<g id="a_node2"><a xlink:href="namespacededup__prepare__and__extract__all.html#a3dfdb71dfdc986b07b1a6f60c90a26e2" target="_top" xlink:title=" ">
<polygon fill="none" stroke="black" points="188,-49.5 188,-79.5 340,-79.5 340,-49.5 188,-49.5"/>
<text text-anchor="start" x="196" y="-67.5" font-family="Helvetica,sans-Serif" font-size="10.00">dedup_prepare_and_extract</text>
<text text-anchor="middle" x="264" y="-56.5" font-family="Helvetica,sans-Serif" font-size="10.00">_all.load_ie</text>
</a>
</g>
</g>
<!-- Node1&#45;&gt;Node2 -->
<g id="edge1" class="edge">
<title>Node1&#45;&gt;Node2</title>
<path fill="none" stroke="midnightblue" d="M152.12,-49.6C160.6,-50.74 169.28,-51.9 177.87,-53.06"/>
<polygon fill="midnightblue" stroke="midnightblue" points="177.53,-56.54 187.9,-54.41 178.46,-49.61 177.53,-56.54"/>
</g>
<!-- Node3 -->
<g id="node3" class="node">
<title>Node3</title>
<g id="a_node3"><a xlink:href="namespacededup__prepare__and__extract__all.html#afbf277c7087e5c951c6a937300bcfe47" target="_top" xlink:title=" ">
<polygon fill="none" stroke="black" points="188,-0.5 188,-30.5 340,-30.5 340,-0.5 188,-0.5"/>
<text text-anchor="start" x="196" y="-18.5" font-family="Helvetica,sans-Serif" font-size="10.00">dedup_prepare_and_extract</text>
<text text-anchor="middle" x="264" y="-7.5" font-family="Helvetica,sans-Serif" font-size="10.00">_all.make_virtual_slices</text>
</a>
</g>
</g>
<!-- Node1&#45;&gt;Node3 -->
<g id="edge2" class="edge">
<title>Node1&#45;&gt;Node3</title>
<path fill="none" stroke="midnightblue" d="M152.12,-29.81C160.6,-28.71 169.28,-27.59 177.87,-26.48"/>
<polygon fill="midnightblue" stroke="midnightblue" points="178.43,-29.94 187.9,-25.19 177.54,-23 178.43,-29.94"/>
</g>
<!-- Node4 -->
<g id="node4" class="node">
<title>Node4</title>
<g id="a_node4"><a xlink:href="namespacededup__prepare__and__extract__all.html#a04fa89fa7b7c792e4db0b28c549c80a2" target="_top" xlink:title=" ">
<polygon fill="none" stroke="black" points="376,-0.5 376,-30.5 528,-30.5 528,-0.5 376,-0.5"/>
<text text-anchor="start" x="384" y="-18.5" font-family="Helvetica,sans-Serif" font-size="10.00">dedup_prepare_and_extract</text>
<text text-anchor="middle" x="452" y="-7.5" font-family="Helvetica,sans-Serif" font-size="10.00">_all.dtype_size</text>
</a>
</g>
</g>
<!-- Node3&#45;&gt;Node4 -->
<g id="edge3" class="edge">
<title>Node3&#45;&gt;Node4</title>
<path fill="none" stroke="midnightblue" d="M340.12,-15.5C348.6,-15.5 357.28,-15.5 365.87,-15.5"/>
<polygon fill="midnightblue" stroke="midnightblue" points="365.9,-19 375.9,-15.5 365.9,-12 365.9,-19"/>
</g>
</g>
</svg>
