<?xml version="1.0" encoding="UTF-8" standalone="no"?>
<!DOCTYPE svg PUBLIC "-//W3C//DTD SVG 1.1//EN"
 "http://www.w3.org/Graphics/SVG/1.1/DTD/svg11.dtd">
<!-- Generated by graphviz version 12.2.1 (20241206.2353)
 -->
<!-- Title: metrics_exporter._help_type Pages: 1 -->
<svg width="552pt" height="42pt"
 viewBox="0.00 0.00 551.75 41.50" xmlns="http://www.w3.org/2000/svg" xmlns:xlink="http://www.w3.org/1999/xlink">
<g id="graph0" class="graph" transform="scale(1 1) rotate(0) translate(4 37.5)">
<title>metrics_exporter._help_type</title>
<!-- Node1 -->
<g id="Node000001" class="node">
<title>Node1</title>
<g id="a_Node000001"><a xlink:title=" ">
<polygon fill="#999999" stroke="#666666" points="543.75,-27.12 389,-27.12 389,-6.38 543.75,-6.38 543.75,-27.12"/>
<text text-anchor="middle" x="466.38" y="-13.62" font-family="Helvetica,sans-Serif" font-size="10.00">metrics_exporter._help_type</text>
</a>
</g>
</g>
<!-- Node2 -->
<g id="Node000002" class="node">
<title>Node2</title>
<g id="a_Node000002"><a xlink:href="namespacemetrics__exporter.html#a81c84bf60f85d728f2c125f3ba9419f7" target="_top" xlink:title=" ">
<polygon fill="white" stroke="#666666" points="353,-33.5 214.75,-33.5 214.75,0 353,0 353,-33.5"/>
<text text-anchor="start" x="222.75" y="-20" font-family="Helvetica,sans-Serif" font-size="10.00">metrics_exporter.collect</text>
<text text-anchor="middle" x="283.88" y="-7.25" font-family="Helvetica,sans-Serif" font-size="10.00">_metrics_from_summary</text>
</a>
</g>
</g>
<!-- Node1&#45;&gt;Node2 -->
<g id="edge1_Node000001_Node000002" class="edge">
<title>Node1&#45;&gt;Node2</title>
<g id="a_edge1_Node000001_Node000002"><a xlink:title=" ">
<path fill="none" stroke="#63b8ff" d="M377.25,-16.75C369.21,-16.75 361.16,-16.75 353.33,-16.75"/>
<polygon fill="#63b8ff" stroke="#63b8ff" points="377.05,-20.25 387.05,-16.75 377.05,-13.25 377.05,-20.25"/>
</a>
</g>
</g>
<!-- Node3 -->
<g id="Node000003" class="node">
<title>Node3</title>
<g id="a_Node000003"><a xlink:href="classmetrics__exporter_1_1Handler.html#aa929b01d98693e510b94e82e6a9e92c0" target="_top" xlink:title=" ">
<polygon fill="white" stroke="#666666" points="178.75,-27.12 0,-27.12 0,-6.38 178.75,-6.38 178.75,-27.12"/>
<text text-anchor="middle" x="89.38" y="-13.62" font-family="Helvetica,sans-Serif" font-size="10.00">metrics_exporter.Handler.do_GET</text>
</a>
</g>
</g>
<!-- Node2&#45;&gt;Node3 -->
<g id="edge2_Node000002_Node000003" class="edge">
<title>Node2&#45;&gt;Node3</title>
<g id="a_edge2_Node000002_Node000003"><a xlink:title=" ">
<path fill="none" stroke="#63b8ff" d="M203.03,-16.75C195.13,-16.75 187.08,-16.75 179.1,-16.75"/>
<polygon fill="#63b8ff" stroke="#63b8ff" points="202.95,-20.25 212.95,-16.75 202.95,-13.25 202.95,-20.25"/>
</a>
</g>
</g>
</g>
</svg>
