<?xml version="1.0" encoding="UTF-8" standalone="no"?>
<!DOCTYPE svg PUBLIC "-//W3C//DTD SVG 1.1//EN"
 "http://www.w3.org/Graphics/SVG/1.1/DTD/svg11.dtd">
<!-- Generated by graphviz version 2.43.0 (0)
 -->
<!-- Title: ptq_calib.mse Pages: 1 -->
<svg width="249pt" height="66pt"
 viewBox="0.00 0.00 249.00 66.00" xmlns="http://www.w3.org/2000/svg" xmlns:xlink="http://www.w3.org/1999/xlink">
<g id="graph0" class="graph" transform="scale(1 1) rotate(0) translate(4 62)">
<title>ptq_calib.mse</title>
<!-- Node1 -->
<g id="node1" class="node">
<title>Node1</title>
<g id="a_node1"><a xlink:title=" ">
<polygon fill="#bfbfbf" stroke="black" points="156,-19.5 156,-38.5 241,-38.5 241,-19.5 156,-19.5"/>
<text text-anchor="middle" x="198.5" y="-26.5" font-family="Helvetica,sans-Serif" font-size="10.00">ptq_calib.mse</text>
</a>
</g>
</g>
<!-- Node2 -->
<g id="node2" class="node">
<title>Node2</title>
<g id="a_node2"><a xlink:href="group__ie__int4__quant.html#ga5eab5a797587f75e75af981b851f3d4d" target="_top" xlink:title="Compute error metrics between two float32 vectors of equal length: mean squared error (MSE) and cosin...">
<polygon fill="none" stroke="black" points="0,-38.5 0,-57.5 120,-57.5 120,-38.5 0,-38.5"/>
<text text-anchor="middle" x="60" y="-45.5" font-family="Helvetica,sans-Serif" font-size="10.00">ie_int4_error_metrics</text>
</a>
</g>
</g>
<!-- Node1&#45;&gt;Node2 -->
<g id="edge1" class="edge">
<title>Node1&#45;&gt;Node2</title>
<path fill="none" stroke="midnightblue" d="M145.76,-36.2C137.36,-37.37 128.59,-38.59 120.03,-39.78"/>
<polygon fill="midnightblue" stroke="midnightblue" points="146.38,-39.65 155.8,-34.8 145.42,-32.72 146.38,-39.65"/>
</g>
<!-- Node3 -->
<g id="node3" class="node">
<title>Node3</title>
<g id="a_node3"><a xlink:href="namespaceptq__calib.html#a8c5f80e88cff2f08011a13e1a7b9ea6e" target="_top" xlink:title=" ">
<polygon fill="none" stroke="black" points="15.5,-0.5 15.5,-19.5 104.5,-19.5 104.5,-0.5 15.5,-0.5"/>
<text text-anchor="middle" x="60" y="-7.5" font-family="Helvetica,sans-Serif" font-size="10.00">ptq_calib.main</text>
</a>
</g>
</g>
<!-- Node1&#45;&gt;Node3 -->
<g id="edge2" class="edge">
<title>Node1&#45;&gt;Node3</title>
<path fill="none" stroke="midnightblue" d="M145.71,-21.79C132.23,-19.91 117.83,-17.91 104.81,-16.1"/>
<polygon fill="midnightblue" stroke="midnightblue" points="145.42,-25.28 155.8,-23.2 146.38,-18.35 145.42,-25.28"/>
</g>
</g>
</svg>
