<?xml version="1.0" encoding="UTF-8" standalone="no"?>
<!DOCTYPE svg PUBLIC "-//W3C//DTD SVG 1.1//EN"
 "http://www.w3.org/Graphics/SVG/1.1/DTD/svg11.dtd">
<!-- Generated by graphviz version 2.43.0 (0)
 -->
<!-- Title: append_q4_attn_from_hf.main Pages: 1 -->
<svg width="467pt" height="278pt"
 viewBox="0.00 0.00 467.00 278.00" xmlns="http://www.w3.org/2000/svg" xmlns:xlink="http://www.w3.org/1999/xlink">

<svg id="main" version="1.1" xmlns="http://www.w3.org/2000/svg" xmlns:xlink="http://www.w3.org/1999/xlink" xml:space="preserve" onload="init(evt)">
<style type="text/css"><![CDATA[
.node, .edge {opacity: 0.7;}
.node.selected, .edge.selected {opacity: 1;}
.edge:hover path { stroke: red; }
.edge:hover polygon { stroke: red; fill: red; }
]]></style>
<script type="application/ecmascript" xlink:href="svg.min.js"/>
<svg id="graph" class="graph">
<g id="graph0" class="graph" transform="scale(1 1) rotate(0) translate(4 274)">
<title>append_q4_attn_from_hf.main</title>
<!-- Node1 -->
<g id="Node000001" class="node">
<title>Node1</title>
<g id="a_Node000001"><a xlink:title=" ">
<polygon fill="#999999" stroke="#666666" points="123,-150 0,-150 0,-120 123,-120 123,-150"/>
<text text-anchor="start" x="8" y="-138" font-family="Helvetica,sans-Serif" font-size="10.00">append_q4_attn_from</text>
<text text-anchor="middle" x="61.5" y="-127" font-family="Helvetica,sans-Serif" font-size="10.00">_hf.main</text>
</a>
</g>
</g>
<!-- Node1&#45;&gt;Node1 -->
<g id="edge6_Node000001_Node000001" class="edge">
<title>Node1&#45;&gt;Node1</title>
<g id="a_edge6_Node000001_Node000001"><a xlink:title=" ">
<path fill="none" stroke="#63b8ff" d="M31.97,-150.28C25.41,-159.41 35.25,-168 61.5,-168 77.09,-168 86.89,-164.97 90.91,-160.6"/>
<polygon fill="#63b8ff" stroke="#63b8ff" points="94.41,-160.32 91.03,-150.28 87.41,-160.23 94.41,-160.32"/>
</a>
</g>
</g>
<!-- Node2 -->
<g id="Node000002" class="node">
<title>Node2</title>
<g id="a_Node000002"><a xlink:href="namespaceappend__q4__attn__from__hf.html#a57d85d75fa525de56bbabb90d1aace4a" target="_top" xlink:title=" ">
<polygon fill="white" stroke="#666666" points="291,-270 168,-270 168,-240 291,-240 291,-270"/>
<text text-anchor="start" x="176" y="-258" font-family="Helvetica,sans-Serif" font-size="10.00">append_q4_attn_from</text>
<text text-anchor="middle" x="229.5" y="-247" font-family="Helvetica,sans-Serif" font-size="10.00">_hf.append_tensor</text>
</a>
</g>
</g>
<!-- Node1&#45;&gt;Node2 -->
<g id="edge1_Node000001_Node000002" class="edge">
<title>Node1&#45;&gt;Node2</title>
<g id="a_edge1_Node000001_Node000002"><a xlink:title=" ">
<path fill="none" stroke="#63b8ff" d="M73.98,-150.11C90.6,-171.02 123.31,-208.74 159,-231 161.62,-232.64 164.37,-234.18 167.2,-235.63"/>
<polygon fill="#63b8ff" stroke="#63b8ff" points="165.9,-238.88 176.44,-239.95 168.86,-232.54 165.9,-238.88"/>
</a>
</g>
</g>
<!-- Node4 -->
<g id="Node000004" class="node">
<title>Node4</title>
<g id="a_Node000004"><a xlink:href="namespaceappend__q4__attn__from__hf.html#a1e20f585dadee21684835368a024b2cd" target="_top" xlink:title=" ">
<polygon fill="white" stroke="#666666" points="291,-222 168,-222 168,-192 291,-192 291,-222"/>
<text text-anchor="start" x="176" y="-210" font-family="Helvetica,sans-Serif" font-size="10.00">append_q4_attn_from</text>
<text text-anchor="middle" x="229.5" y="-199" font-family="Helvetica,sans-Serif" font-size="10.00">_hf.find_d_model</text>
</a>
</g>
</g>
<!-- Node1&#45;&gt;Node4 -->
<g id="edge3_Node000001_Node000004" class="edge">
<title>Node1&#45;&gt;Node4</title>
<g id="a_edge3_Node000001_Node000004"><a xlink:title=" ">
<path fill="none" stroke="#63b8ff" d="M90.34,-150.05C109.38,-160.04 135.36,-173.09 159,-183 163.4,-184.85 168,-186.67 172.65,-188.43"/>
<polygon fill="#63b8ff" stroke="#63b8ff" points="171.61,-191.77 182.2,-191.95 174.03,-185.2 171.61,-191.77"/>
</a>
</g>
</g>
<!-- Node5 -->
<g id="Node000005" class="node">
<title>Node5</title>
<g id="a_Node000005"><a xlink:href="namespaceappend__q4__attn__from__hf.html#ae20c1738aac6f8f3e4bccfe59c8aee06" target="_top" xlink:title=" ">
<polygon fill="white" stroke="#666666" points="291,-174 168,-174 168,-144 291,-144 291,-174"/>
<text text-anchor="start" x="176" y="-162" font-family="Helvetica,sans-Serif" font-size="10.00">append_q4_attn_from</text>
<text text-anchor="middle" x="229.5" y="-151" font-family="Helvetica,sans-Serif" font-size="10.00">_hf.infer_attn_dims</text>
</a>
</g>
</g>
<!-- Node1&#45;&gt;Node5 -->
<g id="edge4_Node000001_Node000005" class="edge">
<title>Node1&#45;&gt;Node5</title>
<g id="a_edge4_Node000001_Node000005"><a xlink:title=" ">
<path fill="none" stroke="#63b8ff" d="M123.37,-143.8C134.61,-145.42 146.43,-147.13 157.92,-148.8"/>
<polygon fill="#63b8ff" stroke="#63b8ff" points="157.52,-152.27 167.92,-150.24 158.52,-145.35 157.52,-152.27"/>
</a>
</g>
</g>
<!-- Node6 -->
<g id="Node000006" class="node">
<title>Node6</title>
<g id="a_Node000006"><a xlink:href="namespaceappend__q4__attn__from__hf.html#a1b56ae11b5c6ed2f48c8c12a7f4f3ec3" target="_top" xlink:title=" ">
<polygon fill="white" stroke="#666666" points="291,-126 168,-126 168,-96 291,-96 291,-126"/>
<text text-anchor="start" x="176" y="-114" font-family="Helvetica,sans-Serif" font-size="10.00">append_q4_attn_from</text>
<text text-anchor="middle" x="229.5" y="-103" font-family="Helvetica,sans-Serif" font-size="10.00">_hf.infer_layers</text>
</a>
</g>
</g>
<!-- Node1&#45;&gt;Node6 -->
<g id="edge5_Node000001_Node000006" class="edge">
<title>Node1&#45;&gt;Node6</title>
<g id="a_edge5_Node000001_Node000006"><a xlink:title=" ">
<path fill="none" stroke="#63b8ff" d="M123.37,-126.2C134.61,-124.58 146.43,-122.87 157.92,-121.2"/>
<polygon fill="#63b8ff" stroke="#63b8ff" points="158.52,-124.65 167.92,-119.76 157.52,-117.73 158.52,-124.65"/>
</a>
</g>
</g>
<!-- Node7 -->
<g id="Node000007" class="node">
<title>Node7</title>
<g id="a_Node000007"><a xlink:href="namespaceappend__q4__attn__from__hf.html#a896786cecd55907765bffb81936fecf9" target="_top" xlink:title=" ">
<polygon fill="white" stroke="#666666" points="296.5,-78 162.5,-78 162.5,-48 296.5,-48 296.5,-78"/>
<text text-anchor="start" x="170.5" y="-66" font-family="Helvetica,sans-Serif" font-size="10.00">append_q4_attn_from</text>
<text text-anchor="middle" x="229.5" y="-55" font-family="Helvetica,sans-Serif" font-size="10.00">_hf.orient_linear_weight</text>
</a>
</g>
</g>
<!-- Node1&#45;&gt;Node7 -->
<g id="edge7_Node000001_Node000007" class="edge">
<title>Node1&#45;&gt;Node7</title>
<g id="a_edge7_Node000001_Node000007"><a xlink:title=" ">
<path fill="none" stroke="#63b8ff" d="M90.34,-119.95C109.38,-109.96 135.36,-96.91 159,-87 163.4,-85.15 168,-83.33 172.65,-81.57"/>
<polygon fill="#63b8ff" stroke="#63b8ff" points="174.03,-84.8 182.2,-78.05 171.61,-78.23 174.03,-84.8"/>
</a>
</g>
</g>
<!-- Node8 -->
<g id="Node000008" class="node">
<title>Node8</title>
<g id="a_Node000008"><a xlink:href="namespaceappend__q4__attn__from__hf.html#a35974401d69f55a1ba970decc93f4768" target="_top" xlink:title=" ">
<polygon fill="white" stroke="#666666" points="300,-30 159,-30 159,0 300,0 300,-30"/>
<text text-anchor="start" x="167" y="-18" font-family="Helvetica,sans-Serif" font-size="10.00">append_q4_attn_from</text>
<text text-anchor="middle" x="229.5" y="-7" font-family="Helvetica,sans-Serif" font-size="10.00">_hf.quantize_q4_0_blocks</text>
</a>
</g>
</g>
<!-- Node1&#45;&gt;Node8 -->
<g id="edge8_Node000001_Node000008" class="edge">
<title>Node1&#45;&gt;Node8</title>
<g id="a_edge8_Node000001_Node000008"><a xlink:title=" ">
<path fill="none" stroke="#63b8ff" d="M73.98,-119.89C90.6,-98.98 123.31,-61.26 159,-39 161.62,-37.36 164.37,-35.82 167.2,-34.37"/>
<polygon fill="#63b8ff" stroke="#63b8ff" points="168.86,-37.46 176.44,-30.05 165.9,-31.12 168.86,-37.46"/>
</a>
</g>
</g>
<!-- Node3 -->
<g id="Node000003" class="node">
<title>Node3</title>
<g id="a_Node000003"><a xlink:href="namespaceappend__q4__attn__from__hf.html#a337a6dabde9dcef22cfba6698e7aba45" target="_top" xlink:title=" ">
<polygon fill="white" stroke="#666666" points="459,-270 336,-270 336,-240 459,-240 459,-270"/>
<text text-anchor="start" x="344" y="-258" font-family="Helvetica,sans-Serif" font-size="10.00">append_q4_attn_from</text>
<text text-anchor="middle" x="397.5" y="-247" font-family="Helvetica,sans-Serif" font-size="10.00">_hf.align_up</text>
</a>
</g>
</g>
<!-- Node2&#45;&gt;Node3 -->
<g id="edge2_Node000002_Node000003" class="edge">
<title>Node2&#45;&gt;Node3</title>
<g id="a_edge2_Node000002_Node000003"><a xlink:title=" ">
<path fill="none" stroke="#63b8ff" d="M291.37,-255C302.49,-255 314.19,-255 325.57,-255"/>
<polygon fill="#63b8ff" stroke="#63b8ff" points="325.92,-258.5 335.92,-255 325.92,-251.5 325.92,-258.5"/>
</a>
</g>
</g>
<!-- Node9 -->
<g id="Node000009" class="node">
<title>Node9</title>
<g id="a_Node000009"><a xlink:href="namespaceappend__q4__attn__from__hf.html#a66a2678b536d7bf2c0d2aded99d355bf" target="_top" xlink:title=" ">
<polygon fill="white" stroke="#666666" points="459,-30 336,-30 336,0 459,0 459,-30"/>
<text text-anchor="start" x="344" y="-18" font-family="Helvetica,sans-Serif" font-size="10.00">append_q4_attn_from</text>
<text text-anchor="middle" x="397.5" y="-7" font-family="Helvetica,sans-Serif" font-size="10.00">_hf.f32_to_bf16_u16</text>
</a>
</g>
</g>
<!-- Node8&#45;&gt;Node9 -->
<g id="edge9_Node000008_Node000009" class="edge">
<title>Node8&#45;&gt;Node9</title>
<g id="a_edge9_Node000008_Node000009"><a xlink:title=" ">
<path fill="none" stroke="#63b8ff" d="M300.42,-15C308.8,-15 317.36,-15 325.75,-15"/>
<polygon fill="#63b8ff" stroke="#63b8ff" points="325.87,-18.5 335.87,-15 325.87,-11.5 325.87,-18.5"/>
</a>
</g>
</g>
</g>
</svg>
</svg>

<style type='text/css'>
<![CDATA[
[data-mouse-over-selected='false'] { opacity: 0.7; }
[data-mouse-over-selected='true']  { opacity: 1.0; }
]]>
</style>
<script type="application/ecmascript"><![CDATA[
document.addEventListener('DOMContentLoaded', (event) => {
  highlightEdges();
  highlightAdjacentNodes();
});
]]></script>
</svg>
