<?xml version="1.0" encoding="UTF-8" standalone="no"?>
<!DOCTYPE svg PUBLIC "-//W3C//DTD SVG 1.1//EN"
 "http://www.w3.org/Graphics/SVG/1.1/DTD/svg11.dtd">
<!-- Generated by graphviz version 2.43.0 (0)
 -->
<!-- Title: verify_report_tokens.as_int_list Pages: 1 -->
<svg width="685pt" height="134pt"
 viewBox="0.00 0.00 685.00 134.00" xmlns="http://www.w3.org/2000/svg" xmlns:xlink="http://www.w3.org/1999/xlink">
<g id="graph0" class="graph" transform="scale(1 1) rotate(0) translate(4 130)">
<title>verify_report_tokens.as_int_list</title>
<!-- Node1 -->
<g id="Node000001" class="node">
<title>Node1</title>
<g id="a_Node000001"><a xlink:title=" ">
<polygon fill="#999999" stroke="#666666" points="677,-75 546,-75 546,-45 677,-45 677,-75"/>
<text text-anchor="start" x="554" y="-63" font-family="Helvetica,sans-Serif" font-size="10.00">verify_report_tokens.as</text>
<text text-anchor="middle" x="611.5" y="-52" font-family="Helvetica,sans-Serif" font-size="10.00">_int_list</text>
</a>
</g>
</g>
<!-- Node2 -->
<g id="Node000002" class="node">
<title>Node2</title>
<g id="a_Node000002"><a xlink:href="namespaceverify__report__tokens.html#ae4d529c7a156d7b3e86da13e81e40d5f" target="_top" xlink:title=" ">
<polygon fill="white" stroke="#666666" points="333.5,-126 185.5,-126 185.5,-96 333.5,-96 333.5,-126"/>
<text text-anchor="start" x="193.5" y="-114" font-family="Helvetica,sans-Serif" font-size="10.00">verify_report_tokens.check</text>
<text text-anchor="middle" x="259.5" y="-103" font-family="Helvetica,sans-Serif" font-size="10.00">_hash_fields</text>
</a>
</g>
</g>
<!-- Node1&#45;&gt;Node2 -->
<g id="edge1_Node000001_Node000002" class="edge">
<title>Node1&#45;&gt;Node2</title>
<g id="a_edge1_Node000001_Node000002"><a xlink:title=" ">
<path fill="none" stroke="#63b8ff" d="M576.28,-79.91C557.4,-89.79 533.15,-100.71 510,-106 451.71,-119.32 383.77,-119.73 333.51,-117.28"/>
<polygon fill="#63b8ff" stroke="#63b8ff" points="577.94,-82.99 585.09,-75.18 574.63,-76.83 577.94,-82.99"/>
</a>
</g>
</g>
<!-- Node4 -->
<g id="Node000004" class="node">
<title>Node4</title>
<g id="a_Node000004"><a xlink:href="namespaceverify__report__tokens.html#ab1cb62142583a275fe65faf3637faa56" target="_top" xlink:title=" ">
<polygon fill="white" stroke="#666666" points="510,-97 375,-97 375,-67 510,-67 510,-97"/>
<text text-anchor="start" x="383" y="-85" font-family="Helvetica,sans-Serif" font-size="10.00">verify_report_tokens.get</text>
<text text-anchor="middle" x="442.5" y="-74" font-family="Helvetica,sans-Serif" font-size="10.00">_generated_ids</text>
</a>
</g>
</g>
<!-- Node1&#45;&gt;Node4 -->
<g id="edge4_Node000001_Node000004" class="edge">
<title>Node1&#45;&gt;Node4</title>
<g id="a_edge4_Node000001_Node000004"><a xlink:title=" ">
<path fill="none" stroke="#63b8ff" d="M535.92,-69.83C527.32,-70.96 518.59,-72.11 510.1,-73.23"/>
<polygon fill="#63b8ff" stroke="#63b8ff" points="536.48,-73.28 545.93,-68.51 535.56,-66.34 536.48,-73.28"/>
</a>
</g>
</g>
<!-- Node5 -->
<g id="Node000005" class="node">
<title>Node5</title>
<g id="a_Node000005"><a xlink:href="namespaceverify__report__tokens.html#a7fa14639637a6fb03d83c50b214bc391" target="_top" xlink:title=" ">
<polygon fill="white" stroke="#666666" points="324,-78 195,-78 195,-48 324,-48 324,-78"/>
<text text-anchor="start" x="203" y="-66" font-family="Helvetica,sans-Serif" font-size="10.00">verify_report_tokens.hf</text>
<text text-anchor="middle" x="259.5" y="-55" font-family="Helvetica,sans-Serif" font-size="10.00">_parity_checks</text>
</a>
</g>
</g>
<!-- Node1&#45;&gt;Node5 -->
<g id="edge10_Node000001_Node000005" class="edge">
<title>Node1&#45;&gt;Node5</title>
<g id="a_edge10_Node000001_Node000005"><a xlink:title=" ">
<path fill="none" stroke="#63b8ff" d="M535.75,-58.35C527.07,-58.2 518.34,-58.08 510,-58 450,-57.4 434.99,-56.69 375,-58 358.49,-58.36 340.65,-59.01 324.08,-59.73"/>
<polygon fill="#63b8ff" stroke="#63b8ff" points="535.84,-61.85 545.9,-58.52 535.96,-54.85 535.84,-61.85"/>
</a>
</g>
</g>
<!-- Node6 -->
<g id="Node000006" class="node">
<title>Node6</title>
<g id="a_Node000006"><a xlink:href="namespaceverify__report__tokens.html#ad15e0497ca3ed828077abf1b140f91b6" target="_top" xlink:title=" ">
<polygon fill="white" stroke="#666666" points="339,-30 180,-30 180,0 339,0 339,-30"/>
<text text-anchor="start" x="188" y="-18" font-family="Helvetica,sans-Serif" font-size="10.00">verify_report_tokens.validate</text>
<text text-anchor="middle" x="259.5" y="-7" font-family="Helvetica,sans-Serif" font-size="10.00">_record_structure</text>
</a>
</g>
</g>
<!-- Node1&#45;&gt;Node6 -->
<g id="edge11_Node000001_Node000006" class="edge">
<title>Node1&#45;&gt;Node6</title>
<g id="a_edge11_Node000001_Node000006"><a xlink:title=" ">
<path fill="none" stroke="#63b8ff" d="M535.72,-50.39C477.86,-42.95 397.94,-32.67 339.12,-25.11"/>
<polygon fill="#63b8ff" stroke="#63b8ff" points="535.53,-53.89 545.9,-51.69 536.42,-46.95 535.53,-53.89"/>
</a>
</g>
</g>
<!-- Node3 -->
<g id="Node000003" class="node">
<title>Node3</title>
<g id="a_Node000003"><a xlink:href="namespaceverify__report__tokens.html#a561bbef92ee004a8031fe5a959f81072" target="_top" xlink:title=" ">
<polygon fill="white" stroke="#666666" points="144,-72.5 0,-72.5 0,-53.5 144,-53.5 144,-72.5"/>
<text text-anchor="middle" x="72" y="-60.5" font-family="Helvetica,sans-Serif" font-size="10.00">verify_report_tokens.main</text>
</a>
</g>
</g>
<!-- Node2&#45;&gt;Node3 -->
<g id="edge2_Node000002_Node000003" class="edge">
<title>Node2&#45;&gt;Node3</title>
<g id="a_edge2_Node000002_Node000003"><a xlink:title=" ">
<path fill="none" stroke="#63b8ff" d="M190.45,-93.39C163.23,-86.35 132.96,-78.51 109.96,-72.56"/>
<polygon fill="#63b8ff" stroke="#63b8ff" points="189.76,-96.83 200.32,-95.94 191.51,-90.05 189.76,-96.83"/>
</a>
</g>
</g>
<!-- Node3&#45;&gt;Node3 -->
<g id="edge3_Node000003_Node000003" class="edge">
<title>Node3&#45;&gt;Node3</title>
<g id="a_edge3_Node000003_Node000003"><a xlink:title=" ">
<path fill="none" stroke="#63b8ff" d="M106.86,-80.57C106.35,-86.12 94.73,-90.5 72,-90.5 38.94,-90.5 29.39,-81.23 43.33,-72.58"/>
<polygon fill="#63b8ff" stroke="#63b8ff" points="109.56,-78.34 100.67,-72.58 104.03,-82.63 109.56,-78.34"/>
</a>
</g>
</g>
<!-- Node4&#45;&gt;Node2 -->
<g id="edge5_Node000004_Node000002" class="edge">
<title>Node4&#45;&gt;Node2</title>
<g id="a_edge5_Node000004_Node000002"><a xlink:title=" ">
<path fill="none" stroke="#63b8ff" d="M364.7,-94.31C354.42,-95.95 343.9,-97.64 333.69,-99.27"/>
<polygon fill="#63b8ff" stroke="#63b8ff" points="365.55,-97.71 374.87,-92.67 364.45,-90.8 365.55,-97.71"/>
</a>
</g>
</g>
<!-- Node4&#45;&gt;Node5 -->
<g id="edge6_Node000004_Node000005" class="edge">
<title>Node4&#45;&gt;Node5</title>
<g id="a_edge6_Node000004_Node000005"><a xlink:title=" ">
<path fill="none" stroke="#63b8ff" d="M364.68,-73.94C351.21,-72.52 337.34,-71.07 324.28,-69.69"/>
<polygon fill="#63b8ff" stroke="#63b8ff" points="364.56,-77.44 374.87,-75.01 365.29,-70.48 364.56,-77.44"/>
</a>
</g>
</g>
<!-- Node4&#45;&gt;Node6 -->
<g id="edge8_Node000004_Node000006" class="edge">
<title>Node4&#45;&gt;Node6</title>
<g id="a_edge8_Node000004_Node000006"><a xlink:title=" ">
<path fill="none" stroke="#63b8ff" d="M398.49,-62.82C380.3,-55.01 358.78,-46.15 339,-39 330.42,-35.9 321.23,-32.85 312.26,-30.02"/>
<polygon fill="#63b8ff" stroke="#63b8ff" points="397.1,-66.04 407.67,-66.8 399.89,-59.61 397.1,-66.04"/>
</a>
</g>
</g>
<!-- Node5&#45;&gt;Node3 -->
<g id="edge7_Node000005_Node000003" class="edge">
<title>Node5&#45;&gt;Node3</title>
<g id="a_edge7_Node000005_Node000003"><a xlink:title=" ">
<path fill="none" stroke="#63b8ff" d="M184.8,-63C171.41,-63 157.45,-63 144.13,-63"/>
<polygon fill="#63b8ff" stroke="#63b8ff" points="184.92,-66.5 194.92,-63 184.92,-59.5 184.92,-66.5"/>
</a>
</g>
</g>
<!-- Node6&#45;&gt;Node3 -->
<g id="edge9_Node000006_Node000003" class="edge">
<title>Node6&#45;&gt;Node3</title>
<g id="a_edge9_Node000006_Node000003"><a xlink:title=" ">
<path fill="none" stroke="#63b8ff" d="M190.45,-32.61C163.23,-39.65 132.96,-47.49 109.96,-53.44"/>
<polygon fill="#63b8ff" stroke="#63b8ff" points="191.51,-35.95 200.32,-30.06 189.76,-29.17 191.51,-35.95"/>
</a>
</g>
</g>
</g>
</svg>
