<?xml version="1.0" encoding="UTF-8" standalone="no"?>
<!DOCTYPE svg PUBLIC "-//W3C//DTD SVG 1.1//EN"
 "http://www.w3.org/Graphics/SVG/1.1/DTD/svg11.dtd">
<!-- Generated by graphviz version 2.43.0 (0)
 -->
<!-- Title: verify_report_tokens.get_generated_ids Pages: 1 -->
<svg width="518pt" height="134pt"
 viewBox="0.00 0.00 518.00 134.00" xmlns="http://www.w3.org/2000/svg" xmlns:xlink="http://www.w3.org/1999/xlink">
<g id="graph0" class="graph" transform="scale(1 1) rotate(0) translate(4 130)">
<title>verify_report_tokens.get_generated_ids</title>
<!-- Node1 -->
<g id="Node000001" class="node">
<title>Node1</title>
<g id="a_Node000001"><a xlink:title=" ">
<polygon fill="#999999" stroke="#666666" points="510,-78 375,-78 375,-48 510,-48 510,-78"/>
<text text-anchor="start" x="383" y="-66" font-family="Helvetica,sans-Serif" font-size="10.00">verify_report_tokens.get</text>
<text text-anchor="middle" x="442.5" y="-55" font-family="Helvetica,sans-Serif" font-size="10.00">_generated_ids</text>
</a>
</g>
</g>
<!-- Node2 -->
<g id="Node000002" class="node">
<title>Node2</title>
<g id="a_Node000002"><a xlink:href="namespaceverify__report__tokens.html#ae4d529c7a156d7b3e86da13e81e40d5f" target="_top" xlink:title=" ">
<polygon fill="white" stroke="#666666" points="333.5,-126 185.5,-126 185.5,-96 333.5,-96 333.5,-126"/>
<text text-anchor="start" x="193.5" y="-114" font-family="Helvetica,sans-Serif" font-size="10.00">verify_report_tokens.check</text>
<text text-anchor="middle" x="259.5" y="-103" font-family="Helvetica,sans-Serif" font-size="10.00">_hash_fields</text>
</a>
</g>
</g>
<!-- Node1&#45;&gt;Node2 -->
<g id="edge1_Node000001_Node000002" class="edge">
<title>Node1&#45;&gt;Node2</title>
<g id="a_edge1_Node000001_Node000002"><a xlink:title=" ">
<path fill="none" stroke="#63b8ff" d="M374.95,-80.65C355.94,-85.69 335.42,-91.13 317.07,-96"/>
<polygon fill="#63b8ff" stroke="#63b8ff" points="375.96,-84 384.73,-78.06 374.16,-77.24 375.96,-84"/>
</a>
</g>
</g>
<!-- Node4 -->
<g id="Node000004" class="node">
<title>Node4</title>
<g id="a_Node000004"><a xlink:href="namespaceverify__report__tokens.html#a7fa14639637a6fb03d83c50b214bc391" target="_top" xlink:title=" ">
<polygon fill="white" stroke="#666666" points="324,-78 195,-78 195,-48 324,-48 324,-78"/>
<text text-anchor="start" x="203" y="-66" font-family="Helvetica,sans-Serif" font-size="10.00">verify_report_tokens.hf</text>
<text text-anchor="middle" x="259.5" y="-55" font-family="Helvetica,sans-Serif" font-size="10.00">_parity_checks</text>
</a>
</g>
</g>
<!-- Node1&#45;&gt;Node4 -->
<g id="edge4_Node000001_Node000004" class="edge">
<title>Node1&#45;&gt;Node4</title>
<g id="a_edge4_Node000001_Node000004"><a xlink:title=" ">
<path fill="none" stroke="#63b8ff" d="M364.68,-63C351.21,-63 337.34,-63 324.28,-63"/>
<polygon fill="#63b8ff" stroke="#63b8ff" points="364.87,-66.5 374.87,-63 364.87,-59.5 364.87,-66.5"/>
</a>
</g>
</g>
<!-- Node5 -->
<g id="Node000005" class="node">
<title>Node5</title>
<g id="a_Node000005"><a xlink:href="namespaceverify__report__tokens.html#ad15e0497ca3ed828077abf1b140f91b6" target="_top" xlink:title=" ">
<polygon fill="white" stroke="#666666" points="339,-30 180,-30 180,0 339,0 339,-30"/>
<text text-anchor="start" x="188" y="-18" font-family="Helvetica,sans-Serif" font-size="10.00">verify_report_tokens.validate</text>
<text text-anchor="middle" x="259.5" y="-7" font-family="Helvetica,sans-Serif" font-size="10.00">_record_structure</text>
</a>
</g>
</g>
<!-- Node1&#45;&gt;Node5 -->
<g id="edge6_Node000001_Node000005" class="edge">
<title>Node1&#45;&gt;Node5</title>
<g id="a_edge6_Node000001_Node000005"><a xlink:title=" ">
<path fill="none" stroke="#63b8ff" d="M374.95,-45.35C355.94,-40.31 335.42,-34.87 317.07,-30"/>
<polygon fill="#63b8ff" stroke="#63b8ff" points="374.16,-48.76 384.73,-47.94 375.96,-42 374.16,-48.76"/>
</a>
</g>
</g>
<!-- Node3 -->
<g id="Node000003" class="node">
<title>Node3</title>
<g id="a_Node000003"><a xlink:href="namespaceverify__report__tokens.html#a561bbef92ee004a8031fe5a959f81072" target="_top" xlink:title=" ">
<polygon fill="white" stroke="#666666" points="144,-72.5 0,-72.5 0,-53.5 144,-53.5 144,-72.5"/>
<text text-anchor="middle" x="72" y="-60.5" font-family="Helvetica,sans-Serif" font-size="10.00">verify_report_tokens.main</text>
</a>
</g>
</g>
<!-- Node2&#45;&gt;Node3 -->
<g id="edge2_Node000002_Node000003" class="edge">
<title>Node2&#45;&gt;Node3</title>
<g id="a_edge2_Node000002_Node000003"><a xlink:title=" ">
<path fill="none" stroke="#63b8ff" d="M190.45,-93.39C163.23,-86.35 132.96,-78.51 109.96,-72.56"/>
<polygon fill="#63b8ff" stroke="#63b8ff" points="189.76,-96.83 200.32,-95.94 191.51,-90.05 189.76,-96.83"/>
</a>
</g>
</g>
<!-- Node3&#45;&gt;Node3 -->
<g id="edge3_Node000003_Node000003" class="edge">
<title>Node3&#45;&gt;Node3</title>
<g id="a_edge3_Node000003_Node000003"><a xlink:title=" ">
<path fill="none" stroke="#63b8ff" d="M106.86,-80.57C106.35,-86.12 94.73,-90.5 72,-90.5 38.94,-90.5 29.39,-81.23 43.33,-72.58"/>
<polygon fill="#63b8ff" stroke="#63b8ff" points="109.56,-78.34 100.67,-72.58 104.03,-82.63 109.56,-78.34"/>
</a>
</g>
</g>
<!-- Node4&#45;&gt;Node3 -->
<g id="edge5_Node000004_Node000003" class="edge">
<title>Node4&#45;&gt;Node3</title>
<g id="a_edge5_Node000004_Node000003"><a xlink:title=" ">
<path fill="none" stroke="#63b8ff" d="M184.8,-63C171.41,-63 157.45,-63 144.13,-63"/>
<polygon fill="#63b8ff" stroke="#63b8ff" points="184.92,-66.5 194.92,-63 184.92,-59.5 184.92,-66.5"/>
</a>
</g>
</g>
<!-- Node5&#45;&gt;Node3 -->
<g id="edge7_Node000005_Node000003" class="edge">
<title>Node5&#45;&gt;Node3</title>
<g id="a_edge7_Node000005_Node000003"><a xlink:title=" ">
<path fill="none" stroke="#63b8ff" d="M190.45,-32.61C163.23,-39.65 132.96,-47.49 109.96,-53.44"/>
<polygon fill="#63b8ff" stroke="#63b8ff" points="191.51,-35.95 200.32,-30.06 189.76,-29.17 191.51,-35.95"/>
</a>
</g>
</g>
</g>
</svg>
