<?xml version="1.0" encoding="UTF-8" standalone="no"?>
<!DOCTYPE svg PUBLIC "-//W3C//DTD SVG 1.1//EN"
 "http://www.w3.org/Graphics/SVG/1.1/DTD/svg11.dtd">
<!-- Generated by graphviz version 12.2.1 (20241206.2353)
 -->
<!-- Title: hf_to_iebin.main Pages: 1 -->
<!--zoomable 374 -->

<svg id="main" version="1.1" xmlns="http://www.w3.org/2000/svg" xmlns:xlink="http://www.w3.org/1999/xlink" xml:space="preserve" onload="init(evt)">

<style type="text/css"><![CDATA[
.node, .edge {opacity: 0.7;}
.node.selected, .edge.selected {opacity: 1;}
.edge:hover path { stroke: red; }
.edge:hover polygon { stroke: red; fill: red; }
]]></style>

<defs>
  <circle id="rim" cx="0" cy="0" r="7"/>
  <circle id="rim2" cx="0" cy="0" r="3.5"/>
  <g id="zoomPlus">
    <use xlink:href="#rim" fill="#404040"><set attributeName="fill" to="#808080" begin="zoomplus.mouseover" end="zoomplus.mouseout"/></use>
    <path d="M-4,0h8M0,-4v8" fill="none" stroke="white" stroke-width="1.5" pointer-events="none"/>
  </g>
  <g id="zoomMin">
    <use xlink:href="#rim" fill="#404040"><set attributeName="fill" to="#808080" begin="zoomminus.mouseover" end="zoomminus.mouseout"/></use>
    <path d="M-4,0h8" fill="none" stroke="white" stroke-width="1.5" pointer-events="none"/>
  </g>
  <g id="arrowUp" transform="translate(30 24)">
    <use xlink:href="#rim"/>
    <path pointer-events="none" fill="none" stroke="white" stroke-width="1.5" d="M0,-3.0v7 M-2.5,-0.5L0,-3.0L2.5,-0.5"/>
  </g>
  <g id="arrowRight" transform="rotate(90) translate(36 -43)">
    <use xlink:href="#rim"/>
    <path pointer-events="none" fill="none" stroke="white" stroke-width="1.5" d="M0,-3.0v7 M-2.5,-0.5L0,-3.0L2.5,-0.5"/>
  </g>
  <g id="arrowDown" transform="rotate(180) translate(-30 -48)">
    <use xlink:href="#rim"/>
    <path pointer-events="none" fill="none" stroke="white" stroke-width="1.5" d="M0,-3.0v7 M-2.5,-0.5L0,-3.0L2.5,-0.5"/>
  </g>
  <g id="arrowLeft" transform="rotate(270) translate(-36 17)">
    <use xlink:href="#rim"/>
    <path pointer-events="none" fill="none" stroke="white" stroke-width="1.5" d="M0,-3.0v7 M-2.5,-0.5L0,-3.0L2.5,-0.5"/>
  </g>
  <g id="resetDef">
    <use xlink:href="#rim2" fill="#404040"><set attributeName="fill" to="#808080" begin="reset.mouseover" end="reset.mouseout"/></use>
  </g>
</defs>
<script type="application/ecmascript">
var viewWidth = 614;
var viewHeight = 374;
var sectionId = 'dynsection-14';
</script>
<script type="application/ecmascript" xlink:href="svg.min.js"/>
<svg id="graph" class="graph">
<g id="viewport">
<title>hf_to_iebin.main</title>
<!-- Node1 -->
<g id="Node000001" class="node">
<title>Node1</title>
<g id="a_Node000001"><a xlink:title=" ">
<polygon fill="#999999" stroke="#666666" points="97.75,-215.12 0,-215.12 0,-194.38 97.75,-194.38 97.75,-215.12"/>
<text text-anchor="middle" x="48.88" y="-201.62" font-family="Helvetica,sans-Serif" font-size="10.00">hf_to_iebin.main</text>
</a>
</g>
</g>
<!-- Node1&#45;&gt;Node1 -->
<g id="edge11_Node000001_Node000001" class="edge">
<title>Node1&#45;&gt;Node1</title>
<g id="a_edge11_Node000001_Node000001"><a xlink:title=" ">
<path fill="none" stroke="#63b8ff" d="M24.42,-215.52C14.64,-224.18 22.79,-233.12 48.88,-233.12 63.14,-233.12 72.04,-230.45 75.58,-226.61"/>
<polygon fill="#63b8ff" stroke="#63b8ff" points="79.05,-226.11 73.63,-217.01 72.19,-227.5 79.05,-226.11"/>
</a>
</g>
</g>
<!-- Node2 -->
<g id="Node000002" class="node">
<title>Node2</title>
<g id="a_Node000002"><a xlink:href="namespacehf__to__iebin.html#a9221aaef1fe785c428dcc1d54848a19f" target="_top" xlink:title=" ">
<polygon fill="white" stroke="#666666" points="258.5,-365.5 142.75,-365.5 142.75,-332 258.5,-332 258.5,-365.5"/>
<text text-anchor="start" x="150.75" y="-352" font-family="Helvetica,sans-Serif" font-size="10.00">hf_to_iebin.compute</text>
<text text-anchor="middle" x="200.62" y="-339.25" font-family="Helvetica,sans-Serif" font-size="10.00">_layout</text>
</a>
</g>
</g>
<!-- Node1&#45;&gt;Node2 -->
<g id="edge1_Node000001_Node000002" class="edge">
<title>Node1&#45;&gt;Node2</title>
<g id="a_edge1_Node000001_Node000002"><a xlink:title=" ">
<path fill="none" stroke="#63b8ff" d="M55.43,-215.46C67.22,-237.29 96.7,-287.41 133.75,-317.75 137.38,-320.72 141.34,-323.49 145.47,-326.04"/>
<polygon fill="#63b8ff" stroke="#63b8ff" points="143.55,-328.97 153.98,-330.86 147,-322.88 143.55,-328.97"/>
</a>
</g>
</g>
<!-- Node4 -->
<g id="Node000004" class="node">
<title>Node4</title>
<g id="a_Node000004"><a xlink:href="namespacehf__to__iebin.html#a4b60e8118426fdaed71bda80d597f94a" target="_top" xlink:title=" ">
<polygon fill="white" stroke="#666666" points="586,-247.12 498,-247.12 498,-226.38 586,-226.38 586,-247.12"/>
<text text-anchor="middle" x="542" y="-233.62" font-family="Helvetica,sans-Serif" font-size="10.00">hf_to_iebin.die</text>
</a>
</g>
</g>
<!-- Node1&#45;&gt;Node4 -->
<g id="edge3_Node000001_Node000004" class="edge">
<title>Node1&#45;&gt;Node4</title>
<g id="a_edge3_Node000001_Node000004"><a xlink:title=" ">
<path fill="none" stroke="#63b8ff" d="M94.13,-215.54C106.87,-218.44 120.82,-221.41 133.75,-223.75 268.83,-248.15 304.65,-253.64 441.75,-246.75 456.22,-246.02 471.82,-244.7 486.28,-243.26"/>
<polygon fill="#63b8ff" stroke="#63b8ff" points="486.5,-246.75 496.09,-242.23 485.78,-239.79 486.5,-246.75"/>
</a>
</g>
</g>
<!-- Node5 -->
<g id="Node000005" class="node">
<title>Node5</title>
<g id="a_Node000005"><a xlink:href="namespacehf__to__iebin.html#af84d2ba1d587dddd733c92c0350f7ab5" target="_top" xlink:title=" ">
<polygon fill="white" stroke="#666666" points="257.75,-33.5 143.5,-33.5 143.5,0 257.75,0 257.75,-33.5"/>
<text text-anchor="start" x="151.5" y="-20" font-family="Helvetica,sans-Serif" font-size="10.00">hf_to_iebin.discover</text>
<text text-anchor="middle" x="200.62" y="-7.25" font-family="Helvetica,sans-Serif" font-size="10.00">_tokenizer</text>
</a>
</g>
</g>
<!-- Node1&#45;&gt;Node5 -->
<g id="edge4_Node000001_Node000005" class="edge">
<title>Node1&#45;&gt;Node5</title>
<g id="a_edge4_Node000001_Node000005"><a xlink:title=" ">
<path fill="none" stroke="#63b8ff" d="M52.94,-194.14C61.41,-166.54 87.61,-91.61 133.75,-47.75 136.77,-44.88 140.1,-42.24 143.61,-39.81"/>
<polygon fill="#63b8ff" stroke="#63b8ff" points="145.29,-42.89 151.97,-34.67 141.62,-36.93 145.29,-42.89"/>
</a>
</g>
</g>
<!-- Node6 -->
<g id="Node000006" class="node">
<title>Node6</title>
<g id="a_Node000006"><a xlink:href="namespacehf__to__iebin.html#a2514cfb35940e3760b12dd945c773b19" target="_top" xlink:title=" ">
<polygon fill="white" stroke="#666666" points="441.75,-314.12 303.5,-314.12 303.5,-293.38 441.75,-293.38 441.75,-314.12"/>
<text text-anchor="middle" x="372.62" y="-300.62" font-family="Helvetica,sans-Serif" font-size="10.00">hf_to_iebin.load_q4_map</text>
</a>
</g>
</g>
<!-- Node1&#45;&gt;Node6 -->
<g id="edge5_Node000001_Node000006" class="edge">
<title>Node1&#45;&gt;Node6</title>
<g id="a_edge5_Node000001_Node000006"><a xlink:title=" ">
<path fill="none" stroke="#63b8ff" d="M58.02,-215.49C71.6,-232.5 100.68,-265.18 133.75,-279.75 183.33,-301.6 244.2,-307.41 291.95,-307.85"/>
<polygon fill="#63b8ff" stroke="#63b8ff" points="291.65,-311.35 301.65,-307.86 291.66,-304.35 291.65,-311.35"/>
</a>
</g>
</g>
<!-- Node9 -->
<g id="Node000009" class="node">
<title>Node9</title>
<g id="a_Node000009"><a xlink:href="namespacehf__to__iebin.html#ac3cef0864139e3543306b846207f8c3e" target="_top" xlink:title=" ">
<polygon fill="white" stroke="#666666" points="586,-152.12 498,-152.12 498,-131.38 586,-131.38 586,-152.12"/>
<text text-anchor="middle" x="542" y="-138.62" font-family="Helvetica,sans-Serif" font-size="10.00">hf_to_iebin.log</text>
</a>
</g>
</g>
<!-- Node1&#45;&gt;Node9 -->
<g id="edge10_Node000001_Node000009" class="edge">
<title>Node1&#45;&gt;Node9</title>
<g id="a_edge10_Node000001_Node000009"><a xlink:title=" ">
<path fill="none" stroke="#63b8ff" d="M58.62,-194.09C72.6,-177.91 101.69,-147.57 133.75,-133.75 259.7,-79.46 305.81,-96.59 441.75,-114.75 460.77,-117.29 481.31,-122.46 498.74,-127.59"/>
<polygon fill="#63b8ff" stroke="#63b8ff" points="497.67,-130.93 508.26,-130.5 499.71,-124.23 497.67,-130.93"/>
</a>
</g>
</g>
<!-- Node10 -->
<g id="Node000010" class="node">
<title>Node10</title>
<g id="a_Node000010"><a xlink:href="namespacehf__to__iebin.html#affc6b9577a480b97d139fc7624383635" target="_top" xlink:title=" ">
<polygon fill="white" stroke="#666666" points="267.5,-215.12 133.75,-215.12 133.75,-194.38 267.5,-194.38 267.5,-215.12"/>
<text text-anchor="middle" x="200.62" y="-201.62" font-family="Helvetica,sans-Serif" font-size="10.00">hf_to_iebin.pass1_index</text>
</a>
</g>
</g>
<!-- Node1&#45;&gt;Node10 -->
<g id="edge12_Node000001_Node000010" class="edge">
<title>Node1&#45;&gt;Node10</title>
<g id="a_edge12_Node000001_Node000010"><a xlink:title=" ">
<path fill="none" stroke="#63b8ff" d="M98.08,-204.75C105.75,-204.75 113.85,-204.75 122,-204.75"/>
<polygon fill="#63b8ff" stroke="#63b8ff" points="121.99,-208.25 131.99,-204.75 121.99,-201.25 121.99,-208.25"/>
</a>
</g>
</g>
<!-- Node13 -->
<g id="Node000013" class="node">
<title>Node13</title>
<g id="a_Node000013"><a xlink:href="namespacehf__to__iebin.html#a423f08d9c5ddd7dfd3eb06f287ce6c5b" target="_top" xlink:title=" ">
<polygon fill="white" stroke="#666666" points="254.38,-176.5 146.88,-176.5 146.88,-143 254.38,-143 254.38,-176.5"/>
<text text-anchor="start" x="154.88" y="-163" font-family="Helvetica,sans-Serif" font-size="10.00">hf_to_iebin.stream</text>
<text text-anchor="middle" x="200.62" y="-150.25" font-family="Helvetica,sans-Serif" font-size="10.00">_write_blob</text>
</a>
</g>
</g>
<!-- Node1&#45;&gt;Node13 -->
<g id="edge17_Node000001_Node000013" class="edge">
<title>Node1&#45;&gt;Node13</title>
<g id="a_edge17_Node000001_Node000013"><a xlink:title=" ">
<path fill="none" stroke="#63b8ff" d="M85.74,-193.97C100.79,-189.45 118.76,-184.05 135.92,-178.89"/>
<polygon fill="#63b8ff" stroke="#63b8ff" points="136.45,-182.39 145.02,-176.16 134.43,-175.69 136.45,-182.39"/>
</a>
</g>
</g>
<!-- Node3 -->
<g id="Node000003" class="node">
<title>Node3</title>
<g id="a_Node000003"><a xlink:href="namespacehf__to__iebin.html#abd3e5101821b383b59c60e83a5314495" target="_top" xlink:title=" ">
<polygon fill="white" stroke="#666666" points="429.75,-359.12 315.5,-359.12 315.5,-338.38 429.75,-338.38 429.75,-359.12"/>
<text text-anchor="middle" x="372.62" y="-345.62" font-family="Helvetica,sans-Serif" font-size="10.00">hf_to_iebin.align_up</text>
</a>
</g>
</g>
<!-- Node2&#45;&gt;Node3 -->
<g id="edge2_Node000002_Node000003" class="edge">
<title>Node2&#45;&gt;Node3</title>
<g id="a_edge2_Node000002_Node000003"><a xlink:title=" ">
<path fill="none" stroke="#63b8ff" d="M258.71,-348.75C273.23,-348.75 288.98,-348.75 303.98,-348.75"/>
<polygon fill="#63b8ff" stroke="#63b8ff" points="303.76,-352.25 313.76,-348.75 303.76,-345.25 303.76,-352.25"/>
</a>
</g>
</g>
<!-- Node6&#45;&gt;Node4 -->
<g id="edge8_Node000006_Node000004" class="edge">
<title>Node6&#45;&gt;Node4</title>
<g id="a_edge8_Node000006_Node000004"><a xlink:title=" ">
<path fill="none" stroke="#63b8ff" d="M405.68,-292.98C417.13,-288.99 430.08,-284.33 441.75,-279.75 463.77,-271.11 488.16,-260.56 507.24,-252.07"/>
<polygon fill="#63b8ff" stroke="#63b8ff" points="508.45,-255.37 516.15,-248.09 505.59,-248.98 508.45,-255.37"/>
</a>
</g>
</g>
<!-- Node7 -->
<g id="Node000007" class="node">
<title>Node7</title>
<g id="a_Node000007"><a xlink:href="namespacehf__to__iebin.html#a31f4d6cf12f537fbc82c75b1eef68f7a" target="_top" xlink:title=" ">
<polygon fill="white" stroke="#666666" points="604.75,-343.12 479.25,-343.12 479.25,-322.38 604.75,-322.38 604.75,-343.12"/>
<text text-anchor="middle" x="542" y="-329.62" font-family="Helvetica,sans-Serif" font-size="10.00">hf_to_iebin._read_json</text>
</a>
</g>
</g>
<!-- Node6&#45;&gt;Node7 -->
<g id="edge6_Node000006_Node000007" class="edge">
<title>Node6&#45;&gt;Node7</title>
<g id="a_edge6_Node000006_Node000007"><a xlink:title=" ">
<path fill="none" stroke="#63b8ff" d="M435.95,-314.55C446.26,-316.33 457.03,-318.2 467.57,-320.03"/>
<polygon fill="#63b8ff" stroke="#63b8ff" points="466.96,-323.47 477.41,-321.73 468.16,-316.58 466.96,-323.47"/>
</a>
</g>
</g>
<!-- Node8 -->
<g id="Node000008" class="node">
<title>Node8</title>
<g id="a_Node000008"><a xlink:href="namespacehf__to__iebin.html#ad64f85f918c3f7f86e5ba073953ad62e" target="_top" xlink:title=" ">
<polygon fill="white" stroke="#666666" points="606.25,-304.12 477.75,-304.12 477.75,-283.38 606.25,-283.38 606.25,-304.12"/>
<text text-anchor="middle" x="542" y="-290.62" font-family="Helvetica,sans-Serif" font-size="10.00">hf_to_iebin._read_jsonl</text>
</a>
</g>
</g>
<!-- Node6&#45;&gt;Node8 -->
<g id="edge7_Node000006_Node000008" class="edge">
<title>Node6&#45;&gt;Node8</title>
<g id="a_edge7_Node000006_Node000008"><a xlink:title=" ">
<path fill="none" stroke="#63b8ff" d="M442.19,-299.65C450.01,-299.19 458.02,-298.71 465.92,-298.24"/>
<polygon fill="#63b8ff" stroke="#63b8ff" points="466.11,-301.73 475.88,-297.64 465.69,-294.74 466.11,-301.73"/>
</a>
</g>
</g>
<!-- Node6&#45;&gt;Node9 -->
<g id="edge9_Node000006_Node000009" class="edge">
<title>Node6&#45;&gt;Node9</title>
<g id="a_edge9_Node000006_Node000009"><a xlink:title=" ">
<path fill="none" stroke="#63b8ff" d="M387.34,-293.06C401.39,-281.92 423.67,-263.77 441.75,-246.75 471.98,-218.3 504.61,-182.75 523.9,-161.17"/>
<polygon fill="#63b8ff" stroke="#63b8ff" points="526.5,-163.51 530.53,-153.71 521.27,-158.86 526.5,-163.51"/>
</a>
</g>
</g>
<!-- Node11 -->
<g id="Node000011" class="node">
<title>Node11</title>
<g id="a_Node000011"><a xlink:href="namespacehf__to__iebin.html#a6b3ccdffd4934259e8dd69e94e340e5d" target="_top" xlink:title=" ">
<polygon fill="white" stroke="#666666" points="436.88,-238.12 308.38,-238.12 308.38,-217.38 436.88,-217.38 436.88,-238.12"/>
<text text-anchor="middle" x="372.62" y="-224.62" font-family="Helvetica,sans-Serif" font-size="10.00">hf_to_iebin.find_shards</text>
</a>
</g>
</g>
<!-- Node10&#45;&gt;Node11 -->
<g id="edge13_Node000010_Node000011" class="edge">
<title>Node10&#45;&gt;Node11</title>
<g id="a_edge13_Node000010_Node000011"><a xlink:title=" ">
<path fill="none" stroke="#63b8ff" d="M267.84,-213.71C277.35,-215 287.2,-216.33 296.87,-217.64"/>
<polygon fill="#63b8ff" stroke="#63b8ff" points="296.22,-221.08 306.6,-218.95 297.16,-214.14 296.22,-221.08"/>
</a>
</g>
</g>
<!-- Node12 -->
<g id="Node000012" class="node">
<title>Node12</title>
<g id="a_Node000012"><a xlink:href="namespacehf__to__iebin.html#a7d824cc4e15cdfe433bb87451d0c45ee" target="_top" xlink:title=" ">
<polygon fill="white" stroke="#666666" points="434.62,-199.5 310.62,-199.5 310.62,-166 434.62,-166 434.62,-199.5"/>
<text text-anchor="start" x="318.62" y="-186" font-family="Helvetica,sans-Serif" font-size="10.00">hf_to_iebin.load_state</text>
<text text-anchor="middle" x="372.62" y="-173.25" font-family="Helvetica,sans-Serif" font-size="10.00">_keys_from_shard</text>
</a>
</g>
</g>
<!-- Node10&#45;&gt;Node12 -->
<g id="edge15_Node000010_Node000012" class="edge">
<title>Node10&#45;&gt;Node12</title>
<g id="a_edge15_Node000010_Node000012"><a xlink:title=" ">
<path fill="none" stroke="#63b8ff" d="M267.84,-196.18C278.11,-194.85 288.76,-193.47 299.16,-192.13"/>
<polygon fill="#63b8ff" stroke="#63b8ff" points="299.35,-195.63 308.81,-190.88 298.45,-188.69 299.35,-195.63"/>
</a>
</g>
</g>
<!-- Node11&#45;&gt;Node4 -->
<g id="edge14_Node000011_Node000004" class="edge">
<title>Node11&#45;&gt;Node4</title>
<g id="a_edge14_Node000011_Node000004"><a xlink:title=" ">
<path fill="none" stroke="#63b8ff" d="M436.9,-231.15C453.22,-232.03 470.63,-232.97 486.46,-233.82"/>
<polygon fill="#63b8ff" stroke="#63b8ff" points="485.98,-237.3 496.15,-234.34 486.35,-230.31 485.98,-237.3"/>
</a>
</g>
</g>
<!-- Node12&#45;&gt;Node9 -->
<g id="edge16_Node000012_Node000009" class="edge">
<title>Node12&#45;&gt;Node9</title>
<g id="a_edge16_Node000012_Node000009"><a xlink:title=" ">
<path fill="none" stroke="#63b8ff" d="M435,-167.72C451.9,-163.58 470.12,-159.11 486.6,-155.08"/>
<polygon fill="#63b8ff" stroke="#63b8ff" points="487.34,-158.5 496.22,-152.72 485.68,-151.7 487.34,-158.5"/>
</a>
</g>
</g>
<!-- Node13&#45;&gt;Node4 -->
<g id="edge18_Node000013_Node000004" class="edge">
<title>Node13&#45;&gt;Node4</title>
<g id="a_edge18_Node000013_Node000004"><a xlink:title=" ">
<path fill="none" stroke="#63b8ff" d="M254.84,-148.83C304.67,-140.96 380.42,-135.11 441.75,-156.75 475.8,-168.77 506.76,-197.96 524.74,-217.56"/>
<polygon fill="#63b8ff" stroke="#63b8ff" points="522.01,-219.75 531.26,-224.91 527.25,-215.1 522.01,-219.75"/>
</a>
</g>
</g>
<!-- Node13&#45;&gt;Node9 -->
<g id="edge20_Node000013_Node000009" class="edge">
<title>Node13&#45;&gt;Node9</title>
<g id="a_edge20_Node000013_Node000009"><a xlink:title=" ">
<path fill="none" stroke="#63b8ff" d="M240.46,-142.53C259.13,-135.16 282.05,-127.43 303.5,-123.75 365.76,-113.07 438.28,-121.55 486.65,-130.12"/>
<polygon fill="#63b8ff" stroke="#63b8ff" points="485.84,-133.53 496.31,-131.9 487.11,-126.64 485.84,-133.53"/>
</a>
</g>
</g>
<!-- Node13&#45;&gt;Node12 -->
<g id="edge19_Node000013_Node000012" class="edge">
<title>Node13&#45;&gt;Node12</title>
<g id="a_edge19_Node000013_Node000012"><a xlink:title=" ">
<path fill="none" stroke="#63b8ff" d="M254.48,-166.9C268.54,-168.8 283.97,-170.89 298.89,-172.91"/>
<polygon fill="#63b8ff" stroke="#63b8ff" points="298.29,-176.36 308.67,-174.23 299.23,-169.42 298.29,-176.36"/>
</a>
</g>
</g>
</g>
</svg>

<g id="navigator" transform="translate(0 0)" fill="#404254">
  <rect fill="#f2f5e9" fill-opacity="0.5" stroke="#606060" stroke-width=".5" x="0" y="0" width="60" height="60"/>
  <use id="zoomplus" xlink:href="#zoomPlus" x="17" y="9" onmousedown="handleZoom(evt,'in')"/>
  <use id="zoomminus" xlink:href="#zoomMin" x="42" y="9" onmousedown="handleZoom(evt,'out')"/>
  <use id="reset" xlink:href="#resetDef" x="30" y="36" onmousedown="handleReset()"/>
   <use id="arrowup" xlink:href="#arrowUp" x="0" y="0" onmousedown="handlePan(0,-1)"/>
  <use id="arrowright" xlink:href="#arrowRight" x="0" y="0" onmousedown="handlePan(1,0)"/>
  <use id="arrowdown" xlink:href="#arrowDown" x="0" y="0" onmousedown="handlePan(0,1)"/>
  <use id="arrowleft" xlink:href="#arrowLeft" x="0" y="0" onmousedown="handlePan(-1,0)"/>
</g>
<svg viewBox="0 0 15 15" width="100%" height="30px" preserveAspectRatio="xMaxYMin meet">
 <g id="arrow_out" transform="scale(0.3 0.3)">
  <a xlink:href="namespacehf__to__iebin_a6a7ed215f575f747c5b16a53cb95eac4_cgraph_org.svg" target="_base">
   <rect id="button" ry="5" rx="5" y="6" x="6" height="38" width="38"
        fill="#f2f5e9" fill-opacity="0.5" stroke="#606060" stroke-width="1.0"/>
   <path id="arrow"
     d="M 11.500037,31.436501 C 11.940474,20.09759 22.043105,11.32322 32.158766,21.979434 L 37.068811,17.246167 C 37.068811,17.246167 37.088388,32 37.088388,32 L 22.160133,31.978069 C 22.160133,31.978069 26.997745,27.140456 26.997745,27.140456 C 18.528582,18.264221 13.291696,25.230495 11.500037,31.436501 z"
     style="fill:#404040;"/>
  </a>
 </g>
</svg>

<style type='text/css'>
<![CDATA[
[data-mouse-over-selected='false'] { opacity: 0.7; }
[data-mouse-over-selected='true']  { opacity: 1.0; }
]]>
</style>
<script type="application/ecmascript"><![CDATA[
document.addEventListener('DOMContentLoaded', (event) => {
  highlightEdges();
  highlightAdjacentNodes();
});
]]></script>
</svg>
