<?xml version="1.0" encoding="UTF-8" standalone="no"?>
<!DOCTYPE svg PUBLIC "-//W3C//DTD SVG 1.1//EN"
 "http://www.w3.org/Graphics/SVG/1.1/DTD/svg11.dtd">
<!-- Generated by graphviz version 12.2.1 (20241206.2353)
 -->
<!-- Title: harness.main Pages: 1 -->
<svg width="431pt" height="620pt"
 viewBox="0.00 0.00 431.00 620.12" xmlns="http://www.w3.org/2000/svg" xmlns:xlink="http://www.w3.org/1999/xlink">
<g id="graph0" class="graph" transform="scale(1 1) rotate(0) translate(4 616.12)">
<title>harness.main</title>
<!-- Node1 -->
<g id="Node000001" class="node">
<title>Node1</title>
<g id="a_Node000001"><a xlink:title=" ">
<polygon fill="#999999" stroke="#666666" points="82,-349.12 0,-349.12 0,-328.38 82,-328.38 82,-349.12"/>
<text text-anchor="middle" x="41" y="-335.62" font-family="Helvetica,sans-Serif" font-size="10.00">harness.main</text>
</a>
</g>
</g>
<!-- Node2 -->
<g id="Node000002" class="node">
<title>Node2</title>
<g id="a_Node000002"><a xlink:href="namespaceharness.html#ad7476f60244e620d24fc97f5aac41d25" target="_top" xlink:title=" ">
<polygon fill="white" stroke="#666666" points="246.12,-612.12 136.38,-612.12 136.38,-591.38 246.12,-591.38 246.12,-612.12"/>
<text text-anchor="middle" x="191.25" y="-598.62" font-family="Helvetica,sans-Serif" font-size="10.00">harness._combo_id</text>
</a>
</g>
</g>
<!-- Node1&#45;&gt;Node2 -->
<g id="edge1_Node000001_Node000002" class="edge">
<title>Node1&#45;&gt;Node2</title>
<g id="a_edge1_Node000001_Node000002"><a xlink:title=" ">
<path fill="none" stroke="#63b8ff" d="M41.91,-349.38C42.19,-387.16 48.41,-516.21 118,-582.75 120.42,-585.06 123.08,-587.1 125.91,-588.9"/>
<polygon fill="#63b8ff" stroke="#63b8ff" points="124.26,-591.98 134.76,-593.43 127.46,-585.75 124.26,-591.98"/>
</a>
</g>
</g>
<!-- Node3 -->
<g id="Node000003" class="node">
<title>Node3</title>
<g id="a_Node000003"><a xlink:href="namespaceharness.html#a28ad8ca35209c460cdb401c221aae7dd" target="_top" xlink:title=" ">
<polygon fill="white" stroke="#666666" points="254,-573.5 128.5,-573.5 128.5,-540 254,-540 254,-573.5"/>
<text text-anchor="start" x="136.5" y="-560" font-family="Helvetica,sans-Serif" font-size="10.00">harness._derive_bytes</text>
<text text-anchor="middle" x="191.25" y="-547.25" font-family="Helvetica,sans-Serif" font-size="10.00">_touched</text>
</a>
</g>
</g>
<!-- Node1&#45;&gt;Node3 -->
<g id="edge2_Node000001_Node000003" class="edge">
<title>Node1&#45;&gt;Node3</title>
<g id="a_edge2_Node000001_Node000003"><a xlink:title=" ">
<path fill="none" stroke="#63b8ff" d="M43.18,-349.58C47.27,-381.81 63.68,-478.11 118,-530.75 118.75,-531.48 119.53,-532.19 120.33,-532.88"/>
<polygon fill="#63b8ff" stroke="#63b8ff" points="118.14,-535.62 128.29,-538.66 122.25,-529.96 118.14,-535.62"/>
</a>
</g>
</g>
<!-- Node4 -->
<g id="Node000004" class="node">
<title>Node4</title>
<g id="a_Node000004"><a xlink:href="namespaceharness.html#aea77adcd17ced76219c305b5d58588f4" target="_top" xlink:title=" ">
<polygon fill="white" stroke="#666666" points="252.12,-522.12 130.38,-522.12 130.38,-501.38 252.12,-501.38 252.12,-522.12"/>
<text text-anchor="middle" x="191.25" y="-508.62" font-family="Helvetica,sans-Serif" font-size="10.00">harness._discover_git</text>
</a>
</g>
</g>
<!-- Node1&#45;&gt;Node4 -->
<g id="edge3_Node000001_Node000004" class="edge">
<title>Node1&#45;&gt;Node4</title>
<g id="a_edge3_Node000001_Node000004"><a xlink:title=" ">
<path fill="none" stroke="#63b8ff" d="M45.29,-349.38C52.64,-376.43 73.39,-445.94 118,-482.75 126.81,-490.02 138.07,-494.65 149.06,-497.97"/>
<polygon fill="#63b8ff" stroke="#63b8ff" points="147.84,-501.27 158.41,-500.5 149.67,-494.51 147.84,-501.27"/>
</a>
</g>
</g>
<!-- Node5 -->
<g id="Node000005" class="node">
<title>Node5</title>
<g id="a_Node000005"><a xlink:href="namespaceharness.html#aecd190db3c2f9679f9b2657270c1205b" target="_top" xlink:title=" ">
<polygon fill="white" stroke="#666666" points="418.5,-464.12 305,-464.12 305,-443.38 418.5,-443.38 418.5,-464.12"/>
<text text-anchor="middle" x="361.75" y="-450.62" font-family="Helvetica,sans-Serif" font-size="10.00">harness._ensure_dir</text>
</a>
</g>
</g>
<!-- Node1&#45;&gt;Node5 -->
<g id="edge5_Node000001_Node000005" class="edge">
<title>Node1&#45;&gt;Node5</title>
<g id="a_edge5_Node000001_Node000005"><a xlink:title=" ">
<path fill="none" stroke="#63b8ff" d="M49.16,-349.58C61.16,-366.75 87.08,-399.9 118,-415.75 172.59,-443.73 242.44,-452.26 293.19,-454.37"/>
<polygon fill="#63b8ff" stroke="#63b8ff" points="293.06,-457.87 303.17,-454.7 293.29,-450.87 293.06,-457.87"/>
</a>
</g>
</g>
<!-- Node6 -->
<g id="Node000006" class="node">
<title>Node6</title>
<g id="a_Node000006"><a xlink:href="namespaceharness.html#a6214165c6e926d2a6d9eee8e092aaf05" target="_top" xlink:title=" ">
<polygon fill="white" stroke="#666666" points="255.88,-483.12 126.62,-483.12 126.62,-462.38 255.88,-462.38 255.88,-483.12"/>
<text text-anchor="middle" x="191.25" y="-469.62" font-family="Helvetica,sans-Serif" font-size="10.00">harness._ensure_outdir</text>
</a>
</g>
</g>
<!-- Node1&#45;&gt;Node6 -->
<g id="edge6_Node000001_Node000006" class="edge">
<title>Node1&#45;&gt;Node6</title>
<g id="a_edge6_Node000001_Node000006"><a xlink:title=" ">
<path fill="none" stroke="#63b8ff" d="M46.57,-349.55C56.39,-371.48 81.6,-421.45 118,-448.75 122.51,-452.13 127.52,-455.05 132.75,-457.57"/>
<polygon fill="#63b8ff" stroke="#63b8ff" points="131.01,-460.64 141.58,-461.35 133.76,-454.2 131.01,-460.64"/>
</a>
</g>
</g>
<!-- Node7 -->
<g id="Node000007" class="node">
<title>Node7</title>
<g id="a_Node000007"><a xlink:href="namespaceharness.html#a9dcfe13042b7e94d279194a10e8abbf2" target="_top" xlink:title=" ">
<polygon fill="white" stroke="#666666" points="244.62,-407.12 137.88,-407.12 137.88,-386.38 244.62,-386.38 244.62,-407.12"/>
<text text-anchor="middle" x="191.25" y="-393.62" font-family="Helvetica,sans-Serif" font-size="10.00">harness._env_bool</text>
</a>
</g>
</g>
<!-- Node1&#45;&gt;Node7 -->
<g id="edge8_Node000001_Node000007" class="edge">
<title>Node1&#45;&gt;Node7</title>
<g id="a_edge8_Node000001_Node000007"><a xlink:title=" ">
<path fill="none" stroke="#63b8ff" d="M60.9,-349.49C76,-357.75 97.9,-369.02 118,-376.75 123.4,-378.83 129.11,-380.79 134.85,-382.6"/>
<polygon fill="#63b8ff" stroke="#63b8ff" points="133.84,-385.95 144.42,-385.49 135.86,-379.25 133.84,-385.95"/>
</a>
</g>
</g>
<!-- Node8 -->
<g id="Node000008" class="node">
<title>Node8</title>
<g id="a_Node000008"><a xlink:href="namespaceharness.html#a94bfd9bbb8e984be636e1a4363ae777d" target="_top" xlink:title=" ">
<polygon fill="white" stroke="#666666" points="244.25,-368.12 138.25,-368.12 138.25,-347.38 244.25,-347.38 244.25,-368.12"/>
<text text-anchor="middle" x="191.25" y="-354.62" font-family="Helvetica,sans-Serif" font-size="10.00">harness._env_json</text>
</a>
</g>
</g>
<!-- Node1&#45;&gt;Node8 -->
<g id="edge9_Node000001_Node000008" class="edge">
<title>Node1&#45;&gt;Node8</title>
<g id="a_edge9_Node000001_Node000008"><a xlink:title=" ">
<path fill="none" stroke="#63b8ff" d="M82.12,-343.89C95.79,-345.64 111.42,-347.65 126.48,-349.58"/>
<polygon fill="#63b8ff" stroke="#63b8ff" points="125.97,-353.04 136.33,-350.84 126.86,-346.1 125.97,-353.04"/>
</a>
</g>
</g>
<!-- Node9 -->
<g id="Node000009" class="node">
<title>Node9</title>
<g id="a_Node000009"><a xlink:href="namespaceharness.html#a06835702604d6d44d8a50798dff26a5d" target="_top" xlink:title=" ">
<polygon fill="white" stroke="#666666" points="417.38,-254.12 306.12,-254.12 306.12,-233.38 417.38,-233.38 417.38,-254.12"/>
<text text-anchor="middle" x="361.75" y="-240.62" font-family="Helvetica,sans-Serif" font-size="10.00">harness._hostname</text>
</a>
</g>
</g>
<!-- Node1&#45;&gt;Node9 -->
<g id="edge10_Node000001_Node000009" class="edge">
<title>Node1&#45;&gt;Node9</title>
<g id="a_edge10_Node000001_Node000009"><a xlink:title=" ">
<path fill="none" stroke="#63b8ff" d="M82.11,-336.31C127.55,-332.55 203.25,-323.24 264.5,-300.75 291.08,-290.99 318.6,-273.86 337.37,-260.92"/>
<polygon fill="#63b8ff" stroke="#63b8ff" points="339.2,-263.91 345.35,-255.29 335.16,-258.19 339.2,-263.91"/>
</a>
</g>
</g>
<!-- Node10 -->
<g id="Node000010" class="node">
<title>Node10</title>
<g id="a_Node000010"><a xlink:href="namespaceharness.html#a78ab66e05089868e03a0bf8d1dd2a446" target="_top" xlink:title=" ">
<polygon fill="white" stroke="#666666" points="255.88,-291.5 126.62,-291.5 126.62,-258 255.88,-258 255.88,-291.5"/>
<text text-anchor="start" x="134.62" y="-278" font-family="Helvetica,sans-Serif" font-size="10.00">harness._load_prompts</text>
<text text-anchor="middle" x="191.25" y="-265.25" font-family="Helvetica,sans-Serif" font-size="10.00">_jsonl</text>
</a>
</g>
</g>
<!-- Node1&#45;&gt;Node10 -->
<g id="edge11_Node000001_Node000010" class="edge">
<title>Node1&#45;&gt;Node10</title>
<g id="a_edge11_Node000001_Node000010"><a xlink:title=" ">
<path fill="none" stroke="#63b8ff" d="M66.63,-328.02C81.5,-321.55 100.83,-313.16 118,-305.75 124.99,-302.73 132.36,-299.56 139.62,-296.44"/>
<polygon fill="#63b8ff" stroke="#63b8ff" points="140.91,-299.7 148.72,-292.53 138.15,-293.26 140.91,-299.7"/>
</a>
</g>
</g>
<!-- Node11 -->
<g id="Node000011" class="node">
<title>Node11</title>
<g id="a_Node000011"><a xlink:href="namespaceharness.html#af74096a05ed5982147faa1c7be9b3eca" target="_top" xlink:title=" ">
<polygon fill="white" stroke="#666666" points="236,-240.12 146.5,-240.12 146.5,-219.38 236,-219.38 236,-240.12"/>
<text text-anchor="middle" x="191.25" y="-226.62" font-family="Helvetica,sans-Serif" font-size="10.00">harness._parse</text>
</a>
</g>
</g>
<!-- Node1&#45;&gt;Node11 -->
<g id="edge12_Node000001_Node000011" class="edge">
<title>Node1&#45;&gt;Node11</title>
<g id="a_edge12_Node000001_Node000011"><a xlink:title=" ">
<path fill="none" stroke="#63b8ff" d="M48,-328.03C59.2,-309.03 85.15,-269.5 118,-248.75 123.28,-245.42 129.12,-242.67 135.14,-240.39"/>
<polygon fill="#63b8ff" stroke="#63b8ff" points="136.22,-243.72 144.62,-237.28 134.03,-237.07 136.22,-243.72"/>
</a>
</g>
</g>
<!-- Node12 -->
<g id="Node000012" class="node">
<title>Node12</title>
<g id="a_Node000012"><a xlink:href="namespaceharness.html#a193517728d393d9b1e67120aaa99e36e" target="_top" xlink:title=" ">
<polygon fill="white" stroke="#666666" points="246.5,-33.5 136,-33.5 136,0 246.5,0 246.5,-33.5"/>
<text text-anchor="start" x="144" y="-20" font-family="Helvetica,sans-Serif" font-size="10.00">harness._pg_delete</text>
<text text-anchor="middle" x="191.25" y="-7.25" font-family="Helvetica,sans-Serif" font-size="10.00">_series</text>
</a>
</g>
</g>
<!-- Node1&#45;&gt;Node12 -->
<g id="edge13_Node000001_Node000012" class="edge">
<title>Node1&#45;&gt;Node12</title>
<g id="a_edge13_Node000001_Node000012"><a xlink:title=" ">
<path fill="none" stroke="#63b8ff" d="M41.43,-327.96C39.78,-285.63 39.44,-129.08 118,-42.75 120.39,-40.12 123.07,-37.76 125.94,-35.64"/>
<polygon fill="#63b8ff" stroke="#63b8ff" points="127.73,-38.65 134.41,-30.43 124.06,-32.69 127.73,-38.65"/>
</a>
</g>
</g>
<!-- Node14 -->
<g id="Node000014" class="node">
<title>Node14</title>
<g id="a_Node000014"><a xlink:href="namespaceharness.html#ac86d67a920e4dc31a2cd9d0cf4747952" target="_top" xlink:title=" ">
<polygon fill="white" stroke="#666666" points="243.12,-162.12 139.38,-162.12 139.38,-141.38 243.12,-141.38 243.12,-162.12"/>
<text text-anchor="middle" x="191.25" y="-148.62" font-family="Helvetica,sans-Serif" font-size="10.00">harness._split_list</text>
</a>
</g>
</g>
<!-- Node1&#45;&gt;Node14 -->
<g id="edge15_Node000001_Node000014" class="edge">
<title>Node1&#45;&gt;Node14</title>
<g id="a_edge15_Node000001_Node000014"><a xlink:title=" ">
<path fill="none" stroke="#63b8ff" d="M43.7,-327.88C48.94,-298.13 67.62,-214.78 118,-171.75 121.36,-168.88 125.09,-166.43 129.04,-164.32"/>
<polygon fill="#63b8ff" stroke="#63b8ff" points="130.15,-167.66 137.85,-160.39 127.29,-161.27 130.15,-167.66"/>
</a>
</g>
</g>
<!-- Node15 -->
<g id="Node000015" class="node">
<title>Node15</title>
<g id="a_Node000015"><a xlink:href="namespaceharness.html#a5db6927b2a0861460d3ed910752ee752" target="_top" xlink:title=" ">
<polygon fill="white" stroke="#666666" points="245,-123.5 137.5,-123.5 137.5,-90 245,-90 245,-123.5"/>
<text text-anchor="start" x="145.5" y="-110" font-family="Helvetica,sans-Serif" font-size="10.00">harness._synthetic</text>
<text text-anchor="middle" x="191.25" y="-97.25" font-family="Helvetica,sans-Serif" font-size="10.00">_evaluate</text>
</a>
</g>
</g>
<!-- Node1&#45;&gt;Node15 -->
<g id="edge16_Node000001_Node000015" class="edge">
<title>Node1&#45;&gt;Node15</title>
<g id="a_edge16_Node000001_Node000015"><a xlink:title=" ">
<path fill="none" stroke="#63b8ff" d="M42.83,-328.11C46.02,-294.57 60.36,-189.93 118,-132.75 120.83,-129.94 123.99,-127.44 127.35,-125.2"/>
<polygon fill="#63b8ff" stroke="#63b8ff" points="128.99,-128.29 135.98,-120.32 125.55,-122.2 128.99,-128.29"/>
</a>
</g>
</g>
<!-- Node16 -->
<g id="Node000016" class="node">
<title>Node16</title>
<g id="a_Node000016"><a xlink:href="namespaceharness.html#a74669bfa6e74a83abe2b8fdcde52b0d7" target="_top" xlink:title=" ">
<polygon fill="white" stroke="#666666" points="264.5,-72.12 118,-72.12 118,-51.38 264.5,-51.38 264.5,-72.12"/>
<text text-anchor="middle" x="191.25" y="-58.62" font-family="Helvetica,sans-Serif" font-size="10.00">harness.emit_metrics_text</text>
</a>
</g>
</g>
<!-- Node1&#45;&gt;Node16 -->
<g id="edge17_Node000001_Node000016" class="edge">
<title>Node1&#45;&gt;Node16</title>
<g id="a_edge17_Node000001_Node000016"><a xlink:title=" ">
<path fill="none" stroke="#63b8ff" d="M41.7,-328.07C41.21,-288.89 44.97,-151.67 118,-80.75 118.63,-80.14 119.27,-79.55 119.93,-78.98"/>
<polygon fill="#63b8ff" stroke="#63b8ff" points="121.81,-81.94 128.06,-73.38 117.84,-76.17 121.81,-81.94"/>
</a>
</g>
</g>
<!-- Node17 -->
<g id="Node000017" class="node">
<title>Node17</title>
<g id="a_Node000017"><a xlink:href="namespaceharness.html#a848001c6546fabab799285f3c771c0e8" target="_top" xlink:title=" ">
<polygon fill="white" stroke="#666666" points="261.12,-201.12 121.38,-201.12 121.38,-180.38 261.12,-180.38 261.12,-201.12"/>
<text text-anchor="middle" x="191.25" y="-187.62" font-family="Helvetica,sans-Serif" font-size="10.00">harness.push_metrics_pg</text>
</a>
</g>
</g>
<!-- Node1&#45;&gt;Node17 -->
<g id="edge18_Node000001_Node000017" class="edge">
<title>Node1&#45;&gt;Node17</title>
<g id="a_edge18_Node000001_Node000017"><a xlink:title=" ">
<path fill="none" stroke="#63b8ff" d="M45.3,-327.93C53.41,-303.21 76.73,-242.29 118,-210.75 119.9,-209.3 121.9,-207.95 123.97,-206.71"/>
<polygon fill="#63b8ff" stroke="#63b8ff" points="125.45,-209.88 132.78,-202.23 122.28,-203.64 125.45,-209.88"/>
</a>
</g>
</g>
<!-- Node4&#45;&gt;Node1 -->
<g id="edge4_Node000004_Node000001" class="edge">
<title>Node4&#45;&gt;Node1</title>
<g id="a_edge4_Node000004_Node000001"><a xlink:title=" ">
<path fill="none" stroke="#63b8ff" d="M129.89,-508.41C125.64,-506.27 121.61,-503.73 118,-500.75 73.8,-464.28 53.03,-395.7 45.5,-360.39"/>
<polygon fill="#63b8ff" stroke="#63b8ff" points="48.99,-360.03 43.66,-350.88 42.12,-361.37 48.99,-360.03"/>
</a>
</g>
</g>
<!-- Node6&#45;&gt;Node5 -->
<g id="edge7_Node000006_Node000005" class="edge">
<title>Node6&#45;&gt;Node5</title>
<g id="a_edge7_Node000006_Node000005"><a xlink:title=" ">
<path fill="none" stroke="#63b8ff" d="M255.95,-465.57C268.23,-464.18 281.12,-462.73 293.5,-461.33"/>
<polygon fill="#63b8ff" stroke="#63b8ff" points="293.64,-464.84 303.19,-460.24 292.86,-457.88 293.64,-464.84"/>
</a>
</g>
</g>
<!-- Node13 -->
<g id="Node000013" class="node">
<title>Node13</title>
<g id="a_Node000013"><a xlink:href="namespaceharness.html#a49277e4bc8eb93aff1a9c8480882e114" target="_top" xlink:title=" ">
<polygon fill="white" stroke="#666666" points="423,-148.12 300.5,-148.12 300.5,-127.38 423,-127.38 423,-148.12"/>
<text text-anchor="middle" x="361.75" y="-134.62" font-family="Helvetica,sans-Serif" font-size="10.00">harness._pg_endpoint</text>
</a>
</g>
</g>
<!-- Node12&#45;&gt;Node13 -->
<g id="edge14_Node000012_Node000013" class="edge">
<title>Node12&#45;&gt;Node13</title>
<g id="a_edge14_Node000012_Node000013"><a xlink:title=" ">
<path fill="none" stroke="#63b8ff" d="M246.73,-33.43C252.91,-36.17 258.97,-39.27 264.5,-42.75 297.4,-63.48 328.02,-97.15 345.54,-118.34"/>
<polygon fill="#63b8ff" stroke="#63b8ff" points="342.66,-120.36 351.67,-125.93 348.11,-115.96 342.66,-120.36"/>
</a>
</g>
</g>
<!-- Node17&#45;&gt;Node9 -->
<g id="edge19_Node000017_Node000009" class="edge">
<title>Node17&#45;&gt;Node9</title>
<g id="a_edge19_Node000017_Node000009"><a xlink:title=" ">
<path fill="none" stroke="#63b8ff" d="M232.88,-201.53C243.23,-204.41 254.3,-207.59 264.5,-210.75 282.77,-216.41 302.81,-223.18 319.84,-229.12"/>
<polygon fill="#63b8ff" stroke="#63b8ff" points="318.54,-232.37 329.13,-232.38 320.85,-225.76 318.54,-232.37"/>
</a>
</g>
</g>
<!-- Node17&#45;&gt;Node13 -->
<g id="edge20_Node000017_Node000013" class="edge">
<title>Node17&#45;&gt;Node13</title>
<g id="a_edge20_Node000017_Node000013"><a xlink:title=" ">
<path fill="none" stroke="#63b8ff" d="M232.88,-179.97C243.23,-177.09 254.3,-173.91 264.5,-170.75 282.77,-165.09 302.81,-158.32 319.84,-152.38"/>
<polygon fill="#63b8ff" stroke="#63b8ff" points="320.85,-155.74 329.13,-149.12 318.54,-149.13 320.85,-155.74"/>
</a>
</g>
</g>
</g>
</svg>
