<?xml version="1.0" encoding="UTF-8" standalone="no"?>
<!DOCTYPE svg PUBLIC "-//W3C//DTD SVG 1.1//EN"
 "http://www.w3.org/Graphics/SVG/1.1/DTD/svg11.dtd">
<!-- Generated by graphviz version 12.2.1 (20241206.2353)
 -->
<!-- Title: engine/include/platform.h Pages: 1 -->
<!--zoomable 168 -->

<svg id="main" version="1.1" xmlns="http://www.w3.org/2000/svg" xmlns:xlink="http://www.w3.org/1999/xlink" xml:space="preserve" onload="init(evt)">

<style type="text/css"><![CDATA[
.node, .edge {opacity: 0.7;}
.node.selected, .edge.selected {opacity: 1;}
.edge:hover path { stroke: red; }
.edge:hover polygon { stroke: red; fill: red; }
]]></style>

<defs>
  <circle id="rim" cx="0" cy="0" r="7"/>
  <circle id="rim2" cx="0" cy="0" r="3.5"/>
  <g id="zoomPlus">
    <use xlink:href="#rim" fill="#404040"><set attributeName="fill" to="#808080" begin="zoomplus.mouseover" end="zoomplus.mouseout"/></use>
    <path d="M-4,0h8M0,-4v8" fill="none" stroke="white" stroke-width="1.5" pointer-events="none"/>
  </g>
  <g id="zoomMin">
    <use xlink:href="#rim" fill="#404040"><set attributeName="fill" to="#808080" begin="zoomminus.mouseover" end="zoomminus.mouseout"/></use>
    <path d="M-4,0h8" fill="none" stroke="white" stroke-width="1.5" pointer-events="none"/>
  </g>
  <g id="arrowUp" transform="translate(30 24)">
    <use xlink:href="#rim"/>
    <path pointer-events="none" fill="none" stroke="white" stroke-width="1.5" d="M0,-3.0v7 M-2.5,-0.5L0,-3.0L2.5,-0.5"/>
  </g>
  <g id="arrowRight" transform="rotate(90) translate(36 -43)">
    <use xlink:href="#rim"/>
    <path pointer-events="none" fill="none" stroke="white" stroke-width="1.5" d="M0,-3.0v7 M-2.5,-0.5L0,-3.0L2.5,-0.5"/>
  </g>
  <g id="arrowDown" transform="rotate(180) translate(-30 -48)">
    <use xlink:href="#rim"/>
    <path pointer-events="none" fill="none" stroke="white" stroke-width="1.5" d="M0,-3.0v7 M-2.5,-0.5L0,-3.0L2.5,-0.5"/>
  </g>
  <g id="arrowLeft" transform="rotate(270) translate(-36 17)">
    <use xlink:href="#rim"/>
    <path pointer-events="none" fill="none" stroke="white" stroke-width="1.5" d="M0,-3.0v7 M-2.5,-0.5L0,-3.0L2.5,-0.5"/>
  </g>
  <g id="resetDef">
    <use xlink:href="#rim2" fill="#404040"><set attributeName="fill" to="#808080" begin="reset.mouseover" end="reset.mouseout"/></use>
  </g>
</defs>
<script type="application/ecmascript">
var viewWidth = 858;
var viewHeight = 168;
var sectionId = 'dynsection-0';
</script>
<script type="application/ecmascript" xlink:href="svg.min.js"/>
<svg id="graph" class="graph">
<g id="viewport">
<title>engine/include/platform.h</title>
<!-- Node1 -->
<g id="Node000001" class="node">
<title>Node1</title>
<g id="a_Node000001"><a xlink:title="Platform feature detection (baseline stubs).">
<polygon fill="#999999" stroke="#666666" points="521.25,-159.75 380,-159.75 380,-139 521.25,-139 521.25,-159.75"/>
<text text-anchor="middle" x="450.62" y="-146.25" font-family="Helvetica,sans-Serif" font-size="10.00">engine/include/platform.h</text>
</a>
</g>
</g>
<!-- Node2 -->
<g id="Node000002" class="node">
<title>Node2</title>
<g id="a_Node000002"><a xlink:href="sparse__format_8h.html" target="_top" xlink:title="In&#45;memory representation and loader interface for block&#45;sparse matrices.">
<polygon fill="white" stroke="#666666" points="511.88,-103 389.38,-103 389.38,-69.5 511.88,-69.5 511.88,-103"/>
<text text-anchor="start" x="397.38" y="-89.5" font-family="Helvetica,sans-Serif" font-size="10.00">engine/include/sparse</text>
<text text-anchor="middle" x="450.62" y="-76.75" font-family="Helvetica,sans-Serif" font-size="10.00">_format.h</text>
</a>
</g>
</g>
<!-- Node1&#45;&gt;Node2 -->
<g id="edge1_Node000001_Node000002" class="edge">
<title>Node1&#45;&gt;Node2</title>
<g id="a_edge1_Node000001_Node000002"><a xlink:title=" ">
<path fill="none" stroke="#63b8ff" d="M450.62,-127.09C450.62,-119.35 450.62,-110.72 450.62,-103.48"/>
<polygon fill="#63b8ff" stroke="#63b8ff" points="447.13,-127.04 450.63,-137.04 454.13,-127.04 447.13,-127.04"/>
</a>
</g>
</g>
<!-- Node3 -->
<g id="Node000003" class="node">
<title>Node3</title>
<g id="a_Node000003"><a xlink:href="microbench__block__sparse_8c.html" target="_top" xlink:title="Microbenchmark comparing dense vs block&#45;sparse GEMV (FP32).">
<polygon fill="white" stroke="#666666" points="153.25,-33.5 0,-33.5 0,0 153.25,0 153.25,-33.5"/>
<text text-anchor="start" x="8" y="-20" font-family="Helvetica,sans-Serif" font-size="10.00">benchmarks/src/microbench</text>
<text text-anchor="middle" x="76.62" y="-7.25" font-family="Helvetica,sans-Serif" font-size="10.00">_block_sparse.c</text>
</a>
</g>
</g>
<!-- Node2&#45;&gt;Node3 -->
<g id="edge2_Node000002_Node000003" class="edge">
<title>Node2&#45;&gt;Node3</title>
<g id="a_edge2_Node000002_Node000003"><a xlink:title=" ">
<path fill="none" stroke="#63b8ff" d="M377.8,-72.23C319.57,-61.81 235.85,-46.78 162.62,-33.5 159.64,-32.96 156.59,-32.4 153.52,-31.85"/>
<polygon fill="#63b8ff" stroke="#63b8ff" points="377.15,-75.67 387.61,-73.99 378.38,-68.78 377.15,-75.67"/>
</a>
</g>
</g>
<!-- Node4 -->
<g id="Node000004" class="node">
<title>Node4</title>
<g id="a_Node000004"><a xlink:href="ie__device__common_8c.html" target="_top" xlink:title="C11 implementation of the device abstraction with CPU backend and CUDA/Level Zero stubs resolved via ...">
<polygon fill="white" stroke="#666666" points="293.5,-33.5 171.75,-33.5 171.75,0 293.5,0 293.5,-33.5"/>
<text text-anchor="start" x="179.75" y="-20" font-family="Helvetica,sans-Serif" font-size="10.00">engine/src/devices</text>
<text text-anchor="middle" x="232.62" y="-7.25" font-family="Helvetica,sans-Serif" font-size="10.00">/ie_device_common.c</text>
</a>
</g>
</g>
<!-- Node2&#45;&gt;Node4 -->
<g id="edge3_Node000002_Node000004" class="edge">
<title>Node2&#45;&gt;Node4</title>
<g id="a_edge3_Node000002_Node000004"><a xlink:title=" ">
<path fill="none" stroke="#63b8ff" d="M387.63,-65.74C355.02,-55.65 315.68,-43.47 284.79,-33.9"/>
<polygon fill="#63b8ff" stroke="#63b8ff" points="386.37,-69.02 396.96,-68.63 388.45,-62.33 386.37,-69.02"/>
</a>
</g>
</g>
<!-- Node5 -->
<g id="Node000005" class="node">
<title>Node5</title>
<g id="a_Node000005"><a xlink:href="gemm__block__sparse_8c.html" target="_top" xlink:title="Block&#45;sparse GEMV kernel for single&#45;precision weights.">
<polygon fill="white" stroke="#666666" points="443.75,-33.5 311.5,-33.5 311.5,0 443.75,0 443.75,-33.5"/>
<text text-anchor="start" x="319.5" y="-20" font-family="Helvetica,sans-Serif" font-size="10.00">engine/src/gemm_block</text>
<text text-anchor="middle" x="377.62" y="-7.25" font-family="Helvetica,sans-Serif" font-size="10.00">_sparse.c</text>
</a>
</g>
</g>
<!-- Node2&#45;&gt;Node5 -->
<g id="edge4_Node000002_Node000005" class="edge">
<title>Node2&#45;&gt;Node5</title>
<g id="a_edge4_Node000002_Node000005"><a xlink:title=" ">
<path fill="none" stroke="#63b8ff" d="M425,-61.56C415.1,-52.4 404.01,-42.15 395.05,-33.87"/>
<polygon fill="#63b8ff" stroke="#63b8ff" points="422.5,-64.01 432.21,-68.23 427.25,-58.87 422.5,-64.01"/>
</a>
</g>
</g>
<!-- Node6 -->
<g id="Node000006" class="node">
<title>Node6</title>
<g id="a_Node000006"><a xlink:href="sparse__io_8c.html" target="_top" xlink:title="Loader for block&#45;sparse weight matrices from a compact binary format.">
<polygon fill="white" stroke="#666666" points="585.62,-27.12 461.62,-27.12 461.62,-6.38 585.62,-6.38 585.62,-27.12"/>
<text text-anchor="middle" x="523.62" y="-13.62" font-family="Helvetica,sans-Serif" font-size="10.00">engine/src/sparse_io.c</text>
</a>
</g>
</g>
<!-- Node2&#45;&gt;Node6 -->
<g id="edge5_Node000002_Node000006" class="edge">
<title>Node2&#45;&gt;Node6</title>
<g id="a_edge5_Node000002_Node000006"><a xlink:title=" ">
<path fill="none" stroke="#63b8ff" d="M476.27,-61.54C488.89,-49.87 503.4,-36.45 513,-27.57"/>
<polygon fill="#63b8ff" stroke="#63b8ff" points="474,-58.87 469.04,-68.23 478.75,-64.01 474,-58.87"/>
</a>
</g>
</g>
<!-- Node7 -->
<g id="Node000007" class="node">
<title>Node7</title>
<g id="a_Node000007"><a xlink:href="test__block__sparse_8c.html" target="_top" xlink:title="Unit tests for block&#45;sparse format helpers and GEMV kernel.">
<polygon fill="white" stroke="#666666" points="705.38,-33.5 603.88,-33.5 603.88,0 705.38,0 705.38,-33.5"/>
<text text-anchor="start" x="611.88" y="-20" font-family="Helvetica,sans-Serif" font-size="10.00">tests/c/test_block</text>
<text text-anchor="middle" x="654.62" y="-7.25" font-family="Helvetica,sans-Serif" font-size="10.00">_sparse.c</text>
</a>
</g>
</g>
<!-- Node2&#45;&gt;Node7 -->
<g id="edge6_Node000002_Node000007" class="edge">
<title>Node2&#45;&gt;Node7</title>
<g id="a_edge6_Node000002_Node000007"><a xlink:title=" ">
<path fill="none" stroke="#63b8ff" d="M510.37,-65.48C540.73,-55.44 577.16,-43.38 605.81,-33.9"/>
<polygon fill="#63b8ff" stroke="#63b8ff" points="509.32,-62.14 500.93,-68.61 511.52,-68.79 509.32,-62.14"/>
</a>
</g>
</g>
<!-- Node8 -->
<g id="Node000008" class="node">
<title>Node8</title>
<g id="a_Node000008"><a xlink:href="convert__to__block__sparse_8c.html" target="_top" xlink:title="Offline converter from dense FP32 matrix to block&#45;sparse binary file.">
<polygon fill="white" stroke="#666666" points="849.75,-33.5 723.5,-33.5 723.5,0 849.75,0 849.75,-33.5"/>
<text text-anchor="start" x="731.5" y="-20" font-family="Helvetica,sans-Serif" font-size="10.00">tools/convert_to_block</text>
<text text-anchor="middle" x="786.62" y="-7.25" font-family="Helvetica,sans-Serif" font-size="10.00">_sparse.c</text>
</a>
</g>
</g>
<!-- Node2&#45;&gt;Node8 -->
<g id="edge7_Node000002_Node000008" class="edge">
<title>Node2&#45;&gt;Node8</title>
<g id="a_edge7_Node000002_Node000008"><a xlink:title=" ">
<path fill="none" stroke="#63b8ff" d="M523.31,-71.44C576.39,-61.25 650.05,-46.89 714.62,-33.5 717.38,-32.93 720.2,-32.34 723.04,-31.74"/>
<polygon fill="#63b8ff" stroke="#63b8ff" points="522.96,-67.95 513.8,-73.27 524.28,-74.82 522.96,-67.95"/>
</a>
</g>
</g>
</g>
</svg>

<g id="navigator" transform="translate(0 0)" fill="#404254">
  <rect fill="#f2f5e9" fill-opacity="0.5" stroke="#606060" stroke-width=".5" x="0" y="0" width="60" height="60"/>
  <use id="zoomplus" xlink:href="#zoomPlus" x="17" y="9" onmousedown="handleZoom(evt,'in')"/>
  <use id="zoomminus" xlink:href="#zoomMin" x="42" y="9" onmousedown="handleZoom(evt,'out')"/>
  <use id="reset" xlink:href="#resetDef" x="30" y="36" onmousedown="handleReset()"/>
   <use id="arrowup" xlink:href="#arrowUp" x="0" y="0" onmousedown="handlePan(0,-1)"/>
  <use id="arrowright" xlink:href="#arrowRight" x="0" y="0" onmousedown="handlePan(1,0)"/>
  <use id="arrowdown" xlink:href="#arrowDown" x="0" y="0" onmousedown="handlePan(0,1)"/>
  <use id="arrowleft" xlink:href="#arrowLeft" x="0" y="0" onmousedown="handlePan(-1,0)"/>
</g>
<svg viewBox="0 0 15 15" width="100%" height="30px" preserveAspectRatio="xMaxYMin meet">
 <g id="arrow_out" transform="scale(0.3 0.3)">
  <a xlink:href="platform_8h__dep__incl_org.svg" target="_base">
   <rect id="button" ry="5" rx="5" y="6" x="6" height="38" width="38"
        fill="#f2f5e9" fill-opacity="0.5" stroke="#606060" stroke-width="1.0"/>
   <path id="arrow"
     d="M 11.500037,31.436501 C 11.940474,20.09759 22.043105,11.32322 32.158766,21.979434 L 37.068811,17.246167 C 37.068811,17.246167 37.088388,32 37.088388,32 L 22.160133,31.978069 C 22.160133,31.978069 26.997745,27.140456 26.997745,27.140456 C 18.528582,18.264221 13.291696,25.230495 11.500037,31.436501 z"
     style="fill:#404040;"/>
  </a>
 </g>
</svg>

<style type='text/css'>
<![CDATA[
[data-mouse-over-selected='false'] { opacity: 0.7; }
[data-mouse-over-selected='true']  { opacity: 1.0; }
]]>
</style>
<script type="application/ecmascript"><![CDATA[
document.addEventListener('DOMContentLoaded', (event) => {
  highlightEdges();
  highlightAdjacentNodes();
});
]]></script>
</svg>
