<?xml version="1.0" encoding="UTF-8" standalone="no"?>
<!DOCTYPE svg PUBLIC "-//W3C//DTD SVG 1.1//EN"
 "http://www.w3.org/Graphics/SVG/1.1/DTD/svg11.dtd">
<!-- Generated by graphviz version 2.43.0 (0)
 -->
<!-- Title: engine/src/opt/replicate_hot.c Pages: 1 -->
<svg width="630pt" height="151pt"
 viewBox="0.00 0.00 630.00 151.00" xmlns="http://www.w3.org/2000/svg" xmlns:xlink="http://www.w3.org/1999/xlink">
<g id="graph0" class="graph" transform="scale(1 1) rotate(0) translate(4 147)">
<title>engine/src/opt/replicate_hot.c</title>
<!-- Node1 -->
<g id="node1" class="node">
<title>Node1</title>
<g id="a_node1"><a xlink:title="Replication of hot weights per socket using first&#45;touch placement.">
<polygon fill="#bfbfbf" stroke="black" points="251,-112.5 251,-142.5 382,-142.5 382,-112.5 251,-112.5"/>
<text text-anchor="start" x="259" y="-130.5" font-family="Helvetica,sans-Serif" font-size="10.00">engine/src/opt/replicate</text>
<text text-anchor="middle" x="316.5" y="-119.5" font-family="Helvetica,sans-Serif" font-size="10.00">_hot.c</text>
</a>
</g>
</g>
<!-- Node2 -->
<g id="node2" class="node">
<title>Node2</title>
<g id="a_node2"><a xlink:title=" ">
<polygon fill="none" stroke="#bfbfbf" points="0,-56.5 0,-75.5 51,-75.5 51,-56.5 0,-56.5"/>
<text text-anchor="middle" x="25.5" y="-63.5" font-family="Helvetica,sans-Serif" font-size="10.00">errno.h</text>
</a>
</g>
</g>
<!-- Node1&#45;&gt;Node2 -->
<g id="edge1" class="edge">
<title>Node1&#45;&gt;Node2</title>
<path fill="none" stroke="midnightblue" d="M250.76,-114.8C201.03,-105.66 130.84,-92.18 60.94,-76.23"/>
<polygon fill="midnightblue" stroke="midnightblue" points="61.61,-72.79 51.08,-73.96 60.04,-79.61 61.61,-72.79"/>
</g>
<!-- Node3 -->
<g id="node3" class="node">
<title>Node3</title>
<g id="a_node3"><a xlink:title=" ">
<polygon fill="none" stroke="#bfbfbf" points="69,-56.5 69,-75.5 134,-75.5 134,-56.5 69,-56.5"/>
<text text-anchor="middle" x="101.5" y="-63.5" font-family="Helvetica,sans-Serif" font-size="10.00">inttypes.h</text>
</a>
</g>
</g>
<!-- Node1&#45;&gt;Node3 -->
<g id="edge2" class="edge">
<title>Node1&#45;&gt;Node3</title>
<path fill="none" stroke="midnightblue" d="M265.82,-112.47C228.08,-102.03 177.23,-87.96 142.14,-78.25"/>
<polygon fill="midnightblue" stroke="midnightblue" points="142.81,-74.8 132.24,-75.51 140.94,-81.55 142.81,-74.8"/>
</g>
<!-- Node4 -->
<g id="node4" class="node">
<title>Node4</title>
<g id="a_node4"><a xlink:title=" ">
<polygon fill="none" stroke="#bfbfbf" points="169.5,-0.5 169.5,-19.5 225.5,-19.5 225.5,-0.5 169.5,-0.5"/>
<text text-anchor="middle" x="197.5" y="-7.5" font-family="Helvetica,sans-Serif" font-size="10.00">stddef.h</text>
</a>
</g>
</g>
<!-- Node1&#45;&gt;Node4 -->
<g id="edge3" class="edge">
<title>Node1&#45;&gt;Node4</title>
<path fill="none" stroke="midnightblue" d="M250.87,-118.22C224.81,-111.35 197.33,-98.82 181.5,-76 171.71,-61.88 178.56,-42.38 186.11,-28.43"/>
<polygon fill="midnightblue" stroke="midnightblue" points="189.14,-30.18 191.24,-19.8 183.12,-26.6 189.14,-30.18"/>
</g>
<!-- Node5 -->
<g id="node5" class="node">
<title>Node5</title>
<g id="a_node5"><a xlink:title=" ">
<polygon fill="none" stroke="#bfbfbf" points="363,-0.5 363,-19.5 416,-19.5 416,-0.5 363,-0.5"/>
<text text-anchor="middle" x="389.5" y="-7.5" font-family="Helvetica,sans-Serif" font-size="10.00">stdint.h</text>
</a>
</g>
</g>
<!-- Node1&#45;&gt;Node5 -->
<g id="edge4" class="edge">
<title>Node1&#45;&gt;Node5</title>
<path fill="none" stroke="midnightblue" d="M382.14,-115.96C426,-107.42 478.05,-93.88 491.5,-76 512.44,-48.16 463.4,-29.11 426.29,-19.14"/>
<polygon fill="midnightblue" stroke="midnightblue" points="426.76,-15.65 416.21,-16.57 425.03,-22.43 426.76,-15.65"/>
</g>
<!-- Node6 -->
<g id="node6" class="node">
<title>Node6</title>
<g id="a_node6"><a xlink:title=" ">
<polygon fill="none" stroke="#bfbfbf" points="290,-56.5 290,-75.5 343,-75.5 343,-56.5 290,-56.5"/>
<text text-anchor="middle" x="316.5" y="-63.5" font-family="Helvetica,sans-Serif" font-size="10.00">stdlib.h</text>
</a>
</g>
</g>
<!-- Node1&#45;&gt;Node6 -->
<g id="edge5" class="edge">
<title>Node1&#45;&gt;Node6</title>
<path fill="none" stroke="midnightblue" d="M316.5,-112.4C316.5,-104.47 316.5,-94.46 316.5,-85.86"/>
<polygon fill="midnightblue" stroke="midnightblue" points="320,-85.66 316.5,-75.66 313,-85.66 320,-85.66"/>
</g>
<!-- Node7 -->
<g id="node7" class="node">
<title>Node7</title>
<g id="a_node7"><a xlink:title=" ">
<polygon fill="none" stroke="#bfbfbf" points="361,-56.5 361,-75.5 414,-75.5 414,-56.5 361,-56.5"/>
<text text-anchor="middle" x="387.5" y="-63.5" font-family="Helvetica,sans-Serif" font-size="10.00">string.h</text>
</a>
</g>
</g>
<!-- Node1&#45;&gt;Node7 -->
<g id="edge6" class="edge">
<title>Node1&#45;&gt;Node7</title>
<path fill="none" stroke="midnightblue" d="M333.33,-112.4C344.17,-103.31 358.28,-91.49 369.37,-82.19"/>
<polygon fill="midnightblue" stroke="midnightblue" points="371.75,-84.76 377.17,-75.66 367.26,-79.4 371.75,-84.76"/>
</g>
<!-- Node8 -->
<g id="node8" class="node">
<title>Node8</title>
<g id="a_node8"><a xlink:title=" ">
<polygon fill="none" stroke="#bfbfbf" points="432.5,-56.5 432.5,-75.5 482.5,-75.5 482.5,-56.5 432.5,-56.5"/>
<text text-anchor="middle" x="457.5" y="-63.5" font-family="Helvetica,sans-Serif" font-size="10.00">stdio.h</text>
</a>
</g>
</g>
<!-- Node1&#45;&gt;Node8 -->
<g id="edge7" class="edge">
<title>Node1&#45;&gt;Node8</title>
<path fill="none" stroke="midnightblue" d="M349.92,-112.4C373.47,-102.46 404.74,-89.26 427.49,-79.66"/>
<polygon fill="midnightblue" stroke="midnightblue" points="429.13,-82.77 436.98,-75.66 426.41,-76.32 429.13,-82.77"/>
</g>
<!-- Node9 -->
<g id="node9" class="node">
<title>Node9</title>
<g id="a_node9"><a xlink:href="ie__topology_8h.html" target="_top" xlink:title=" ">
<polygon fill="none" stroke="black" points="191,-56.5 191,-75.5 272,-75.5 272,-56.5 191,-56.5"/>
<text text-anchor="middle" x="231.5" y="-63.5" font-family="Helvetica,sans-Serif" font-size="10.00">ie_topology.h</text>
</a>
</g>
</g>
<!-- Node1&#45;&gt;Node9 -->
<g id="edge8" class="edge">
<title>Node1&#45;&gt;Node9</title>
<path fill="none" stroke="midnightblue" d="M296.36,-112.4C283.11,-103.13 265.82,-91.03 252.42,-81.65"/>
<polygon fill="midnightblue" stroke="midnightblue" points="254.07,-78.53 243.87,-75.66 250.05,-84.26 254.07,-78.53"/>
</g>
<!-- Node10 -->
<g id="node10" class="node">
<title>Node10</title>
<g id="a_node10"><a xlink:href="util__logging_8h.html" target="_top" xlink:title="Minimal logging interface (printf&#45;style), used by CLI and tests.">
<polygon fill="none" stroke="black" points="539,-56.5 539,-75.5 622,-75.5 622,-56.5 539,-56.5"/>
<text text-anchor="middle" x="580.5" y="-63.5" font-family="Helvetica,sans-Serif" font-size="10.00">util_logging.h</text>
</a>
</g>
</g>
<!-- Node1&#45;&gt;Node10 -->
<g id="edge11" class="edge">
<title>Node1&#45;&gt;Node10</title>
<path fill="none" stroke="midnightblue" d="M378.73,-112.47C425.87,-101.85 489.66,-87.47 532.8,-77.75"/>
<polygon fill="midnightblue" stroke="midnightblue" points="533.77,-81.12 542.76,-75.51 532.23,-74.29 533.77,-81.12"/>
</g>
<!-- Node9&#45;&gt;Node4 -->
<g id="edge9" class="edge">
<title>Node9&#45;&gt;Node4</title>
<path fill="none" stroke="midnightblue" d="M225.89,-56.08C221.13,-48.53 214.18,-37.49 208.35,-28.23"/>
<polygon fill="midnightblue" stroke="midnightblue" points="211.3,-26.35 203.01,-19.75 205.38,-30.08 211.3,-26.35"/>
</g>
<!-- Node9&#45;&gt;Node5 -->
<g id="edge10" class="edge">
<title>Node9&#45;&gt;Node5</title>
<path fill="none" stroke="midnightblue" d="M256.54,-56.44C283.12,-47.36 325.31,-32.94 355.02,-22.78"/>
<polygon fill="midnightblue" stroke="midnightblue" points="356.25,-26.06 364.58,-19.52 353.99,-19.44 356.25,-26.06"/>
</g>
<!-- Node11 -->
<g id="node11" class="node">
<title>Node11</title>
<g id="a_node11"><a xlink:title=" ">
<polygon fill="none" stroke="#bfbfbf" points="552.5,-0.5 552.5,-19.5 608.5,-19.5 608.5,-0.5 552.5,-0.5"/>
<text text-anchor="middle" x="580.5" y="-7.5" font-family="Helvetica,sans-Serif" font-size="10.00">stdarg.h</text>
</a>
</g>
</g>
<!-- Node10&#45;&gt;Node11 -->
<g id="edge12" class="edge">
<title>Node10&#45;&gt;Node11</title>
<path fill="none" stroke="midnightblue" d="M580.5,-56.08C580.5,-49.01 580.5,-38.86 580.5,-29.99"/>
<polygon fill="midnightblue" stroke="midnightblue" points="584,-29.75 580.5,-19.75 577,-29.75 584,-29.75"/>
</g>
</g>
</svg>
