<?xml version="1.0" encoding="UTF-8" standalone="no"?>
<!DOCTYPE svg PUBLIC "-//W3C//DTD SVG 1.1//EN"
 "http://www.w3.org/Graphics/SVG/1.1/DTD/svg11.dtd">
<!-- Generated by graphviz version 2.43.0 (0)
 -->
<!-- Title: ie_hot_replicate_build Pages: 1 -->
<svg width="461pt" height="154pt"
 viewBox="0.00 0.00 461.00 154.00" xmlns="http://www.w3.org/2000/svg" xmlns:xlink="http://www.w3.org/1999/xlink">
<g id="graph0" class="graph" transform="scale(1 1) rotate(0) translate(4 150)">
<title>ie_hot_replicate_build</title>
<!-- Node1 -->
<g id="node1" class="node">
<title>Node1</title>
<g id="a_node1"><a xlink:title="Create per&#45;socket replicas of blob using first&#45;touch placement.">
<polygon fill="#bfbfbf" stroke="black" points="0,-66.5 0,-85.5 124,-85.5 124,-66.5 0,-66.5"/>
<text text-anchor="middle" x="62" y="-73.5" font-family="Helvetica,sans-Serif" font-size="10.00">ie_hot_replicate_build</text>
</a>
</g>
</g>
<!-- Node2 -->
<g id="node2" class="node">
<title>Node2</title>
<g id="a_node2"><a xlink:href="replicate__hot_8c.html#aeab08179a35b8f5ae6ca655cf915af84" target="_top" xlink:title="Best&#45;effort hint to the OS that the buffer will be needed soon.">
<polygon fill="none" stroke="black" points="181,-126.5 181,-145.5 276,-145.5 276,-126.5 181,-126.5"/>
<text text-anchor="middle" x="228.5" y="-133.5" font-family="Helvetica,sans-Serif" font-size="10.00">advise_willneed</text>
</a>
</g>
</g>
<!-- Node1&#45;&gt;Node2 -->
<g id="edge1" class="edge">
<title>Node1&#45;&gt;Node2</title>
<path fill="none" stroke="midnightblue" d="M83.52,-85.56C102.95,-94.4 133.08,-107.57 160,-117 166.56,-119.3 173.55,-121.52 180.46,-123.58"/>
<polygon fill="midnightblue" stroke="midnightblue" points="179.88,-127.05 190.45,-126.47 181.82,-120.33 179.88,-127.05"/>
</g>
<!-- Node3 -->
<g id="node3" class="node">
<title>Node3</title>
<g id="a_node3"><a xlink:href="replicate__hot_8c.html#aa966a1d17ddd373703a273d4b5bb3c30" target="_top" xlink:title="First&#45;touch a writable buffer to bias NUMA page placement.">
<polygon fill="none" stroke="black" points="179.5,-88.5 179.5,-107.5 277.5,-107.5 277.5,-88.5 179.5,-88.5"/>
<text text-anchor="middle" x="228.5" y="-95.5" font-family="Helvetica,sans-Serif" font-size="10.00">first_touch_write</text>
</a>
</g>
</g>
<!-- Node1&#45;&gt;Node3 -->
<g id="edge2" class="edge">
<title>Node1&#45;&gt;Node3</title>
<path fill="none" stroke="midnightblue" d="M124.25,-84.19C139.02,-86.17 154.76,-88.27 169.38,-90.23"/>
<polygon fill="midnightblue" stroke="midnightblue" points="168.93,-93.7 179.3,-91.55 169.85,-86.76 168.93,-93.7"/>
</g>
<!-- Node4 -->
<g id="node4" class="node">
<title>Node4</title>
<g id="a_node4"><a xlink:href="ie__topology_8h.html#a240a4c4d3d2222d4fc3d212f238f1753" target="_top" xlink:title="Bind the current thread/process to a representative CPU of a socket.">
<polygon fill="none" stroke="black" points="160,-39 160,-69 297,-69 297,-39 160,-39"/>
<text text-anchor="start" x="168" y="-57" font-family="Helvetica,sans-Serif" font-size="10.00">ie_topology_bind_thread</text>
<text text-anchor="middle" x="228.5" y="-46" font-family="Helvetica,sans-Serif" font-size="10.00">_to_socket</text>
</a>
</g>
</g>
<!-- Node1&#45;&gt;Node4 -->
<g id="edge3" class="edge">
<title>Node1&#45;&gt;Node4</title>
<path fill="none" stroke="midnightblue" d="M124.25,-67.81C132.59,-66.69 141.24,-65.54 149.82,-64.39"/>
<polygon fill="midnightblue" stroke="midnightblue" points="150.39,-67.84 159.84,-63.05 149.46,-60.91 150.39,-67.84"/>
</g>
<!-- Node6 -->
<g id="node6" class="node">
<title>Node6</title>
<g id="a_node6"><a xlink:href="ie__topology_8h.html#ae9fec2d245fb73d6c3e8e3cba38d4471" target="_top" xlink:title="Return the number of sockets (physical packages).">
<polygon fill="none" stroke="black" points="170.5,-0.5 170.5,-19.5 286.5,-19.5 286.5,-0.5 170.5,-0.5"/>
<text text-anchor="middle" x="228.5" y="-7.5" font-family="Helvetica,sans-Serif" font-size="10.00">ie_topology_sockets</text>
</a>
</g>
</g>
<!-- Node1&#45;&gt;Node6 -->
<g id="edge5" class="edge">
<title>Node1&#45;&gt;Node6</title>
<path fill="none" stroke="midnightblue" d="M80.87,-66.5C100.06,-56.54 131.63,-40.86 160,-30 166.91,-27.36 174.32,-24.85 181.61,-22.55"/>
<polygon fill="midnightblue" stroke="midnightblue" points="182.87,-25.83 191.42,-19.57 180.84,-19.13 182.87,-25.83"/>
</g>
<!-- Node5 -->
<g id="node5" class="node">
<title>Node5</title>
<g id="a_node5"><a xlink:href="topology_8c.html#a69b006879441857f80d4c4f200376d11" target="_top" xlink:title="First (smallest id) CPU present on a given socket.">
<polygon fill="none" stroke="black" points="333,-39 333,-69 453,-69 453,-39 333,-39"/>
<text text-anchor="start" x="341" y="-57" font-family="Helvetica,sans-Serif" font-size="10.00">ie_topology_first_cpu</text>
<text text-anchor="middle" x="393" y="-46" font-family="Helvetica,sans-Serif" font-size="10.00">_on_socket</text>
</a>
</g>
</g>
<!-- Node4&#45;&gt;Node5 -->
<g id="edge4" class="edge">
<title>Node4&#45;&gt;Node5</title>
<path fill="none" stroke="midnightblue" d="M297,-54C305.5,-54 314.2,-54 322.72,-54"/>
<polygon fill="midnightblue" stroke="midnightblue" points="322.99,-57.5 332.99,-54 322.99,-50.5 322.99,-57.5"/>
</g>
</g>
</svg>
