<?xml version="1.0" encoding="UTF-8" standalone="no"?>
<!DOCTYPE svg PUBLIC "-//W3C//DTD SVG 1.1//EN"
 "http://www.w3.org/Graphics/SVG/1.1/DTD/svg11.dtd">
<!-- Generated by graphviz version 2.43.0 (0)
 -->
<!-- Title: free_replicas_internal Pages: 1 -->
<svg width="307pt" height="104pt"
 viewBox="0.00 0.00 307.00 104.00" xmlns="http://www.w3.org/2000/svg" xmlns:xlink="http://www.w3.org/1999/xlink">
<g id="graph0" class="graph" transform="scale(1 1) rotate(0) translate(4 100)">
<title>free_replicas_internal</title>
<!-- Node1 -->
<g id="node1" class="node">
<title>Node1</title>
<g id="a_node1"><a xlink:title="Free all allocations owned by a replica set (internal helper).">
<polygon fill="#bfbfbf" stroke="black" points="177,-38.5 177,-57.5 299,-57.5 299,-38.5 177,-38.5"/>
<text text-anchor="middle" x="238" y="-45.5" font-family="Helvetica,sans-Serif" font-size="10.00">free_replicas_internal</text>
</a>
</g>
</g>
<!-- Node2 -->
<g id="node2" class="node">
<title>Node2</title>
<g id="a_node2"><a xlink:href="replicate__hot_8c.html#ab0351bef88d481e1eb86eb068d28de7b" target="_top" xlink:title="Free replicas previously built by ie_hot_replicate_build() or ie_hot_replicate_build_fill().">
<polygon fill="none" stroke="black" points="13,-76.5 13,-95.5 128,-95.5 128,-76.5 13,-76.5"/>
<text text-anchor="middle" x="70.5" y="-83.5" font-family="Helvetica,sans-Serif" font-size="10.00">ie_hot_replicas_free</text>
</a>
</g>
</g>
<!-- Node1&#45;&gt;Node2 -->
<g id="edge1" class="edge">
<title>Node1&#45;&gt;Node2</title>
<path fill="none" stroke="midnightblue" d="M185.19,-59.9C161.93,-65.24 134.85,-71.45 112.96,-76.48"/>
<polygon fill="midnightblue" stroke="midnightblue" points="186.27,-63.24 195.24,-57.59 184.71,-56.42 186.27,-63.24"/>
</g>
<!-- Node3 -->
<g id="node3" class="node">
<title>Node3</title>
<g id="a_node3"><a xlink:href="replicate__hot_8c.html#a7d3e29b1e9598ce32f191c4379cffe4e" target="_top" xlink:title="Create per&#45;socket replicas of blob using first&#45;touch placement (copy mode).">
<polygon fill="none" stroke="black" points="8.5,-38.5 8.5,-57.5 132.5,-57.5 132.5,-38.5 8.5,-38.5"/>
<text text-anchor="middle" x="70.5" y="-45.5" font-family="Helvetica,sans-Serif" font-size="10.00">ie_hot_replicate_build</text>
</a>
</g>
</g>
<!-- Node1&#45;&gt;Node3 -->
<g id="edge2" class="edge">
<title>Node1&#45;&gt;Node3</title>
<path fill="none" stroke="midnightblue" d="M166.51,-48C155.2,-48 143.57,-48 132.51,-48"/>
<polygon fill="midnightblue" stroke="midnightblue" points="166.78,-51.5 176.78,-48 166.78,-44.5 166.78,-51.5"/>
</g>
<!-- Node4 -->
<g id="node4" class="node">
<title>Node4</title>
<g id="a_node4"><a xlink:href="replicate__hot_8c.html#a1be4722e05c8e16911d2c3b0e0340098" target="_top" xlink:title="Create per&#45;socket replicas using a caller&#45;provided fill callback (fill mode).">
<polygon fill="none" stroke="black" points="0,-0.5 0,-19.5 141,-19.5 141,-0.5 0,-0.5"/>
<text text-anchor="middle" x="70.5" y="-7.5" font-family="Helvetica,sans-Serif" font-size="10.00">ie_hot_replicate_build_fill</text>
</a>
</g>
</g>
<!-- Node1&#45;&gt;Node4 -->
<g id="edge3" class="edge">
<title>Node1&#45;&gt;Node4</title>
<path fill="none" stroke="midnightblue" d="M185.19,-36.1C161.93,-30.76 134.85,-24.55 112.96,-19.52"/>
<polygon fill="midnightblue" stroke="midnightblue" points="184.71,-39.58 195.24,-38.41 186.27,-32.76 184.71,-39.58"/>
</g>
</g>
</svg>
