<?xml version="1.0" encoding="UTF-8" standalone="no"?>
<!DOCTYPE svg PUBLIC "-//W3C//DTD SVG 1.1//EN"
 "http://www.w3.org/Graphics/SVG/1.1/DTD/svg11.dtd">
<!-- Generated by graphviz version 2.43.0 (0)
 -->
<!-- Title: engine/src/kernels/rmsnorm_cpu.c Pages: 1 -->
<svg width="260pt" height="203pt"
 viewBox="0.00 0.00 260.00 203.00" xmlns="http://www.w3.org/2000/svg" xmlns:xlink="http://www.w3.org/1999/xlink">

<svg id="main" version="1.1" xmlns="http://www.w3.org/2000/svg" xmlns:xlink="http://www.w3.org/1999/xlink" xml:space="preserve" onload="init(evt)">
<style type="text/css"><![CDATA[
.node, .edge {opacity: 0.7;}
.node.selected, .edge.selected {opacity: 1;}
.edge:hover path { stroke: red; }
.edge:hover polygon { stroke: red; fill: red; }
]]></style>
<script type="application/ecmascript" xlink:href="svg.min.js"/>
<svg id="graph" class="graph">
<g id="graph0" class="graph" transform="scale(1 1) rotate(0) translate(4 199)">
<title>engine/src/kernels/rmsnorm_cpu.c</title>
<!-- Node1 -->
<g id="Node000001" class="node">
<title>Node1</title>
<g id="a_Node000001"><a xlink:title="CPU implementation of RMSNorm for fp32 activations.">
<polygon fill="#999999" stroke="#666666" points="132,-195 27,-195 27,-165 132,-165 132,-195"/>
<text text-anchor="start" x="35" y="-183" font-family="Helvetica,sans-Serif" font-size="10.00">engine/src/kernels</text>
<text text-anchor="middle" x="79.5" y="-172" font-family="Helvetica,sans-Serif" font-size="10.00">/rmsnorm_cpu.c</text>
</a>
</g>
</g>
<!-- Node2 -->
<g id="Node000002" class="node">
<title>Node2</title>
<g id="a_Node000002"><a xlink:title=" ">
<polygon fill="#e0e0e0" stroke="#999999" points="51,-129 0,-129 0,-110 51,-110 51,-129"/>
<text text-anchor="middle" x="25.5" y="-117" font-family="Helvetica,sans-Serif" font-size="10.00">math.h</text>
</a>
</g>
</g>
<!-- Node1&#45;&gt;Node2 -->
<g id="edge1_Node000001_Node000002" class="edge">
<title>Node1&#45;&gt;Node2</title>
<g id="a_edge1_Node000001_Node000002"><a xlink:title=" ">
<path fill="none" stroke="#63b8ff" d="M66.43,-164.84C58.59,-156.35 48.59,-145.52 40.44,-136.69"/>
<polygon fill="#63b8ff" stroke="#63b8ff" points="42.95,-134.24 33.59,-129.27 37.8,-138.99 42.95,-134.24"/>
</a>
</g>
</g>
<!-- Node3 -->
<g id="Node000003" class="node">
<title>Node3</title>
<g id="a_Node000003"><a xlink:title=" ">
<polygon fill="#e0e0e0" stroke="#999999" points="145.5,-19 89.5,-19 89.5,0 145.5,0 145.5,-19"/>
<text text-anchor="middle" x="117.5" y="-7" font-family="Helvetica,sans-Serif" font-size="10.00">stddef.h</text>
</a>
</g>
</g>
<!-- Node1&#45;&gt;Node3 -->
<g id="edge2_Node000001_Node000003" class="edge">
<title>Node1&#45;&gt;Node3</title>
<g id="a_edge2_Node000001_Node000003"><a xlink:title=" ">
<path fill="none" stroke="#63b8ff" d="M82.67,-164.92C89.5,-134.65 105.58,-63.35 113.27,-29.27"/>
<polygon fill="#63b8ff" stroke="#63b8ff" points="116.74,-29.78 115.53,-19.25 109.91,-28.24 116.74,-29.78"/>
</a>
</g>
</g>
<!-- Node4 -->
<g id="Node000004" class="node">
<title>Node4</title>
<g id="a_Node000004"><a xlink:href="ie__kernels_8h.html" target="_top" xlink:title=" ">
<polygon fill="white" stroke="#666666" points="205,-129 130,-129 130,-110 205,-110 205,-129"/>
<text text-anchor="middle" x="167.5" y="-117" font-family="Helvetica,sans-Serif" font-size="10.00">ie_kernels.h</text>
</a>
</g>
</g>
<!-- Node1&#45;&gt;Node4 -->
<g id="edge3_Node000001_Node000004" class="edge">
<title>Node1&#45;&gt;Node4</title>
<g id="a_edge3_Node000001_Node000004"><a xlink:title=" ">
<path fill="none" stroke="#63b8ff" d="M100.8,-164.84C114.57,-155.68 132.43,-143.82 146.2,-134.66"/>
<polygon fill="#63b8ff" stroke="#63b8ff" points="148.18,-137.55 154.57,-129.09 144.31,-131.72 148.18,-137.55"/>
</a>
</g>
</g>
<!-- Node4&#45;&gt;Node3 -->
<g id="edge4_Node000004_Node000003" class="edge">
<title>Node4&#45;&gt;Node3</title>
<g id="a_edge4_Node000004_Node000003"><a xlink:title=" ">
<path fill="none" stroke="#63b8ff" d="M160.19,-109.82C153.26,-101.21 142.97,-87.4 136.5,-74 129.54,-59.57 124.53,-42.06 121.41,-29.08"/>
<polygon fill="#63b8ff" stroke="#63b8ff" points="124.76,-28.02 119.15,-19.03 117.93,-29.56 124.76,-28.02"/>
</a>
</g>
</g>
<!-- Node5 -->
<g id="Node000005" class="node">
<title>Node5</title>
<g id="a_Node000005"><a xlink:title=" ">
<polygon fill="#e0e0e0" stroke="#999999" points="252,-19 199,-19 199,0 252,0 252,-19"/>
<text text-anchor="middle" x="225.5" y="-7" font-family="Helvetica,sans-Serif" font-size="10.00">stdint.h</text>
</a>
</g>
</g>
<!-- Node4&#45;&gt;Node5 -->
<g id="edge5_Node000004_Node000005" class="edge">
<title>Node4&#45;&gt;Node5</title>
<g id="a_edge5_Node000004_Node000005"><a xlink:title=" ">
<path fill="none" stroke="#63b8ff" d="M195.15,-109.98C212.08,-103.17 232.39,-91.76 242.5,-74 250.68,-59.64 244.16,-41.2 236.96,-27.89"/>
<polygon fill="#63b8ff" stroke="#63b8ff" points="239.93,-26.04 231.79,-19.25 233.92,-29.63 239.93,-26.04"/>
</a>
</g>
</g>
<!-- Node6 -->
<g id="Node000006" class="node">
<title>Node6</title>
<g id="a_Node000006"><a xlink:href="ie__quant__act_8h.html" target="_top" xlink:title=" ">
<polygon fill="white" stroke="#666666" points="233.5,-74 145.5,-74 145.5,-55 233.5,-55 233.5,-74"/>
<text text-anchor="middle" x="189.5" y="-62" font-family="Helvetica,sans-Serif" font-size="10.00">ie_quant_act.h</text>
</a>
</g>
</g>
<!-- Node4&#45;&gt;Node6 -->
<g id="edge6_Node000004_Node000006" class="edge">
<title>Node4&#45;&gt;Node6</title>
<g id="a_edge6_Node000004_Node000006"><a xlink:title=" ">
<path fill="none" stroke="#63b8ff" d="M171.13,-109.75C174.08,-102.65 178.33,-92.4 182.01,-83.56"/>
<polygon fill="#63b8ff" stroke="#63b8ff" points="185.33,-84.67 185.93,-74.09 178.87,-81.98 185.33,-84.67"/>
</a>
</g>
</g>
<!-- Node6&#45;&gt;Node3 -->
<g id="edge7_Node000006_Node000003" class="edge">
<title>Node6&#45;&gt;Node3</title>
<g id="a_edge7_Node000006_Node000003"><a xlink:title=" ">
<path fill="none" stroke="#63b8ff" d="M177.93,-54.98C167.08,-47 150.62,-34.88 137.62,-25.31"/>
<polygon fill="#63b8ff" stroke="#63b8ff" points="139.41,-22.28 129.28,-19.17 135.26,-27.92 139.41,-22.28"/>
</a>
</g>
</g>
<!-- Node6&#45;&gt;Node5 -->
<g id="edge8_Node000006_Node000005" class="edge">
<title>Node6&#45;&gt;Node5</title>
<g id="a_edge8_Node000006_Node000005"><a xlink:title=" ">
<path fill="none" stroke="#63b8ff" d="M195.44,-54.75C200.48,-47.34 207.84,-36.5 214.01,-27.41"/>
<polygon fill="#63b8ff" stroke="#63b8ff" points="216.94,-29.33 219.67,-19.09 211.15,-25.39 216.94,-29.33"/>
</a>
</g>
</g>
</g>
</svg>
</svg>

<style type='text/css'>
<![CDATA[
[data-mouse-over-selected='false'] { opacity: 0.7; }
[data-mouse-over-selected='true']  { opacity: 1.0; }
]]>
</style>
<script type="application/ecmascript"><![CDATA[
document.addEventListener('DOMContentLoaded', (event) => {
  highlightEdges();
  highlightAdjacentNodes();
});
]]></script>
</svg>
