<?xml version="1.0" encoding="UTF-8" standalone="no"?>
<!DOCTYPE svg PUBLIC "-//W3C//DTD SVG 1.1//EN"
 "http://www.w3.org/Graphics/SVG/1.1/DTD/svg11.dtd">
<!-- Generated by graphviz version 2.43.0 (0)
 -->
<!-- Title: engine/src/runtime/sampling.c Pages: 1 -->
<svg width="504pt" height="148pt"
 viewBox="0.00 0.00 503.50 148.00" xmlns="http://www.w3.org/2000/svg" xmlns:xlink="http://www.w3.org/1999/xlink">
<g id="graph0" class="graph" transform="scale(1 1) rotate(0) translate(4 144)">
<title>engine/src/runtime/sampling.c</title>
<!-- Node1 -->
<g id="Node000001" class="node">
<title>Node1</title>
<g id="a_Node000001"><a xlink:title="Token sampling utilities for next&#45;token selection from logits.">
<polygon fill="#999999" stroke="#666666" points="278,-140 170,-140 170,-110 278,-110 278,-140"/>
<text text-anchor="start" x="178" y="-128" font-family="Helvetica,sans-Serif" font-size="10.00">engine/src/runtime</text>
<text text-anchor="middle" x="224" y="-117" font-family="Helvetica,sans-Serif" font-size="10.00">/sampling.c</text>
</a>
</g>
</g>
<!-- Node2 -->
<g id="Node000002" class="node">
<title>Node2</title>
<g id="a_Node000002"><a xlink:href="ie__sampling_8h.html" target="_top" xlink:title="Token sampling utilities for next&#45;token selection from logits.">
<polygon fill="white" stroke="#666666" points="107.5,-74 22.5,-74 22.5,-55 107.5,-55 107.5,-74"/>
<text text-anchor="middle" x="65" y="-62" font-family="Helvetica,sans-Serif" font-size="10.00">ie_sampling.h</text>
</a>
</g>
</g>
<!-- Node1&#45;&gt;Node2 -->
<g id="edge1_Node000001_Node000002" class="edge">
<title>Node1&#45;&gt;Node2</title>
<g id="a_edge1_Node000001_Node000002"><a xlink:title=" ">
<path fill="none" stroke="#63b8ff" d="M185.92,-109.99C159.15,-100.14 123.7,-87.1 98.11,-77.68"/>
<polygon fill="#63b8ff" stroke="#63b8ff" points="99.07,-74.31 88.48,-74.14 96.66,-80.88 99.07,-74.31"/>
</a>
</g>
</g>
<!-- Node3 -->
<g id="Node000003" class="node">
<title>Node3</title>
<g id="a_Node000003"><a xlink:title=" ">
<polygon fill="#e0e0e0" stroke="#999999" points="56,-19 0,-19 0,0 56,0 56,-19"/>
<text text-anchor="middle" x="28" y="-7" font-family="Helvetica,sans-Serif" font-size="10.00">stddef.h</text>
</a>
</g>
</g>
<!-- Node1&#45;&gt;Node3 -->
<g id="edge6_Node000001_Node000003" class="edge">
<title>Node1&#45;&gt;Node3</title>
<g id="a_edge6_Node000001_Node000003"><a xlink:title=" ">
<path fill="none" stroke="#63b8ff" d="M169.76,-118.71C113.85,-112.01 32.21,-98.29 13,-74 2.71,-60.99 9.1,-42.08 16.46,-28.28"/>
<polygon fill="#63b8ff" stroke="#63b8ff" points="19.69,-29.69 21.76,-19.3 13.66,-26.13 19.69,-29.69"/>
</a>
</g>
</g>
<!-- Node4 -->
<g id="Node000004" class="node">
<title>Node4</title>
<g id="a_Node000004"><a xlink:title=" ">
<polygon fill="#e0e0e0" stroke="#999999" points="144.5,-19 91.5,-19 91.5,0 144.5,0 144.5,-19"/>
<text text-anchor="middle" x="118" y="-7" font-family="Helvetica,sans-Serif" font-size="10.00">stdint.h</text>
</a>
</g>
</g>
<!-- Node1&#45;&gt;Node4 -->
<g id="edge7_Node000001_Node000004" class="edge">
<title>Node1&#45;&gt;Node4</title>
<g id="a_edge7_Node000001_Node000004"><a xlink:title=" ">
<path fill="none" stroke="#63b8ff" d="M200.11,-109.83C186.15,-100.77 168.82,-88.09 156,-74 143.46,-60.22 132.94,-41.67 126.16,-28.18"/>
<polygon fill="#63b8ff" stroke="#63b8ff" points="129.24,-26.5 121.75,-19.01 122.93,-29.54 129.24,-26.5"/>
</a>
</g>
</g>
<!-- Node5 -->
<g id="Node000005" class="node">
<title>Node5</title>
<g id="a_Node000005"><a xlink:title=" ">
<polygon fill="#e0e0e0" stroke="#999999" points="215.5,-74 164.5,-74 164.5,-55 215.5,-55 215.5,-74"/>
<text text-anchor="middle" x="190" y="-62" font-family="Helvetica,sans-Serif" font-size="10.00">errno.h</text>
</a>
</g>
</g>
<!-- Node1&#45;&gt;Node5 -->
<g id="edge4_Node000001_Node000005" class="edge">
<title>Node1&#45;&gt;Node5</title>
<g id="a_edge4_Node000001_Node000005"><a xlink:title=" ">
<path fill="none" stroke="#63b8ff" d="M215.77,-109.84C211.09,-101.78 205.18,-91.62 200.2,-83.06"/>
<polygon fill="#63b8ff" stroke="#63b8ff" points="203.15,-81.15 195.09,-74.27 197.09,-84.67 203.15,-81.15"/>
</a>
</g>
</g>
<!-- Node6 -->
<g id="Node000006" class="node">
<title>Node6</title>
<g id="a_Node000006"><a xlink:title=" ">
<polygon fill="#e0e0e0" stroke="#999999" points="284.5,-74 233.5,-74 233.5,-55 284.5,-55 284.5,-74"/>
<text text-anchor="middle" x="259" y="-62" font-family="Helvetica,sans-Serif" font-size="10.00">math.h</text>
</a>
</g>
</g>
<!-- Node1&#45;&gt;Node6 -->
<g id="edge5_Node000001_Node000006" class="edge">
<title>Node1&#45;&gt;Node6</title>
<g id="a_edge5_Node000001_Node000006"><a xlink:title=" ">
<path fill="none" stroke="#63b8ff" d="M232.47,-109.84C237.29,-101.78 243.37,-91.62 248.5,-83.06"/>
<polygon fill="#63b8ff" stroke="#63b8ff" points="251.62,-84.64 253.76,-74.27 245.62,-81.05 251.62,-84.64"/>
</a>
</g>
</g>
<!-- Node7 -->
<g id="Node000007" class="node">
<title>Node7</title>
<g id="a_Node000007"><a xlink:title=" ">
<polygon fill="#e0e0e0" stroke="#999999" points="353,-74 303,-74 303,-55 353,-55 353,-74"/>
<text text-anchor="middle" x="328" y="-62" font-family="Helvetica,sans-Serif" font-size="10.00">stdio.h</text>
</a>
</g>
</g>
<!-- Node1&#45;&gt;Node7 -->
<g id="edge8_Node000001_Node000007" class="edge">
<title>Node1&#45;&gt;Node7</title>
<g id="a_edge8_Node000001_Node000007"><a xlink:title=" ">
<path fill="none" stroke="#63b8ff" d="M248.91,-109.99C265.49,-100.66 287.16,-88.47 303.63,-79.21"/>
<polygon fill="#63b8ff" stroke="#63b8ff" points="305.64,-82.09 312.64,-74.14 302.21,-75.99 305.64,-82.09"/>
</a>
</g>
</g>
<!-- Node8 -->
<g id="Node000008" class="node">
<title>Node8</title>
<g id="a_Node000008"><a xlink:title=" ">
<polygon fill="#e0e0e0" stroke="#999999" points="424.5,-74 371.5,-74 371.5,-55 424.5,-55 424.5,-74"/>
<text text-anchor="middle" x="398" y="-62" font-family="Helvetica,sans-Serif" font-size="10.00">stdlib.h</text>
</a>
</g>
</g>
<!-- Node1&#45;&gt;Node8 -->
<g id="edge9_Node000001_Node000008" class="edge">
<title>Node1&#45;&gt;Node8</title>
<g id="a_edge9_Node000001_Node000008"><a xlink:title=" ">
<path fill="none" stroke="#63b8ff" d="M265.68,-109.99C295.32,-100.02 334.69,-86.78 362.77,-77.35"/>
<polygon fill="#63b8ff" stroke="#63b8ff" points="364.2,-80.56 372.56,-74.05 361.96,-73.92 364.2,-80.56"/>
</a>
</g>
</g>
<!-- Node9 -->
<g id="Node000009" class="node">
<title>Node9</title>
<g id="a_Node000009"><a xlink:title=" ">
<polygon fill="#e0e0e0" stroke="#999999" points="495.5,-74 442.5,-74 442.5,-55 495.5,-55 495.5,-74"/>
<text text-anchor="middle" x="469" y="-62" font-family="Helvetica,sans-Serif" font-size="10.00">string.h</text>
</a>
</g>
</g>
<!-- Node1&#45;&gt;Node9 -->
<g id="edge10_Node000001_Node000009" class="edge">
<title>Node1&#45;&gt;Node9</title>
<g id="a_edge10_Node000001_Node000009"><a xlink:title=" ">
<path fill="none" stroke="#63b8ff" d="M278.4,-111.12C318.49,-101.61 374.62,-88.26 432.24,-74.42"/>
<polygon fill="#63b8ff" stroke="#63b8ff" points="433.35,-77.75 442.25,-72.01 431.71,-70.94 433.35,-77.75"/>
</a>
</g>
</g>
<!-- Node2&#45;&gt;Node3 -->
<g id="edge2_Node000002_Node000003" class="edge">
<title>Node2&#45;&gt;Node3</title>
<g id="a_edge2_Node000002_Node000003"><a xlink:title=" ">
<path fill="none" stroke="#63b8ff" d="M58.89,-54.75C53.72,-47.34 46.15,-36.5 39.81,-27.41"/>
<polygon fill="#63b8ff" stroke="#63b8ff" points="42.59,-25.29 34,-19.09 36.85,-29.29 42.59,-25.29"/>
</a>
</g>
</g>
<!-- Node2&#45;&gt;Node4 -->
<g id="edge3_Node000002_Node000004" class="edge">
<title>Node2&#45;&gt;Node4</title>
<g id="a_edge3_Node000002_Node000004"><a xlink:title=" ">
<path fill="none" stroke="#63b8ff" d="M73.75,-54.75C81.47,-47.03 92.9,-35.6 102.22,-26.28"/>
<polygon fill="#63b8ff" stroke="#63b8ff" points="104.81,-28.64 109.41,-19.09 99.86,-23.69 104.81,-28.64"/>
</a>
</g>
</g>
</g>
</svg>
