<?xml version="1.0" encoding="UTF-8" standalone="no"?>
<!DOCTYPE svg PUBLIC "-//W3C//DTD SVG 1.1//EN"
 "http://www.w3.org/Graphics/SVG/1.1/DTD/svg11.dtd">
<!-- Generated by graphviz version 2.43.0 (0)
 -->
<!-- Title: ie_block_sparse_init Pages: 1 -->
<!--zoomable 220 -->

<svg id="main" version="1.1" xmlns="http://www.w3.org/2000/svg" xmlns:xlink="http://www.w3.org/1999/xlink" xml:space="preserve" onload="init(evt)">
<style type="text/css"><![CDATA[
.node, .edge {opacity: 0.7;}
.node.selected, .edge.selected {opacity: 1;}
.edge:hover path { stroke: red; }
.edge:hover polygon { stroke: red; fill: red; }
]]></style>

<defs>
  <circle id="rim" cx="0" cy="0" r="7"/>
  <circle id="rim2" cx="0" cy="0" r="3.5"/>
  <g id="zoomPlus">
    <use xlink:href="#rim" fill="#404040"><set attributeName="fill" to="#808080" begin="zoomplus.mouseover" end="zoomplus.mouseout"/></use>
    <path d="M-4,0h8M0,-4v8" fill="none" stroke="white" stroke-width="1.5" pointer-events="none"/>
  </g>
  <g id="zoomMin">
    <use xlink:href="#rim" fill="#404040"><set attributeName="fill" to="#808080" begin="zoomminus.mouseover" end="zoomminus.mouseout"/></use>
    <path d="M-4,0h8" fill="none" stroke="white" stroke-width="1.5" pointer-events="none"/>
  </g>
  <g id="arrowUp" transform="translate(30 24)">
    <use xlink:href="#rim"/>
    <path pointer-events="none" fill="none" stroke="white" stroke-width="1.5" d="M0,-3.0v7 M-2.5,-0.5L0,-3.0L2.5,-0.5"/>
  </g>
  <g id="arrowRight" transform="rotate(90) translate(36 -43)">
    <use xlink:href="#rim"/>
    <path pointer-events="none" fill="none" stroke="white" stroke-width="1.5" d="M0,-3.0v7 M-2.5,-0.5L0,-3.0L2.5,-0.5"/>
  </g>
  <g id="arrowDown" transform="rotate(180) translate(-30 -48)">
    <use xlink:href="#rim"/>
    <path pointer-events="none" fill="none" stroke="white" stroke-width="1.5" d="M0,-3.0v7 M-2.5,-0.5L0,-3.0L2.5,-0.5"/>
  </g>
  <g id="arrowLeft" transform="rotate(270) translate(-36 17)">
    <use xlink:href="#rim"/>
    <path pointer-events="none" fill="none" stroke="white" stroke-width="1.5" d="M0,-3.0v7 M-2.5,-0.5L0,-3.0L2.5,-0.5"/>
  </g>
  <g id="resetDef">
    <use xlink:href="#rim2" fill="#404040"><set attributeName="fill" to="#808080" begin="reset.mouseover" end="reset.mouseout"/></use>
  </g>
</defs>
<script type="application/ecmascript">
var viewWidth = 543;
var viewHeight = 220;
var sectionId = 'dynsection-4';
</script>
<script type="application/ecmascript" xlink:href="svg.min.js"/>
<svg id="graph" class="graph">
<g id="viewport">
<title>ie_block_sparse_init</title>
<!-- Node1 -->
<g id="Node000001" class="node">
<title>Node1</title>
<g id="a_Node000001"><a xlink:title="Initialize a block&#45;sparse matrix descriptor to a safe empty state.">
<polygon fill="#999999" stroke="#666666" points="535,-96.43 419,-96.43 419,-77.43 535,-77.43 535,-96.43"/>
<text text-anchor="middle" x="477" y="-84.43" font-family="Helvetica,sans-Serif" font-size="10.00">ie_block_sparse_init</text>
</a>
</g>
</g>
<!-- Node2 -->
<g id="Node000002" class="node">
<title>Node2</title>
<g id="a_Node000002"><a xlink:href="test__block__sparse_8c.html#a16c136a6163e1dc56cf3101007cde574" target="_top" xlink:title="Build block&#45;sparse descriptor for the 4x4 test matrix.">
<polygon fill="white" stroke="#666666" points="383,-191.43 250,-191.43 250,-172.43 383,-172.43 383,-191.43"/>
<text text-anchor="middle" x="316.5" y="-179.43" font-family="Helvetica,sans-Serif" font-size="10.00">build_block_sparse_4x4</text>
</a>
</g>
</g>
<!-- Node1&#45;&gt;Node2 -->
<g id="edge1_Node000001_Node000002" class="edge">
<title>Node1&#45;&gt;Node2</title>
<g id="a_edge1_Node000001_Node000002"><a xlink:title=" ">
<path fill="none" stroke="#63b8ff" d="M457.67,-103.61C439.7,-119.28 411.01,-142.56 383,-157.93 372.49,-163.69 360.31,-168.59 349.33,-172.42"/>
<polygon fill="#63b8ff" stroke="#63b8ff" points="460.42,-105.85 465.58,-96.59 455.77,-100.61 460.42,-105.85"/>
</a>
</g>
</g>
<!-- Node5 -->
<g id="Node000005" class="node">
<title>Node5</title>
<g id="a_Node000005"><a xlink:href="test__block__sparse_8c.html#a8d26e8ff16174e9f415fdadb0fb0301f" target="_top" xlink:title="Test that init and release leave descriptor in a safe state.">
<polygon fill="white" stroke="#666666" points="208,-163.93 83,-163.93 83,-133.93 208,-133.93 208,-163.93"/>
<text text-anchor="start" x="91" y="-151.93" font-family="Helvetica,sans-Serif" font-size="10.00">test_block_sparse_init</text>
<text text-anchor="middle" x="145.5" y="-140.93" font-family="Helvetica,sans-Serif" font-size="10.00">_release</text>
</a>
</g>
</g>
<!-- Node1&#45;&gt;Node5 -->
<g id="edge13_Node000001_Node000005" class="edge">
<title>Node1&#45;&gt;Node5</title>
<g id="a_edge13_Node000001_Node000005"><a xlink:title=" ">
<path fill="none" stroke="#63b8ff" d="M447.94,-100.86C429.84,-109.22 405.56,-119.3 383,-124.93 324.74,-139.46 256.31,-145.23 208.09,-147.5"/>
<polygon fill="#63b8ff" stroke="#63b8ff" points="449.76,-103.87 457.3,-96.43 446.77,-97.55 449.76,-103.87"/>
</a>
</g>
</g>
<!-- Node6 -->
<g id="Node000006" class="node">
<title>Node6</title>
<g id="a_Node000006"><a xlink:href="microbench__block__sparse_8c.html#a1151a97db14a549537170c84ed1fc692" target="_top" xlink:title="Build an ie_block_sparse_matrix_t from a dense matrix in memory.">
<polygon fill="white" stroke="#666666" points="381.5,-115.43 251.5,-115.43 251.5,-96.43 381.5,-96.43 381.5,-115.43"/>
<text text-anchor="middle" x="316.5" y="-103.43" font-family="Helvetica,sans-Serif" font-size="10.00">dense_to_block_sparse</text>
</a>
</g>
</g>
<!-- Node1&#45;&gt;Node6 -->
<g id="edge6_Node000001_Node000006" class="edge">
<title>Node1&#45;&gt;Node6</title>
<g id="a_edge6_Node000001_Node000006"><a xlink:title=" ">
<path fill="none" stroke="#63b8ff" d="M408.74,-94.99C399.76,-96.06 390.56,-97.17 381.63,-98.24"/>
<polygon fill="#63b8ff" stroke="#63b8ff" points="409.27,-98.45 418.78,-93.78 408.43,-91.5 409.27,-98.45"/>
</a>
</g>
</g>
<!-- Node8 -->
<g id="Node000008" class="node">
<title>Node8</title>
<g id="a_Node000008"><a xlink:href="convert__to__block__sparse_8c.html#a1151a97db14a549537170c84ed1fc692" target="_top" xlink:title="Build an ie_block_sparse_matrix_t from a dense matrix in memory.">
<polygon fill="white" stroke="#666666" points="381.5,-78.43 251.5,-78.43 251.5,-59.43 381.5,-59.43 381.5,-78.43"/>
<text text-anchor="middle" x="316.5" y="-66.43" font-family="Helvetica,sans-Serif" font-size="10.00">dense_to_block_sparse</text>
</a>
</g>
</g>
<!-- Node1&#45;&gt;Node8 -->
<g id="edge8_Node000001_Node000008" class="edge">
<title>Node1&#45;&gt;Node8</title>
<g id="a_edge8_Node000001_Node000008"><a xlink:title=" ">
<path fill="none" stroke="#63b8ff" d="M408.74,-79.29C399.76,-78.27 390.56,-77.22 381.63,-76.21"/>
<polygon fill="#63b8ff" stroke="#63b8ff" points="408.45,-82.78 418.78,-80.43 409.24,-75.82 408.45,-82.78"/>
</a>
</g>
</g>
<!-- Node10 -->
<g id="Node000010" class="node">
<title>Node10</title>
<g id="a_Node000010"><a xlink:href="sparse__io_8c.html#a3f5428268012e4d5e4e9d8a58c01a008" target="_top" xlink:title="Load a block&#45;sparse matrix from a binary file.">
<polygon fill="white" stroke="#666666" points="377,-41.43 256,-41.43 256,-22.43 377,-22.43 377,-41.43"/>
<text text-anchor="middle" x="316.5" y="-29.43" font-family="Helvetica,sans-Serif" font-size="10.00">ie_block_sparse_load</text>
</a>
</g>
</g>
<!-- Node1&#45;&gt;Node10 -->
<g id="edge10_Node000001_Node000010" class="edge">
<title>Node1&#45;&gt;Node10</title>
<g id="a_edge10_Node000001_Node000010"><a xlink:title=" ">
<path fill="none" stroke="#63b8ff" d="M444.71,-73.47C426.82,-66.04 403.85,-56.91 383,-49.93 374.05,-46.93 364.3,-44.04 355.12,-41.5"/>
<polygon fill="#63b8ff" stroke="#63b8ff" points="443.51,-76.76 454.08,-77.41 446.22,-70.31 443.51,-76.76"/>
</a>
</g>
</g>
<!-- Node11 -->
<g id="Node000011" class="node">
<title>Node11</title>
<g id="a_Node000011"><a xlink:href="test__block__sparse_8c.html#ae88fc354754c7811d37da2e7e1d084fd" target="_top" xlink:title="Test that loader fails with a missing file.">
<polygon fill="white" stroke="#666666" points="211,-40.93 80,-40.93 80,-10.93 211,-10.93 211,-40.93"/>
<text text-anchor="start" x="88" y="-28.93" font-family="Helvetica,sans-Serif" font-size="10.00">test_block_sparse_load</text>
<text text-anchor="middle" x="145.5" y="-17.93" font-family="Helvetica,sans-Serif" font-size="10.00">_missing</text>
</a>
</g>
</g>
<!-- Node1&#45;&gt;Node11 -->
<g id="edge14_Node000001_Node000011" class="edge">
<title>Node1&#45;&gt;Node11</title>
<g id="a_edge14_Node000001_Node000011"><a xlink:title=" ">
<path fill="none" stroke="#63b8ff" d="M461.21,-69.7C444.4,-51.57 415.1,-24.14 383,-12.93 324.38,7.55 252.63,-0.65 203.64,-10.82"/>
<polygon fill="#63b8ff" stroke="#63b8ff" points="458.74,-72.18 468.02,-77.28 463.95,-67.5 458.74,-72.18"/>
</a>
</g>
</g>
<!-- Node3 -->
<g id="Node000003" class="node">
<title>Node3</title>
<g id="a_Node000003"><a xlink:href="test__block__sparse_8c.html#afc3a88a7b32a1f93e76c3aaee2910866" target="_top" xlink:title="Test GEMV on the 4x4 example with a simple vector.">
<polygon fill="white" stroke="#666666" points="214,-211.93 77,-211.93 77,-181.93 214,-181.93 214,-211.93"/>
<text text-anchor="start" x="85" y="-199.93" font-family="Helvetica,sans-Serif" font-size="10.00">test_block_sparse_gemv</text>
<text text-anchor="middle" x="145.5" y="-188.93" font-family="Helvetica,sans-Serif" font-size="10.00">_basic</text>
</a>
</g>
</g>
<!-- Node2&#45;&gt;Node3 -->
<g id="edge2_Node000002_Node000003" class="edge">
<title>Node2&#45;&gt;Node3</title>
<g id="a_edge2_Node000002_Node000003"><a xlink:title=" ">
<path fill="none" stroke="#63b8ff" d="M239.45,-188.68C231,-189.43 222.43,-190.19 214.09,-190.93"/>
<polygon fill="#63b8ff" stroke="#63b8ff" points="240.02,-192.14 249.68,-187.77 239.41,-185.17 240.02,-192.14"/>
</a>
</g>
</g>
<!-- Node2&#45;&gt;Node5 -->
<g id="edge4_Node000002_Node000005" class="edge">
<title>Node2&#45;&gt;Node5</title>
<g id="a_edge4_Node000002_Node000005"><a xlink:title=" ">
<path fill="none" stroke="#63b8ff" d="M256.55,-170.42C240.92,-167.36 224,-164.06 208.22,-160.98"/>
<polygon fill="#63b8ff" stroke="#63b8ff" points="256.13,-173.9 266.62,-172.38 257.47,-167.03 256.13,-173.9"/>
</a>
</g>
</g>
<!-- Node4 -->
<g id="Node000004" class="node">
<title>Node4</title>
<g id="a_Node000004"><a xlink:href="test__block__sparse_8c.html#a840291bc02cba5474a4cb46a9b9566fe" target="_top" xlink:title="Entry point: run all block&#45;sparse tests.">
<polygon fill="white" stroke="#666666" points="41,-158.43 0,-158.43 0,-139.43 41,-139.43 41,-158.43"/>
<text text-anchor="middle" x="20.5" y="-146.43" font-family="Helvetica,sans-Serif" font-size="10.00">main</text>
</a>
</g>
</g>
<!-- Node3&#45;&gt;Node4 -->
<g id="edge3_Node000003_Node000004" class="edge">
<title>Node3&#45;&gt;Node4</title>
<g id="a_edge3_Node000003_Node000004"><a xlink:title=" ">
<path fill="none" stroke="#63b8ff" d="M91.02,-178.28C86.26,-176.51 81.54,-174.71 77,-172.93 64.98,-168.2 51.7,-162.47 41.15,-157.8"/>
<polygon fill="#63b8ff" stroke="#63b8ff" points="90.18,-181.7 100.77,-181.86 92.59,-175.13 90.18,-181.7"/>
</a>
</g>
</g>
<!-- Node5&#45;&gt;Node4 -->
<g id="edge5_Node000005_Node000004" class="edge">
<title>Node5&#45;&gt;Node4</title>
<g id="a_edge5_Node000005_Node000004"><a xlink:title=" ">
<path fill="none" stroke="#63b8ff" d="M72.76,-148.93C61.2,-148.93 50.13,-148.93 41.26,-148.93"/>
<polygon fill="#63b8ff" stroke="#63b8ff" points="73,-152.43 83,-148.93 73,-145.43 73,-152.43"/>
</a>
</g>
</g>
<!-- Node7 -->
<g id="Node000007" class="node">
<title>Node7</title>
<g id="a_Node000007"><a xlink:href="microbench__block__sparse_8c.html#a3c04138a5bfe5d72780bb7e82a18e627" target="_top" xlink:title=" ">
<polygon fill="white" stroke="#666666" points="166,-115.43 125,-115.43 125,-96.43 166,-96.43 166,-115.43"/>
<text text-anchor="middle" x="145.5" y="-103.43" font-family="Helvetica,sans-Serif" font-size="10.00">main</text>
</a>
</g>
</g>
<!-- Node6&#45;&gt;Node7 -->
<g id="edge7_Node000006_Node000007" class="edge">
<title>Node6&#45;&gt;Node7</title>
<g id="a_edge7_Node000006_Node000007"><a xlink:title=" ">
<path fill="none" stroke="#63b8ff" d="M241.1,-105.93C213.65,-105.93 184.76,-105.93 166.24,-105.93"/>
<polygon fill="#63b8ff" stroke="#63b8ff" points="241.13,-109.43 251.13,-105.93 241.13,-102.43 241.13,-109.43"/>
</a>
</g>
</g>
<!-- Node9 -->
<g id="Node000009" class="node">
<title>Node9</title>
<g id="a_Node000009"><a xlink:href="convert__to__block__sparse_8c.html#a3c04138a5bfe5d72780bb7e82a18e627" target="_top" xlink:title=" ">
<polygon fill="white" stroke="#666666" points="166,-78.43 125,-78.43 125,-59.43 166,-59.43 166,-78.43"/>
<text text-anchor="middle" x="145.5" y="-66.43" font-family="Helvetica,sans-Serif" font-size="10.00">main</text>
</a>
</g>
</g>
<!-- Node8&#45;&gt;Node9 -->
<g id="edge9_Node000008_Node000009" class="edge">
<title>Node8&#45;&gt;Node9</title>
<g id="a_edge9_Node000008_Node000009"><a xlink:title=" ">
<path fill="none" stroke="#63b8ff" d="M241.1,-68.93C213.65,-68.93 184.76,-68.93 166.24,-68.93"/>
<polygon fill="#63b8ff" stroke="#63b8ff" points="241.13,-72.43 251.13,-68.93 241.13,-65.43 241.13,-72.43"/>
</a>
</g>
</g>
<!-- Node10&#45;&gt;Node11 -->
<g id="edge11_Node000010_Node000011" class="edge">
<title>Node10&#45;&gt;Node11</title>
<g id="a_edge11_Node000010_Node000011"><a xlink:title=" ">
<path fill="none" stroke="#63b8ff" d="M245.61,-29.44C234.25,-29.04 222.52,-28.62 211.29,-28.23"/>
<polygon fill="#63b8ff" stroke="#63b8ff" points="245.8,-32.95 255.92,-29.81 246.05,-25.96 245.8,-32.95"/>
</a>
</g>
</g>
<!-- Node11&#45;&gt;Node4 -->
<g id="edge12_Node000011_Node000004" class="edge">
<title>Node11&#45;&gt;Node4</title>
<g id="a_edge12_Node000011_Node000004"><a xlink:title=" ">
<path fill="none" stroke="#63b8ff" d="M81.81,-46.25C80.14,-47.41 78.53,-48.63 77,-49.93 47.48,-74.83 30.63,-119.63 24.35,-139.26"/>
<polygon fill="#63b8ff" stroke="#63b8ff" points="83.81,-49.12 90.56,-40.96 80.19,-43.13 83.81,-49.12"/>
</a>
</g>
</g>
</g>
</svg>

<g id="navigator" transform="translate(0 0)" fill="#404254">
  <rect fill="#f2f5e9" fill-opacity="0.5" stroke="#606060" stroke-width=".5" x="0" y="0" width="60" height="60"/>
  <use id="zoomplus" xlink:href="#zoomPlus" x="17" y="9" onmousedown="handleZoom(evt,'in')"/>
  <use id="zoomminus" xlink:href="#zoomMin" x="42" y="9" onmousedown="handleZoom(evt,'out')"/>
  <use id="reset" xlink:href="#resetDef" x="30" y="36" onmousedown="handleReset()"/>
   <use id="arrowup" xlink:href="#arrowUp" x="0" y="0" onmousedown="handlePan(0,-1)"/>
  <use id="arrowright" xlink:href="#arrowRight" x="0" y="0" onmousedown="handlePan(1,0)"/>
  <use id="arrowdown" xlink:href="#arrowDown" x="0" y="0" onmousedown="handlePan(0,1)"/>
  <use id="arrowleft" xlink:href="#arrowLeft" x="0" y="0" onmousedown="handlePan(-1,0)"/>
</g>
<svg viewBox="0 0 15 15" width="100%" height="30px" preserveAspectRatio="xMaxYMin meet">
 <g id="arrow_out" transform="scale(0.3 0.3)">
  <a xlink:href="sparse__io_8c_ace3311d6d76dd6a9b17488b66311b98a_icgraph_org.svg" target="_base">
   <rect id="button" ry="5" rx="5" y="6" x="6" height="38" width="38"
        fill="#f2f5e9" fill-opacity="0.5" stroke="#606060" stroke-width="1.0"/>
   <path id="arrow"
     d="M 11.500037,31.436501 C 11.940474,20.09759 22.043105,11.32322 32.158766,21.979434 L 37.068811,17.246167 C 37.068811,17.246167 37.088388,32 37.088388,32 L 22.160133,31.978069 C 22.160133,31.978069 26.997745,27.140456 26.997745,27.140456 C 18.528582,18.264221 13.291696,25.230495 11.500037,31.436501 z"
     style="fill:#404040;"/>
  </a>
 </g>
</svg>

<style type='text/css'>
<![CDATA[
[data-mouse-over-selected='false'] { opacity: 0.7; }
[data-mouse-over-selected='true']  { opacity: 1.0; }
]]>
</style>
<script type="application/ecmascript"><![CDATA[
document.addEventListener('DOMContentLoaded', (event) => {
  highlightEdges();
  highlightAdjacentNodes();
});
]]></script>
</svg>
