<?xml version="1.0" encoding="UTF-8" standalone="no"?>
<!DOCTYPE svg PUBLIC "-//W3C//DTD SVG 1.1//EN"
 "http://www.w3.org/Graphics/SVG/1.1/DTD/svg11.dtd">
<!-- Generated by graphviz version 2.43.0 (0)
 -->
<!-- Title: ie_block_sparse_n_block_cols Pages: 1 -->
<!--zoomable 212 -->
<svg id="main" version="1.1" xmlns="http://www.w3.org/2000/svg" xmlns:xlink="http://www.w3.org/1999/xlink" xml:space="preserve" onload="init(evt)">
<style type="text/css"><![CDATA[
.edge:hover path { stroke: red; }
.edge:hover polygon { stroke: red; fill: red; }
]]></style>
<script type="text/javascript"><![CDATA[
var edges = document.getElementsByTagName('g');
if (edges && edges.length) {
  for (var i=0;i<edges.length;i++) {
    if (edges[i].id.substr(0,4)=='edge') {
      edges[i].setAttribute('class','edge');
    }
  }
}
]]></script>
        <defs>
                <circle id="rim" cx="0" cy="0" r="7"/>
                <circle id="rim2" cx="0" cy="0" r="3.5"/>
                <g id="zoomPlus">
                        <use xlink:href="#rim" fill="#404040">
                                <set attributeName="fill" to="#808080" begin="zoomplus.mouseover" end="zoomplus.mouseout"/>
                        </use>
                        <path d="M-4,0h8M0,-4v8" fill="none" stroke="white" stroke-width="1.5" pointer-events="none"/>
                </g>
                <g id="zoomMin">
                        <use xlink:href="#rim" fill="#404040">
                                <set attributeName="fill" to="#808080" begin="zoomminus.mouseover" end="zoomminus.mouseout"/>
                        </use>
                        <path d="M-4,0h8" fill="none" stroke="white" stroke-width="1.5" pointer-events="none"/>
                </g>
                <g id="dirArrow">
                        <path fill="none" stroke="white" stroke-width="1.5" d="M0,-3.0v7 M-2.5,-0.5L0,-3.0L2.5,-0.5"/>
                </g>
               <g id="resetDef">
                       <use xlink:href="#rim2" fill="#404040">
                               <set attributeName="fill" to="#808080" begin="reset.mouseover" end="reset.mouseout"/>
                       </use>
               </g>
        </defs>

<script type="text/javascript">
var viewWidth = 602;
var viewHeight = 212;
var sectionId = 'dynsection-6';
</script>
<script xlink:href="svgpan.js"/>
<svg id="graph" class="graph">
<g id="viewport">
<title>ie_block_sparse_n_block_cols</title>
<!-- Node1 -->
<g id="node1" class="node">
<title>Node1</title>
<g id="a_node1"><a xlink:title="Compute the theoretical number of block columns for a given layout.">
<polygon fill="#bfbfbf" stroke="black" points="432,-64.95 432,-83.95 594,-83.95 594,-64.95 432,-64.95"/>
<text text-anchor="middle" x="513" y="-71.95" font-family="Helvetica,sans-Serif" font-size="10.00">ie_block_sparse_n_block_cols</text>
</a>
</g>
</g>
<!-- Node2 -->
<g id="node2" class="node">
<title>Node2</title>
<g id="a_node2"><a xlink:href="test__block__sparse_8c.html#a16c136a6163e1dc56cf3101007cde574" target="_top" xlink:title="Build block&#45;sparse descriptor for the 4x4 test matrix.">
<polygon fill="none" stroke="black" points="256.5,-129.95 256.5,-148.95 389.5,-148.95 389.5,-129.95 256.5,-129.95"/>
<text text-anchor="middle" x="323" y="-136.95" font-family="Helvetica,sans-Serif" font-size="10.00">build_block_sparse_4x4</text>
</a>
</g>
</g>
<!-- Node1&#45;&gt;Node2 -->
<g id="edge1" class="edge">
<title>Node1&#45;&gt;Node2</title>
<path fill="none" stroke="midnightblue" d="M474.53,-87.41C438.23,-99.96 384.05,-118.69 351.55,-129.93"/>
<polygon fill="midnightblue" stroke="midnightblue" points="475.95,-90.62 484.26,-84.04 473.67,-84 475.95,-90.62"/>
</g>
<!-- Node6 -->
<g id="node6" class="node">
<title>Node6</title>
<g id="a_node6"><a xlink:href="microbench__block__sparse_8c.html#a1151a97db14a549537170c84ed1fc692" target="_top" xlink:title="Build an ie_block_sparse_matrix_t from a dense matrix in memory.">
<polygon fill="none" stroke="black" points="258,-82.95 258,-101.95 388,-101.95 388,-82.95 258,-82.95"/>
<text text-anchor="middle" x="323" y="-89.95" font-family="Helvetica,sans-Serif" font-size="10.00">dense_to_block_sparse</text>
</a>
</g>
</g>
<!-- Node1&#45;&gt;Node6 -->
<g id="edge6" class="edge">
<title>Node1&#45;&gt;Node6</title>
<path fill="none" stroke="midnightblue" d="M421.96,-83.07C410.49,-84.17 398.94,-85.28 388,-86.32"/>
<polygon fill="midnightblue" stroke="midnightblue" points="422.38,-86.55 432,-82.11 421.71,-79.58 422.38,-86.55"/>
</g>
<!-- Node8 -->
<g id="node8" class="node">
<title>Node8</title>
<g id="a_node8"><a xlink:href="sparse__format_8h.html#a3f5428268012e4d5e4e9d8a58c01a008" target="_top" xlink:title="Load a block&#45;sparse matrix from a binary file.">
<polygon fill="none" stroke="black" points="262.5,-42.95 262.5,-61.95 383.5,-61.95 383.5,-42.95 262.5,-42.95"/>
<text text-anchor="middle" x="323" y="-49.95" font-family="Helvetica,sans-Serif" font-size="10.00">ie_block_sparse_load</text>
</a>
</g>
</g>
<!-- Node1&#45;&gt;Node8 -->
<g id="edge8" class="edge">
<title>Node1&#45;&gt;Node8</title>
<path fill="none" stroke="midnightblue" d="M421.7,-63.88C408.8,-62.37 395.81,-60.86 383.71,-59.44"/>
<polygon fill="midnightblue" stroke="midnightblue" points="421.66,-67.4 432,-65.09 422.47,-60.45 421.66,-67.4"/>
</g>
<!-- Node10 -->
<g id="node10" class="node">
<title>Node10</title>
<g id="a_node10"><a xlink:href="test__block__sparse_8c.html#a6d1001beae13623618c3150e66f592eb" target="_top" xlink:title="Test helper functions for block grid sizes and density.">
<polygon fill="none" stroke="black" points="250,-1.95 250,-20.95 396,-20.95 396,-1.95 250,-1.95"/>
<text text-anchor="middle" x="323" y="-8.95" font-family="Helvetica,sans-Serif" font-size="10.00">test_block_sparse_helpers</text>
</a>
</g>
</g>
<!-- Node1&#45;&gt;Node10 -->
<g id="edge11" class="edge">
<title>Node1&#45;&gt;Node10</title>
<path fill="none" stroke="midnightblue" d="M476.23,-61.36C453.36,-53.1 423.04,-42.36 396,-33.45 383.09,-29.2 368.79,-24.77 356.35,-21.01"/>
<polygon fill="midnightblue" stroke="midnightblue" points="475.26,-64.73 485.85,-64.85 477.64,-58.15 475.26,-64.73"/>
</g>
<!-- Node3 -->
<g id="node3" class="node">
<title>Node3</title>
<g id="a_node3"><a xlink:href="test__block__sparse_8c.html#afc3a88a7b32a1f93e76c3aaee2910866" target="_top" xlink:title="Test GEMV on the 4x4 example with a simple vector.">
<polygon fill="none" stroke="black" points="77,-173.45 77,-203.45 214,-203.45 214,-173.45 77,-173.45"/>
<text text-anchor="start" x="85" y="-191.45" font-family="Helvetica,sans-Serif" font-size="10.00">test_block_sparse_gemv</text>
<text text-anchor="middle" x="145.5" y="-180.45" font-family="Helvetica,sans-Serif" font-size="10.00">_basic</text>
</a>
</g>
</g>
<!-- Node2&#45;&gt;Node3 -->
<g id="edge2" class="edge">
<title>Node2&#45;&gt;Node3</title>
<path fill="none" stroke="midnightblue" d="M278.03,-151.73C254.47,-158.31 225.26,-166.46 200.36,-173.41"/>
<polygon fill="midnightblue" stroke="midnightblue" points="279.05,-155.08 287.75,-149.02 277.17,-148.33 279.05,-155.08"/>
</g>
<!-- Node5 -->
<g id="node5" class="node">
<title>Node5</title>
<g id="a_node5"><a xlink:href="test__block__sparse_8c.html#a8d26e8ff16174e9f415fdadb0fb0301f" target="_top" xlink:title="Test that init and release leave descriptor in a safe state.">
<polygon fill="none" stroke="black" points="83,-124.45 83,-154.45 208,-154.45 208,-124.45 83,-124.45"/>
<text text-anchor="start" x="91" y="-142.45" font-family="Helvetica,sans-Serif" font-size="10.00">test_block_sparse_init</text>
<text text-anchor="middle" x="145.5" y="-131.45" font-family="Helvetica,sans-Serif" font-size="10.00">_release</text>
</a>
</g>
</g>
<!-- Node2&#45;&gt;Node5 -->
<g id="edge4" class="edge">
<title>Node2&#45;&gt;Node5</title>
<path fill="none" stroke="midnightblue" d="M246.07,-139.45C233.38,-139.45 220.35,-139.45 208.08,-139.45"/>
<polygon fill="midnightblue" stroke="midnightblue" points="246.15,-142.95 256.15,-139.45 246.15,-135.95 246.15,-142.95"/>
</g>
<!-- Node4 -->
<g id="node4" class="node">
<title>Node4</title>
<g id="a_node4"><a xlink:href="test__block__sparse_8c.html#a840291bc02cba5474a4cb46a9b9566fe" target="_top" xlink:title="Entry point: run all block&#45;sparse tests.">
<polygon fill="none" stroke="black" points="0,-85.95 0,-104.95 41,-104.95 41,-85.95 0,-85.95"/>
<text text-anchor="middle" x="20.5" y="-92.95" font-family="Helvetica,sans-Serif" font-size="10.00">main</text>
</a>
</g>
</g>
<!-- Node3&#45;&gt;Node4 -->
<g id="edge3" class="edge">
<title>Node3&#45;&gt;Node4</title>
<path fill="none" stroke="midnightblue" d="M83.53,-168.65C81.27,-167.33 79.09,-165.93 77,-164.45 54.19,-148.25 35.76,-120.21 27.01,-105.35"/>
<polygon fill="midnightblue" stroke="midnightblue" points="82.04,-171.82 92.52,-173.35 85.28,-165.61 82.04,-171.82"/>
</g>
<!-- Node5&#45;&gt;Node4 -->
<g id="edge5" class="edge">
<title>Node5&#45;&gt;Node4</title>
<path fill="none" stroke="midnightblue" d="M93.1,-121.06C74.8,-114.52 55.29,-107.54 41.26,-102.52"/>
<polygon fill="midnightblue" stroke="midnightblue" points="91.92,-124.36 102.51,-124.43 94.28,-117.77 91.92,-124.36"/>
</g>
<!-- Node7 -->
<g id="node7" class="node">
<title>Node7</title>
<g id="a_node7"><a xlink:href="microbench__block__sparse_8c.html#a3c04138a5bfe5d72780bb7e82a18e627" target="_top" xlink:title=" ">
<polygon fill="none" stroke="black" points="125,-85.95 125,-104.95 166,-104.95 166,-85.95 125,-85.95"/>
<text text-anchor="middle" x="145.5" y="-92.95" font-family="Helvetica,sans-Serif" font-size="10.00">main</text>
</a>
</g>
</g>
<!-- Node6&#45;&gt;Node7 -->
<g id="edge7" class="edge">
<title>Node6&#45;&gt;Node7</title>
<path fill="none" stroke="midnightblue" d="M247.63,-93.72C217.79,-94.23 185.84,-94.78 166.01,-95.12"/>
<polygon fill="midnightblue" stroke="midnightblue" points="247.71,-97.22 257.65,-93.55 247.59,-90.22 247.71,-97.22"/>
</g>
<!-- Node9 -->
<g id="node9" class="node">
<title>Node9</title>
<g id="a_node9"><a xlink:href="test__block__sparse_8c.html#ae88fc354754c7811d37da2e7e1d084fd" target="_top" xlink:title="Test that loader fails with a missing file.">
<polygon fill="none" stroke="black" points="80,-36.45 80,-66.45 211,-66.45 211,-36.45 80,-36.45"/>
<text text-anchor="start" x="88" y="-54.45" font-family="Helvetica,sans-Serif" font-size="10.00">test_block_sparse_load</text>
<text text-anchor="middle" x="145.5" y="-43.45" font-family="Helvetica,sans-Serif" font-size="10.00">_missing</text>
</a>
</g>
</g>
<!-- Node8&#45;&gt;Node9 -->
<g id="edge9" class="edge">
<title>Node8&#45;&gt;Node9</title>
<path fill="none" stroke="midnightblue" d="M251.95,-52.05C238.52,-51.98 224.5,-51.9 211.24,-51.82"/>
<polygon fill="midnightblue" stroke="midnightblue" points="252.07,-55.55 262.09,-52.11 252.11,-48.55 252.07,-55.55"/>
</g>
<!-- Node9&#45;&gt;Node4 -->
<g id="edge10" class="edge">
<title>Node9&#45;&gt;Node4</title>
<path fill="none" stroke="midnightblue" d="M93.1,-69.84C74.8,-76.38 55.29,-83.36 41.26,-88.38"/>
<polygon fill="midnightblue" stroke="midnightblue" points="94.28,-73.13 102.51,-66.47 91.92,-66.54 94.28,-73.13"/>
</g>
<!-- Node10&#45;&gt;Node4 -->
<g id="edge12" class="edge">
<title>Node10&#45;&gt;Node4</title>
<path fill="none" stroke="midnightblue" d="M245.07,-1.21C194.58,1.96 128.58,-0.88 77,-27.45 51.8,-40.43 33.92,-70.45 26.03,-85.89"/>
<polygon fill="midnightblue" stroke="midnightblue" points="245.06,-4.72 255.28,-1.94 245.56,2.26 245.06,-4.72"/>
</g>
</g>
</svg>
        <g id="navigator" transform="translate(0 0)" fill="#404254">
                <rect fill="#f2f5e9" fill-opacity="0.5" stroke="#606060" stroke-width=".5" x="0" y="0" width="60" height="60"/>
                <use id="zoomplus" xlink:href="#zoomPlus" x="17" y="9" onmousedown="handleZoom(evt,'in')"/>
                <use id="zoomminus" xlink:href="#zoomMin" x="42" y="9" onmousedown="handleZoom(evt,'out')"/>
                <use id="reset" xlink:href="#resetDef" x="30" y="36" onmousedown="handleReset()"/>
                <g id="arrowUp" xlink:href="#dirArrow" transform="translate(30 24)" onmousedown="handlePan(0,-1)">
                  <use xlink:href="#rim" fill="#404040">
                        <set attributeName="fill" to="#808080" begin="arrowUp.mouseover" end="arrowUp.mouseout"/>
                  </use>
                  <path fill="none" stroke="white" stroke-width="1.5" d="M0,-3.0v7 M-2.5,-0.5L0,-3.0L2.5,-0.5"/>
                </g>
                <g id="arrowRight" xlink:href="#dirArrow" transform="rotate(90) translate(36 -43)" onmousedown="handlePan(1,0)">
                  <use xlink:href="#rim" fill="#404040">
                        <set attributeName="fill" to="#808080" begin="arrowRight.mouseover" end="arrowRight.mouseout"/>
                  </use>
                  <path fill="none" stroke="white" stroke-width="1.5" d="M0,-3.0v7 M-2.5,-0.5L0,-3.0L2.5,-0.5"/>
                </g>
                <g id="arrowDown" xlink:href="#dirArrow" transform="rotate(180) translate(-30 -48)" onmousedown="handlePan(0,1)">
                  <use xlink:href="#rim" fill="#404040">
                        <set attributeName="fill" to="#808080" begin="arrowDown.mouseover" end="arrowDown.mouseout"/>
                  </use>
                  <path fill="none" stroke="white" stroke-width="1.5" d="M0,-3.0v7 M-2.5,-0.5L0,-3.0L2.5,-0.5"/>
                </g>
                <g id="arrowLeft" xlink:href="#dirArrow" transform="rotate(270) translate(-36 17)" onmousedown="handlePan(-1,0)">
                  <use xlink:href="#rim" fill="#404040">
                        <set attributeName="fill" to="#808080" begin="arrowLeft.mouseover" end="arrowLeft.mouseout"/>
                  </use>
                  <path fill="none" stroke="white" stroke-width="1.5" d="M0,-3.0v7 M-2.5,-0.5L0,-3.0L2.5,-0.5"/>
                </g>
        </g>
        <svg viewBox="0 0 15 15" width="100%" height="30px" preserveAspectRatio="xMaxYMin meet">
         <g id="arrow_out" transform="scale(0.3 0.3)">
          <a xlink:href="sparse__format_8h_afcc239def447f7ccdf07b59ce0e47467_icgraph_org.svg" target="_base">
           <rect id="button" ry="5" rx="5" y="6" x="6" height="38" width="38"
                fill="#f2f5e9" fill-opacity="0.5" stroke="#606060" stroke-width="1.0"/>
           <path id="arrow"
             d="M 11.500037,31.436501 C 11.940474,20.09759 22.043105,11.32322 32.158766,21.979434 L 37.068811,17.246167 C 37.068811,17.246167 37.088388,32 37.088388,32 L 22.160133,31.978069 C 22.160133,31.978069 26.997745,27.140456 26.997745,27.140456 C 18.528582,18.264221 13.291696,25.230495 11.500037,31.436501 z"
             style="fill:#404040;"/>
          </a>
         </g>
        </svg>
</svg>
