<?xml version="1.0" encoding="UTF-8" standalone="no"?>
<!DOCTYPE svg PUBLIC "-//W3C//DTD SVG 1.1//EN"
 "http://www.w3.org/Graphics/SVG/1.1/DTD/svg11.dtd">
<!-- Generated by graphviz version 12.2.1 (20241206.2353)
 -->
<!-- Title: ie_block_sparse_n_block_cols Pages: 1 -->
<svg width="600pt" height="262pt"
 viewBox="0.00 0.00 600.00 261.66" xmlns="http://www.w3.org/2000/svg" xmlns:xlink="http://www.w3.org/1999/xlink">
<g id="graph0" class="graph" transform="scale(1 1) rotate(0) translate(4 257.66)">
<title>ie_block_sparse_n_block_cols</title>
<!-- Node1 -->
<g id="Node000001" class="node">
<title>Node1</title>
<g id="a_Node000001"><a xlink:title="Compute the theoretical number of block columns for a given layout.">
<polygon fill="#999999" stroke="#666666" points="592,-111.28 430.5,-111.28 430.5,-90.53 592,-90.53 592,-111.28"/>
<text text-anchor="middle" x="511.25" y="-97.78" font-family="Helvetica,sans-Serif" font-size="10.00">ie_block_sparse_n_block_cols</text>
</a>
</g>
</g>
<!-- Node2 -->
<g id="Node000002" class="node">
<title>Node2</title>
<g id="a_Node000002"><a xlink:href="test__block__sparse_8c.html#a16c136a6163e1dc56cf3101007cde574" target="_top" xlink:title="Build block&#45;sparse descriptor for the 4x4 test matrix.">
<polygon fill="white" stroke="#666666" points="388.12,-195.28 255.88,-195.28 255.88,-174.53 388.12,-174.53 388.12,-195.28"/>
<text text-anchor="middle" x="322" y="-181.78" font-family="Helvetica,sans-Serif" font-size="10.00">build_block_sparse_4x4</text>
</a>
</g>
</g>
<!-- Node1&#45;&gt;Node2 -->
<g id="edge1_Node000001_Node000002" class="edge">
<title>Node1&#45;&gt;Node2</title>
<g id="a_edge1_Node000001_Node000002"><a xlink:title=" ">
<path fill="none" stroke="#63b8ff" d="M480.63,-116.94C457.51,-129.16 424.4,-146.03 394.5,-158.91 381.88,-164.34 367.72,-169.65 355.34,-174.04"/>
<polygon fill="#63b8ff" stroke="#63b8ff" points="481.99,-120.18 489.17,-112.39 478.7,-114 481.99,-120.18"/>
</a>
</g>
</g>
<!-- Node6 -->
<g id="Node000006" class="node">
<title>Node6</title>
<g id="a_Node000006"><a xlink:href="microbench__block__sparse_8c.html#a1151a97db14a549537170c84ed1fc692" target="_top" xlink:title="Build an ie_block_sparse_matrix_t from a dense matrix in memory.">
<polygon fill="white" stroke="#666666" points="386.62,-150.28 257.38,-150.28 257.38,-129.53 386.62,-129.53 386.62,-150.28"/>
<text text-anchor="middle" x="322" y="-136.78" font-family="Helvetica,sans-Serif" font-size="10.00">dense_to_block_sparse</text>
</a>
</g>
</g>
<!-- Node1&#45;&gt;Node6 -->
<g id="edge6_Node000001_Node000006" class="edge">
<title>Node1&#45;&gt;Node6</title>
<g id="a_edge6_Node000001_Node000006"><a xlink:title=" ">
<path fill="none" stroke="#63b8ff" d="M446.89,-114.1C423.57,-118.96 397.44,-124.4 375.2,-129.03"/>
<polygon fill="#63b8ff" stroke="#63b8ff" points="447.53,-117.54 456.61,-112.08 446.11,-110.69 447.53,-117.54"/>
</a>
</g>
</g>
<!-- Node8 -->
<g id="Node000008" class="node">
<title>Node8</title>
<g id="a_Node000008"><a xlink:href="convert__to__block__sparse_8c.html#a1151a97db14a549537170c84ed1fc692" target="_top" xlink:title="Build an ie_block_sparse_matrix_t from a dense matrix in memory.">
<polygon fill="white" stroke="#666666" points="386.62,-111.28 257.38,-111.28 257.38,-90.53 386.62,-90.53 386.62,-111.28"/>
<text text-anchor="middle" x="322" y="-97.78" font-family="Helvetica,sans-Serif" font-size="10.00">dense_to_block_sparse</text>
</a>
</g>
</g>
<!-- Node1&#45;&gt;Node8 -->
<g id="edge8_Node000001_Node000008" class="edge">
<title>Node1&#45;&gt;Node8</title>
<g id="a_edge8_Node000001_Node000008"><a xlink:title=" ">
<path fill="none" stroke="#63b8ff" d="M418.83,-100.91C408.05,-100.91 397.23,-100.91 386.95,-100.91"/>
<polygon fill="#63b8ff" stroke="#63b8ff" points="418.51,-104.41 428.51,-100.91 418.51,-97.41 418.51,-104.41"/>
</a>
</g>
</g>
<!-- Node10 -->
<g id="Node000010" class="node">
<title>Node10</title>
<g id="a_Node000010"><a xlink:href="sparse__io_8c.html#a3f5428268012e4d5e4e9d8a58c01a008" target="_top" xlink:title="Load a block&#45;sparse matrix from a binary file.">
<polygon fill="white" stroke="#666666" points="382.12,-69.28 261.88,-69.28 261.88,-48.53 382.12,-48.53 382.12,-69.28"/>
<text text-anchor="middle" x="322" y="-55.78" font-family="Helvetica,sans-Serif" font-size="10.00">ie_block_sparse_load</text>
</a>
</g>
</g>
<!-- Node1&#45;&gt;Node10 -->
<g id="edge10_Node000001_Node000010" class="edge">
<title>Node1&#45;&gt;Node10</title>
<g id="a_edge10_Node000001_Node000010"><a xlink:title=" ">
<path fill="none" stroke="#63b8ff" d="M450.94,-87.6C425.29,-81.85 395.67,-75.21 371.38,-69.76"/>
<polygon fill="#63b8ff" stroke="#63b8ff" points="450.03,-90.99 460.55,-89.76 451.56,-84.16 450.03,-90.99"/>
</a>
</g>
</g>
<!-- Node12 -->
<g id="Node000012" class="node">
<title>Node12</title>
<g id="a_Node000012"><a xlink:href="test__block__sparse_8c.html#a6d1001beae13623618c3150e66f592eb" target="_top" xlink:title="Test helper functions for block grid sizes and density.">
<polygon fill="white" stroke="#666666" points="394.5,-24.28 249.5,-24.28 249.5,-3.53 394.5,-3.53 394.5,-24.28"/>
<text text-anchor="middle" x="322" y="-10.78" font-family="Helvetica,sans-Serif" font-size="10.00">test_block_sparse_helpers</text>
</a>
</g>
</g>
<!-- Node1&#45;&gt;Node12 -->
<g id="edge13_Node000001_Node000012" class="edge">
<title>Node1&#45;&gt;Node12</title>
<g id="a_edge13_Node000001_Node000012"><a xlink:title=" ">
<path fill="none" stroke="#63b8ff" d="M481.97,-84.61C458.86,-71.64 425.12,-53.47 394.5,-39.91 382.06,-34.4 368.06,-29.11 355.76,-24.76"/>
<polygon fill="#63b8ff" stroke="#63b8ff" points="480.05,-87.55 490.48,-89.43 483.5,-81.46 480.05,-87.55"/>
</a>
</g>
</g>
<!-- Node3 -->
<g id="Node000003" class="node">
<title>Node3</title>
<g id="a_Node000003"><a xlink:href="test__block__sparse_8c.html#afc3a88a7b32a1f93e76c3aaee2910866" target="_top" xlink:title="Test GEMV on the 4x4 example with a simple vector.">
<polygon fill="white" stroke="#666666" points="213.5,-253.66 76.75,-253.66 76.75,-220.16 213.5,-220.16 213.5,-253.66"/>
<text text-anchor="start" x="84.75" y="-240.16" font-family="Helvetica,sans-Serif" font-size="10.00">test_block_sparse_gemv</text>
<text text-anchor="middle" x="145.12" y="-227.41" font-family="Helvetica,sans-Serif" font-size="10.00">_basic</text>
</a>
</g>
</g>
<!-- Node2&#45;&gt;Node3 -->
<g id="edge2_Node000002_Node000003" class="edge">
<title>Node2&#45;&gt;Node3</title>
<g id="a_edge2_Node000002_Node000003"><a xlink:title=" ">
<path fill="none" stroke="#63b8ff" d="M273.93,-198.9C252.4,-205.3 226.69,-212.95 204,-219.7"/>
<polygon fill="#63b8ff" stroke="#63b8ff" points="274.73,-202.32 283.32,-196.11 272.73,-195.61 274.73,-202.32"/>
</a>
</g>
</g>
<!-- Node5 -->
<g id="Node000005" class="node">
<title>Node5</title>
<g id="a_Node000005"><a xlink:href="test__block__sparse_8c.html#a8d26e8ff16174e9f415fdadb0fb0301f" target="_top" xlink:title="Test that init and release leave descriptor in a safe state.">
<polygon fill="white" stroke="#666666" points="207.5,-201.66 82.75,-201.66 82.75,-168.16 207.5,-168.16 207.5,-201.66"/>
<text text-anchor="start" x="90.75" y="-188.16" font-family="Helvetica,sans-Serif" font-size="10.00">test_block_sparse_init</text>
<text text-anchor="middle" x="145.12" y="-175.41" font-family="Helvetica,sans-Serif" font-size="10.00">_release</text>
</a>
</g>
</g>
<!-- Node2&#45;&gt;Node5 -->
<g id="edge4_Node000002_Node000005" class="edge">
<title>Node2&#45;&gt;Node5</title>
<g id="a_edge4_Node000002_Node000005"><a xlink:title=" ">
<path fill="none" stroke="#63b8ff" d="M243.9,-184.91C231.81,-184.91 219.45,-184.91 207.77,-184.91"/>
<polygon fill="#63b8ff" stroke="#63b8ff" points="243.87,-188.41 253.87,-184.91 243.87,-181.41 243.87,-188.41"/>
</a>
</g>
</g>
<!-- Node4 -->
<g id="Node000004" class="node">
<title>Node4</title>
<g id="a_Node000004"><a xlink:href="test__block__sparse_8c.html#a840291bc02cba5474a4cb46a9b9566fe" target="_top" xlink:title="Entry point: run all block&#45;sparse tests.">
<polygon fill="white" stroke="#666666" points="40.75,-130.28 0,-130.28 0,-109.53 40.75,-109.53 40.75,-130.28"/>
<text text-anchor="middle" x="20.38" y="-116.78" font-family="Helvetica,sans-Serif" font-size="10.00">main</text>
</a>
</g>
</g>
<!-- Node3&#45;&gt;Node4 -->
<g id="edge3_Node000003_Node000004" class="edge">
<title>Node3&#45;&gt;Node4</title>
<g id="a_edge3_Node000003_Node000004"><a xlink:title=" ">
<path fill="none" stroke="#63b8ff" d="M80.18,-213.6C79.01,-212.73 77.86,-211.83 76.75,-210.91 49.93,-188.49 32.53,-149.57 25.26,-130.74"/>
<polygon fill="#63b8ff" stroke="#63b8ff" points="78.13,-216.44 88.45,-218.86 81.89,-210.54 78.13,-216.44"/>
</a>
</g>
</g>
<!-- Node5&#45;&gt;Node4 -->
<g id="edge5_Node000005_Node000004" class="edge">
<title>Node5&#45;&gt;Node4</title>
<g id="a_edge5_Node000005_Node000004"><a xlink:title=" ">
<path fill="none" stroke="#63b8ff" d="M84.96,-163.05C82.16,-161.71 79.41,-160.33 76.75,-158.91 61.4,-150.7 45.29,-138.95 34.43,-130.49"/>
<polygon fill="#63b8ff" stroke="#63b8ff" points="83.34,-166.16 93.89,-167.08 86.22,-159.77 83.34,-166.16"/>
</a>
</g>
</g>
<!-- Node7 -->
<g id="Node000007" class="node">
<title>Node7</title>
<g id="a_Node000007"><a xlink:href="microbench__block__sparse_8c.html#a3c04138a5bfe5d72780bb7e82a18e627" target="_top" xlink:title=" ">
<polygon fill="white" stroke="#666666" points="165.5,-150.28 124.75,-150.28 124.75,-129.53 165.5,-129.53 165.5,-150.28"/>
<text text-anchor="middle" x="145.12" y="-136.78" font-family="Helvetica,sans-Serif" font-size="10.00">main</text>
</a>
</g>
</g>
<!-- Node6&#45;&gt;Node7 -->
<g id="edge7_Node000006_Node000007" class="edge">
<title>Node6&#45;&gt;Node7</title>
<g id="a_edge7_Node000006_Node000007"><a xlink:title=" ">
<path fill="none" stroke="#63b8ff" d="M245.41,-139.91C216.31,-139.91 185.42,-139.91 165.96,-139.91"/>
<polygon fill="#63b8ff" stroke="#63b8ff" points="245.36,-143.41 255.36,-139.91 245.36,-136.41 245.36,-143.41"/>
</a>
</g>
</g>
<!-- Node9 -->
<g id="Node000009" class="node">
<title>Node9</title>
<g id="a_Node000009"><a xlink:href="convert__to__block__sparse_8c.html#a3c04138a5bfe5d72780bb7e82a18e627" target="_top" xlink:title=" ">
<polygon fill="white" stroke="#666666" points="165.5,-111.28 124.75,-111.28 124.75,-90.53 165.5,-90.53 165.5,-111.28"/>
<text text-anchor="middle" x="145.12" y="-97.78" font-family="Helvetica,sans-Serif" font-size="10.00">main</text>
</a>
</g>
</g>
<!-- Node8&#45;&gt;Node9 -->
<g id="edge9_Node000008_Node000009" class="edge">
<title>Node8&#45;&gt;Node9</title>
<g id="a_edge9_Node000008_Node000009"><a xlink:title=" ">
<path fill="none" stroke="#63b8ff" d="M245.41,-100.91C216.31,-100.91 185.42,-100.91 165.96,-100.91"/>
<polygon fill="#63b8ff" stroke="#63b8ff" points="245.36,-104.41 255.36,-100.91 245.36,-97.41 245.36,-104.41"/>
</a>
</g>
</g>
<!-- Node11 -->
<g id="Node000011" class="node">
<title>Node11</title>
<g id="a_Node000011"><a xlink:href="test__block__sparse_8c.html#ae88fc354754c7811d37da2e7e1d084fd" target="_top" xlink:title="Test that loader fails with a missing file.">
<polygon fill="white" stroke="#666666" points="210.12,-72.66 80.12,-72.66 80.12,-39.16 210.12,-39.16 210.12,-72.66"/>
<text text-anchor="start" x="88.12" y="-59.16" font-family="Helvetica,sans-Serif" font-size="10.00">test_block_sparse_load</text>
<text text-anchor="middle" x="145.12" y="-46.41" font-family="Helvetica,sans-Serif" font-size="10.00">_missing</text>
</a>
</g>
</g>
<!-- Node10&#45;&gt;Node11 -->
<g id="edge11_Node000010_Node000011" class="edge">
<title>Node10&#45;&gt;Node11</title>
<g id="a_edge11_Node000010_Node000011"><a xlink:title=" ">
<path fill="none" stroke="#63b8ff" d="M250.35,-57.69C237.13,-57.47 223.38,-57.23 210.37,-57.01"/>
<polygon fill="#63b8ff" stroke="#63b8ff" points="250.22,-61.19 260.28,-57.86 250.34,-54.19 250.22,-61.19"/>
</a>
</g>
</g>
<!-- Node11&#45;&gt;Node4 -->
<g id="edge12_Node000011_Node000004" class="edge">
<title>Node11&#45;&gt;Node4</title>
<g id="a_edge12_Node000011_Node000004"><a xlink:title=" ">
<path fill="none" stroke="#63b8ff" d="M85.44,-77.59C82.47,-78.99 79.56,-80.43 76.75,-81.91 61.69,-89.84 45.8,-101.08 34.92,-109.28"/>
<polygon fill="#63b8ff" stroke="#63b8ff" points="86.58,-80.91 94.28,-73.65 83.73,-74.52 86.58,-80.91"/>
</a>
</g>
</g>
<!-- Node12&#45;&gt;Node4 -->
<g id="edge14_Node000012_Node000004" class="edge">
<title>Node12&#45;&gt;Node4</title>
<g id="a_edge14_Node000012_Node000004"><a xlink:title=" ">
<path fill="none" stroke="#63b8ff" d="M247.81,-1.91C196.35,2.72 127.85,0.88 76.75,-29.91 46.58,-48.09 30.52,-89.62 24.37,-109.25"/>
<polygon fill="#63b8ff" stroke="#63b8ff" points="247.37,-5.38 257.67,-2.91 248.07,1.58 247.37,-5.38"/>
</a>
</g>
</g>
</g>
</svg>
