<?xml version="1.0" encoding="UTF-8" standalone="no"?>
<!DOCTYPE svg PUBLIC "-//W3C//DTD SVG 1.1//EN"
 "http://www.w3.org/Graphics/SVG/1.1/DTD/svg11.dtd">
<!-- Generated by graphviz version 2.43.0 (0)
 -->
<!-- Title: ie_gemv_block_sparse_f32 Pages: 1 -->
<svg width="318pt" height="76pt"
 viewBox="0.00 0.00 318.00 75.50" xmlns="http://www.w3.org/2000/svg" xmlns:xlink="http://www.w3.org/1999/xlink">
<g id="graph0" class="graph" transform="scale(1 1) rotate(0) translate(4 71.5)">
<title>ie_gemv_block_sparse_f32</title>
<!-- Node1 -->
<g id="Node000001" class="node">
<title>Node1</title>
<g id="a_Node000001"><a xlink:title="Perform a single&#45;precision block&#45;sparse matrix&#45;vector product.">
<polygon fill="#999999" stroke="#666666" points="149,-45.5 0,-45.5 0,-26.5 149,-26.5 149,-45.5"/>
<text text-anchor="middle" x="74.5" y="-33.5" font-family="Helvetica,sans-Serif" font-size="10.00">ie_gemv_block_sparse_f32</text>
</a>
</g>
</g>
<!-- Node2 -->
<g id="Node000002" class="node">
<title>Node2</title>
<g id="a_Node000002"><a xlink:href="gemm__block__sparse_8c.html#a05f40c15c1dabe19a303a4d5a897b212" target="_top" xlink:title="Compute the pointer to the first element of a given block.">
<polygon fill="white" stroke="#666666" points="297,-67.5 198,-67.5 198,-48.5 297,-48.5 297,-67.5"/>
<text text-anchor="middle" x="247.5" y="-55.5" font-family="Helvetica,sans-Serif" font-size="10.00">block_values_ptr</text>
</a>
</g>
</g>
<!-- Node1&#45;&gt;Node2 -->
<g id="edge1_Node000001_Node000002" class="edge">
<title>Node1&#45;&gt;Node2</title>
<g id="a_edge1_Node000001_Node000002"><a xlink:title=" ">
<path fill="none" stroke="#63b8ff" d="M149.01,-45.46C161.95,-47.12 175.27,-48.84 187.74,-50.44"/>
<polygon fill="#63b8ff" stroke="#63b8ff" points="187.63,-53.95 197.99,-51.76 188.52,-47.01 187.63,-53.95"/>
</a>
</g>
</g>
<!-- Node3 -->
<g id="Node000003" class="node">
<title>Node3</title>
<g id="a_Node000003"><a xlink:href="ie__device__cuda_8cu.html#a5e3d9fee84981707669f5c2398f0c4ab" target="_top" xlink:title="Row&#45;wise GEMV kernel: each thread computes one output row.">
<polygon fill="white" stroke="#666666" points="310,-30 185,-30 185,0 310,0 310,-30"/>
<text text-anchor="start" x="193" y="-18" font-family="Helvetica,sans-Serif" font-size="10.00">ie_gemv_rowwise_f32</text>
<text text-anchor="middle" x="247.5" y="-7" font-family="Helvetica,sans-Serif" font-size="10.00">_kernel</text>
</a>
</g>
</g>
<!-- Node1&#45;&gt;Node3 -->
<g id="edge2_Node000001_Node000003" class="edge">
<title>Node1&#45;&gt;Node3</title>
<g id="a_edge2_Node000001_Node000003"><a xlink:title=" ">
<path fill="none" stroke="#63b8ff" d="M149.01,-26.97C157.6,-25.92 166.35,-24.84 174.91,-23.79"/>
<polygon fill="#63b8ff" stroke="#63b8ff" points="175.36,-27.26 184.86,-22.57 174.5,-20.32 175.36,-27.26"/>
</a>
</g>
</g>
</g>
</svg>
