<?xml version="1.0" encoding="UTF-8" standalone="no"?>
<!DOCTYPE svg PUBLIC "-//W3C//DTD SVG 1.1//EN"
 "http://www.w3.org/Graphics/SVG/1.1/DTD/svg11.dtd">
<!-- Generated by graphviz version 12.2.1 (20241206.2353)
 -->
<!-- Title: ie_block_sparse_density Pages: 1 -->
<svg width="401pt" height="68pt"
 viewBox="0.00 0.00 401.00 67.75" xmlns="http://www.w3.org/2000/svg" xmlns:xlink="http://www.w3.org/1999/xlink">
<g id="graph0" class="graph" transform="scale(1 1) rotate(0) translate(4 63.75)">
<title>ie_block_sparse_density</title>
<!-- Node1 -->
<g id="Node000001" class="node">
<title>Node1</title>
<g id="a_Node000001"><a xlink:title="Compute the logical density (non&#45;zero blocks / total blocks).">
<polygon fill="#999999" stroke="#666666" points="393,-39.75 257.75,-39.75 257.75,-19 393,-19 393,-39.75"/>
<text text-anchor="middle" x="325.38" y="-26.25" font-family="Helvetica,sans-Serif" font-size="10.00">ie_block_sparse_density</text>
</a>
</g>
</g>
<!-- Node2 -->
<g id="Node000002" class="node">
<title>Node2</title>
<g id="a_Node000002"><a xlink:href="microbench__block__sparse_8c.html#a3c04138a5bfe5d72780bb7e82a18e627" target="_top" xlink:title=" ">
<polygon fill="white" stroke="#666666" points="169.62,-59.75 128.88,-59.75 128.88,-39 169.62,-39 169.62,-59.75"/>
<text text-anchor="middle" x="149.25" y="-46.25" font-family="Helvetica,sans-Serif" font-size="10.00">main</text>
</a>
</g>
</g>
<!-- Node1&#45;&gt;Node2 -->
<g id="edge1_Node000001_Node000002" class="edge">
<title>Node1&#45;&gt;Node2</title>
<g id="a_edge1_Node000001_Node000002"><a xlink:title=" ">
<path fill="none" stroke="#63b8ff" d="M246.44,-38.33C218.28,-41.56 188.84,-44.94 170.07,-47.1"/>
<polygon fill="#63b8ff" stroke="#63b8ff" points="246.51,-41.84 256.05,-37.22 245.71,-34.89 246.51,-41.84"/>
</a>
</g>
</g>
<!-- Node3 -->
<g id="Node000003" class="node">
<title>Node3</title>
<g id="a_Node000003"><a xlink:href="test__block__sparse_8c.html#a6d1001beae13623618c3150e66f592eb" target="_top" xlink:title="Test helper functions for block grid sizes and density.">
<polygon fill="white" stroke="#666666" points="221.75,-20.75 76.75,-20.75 76.75,0 221.75,0 221.75,-20.75"/>
<text text-anchor="middle" x="149.25" y="-7.25" font-family="Helvetica,sans-Serif" font-size="10.00">test_block_sparse_helpers</text>
</a>
</g>
</g>
<!-- Node1&#45;&gt;Node3 -->
<g id="edge2_Node000001_Node000003" class="edge">
<title>Node1&#45;&gt;Node3</title>
<g id="a_edge2_Node000001_Node000003"><a xlink:title=" ">
<path fill="none" stroke="#63b8ff" d="M246.27,-20.85C238.23,-19.97 230.08,-19.09 222.1,-18.22"/>
<polygon fill="#63b8ff" stroke="#63b8ff" points="245.73,-24.31 256.05,-21.92 246.49,-17.36 245.73,-24.31"/>
</a>
</g>
</g>
<!-- Node4 -->
<g id="Node000004" class="node">
<title>Node4</title>
<g id="a_Node000004"><a xlink:href="test__block__sparse_8c.html#a840291bc02cba5474a4cb46a9b9566fe" target="_top" xlink:title="Entry point: run all block&#45;sparse tests.">
<polygon fill="white" stroke="#666666" points="40.75,-20.75 0,-20.75 0,0 40.75,0 40.75,-20.75"/>
<text text-anchor="middle" x="20.38" y="-7.25" font-family="Helvetica,sans-Serif" font-size="10.00">main</text>
</a>
</g>
</g>
<!-- Node3&#45;&gt;Node4 -->
<g id="edge3_Node000003_Node000004" class="edge">
<title>Node3&#45;&gt;Node4</title>
<g id="a_edge3_Node000003_Node000004"><a xlink:title=" ">
<path fill="none" stroke="#63b8ff" d="M64.92,-10.38C56.13,-10.38 47.92,-10.38 41.04,-10.38"/>
<polygon fill="#63b8ff" stroke="#63b8ff" points="64.77,-13.88 74.77,-10.38 64.77,-6.88 64.77,-13.88"/>
</a>
</g>
</g>
</g>
</svg>
