<?xml version="1.0" encoding="UTF-8" standalone="no"?>
<!DOCTYPE svg PUBLIC "-//W3C//DTD SVG 1.1//EN"
 "http://www.w3.org/Graphics/SVG/1.1/DTD/svg11.dtd">
<!-- Generated by graphviz version 2.43.0 (0)
 -->
<!-- Title: ie_block_sparse_load Pages: 1 -->
<svg width="492pt" height="177pt"
 viewBox="0.00 0.00 492.00 177.00" xmlns="http://www.w3.org/2000/svg" xmlns:xlink="http://www.w3.org/1999/xlink">

<svg id="main" version="1.1" xmlns="http://www.w3.org/2000/svg" xmlns:xlink="http://www.w3.org/1999/xlink" xml:space="preserve" onload="init(evt)">
<style type="text/css"><![CDATA[
.node, .edge {opacity: 0.7;}
.node.selected, .edge.selected {opacity: 1;}
.edge:hover path { stroke: red; }
.edge:hover polygon { stroke: red; fill: red; }
]]></style>
<script type="application/ecmascript" xlink:href="svg.min.js"/>
<svg id="graph" class="graph">
<g id="graph0" class="graph" transform="scale(1 1) rotate(0) translate(4 173)">
<title>ie_block_sparse_load</title>
<!-- Node1 -->
<g id="Node000001" class="node">
<title>Node1</title>
<g id="a_Node000001"><a xlink:title="Load a block&#45;sparse matrix from a binary file.">
<polygon fill="#999999" stroke="#666666" points="121,-93 0,-93 0,-74 121,-74 121,-93"/>
<text text-anchor="middle" x="60.5" y="-81" font-family="Helvetica,sans-Serif" font-size="10.00">ie_block_sparse_load</text>
</a>
</g>
</g>
<!-- Node2 -->
<g id="Node000002" class="node">
<title>Node2</title>
<g id="a_Node000002"><a xlink:href="sparse__io_8c.html#ace3311d6d76dd6a9b17488b66311b98a" target="_top" xlink:title="Initialize a block&#45;sparse matrix descriptor to a safe empty state.">
<polygon fill="white" stroke="#666666" points="298,-169 182,-169 182,-150 298,-150 298,-169"/>
<text text-anchor="middle" x="240" y="-157" font-family="Helvetica,sans-Serif" font-size="10.00">ie_block_sparse_init</text>
</a>
</g>
</g>
<!-- Node1&#45;&gt;Node2 -->
<g id="edge1_Node000001_Node000002" class="edge">
<title>Node1&#45;&gt;Node2</title>
<g id="a_edge1_Node000001_Node000002"><a xlink:title=" ">
<path fill="none" stroke="#63b8ff" d="M76.55,-93.01C94.96,-104.34 127.34,-123.25 157,-135.5 167.6,-139.88 179.29,-143.8 190.43,-147.15"/>
<polygon fill="#63b8ff" stroke="#63b8ff" points="189.46,-150.51 200.03,-149.93 191.4,-143.79 189.46,-150.51"/>
</a>
</g>
</g>
<!-- Node3 -->
<g id="Node000003" class="node">
<title>Node3</title>
<g id="a_Node000003"><a xlink:href="ie__device__cuda_8cu.html#a5e3d9fee84981707669f5c2398f0c4ab" target="_top" xlink:title="Row&#45;wise GEMV kernel: each thread computes one output row.">
<polygon fill="white" stroke="#666666" points="484,-136.5 359,-136.5 359,-106.5 484,-106.5 484,-136.5"/>
<text text-anchor="start" x="367" y="-124.5" font-family="Helvetica,sans-Serif" font-size="10.00">ie_gemv_rowwise_f32</text>
<text text-anchor="middle" x="421.5" y="-113.5" font-family="Helvetica,sans-Serif" font-size="10.00">_kernel</text>
</a>
</g>
</g>
<!-- Node1&#45;&gt;Node3 -->
<g id="edge5_Node000001_Node000003" class="edge">
<title>Node1&#45;&gt;Node3</title>
<g id="a_edge5_Node000001_Node000003"><a xlink:title=" ">
<path fill="none" stroke="#63b8ff" d="M103.62,-93.05C120.18,-96.5 139.41,-100.13 157,-102.5 221.59,-111.22 295.65,-116.11 348.78,-118.74"/>
<polygon fill="#63b8ff" stroke="#63b8ff" points="348.63,-122.24 358.78,-119.22 348.96,-115.25 348.63,-122.24"/>
</a>
</g>
</g>
<!-- Node4 -->
<g id="Node000004" class="node">
<title>Node4</title>
<g id="a_Node000004"><a xlink:href="sparse__io_8c.html#afcc239def447f7ccdf07b59ce0e47467" target="_top" xlink:title="Compute the theoretical number of block columns for a given layout.">
<polygon fill="white" stroke="#666666" points="321,-93 159,-93 159,-74 321,-74 321,-93"/>
<text text-anchor="middle" x="240" y="-81" font-family="Helvetica,sans-Serif" font-size="10.00">ie_block_sparse_n_block_cols</text>
</a>
</g>
</g>
<!-- Node1&#45;&gt;Node4 -->
<g id="edge3_Node000001_Node000004" class="edge">
<title>Node1&#45;&gt;Node4</title>
<g id="a_edge3_Node000001_Node000004"><a xlink:title=" ">
<path fill="none" stroke="#63b8ff" d="M121.1,-83.5C129.97,-83.5 139.29,-83.5 148.62,-83.5"/>
<polygon fill="#63b8ff" stroke="#63b8ff" points="148.75,-87 158.75,-83.5 148.75,-80 148.75,-87"/>
</a>
</g>
</g>
<!-- Node5 -->
<g id="Node000005" class="node">
<title>Node5</title>
<g id="a_Node000005"><a xlink:href="sparse__io_8c.html#a2df04db78871f064e33eb709ed62ed4f" target="_top" xlink:title="Compute the theoretical number of block rows for a given layout.">
<polygon fill="white" stroke="#666666" points="323,-56 157,-56 157,-37 323,-37 323,-56"/>
<text text-anchor="middle" x="240" y="-44" font-family="Helvetica,sans-Serif" font-size="10.00">ie_block_sparse_n_block_rows</text>
</a>
</g>
</g>
<!-- Node1&#45;&gt;Node5 -->
<g id="edge4_Node000001_Node000005" class="edge">
<title>Node1&#45;&gt;Node5</title>
<g id="a_edge4_Node000001_Node000005"><a xlink:title=" ">
<path fill="none" stroke="#63b8ff" d="M107.21,-73.97C130.41,-69.14 158.79,-63.22 183.27,-58.12"/>
<polygon fill="#63b8ff" stroke="#63b8ff" points="184.06,-61.53 193.14,-56.06 182.63,-54.67 184.06,-61.53"/>
</a>
</g>
</g>
<!-- Node6 -->
<g id="Node000006" class="node">
<title>Node6</title>
<g id="a_Node000006"><a xlink:href="sparse__io_8c.html#a5a59341233785d180347a51141e56235" target="_top" xlink:title="Safely read size bytes from a stream into ptr.">
<polygon fill="white" stroke="#666666" points="272.5,-19 207.5,-19 207.5,0 272.5,0 272.5,-19"/>
<text text-anchor="middle" x="240" y="-7" font-family="Helvetica,sans-Serif" font-size="10.00">read_fully</text>
</a>
</g>
</g>
<!-- Node1&#45;&gt;Node6 -->
<g id="edge6_Node000001_Node000006" class="edge">
<title>Node1&#45;&gt;Node6</title>
<g id="a_edge6_Node000001_Node000006"><a xlink:title=" ">
<path fill="none" stroke="#63b8ff" d="M75.08,-73.94C93.04,-61.72 126.02,-40.7 157,-28.5 169.66,-23.52 183.96,-19.64 197.03,-16.73"/>
<polygon fill="#63b8ff" stroke="#63b8ff" points="198.12,-20.08 207.19,-14.6 196.69,-13.23 198.12,-20.08"/>
</a>
</g>
</g>
<!-- Node2&#45;&gt;Node3 -->
<g id="edge2_Node000002_Node000003" class="edge">
<title>Node2&#45;&gt;Node3</title>
<g id="a_edge2_Node000002_Node000003"><a xlink:title=" ">
<path fill="none" stroke="#63b8ff" d="M286.3,-149.91C305.3,-145.89 327.87,-141.11 349.02,-136.63"/>
<polygon fill="#63b8ff" stroke="#63b8ff" points="349.89,-140.03 358.95,-134.53 348.44,-133.18 349.89,-140.03"/>
</a>
</g>
</g>
<!-- Node6&#45;&gt;Node3 -->
<g id="edge7_Node000006_Node000003" class="edge">
<title>Node6&#45;&gt;Node3</title>
<g id="a_edge7_Node000006_Node000003"><a xlink:title=" ">
<path fill="none" stroke="#63b8ff" d="M272.77,-12.84C288.58,-15.48 307.57,-20.17 323,-28.5 355.35,-45.95 384.72,-77.02 402.58,-98.41"/>
<polygon fill="#63b8ff" stroke="#63b8ff" points="400.04,-100.83 409.07,-106.37 405.46,-96.4 400.04,-100.83"/>
</a>
</g>
</g>
</g>
</svg>
</svg>

<style type='text/css'>
<![CDATA[
[data-mouse-over-selected='false'] { opacity: 0.7; }
[data-mouse-over-selected='true']  { opacity: 1.0; }
]]>
</style>
<script type="application/ecmascript"><![CDATA[
document.addEventListener('DOMContentLoaded', (event) => {
  highlightEdges();
  highlightAdjacentNodes();
});
]]></script>
</svg>
