<?xml version="1.0" encoding="UTF-8" standalone="no"?>
<!DOCTYPE svg PUBLIC "-//W3C//DTD SVG 1.1//EN"
 "http://www.w3.org/Graphics/SVG/1.1/DTD/svg11.dtd">
<!-- Generated by graphviz version 2.43.0 (0)
 -->
<!-- Title: ensure_strings_cap Pages: 1 -->
<svg width="344pt" height="86pt"
 viewBox="0.00 0.00 344.00 86.00" xmlns="http://www.w3.org/2000/svg" xmlns:xlink="http://www.w3.org/1999/xlink">

<svg id="main" version="1.1" xmlns="http://www.w3.org/2000/svg" xmlns:xlink="http://www.w3.org/1999/xlink" xml:space="preserve" onload="init(evt)">
<style type="text/css"><![CDATA[
.node, .edge {opacity: 0.7;}
.node.selected, .edge.selected {opacity: 1;}
.edge:hover path { stroke: red; }
.edge:hover polygon { stroke: red; fill: red; }
]]></style>
<script type="application/ecmascript" xlink:href="svg.min.js"/>
<svg id="graph" class="graph">
<g id="graph0" class="graph" transform="scale(1 1) rotate(0) translate(4 82)">
<title>ensure_strings_cap</title>
<!-- Node1 -->
<g id="Node000001" class="node">
<title>Node1</title>
<g id="a_Node000001"><a xlink:title="Ensure capacity for the string table.">
<polygon fill="#999999" stroke="#666666" points="336,-48.5 226,-48.5 226,-29.5 336,-29.5 336,-48.5"/>
<text text-anchor="middle" x="281" y="-36.5" font-family="Helvetica,sans-Serif" font-size="10.00">ensure_strings_cap</text>
</a>
</g>
</g>
<!-- Node2 -->
<g id="Node000002" class="node">
<title>Node2</title>
<g id="a_Node000002"><a xlink:href="spec_8c.html#a3f08d8f81fdefd7da22524edfcb56891" target="_top" xlink:title="Create a new spec builder.">
<polygon fill="white" stroke="#666666" points="190,-78 77,-78 77,-48 190,-48 190,-78"/>
<text text-anchor="start" x="85" y="-66" font-family="Helvetica,sans-Serif" font-size="10.00">dedup_spec_builder</text>
<text text-anchor="middle" x="133.5" y="-55" font-family="Helvetica,sans-Serif" font-size="10.00">_create</text>
</a>
</g>
</g>
<!-- Node1&#45;&gt;Node2 -->
<g id="edge1_Node000001_Node000002" class="edge">
<title>Node1&#45;&gt;Node2</title>
<g id="a_edge1_Node000001_Node000002"><a xlink:title=" ">
<path fill="none" stroke="#63b8ff" d="M215.87,-49.58C207.31,-50.99 198.58,-52.43 190.18,-53.82"/>
<polygon fill="#63b8ff" stroke="#63b8ff" points="216.52,-53.02 225.82,-47.94 215.38,-46.11 216.52,-53.02"/>
</a>
</g>
</g>
<!-- Node4 -->
<g id="Node000004" class="node">
<title>Node4</title>
<g id="a_Node000004"><a xlink:href="spec_8c.html#a201f5b2eae10d58c45dffceea3d1a6ea" target="_top" xlink:title="Add (or reuse) a string in the builder&#39;s string table.">
<polygon fill="white" stroke="#666666" points="190,-30 77,-30 77,0 190,0 190,-30"/>
<text text-anchor="start" x="85" y="-18" font-family="Helvetica,sans-Serif" font-size="10.00">dedup_spec_builder</text>
<text text-anchor="middle" x="133.5" y="-7" font-family="Helvetica,sans-Serif" font-size="10.00">_intern_string</text>
</a>
</g>
</g>
<!-- Node1&#45;&gt;Node4 -->
<g id="edge3_Node000001_Node000004" class="edge">
<title>Node1&#45;&gt;Node4</title>
<g id="a_edge3_Node000001_Node000004"><a xlink:title=" ">
<path fill="none" stroke="#63b8ff" d="M215.87,-28.42C207.31,-27.01 198.58,-25.57 190.18,-24.18"/>
<polygon fill="#63b8ff" stroke="#63b8ff" points="215.38,-31.89 225.82,-30.06 216.52,-24.98 215.38,-31.89"/>
</a>
</g>
</g>
<!-- Node3 -->
<g id="Node000003" class="node">
<title>Node3</title>
<g id="a_Node000003"><a xlink:href="dedup__extract_8c.html#a3c04138a5bfe5d72780bb7e82a18e627" target="_top" xlink:title=" ">
<polygon fill="white" stroke="#666666" points="41,-48.5 0,-48.5 0,-29.5 41,-29.5 41,-48.5"/>
<text text-anchor="middle" x="20.5" y="-36.5" font-family="Helvetica,sans-Serif" font-size="10.00">main</text>
</a>
</g>
</g>
<!-- Node2&#45;&gt;Node3 -->
<g id="edge2_Node000002_Node000003" class="edge">
<title>Node2&#45;&gt;Node3</title>
<g id="a_edge2_Node000002_Node000003"><a xlink:title=" ">
<path fill="none" stroke="#63b8ff" d="M66.87,-48.81C57.56,-46.8 48.64,-44.87 41.21,-43.26"/>
<polygon fill="#63b8ff" stroke="#63b8ff" points="66.16,-52.24 76.67,-50.93 67.64,-45.4 66.16,-52.24"/>
</a>
</g>
</g>
<!-- Node4&#45;&gt;Node3 -->
<g id="edge4_Node000004_Node000003" class="edge">
<title>Node4&#45;&gt;Node3</title>
<g id="a_edge4_Node000004_Node000003"><a xlink:title=" ">
<path fill="none" stroke="#63b8ff" d="M66.87,-29.19C57.56,-31.2 48.64,-33.13 41.21,-34.74"/>
<polygon fill="#63b8ff" stroke="#63b8ff" points="67.64,-32.6 76.67,-27.07 66.16,-25.76 67.64,-32.6"/>
</a>
</g>
</g>
</g>
</svg>
</svg>

<style type='text/css'>
<![CDATA[
[data-mouse-over-selected='false'] { opacity: 0.7; }
[data-mouse-over-selected='true']  { opacity: 1.0; }
]]>
</style>
<script type="application/ecmascript"><![CDATA[
document.addEventListener('DOMContentLoaded', (event) => {
  highlightEdges();
  highlightAdjacentNodes();
});
]]></script>
</svg>
