<?xml version="1.0" encoding="UTF-8" standalone="no"?>
<!DOCTYPE svg PUBLIC "-//W3C//DTD SVG 1.1//EN"
 "http://www.w3.org/Graphics/SVG/1.1/DTD/svg11.dtd">
<!-- Generated by graphviz version 2.43.0 (0)
 -->
<!-- Title: ensure_strings_cap Pages: 1 -->
<svg width="344pt" height="88pt"
 viewBox="0.00 0.00 344.00 88.00" xmlns="http://www.w3.org/2000/svg" xmlns:xlink="http://www.w3.org/1999/xlink">
<g id="graph0" class="graph" transform="scale(1 1) rotate(0) translate(4 84)">
<title>ensure_strings_cap</title>
<!-- Node1 -->
<g id="node1" class="node">
<title>Node1</title>
<g id="a_node1"><a xlink:title="Ensure capacity for the string table.">
<polygon fill="#bfbfbf" stroke="black" points="226,-30 226,-49 336,-49 336,-30 226,-30"/>
<text text-anchor="middle" x="281" y="-37" font-family="Helvetica,sans-Serif" font-size="10.00">ensure_strings_cap</text>
</a>
</g>
</g>
<!-- Node2 -->
<g id="node2" class="node">
<title>Node2</title>
<g id="a_node2"><a xlink:href="spec_8h.html#ae3854dd4b00cbdf8e864ff6664296100" target="_top" xlink:title="Create a new spec builder.">
<polygon fill="none" stroke="black" points="77,-49.5 77,-79.5 190,-79.5 190,-49.5 77,-49.5"/>
<text text-anchor="start" x="85" y="-67.5" font-family="Helvetica,sans-Serif" font-size="10.00">dedup_spec_builder</text>
<text text-anchor="middle" x="133.5" y="-56.5" font-family="Helvetica,sans-Serif" font-size="10.00">_create</text>
</a>
</g>
</g>
<!-- Node1&#45;&gt;Node2 -->
<g id="edge1" class="edge">
<title>Node1&#45;&gt;Node2</title>
<path fill="none" stroke="midnightblue" d="M215.87,-50.52C207.31,-51.99 198.58,-53.49 190.18,-54.93"/>
<polygon fill="midnightblue" stroke="midnightblue" points="216.56,-53.95 225.82,-48.81 215.37,-47.05 216.56,-53.95"/>
</g>
<!-- Node4 -->
<g id="node4" class="node">
<title>Node4</title>
<g id="a_node4"><a xlink:href="spec_8h.html#a201f5b2eae10d58c45dffceea3d1a6ea" target="_top" xlink:title="Add (or reuse) a string in the builder&#39;s string table.">
<polygon fill="none" stroke="black" points="77,-0.5 77,-30.5 190,-30.5 190,-0.5 77,-0.5"/>
<text text-anchor="start" x="85" y="-18.5" font-family="Helvetica,sans-Serif" font-size="10.00">dedup_spec_builder</text>
<text text-anchor="middle" x="133.5" y="-7.5" font-family="Helvetica,sans-Serif" font-size="10.00">_intern_string</text>
</a>
</g>
</g>
<!-- Node1&#45;&gt;Node4 -->
<g id="edge3" class="edge">
<title>Node1&#45;&gt;Node4</title>
<path fill="none" stroke="midnightblue" d="M215.87,-28.92C207.31,-27.51 198.58,-26.07 190.18,-24.68"/>
<polygon fill="midnightblue" stroke="midnightblue" points="215.38,-32.39 225.82,-30.56 216.52,-25.48 215.38,-32.39"/>
</g>
<!-- Node3 -->
<g id="node3" class="node">
<title>Node3</title>
<g id="a_node3"><a xlink:href="dedup__extract_8c.html#a3c04138a5bfe5d72780bb7e82a18e627" target="_top" xlink:title=" ">
<polygon fill="none" stroke="black" points="0,-30 0,-49 41,-49 41,-30 0,-30"/>
<text text-anchor="middle" x="20.5" y="-37" font-family="Helvetica,sans-Serif" font-size="10.00">main</text>
</a>
</g>
</g>
<!-- Node2&#45;&gt;Node3 -->
<g id="edge2" class="edge">
<title>Node2&#45;&gt;Node3</title>
<path fill="none" stroke="midnightblue" d="M66.87,-49.72C57.56,-47.62 48.64,-45.61 41.21,-43.94"/>
<polygon fill="midnightblue" stroke="midnightblue" points="66.15,-53.14 76.67,-51.93 67.69,-46.31 66.15,-53.14"/>
</g>
<!-- Node4&#45;&gt;Node3 -->
<g id="edge4" class="edge">
<title>Node4&#45;&gt;Node3</title>
<path fill="none" stroke="midnightblue" d="M66.87,-29.69C57.56,-31.7 48.64,-33.63 41.21,-35.24"/>
<polygon fill="midnightblue" stroke="midnightblue" points="67.64,-33.1 76.67,-27.57 66.16,-26.26 67.64,-33.1"/>
</g>
</g>
</svg>
