<?xml version="1.0" encoding="UTF-8" standalone="no"?>
<!DOCTYPE svg PUBLIC "-//W3C//DTD SVG 1.1//EN"
 "http://www.w3.org/Graphics/SVG/1.1/DTD/svg11.dtd">
<!-- Generated by graphviz version 2.43.0 (0)
 -->
<!-- Title: ie_stream_policy_init Pages: 1 -->
<svg width="462pt" height="28pt"
 viewBox="0.00 0.00 462.00 28.00" xmlns="http://www.w3.org/2000/svg" xmlns:xlink="http://www.w3.org/1999/xlink">
<g id="graph0" class="graph" transform="scale(1 1) rotate(0) translate(4 24)">
<title>ie_stream_policy_init</title>
<!-- Node1 -->
<g id="node1" class="node">
<title>Node1</title>
<g id="a_node1"><a xlink:title="Initialize an ie_stream_policy with detected cache sizes and defaults.">
<polygon fill="#bfbfbf" stroke="black" points="0,-0.5 0,-19.5 121,-19.5 121,-0.5 0,-0.5"/>
<text text-anchor="middle" x="60.5" y="-7.5" font-family="Helvetica,sans-Serif" font-size="10.00">ie_stream_policy_init</text>
</a>
</g>
</g>
<!-- Node2 -->
<g id="node2" class="node">
<title>Node2</title>
<g id="a_node2"><a xlink:href="stream_8c.html#a6b3e804aea00c4b2e9a4d9c33d7d11d9" target="_top" xlink:title="Best&#45;effort cache discovery on Linux sysfs.">
<polygon fill="none" stroke="black" points="157,-0.5 157,-19.5 287,-19.5 287,-0.5 157,-0.5"/>
<text text-anchor="middle" x="222" y="-7.5" font-family="Helvetica,sans-Serif" font-size="10.00">ie_detect_caches_linux</text>
</a>
</g>
</g>
<!-- Node1&#45;&gt;Node2 -->
<g id="edge1" class="edge">
<title>Node1&#45;&gt;Node2</title>
<path fill="none" stroke="midnightblue" d="M121.35,-10C129.58,-10 138.11,-10 146.57,-10"/>
<polygon fill="midnightblue" stroke="midnightblue" points="146.82,-13.5 156.82,-10 146.82,-6.5 146.82,-13.5"/>
</g>
<!-- Node3 -->
<g id="node3" class="node">
<title>Node3</title>
<g id="a_node3"><a xlink:href="stream_8c.html#aa8b9868ec9d59cff70ebebba0a0193cf" target="_top" xlink:title="Parse a sysfs cache size file containing values like &quot;32K\n&quot; or &quot;12M\n&quot;.">
<polygon fill="none" stroke="black" points="323,-0.5 323,-19.5 454,-19.5 454,-0.5 323,-0.5"/>
<text text-anchor="middle" x="388.5" y="-7.5" font-family="Helvetica,sans-Serif" font-size="10.00">ie_read_cache_size_file</text>
</a>
</g>
</g>
<!-- Node2&#45;&gt;Node3 -->
<g id="edge2" class="edge">
<title>Node2&#45;&gt;Node3</title>
<path fill="none" stroke="midnightblue" d="M287.07,-10C295.5,-10 304.2,-10 312.78,-10"/>
<polygon fill="midnightblue" stroke="midnightblue" points="312.79,-13.5 322.79,-10 312.79,-6.5 312.79,-13.5"/>
</g>
</g>
</svg>
