<?xml version="1.0" encoding="UTF-8" standalone="no"?>
<!DOCTYPE svg PUBLIC "-//W3C//DTD SVG 1.1//EN"
 "http://www.w3.org/Graphics/SVG/1.1/DTD/svg11.dtd">
<!-- Generated by graphviz version 2.43.0 (0)
 -->
<!-- Title: ie_scalar_copy_f32 Pages: 1 -->
<svg width="513pt" height="103pt"
 viewBox="0.00 0.00 513.00 103.00" xmlns="http://www.w3.org/2000/svg" xmlns:xlink="http://www.w3.org/1999/xlink">
<g id="graph0" class="graph" transform="scale(1 1) rotate(0) translate(4 99)">
<title>ie_scalar_copy_f32</title>
<!-- Node1 -->
<g id="Node000001" class="node">
<title>Node1</title>
<g id="a_Node000001"><a xlink:title="Scalar copy fallback for float arrays.">
<polygon fill="#999999" stroke="#666666" points="505,-57 395,-57 395,-38 505,-38 505,-57"/>
<text text-anchor="middle" x="450" y="-45" font-family="Helvetica,sans-Serif" font-size="10.00">ie_scalar_copy_f32</text>
</a>
</g>
</g>
<!-- Node2 -->
<g id="Node000002" class="node">
<title>Node2</title>
<g id="a_Node000002"><a xlink:href="stream_8c.html#a6caed8f050edb118d1b888b8b91b5549" target="_top" xlink:title="Streaming store copy using AVX2 (compile&#45;time gated).">
<polygon fill="white" stroke="#666666" points="353,-95 234,-95 234,-76 353,-76 353,-95"/>
<text text-anchor="middle" x="293.5" y="-83" font-family="Helvetica,sans-Serif" font-size="10.00">ie_nt_copy_f32_avx2</text>
</a>
</g>
</g>
<!-- Node1&#45;&gt;Node2 -->
<g id="edge1_Node000001_Node000002" class="edge">
<title>Node1&#45;&gt;Node2</title>
<g id="a_edge1_Node000001_Node000002"><a xlink:title=" ">
<path fill="none" stroke="#63b8ff" d="M400.05,-59.54C378.46,-64.85 353.46,-71 333.21,-75.98"/>
<polygon fill="#63b8ff" stroke="#63b8ff" points="401.14,-62.88 410.01,-57.09 399.47,-56.08 401.14,-62.88"/>
</a>
</g>
</g>
<!-- Node3 -->
<g id="Node000003" class="node">
<title>Node3</title>
<g id="a_Node000003"><a xlink:href="stream_8c.html#a13ab8c04be7e2aad6764804916e21757" target="_top" xlink:title="Copy n floats from src to dst using optional non&#45;temporal stores.">
<polygon fill="white" stroke="#666666" points="192,-57 77,-57 77,-38 192,-38 192,-57"/>
<text text-anchor="middle" x="134.5" y="-45" font-family="Helvetica,sans-Serif" font-size="10.00">ie_stream_copy_f32</text>
</a>
</g>
</g>
<!-- Node1&#45;&gt;Node3 -->
<g id="edge6_Node000001_Node000003" class="edge">
<title>Node1&#45;&gt;Node3</title>
<g id="a_edge6_Node000001_Node000003"><a xlink:title=" ">
<path fill="none" stroke="#63b8ff" d="M384.49,-47.5C327.9,-47.5 246.41,-47.5 192.26,-47.5"/>
<polygon fill="#63b8ff" stroke="#63b8ff" points="384.75,-51 394.75,-47.5 384.75,-44 384.75,-51"/>
</a>
</g>
</g>
<!-- Node5 -->
<g id="Node000005" class="node">
<title>Node5</title>
<g id="a_Node000005"><a xlink:href="stream_8c.html#a08dffd4006d1feb19beeaee81ff360b2" target="_top" xlink:title="Streaming store copy using AVX&#45;512F (compile&#45;time gated).">
<polygon fill="white" stroke="#666666" points="359,-19 228,-19 228,0 359,0 359,-19"/>
<text text-anchor="middle" x="293.5" y="-7" font-family="Helvetica,sans-Serif" font-size="10.00">ie_nt_copy_f32_avx512</text>
</a>
</g>
</g>
<!-- Node1&#45;&gt;Node5 -->
<g id="edge4_Node000001_Node000005" class="edge">
<title>Node1&#45;&gt;Node5</title>
<g id="a_edge4_Node000001_Node000005"><a xlink:title=" ">
<path fill="none" stroke="#63b8ff" d="M400.05,-35.46C378.46,-30.15 353.46,-24 333.21,-19.02"/>
<polygon fill="#63b8ff" stroke="#63b8ff" points="399.47,-38.92 410.01,-37.91 401.14,-32.12 399.47,-38.92"/>
</a>
</g>
</g>
<!-- Node2&#45;&gt;Node3 -->
<g id="edge2_Node000002_Node000003" class="edge">
<title>Node2&#45;&gt;Node3</title>
<g id="a_edge2_Node000002_Node000003"><a xlink:title=" ">
<path fill="none" stroke="#63b8ff" d="M243.05,-73.53C221.05,-68.21 195.51,-62.02 174.83,-57.02"/>
<polygon fill="#63b8ff" stroke="#63b8ff" points="242.34,-76.96 252.88,-75.91 243.99,-70.16 242.34,-76.96"/>
</a>
</g>
</g>
<!-- Node4 -->
<g id="Node000004" class="node">
<title>Node4</title>
<g id="a_Node000004"><a xlink:href="microbench__stream_8c.html#a3c04138a5bfe5d72780bb7e82a18e627" target="_top" xlink:title="Microbenchmark main.">
<polygon fill="white" stroke="#666666" points="41,-57 0,-57 0,-38 41,-38 41,-57"/>
<text text-anchor="middle" x="20.5" y="-45" font-family="Helvetica,sans-Serif" font-size="10.00">main</text>
</a>
</g>
</g>
<!-- Node3&#45;&gt;Node4 -->
<g id="edge3_Node000003_Node000004" class="edge">
<title>Node3&#45;&gt;Node4</title>
<g id="a_edge3_Node000003_Node000004"><a xlink:title=" ">
<path fill="none" stroke="#63b8ff" d="M66.7,-47.5C57.45,-47.5 48.61,-47.5 41.25,-47.5"/>
<polygon fill="#63b8ff" stroke="#63b8ff" points="66.84,-51 76.84,-47.5 66.84,-44 66.84,-51"/>
</a>
</g>
</g>
<!-- Node5&#45;&gt;Node3 -->
<g id="edge5_Node000005_Node000003" class="edge">
<title>Node5&#45;&gt;Node3</title>
<g id="a_edge5_Node000005_Node000003"><a xlink:title=" ">
<path fill="none" stroke="#63b8ff" d="M243.05,-21.47C221.05,-26.79 195.51,-32.98 174.83,-37.98"/>
<polygon fill="#63b8ff" stroke="#63b8ff" points="243.99,-24.84 252.88,-19.09 242.34,-18.04 243.99,-24.84"/>
</a>
</g>
</g>
</g>
</svg>
