<?xml version="1.0" encoding="UTF-8" standalone="no"?>
<!DOCTYPE svg PUBLIC "-//W3C//DTD SVG 1.1//EN"
 "http://www.w3.org/Graphics/SVG/1.1/DTD/svg11.dtd">
<!-- Generated by graphviz version 2.43.0 (0)
 -->
<!-- Title: ie_scalar_set_f32 Pages: 1 -->
<svg width="436pt" height="103pt"
 viewBox="0.00 0.00 436.00 103.00" xmlns="http://www.w3.org/2000/svg" xmlns:xlink="http://www.w3.org/1999/xlink">

<svg id="main" version="1.1" xmlns="http://www.w3.org/2000/svg" xmlns:xlink="http://www.w3.org/1999/xlink" xml:space="preserve" onload="init(evt)">
<style type="text/css"><![CDATA[
.node, .edge {opacity: 0.7;}
.node.selected, .edge.selected {opacity: 1;}
.edge:hover path { stroke: red; }
.edge:hover polygon { stroke: red; fill: red; }
]]></style>
<script type="application/ecmascript" xlink:href="svg.min.js"/>
<svg id="graph" class="graph">
<g id="graph0" class="graph" transform="scale(1 1) rotate(0) translate(4 99)">
<title>ie_scalar_set_f32</title>
<!-- Node1 -->
<g id="Node000001" class="node">
<title>Node1</title>
<g id="a_Node000001"><a xlink:title="Scalar set fallback for float arrays.">
<polygon fill="#999999" stroke="#666666" points="428,-57 327,-57 327,-38 428,-38 428,-57"/>
<text text-anchor="middle" x="377.5" y="-45" font-family="Helvetica,sans-Serif" font-size="10.00">ie_scalar_set_f32</text>
</a>
</g>
</g>
<!-- Node2 -->
<g id="Node000002" class="node">
<title>Node2</title>
<g id="a_Node000002"><a xlink:href="stream_8c.html#a62606c176a6edf9664ac03ded1ab2fa7" target="_top" xlink:title="Streaming store set using AVX2 (compile&#45;time gated).">
<polygon fill="white" stroke="#666666" points="285,-95 174,-95 174,-76 285,-76 285,-95"/>
<text text-anchor="middle" x="229.5" y="-83" font-family="Helvetica,sans-Serif" font-size="10.00">ie_nt_set_f32_avx2</text>
</a>
</g>
</g>
<!-- Node1&#45;&gt;Node2 -->
<g id="edge1_Node000001_Node000002" class="edge">
<title>Node1&#45;&gt;Node2</title>
<g id="a_edge1_Node000001_Node000002"><a xlink:title=" ">
<path fill="none" stroke="#63b8ff" d="M329.96,-59.61C309.63,-64.9 286.13,-71.02 267.08,-75.98"/>
<polygon fill="#63b8ff" stroke="#63b8ff" points="330.86,-63 339.66,-57.09 329.1,-56.22 330.86,-63"/>
</a>
</g>
</g>
<!-- Node3 -->
<g id="Node000003" class="node">
<title>Node3</title>
<g id="a_Node000003"><a xlink:href="stream_8c.html#ae7db5f748b4078d3d8064ee76d254353" target="_top" xlink:title="Set n floats at dst to value using optional non&#45;temporal stores.">
<polygon fill="white" stroke="#666666" points="132,-57 0,-57 0,-38 132,-38 132,-57"/>
<text text-anchor="middle" x="66" y="-45" font-family="Helvetica,sans-Serif" font-size="10.00">ie_stream_memset_f32</text>
</a>
</g>
</g>
<!-- Node1&#45;&gt;Node3 -->
<g id="edge5_Node000001_Node000003" class="edge">
<title>Node1&#45;&gt;Node3</title>
<g id="a_edge5_Node000001_Node000003"><a xlink:title=" ">
<path fill="none" stroke="#63b8ff" d="M316.53,-47.5C263.61,-47.5 186.66,-47.5 132.23,-47.5"/>
<polygon fill="#63b8ff" stroke="#63b8ff" points="316.77,-51 326.77,-47.5 316.77,-44 316.77,-51"/>
</a>
</g>
</g>
<!-- Node4 -->
<g id="Node000004" class="node">
<title>Node4</title>
<g id="a_Node000004"><a xlink:href="stream_8c.html#a099c508cf40a9fa5f184c462badcf1fa" target="_top" xlink:title="Streaming store set using AVX&#45;512F (compile&#45;time gated).">
<polygon fill="white" stroke="#666666" points="291,-19 168,-19 168,0 291,0 291,-19"/>
<text text-anchor="middle" x="229.5" y="-7" font-family="Helvetica,sans-Serif" font-size="10.00">ie_nt_set_f32_avx512</text>
</a>
</g>
</g>
<!-- Node1&#45;&gt;Node4 -->
<g id="edge3_Node000001_Node000004" class="edge">
<title>Node1&#45;&gt;Node4</title>
<g id="a_edge3_Node000001_Node000004"><a xlink:title=" ">
<path fill="none" stroke="#63b8ff" d="M329.96,-35.39C309.63,-30.1 286.13,-23.98 267.08,-19.02"/>
<polygon fill="#63b8ff" stroke="#63b8ff" points="329.1,-38.78 339.66,-37.91 330.86,-32 329.1,-38.78"/>
</a>
</g>
</g>
<!-- Node2&#45;&gt;Node3 -->
<g id="edge2_Node000002_Node000003" class="edge">
<title>Node2&#45;&gt;Node3</title>
<g id="a_edge2_Node000002_Node000003"><a xlink:title=" ">
<path fill="none" stroke="#63b8ff" d="M177.94,-73.6C155.24,-68.26 128.82,-62.05 107.46,-57.02"/>
<polygon fill="#63b8ff" stroke="#63b8ff" points="177.21,-77.03 187.75,-75.91 178.81,-70.21 177.21,-77.03"/>
</a>
</g>
</g>
<!-- Node4&#45;&gt;Node3 -->
<g id="edge4_Node000004_Node000003" class="edge">
<title>Node4&#45;&gt;Node3</title>
<g id="a_edge4_Node000004_Node000003"><a xlink:title=" ">
<path fill="none" stroke="#63b8ff" d="M177.94,-21.4C155.24,-26.74 128.82,-32.95 107.46,-37.98"/>
<polygon fill="#63b8ff" stroke="#63b8ff" points="178.81,-24.79 187.75,-19.09 177.21,-17.97 178.81,-24.79"/>
</a>
</g>
</g>
</g>
</svg>
</svg>

<style type='text/css'>
<![CDATA[
[data-mouse-over-selected='false'] { opacity: 0.7; }
[data-mouse-over-selected='true']  { opacity: 1.0; }
]]>
</style>
<script type="application/ecmascript"><![CDATA[
document.addEventListener('DOMContentLoaded', (event) => {
  highlightEdges();
  highlightAdjacentNodes();
});
]]></script>
</svg>
