<?xml version="1.0" encoding="UTF-8" standalone="no"?>
<!DOCTYPE svg PUBLIC "-//W3C//DTD SVG 1.1//EN"
 "http://www.w3.org/Graphics/SVG/1.1/DTD/svg11.dtd">
<!-- Generated by graphviz version 2.43.0 (0)
 -->
<!-- Title: ie_nt_set_f32_avx512 Pages: 1 -->
<svg width="429pt" height="52pt"
 viewBox="0.00 0.00 429.00 51.50" xmlns="http://www.w3.org/2000/svg" xmlns:xlink="http://www.w3.org/1999/xlink">
<g id="graph0" class="graph" transform="scale(1 1) rotate(0) translate(4 47.5)">
<title>ie_nt_set_f32_avx512</title>
<!-- Node1 -->
<g id="Node000001" class="node">
<title>Node1</title>
<g id="a_Node000001"><a xlink:title="Streaming store set using AVX&#45;512F (compile&#45;time gated).">
<polygon fill="#999999" stroke="#666666" points="123,-38 0,-38 0,-19 123,-19 123,-38"/>
<text text-anchor="middle" x="61.5" y="-26" font-family="Helvetica,sans-Serif" font-size="10.00">ie_nt_set_f32_avx512</text>
</a>
</g>
</g>
<!-- Node2 -->
<g id="Node000002" class="node">
<title>Node2</title>
<g id="a_Node000002"><a xlink:href="ie__device__cuda_8cu.html#a5e3d9fee84981707669f5c2398f0c4ab" target="_top" xlink:title="Row&#45;wise GEMV kernel: each thread computes one output row.">
<polygon fill="white" stroke="#666666" points="421,-43.5 296,-43.5 296,-13.5 421,-13.5 421,-43.5"/>
<text text-anchor="start" x="304" y="-31.5" font-family="Helvetica,sans-Serif" font-size="10.00">ie_gemv_rowwise_f32</text>
<text text-anchor="middle" x="358.5" y="-20.5" font-family="Helvetica,sans-Serif" font-size="10.00">_kernel</text>
</a>
</g>
</g>
<!-- Node1&#45;&gt;Node2 -->
<g id="edge1_Node000001_Node000002" class="edge">
<title>Node1&#45;&gt;Node2</title>
<g id="a_edge1_Node000001_Node000002"><a xlink:title=" ">
<path fill="none" stroke="#63b8ff" d="M123.27,-28.5C170.45,-28.5 235.99,-28.5 285.75,-28.5"/>
<polygon fill="#63b8ff" stroke="#63b8ff" points="285.8,-32 295.8,-28.5 285.8,-25 285.8,-32"/>
</a>
</g>
</g>
<!-- Node3 -->
<g id="Node000003" class="node">
<title>Node3</title>
<g id="a_Node000003"><a xlink:href="stream_8c.html#a83d5c209366c07cf4f9026c5d7769141" target="_top" xlink:title="Scalar set fallback for float arrays.">
<polygon fill="white" stroke="#666666" points="260,-19 159,-19 159,0 260,0 260,-19"/>
<text text-anchor="middle" x="209.5" y="-7" font-family="Helvetica,sans-Serif" font-size="10.00">ie_scalar_set_f32</text>
</a>
</g>
</g>
<!-- Node1&#45;&gt;Node3 -->
<g id="edge2_Node000001_Node000003" class="edge">
<title>Node1&#45;&gt;Node3</title>
<g id="a_edge2_Node000001_Node000003"><a xlink:title=" ">
<path fill="none" stroke="#63b8ff" d="M123.15,-20.61C131.62,-19.51 140.31,-18.37 148.76,-17.27"/>
<polygon fill="#63b8ff" stroke="#63b8ff" points="149.45,-20.71 158.91,-15.95 148.54,-13.77 149.45,-20.71"/>
</a>
</g>
</g>
<!-- Node3&#45;&gt;Node2 -->
<g id="edge3_Node000003_Node000002" class="edge">
<title>Node3&#45;&gt;Node2</title>
<g id="a_edge3_Node000003_Node000002"><a xlink:title=" ">
<path fill="none" stroke="#63b8ff" d="M260.27,-15.93C268.47,-16.99 277.11,-18.11 285.72,-19.22"/>
<polygon fill="#63b8ff" stroke="#63b8ff" points="285.42,-22.71 295.79,-20.52 286.32,-15.77 285.42,-22.71"/>
</a>
</g>
</g>
</g>
</svg>
