<?xml version="1.0" encoding="UTF-8" standalone="no"?>
<!DOCTYPE svg PUBLIC "-//W3C//DTD SVG 1.1//EN"
 "http://www.w3.org/Graphics/SVG/1.1/DTD/svg11.dtd">
<!-- Generated by graphviz version 2.43.0 (0)
 -->
<!-- Title: ie_worker_arg_t Pages: 1 -->
<svg width="102pt" height="171pt"
 viewBox="0.00 0.00 102.00 171.00" xmlns="http://www.w3.org/2000/svg" xmlns:xlink="http://www.w3.org/1999/xlink">
<g id="graph0" class="graph" transform="scale(1 1) rotate(0) translate(4 167)">
<title>ie_worker_arg_t</title>
<!-- Node1 -->
<g id="node1" class="node">
<title>Node1</title>
<g id="a_node1"><a xlink:title=" ">
<polygon fill="#bfbfbf" stroke="black" points="0,-0.5 0,-57.5 94,-57.5 94,-0.5 0,-0.5"/>
<text text-anchor="middle" x="47" y="-45.5" font-family="Helvetica,sans-Serif" font-size="10.00">ie_worker_arg_t</text>
<polyline fill="none" stroke="black" points="0,-38.5 94,-38.5 "/>
<text text-anchor="start" x="8" y="-26.5" font-family="Helvetica,sans-Serif" font-size="10.00">+ tidx</text>
<polyline fill="none" stroke="black" points="0,-19.5 94,-19.5 "/>
<text text-anchor="middle" x="47" y="-7.5" font-family="Helvetica,sans-Serif" font-size="10.00"> </text>
</a>
</g>
</g>
<!-- Node2 -->
<g id="node2" class="node">
<title>Node2</title>
<g id="a_node2"><a xlink:title=" ">
<polygon fill="none" stroke="#bfbfbf" points="25,-105.5 25,-162.5 69,-162.5 69,-105.5 25,-105.5"/>
<text text-anchor="middle" x="47" y="-150.5" font-family="Helvetica,sans-Serif" font-size="10.00">struct</text>
<polyline fill="none" stroke="#bfbfbf" points="25,-143.5 69,-143.5 "/>
<text text-anchor="middle" x="47" y="-131.5" font-family="Helvetica,sans-Serif" font-size="10.00"> </text>
<polyline fill="none" stroke="#bfbfbf" points="25,-124.5 69,-124.5 "/>
<text text-anchor="middle" x="47" y="-112.5" font-family="Helvetica,sans-Serif" font-size="10.00"> </text>
</a>
</g>
</g>
<!-- Node2&#45;&gt;Node1 -->
<g id="edge1" class="edge">
<title>Node2&#45;&gt;Node1</title>
<path fill="none" stroke="#404040" d="M47,-105.4C47,-94.55 47,-81.87 47,-70.05"/>
<polygon fill="none" stroke="#404040" points="47,-69.68 43,-63.68 47,-57.68 51,-63.68 47,-69.68"/>
<text text-anchor="middle" x="58" y="-79" font-family="Helvetica,sans-Serif" font-size="10.00"> +tp</text>
</g>
</g>
</svg>
