<?xml version="1.0" encoding="UTF-8" standalone="no"?>
<!DOCTYPE svg PUBLIC "-//W3C//DTD SVG 1.1//EN"
 "http://www.w3.org/Graphics/SVG/1.1/DTD/svg11.dtd">
<!-- Generated by graphviz version 2.43.0 (0)
 -->
<!-- Title: ie_batcher_view Pages: 1 -->
<svg width="106pt" height="213pt"
 viewBox="0.00 0.00 106.00 213.00" xmlns="http://www.w3.org/2000/svg" xmlns:xlink="http://www.w3.org/1999/xlink">

<svg id="main" version="1.1" xmlns="http://www.w3.org/2000/svg" xmlns:xlink="http://www.w3.org/1999/xlink" xml:space="preserve" onload="init(evt)">
<style type="text/css"><![CDATA[
.node, .edge {opacity: 0.7;}
.node.selected, .edge.selected {opacity: 1;}
.edge:hover path { stroke: red; }
.edge:hover polygon { stroke: red; fill: red; }
]]></style>
<script type="application/ecmascript" xlink:href="svg.min.js"/>
<svg id="graph" class="graph">
<g id="graph0" class="graph" transform="scale(1 1) rotate(0) translate(4 209)">
<title>ie_batcher_view</title>
<!-- Node1 -->
<g id="Node000001" class="node">
<title>Node1</title>
<g id="a_Node000001"><a xlink:title="Microbatch view returned by ie_batcher_get.">
<polygon fill="#999999" stroke="transparent" points="94,-64 4,-64 4,0 94,0 94,-64"/>
<text text-anchor="start" x="9" y="-52" font-family="Helvetica,sans-Serif" font-size="10.00">ie_batcher_view</text>
<text text-anchor="start" x="18" y="-37" font-family="Helvetica,sans-Serif" font-size="10.00">+</text>
<text text-anchor="start" x="41" y="-37" font-family="Helvetica,sans-Serif" font-size="10.00">count</text>
<text text-anchor="start" x="18" y="-22" font-family="Helvetica,sans-Serif" font-size="10.00">+</text>
<text text-anchor="start" x="41" y="-22" font-family="Helvetica,sans-Serif" font-size="10.00">done</text>
<text text-anchor="start" x="47" y="-7" font-family="Helvetica,sans-Serif" font-size="10.00"> </text>
<polygon fill="#666666" stroke="#666666" points="4,-47 4,-47 94,-47 94,-47 4,-47"/>
<polygon fill="#666666" stroke="#666666" points="4,-17 4,-17 39,-17 39,-17 4,-17"/>
<polygon fill="#666666" stroke="#666666" points="39,-17 39,-17 94,-17 94,-17 39,-17"/>
<polygon fill="none" stroke="#666666" points="4,0 4,-64 94,-64 94,0 4,0"/>
</a>
</g>
</g>
<!-- Node2 -->
<g id="Node000002" class="node">
<title>Node2</title>
<g id="a_Node000002"><a xlink:href="structie__batcher__item__t.html" target="_top" xlink:title="Tokenized item produced by the batcher.">
<polygon fill="white" stroke="transparent" points="98,-205 0,-205 0,-111 98,-111 98,-205"/>
<text text-anchor="start" x="5" y="-193" font-family="Helvetica,sans-Serif" font-size="10.00">ie_batcher_item_t</text>
<text text-anchor="start" x="14" y="-178" font-family="Helvetica,sans-Serif" font-size="10.00">+</text>
<text text-anchor="start" x="37" y="-178" font-family="Helvetica,sans-Serif" font-size="10.00">prompt</text>
<text text-anchor="start" x="14" y="-163" font-family="Helvetica,sans-Serif" font-size="10.00">+</text>
<text text-anchor="start" x="37" y="-163" font-family="Helvetica,sans-Serif" font-size="10.00">ids</text>
<text text-anchor="start" x="14" y="-148" font-family="Helvetica,sans-Serif" font-size="10.00">+</text>
<text text-anchor="start" x="37" y="-148" font-family="Helvetica,sans-Serif" font-size="10.00">n_ids</text>
<text text-anchor="start" x="14" y="-133" font-family="Helvetica,sans-Serif" font-size="10.00">+</text>
<text text-anchor="start" x="37" y="-133" font-family="Helvetica,sans-Serif" font-size="10.00">status</text>
<text text-anchor="start" x="47" y="-118" font-family="Helvetica,sans-Serif" font-size="10.00"> </text>
<polygon fill="#666666" stroke="#666666" points="0,-188 0,-188 98,-188 98,-188 0,-188"/>
<polygon fill="#666666" stroke="#666666" points="0,-128 0,-128 35,-128 35,-128 0,-128"/>
<polygon fill="#666666" stroke="#666666" points="35,-128 35,-128 98,-128 98,-128 35,-128"/>
<polygon fill="none" stroke="#666666" points="0,-111 0,-205 98,-205 98,-111 0,-111"/>
</a>
</g>
</g>
<!-- Node2&#45;&gt;Node1 -->
<g id="edge1_Node000001_Node000002" class="edge">
<title>Node2&#45;&gt;Node1</title>
<g id="a_edge1_Node000001_Node000002"><a xlink:title=" ">
<path fill="none" stroke="#63b8ff" d="M49,-110.83C49,-99.52 49,-87.46 49,-76.3"/>
<polygon fill="none" stroke="#63b8ff" points="49,-76.16 45,-70.16 49,-64.16 53,-70.16 49,-76.16"/>
</a>
</g>
<text text-anchor="middle" x="69" y="-85" font-family="Helvetica,sans-Serif" font-size="10.00" fill="grey"> +items</text>
</g>
</g>
</svg>
</svg>

<style type='text/css'>
<![CDATA[
[data-mouse-over-selected='false'] { opacity: 0.7; }
[data-mouse-over-selected='true']  { opacity: 1.0; }
]]>
</style>
<script type="application/ecmascript"><![CDATA[
document.addEventListener('DOMContentLoaded', (event) => {
  highlightEdges();
  highlightAdjacentNodes();
});
]]></script>
</svg>
