<?xml version="1.0" encoding="UTF-8" standalone="no"?>
<!DOCTYPE svg PUBLIC "-//W3C//DTD SVG 1.1//EN"
 "http://www.w3.org/Graphics/SVG/1.1/DTD/svg11.dtd">
<!-- Generated by graphviz version 12.2.1 (20241206.2353)
 -->
<!-- Title: ie_int4_quant_meta Pages: 1 -->
<svg width="113pt" height="146pt"
 viewBox="0.00 0.00 112.75 146.00" xmlns="http://www.w3.org/2000/svg" xmlns:xlink="http://www.w3.org/1999/xlink">
<g id="graph0" class="graph" transform="scale(1 1) rotate(0) translate(4 142)">
<title>ie_int4_quant_meta</title>
<!-- Node1 -->
<g id="Node000001" class="node">
<title>Node1</title>
<g id="a_Node000001"><a xlink:title="Minimal metadata extracted from &quot;quant&quot;: { ... } for INT4 weights.">
<polygon fill="#999999" stroke="none" points="104.75,-138 0,-138 0,0 104.75,0 104.75,-138"/>
<text text-anchor="start" x="4" y="-124.5" font-family="Helvetica,sans-Serif" font-size="10.00">ie_int4_quant_meta</text>
<text text-anchor="start" x="12" y="-107.75" font-family="Helvetica,sans-Serif" font-size="10.00">+</text>
<text text-anchor="start" x="32.25" y="-107.75" font-family="Helvetica,sans-Serif" font-size="10.00">present</text>
<text text-anchor="start" x="12" y="-91" font-family="Helvetica,sans-Serif" font-size="10.00">+</text>
<text text-anchor="start" x="32.25" y="-91" font-family="Helvetica,sans-Serif" font-size="10.00">per_row</text>
<text text-anchor="start" x="12" y="-74.25" font-family="Helvetica,sans-Serif" font-size="10.00">+</text>
<text text-anchor="start" x="32.25" y="-74.25" font-family="Helvetica,sans-Serif" font-size="10.00">scale_bin</text>
<text text-anchor="start" x="12" y="-57.5" font-family="Helvetica,sans-Serif" font-size="10.00">+</text>
<text text-anchor="start" x="32.25" y="-57.5" font-family="Helvetica,sans-Serif" font-size="10.00">pack</text>
<text text-anchor="start" x="12" y="-40.75" font-family="Helvetica,sans-Serif" font-size="10.00">+</text>
<text text-anchor="start" x="32.25" y="-40.75" font-family="Helvetica,sans-Serif" font-size="10.00">zero_point</text>
<text text-anchor="start" x="12" y="-24" font-family="Helvetica,sans-Serif" font-size="10.00">+</text>
<text text-anchor="start" x="32.25" y="-24" font-family="Helvetica,sans-Serif" font-size="10.00">symmetric</text>
<text text-anchor="start" x="50.88" y="-7.25" font-family="Helvetica,sans-Serif" font-size="10.00"> </text>
<polygon fill="#666666" stroke="#666666" points="0,-119.25 0,-119.25 104.75,-119.25 104.75,-119.25 0,-119.25"/>
<polygon fill="#666666" stroke="#666666" points="0,-18.75 0,-18.75 30.25,-18.75 30.25,-18.75 0,-18.75"/>
<polygon fill="#666666" stroke="#666666" points="30.25,-18.75 30.25,-18.75 104.75,-18.75 104.75,-18.75 30.25,-18.75"/>
<polygon fill="none" stroke="#666666" points="0,0 0,-138 104.75,-138 104.75,0 0,0"/>
</a>
</g>
</g>
</g>
</svg>
