<?xml version="1.0" encoding="UTF-8" standalone="no"?>
<!DOCTYPE svg PUBLIC "-//W3C//DTD SVG 1.1//EN"
 "http://www.w3.org/Graphics/SVG/1.1/DTD/svg11.dtd">
<!-- Generated by graphviz version 12.2.1 (20241206.2353)
 -->
<!-- Title: ie_hot_replicas_t Pages: 1 -->
<svg width="99pt" height="199pt"
 viewBox="0.00 0.00 98.50 198.75" xmlns="http://www.w3.org/2000/svg" xmlns:xlink="http://www.w3.org/1999/xlink">

<svg id="main" version="1.1" xmlns="http://www.w3.org/2000/svg" xmlns:xlink="http://www.w3.org/1999/xlink" xml:space="preserve">

<style type="text/css"><![CDATA[
.node, .edge {opacity: 0.7;}
.node.selected, .edge.selected {opacity: 1;}
.edge:hover path { stroke: red; }
.edge:hover polygon { stroke: red; fill: red; }
]]></style>
<script type="application/ecmascript" xlink:href="svg.min.js"/>
<svg id="graph" class="graph">
<g id="graph0" class="graph" transform="scale(1 1) rotate(0) translate(4 194.75)">
<title>ie_hot_replicas_t</title>
<!-- Node1 -->
<g id="Node000001" class="node">
<title>Node1</title>
<g id="a_Node000001"><a xlink:title="Container of all per&#45;socket replicas.">
<polygon fill="#999999" stroke="none" points="90.5,-54.25 0,-54.25 0,0 90.5,0 90.5,-54.25"/>
<text text-anchor="start" x="4" y="-40.75" font-family="Helvetica,sans-Serif" font-size="10.00">ie_hot_replicas_t</text>
<text text-anchor="start" x="9.56" y="-24" font-family="Helvetica,sans-Serif" font-size="10.00">+</text>
<text text-anchor="start" x="27.38" y="-24" font-family="Helvetica,sans-Serif" font-size="10.00">n_sockets</text>
<text text-anchor="start" x="43.75" y="-7.25" font-family="Helvetica,sans-Serif" font-size="10.00"> </text>
<polygon fill="#666666" stroke="#666666" points="0,-35.5 0,-35.5 90.5,-35.5 90.5,-35.5 0,-35.5"/>
<polygon fill="#666666" stroke="#666666" points="0,-18.75 0,-18.75 25.38,-18.75 25.38,-18.75 0,-18.75"/>
<polygon fill="#666666" stroke="#666666" points="25.38,-18.75 25.38,-18.75 90.5,-18.75 90.5,-18.75 25.38,-18.75"/>
<polygon fill="none" stroke="#666666" points="0,0 0,-54.25 90.5,-54.25 90.5,0 0,0"/>
</a>
</g>
</g>
<!-- Node2 -->
<g id="Node000002" class="node">
<title>Node2</title>
<g id="a_Node000002"><a xlink:href="structie__hot__replica__t.html" target="_top" xlink:title="A single per&#45;socket replica.">
<polygon fill="white" stroke="none" points="87.88,-190.75 2.62,-190.75 2.62,-103 87.88,-103 87.88,-190.75"/>
<text text-anchor="start" x="6.62" y="-177.25" font-family="Helvetica,sans-Serif" font-size="10.00">ie_hot_replica_t</text>
<text text-anchor="start" x="11.44" y="-160.5" font-family="Helvetica,sans-Serif" font-size="10.00">+</text>
<text text-anchor="start" x="28.5" y="-160.5" font-family="Helvetica,sans-Serif" font-size="10.00">ptr</text>
<text text-anchor="start" x="11.44" y="-143.75" font-family="Helvetica,sans-Serif" font-size="10.00">+</text>
<text text-anchor="start" x="28.5" y="-143.75" font-family="Helvetica,sans-Serif" font-size="10.00">size</text>
<text text-anchor="start" x="11.44" y="-127" font-family="Helvetica,sans-Serif" font-size="10.00">+</text>
<text text-anchor="start" x="28.5" y="-127" font-family="Helvetica,sans-Serif" font-size="10.00">socket_id</text>
<text text-anchor="start" x="43.75" y="-110.25" font-family="Helvetica,sans-Serif" font-size="10.00"> </text>
<polygon fill="#666666" stroke="#666666" points="2.62,-172 2.62,-172 87.88,-172 87.88,-172 2.62,-172"/>
<polygon fill="#666666" stroke="#666666" points="2.62,-121.75 2.62,-121.75 26.5,-121.75 26.5,-121.75 2.62,-121.75"/>
<polygon fill="#666666" stroke="#666666" points="26.5,-121.75 26.5,-121.75 87.88,-121.75 87.88,-121.75 26.5,-121.75"/>
<polygon fill="none" stroke="#666666" points="2.62,-103 2.62,-190.75 87.88,-190.75 87.88,-103 2.62,-103"/>
</a>
</g>
</g>
<!-- Node2&#45;&gt;Node1 -->
<g id="edge1_Node000001_Node000002" class="edge">
<title>Node2&#45;&gt;Node1</title>
<g id="a_edge1_Node000001_Node000002"><a xlink:title=" ">
<path fill="none" stroke="#63b8ff" d="M45.25,-103.03C45.25,-91.22 45.25,-78.47 45.25,-66.9"/>
<polygon fill="none" stroke="#63b8ff" points="45.25,-66.88 41.25,-60.88 45.25,-54.88 49.25,-60.88 45.25,-66.88"/>
</a>
</g>
<text text-anchor="middle" x="52.75" y="-75.5" font-family="Helvetica,sans-Serif" font-size="10.00" fill="grey"> +r</text>
</g>
</g>
</svg>
</svg>

<style type='text/css'>
<![CDATA[
[data-mouse-over-selected='false'] { opacity: 0.7; }
[data-mouse-over-selected='true']  { opacity: 1.0; }
]]>
</style>
<script type="application/ecmascript"><![CDATA[
document.addEventListener('DOMContentLoaded', (event) => {
  highlightEdges();
  highlightAdjacentNodes();
});
]]></script>
</svg>
