<?xml version="1.0" encoding="UTF-8" standalone="no"?>
<!DOCTYPE svg PUBLIC "-//W3C//DTD SVG 1.1//EN"
 "http://www.w3.org/Graphics/SVG/1.1/DTD/svg11.dtd">
<!-- Generated by graphviz version 2.43.0 (0)
 -->
<!-- Title: ie_rng_s Pages: 1 -->
<svg width="59pt" height="57pt"
 viewBox="0.00 0.00 59.00 57.00" xmlns="http://www.w3.org/2000/svg" xmlns:xlink="http://www.w3.org/1999/xlink">
<g id="graph0" class="graph" transform="scale(1 1) rotate(0) translate(4 53)">
<title>ie_rng_s</title>
<!-- Node1 -->
<g id="Node000001" class="node">
<title>Node1</title>
<g id="a_Node000001"><a xlink:title="Simple RNG state (xorshift64*).">
<polygon fill="#999999" stroke="transparent" points="51,-49 0,-49 0,0 51,0 51,-49"/>
<text text-anchor="start" x="5.5" y="-36.5" font-family="Helvetica,sans-Serif" font-size="10.00">ie_rng_s</text>
<text text-anchor="start" x="10.5" y="-21.5" font-family="Helvetica,sans-Serif" font-size="10.00">+</text>
<text text-anchor="start" x="29.5" y="-21.5" font-family="Helvetica,sans-Serif" font-size="10.00">s</text>
<text text-anchor="start" x="24" y="-6.5" font-family="Helvetica,sans-Serif" font-size="10.00"> </text>
<polygon fill="#666666" stroke="#666666" points="0.5,-31.5 0.5,-31.5 51.5,-31.5 51.5,-31.5 0.5,-31.5"/>
<polygon fill="#666666" stroke="#666666" points="0.5,-16.5 0.5,-16.5 27.5,-16.5 27.5,-16.5 0.5,-16.5"/>
<polygon fill="#666666" stroke="#666666" points="27.5,-16.5 27.5,-16.5 51.5,-16.5 51.5,-16.5 27.5,-16.5"/>
<polygon fill="none" stroke="#666666" points="0,0 0,-49 51,-49 51,0 0,0"/>
</a>
</g>
</g>
</g>
</svg>
