<?xml version="1.0" encoding="UTF-8" standalone="no"?>
<!DOCTYPE svg PUBLIC "-//W3C//DTD SVG 1.1//EN"
 "http://www.w3.org/Graphics/SVG/1.1/DTD/svg11.dtd">
<!-- Generated by graphviz version 2.43.0 (0)
 -->
<!-- Title: ie_sampler Pages: 1 -->
<svg width="138pt" height="198pt"
 viewBox="0.00 0.00 138.00 198.00" xmlns="http://www.w3.org/2000/svg" xmlns:xlink="http://www.w3.org/1999/xlink">
<g id="graph0" class="graph" transform="scale(1 1) rotate(0) translate(4 194)">
<title>ie_sampler</title>
<!-- Node1 -->
<g id="Node000001" class="node">
<title>Node1</title>
<g id="a_Node000001"><a xlink:title=" ">
<polygon fill="#999999" stroke="transparent" points="94,-79 18,-79 18,0 94,0 94,-79"/>
<text text-anchor="start" x="28.5" y="-66.5" font-family="Helvetica,sans-Serif" font-size="10.00">ie_sampler</text>
<text text-anchor="start" x="22" y="-51.5" font-family="Helvetica,sans-Serif" font-size="10.00">+</text>
<text text-anchor="start" x="35" y="-51.5" font-family="Helvetica,sans-Serif" font-size="10.00">vocab_size</text>
<text text-anchor="start" x="22" y="-36.5" font-family="Helvetica,sans-Serif" font-size="10.00">+</text>
<text text-anchor="start" x="35" y="-36.5" font-family="Helvetica,sans-Serif" font-size="10.00">rng</text>
<text text-anchor="start" x="22" y="-21.5" font-family="Helvetica,sans-Serif" font-size="10.00">+</text>
<text text-anchor="start" x="35" y="-21.5" font-family="Helvetica,sans-Serif" font-size="10.00">probs</text>
<text text-anchor="start" x="54" y="-6.5" font-family="Helvetica,sans-Serif" font-size="10.00"> </text>
<polygon fill="#666666" stroke="#666666" points="18,-61.5 18,-61.5 94,-61.5 94,-61.5 18,-61.5"/>
<polygon fill="#666666" stroke="#666666" points="18,-16.5 18,-16.5 33,-16.5 33,-16.5 18,-16.5"/>
<polygon fill="#666666" stroke="#666666" points="33,-16.5 33,-16.5 94,-16.5 94,-16.5 33,-16.5"/>
<polygon fill="none" stroke="#666666" points="18,0 18,-79 94,-79 94,0 18,0"/>
</a>
</g>
</g>
<!-- Node2 -->
<g id="Node000002" class="node">
<title>Node2</title>
<g id="a_Node000002"><a xlink:title=" ">
<polygon fill="white" stroke="transparent" points="38,-182.5 0,-182.5 0,-133.5 38,-133.5 38,-182.5"/>
<text text-anchor="start" x="5" y="-170" font-family="Helvetica,sans-Serif" font-size="10.00">struct</text>
<text text-anchor="start" x="17" y="-155" font-family="Helvetica,sans-Serif" font-size="10.00"> </text>
<text text-anchor="start" x="17" y="-140" font-family="Helvetica,sans-Serif" font-size="10.00"> </text>
<polygon fill="#666666" stroke="#666666" points="0,-165 0,-165 38,-165 38,-165 0,-165"/>
<polygon fill="#666666" stroke="#666666" points="0,-150 0,-150 38,-150 38,-150 0,-150"/>
<polygon fill="none" stroke="#666666" points="0,-133.5 0,-182.5 38,-182.5 38,-133.5 0,-133.5"/>
</a>
</g>
</g>
<!-- Node2&#45;&gt;Node1 -->
<g id="edge1_Node000001_Node000002" class="edge">
<title>Node2&#45;&gt;Node1</title>
<g id="a_edge1_Node000001_Node000002"><a xlink:title=" ">
<path fill="none" stroke="#63b8ff" d="M26.49,-133.42C30.39,-121.15 35.31,-105.64 40.02,-90.83"/>
<polygon fill="none" stroke="#63b8ff" points="40.08,-90.61 38.09,-83.68 43.72,-79.18 45.71,-86.11 40.08,-90.61"/>
</a>
</g>
<text text-anchor="middle" x="51.5" y="-100" font-family="Helvetica,sans-Serif" font-size="10.00" fill="grey"> +cfg</text>
</g>
<!-- Node3 -->
<g id="Node000003" class="node">
<title>Node3</title>
<g id="a_Node000003"><a xlink:href="structie__prob__item.html" target="_top" xlink:title="Optional external decoder hook (weak).">
<polygon fill="white" stroke="transparent" points="130,-190 56,-190 56,-126 130,-126 130,-190"/>
<text text-anchor="start" x="61" y="-178" font-family="Helvetica,sans-Serif" font-size="10.00">ie_prob_item</text>
<text text-anchor="start" x="70.5" y="-163" font-family="Helvetica,sans-Serif" font-size="10.00">+</text>
<text text-anchor="start" x="94" y="-163" font-family="Helvetica,sans-Serif" font-size="10.00">id</text>
<text text-anchor="start" x="70.5" y="-148" font-family="Helvetica,sans-Serif" font-size="10.00">+</text>
<text text-anchor="start" x="94" y="-148" font-family="Helvetica,sans-Serif" font-size="10.00">p</text>
<text text-anchor="start" x="91" y="-133" font-family="Helvetica,sans-Serif" font-size="10.00"> </text>
<polygon fill="#666666" stroke="#666666" points="56,-173 56,-173 130,-173 130,-173 56,-173"/>
<polygon fill="#666666" stroke="#666666" points="56,-143 56,-143 92,-143 92,-143 56,-143"/>
<polygon fill="#666666" stroke="#666666" points="92,-143 92,-143 130,-143 130,-143 92,-143"/>
<polygon fill="none" stroke="#666666" points="56,-126 56,-190 130,-190 130,-126 56,-126"/>
</a>
</g>
</g>
<!-- Node3&#45;&gt;Node1 -->
<g id="edge2_Node000001_Node000003" class="edge">
<title>Node3&#45;&gt;Node1</title>
<g id="a_edge2_Node000001_Node000003"><a xlink:title=" ">
<path fill="none" stroke="#63b8ff" d="M83.08,-125.78C79.68,-115.06 75.78,-102.78 72.02,-90.93"/>
<polygon fill="none" stroke="#63b8ff" points="71.96,-90.75 66.33,-86.24 68.33,-79.31 73.95,-83.82 71.96,-90.75"/>
</a>
</g>
<text text-anchor="middle" x="96" y="-100" font-family="Helvetica,sans-Serif" font-size="10.00" fill="grey"> +items</text>
</g>
</g>
</svg>
