<?xml version="1.0" encoding="UTF-8" standalone="no"?>
<!DOCTYPE svg PUBLIC "-//W3C//DTD SVG 1.1//EN"
 "http://www.w3.org/Graphics/SVG/1.1/DTD/svg11.dtd">
<!-- Generated by graphviz version 2.43.0 (0)
 -->
<!-- Title: tensor_map_s Pages: 1 -->
<svg width="96pt" height="243pt"
 viewBox="0.00 0.00 96.00 243.00" xmlns="http://www.w3.org/2000/svg" xmlns:xlink="http://www.w3.org/1999/xlink">

<svg id="main" version="1.1" xmlns="http://www.w3.org/2000/svg" xmlns:xlink="http://www.w3.org/1999/xlink" xml:space="preserve" onload="init(evt)">
<style type="text/css"><![CDATA[
.node, .edge {opacity: 0.7;}
.node.selected, .edge.selected {opacity: 1;}
.edge:hover path { stroke: red; }
.edge:hover polygon { stroke: red; fill: red; }
]]></style>
<script type="application/ecmascript" xlink:href="svg.min.js"/>
<svg id="graph" class="graph">
<g id="graph0" class="graph" transform="scale(1 1) rotate(0) translate(4 239)">
<title>tensor_map_s</title>
<!-- Node1 -->
<g id="Node000001" class="node">
<title>Node1</title>
<g id="a_Node000001"><a xlink:title="In&#45;memory tensor map.">
<polygon fill="#999999" stroke="transparent" points="79.5,-64 0.5,-64 0.5,0 79.5,0 79.5,-64"/>
<text text-anchor="start" x="6" y="-52" font-family="Helvetica,sans-Serif" font-size="10.00">tensor_map_s</text>
<text text-anchor="start" x="11" y="-37" font-family="Helvetica,sans-Serif" font-size="10.00">+</text>
<text text-anchor="start" x="30" y="-37" font-family="Helvetica,sans-Serif" font-size="10.00">count</text>
<text text-anchor="start" x="11" y="-22" font-family="Helvetica,sans-Serif" font-size="10.00">+</text>
<text text-anchor="start" x="30" y="-22" font-family="Helvetica,sans-Serif" font-size="10.00">loaded</text>
<text text-anchor="start" x="38.5" y="-7" font-family="Helvetica,sans-Serif" font-size="10.00"> </text>
<polygon fill="#666666" stroke="#666666" points="1,-47 1,-47 80,-47 80,-47 1,-47"/>
<polygon fill="#666666" stroke="#666666" points="1,-17 1,-17 28,-17 28,-17 1,-17"/>
<polygon fill="#666666" stroke="#666666" points="28,-17 28,-17 80,-17 80,-17 28,-17"/>
<polygon fill="none" stroke="#666666" points="0.5,0 0.5,-64 79.5,-64 79.5,0 0.5,0"/>
</a>
</g>
</g>
<!-- Node2 -->
<g id="Node000002" class="node">
<title>Node2</title>
<g id="a_Node000002"><a xlink:href="structtensor__desc__s.html" target="_top" xlink:title="Tensor descriptor resolved from tensor_map.json.">
<polygon fill="white" stroke="transparent" points="80,-235 0,-235 0,-111 80,-111 80,-235"/>
<text text-anchor="start" x="5" y="-223" font-family="Helvetica,sans-Serif" font-size="10.00">tensor_desc_s</text>
<text text-anchor="start" x="5.5" y="-208" font-family="Helvetica,sans-Serif" font-size="10.00">+</text>
<text text-anchor="start" x="20" y="-208" font-family="Helvetica,sans-Serif" font-size="10.00">name</text>
<text text-anchor="start" x="5.5" y="-193" font-family="Helvetica,sans-Serif" font-size="10.00">+</text>
<text text-anchor="start" x="20" y="-193" font-family="Helvetica,sans-Serif" font-size="10.00">offset</text>
<text text-anchor="start" x="5.5" y="-178" font-family="Helvetica,sans-Serif" font-size="10.00">+</text>
<text text-anchor="start" x="20" y="-178" font-family="Helvetica,sans-Serif" font-size="10.00">size_bytes</text>
<text text-anchor="start" x="5.5" y="-163" font-family="Helvetica,sans-Serif" font-size="10.00">+</text>
<text text-anchor="start" x="20" y="-163" font-family="Helvetica,sans-Serif" font-size="10.00">dtype</text>
<text text-anchor="start" x="5.5" y="-148" font-family="Helvetica,sans-Serif" font-size="10.00">+</text>
<text text-anchor="start" x="20" y="-148" font-family="Helvetica,sans-Serif" font-size="10.00">shape</text>
<text text-anchor="start" x="5.5" y="-133" font-family="Helvetica,sans-Serif" font-size="10.00">+</text>
<text text-anchor="start" x="20" y="-133" font-family="Helvetica,sans-Serif" font-size="10.00">ndim</text>
<text text-anchor="start" x="38" y="-118" font-family="Helvetica,sans-Serif" font-size="10.00"> </text>
<polygon fill="#666666" stroke="#666666" points="0,-218 0,-218 80,-218 80,-218 0,-218"/>
<polygon fill="#666666" stroke="#666666" points="0,-128 0,-128 18,-128 18,-128 0,-128"/>
<polygon fill="#666666" stroke="#666666" points="18,-128 18,-128 80,-128 80,-128 18,-128"/>
<polygon fill="none" stroke="#666666" points="0,-111 0,-235 80,-235 80,-111 0,-111"/>
</a>
</g>
</g>
<!-- Node2&#45;&gt;Node1 -->
<g id="edge1_Node000001_Node000002" class="edge">
<title>Node2&#45;&gt;Node1</title>
<g id="a_edge1_Node000001_Node000002"><a xlink:title=" ">
<path fill="none" stroke="#63b8ff" d="M40,-110.63C40,-99.13 40,-87.33 40,-76.51"/>
<polygon fill="none" stroke="#63b8ff" points="40,-76.34 36,-70.34 40,-64.34 44,-70.34 40,-76.34"/>
</a>
</g>
<text text-anchor="middle" x="64" y="-85" font-family="Helvetica,sans-Serif" font-size="10.00" fill="grey"> +tensors</text>
</g>
</g>
</svg>
</svg>

<style type='text/css'>
<![CDATA[
[data-mouse-over-selected='false'] { opacity: 0.7; }
[data-mouse-over-selected='true']  { opacity: 1.0; }
]]>
</style>
<script type="application/ecmascript"><![CDATA[
document.addEventListener('DOMContentLoaded', (event) => {
  highlightEdges();
  highlightAdjacentNodes();
});
]]></script>
</svg>
