<?xml version="1.0" encoding="UTF-8" standalone="no"?>
<!DOCTYPE svg PUBLIC "-//W3C//DTD SVG 1.1//EN"
 "http://www.w3.org/Graphics/SVG/1.1/DTD/svg11.dtd">
<!-- Generated by graphviz version 2.43.0 (0)
 -->
<!-- Title: skip_object Pages: 1 -->
<!--zoomable 125 -->

<svg id="main" version="1.1" xmlns="http://www.w3.org/2000/svg" xmlns:xlink="http://www.w3.org/1999/xlink" xml:space="preserve" onload="init(evt)">
<style type="text/css"><![CDATA[
.node, .edge {opacity: 0.7;}
.node.selected, .edge.selected {opacity: 1;}
.edge:hover path { stroke: red; }
.edge:hover polygon { stroke: red; fill: red; }
]]></style>

<defs>
  <circle id="rim" cx="0" cy="0" r="7"/>
  <circle id="rim2" cx="0" cy="0" r="3.5"/>
  <g id="zoomPlus">
    <use xlink:href="#rim" fill="#404040"><set attributeName="fill" to="#808080" begin="zoomplus.mouseover" end="zoomplus.mouseout"/></use>
    <path d="M-4,0h8M0,-4v8" fill="none" stroke="white" stroke-width="1.5" pointer-events="none"/>
  </g>
  <g id="zoomMin">
    <use xlink:href="#rim" fill="#404040"><set attributeName="fill" to="#808080" begin="zoomminus.mouseover" end="zoomminus.mouseout"/></use>
    <path d="M-4,0h8" fill="none" stroke="white" stroke-width="1.5" pointer-events="none"/>
  </g>
  <g id="arrowUp" transform="translate(30 24)">
    <use xlink:href="#rim"/>
    <path pointer-events="none" fill="none" stroke="white" stroke-width="1.5" d="M0,-3.0v7 M-2.5,-0.5L0,-3.0L2.5,-0.5"/>
  </g>
  <g id="arrowRight" transform="rotate(90) translate(36 -43)">
    <use xlink:href="#rim"/>
    <path pointer-events="none" fill="none" stroke="white" stroke-width="1.5" d="M0,-3.0v7 M-2.5,-0.5L0,-3.0L2.5,-0.5"/>
  </g>
  <g id="arrowDown" transform="rotate(180) translate(-30 -48)">
    <use xlink:href="#rim"/>
    <path pointer-events="none" fill="none" stroke="white" stroke-width="1.5" d="M0,-3.0v7 M-2.5,-0.5L0,-3.0L2.5,-0.5"/>
  </g>
  <g id="arrowLeft" transform="rotate(270) translate(-36 17)">
    <use xlink:href="#rim"/>
    <path pointer-events="none" fill="none" stroke="white" stroke-width="1.5" d="M0,-3.0v7 M-2.5,-0.5L0,-3.0L2.5,-0.5"/>
  </g>
  <g id="resetDef">
    <use xlink:href="#rim2" fill="#404040"><set attributeName="fill" to="#808080" begin="reset.mouseover" end="reset.mouseout"/></use>
  </g>
</defs>
<script type="application/ecmascript">
var viewWidth = 888;
var viewHeight = 125;
var sectionId = 'dynsection-18';
</script>
<script type="application/ecmascript" xlink:href="svg.min.js"/>
<svg id="graph" class="graph">
<g id="viewport">
<title>skip_object</title>
<!-- Node1 -->
<g id="Node000001" class="node">
<title>Node1</title>
<g id="a_Node000001"><a xlink:title="Skip a JSON object value.">
<polygon fill="#999999" stroke="#666666" points="880,-41.36 808,-41.36 808,-22.36 880,-22.36 880,-41.36"/>
<text text-anchor="middle" x="844" y="-29.36" font-family="Helvetica,sans-Serif" font-size="10.00">skip_object</text>
</a>
</g>
</g>
<!-- Node2 -->
<g id="Node000002" class="node">
<title>Node2</title>
<g id="a_Node000002"><a xlink:href="tensor__map_8c.html#a751de8ccde16854a65c185afdfecfdbf" target="_top" xlink:title="Skip any JSON value (string/object/array/number/true/false/null).">
<polygon fill="white" stroke="#666666" points="772,-41.36 703,-41.36 703,-22.36 772,-22.36 772,-41.36"/>
<text text-anchor="middle" x="737.5" y="-29.36" font-family="Helvetica,sans-Serif" font-size="10.00">skip_value</text>
</a>
</g>
</g>
<!-- Node1&#45;&gt;Node2 -->
<g id="edge1_Node000001_Node000002" class="edge">
<title>Node1&#45;&gt;Node2</title>
<g id="a_edge1_Node000001_Node000002"><a xlink:title=" ">
<path fill="none" stroke="#63b8ff" d="M797.69,-25.17C789.15,-25.04 780.36,-25.15 772.26,-25.5"/>
<polygon fill="#63b8ff" stroke="#63b8ff" points="797.82,-28.67 807.91,-25.45 798.01,-21.67 797.82,-28.67"/>
</a>
</g>
</g>
<!-- Node4 -->
<g id="Node000004" class="node">
<title>Node4</title>
<g id="a_Node000004"><a xlink:href="tensor__map_8c.html#ac4b913e2710929070b5b073b4b67b24c" target="_top" xlink:title="Load tensor_map.json from disk.">
<polygon fill="white" stroke="#666666" points="516,-60.36 415,-60.36 415,-41.36 516,-41.36 516,-60.36"/>
<text text-anchor="middle" x="465.5" y="-48.36" font-family="Helvetica,sans-Serif" font-size="10.00">tensor_map_load</text>
</a>
</g>
</g>
<!-- Node1&#45;&gt;Node4 -->
<g id="edge17_Node000001_Node000004" class="edge">
<title>Node1&#45;&gt;Node4</title>
<g id="a_edge17_Node000001_Node000004"><a xlink:title=" ">
<path fill="none" stroke="#63b8ff" d="M804.63,-19.64C794.16,-16.84 782.74,-14.28 772,-12.86 675.06,-0.12 647.65,7.43 552,-12.86 526.42,-18.29 499.2,-31.92 482.52,-41.29"/>
<polygon fill="#63b8ff" stroke="#63b8ff" points="803.75,-23.03 814.33,-22.36 805.65,-16.29 803.75,-23.03"/>
</a>
</g>
</g>
<!-- Node2&#45;&gt;Node1 -->
<g id="edge15_Node000002_Node000001" class="edge">
<title>Node2&#45;&gt;Node1</title>
<g id="a_edge15_Node000002_Node000001"><a xlink:title=" ">
<path fill="none" stroke="#63b8ff" d="M782.42,-38.54C790.93,-38.7 799.73,-38.61 807.91,-38.28"/>
<polygon fill="#63b8ff" stroke="#63b8ff" points="782.36,-35.03 772.26,-38.22 782.14,-42.03 782.36,-35.03"/>
</a>
</g>
</g>
<!-- Node3 -->
<g id="Node000003" class="node">
<title>Node3</title>
<g id="a_Node000003"><a xlink:href="tensor__map_8c.html#a180580870bc40b8b36b78f81a1c26178" target="_top" xlink:title="Parse a tensor descriptor object.">
<polygon fill="white" stroke="#666666" points="667,-117.36 552,-117.36 552,-98.36 667,-98.36 667,-117.36"/>
<text text-anchor="middle" x="609.5" y="-105.36" font-family="Helvetica,sans-Serif" font-size="10.00">parse_tensor_object</text>
</a>
</g>
</g>
<!-- Node2&#45;&gt;Node3 -->
<g id="edge2_Node000002_Node000003" class="edge">
<title>Node2&#45;&gt;Node3</title>
<g id="a_edge2_Node000002_Node000003"><a xlink:title=" ">
<path fill="none" stroke="#63b8ff" d="M717.25,-48.26C703.76,-59.23 685,-73.51 667,-83.86 657.48,-89.34 646.48,-94.29 636.72,-98.26"/>
<polygon fill="#63b8ff" stroke="#63b8ff" points="719.82,-50.67 725.29,-41.6 715.35,-45.28 719.82,-50.67"/>
</a>
</g>
</g>
<!-- Node2&#45;&gt;Node4 -->
<g id="edge16_Node000002_Node000004" class="edge">
<title>Node2&#45;&gt;Node4</title>
<g id="a_edge16_Node000002_Node000004"><a xlink:title=" ">
<path fill="none" stroke="#63b8ff" d="M696.65,-43.99C687.04,-46.41 676.72,-48.6 667,-49.86 615.91,-56.5 556.88,-55.8 516.17,-54.02"/>
<polygon fill="#63b8ff" stroke="#63b8ff" points="697.61,-47.36 706.37,-41.41 695.81,-40.59 697.61,-47.36"/>
</a>
</g>
</g>
<!-- Node12 -->
<g id="Node000012" class="node">
<title>Node12</title>
<g id="a_Node000012"><a xlink:href="tensor__map_8c.html#a86c69aef66f60185ab7bfe466d7eb1d3" target="_top" xlink:title="Skip a JSON array value.">
<polygon fill="white" stroke="#666666" points="643.5,-41.36 575.5,-41.36 575.5,-22.36 643.5,-22.36 643.5,-41.36"/>
<text text-anchor="middle" x="609.5" y="-29.36" font-family="Helvetica,sans-Serif" font-size="10.00">skip_array</text>
</a>
</g>
</g>
<!-- Node2&#45;&gt;Node12 -->
<g id="edge12_Node000002_Node000012" class="edge">
<title>Node2&#45;&gt;Node12</title>
<g id="a_edge12_Node000002_Node000012"><a xlink:title=" ">
<path fill="none" stroke="#63b8ff" d="M692.55,-25.4C676.59,-24.91 658.83,-25.05 643.92,-25.82"/>
<polygon fill="#63b8ff" stroke="#63b8ff" points="692.6,-28.9 702.73,-25.81 692.88,-21.91 692.6,-28.9"/>
</a>
</g>
</g>
<!-- Node3&#45;&gt;Node4 -->
<g id="edge3_Node000003_Node000004" class="edge">
<title>Node3&#45;&gt;Node4</title>
<g id="a_edge3_Node000003_Node000004"><a xlink:title=" ">
<path fill="none" stroke="#63b8ff" d="M575.26,-94.52C549.22,-84.07 513.62,-69.78 490.35,-60.44"/>
<polygon fill="#63b8ff" stroke="#63b8ff" points="574.15,-97.85 584.73,-98.32 576.76,-91.35 574.15,-97.85"/>
</a>
</g>
</g>
<!-- Node5 -->
<g id="Node000005" class="node">
<title>Node5</title>
<g id="a_Node000005"><a xlink:href="gptoss__weights__index_8c.html#ab0abbe94d2373ea44d51f2325c7cc46c" target="_top" xlink:title="Open a weights index for a given model directory and weights descriptor.">
<polygon fill="white" stroke="#666666" points="379,-97.36 225,-97.36 225,-78.36 379,-78.36 379,-97.36"/>
<text text-anchor="middle" x="302" y="-85.36" font-family="Helvetica,sans-Serif" font-size="10.00">gptoss_weights_index_open</text>
</a>
</g>
</g>
<!-- Node4&#45;&gt;Node5 -->
<g id="edge4_Node000004_Node000005" class="edge">
<title>Node4&#45;&gt;Node5</title>
<g id="a_edge4_Node000004_Node000005"><a xlink:title=" ">
<path fill="none" stroke="#63b8ff" d="M413.05,-62.65C391,-67.7 365.58,-73.53 344.73,-78.3"/>
<polygon fill="#63b8ff" stroke="#63b8ff" points="413.94,-66.04 422.91,-60.39 412.38,-59.21 413.94,-66.04"/>
</a>
</g>
</g>
<!-- Node6 -->
<g id="Node000006" class="node">
<title>Node6</title>
<g id="a_Node000006"><a xlink:href="infer__gptoss_8c.html#a1eb484ef476fc9b7a44d3819959fb307" target="_top" xlink:title="Create an inference context.">
<polygon fill="white" stroke="#666666" points="365.5,-23.36 238.5,-23.36 238.5,-4.36 365.5,-4.36 365.5,-23.36"/>
<text text-anchor="middle" x="302" y="-11.36" font-family="Helvetica,sans-Serif" font-size="10.00">ie_gptoss_infer_create</text>
</a>
</g>
</g>
<!-- Node4&#45;&gt;Node6 -->
<g id="edge5_Node000004_Node000006" class="edge">
<title>Node4&#45;&gt;Node6</title>
<g id="a_edge5_Node000004_Node000006"><a xlink:title=" ">
<path fill="none" stroke="#63b8ff" d="M413.05,-39.08C391,-34.02 365.58,-28.2 344.73,-23.42"/>
<polygon fill="#63b8ff" stroke="#63b8ff" points="412.38,-42.51 422.91,-41.34 413.94,-35.69 412.38,-42.51"/>
</a>
</g>
</g>
<!-- Node11 -->
<g id="Node000011" class="node">
<title>Node11</title>
<g id="a_Node000011"><a xlink:href="ie__api_8c.html#a037b105c112037bdbc1725c6c88fd1ff" target="_top" xlink:title=" ">
<polygon fill="white" stroke="#666666" points="376,-60.36 228,-60.36 228,-41.36 376,-41.36 376,-60.36"/>
<text text-anchor="middle" x="302" y="-48.36" font-family="Helvetica,sans-Serif" font-size="10.00">maybe_correct_head_dim_</text>
</a>
</g>
</g>
<!-- Node4&#45;&gt;Node11 -->
<g id="edge10_Node000004_Node000011" class="edge">
<title>Node4&#45;&gt;Node11</title>
<g id="a_edge10_Node000004_Node000011"><a xlink:title=" ">
<path fill="none" stroke="#63b8ff" d="M404.47,-50.86C395.21,-50.86 385.56,-50.86 376.06,-50.86"/>
<polygon fill="#63b8ff" stroke="#63b8ff" points="404.73,-54.36 414.73,-50.86 404.73,-47.36 404.73,-54.36"/>
</a>
</g>
</g>
<!-- Node7 -->
<g id="Node000007" class="node">
<title>Node7</title>
<g id="a_Node000007"><a xlink:href="ie__api_8c.html#a84bd87043352946e9d53b0f8a5c4abe0" target="_top" xlink:title="Create an engine instance.">
<polygon fill="white" stroke="#666666" points="183,-60.36 83,-60.36 83,-41.36 183,-41.36 183,-60.36"/>
<text text-anchor="middle" x="133" y="-48.36" font-family="Helvetica,sans-Serif" font-size="10.00">ie_engine_create</text>
</a>
</g>
</g>
<!-- Node6&#45;&gt;Node7 -->
<g id="edge6_Node000006_Node000007" class="edge">
<title>Node6&#45;&gt;Node7</title>
<g id="a_edge6_Node000006_Node000007"><a xlink:title=" ">
<path fill="none" stroke="#63b8ff" d="M248.1,-25.58C225.23,-30.65 198.81,-36.51 177.15,-41.3"/>
<polygon fill="#63b8ff" stroke="#63b8ff" points="248.99,-28.97 257.99,-23.39 247.47,-22.14 248.99,-28.97"/>
</a>
</g>
</g>
<!-- Node10 -->
<g id="Node000010" class="node">
<title>Node10</title>
<g id="a_Node000010"><a xlink:href="generate__gptoss_8c.html#a69606d6441b5c86670cfcc955721a308" target="_top" xlink:title="Generate up to max_new tokens for a prompt string using GPT&#45;OSS.">
<polygon fill="white" stroke="#666666" points="189,-23.36 77,-23.36 77,-4.36 189,-4.36 189,-23.36"/>
<text text-anchor="middle" x="133" y="-11.36" font-family="Helvetica,sans-Serif" font-size="10.00">ie_generate_gptoss</text>
</a>
</g>
</g>
<!-- Node6&#45;&gt;Node10 -->
<g id="edge9_Node000006_Node000010" class="edge">
<title>Node6&#45;&gt;Node10</title>
<g id="a_edge9_Node000006_Node000010"><a xlink:title=" ">
<path fill="none" stroke="#63b8ff" d="M227.97,-13.86C214.91,-13.86 201.5,-13.86 189.05,-13.86"/>
<polygon fill="#63b8ff" stroke="#63b8ff" points="228.34,-17.36 238.34,-13.86 228.34,-10.36 228.34,-17.36"/>
</a>
</g>
</g>
<!-- Node8 -->
<g id="Node000008" class="node">
<title>Node8</title>
<g id="a_Node000008"><a xlink:href="main__infer_8c.html#a3c04138a5bfe5d72780bb7e82a18e627" target="_top" xlink:title="main.">
<polygon fill="white" stroke="#666666" points="41,-79.36 0,-79.36 0,-60.36 41,-60.36 41,-79.36"/>
<text text-anchor="middle" x="20.5" y="-67.36" font-family="Helvetica,sans-Serif" font-size="10.00">main</text>
</a>
</g>
</g>
<!-- Node7&#45;&gt;Node8 -->
<g id="edge7_Node000007_Node000008" class="edge">
<title>Node7&#45;&gt;Node8</title>
<g id="a_edge7_Node000007_Node000008"><a xlink:title=" ">
<path fill="none" stroke="#63b8ff" d="M72.82,-61.04C61.37,-63.01 50.14,-64.94 41.13,-66.49"/>
<polygon fill="#63b8ff" stroke="#63b8ff" points="73.63,-64.45 82.89,-59.31 72.44,-57.55 73.63,-64.45"/>
</a>
</g>
</g>
<!-- Node9 -->
<g id="Node000009" class="node">
<title>Node9</title>
<g id="a_Node000009"><a xlink:href="test__api_8c.html#a840291bc02cba5474a4cb46a9b9566fe" target="_top" xlink:title=" ">
<polygon fill="white" stroke="#666666" points="41,-42.36 0,-42.36 0,-23.36 41,-23.36 41,-42.36"/>
<text text-anchor="middle" x="20.5" y="-30.36" font-family="Helvetica,sans-Serif" font-size="10.00">main</text>
</a>
</g>
</g>
<!-- Node7&#45;&gt;Node9 -->
<g id="edge8_Node000007_Node000009" class="edge">
<title>Node7&#45;&gt;Node9</title>
<g id="a_edge8_Node000007_Node000009"><a xlink:title=" ">
<path fill="none" stroke="#63b8ff" d="M72.82,-41.22C61.37,-39.36 50.14,-37.53 41.13,-36.06"/>
<polygon fill="#63b8ff" stroke="#63b8ff" points="72.46,-44.71 82.89,-42.86 73.58,-37.8 72.46,-44.71"/>
</a>
</g>
</g>
<!-- Node11&#45;&gt;Node7 -->
<g id="edge11_Node000011_Node000007" class="edge">
<title>Node11&#45;&gt;Node7</title>
<g id="a_edge11_Node000011_Node000007"><a xlink:title=" ">
<path fill="none" stroke="#63b8ff" d="M217.46,-50.86C205.72,-50.86 193.99,-50.86 183.18,-50.86"/>
<polygon fill="#63b8ff" stroke="#63b8ff" points="217.75,-54.36 227.75,-50.86 217.75,-47.36 217.75,-54.36"/>
</a>
</g>
</g>
<!-- Node12&#45;&gt;Node2 -->
<g id="edge13_Node000012_Node000002" class="edge">
<title>Node12&#45;&gt;Node2</title>
<g id="a_edge13_Node000012_Node000002"><a xlink:title=" ">
<path fill="none" stroke="#63b8ff" d="M654.08,-38.32C670.01,-38.82 687.78,-38.68 702.73,-37.92"/>
<polygon fill="#63b8ff" stroke="#63b8ff" points="654.06,-34.82 643.92,-37.9 653.77,-41.81 654.06,-34.82"/>
</a>
</g>
</g>
<!-- Node12&#45;&gt;Node4 -->
<g id="edge14_Node000012_Node000004" class="edge">
<title>Node12&#45;&gt;Node4</title>
<g id="a_edge14_Node000012_Node000004"><a xlink:title=" ">
<path fill="none" stroke="#63b8ff" d="M564.88,-37.7C549.42,-39.77 531.92,-42.11 516.01,-44.24"/>
<polygon fill="#63b8ff" stroke="#63b8ff" points="565.76,-41.11 575.21,-36.32 564.83,-34.18 565.76,-41.11"/>
</a>
</g>
</g>
</g>
</svg>

<g id="navigator" transform="translate(0 0)" fill="#404254">
  <rect fill="#f2f5e9" fill-opacity="0.5" stroke="#606060" stroke-width=".5" x="0" y="0" width="60" height="60"/>
  <use id="zoomplus" xlink:href="#zoomPlus" x="17" y="9" onmousedown="handleZoom(evt,'in')"/>
  <use id="zoomminus" xlink:href="#zoomMin" x="42" y="9" onmousedown="handleZoom(evt,'out')"/>
  <use id="reset" xlink:href="#resetDef" x="30" y="36" onmousedown="handleReset()"/>
   <use id="arrowup" xlink:href="#arrowUp" x="0" y="0" onmousedown="handlePan(0,-1)"/>
  <use id="arrowright" xlink:href="#arrowRight" x="0" y="0" onmousedown="handlePan(1,0)"/>
  <use id="arrowdown" xlink:href="#arrowDown" x="0" y="0" onmousedown="handlePan(0,1)"/>
  <use id="arrowleft" xlink:href="#arrowLeft" x="0" y="0" onmousedown="handlePan(-1,0)"/>
</g>
<svg viewBox="0 0 15 15" width="100%" height="30px" preserveAspectRatio="xMaxYMin meet">
 <g id="arrow_out" transform="scale(0.3 0.3)">
  <a xlink:href="tensor__map_8c_a9e5190012370782147588f3b3b6a4886_icgraph_org.svg" target="_base">
   <rect id="button" ry="5" rx="5" y="6" x="6" height="38" width="38"
        fill="#f2f5e9" fill-opacity="0.5" stroke="#606060" stroke-width="1.0"/>
   <path id="arrow"
     d="M 11.500037,31.436501 C 11.940474,20.09759 22.043105,11.32322 32.158766,21.979434 L 37.068811,17.246167 C 37.068811,17.246167 37.088388,32 37.088388,32 L 22.160133,31.978069 C 22.160133,31.978069 26.997745,27.140456 26.997745,27.140456 C 18.528582,18.264221 13.291696,25.230495 11.500037,31.436501 z"
     style="fill:#404040;"/>
  </a>
 </g>
</svg>

<style type='text/css'>
<![CDATA[
[data-mouse-over-selected='false'] { opacity: 0.7; }
[data-mouse-over-selected='true']  { opacity: 1.0; }
]]>
</style>
<script type="application/ecmascript"><![CDATA[
document.addEventListener('DOMContentLoaded', (event) => {
  highlightEdges();
  highlightAdjacentNodes();
});
]]></script>
</svg>
