<?xml version="1.0" encoding="UTF-8" standalone="no"?>
<!DOCTYPE svg PUBLIC "-//W3C//DTD SVG 1.1//EN"
 "http://www.w3.org/Graphics/SVG/1.1/DTD/svg11.dtd">
<!-- Generated by graphviz version 12.2.1 (20241206.2353)
 -->
<!-- Title: ie_topology_sockets Pages: 1 -->
<svg width="359pt" height="105pt"
 viewBox="0.00 0.00 359.00 104.75" xmlns="http://www.w3.org/2000/svg" xmlns:xlink="http://www.w3.org/1999/xlink">
<g id="graph0" class="graph" transform="scale(1 1) rotate(0) translate(4 100.75)">
<title>ie_topology_sockets</title>
<!-- Node1 -->
<g id="Node000001" class="node">
<title>Node1</title>
<g id="a_Node000001"><a xlink:title="Get number of sockets.">
<polygon fill="#999999" stroke="#666666" points="351,-58.75 236,-58.75 236,-38 351,-38 351,-58.75"/>
<text text-anchor="middle" x="293.5" y="-45.25" font-family="Helvetica,sans-Serif" font-size="10.00">ie_topology_sockets</text>
</a>
</g>
</g>
<!-- Node2 -->
<g id="Node000002" class="node">
<title>Node2</title>
<g id="a_Node000002"><a xlink:href="test__topology_8c.html#a5ee1b69f54e5cd514b91fe5f86788332" target="_top" xlink:title="Dump a short human&#45;readable view of the topology.">
<polygon fill="white" stroke="#666666" points="184.25,-96.75 92.5,-96.75 92.5,-76 184.25,-76 184.25,-96.75"/>
<text text-anchor="middle" x="138.38" y="-83.25" font-family="Helvetica,sans-Serif" font-size="10.00">dump_topology</text>
</a>
</g>
</g>
<!-- Node1&#45;&gt;Node2 -->
<g id="edge1_Node000001_Node000002" class="edge">
<title>Node1&#45;&gt;Node2</title>
<g id="a_edge1_Node000001_Node000002"><a xlink:title=" ">
<path fill="none" stroke="#63b8ff" d="M238.05,-61.89C219.97,-66.37 200.1,-71.31 182.95,-75.56"/>
<polygon fill="#63b8ff" stroke="#63b8ff" points="238.7,-65.33 247.56,-59.53 237.01,-58.54 238.7,-65.33"/>
</a>
</g>
</g>
<!-- Node3 -->
<g id="Node000003" class="node">
<title>Node3</title>
<g id="a_Node000003"><a xlink:href="test__topology_8c.html#a840291bc02cba5474a4cb46a9b9566fe" target="_top" xlink:title="Main test entry: build topology, print, and basic assertions.">
<polygon fill="white" stroke="#666666" points="40.75,-77.75 0,-77.75 0,-57 40.75,-57 40.75,-77.75"/>
<text text-anchor="middle" x="20.38" y="-64.25" font-family="Helvetica,sans-Serif" font-size="10.00">main</text>
</a>
</g>
</g>
<!-- Node1&#45;&gt;Node3 -->
<g id="edge4_Node000001_Node000003" class="edge">
<title>Node1&#45;&gt;Node3</title>
<g id="a_edge4_Node000001_Node000003"><a xlink:title=" ">
<path fill="none" stroke="#63b8ff" d="M224.27,-53.16C163.69,-57.4 79.07,-63.33 41.14,-65.99"/>
<polygon fill="#63b8ff" stroke="#63b8ff" points="224.42,-56.65 234.15,-52.46 223.93,-49.67 224.42,-56.65"/>
</a>
</g>
</g>
<!-- Node4 -->
<g id="Node000004" class="node">
<title>Node4</title>
<g id="a_Node000004"><a xlink:href="replicate__hot_8c.html#a7d3e29b1e9598ce32f191c4379cffe4e" target="_top" xlink:title="Create per&#45;socket replicas of blob using first&#45;touch placement.">
<polygon fill="white" stroke="#666666" points="200,-20.75 76.75,-20.75 76.75,0 200,0 200,-20.75"/>
<text text-anchor="middle" x="138.38" y="-7.25" font-family="Helvetica,sans-Serif" font-size="10.00">ie_hot_replicate_build</text>
</a>
</g>
</g>
<!-- Node1&#45;&gt;Node4 -->
<g id="edge3_Node000001_Node000004" class="edge">
<title>Node1&#45;&gt;Node4</title>
<g id="a_edge3_Node000001_Node000004"><a xlink:title=" ">
<path fill="none" stroke="#63b8ff" d="M238.05,-34.86C219.97,-30.38 200.1,-25.44 182.95,-21.19"/>
<polygon fill="#63b8ff" stroke="#63b8ff" points="237.01,-38.21 247.56,-37.22 238.7,-31.42 237.01,-38.21"/>
</a>
</g>
</g>
<!-- Node2&#45;&gt;Node3 -->
<g id="edge2_Node000002_Node000003" class="edge">
<title>Node2&#45;&gt;Node3</title>
<g id="a_edge2_Node000002_Node000003"><a xlink:title=" ">
<path fill="none" stroke="#63b8ff" d="M80.85,-77.12C66.58,-74.78 52.2,-72.42 41.15,-70.61"/>
<polygon fill="#63b8ff" stroke="#63b8ff" points="80.27,-80.57 90.7,-78.73 81.4,-73.66 80.27,-80.57"/>
</a>
</g>
</g>
</g>
</svg>
