<?xml version="1.0" encoding="UTF-8" standalone="no"?>
<!DOCTYPE svg PUBLIC "-//W3C//DTD SVG 1.1//EN"
 "http://www.w3.org/Graphics/SVG/1.1/DTD/svg11.dtd">
<!-- Generated by graphviz version 12.2.1 (20241206.2353)
 -->
<!-- Title: engine/src/opt/topology.c Pages: 1 -->
<svg width="756pt" height="142pt"
 viewBox="0.00 0.00 756.25 142.25" xmlns="http://www.w3.org/2000/svg" xmlns:xlink="http://www.w3.org/1999/xlink">
<g id="graph0" class="graph" transform="scale(1 1) rotate(0) translate(4 138.25)">
<title>engine/src/opt/topology.c</title>
<!-- Node1 -->
<g id="Node000001" class="node">
<title>Node1</title>
<g id="a_Node000001"><a xlink:title=" ">
<polygon fill="#999999" stroke="#666666" points="459.25,-134.25 321.75,-134.25 321.75,-113.5 459.25,-113.5 459.25,-134.25"/>
<text text-anchor="middle" x="390.5" y="-120.75" font-family="Helvetica,sans-Serif" font-size="10.00">engine/src/opt/topology.c</text>
</a>
</g>
</g>
<!-- Node2 -->
<g id="Node000002" class="node">
<title>Node2</title>
<g id="a_Node000002"><a xlink:href="ie__topology_8h.html" target="_top" xlink:title=" ">
<polygon fill="white" stroke="#666666" points="103.75,-77.5 23.25,-77.5 23.25,-56.75 103.75,-56.75 103.75,-77.5"/>
<text text-anchor="middle" x="63.5" y="-64" font-family="Helvetica,sans-Serif" font-size="10.00">ie_topology.h</text>
</a>
</g>
</g>
<!-- Node1&#45;&gt;Node2 -->
<g id="edge1_Node000001_Node000002" class="edge">
<title>Node1&#45;&gt;Node2</title>
<g id="a_edge1_Node000001_Node000002"><a xlink:title=" ">
<path fill="none" stroke="#63b8ff" d="M327.72,-113.01C274.06,-104.49 194.48,-91.62 115.31,-77.78"/>
<polygon fill="#63b8ff" stroke="#63b8ff" points="116.09,-74.37 105.64,-76.09 114.88,-81.26 116.09,-74.37"/>
</a>
</g>
</g>
<!-- Node5 -->
<g id="Node000005" class="node">
<title>Node5</title>
<g id="a_Node000005"><a xlink:title=" ">
<polygon fill="#e0e0e0" stroke="#999999" points="172.75,-77.5 122.25,-77.5 122.25,-56.75 172.75,-56.75 172.75,-77.5"/>
<text text-anchor="middle" x="147.5" y="-64" font-family="Helvetica,sans-Serif" font-size="10.00">errno.h</text>
</a>
</g>
</g>
<!-- Node1&#45;&gt;Node5 -->
<g id="edge4_Node000001_Node000005" class="edge">
<title>Node1&#45;&gt;Node5</title>
<g id="a_edge4_Node000001_Node000005"><a xlink:title=" ">
<path fill="none" stroke="#63b8ff" d="M342.44,-113.06C302.58,-104.77 244.17,-92.27 183.94,-77.76"/>
<polygon fill="#63b8ff" stroke="#63b8ff" points="185.09,-74.44 174.55,-75.48 183.44,-81.24 185.09,-74.44"/>
</a>
</g>
</g>
<!-- Node6 -->
<g id="Node000006" class="node">
<title>Node6</title>
<g id="a_Node000006"><a xlink:title=" ">
<polygon fill="#e0e0e0" stroke="#999999" points="243.88,-77.5 191.12,-77.5 191.12,-56.75 243.88,-56.75 243.88,-77.5"/>
<text text-anchor="middle" x="217.5" y="-64" font-family="Helvetica,sans-Serif" font-size="10.00">limits.h</text>
</a>
</g>
</g>
<!-- Node1&#45;&gt;Node6 -->
<g id="edge5_Node000001_Node000006" class="edge">
<title>Node1&#45;&gt;Node6</title>
<g id="a_edge5_Node000001_Node000006"><a xlink:title=" ">
<path fill="none" stroke="#63b8ff" d="M359.57,-113.09C330.31,-103.83 286.35,-89.91 255.08,-80.02"/>
<polygon fill="#63b8ff" stroke="#63b8ff" points="256.22,-76.71 245.63,-77.03 254.11,-83.38 256.22,-76.71"/>
</a>
</g>
</g>
<!-- Node7 -->
<g id="Node000007" class="node">
<title>Node7</title>
<g id="a_Node000007"><a xlink:title=" ">
<polygon fill="#e0e0e0" stroke="#999999" points="311,-77.5 262,-77.5 262,-56.75 311,-56.75 311,-77.5"/>
<text text-anchor="middle" x="286.5" y="-64" font-family="Helvetica,sans-Serif" font-size="10.00">stdio.h</text>
</a>
</g>
</g>
<!-- Node1&#45;&gt;Node7 -->
<g id="edge6_Node000001_Node000007" class="edge">
<title>Node1&#45;&gt;Node7</title>
<g id="a_edge6_Node000001_Node000007"><a xlink:title=" ">
<path fill="none" stroke="#63b8ff" d="M371.91,-113.09C356.08,-104.76 333.1,-92.66 314.96,-83.11"/>
<polygon fill="#63b8ff" stroke="#63b8ff" points="316.75,-80.09 306.27,-78.53 313.49,-86.29 316.75,-80.09"/>
</a>
</g>
</g>
<!-- Node8 -->
<g id="Node000008" class="node">
<title>Node8</title>
<g id="a_Node000008"><a xlink:title=" ">
<polygon fill="#e0e0e0" stroke="#999999" points="381.5,-77.5 329.5,-77.5 329.5,-56.75 381.5,-56.75 381.5,-77.5"/>
<text text-anchor="middle" x="355.5" y="-64" font-family="Helvetica,sans-Serif" font-size="10.00">stdlib.h</text>
</a>
</g>
</g>
<!-- Node1&#45;&gt;Node8 -->
<g id="edge7_Node000001_Node000008" class="edge">
<title>Node1&#45;&gt;Node8</title>
<g id="a_edge7_Node000001_Node000008"><a xlink:title=" ">
<path fill="none" stroke="#63b8ff" d="M384.24,-113.09C379.66,-105.92 373.3,-95.98 367.73,-87.26"/>
<polygon fill="#63b8ff" stroke="#63b8ff" points="370.85,-85.64 362.52,-79.1 364.96,-89.41 370.85,-85.64"/>
</a>
</g>
</g>
<!-- Node9 -->
<g id="Node000009" class="node">
<title>Node9</title>
<g id="a_Node000009"><a xlink:title=" ">
<polygon fill="#e0e0e0" stroke="#999999" points="451.88,-77.5 399.12,-77.5 399.12,-56.75 451.88,-56.75 451.88,-77.5"/>
<text text-anchor="middle" x="425.5" y="-64" font-family="Helvetica,sans-Serif" font-size="10.00">string.h</text>
</a>
</g>
</g>
<!-- Node1&#45;&gt;Node9 -->
<g id="edge8_Node000001_Node000009" class="edge">
<title>Node1&#45;&gt;Node9</title>
<g id="a_edge8_Node000001_Node000009"><a xlink:title=" ">
<path fill="none" stroke="#63b8ff" d="M396.76,-113.09C401.34,-105.92 407.7,-95.98 413.27,-87.26"/>
<polygon fill="#63b8ff" stroke="#63b8ff" points="416.04,-89.41 418.48,-79.1 410.15,-85.64 416.04,-89.41"/>
</a>
</g>
</g>
<!-- Node10 -->
<g id="Node000010" class="node">
<title>Node10</title>
<g id="a_Node000010"><a xlink:title=" ">
<polygon fill="#e0e0e0" stroke="#999999" points="523.25,-77.5 469.75,-77.5 469.75,-56.75 523.25,-56.75 523.25,-77.5"/>
<text text-anchor="middle" x="496.5" y="-64" font-family="Helvetica,sans-Serif" font-size="10.00">dirent.h</text>
</a>
</g>
</g>
<!-- Node1&#45;&gt;Node10 -->
<g id="edge9_Node000001_Node000010" class="edge">
<title>Node1&#45;&gt;Node10</title>
<g id="a_edge9_Node000001_Node000010"><a xlink:title=" ">
<path fill="none" stroke="#63b8ff" d="M409.45,-113.09C425.58,-104.76 449,-92.66 467.49,-83.11"/>
<polygon fill="#63b8ff" stroke="#63b8ff" points="469.09,-86.22 476.37,-78.52 465.88,-80 469.09,-86.22"/>
</a>
</g>
</g>
<!-- Node11 -->
<g id="Node000011" class="node">
<title>Node11</title>
<g id="a_Node000011"><a xlink:title=" ">
<polygon fill="#e0e0e0" stroke="#999999" points="596,-77.5 541,-77.5 541,-56.75 596,-56.75 596,-77.5"/>
<text text-anchor="middle" x="568.5" y="-64" font-family="Helvetica,sans-Serif" font-size="10.00">unistd.h</text>
</a>
</g>
</g>
<!-- Node1&#45;&gt;Node11 -->
<g id="edge10_Node000001_Node000011" class="edge">
<title>Node1&#45;&gt;Node11</title>
<g id="a_edge10_Node000001_Node000011"><a xlink:title=" ">
<path fill="none" stroke="#63b8ff" d="M422.32,-113.09C452.47,-103.81 497.79,-89.87 529.97,-79.98"/>
<polygon fill="#63b8ff" stroke="#63b8ff" points="530.78,-83.39 539.31,-77.1 528.72,-76.7 530.78,-83.39"/>
</a>
</g>
</g>
<!-- Node12 -->
<g id="Node000012" class="node">
<title>Node12</title>
<g id="a_Node000012"><a xlink:title=" ">
<polygon fill="#e0e0e0" stroke="#999999" points="677.12,-77.5 613.88,-77.5 613.88,-56.75 677.12,-56.75 677.12,-77.5"/>
<text text-anchor="middle" x="645.5" y="-64" font-family="Helvetica,sans-Serif" font-size="10.00">sys/stat.h</text>
</a>
</g>
</g>
<!-- Node1&#45;&gt;Node12 -->
<g id="edge11_Node000001_Node000012" class="edge">
<title>Node1&#45;&gt;Node12</title>
<g id="a_edge11_Node000001_Node000012"><a xlink:title=" ">
<path fill="none" stroke="#63b8ff" d="M438.39,-113.09C479.53,-104.61 540.73,-91.82 602.51,-78.13"/>
<polygon fill="#63b8ff" stroke="#63b8ff" points="603.16,-81.58 612.16,-75.99 601.64,-74.74 603.16,-81.58"/>
</a>
</g>
</g>
<!-- Node13 -->
<g id="Node000013" class="node">
<title>Node13</title>
<g id="a_Node000013"><a xlink:title=" ">
<polygon fill="#e0e0e0" stroke="#999999" points="748.25,-77.5 694.75,-77.5 694.75,-56.75 748.25,-56.75 748.25,-77.5"/>
<text text-anchor="middle" x="721.5" y="-64" font-family="Helvetica,sans-Serif" font-size="10.00">sched.h</text>
</a>
</g>
</g>
<!-- Node1&#45;&gt;Node13 -->
<g id="edge12_Node000001_Node000013" class="edge">
<title>Node1&#45;&gt;Node13</title>
<g id="a_edge12_Node000001_Node000013"><a xlink:title=" ">
<path fill="none" stroke="#63b8ff" d="M459.67,-114.45C517.26,-106.95 601.61,-94.81 683.21,-78.03"/>
<polygon fill="#63b8ff" stroke="#63b8ff" points="683.88,-81.47 692.96,-76 682.45,-74.61 683.88,-81.47"/>
</a>
</g>
</g>
<!-- Node3 -->
<g id="Node000003" class="node">
<title>Node3</title>
<g id="a_Node000003"><a xlink:title=" ">
<polygon fill="#e0e0e0" stroke="#999999" points="55,-20.75 0,-20.75 0,0 55,0 55,-20.75"/>
<text text-anchor="middle" x="27.5" y="-7.25" font-family="Helvetica,sans-Serif" font-size="10.00">stddef.h</text>
</a>
</g>
</g>
<!-- Node2&#45;&gt;Node3 -->
<g id="edge2_Node000002_Node000003" class="edge">
<title>Node2&#45;&gt;Node3</title>
<g id="a_edge2_Node000002_Node000003"><a xlink:title=" ">
<path fill="none" stroke="#63b8ff" d="M57.06,-56.34C52.35,-49.17 45.81,-39.23 40.08,-30.51"/>
<polygon fill="#63b8ff" stroke="#63b8ff" points="43.13,-28.78 34.71,-22.34 37.28,-32.62 43.13,-28.78"/>
</a>
</g>
</g>
<!-- Node4 -->
<g id="Node000004" class="node">
<title>Node4</title>
<g id="a_Node000004"><a xlink:title=" ">
<polygon fill="#e0e0e0" stroke="#999999" points="125.88,-20.75 73.12,-20.75 73.12,0 125.88,0 125.88,-20.75"/>
<text text-anchor="middle" x="99.5" y="-7.25" font-family="Helvetica,sans-Serif" font-size="10.00">stdint.h</text>
</a>
</g>
</g>
<!-- Node2&#45;&gt;Node4 -->
<g id="edge3_Node000002_Node000004" class="edge">
<title>Node2&#45;&gt;Node4</title>
<g id="a_edge3_Node000002_Node000004"><a xlink:title=" ">
<path fill="none" stroke="#63b8ff" d="M69.94,-56.34C74.65,-49.17 81.19,-39.23 86.92,-30.51"/>
<polygon fill="#63b8ff" stroke="#63b8ff" points="89.72,-32.62 92.29,-22.34 83.87,-28.78 89.72,-32.62"/>
</a>
</g>
</g>
</g>
</svg>
