<?xml version="1.0" encoding="UTF-8" standalone="no"?>
<!DOCTYPE svg PUBLIC "-//W3C//DTD SVG 1.1//EN"
 "http://www.w3.org/Graphics/SVG/1.1/DTD/svg11.dtd">
<!-- Generated by graphviz version 2.43.0 (0)
 -->
<!-- Title: ie_topology_sockets Pages: 1 -->
<svg width="378pt" height="142pt"
 viewBox="0.00 0.00 378.00 142.00" xmlns="http://www.w3.org/2000/svg" xmlns:xlink="http://www.w3.org/1999/xlink">
<g id="graph0" class="graph" transform="scale(1 1) rotate(0) translate(4 138)">
<title>ie_topology_sockets</title>
<!-- Node1 -->
<g id="node1" class="node">
<title>Node1</title>
<g id="a_node1"><a xlink:title="Get number of sockets.">
<polygon fill="#bfbfbf" stroke="black" points="254,-57.5 254,-76.5 370,-76.5 370,-57.5 254,-57.5"/>
<text text-anchor="middle" x="312" y="-64.5" font-family="Helvetica,sans-Serif" font-size="10.00">ie_topology_sockets</text>
</a>
</g>
</g>
<!-- Node2 -->
<g id="node2" class="node">
<title>Node2</title>
<g id="a_node2"><a xlink:href="test__topology_8c.html#a5ee1b69f54e5cd514b91fe5f86788332" target="_top" xlink:title="Dump a short human&#45;readable view of the topology.">
<polygon fill="none" stroke="black" points="101.5,-114.5 101.5,-133.5 193.5,-133.5 193.5,-114.5 101.5,-114.5"/>
<text text-anchor="middle" x="147.5" y="-121.5" font-family="Helvetica,sans-Serif" font-size="10.00">dump_topology</text>
</a>
</g>
</g>
<!-- Node1&#45;&gt;Node2 -->
<g id="edge1" class="edge">
<title>Node1&#45;&gt;Node2</title>
<path fill="none" stroke="midnightblue" d="M274.52,-80.02C257.38,-86.12 236.65,-93.47 218,-100 204.27,-104.81 188.98,-110.09 176.25,-114.48"/>
<polygon fill="midnightblue" stroke="midnightblue" points="275.92,-83.24 284.16,-76.59 273.57,-76.65 275.92,-83.24"/>
</g>
<!-- Node3 -->
<g id="node3" class="node">
<title>Node3</title>
<g id="a_node3"><a xlink:href="test__topology_8c.html#a840291bc02cba5474a4cb46a9b9566fe" target="_top" xlink:title="Main test entry: build topology, print, and basic assertions.">
<polygon fill="none" stroke="black" points="0,-95.5 0,-114.5 41,-114.5 41,-95.5 0,-95.5"/>
<text text-anchor="middle" x="20.5" y="-102.5" font-family="Helvetica,sans-Serif" font-size="10.00">main</text>
</a>
</g>
</g>
<!-- Node1&#45;&gt;Node3 -->
<g id="edge5" class="edge">
<title>Node1&#45;&gt;Node3</title>
<path fill="none" stroke="midnightblue" d="M243.53,-75.86C177.82,-84.48 82.04,-97.05 41.17,-102.42"/>
<polygon fill="midnightblue" stroke="midnightblue" points="244.34,-79.28 253.8,-74.51 243.43,-72.34 244.34,-79.28"/>
</g>
<!-- Node4 -->
<g id="node4" class="node">
<title>Node4</title>
<g id="a_node4"><a xlink:href="replicate__hot_8c.html#a7d3e29b1e9598ce32f191c4379cffe4e" target="_top" xlink:title="Create per&#45;socket replicas of blob using first&#45;touch placement (copy mode).">
<polygon fill="none" stroke="black" points="85.5,-38.5 85.5,-57.5 209.5,-57.5 209.5,-38.5 85.5,-38.5"/>
<text text-anchor="middle" x="147.5" y="-45.5" font-family="Helvetica,sans-Serif" font-size="10.00">ie_hot_replicate_build</text>
</a>
</g>
</g>
<!-- Node1&#45;&gt;Node4 -->
<g id="edge3" class="edge">
<title>Node1&#45;&gt;Node4</title>
<path fill="none" stroke="midnightblue" d="M243.53,-59.11C232.31,-57.8 220.74,-56.45 209.68,-55.15"/>
<polygon fill="midnightblue" stroke="midnightblue" points="243.37,-62.62 253.71,-60.3 244.18,-55.66 243.37,-62.62"/>
</g>
<!-- Node5 -->
<g id="node5" class="node">
<title>Node5</title>
<g id="a_node5"><a xlink:href="replicate__hot_8c.html#a1be4722e05c8e16911d2c3b0e0340098" target="_top" xlink:title="Create per&#45;socket replicas using a caller&#45;provided fill callback (fill mode).">
<polygon fill="none" stroke="black" points="77,-0.5 77,-19.5 218,-19.5 218,-0.5 77,-0.5"/>
<text text-anchor="middle" x="147.5" y="-7.5" font-family="Helvetica,sans-Serif" font-size="10.00">ie_hot_replicate_build_fill</text>
</a>
</g>
</g>
<!-- Node1&#45;&gt;Node5 -->
<g id="edge4" class="edge">
<title>Node1&#45;&gt;Node5</title>
<path fill="none" stroke="midnightblue" d="M280.1,-53.28C262.17,-45.59 239.04,-36.15 218,-29 207.93,-25.58 196.89,-22.34 186.63,-19.53"/>
<polygon fill="midnightblue" stroke="midnightblue" points="278.92,-56.58 289.48,-57.34 281.7,-50.15 278.92,-56.58"/>
</g>
<!-- Node2&#45;&gt;Node3 -->
<g id="edge2" class="edge">
<title>Node2&#45;&gt;Node3</title>
<path fill="none" stroke="midnightblue" d="M91.26,-115.6C73.35,-112.88 54.63,-110.04 41.1,-107.98"/>
<polygon fill="midnightblue" stroke="midnightblue" points="90.96,-119.1 101.37,-117.14 92.01,-112.18 90.96,-119.1"/>
</g>
</g>
</svg>
