<?xml version="1.0" encoding="UTF-8" standalone="no"?>
<!DOCTYPE svg PUBLIC "-//W3C//DTD SVG 1.1//EN"
 "http://www.w3.org/Graphics/SVG/1.1/DTD/svg11.dtd">
<!-- Generated by graphviz version 12.2.1 (20241206.2353)
 -->
<!-- Title: ie_f32u32 Pages: 1 -->
<svg width="64pt" height="79pt"
 viewBox="0.00 0.00 64.00 79.00" xmlns="http://www.w3.org/2000/svg" xmlns:xlink="http://www.w3.org/1999/xlink">
<g id="graph0" class="graph" transform="scale(1 1) rotate(0) translate(4 75)">
<title>ie_f32u32</title>
<!-- Node1 -->
<g id="Node000001" class="node">
<title>Node1</title>
<g id="a_Node000001"><a xlink:title=" ">
<polygon fill="#999999" stroke="none" points="56,-71 0,-71 0,0 56,0 56,-71"/>
<text text-anchor="start" x="4" y="-57.5" font-family="Helvetica,sans-Serif" font-size="10.00">ie_f32u32</text>
<text text-anchor="start" x="11.44" y="-40.75" font-family="Helvetica,sans-Serif" font-size="10.00">+</text>
<text text-anchor="start" x="31.12" y="-40.75" font-family="Helvetica,sans-Serif" font-size="10.00">f</text>
<text text-anchor="start" x="11.44" y="-24" font-family="Helvetica,sans-Serif" font-size="10.00">+</text>
<text text-anchor="start" x="31.12" y="-24" font-family="Helvetica,sans-Serif" font-size="10.00">u</text>
<text text-anchor="start" x="26.5" y="-7.25" font-family="Helvetica,sans-Serif" font-size="10.00"> </text>
<polygon fill="#666666" stroke="#666666" points="0,-52.25 0,-52.25 56,-52.25 56,-52.25 0,-52.25"/>
<polygon fill="#666666" stroke="#666666" points="0,-18.75 0,-18.75 29.12,-18.75 29.12,-18.75 0,-18.75"/>
<polygon fill="#666666" stroke="#666666" points="29.12,-18.75 29.12,-18.75 56,-18.75 56,-18.75 29.12,-18.75"/>
<polygon fill="none" stroke="#666666" points="0,0 0,-71 56,-71 56,0 0,0"/>
</a>
</g>
</g>
</g>
</svg>
