<?xml version="1.0" encoding="UTF-8" standalone="no"?>
<!DOCTYPE svg PUBLIC "-//W3C//DTD SVG 1.1//EN"
 "http://www.w3.org/Graphics/SVG/1.1/DTD/svg11.dtd">
<!-- Generated by graphviz version 2.43.0 (0)
 -->
<!-- Title: engine/src/util_metrics.c Pages: 1 -->
<svg width="777pt" height="196pt"
 viewBox="0.00 0.00 776.50 196.00" xmlns="http://www.w3.org/2000/svg" xmlns:xlink="http://www.w3.org/1999/xlink">
<g id="graph0" class="graph" transform="scale(1 1) rotate(0) translate(4 192)">
<title>engine/src/util_metrics.c</title>
<!-- Node1 -->
<g id="node1" class="node">
<title>Node1</title>
<g id="a_node1"><a xlink:title="Implementation of runtime metrics (KV counters + RSS sampling).">
<polygon fill="#bfbfbf" stroke="black" points="312,-168.5 312,-187.5 448,-187.5 448,-168.5 312,-168.5"/>
<text text-anchor="middle" x="380" y="-175.5" font-family="Helvetica,sans-Serif" font-size="10.00">engine/src/util_metrics.c</text>
</a>
</g>
</g>
<!-- Node2 -->
<g id="node2" class="node">
<title>Node2</title>
<g id="a_node2"><a xlink:href="util__metrics_8h.html" target="_top" xlink:title="Public helpers for runtime metrics (KV counters + RSS sampling).">
<polygon fill="none" stroke="black" points="18.5,-112.5 18.5,-131.5 101.5,-131.5 101.5,-112.5 18.5,-112.5"/>
<text text-anchor="middle" x="60" y="-119.5" font-family="Helvetica,sans-Serif" font-size="10.00">util_metrics.h</text>
</a>
</g>
</g>
<!-- Node1&#45;&gt;Node2 -->
<g id="edge1" class="edge">
<title>Node1&#45;&gt;Node2</title>
<path fill="none" stroke="midnightblue" d="M329.3,-168.44C269.82,-158.41 171.75,-141.86 111.81,-131.74"/>
<polygon fill="midnightblue" stroke="midnightblue" points="112.24,-128.27 101.8,-130.05 111.08,-135.17 112.24,-128.27"/>
</g>
<!-- Node3 -->
<g id="node3" class="node">
<title>Node3</title>
<g id="a_node3"><a xlink:title=" ">
<polygon fill="none" stroke="#bfbfbf" points="74.5,-0.5 74.5,-19.5 127.5,-19.5 127.5,-0.5 74.5,-0.5"/>
<text text-anchor="middle" x="101" y="-7.5" font-family="Helvetica,sans-Serif" font-size="10.00">stdint.h</text>
</a>
</g>
</g>
<!-- Node1&#45;&gt;Node3 -->
<g id="edge7" class="edge">
<title>Node1&#45;&gt;Node3</title>
<path fill="none" stroke="midnightblue" d="M311.88,-170.96C252.91,-164.45 173.37,-152.22 149,-132 117.65,-105.98 106.65,-56.62 102.89,-29.68"/>
<polygon fill="midnightblue" stroke="midnightblue" points="106.35,-29.15 101.68,-19.64 99.4,-29.99 106.35,-29.15"/>
</g>
<!-- Node6 -->
<g id="node6" class="node">
<title>Node6</title>
<g id="a_node6"><a xlink:title=" ">
<polygon fill="none" stroke="#bfbfbf" points="158,-112.5 158,-131.5 232,-131.5 232,-112.5 158,-112.5"/>
<text text-anchor="middle" x="195" y="-119.5" font-family="Helvetica,sans-Serif" font-size="10.00">stdatomic.h</text>
</a>
</g>
</g>
<!-- Node1&#45;&gt;Node6 -->
<g id="edge6" class="edge">
<title>Node1&#45;&gt;Node6</title>
<path fill="none" stroke="midnightblue" d="M350.69,-168.44C319.16,-159.24 268.87,-144.56 234.01,-134.39"/>
<polygon fill="midnightblue" stroke="midnightblue" points="234.76,-130.96 224.18,-131.52 232.8,-137.68 234.76,-130.96"/>
</g>
<!-- Node7 -->
<g id="node7" class="node">
<title>Node7</title>
<g id="a_node7"><a xlink:title=" ">
<polygon fill="none" stroke="#bfbfbf" points="250,-112.5 250,-131.5 300,-131.5 300,-112.5 250,-112.5"/>
<text text-anchor="middle" x="275" y="-119.5" font-family="Helvetica,sans-Serif" font-size="10.00">stdio.h</text>
</a>
</g>
</g>
<!-- Node1&#45;&gt;Node7 -->
<g id="edge8" class="edge">
<title>Node1&#45;&gt;Node7</title>
<path fill="none" stroke="midnightblue" d="M363.13,-168.32C346.29,-159.66 320.19,-146.24 300.76,-136.25"/>
<polygon fill="midnightblue" stroke="midnightblue" points="302.32,-133.12 291.83,-131.65 299.12,-139.34 302.32,-133.12"/>
</g>
<!-- Node8 -->
<g id="node8" class="node">
<title>Node8</title>
<g id="a_node8"><a xlink:title=" ">
<polygon fill="none" stroke="#bfbfbf" points="318.5,-112.5 318.5,-131.5 371.5,-131.5 371.5,-112.5 318.5,-112.5"/>
<text text-anchor="middle" x="345" y="-119.5" font-family="Helvetica,sans-Serif" font-size="10.00">string.h</text>
</a>
</g>
</g>
<!-- Node1&#45;&gt;Node8 -->
<g id="edge9" class="edge">
<title>Node1&#45;&gt;Node8</title>
<path fill="none" stroke="midnightblue" d="M374.22,-168.08C369.33,-160.53 362.17,-149.49 356.17,-140.23"/>
<polygon fill="midnightblue" stroke="midnightblue" points="359.05,-138.24 350.67,-131.75 353.17,-142.05 359.05,-138.24"/>
</g>
<!-- Node9 -->
<g id="node9" class="node">
<title>Node9</title>
<g id="a_node9"><a xlink:title=" ">
<polygon fill="none" stroke="#bfbfbf" points="389.5,-112.5 389.5,-131.5 440.5,-131.5 440.5,-112.5 389.5,-112.5"/>
<text text-anchor="middle" x="415" y="-119.5" font-family="Helvetica,sans-Serif" font-size="10.00">errno.h</text>
</a>
</g>
</g>
<!-- Node1&#45;&gt;Node9 -->
<g id="edge10" class="edge">
<title>Node1&#45;&gt;Node9</title>
<path fill="none" stroke="midnightblue" d="M385.78,-168.08C390.67,-160.53 397.83,-149.49 403.83,-140.23"/>
<polygon fill="midnightblue" stroke="midnightblue" points="406.83,-142.05 409.33,-131.75 400.95,-138.24 406.83,-142.05"/>
</g>
<!-- Node10 -->
<g id="node10" class="node">
<title>Node10</title>
<g id="a_node10"><a xlink:title=" ">
<polygon fill="none" stroke="#bfbfbf" points="458.5,-112.5 458.5,-131.5 511.5,-131.5 511.5,-112.5 458.5,-112.5"/>
<text text-anchor="middle" x="485" y="-119.5" font-family="Helvetica,sans-Serif" font-size="10.00">stdlib.h</text>
</a>
</g>
</g>
<!-- Node1&#45;&gt;Node10 -->
<g id="edge11" class="edge">
<title>Node1&#45;&gt;Node10</title>
<path fill="none" stroke="midnightblue" d="M396.87,-168.32C413.71,-159.66 439.81,-146.24 459.24,-136.25"/>
<polygon fill="midnightblue" stroke="midnightblue" points="460.88,-139.34 468.17,-131.65 457.68,-133.12 460.88,-139.34"/>
</g>
<!-- Node11 -->
<g id="node11" class="node">
<title>Node11</title>
<g id="a_node11"><a xlink:title=" ">
<polygon fill="none" stroke="#bfbfbf" points="530,-112.5 530,-131.5 586,-131.5 586,-112.5 530,-112.5"/>
<text text-anchor="middle" x="558" y="-119.5" font-family="Helvetica,sans-Serif" font-size="10.00">stdarg.h</text>
</a>
</g>
</g>
<!-- Node1&#45;&gt;Node11 -->
<g id="edge12" class="edge">
<title>Node1&#45;&gt;Node11</title>
<path fill="none" stroke="midnightblue" d="M408.2,-168.44C438.41,-159.28 486.51,-144.69 520.03,-134.52"/>
<polygon fill="midnightblue" stroke="midnightblue" points="521.37,-137.77 529.93,-131.52 519.34,-131.07 521.37,-137.77"/>
</g>
<!-- Node12 -->
<g id="node12" class="node">
<title>Node12</title>
<g id="a_node12"><a xlink:title=" ">
<polygon fill="none" stroke="#bfbfbf" points="604.5,-112.5 604.5,-131.5 663.5,-131.5 663.5,-112.5 604.5,-112.5"/>
<text text-anchor="middle" x="634" y="-119.5" font-family="Helvetica,sans-Serif" font-size="10.00">strings.h</text>
</a>
</g>
</g>
<!-- Node1&#45;&gt;Node12 -->
<g id="edge13" class="edge">
<title>Node1&#45;&gt;Node12</title>
<path fill="none" stroke="midnightblue" d="M422.08,-168.46C463.34,-160.02 528.3,-146.59 594.07,-132.17"/>
<polygon fill="midnightblue" stroke="midnightblue" points="595.19,-135.51 604.2,-129.94 593.69,-128.67 595.19,-135.51"/>
</g>
<!-- Node13 -->
<g id="node13" class="node">
<title>Node13</title>
<g id="a_node13"><a xlink:title=" ">
<polygon fill="none" stroke="#bfbfbf" points="681.5,-112.5 681.5,-131.5 768.5,-131.5 768.5,-112.5 681.5,-112.5"/>
<text text-anchor="middle" x="725" y="-119.5" font-family="Helvetica,sans-Serif" font-size="10.00">sys/resource.h</text>
</a>
</g>
</g>
<!-- Node1&#45;&gt;Node13 -->
<g id="edge14" class="edge">
<title>Node1&#45;&gt;Node13</title>
<path fill="none" stroke="midnightblue" d="M437.59,-168.48C494.52,-159.99 584.38,-146.39 671.28,-132.26"/>
<polygon fill="midnightblue" stroke="midnightblue" points="672.01,-135.69 681.32,-130.62 670.88,-128.78 672.01,-135.69"/>
</g>
<!-- Node2&#45;&gt;Node3 -->
<g id="edge2" class="edge">
<title>Node2&#45;&gt;Node3</title>
<path fill="none" stroke="midnightblue" d="M63.22,-112.37C69.86,-94.54 85.24,-53.3 94.19,-29.27"/>
<polygon fill="midnightblue" stroke="midnightblue" points="97.58,-30.18 97.8,-19.59 91.03,-27.74 97.58,-30.18"/>
</g>
<!-- Node4 -->
<g id="node4" class="node">
<title>Node4</title>
<g id="a_node4"><a xlink:href="ie__api_8h.html" target="_top" xlink:title="Public C API for the inference engine (minimal surface used by CLI/tests).">
<polygon fill="none" stroke="black" points="8.5,-56.5 8.5,-75.5 63.5,-75.5 63.5,-56.5 8.5,-56.5"/>
<text text-anchor="middle" x="36" y="-63.5" font-family="Helvetica,sans-Serif" font-size="10.00">ie_api.h</text>
</a>
</g>
</g>
<!-- Node2&#45;&gt;Node4 -->
<g id="edge3" class="edge">
<title>Node2&#45;&gt;Node4</title>
<path fill="none" stroke="midnightblue" d="M56.04,-112.08C52.79,-104.77 48.08,-94.18 44.05,-85.1"/>
<polygon fill="midnightblue" stroke="midnightblue" points="47.15,-83.47 39.89,-75.75 40.75,-86.31 47.15,-83.47"/>
</g>
<!-- Node4&#45;&gt;Node3 -->
<g id="edge5" class="edge">
<title>Node4&#45;&gt;Node3</title>
<path fill="none" stroke="midnightblue" d="M46.44,-56.32C56.15,-48.26 70.82,-36.08 82.5,-26.37"/>
<polygon fill="midnightblue" stroke="midnightblue" points="84.91,-28.92 90.37,-19.83 80.44,-23.53 84.91,-28.92"/>
</g>
<!-- Node5 -->
<g id="node5" class="node">
<title>Node5</title>
<g id="a_node5"><a xlink:title=" ">
<polygon fill="none" stroke="#bfbfbf" points="0,-0.5 0,-19.5 56,-19.5 56,-0.5 0,-0.5"/>
<text text-anchor="middle" x="28" y="-7.5" font-family="Helvetica,sans-Serif" font-size="10.00">stddef.h</text>
</a>
</g>
</g>
<!-- Node4&#45;&gt;Node5 -->
<g id="edge4" class="edge">
<title>Node4&#45;&gt;Node5</title>
<path fill="none" stroke="midnightblue" d="M34.68,-56.08C33.62,-48.93 32.09,-38.64 30.77,-29.69"/>
<polygon fill="midnightblue" stroke="midnightblue" points="34.22,-29.13 29.3,-19.75 27.3,-30.16 34.22,-29.13"/>
</g>
</g>
</svg>
