<?xml version="1.0" encoding="UTF-8" standalone="no"?>
<!DOCTYPE svg PUBLIC "-//W3C//DTD SVG 1.1//EN"
 "http://www.w3.org/Graphics/SVG/1.1/DTD/svg11.dtd">
<!-- Generated by graphviz version 2.43.0 (0)
 -->
<!-- Title: engine/include/util_metrics.h Pages: 1 -->
<svg width="292pt" height="95pt"
 viewBox="0.00 0.00 292.00 95.00" xmlns="http://www.w3.org/2000/svg" xmlns:xlink="http://www.w3.org/1999/xlink">
<g id="graph0" class="graph" transform="scale(1 1) rotate(0) translate(4 91)">
<title>engine/include/util_metrics.h</title>
<!-- Node1 -->
<g id="node1" class="node">
<title>Node1</title>
<g id="a_node1"><a xlink:title="Public helpers for runtime metrics (KV counters + RSS sampling).">
<polygon fill="#bfbfbf" stroke="black" points="86.5,-56.5 86.5,-86.5 193.5,-86.5 193.5,-56.5 86.5,-56.5"/>
<text text-anchor="start" x="94.5" y="-74.5" font-family="Helvetica,sans-Serif" font-size="10.00">engine/include/util</text>
<text text-anchor="middle" x="140" y="-63.5" font-family="Helvetica,sans-Serif" font-size="10.00">_metrics.h</text>
</a>
</g>
</g>
<!-- Node2 -->
<g id="node2" class="node">
<title>Node2</title>
<g id="a_node2"><a xlink:href="main__infer_8c.html" target="_top" xlink:title="CLI entry point for the inference engine (benchmark&#45;friendly).">
<polygon fill="none" stroke="black" points="0,-0.5 0,-19.5 130,-19.5 130,-0.5 0,-0.5"/>
<text text-anchor="middle" x="65" y="-7.5" font-family="Helvetica,sans-Serif" font-size="10.00">engine/src/main_infer.c</text>
</a>
</g>
</g>
<!-- Node1&#45;&gt;Node2 -->
<g id="edge1" class="edge">
<title>Node1&#45;&gt;Node2</title>
<path fill="none" stroke="midnightblue" d="M114.03,-49.89C100.98,-39.54 85.87,-27.56 75.91,-19.66"/>
<polygon fill="midnightblue" stroke="midnightblue" points="112.22,-52.93 122.23,-56.4 116.57,-47.44 112.22,-52.93"/>
</g>
<!-- Node3 -->
<g id="node3" class="node">
<title>Node3</title>
<g id="a_node3"><a xlink:href="util__metrics_8c.html" target="_top" xlink:title="Implementation of runtime metrics (KV counters + RSS sampling).">
<polygon fill="none" stroke="black" points="148,-0.5 148,-19.5 284,-19.5 284,-0.5 148,-0.5"/>
<text text-anchor="middle" x="216" y="-7.5" font-family="Helvetica,sans-Serif" font-size="10.00">engine/src/util_metrics.c</text>
</a>
</g>
</g>
<!-- Node1&#45;&gt;Node3 -->
<g id="edge2" class="edge">
<title>Node1&#45;&gt;Node3</title>
<path fill="none" stroke="midnightblue" d="M165.94,-50.19C179.25,-39.77 194.75,-27.63 204.94,-19.66"/>
<polygon fill="midnightblue" stroke="midnightblue" points="163.73,-47.48 158.01,-56.4 168.04,-52.99 163.73,-47.48"/>
</g>
</g>
</svg>
