<?xml version="1.0" encoding="UTF-8" standalone="no"?>
<!DOCTYPE svg PUBLIC "-//W3C//DTD SVG 1.1//EN"
 "http://www.w3.org/Graphics/SVG/1.1/DTD/svg11.dtd">
<!-- Generated by graphviz version 2.43.0 (0)
 -->
<!-- Title: read_proc_kb_single Pages: 1 -->
<svg width="440pt" height="52pt"
 viewBox="0.00 0.00 440.00 51.50" xmlns="http://www.w3.org/2000/svg" xmlns:xlink="http://www.w3.org/1999/xlink">
<g id="graph0" class="graph" transform="scale(1 1) rotate(0) translate(4 47.5)">
<title>read_proc_kb_single</title>
<!-- Node1 -->
<g id="Node000001" class="node">
<title>Node1</title>
<g id="a_Node000001"><a xlink:title="Read a single numeric (KiB) field from a procfs text file.">
<polygon fill="#999999" stroke="#666666" points="116,-38 0,-38 0,-19 116,-19 116,-38"/>
<text text-anchor="middle" x="58" y="-26" font-family="Helvetica,sans-Serif" font-size="10.00">read_proc_kb_single</text>
</a>
</g>
</g>
<!-- Node2 -->
<g id="Node000002" class="node">
<title>Node2</title>
<g id="a_Node000002"><a xlink:href="ie__device__cuda_8cu.html#a5e3d9fee84981707669f5c2398f0c4ab" target="_top" xlink:title="Row&#45;wise GEMV kernel: each thread computes one output row.">
<polygon fill="white" stroke="#666666" points="432,-43.5 307,-43.5 307,-13.5 432,-13.5 432,-43.5"/>
<text text-anchor="start" x="315" y="-31.5" font-family="Helvetica,sans-Serif" font-size="10.00">ie_gemv_rowwise_f32</text>
<text text-anchor="middle" x="369.5" y="-20.5" font-family="Helvetica,sans-Serif" font-size="10.00">_kernel</text>
</a>
</g>
</g>
<!-- Node1&#45;&gt;Node2 -->
<g id="edge1_Node000001_Node000002" class="edge">
<title>Node1&#45;&gt;Node2</title>
<g id="a_edge1_Node000001_Node000002"><a xlink:title=" ">
<path fill="none" stroke="#63b8ff" d="M116.13,-28.5C167.1,-28.5 241.96,-28.5 296.91,-28.5"/>
<polygon fill="#63b8ff" stroke="#63b8ff" points="296.93,-32 306.93,-28.5 296.93,-25 296.93,-32"/>
</a>
</g>
</g>
<!-- Node3 -->
<g id="Node000003" class="node">
<title>Node3</title>
<g id="a_Node000003"><a xlink:href="util__metrics_8c.html#a586d223d4a6c80952b53d76d31adccc2" target="_top" xlink:title="Parse an integer KiB value from a &quot;Key: &#160;12345 kB&quot; style procfs line.">
<polygon fill="white" stroke="#666666" points="271,-19 152,-19 152,0 271,0 271,-19"/>
<text text-anchor="middle" x="211.5" y="-7" font-family="Helvetica,sans-Serif" font-size="10.00">parse_status_kb_line</text>
</a>
</g>
</g>
<!-- Node1&#45;&gt;Node3 -->
<g id="edge2_Node000001_Node000003" class="edge">
<title>Node1&#45;&gt;Node3</title>
<g id="a_edge2_Node000001_Node000003"><a xlink:title=" ">
<path fill="none" stroke="#63b8ff" d="M116.28,-21.32C124.65,-20.27 133.34,-19.18 141.91,-18.1"/>
<polygon fill="#63b8ff" stroke="#63b8ff" points="142.4,-21.57 151.88,-16.85 141.53,-14.62 142.4,-21.57"/>
</a>
</g>
</g>
<!-- Node3&#45;&gt;Node2 -->
<g id="edge3_Node000003_Node000002" class="edge">
<title>Node3&#45;&gt;Node2</title>
<g id="a_edge3_Node000003_Node000002"><a xlink:title=" ">
<path fill="none" stroke="#63b8ff" d="M271.03,-16.63C279.42,-17.65 288.13,-18.71 296.74,-19.76"/>
<polygon fill="#63b8ff" stroke="#63b8ff" points="296.42,-23.25 306.77,-20.98 297.27,-16.3 296.42,-23.25"/>
</a>
</g>
</g>
</g>
</svg>
