<?xml version="1.0" encoding="UTF-8" standalone="no"?>
<!DOCTYPE svg PUBLIC "-//W3C//DTD SVG 1.1//EN"
 "http://www.w3.org/Graphics/SVG/1.1/DTD/svg11.dtd">
<!-- Generated by graphviz version 2.43.0 (0)
 -->
<!-- Title: ie_metrics_sample_rss_peak Pages: 1 -->
<svg width="634pt" height="217pt"
 viewBox="0.00 0.00 634.00 217.00" xmlns="http://www.w3.org/2000/svg" xmlns:xlink="http://www.w3.org/1999/xlink">
<g id="graph0" class="graph" transform="scale(1 1) rotate(0) translate(4 213)">
<title>ie_metrics_sample_rss_peak</title>
<!-- Node1 -->
<g id="Node000001" class="node">
<title>Node1</title>
<g id="a_Node000001"><a xlink:title="Sample best&#45;effort process peak RSS in MiB.">
<polygon fill="#999999" stroke="#666666" points="158,-114 0,-114 0,-95 158,-95 158,-114"/>
<text text-anchor="middle" x="79" y="-102" font-family="Helvetica,sans-Serif" font-size="10.00">ie_metrics_sample_rss_peak</text>
</a>
</g>
</g>
<!-- Node2 -->
<g id="Node000002" class="node">
<title>Node2</title>
<g id="a_Node000002"><a xlink:href="util__metrics_8c.html#aad9404d49721a4fdd407e2eff25b6489" target="_top" xlink:title="Debug print controlled by IE_DEBUG_RSS=1.">
<polygon fill="white" stroke="#666666" points="269.5,-171 234.5,-171 234.5,-152 269.5,-152 269.5,-171"/>
<text text-anchor="middle" x="252" y="-159" font-family="Helvetica,sans-Serif" font-size="10.00">dbg</text>
</a>
</g>
</g>
<!-- Node1&#45;&gt;Node2 -->
<g id="edge1_Node000001_Node000002" class="edge">
<title>Node1&#45;&gt;Node2</title>
<g id="a_edge1_Node000001_Node000002"><a xlink:title=" ">
<path fill="none" stroke="#63b8ff" d="M108.62,-114.04C140.91,-124.8 193.01,-142.17 224.43,-152.64"/>
<polygon fill="#63b8ff" stroke="#63b8ff" points="223.64,-156.07 234.23,-155.91 225.85,-149.43 223.64,-156.07"/>
</a>
</g>
</g>
<!-- Node4 -->
<g id="Node000004" class="node">
<title>Node4</title>
<g id="a_Node000004"><a xlink:href="ie__device__cuda_8cu.html#a5e3d9fee84981707669f5c2398f0c4ab" target="_top" xlink:title="Row&#45;wise GEMV kernel: each thread computes one output row.">
<polygon fill="white" stroke="#666666" points="626,-119.5 501,-119.5 501,-89.5 626,-89.5 626,-119.5"/>
<text text-anchor="start" x="509" y="-107.5" font-family="Helvetica,sans-Serif" font-size="10.00">ie_gemv_rowwise_f32</text>
<text text-anchor="middle" x="563.5" y="-96.5" font-family="Helvetica,sans-Serif" font-size="10.00">_kernel</text>
</a>
</g>
</g>
<!-- Node1&#45;&gt;Node4 -->
<g id="edge5_Node000001_Node000004" class="edge">
<title>Node1&#45;&gt;Node4</title>
<g id="a_edge5_Node000001_Node000004"><a xlink:title=" ">
<path fill="none" stroke="#63b8ff" d="M158.18,-106.83C170.18,-107.11 182.42,-107.35 194,-107.5 297.1,-108.86 416.44,-107.32 490.71,-105.99"/>
<polygon fill="#63b8ff" stroke="#63b8ff" points="490.95,-109.48 500.88,-105.8 490.82,-102.49 490.95,-109.48"/>
</a>
</g>
</g>
<!-- Node5 -->
<g id="Node000005" class="node">
<title>Node5</title>
<g id="a_Node000005"><a xlink:href="util__metrics_8c.html#a5994eb8315fd500be4501693592b9c5a" target="_top" xlink:title="Round up KiB to MiB using ceil(), clamped to 32&#45;bit.">
<polygon fill="white" stroke="#666666" points="452,-95 359,-95 359,-76 452,-76 452,-95"/>
<text text-anchor="middle" x="405.5" y="-83" font-family="Helvetica,sans-Serif" font-size="10.00">kib_to_mib_ceil</text>
</a>
</g>
</g>
<!-- Node1&#45;&gt;Node5 -->
<g id="edge6_Node000001_Node000005" class="edge">
<title>Node1&#45;&gt;Node5</title>
<g id="a_edge6_Node000001_Node000005"><a xlink:title=" ">
<path fill="none" stroke="#63b8ff" d="M158.14,-99.92C216.86,-96.49 295.9,-91.86 348.45,-88.78"/>
<polygon fill="#63b8ff" stroke="#63b8ff" points="348.81,-92.27 358.59,-88.19 348.4,-85.28 348.81,-92.27"/>
</a>
</g>
</g>
<!-- Node6 -->
<g id="Node000006" class="node">
<title>Node6</title>
<g id="a_Node000006"><a xlink:href="util__metrics_8c.html#a68100912a526773182982dfe9e401718" target="_top" xlink:title="Read a single numeric (KiB) field from a procfs text file.">
<polygon fill="white" stroke="#666666" points="310,-57 194,-57 194,-38 310,-38 310,-57"/>
<text text-anchor="middle" x="252" y="-45" font-family="Helvetica,sans-Serif" font-size="10.00">read_proc_kb_single</text>
</a>
</g>
</g>
<!-- Node1&#45;&gt;Node6 -->
<g id="edge8_Node000001_Node000006" class="edge">
<title>Node1&#45;&gt;Node6</title>
<g id="a_edge8_Node000001_Node000006"><a xlink:title=" ">
<path fill="none" stroke="#63b8ff" d="M108.62,-94.96C137.1,-85.47 181,-70.83 212.52,-60.33"/>
<polygon fill="#63b8ff" stroke="#63b8ff" points="213.91,-63.55 222.29,-57.07 211.69,-56.91 213.91,-63.55"/>
</a>
</g>
</g>
<!-- Node3 -->
<g id="Node000003" class="node">
<title>Node3</title>
<g id="a_Node000003"><a xlink:href="util__metrics_8c.html#a122cec7f60fc2c07fdfcc3df4032b791" target="_top" xlink:title="Return 1 if the environment variable name is a truthy flag.">
<polygon fill="white" stroke="#666666" points="434.5,-209 376.5,-209 376.5,-190 434.5,-190 434.5,-209"/>
<text text-anchor="middle" x="405.5" y="-197" font-family="Helvetica,sans-Serif" font-size="10.00">env_flag</text>
</a>
</g>
</g>
<!-- Node2&#45;&gt;Node3 -->
<g id="edge2_Node000002_Node000003" class="edge">
<title>Node2&#45;&gt;Node3</title>
<g id="a_edge2_Node000002_Node000003"><a xlink:title=" ">
<path fill="none" stroke="#63b8ff" d="M269.5,-165.64C292.58,-171.43 335.18,-182.11 366.37,-189.94"/>
<polygon fill="#63b8ff" stroke="#63b8ff" points="365.91,-193.43 376.46,-192.47 367.62,-186.64 365.91,-193.43"/>
</a>
</g>
</g>
<!-- Node2&#45;&gt;Node4 -->
<g id="edge4_Node000002_Node000004" class="edge">
<title>Node2&#45;&gt;Node4</title>
<g id="a_edge4_Node000002_Node000004"><a xlink:title=" ">
<path fill="none" stroke="#63b8ff" d="M269.69,-160.82C305.75,-159.09 393.42,-153.47 465,-137.5 481.47,-133.83 499.05,-128.37 514.68,-122.95"/>
<polygon fill="#63b8ff" stroke="#63b8ff" points="515.88,-126.24 524.14,-119.6 513.54,-119.65 515.88,-126.24"/>
</a>
</g>
</g>
<!-- Node3&#45;&gt;Node4 -->
<g id="edge3_Node000003_Node000004" class="edge">
<title>Node3&#45;&gt;Node4</title>
<g id="a_edge3_Node000003_Node000004"><a xlink:title=" ">
<path fill="none" stroke="#63b8ff" d="M433.63,-189.94C443.73,-185.98 455.13,-181.01 465,-175.5 490.64,-161.18 517.45,-141.24 536.45,-126.14"/>
<polygon fill="#63b8ff" stroke="#63b8ff" points="538.75,-128.78 544.34,-119.78 534.36,-123.33 538.75,-128.78"/>
</a>
</g>
</g>
<!-- Node5&#45;&gt;Node4 -->
<g id="edge7_Node000005_Node000004" class="edge">
<title>Node5&#45;&gt;Node4</title>
<g id="a_edge7_Node000005_Node000004"><a xlink:title=" ">
<path fill="none" stroke="#63b8ff" d="M452.04,-91.05C464.22,-92.53 477.69,-94.17 490.91,-95.78"/>
<polygon fill="#63b8ff" stroke="#63b8ff" points="490.6,-99.27 500.95,-97 491.45,-92.32 490.6,-99.27"/>
</a>
</g>
</g>
<!-- Node6&#45;&gt;Node4 -->
<g id="edge9_Node000006_Node000004" class="edge">
<title>Node6&#45;&gt;Node4</title>
<g id="a_edge9_Node000006_Node000004"><a xlink:title=" ">
<path fill="none" stroke="#63b8ff" d="M310.35,-48.75C353.39,-50.69 413.51,-55.53 465,-67.5 483.43,-71.78 503.06,-78.73 519.83,-85.46"/>
<polygon fill="#63b8ff" stroke="#63b8ff" points="518.77,-88.81 529.35,-89.37 521.43,-82.34 518.77,-88.81"/>
</a>
</g>
</g>
<!-- Node7 -->
<g id="Node000007" class="node">
<title>Node7</title>
<g id="a_Node000007"><a xlink:href="util__metrics_8c.html#a586d223d4a6c80952b53d76d31adccc2" target="_top" xlink:title="Parse an integer KiB value from a &quot;Key: &#160;12345 kB&quot; style procfs line.">
<polygon fill="white" stroke="#666666" points="465,-19 346,-19 346,0 465,0 465,-19"/>
<text text-anchor="middle" x="405.5" y="-7" font-family="Helvetica,sans-Serif" font-size="10.00">parse_status_kb_line</text>
</a>
</g>
</g>
<!-- Node6&#45;&gt;Node7 -->
<g id="edge10_Node000006_Node000007" class="edge">
<title>Node6&#45;&gt;Node7</title>
<g id="a_edge10_Node000006_Node000007"><a xlink:title=" ">
<path fill="none" stroke="#63b8ff" d="M291.23,-37.91C311.13,-32.92 335.66,-26.77 356.79,-21.47"/>
<polygon fill="#63b8ff" stroke="#63b8ff" points="357.7,-24.85 366.55,-19.02 355.99,-18.06 357.7,-24.85"/>
</a>
</g>
</g>
<!-- Node7&#45;&gt;Node4 -->
<g id="edge11_Node000007_Node000004" class="edge">
<title>Node7&#45;&gt;Node4</title>
<g id="a_edge11_Node000007_Node000004"><a xlink:title=" ">
<path fill="none" stroke="#63b8ff" d="M433.63,-19.06C443.73,-23.02 455.13,-27.99 465,-33.5 490.64,-47.82 517.45,-67.76 536.45,-82.86"/>
<polygon fill="#63b8ff" stroke="#63b8ff" points="534.36,-85.67 544.34,-89.22 538.75,-80.22 534.36,-85.67"/>
</a>
</g>
</g>
</g>
</svg>
