<?xml version="1.0" encoding="UTF-8" standalone="no"?>
<!DOCTYPE svg PUBLIC "-//W3C//DTD SVG 1.1//EN"
 "http://www.w3.org/Graphics/SVG/1.1/DTD/svg11.dtd">
<!-- Generated by graphviz version 2.43.0 (0)
 -->
<!-- Title: engine/include/util_logging.h Pages: 1 -->
<svg width="288pt" height="106pt"
 viewBox="0.00 0.00 287.50 106.00" xmlns="http://www.w3.org/2000/svg" xmlns:xlink="http://www.w3.org/1999/xlink">
<g id="graph0" class="graph" transform="scale(1 1) rotate(0) translate(4 102)">
<title>engine/include/util_logging.h</title>
<!-- Node1 -->
<g id="node1" class="node">
<title>Node1</title>
<g id="a_node1"><a xlink:title="Minimal logging interface (printf&#45;style), used by CLI and tests.">
<polygon fill="#bfbfbf" stroke="black" points="85.5,-67.5 85.5,-97.5 192.5,-97.5 192.5,-67.5 85.5,-67.5"/>
<text text-anchor="start" x="93.5" y="-85.5" font-family="Helvetica,sans-Serif" font-size="10.00">engine/include/util</text>
<text text-anchor="middle" x="139" y="-74.5" font-family="Helvetica,sans-Serif" font-size="10.00">_logging.h</text>
</a>
</g>
</g>
<!-- Node2 -->
<g id="node2" class="node">
<title>Node2</title>
<g id="a_node2"><a xlink:href="main__infer_8c.html" target="_top" xlink:title="CLI entry point for the inference engine (benchmark&#45;friendly).">
<polygon fill="none" stroke="black" points="0,-6 0,-25 130,-25 130,-6 0,-6"/>
<text text-anchor="middle" x="65" y="-13" font-family="Helvetica,sans-Serif" font-size="10.00">engine/src/main_infer.c</text>
</a>
</g>
</g>
<!-- Node1&#45;&gt;Node2 -->
<g id="edge1" class="edge">
<title>Node1&#45;&gt;Node2</title>
<path fill="none" stroke="midnightblue" d="M115.29,-60.67C101.63,-48.67 85.17,-34.22 74.9,-25.19"/>
<polygon fill="midnightblue" stroke="midnightblue" points="113.12,-63.43 122.94,-67.4 117.74,-58.17 113.12,-63.43"/>
</g>
<!-- Node3 -->
<g id="node3" class="node">
<title>Node3</title>
<g id="a_node3"><a xlink:href="replicate__hot_8c.html" target="_top" xlink:title="Replication of hot weights per socket using first&#45;touch placement.">
<polygon fill="none" stroke="black" points="148.5,-0.5 148.5,-30.5 279.5,-30.5 279.5,-0.5 148.5,-0.5"/>
<text text-anchor="start" x="156.5" y="-18.5" font-family="Helvetica,sans-Serif" font-size="10.00">engine/src/opt/replicate</text>
<text text-anchor="middle" x="214" y="-7.5" font-family="Helvetica,sans-Serif" font-size="10.00">_hot.c</text>
</a>
</g>
</g>
<!-- Node1&#45;&gt;Node3 -->
<g id="edge2" class="edge">
<title>Node1&#45;&gt;Node3</title>
<path fill="none" stroke="midnightblue" d="M163.12,-60.6C174.44,-50.78 187.64,-39.34 197.76,-30.58"/>
<polygon fill="midnightblue" stroke="midnightblue" points="160.54,-58.2 155.27,-67.4 165.12,-63.49 160.54,-58.2"/>
</g>
</g>
</svg>
