<?xml version="1.0" encoding="UTF-8" standalone="no"?>
<!DOCTYPE svg PUBLIC "-//W3C//DTD SVG 1.1//EN"
 "http://www.w3.org/Graphics/SVG/1.1/DTD/svg11.dtd">
<!-- Generated by graphviz version 2.43.0 (0)
 -->
<!-- Title: engine/src/util_metrics.c Pages: 1 -->
<svg width="777pt" height="192pt"
 viewBox="0.00 0.00 776.50 192.00" xmlns="http://www.w3.org/2000/svg" xmlns:xlink="http://www.w3.org/1999/xlink">
<g id="graph0" class="graph" transform="scale(1 1) rotate(0) translate(4 188)">
<title>engine/src/util_metrics.c</title>
<!-- Node1 -->
<g id="Node000001" class="node">
<title>Node1</title>
<g id="a_Node000001"><a xlink:title="Implementation of runtime metrics (KV counters + RSS sampling).">
<polygon fill="#999999" stroke="#666666" points="451,-184 315,-184 315,-165 451,-165 451,-184"/>
<text text-anchor="middle" x="383" y="-172" font-family="Helvetica,sans-Serif" font-size="10.00">engine/src/util_metrics.c</text>
</a>
</g>
</g>
<!-- Node2 -->
<g id="Node000002" class="node">
<title>Node2</title>
<g id="a_Node000002"><a xlink:href="util__metrics_8h.html" target="_top" xlink:title="Public helpers for runtime metrics (KV counters + RSS sampling).">
<polygon fill="white" stroke="#666666" points="101.5,-129 18.5,-129 18.5,-110 101.5,-110 101.5,-129"/>
<text text-anchor="middle" x="60" y="-117" font-family="Helvetica,sans-Serif" font-size="10.00">util_metrics.h</text>
</a>
</g>
</g>
<!-- Node1&#45;&gt;Node2 -->
<g id="edge1_Node000001_Node000002" class="edge">
<title>Node1&#45;&gt;Node2</title>
<g id="a_edge1_Node000001_Node000002"><a xlink:title=" ">
<path fill="none" stroke="#63b8ff" d="M331.1,-164.98C270.92,-155.11 172.29,-138.93 112.05,-129.04"/>
<polygon fill="#63b8ff" stroke="#63b8ff" points="112.43,-125.56 101.99,-127.39 111.29,-132.46 112.43,-125.56"/>
</a>
</g>
</g>
<!-- Node3 -->
<g id="Node000003" class="node">
<title>Node3</title>
<g id="a_Node000003"><a xlink:title=" ">
<polygon fill="#e0e0e0" stroke="#999999" points="127.5,-19 74.5,-19 74.5,0 127.5,0 127.5,-19"/>
<text text-anchor="middle" x="101" y="-7" font-family="Helvetica,sans-Serif" font-size="10.00">stdint.h</text>
</a>
</g>
</g>
<!-- Node1&#45;&gt;Node3 -->
<g id="edge9_Node000001_Node000003" class="edge">
<title>Node1&#45;&gt;Node3</title>
<g id="a_edge9_Node000001_Node000003"><a xlink:title=" ">
<path fill="none" stroke="#63b8ff" d="M314.94,-167.66C255.46,-161.3 174.82,-149.23 150,-129 119.04,-103.78 107.41,-55.72 103.22,-29.21"/>
<polygon fill="#63b8ff" stroke="#63b8ff" points="106.69,-28.73 101.85,-19.3 99.75,-29.69 106.69,-28.73"/>
</a>
</g>
</g>
<!-- Node6 -->
<g id="Node000006" class="node">
<title>Node6</title>
<g id="a_Node000006"><a xlink:title=" ">
<polygon fill="#e0e0e0" stroke="#999999" points="209.5,-129 158.5,-129 158.5,-110 209.5,-110 209.5,-129"/>
<text text-anchor="middle" x="184" y="-117" font-family="Helvetica,sans-Serif" font-size="10.00">errno.h</text>
</a>
</g>
</g>
<!-- Node1&#45;&gt;Node6 -->
<g id="edge6_Node000001_Node000006" class="edge">
<title>Node1&#45;&gt;Node6</title>
<g id="a_edge6_Node000001_Node000006"><a xlink:title=" ">
<path fill="none" stroke="#63b8ff" d="M351.03,-164.98C315.07,-155.41 256.85,-139.9 219.51,-129.96"/>
<polygon fill="#63b8ff" stroke="#63b8ff" points="220.13,-126.5 209.57,-127.31 218.33,-133.27 220.13,-126.5"/>
</a>
</g>
</g>
<!-- Node7 -->
<g id="Node000007" class="node">
<title>Node7</title>
<g id="a_Node000007"><a xlink:title=" ">
<polygon fill="#e0e0e0" stroke="#999999" points="302,-129 228,-129 228,-110 302,-110 302,-129"/>
<text text-anchor="middle" x="265" y="-117" font-family="Helvetica,sans-Serif" font-size="10.00">stdatomic.h</text>
</a>
</g>
</g>
<!-- Node1&#45;&gt;Node7 -->
<g id="edge7_Node000001_Node000007" class="edge">
<title>Node1&#45;&gt;Node7</title>
<g id="a_edge7_Node000001_Node000007"><a xlink:title=" ">
<path fill="none" stroke="#63b8ff" d="M364.04,-164.98C344.97,-156.42 315.34,-143.11 293.45,-133.28"/>
<polygon fill="#63b8ff" stroke="#63b8ff" points="294.86,-130.07 284.3,-129.17 291.99,-136.46 294.86,-130.07"/>
</a>
</g>
</g>
<!-- Node8 -->
<g id="Node000008" class="node">
<title>Node8</title>
<g id="a_Node000008"><a xlink:title=" ">
<polygon fill="#e0e0e0" stroke="#999999" points="376,-129 320,-129 320,-110 376,-110 376,-129"/>
<text text-anchor="middle" x="348" y="-117" font-family="Helvetica,sans-Serif" font-size="10.00">stdarg.h</text>
</a>
</g>
</g>
<!-- Node1&#45;&gt;Node8 -->
<g id="edge8_Node000001_Node000008" class="edge">
<title>Node1&#45;&gt;Node8</title>
<g id="a_edge8_Node000001_Node000008"><a xlink:title=" ">
<path fill="none" stroke="#63b8ff" d="M377.22,-164.75C372.38,-157.42 365.32,-146.73 359.36,-137.7"/>
<polygon fill="#63b8ff" stroke="#63b8ff" points="362.1,-135.5 353.67,-129.09 356.26,-139.36 362.1,-135.5"/>
</a>
</g>
</g>
<!-- Node9 -->
<g id="Node000009" class="node">
<title>Node9</title>
<g id="a_Node000009"><a xlink:title=" ">
<polygon fill="#e0e0e0" stroke="#999999" points="444,-129 394,-129 394,-110 444,-110 444,-129"/>
<text text-anchor="middle" x="419" y="-117" font-family="Helvetica,sans-Serif" font-size="10.00">stdio.h</text>
</a>
</g>
</g>
<!-- Node1&#45;&gt;Node9 -->
<g id="edge10_Node000001_Node000009" class="edge">
<title>Node1&#45;&gt;Node9</title>
<g id="a_edge10_Node000001_Node000009"><a xlink:title=" ">
<path fill="none" stroke="#63b8ff" d="M388.94,-164.75C393.98,-157.34 401.34,-146.5 407.51,-137.41"/>
<polygon fill="#63b8ff" stroke="#63b8ff" points="410.44,-139.33 413.17,-129.09 404.65,-135.39 410.44,-139.33"/>
</a>
</g>
</g>
<!-- Node10 -->
<g id="Node000010" class="node">
<title>Node10</title>
<g id="a_Node000010"><a xlink:title=" ">
<polygon fill="#e0e0e0" stroke="#999999" points="515.5,-129 462.5,-129 462.5,-110 515.5,-110 515.5,-129"/>
<text text-anchor="middle" x="489" y="-117" font-family="Helvetica,sans-Serif" font-size="10.00">stdlib.h</text>
</a>
</g>
</g>
<!-- Node1&#45;&gt;Node10 -->
<g id="edge11_Node000001_Node000010" class="edge">
<title>Node1&#45;&gt;Node10</title>
<g id="a_edge11_Node000001_Node000010"><a xlink:title=" ">
<path fill="none" stroke="#63b8ff" d="M400.03,-164.98C416.93,-156.54 443.06,-143.47 462.64,-133.68"/>
<polygon fill="#63b8ff" stroke="#63b8ff" points="464.28,-136.77 471.66,-129.17 461.15,-130.51 464.28,-136.77"/>
</a>
</g>
</g>
<!-- Node11 -->
<g id="Node000011" class="node">
<title>Node11</title>
<g id="a_Node000011"><a xlink:title=" ">
<polygon fill="#e0e0e0" stroke="#999999" points="586.5,-129 533.5,-129 533.5,-110 586.5,-110 586.5,-129"/>
<text text-anchor="middle" x="560" y="-117" font-family="Helvetica,sans-Serif" font-size="10.00">string.h</text>
</a>
</g>
</g>
<!-- Node1&#45;&gt;Node11 -->
<g id="edge12_Node000001_Node000011" class="edge">
<title>Node1&#45;&gt;Node11</title>
<g id="a_edge12_Node000001_Node000011"><a xlink:title=" ">
<path fill="none" stroke="#63b8ff" d="M411.44,-164.98C441.9,-155.86 490.35,-141.36 523.58,-131.41"/>
<polygon fill="#63b8ff" stroke="#63b8ff" points="524.79,-134.7 533.37,-128.47 522.79,-127.99 524.79,-134.7"/>
</a>
</g>
</g>
<!-- Node12 -->
<g id="Node000012" class="node">
<title>Node12</title>
<g id="a_Node000012"><a xlink:title=" ">
<polygon fill="#e0e0e0" stroke="#999999" points="691.5,-129 604.5,-129 604.5,-110 691.5,-110 691.5,-129"/>
<text text-anchor="middle" x="648" y="-117" font-family="Helvetica,sans-Serif" font-size="10.00">sys/resource.h</text>
</a>
</g>
</g>
<!-- Node1&#45;&gt;Node12 -->
<g id="edge13_Node000001_Node000012" class="edge">
<title>Node1&#45;&gt;Node12</title>
<g id="a_edge13_Node000001_Node000012"><a xlink:title=" ">
<path fill="none" stroke="#63b8ff" d="M425.58,-164.98C471.7,-155.76 545.36,-141.03 595.16,-131.07"/>
<polygon fill="#63b8ff" stroke="#63b8ff" points="595.97,-134.48 605.09,-129.08 594.6,-127.61 595.97,-134.48"/>
</a>
</g>
</g>
<!-- Node13 -->
<g id="Node000013" class="node">
<title>Node13</title>
<g id="a_Node000013"><a xlink:title=" ">
<polygon fill="#e0e0e0" stroke="#999999" points="768.5,-129 709.5,-129 709.5,-110 768.5,-110 768.5,-129"/>
<text text-anchor="middle" x="739" y="-117" font-family="Helvetica,sans-Serif" font-size="10.00">strings.h</text>
</a>
</g>
</g>
<!-- Node1&#45;&gt;Node13 -->
<g id="edge14_Node000001_Node000013" class="edge">
<title>Node1&#45;&gt;Node13</title>
<g id="a_edge14_Node000001_Node000013"><a xlink:title=" ">
<path fill="none" stroke="#63b8ff" d="M451.18,-165.58C513.48,-157.98 608.34,-145.47 699.26,-129.2"/>
<polygon fill="#63b8ff" stroke="#63b8ff" points="699.96,-132.63 709.18,-127.41 698.71,-125.75 699.96,-132.63"/>
</a>
</g>
</g>
<!-- Node2&#45;&gt;Node3 -->
<g id="edge2_Node000002_Node000003" class="edge">
<title>Node2&#45;&gt;Node3</title>
<g id="a_edge2_Node000002_Node000003"><a xlink:title=" ">
<path fill="none" stroke="#63b8ff" d="M63.36,-109.66C70.06,-92.01 85.21,-52.09 94.12,-28.64"/>
<polygon fill="#63b8ff" stroke="#63b8ff" points="97.44,-29.75 97.71,-19.16 90.89,-27.27 97.44,-29.75"/>
</a>
</g>
</g>
<!-- Node4 -->
<g id="Node000004" class="node">
<title>Node4</title>
<g id="a_Node000004"><a xlink:href="ie__api_8h.html" target="_top" xlink:title="Public C API for the inference engine (minimal surface used by CLI/tests).">
<polygon fill="white" stroke="#666666" points="63.5,-74 8.5,-74 8.5,-55 63.5,-55 63.5,-74"/>
<text text-anchor="middle" x="36" y="-62" font-family="Helvetica,sans-Serif" font-size="10.00">ie_api.h</text>
</a>
</g>
</g>
<!-- Node2&#45;&gt;Node4 -->
<g id="edge3_Node000002_Node000004" class="edge">
<title>Node2&#45;&gt;Node4</title>
<g id="a_edge3_Node000002_Node000004"><a xlink:title=" ">
<path fill="none" stroke="#63b8ff" d="M56.04,-109.75C52.79,-102.57 48.08,-92.18 44.05,-83.27"/>
<polygon fill="#63b8ff" stroke="#63b8ff" points="47.2,-81.75 39.89,-74.09 40.83,-84.64 47.2,-81.75"/>
</a>
</g>
</g>
<!-- Node4&#45;&gt;Node3 -->
<g id="edge5_Node000004_Node000003" class="edge">
<title>Node4&#45;&gt;Node3</title>
<g id="a_edge5_Node000004_Node000003"><a xlink:title=" ">
<path fill="none" stroke="#63b8ff" d="M46.44,-54.98C56.15,-47.07 70.82,-35.11 82.5,-25.58"/>
<polygon fill="#63b8ff" stroke="#63b8ff" points="84.83,-28.2 90.37,-19.17 80.4,-22.78 84.83,-28.2"/>
</a>
</g>
</g>
<!-- Node5 -->
<g id="Node000005" class="node">
<title>Node5</title>
<g id="a_Node000005"><a xlink:title=" ">
<polygon fill="#e0e0e0" stroke="#999999" points="56,-19 0,-19 0,0 56,0 56,-19"/>
<text text-anchor="middle" x="28" y="-7" font-family="Helvetica,sans-Serif" font-size="10.00">stddef.h</text>
</a>
</g>
</g>
<!-- Node4&#45;&gt;Node5 -->
<g id="edge4_Node000004_Node000005" class="edge">
<title>Node4&#45;&gt;Node5</title>
<g id="a_edge4_Node000004_Node000005"><a xlink:title=" ">
<path fill="none" stroke="#63b8ff" d="M34.68,-54.75C33.63,-47.8 32.13,-37.85 30.81,-29.13"/>
<polygon fill="#63b8ff" stroke="#63b8ff" points="34.25,-28.45 29.3,-19.09 27.33,-29.5 34.25,-28.45"/>
</a>
</g>
</g>
</g>
</svg>
