<?xml version="1.0" encoding="UTF-8" standalone="no"?>
<!DOCTYPE svg PUBLIC "-//W3C//DTD SVG 1.1//EN"
 "http://www.w3.org/Graphics/SVG/1.1/DTD/svg11.dtd">
<!-- Generated by graphviz version 2.43.0 (0)
 -->
<!-- Title: js_find_member_value Pages: 1 -->
<svg width="775pt" height="402pt"
 viewBox="0.00 0.00 775.00 402.10" xmlns="http://www.w3.org/2000/svg" xmlns:xlink="http://www.w3.org/1999/xlink">
<g id="graph0" class="graph" transform="scale(1 1) rotate(0) translate(4 398.1)">
<title>js_find_member_value</title>
<!-- Node1 -->
<g id="Node000001" class="node">
<title>Node1</title>
<g id="a_Node000001"><a xlink:title=" ">
<polygon fill="#999999" stroke="#666666" points="127,-99.6 0,-99.6 0,-80.6 127,-80.6 127,-99.6"/>
<text text-anchor="middle" x="63.5" y="-87.6" font-family="Helvetica,sans-Serif" font-size="10.00">js_find_member_value</text>
</a>
</g>
</g>
<!-- Node2 -->
<g id="Node000002" class="node">
<title>Node2</title>
<g id="a_Node000002"><a xlink:href="ie__device__cuda_8cu.html#a5e3d9fee84981707669f5c2398f0c4ab" target="_top" xlink:title="Row&#45;wise GEMV kernel: each thread computes one output row.">
<polygon fill="white" stroke="#666666" points="767,-276.1 642,-276.1 642,-246.1 767,-246.1 767,-276.1"/>
<text text-anchor="start" x="650" y="-264.1" font-family="Helvetica,sans-Serif" font-size="10.00">ie_gemv_rowwise_f32</text>
<text text-anchor="middle" x="704.5" y="-253.1" font-family="Helvetica,sans-Serif" font-size="10.00">_kernel</text>
</a>
</g>
</g>
<!-- Node1&#45;&gt;Node2 -->
<g id="edge1_Node000001_Node000002" class="edge">
<title>Node1&#45;&gt;Node2</title>
<g id="a_edge1_Node000001_Node000002"><a xlink:title=" ">
<path fill="none" stroke="#63b8ff" d="M67.35,-99.87C83.19,-151.9 165.44,-394.1 324,-394.1 324,-394.1 324,-394.1 450,-394.1 521.26,-394.1 543.65,-391.59 606,-357.1 638.99,-338.85 668.55,-306.33 686.26,-284.24"/>
<polygon fill="#63b8ff" stroke="#63b8ff" points="689.03,-286.37 692.44,-276.34 683.52,-282.06 689.03,-286.37"/>
</a>
</g>
</g>
<!-- Node3 -->
<g id="Node000003" class="node">
<title>Node3</title>
<g id="a_Node000003"><a xlink:href="weights__dedup_8c.html#a7e3b6f5b10e0d8d68272d2e80523813b" target="_top" xlink:title=" ">
<polygon fill="white" stroke="#666666" points="494,-61.6 404,-61.6 404,-42.6 494,-42.6 494,-61.6"/>
<text text-anchor="middle" x="449" y="-49.6" font-family="Helvetica,sans-Serif" font-size="10.00">js_parse_string</text>
</a>
</g>
</g>
<!-- Node1&#45;&gt;Node3 -->
<g id="edge2_Node000001_Node000003" class="edge">
<title>Node1&#45;&gt;Node3</title>
<g id="a_edge2_Node000001_Node000003"><a xlink:title=" ">
<path fill="none" stroke="#63b8ff" d="M127.4,-83.87C201.63,-76.51 323.8,-64.41 393.95,-57.45"/>
<polygon fill="#63b8ff" stroke="#63b8ff" points="394.3,-60.94 403.91,-56.47 393.61,-53.97 394.3,-60.94"/>
</a>
</g>
</g>
<!-- Node4 -->
<g id="Node000004" class="node">
<title>Node4</title>
<g id="a_Node000004"><a xlink:href="weights__dedup_8c.html#a21501177295cc06eaf7d981f7d437c0c" target="_top" xlink:title=" ">
<polygon fill="white" stroke="#666666" points="602.5,-175.6 533.5,-175.6 533.5,-156.6 602.5,-156.6 602.5,-175.6"/>
<text text-anchor="middle" x="568" y="-163.6" font-family="Helvetica,sans-Serif" font-size="10.00">js_skip_ws</text>
</a>
</g>
</g>
<!-- Node1&#45;&gt;Node4 -->
<g id="edge24_Node000001_Node000004" class="edge">
<title>Node1&#45;&gt;Node4</title>
<g id="a_edge24_Node000001_Node000004"><a xlink:title=" ">
<path fill="none" stroke="#63b8ff" d="M82.01,-80.52C143.57,-48.27 353.86,49.85 494,-33.1 535.79,-57.83 555.25,-115.92 562.87,-146.49"/>
<polygon fill="#63b8ff" stroke="#63b8ff" points="559.49,-147.44 565.16,-156.4 566.31,-145.87 559.49,-147.44"/>
</a>
</g>
</g>
<!-- Node5 -->
<g id="Node000005" class="node">
<title>Node5</title>
<g id="a_Node000005"><a xlink:href="weights__dedup_8c.html#aec6b7531542a45304d1f17d108a6d2ea" target="_top" xlink:title=" ">
<polygon fill="white" stroke="#666666" points="246,-194.6 163,-194.6 163,-175.6 246,-175.6 246,-194.6"/>
<text text-anchor="middle" x="204.5" y="-182.6" font-family="Helvetica,sans-Serif" font-size="10.00">js_skip_value</text>
</a>
</g>
</g>
<!-- Node1&#45;&gt;Node5 -->
<g id="edge6_Node000001_Node000005" class="edge">
<title>Node1&#45;&gt;Node5</title>
<g id="a_edge6_Node000001_Node000005"><a xlink:title=" ">
<path fill="none" stroke="#63b8ff" d="M78.59,-99.73C102.74,-116.23 152.2,-150.04 181.11,-169.79"/>
<polygon fill="#63b8ff" stroke="#63b8ff" points="179.14,-172.69 189.37,-175.44 183.09,-166.91 179.14,-172.69"/>
</a>
</g>
</g>
<!-- Node3&#45;&gt;Node2 -->
<g id="edge3_Node000003_Node000002" class="edge">
<title>Node3&#45;&gt;Node2</title>
<g id="a_edge3_Node000003_Node000002"><a xlink:title=" ">
<path fill="none" stroke="#63b8ff" d="M494.3,-48.72C527.89,-48.4 573.64,-53.04 606,-76.1 661.09,-115.37 687.64,-195.49 698.01,-236.19"/>
<polygon fill="#63b8ff" stroke="#63b8ff" points="694.65,-237.2 700.41,-246.09 701.46,-235.55 694.65,-237.2"/>
</a>
</g>
</g>
<!-- Node3&#45;&gt;Node4 -->
<g id="edge4_Node000003_Node000004" class="edge">
<title>Node3&#45;&gt;Node4</title>
<g id="a_edge4_Node000003_Node000004"><a xlink:title=" ">
<path fill="none" stroke="#63b8ff" d="M459.98,-61.82C479.92,-81.25 524.93,-125.11 549.76,-149.3"/>
<polygon fill="#63b8ff" stroke="#63b8ff" points="547.45,-151.93 557.05,-156.4 552.33,-146.92 547.45,-151.93"/>
</a>
</g>
</g>
<!-- Node4&#45;&gt;Node2 -->
<g id="edge5_Node000004_Node000002" class="edge">
<title>Node4&#45;&gt;Node2</title>
<g id="a_edge5_Node000004_Node000002"><a xlink:title=" ">
<path fill="none" stroke="#63b8ff" d="M582.89,-175.91C604.18,-190.94 645.38,-220.05 673.65,-240.01"/>
<polygon fill="#63b8ff" stroke="#63b8ff" points="671.78,-242.98 681.97,-245.89 675.82,-237.27 671.78,-242.98"/>
</a>
</g>
</g>
<!-- Node5&#45;&gt;Node2 -->
<g id="edge7_Node000005_Node000002" class="edge">
<title>Node5&#45;&gt;Node2</title>
<g id="a_edge7_Node000005_Node000002"><a xlink:title=" ">
<path fill="none" stroke="#63b8ff" d="M210.19,-194.6C220.42,-214.34 246.68,-259.94 282,-284.1 328.66,-316.02 348.71,-308.29 404,-320.1 492.11,-338.93 520.8,-366.38 606,-337.1 636.55,-326.6 664.87,-302.18 683.04,-283.83"/>
<polygon fill="#63b8ff" stroke="#63b8ff" points="685.77,-286.04 690.17,-276.4 680.72,-281.19 685.77,-286.04"/>
</a>
</g>
</g>
<!-- Node5&#45;&gt;Node3 -->
<g id="edge13_Node000005_Node000003" class="edge">
<title>Node5&#45;&gt;Node3</title>
<g id="a_edge13_Node000005_Node000003"><a xlink:title=" ">
<path fill="none" stroke="#63b8ff" d="M212.7,-175.54C225.16,-159.62 252.27,-127.59 282,-109.1 316.5,-87.64 360.09,-73.07 393.95,-64.04"/>
<polygon fill="#63b8ff" stroke="#63b8ff" points="394.87,-67.42 403.67,-61.52 393.12,-60.64 394.87,-67.42"/>
</a>
</g>
</g>
<!-- Node5&#45;&gt;Node4 -->
<g id="edge23_Node000005_Node000004" class="edge">
<title>Node5&#45;&gt;Node4</title>
<g id="a_edge23_Node000005_Node000004"><a xlink:title=" ">
<path fill="none" stroke="#63b8ff" d="M246.27,-182.96C314.76,-179.36 452.37,-172.12 522.99,-168.41"/>
<polygon fill="#63b8ff" stroke="#63b8ff" points="523.51,-171.89 533.31,-167.87 523.14,-164.9 523.51,-171.89"/>
</a>
</g>
</g>
<!-- Node6 -->
<g id="Node000006" class="node">
<title>Node6</title>
<g id="a_Node000006"><a xlink:href="weights__dedup_8c.html#acb6d250836afa5eddeb1985efad8afa4" target="_top" xlink:title=" ">
<polygon fill="white" stroke="#666666" points="606,-327.6 530,-327.6 530,-308.6 606,-308.6 606,-327.6"/>
<text text-anchor="middle" x="568" y="-315.6" font-family="Helvetica,sans-Serif" font-size="10.00">js_match_lit</text>
</a>
</g>
</g>
<!-- Node5&#45;&gt;Node6 -->
<g id="edge8_Node000005_Node000006" class="edge">
<title>Node5&#45;&gt;Node6</title>
<g id="a_edge8_Node000005_Node000006"><a xlink:title=" ">
<path fill="none" stroke="#63b8ff" d="M214.53,-194.96C228.03,-209.22 254.8,-235.66 282,-252.1 331.73,-282.15 347.58,-285.18 404,-299.1 442.31,-308.55 486.88,-313.34 519.72,-315.74"/>
<polygon fill="#63b8ff" stroke="#63b8ff" points="519.74,-319.25 529.95,-316.44 520.21,-312.26 519.74,-319.25"/>
</a>
</g>
</g>
<!-- Node7 -->
<g id="Node000007" class="node">
<title>Node7</title>
<g id="a_Node000007"><a xlink:href="weights__dedup_8c.html#a080768f8631e237e2467fc47a7d4d6a0" target="_top" xlink:title=" ">
<polygon fill="white" stroke="#666666" points="487.5,-289.6 410.5,-289.6 410.5,-270.6 487.5,-270.6 487.5,-289.6"/>
<text text-anchor="middle" x="449" y="-277.6" font-family="Helvetica,sans-Serif" font-size="10.00">js_parse_i64</text>
</a>
</g>
</g>
<!-- Node5&#45;&gt;Node7 -->
<g id="edge10_Node000005_Node000007" class="edge">
<title>Node5&#45;&gt;Node7</title>
<g id="a_edge10_Node000005_Node000007"><a xlink:title=" ">
<path fill="none" stroke="#63b8ff" d="M223.12,-194.67C238.44,-202.79 261.34,-214.46 282,-223.1 323.71,-240.53 372.82,-256.9 406.76,-267.59"/>
<polygon fill="#63b8ff" stroke="#63b8ff" points="405.75,-270.94 416.34,-270.58 407.84,-264.26 405.75,-270.94"/>
</a>
</g>
</g>
<!-- Node8 -->
<g id="Node000008" class="node">
<title>Node8</title>
<g id="a_Node000008"><a xlink:href="weights__dedup_8c.html#aeb7fa9bc2ccc7b24ae16f647bcafb49b" target="_top" xlink:title=" ">
<polygon fill="white" stroke="#666666" points="365.5,-213.6 284.5,-213.6 284.5,-194.6 365.5,-194.6 365.5,-213.6"/>
<text text-anchor="middle" x="325" y="-201.6" font-family="Helvetica,sans-Serif" font-size="10.00">js_skip_array</text>
</a>
</g>
</g>
<!-- Node5&#45;&gt;Node8 -->
<g id="edge14_Node000005_Node000008" class="edge">
<title>Node5&#45;&gt;Node8</title>
<g id="a_edge14_Node000005_Node000008"><a xlink:title=" ">
<path fill="none" stroke="#63b8ff" d="M246.28,-185.19C260.37,-186.97 276,-189.57 289.53,-192.38"/>
<polygon fill="#63b8ff" stroke="#63b8ff" points="288.88,-195.82 299.4,-194.56 290.39,-188.98 288.88,-195.82"/>
</a>
</g>
</g>
<!-- Node9 -->
<g id="Node000009" class="node">
<title>Node9</title>
<g id="a_Node000009"><a xlink:href="weights__dedup_8c.html#ae1e5c9a54a8c0312241d17afd01c40a0" target="_top" xlink:title=" ">
<polygon fill="white" stroke="#666666" points="368,-137.6 282,-137.6 282,-118.6 368,-118.6 368,-137.6"/>
<text text-anchor="middle" x="325" y="-125.6" font-family="Helvetica,sans-Serif" font-size="10.00">js_skip_object</text>
</a>
</g>
</g>
<!-- Node5&#45;&gt;Node9 -->
<g id="edge18_Node000005_Node000009" class="edge">
<title>Node5&#45;&gt;Node9</title>
<g id="a_edge18_Node000005_Node000009"><a xlink:title=" ">
<path fill="none" stroke="#63b8ff" d="M216.86,-175.45C231.83,-165.99 258.98,-152.16 282.2,-141.72"/>
<polygon fill="#63b8ff" stroke="#63b8ff" points="283.79,-144.85 291.53,-137.62 280.97,-138.44 283.79,-144.85"/>
</a>
</g>
</g>
<!-- Node6&#45;&gt;Node2 -->
<g id="edge9_Node000006_Node000002" class="edge">
<title>Node6&#45;&gt;Node2</title>
<g id="a_edge9_Node000006_Node000002"><a xlink:title=" ">
<path fill="none" stroke="#63b8ff" d="M591.51,-308.56C609.77,-300.82 636.08,-289.67 658.6,-280.13"/>
<polygon fill="#63b8ff" stroke="#63b8ff" points="660.15,-283.27 667.99,-276.15 657.42,-276.83 660.15,-283.27"/>
</a>
</g>
</g>
<!-- Node7&#45;&gt;Node2 -->
<g id="edge11_Node000007_Node000002" class="edge">
<title>Node7&#45;&gt;Node2</title>
<g id="a_edge11_Node000007_Node000002"><a xlink:title=" ">
<path fill="none" stroke="#63b8ff" d="M487.68,-277.28C525.58,-274.43 584.98,-269.98 631.88,-266.47"/>
<polygon fill="#63b8ff" stroke="#63b8ff" points="632.27,-269.95 641.98,-265.71 631.75,-262.97 632.27,-269.95"/>
</a>
</g>
</g>
<!-- Node7&#45;&gt;Node4 -->
<g id="edge12_Node000007_Node000004" class="edge">
<title>Node7&#45;&gt;Node4</title>
<g id="a_edge12_Node000007_Node000004"><a xlink:title=" ">
<path fill="none" stroke="#63b8ff" d="M459.98,-270.38C479.92,-250.95 524.93,-207.09 549.76,-182.9"/>
<polygon fill="#63b8ff" stroke="#63b8ff" points="552.33,-185.28 557.05,-175.79 547.45,-180.27 552.33,-185.28"/>
</a>
</g>
</g>
<!-- Node8&#45;&gt;Node2 -->
<g id="edge15_Node000008_Node000002" class="edge">
<title>Node8&#45;&gt;Node2</title>
<g id="a_edge15_Node000008_Node000002"><a xlink:title=" ">
<path fill="none" stroke="#63b8ff" d="M365.69,-210.09C428.64,-219.6 552.34,-238.27 631.31,-250.2"/>
<polygon fill="#63b8ff" stroke="#63b8ff" points="631.25,-253.73 641.66,-251.76 632.3,-246.81 631.25,-253.73"/>
</a>
</g>
</g>
<!-- Node8&#45;&gt;Node4 -->
<g id="edge17_Node000008_Node000004" class="edge">
<title>Node8&#45;&gt;Node4</title>
<g id="a_edge17_Node000008_Node000004"><a xlink:title=" ">
<path fill="none" stroke="#63b8ff" d="M365.8,-198.96C399.89,-194.42 450.27,-187.41 494,-180.1 503.54,-178.5 513.75,-176.64 523.43,-174.81"/>
<polygon fill="#63b8ff" stroke="#63b8ff" points="524.1,-178.24 533.26,-172.92 522.78,-171.37 524.1,-178.24"/>
</a>
</g>
</g>
<!-- Node8&#45;&gt;Node5 -->
<g id="edge16_Node000008_Node000005" class="edge">
<title>Node8&#45;&gt;Node5</title>
<g id="a_edge16_Node000008_Node000005"><a xlink:title=" ">
<path fill="none" stroke="#63b8ff" d="M284.09,-204.12C269.82,-202.34 253.88,-199.71 240.1,-196.85"/>
<polygon fill="#63b8ff" stroke="#63b8ff" points="240.57,-193.37 230.05,-194.63 239.06,-200.2 240.57,-193.37"/>
</a>
</g>
</g>
<!-- Node9&#45;&gt;Node2 -->
<g id="edge19_Node000009_Node000002" class="edge">
<title>Node9&#45;&gt;Node2</title>
<g id="a_edge19_Node000009_Node000002"><a xlink:title=" ">
<path fill="none" stroke="#63b8ff" d="M368.3,-120.94C425.81,-113.37 530.17,-107.49 606,-148.1 644.21,-168.56 674.11,-210.53 690.25,-237.16"/>
<polygon fill="#63b8ff" stroke="#63b8ff" points="687.29,-239.03 695.38,-245.88 693.33,-235.49 687.29,-239.03"/>
</a>
</g>
</g>
<!-- Node9&#45;&gt;Node3 -->
<g id="edge20_Node000009_Node000003" class="edge">
<title>Node9&#45;&gt;Node3</title>
<g id="a_edge20_Node000009_Node000003"><a xlink:title=" ">
<path fill="none" stroke="#63b8ff" d="M339.57,-118.52C354.95,-107.79 380.88,-90.07 404,-76.1 409.25,-72.93 414.94,-69.68 420.44,-66.65"/>
<polygon fill="#63b8ff" stroke="#63b8ff" points="422.27,-69.63 429.38,-61.78 418.93,-63.48 422.27,-69.63"/>
</a>
</g>
</g>
<!-- Node9&#45;&gt;Node4 -->
<g id="edge22_Node000009_Node000004" class="edge">
<title>Node9&#45;&gt;Node4</title>
<g id="a_edge22_Node000009_Node000004"><a xlink:title=" ">
<path fill="none" stroke="#63b8ff" d="M368.2,-133.56C402.23,-138.1 451.28,-144.96 494,-152.1 503.54,-153.69 513.75,-155.56 523.43,-157.39"/>
<polygon fill="#63b8ff" stroke="#63b8ff" points="522.78,-160.83 533.26,-159.28 524.1,-153.96 522.78,-160.83"/>
</a>
</g>
</g>
<!-- Node9&#45;&gt;Node5 -->
<g id="edge21_Node000009_Node000005" class="edge">
<title>Node9&#45;&gt;Node5</title>
<g id="a_edge21_Node000009_Node000005"><a xlink:title=" ">
<path fill="none" stroke="#63b8ff" d="M312.61,-137.76C297.68,-147.2 270.67,-160.96 247.51,-171.38"/>
<polygon fill="#63b8ff" stroke="#63b8ff" points="245.94,-168.25 238.19,-175.48 248.76,-174.66 245.94,-168.25"/>
</a>
</g>
</g>
</g>
</svg>
