<?xml version="1.0" encoding="UTF-8" standalone="no"?>
<!DOCTYPE svg PUBLIC "-//W3C//DTD SVG 1.1//EN"
 "http://www.w3.org/Graphics/SVG/1.1/DTD/svg11.dtd">
<!-- Generated by graphviz version 12.2.1 (20241206.2353)
 -->
<!-- Title: ie_weights_decode_int4 Pages: 1 -->
<svg width="421pt" height="209pt"
 viewBox="0.00 0.00 420.50 208.75" xmlns="http://www.w3.org/2000/svg" xmlns:xlink="http://www.w3.org/1999/xlink">
<g id="graph0" class="graph" transform="scale(1 1) rotate(0) translate(4 204.75)">
<title>ie_weights_decode_int4</title>
<!-- Node1 -->
<g id="Node000001" class="node">
<title>Node1</title>
<g id="a_Node000001"><a xlink:title="Dequantize a packed INT4 weight blob into a float32 matrix.">
<polygon fill="#999999" stroke="#666666" points="133,-117.75 0,-117.75 0,-97 133,-97 133,-117.75"/>
<text text-anchor="middle" x="66.5" y="-104.25" font-family="Helvetica,sans-Serif" font-size="10.00">ie_weights_decode_int4</text>
</a>
</g>
</g>
<!-- Node2 -->
<g id="Node000002" class="node">
<title>Node2</title>
<g id="a_Node000002"><a xlink:href="weights_8c.html#a45b3ddd20d46adc5338518e4d68a293d" target="_top" xlink:title=" ">
<polygon fill="white" stroke="#666666" points="263,-200.75 183.25,-200.75 183.25,-180 263,-180 263,-200.75"/>
<text text-anchor="middle" x="223.12" y="-187.25" font-family="Helvetica,sans-Serif" font-size="10.00">fp16_to_fp32</text>
</a>
</g>
</g>
<!-- Node1&#45;&gt;Node2 -->
<g id="edge1_Node000001_Node000002" class="edge">
<title>Node1&#45;&gt;Node2</title>
<g id="a_edge1_Node000001_Node000002"><a xlink:title=" ">
<path fill="none" stroke="#63b8ff" d="M84.8,-118.16C104.76,-130.43 138.74,-150.79 169,-166.38 174.57,-169.24 180.55,-172.12 186.41,-174.85"/>
<polygon fill="#63b8ff" stroke="#63b8ff" points="184.81,-177.96 195.36,-178.92 187.71,-171.59 184.81,-177.96"/>
</a>
</g>
</g>
<!-- Node3 -->
<g id="Node000003" class="node">
<title>Node3</title>
<g id="a_Node000003"><a xlink:href="group__ie__int4__quant.html#gab017a4b1dff62c0ef8f1ed4f94375302" target="_top" xlink:title="Dequantize a packed INT4 matrix with per&#45;row scales.">
<polygon fill="white" stroke="#666666" points="277.25,-72.12 169,-72.12 169,-38.62 277.25,-38.62 277.25,-72.12"/>
<text text-anchor="start" x="177" y="-58.62" font-family="Helvetica,sans-Serif" font-size="10.00">ie_int4_dequantize</text>
<text text-anchor="middle" x="223.12" y="-45.88" font-family="Helvetica,sans-Serif" font-size="10.00">_per_row</text>
</a>
</g>
</g>
<!-- Node1&#45;&gt;Node3 -->
<g id="edge2_Node000001_Node000003" class="edge">
<title>Node1&#45;&gt;Node3</title>
<g id="a_edge2_Node000001_Node000003"><a xlink:title=" ">
<path fill="none" stroke="#63b8ff" d="M99.54,-96.6C117.09,-90.7 139.45,-83.18 160.25,-76.18"/>
<polygon fill="#63b8ff" stroke="#63b8ff" points="161.16,-79.57 169.52,-73.07 158.93,-72.94 161.16,-79.57"/>
</a>
</g>
</g>
<!-- Node4 -->
<g id="Node000004" class="node">
<title>Node4</title>
<g id="a_Node000004"><a xlink:href="group__ie__int4__quant.html#gae9b8a40c7d01f1fa7f00487737c772b2" target="_top" xlink:title="Compute the number of packed bytes required to store a single row of cols 4&#45;bit values (two per byte)...">
<polygon fill="white" stroke="#666666" points="412.5,-117.75 313.25,-117.75 313.25,-97 412.5,-97 412.5,-117.75"/>
<text text-anchor="middle" x="362.88" y="-104.25" font-family="Helvetica,sans-Serif" font-size="10.00">ie_int4_rowbytes</text>
</a>
</g>
</g>
<!-- Node1&#45;&gt;Node4 -->
<g id="edge8_Node000001_Node000004" class="edge">
<title>Node1&#45;&gt;Node4</title>
<g id="a_edge8_Node000001_Node000004"><a xlink:title=" ">
<path fill="none" stroke="#63b8ff" d="M100.92,-118.19C120.52,-123.96 145.9,-130.46 169,-133.38 216.73,-139.39 229.67,-140.52 277.25,-133.38 292.6,-131.07 309.01,-126.54 323.26,-121.89"/>
<polygon fill="#63b8ff" stroke="#63b8ff" points="324.38,-125.21 332.72,-118.67 322.13,-118.58 324.38,-125.21"/>
</a>
</g>
</g>
<!-- Node6 -->
<g id="Node000006" class="node">
<title>Node6</title>
<g id="a_Node000006"><a xlink:href="group__ie__int4__quant.html#ga7aaa2156d41e9a58eb6013cec4b32d78" target="_top" xlink:title="Dequantize a packed INT4 matrix using a single (per&#45;tensor) scale.">
<polygon fill="white" stroke="#666666" points="277.25,-124.12 169,-124.12 169,-90.62 277.25,-90.62 277.25,-124.12"/>
<text text-anchor="start" x="177" y="-110.62" font-family="Helvetica,sans-Serif" font-size="10.00">ie_int4_dequantize</text>
<text text-anchor="middle" x="223.12" y="-97.88" font-family="Helvetica,sans-Serif" font-size="10.00">_per_tensor</text>
</a>
</g>
</g>
<!-- Node1&#45;&gt;Node6 -->
<g id="edge5_Node000001_Node000006" class="edge">
<title>Node1&#45;&gt;Node6</title>
<g id="a_edge5_Node000001_Node000006"><a xlink:title=" ">
<path fill="none" stroke="#63b8ff" d="M133.07,-107.38C141.04,-107.38 149.17,-107.38 157.13,-107.38"/>
<polygon fill="#63b8ff" stroke="#63b8ff" points="157.1,-110.88 167.1,-107.38 157.1,-103.88 157.1,-110.88"/>
</a>
</g>
</g>
<!-- Node7 -->
<g id="Node000007" class="node">
<title>Node7</title>
<g id="a_Node000007"><a xlink:href="weights_8c.html#aabb19f4a5e5385962c6db57f611bb785" target="_top" xlink:title=" ">
<polygon fill="white" stroke="#666666" points="252.12,-20.75 194.12,-20.75 194.12,0 252.12,0 252.12,-20.75"/>
<text text-anchor="middle" x="223.12" y="-7.25" font-family="Helvetica,sans-Serif" font-size="10.00">ie_pread</text>
</a>
</g>
</g>
<!-- Node1&#45;&gt;Node7 -->
<g id="edge9_Node000001_Node000007" class="edge">
<title>Node1&#45;&gt;Node7</title>
<g id="a_edge9_Node000001_Node000007"><a xlink:title=" ">
<path fill="none" stroke="#63b8ff" d="M78.84,-96.72C96.77,-80.34 133.3,-48.85 169,-29.38 173.47,-26.93 178.32,-24.7 183.21,-22.69"/>
<polygon fill="#63b8ff" stroke="#63b8ff" points="184.32,-26.01 192.43,-19.19 181.84,-19.47 184.32,-26.01"/>
</a>
</g>
</g>
<!-- Node3&#45;&gt;Node4 -->
<g id="edge3_Node000003_Node000004" class="edge">
<title>Node3&#45;&gt;Node4</title>
<g id="a_edge3_Node000003_Node000004"><a xlink:title=" ">
<path fill="none" stroke="#63b8ff" d="M269.61,-72.55C286.84,-79.05 306.28,-86.39 322.86,-92.65"/>
<polygon fill="#63b8ff" stroke="#63b8ff" points="321.29,-95.79 331.88,-96.05 323.76,-89.25 321.29,-95.79"/>
</a>
</g>
</g>
<!-- Node5 -->
<g id="Node000005" class="node">
<title>Node5</title>
<g id="a_Node000005"><a xlink:href="int4__ptq_8c.html#a17c5de65148c5a3bac0c3d8e5f227c9c" target="_top" xlink:title="Unpack two signed 4&#45;bit integers from a single byte.">
<polygon fill="white" stroke="#666666" points="409.12,-72.75 316.62,-72.75 316.62,-52 409.12,-52 409.12,-72.75"/>
<text text-anchor="middle" x="362.88" y="-59.25" font-family="Helvetica,sans-Serif" font-size="10.00">unpack_q4_pair</text>
</a>
</g>
</g>
<!-- Node3&#45;&gt;Node5 -->
<g id="edge4_Node000003_Node000005" class="edge">
<title>Node3&#45;&gt;Node5</title>
<g id="a_edge4_Node000003_Node000005"><a xlink:title=" ">
<path fill="none" stroke="#63b8ff" d="M277.38,-58.08C286.43,-58.54 295.86,-59.02 305,-59.48"/>
<polygon fill="#63b8ff" stroke="#63b8ff" points="304.69,-62.97 314.86,-59.99 305.05,-55.98 304.69,-62.97"/>
</a>
</g>
</g>
<!-- Node6&#45;&gt;Node4 -->
<g id="edge6_Node000006_Node000004" class="edge">
<title>Node6&#45;&gt;Node4</title>
<g id="a_edge6_Node000006_Node000004"><a xlink:title=" ">
<path fill="none" stroke="#63b8ff" d="M277.38,-107.38C285.31,-107.38 293.52,-107.38 301.58,-107.38"/>
<polygon fill="#63b8ff" stroke="#63b8ff" points="301.3,-110.88 311.3,-107.38 301.3,-103.88 301.3,-110.88"/>
</a>
</g>
</g>
<!-- Node6&#45;&gt;Node5 -->
<g id="edge7_Node000006_Node000005" class="edge">
<title>Node6&#45;&gt;Node5</title>
<g id="a_edge7_Node000006_Node000005"><a xlink:title=" ">
<path fill="none" stroke="#63b8ff" d="M276.6,-90.23C290.26,-85.77 304.83,-81.01 318,-76.71"/>
<polygon fill="#63b8ff" stroke="#63b8ff" points="318.82,-80.12 327.24,-73.69 316.65,-73.47 318.82,-80.12"/>
</a>
</g>
</g>
</g>
</svg>
