<?xml version="1.0" encoding="UTF-8" standalone="no"?>
<!DOCTYPE svg PUBLIC "-//W3C//DTD SVG 1.1//EN"
 "http://www.w3.org/Graphics/SVG/1.1/DTD/svg11.dtd">
<!-- Generated by graphviz version 2.43.0 (0)
 -->
<!-- Title: ie_tensor_cmp_name Pages: 1 -->
<svg width="994pt" height="262pt"
 viewBox="0.00 0.00 994.00 261.50" xmlns="http://www.w3.org/2000/svg" xmlns:xlink="http://www.w3.org/1999/xlink">
<g id="graph0" class="graph" transform="scale(1 1) rotate(0) translate(4 257.5)">
<title>ie_tensor_cmp_name</title>
<!-- Node1 -->
<g id="Node000001" class="node">
<title>Node1</title>
<g id="a_Node000001"><a xlink:title=" ">
<polygon fill="#999999" stroke="#666666" points="986,-127 865,-127 865,-108 986,-108 986,-127"/>
<text text-anchor="middle" x="925.5" y="-115" font-family="Helvetica,sans-Serif" font-size="10.00">ie_tensor_cmp_name</text>
</a>
</g>
</g>
<!-- Node2 -->
<g id="Node000002" class="node">
<title>Node2</title>
<g id="a_Node000002"><a xlink:href="weights__dedup_8c.html#a1bc2321065029bde076c28a0490a93db" target="_top" xlink:title=" ">
<polygon fill="white" stroke="#666666" points="804.5,-149 719.5,-149 719.5,-130 804.5,-130 804.5,-149"/>
<text text-anchor="middle" x="762" y="-137" font-family="Helvetica,sans-Serif" font-size="10.00">ie_find_tensor</text>
</a>
</g>
</g>
<!-- Node1&#45;&gt;Node2 -->
<g id="edge1_Node000001_Node000002" class="edge">
<title>Node1&#45;&gt;Node2</title>
<g id="a_edge1_Node000001_Node000002"><a xlink:title=" ">
<path fill="none" stroke="#63b8ff" d="M854.88,-126.98C837.82,-129.31 820.08,-131.72 804.8,-133.81"/>
<polygon fill="#63b8ff" stroke="#63b8ff" points="855.39,-130.45 864.82,-125.63 854.44,-123.51 855.39,-130.45"/>
</a>
</g>
</g>
<!-- Node11 -->
<g id="Node000011" class="node">
<title>Node11</title>
<g id="a_Node000011"><a xlink:href="weights__dedup_8c.html#aa625b41ce2a24826f8cb464661ace8ec" target="_top" xlink:title="Open the dedup weights loader from a model directory.">
<polygon fill="white" stroke="#666666" points="829,-109 695,-109 695,-90 829,-90 829,-109"/>
<text text-anchor="middle" x="762" y="-97" font-family="Helvetica,sans-Serif" font-size="10.00">ie_weights_dedup_open</text>
</a>
</g>
</g>
<!-- Node1&#45;&gt;Node11 -->
<g id="edge13_Node000001_Node000011" class="edge">
<title>Node1&#45;&gt;Node11</title>
<g id="a_edge13_Node000001_Node000011"><a xlink:title=" ">
<path fill="none" stroke="#63b8ff" d="M854.64,-109.71C846.21,-108.77 837.61,-107.82 829.23,-106.88"/>
<polygon fill="#63b8ff" stroke="#63b8ff" points="854.5,-113.22 864.82,-110.85 855.27,-106.26 854.5,-113.22"/>
</a>
</g>
</g>
<!-- Node3 -->
<g id="Node000003" class="node">
<title>Node3</title>
<g id="a_Node000003"><a xlink:href="weights__dedup_8c.html#a3dde6478a937f4d2288026c1e9a9d499" target="_top" xlink:title="Get a weight view by tensor name.">
<polygon fill="white" stroke="#666666" points="644.5,-157.5 519.5,-157.5 519.5,-127.5 644.5,-127.5 644.5,-157.5"/>
<text text-anchor="start" x="527.5" y="-145.5" font-family="Helvetica,sans-Serif" font-size="10.00">ie_weights_dedup_get</text>
<text text-anchor="middle" x="582" y="-134.5" font-family="Helvetica,sans-Serif" font-size="10.00">_weight_view</text>
</a>
</g>
</g>
<!-- Node2&#45;&gt;Node3 -->
<g id="edge2_Node000002_Node000003" class="edge">
<title>Node2&#45;&gt;Node3</title>
<g id="a_edge2_Node000002_Node000003"><a xlink:title=" ">
<path fill="none" stroke="#63b8ff" d="M709.05,-140.38C688.91,-140.72 665.69,-141.11 644.72,-141.46"/>
<polygon fill="#63b8ff" stroke="#63b8ff" points="709.33,-143.87 719.27,-140.2 709.21,-136.87 709.33,-143.87"/>
</a>
</g>
</g>
<!-- Node4 -->
<g id="Node000004" class="node">
<title>Node4</title>
<g id="a_Node000004"><a xlink:href="test__weights_8c.html#a840291bc02cba5474a4cb46a9b9566fe" target="_top" xlink:title="Main test entrypoint.">
<polygon fill="white" stroke="#666666" points="423.5,-132 382.5,-132 382.5,-113 423.5,-113 423.5,-132"/>
<text text-anchor="middle" x="403" y="-120" font-family="Helvetica,sans-Serif" font-size="10.00">main</text>
</a>
</g>
</g>
<!-- Node3&#45;&gt;Node4 -->
<g id="edge3_Node000003_Node000004" class="edge">
<title>Node3&#45;&gt;Node4</title>
<g id="a_edge3_Node000003_Node000004"><a xlink:title=" ">
<path fill="none" stroke="#63b8ff" d="M509.14,-134.38C478.12,-130.87 444.26,-127.05 423.58,-124.71"/>
<polygon fill="#63b8ff" stroke="#63b8ff" points="508.76,-137.86 519.09,-135.5 509.55,-130.9 508.76,-137.86"/>
</a>
</g>
</g>
<!-- Node5 -->
<g id="Node000005" class="node">
<title>Node5</title>
<g id="a_Node000005"><a xlink:href="gptoss__weights__index_8c.html#a51589195af626cbd25188a2f1d138f24" target="_top" xlink:title=" ">
<polygon fill="white" stroke="#666666" points="469,-169 337,-169 337,-150 469,-150 469,-169"/>
<text text-anchor="middle" x="403" y="-157" font-family="Helvetica,sans-Serif" font-size="10.00">widx_tensor_from_desc</text>
</a>
</g>
</g>
<!-- Node3&#45;&gt;Node5 -->
<g id="edge4_Node000003_Node000005" class="edge">
<title>Node3&#45;&gt;Node5</title>
<g id="a_edge4_Node000003_Node000005"><a xlink:title=" ">
<path fill="none" stroke="#63b8ff" d="M509.11,-149.4C495.9,-150.67 482.18,-151.99 469.18,-153.24"/>
<polygon fill="#63b8ff" stroke="#63b8ff" points="509.47,-152.89 519.09,-148.45 508.81,-145.92 509.47,-152.89"/>
</a>
</g>
</g>
<!-- Node6 -->
<g id="Node000006" class="node">
<title>Node6</title>
<g id="a_Node000006"><a xlink:href="gptoss__weights__index_8c.html#a59ea306bea1c9226c31583a49f2e7ffd" target="_top" xlink:title=" ">
<polygon fill="white" stroke="#666666" points="286.5,-253.5 175.5,-253.5 175.5,-223.5 286.5,-223.5 286.5,-253.5"/>
<text text-anchor="start" x="183.5" y="-241.5" font-family="Helvetica,sans-Serif" font-size="10.00">widx_resolve_layer</text>
<text text-anchor="middle" x="231" y="-230.5" font-family="Helvetica,sans-Serif" font-size="10.00">_llama</text>
</a>
</g>
</g>
<!-- Node5&#45;&gt;Node6 -->
<g id="edge5_Node000005_Node000006" class="edge">
<title>Node5&#45;&gt;Node6</title>
<g id="a_edge5_Node000005_Node000006"><a xlink:title=" ">
<path fill="none" stroke="#63b8ff" d="M377.51,-174.31C357.41,-186.11 327.95,-202.57 301,-214.5 293.93,-217.63 286.3,-220.63 278.8,-223.39"/>
<polygon fill="#63b8ff" stroke="#63b8ff" points="379.5,-177.2 386.32,-169.09 375.93,-171.18 379.5,-177.2"/>
</a>
</g>
</g>
<!-- Node8 -->
<g id="Node000008" class="node">
<title>Node8</title>
<g id="a_Node000008"><a xlink:href="gptoss__weights__index_8c.html#aaa150e690297afaababde6bd8bcb7ae7" target="_top" xlink:title=" ">
<polygon fill="white" stroke="#666666" points="301,-205 161,-205 161,-186 301,-186 301,-205"/>
<text text-anchor="middle" x="231" y="-193" font-family="Helvetica,sans-Serif" font-size="10.00">widx_resolve_layer_neox</text>
</a>
</g>
</g>
<!-- Node5&#45;&gt;Node8 -->
<g id="edge7_Node000005_Node000008" class="edge">
<title>Node5&#45;&gt;Node8</title>
<g id="a_edge7_Node000005_Node000008"><a xlink:title=" ">
<path fill="none" stroke="#63b8ff" d="M347.08,-171.13C324.43,-175.93 298.52,-181.41 277.03,-185.97"/>
<polygon fill="#63b8ff" stroke="#63b8ff" points="347.83,-174.55 356.89,-169.05 346.38,-167.7 347.83,-174.55"/>
</a>
</g>
</g>
<!-- Node9 -->
<g id="Node000009" class="node">
<title>Node9</title>
<g id="a_Node000009"><a xlink:href="gptoss__weights__index_8c.html#ac8e226ed24bc76176a1fec86157bac99" target="_top" xlink:title=" ">
<polygon fill="white" stroke="#666666" points="294,-168 168,-168 168,-149 294,-149 294,-168"/>
<text text-anchor="middle" x="231" y="-156" font-family="Helvetica,sans-Serif" font-size="10.00">widx_resolve_optional</text>
</a>
</g>
</g>
<!-- Node5&#45;&gt;Node9 -->
<g id="edge9_Node000005_Node000009" class="edge">
<title>Node5&#45;&gt;Node9</title>
<g id="a_edge9_Node000005_Node000009"><a xlink:title=" ">
<path fill="none" stroke="#63b8ff" d="M326.51,-159.06C315.74,-158.99 304.75,-158.93 294.27,-158.87"/>
<polygon fill="#63b8ff" stroke="#63b8ff" points="326.74,-162.56 336.76,-159.12 326.78,-155.56 326.74,-162.56"/>
</a>
</g>
</g>
<!-- Node10 -->
<g id="Node000010" class="node">
<title>Node10</title>
<g id="a_Node000010"><a xlink:href="gptoss__weights__index_8c.html#a99c6f5457ca59a820436c4b8e8e9fb8b" target="_top" xlink:title=" ">
<polygon fill="white" stroke="#666666" points="294.5,-131 167.5,-131 167.5,-112 294.5,-112 294.5,-131"/>
<text text-anchor="middle" x="231" y="-119" font-family="Helvetica,sans-Serif" font-size="10.00">widx_resolve_required</text>
</a>
</g>
</g>
<!-- Node5&#45;&gt;Node10 -->
<g id="edge11_Node000005_Node000010" class="edge">
<title>Node5&#45;&gt;Node10</title>
<g id="a_edge11_Node000005_Node000010"><a xlink:title=" ">
<path fill="none" stroke="#63b8ff" d="M349.1,-147.68C325.13,-142.32 297.18,-136.07 274.59,-131.02"/>
<polygon fill="#63b8ff" stroke="#63b8ff" points="348.58,-151.15 359.1,-149.91 350.11,-144.31 348.58,-151.15"/>
</a>
</g>
</g>
<!-- Node7 -->
<g id="Node000007" class="node">
<title>Node7</title>
<g id="a_Node000007"><a xlink:href="gptoss__weights__index_8c.html#a121bde9c9fb693a485dd9bc9459a124f" target="_top" xlink:title="Resolve and validate all tensors required by the GPT&#45;OSS forward pass.">
<polygon fill="white" stroke="#666666" points="125,-191.5 0,-191.5 0,-161.5 125,-161.5 125,-191.5"/>
<text text-anchor="start" x="8" y="-179.5" font-family="Helvetica,sans-Serif" font-size="10.00">gptoss_weights_index</text>
<text text-anchor="middle" x="62.5" y="-168.5" font-family="Helvetica,sans-Serif" font-size="10.00">_build_model</text>
</a>
</g>
</g>
<!-- Node6&#45;&gt;Node7 -->
<g id="edge6_Node000006_Node000007" class="edge">
<title>Node6&#45;&gt;Node7</title>
<g id="a_edge6_Node000006_Node000007"><a xlink:title=" ">
<path fill="none" stroke="#63b8ff" d="M176,-219.93C170.92,-218.12 165.86,-216.29 161,-214.5 141.23,-207.21 119.35,-198.73 101.34,-191.62"/>
<polygon fill="#63b8ff" stroke="#63b8ff" points="175.15,-223.34 185.74,-223.38 177.48,-216.74 175.15,-223.34"/>
</a>
</g>
</g>
<!-- Node8&#45;&gt;Node7 -->
<g id="edge8_Node000008_Node000007" class="edge">
<title>Node8&#45;&gt;Node7</title>
<g id="a_edge8_Node000008_Node000007"><a xlink:title=" ">
<path fill="none" stroke="#63b8ff" d="M150.74,-186.46C142.09,-185.47 133.39,-184.48 125.01,-183.52"/>
<polygon fill="#63b8ff" stroke="#63b8ff" points="150.5,-189.95 160.84,-187.61 151.3,-183 150.5,-189.95"/>
</a>
</g>
</g>
<!-- Node9&#45;&gt;Node7 -->
<g id="edge10_Node000009_Node000007" class="edge">
<title>Node9&#45;&gt;Node7</title>
<g id="a_edge10_Node000009_Node000007"><a xlink:title=" ">
<path fill="none" stroke="#63b8ff" d="M157.35,-166.35C146.64,-167.51 135.68,-168.7 125.22,-169.83"/>
<polygon fill="#63b8ff" stroke="#63b8ff" points="157.96,-169.81 167.53,-165.25 157.21,-162.85 157.96,-169.81"/>
</a>
</g>
</g>
<!-- Node10&#45;&gt;Node7 -->
<g id="edge12_Node000010_Node000007" class="edge">
<title>Node10&#45;&gt;Node7</title>
<g id="a_edge12_Node000010_Node000007"><a xlink:title=" ">
<path fill="none" stroke="#63b8ff" d="M183.26,-133.79C175.78,-135.92 168.16,-138.2 161,-140.5 141.42,-146.8 119.94,-154.63 102.14,-161.37"/>
<polygon fill="#63b8ff" stroke="#63b8ff" points="184.26,-137.15 192.94,-131.08 182.37,-130.41 184.26,-137.15"/>
</a>
</g>
</g>
<!-- Node12 -->
<g id="Node000012" class="node">
<title>Node12</title>
<g id="a_Node000012"><a xlink:href="gptoss__weights__index_8c.html#ab0abbe94d2373ea44d51f2325c7cc46c" target="_top" xlink:title="Open a weights index for a given model directory and weights descriptor.">
<polygon fill="white" stroke="#666666" points="659,-109 505,-109 505,-90 659,-90 659,-109"/>
<text text-anchor="middle" x="582" y="-97" font-family="Helvetica,sans-Serif" font-size="10.00">gptoss_weights_index_open</text>
</a>
</g>
</g>
<!-- Node11&#45;&gt;Node12 -->
<g id="edge14_Node000011_Node000012" class="edge">
<title>Node11&#45;&gt;Node12</title>
<g id="a_edge14_Node000011_Node000012"><a xlink:title=" ">
<path fill="none" stroke="#63b8ff" d="M684.73,-99.5C676.25,-99.5 667.61,-99.5 659.13,-99.5"/>
<polygon fill="#63b8ff" stroke="#63b8ff" points="684.97,-103 694.97,-99.5 684.97,-96 684.97,-103"/>
</a>
</g>
</g>
<!-- Node13 -->
<g id="Node000013" class="node">
<title>Node13</title>
<g id="a_Node000013"><a xlink:href="weights_8c.html#a522dac028ee37aae1307ffdb6d65ec1d" target="_top" xlink:title="Open and parse an IEBIN v1 model description.">
<polygon fill="white" stroke="#666666" points="631,-72 533,-72 533,-53 631,-53 631,-72"/>
<text text-anchor="middle" x="582" y="-60" font-family="Helvetica,sans-Serif" font-size="10.00">ie_weights_open</text>
</a>
</g>
</g>
<!-- Node11&#45;&gt;Node13 -->
<g id="edge15_Node000011_Node000013" class="edge">
<title>Node11&#45;&gt;Node13</title>
<g id="a_edge15_Node000011_Node000013"><a xlink:title=" ">
<path fill="none" stroke="#63b8ff" d="M705.27,-87.92C680.75,-82.82 652.28,-76.9 628.99,-72.06"/>
<polygon fill="#63b8ff" stroke="#63b8ff" points="704.66,-91.36 715.16,-89.97 706.08,-84.51 704.66,-91.36"/>
</a>
</g>
</g>
<!-- Node13&#45;&gt;Node4 -->
<g id="edge20_Node000013_Node000004" class="edge">
<title>Node13&#45;&gt;Node4</title>
<g id="a_edge20_Node000013_Node000004"><a xlink:title=" ">
<path fill="none" stroke="#63b8ff" d="M523.29,-74.68C517.06,-76.43 510.86,-78.38 505,-80.5 488.18,-86.6 485.42,-91.39 469,-98.5 453.99,-105 436.58,-111.37 423.56,-115.91"/>
<polygon fill="#63b8ff" stroke="#63b8ff" points="524.31,-78.03 533.07,-72.07 522.51,-71.26 524.31,-78.03"/>
</a>
</g>
</g>
<!-- Node14 -->
<g id="Node000014" class="node">
<title>Node14</title>
<g id="a_Node000014"><a xlink:href="ie__api_8c.html#a84bd87043352946e9d53b0f8a5c4abe0" target="_top" xlink:title="Create an engine instance.">
<polygon fill="white" stroke="#666666" points="453,-56 353,-56 353,-37 453,-37 453,-56"/>
<text text-anchor="middle" x="403" y="-44" font-family="Helvetica,sans-Serif" font-size="10.00">ie_engine_create</text>
</a>
</g>
</g>
<!-- Node13&#45;&gt;Node14 -->
<g id="edge16_Node000013_Node000014" class="edge">
<title>Node13&#45;&gt;Node14</title>
<g id="a_edge16_Node000013_Node000014"><a xlink:title=" ">
<path fill="none" stroke="#63b8ff" d="M522.55,-57.22C500.1,-55.19 474.73,-52.89 453.23,-50.95"/>
<polygon fill="#63b8ff" stroke="#63b8ff" points="522.36,-60.71 532.63,-58.13 522.99,-53.74 522.36,-60.71"/>
</a>
</g>
</g>
<!-- Node15 -->
<g id="Node000015" class="node">
<title>Node15</title>
<g id="a_Node000015"><a xlink:href="main__infer_8c.html#a3c04138a5bfe5d72780bb7e82a18e627" target="_top" xlink:title="main.">
<polygon fill="white" stroke="#666666" points="251.5,-93 210.5,-93 210.5,-74 251.5,-74 251.5,-93"/>
<text text-anchor="middle" x="231" y="-81" font-family="Helvetica,sans-Serif" font-size="10.00">main</text>
</a>
</g>
</g>
<!-- Node13&#45;&gt;Node15 -->
<g id="edge19_Node000013_Node000015" class="edge">
<title>Node13&#45;&gt;Node15</title>
<g id="a_edge19_Node000013_Node000015"><a xlink:title=" ">
<path fill="none" stroke="#63b8ff" d="M522.43,-66.02C442.34,-70.84 302.77,-79.24 251.56,-82.32"/>
<polygon fill="#63b8ff" stroke="#63b8ff" points="523.07,-69.49 532.84,-65.4 522.65,-62.5 523.07,-69.49"/>
</a>
</g>
</g>
<!-- Node17 -->
<g id="Node000017" class="node">
<title>Node17</title>
<g id="a_Node000017"><a xlink:href="test__dedup__loader_8c.html#a73dca7f77cd9da376bc14e888330d88f" target="_top" xlink:title=" ">
<polygon fill="white" stroke="#666666" points="451,-19 355,-19 355,0 451,0 451,-19"/>
<text text-anchor="middle" x="403" y="-7" font-family="Helvetica,sans-Serif" font-size="10.00">open_and_touch</text>
</a>
</g>
</g>
<!-- Node13&#45;&gt;Node17 -->
<g id="edge21_Node000013_Node000017" class="edge">
<title>Node13&#45;&gt;Node17</title>
<g id="a_edge21_Node000013_Node000017"><a xlink:title=" ">
<path fill="none" stroke="#63b8ff" d="M541.42,-49.78C520.03,-43 493.12,-34.61 469,-27.5 459.34,-24.65 448.84,-21.69 439.14,-19.01"/>
<polygon fill="#63b8ff" stroke="#63b8ff" points="540.54,-53.18 551.13,-52.87 542.66,-46.51 540.54,-53.18"/>
</a>
</g>
</g>
<!-- Node14&#45;&gt;Node15 -->
<g id="edge17_Node000014_Node000015" class="edge">
<title>Node14&#45;&gt;Node15</title>
<g id="a_edge17_Node000014_Node000015"><a xlink:title=" ">
<path fill="none" stroke="#63b8ff" d="M348.25,-58.2C315.28,-65.37 275.02,-74.14 251.57,-79.24"/>
<polygon fill="#63b8ff" stroke="#63b8ff" points="349.19,-61.58 358.22,-56.03 347.71,-54.74 349.19,-61.58"/>
</a>
</g>
</g>
<!-- Node16 -->
<g id="Node000016" class="node">
<title>Node16</title>
<g id="a_Node000016"><a xlink:href="test__api_8c.html#a840291bc02cba5474a4cb46a9b9566fe" target="_top" xlink:title=" ">
<polygon fill="white" stroke="#666666" points="251.5,-56 210.5,-56 210.5,-37 251.5,-37 251.5,-56"/>
<text text-anchor="middle" x="231" y="-44" font-family="Helvetica,sans-Serif" font-size="10.00">main</text>
</a>
</g>
</g>
<!-- Node14&#45;&gt;Node16 -->
<g id="edge18_Node000014_Node000016" class="edge">
<title>Node14&#45;&gt;Node16</title>
<g id="a_edge18_Node000014_Node000016"><a xlink:title=" ">
<path fill="none" stroke="#63b8ff" d="M342.71,-46.5C310.88,-46.5 273.75,-46.5 251.59,-46.5"/>
<polygon fill="#63b8ff" stroke="#63b8ff" points="342.83,-50 352.83,-46.5 342.83,-43 342.83,-50"/>
</a>
</g>
</g>
<!-- Node18 -->
<g id="Node000018" class="node">
<title>Node18</title>
<g id="a_Node000018"><a xlink:href="test__dedup__loader_8c.html#a3c04138a5bfe5d72780bb7e82a18e627" target="_top" xlink:title=" ">
<polygon fill="white" stroke="#666666" points="251.5,-19 210.5,-19 210.5,0 251.5,0 251.5,-19"/>
<text text-anchor="middle" x="231" y="-7" font-family="Helvetica,sans-Serif" font-size="10.00">main</text>
</a>
</g>
</g>
<!-- Node17&#45;&gt;Node18 -->
<g id="edge22_Node000017_Node000018" class="edge">
<title>Node17&#45;&gt;Node18</title>
<g id="a_edge22_Node000017_Node000018"><a xlink:title=" ">
<path fill="none" stroke="#63b8ff" d="M344.43,-9.5C312.23,-9.5 274.15,-9.5 251.6,-9.5"/>
<polygon fill="#63b8ff" stroke="#63b8ff" points="344.65,-13 354.65,-9.5 344.65,-6 344.65,-13"/>
</a>
</g>
</g>
</g>
</svg>
