<?xml version="1.0" encoding="UTF-8" standalone="no"?>
<!DOCTYPE svg PUBLIC "-//W3C//DTD SVG 1.1//EN"
 "http://www.w3.org/Graphics/SVG/1.1/DTD/svg11.dtd">
<!-- Generated by graphviz version 2.43.0 (0)
 -->
<!-- Title: js_skip_object Pages: 1 -->
<svg width="1209pt" height="124pt"
 viewBox="0.00 0.00 1209.00 124.24" xmlns="http://www.w3.org/2000/svg" xmlns:xlink="http://www.w3.org/1999/xlink">
<g id="graph0" class="graph" transform="scale(1 1) rotate(0) translate(4 120.24)">
<title>js_skip_object</title>
<!-- Node1 -->
<g id="node1" class="node">
<title>Node1</title>
<g id="a_node1"><a xlink:title="Skip a JSON object.">
<polygon fill="#bfbfbf" stroke="black" points="1115,-57.5 1115,-76.5 1201,-76.5 1201,-57.5 1115,-57.5"/>
<text text-anchor="middle" x="1158" y="-64.5" font-family="Helvetica,sans-Serif" font-size="10.00">js_skip_object</text>
</a>
</g>
</g>
<!-- Node2 -->
<g id="node2" class="node">
<title>Node2</title>
<g id="a_node2"><a xlink:href="weights__dedup_8c.html#ac8435c15b639ac76b805cc23f609be12" target="_top" xlink:title="Parse one tensor object within the &quot;tensors&quot; array.">
<polygon fill="none" stroke="black" points="547,-57.5 547,-76.5 664,-76.5 664,-57.5 547,-57.5"/>
<text text-anchor="middle" x="605.5" y="-64.5" font-family="Helvetica,sans-Serif" font-size="10.00">ie_parse_one_tensor</text>
</a>
</g>
</g>
<!-- Node1&#45;&gt;Node2 -->
<g id="edge1" class="edge">
<title>Node1&#45;&gt;Node2</title>
<path fill="none" stroke="midnightblue" d="M1111.55,-78.96C1028.87,-98.91 848.7,-134.06 700,-105 672.31,-99.59 642.47,-85.95 624.13,-76.58"/>
<polygon fill="midnightblue" stroke="midnightblue" points="1112.49,-82.33 1121.37,-76.55 1110.83,-75.54 1112.49,-82.33"/>
</g>
<!-- Node7 -->
<g id="node7" class="node">
<title>Node7</title>
<g id="a_node7"><a xlink:href="weights__dedup_8c.html#ac65e64ed76368c21cf76399a4eed1b90" target="_top" xlink:title="Parse a blob ref object: {&quot;file&quot;:&quot;defaults&quot;,&quot;offset&quot;:N,&quot;nbytes&quot;:M}.">
<polygon fill="none" stroke="black" points="700,-76.5 700,-95.5 797,-95.5 797,-76.5 700,-76.5"/>
<text text-anchor="middle" x="748.5" y="-83.5" font-family="Helvetica,sans-Serif" font-size="10.00">js_parse_blobref</text>
</a>
</g>
</g>
<!-- Node1&#45;&gt;Node7 -->
<g id="edge6" class="edge">
<title>Node1&#45;&gt;Node7</title>
<path fill="none" stroke="midnightblue" d="M1104.63,-69.44C1024.89,-73.16 874.2,-80.19 797.29,-83.77"/>
<polygon fill="midnightblue" stroke="midnightblue" points="1105.1,-72.92 1114.93,-68.96 1104.77,-65.93 1105.1,-72.92"/>
</g>
<!-- Node8 -->
<g id="node8" class="node">
<title>Node8</title>
<g id="a_node8"><a xlink:href="weights__dedup_8c.html#aec6b7531542a45304d1f17d108a6d2ea" target="_top" xlink:title="Skip a generic JSON value (object/array/string/number/literal).">
<polygon fill="none" stroke="black" points="996,-38.5 996,-57.5 1079,-57.5 1079,-38.5 996,-38.5"/>
<text text-anchor="middle" x="1037.5" y="-45.5" font-family="Helvetica,sans-Serif" font-size="10.00">js_skip_value</text>
</a>
</g>
</g>
<!-- Node1&#45;&gt;Node8 -->
<g id="edge8" class="edge">
<title>Node1&#45;&gt;Node8</title>
<path fill="none" stroke="midnightblue" d="M1122.58,-55.29C1109.06,-52.48 1093.44,-49.89 1079.35,-48.1"/>
<polygon fill="midnightblue" stroke="midnightblue" points="1121.93,-58.73 1132.45,-57.47 1123.44,-51.89 1121.93,-58.73"/>
</g>
<!-- Node3 -->
<g id="node3" class="node">
<title>Node3</title>
<g id="a_node3"><a xlink:href="weights__dedup_8c.html#a1eaf38d57abdd040f9c40e2e3ea1525c" target="_top" xlink:title="Parse the &quot;tensors&quot; array into an allocated table.">
<polygon fill="none" stroke="black" points="381,-57.5 381,-76.5 511,-76.5 511,-57.5 381,-57.5"/>
<text text-anchor="middle" x="446" y="-64.5" font-family="Helvetica,sans-Serif" font-size="10.00">ie_parse_tensors_array</text>
</a>
</g>
</g>
<!-- Node2&#45;&gt;Node3 -->
<g id="edge2" class="edge">
<title>Node2&#45;&gt;Node3</title>
<path fill="none" stroke="midnightblue" d="M536.56,-67C528.12,-67 519.51,-67 511.13,-67"/>
<polygon fill="midnightblue" stroke="midnightblue" points="536.75,-70.5 546.75,-67 536.75,-63.5 536.75,-70.5"/>
</g>
<!-- Node4 -->
<g id="node4" class="node">
<title>Node4</title>
<g id="a_node4"><a xlink:href="weights__dedup_8h.html#aa625b41ce2a24826f8cb464661ace8ec" target="_top" xlink:title="Open a deduplicated model directory.">
<polygon fill="none" stroke="black" points="211,-19.5 211,-38.5 345,-38.5 345,-19.5 211,-19.5"/>
<text text-anchor="middle" x="278" y="-26.5" font-family="Helvetica,sans-Serif" font-size="10.00">ie_weights_dedup_open</text>
</a>
</g>
</g>
<!-- Node3&#45;&gt;Node4 -->
<g id="edge3" class="edge">
<title>Node3&#45;&gt;Node4</title>
<path fill="none" stroke="midnightblue" d="M393.35,-55.18C369.94,-49.82 342.64,-43.57 320.59,-38.52"/>
<polygon fill="midnightblue" stroke="midnightblue" points="392.58,-58.59 403.11,-57.41 394.14,-51.77 392.58,-58.59"/>
</g>
<!-- Node5 -->
<g id="node5" class="node">
<title>Node5</title>
<g id="a_node5"><a xlink:href="group__ie__io__weights.html#ga522dac028ee37aae1307ffdb6d65ec1d" target="_top" xlink:title="Open and parse IEBIN v1 metadata and resolve the weights path.">
<polygon fill="none" stroke="black" points="77,-19.5 77,-38.5 175,-38.5 175,-19.5 77,-19.5"/>
<text text-anchor="middle" x="126" y="-26.5" font-family="Helvetica,sans-Serif" font-size="10.00">ie_weights_open</text>
</a>
</g>
</g>
<!-- Node4&#45;&gt;Node5 -->
<g id="edge4" class="edge">
<title>Node4&#45;&gt;Node5</title>
<path fill="none" stroke="midnightblue" d="M200.66,-29C192.04,-29 183.43,-29 175.31,-29"/>
<polygon fill="midnightblue" stroke="midnightblue" points="200.77,-32.5 210.77,-29 200.77,-25.5 200.77,-32.5"/>
</g>
<!-- Node6 -->
<g id="node6" class="node">
<title>Node6</title>
<g id="a_node6"><a xlink:href="main__infer_8c.html#a3c04138a5bfe5d72780bb7e82a18e627" target="_top" xlink:title="Program entry point.">
<polygon fill="none" stroke="black" points="0,-19.5 0,-38.5 41,-38.5 41,-19.5 0,-19.5"/>
<text text-anchor="middle" x="20.5" y="-26.5" font-family="Helvetica,sans-Serif" font-size="10.00">main</text>
</a>
</g>
</g>
<!-- Node5&#45;&gt;Node6 -->
<g id="edge5" class="edge">
<title>Node5&#45;&gt;Node6</title>
<path fill="none" stroke="midnightblue" d="M66.79,-29C57.53,-29 48.55,-29 41.06,-29"/>
<polygon fill="midnightblue" stroke="midnightblue" points="66.89,-32.5 76.89,-29 66.89,-25.5 66.89,-32.5"/>
</g>
<!-- Node7&#45;&gt;Node2 -->
<g id="edge7" class="edge">
<title>Node7&#45;&gt;Node2</title>
<path fill="none" stroke="midnightblue" d="M689.74,-78.22C681.39,-77.09 672.8,-75.93 664.45,-74.81"/>
<polygon fill="midnightblue" stroke="midnightblue" points="689.39,-81.7 699.76,-79.57 690.32,-74.76 689.39,-81.7"/>
</g>
<!-- Node8&#45;&gt;Node1 -->
<g id="edge15" class="edge">
<title>Node8&#45;&gt;Node1</title>
<path fill="none" stroke="midnightblue" d="M1073.22,-59.77C1086.26,-62.48 1101.24,-64.97 1114.89,-66.74"/>
<polygon fill="midnightblue" stroke="midnightblue" points="1073.75,-56.31 1063.23,-57.57 1072.24,-63.14 1073.75,-56.31"/>
</g>
<!-- Node9 -->
<g id="node9" class="node">
<title>Node9</title>
<g id="a_node9"><a xlink:href="weights__dedup_8c.html#ae0494f541a190a9ecf82c11c5eb22952" target="_top" xlink:title="Find a top&#45;level object member by key and return cursor at its value.">
<polygon fill="none" stroke="black" points="833,-38.5 833,-57.5 960,-57.5 960,-38.5 833,-38.5"/>
<text text-anchor="middle" x="896.5" y="-45.5" font-family="Helvetica,sans-Serif" font-size="10.00">js_find_member_value</text>
</a>
</g>
</g>
<!-- Node8&#45;&gt;Node9 -->
<g id="edge9" class="edge">
<title>Node8&#45;&gt;Node9</title>
<path fill="none" stroke="midnightblue" d="M985.65,-48C977.34,-48 968.65,-48 960.1,-48"/>
<polygon fill="midnightblue" stroke="midnightblue" points="985.92,-51.5 995.92,-48 985.92,-44.5 985.92,-51.5"/>
</g>
<!-- Node10 -->
<g id="node10" class="node">
<title>Node10</title>
<g id="a_node10"><a xlink:href="weights__dedup_8c.html#aeb7fa9bc2ccc7b24ae16f647bcafb49b" target="_top" xlink:title="Skip a JSON array.">
<polygon fill="none" stroke="black" points="856,-0.5 856,-19.5 937,-19.5 937,-0.5 856,-0.5"/>
<text text-anchor="middle" x="896.5" y="-7.5" font-family="Helvetica,sans-Serif" font-size="10.00">js_skip_array</text>
</a>
</g>
</g>
<!-- Node8&#45;&gt;Node10 -->
<g id="edge13" class="edge">
<title>Node8&#45;&gt;Node10</title>
<path fill="none" stroke="midnightblue" d="M1008.95,-34.96C988.44,-27.96 960.15,-20.01 937.21,-14.69"/>
<polygon fill="midnightblue" stroke="midnightblue" points="1008.02,-38.34 1018.61,-38.41 1010.37,-31.75 1008.02,-38.34"/>
</g>
<!-- Node9&#45;&gt;Node2 -->
<g id="edge10" class="edge">
<title>Node9&#45;&gt;Node2</title>
<path fill="none" stroke="midnightblue" d="M822.56,-52.8C773.49,-56.02 709.7,-60.22 664.18,-63.21"/>
<polygon fill="midnightblue" stroke="midnightblue" points="823.04,-56.27 832.79,-52.12 822.58,-49.29 823.04,-56.27"/>
</g>
<!-- Node9&#45;&gt;Node4 -->
<g id="edge11" class="edge">
<title>Node9&#45;&gt;Node4</title>
<path fill="none" stroke="midnightblue" d="M822.74,-45.76C701.96,-42.04 461.83,-34.63 345.39,-31.05"/>
<polygon fill="midnightblue" stroke="midnightblue" points="822.89,-49.26 832.99,-46.07 823.11,-42.27 822.89,-49.26"/>
</g>
<!-- Node9&#45;&gt;Node7 -->
<g id="edge12" class="edge">
<title>Node9&#45;&gt;Node7</title>
<path fill="none" stroke="midnightblue" d="M848.96,-60.11C828.63,-65.4 805.13,-71.52 786.08,-76.48"/>
<polygon fill="midnightblue" stroke="midnightblue" points="849.86,-63.5 858.66,-57.59 848.1,-56.72 849.86,-63.5"/>
</g>
<!-- Node10&#45;&gt;Node8 -->
<g id="edge14" class="edge">
<title>Node10&#45;&gt;Node8</title>
<path fill="none" stroke="midnightblue" d="M924.76,-22.94C945.03,-29.88 973.03,-37.77 995.92,-43.11"/>
<polygon fill="midnightblue" stroke="midnightblue" points="925.81,-19.6 915.21,-19.53 923.45,-26.19 925.81,-19.6"/>
</g>
</g>
</svg>
