<?xml version="1.0" encoding="UTF-8" standalone="no"?>
<!DOCTYPE svg PUBLIC "-//W3C//DTD SVG 1.1//EN"
 "http://www.w3.org/Graphics/SVG/1.1/DTD/svg11.dtd">
<!-- Generated by graphviz version 2.43.0 (0)
 -->
<!-- Title: ie_parse_files_object Pages: 1 -->
<svg width="358pt" height="47pt"
 viewBox="0.00 0.00 358.00 47.00" xmlns="http://www.w3.org/2000/svg" xmlns:xlink="http://www.w3.org/1999/xlink">
<g id="graph0" class="graph" transform="scale(1 1) rotate(0) translate(4 43)">
<title>ie_parse_files_object</title>
<!-- Node1 -->
<g id="node1" class="node">
<title>Node1</title>
<g id="a_node1"><a xlink:title="Parse the &quot;files&quot; object mapping logical names to relative file paths.">
<polygon fill="#bfbfbf" stroke="black" points="0,-0.5 0,-19.5 119,-19.5 119,-0.5 0,-0.5"/>
<text text-anchor="middle" x="59.5" y="-7.5" font-family="Helvetica,sans-Serif" font-size="10.00">ie_parse_files_object</text>
</a>
</g>
</g>
<!-- Node2 -->
<g id="node2" class="node">
<title>Node2</title>
<g id="a_node2"><a xlink:href="weights__dedup_8c.html#a7e3b6f5b10e0d8d68272d2e80523813b" target="_top" xlink:title="Parse a JSON string into an allocated C string.">
<polygon fill="none" stroke="black" points="155,-19.5 155,-38.5 245,-38.5 245,-19.5 155,-19.5"/>
<text text-anchor="middle" x="200" y="-26.5" font-family="Helvetica,sans-Serif" font-size="10.00">js_parse_string</text>
</a>
</g>
</g>
<!-- Node1&#45;&gt;Node2 -->
<g id="edge1" class="edge">
<title>Node1&#45;&gt;Node2</title>
<path fill="none" stroke="midnightblue" d="M119.24,-18.06C127.73,-19.22 136.43,-20.42 144.83,-21.57"/>
<polygon fill="midnightblue" stroke="midnightblue" points="144.5,-25.06 154.88,-22.95 145.45,-18.12 144.5,-25.06"/>
</g>
<!-- Node3 -->
<g id="node3" class="node">
<title>Node3</title>
<g id="a_node3"><a xlink:href="weights__dedup_8c.html#a82535eef357e00f15379d3a922d6593d" target="_top" xlink:title="Skip whitespace for the internal JSON scanner.">
<polygon fill="none" stroke="black" points="281,-0.5 281,-19.5 350,-19.5 350,-0.5 281,-0.5"/>
<text text-anchor="middle" x="315.5" y="-7.5" font-family="Helvetica,sans-Serif" font-size="10.00">js_skip_ws</text>
</a>
</g>
</g>
<!-- Node1&#45;&gt;Node3 -->
<g id="edge3" class="edge">
<title>Node1&#45;&gt;Node3</title>
<path fill="none" stroke="midnightblue" d="M119.09,-10C165.28,-10 228.68,-10 270.58,-10"/>
<polygon fill="midnightblue" stroke="midnightblue" points="270.75,-13.5 280.75,-10 270.75,-6.5 270.75,-13.5"/>
</g>
<!-- Node2&#45;&gt;Node3 -->
<g id="edge2" class="edge">
<title>Node2&#45;&gt;Node3</title>
<path fill="none" stroke="midnightblue" d="M245.21,-21.6C253.61,-20.19 262.41,-18.72 270.8,-17.32"/>
<polygon fill="midnightblue" stroke="midnightblue" points="271.5,-20.75 280.78,-15.64 270.34,-13.84 271.5,-20.75"/>
</g>
</g>
</svg>
