<?xml version="1.0" encoding="UTF-8" standalone="no"?>
<!DOCTYPE svg PUBLIC "-//W3C//DTD SVG 1.1//EN"
 "http://www.w3.org/Graphics/SVG/1.1/DTD/svg11.dtd">
<!-- Generated by graphviz version 2.43.0 (0)
 -->
<!-- Title: cpyz Pages: 1 -->
<svg width="409pt" height="75pt"
 viewBox="0.00 0.00 409.00 75.00" xmlns="http://www.w3.org/2000/svg" xmlns:xlink="http://www.w3.org/1999/xlink">
<g id="graph0" class="graph" transform="scale(1 1) rotate(0) translate(4 71)">
<title>cpyz</title>
<!-- Node1 -->
<g id="node1" class="node">
<title>Node1</title>
<g id="a_node1"><a xlink:title=" ">
<polygon fill="#bfbfbf" stroke="black" points="362,-28.5 362,-47.5 401,-47.5 401,-28.5 362,-28.5"/>
<text text-anchor="middle" x="381.5" y="-35.5" font-family="Helvetica,sans-Serif" font-size="10.00">cpyz</text>
</a>
</g>
</g>
<!-- Node2 -->
<g id="node2" class="node">
<title>Node2</title>
<g id="a_node2"><a xlink:href="group__ie__io__weights.html#ga522dac028ee37aae1307ffdb6d65ec1d" target="_top" xlink:title="Open and parse IEBIN v1 metadata and resolve the weights path.">
<polygon fill="none" stroke="black" points="103.5,-47.5 103.5,-66.5 201.5,-66.5 201.5,-47.5 103.5,-47.5"/>
<text text-anchor="middle" x="152.5" y="-54.5" font-family="Helvetica,sans-Serif" font-size="10.00">ie_weights_open</text>
</a>
</g>
</g>
<!-- Node1&#45;&gt;Node2 -->
<g id="edge1" class="edge">
<title>Node1&#45;&gt;Node2</title>
<path fill="none" stroke="midnightblue" d="M352.17,-49.89C343.88,-52.81 334.71,-55.53 326,-57 284.51,-64.02 236.61,-63.34 201.82,-61.29"/>
<polygon fill="midnightblue" stroke="midnightblue" points="353.62,-53.09 361.74,-46.29 351.15,-46.53 353.62,-53.09"/>
</g>
<!-- Node4 -->
<g id="node4" class="node">
<title>Node4</title>
<g id="a_node4"><a xlink:href="weights_8c.html#a1c8fc195c7c1f4e503920578dbaf1d02" target="_top" xlink:title="Read INT4 quantization metadata from an IEBIN v1 JSON header.">
<polygon fill="none" stroke="black" points="77,-0.5 77,-19.5 228,-19.5 228,-0.5 77,-0.5"/>
<text text-anchor="middle" x="152.5" y="-7.5" font-family="Helvetica,sans-Serif" font-size="10.00">ie_weights_read_int4_meta</text>
</a>
</g>
</g>
<!-- Node1&#45;&gt;Node4 -->
<g id="edge3" class="edge">
<title>Node1&#45;&gt;Node4</title>
<path fill="none" stroke="midnightblue" d="M352.12,-26.4C343.83,-23.48 334.67,-20.7 326,-19 294.37,-12.79 258.88,-10.21 228.36,-9.3"/>
<polygon fill="midnightblue" stroke="midnightblue" points="351.11,-29.76 361.7,-29.96 353.54,-23.2 351.11,-29.76"/>
</g>
<!-- Node5 -->
<g id="node5" class="node">
<title>Node5</title>
<g id="a_node5"><a xlink:href="weights_8c.html#a7bb1dd9958b072fc5d1a80373cc074ff" target="_top" xlink:title=" ">
<polygon fill="none" stroke="black" points="264,-28.5 264,-47.5 326,-47.5 326,-28.5 264,-28.5"/>
<text text-anchor="middle" x="295" y="-35.5" font-family="Helvetica,sans-Serif" font-size="10.00">join_path</text>
</a>
</g>
</g>
<!-- Node1&#45;&gt;Node5 -->
<g id="edge4" class="edge">
<title>Node1&#45;&gt;Node5</title>
<path fill="none" stroke="midnightblue" d="M351.58,-38C343.43,-38 334.54,-38 326.32,-38"/>
<polygon fill="midnightblue" stroke="midnightblue" points="351.75,-41.5 361.75,-38 351.75,-34.5 351.75,-41.5"/>
</g>
<!-- Node3 -->
<g id="node3" class="node">
<title>Node3</title>
<g id="a_node3"><a xlink:href="main__infer_8c.html#a3c04138a5bfe5d72780bb7e82a18e627" target="_top" xlink:title="Program entry point.">
<polygon fill="none" stroke="black" points="0,-47.5 0,-66.5 41,-66.5 41,-47.5 0,-47.5"/>
<text text-anchor="middle" x="20.5" y="-54.5" font-family="Helvetica,sans-Serif" font-size="10.00">main</text>
</a>
</g>
</g>
<!-- Node2&#45;&gt;Node3 -->
<g id="edge2" class="edge">
<title>Node2&#45;&gt;Node3</title>
<path fill="none" stroke="midnightblue" d="M93.46,-57C74.71,-57 55.17,-57 41.19,-57"/>
<polygon fill="midnightblue" stroke="midnightblue" points="93.46,-60.5 103.46,-57 93.46,-53.5 93.46,-60.5"/>
</g>
<!-- Node5&#45;&gt;Node2 -->
<g id="edge5" class="edge">
<title>Node5&#45;&gt;Node2</title>
<path fill="none" stroke="midnightblue" d="M253.61,-43.46C237.36,-45.66 218.5,-48.21 201.55,-50.5"/>
<polygon fill="midnightblue" stroke="midnightblue" points="254.42,-46.88 263.86,-42.08 253.48,-39.95 254.42,-46.88"/>
</g>
<!-- Node5&#45;&gt;Node4 -->
<g id="edge6" class="edge">
<title>Node5&#45;&gt;Node4</title>
<path fill="none" stroke="midnightblue" d="M254.03,-30.03C237.6,-26.76 218.44,-22.94 201.28,-19.52"/>
<polygon fill="midnightblue" stroke="midnightblue" points="253.37,-33.47 263.86,-31.99 254.74,-26.61 253.37,-33.47"/>
</g>
</g>
</svg>
