<?xml version="1.0" encoding="UTF-8" standalone="no"?>
<!DOCTYPE svg PUBLIC "-//W3C//DTD SVG 1.1//EN"
 "http://www.w3.org/Graphics/SVG/1.1/DTD/svg11.dtd">
<!-- Generated by graphviz version 2.43.0 (0)
 -->
<!-- Title: ie_parse_iejson_tensors Pages: 1 -->
<svg width="1393pt" height="1000pt"
 viewBox="0.00 0.00 1393.00 1000.09" xmlns="http://www.w3.org/2000/svg" xmlns:xlink="http://www.w3.org/1999/xlink">
<g id="graph0" class="graph" transform="scale(1 1) rotate(0) translate(4 996.09)">
<title>ie_parse_iejson_tensors</title>
<!-- Node1 -->
<g id="Node000001" class="node">
<title>Node1</title>
<g id="a_Node000001"><a xlink:title=" ">
<polygon fill="#999999" stroke="#666666" points="134,-798.11 0,-798.11 0,-779.11 134,-779.11 134,-798.11"/>
<text text-anchor="middle" x="67" y="-786.11" font-family="Helvetica,sans-Serif" font-size="10.00">ie_parse_iejson_tensors</text>
</a>
</g>
</g>
<!-- Node2 -->
<g id="Node000002" class="node">
<title>Node2</title>
<g id="a_Node000002"><a xlink:href="ie__device__cuda_8cu.html#a5e3d9fee84981707669f5c2398f0c4ab" target="_top" xlink:title="Row&#45;wise GEMV kernel: each thread computes one output row.">
<polygon fill="white" stroke="#666666" points="1385,-557.61 1260,-557.61 1260,-527.61 1385,-527.61 1385,-557.61"/>
<text text-anchor="start" x="1268" y="-545.61" font-family="Helvetica,sans-Serif" font-size="10.00">ie_gemv_rowwise_f32</text>
<text text-anchor="middle" x="1322.5" y="-534.61" font-family="Helvetica,sans-Serif" font-size="10.00">_kernel</text>
</a>
</g>
</g>
<!-- Node1&#45;&gt;Node2 -->
<g id="edge1_Node000001_Node000002" class="edge">
<title>Node1&#45;&gt;Node2</title>
<g id="a_edge1_Node000001_Node000002"><a xlink:title=" ">
<path fill="none" stroke="#63b8ff" d="M73.91,-798.21C87.91,-820.16 125.29,-874.5 170,-904.61 252.78,-960.36 282.2,-978.61 382,-978.61 382,-978.61 382,-978.61 990.5,-978.61 1094.92,-978.61 1145.78,-1021.79 1224,-952.61 1282.63,-900.76 1311.36,-649.24 1319.22,-567.98"/>
<polygon fill="#63b8ff" stroke="#63b8ff" points="1322.73,-567.97 1320.19,-557.68 1315.76,-567.31 1322.73,-567.97"/>
</a>
</g>
</g>
<!-- Node3 -->
<g id="Node000003" class="node">
<title>Node3</title>
<g id="a_Node000003"><a xlink:href="weights__dedup_8c.html#ac9fd98c11a69e8bc29305133401f9b5a" target="_top" xlink:title=" ">
<polygon fill="white" stroke="#666666" points="443.5,-912.11 322.5,-912.11 322.5,-893.11 443.5,-893.11 443.5,-912.11"/>
<text text-anchor="middle" x="383" y="-900.11" font-family="Helvetica,sans-Serif" font-size="10.00">ie_iejson_tensor_free</text>
</a>
</g>
</g>
<!-- Node1&#45;&gt;Node3 -->
<g id="edge2_Node000001_Node000003" class="edge">
<title>Node1&#45;&gt;Node3</title>
<g id="a_edge2_Node000001_Node000003"><a xlink:title=" ">
<path fill="none" stroke="#63b8ff" d="M75.44,-798.32C90.76,-817.49 127.91,-859.92 170,-878.61 214.66,-898.44 269.59,-904.21 312.35,-905.14"/>
<polygon fill="#63b8ff" stroke="#63b8ff" points="312.34,-908.64 322.38,-905.27 312.43,-901.64 312.34,-908.64"/>
</a>
</g>
</g>
<!-- Node4 -->
<g id="Node000004" class="node">
<title>Node4</title>
<g id="a_Node000004"><a xlink:href="weights__dedup_8c.html#aff1829f796837ea285a63b43a0a2d485" target="_top" xlink:title=" ">
<polygon fill="white" stroke="#666666" points="286,-570.61 170,-570.61 170,-540.61 286,-540.61 286,-570.61"/>
<text text-anchor="start" x="178" y="-558.61" font-family="Helvetica,sans-Serif" font-size="10.00">ie_parse_iejson_one</text>
<text text-anchor="middle" x="228" y="-547.61" font-family="Helvetica,sans-Serif" font-size="10.00">_tensor</text>
</a>
</g>
</g>
<!-- Node1&#45;&gt;Node4 -->
<g id="edge4_Node000001_Node000004" class="edge">
<title>Node1&#45;&gt;Node4</title>
<g id="a_edge4_Node000001_Node000004"><a xlink:title=" ">
<path fill="none" stroke="#63b8ff" d="M70.51,-778.8C79.13,-746.9 110.29,-644.74 170,-584.61 173.04,-581.55 176.46,-578.76 180.09,-576.21"/>
<polygon fill="#63b8ff" stroke="#63b8ff" points="182.22,-579.01 188.83,-570.73 178.5,-573.08 182.22,-579.01"/>
</a>
</g>
</g>
<!-- Node7 -->
<g id="Node000007" class="node">
<title>Node7</title>
<g id="a_Node000007"><a xlink:href="weights__dedup_8c.html#a895464d80bf34b1528d1f98084f5ec64" target="_top" xlink:title=" ">
<polygon fill="white" stroke="#666666" points="904,-874.11 811,-874.11 811,-855.11 904,-855.11 904,-874.11"/>
<text text-anchor="middle" x="857.5" y="-862.11" font-family="Helvetica,sans-Serif" font-size="10.00">ie_wdedup_logf</text>
</a>
</g>
</g>
<!-- Node1&#45;&gt;Node7 -->
<g id="edge57_Node000001_Node000007" class="edge">
<title>Node1&#45;&gt;Node7</title>
<g id="a_edge57_Node000001_Node000007"><a xlink:title=" ">
<path fill="none" stroke="#63b8ff" d="M91.17,-798.24C142.56,-818.69 270.38,-864.61 382,-864.61 382,-864.61 382,-864.61 549.5,-864.61 637.29,-864.61 739.21,-864.61 800.73,-864.61"/>
<polygon fill="#63b8ff" stroke="#63b8ff" points="800.99,-868.11 810.99,-864.61 800.99,-861.11 800.99,-868.11"/>
</a>
</g>
</g>
<!-- Node11 -->
<g id="Node000011" class="node">
<title>Node11</title>
<g id="a_Node000011"><a xlink:href="weights__dedup_8c.html#ae0494f541a190a9ecf82c11c5eb22952" target="_top" xlink:title=" ">
<polygon fill="white" stroke="#666666" points="612,-588.11 485,-588.11 485,-569.11 612,-569.11 612,-588.11"/>
<text text-anchor="middle" x="548.5" y="-576.11" font-family="Helvetica,sans-Serif" font-size="10.00">js_find_member_value</text>
</a>
</g>
</g>
<!-- Node1&#45;&gt;Node11 -->
<g id="edge58_Node000001_Node000011" class="edge">
<title>Node1&#45;&gt;Node11</title>
<g id="a_edge58_Node000001_Node000011"><a xlink:title=" ">
<path fill="none" stroke="#63b8ff" d="M78.66,-778.92C111.86,-749.32 217.42,-659.61 322,-617.61 370.84,-598 429.52,-588.24 474.78,-583.39"/>
<polygon fill="#63b8ff" stroke="#63b8ff" points="475.21,-586.86 484.81,-582.37 474.51,-579.9 475.21,-586.86"/>
</a>
</g>
</g>
<!-- Node13 -->
<g id="Node000013" class="node">
<title>Node13</title>
<g id="a_Node000013"><a xlink:href="weights__dedup_8c.html#a21501177295cc06eaf7d981f7d437c0c" target="_top" xlink:title=" ">
<polygon fill="white" stroke="#666666" points="1184,-400.11 1115,-400.11 1115,-381.11 1184,-381.11 1184,-400.11"/>
<text text-anchor="middle" x="1149.5" y="-388.11" font-family="Helvetica,sans-Serif" font-size="10.00">js_skip_ws</text>
</a>
</g>
</g>
<!-- Node1&#45;&gt;Node13 -->
<g id="edge60_Node000001_Node000013" class="edge">
<title>Node1&#45;&gt;Node13</title>
<g id="a_edge60_Node000001_Node000013"><a xlink:title=" ">
<path fill="none" stroke="#63b8ff" d="M68.17,-778.78C70.11,-699.14 93.84,-162.61 382,-162.61 382,-162.61 382,-162.61 549.5,-162.61 564.7,-162.61 990.63,-328.83 1114.82,-377.42"/>
<polygon fill="#63b8ff" stroke="#63b8ff" points="1113.65,-380.72 1124.23,-381.11 1116.2,-374.2 1113.65,-380.72"/>
</a>
</g>
</g>
<!-- Node18 -->
<g id="Node000018" class="node">
<title>Node18</title>
<g id="a_Node000018"><a xlink:href="weights__dedup_8c.html#ae1e5c9a54a8c0312241d17afd01c40a0" target="_top" xlink:title=" ">
<polygon fill="white" stroke="#666666" points="900.5,-684.11 814.5,-684.11 814.5,-665.11 900.5,-665.11 900.5,-684.11"/>
<text text-anchor="middle" x="857.5" y="-672.11" font-family="Helvetica,sans-Serif" font-size="10.00">js_skip_object</text>
</a>
</g>
</g>
<!-- Node1&#45;&gt;Node18 -->
<g id="edge59_Node000001_Node000018" class="edge">
<title>Node1&#45;&gt;Node18</title>
<g id="a_edge59_Node000001_Node000018"><a xlink:title=" ">
<path fill="none" stroke="#63b8ff" d="M134.36,-793.55C238.47,-799.68 445.93,-805.38 617,-769.61 697.6,-752.76 786.12,-711.02 829.5,-688.9"/>
<polygon fill="#63b8ff" stroke="#63b8ff" points="831.26,-691.93 838.54,-684.24 828.05,-685.71 831.26,-691.93"/>
</a>
</g>
</g>
<!-- Node3&#45;&gt;Node2 -->
<g id="edge3_Node000003_Node000002" class="edge">
<title>Node3&#45;&gt;Node2</title>
<g id="a_edge3_Node000003_Node000002"><a xlink:title=" ">
<path fill="none" stroke="#63b8ff" d="M434.8,-912.15C499.25,-923.41 613.96,-940.61 713,-940.61 713,-940.61 713,-940.61 990.5,-940.61 1094.62,-940.61 1144.37,-988.7 1224,-921.61 1279.1,-875.2 1309.82,-645.6 1318.74,-568.16"/>
<polygon fill="#63b8ff" stroke="#63b8ff" points="1322.26,-568.21 1319.9,-557.88 1315.3,-567.43 1322.26,-568.21"/>
</a>
</g>
</g>
<!-- Node4&#45;&gt;Node2 -->
<g id="edge7_Node000004_Node000002" class="edge">
<title>Node4&#45;&gt;Node2</title>
<g id="a_edge7_Node000004_Node000002"><a xlink:title=" ">
<path fill="none" stroke="#63b8ff" d="M228.46,-540.4C227.5,-488.78 231.62,-318.6 322,-229.61 386.11,-166.49 623.03,-124.61 713,-124.61 713,-124.61 713,-124.61 990.5,-124.61 1096.02,-124.61 1146.74,-95.74 1224,-167.61 1276.11,-216.09 1308.69,-440.62 1318.42,-517.05"/>
<polygon fill="#63b8ff" stroke="#63b8ff" points="1314.98,-517.73 1319.69,-527.22 1321.92,-516.86 1314.98,-517.73"/>
</a>
</g>
</g>
<!-- Node4&#45;&gt;Node3 -->
<g id="edge8_Node000004_Node000003" class="edge">
<title>Node4&#45;&gt;Node3</title>
<g id="a_edge8_Node000004_Node000003"><a xlink:title=" ">
<path fill="none" stroke="#63b8ff" d="M235.77,-570.97C260.59,-627.26 346.55,-822.2 373.71,-883.8"/>
<polygon fill="#63b8ff" stroke="#63b8ff" points="370.57,-885.36 377.81,-893.1 376.97,-882.54 370.57,-885.36"/>
</a>
</g>
</g>
<!-- Node5 -->
<g id="Node000005" class="node">
<title>Node5</title>
<g id="a_Node000005"><a xlink:href="weights__dedup_8c.html#a769c13c3bd5730384bfe064bc1618b11" target="_top" xlink:title=" ">
<polygon fill="white" stroke="#666666" points="605,-96.11 492,-96.11 492,-77.11 605,-77.11 605,-96.11"/>
<text text-anchor="middle" x="548.5" y="-84.11" font-family="Helvetica,sans-Serif" font-size="10.00">ie_dtype_elem_size</text>
</a>
</g>
</g>
<!-- Node4&#45;&gt;Node5 -->
<g id="edge5_Node000004_Node000005" class="edge">
<title>Node4&#45;&gt;Node5</title>
<g id="a_edge5_Node000004_Node000005"><a xlink:title=" ">
<path fill="none" stroke="#63b8ff" d="M228.5,-540.26C227.55,-485.58 231.33,-297.66 322,-186.61 362.25,-137.32 431.74,-111.56 482.98,-98.62"/>
<polygon fill="#63b8ff" stroke="#63b8ff" points="484.07,-101.95 492.97,-96.2 482.42,-95.15 484.07,-101.95"/>
</a>
</g>
</g>
<!-- Node6 -->
<g id="Node000006" class="node">
<title>Node6</title>
<g id="a_Node000006"><a xlink:href="weights__dedup_8c.html#a4cce94dd277bd5e194b03d519205c2b4" target="_top" xlink:title=" ">
<polygon fill="white" stroke="#666666" points="775,-58.11 653,-58.11 653,-39.11 775,-39.11 775,-58.11"/>
<text text-anchor="middle" x="714" y="-46.11" font-family="Helvetica,sans-Serif" font-size="10.00">ie_shape_elem_count</text>
</a>
</g>
</g>
<!-- Node4&#45;&gt;Node6 -->
<g id="edge9_Node000004_Node000006" class="edge">
<title>Node4&#45;&gt;Node6</title>
<g id="a_edge9_Node000004_Node000006"><a xlink:title=" ">
<path fill="none" stroke="#63b8ff" d="M230.03,-540.29C235.12,-469.08 259.88,-171.12 322,-106.61 408.11,-17.19 567.76,-25.18 654.02,-37.57"/>
<polygon fill="#63b8ff" stroke="#63b8ff" points="653.76,-41.07 664.17,-39.1 654.8,-34.15 653.76,-41.07"/>
</a>
</g>
</g>
<!-- Node4&#45;&gt;Node7 -->
<g id="edge11_Node000004_Node000007" class="edge">
<title>Node4&#45;&gt;Node7</title>
<g id="a_edge11_Node000004_Node000007"><a xlink:title=" ">
<path fill="none" stroke="#63b8ff" d="M235.43,-571.02C248.09,-599.68 278.81,-661.62 322,-698.61 395.66,-761.71 679.49,-827.35 800.89,-853.19"/>
<polygon fill="#63b8ff" stroke="#63b8ff" points="800.23,-856.63 810.74,-855.28 801.68,-849.78 800.23,-856.63"/>
</a>
</g>
</g>
<!-- Node10 -->
<g id="Node000010" class="node">
<title>Node10</title>
<g id="a_Node000010"><a xlink:href="weights__dedup_8c.html#ad0ae06a184c7f1407994167e82afedb7" target="_top" xlink:title=" ">
<polygon fill="white" stroke="#666666" points="617,-760.61 480,-760.61 480,-730.61 617,-730.61 617,-760.61"/>
<text text-anchor="start" x="488" y="-748.61" font-family="Helvetica,sans-Serif" font-size="10.00">ie_weights_dedup_parse</text>
<text text-anchor="middle" x="548.5" y="-737.61" font-family="Helvetica,sans-Serif" font-size="10.00">_dtype</text>
</a>
</g>
</g>
<!-- Node4&#45;&gt;Node10 -->
<g id="edge18_Node000004_Node000010" class="edge">
<title>Node4&#45;&gt;Node10</title>
<g id="a_edge18_Node000004_Node000010"><a xlink:title=" ">
<path fill="none" stroke="#63b8ff" d="M239.72,-570.62C255.58,-591.87 287.16,-630.77 322,-654.61 371.28,-688.33 434.94,-712.57 482.05,-727.51"/>
<polygon fill="#63b8ff" stroke="#63b8ff" points="481.25,-730.93 491.84,-730.56 483.33,-724.24 481.25,-730.93"/>
</a>
</g>
</g>
<!-- Node4&#45;&gt;Node11 -->
<g id="edge20_Node000004_Node000011" class="edge">
<title>Node4&#45;&gt;Node11</title>
<g id="a_edge20_Node000004_Node000011"><a xlink:title=" ">
<path fill="none" stroke="#63b8ff" d="M286.31,-559.75C339.11,-563.56 417.7,-569.24 474.87,-573.37"/>
<polygon fill="#63b8ff" stroke="#63b8ff" points="474.7,-576.86 484.93,-574.09 475.21,-569.88 474.7,-576.86"/>
</a>
</g>
</g>
<!-- Node19 -->
<g id="Node000019" class="node">
<title>Node19</title>
<g id="a_Node000019"><a xlink:href="weights__dedup_8c.html#a176ff7ed51749363637a7ad5366cf4e9" target="_top" xlink:title=" ">
<polygon fill="white" stroke="#666666" points="903.5,-248.11 811.5,-248.11 811.5,-229.11 903.5,-229.11 903.5,-248.11"/>
<text text-anchor="middle" x="857.5" y="-236.11" font-family="Helvetica,sans-Serif" font-size="10.00">js_parse_shape</text>
</a>
</g>
</g>
<!-- Node4&#45;&gt;Node19 -->
<g id="edge45_Node000004_Node000019" class="edge">
<title>Node4&#45;&gt;Node19</title>
<g id="a_edge45_Node000004_Node000019"><a xlink:title=" ">
<path fill="none" stroke="#63b8ff" d="M258.84,-540.54C365.14,-486.84 724.46,-305.32 828.22,-252.9"/>
<polygon fill="#63b8ff" stroke="#63b8ff" points="830.1,-255.87 837.45,-248.24 826.95,-249.62 830.1,-255.87"/>
</a>
</g>
</g>
<!-- Node20 -->
<g id="Node000020" class="node">
<title>Node20</title>
<g id="a_Node000020"><a xlink:href="weights__dedup_8c.html#ace1eab87292a3ab28bc10e2a8741b84b" target="_top" xlink:title=" ">
<polygon fill="white" stroke="#666666" points="441,-646.11 325,-646.11 325,-627.11 441,-627.11 441,-646.11"/>
<text text-anchor="middle" x="383" y="-634.11" font-family="Helvetica,sans-Serif" font-size="10.00">js_read_str_member</text>
</a>
</g>
</g>
<!-- Node4&#45;&gt;Node20 -->
<g id="edge49_Node000004_Node000020" class="edge">
<title>Node4&#45;&gt;Node20</title>
<g id="a_edge49_Node000004_Node000020"><a xlink:title=" ">
<path fill="none" stroke="#63b8ff" d="M257.42,-570.66C285.25,-585.39 327.35,-607.68 354.77,-622.2"/>
<polygon fill="#63b8ff" stroke="#63b8ff" points="353.33,-625.39 363.81,-626.98 356.61,-619.21 353.33,-625.39"/>
</a>
</g>
</g>
<!-- Node21 -->
<g id="Node000021" class="node">
<title>Node21</title>
<g id="a_Node000021"><a xlink:href="weights__dedup_8c.html#ad380703417334421d025a859a9a6e67e" target="_top" xlink:title=" ">
<polygon fill="white" stroke="#666666" points="444,-258.11 322,-258.11 322,-239.11 444,-239.11 444,-258.11"/>
<text text-anchor="middle" x="383" y="-246.11" font-family="Helvetica,sans-Serif" font-size="10.00">js_read_u64_member</text>
</a>
</g>
</g>
<!-- Node4&#45;&gt;Node21 -->
<g id="edge53_Node000004_Node000021" class="edge">
<title>Node4&#45;&gt;Node21</title>
<g id="a_edge53_Node000004_Node000021"><a xlink:title=" ">
<path fill="none" stroke="#63b8ff" d="M231.09,-540.4C237.63,-497.4 261.04,-372.84 322,-291.61 330.5,-280.29 342.83,-270.73 354.11,-263.52"/>
<polygon fill="#63b8ff" stroke="#63b8ff" points="356.09,-266.42 362.84,-258.26 352.47,-260.43 356.09,-266.42"/>
</a>
</g>
</g>
<!-- Node5&#45;&gt;Node2 -->
<g id="edge6_Node000005_Node000002" class="edge">
<title>Node5&#45;&gt;Node2</title>
<g id="a_edge6_Node000005_Node000002"><a xlink:title=" ">
<path fill="none" stroke="#63b8ff" d="M605.24,-86.61C666.75,-86.61 768.69,-86.61 856.5,-86.61 856.5,-86.61 856.5,-86.61 990.5,-86.61 1094.82,-86.61 1145.96,-41.38 1224,-110.61 1285.85,-165.48 1312.59,-433.07 1319.56,-517.23"/>
<polygon fill="#63b8ff" stroke="#63b8ff" points="1316.08,-517.51 1320.37,-527.2 1323.05,-516.95 1316.08,-517.51"/>
</a>
</g>
</g>
<!-- Node6&#45;&gt;Node2 -->
<g id="edge10_Node000006_Node000002" class="edge">
<title>Node6&#45;&gt;Node2</title>
<g id="a_edge10_Node000006_Node000002"><a xlink:title=" ">
<path fill="none" stroke="#63b8ff" d="M744.41,-39.07C830.11,-13.26 1082.54,48.16 1224,-72.61 1292.75,-131.31 1315,-428.07 1320.19,-517.24"/>
<polygon fill="#63b8ff" stroke="#63b8ff" points="1316.69,-517.49 1320.75,-527.28 1323.68,-517.1 1316.69,-517.49"/>
</a>
</g>
</g>
<!-- Node7&#45;&gt;Node2 -->
<g id="edge12_Node000007_Node000002" class="edge">
<title>Node7&#45;&gt;Node2</title>
<g id="a_edge12_Node000007_Node000002"><a xlink:title=" ">
<path fill="none" stroke="#63b8ff" d="M899.44,-855.04C912.38,-852.15 926.76,-849.1 940,-846.61 1002.77,-834.83 1174.46,-842.91 1224,-802.61 1297.85,-742.55 1315.78,-620.46 1320.12,-567.76"/>
<polygon fill="#63b8ff" stroke="#63b8ff" points="1323.62,-567.84 1320.86,-557.62 1316.64,-567.34 1323.62,-567.84"/>
</a>
</g>
</g>
<!-- Node8 -->
<g id="Node000008" class="node">
<title>Node8</title>
<g id="a_Node000008"><a xlink:href="weights__dedup_8c.html#a793c9dc00898ddef8449e1c2275e4a1f" target="_top" xlink:title=" ">
<polygon fill="white" stroke="#666666" points="1224,-912.11 1075,-912.11 1075,-893.11 1224,-893.11 1224,-912.11"/>
<text text-anchor="middle" x="1149.5" y="-900.11" font-family="Helvetica,sans-Serif" font-size="10.00">ie_wdedup_debug_enabled</text>
</a>
</g>
</g>
<!-- Node7&#45;&gt;Node8 -->
<g id="edge13_Node000007_Node000008" class="edge">
<title>Node7&#45;&gt;Node8</title>
<g id="a_edge13_Node000007_Node000008"><a xlink:title=" ">
<path fill="none" stroke="#63b8ff" d="M894.8,-874.21C908.84,-877.62 925.08,-881.21 940,-883.61 980.85,-890.2 1026.59,-894.69 1064.8,-897.64"/>
<polygon fill="#63b8ff" stroke="#63b8ff" points="1064.62,-901.13 1074.86,-898.39 1065.15,-894.15 1064.62,-901.13"/>
</a>
</g>
</g>
<!-- Node9 -->
<g id="Node000009" class="node">
<title>Node9</title>
<g id="a_Node000009"><a xlink:href="weights__dedup_8c.html#a188c98dc2eeb2392190791e95abd4945" target="_top" xlink:title=" ">
<polygon fill="white" stroke="#666666" points="1039,-874.11 940,-874.11 940,-855.11 1039,-855.11 1039,-874.11"/>
<text text-anchor="middle" x="989.5" y="-862.11" font-family="Helvetica,sans-Serif" font-size="10.00">ie_wdedup_vlogf</text>
</a>
</g>
</g>
<!-- Node7&#45;&gt;Node9 -->
<g id="edge15_Node000007_Node000009" class="edge">
<title>Node7&#45;&gt;Node9</title>
<g id="a_edge15_Node000007_Node000009"><a xlink:title=" ">
<path fill="none" stroke="#63b8ff" d="M904.33,-864.61C912.54,-864.61 921.2,-864.61 929.72,-864.61"/>
<polygon fill="#63b8ff" stroke="#63b8ff" points="930,-868.11 940,-864.61 930,-861.11 930,-868.11"/>
</a>
</g>
</g>
<!-- Node8&#45;&gt;Node2 -->
<g id="edge14_Node000008_Node000002" class="edge">
<title>Node8&#45;&gt;Node2</title>
<g id="a_edge14_Node000008_Node000002"><a xlink:title=" ">
<path fill="none" stroke="#63b8ff" d="M1201.68,-893.1C1209.97,-889.66 1217.84,-884.98 1224,-878.61 1310.05,-789.66 1320.89,-629.44 1321.73,-567.76"/>
<polygon fill="#63b8ff" stroke="#63b8ff" points="1325.23,-567.77 1321.78,-557.75 1318.23,-567.73 1325.23,-567.77"/>
</a>
</g>
</g>
<!-- Node9&#45;&gt;Node2 -->
<g id="edge16_Node000009_Node000002" class="edge">
<title>Node9&#45;&gt;Node2</title>
<g id="a_edge16_Node000009_Node000002"><a xlink:title=" ">
<path fill="none" stroke="#63b8ff" d="M1039.14,-873.79C1090.77,-880.61 1171.97,-882.56 1224,-840.61 1309.4,-771.77 1320.76,-626.66 1321.74,-568.01"/>
<polygon fill="#63b8ff" stroke="#63b8ff" points="1325.24,-567.81 1321.81,-557.79 1318.24,-567.76 1325.24,-567.81"/>
</a>
</g>
</g>
<!-- Node9&#45;&gt;Node8 -->
<g id="edge17_Node000009_Node000008" class="edge">
<title>Node9&#45;&gt;Node8</title>
<g id="a_edge17_Node000009_Node000008"><a xlink:title=" ">
<path fill="none" stroke="#63b8ff" d="M1030.37,-874.2C1051.22,-879.22 1076.93,-885.4 1099.04,-890.72"/>
<polygon fill="#63b8ff" stroke="#63b8ff" points="1098.38,-894.16 1108.92,-893.09 1100.01,-887.35 1098.38,-894.16"/>
</a>
</g>
</g>
<!-- Node10&#45;&gt;Node2 -->
<g id="edge19_Node000010_Node000002" class="edge">
<title>Node10&#45;&gt;Node2</title>
<g id="a_edge19_Node000010_Node000002"><a xlink:title=" ">
<path fill="none" stroke="#63b8ff" d="M617.1,-760.59C679.05,-773 773.48,-788.61 856.5,-788.61 856.5,-788.61 856.5,-788.61 990.5,-788.61 1094.82,-788.61 1139.68,-826.05 1224,-764.61 1289.65,-716.78 1311.73,-614.92 1318.62,-567.66"/>
<polygon fill="#63b8ff" stroke="#63b8ff" points="1322.1,-568.04 1319.97,-557.66 1315.16,-567.1 1322.1,-568.04"/>
</a>
</g>
</g>
<!-- Node11&#45;&gt;Node2 -->
<g id="edge21_Node000011_Node000002" class="edge">
<title>Node11&#45;&gt;Node2</title>
<g id="a_edge21_Node000011_Node000002"><a xlink:title=" ">
<path fill="none" stroke="#63b8ff" d="M565.24,-588.26C604.76,-611.84 712.09,-671.99 811,-692.61 994.46,-730.86 1053.18,-684.68 1224,-607.61 1249.57,-596.08 1275.88,-578.11 1294.71,-563.99"/>
<polygon fill="#63b8ff" stroke="#63b8ff" points="1296.99,-566.66 1302.81,-557.81 1292.74,-561.09 1296.99,-566.66"/>
</a>
</g>
</g>
<!-- Node12 -->
<g id="Node000012" class="node">
<title>Node12</title>
<g id="a_Node000012"><a xlink:href="weights__dedup_8c.html#a7e3b6f5b10e0d8d68272d2e80523813b" target="_top" xlink:title=" ">
<polygon fill="white" stroke="#666666" points="1034.5,-577.11 944.5,-577.11 944.5,-558.11 1034.5,-558.11 1034.5,-577.11"/>
<text text-anchor="middle" x="989.5" y="-565.11" font-family="Helvetica,sans-Serif" font-size="10.00">js_parse_string</text>
</a>
</g>
</g>
<!-- Node11&#45;&gt;Node12 -->
<g id="edge22_Node000011_Node000012" class="edge">
<title>Node11&#45;&gt;Node12</title>
<g id="a_edge22_Node000011_Node000012"><a xlink:title=" ">
<path fill="none" stroke="#63b8ff" d="M612.4,-577.04C698.8,-574.87 852.73,-571.01 934.3,-568.97"/>
<polygon fill="#63b8ff" stroke="#63b8ff" points="934.45,-572.47 944.36,-568.72 934.27,-565.47 934.45,-572.47"/>
</a>
</g>
</g>
<!-- Node11&#45;&gt;Node13 -->
<g id="edge44_Node000011_Node000013" class="edge">
<title>Node11&#45;&gt;Node13</title>
<g id="a_edge44_Node000011_Node000013"><a xlink:title=" ">
<path fill="none" stroke="#63b8ff" d="M556.97,-568.92C572.64,-549.23 611,-504.33 653,-479.61 800.99,-392.51 1013.68,-386.68 1104.59,-388.68"/>
<polygon fill="#63b8ff" stroke="#63b8ff" points="1104.71,-392.19 1114.8,-388.95 1104.9,-385.19 1104.71,-392.19"/>
</a>
</g>
</g>
<!-- Node14 -->
<g id="Node000014" class="node">
<title>Node14</title>
<g id="a_Node000014"><a xlink:href="weights__dedup_8c.html#aec6b7531542a45304d1f17d108a6d2ea" target="_top" xlink:title=" ">
<polygon fill="white" stroke="#666666" points="755.5,-508.11 672.5,-508.11 672.5,-489.11 755.5,-489.11 755.5,-508.11"/>
<text text-anchor="middle" x="714" y="-496.11" font-family="Helvetica,sans-Serif" font-size="10.00">js_skip_value</text>
</a>
</g>
</g>
<!-- Node11&#45;&gt;Node14 -->
<g id="edge26_Node000011_Node000014" class="edge">
<title>Node11&#45;&gt;Node14</title>
<g id="a_edge26_Node000011_Node000014"><a xlink:title=" ">
<path fill="none" stroke="#63b8ff" d="M569.22,-568.96C597.9,-554.93 651.29,-528.81 684.32,-512.65"/>
<polygon fill="#63b8ff" stroke="#63b8ff" points="686.02,-515.71 693.46,-508.17 682.94,-509.42 686.02,-515.71"/>
</a>
</g>
</g>
<!-- Node12&#45;&gt;Node2 -->
<g id="edge23_Node000012_Node000002" class="edge">
<title>Node12&#45;&gt;Node2</title>
<g id="a_edge23_Node000012_Node000002"><a xlink:title=" ">
<path fill="none" stroke="#63b8ff" d="M1034.8,-564.27C1089.73,-560.12 1184.09,-552.99 1249.48,-548.05"/>
<polygon fill="#63b8ff" stroke="#63b8ff" points="1250.01,-551.52 1259.72,-547.28 1249.48,-544.54 1250.01,-551.52"/>
</a>
</g>
</g>
<!-- Node12&#45;&gt;Node13 -->
<g id="edge24_Node000012_Node000013" class="edge">
<title>Node12&#45;&gt;Node13</title>
<g id="a_edge24_Node000012_Node000013"><a xlink:title=" ">
<path fill="none" stroke="#63b8ff" d="M997.59,-557.86C1007.51,-543.98 1025.8,-517.56 1039,-493.61 1057.63,-459.82 1046.23,-440.33 1075,-414.61 1083.43,-407.08 1094.27,-401.9 1105.02,-398.35"/>
<polygon fill="#63b8ff" stroke="#63b8ff" points="1106.16,-401.67 1114.79,-395.52 1104.21,-394.94 1106.16,-401.67"/>
</a>
</g>
</g>
<!-- Node13&#45;&gt;Node2 -->
<g id="edge25_Node000013_Node000002" class="edge">
<title>Node13&#45;&gt;Node2</title>
<g id="a_edge25_Node000013_Node000002"><a xlink:title=" ">
<path fill="none" stroke="#63b8ff" d="M1184.31,-397.08C1197.53,-400.74 1212.29,-406.29 1224,-414.61 1262.87,-442.23 1293.26,-489.93 1309.19,-518.65"/>
<polygon fill="#63b8ff" stroke="#63b8ff" points="1306.19,-520.47 1314.03,-527.61 1312.35,-517.14 1306.19,-520.47"/>
</a>
</g>
</g>
<!-- Node14&#45;&gt;Node2 -->
<g id="edge27_Node000014_Node000002" class="edge">
<title>Node14&#45;&gt;Node2</title>
<g id="a_edge27_Node000014_Node000002"><a xlink:title=" ">
<path fill="none" stroke="#63b8ff" d="M755.61,-503.18C772.7,-505.02 792.8,-507.06 811,-508.61 967.21,-521.95 1150.69,-533.06 1249.58,-538.67"/>
<polygon fill="#63b8ff" stroke="#63b8ff" points="1249.58,-542.17 1259.76,-539.25 1249.97,-535.19 1249.58,-542.17"/>
</a>
</g>
</g>
<!-- Node14&#45;&gt;Node12 -->
<g id="edge33_Node000014_Node000012" class="edge">
<title>Node14&#45;&gt;Node12</title>
<g id="a_edge33_Node000014_Node000012"><a xlink:title=" ">
<path fill="none" stroke="#63b8ff" d="M735.55,-508.17C754.71,-516.73 784.26,-529.07 811,-536.61 851.56,-548.05 898.58,-556.03 934.03,-561.03"/>
<polygon fill="#63b8ff" stroke="#63b8ff" points="933.79,-564.53 944.17,-562.43 934.74,-557.6 933.79,-564.53"/>
</a>
</g>
</g>
<!-- Node14&#45;&gt;Node13 -->
<g id="edge43_Node000014_Node000013" class="edge">
<title>Node14&#45;&gt;Node13</title>
<g id="a_edge43_Node000014_Node000013"><a xlink:title=" ">
<path fill="none" stroke="#63b8ff" d="M734.8,-489.01C753.93,-480.07 783.89,-466.9 811,-458.61 914.14,-427.07 1039.57,-406.21 1104.62,-396.64"/>
<polygon fill="#63b8ff" stroke="#63b8ff" points="1105.51,-400.05 1114.91,-395.15 1104.51,-393.12 1105.51,-400.05"/>
</a>
</g>
</g>
<!-- Node15 -->
<g id="Node000015" class="node">
<title>Node15</title>
<g id="a_Node000015"><a xlink:href="weights__dedup_8c.html#acb6d250836afa5eddeb1985efad8afa4" target="_top" xlink:title=" ">
<polygon fill="white" stroke="#666666" points="1187.5,-443.11 1111.5,-443.11 1111.5,-424.11 1187.5,-424.11 1187.5,-443.11"/>
<text text-anchor="middle" x="1149.5" y="-431.11" font-family="Helvetica,sans-Serif" font-size="10.00">js_match_lit</text>
</a>
</g>
</g>
<!-- Node14&#45;&gt;Node15 -->
<g id="edge28_Node000014_Node000015" class="edge">
<title>Node14&#45;&gt;Node15</title>
<g id="a_edge28_Node000014_Node000015"><a xlink:title=" ">
<path fill="none" stroke="#63b8ff" d="M755.61,-490.4C772.69,-486.99 792.8,-483.04 811,-479.61 868.23,-468.85 882.36,-464.92 940,-456.61 995.28,-448.64 1059.15,-441.97 1101.48,-437.9"/>
<polygon fill="#63b8ff" stroke="#63b8ff" points="1101.87,-441.38 1111.5,-436.94 1101.21,-434.41 1101.87,-441.38"/>
</a>
</g>
</g>
<!-- Node16 -->
<g id="Node000016" class="node">
<title>Node16</title>
<g id="a_Node000016"><a xlink:href="weights__dedup_8c.html#a080768f8631e237e2467fc47a7d4d6a0" target="_top" xlink:title=" ">
<polygon fill="white" stroke="#666666" points="1028,-248.11 951,-248.11 951,-229.11 1028,-229.11 1028,-248.11"/>
<text text-anchor="middle" x="989.5" y="-236.11" font-family="Helvetica,sans-Serif" font-size="10.00">js_parse_i64</text>
</a>
</g>
</g>
<!-- Node14&#45;&gt;Node16 -->
<g id="edge30_Node000014_Node000016" class="edge">
<title>Node14&#45;&gt;Node16</title>
<g id="a_edge30_Node000014_Node000016"><a xlink:title=" ">
<path fill="none" stroke="#63b8ff" d="M721.28,-489.11C735.68,-467.7 772.77,-414.62 811,-376.61 861.31,-326.59 929.66,-278.04 965.07,-254.08"/>
<polygon fill="#63b8ff" stroke="#63b8ff" points="967.38,-256.74 973.74,-248.26 963.48,-250.93 967.38,-256.74"/>
</a>
</g>
</g>
<!-- Node17 -->
<g id="Node000017" class="node">
<title>Node17</title>
<g id="a_Node000017"><a xlink:href="weights__dedup_8c.html#aeb7fa9bc2ccc7b24ae16f647bcafb49b" target="_top" xlink:title=" ">
<polygon fill="white" stroke="#666666" points="1030,-485.11 949,-485.11 949,-466.11 1030,-466.11 1030,-485.11"/>
<text text-anchor="middle" x="989.5" y="-473.11" font-family="Helvetica,sans-Serif" font-size="10.00">js_skip_array</text>
</a>
</g>
</g>
<!-- Node14&#45;&gt;Node17 -->
<g id="edge34_Node000014_Node000017" class="edge">
<title>Node14&#45;&gt;Node17</title>
<g id="a_edge34_Node000014_Node000017"><a xlink:title=" ">
<path fill="none" stroke="#63b8ff" d="M755.65,-490.22C804.48,-483.88 886.36,-476.87 938.87,-474.44"/>
<polygon fill="#63b8ff" stroke="#63b8ff" points="939.12,-477.93 948.96,-474.02 938.82,-470.94 939.12,-477.93"/>
</a>
</g>
</g>
<!-- Node14&#45;&gt;Node18 -->
<g id="edge38_Node000014_Node000018" class="edge">
<title>Node14&#45;&gt;Node18</title>
<g id="a_edge38_Node000014_Node000018"><a xlink:title=" ">
<path fill="none" stroke="#63b8ff" d="M725.87,-508.32C752,-536.93 818.16,-619.19 844.96,-656.35"/>
<polygon fill="#63b8ff" stroke="#63b8ff" points="842.26,-658.6 850.88,-664.77 847.99,-654.58 842.26,-658.6"/>
</a>
</g>
</g>
<!-- Node15&#45;&gt;Node2 -->
<g id="edge29_Node000015_Node000002" class="edge">
<title>Node15&#45;&gt;Node2</title>
<g id="a_edge29_Node000015_Node000002"><a xlink:title=" ">
<path fill="none" stroke="#63b8ff" d="M1175.75,-443.18C1190.29,-449.13 1208.66,-457.38 1224,-466.61 1250.54,-482.6 1278.16,-504.73 1297.19,-520.98"/>
<polygon fill="#63b8ff" stroke="#63b8ff" points="1294.94,-523.66 1304.8,-527.56 1299.52,-518.37 1294.94,-523.66"/>
</a>
</g>
</g>
<!-- Node16&#45;&gt;Node2 -->
<g id="edge31_Node000016_Node000002" class="edge">
<title>Node16&#45;&gt;Node2</title>
<g id="a_edge31_Node000016_Node000002"><a xlink:title=" ">
<path fill="none" stroke="#63b8ff" d="M1017.52,-248.15C1064.65,-265.93 1162.72,-308.21 1224,-371.61 1266.58,-415.67 1297.35,-481.9 1311.96,-517.63"/>
<polygon fill="#63b8ff" stroke="#63b8ff" points="1308.85,-519.28 1315.81,-527.26 1315.35,-516.68 1308.85,-519.28"/>
</a>
</g>
</g>
<!-- Node16&#45;&gt;Node13 -->
<g id="edge32_Node000016_Node000013" class="edge">
<title>Node16&#45;&gt;Node13</title>
<g id="a_edge32_Node000016_Node000013"><a xlink:title=" ">
<path fill="none" stroke="#63b8ff" d="M1015.49,-248.3C1023.47,-252.08 1032.03,-256.88 1039,-262.61 1059.32,-279.33 1058.14,-289.41 1075,-309.61 1093.85,-332.21 1116.82,-357.13 1132.01,-373.29"/>
<polygon fill="#63b8ff" stroke="#63b8ff" points="1129.76,-376.01 1139.18,-380.87 1134.85,-371.2 1129.76,-376.01"/>
</a>
</g>
</g>
<!-- Node17&#45;&gt;Node2 -->
<g id="edge35_Node000017_Node000002" class="edge">
<title>Node17&#45;&gt;Node2</title>
<g id="a_edge35_Node000017_Node000002"><a xlink:title=" ">
<path fill="none" stroke="#63b8ff" d="M1030.19,-478.84C1077.01,-483.2 1156.96,-492.35 1224,-508.61 1240.59,-512.64 1258.33,-518.37 1274.07,-523.99"/>
<polygon fill="#63b8ff" stroke="#63b8ff" points="1272.99,-527.32 1283.58,-527.45 1275.38,-520.74 1272.99,-527.32"/>
</a>
</g>
</g>
<!-- Node17&#45;&gt;Node13 -->
<g id="edge37_Node000017_Node000013" class="edge">
<title>Node17&#45;&gt;Node13</title>
<g id="a_edge37_Node000017_Node000013"><a xlink:title=" ">
<path fill="none" stroke="#63b8ff" d="M1001.52,-465.92C1016.99,-452.73 1046.45,-429.13 1075,-414.61 1084.43,-409.82 1095.02,-405.7 1105.16,-402.3"/>
<polygon fill="#63b8ff" stroke="#63b8ff" points="1106.23,-405.63 1114.7,-399.26 1104.11,-398.96 1106.23,-405.63"/>
</a>
</g>
</g>
<!-- Node17&#45;&gt;Node14 -->
<g id="edge36_Node000017_Node000014" class="edge">
<title>Node17&#45;&gt;Node14</title>
<g id="a_edge36_Node000017_Node000014"><a xlink:title=" ">
<path fill="none" stroke="#63b8ff" d="M948.96,-483.85C900.64,-490.19 818.79,-497.23 765.84,-499.73"/>
<polygon fill="#63b8ff" stroke="#63b8ff" points="765.49,-496.24 755.65,-500.16 765.79,-503.23 765.49,-496.24"/>
</a>
</g>
</g>
<!-- Node18&#45;&gt;Node2 -->
<g id="edge39_Node000018_Node000002" class="edge">
<title>Node18&#45;&gt;Node2</title>
<g id="a_edge39_Node000018_Node000002"><a xlink:title=" ">
<path fill="none" stroke="#63b8ff" d="M894.52,-665.07C931,-655.35 989,-639.74 1039,-625.61 1116.19,-603.8 1204.9,-577.54 1262,-560.48"/>
<polygon fill="#63b8ff" stroke="#63b8ff" points="1263,-563.84 1271.58,-557.62 1261,-557.13 1263,-563.84"/>
</a>
</g>
</g>
<!-- Node18&#45;&gt;Node12 -->
<g id="edge40_Node000018_Node000012" class="edge">
<title>Node18&#45;&gt;Node12</title>
<g id="a_edge40_Node000018_Node000012"><a xlink:title=" ">
<path fill="none" stroke="#63b8ff" d="M882.2,-665C889.7,-661.23 897.68,-656.41 904,-650.61 925.8,-630.61 918.43,-614.86 940,-594.61 944.89,-590.02 950.7,-585.94 956.57,-582.42"/>
<polygon fill="#63b8ff" stroke="#63b8ff" points="958.67,-585.26 965.73,-577.36 955.29,-579.13 958.67,-585.26"/>
</a>
</g>
</g>
<!-- Node18&#45;&gt;Node13 -->
<g id="edge42_Node000018_Node000013" class="edge">
<title>Node18&#45;&gt;Node13</title>
<g id="a_edge42_Node000018_Node000013"><a xlink:title=" ">
<path fill="none" stroke="#63b8ff" d="M880.46,-665.08C926.22,-645.04 1028.39,-599.27 1039,-585.61 1086.62,-524.26 1023.13,-472.42 1075,-414.61 1082.84,-405.88 1093.89,-400.31 1105.05,-396.77"/>
<polygon fill="#63b8ff" stroke="#63b8ff" points="1106.05,-400.12 1114.8,-394.14 1104.24,-393.36 1106.05,-400.12"/>
</a>
</g>
</g>
<!-- Node18&#45;&gt;Node14 -->
<g id="edge41_Node000018_Node000014" class="edge">
<title>Node18&#45;&gt;Node14</title>
<g id="a_edge41_Node000018_Node000014"><a xlink:title=" ">
<path fill="none" stroke="#63b8ff" d="M845.79,-665.07C819.74,-636.59 753.26,-553.94 726.46,-516.76"/>
<polygon fill="#63b8ff" stroke="#63b8ff" points="729.16,-514.52 720.55,-508.35 723.43,-518.54 729.16,-514.52"/>
</a>
</g>
</g>
<!-- Node19&#45;&gt;Node2 -->
<g id="edge46_Node000019_Node000002" class="edge">
<title>Node19&#45;&gt;Node2</title>
<g id="a_edge46_Node000019_Node000002"><a xlink:title=" ">
<path fill="none" stroke="#63b8ff" d="M891.51,-229.11C906.21,-225.34 923.83,-221.47 940,-219.61 1067.32,-204.97 1129.86,-182.64 1224,-269.61 1297.32,-337.35 1315.55,-463.99 1320.05,-517.61"/>
<polygon fill="#63b8ff" stroke="#63b8ff" points="1316.56,-517.9 1320.79,-527.61 1323.54,-517.37 1316.56,-517.9"/>
</a>
</g>
</g>
<!-- Node19&#45;&gt;Node13 -->
<g id="edge48_Node000019_Node000013" class="edge">
<title>Node19&#45;&gt;Node13</title>
<g id="a_edge48_Node000019_Node000013"><a xlink:title=" ">
<path fill="none" stroke="#63b8ff" d="M899.32,-248.16C937.09,-258.01 994.02,-275.49 1039,-300.61 1075.41,-320.95 1111.61,-353.81 1131.92,-373.7"/>
<polygon fill="#63b8ff" stroke="#63b8ff" points="1129.57,-376.3 1139.12,-380.87 1134.5,-371.34 1129.57,-376.3"/>
</a>
</g>
</g>
<!-- Node19&#45;&gt;Node16 -->
<g id="edge47_Node000019_Node000016" class="edge">
<title>Node19&#45;&gt;Node16</title>
<g id="a_edge47_Node000019_Node000016"><a xlink:title=" ">
<path fill="none" stroke="#63b8ff" d="M903.6,-238.61C915.51,-238.61 928.41,-238.61 940.47,-238.61"/>
<polygon fill="#63b8ff" stroke="#63b8ff" points="940.81,-242.11 950.81,-238.61 940.81,-235.11 940.81,-242.11"/>
</a>
</g>
</g>
<!-- Node20&#45;&gt;Node2 -->
<g id="edge50_Node000020_Node000002" class="edge">
<title>Node20&#45;&gt;Node2</title>
<g id="a_edge50_Node000020_Node000002"><a xlink:title=" ">
<path fill="none" stroke="#63b8ff" d="M430.89,-646.16C525.7,-665.29 737.38,-707.03 811,-713.61 852.17,-717.29 862.67,-713.92 904,-713.61 964,-713.17 979.71,-720.84 1039,-711.61 1123.89,-698.4 1151.97,-702.43 1224,-655.61 1259.79,-632.34 1289.9,-592.22 1306.81,-566.57"/>
<polygon fill="#63b8ff" stroke="#63b8ff" points="1309.97,-568.14 1312.44,-557.84 1304.08,-564.35 1309.97,-568.14"/>
</a>
</g>
</g>
<!-- Node20&#45;&gt;Node11 -->
<g id="edge51_Node000020_Node000011" class="edge">
<title>Node20&#45;&gt;Node11</title>
<g id="a_edge51_Node000020_Node000011"><a xlink:title=" ">
<path fill="none" stroke="#63b8ff" d="M411,-627.03C438.22,-617.38 480.42,-602.41 510.69,-591.67"/>
<polygon fill="#63b8ff" stroke="#63b8ff" points="512.21,-594.85 520.46,-588.2 509.87,-588.25 512.21,-594.85"/>
</a>
</g>
</g>
<!-- Node20&#45;&gt;Node12 -->
<g id="edge52_Node000020_Node000012" class="edge">
<title>Node20&#45;&gt;Node12</title>
<g id="a_edge52_Node000020_Node000012"><a xlink:title=" ">
<path fill="none" stroke="#63b8ff" d="M441.2,-633.11C537.25,-626.75 736.82,-611.53 904,-585.61 915.12,-583.89 926.98,-581.63 938.19,-579.29"/>
<polygon fill="#63b8ff" stroke="#63b8ff" points="939.22,-582.66 948.27,-577.14 937.76,-575.81 939.22,-582.66"/>
</a>
</g>
</g>
<!-- Node21&#45;&gt;Node2 -->
<g id="edge54_Node000021_Node000002" class="edge">
<title>Node21&#45;&gt;Node2</title>
<g id="a_edge54_Node000021_Node000002"><a xlink:title=" ">
<path fill="none" stroke="#63b8ff" d="M415.69,-239.05C434.25,-233.87 458.25,-227.87 480,-224.61 556.15,-213.22 576.09,-219.09 653,-215.61 779.79,-209.88 1122.64,-126.23 1224,-202.61 1275.55,-241.45 1308.18,-445.75 1318.21,-517.6"/>
<polygon fill="#63b8ff" stroke="#63b8ff" points="1314.75,-518.14 1319.57,-527.57 1321.68,-517.19 1314.75,-518.14"/>
</a>
</g>
</g>
<!-- Node21&#45;&gt;Node11 -->
<g id="edge55_Node000021_Node000011" class="edge">
<title>Node21&#45;&gt;Node11</title>
<g id="a_edge55_Node000021_Node000011"><a xlink:title=" ">
<path fill="none" stroke="#63b8ff" d="M388.72,-258.13C411.19,-303.49 507.55,-497.98 538.14,-559.73"/>
<polygon fill="#63b8ff" stroke="#63b8ff" points="535.19,-561.65 542.76,-569.05 541.46,-558.54 535.19,-561.65"/>
</a>
</g>
</g>
<!-- Node21&#45;&gt;Node16 -->
<g id="edge56_Node000021_Node000016" class="edge">
<title>Node21&#45;&gt;Node16</title>
<g id="a_edge56_Node000021_Node000016"><a xlink:title=" ">
<path fill="none" stroke="#63b8ff" d="M444.03,-242.76C561.19,-231.75 816.49,-209.9 904,-219.61 917.21,-221.08 931.37,-223.8 944.25,-226.73"/>
<polygon fill="#63b8ff" stroke="#63b8ff" points="943.72,-230.2 954.26,-229.1 945.34,-223.39 943.72,-230.2"/>
</a>
</g>
</g>
</g>
</svg>
