<?xml version="1.0" encoding="UTF-8" standalone="no"?>
<!DOCTYPE svg PUBLIC "-//W3C//DTD SVG 1.1//EN"
 "http://www.w3.org/Graphics/SVG/1.1/DTD/svg11.dtd">
<!-- Generated by graphviz version 2.43.0 (0)
 -->
<!-- Title: touch_file_small Pages: 1 -->
<svg width="360pt" height="52pt"
 viewBox="0.00 0.00 360.00 51.50" xmlns="http://www.w3.org/2000/svg" xmlns:xlink="http://www.w3.org/1999/xlink">
<g id="graph0" class="graph" transform="scale(1 1) rotate(0) translate(4 47.5)">
<title>touch_file_small</title>
<!-- Node1 -->
<g id="Node000001" class="node">
<title>Node1</title>
<g id="a_Node000001"><a xlink:title="Touch a file by doing small reads near start/end.">
<polygon fill="#999999" stroke="#666666" points="96,-38 0,-38 0,-19 96,-19 96,-38"/>
<text text-anchor="middle" x="48" y="-26" font-family="Helvetica,sans-Serif" font-size="10.00">touch_file_small</text>
</a>
</g>
</g>
<!-- Node2 -->
<g id="Node000002" class="node">
<title>Node2</title>
<g id="a_Node000002"><a xlink:href="ie__device__cuda_8cu.html#a5e3d9fee84981707669f5c2398f0c4ab" target="_top" xlink:title="Row&#45;wise GEMV kernel: each thread computes one output row.">
<polygon fill="white" stroke="#666666" points="352,-43.5 227,-43.5 227,-13.5 352,-13.5 352,-43.5"/>
<text text-anchor="start" x="235" y="-31.5" font-family="Helvetica,sans-Serif" font-size="10.00">ie_gemv_rowwise_f32</text>
<text text-anchor="middle" x="289.5" y="-20.5" font-family="Helvetica,sans-Serif" font-size="10.00">_kernel</text>
</a>
</g>
</g>
<!-- Node1&#45;&gt;Node2 -->
<g id="edge1_Node000001_Node000002" class="edge">
<title>Node1&#45;&gt;Node2</title>
<g id="a_edge1_Node000001_Node000002"><a xlink:title=" ">
<path fill="none" stroke="#63b8ff" d="M96.03,-28.5C130.3,-28.5 177.34,-28.5 216.35,-28.5"/>
<polygon fill="#63b8ff" stroke="#63b8ff" points="216.6,-32 226.6,-28.5 216.6,-25 216.6,-32"/>
</a>
</g>
</g>
<!-- Node3 -->
<g id="Node000003" class="node">
<title>Node3</title>
<g id="a_Node000003"><a xlink:href="weights_8c.html#aabb19f4a5e5385962c6db57f611bb785" target="_top" xlink:title="Portable pread wrapper with fallback.">
<polygon fill="white" stroke="#666666" points="191,-19 132,-19 132,0 191,0 191,-19"/>
<text text-anchor="middle" x="161.5" y="-7" font-family="Helvetica,sans-Serif" font-size="10.00">ie_pread</text>
</a>
</g>
</g>
<!-- Node1&#45;&gt;Node3 -->
<g id="edge2_Node000001_Node000003" class="edge">
<title>Node1&#45;&gt;Node3</title>
<g id="a_edge2_Node000001_Node000003"><a xlink:title=" ">
<path fill="none" stroke="#63b8ff" d="M96.29,-20.44C104.8,-18.99 113.58,-17.49 121.82,-16.09"/>
<polygon fill="#63b8ff" stroke="#63b8ff" points="122.62,-19.51 131.89,-14.38 121.44,-12.6 122.62,-19.51"/>
</a>
</g>
</g>
<!-- Node3&#45;&gt;Node2 -->
<g id="edge3_Node000003_Node000002" class="edge">
<title>Node3&#45;&gt;Node2</title>
<g id="a_edge3_Node000003_Node000002"><a xlink:title=" ">
<path fill="none" stroke="#63b8ff" d="M191.09,-13.81C198.93,-14.99 207.79,-16.33 216.9,-17.7"/>
<polygon fill="#63b8ff" stroke="#63b8ff" points="216.43,-21.17 226.84,-19.2 217.48,-14.25 216.43,-21.17"/>
</a>
</g>
</g>
</g>
</svg>
