<?xml version="1.0" encoding="UTF-8" standalone="no"?>
<!DOCTYPE svg PUBLIC "-//W3C//DTD SVG 1.1//EN"
 "http://www.w3.org/Graphics/SVG/1.1/DTD/svg11.dtd">
<!-- Generated by graphviz version 2.43.0 (0)
 -->
<!-- Title: js_match_lit Pages: 1 -->
<!--zoomable 266 -->

<svg id="main" version="1.1" xmlns="http://www.w3.org/2000/svg" xmlns:xlink="http://www.w3.org/1999/xlink" xml:space="preserve" onload="init(evt)">
<style type="text/css"><![CDATA[
.node, .edge {opacity: 0.7;}
.node.selected, .edge.selected {opacity: 1;}
.edge:hover path { stroke: red; }
.edge:hover polygon { stroke: red; fill: red; }
]]></style>

<defs>
  <circle id="rim" cx="0" cy="0" r="7"/>
  <circle id="rim2" cx="0" cy="0" r="3.5"/>
  <g id="zoomPlus">
    <use xlink:href="#rim" fill="#404040"><set attributeName="fill" to="#808080" begin="zoomplus.mouseover" end="zoomplus.mouseout"/></use>
    <path d="M-4,0h8M0,-4v8" fill="none" stroke="white" stroke-width="1.5" pointer-events="none"/>
  </g>
  <g id="zoomMin">
    <use xlink:href="#rim" fill="#404040"><set attributeName="fill" to="#808080" begin="zoomminus.mouseover" end="zoomminus.mouseout"/></use>
    <path d="M-4,0h8" fill="none" stroke="white" stroke-width="1.5" pointer-events="none"/>
  </g>
  <g id="arrowUp" transform="translate(30 24)">
    <use xlink:href="#rim"/>
    <path pointer-events="none" fill="none" stroke="white" stroke-width="1.5" d="M0,-3.0v7 M-2.5,-0.5L0,-3.0L2.5,-0.5"/>
  </g>
  <g id="arrowRight" transform="rotate(90) translate(36 -43)">
    <use xlink:href="#rim"/>
    <path pointer-events="none" fill="none" stroke="white" stroke-width="1.5" d="M0,-3.0v7 M-2.5,-0.5L0,-3.0L2.5,-0.5"/>
  </g>
  <g id="arrowDown" transform="rotate(180) translate(-30 -48)">
    <use xlink:href="#rim"/>
    <path pointer-events="none" fill="none" stroke="white" stroke-width="1.5" d="M0,-3.0v7 M-2.5,-0.5L0,-3.0L2.5,-0.5"/>
  </g>
  <g id="arrowLeft" transform="rotate(270) translate(-36 17)">
    <use xlink:href="#rim"/>
    <path pointer-events="none" fill="none" stroke="white" stroke-width="1.5" d="M0,-3.0v7 M-2.5,-0.5L0,-3.0L2.5,-0.5"/>
  </g>
  <g id="resetDef">
    <use xlink:href="#rim2" fill="#404040"><set attributeName="fill" to="#808080" begin="reset.mouseover" end="reset.mouseout"/></use>
  </g>
</defs>
<script type="application/ecmascript">
var viewWidth = 1360;
var viewHeight = 266;
var sectionId = 'dynsection-64';
</script>
<script type="application/ecmascript" xlink:href="svg.min.js"/>
<svg id="graph" class="graph">
<g id="viewport">
<title>js_match_lit</title>
<!-- Node1 -->
<g id="Node000001" class="node">
<title>Node1</title>
<g id="a_Node000001"><a xlink:title=" ">
<polygon fill="#999999" stroke="#666666" points="1352,-56 1276,-56 1276,-37 1352,-37 1352,-56"/>
<text text-anchor="middle" x="1314" y="-44" font-family="Helvetica,sans-Serif" font-size="10.00">js_match_lit</text>
</a>
</g>
</g>
<!-- Node2 -->
<g id="Node000002" class="node">
<title>Node2</title>
<g id="a_Node000002"><a xlink:href="weights__dedup_8c.html#aec6b7531542a45304d1f17d108a6d2ea" target="_top" xlink:title=" ">
<polygon fill="white" stroke="#666666" points="1240,-56 1157,-56 1157,-37 1240,-37 1240,-56"/>
<text text-anchor="middle" x="1198.5" y="-44" font-family="Helvetica,sans-Serif" font-size="10.00">js_skip_value</text>
</a>
</g>
</g>
<!-- Node1&#45;&gt;Node2 -->
<g id="edge1_Node000001_Node000002" class="edge">
<title>Node1&#45;&gt;Node2</title>
<g id="a_edge1_Node000001_Node000002"><a xlink:title=" ">
<path fill="none" stroke="#63b8ff" d="M1265.72,-46.5C1257.27,-46.5 1248.53,-46.5 1240.28,-46.5"/>
<polygon fill="#63b8ff" stroke="#63b8ff" points="1265.84,-50 1275.84,-46.5 1265.84,-43 1265.84,-50"/>
</a>
</g>
</g>
<!-- Node3 -->
<g id="Node000003" class="node">
<title>Node3</title>
<g id="a_Node000003"><a xlink:href="weights__dedup_8c.html#ae0494f541a190a9ecf82c11c5eb22952" target="_top" xlink:title=" ">
<polygon fill="white" stroke="#666666" points="1121,-169 994,-169 994,-150 1121,-150 1121,-169"/>
<text text-anchor="middle" x="1057.5" y="-157" font-family="Helvetica,sans-Serif" font-size="10.00">js_find_member_value</text>
</a>
</g>
</g>
<!-- Node2&#45;&gt;Node3 -->
<g id="edge2_Node000002_Node000003" class="edge">
<title>Node2&#45;&gt;Node3</title>
<g id="a_edge2_Node000002_Node000003"><a xlink:title=" ">
<path fill="none" stroke="#63b8ff" d="M1177.74,-62.57C1148.39,-86.42 1094.2,-130.48 1070.32,-149.89"/>
<polygon fill="#63b8ff" stroke="#63b8ff" points="1180.1,-65.16 1185.65,-56.13 1175.68,-59.73 1180.1,-65.16"/>
</a>
</g>
</g>
<!-- Node17 -->
<g id="Node000017" class="node">
<title>Node17</title>
<g id="a_Node000017"><a xlink:href="weights__dedup_8c.html#aeb7fa9bc2ccc7b24ae16f647bcafb49b" target="_top" xlink:title=" ">
<polygon fill="white" stroke="#666666" points="1098,-19 1017,-19 1017,0 1098,0 1098,-19"/>
<text text-anchor="middle" x="1057.5" y="-7" font-family="Helvetica,sans-Serif" font-size="10.00">js_skip_array</text>
</a>
</g>
</g>
<!-- Node2&#45;&gt;Node17 -->
<g id="edge22_Node000002_Node000017" class="edge">
<title>Node2&#45;&gt;Node17</title>
<g id="a_edge22_Node000002_Node000017"><a xlink:title=" ">
<path fill="none" stroke="#63b8ff" d="M1169.64,-33.55C1149.11,-26.71 1120.9,-18.99 1098.04,-13.87"/>
<polygon fill="#63b8ff" stroke="#63b8ff" points="1168.73,-36.94 1179.33,-36.93 1171.04,-30.33 1168.73,-36.94"/>
</a>
</g>
</g>
<!-- Node18 -->
<g id="Node000018" class="node">
<title>Node18</title>
<g id="a_Node000018"><a xlink:href="weights__dedup_8c.html#ae1e5c9a54a8c0312241d17afd01c40a0" target="_top" xlink:title=" ">
<polygon fill="white" stroke="#666666" points="1100.5,-56 1014.5,-56 1014.5,-37 1100.5,-37 1100.5,-56"/>
<text text-anchor="middle" x="1057.5" y="-44" font-family="Helvetica,sans-Serif" font-size="10.00">js_skip_object</text>
</a>
</g>
</g>
<!-- Node2&#45;&gt;Node18 -->
<g id="edge24_Node000002_Node000018" class="edge">
<title>Node2&#45;&gt;Node18</title>
<g id="a_edge24_Node000002_Node000018"><a xlink:title=" ">
<path fill="none" stroke="#63b8ff" d="M1146.73,-39.97C1131.65,-39.61 1115.3,-39.69 1100.82,-40.23"/>
<polygon fill="#63b8ff" stroke="#63b8ff" points="1146.81,-43.48 1156.92,-40.3 1147.04,-36.48 1146.81,-43.48"/>
</a>
</g>
</g>
<!-- Node4 -->
<g id="Node000004" class="node">
<title>Node4</title>
<g id="a_Node000004"><a xlink:href="weights__dedup_8c.html#aff1829f796837ea285a63b43a0a2d485" target="_top" xlink:title=" ">
<polygon fill="white" stroke="#666666" points="799.5,-193.5 683.5,-193.5 683.5,-163.5 799.5,-163.5 799.5,-193.5"/>
<text text-anchor="start" x="691.5" y="-181.5" font-family="Helvetica,sans-Serif" font-size="10.00">ie_parse_iejson_one</text>
<text text-anchor="middle" x="741.5" y="-170.5" font-family="Helvetica,sans-Serif" font-size="10.00">_tensor</text>
</a>
</g>
</g>
<!-- Node3&#45;&gt;Node4 -->
<g id="edge3_Node000003_Node000004" class="edge">
<title>Node3&#45;&gt;Node4</title>
<g id="a_edge3_Node000003_Node000004"><a xlink:title=" ">
<path fill="none" stroke="#63b8ff" d="M1028.75,-173.38C1009.44,-182.23 982.82,-192.88 958,-197.5 904.83,-207.4 843.29,-200.15 799.62,-191.91"/>
<polygon fill="#63b8ff" stroke="#63b8ff" points="1030.31,-176.51 1037.86,-169.08 1027.32,-170.18 1030.31,-176.51"/>
</a>
</g>
</g>
<!-- Node5 -->
<g id="Node000005" class="node">
<title>Node5</title>
<g id="a_Node000005"><a xlink:href="weights__dedup_8c.html#a3baac12d7191041beab3fc4508b94be7" target="_top" xlink:title=" ">
<polygon fill="white" stroke="#666666" points="647,-188 513,-188 513,-169 647,-169 647,-188"/>
<text text-anchor="middle" x="580" y="-176" font-family="Helvetica,sans-Serif" font-size="10.00">ie_parse_iejson_tensors</text>
</a>
</g>
</g>
<!-- Node3&#45;&gt;Node5 -->
<g id="edge11_Node000003_Node000005" class="edge">
<title>Node3&#45;&gt;Node5</title>
<g id="a_edge11_Node000003_Node000005"><a xlink:title=" ">
<path fill="none" stroke="#63b8ff" d="M1035.78,-174.92C1016.7,-188.1 987.03,-206.06 958,-213.5 831.92,-245.79 675.35,-207.2 610.87,-188.05"/>
<polygon fill="#63b8ff" stroke="#63b8ff" points="1037.88,-177.73 1044.01,-169.09 1033.82,-172.02 1037.88,-177.73"/>
</a>
</g>
</g>
<!-- Node6 -->
<g id="Node000006" class="node">
<title>Node6</title>
<g id="a_Node000006"><a xlink:href="weights__dedup_8c.html#aa625b41ce2a24826f8cb464661ace8ec" target="_top" xlink:title="Open the dedup weights loader from a model directory.">
<polygon fill="white" stroke="#666666" points="477,-188 343,-188 343,-169 477,-169 477,-188"/>
<text text-anchor="middle" x="410" y="-176" font-family="Helvetica,sans-Serif" font-size="10.00">ie_weights_dedup_open</text>
</a>
</g>
</g>
<!-- Node3&#45;&gt;Node6 -->
<g id="edge15_Node000003_Node000006" class="edge">
<title>Node3&#45;&gt;Node6</title>
<g id="a_edge15_Node000003_Node000006"><a xlink:title=" ">
<path fill="none" stroke="#63b8ff" d="M1040.62,-176.75C1022.63,-194.89 991.43,-222.34 958,-233.5 765.16,-297.87 514.54,-217.05 435.79,-188.08"/>
<polygon fill="#63b8ff" stroke="#63b8ff" points="1043.51,-178.79 1047.92,-169.15 1038.47,-173.94 1043.51,-178.79"/>
</a>
</g>
</g>
<!-- Node12 -->
<g id="Node000012" class="node">
<title>Node12</title>
<g id="a_Node000012"><a xlink:href="weights__dedup_8c.html#ac8435c15b639ac76b805cc23f609be12" target="_top" xlink:title=" ">
<polygon fill="white" stroke="#666666" points="800,-94 683,-94 683,-75 800,-75 800,-94"/>
<text text-anchor="middle" x="741.5" y="-82" font-family="Helvetica,sans-Serif" font-size="10.00">ie_parse_one_tensor</text>
</a>
</g>
</g>
<!-- Node3&#45;&gt;Node12 -->
<g id="edge12_Node000003_Node000012" class="edge">
<title>Node3&#45;&gt;Node12</title>
<g id="a_edge12_Node000003_Node000012"><a xlink:title=" ">
<path fill="none" stroke="#63b8ff" d="M1025.18,-146.04C1006.06,-138.25 980.96,-128.78 958,-122.5 905.41,-108.12 844.07,-97.92 800.31,-91.73"/>
<polygon fill="#63b8ff" stroke="#63b8ff" points="1024.01,-149.34 1034.59,-149.93 1026.69,-142.87 1024.01,-149.34"/>
</a>
</g>
</g>
<!-- Node14 -->
<g id="Node000014" class="node">
<title>Node14</title>
<g id="a_Node000014"><a xlink:href="weights__dedup_8c.html#ac65e64ed76368c21cf76399a4eed1b90" target="_top" xlink:title=" ">
<polygon fill="white" stroke="#666666" points="945.5,-75 848.5,-75 848.5,-56 945.5,-56 945.5,-75"/>
<text text-anchor="middle" x="897" y="-63" font-family="Helvetica,sans-Serif" font-size="10.00">js_parse_blobref</text>
</a>
</g>
</g>
<!-- Node3&#45;&gt;Node14 -->
<g id="edge16_Node000003_Node000014" class="edge">
<title>Node3&#45;&gt;Node14</title>
<g id="a_edge16_Node000003_Node000014"><a xlink:title=" ">
<path fill="none" stroke="#63b8ff" d="M1036.98,-143.51C1017.74,-128.26 987.07,-105.35 958,-89.5 947.85,-83.97 936.16,-79 925.81,-75.04"/>
<polygon fill="#63b8ff" stroke="#63b8ff" points="1034.98,-146.39 1044.97,-149.92 1039.36,-140.93 1034.98,-146.39"/>
</a>
</g>
</g>
<!-- Node15 -->
<g id="Node000015" class="node">
<title>Node15</title>
<g id="a_Node000015"><a xlink:href="weights__dedup_8c.html#ace1eab87292a3ab28bc10e2a8741b84b" target="_top" xlink:title=" ">
<polygon fill="white" stroke="#666666" points="955,-188 839,-188 839,-169 955,-169 955,-188"/>
<text text-anchor="middle" x="897" y="-176" font-family="Helvetica,sans-Serif" font-size="10.00">js_read_str_member</text>
</a>
</g>
</g>
<!-- Node3&#45;&gt;Node15 -->
<g id="edge18_Node000003_Node000015" class="edge">
<title>Node3&#45;&gt;Node15</title>
<g id="a_edge18_Node000003_Node000015"><a xlink:title=" ">
<path fill="none" stroke="#63b8ff" d="M983.86,-168.21C974.19,-169.37 964.39,-170.54 955.04,-171.66"/>
<polygon fill="#63b8ff" stroke="#63b8ff" points="984.34,-171.67 993.86,-167.01 983.51,-164.72 984.34,-171.67"/>
</a>
</g>
</g>
<!-- Node16 -->
<g id="Node000016" class="node">
<title>Node16</title>
<g id="a_Node000016"><a xlink:href="weights__dedup_8c.html#ad380703417334421d025a859a9a6e67e" target="_top" xlink:title=" ">
<polygon fill="white" stroke="#666666" points="958,-151 836,-151 836,-132 958,-132 958,-151"/>
<text text-anchor="middle" x="897" y="-139" font-family="Helvetica,sans-Serif" font-size="10.00">js_read_u64_member</text>
</a>
</g>
</g>
<!-- Node3&#45;&gt;Node16 -->
<g id="edge20_Node000003_Node000016" class="edge">
<title>Node3&#45;&gt;Node16</title>
<g id="a_edge20_Node000003_Node000016"><a xlink:title=" ">
<path fill="none" stroke="#63b8ff" d="M983.83,-151.25C975.23,-150.27 966.52,-149.28 958.12,-148.33"/>
<polygon fill="#63b8ff" stroke="#63b8ff" points="983.53,-154.74 993.86,-152.39 984.32,-147.78 983.53,-154.74"/>
</a>
</g>
</g>
<!-- Node4&#45;&gt;Node5 -->
<g id="edge4_Node000004_Node000005" class="edge">
<title>Node4&#45;&gt;Node5</title>
<g id="a_edge4_Node000004_Node000005"><a xlink:title=" ">
<path fill="none" stroke="#63b8ff" d="M673.34,-178.5C664.7,-178.5 655.86,-178.5 647.24,-178.5"/>
<polygon fill="#63b8ff" stroke="#63b8ff" points="673.37,-182 683.37,-178.5 673.37,-175 673.37,-182"/>
</a>
</g>
</g>
<!-- Node5&#45;&gt;Node6 -->
<g id="edge5_Node000005_Node000006" class="edge">
<title>Node5&#45;&gt;Node6</title>
<g id="a_edge5_Node000005_Node000006"><a xlink:title=" ">
<path fill="none" stroke="#63b8ff" d="M502.41,-178.5C493.99,-178.5 485.47,-178.5 477.19,-178.5"/>
<polygon fill="#63b8ff" stroke="#63b8ff" points="502.6,-182 512.6,-178.5 502.6,-175 502.6,-182"/>
</a>
</g>
</g>
<!-- Node7 -->
<g id="Node000007" class="node">
<title>Node7</title>
<g id="a_Node000007"><a xlink:href="weights_8c.html#a522dac028ee37aae1307ffdb6d65ec1d" target="_top" xlink:title="Open and parse IEBIN v1 metadata and resolve the weights path.">
<polygon fill="white" stroke="#666666" points="307,-188 209,-188 209,-169 307,-169 307,-188"/>
<text text-anchor="middle" x="258" y="-176" font-family="Helvetica,sans-Serif" font-size="10.00">ie_weights_open</text>
</a>
</g>
</g>
<!-- Node6&#45;&gt;Node7 -->
<g id="edge6_Node000006_Node000007" class="edge">
<title>Node6&#45;&gt;Node7</title>
<g id="a_edge6_Node000006_Node000007"><a xlink:title=" ">
<path fill="none" stroke="#63b8ff" d="M332.66,-178.5C324.04,-178.5 315.43,-178.5 307.31,-178.5"/>
<polygon fill="#63b8ff" stroke="#63b8ff" points="332.77,-182 342.77,-178.5 332.77,-175 332.77,-182"/>
</a>
</g>
</g>
<!-- Node8 -->
<g id="Node000008" class="node">
<title>Node8</title>
<g id="a_Node000008"><a xlink:href="main__infer_8c.html#a3c04138a5bfe5d72780bb7e82a18e627" target="_top" xlink:title=" ">
<polygon fill="white" stroke="#666666" points="145.5,-225 104.5,-225 104.5,-206 145.5,-206 145.5,-225"/>
<text text-anchor="middle" x="125" y="-213" font-family="Helvetica,sans-Serif" font-size="10.00">main</text>
</a>
</g>
</g>
<!-- Node7&#45;&gt;Node8 -->
<g id="edge7_Node000007_Node000008" class="edge">
<title>Node7&#45;&gt;Node8</title>
<g id="a_edge7_Node000007_Node000008"><a xlink:title=" ">
<path fill="none" stroke="#63b8ff" d="M213.42,-190.81C190.54,-197.27 163.63,-204.87 145.78,-209.91"/>
<polygon fill="#63b8ff" stroke="#63b8ff" points="214.59,-194.11 223.26,-188.03 212.69,-187.38 214.59,-194.11"/>
</a>
</g>
</g>
<!-- Node9 -->
<g id="Node000009" class="node">
<title>Node9</title>
<g id="a_Node000009"><a xlink:href="test__weights_8c.html#a840291bc02cba5474a4cb46a9b9566fe" target="_top" xlink:title="Main test entrypoint.">
<polygon fill="white" stroke="#666666" points="145.5,-188 104.5,-188 104.5,-169 145.5,-169 145.5,-188"/>
<text text-anchor="middle" x="125" y="-176" font-family="Helvetica,sans-Serif" font-size="10.00">main</text>
</a>
</g>
</g>
<!-- Node7&#45;&gt;Node9 -->
<g id="edge8_Node000007_Node000009" class="edge">
<title>Node7&#45;&gt;Node9</title>
<g id="a_edge8_Node000007_Node000009"><a xlink:title=" ">
<path fill="none" stroke="#63b8ff" d="M198.79,-178.5C179.71,-178.5 159.79,-178.5 145.63,-178.5"/>
<polygon fill="#63b8ff" stroke="#63b8ff" points="198.96,-182 208.96,-178.5 198.96,-175 198.96,-182"/>
</a>
</g>
</g>
<!-- Node10 -->
<g id="Node000010" class="node">
<title>Node10</title>
<g id="a_Node000010"><a xlink:href="test__dedup__loader_8c.html#a73dca7f77cd9da376bc14e888330d88f" target="_top" xlink:title=" ">
<polygon fill="white" stroke="#666666" points="173,-151 77,-151 77,-132 173,-132 173,-151"/>
<text text-anchor="middle" x="125" y="-139" font-family="Helvetica,sans-Serif" font-size="10.00">open_and_touch</text>
</a>
</g>
</g>
<!-- Node7&#45;&gt;Node10 -->
<g id="edge9_Node000007_Node000010" class="edge">
<title>Node7&#45;&gt;Node10</title>
<g id="a_edge9_Node000007_Node000010"><a xlink:title=" ">
<path fill="none" stroke="#63b8ff" d="M213.36,-166.17C196.01,-161.27 176.35,-155.72 160.08,-151.12"/>
<polygon fill="#63b8ff" stroke="#63b8ff" points="212.69,-169.62 223.26,-168.97 214.59,-162.89 212.69,-169.62"/>
</a>
</g>
</g>
<!-- Node11 -->
<g id="Node000011" class="node">
<title>Node11</title>
<g id="a_Node000011"><a xlink:href="test__dedup__loader_8c.html#a3c04138a5bfe5d72780bb7e82a18e627" target="_top" xlink:title=" ">
<polygon fill="white" stroke="#666666" points="41,-151 0,-151 0,-132 41,-132 41,-151"/>
<text text-anchor="middle" x="20.5" y="-139" font-family="Helvetica,sans-Serif" font-size="10.00">main</text>
</a>
</g>
</g>
<!-- Node10&#45;&gt;Node11 -->
<g id="edge10_Node000010_Node000011" class="edge">
<title>Node10&#45;&gt;Node11</title>
<g id="a_edge10_Node000010_Node000011"><a xlink:title=" ">
<path fill="none" stroke="#63b8ff" d="M66.87,-141.5C57.62,-141.5 48.63,-141.5 41.13,-141.5"/>
<polygon fill="#63b8ff" stroke="#63b8ff" points="66.95,-145 76.95,-141.5 66.95,-138 66.95,-145"/>
</a>
</g>
</g>
<!-- Node13 -->
<g id="Node000013" class="node">
<title>Node13</title>
<g id="a_Node000013"><a xlink:href="weights__dedup_8c.html#a1eaf38d57abdd040f9c40e2e3ea1525c" target="_top" xlink:title=" ">
<polygon fill="white" stroke="#666666" points="645,-132 515,-132 515,-113 645,-113 645,-132"/>
<text text-anchor="middle" x="580" y="-120" font-family="Helvetica,sans-Serif" font-size="10.00">ie_parse_tensors_array</text>
</a>
</g>
</g>
<!-- Node12&#45;&gt;Node13 -->
<g id="edge13_Node000012_Node000013" class="edge">
<title>Node12&#45;&gt;Node13</title>
<g id="a_edge13_Node000012_Node000013"><a xlink:title=" ">
<path fill="none" stroke="#63b8ff" d="M690.27,-96.47C667.91,-101.79 641.96,-107.98 620.96,-112.98"/>
<polygon fill="#63b8ff" stroke="#63b8ff" points="691.33,-99.81 700.25,-94.09 689.71,-93 691.33,-99.81"/>
</a>
</g>
</g>
<!-- Node13&#45;&gt;Node6 -->
<g id="edge14_Node000013_Node000006" class="edge">
<title>Node13&#45;&gt;Node6</title>
<g id="a_edge14_Node000013_Node000006"><a xlink:title=" ">
<path fill="none" stroke="#63b8ff" d="M540.57,-135.31C509.79,-145.57 467.31,-159.73 439.5,-169"/>
<polygon fill="#63b8ff" stroke="#63b8ff" points="541.74,-138.61 550.12,-132.13 539.53,-131.97 541.74,-138.61"/>
</a>
</g>
</g>
<!-- Node14&#45;&gt;Node12 -->
<g id="edge17_Node000014_Node000012" class="edge">
<title>Node14&#45;&gt;Node12</title>
<g id="a_edge17_Node000014_Node000012"><a xlink:title=" ">
<path fill="none" stroke="#63b8ff" d="M838.06,-72.67C825.66,-74.21 812.57,-75.83 800.18,-77.36"/>
<polygon fill="#63b8ff" stroke="#63b8ff" points="838.78,-76.11 848.27,-71.41 837.92,-69.16 838.78,-76.11"/>
</a>
</g>
</g>
<!-- Node15&#45;&gt;Node4 -->
<g id="edge19_Node000015_Node000004" class="edge">
<title>Node15&#45;&gt;Node4</title>
<g id="a_edge19_Node000015_Node000004"><a xlink:title=" ">
<path fill="none" stroke="#63b8ff" d="M828.82,-178.5C819.11,-178.5 809.2,-178.5 799.71,-178.5"/>
<polygon fill="#63b8ff" stroke="#63b8ff" points="828.84,-182 838.84,-178.5 828.84,-175 828.84,-182"/>
</a>
</g>
</g>
<!-- Node16&#45;&gt;Node4 -->
<g id="edge21_Node000016_Node000004" class="edge">
<title>Node16&#45;&gt;Node4</title>
<g id="a_edge21_Node000016_Node000004"><a xlink:title=" ">
<path fill="none" stroke="#63b8ff" d="M846.41,-153.45C831.46,-157.06 814.94,-161.04 799.55,-164.75"/>
<polygon fill="#63b8ff" stroke="#63b8ff" points="847.57,-156.77 856.47,-151.03 845.93,-149.97 847.57,-156.77"/>
</a>
</g>
</g>
<!-- Node17&#45;&gt;Node2 -->
<g id="edge23_Node000017_Node000002" class="edge">
<title>Node17&#45;&gt;Node2</title>
<g id="a_edge23_Node000017_Node000002"><a xlink:title=" ">
<path fill="none" stroke="#63b8ff" d="M1086.13,-22.37C1106.37,-29.13 1134.16,-36.76 1156.92,-41.9"/>
<polygon fill="#63b8ff" stroke="#63b8ff" points="1087.17,-19.03 1076.58,-19.03 1084.86,-25.63 1087.17,-19.03"/>
</a>
</g>
</g>
<!-- Node18&#45;&gt;Node2 -->
<g id="edge28_Node000018_Node000002" class="edge">
<title>Node18&#45;&gt;Node2</title>
<g id="a_edge28_Node000018_Node000002"><a xlink:title=" ">
<path fill="none" stroke="#63b8ff" d="M1111.11,-53.07C1126.28,-53.4 1142.6,-53.28 1156.92,-52.7"/>
<polygon fill="#63b8ff" stroke="#63b8ff" points="1110.92,-49.56 1100.82,-52.77 1110.71,-56.56 1110.92,-49.56"/>
</a>
</g>
</g>
<!-- Node18&#45;&gt;Node5 -->
<g id="edge25_Node000018_Node000005" class="edge">
<title>Node18&#45;&gt;Node5</title>
<g id="a_edge25_Node000018_Node000005"><a xlink:title=" ">
<path fill="none" stroke="#63b8ff" d="M1013.98,-34.42C938.53,-15.78 780.05,10.47 683,-65.5 653.57,-88.54 672.51,-114.18 647,-141.5 635.7,-153.6 619.54,-162.75 606.03,-168.93"/>
<polygon fill="#63b8ff" stroke="#63b8ff" points="1013.51,-37.91 1024.06,-36.99 1015.24,-31.13 1013.51,-37.91"/>
</a>
</g>
</g>
<!-- Node18&#45;&gt;Node12 -->
<g id="edge26_Node000018_Node000012" class="edge">
<title>Node18&#45;&gt;Node12</title>
<g id="a_edge26_Node000018_Node000012"><a xlink:title=" ">
<path fill="none" stroke="#63b8ff" d="M1004.06,-40.89C959.04,-37.4 892.64,-35.43 836,-46.5 808.31,-51.91 778.47,-65.55 760.13,-74.92"/>
<polygon fill="#63b8ff" stroke="#63b8ff" points="1003.92,-44.39 1014.18,-41.72 1004.5,-37.41 1003.92,-44.39"/>
</a>
</g>
</g>
<!-- Node18&#45;&gt;Node14 -->
<g id="edge27_Node000018_Node000014" class="edge">
<title>Node18&#45;&gt;Node14</title>
<g id="a_edge27_Node000018_Node000014"><a xlink:title=" ">
<path fill="none" stroke="#63b8ff" d="M1004.47,-52.74C985.49,-55.01 964.15,-57.57 945.58,-59.8"/>
<polygon fill="#63b8ff" stroke="#63b8ff" points="1004.93,-56.21 1014.44,-51.54 1004.1,-49.26 1004.93,-56.21"/>
</a>
</g>
</g>
</g>
</svg>

<g id="navigator" transform="translate(0 0)" fill="#404254">
  <rect fill="#f2f5e9" fill-opacity="0.5" stroke="#606060" stroke-width=".5" x="0" y="0" width="60" height="60"/>
  <use id="zoomplus" xlink:href="#zoomPlus" x="17" y="9" onmousedown="handleZoom(evt,'in')"/>
  <use id="zoomminus" xlink:href="#zoomMin" x="42" y="9" onmousedown="handleZoom(evt,'out')"/>
  <use id="reset" xlink:href="#resetDef" x="30" y="36" onmousedown="handleReset()"/>
   <use id="arrowup" xlink:href="#arrowUp" x="0" y="0" onmousedown="handlePan(0,-1)"/>
  <use id="arrowright" xlink:href="#arrowRight" x="0" y="0" onmousedown="handlePan(1,0)"/>
  <use id="arrowdown" xlink:href="#arrowDown" x="0" y="0" onmousedown="handlePan(0,1)"/>
  <use id="arrowleft" xlink:href="#arrowLeft" x="0" y="0" onmousedown="handlePan(-1,0)"/>
</g>
<svg viewBox="0 0 15 15" width="100%" height="30px" preserveAspectRatio="xMaxYMin meet">
 <g id="arrow_out" transform="scale(0.3 0.3)">
  <a xlink:href="weights__dedup_8c_acb6d250836afa5eddeb1985efad8afa4_icgraph_org.svg" target="_base">
   <rect id="button" ry="5" rx="5" y="6" x="6" height="38" width="38"
        fill="#f2f5e9" fill-opacity="0.5" stroke="#606060" stroke-width="1.0"/>
   <path id="arrow"
     d="M 11.500037,31.436501 C 11.940474,20.09759 22.043105,11.32322 32.158766,21.979434 L 37.068811,17.246167 C 37.068811,17.246167 37.088388,32 37.088388,32 L 22.160133,31.978069 C 22.160133,31.978069 26.997745,27.140456 26.997745,27.140456 C 18.528582,18.264221 13.291696,25.230495 11.500037,31.436501 z"
     style="fill:#404040;"/>
  </a>
 </g>
</svg>

<style type='text/css'>
<![CDATA[
[data-mouse-over-selected='false'] { opacity: 0.7; }
[data-mouse-over-selected='true']  { opacity: 1.0; }
]]>
</style>
<script type="application/ecmascript"><![CDATA[
document.addEventListener('DOMContentLoaded', (event) => {
  highlightEdges();
  highlightAdjacentNodes();
});
]]></script>
</svg>
