<?xml version="1.0" encoding="UTF-8" standalone="no"?>
<!DOCTYPE svg PUBLIC "-//W3C//DTD SVG 1.1//EN"
 "http://www.w3.org/Graphics/SVG/1.1/DTD/svg11.dtd">
<!-- Generated by graphviz version 2.43.0 (0)
 -->
<!-- Title: js_find_member_value Pages: 1 -->
<!--zoomable 270 -->
<svg id="main" version="1.1" xmlns="http://www.w3.org/2000/svg" xmlns:xlink="http://www.w3.org/1999/xlink" xml:space="preserve" onload="init(evt)">
<style type="text/css"><![CDATA[
.edge:hover path { stroke: red; }
.edge:hover polygon { stroke: red; fill: red; }
]]></style>
<script type="text/javascript"><![CDATA[
var edges = document.getElementsByTagName('g');
if (edges && edges.length) {
  for (var i=0;i<edges.length;i++) {
    if (edges[i].id.substr(0,4)=='edge') {
      edges[i].setAttribute('class','edge');
    }
  }
}
]]></script>
        <defs>
                <circle id="rim" cx="0" cy="0" r="7"/>
                <circle id="rim2" cx="0" cy="0" r="3.5"/>
                <g id="zoomPlus">
                        <use xlink:href="#rim" fill="#404040">
                                <set attributeName="fill" to="#808080" begin="zoomplus.mouseover" end="zoomplus.mouseout"/>
                        </use>
                        <path d="M-4,0h8M0,-4v8" fill="none" stroke="white" stroke-width="1.5" pointer-events="none"/>
                </g>
                <g id="zoomMin">
                        <use xlink:href="#rim" fill="#404040">
                                <set attributeName="fill" to="#808080" begin="zoomminus.mouseover" end="zoomminus.mouseout"/>
                        </use>
                        <path d="M-4,0h8" fill="none" stroke="white" stroke-width="1.5" pointer-events="none"/>
                </g>
                <g id="dirArrow">
                        <path fill="none" stroke="white" stroke-width="1.5" d="M0,-3.0v7 M-2.5,-0.5L0,-3.0L2.5,-0.5"/>
                </g>
               <g id="resetDef">
                       <use xlink:href="#rim2" fill="#404040">
                               <set attributeName="fill" to="#808080" begin="reset.mouseover" end="reset.mouseout"/>
                       </use>
               </g>
        </defs>

<script type="text/javascript">
var viewWidth = 607;
var viewHeight = 270;
var sectionId = 'dynsection-31';
</script>
<script xlink:href="svgpan.js"/>
<svg id="graph" class="graph">
<g id="viewport">
<title>js_find_member_value</title>
<!-- Node1 -->
<g id="node1" class="node">
<title>Node1</title>
<g id="a_node1"><a xlink:title=" ">
<polygon fill="#bfbfbf" stroke="black" points="0,-228.5 0,-247.5 127,-247.5 127,-228.5 0,-228.5"/>
<text text-anchor="middle" x="63.5" y="-235.5" font-family="Helvetica,sans-Serif" font-size="10.00">js_find_member_value</text>
</a>
</g>
</g>
<!-- Node2 -->
<g id="node2" class="node">
<title>Node2</title>
<g id="a_node2"><a xlink:href="weights__dedup_8c.html#a7e3b6f5b10e0d8d68272d2e80523813b" target="_top" xlink:title=" ">
<polygon fill="none" stroke="black" points="404,-190.5 404,-209.5 494,-209.5 494,-190.5 404,-190.5"/>
<text text-anchor="middle" x="449" y="-197.5" font-family="Helvetica,sans-Serif" font-size="10.00">js_parse_string</text>
</a>
</g>
</g>
<!-- Node1&#45;&gt;Node2 -->
<g id="edge1" class="edge">
<title>Node1&#45;&gt;Node2</title>
<path fill="none" stroke="midnightblue" d="M127.4,-231.77C201.63,-224.41 323.8,-212.31 393.95,-205.36"/>
<polygon fill="midnightblue" stroke="midnightblue" points="394.3,-208.84 403.91,-204.37 393.61,-201.87 394.3,-208.84"/>
</g>
<!-- Node3 -->
<g id="node3" class="node">
<title>Node3</title>
<g id="a_node3"><a xlink:href="weights__dedup_8c.html#a82535eef357e00f15379d3a922d6593d" target="_top" xlink:title=" ">
<polygon fill="none" stroke="black" points="530,-133.5 530,-152.5 599,-152.5 599,-133.5 530,-133.5"/>
<text text-anchor="middle" x="564.5" y="-140.5" font-family="Helvetica,sans-Serif" font-size="10.00">js_skip_ws</text>
</a>
</g>
</g>
<!-- Node1&#45;&gt;Node3 -->
<g id="edge16" class="edge">
<title>Node1&#45;&gt;Node3</title>
<path fill="none" stroke="midnightblue" d="M111.62,-247.53C193.97,-261.74 367.34,-280.69 494,-219 520.01,-206.33 540.9,-179.32 552.76,-161.15"/>
<polygon fill="midnightblue" stroke="midnightblue" points="555.78,-162.92 558.11,-152.58 549.85,-159.21 555.78,-162.92"/>
</g>
<!-- Node4 -->
<g id="node4" class="node">
<title>Node4</title>
<g id="a_node4"><a xlink:href="weights__dedup_8c.html#aec6b7531542a45304d1f17d108a6d2ea" target="_top" xlink:title=" ">
<polygon fill="none" stroke="black" points="163,-114.5 163,-133.5 246,-133.5 246,-114.5 163,-114.5"/>
<text text-anchor="middle" x="204.5" y="-121.5" font-family="Helvetica,sans-Serif" font-size="10.00">js_skip_value</text>
</a>
</g>
</g>
<!-- Node1&#45;&gt;Node4 -->
<g id="edge3" class="edge">
<title>Node1&#45;&gt;Node4</title>
<path fill="none" stroke="midnightblue" d="M76.35,-228.28C100.25,-208.68 154.45,-164.23 183.78,-140.18"/>
<polygon fill="midnightblue" stroke="midnightblue" points="186.17,-142.74 191.68,-133.69 181.73,-137.33 186.17,-142.74"/>
</g>
<!-- Node2&#45;&gt;Node3 -->
<g id="edge2" class="edge">
<title>Node2&#45;&gt;Node3</title>
<path fill="none" stroke="midnightblue" d="M469,-190.46C487.17,-181.34 514.78,-167.47 535.48,-157.07"/>
<polygon fill="midnightblue" stroke="midnightblue" points="537.08,-160.19 544.44,-152.57 533.93,-153.93 537.08,-160.19"/>
</g>
<!-- Node4&#45;&gt;Node2 -->
<g id="edge7" class="edge">
<title>Node4&#45;&gt;Node2</title>
<path fill="none" stroke="midnightblue" d="M214.84,-133.63C228.31,-146.83 254.59,-170.14 282,-181 317.56,-195.09 360.53,-199.7 393.84,-200.87"/>
<polygon fill="midnightblue" stroke="midnightblue" points="393.76,-204.37 403.85,-201.12 393.94,-197.37 393.76,-204.37"/>
</g>
<!-- Node4&#45;&gt;Node3 -->
<g id="edge15" class="edge">
<title>Node4&#45;&gt;Node3</title>
<path fill="none" stroke="midnightblue" d="M246.22,-126.16C314.11,-129.76 449.88,-136.97 519.74,-140.68"/>
<polygon fill="midnightblue" stroke="midnightblue" points="519.79,-144.19 529.96,-141.22 520.16,-137.19 519.79,-144.19"/>
</g>
<!-- Node5 -->
<g id="node5" class="node">
<title>Node5</title>
<g id="a_node5"><a xlink:href="weights__dedup_8c.html#acb6d250836afa5eddeb1985efad8afa4" target="_top" xlink:title=" ">
<polygon fill="none" stroke="black" points="287,-0.5 287,-19.5 363,-19.5 363,-0.5 287,-0.5"/>
<text text-anchor="middle" x="325" y="-7.5" font-family="Helvetica,sans-Serif" font-size="10.00">js_match_lit</text>
</a>
</g>
</g>
<!-- Node4&#45;&gt;Node5 -->
<g id="edge4" class="edge">
<title>Node4&#45;&gt;Node5</title>
<path fill="none" stroke="midnightblue" d="M211.07,-114.41C222.33,-95.74 249.52,-54.15 282,-29 284.05,-27.41 286.25,-25.92 288.54,-24.53"/>
<polygon fill="midnightblue" stroke="midnightblue" points="290.45,-27.48 297.6,-19.66 287.14,-21.31 290.45,-27.48"/>
</g>
<!-- Node6 -->
<g id="node6" class="node">
<title>Node6</title>
<g id="a_node6"><a xlink:href="weights__dedup_8c.html#a080768f8631e237e2467fc47a7d4d6a0" target="_top" xlink:title=" ">
<polygon fill="none" stroke="black" points="410.5,-76.5 410.5,-95.5 487.5,-95.5 487.5,-76.5 410.5,-76.5"/>
<text text-anchor="middle" x="449" y="-83.5" font-family="Helvetica,sans-Serif" font-size="10.00">js_parse_i64</text>
</a>
</g>
</g>
<!-- Node4&#45;&gt;Node6 -->
<g id="edge5" class="edge">
<title>Node4&#45;&gt;Node6</title>
<path fill="none" stroke="midnightblue" d="M246.34,-116.23C257.86,-114.12 270.41,-111.9 282,-110 321.67,-103.5 366.83,-97.03 400.03,-92.45"/>
<polygon fill="midnightblue" stroke="midnightblue" points="400.93,-95.86 410.36,-91.03 399.98,-88.93 400.93,-95.86"/>
</g>
<!-- Node7 -->
<g id="node7" class="node">
<title>Node7</title>
<g id="a_node7"><a xlink:href="weights__dedup_8c.html#aeb7fa9bc2ccc7b24ae16f647bcafb49b" target="_top" xlink:title=" ">
<polygon fill="none" stroke="black" points="284.5,-38.5 284.5,-57.5 365.5,-57.5 365.5,-38.5 284.5,-38.5"/>
<text text-anchor="middle" x="325" y="-45.5" font-family="Helvetica,sans-Serif" font-size="10.00">js_skip_array</text>
</a>
</g>
</g>
<!-- Node4&#45;&gt;Node7 -->
<g id="edge8" class="edge">
<title>Node4&#45;&gt;Node7</title>
<path fill="none" stroke="midnightblue" d="M212.14,-114.15C225.27,-100.85 255.57,-79.5 282,-63 282.09,-62.94 282.18,-62.89 282.27,-62.83"/>
<polygon fill="midnightblue" stroke="midnightblue" points="284.09,-65.82 290.84,-57.66 280.47,-59.83 284.09,-65.82"/>
</g>
<!-- Node8 -->
<g id="node8" class="node">
<title>Node8</title>
<g id="a_node8"><a xlink:href="weights__dedup_8c.html#ae1e5c9a54a8c0312241d17afd01c40a0" target="_top" xlink:title=" ">
<polygon fill="none" stroke="black" points="282,-152.5 282,-171.5 368,-171.5 368,-152.5 282,-152.5"/>
<text text-anchor="middle" x="325" y="-159.5" font-family="Helvetica,sans-Serif" font-size="10.00">js_skip_object</text>
</a>
</g>
</g>
<!-- Node4&#45;&gt;Node8 -->
<g id="edge11" class="edge">
<title>Node4&#45;&gt;Node8</title>
<path fill="none" stroke="midnightblue" d="M246.28,-130.63C263.96,-135.71 284.09,-142.44 299.43,-148.53"/>
<polygon fill="midnightblue" stroke="midnightblue" points="298.16,-151.79 308.74,-152.4 300.85,-145.33 298.16,-151.79"/>
</g>
<!-- Node6&#45;&gt;Node3 -->
<g id="edge6" class="edge">
<title>Node6&#45;&gt;Node3</title>
<path fill="none" stroke="midnightblue" d="M469,-95.54C487.17,-104.66 514.78,-118.53 535.48,-128.93"/>
<polygon fill="midnightblue" stroke="midnightblue" points="533.93,-132.07 544.44,-133.43 537.08,-125.81 533.93,-132.07"/>
</g>
<!-- Node7&#45;&gt;Node3 -->
<g id="edge10" class="edge">
<title>Node7&#45;&gt;Node3</title>
<path fill="none" stroke="midnightblue" d="M365.58,-44.87C401.11,-43.77 453.73,-46.47 494,-67 519.64,-80.07 540.51,-106.74 552.47,-124.75"/>
<polygon fill="midnightblue" stroke="midnightblue" points="549.57,-126.71 557.9,-133.26 555.47,-122.95 549.57,-126.71"/>
</g>
<!-- Node7&#45;&gt;Node4 -->
<g id="edge9" class="edge">
<title>Node7&#45;&gt;Node4</title>
<path fill="none" stroke="midnightblue" d="M317.65,-57.6C309.34,-64.96 294.4,-73.26 282,-81 267.61,-89.98 252.07,-100.4 238.78,-108.92"/>
<polygon fill="midnightblue" stroke="midnightblue" points="236.58,-106.17 229.98,-114.47 240.31,-112.09 236.58,-106.17"/>
</g>
<!-- Node8&#45;&gt;Node2 -->
<g id="edge12" class="edge">
<title>Node8&#45;&gt;Node2</title>
<path fill="none" stroke="midnightblue" d="M356.79,-171.59C372.1,-176.36 390.82,-182.19 407.3,-187.32"/>
<polygon fill="midnightblue" stroke="midnightblue" points="406.64,-190.78 417.22,-190.41 408.72,-184.1 406.64,-190.78"/>
</g>
<!-- Node8&#45;&gt;Node3 -->
<g id="edge14" class="edge">
<title>Node8&#45;&gt;Node3</title>
<path fill="none" stroke="midnightblue" d="M368.19,-158.63C410.79,-155.22 476.33,-149.97 519.55,-146.52"/>
<polygon fill="midnightblue" stroke="midnightblue" points="520.08,-149.99 529.76,-145.7 519.52,-143.01 520.08,-149.99"/>
</g>
<!-- Node8&#45;&gt;Node4 -->
<g id="edge13" class="edge">
<title>Node8&#45;&gt;Node4</title>
<path fill="none" stroke="midnightblue" d="M281.98,-155.01C264.78,-150.03 245.46,-143.55 230.54,-137.66"/>
<polygon fill="midnightblue" stroke="midnightblue" points="231.57,-134.3 220.99,-133.7 228.89,-140.76 231.57,-134.3"/>
</g>
</g>
</svg>
        <g id="navigator" transform="translate(0 0)" fill="#404254">
                <rect fill="#f2f5e9" fill-opacity="0.5" stroke="#606060" stroke-width=".5" x="0" y="0" width="60" height="60"/>
                <use id="zoomplus" xlink:href="#zoomPlus" x="17" y="9" onmousedown="handleZoom(evt,'in')"/>
                <use id="zoomminus" xlink:href="#zoomMin" x="42" y="9" onmousedown="handleZoom(evt,'out')"/>
                <use id="reset" xlink:href="#resetDef" x="30" y="36" onmousedown="handleReset()"/>
                <g id="arrowUp" xlink:href="#dirArrow" transform="translate(30 24)" onmousedown="handlePan(0,-1)">
                  <use xlink:href="#rim" fill="#404040">
                        <set attributeName="fill" to="#808080" begin="arrowUp.mouseover" end="arrowUp.mouseout"/>
                  </use>
                  <path fill="none" stroke="white" stroke-width="1.5" d="M0,-3.0v7 M-2.5,-0.5L0,-3.0L2.5,-0.5"/>
                </g>
                <g id="arrowRight" xlink:href="#dirArrow" transform="rotate(90) translate(36 -43)" onmousedown="handlePan(1,0)">
                  <use xlink:href="#rim" fill="#404040">
                        <set attributeName="fill" to="#808080" begin="arrowRight.mouseover" end="arrowRight.mouseout"/>
                  </use>
                  <path fill="none" stroke="white" stroke-width="1.5" d="M0,-3.0v7 M-2.5,-0.5L0,-3.0L2.5,-0.5"/>
                </g>
                <g id="arrowDown" xlink:href="#dirArrow" transform="rotate(180) translate(-30 -48)" onmousedown="handlePan(0,1)">
                  <use xlink:href="#rim" fill="#404040">
                        <set attributeName="fill" to="#808080" begin="arrowDown.mouseover" end="arrowDown.mouseout"/>
                  </use>
                  <path fill="none" stroke="white" stroke-width="1.5" d="M0,-3.0v7 M-2.5,-0.5L0,-3.0L2.5,-0.5"/>
                </g>
                <g id="arrowLeft" xlink:href="#dirArrow" transform="rotate(270) translate(-36 17)" onmousedown="handlePan(-1,0)">
                  <use xlink:href="#rim" fill="#404040">
                        <set attributeName="fill" to="#808080" begin="arrowLeft.mouseover" end="arrowLeft.mouseout"/>
                  </use>
                  <path fill="none" stroke="white" stroke-width="1.5" d="M0,-3.0v7 M-2.5,-0.5L0,-3.0L2.5,-0.5"/>
                </g>
        </g>
        <svg viewBox="0 0 15 15" width="100%" height="30px" preserveAspectRatio="xMaxYMin meet">
         <g id="arrow_out" transform="scale(0.3 0.3)">
          <a xlink:href="weights__dedup_8c_ae0494f541a190a9ecf82c11c5eb22952_cgraph_org.svg" target="_base">
           <rect id="button" ry="5" rx="5" y="6" x="6" height="38" width="38"
                fill="#f2f5e9" fill-opacity="0.5" stroke="#606060" stroke-width="1.0"/>
           <path id="arrow"
             d="M 11.500037,31.436501 C 11.940474,20.09759 22.043105,11.32322 32.158766,21.979434 L 37.068811,17.246167 C 37.068811,17.246167 37.088388,32 37.088388,32 L 22.160133,31.978069 C 22.160133,31.978069 26.997745,27.140456 26.997745,27.140456 C 18.528582,18.264221 13.291696,25.230495 11.500037,31.436501 z"
             style="fill:#404040;"/>
          </a>
         </g>
        </svg>
</svg>
