<?xml version="1.0" encoding="UTF-8" standalone="no"?>
<!DOCTYPE svg PUBLIC "-//W3C//DTD SVG 1.1//EN"
 "http://www.w3.org/Graphics/SVG/1.1/DTD/svg11.dtd">
<!-- Generated by graphviz version 2.43.0 (0)
 -->
<!-- Title: ie_weights_dedup_close Pages: 1 -->
<svg width="658pt" height="101pt"
 viewBox="0.00 0.00 658.00 101.00" xmlns="http://www.w3.org/2000/svg" xmlns:xlink="http://www.w3.org/1999/xlink">
<g id="graph0" class="graph" transform="scale(1 1) rotate(0) translate(4 97)">
<title>ie_weights_dedup_close</title>
<!-- Node1 -->
<g id="Node000001" class="node">
<title>Node1</title>
<g id="a_Node000001"><a xlink:title="Close the loader and free all associated memory.">
<polygon fill="#999999" stroke="#666666" points="650,-56 515,-56 515,-37 650,-37 650,-56"/>
<text text-anchor="middle" x="582.5" y="-44" font-family="Helvetica,sans-Serif" font-size="10.00">ie_weights_dedup_close</text>
</a>
</g>
</g>
<!-- Node2 -->
<g id="Node000002" class="node">
<title>Node2</title>
<g id="a_Node000002"><a xlink:href="weights_8c.html#a06c2b7e35d1f82a11e4605e23a1976f5" target="_top" xlink:title="Close weights resources and release optional dedup handle.">
<polygon fill="white" stroke="#666666" points="309,-74 209,-74 209,-55 309,-55 309,-74"/>
<text text-anchor="middle" x="259" y="-62" font-family="Helvetica,sans-Serif" font-size="10.00">ie_weights_close</text>
</a>
</g>
</g>
<!-- Node1&#45;&gt;Node2 -->
<g id="edge1_Node000001_Node000002" class="edge">
<title>Node1&#45;&gt;Node2</title>
<g id="a_edge1_Node000001_Node000002"><a xlink:title=" ">
<path fill="none" stroke="#63b8ff" d="M504.59,-50.81C443.96,-54.2 361.23,-58.83 309.22,-61.74"/>
<polygon fill="#63b8ff" stroke="#63b8ff" points="505.1,-54.28 514.88,-50.23 504.7,-47.29 505.1,-54.28"/>
</a>
</g>
</g>
<!-- Node7 -->
<g id="Node000007" class="node">
<title>Node7</title>
<g id="a_Node000007"><a xlink:href="weights__dedup_8c.html#aa625b41ce2a24826f8cb464661ace8ec" target="_top" xlink:title="Open the dedup weights loader from a model directory.">
<polygon fill="white" stroke="#666666" points="479,-37 345,-37 345,-18 479,-18 479,-37"/>
<text text-anchor="middle" x="412" y="-25" font-family="Helvetica,sans-Serif" font-size="10.00">ie_weights_dedup_open</text>
</a>
</g>
</g>
<!-- Node1&#45;&gt;Node7 -->
<g id="edge6_Node000001_Node000007" class="edge">
<title>Node1&#45;&gt;Node7</title>
<g id="a_edge6_Node000001_Node000007"><a xlink:title=" ">
<path fill="none" stroke="#63b8ff" d="M504.88,-37.86C496.27,-36.89 487.57,-35.91 479.11,-34.95"/>
<polygon fill="#63b8ff" stroke="#63b8ff" points="504.58,-41.35 514.9,-38.99 505.36,-34.39 504.58,-41.35"/>
</a>
</g>
</g>
<!-- Node3 -->
<g id="Node000003" class="node">
<title>Node3</title>
<g id="a_Node000003"><a xlink:href="main__infer_8c.html#a3c04138a5bfe5d72780bb7e82a18e627" target="_top" xlink:title=" ">
<polygon fill="white" stroke="#666666" points="145.5,-93 104.5,-93 104.5,-74 145.5,-74 145.5,-93"/>
<text text-anchor="middle" x="125" y="-81" font-family="Helvetica,sans-Serif" font-size="10.00">main</text>
</a>
</g>
</g>
<!-- Node2&#45;&gt;Node3 -->
<g id="edge2_Node000002_Node000003" class="edge">
<title>Node2&#45;&gt;Node3</title>
<g id="a_edge2_Node000002_Node000003"><a xlink:title=" ">
<path fill="none" stroke="#63b8ff" d="M198.91,-73C179.71,-75.77 159.72,-78.65 145.54,-80.69"/>
<polygon fill="#63b8ff" stroke="#63b8ff" points="199.45,-76.46 208.85,-71.57 198.45,-69.54 199.45,-76.46"/>
</a>
</g>
</g>
<!-- Node4 -->
<g id="Node000004" class="node">
<title>Node4</title>
<g id="a_Node000004"><a xlink:href="test__weights_8c.html#a840291bc02cba5474a4cb46a9b9566fe" target="_top" xlink:title="Main test entrypoint.">
<polygon fill="white" stroke="#666666" points="145.5,-56 104.5,-56 104.5,-37 145.5,-37 145.5,-56"/>
<text text-anchor="middle" x="125" y="-44" font-family="Helvetica,sans-Serif" font-size="10.00">main</text>
</a>
</g>
</g>
<!-- Node2&#45;&gt;Node4 -->
<g id="edge3_Node000002_Node000004" class="edge">
<title>Node2&#45;&gt;Node4</title>
<g id="a_edge3_Node000002_Node000004"><a xlink:title=" ">
<path fill="none" stroke="#63b8ff" d="M198.91,-56.44C179.71,-53.82 159.72,-51.1 145.54,-49.16"/>
<polygon fill="#63b8ff" stroke="#63b8ff" points="198.47,-59.91 208.85,-57.8 199.41,-52.98 198.47,-59.91"/>
</a>
</g>
</g>
<!-- Node5 -->
<g id="Node000005" class="node">
<title>Node5</title>
<g id="a_Node000005"><a xlink:href="test__dedup__loader_8c.html#a73dca7f77cd9da376bc14e888330d88f" target="_top" xlink:title=" ">
<polygon fill="white" stroke="#666666" points="173,-19 77,-19 77,0 173,0 173,-19"/>
<text text-anchor="middle" x="125" y="-7" font-family="Helvetica,sans-Serif" font-size="10.00">open_and_touch</text>
</a>
</g>
</g>
<!-- Node2&#45;&gt;Node5 -->
<g id="edge4_Node000002_Node000005" class="edge">
<title>Node2&#45;&gt;Node5</title>
<g id="a_edge4_Node000002_Node000005"><a xlink:title=" ">
<path fill="none" stroke="#63b8ff" d="M222.73,-51.28C218.09,-49.41 213.41,-47.45 209,-45.5 192.64,-38.26 189.37,-34.71 173,-27.5 166.44,-24.61 159.26,-21.73 152.53,-19.14"/>
<polygon fill="#63b8ff" stroke="#63b8ff" points="221.54,-54.58 232.13,-54.99 224.11,-48.06 221.54,-54.58"/>
</a>
</g>
</g>
<!-- Node6 -->
<g id="Node000006" class="node">
<title>Node6</title>
<g id="a_Node000006"><a xlink:href="test__dedup__loader_8c.html#a3c04138a5bfe5d72780bb7e82a18e627" target="_top" xlink:title=" ">
<polygon fill="white" stroke="#666666" points="41,-19 0,-19 0,0 41,0 41,-19"/>
<text text-anchor="middle" x="20.5" y="-7" font-family="Helvetica,sans-Serif" font-size="10.00">main</text>
</a>
</g>
</g>
<!-- Node5&#45;&gt;Node6 -->
<g id="edge5_Node000005_Node000006" class="edge">
<title>Node5&#45;&gt;Node6</title>
<g id="a_edge5_Node000005_Node000006"><a xlink:title=" ">
<path fill="none" stroke="#63b8ff" d="M66.87,-9.5C57.62,-9.5 48.63,-9.5 41.13,-9.5"/>
<polygon fill="#63b8ff" stroke="#63b8ff" points="66.95,-13 76.95,-9.5 66.95,-6 66.95,-13"/>
</a>
</g>
</g>
<!-- Node8 -->
<g id="Node000008" class="node">
<title>Node8</title>
<g id="a_Node000008"><a xlink:href="weights_8c.html#a522dac028ee37aae1307ffdb6d65ec1d" target="_top" xlink:title="Open and parse IEBIN v1 metadata and resolve the weights path.">
<polygon fill="white" stroke="#666666" points="308,-37 210,-37 210,-18 308,-18 308,-37"/>
<text text-anchor="middle" x="259" y="-25" font-family="Helvetica,sans-Serif" font-size="10.00">ie_weights_open</text>
</a>
</g>
</g>
<!-- Node7&#45;&gt;Node8 -->
<g id="edge7_Node000007_Node000008" class="edge">
<title>Node7&#45;&gt;Node8</title>
<g id="a_edge7_Node000007_Node000008"><a xlink:title=" ">
<path fill="none" stroke="#63b8ff" d="M334.58,-27.5C325.54,-27.5 316.51,-27.5 308.03,-27.5"/>
<polygon fill="#63b8ff" stroke="#63b8ff" points="334.77,-31 344.77,-27.5 334.77,-24 334.77,-31"/>
</a>
</g>
</g>
<!-- Node8&#45;&gt;Node3 -->
<g id="edge8_Node000008_Node000003" class="edge">
<title>Node8&#45;&gt;Node3</title>
<g id="a_edge8_Node000008_Node000003"><a xlink:title=" ">
<path fill="none" stroke="#63b8ff" d="M220.24,-40.7C216.41,-42.24 212.6,-43.85 209,-45.5 192.36,-53.12 189.59,-57.76 173,-65.5 164.29,-69.56 154.39,-73.46 145.92,-76.58"/>
<polygon fill="#63b8ff" stroke="#63b8ff" points="221.64,-43.91 229.71,-37.04 219.12,-37.38 221.64,-43.91"/>
</a>
</g>
</g>
<!-- Node8&#45;&gt;Node4 -->
<g id="edge9_Node000008_Node000004" class="edge">
<title>Node8&#45;&gt;Node4</title>
<g id="a_edge9_Node000008_Node000004"><a xlink:title=" ">
<path fill="none" stroke="#63b8ff" d="M199.9,-35.86C180.41,-38.67 159.98,-41.61 145.56,-43.69"/>
<polygon fill="#63b8ff" stroke="#63b8ff" points="200.57,-39.3 209.97,-34.41 199.57,-32.37 200.57,-39.3"/>
</a>
</g>
</g>
<!-- Node8&#45;&gt;Node5 -->
<g id="edge10_Node000008_Node000005" class="edge">
<title>Node8&#45;&gt;Node5</title>
<g id="a_edge10_Node000008_Node000005"><a xlink:title=" ">
<path fill="none" stroke="#63b8ff" d="M200.02,-19.59C191.1,-18.38 181.98,-17.13 173.33,-15.95"/>
<polygon fill="#63b8ff" stroke="#63b8ff" points="199.59,-23.07 209.97,-20.95 200.54,-16.13 199.59,-23.07"/>
</a>
</g>
</g>
</g>
</svg>
