<?xml version="1.0" encoding="UTF-8" standalone="no"?>
<!DOCTYPE svg PUBLIC "-//W3C//DTD SVG 1.1//EN"
 "http://www.w3.org/Graphics/SVG/1.1/DTD/svg11.dtd">
<!-- Generated by graphviz version 2.43.0 (0)
 -->
<!-- Title: write_all_bytes_ Pages: 1 -->
<svg width="541pt" height="27pt"
 viewBox="0.00 0.00 541.00 27.00" xmlns="http://www.w3.org/2000/svg" xmlns:xlink="http://www.w3.org/1999/xlink">
<g id="graph0" class="graph" transform="scale(1 1) rotate(0) translate(4 23)">
<title>write_all_bytes_</title>
<!-- Node1 -->
<g id="Node000001" class="node">
<title>Node1</title>
<g id="a_Node000001"><a xlink:title="Create a best&#45;effort model.dedup.json manifest for runtime dedup.">
<polygon fill="#999999" stroke="#666666" points="96,-19 0,-19 0,0 96,0 96,-19"/>
<text text-anchor="middle" x="48" y="-7" font-family="Helvetica,sans-Serif" font-size="10.00">write_all_bytes_</text>
</a>
</g>
</g>
<!-- Node2 -->
<g id="Node000002" class="node">
<title>Node2</title>
<g id="a_Node000002"><a xlink:href="weights_8c.html#a88ec341995312abc5fbbd4084389523e" target="_top" xlink:title="Log an errno&#45;based failure with contextual path information.">
<polygon fill="white" stroke="#666666" points="208,-19 132,-19 132,0 208,0 208,-19"/>
<text text-anchor="middle" x="170" y="-7" font-family="Helvetica,sans-Serif" font-size="10.00">wlog_errno_</text>
</a>
</g>
</g>
<!-- Node1&#45;&gt;Node2 -->
<g id="edge1_Node000001_Node000002" class="edge">
<title>Node1&#45;&gt;Node2</title>
<g id="a_edge1_Node000001_Node000002"><a xlink:title=" ">
<path fill="none" stroke="#63b8ff" d="M96.08,-9.5C104.49,-9.5 113.24,-9.5 121.65,-9.5"/>
<polygon fill="#63b8ff" stroke="#63b8ff" points="121.69,-13 131.69,-9.5 121.69,-6 121.69,-13"/>
</a>
</g>
</g>
<!-- Node3 -->
<g id="Node000003" class="node">
<title>Node3</title>
<g id="a_Node000003"><a xlink:href="weights_8c.html#a684245f67e867bda9a255505a8e5f68b" target="_top" xlink:title="Return non&#45;zero if the requested logging level is enabled.">
<polygon fill="white" stroke="#666666" points="378,-19 244,-19 244,0 378,0 378,-19"/>
<text text-anchor="middle" x="311" y="-7" font-family="Helvetica,sans-Serif" font-size="10.00">ie_weights_log_enabled</text>
</a>
</g>
</g>
<!-- Node2&#45;&gt;Node3 -->
<g id="edge2_Node000002_Node000003" class="edge">
<title>Node2&#45;&gt;Node3</title>
<g id="a_edge2_Node000002_Node000003"><a xlink:title=" ">
<path fill="none" stroke="#63b8ff" d="M208.25,-9.5C216.25,-9.5 224.99,-9.5 233.88,-9.5"/>
<polygon fill="#63b8ff" stroke="#63b8ff" points="233.94,-13 243.94,-9.5 233.94,-6 233.94,-13"/>
</a>
</g>
</g>
<!-- Node4 -->
<g id="Node000004" class="node">
<title>Node4</title>
<g id="a_Node000004"><a xlink:href="weights_8c.html#a42060a9aacf63543286684615cfc36fe" target="_top" xlink:title="Read IE_LOG_LEVEL once and cache it for the process lifetime.">
<polygon fill="white" stroke="#666666" points="533,-19 414,-19 414,0 533,0 533,-19"/>
<text text-anchor="middle" x="473.5" y="-7" font-family="Helvetica,sans-Serif" font-size="10.00">ie_weights_log_level</text>
</a>
</g>
</g>
<!-- Node3&#45;&gt;Node4 -->
<g id="edge3_Node000003_Node000004" class="edge">
<title>Node3&#45;&gt;Node4</title>
<g id="a_edge3_Node000003_Node000004"><a xlink:title=" ">
<path fill="none" stroke="#63b8ff" d="M378.21,-9.5C386.62,-9.5 395.24,-9.5 403.69,-9.5"/>
<polygon fill="#63b8ff" stroke="#63b8ff" points="403.89,-13 413.89,-9.5 403.89,-6 403.89,-13"/>
</a>
</g>
</g>
</g>
</svg>
