<?xml version="1.0" encoding="UTF-8" standalone="no"?>
<!DOCTYPE svg PUBLIC "-//W3C//DTD SVG 1.1//EN"
 "http://www.w3.org/Graphics/SVG/1.1/DTD/svg11.dtd">
<!-- Generated by graphviz version 2.43.0 (0)
 -->
<!-- Title: engine/include/weights_dedup.h Pages: 1 -->
<svg width="153pt" height="148pt"
 viewBox="0.00 0.00 152.50 148.00" xmlns="http://www.w3.org/2000/svg" xmlns:xlink="http://www.w3.org/1999/xlink">

<svg id="main" version="1.1" xmlns="http://www.w3.org/2000/svg" xmlns:xlink="http://www.w3.org/1999/xlink" xml:space="preserve" onload="init(evt)">
<style type="text/css"><![CDATA[
.node, .edge {opacity: 0.7;}
.node.selected, .edge.selected {opacity: 1;}
.edge:hover path { stroke: red; }
.edge:hover polygon { stroke: red; fill: red; }
]]></style>
<script type="application/ecmascript" xlink:href="svg.min.js"/>
<svg id="graph" class="graph">
<g id="graph0" class="graph" transform="scale(1 1) rotate(0) translate(4 144)">
<title>engine/include/weights_dedup.h</title>
<!-- Node1 -->
<g id="Node000001" class="node">
<title>Node1</title>
<g id="a_Node000001"><a xlink:title="Public API for the lossless deduplicated weights loader.">
<polygon fill="#999999" stroke="#666666" points="129.5,-140 0.5,-140 0.5,-110 129.5,-110 129.5,-140"/>
<text text-anchor="start" x="8.5" y="-128" font-family="Helvetica,sans-Serif" font-size="10.00">engine/include/weights</text>
<text text-anchor="middle" x="65" y="-117" font-family="Helvetica,sans-Serif" font-size="10.00">_dedup.h</text>
</a>
</g>
</g>
<!-- Node2 -->
<g id="Node000002" class="node">
<title>Node2</title>
<g id="a_Node000002"><a xlink:title=" ">
<polygon fill="#e0e0e0" stroke="#999999" points="56,-19 0,-19 0,0 56,0 56,-19"/>
<text text-anchor="middle" x="28" y="-7" font-family="Helvetica,sans-Serif" font-size="10.00">stddef.h</text>
</a>
</g>
</g>
<!-- Node1&#45;&gt;Node2 -->
<g id="edge1_Node000001_Node000002" class="edge">
<title>Node1&#45;&gt;Node2</title>
<g id="a_edge1_Node000001_Node000002"><a xlink:title=" ">
<path fill="none" stroke="#63b8ff" d="M44.11,-109.97C32.9,-101.13 20.15,-88.63 14,-74 7.79,-59.22 12.78,-41.29 18.45,-28.26"/>
<polygon fill="#63b8ff" stroke="#63b8ff" points="21.73,-29.54 22.95,-19.01 15.43,-26.48 21.73,-29.54"/>
</a>
</g>
</g>
<!-- Node3 -->
<g id="Node000003" class="node">
<title>Node3</title>
<g id="a_Node000003"><a xlink:title=" ">
<polygon fill="#e0e0e0" stroke="#999999" points="144.5,-19 91.5,-19 91.5,0 144.5,0 144.5,-19"/>
<text text-anchor="middle" x="118" y="-7" font-family="Helvetica,sans-Serif" font-size="10.00">stdint.h</text>
</a>
</g>
</g>
<!-- Node1&#45;&gt;Node3 -->
<g id="edge2_Node000001_Node000003" class="edge">
<title>Node1&#45;&gt;Node3</title>
<g id="a_edge2_Node000001_Node000003"><a xlink:title=" ">
<path fill="none" stroke="#63b8ff" d="M85.72,-109.9C96.87,-101.03 109.62,-88.53 116,-74 122.17,-59.94 122.22,-42.39 120.98,-29.31"/>
<polygon fill="#63b8ff" stroke="#63b8ff" points="124.42,-28.63 119.68,-19.16 117.48,-29.52 124.42,-28.63"/>
</a>
</g>
</g>
<!-- Node4 -->
<g id="Node000004" class="node">
<title>Node4</title>
<g id="a_Node000004"><a xlink:href="dedup__spec_8h.html" target="_top" xlink:title="Types that describe the on&#45;disk lossless deduplicated weights layout.">
<polygon fill="white" stroke="#666666" points="106.5,-74 23.5,-74 23.5,-55 106.5,-55 106.5,-74"/>
<text text-anchor="middle" x="65" y="-62" font-family="Helvetica,sans-Serif" font-size="10.00">dedup_spec.h</text>
</a>
</g>
</g>
<!-- Node1&#45;&gt;Node4 -->
<g id="edge3_Node000001_Node000004" class="edge">
<title>Node1&#45;&gt;Node4</title>
<g id="a_edge3_Node000001_Node000004"><a xlink:title=" ">
<path fill="none" stroke="#63b8ff" d="M65,-109.84C65,-102.21 65,-92.7 65,-84.45"/>
<polygon fill="#63b8ff" stroke="#63b8ff" points="68.5,-84.27 65,-74.27 61.5,-84.27 68.5,-84.27"/>
</a>
</g>
</g>
<!-- Node4&#45;&gt;Node2 -->
<g id="edge4_Node000004_Node000002" class="edge">
<title>Node4&#45;&gt;Node2</title>
<g id="a_edge4_Node000004_Node000002"><a xlink:title=" ">
<path fill="none" stroke="#63b8ff" d="M58.89,-54.75C53.72,-47.34 46.15,-36.5 39.81,-27.41"/>
<polygon fill="#63b8ff" stroke="#63b8ff" points="42.59,-25.29 34,-19.09 36.85,-29.29 42.59,-25.29"/>
</a>
</g>
</g>
<!-- Node4&#45;&gt;Node3 -->
<g id="edge5_Node000004_Node000003" class="edge">
<title>Node4&#45;&gt;Node3</title>
<g id="a_edge5_Node000004_Node000003"><a xlink:title=" ">
<path fill="none" stroke="#63b8ff" d="M73.75,-54.75C81.47,-47.03 92.9,-35.6 102.22,-26.28"/>
<polygon fill="#63b8ff" stroke="#63b8ff" points="104.81,-28.64 109.41,-19.09 99.86,-23.69 104.81,-28.64"/>
</a>
</g>
</g>
</g>
</svg>
</svg>

<style type='text/css'>
<![CDATA[
[data-mouse-over-selected='false'] { opacity: 0.7; }
[data-mouse-over-selected='true']  { opacity: 1.0; }
]]>
</style>
<script type="application/ecmascript"><![CDATA[
document.addEventListener('DOMContentLoaded', (event) => {
  highlightEdges();
  highlightAdjacentNodes();
});
]]></script>
</svg>
