<?xml version="1.0" encoding="UTF-8" standalone="no"?>
<!DOCTYPE svg PUBLIC "-//W3C//DTD SVG 1.1//EN"
 "http://www.w3.org/Graphics/SVG/1.1/DTD/svg11.dtd">
<!-- Generated by graphviz version 2.43.0 (0)
 -->
<!-- Title: js_find_member_value Pages: 1 -->
<svg width="968pt" height="59pt"
 viewBox="0.00 0.00 968.00 59.18" xmlns="http://www.w3.org/2000/svg" xmlns:xlink="http://www.w3.org/1999/xlink">
<g id="graph0" class="graph" transform="scale(1 1) rotate(0) translate(4 55.18)">
<title>js_find_member_value</title>
<!-- Node1 -->
<g id="node1" class="node">
<title>Node1</title>
<g id="a_node1"><a xlink:title="Find a top&#45;level object member by key and return cursor at its value.">
<polygon fill="#bfbfbf" stroke="black" points="833,-19.5 833,-38.5 960,-38.5 960,-19.5 833,-19.5"/>
<text text-anchor="middle" x="896.5" y="-26.5" font-family="Helvetica,sans-Serif" font-size="10.00">js_find_member_value</text>
</a>
</g>
</g>
<!-- Node2 -->
<g id="node2" class="node">
<title>Node2</title>
<g id="a_node2"><a xlink:href="weights__dedup_8c.html#ac8435c15b639ac76b805cc23f609be12" target="_top" xlink:title="Parse one tensor object within the &quot;tensors&quot; array.">
<polygon fill="none" stroke="black" points="547,-19.5 547,-38.5 664,-38.5 664,-19.5 547,-19.5"/>
<text text-anchor="middle" x="605.5" y="-26.5" font-family="Helvetica,sans-Serif" font-size="10.00">ie_parse_one_tensor</text>
</a>
</g>
</g>
<!-- Node1&#45;&gt;Node2 -->
<g id="edge1" class="edge">
<title>Node1&#45;&gt;Node2</title>
<path fill="none" stroke="midnightblue" d="M845.59,-40.54C830.11,-43.6 812.93,-46.48 797,-48 754.08,-52.1 742.89,-52.31 700,-48 681.54,-46.14 661.34,-42.27 644.45,-38.51"/>
<polygon fill="midnightblue" stroke="midnightblue" points="846.4,-43.95 855.5,-38.51 845,-37.09 846.4,-43.95"/>
</g>
<!-- Node4 -->
<g id="node4" class="node">
<title>Node4</title>
<g id="a_node4"><a xlink:href="weights__dedup_8h.html#aa625b41ce2a24826f8cb464661ace8ec" target="_top" xlink:title="Open a deduplicated model directory.">
<polygon fill="none" stroke="black" points="211,-0.5 211,-19.5 345,-19.5 345,-0.5 211,-0.5"/>
<text text-anchor="middle" x="278" y="-7.5" font-family="Helvetica,sans-Serif" font-size="10.00">ie_weights_dedup_open</text>
</a>
</g>
</g>
<!-- Node1&#45;&gt;Node4 -->
<g id="edge6" class="edge">
<title>Node1&#45;&gt;Node4</title>
<path fill="none" stroke="midnightblue" d="M845.59,-17.46C830.11,-14.4 812.93,-11.52 797,-10 635.19,5.46 443.64,-0.91 345.02,-5.99"/>
<polygon fill="midnightblue" stroke="midnightblue" points="845,-20.91 855.5,-19.49 846.4,-14.05 845,-20.91"/>
</g>
<!-- Node7 -->
<g id="node7" class="node">
<title>Node7</title>
<g id="a_node7"><a xlink:href="weights__dedup_8c.html#ac65e64ed76368c21cf76399a4eed1b90" target="_top" xlink:title="Parse a blob ref object: {&quot;file&quot;:&quot;defaults&quot;,&quot;offset&quot;:N,&quot;nbytes&quot;:M}.">
<polygon fill="none" stroke="black" points="700,-19.5 700,-38.5 797,-38.5 797,-19.5 700,-19.5"/>
<text text-anchor="middle" x="748.5" y="-26.5" font-family="Helvetica,sans-Serif" font-size="10.00">js_parse_blobref</text>
</a>
</g>
</g>
<!-- Node1&#45;&gt;Node7 -->
<g id="edge7" class="edge">
<title>Node1&#45;&gt;Node7</title>
<path fill="none" stroke="midnightblue" d="M822.63,-29C814,-29 805.37,-29 797.22,-29"/>
<polygon fill="midnightblue" stroke="midnightblue" points="822.74,-32.5 832.74,-29 822.74,-25.5 822.74,-32.5"/>
</g>
<!-- Node3 -->
<g id="node3" class="node">
<title>Node3</title>
<g id="a_node3"><a xlink:href="weights__dedup_8c.html#a1eaf38d57abdd040f9c40e2e3ea1525c" target="_top" xlink:title="Parse the &quot;tensors&quot; array into an allocated table.">
<polygon fill="none" stroke="black" points="381,-19.5 381,-38.5 511,-38.5 511,-19.5 381,-19.5"/>
<text text-anchor="middle" x="446" y="-26.5" font-family="Helvetica,sans-Serif" font-size="10.00">ie_parse_tensors_array</text>
</a>
</g>
</g>
<!-- Node2&#45;&gt;Node3 -->
<g id="edge2" class="edge">
<title>Node2&#45;&gt;Node3</title>
<path fill="none" stroke="midnightblue" d="M536.56,-29C528.12,-29 519.51,-29 511.13,-29"/>
<polygon fill="midnightblue" stroke="midnightblue" points="536.75,-32.5 546.75,-29 536.75,-25.5 536.75,-32.5"/>
</g>
<!-- Node3&#45;&gt;Node4 -->
<g id="edge3" class="edge">
<title>Node3&#45;&gt;Node4</title>
<path fill="none" stroke="midnightblue" d="M370.86,-20.51C362.31,-19.54 353.64,-18.54 345.2,-17.58"/>
<polygon fill="midnightblue" stroke="midnightblue" points="370.49,-23.99 380.82,-21.65 371.28,-17.04 370.49,-23.99"/>
</g>
<!-- Node5 -->
<g id="node5" class="node">
<title>Node5</title>
<g id="a_node5"><a xlink:href="group__ie__io__weights.html#ga522dac028ee37aae1307ffdb6d65ec1d" target="_top" xlink:title="Open and parse IEBIN v1 metadata and resolve the weights path.">
<polygon fill="none" stroke="black" points="77,-0.5 77,-19.5 175,-19.5 175,-0.5 77,-0.5"/>
<text text-anchor="middle" x="126" y="-7.5" font-family="Helvetica,sans-Serif" font-size="10.00">ie_weights_open</text>
</a>
</g>
</g>
<!-- Node4&#45;&gt;Node5 -->
<g id="edge4" class="edge">
<title>Node4&#45;&gt;Node5</title>
<path fill="none" stroke="midnightblue" d="M200.66,-10C192.04,-10 183.43,-10 175.31,-10"/>
<polygon fill="midnightblue" stroke="midnightblue" points="200.77,-13.5 210.77,-10 200.77,-6.5 200.77,-13.5"/>
</g>
<!-- Node6 -->
<g id="node6" class="node">
<title>Node6</title>
<g id="a_node6"><a xlink:href="main__infer_8c.html#a3c04138a5bfe5d72780bb7e82a18e627" target="_top" xlink:title="Program entry point.">
<polygon fill="none" stroke="black" points="0,-0.5 0,-19.5 41,-19.5 41,-0.5 0,-0.5"/>
<text text-anchor="middle" x="20.5" y="-7.5" font-family="Helvetica,sans-Serif" font-size="10.00">main</text>
</a>
</g>
</g>
<!-- Node5&#45;&gt;Node6 -->
<g id="edge5" class="edge">
<title>Node5&#45;&gt;Node6</title>
<path fill="none" stroke="midnightblue" d="M66.79,-10C57.53,-10 48.55,-10 41.06,-10"/>
<polygon fill="midnightblue" stroke="midnightblue" points="66.89,-13.5 76.89,-10 66.89,-6.5 66.89,-13.5"/>
</g>
<!-- Node7&#45;&gt;Node2 -->
<g id="edge8" class="edge">
<title>Node7&#45;&gt;Node2</title>
<path fill="none" stroke="midnightblue" d="M689.74,-29C681.39,-29 672.8,-29 664.45,-29"/>
<polygon fill="midnightblue" stroke="midnightblue" points="689.76,-32.5 699.76,-29 689.76,-25.5 689.76,-32.5"/>
</g>
</g>
</svg>
