<?xml version="1.0" encoding="UTF-8" standalone="no"?>
<!DOCTYPE svg PUBLIC "-//W3C//DTD SVG 1.1//EN"
 "http://www.w3.org/Graphics/SVG/1.1/DTD/svg11.dtd">
<!-- Generated by graphviz version 2.43.0 (0)
 -->
<!-- Title: ie_parse_one_tensor Pages: 1 -->
<!--zoomable 666 -->

<svg id="main" version="1.1" xmlns="http://www.w3.org/2000/svg" xmlns:xlink="http://www.w3.org/1999/xlink" xml:space="preserve" onload="init(evt)">
<style type="text/css"><![CDATA[
.node, .edge {opacity: 0.7;}
.node.selected, .edge.selected {opacity: 1;}
.edge:hover path { stroke: red; }
.edge:hover polygon { stroke: red; fill: red; }
]]></style>

<defs>
  <circle id="rim" cx="0" cy="0" r="7"/>
  <circle id="rim2" cx="0" cy="0" r="3.5"/>
  <g id="zoomPlus">
    <use xlink:href="#rim" fill="#404040"><set attributeName="fill" to="#808080" begin="zoomplus.mouseover" end="zoomplus.mouseout"/></use>
    <path d="M-4,0h8M0,-4v8" fill="none" stroke="white" stroke-width="1.5" pointer-events="none"/>
  </g>
  <g id="zoomMin">
    <use xlink:href="#rim" fill="#404040"><set attributeName="fill" to="#808080" begin="zoomminus.mouseover" end="zoomminus.mouseout"/></use>
    <path d="M-4,0h8" fill="none" stroke="white" stroke-width="1.5" pointer-events="none"/>
  </g>
  <g id="arrowUp" transform="translate(30 24)">
    <use xlink:href="#rim"/>
    <path pointer-events="none" fill="none" stroke="white" stroke-width="1.5" d="M0,-3.0v7 M-2.5,-0.5L0,-3.0L2.5,-0.5"/>
  </g>
  <g id="arrowRight" transform="rotate(90) translate(36 -43)">
    <use xlink:href="#rim"/>
    <path pointer-events="none" fill="none" stroke="white" stroke-width="1.5" d="M0,-3.0v7 M-2.5,-0.5L0,-3.0L2.5,-0.5"/>
  </g>
  <g id="arrowDown" transform="rotate(180) translate(-30 -48)">
    <use xlink:href="#rim"/>
    <path pointer-events="none" fill="none" stroke="white" stroke-width="1.5" d="M0,-3.0v7 M-2.5,-0.5L0,-3.0L2.5,-0.5"/>
  </g>
  <g id="arrowLeft" transform="rotate(270) translate(-36 17)">
    <use xlink:href="#rim"/>
    <path pointer-events="none" fill="none" stroke="white" stroke-width="1.5" d="M0,-3.0v7 M-2.5,-0.5L0,-3.0L2.5,-0.5"/>
  </g>
  <g id="resetDef">
    <use xlink:href="#rim2" fill="#404040"><set attributeName="fill" to="#808080" begin="reset.mouseover" end="reset.mouseout"/></use>
  </g>
</defs>
<script type="application/ecmascript">
var viewWidth = 942;
var viewHeight = 666;
var sectionId = 'dynsection-19';
</script>
<script type="application/ecmascript" xlink:href="svg.min.js"/>
<svg id="graph" class="graph">
<g id="viewport">
<title>ie_parse_one_tensor</title>
<!-- Node1 -->
<g id="Node000001" class="node">
<title>Node1</title>
<g id="a_Node000001"><a xlink:title=" ">
<polygon fill="#999999" stroke="#666666" points="117,-478.71 0,-478.71 0,-459.71 117,-459.71 117,-478.71"/>
<text text-anchor="middle" x="58.5" y="-466.71" font-family="Helvetica,sans-Serif" font-size="10.00">ie_parse_one_tensor</text>
</a>
</g>
</g>
<!-- Node2 -->
<g id="Node000002" class="node">
<title>Node2</title>
<g id="a_Node000002"><a xlink:href="weights__dedup_8c.html#a769c13c3bd5730384bfe064bc1618b11" target="_top" xlink:title=" ">
<polygon fill="white" stroke="#666666" points="278,-657.71 165,-657.71 165,-638.71 278,-638.71 278,-657.71"/>
<text text-anchor="middle" x="221.5" y="-645.71" font-family="Helvetica,sans-Serif" font-size="10.00">ie_dtype_elem_size</text>
</a>
</g>
</g>
<!-- Node1&#45;&gt;Node2 -->
<g id="edge1_Node000001_Node000002" class="edge">
<title>Node1&#45;&gt;Node2</title>
<g id="a_edge1_Node000001_Node000002"><a xlink:title=" ">
<path fill="none" stroke="#63b8ff" d="M62.25,-478.94C70.7,-507.05 99.07,-588.99 153,-630.21 154.8,-631.58 156.7,-632.86 158.67,-634.03"/>
<polygon fill="#63b8ff" stroke="#63b8ff" points="157.2,-637.21 167.7,-638.58 160.35,-630.96 157.2,-637.21"/>
</a>
</g>
</g>
<!-- Node3 -->
<g id="Node000003" class="node">
<title>Node3</title>
<g id="a_Node000003"><a xlink:href="weights__dedup_8c.html#abf09bf44922c5b2ad9b0d7cd5cb02fcb" target="_top" xlink:title=" ">
<polygon fill="white" stroke="#666666" points="272,-620.71 171,-620.71 171,-601.71 272,-601.71 272,-620.71"/>
<text text-anchor="middle" x="221.5" y="-608.71" font-family="Helvetica,sans-Serif" font-size="10.00">ie_find_file_index</text>
</a>
</g>
</g>
<!-- Node1&#45;&gt;Node3 -->
<g id="edge2_Node000001_Node000003" class="edge">
<title>Node1&#45;&gt;Node3</title>
<g id="a_edge2_Node000001_Node000003"><a xlink:title=" ">
<path fill="none" stroke="#63b8ff" d="M64.03,-479.02C75.41,-502.58 107.6,-562.64 153,-593.21 155.72,-595.04 158.61,-596.68 161.61,-598.16"/>
<polygon fill="#63b8ff" stroke="#63b8ff" points="160.32,-601.41 170.89,-602.11 163.06,-594.97 160.32,-601.41"/>
</a>
</g>
</g>
<!-- Node4 -->
<g id="Node000004" class="node">
<title>Node4</title>
<g id="a_Node000004"><a xlink:href="weights__dedup_8c.html#a4cce94dd277bd5e194b03d519205c2b4" target="_top" xlink:title=" ">
<polygon fill="white" stroke="#666666" points="282.5,-583.71 160.5,-583.71 160.5,-564.71 282.5,-564.71 282.5,-583.71"/>
<text text-anchor="middle" x="221.5" y="-571.71" font-family="Helvetica,sans-Serif" font-size="10.00">ie_shape_elem_count</text>
</a>
</g>
</g>
<!-- Node1&#45;&gt;Node4 -->
<g id="edge3_Node000001_Node000004" class="edge">
<title>Node1&#45;&gt;Node4</title>
<g id="a_edge3_Node000001_Node000004"><a xlink:title=" ">
<path fill="none" stroke="#63b8ff" d="M67.18,-478.78C81.92,-496.51 116.02,-534.57 153,-555.21 156.99,-557.44 161.27,-559.42 165.66,-561.18"/>
<polygon fill="#63b8ff" stroke="#63b8ff" points="164.79,-564.59 175.38,-564.7 167.17,-558.01 164.79,-564.59"/>
</a>
</g>
</g>
<!-- Node5 -->
<g id="Node000005" class="node">
<title>Node5</title>
<g id="a_Node000005"><a xlink:href="weights__dedup_8c.html#ad0ae06a184c7f1407994167e82afedb7" target="_top" xlink:title=" ">
<polygon fill="white" stroke="#666666" points="290,-546.21 153,-546.21 153,-516.21 290,-516.21 290,-546.21"/>
<text text-anchor="start" x="161" y="-534.21" font-family="Helvetica,sans-Serif" font-size="10.00">ie_weights_dedup_parse</text>
<text text-anchor="middle" x="221.5" y="-523.21" font-family="Helvetica,sans-Serif" font-size="10.00">_dtype</text>
</a>
</g>
</g>
<!-- Node1&#45;&gt;Node5 -->
<g id="edge4_Node000001_Node000005" class="edge">
<title>Node1&#45;&gt;Node5</title>
<g id="a_edge4_Node000001_Node000005"><a xlink:title=" ">
<path fill="none" stroke="#63b8ff" d="M84.3,-478.76C107.52,-487.7 142.87,-501.31 171.73,-512.43"/>
<polygon fill="#63b8ff" stroke="#63b8ff" points="170.66,-515.76 181.25,-516.09 173.17,-509.23 170.66,-515.76"/>
</a>
</g>
</g>
<!-- Node6 -->
<g id="Node000006" class="node">
<title>Node6</title>
<g id="a_Node000006"><a xlink:href="weights__dedup_8c.html#ae0494f541a190a9ecf82c11c5eb22952" target="_top" xlink:title=" ">
<polygon fill="white" stroke="#666666" points="453,-383.71 326,-383.71 326,-364.71 453,-364.71 453,-383.71"/>
<text text-anchor="middle" x="389.5" y="-371.71" font-family="Helvetica,sans-Serif" font-size="10.00">js_find_member_value</text>
</a>
</g>
</g>
<!-- Node1&#45;&gt;Node6 -->
<g id="edge5_Node000001_Node000006" class="edge">
<title>Node1&#45;&gt;Node6</title>
<g id="a_edge5_Node000001_Node000006"><a xlink:title=" ">
<path fill="none" stroke="#63b8ff" d="M84.71,-459.68C103.42,-452.76 129.64,-443.39 153,-436.21 216.38,-416.71 290.5,-397.83 338.4,-386.13"/>
<polygon fill="#63b8ff" stroke="#63b8ff" points="339.33,-389.51 348.22,-383.75 337.67,-382.71 339.33,-389.51"/>
</a>
</g>
</g>
<!-- Node7 -->
<g id="Node000007" class="node">
<title>Node7</title>
<g id="a_Node000007"><a xlink:href="weights__dedup_8c.html#a7e3b6f5b10e0d8d68272d2e80523813b" target="_top" xlink:title=" ">
<polygon fill="white" stroke="#666666" points="829,-326.71 739,-326.71 739,-307.71 829,-307.71 829,-326.71"/>
<text text-anchor="middle" x="784" y="-314.71" font-family="Helvetica,sans-Serif" font-size="10.00">js_parse_string</text>
</a>
</g>
</g>
<!-- Node1&#45;&gt;Node7 -->
<g id="edge31_Node000001_Node000007" class="edge">
<title>Node1&#45;&gt;Node7</title>
<g id="a_edge31_Node000001_Node000007"><a xlink:title=" ">
<path fill="none" stroke="#63b8ff" d="M117.24,-469.08C232.65,-467 498.34,-452.99 703,-372.21 726.28,-363.02 749.47,-345.98 764.84,-333.3"/>
<polygon fill="#63b8ff" stroke="#63b8ff" points="767.17,-335.91 772.53,-326.77 762.64,-330.58 767.17,-335.91"/>
</a>
</g>
</g>
<!-- Node8 -->
<g id="Node000008" class="node">
<title>Node8</title>
<g id="a_Node000008"><a xlink:href="weights__dedup_8c.html#a21501177295cc06eaf7d981f7d437c0c" target="_top" xlink:title=" ">
<polygon fill="white" stroke="#666666" points="934,-195.71 865,-195.71 865,-176.71 934,-176.71 934,-195.71"/>
<text text-anchor="middle" x="899.5" y="-183.71" font-family="Helvetica,sans-Serif" font-size="10.00">js_skip_ws</text>
</a>
</g>
</g>
<!-- Node1&#45;&gt;Node8 -->
<g id="edge33_Node000001_Node000008" class="edge">
<title>Node1&#45;&gt;Node8</title>
<g id="a_edge33_Node000001_Node000008"><a xlink:title=" ">
<path fill="none" stroke="#63b8ff" d="M117.09,-474.55C182.72,-480.17 293.24,-488.21 388.5,-488.21 388.5,-488.21 388.5,-488.21 661,-488.21 751.48,-488.21 773.29,-444.51 829,-373.21 869.79,-321 888.43,-242.4 895.24,-206"/>
<polygon fill="#63b8ff" stroke="#63b8ff" points="898.76,-206.21 897.05,-195.75 891.87,-204.99 898.76,-206.21"/>
</a>
</g>
</g>
<!-- Node13 -->
<g id="Node000013" class="node">
<title>Node13</title>
<g id="a_Node000013"><a xlink:href="weights__dedup_8c.html#ae1e5c9a54a8c0312241d17afd01c40a0" target="_top" xlink:title=" ">
<polygon fill="white" stroke="#666666" points="703,-156.71 617,-156.71 617,-137.71 703,-137.71 703,-156.71"/>
<text text-anchor="middle" x="660" y="-144.71" font-family="Helvetica,sans-Serif" font-size="10.00">js_skip_object</text>
</a>
</g>
</g>
<!-- Node1&#45;&gt;Node13 -->
<g id="edge32_Node000001_Node000013" class="edge">
<title>Node1&#45;&gt;Node13</title>
<g id="a_edge32_Node000001_Node000013"><a xlink:title=" ">
<path fill="none" stroke="#63b8ff" d="M60.4,-459.66C64.25,-424.65 82.43,-302.19 153,-241.21 283.76,-128.22 505.75,-132.3 606.49,-141.05"/>
<polygon fill="#63b8ff" stroke="#63b8ff" points="606.44,-144.56 616.72,-142 607.08,-137.59 606.44,-144.56"/>
</a>
</g>
</g>
<!-- Node14 -->
<g id="Node000014" class="node">
<title>Node14</title>
<g id="a_Node000014"><a xlink:href="weights__dedup_8c.html#ac65e64ed76368c21cf76399a4eed1b90" target="_top" xlink:title=" ">
<polygon fill="white" stroke="#666666" points="270,-269.71 173,-269.71 173,-250.71 270,-250.71 270,-269.71"/>
<text text-anchor="middle" x="221.5" y="-257.71" font-family="Helvetica,sans-Serif" font-size="10.00">js_parse_blobref</text>
</a>
</g>
</g>
<!-- Node1&#45;&gt;Node14 -->
<g id="edge22_Node000001_Node000014" class="edge">
<title>Node1&#45;&gt;Node14</title>
<g id="a_edge22_Node000001_Node000014"><a xlink:title=" ">
<path fill="none" stroke="#63b8ff" d="M66.84,-459.68C91.88,-427.18 174.22,-320.28 206.93,-277.82"/>
<polygon fill="#63b8ff" stroke="#63b8ff" points="209.79,-279.84 213.12,-269.79 204.25,-275.57 209.79,-279.84"/>
</a>
</g>
</g>
<!-- Node15 -->
<g id="Node000015" class="node">
<title>Node15</title>
<g id="a_Node000015"><a xlink:href="weights__dedup_8c.html#a176ff7ed51749363637a7ad5366cf4e9" target="_top" xlink:title=" ">
<polygon fill="white" stroke="#666666" points="581,-41.71 489,-41.71 489,-22.71 581,-22.71 581,-41.71"/>
<text text-anchor="middle" x="535" y="-29.71" font-family="Helvetica,sans-Serif" font-size="10.00">js_parse_shape</text>
</a>
</g>
</g>
<!-- Node1&#45;&gt;Node15 -->
<g id="edge28_Node000001_Node000015" class="edge">
<title>Node1&#45;&gt;Node15</title>
<g id="a_edge28_Node000001_Node000015"><a xlink:title=" ">
<path fill="none" stroke="#63b8ff" d="M60.18,-459.37C64.35,-401.97 88.5,-111.15 153,-56.21 249.33,25.85 413.9,-1.14 491.34,-20.17"/>
<polygon fill="#63b8ff" stroke="#63b8ff" points="490.67,-23.61 501.23,-22.67 492.39,-16.82 490.67,-23.61"/>
</a>
</g>
</g>
<!-- Node6&#45;&gt;Node7 -->
<g id="edge6_Node000006_Node000007" class="edge">
<title>Node6&#45;&gt;Node7</title>
<g id="a_edge6_Node000006_Node000007"><a xlink:title=" ">
<path fill="none" stroke="#63b8ff" d="M453.05,-375.13C516.78,-374.75 618.05,-370.45 703,-350.21 720.98,-345.92 740.16,-338.13 755.23,-331.2"/>
<polygon fill="#63b8ff" stroke="#63b8ff" points="756.95,-334.26 764.49,-326.81 753.95,-327.93 756.95,-334.26"/>
</a>
</g>
</g>
<!-- Node6&#45;&gt;Node8 -->
<g id="edge21_Node000006_Node000008" class="edge">
<title>Node6&#45;&gt;Node8</title>
<g id="a_edge21_Node000006_Node000008"><a xlink:title=" ">
<path fill="none" stroke="#63b8ff" d="M427.63,-383.73C510.64,-402.6 713.08,-434.84 829,-335.21 869.28,-300.59 887.72,-237.58 894.79,-205.74"/>
<polygon fill="#63b8ff" stroke="#63b8ff" points="898.23,-206.38 896.83,-195.88 891.38,-204.96 898.23,-206.38"/>
</a>
</g>
</g>
<!-- Node9 -->
<g id="Node000009" class="node">
<title>Node9</title>
<g id="a_Node000009"><a xlink:href="weights__dedup_8c.html#aec6b7531542a45304d1f17d108a6d2ea" target="_top" xlink:title=" ">
<polygon fill="white" stroke="#666666" points="576.5,-231.71 493.5,-231.71 493.5,-212.71 576.5,-212.71 576.5,-231.71"/>
<text text-anchor="middle" x="535" y="-219.71" font-family="Helvetica,sans-Serif" font-size="10.00">js_skip_value</text>
</a>
</g>
</g>
<!-- Node6&#45;&gt;Node9 -->
<g id="edge8_Node000006_Node000009" class="edge">
<title>Node6&#45;&gt;Node9</title>
<g id="a_edge8_Node000006_Node000009"><a xlink:title=" ">
<path fill="none" stroke="#63b8ff" d="M399.48,-364.7C423.23,-339.53 487.99,-270.94 518.15,-239"/>
<polygon fill="#63b8ff" stroke="#63b8ff" points="520.71,-241.39 525.03,-231.71 515.62,-236.58 520.71,-241.39"/>
</a>
</g>
</g>
<!-- Node7&#45;&gt;Node8 -->
<g id="edge7_Node000007_Node000008" class="edge">
<title>Node7&#45;&gt;Node8</title>
<g id="a_edge7_Node000007_Node000008"><a xlink:title=" ">
<path fill="none" stroke="#63b8ff" d="M793.53,-307.36C812.69,-285.25 859.32,-231.43 883.46,-203.56"/>
<polygon fill="#63b8ff" stroke="#63b8ff" points="886.28,-205.66 890.18,-195.81 880.99,-201.08 886.28,-205.66"/>
</a>
</g>
</g>
<!-- Node9&#45;&gt;Node7 -->
<g id="edge12_Node000009_Node000007" class="edge">
<title>Node9&#45;&gt;Node7</title>
<g id="a_edge12_Node000009_Node000007"><a xlink:title=" ">
<path fill="none" stroke="#63b8ff" d="M546.98,-231.83C561.84,-244.36 589.66,-266.07 617,-278.21 652.68,-294.05 695.64,-303.92 728.92,-309.76"/>
<polygon fill="#63b8ff" stroke="#63b8ff" points="728.48,-313.24 738.92,-311.45 729.64,-306.34 728.48,-313.24"/>
</a>
</g>
</g>
<!-- Node9&#45;&gt;Node8 -->
<g id="edge20_Node000009_Node000008" class="edge">
<title>Node9&#45;&gt;Node8</title>
<g id="a_edge20_Node000009_Node000008"><a xlink:title=" ">
<path fill="none" stroke="#63b8ff" d="M576.93,-220.73C633.73,-218.33 739.55,-212.53 829,-200.21 837.41,-199.05 846.34,-197.5 854.89,-195.85"/>
<polygon fill="#63b8ff" stroke="#63b8ff" points="855.59,-199.28 864.71,-193.89 854.22,-192.42 855.59,-199.28"/>
</a>
</g>
</g>
<!-- Node10 -->
<g id="Node000010" class="node">
<title>Node10</title>
<g id="a_Node000010"><a xlink:href="weights__dedup_8c.html#acb6d250836afa5eddeb1985efad8afa4" target="_top" xlink:title=" ">
<polygon fill="white" stroke="#666666" points="698,-269.71 622,-269.71 622,-250.71 698,-250.71 698,-269.71"/>
<text text-anchor="middle" x="660" y="-257.71" font-family="Helvetica,sans-Serif" font-size="10.00">js_match_lit</text>
</a>
</g>
</g>
<!-- Node9&#45;&gt;Node10 -->
<g id="edge9_Node000009_Node000010" class="edge">
<title>Node9&#45;&gt;Node10</title>
<g id="a_edge9_Node000009_Node000010"><a xlink:title=" ">
<path fill="none" stroke="#63b8ff" d="M567.04,-231.8C582.48,-236.57 601.35,-242.4 617.97,-247.53"/>
<polygon fill="#63b8ff" stroke="#63b8ff" points="617.38,-251.01 627.97,-250.62 619.45,-244.33 617.38,-251.01"/>
</a>
</g>
</g>
<!-- Node11 -->
<g id="Node000011" class="node">
<title>Node11</title>
<g id="a_Node000011"><a xlink:href="weights__dedup_8c.html#a080768f8631e237e2467fc47a7d4d6a0" target="_top" xlink:title=" ">
<polygon fill="white" stroke="#666666" points="698.5,-119.71 621.5,-119.71 621.5,-100.71 698.5,-100.71 698.5,-119.71"/>
<text text-anchor="middle" x="660" y="-107.71" font-family="Helvetica,sans-Serif" font-size="10.00">js_parse_i64</text>
</a>
</g>
</g>
<!-- Node9&#45;&gt;Node11 -->
<g id="edge10_Node000009_Node000011" class="edge">
<title>Node9&#45;&gt;Node11</title>
<g id="a_edge10_Node000009_Node000011"><a xlink:title=" ">
<path fill="none" stroke="#63b8ff" d="M542.02,-212.68C554.15,-194.15 583.29,-152.9 617,-128.21 618.82,-126.87 620.75,-125.62 622.75,-124.43"/>
<polygon fill="#63b8ff" stroke="#63b8ff" points="624.55,-127.44 631.8,-119.71 621.31,-121.23 624.55,-127.44"/>
</a>
</g>
</g>
<!-- Node12 -->
<g id="Node000012" class="node">
<title>Node12</title>
<g id="a_Node000012"><a xlink:href="weights__dedup_8c.html#aeb7fa9bc2ccc7b24ae16f647bcafb49b" target="_top" xlink:title=" ">
<polygon fill="white" stroke="#666666" points="700.5,-193.71 619.5,-193.71 619.5,-174.71 700.5,-174.71 700.5,-193.71"/>
<text text-anchor="middle" x="660" y="-181.71" font-family="Helvetica,sans-Serif" font-size="10.00">js_skip_array</text>
</a>
</g>
</g>
<!-- Node9&#45;&gt;Node12 -->
<g id="edge13_Node000009_Node000012" class="edge">
<title>Node9&#45;&gt;Node12</title>
<g id="a_edge13_Node000009_Node000012"><a xlink:title=" ">
<path fill="none" stroke="#63b8ff" d="M551.83,-212.62C566.5,-206.38 589.13,-198.75 609.81,-192.77"/>
<polygon fill="#63b8ff" stroke="#63b8ff" points="610.77,-196.14 619.46,-190.07 608.88,-189.4 610.77,-196.14"/>
</a>
</g>
</g>
<!-- Node9&#45;&gt;Node13 -->
<g id="edge16_Node000009_Node000013" class="edge">
<title>Node9&#45;&gt;Node13</title>
<g id="a_edge16_Node000009_Node000013"><a xlink:title=" ">
<path fill="none" stroke="#63b8ff" d="M543.66,-212.48C552.9,-205.63 568.71,-197.9 581,-189.21 595.42,-179 598.14,-171.35 608.48,-162.51"/>
<polygon fill="#63b8ff" stroke="#63b8ff" points="610.64,-165.26 616.58,-156.48 606.46,-159.64 610.64,-165.26"/>
</a>
</g>
</g>
<!-- Node11&#45;&gt;Node8 -->
<g id="edge11_Node000011_Node000008" class="edge">
<title>Node11&#45;&gt;Node8</title>
<g id="a_edge11_Node000011_Node000008"><a xlink:title=" ">
<path fill="none" stroke="#63b8ff" d="M698.77,-119.36C733.09,-128.01 784.94,-141.92 829,-157.21 842.06,-161.74 856.19,-167.48 868.27,-172.65"/>
<polygon fill="#63b8ff" stroke="#63b8ff" points="866.9,-175.87 877.47,-176.64 869.69,-169.45 866.9,-175.87"/>
</a>
</g>
</g>
<!-- Node12&#45;&gt;Node8 -->
<g id="edge15_Node000012_Node000008" class="edge">
<title>Node12&#45;&gt;Node8</title>
<g id="a_edge15_Node000012_Node000008"><a xlink:title=" ">
<path fill="none" stroke="#63b8ff" d="M700.75,-184.54C743.3,-184.9 810.6,-185.47 854.65,-185.84"/>
<polygon fill="#63b8ff" stroke="#63b8ff" points="854.75,-189.34 864.78,-185.92 854.81,-182.34 854.75,-189.34"/>
</a>
</g>
</g>
<!-- Node12&#45;&gt;Node9 -->
<g id="edge14_Node000012_Node000009" class="edge">
<title>Node12&#45;&gt;Node9</title>
<g id="a_edge14_Node000012_Node000009"><a xlink:title=" ">
<path fill="none" stroke="#63b8ff" d="M643.31,-193.74C628.94,-199.86 606.86,-207.33 586.46,-213.27"/>
<polygon fill="#63b8ff" stroke="#63b8ff" points="585.29,-209.96 576.62,-216.05 587.19,-216.7 585.29,-209.96"/>
</a>
</g>
</g>
<!-- Node13&#45;&gt;Node7 -->
<g id="edge17_Node000013_Node000007" class="edge">
<title>Node13&#45;&gt;Node7</title>
<g id="a_edge17_Node000013_Node000007"><a xlink:title=" ">
<path fill="none" stroke="#63b8ff" d="M690.58,-156.8C695.06,-159.09 699.39,-161.87 703,-165.21 743.76,-202.85 767.53,-266.07 777.48,-297.8"/>
<polygon fill="#63b8ff" stroke="#63b8ff" points="774.2,-299.05 780.42,-307.62 780.9,-297.03 774.2,-299.05"/>
</a>
</g>
</g>
<!-- Node13&#45;&gt;Node8 -->
<g id="edge19_Node000013_Node000008" class="edge">
<title>Node13&#45;&gt;Node8</title>
<g id="a_edge19_Node000013_Node000008"><a xlink:title=" ">
<path fill="none" stroke="#63b8ff" d="M703.19,-154.13C745.88,-161.15 811.6,-171.94 854.83,-179.04"/>
<polygon fill="#63b8ff" stroke="#63b8ff" points="854.33,-182.5 864.76,-180.67 855.46,-175.59 854.33,-182.5"/>
</a>
</g>
</g>
<!-- Node13&#45;&gt;Node9 -->
<g id="edge18_Node000013_Node000009" class="edge">
<title>Node13&#45;&gt;Node9</title>
<g id="a_edge18_Node000013_Node000009"><a xlink:title=" ">
<path fill="none" stroke="#63b8ff" d="M650.21,-156.8C641.4,-162.01 627.66,-167.32 617,-174.21 600.9,-184.6 598.98,-192.59 580.93,-206.62"/>
<polygon fill="#63b8ff" stroke="#63b8ff" points="578.82,-203.83 572.82,-212.55 582.96,-209.48 578.82,-203.83"/>
</a>
</g>
</g>
<!-- Node14&#45;&gt;Node6 -->
<g id="edge23_Node000014_Node000006" class="edge">
<title>Node14&#45;&gt;Node6</title>
<g id="a_edge23_Node000014_Node000006"><a xlink:title=" ">
<path fill="none" stroke="#63b8ff" d="M231.32,-269.85C248.19,-287.81 286.81,-326.65 326,-350.21 332.79,-354.29 340.4,-357.9 347.91,-361"/>
<polygon fill="#63b8ff" stroke="#63b8ff" points="346.71,-364.29 357.3,-364.65 349.25,-357.77 346.71,-364.29"/>
</a>
</g>
</g>
<!-- Node14&#45;&gt;Node7 -->
<g id="edge25_Node000014_Node000007" class="edge">
<title>Node14&#45;&gt;Node7</title>
<g id="a_edge25_Node000014_Node000007"><a xlink:title=" ">
<path fill="none" stroke="#63b8ff" d="M270.09,-266.53C344.15,-276.2 491.51,-294.74 617,-306.21 654.24,-309.61 696.28,-312.39 728.73,-314.3"/>
<polygon fill="#63b8ff" stroke="#63b8ff" points="728.73,-317.8 738.92,-314.89 729.13,-310.81 728.73,-317.8"/>
</a>
</g>
</g>
<!-- Node14&#45;&gt;Node8 -->
<g id="edge27_Node000014_Node000008" class="edge">
<title>Node14&#45;&gt;Node8</title>
<g id="a_edge27_Node000014_Node000008"><a xlink:title=" ">
<path fill="none" stroke="#63b8ff" d="M244.29,-250.67C258.61,-243.58 277.03,-232.8 290,-219.21 313.07,-195.04 299.21,-173.18 326,-153.21 432.01,-74.16 485.49,-105.06 617,-91.21 712.05,-81.19 744.72,-82.14 829,-127.21 849.34,-138.09 869.05,-155.7 882.25,-168.86"/>
<polygon fill="#63b8ff" stroke="#63b8ff" points="880.09,-171.66 889.58,-176.37 885.1,-166.77 880.09,-171.66"/>
</a>
</g>
</g>
<!-- Node14&#45;&gt;Node11 -->
<g id="edge24_Node000014_Node000011" class="edge">
<title>Node14&#45;&gt;Node11</title>
<g id="a_edge24_Node000014_Node000011"><a xlink:title=" ">
<path fill="none" stroke="#63b8ff" d="M235.9,-250.48C255.03,-237.01 291.65,-212.69 326,-198.21 423.54,-157.08 545.42,-130.75 611.33,-118.42"/>
<polygon fill="#63b8ff" stroke="#63b8ff" points="612.22,-121.82 621.42,-116.56 610.95,-114.93 612.22,-121.82"/>
</a>
</g>
</g>
<!-- Node14&#45;&gt;Node13 -->
<g id="edge26_Node000014_Node000013" class="edge">
<title>Node14&#45;&gt;Node13</title>
<g id="a_edge26_Node000014_Node000013"><a xlink:title=" ">
<path fill="none" stroke="#63b8ff" d="M259.34,-250.67C338.52,-230.17 524.82,-181.94 612.2,-159.32"/>
<polygon fill="#63b8ff" stroke="#63b8ff" points="613.3,-162.65 622.11,-156.76 611.55,-155.88 613.3,-162.65"/>
</a>
</g>
</g>
<!-- Node15&#45;&gt;Node8 -->
<g id="edge30_Node000015_Node000008" class="edge">
<title>Node15&#45;&gt;Node8</title>
<g id="a_edge30_Node000015_Node000008"><a xlink:title=" ">
<path fill="none" stroke="#63b8ff" d="M581.16,-23.9C642.61,-15.14 753.55,-8.67 829,-58.21 867.42,-83.43 886.32,-137.37 894.05,-166.53"/>
<polygon fill="#63b8ff" stroke="#63b8ff" points="890.69,-167.51 896.48,-176.38 897.48,-165.83 890.69,-167.51"/>
</a>
</g>
</g>
<!-- Node15&#45;&gt;Node11 -->
<g id="edge29_Node000015_Node000011" class="edge">
<title>Node15&#45;&gt;Node11</title>
<g id="a_edge29_Node000015_Node000011"><a xlink:title=" ">
<path fill="none" stroke="#63b8ff" d="M555.1,-41.77C563.21,-45.99 572.69,-51.14 581,-56.21 600.75,-68.25 622.3,-83.33 637.74,-94.49"/>
<polygon fill="#63b8ff" stroke="#63b8ff" points="635.92,-97.5 646.06,-100.56 640.04,-91.84 635.92,-97.5"/>
</a>
</g>
</g>
</g>
</svg>

<g id="navigator" transform="translate(0 0)" fill="#404254">
  <rect fill="#f2f5e9" fill-opacity="0.5" stroke="#606060" stroke-width=".5" x="0" y="0" width="60" height="60"/>
  <use id="zoomplus" xlink:href="#zoomPlus" x="17" y="9" onmousedown="handleZoom(evt,'in')"/>
  <use id="zoomminus" xlink:href="#zoomMin" x="42" y="9" onmousedown="handleZoom(evt,'out')"/>
  <use id="reset" xlink:href="#resetDef" x="30" y="36" onmousedown="handleReset()"/>
   <use id="arrowup" xlink:href="#arrowUp" x="0" y="0" onmousedown="handlePan(0,-1)"/>
  <use id="arrowright" xlink:href="#arrowRight" x="0" y="0" onmousedown="handlePan(1,0)"/>
  <use id="arrowdown" xlink:href="#arrowDown" x="0" y="0" onmousedown="handlePan(0,1)"/>
  <use id="arrowleft" xlink:href="#arrowLeft" x="0" y="0" onmousedown="handlePan(-1,0)"/>
</g>
<svg viewBox="0 0 15 15" width="100%" height="30px" preserveAspectRatio="xMaxYMin meet">
 <g id="arrow_out" transform="scale(0.3 0.3)">
  <a xlink:href="weights__dedup_8c_ac8435c15b639ac76b805cc23f609be12_cgraph_org.svg" target="_base">
   <rect id="button" ry="5" rx="5" y="6" x="6" height="38" width="38"
        fill="#f2f5e9" fill-opacity="0.5" stroke="#606060" stroke-width="1.0"/>
   <path id="arrow"
     d="M 11.500037,31.436501 C 11.940474,20.09759 22.043105,11.32322 32.158766,21.979434 L 37.068811,17.246167 C 37.068811,17.246167 37.088388,32 37.088388,32 L 22.160133,31.978069 C 22.160133,31.978069 26.997745,27.140456 26.997745,27.140456 C 18.528582,18.264221 13.291696,25.230495 11.500037,31.436501 z"
     style="fill:#404040;"/>
  </a>
 </g>
</svg>

<style type='text/css'>
<![CDATA[
[data-mouse-over-selected='false'] { opacity: 0.7; }
[data-mouse-over-selected='true']  { opacity: 1.0; }
]]>
</style>
<script type="application/ecmascript"><![CDATA[
document.addEventListener('DOMContentLoaded', (event) => {
  highlightEdges();
  highlightAdjacentNodes();
});
]]></script>
</svg>
