<?xml version="1.0" encoding="UTF-8" standalone="no"?>
<!DOCTYPE svg PUBLIC "-//W3C//DTD SVG 1.1//EN"
 "http://www.w3.org/Graphics/SVG/1.1/DTD/svg11.dtd">
<!-- Generated by graphviz version 2.43.0 (0)
 -->
<!-- Title: ie_mmap_close Pages: 1 -->
<svg width="655pt" height="66pt"
 viewBox="0.00 0.00 655.00 66.00" xmlns="http://www.w3.org/2000/svg" xmlns:xlink="http://www.w3.org/1999/xlink">
<g id="graph0" class="graph" transform="scale(1 1) rotate(0) translate(4 62)">
<title>ie_mmap_close</title>
<!-- Node1 -->
<g id="node1" class="node">
<title>Node1</title>
<g id="a_node1"><a xlink:title="Unmap and close a mapping.">
<polygon fill="#bfbfbf" stroke="black" points="554,-19.5 554,-38.5 647,-38.5 647,-19.5 554,-19.5"/>
<text text-anchor="middle" x="600.5" y="-26.5" font-family="Helvetica,sans-Serif" font-size="10.00">ie_mmap_close</text>
</a>
</g>
</g>
<!-- Node2 -->
<g id="node2" class="node">
<title>Node2</title>
<g id="a_node2"><a xlink:href="weights__dedup_8h.html#a3ad33a6fe3c7a81072c092d1ee510fce" target="_top" xlink:title="Close a deduplicated&#45;weights handle and release mappings.">
<polygon fill="none" stroke="black" points="383,-19.5 383,-38.5 518,-38.5 518,-19.5 383,-19.5"/>
<text text-anchor="middle" x="450.5" y="-26.5" font-family="Helvetica,sans-Serif" font-size="10.00">ie_weights_dedup_close</text>
</a>
</g>
</g>
<!-- Node1&#45;&gt;Node2 -->
<g id="edge1" class="edge">
<title>Node1&#45;&gt;Node2</title>
<path fill="none" stroke="midnightblue" d="M543.86,-29C535.48,-29 526.76,-29 518.18,-29"/>
<polygon fill="midnightblue" stroke="midnightblue" points="543.89,-32.5 553.89,-29 543.89,-25.5 543.89,-32.5"/>
</g>
<!-- Node3 -->
<g id="node3" class="node">
<title>Node3</title>
<g id="a_node3"><a xlink:href="group__ie__io__weights.html#ga06c2b7e35d1f82a11e4605e23a1976f5" target="_top" xlink:title="Close weights resources (reserved for future use).">
<polygon fill="none" stroke="black" points="77,-38.5 77,-57.5 177,-57.5 177,-38.5 77,-38.5"/>
<text text-anchor="middle" x="127" y="-45.5" font-family="Helvetica,sans-Serif" font-size="10.00">ie_weights_close</text>
</a>
</g>
</g>
<!-- Node2&#45;&gt;Node3 -->
<g id="edge2" class="edge">
<title>Node2&#45;&gt;Node3</title>
<path fill="none" stroke="midnightblue" d="M372.59,-33.54C311.96,-37.13 229.23,-42.02 177.22,-45.09"/>
<polygon fill="midnightblue" stroke="midnightblue" points="373.11,-37.02 382.88,-32.94 372.7,-30.03 373.11,-37.02"/>
</g>
<!-- Node5 -->
<g id="node5" class="node">
<title>Node5</title>
<g id="a_node5"><a xlink:href="weights__dedup_8h.html#aa625b41ce2a24826f8cb464661ace8ec" target="_top" xlink:title="Open a deduplicated model directory.">
<polygon fill="none" stroke="black" points="213,-0.5 213,-19.5 347,-19.5 347,-0.5 213,-0.5"/>
<text text-anchor="middle" x="280" y="-7.5" font-family="Helvetica,sans-Serif" font-size="10.00">ie_weights_dedup_open</text>
</a>
</g>
</g>
<!-- Node2&#45;&gt;Node5 -->
<g id="edge4" class="edge">
<title>Node2&#45;&gt;Node5</title>
<path fill="none" stroke="midnightblue" d="M372.88,-20.36C364.27,-19.39 355.57,-18.41 347.11,-17.45"/>
<polygon fill="midnightblue" stroke="midnightblue" points="372.58,-23.85 382.9,-21.49 373.36,-16.89 372.58,-23.85"/>
</g>
<!-- Node4 -->
<g id="node4" class="node">
<title>Node4</title>
<g id="a_node4"><a xlink:href="main__infer_8c.html#a3c04138a5bfe5d72780bb7e82a18e627" target="_top" xlink:title="Program entry point.">
<polygon fill="none" stroke="black" points="0,-19.5 0,-38.5 41,-38.5 41,-19.5 0,-19.5"/>
<text text-anchor="middle" x="20.5" y="-26.5" font-family="Helvetica,sans-Serif" font-size="10.00">main</text>
</a>
</g>
</g>
<!-- Node3&#45;&gt;Node4 -->
<g id="edge3" class="edge">
<title>Node3&#45;&gt;Node4</title>
<path fill="none" stroke="midnightblue" d="M66.77,-37.23C57.58,-35.56 48.68,-33.94 41.24,-32.59"/>
<polygon fill="midnightblue" stroke="midnightblue" points="66.35,-40.71 76.81,-39.06 67.6,-33.82 66.35,-40.71"/>
</g>
<!-- Node6 -->
<g id="node6" class="node">
<title>Node6</title>
<g id="a_node6"><a xlink:href="group__ie__io__weights.html#ga522dac028ee37aae1307ffdb6d65ec1d" target="_top" xlink:title="Open and parse IEBIN v1 metadata and resolve the weights path.">
<polygon fill="none" stroke="black" points="78,-0.5 78,-19.5 176,-19.5 176,-0.5 78,-0.5"/>
<text text-anchor="middle" x="127" y="-7.5" font-family="Helvetica,sans-Serif" font-size="10.00">ie_weights_open</text>
</a>
</g>
</g>
<!-- Node5&#45;&gt;Node6 -->
<g id="edge5" class="edge">
<title>Node5&#45;&gt;Node6</title>
<path fill="none" stroke="midnightblue" d="M202.58,-10C193.54,-10 184.51,-10 176.03,-10"/>
<polygon fill="midnightblue" stroke="midnightblue" points="202.77,-13.5 212.77,-10 202.77,-6.5 202.77,-13.5"/>
</g>
<!-- Node6&#45;&gt;Node4 -->
<g id="edge6" class="edge">
<title>Node6&#45;&gt;Node4</title>
<path fill="none" stroke="midnightblue" d="M67.71,-20.6C58.13,-22.34 48.84,-24.03 41.12,-25.43"/>
<polygon fill="midnightblue" stroke="midnightblue" points="68.51,-24.01 77.73,-18.78 67.26,-17.12 68.51,-24.01"/>
</g>
</g>
</svg>
