<?xml version="1.0" encoding="UTF-8" standalone="no"?>
<!DOCTYPE svg PUBLIC "-//W3C//DTD SVG 1.1//EN"
 "http://www.w3.org/Graphics/SVG/1.1/DTD/svg11.dtd">
<!-- Generated by graphviz version 2.43.0 (0)
 -->
<!-- Title: ensure_dedup_manifest_link Pages: 1 -->
<svg width="574pt" height="119pt"
 viewBox="0.00 0.00 574.00 119.18" xmlns="http://www.w3.org/2000/svg" xmlns:xlink="http://www.w3.org/1999/xlink">
<g id="graph0" class="graph" transform="scale(1 1) rotate(0) translate(4 115.18)">
<title>ensure_dedup_manifest_link</title>
<!-- Node1 -->
<g id="Node000001" class="node">
<title>Node1</title>
<g id="a_Node000001"><a xlink:title="Create a best&#45;effort symlink model.dedup.json &#45;&gt; dedup_manifest.json.">
<polygon fill="#999999" stroke="#666666" points="157,-76 0,-76 0,-57 157,-57 157,-76"/>
<text text-anchor="middle" x="78.5" y="-64" font-family="Helvetica,sans-Serif" font-size="10.00">ensure_dedup_manifest_link</text>
</a>
</g>
</g>
<!-- Node2 -->
<g id="Node000002" class="node">
<title>Node2</title>
<g id="a_Node000002"><a xlink:href="weights_8c.html#ae3307b59271742c37862abf0b9698d23" target="_top" xlink:title="Copy a C&#45;string into a bounded buffer and always NUL&#45;terminate.">
<polygon fill="white" stroke="#666666" points="367.5,-95 328.5,-95 328.5,-76 367.5,-76 367.5,-95"/>
<text text-anchor="middle" x="348" y="-83" font-family="Helvetica,sans-Serif" font-size="10.00">cpyz</text>
</a>
</g>
</g>
<!-- Node1&#45;&gt;Node2 -->
<g id="edge1_Node000001_Node000002" class="edge">
<title>Node1&#45;&gt;Node2</title>
<g id="a_edge1_Node000001_Node000002"><a xlink:title=" ">
<path fill="none" stroke="#63b8ff" d="M157.23,-72.02C211.14,-75.85 279.88,-80.73 318.08,-83.45"/>
<polygon fill="#63b8ff" stroke="#63b8ff" points="318.23,-86.97 328.46,-84.18 318.73,-79.98 318.23,-86.97"/>
</a>
</g>
</g>
<!-- Node3 -->
<g id="Node000003" class="node">
<title>Node3</title>
<g id="a_Node000003"><a xlink:href="ie__device__cuda_8cu.html#a5e3d9fee84981707669f5c2398f0c4ab" target="_top" xlink:title="Row&#45;wise GEMV kernel: each thread computes one output row.">
<polygon fill="white" stroke="#666666" points="566,-81.5 441,-81.5 441,-51.5 566,-51.5 566,-81.5"/>
<text text-anchor="start" x="449" y="-69.5" font-family="Helvetica,sans-Serif" font-size="10.00">ie_gemv_rowwise_f32</text>
<text text-anchor="middle" x="503.5" y="-58.5" font-family="Helvetica,sans-Serif" font-size="10.00">_kernel</text>
</a>
</g>
</g>
<!-- Node1&#45;&gt;Node3 -->
<g id="edge5_Node000001_Node000003" class="edge">
<title>Node1&#45;&gt;Node3</title>
<g id="a_edge5_Node000001_Node000003"><a xlink:title=" ">
<path fill="none" stroke="#63b8ff" d="M109.78,-76.09C167.55,-93.05 297.36,-124.73 405,-104.5 424.73,-100.79 445.6,-93.2 462.95,-85.77"/>
<polygon fill="#63b8ff" stroke="#63b8ff" points="464.46,-88.93 472.19,-81.69 461.63,-82.53 464.46,-88.93"/>
</a>
</g>
</g>
<!-- Node4 -->
<g id="Node000004" class="node">
<title>Node4</title>
<g id="a_Node000004"><a xlink:href="weights_8c.html#a8adb51cd6c239a9589d4d66cd0cf989e" target="_top" xlink:title="Check if a path exists and is readable.">
<polygon fill="white" stroke="#666666" points="405,-19 291,-19 291,0 405,0 405,-19"/>
<text text-anchor="middle" x="348" y="-7" font-family="Helvetica,sans-Serif" font-size="10.00">file_exists_readable</text>
</a>
</g>
</g>
<!-- Node1&#45;&gt;Node4 -->
<g id="edge3_Node000001_Node000004" class="edge">
<title>Node1&#45;&gt;Node4</title>
<g id="a_edge3_Node000001_Node000004"><a xlink:title=" ">
<path fill="none" stroke="#63b8ff" d="M103.45,-56.92C126.15,-48.21 161.39,-35.67 193,-28.5 221.42,-22.06 253.32,-17.67 280.69,-14.74"/>
<polygon fill="#63b8ff" stroke="#63b8ff" points="281.34,-18.2 290.94,-13.7 280.63,-11.23 281.34,-18.2"/>
</a>
</g>
</g>
<!-- Node5 -->
<g id="Node000005" class="node">
<title>Node5</title>
<g id="a_Node000005"><a xlink:href="weights_8c.html#a7bb1dd9958b072fc5d1a80373cc074ff" target="_top" xlink:title="Join directory and filename into an output buffer (NUL&#45;terminated).">
<polygon fill="white" stroke="#666666" points="255,-57 193,-57 193,-38 255,-38 255,-57"/>
<text text-anchor="middle" x="224" y="-45" font-family="Helvetica,sans-Serif" font-size="10.00">join_path</text>
</a>
</g>
</g>
<!-- Node1&#45;&gt;Node5 -->
<g id="edge6_Node000001_Node000005" class="edge">
<title>Node1&#45;&gt;Node5</title>
<g id="a_edge6_Node000001_Node000005"><a xlink:title=" ">
<path fill="none" stroke="#63b8ff" d="M151.67,-56.94C162.33,-55.53 172.98,-54.12 182.67,-52.84"/>
<polygon fill="#63b8ff" stroke="#63b8ff" points="183.32,-56.28 192.78,-51.5 182.4,-49.34 183.32,-56.28"/>
</a>
</g>
</g>
<!-- Node2&#45;&gt;Node3 -->
<g id="edge2_Node000002_Node000003" class="edge">
<title>Node2&#45;&gt;Node3</title>
<g id="a_edge2_Node000002_Node000003"><a xlink:title=" ">
<path fill="none" stroke="#63b8ff" d="M367.52,-83.21C383.42,-81.24 407.43,-78.27 430.81,-75.37"/>
<polygon fill="#63b8ff" stroke="#63b8ff" points="431.27,-78.84 440.76,-74.14 430.41,-71.9 431.27,-78.84"/>
</a>
</g>
</g>
<!-- Node4&#45;&gt;Node3 -->
<g id="edge4_Node000004_Node000003" class="edge">
<title>Node4&#45;&gt;Node3</title>
<g id="a_edge4_Node000004_Node000003"><a xlink:title=" ">
<path fill="none" stroke="#63b8ff" d="M374.69,-19.04C395.81,-26.88 426.36,-38.23 452.29,-47.86"/>
<polygon fill="#63b8ff" stroke="#63b8ff" points="451.39,-51.25 461.98,-51.45 453.82,-44.69 451.39,-51.25"/>
</a>
</g>
</g>
<!-- Node5&#45;&gt;Node2 -->
<g id="edge7_Node000005_Node000002" class="edge">
<title>Node5&#45;&gt;Node2</title>
<g id="a_edge7_Node000005_Node000002"><a xlink:title=" ">
<path fill="none" stroke="#63b8ff" d="M255.16,-56.89C274.54,-62.93 299.55,-70.72 318.58,-76.65"/>
<polygon fill="#63b8ff" stroke="#63b8ff" points="317.6,-80.01 328.19,-79.64 319.69,-73.33 317.6,-80.01"/>
</a>
</g>
</g>
<!-- Node5&#45;&gt;Node3 -->
<g id="edge8_Node000005_Node000003" class="edge">
<title>Node5&#45;&gt;Node3</title>
<g id="a_edge8_Node000005_Node000003"><a xlink:title=" ">
<path fill="none" stroke="#63b8ff" d="M255.23,-49.57C297.03,-52.43 373.79,-57.69 430.74,-61.59"/>
<polygon fill="#63b8ff" stroke="#63b8ff" points="430.56,-65.08 440.77,-62.27 431.04,-58.1 430.56,-65.08"/>
</a>
</g>
</g>
</g>
</svg>
