<?xml version="1.0" encoding="UTF-8" standalone="no"?>
<!DOCTYPE svg PUBLIC "-//W3C//DTD SVG 1.1//EN"
 "http://www.w3.org/Graphics/SVG/1.1/DTD/svg11.dtd">
<!-- Generated by graphviz version 12.2.1 (20241206.2353)
 -->
<!-- Title: engine/src/io/weights.c Pages: 1 -->
<svg width="859pt" height="142pt"
 viewBox="0.00 0.00 858.62 142.25" xmlns="http://www.w3.org/2000/svg" xmlns:xlink="http://www.w3.org/1999/xlink">
<g id="graph0" class="graph" transform="scale(1 1) rotate(0) translate(4 138.25)">
<title>engine/src/io/weights.c</title>
<!-- Node1 -->
<g id="Node000001" class="node">
<title>Node1</title>
<g id="a_Node000001"><a xlink:title="Implementation of the IEBIN v1 loader with relaxed JSON parsing.">
<polygon fill="#999999" stroke="#666666" points="473,-134.25 345.25,-134.25 345.25,-113.5 473,-113.5 473,-134.25"/>
<text text-anchor="middle" x="409.12" y="-120.75" font-family="Helvetica,sans-Serif" font-size="10.00">engine/src/io/weights.c</text>
</a>
</g>
</g>
<!-- Node2 -->
<g id="Node000002" class="node">
<title>Node2</title>
<g id="a_Node000002"><a xlink:href="ie__io_8h.html" target="_top" xlink:title="Public I/O interfaces: IEBIN v1 loader and lightweight tokenizer.">
<polygon fill="white" stroke="#666666" points="48.25,-77.5 0,-77.5 0,-56.75 48.25,-56.75 48.25,-77.5"/>
<text text-anchor="middle" x="24.12" y="-64" font-family="Helvetica,sans-Serif" font-size="10.00">ie_io.h</text>
</a>
</g>
</g>
<!-- Node1&#45;&gt;Node2 -->
<g id="edge1_Node000001_Node000002" class="edge">
<title>Node1&#45;&gt;Node2</title>
<g id="a_edge1_Node000001_Node000002"><a xlink:title=" ">
<path fill="none" stroke="#63b8ff" d="M344.95,-117.31C276.66,-110.78 165.3,-98.38 59.72,-77.54"/>
<polygon fill="#63b8ff" stroke="#63b8ff" points="60.52,-74.13 50.02,-75.6 59.14,-81 60.52,-74.13"/>
</a>
</g>
</g>
<!-- Node4 -->
<g id="Node000004" class="node">
<title>Node4</title>
<g id="a_Node000004"><a xlink:title=" ">
<polygon fill="#e0e0e0" stroke="#999999" points="138.5,-20.75 85.75,-20.75 85.75,0 138.5,0 138.5,-20.75"/>
<text text-anchor="middle" x="112.12" y="-7.25" font-family="Helvetica,sans-Serif" font-size="10.00">stdint.h</text>
</a>
</g>
</g>
<!-- Node1&#45;&gt;Node4 -->
<g id="edge10_Node000001_Node000004" class="edge">
<title>Node1&#45;&gt;Node4</title>
<g id="a_edge10_Node000001_Node000004"><a xlink:title=" ">
<path fill="none" stroke="#63b8ff" d="M345.02,-115.31C303.76,-108.85 249.71,-97.33 205.12,-77.5 177.07,-65.02 148.9,-43.42 131.03,-28.31"/>
<polygon fill="#63b8ff" stroke="#63b8ff" points="133.68,-25.97 123.83,-22.07 129.1,-31.27 133.68,-25.97"/>
</a>
</g>
</g>
<!-- Node5 -->
<g id="Node000005" class="node">
<title>Node5</title>
<g id="a_Node000005"><a xlink:href="ie__quant__int4_8h.html" target="_top" xlink:title="Public API for 4&#45;bit (INT4) weight&#45;only post&#45;training quantization.">
<polygon fill="white" stroke="#666666" points="157.62,-77.5 66.62,-77.5 66.62,-56.75 157.62,-56.75 157.62,-77.5"/>
<text text-anchor="middle" x="112.12" y="-64" font-family="Helvetica,sans-Serif" font-size="10.00">ie_quant_int4.h</text>
</a>
</g>
</g>
<!-- Node1&#45;&gt;Node5 -->
<g id="edge4_Node000001_Node000005" class="edge">
<title>Node1&#45;&gt;Node5</title>
<g id="a_edge4_Node000001_Node000005"><a xlink:title=" ">
<path fill="none" stroke="#63b8ff" d="M355.68,-113.02C302.98,-103.31 222.73,-88.51 168.9,-78.59"/>
<polygon fill="#63b8ff" stroke="#63b8ff" points="169.79,-75.2 159.32,-76.83 168.52,-82.08 169.79,-75.2"/>
</a>
</g>
</g>
<!-- Node6 -->
<g id="Node000006" class="node">
<title>Node6</title>
<g id="a_Node000006"><a xlink:title=" ">
<polygon fill="#e0e0e0" stroke="#999999" points="266.12,-77.5 214.12,-77.5 214.12,-56.75 266.12,-56.75 266.12,-77.5"/>
<text text-anchor="middle" x="240.12" y="-64" font-family="Helvetica,sans-Serif" font-size="10.00">ctype.h</text>
</a>
</g>
</g>
<!-- Node1&#45;&gt;Node6 -->
<g id="edge7_Node000001_Node000006" class="edge">
<title>Node1&#45;&gt;Node6</title>
<g id="a_edge7_Node000001_Node000006"><a xlink:title=" ">
<path fill="none" stroke="#63b8ff" d="M378.91,-113.09C350.42,-103.86 307.64,-90 277.11,-80.11"/>
<polygon fill="#63b8ff" stroke="#63b8ff" points="278.5,-76.88 267.91,-77.13 276.34,-83.54 278.5,-76.88"/>
</a>
</g>
</g>
<!-- Node7 -->
<g id="Node000007" class="node">
<title>Node7</title>
<g id="a_Node000007"><a xlink:title=" ">
<polygon fill="#e0e0e0" stroke="#999999" points="334.38,-77.5 283.88,-77.5 283.88,-56.75 334.38,-56.75 334.38,-77.5"/>
<text text-anchor="middle" x="309.12" y="-64" font-family="Helvetica,sans-Serif" font-size="10.00">errno.h</text>
</a>
</g>
</g>
<!-- Node1&#45;&gt;Node7 -->
<g id="edge8_Node000001_Node000007" class="edge">
<title>Node1&#45;&gt;Node7</title>
<g id="a_edge8_Node000001_Node000007"><a xlink:title=" ">
<path fill="none" stroke="#63b8ff" d="M391.25,-113.09C376.03,-104.76 353.93,-92.66 336.49,-83.11"/>
<polygon fill="#63b8ff" stroke="#63b8ff" points="338.63,-80.29 328.18,-78.56 335.27,-86.43 338.63,-80.29"/>
</a>
</g>
</g>
<!-- Node8 -->
<g id="Node000008" class="node">
<title>Node8</title>
<g id="a_Node000008"><a xlink:title=" ">
<polygon fill="#e0e0e0" stroke="#999999" points="399.5,-77.5 352.75,-77.5 352.75,-56.75 399.5,-56.75 399.5,-77.5"/>
<text text-anchor="middle" x="376.12" y="-64" font-family="Helvetica,sans-Serif" font-size="10.00">fcntl.h</text>
</a>
</g>
</g>
<!-- Node1&#45;&gt;Node8 -->
<g id="edge9_Node000001_Node000008" class="edge">
<title>Node1&#45;&gt;Node8</title>
<g id="a_edge9_Node000001_Node000008"><a xlink:title=" ">
<path fill="none" stroke="#63b8ff" d="M403.23,-113.09C398.95,-106 393.04,-96.19 387.83,-87.54"/>
<polygon fill="#63b8ff" stroke="#63b8ff" points="390.91,-85.88 382.75,-79.12 384.92,-89.5 390.91,-85.88"/>
</a>
</g>
</g>
<!-- Node9 -->
<g id="Node000009" class="node">
<title>Node9</title>
<g id="a_Node000009"><a xlink:title=" ">
<polygon fill="#e0e0e0" stroke="#999999" points="466.62,-77.5 417.62,-77.5 417.62,-56.75 466.62,-56.75 466.62,-77.5"/>
<text text-anchor="middle" x="442.12" y="-64" font-family="Helvetica,sans-Serif" font-size="10.00">stdio.h</text>
</a>
</g>
</g>
<!-- Node1&#45;&gt;Node9 -->
<g id="edge11_Node000001_Node000009" class="edge">
<title>Node1&#45;&gt;Node9</title>
<g id="a_edge11_Node000001_Node000009"><a xlink:title=" ">
<path fill="none" stroke="#63b8ff" d="M415.02,-113.09C419.3,-106 425.21,-96.19 430.42,-87.54"/>
<polygon fill="#63b8ff" stroke="#63b8ff" points="433.33,-89.5 435.5,-79.12 427.34,-85.88 433.33,-89.5"/>
</a>
</g>
</g>
<!-- Node10 -->
<g id="Node000010" class="node">
<title>Node10</title>
<g id="a_Node000010"><a xlink:title=" ">
<polygon fill="#e0e0e0" stroke="#999999" points="537.12,-77.5 485.12,-77.5 485.12,-56.75 537.12,-56.75 537.12,-77.5"/>
<text text-anchor="middle" x="511.12" y="-64" font-family="Helvetica,sans-Serif" font-size="10.00">stdlib.h</text>
</a>
</g>
</g>
<!-- Node1&#45;&gt;Node10 -->
<g id="edge12_Node000001_Node000010" class="edge">
<title>Node1&#45;&gt;Node10</title>
<g id="a_edge12_Node000001_Node000010"><a xlink:title=" ">
<path fill="none" stroke="#63b8ff" d="M427.36,-113.09C442.81,-104.8 465.21,-92.77 482.96,-83.24"/>
<polygon fill="#63b8ff" stroke="#63b8ff" points="484.56,-86.36 491.71,-78.54 481.25,-80.19 484.56,-86.36"/>
</a>
</g>
</g>
<!-- Node11 -->
<g id="Node000011" class="node">
<title>Node11</title>
<g id="a_Node000011"><a xlink:title=" ">
<polygon fill="#e0e0e0" stroke="#999999" points="607.5,-77.5 554.75,-77.5 554.75,-56.75 607.5,-56.75 607.5,-77.5"/>
<text text-anchor="middle" x="581.12" y="-64" font-family="Helvetica,sans-Serif" font-size="10.00">string.h</text>
</a>
</g>
</g>
<!-- Node1&#45;&gt;Node11 -->
<g id="edge13_Node000001_Node000011" class="edge">
<title>Node1&#45;&gt;Node11</title>
<g id="a_edge13_Node000001_Node000011"><a xlink:title=" ">
<path fill="none" stroke="#63b8ff" d="M439.88,-113.09C468.88,-103.86 512.42,-90 543.48,-80.11"/>
<polygon fill="#63b8ff" stroke="#63b8ff" points="544.4,-83.49 552.87,-77.12 542.28,-76.82 544.4,-83.49"/>
</a>
</g>
</g>
<!-- Node12 -->
<g id="Node000012" class="node">
<title>Node12</title>
<g id="a_Node000012"><a xlink:title=" ">
<polygon fill="#e0e0e0" stroke="#999999" points="688.75,-77.5 625.5,-77.5 625.5,-56.75 688.75,-56.75 688.75,-77.5"/>
<text text-anchor="middle" x="657.12" y="-64" font-family="Helvetica,sans-Serif" font-size="10.00">sys/stat.h</text>
</a>
</g>
</g>
<!-- Node1&#45;&gt;Node12 -->
<g id="edge14_Node000001_Node000012" class="edge">
<title>Node1&#45;&gt;Node12</title>
<g id="a_edge14_Node000001_Node000012"><a xlink:title=" ">
<path fill="none" stroke="#63b8ff" d="M454.38,-113.08C493.95,-104.48 553.28,-91.53 614.34,-77.89"/>
<polygon fill="#63b8ff" stroke="#63b8ff" points="614.88,-81.35 623.87,-75.75 613.35,-74.52 614.88,-81.35"/>
</a>
</g>
</g>
<!-- Node13 -->
<g id="Node000013" class="node">
<title>Node13</title>
<g id="a_Node000013"><a xlink:title=" ">
<polygon fill="#e0e0e0" stroke="#999999" points="777.88,-77.5 706.38,-77.5 706.38,-56.75 777.88,-56.75 777.88,-77.5"/>
<text text-anchor="middle" x="742.12" y="-64" font-family="Helvetica,sans-Serif" font-size="10.00">sys/types.h</text>
</a>
</g>
</g>
<!-- Node1&#45;&gt;Node13 -->
<g id="edge15_Node000001_Node000013" class="edge">
<title>Node1&#45;&gt;Node13</title>
<g id="a_edge15_Node000001_Node000013"><a xlink:title=" ">
<path fill="none" stroke="#63b8ff" d="M473.29,-113.82C529.39,-105.67 613.32,-92.93 694.91,-78.03"/>
<polygon fill="#63b8ff" stroke="#63b8ff" points="695.45,-81.49 704.65,-76.23 694.18,-74.6 695.45,-81.49"/>
</a>
</g>
</g>
<!-- Node14 -->
<g id="Node000014" class="node">
<title>Node14</title>
<g id="a_Node000014"><a xlink:title=" ">
<polygon fill="#e0e0e0" stroke="#999999" points="850.62,-77.5 795.62,-77.5 795.62,-56.75 850.62,-56.75 850.62,-77.5"/>
<text text-anchor="middle" x="823.12" y="-64" font-family="Helvetica,sans-Serif" font-size="10.00">unistd.h</text>
</a>
</g>
</g>
<!-- Node1&#45;&gt;Node14 -->
<g id="edge16_Node000001_Node000014" class="edge">
<title>Node1&#45;&gt;Node14</title>
<g id="a_edge16_Node000001_Node000014"><a xlink:title=" ">
<path fill="none" stroke="#63b8ff" d="M473.4,-117.83C546.58,-111.49 669.85,-99 784.26,-77.84"/>
<polygon fill="#63b8ff" stroke="#63b8ff" points="784.63,-81.33 793.81,-76.05 783.34,-74.45 784.63,-81.33"/>
</a>
</g>
</g>
<!-- Node3 -->
<g id="Node000003" class="node">
<title>Node3</title>
<g id="a_Node000003"><a xlink:title=" ">
<polygon fill="#e0e0e0" stroke="#999999" points="59.62,-20.75 4.62,-20.75 4.62,0 59.62,0 59.62,-20.75"/>
<text text-anchor="middle" x="32.12" y="-7.25" font-family="Helvetica,sans-Serif" font-size="10.00">stddef.h</text>
</a>
</g>
</g>
<!-- Node2&#45;&gt;Node3 -->
<g id="edge2_Node000002_Node000003" class="edge">
<title>Node2&#45;&gt;Node3</title>
<g id="a_edge2_Node000002_Node000003"><a xlink:title=" ">
<path fill="none" stroke="#63b8ff" d="M25.56,-56.34C26.53,-49.64 27.87,-40.51 29.08,-32.23"/>
<polygon fill="#63b8ff" stroke="#63b8ff" points="32.51,-32.98 30.49,-22.58 25.58,-31.96 32.51,-32.98"/>
</a>
</g>
</g>
<!-- Node2&#45;&gt;Node4 -->
<g id="edge3_Node000002_Node000004" class="edge">
<title>Node2&#45;&gt;Node4</title>
<g id="a_edge3_Node000002_Node000004"><a xlink:title=" ">
<path fill="none" stroke="#63b8ff" d="M39.86,-56.34C53,-48.16 71.97,-36.36 87.18,-26.9"/>
<polygon fill="#63b8ff" stroke="#63b8ff" points="88.6,-30.13 95.24,-21.88 84.9,-24.19 88.6,-30.13"/>
</a>
</g>
</g>
<!-- Node5&#45;&gt;Node3 -->
<g id="edge5_Node000005_Node000003" class="edge">
<title>Node5&#45;&gt;Node3</title>
<g id="a_edge5_Node000005_Node000003"><a xlink:title=" ">
<path fill="none" stroke="#63b8ff" d="M97.82,-56.34C86.11,-48.32 69.29,-36.81 55.6,-27.44"/>
<polygon fill="#63b8ff" stroke="#63b8ff" points="57.78,-24.69 47.55,-21.93 53.83,-30.47 57.78,-24.69"/>
</a>
</g>
</g>
<!-- Node5&#45;&gt;Node4 -->
<g id="edge6_Node000005_Node000004" class="edge">
<title>Node5&#45;&gt;Node4</title>
<g id="a_edge6_Node000005_Node000004"><a xlink:title=" ">
<path fill="none" stroke="#63b8ff" d="M112.12,-56.34C112.12,-49.72 112.12,-40.72 112.12,-32.52"/>
<polygon fill="#63b8ff" stroke="#63b8ff" points="115.63,-32.59 112.13,-22.59 108.63,-32.59 115.63,-32.59"/>
</a>
</g>
</g>
</g>
</svg>
