<?xml version="1.0" encoding="UTF-8" standalone="no"?>
<!DOCTYPE svg PUBLIC "-//W3C//DTD SVG 1.1//EN"
 "http://www.w3.org/Graphics/SVG/1.1/DTD/svg11.dtd">
<!-- Generated by graphviz version 2.43.0 (0)
 -->
<!-- Title: js_skip_ws Pages: 1 -->
<!--zoomable 626 -->

<svg id="main" version="1.1" xmlns="http://www.w3.org/2000/svg" xmlns:xlink="http://www.w3.org/1999/xlink" xml:space="preserve" onload="init(evt)">
<style type="text/css"><![CDATA[
.node, .edge {opacity: 0.7;}
.node.selected, .edge.selected {opacity: 1;}
.edge:hover path { stroke: red; }
.edge:hover polygon { stroke: red; fill: red; }
]]></style>

<defs>
  <circle id="rim" cx="0" cy="0" r="7"/>
  <circle id="rim2" cx="0" cy="0" r="3.5"/>
  <g id="zoomPlus">
    <use xlink:href="#rim" fill="#404040"><set attributeName="fill" to="#808080" begin="zoomplus.mouseover" end="zoomplus.mouseout"/></use>
    <path d="M-4,0h8M0,-4v8" fill="none" stroke="white" stroke-width="1.5" pointer-events="none"/>
  </g>
  <g id="zoomMin">
    <use xlink:href="#rim" fill="#404040"><set attributeName="fill" to="#808080" begin="zoomminus.mouseover" end="zoomminus.mouseout"/></use>
    <path d="M-4,0h8" fill="none" stroke="white" stroke-width="1.5" pointer-events="none"/>
  </g>
  <g id="arrowUp" transform="translate(30 24)">
    <use xlink:href="#rim"/>
    <path pointer-events="none" fill="none" stroke="white" stroke-width="1.5" d="M0,-3.0v7 M-2.5,-0.5L0,-3.0L2.5,-0.5"/>
  </g>
  <g id="arrowRight" transform="rotate(90) translate(36 -43)">
    <use xlink:href="#rim"/>
    <path pointer-events="none" fill="none" stroke="white" stroke-width="1.5" d="M0,-3.0v7 M-2.5,-0.5L0,-3.0L2.5,-0.5"/>
  </g>
  <g id="arrowDown" transform="rotate(180) translate(-30 -48)">
    <use xlink:href="#rim"/>
    <path pointer-events="none" fill="none" stroke="white" stroke-width="1.5" d="M0,-3.0v7 M-2.5,-0.5L0,-3.0L2.5,-0.5"/>
  </g>
  <g id="arrowLeft" transform="rotate(270) translate(-36 17)">
    <use xlink:href="#rim"/>
    <path pointer-events="none" fill="none" stroke="white" stroke-width="1.5" d="M0,-3.0v7 M-2.5,-0.5L0,-3.0L2.5,-0.5"/>
  </g>
  <g id="resetDef">
    <use xlink:href="#rim2" fill="#404040"><set attributeName="fill" to="#808080" begin="reset.mouseover" end="reset.mouseout"/></use>
  </g>
</defs>
<script type="application/ecmascript">
var viewWidth = 1515;
var viewHeight = 626;
var sectionId = 'dynsection-84';
</script>
<script type="application/ecmascript" xlink:href="svg.min.js"/>
<svg id="graph" class="graph">
<g id="viewport">
<title>js_skip_ws</title>
<!-- Node1 -->
<g id="Node000001" class="node">
<title>Node1</title>
<g id="a_Node000001"><a xlink:title=" ">
<polygon fill="#999999" stroke="#666666" points="1507,-332.57 1438,-332.57 1438,-313.57 1507,-313.57 1507,-332.57"/>
<text text-anchor="middle" x="1472.5" y="-320.57" font-family="Helvetica,sans-Serif" font-size="10.00">js_skip_ws</text>
</a>
</g>
</g>
<!-- Node2 -->
<g id="Node000002" class="node">
<title>Node2</title>
<g id="a_Node000002"><a xlink:href="weights__dedup_8c.html#a59504573413171688ab4fb900b9bda3d" target="_top" xlink:title=" ">
<polygon fill="white" stroke="#666666" points="1276,-617.57 1157,-617.57 1157,-598.57 1276,-598.57 1276,-617.57"/>
<text text-anchor="middle" x="1216.5" y="-605.57" font-family="Helvetica,sans-Serif" font-size="10.00">ie_parse_files_object</text>
</a>
</g>
</g>
<!-- Node1&#45;&gt;Node2 -->
<g id="edge1_Node000001_Node000002" class="edge">
<title>Node1&#45;&gt;Node2</title>
<g id="a_edge1_Node000001_Node000002"><a xlink:title=" ">
<path fill="none" stroke="#63b8ff" d="M1469.07,-342.86C1461.88,-398.06 1438.86,-551.74 1402,-584.07 1368.12,-613.78 1316.38,-618.24 1276.3,-616.14"/>
<polygon fill="#63b8ff" stroke="#63b8ff" points="1472.58,-343.02 1470.36,-332.66 1465.63,-342.14 1472.58,-343.02"/>
</a>
</g>
</g>
<!-- Node9 -->
<g id="Node000009" class="node">
<title>Node9</title>
<g id="a_Node000009"><a xlink:href="weights__dedup_8c.html#a3baac12d7191041beab3fc4508b94be7" target="_top" xlink:title=" ">
<polygon fill="white" stroke="#666666" points="647,-198.57 513,-198.57 513,-179.57 647,-179.57 647,-198.57"/>
<text text-anchor="middle" x="580" y="-186.57" font-family="Helvetica,sans-Serif" font-size="10.00">ie_parse_iejson_tensors</text>
</a>
</g>
</g>
<!-- Node1&#45;&gt;Node9 -->
<g id="edge8_Node000001_Node000009" class="edge">
<title>Node1&#45;&gt;Node9</title>
<g id="a_edge8_Node000001_Node000009"><a xlink:title=" ">
<path fill="none" stroke="#63b8ff" d="M1472.17,-303.24C1472.68,-255.23 1467.2,-131.58 1402,-62.07 1342.82,1.02 1304.01,-0.07 1217.5,-0.07 1217.5,-0.07 1217.5,-0.07 896,-0.07 793.4,-0.07 768.5,-32.36 683,-89.07 642.7,-115.8 604.61,-159.83 588.75,-179.29"/>
<polygon fill="#63b8ff" stroke="#63b8ff" points="1468.66,-303.43 1471.95,-313.5 1475.66,-303.58 1468.66,-303.43"/>
</a>
</g>
</g>
<!-- Node10 -->
<g id="Node000010" class="node">
<title>Node10</title>
<g id="a_Node000010"><a xlink:href="weights__dedup_8c.html#ac8435c15b639ac76b805cc23f609be12" target="_top" xlink:title=" ">
<polygon fill="white" stroke="#666666" points="800,-426.57 683,-426.57 683,-407.57 800,-407.57 800,-426.57"/>
<text text-anchor="middle" x="741.5" y="-414.57" font-family="Helvetica,sans-Serif" font-size="10.00">ie_parse_one_tensor</text>
</a>
</g>
</g>
<!-- Node1&#45;&gt;Node10 -->
<g id="edge10_Node000001_Node000010" class="edge">
<title>Node1&#45;&gt;Node10</title>
<g id="a_edge10_Node000001_Node000010"><a xlink:title=" ">
<path fill="none" stroke="#63b8ff" d="M1465.81,-342.32C1456.48,-371.22 1435.52,-426.26 1402,-462.07 1337.07,-531.43 1312.52,-570.07 1217.5,-570.07 1217.5,-570.07 1217.5,-570.07 1056.5,-570.07 955.17,-570.07 923.67,-562.88 836,-512.07 796.96,-489.44 763.14,-446.16 749.25,-426.83"/>
<polygon fill="#63b8ff" stroke="#63b8ff" points="1469.2,-343.2 1468.82,-332.61 1462.52,-341.13 1469.2,-343.2"/>
</a>
</g>
</g>
<!-- Node11 -->
<g id="Node000011" class="node">
<title>Node11</title>
<g id="a_Node000011"><a xlink:href="weights__dedup_8c.html#a1eaf38d57abdd040f9c40e2e3ea1525c" target="_top" xlink:title=" ">
<polygon fill="white" stroke="#666666" points="645,-312.57 515,-312.57 515,-293.57 645,-293.57 645,-312.57"/>
<text text-anchor="middle" x="580" y="-300.57" font-family="Helvetica,sans-Serif" font-size="10.00">ie_parse_tensors_array</text>
</a>
</g>
</g>
<!-- Node1&#45;&gt;Node11 -->
<g id="edge13_Node000001_Node000011" class="edge">
<title>Node1&#45;&gt;Node11</title>
<g id="a_edge13_Node000001_Node000011"><a xlink:title=" ">
<path fill="none" stroke="#63b8ff" d="M1427.76,-326.7C1419.23,-327.27 1410.34,-327.77 1402,-328.07 1362.03,-329.5 1352,-328.38 1312,-328.07 1170.65,-326.96 1135.28,-327.6 994,-323.07 870.41,-319.11 726.16,-311.42 645,-306.82"/>
<polygon fill="#63b8ff" stroke="#63b8ff" points="1428.22,-330.17 1437.94,-325.97 1427.72,-323.19 1428.22,-330.17"/>
</a>
</g>
</g>
<!-- Node12 -->
<g id="Node000012" class="node">
<title>Node12</title>
<g id="a_Node000012"><a xlink:href="weights__dedup_8c.html#ae0494f541a190a9ecf82c11c5eb22952" target="_top" xlink:title=" ">
<polygon fill="white" stroke="#666666" points="1121,-199.57 994,-199.57 994,-180.57 1121,-180.57 1121,-199.57"/>
<text text-anchor="middle" x="1057.5" y="-187.57" font-family="Helvetica,sans-Serif" font-size="10.00">js_find_member_value</text>
</a>
</g>
</g>
<!-- Node1&#45;&gt;Node12 -->
<g id="edge14_Node000001_Node000012" class="edge">
<title>Node1&#45;&gt;Node12</title>
<g id="a_edge14_Node000001_Node000012"><a xlink:title=" ">
<path fill="none" stroke="#63b8ff" d="M1469.7,-303.13C1465.16,-263.63 1449.93,-174.54 1402,-120.07 1360.77,-73.22 1336.79,-72.21 1276,-58.07 1224.49,-46.08 1204.28,-34.36 1157,-58.07 1104.09,-84.6 1072.34,-154.53 1062.13,-180.33"/>
<polygon fill="#63b8ff" stroke="#63b8ff" points="1466.24,-303.72 1470.75,-313.3 1473.2,-302.99 1466.24,-303.72"/>
</a>
</g>
</g>
<!-- Node14 -->
<g id="Node000014" class="node">
<title>Node14</title>
<g id="a_Node000014"><a xlink:href="weights__dedup_8c.html#ac65e64ed76368c21cf76399a4eed1b90" target="_top" xlink:title=" ">
<polygon fill="white" stroke="#666666" points="945.5,-502.57 848.5,-502.57 848.5,-483.57 945.5,-483.57 945.5,-502.57"/>
<text text-anchor="middle" x="897" y="-490.57" font-family="Helvetica,sans-Serif" font-size="10.00">js_parse_blobref</text>
</a>
</g>
</g>
<!-- Node1&#45;&gt;Node14 -->
<g id="edge26_Node000001_Node000014" class="edge">
<title>Node1&#45;&gt;Node14</title>
<g id="a_edge26_Node000001_Node000014"><a xlink:title=" ">
<path fill="none" stroke="#63b8ff" d="M1464.25,-342.08C1454.12,-365.94 1433.37,-406.26 1402,-427.07 1258.61,-522.2 1041.24,-510.7 945.79,-499.82"/>
<polygon fill="#63b8ff" stroke="#63b8ff" points="1467.55,-343.27 1468.05,-332.69 1461.06,-340.65 1467.55,-343.27"/>
</a>
</g>
</g>
<!-- Node17 -->
<g id="Node000017" class="node">
<title>Node17</title>
<g id="a_Node000017"><a xlink:href="weights__dedup_8c.html#a080768f8631e237e2467fc47a7d4d6a0" target="_top" xlink:title=" ">
<polygon fill="white" stroke="#666666" points="1395.5,-237.57 1318.5,-237.57 1318.5,-218.57 1395.5,-218.57 1395.5,-237.57"/>
<text text-anchor="middle" x="1357" y="-225.57" font-family="Helvetica,sans-Serif" font-size="10.00">js_parse_i64</text>
</a>
</g>
</g>
<!-- Node1&#45;&gt;Node17 -->
<g id="edge27_Node000001_Node000017" class="edge">
<title>Node1&#45;&gt;Node17</title>
<g id="a_edge27_Node000001_Node000017"><a xlink:title=" ">
<path fill="none" stroke="#63b8ff" d="M1457.17,-305.74C1443.91,-290.41 1423.12,-268.05 1402,-252.07 1394.78,-246.61 1386.17,-241.62 1378.48,-237.63"/>
<polygon fill="#63b8ff" stroke="#63b8ff" points="1454.57,-308.09 1463.71,-313.45 1459.91,-303.56 1454.57,-308.09"/>
</a>
</g>
</g>
<!-- Node18 -->
<g id="Node000018" class="node">
<title>Node18</title>
<g id="a_Node000018"><a xlink:href="weights__dedup_8c.html#a176ff7ed51749363637a7ad5366cf4e9" target="_top" xlink:title=" ">
<polygon fill="white" stroke="#666666" points="1262.5,-85.57 1170.5,-85.57 1170.5,-66.57 1262.5,-66.57 1262.5,-85.57"/>
<text text-anchor="middle" x="1216.5" y="-73.57" font-family="Helvetica,sans-Serif" font-size="10.00">js_parse_shape</text>
</a>
</g>
</g>
<!-- Node1&#45;&gt;Node18 -->
<g id="edge42_Node000001_Node000018" class="edge">
<title>Node1&#45;&gt;Node18</title>
<g id="a_edge42_Node000001_Node000018"><a xlink:title=" ">
<path fill="none" stroke="#63b8ff" d="M1462.14,-304.16C1450.06,-280.74 1427.53,-240.24 1402,-210.07 1353.98,-153.32 1339.24,-139.15 1276,-100.07 1266.75,-94.36 1255.91,-89.47 1246.09,-85.63"/>
<polygon fill="#63b8ff" stroke="#63b8ff" points="1459.16,-306.01 1466.8,-313.35 1465.4,-302.85 1459.16,-306.01"/>
</a>
</g>
</g>
<!-- Node19 -->
<g id="Node000019" class="node">
<title>Node19</title>
<g id="a_Node000019"><a xlink:href="weights__dedup_8c.html#aec6b7531542a45304d1f17d108a6d2ea" target="_top" xlink:title=" ">
<polygon fill="white" stroke="#666666" points="1258,-313.57 1175,-313.57 1175,-294.57 1258,-294.57 1258,-313.57"/>
<text text-anchor="middle" x="1216.5" y="-301.57" font-family="Helvetica,sans-Serif" font-size="10.00">js_skip_value</text>
</a>
</g>
</g>
<!-- Node1&#45;&gt;Node19 -->
<g id="edge53_Node000001_Node000019" class="edge">
<title>Node1&#45;&gt;Node19</title>
<g id="a_edge53_Node000001_Node000019"><a xlink:title=" ">
<path fill="none" stroke="#63b8ff" d="M1427.75,-319.8C1380.09,-316.23 1304.47,-310.57 1258.09,-307.1"/>
<polygon fill="#63b8ff" stroke="#63b8ff" points="1427.54,-323.29 1437.77,-320.55 1428.06,-316.31 1427.54,-323.29"/>
</a>
</g>
</g>
<!-- Node20 -->
<g id="Node000020" class="node">
<title>Node20</title>
<g id="a_Node000020"><a xlink:href="weights__dedup_8c.html#aeb7fa9bc2ccc7b24ae16f647bcafb49b" target="_top" xlink:title=" ">
<polygon fill="white" stroke="#666666" points="1098,-313.57 1017,-313.57 1017,-294.57 1098,-294.57 1098,-313.57"/>
<text text-anchor="middle" x="1057.5" y="-301.57" font-family="Helvetica,sans-Serif" font-size="10.00">js_skip_array</text>
</a>
</g>
</g>
<!-- Node1&#45;&gt;Node20 -->
<g id="edge51_Node000001_Node000020" class="edge">
<title>Node1&#45;&gt;Node20</title>
<g id="a_edge51_Node000001_Node000020"><a xlink:title=" ">
<path fill="none" stroke="#63b8ff" d="M1427.84,-312.59C1419.29,-310.66 1410.38,-308.73 1402,-307.07 1294.8,-285.82 1265.84,-276.21 1157,-286.07 1137.44,-287.84 1115.95,-291.56 1098.05,-295.15"/>
<polygon fill="#63b8ff" stroke="#63b8ff" points="1427.12,-316.01 1437.65,-314.84 1428.69,-309.19 1427.12,-316.01"/>
</a>
</g>
</g>
<!-- Node21 -->
<g id="Node000021" class="node">
<title>Node21</title>
<g id="a_Node000021"><a xlink:href="weights__dedup_8c.html#ae1e5c9a54a8c0312241d17afd01c40a0" target="_top" xlink:title=" ">
<polygon fill="white" stroke="#666666" points="1100.5,-427.57 1014.5,-427.57 1014.5,-408.57 1100.5,-408.57 1100.5,-427.57"/>
<text text-anchor="middle" x="1057.5" y="-415.57" font-family="Helvetica,sans-Serif" font-size="10.00">js_skip_object</text>
</a>
</g>
</g>
<!-- Node1&#45;&gt;Node21 -->
<g id="edge52_Node000001_Node000021" class="edge">
<title>Node1&#45;&gt;Node21</title>
<g id="a_edge52_Node000001_Node000021"><a xlink:title=" ">
<path fill="none" stroke="#63b8ff" d="M1460.44,-341.24C1448.44,-359.2 1427.55,-385.83 1402,-399.07 1304.03,-449.84 1168.56,-437.23 1100.75,-426.27"/>
<polygon fill="#63b8ff" stroke="#63b8ff" points="1463.42,-343.07 1465.88,-332.77 1457.53,-339.29 1463.42,-343.07"/>
</a>
</g>
</g>
<!-- Node22 -->
<g id="Node000022" class="node">
<title>Node22</title>
<g id="a_Node000022"><a xlink:href="weights__dedup_8c.html#a7e3b6f5b10e0d8d68272d2e80523813b" target="_top" xlink:title=" ">
<polygon fill="white" stroke="#666666" points="1402,-389.57 1312,-389.57 1312,-370.57 1402,-370.57 1402,-389.57"/>
<text text-anchor="middle" x="1357" y="-377.57" font-family="Helvetica,sans-Serif" font-size="10.00">js_parse_string</text>
</a>
</g>
</g>
<!-- Node1&#45;&gt;Node22 -->
<g id="edge43_Node000001_Node000022" class="edge">
<title>Node1&#45;&gt;Node22</title>
<g id="a_edge43_Node000001_Node000022"><a xlink:title=" ">
<path fill="none" stroke="#63b8ff" d="M1443.55,-337.11C1422.87,-347.49 1395.25,-361.36 1377.06,-370.5"/>
<polygon fill="#63b8ff" stroke="#63b8ff" points="1445.14,-340.22 1452.5,-332.61 1442,-333.97 1445.14,-340.22"/>
</a>
</g>
</g>
<!-- Node3 -->
<g id="Node000003" class="node">
<title>Node3</title>
<g id="a_Node000003"><a xlink:href="weights__dedup_8c.html#aa625b41ce2a24826f8cb464661ace8ec" target="_top" xlink:title="Open the dedup weights loader from a model directory.">
<polygon fill="white" stroke="#666666" points="477,-274.57 343,-274.57 343,-255.57 477,-255.57 477,-274.57"/>
<text text-anchor="middle" x="410" y="-262.57" font-family="Helvetica,sans-Serif" font-size="10.00">ie_weights_dedup_open</text>
</a>
</g>
</g>
<!-- Node2&#45;&gt;Node3 -->
<g id="edge2_Node000002_Node000003" class="edge">
<title>Node2&#45;&gt;Node3</title>
<g id="a_edge2_Node000002_Node000003"><a xlink:title=" ">
<path fill="none" stroke="#63b8ff" d="M1146.97,-608.07C1082.66,-608.07 983.81,-608.07 898,-608.07 898,-608.07 898,-608.07 740.5,-608.07 550.17,-608.07 435.46,-330 414.49,-274.6"/>
<polygon fill="#63b8ff" stroke="#63b8ff" points="1146.98,-611.57 1156.98,-608.07 1146.98,-604.57 1146.98,-611.57"/>
</a>
</g>
</g>
<!-- Node4 -->
<g id="Node000004" class="node">
<title>Node4</title>
<g id="a_Node000004"><a xlink:href="weights_8c.html#a522dac028ee37aae1307ffdb6d65ec1d" target="_top" xlink:title="Open and parse IEBIN v1 metadata and resolve the weights path.">
<polygon fill="white" stroke="#666666" points="307,-274.57 209,-274.57 209,-255.57 307,-255.57 307,-274.57"/>
<text text-anchor="middle" x="258" y="-262.57" font-family="Helvetica,sans-Serif" font-size="10.00">ie_weights_open</text>
</a>
</g>
</g>
<!-- Node3&#45;&gt;Node4 -->
<g id="edge3_Node000003_Node000004" class="edge">
<title>Node3&#45;&gt;Node4</title>
<g id="a_edge3_Node000003_Node000004"><a xlink:title=" ">
<path fill="none" stroke="#63b8ff" d="M332.66,-265.07C324.04,-265.07 315.43,-265.07 307.31,-265.07"/>
<polygon fill="#63b8ff" stroke="#63b8ff" points="332.77,-268.57 342.77,-265.07 332.77,-261.57 332.77,-268.57"/>
</a>
</g>
</g>
<!-- Node5 -->
<g id="Node000005" class="node">
<title>Node5</title>
<g id="a_Node000005"><a xlink:href="main__infer_8c.html#a3c04138a5bfe5d72780bb7e82a18e627" target="_top" xlink:title=" ">
<polygon fill="white" stroke="#666666" points="145.5,-311.57 104.5,-311.57 104.5,-292.57 145.5,-292.57 145.5,-311.57"/>
<text text-anchor="middle" x="125" y="-299.57" font-family="Helvetica,sans-Serif" font-size="10.00">main</text>
</a>
</g>
</g>
<!-- Node4&#45;&gt;Node5 -->
<g id="edge4_Node000004_Node000005" class="edge">
<title>Node4&#45;&gt;Node5</title>
<g id="a_edge4_Node000004_Node000005"><a xlink:title=" ">
<path fill="none" stroke="#63b8ff" d="M213.42,-277.38C190.54,-283.84 163.63,-291.44 145.78,-296.48"/>
<polygon fill="#63b8ff" stroke="#63b8ff" points="214.59,-280.68 223.26,-274.6 212.69,-273.95 214.59,-280.68"/>
</a>
</g>
</g>
<!-- Node6 -->
<g id="Node000006" class="node">
<title>Node6</title>
<g id="a_Node000006"><a xlink:href="test__weights_8c.html#a840291bc02cba5474a4cb46a9b9566fe" target="_top" xlink:title="Main test entrypoint.">
<polygon fill="white" stroke="#666666" points="145.5,-274.57 104.5,-274.57 104.5,-255.57 145.5,-255.57 145.5,-274.57"/>
<text text-anchor="middle" x="125" y="-262.57" font-family="Helvetica,sans-Serif" font-size="10.00">main</text>
</a>
</g>
</g>
<!-- Node4&#45;&gt;Node6 -->
<g id="edge5_Node000004_Node000006" class="edge">
<title>Node4&#45;&gt;Node6</title>
<g id="a_edge5_Node000004_Node000006"><a xlink:title=" ">
<path fill="none" stroke="#63b8ff" d="M198.79,-265.07C179.71,-265.07 159.79,-265.07 145.63,-265.07"/>
<polygon fill="#63b8ff" stroke="#63b8ff" points="198.96,-268.57 208.96,-265.07 198.96,-261.57 198.96,-268.57"/>
</a>
</g>
</g>
<!-- Node7 -->
<g id="Node000007" class="node">
<title>Node7</title>
<g id="a_Node000007"><a xlink:href="test__dedup__loader_8c.html#a73dca7f77cd9da376bc14e888330d88f" target="_top" xlink:title=" ">
<polygon fill="white" stroke="#666666" points="173,-237.57 77,-237.57 77,-218.57 173,-218.57 173,-237.57"/>
<text text-anchor="middle" x="125" y="-225.57" font-family="Helvetica,sans-Serif" font-size="10.00">open_and_touch</text>
</a>
</g>
</g>
<!-- Node4&#45;&gt;Node7 -->
<g id="edge6_Node000004_Node000007" class="edge">
<title>Node4&#45;&gt;Node7</title>
<g id="a_edge6_Node000004_Node000007"><a xlink:title=" ">
<path fill="none" stroke="#63b8ff" d="M213.36,-252.74C196.01,-247.84 176.35,-242.29 160.08,-237.69"/>
<polygon fill="#63b8ff" stroke="#63b8ff" points="212.69,-256.19 223.26,-255.54 214.59,-249.45 212.69,-256.19"/>
</a>
</g>
</g>
<!-- Node8 -->
<g id="Node000008" class="node">
<title>Node8</title>
<g id="a_Node000008"><a xlink:href="test__dedup__loader_8c.html#a3c04138a5bfe5d72780bb7e82a18e627" target="_top" xlink:title=" ">
<polygon fill="white" stroke="#666666" points="41,-237.57 0,-237.57 0,-218.57 41,-218.57 41,-237.57"/>
<text text-anchor="middle" x="20.5" y="-225.57" font-family="Helvetica,sans-Serif" font-size="10.00">main</text>
</a>
</g>
</g>
<!-- Node7&#45;&gt;Node8 -->
<g id="edge7_Node000007_Node000008" class="edge">
<title>Node7&#45;&gt;Node8</title>
<g id="a_edge7_Node000007_Node000008"><a xlink:title=" ">
<path fill="none" stroke="#63b8ff" d="M66.87,-228.07C57.62,-228.07 48.63,-228.07 41.13,-228.07"/>
<polygon fill="#63b8ff" stroke="#63b8ff" points="66.95,-231.57 76.95,-228.07 66.95,-224.57 66.95,-231.57"/>
</a>
</g>
</g>
<!-- Node9&#45;&gt;Node3 -->
<g id="edge9_Node000009_Node000003" class="edge">
<title>Node9&#45;&gt;Node3</title>
<g id="a_edge9_Node000009_Node000003"><a xlink:title=" ">
<path fill="none" stroke="#63b8ff" d="M540.75,-202.07C531.58,-205.44 521.87,-209.21 513,-213.07 482.56,-226.3 448.43,-244.4 428.37,-255.38"/>
<polygon fill="#63b8ff" stroke="#63b8ff" points="542.21,-205.27 550.44,-198.59 539.84,-198.68 542.21,-205.27"/>
</a>
</g>
</g>
<!-- Node10&#45;&gt;Node11 -->
<g id="edge11_Node000010_Node000011" class="edge">
<title>Node10&#45;&gt;Node11</title>
<g id="a_edge11_Node000010_Node000011"><a xlink:title=" ">
<path fill="none" stroke="#63b8ff" d="M719,-401.7C685.64,-377.86 622.37,-332.64 594.62,-312.81"/>
<polygon fill="#63b8ff" stroke="#63b8ff" points="717,-404.58 727.18,-407.54 721.08,-398.88 717,-404.58"/>
</a>
</g>
</g>
<!-- Node11&#45;&gt;Node3 -->
<g id="edge12_Node000011_Node000003" class="edge">
<title>Node11&#45;&gt;Node3</title>
<g id="a_edge12_Node000011_Node000003"><a xlink:title=" ">
<path fill="none" stroke="#63b8ff" d="M526.72,-291.24C503.04,-285.89 475.41,-279.64 453.09,-274.59"/>
<polygon fill="#63b8ff" stroke="#63b8ff" points="526.08,-294.69 536.61,-293.48 527.63,-287.86 526.08,-294.69"/>
</a>
</g>
</g>
<!-- Node12&#45;&gt;Node3 -->
<g id="edge19_Node000012_Node000003" class="edge">
<title>Node12&#45;&gt;Node3</title>
<g id="a_edge19_Node000012_Node000003"><a xlink:title=" ">
<path fill="none" stroke="#63b8ff" d="M983.83,-199.81C975.13,-200.93 966.37,-202.04 958,-203.07 784.64,-224.33 580.04,-246.83 477.14,-257.97"/>
<polygon fill="#63b8ff" stroke="#63b8ff" points="984.53,-203.25 993.99,-198.49 983.63,-196.31 984.53,-203.25"/>
</a>
</g>
</g>
<!-- Node12&#45;&gt;Node9 -->
<g id="edge17_Node000012_Node000009" class="edge">
<title>Node12&#45;&gt;Node9</title>
<g id="a_edge17_Node000012_Node000009"><a xlink:title=" ">
<path fill="none" stroke="#63b8ff" d="M983.82,-189.92C892.13,-189.72 735.76,-189.39 647.23,-189.21"/>
<polygon fill="#63b8ff" stroke="#63b8ff" points="983.84,-193.42 993.85,-189.94 983.86,-186.42 983.84,-193.42"/>
</a>
</g>
</g>
<!-- Node12&#45;&gt;Node10 -->
<g id="edge18_Node000012_Node000010" class="edge">
<title>Node12&#45;&gt;Node10</title>
<g id="a_edge18_Node000012_Node000010"><a xlink:title=" ">
<path fill="none" stroke="#63b8ff" d="M1016.5,-203.28C1008.83,-206.41 1001.01,-210.03 994,-214.07 980.54,-221.83 802.09,-368.13 754.24,-407.42"/>
<polygon fill="#63b8ff" stroke="#63b8ff" points="1017.99,-206.46 1026.06,-199.59 1015.47,-199.93 1017.99,-206.46"/>
</a>
</g>
</g>
<!-- Node13 -->
<g id="Node000013" class="node">
<title>Node13</title>
<g id="a_Node000013"><a xlink:href="weights__dedup_8c.html#aff1829f796837ea285a63b43a0a2d485" target="_top" xlink:title=" ">
<polygon fill="white" stroke="#666666" points="799.5,-128.07 683.5,-128.07 683.5,-98.07 799.5,-98.07 799.5,-128.07"/>
<text text-anchor="start" x="691.5" y="-116.07" font-family="Helvetica,sans-Serif" font-size="10.00">ie_parse_iejson_one</text>
<text text-anchor="middle" x="741.5" y="-105.07" font-family="Helvetica,sans-Serif" font-size="10.00">_tensor</text>
</a>
</g>
</g>
<!-- Node12&#45;&gt;Node13 -->
<g id="edge15_Node000012_Node000013" class="edge">
<title>Node12&#45;&gt;Node13</title>
<g id="a_edge15_Node000012_Node000013"><a xlink:title=" ">
<path fill="none" stroke="#63b8ff" d="M1007.96,-178.17C951.73,-164.38 859.19,-141.68 799.57,-127.06"/>
<polygon fill="#63b8ff" stroke="#63b8ff" points="1007.14,-181.57 1017.68,-180.55 1008.8,-174.77 1007.14,-181.57"/>
</a>
</g>
</g>
<!-- Node12&#45;&gt;Node14 -->
<g id="edge20_Node000012_Node000014" class="edge">
<title>Node12&#45;&gt;Node14</title>
<g id="a_edge20_Node000012_Node000014"><a xlink:title=" ">
<path fill="none" stroke="#63b8ff" d="M1036.41,-206.15C1022.96,-217.76 1005.66,-234.44 994,-252.07 940.34,-333.21 908.89,-449 900.37,-483.2"/>
<polygon fill="#63b8ff" stroke="#63b8ff" points="1038.78,-208.73 1044.2,-199.62 1034.28,-203.37 1038.78,-208.73"/>
</a>
</g>
</g>
<!-- Node15 -->
<g id="Node000015" class="node">
<title>Node15</title>
<g id="a_Node000015"><a xlink:href="weights__dedup_8c.html#ace1eab87292a3ab28bc10e2a8741b84b" target="_top" xlink:title=" ">
<polygon fill="white" stroke="#666666" points="955,-122.57 839,-122.57 839,-103.57 955,-103.57 955,-122.57"/>
<text text-anchor="middle" x="897" y="-110.57" font-family="Helvetica,sans-Serif" font-size="10.00">js_read_str_member</text>
</a>
</g>
</g>
<!-- Node12&#45;&gt;Node15 -->
<g id="edge22_Node000012_Node000015" class="edge">
<title>Node12&#45;&gt;Node15</title>
<g id="a_edge22_Node000012_Node000015"><a xlink:title=" ">
<path fill="none" stroke="#63b8ff" d="M1016.5,-176.85C1008.83,-173.72 1001.01,-170.11 994,-166.07 976.19,-155.82 975.73,-147.44 958,-137.07 948.32,-131.4 937.04,-126.5 926.9,-122.63"/>
<polygon fill="#63b8ff" stroke="#63b8ff" points="1015.47,-180.2 1026.06,-180.54 1018,-173.67 1015.47,-180.2"/>
</a>
</g>
</g>
<!-- Node16 -->
<g id="Node000016" class="node">
<title>Node16</title>
<g id="a_Node000016"><a xlink:href="weights__dedup_8c.html#ad380703417334421d025a859a9a6e67e" target="_top" xlink:title=" ">
<polygon fill="white" stroke="#666666" points="958,-85.57 836,-85.57 836,-66.57 958,-66.57 958,-85.57"/>
<text text-anchor="middle" x="897" y="-73.57" font-family="Helvetica,sans-Serif" font-size="10.00">js_read_u64_member</text>
</a>
</g>
</g>
<!-- Node12&#45;&gt;Node16 -->
<g id="edge24_Node000012_Node000016" class="edge">
<title>Node12&#45;&gt;Node16</title>
<g id="a_edge24_Node000012_Node000016"><a xlink:title=" ">
<path fill="none" stroke="#63b8ff" d="M1039.36,-173.14C1012.42,-146.59 962.74,-97.89 958,-95.07 951.62,-91.27 944.39,-88.15 937.22,-85.61"/>
<polygon fill="#63b8ff" stroke="#63b8ff" points="1037.03,-175.76 1046.6,-180.29 1041.94,-170.77 1037.03,-175.76"/>
</a>
</g>
</g>
<!-- Node13&#45;&gt;Node9 -->
<g id="edge16_Node000013_Node000009" class="edge">
<title>Node13&#45;&gt;Node9</title>
<g id="a_edge16_Node000013_Node000009"><a xlink:title=" ">
<path fill="none" stroke="#63b8ff" d="M699.59,-132.56C668.12,-147.56 625.97,-167.64 601.32,-179.38"/>
<polygon fill="#63b8ff" stroke="#63b8ff" points="701.47,-135.54 708.99,-128.08 698.45,-129.23 701.47,-135.54"/>
</a>
</g>
</g>
<!-- Node14&#45;&gt;Node10 -->
<g id="edge21_Node000014_Node000010" class="edge">
<title>Node14&#45;&gt;Node10</title>
<g id="a_edge21_Node000014_Node000010"><a xlink:title=" ">
<path fill="none" stroke="#63b8ff" d="M860.66,-479.8C852.48,-476.49 843.86,-472.81 836,-469.07 807.99,-455.74 776.73,-437.67 758.39,-426.72"/>
<polygon fill="#63b8ff" stroke="#63b8ff" points="859.41,-483.07 870,-483.5 861.99,-476.56 859.41,-483.07"/>
</a>
</g>
</g>
<!-- Node15&#45;&gt;Node13 -->
<g id="edge23_Node000015_Node000013" class="edge">
<title>Node15&#45;&gt;Node13</title>
<g id="a_edge23_Node000015_Node000013"><a xlink:title=" ">
<path fill="none" stroke="#63b8ff" d="M828.82,-113.07C819.11,-113.07 809.2,-113.07 799.71,-113.07"/>
<polygon fill="#63b8ff" stroke="#63b8ff" points="828.84,-116.57 838.84,-113.07 828.84,-109.57 828.84,-116.57"/>
</a>
</g>
</g>
<!-- Node16&#45;&gt;Node13 -->
<g id="edge25_Node000016_Node000013" class="edge">
<title>Node16&#45;&gt;Node13</title>
<g id="a_edge25_Node000016_Node000013"><a xlink:title=" ">
<path fill="none" stroke="#63b8ff" d="M846.41,-88.02C831.46,-91.62 814.94,-95.61 799.55,-99.32"/>
<polygon fill="#63b8ff" stroke="#63b8ff" points="847.57,-91.34 856.47,-85.6 845.93,-84.54 847.57,-91.34"/>
</a>
</g>
</g>
<!-- Node17&#45;&gt;Node14 -->
<g id="edge28_Node000017_Node000014" class="edge">
<title>Node17&#45;&gt;Node14</title>
<g id="a_edge28_Node000017_Node000014"><a xlink:title=" ">
<path fill="none" stroke="#63b8ff" d="M1308.11,-229.73C1220.84,-233.71 1040.62,-246.6 994,-286.07 955.71,-318.49 979.03,-347.51 958,-393.07 941.88,-427.99 916.64,-466.16 904.69,-483.52"/>
<polygon fill="#63b8ff" stroke="#63b8ff" points="1308.44,-233.22 1318.28,-229.29 1308.13,-226.23 1308.44,-233.22"/>
</a>
</g>
</g>
<!-- Node17&#45;&gt;Node16 -->
<g id="edge32_Node000017_Node000016" class="edge">
<title>Node17&#45;&gt;Node16</title>
<g id="a_edge32_Node000017_Node000016"><a xlink:title=" ">
<path fill="none" stroke="#63b8ff" d="M1339.67,-211.08C1331.28,-202.24 1320.96,-191.19 1312,-181.07 1295.48,-162.41 1297.65,-150.41 1276,-138.07 1222.85,-107.77 1050.83,-88.99 958.27,-80.83"/>
<polygon fill="#63b8ff" stroke="#63b8ff" points="1337.3,-213.67 1346.74,-218.49 1342.37,-208.84 1337.3,-213.67"/>
</a>
</g>
</g>
<!-- Node17&#45;&gt;Node18 -->
<g id="edge29_Node000017_Node000018" class="edge">
<title>Node17&#45;&gt;Node18</title>
<g id="a_edge29_Node000017_Node000018"><a xlink:title=" ">
<path fill="none" stroke="#63b8ff" d="M1346.21,-209.43C1329.36,-177.92 1294.89,-116 1276,-100.07 1268.7,-93.91 1259.61,-89.17 1250.78,-85.59"/>
<polygon fill="#63b8ff" stroke="#63b8ff" points="1343.24,-211.3 1351.02,-218.49 1349.42,-208.02 1343.24,-211.3"/>
</a>
</g>
</g>
<!-- Node17&#45;&gt;Node19 -->
<g id="edge33_Node000017_Node000019" class="edge">
<title>Node17&#45;&gt;Node19</title>
<g id="a_edge33_Node000017_Node000019"><a xlink:title=" ">
<path fill="none" stroke="#63b8ff" d="M1329.66,-242.52C1301.83,-257.79 1258.76,-281.43 1234.9,-294.52"/>
<polygon fill="#63b8ff" stroke="#63b8ff" points="1331.38,-245.57 1338.46,-237.69 1328.01,-239.44 1331.38,-245.57"/>
</a>
</g>
</g>
<!-- Node18&#45;&gt;Node10 -->
<g id="edge31_Node000018_Node000010" class="edge">
<title>Node18&#45;&gt;Node10</title>
<g id="a_edge31_Node000018_Node000010"><a xlink:title=" ">
<path fill="none" stroke="#63b8ff" d="M1207.15,-95.37C1193.49,-124.58 1163.58,-179.71 1121,-209.07 1072.99,-242.17 1040.57,-206.96 994,-242.07 968.86,-261.02 980.77,-281.33 958,-303.07 902.12,-356.4 816.39,-391.63 771.77,-407.46"/>
<polygon fill="#63b8ff" stroke="#63b8ff" points="1210.51,-96.43 1211.43,-85.88 1204.13,-93.55 1210.51,-96.43"/>
</a>
</g>
</g>
<!-- Node18&#45;&gt;Node13 -->
<g id="edge30_Node000018_Node000013" class="edge">
<title>Node18&#45;&gt;Node13</title>
<g id="a_edge30_Node000018_Node000013"><a xlink:title=" ">
<path fill="none" stroke="#63b8ff" d="M1167.09,-64.38C1093.93,-48.8 951.49,-26.62 836,-58.07 807.65,-65.79 779.13,-84.52 761.18,-97.98"/>
<polygon fill="#63b8ff" stroke="#63b8ff" points="1166.43,-67.82 1176.94,-66.53 1167.92,-60.98 1166.43,-67.82"/>
</a>
</g>
</g>
<!-- Node19&#45;&gt;Node12 -->
<g id="edge34_Node000019_Node000012" class="edge">
<title>Node19&#45;&gt;Node12</title>
<g id="a_edge34_Node000019_Node000012"><a xlink:title=" ">
<path fill="none" stroke="#63b8ff" d="M1193.91,-288.39C1160.97,-264.47 1099.11,-219.56 1071.91,-199.81"/>
<polygon fill="#63b8ff" stroke="#63b8ff" points="1192.24,-291.5 1202.38,-294.54 1196.35,-285.84 1192.24,-291.5"/>
</a>
</g>
</g>
<!-- Node19&#45;&gt;Node20 -->
<g id="edge35_Node000019_Node000020" class="edge">
<title>Node19&#45;&gt;Node20</title>
<g id="a_edge35_Node000019_Node000020"><a xlink:title=" ">
<path fill="none" stroke="#63b8ff" d="M1164.37,-297.7C1142.84,-297.08 1118.16,-297.22 1098.05,-298.12"/>
<polygon fill="#63b8ff" stroke="#63b8ff" points="1164.54,-301.21 1174.66,-298.06 1164.79,-294.21 1164.54,-301.21"/>
</a>
</g>
</g>
<!-- Node19&#45;&gt;Node21 -->
<g id="edge37_Node000019_Node000021" class="edge">
<title>Node19&#45;&gt;Node21</title>
<g id="a_edge37_Node000019_Node000021"><a xlink:title=" ">
<path fill="none" stroke="#63b8ff" d="M1187.27,-319.24C1150.93,-343.2 1089.8,-388.26 1067.22,-408.42"/>
<polygon fill="#63b8ff" stroke="#63b8ff" points="1189.44,-322 1195.93,-313.63 1185.64,-316.13 1189.44,-322"/>
</a>
</g>
</g>
<!-- Node20&#45;&gt;Node19 -->
<g id="edge36_Node000020_Node000019" class="edge">
<title>Node20&#45;&gt;Node19</title>
<g id="a_edge36_Node000020_Node000019"><a xlink:title=" ">
<path fill="none" stroke="#63b8ff" d="M1108.26,-310.4C1129.65,-311.05 1154.36,-310.94 1174.66,-310.07"/>
<polygon fill="#63b8ff" stroke="#63b8ff" points="1108.17,-306.89 1098.05,-310.02 1107.91,-313.89 1108.17,-306.89"/>
</a>
</g>
</g>
<!-- Node21&#45;&gt;Node9 -->
<g id="edge38_Node000021_Node000009" class="edge">
<title>Node21&#45;&gt;Node9</title>
<g id="a_edge38_Node000021_Node000009"><a xlink:title=" ">
<path fill="none" stroke="#63b8ff" d="M1027.51,-404.11C939.3,-361.63 675.6,-234.63 600.91,-198.66"/>
<polygon fill="#63b8ff" stroke="#63b8ff" points="1026.15,-407.33 1036.67,-408.52 1029.18,-401.03 1026.15,-407.33"/>
</a>
</g>
</g>
<!-- Node21&#45;&gt;Node10 -->
<g id="edge39_Node000021_Node000010" class="edge">
<title>Node21&#45;&gt;Node10</title>
<g id="a_edge39_Node000021_Node000010"><a xlink:title=" ">
<path fill="none" stroke="#63b8ff" d="M1004.36,-426.25C989.43,-428.24 973.1,-430.08 958,-431.07 903.89,-434.62 890.07,-435.09 836,-431.07 823.23,-430.12 809.57,-428.45 796.73,-426.58"/>
<polygon fill="#63b8ff" stroke="#63b8ff" points="1005.01,-429.69 1014.44,-424.85 1004.05,-422.76 1005.01,-429.69"/>
</a>
</g>
</g>
<!-- Node21&#45;&gt;Node14 -->
<g id="edge40_Node000021_Node000014" class="edge">
<title>Node21&#45;&gt;Node14</title>
<g id="a_edge40_Node000021_Node000014"><a xlink:title=" ">
<path fill="none" stroke="#63b8ff" d="M1017.1,-431.29C1009.27,-434.44 1001.23,-438.07 994,-442.07 976.5,-451.75 975.44,-459.27 958,-469.07 948.02,-474.67 936.47,-479.62 926.18,-483.55"/>
<polygon fill="#63b8ff" stroke="#63b8ff" points="1018.41,-434.53 1026.49,-427.68 1015.9,-428 1018.41,-434.53"/>
</a>
</g>
</g>
<!-- Node21&#45;&gt;Node19 -->
<g id="edge41_Node000021_Node000019" class="edge">
<title>Node21&#45;&gt;Node19</title>
<g id="a_edge41_Node000021_Node000019"><a xlink:title=" ">
<path fill="none" stroke="#63b8ff" d="M1086.68,-402.93C1122.92,-379.04 1183.89,-334.11 1206.61,-313.86"/>
<polygon fill="#63b8ff" stroke="#63b8ff" points="1084.54,-400.15 1078.04,-408.52 1088.34,-406.03 1084.54,-400.15"/>
</a>
</g>
</g>
<!-- Node22&#45;&gt;Node2 -->
<g id="edge44_Node000022_Node000002" class="edge">
<title>Node22&#45;&gt;Node2</title>
<g id="a_edge44_Node000022_Node000002"><a xlink:title=" ">
<path fill="none" stroke="#63b8ff" d="M1344.99,-398.2C1317.09,-444.12 1244.37,-563.83 1223.3,-598.52"/>
<polygon fill="#63b8ff" stroke="#63b8ff" points="1348.02,-399.94 1350.23,-389.57 1342.04,-396.3 1348.02,-399.94"/>
</a>
</g>
</g>
<!-- Node22&#45;&gt;Node10 -->
<g id="edge45_Node000022_Node000010" class="edge">
<title>Node22&#45;&gt;Node10</title>
<g id="a_edge45_Node000022_Node000010"><a xlink:title=" ">
<path fill="none" stroke="#63b8ff" d="M1301.95,-382.85C1231.18,-386.53 1103.28,-393.36 994,-400.07 927.5,-404.15 851.14,-409.39 800.17,-412.97"/>
<polygon fill="#63b8ff" stroke="#63b8ff" points="1302.16,-386.34 1311.97,-382.33 1301.8,-379.35 1302.16,-386.34"/>
</a>
</g>
</g>
<!-- Node22&#45;&gt;Node12 -->
<g id="edge46_Node000022_Node000012" class="edge">
<title>Node22&#45;&gt;Node12</title>
<g id="a_edge46_Node000022_Node000012"><a xlink:title=" ">
<path fill="none" stroke="#63b8ff" d="M1344.21,-361.78C1330.1,-341.09 1304.75,-307.51 1276,-286.07 1217.76,-242.65 1136.8,-213.55 1091.88,-199.61"/>
<polygon fill="#63b8ff" stroke="#63b8ff" points="1341.42,-363.9 1349.87,-370.28 1347.25,-360.02 1341.42,-363.9"/>
</a>
</g>
</g>
<!-- Node22&#45;&gt;Node14 -->
<g id="edge47_Node000022_Node000014" class="edge">
<title>Node22&#45;&gt;Node14</title>
<g id="a_edge47_Node000022_Node000014"><a xlink:title=" ">
<path fill="none" stroke="#63b8ff" d="M1327.76,-394.15C1312.69,-401.22 1293.66,-409.45 1276,-415.07 1159.94,-451.98 1018.15,-475.8 945.66,-486.51"/>
<polygon fill="#63b8ff" stroke="#63b8ff" points="1329.53,-397.19 1337.04,-389.71 1326.51,-390.87 1329.53,-397.19"/>
</a>
</g>
</g>
<!-- Node22&#45;&gt;Node15 -->
<g id="edge48_Node000022_Node000015" class="edge">
<title>Node22&#45;&gt;Node15</title>
<g id="a_edge48_Node000022_Node000015"><a xlink:title=" ">
<path fill="none" stroke="#63b8ff" d="M1351.7,-360.26C1343.26,-326.12 1321.25,-256.21 1276,-218.07 1182.91,-139.61 1035.53,-119.53 955.06,-114.55"/>
<polygon fill="#63b8ff" stroke="#63b8ff" points="1348.38,-361.42 1354.06,-370.37 1355.19,-359.83 1348.38,-361.42"/>
</a>
</g>
</g>
<!-- Node22&#45;&gt;Node19 -->
<g id="edge50_Node000022_Node000019" class="edge">
<title>Node22&#45;&gt;Node19</title>
<g id="a_edge50_Node000022_Node000019"><a xlink:title=" ">
<path fill="none" stroke="#63b8ff" d="M1329.66,-365.61C1301.83,-350.35 1258.76,-326.71 1234.9,-313.62"/>
<polygon fill="#63b8ff" stroke="#63b8ff" points="1328.01,-368.7 1338.46,-370.44 1331.38,-362.56 1328.01,-368.7"/>
</a>
</g>
</g>
<!-- Node22&#45;&gt;Node21 -->
<g id="edge49_Node000022_Node000021" class="edge">
<title>Node22&#45;&gt;Node21</title>
<g id="a_edge49_Node000022_Node000021"><a xlink:title=" ">
<path fill="none" stroke="#63b8ff" d="M1301.7,-390.05C1293.12,-391.49 1284.33,-392.88 1276,-394.07 1215.26,-402.73 1144.6,-410.01 1100.7,-414.21"/>
<polygon fill="#63b8ff" stroke="#63b8ff" points="1302.38,-393.48 1311.65,-388.35 1301.2,-386.58 1302.38,-393.48"/>
</a>
</g>
</g>
</g>
</svg>

<g id="navigator" transform="translate(0 0)" fill="#404254">
  <rect fill="#f2f5e9" fill-opacity="0.5" stroke="#606060" stroke-width=".5" x="0" y="0" width="60" height="60"/>
  <use id="zoomplus" xlink:href="#zoomPlus" x="17" y="9" onmousedown="handleZoom(evt,'in')"/>
  <use id="zoomminus" xlink:href="#zoomMin" x="42" y="9" onmousedown="handleZoom(evt,'out')"/>
  <use id="reset" xlink:href="#resetDef" x="30" y="36" onmousedown="handleReset()"/>
   <use id="arrowup" xlink:href="#arrowUp" x="0" y="0" onmousedown="handlePan(0,-1)"/>
  <use id="arrowright" xlink:href="#arrowRight" x="0" y="0" onmousedown="handlePan(1,0)"/>
  <use id="arrowdown" xlink:href="#arrowDown" x="0" y="0" onmousedown="handlePan(0,1)"/>
  <use id="arrowleft" xlink:href="#arrowLeft" x="0" y="0" onmousedown="handlePan(-1,0)"/>
</g>
<svg viewBox="0 0 15 15" width="100%" height="30px" preserveAspectRatio="xMaxYMin meet">
 <g id="arrow_out" transform="scale(0.3 0.3)">
  <a xlink:href="weights__dedup_8c_a21501177295cc06eaf7d981f7d437c0c_icgraph_org.svg" target="_base">
   <rect id="button" ry="5" rx="5" y="6" x="6" height="38" width="38"
        fill="#f2f5e9" fill-opacity="0.5" stroke="#606060" stroke-width="1.0"/>
   <path id="arrow"
     d="M 11.500037,31.436501 C 11.940474,20.09759 22.043105,11.32322 32.158766,21.979434 L 37.068811,17.246167 C 37.068811,17.246167 37.088388,32 37.088388,32 L 22.160133,31.978069 C 22.160133,31.978069 26.997745,27.140456 26.997745,27.140456 C 18.528582,18.264221 13.291696,25.230495 11.500037,31.436501 z"
     style="fill:#404040;"/>
  </a>
 </g>
</svg>

<style type='text/css'>
<![CDATA[
[data-mouse-over-selected='false'] { opacity: 0.7; }
[data-mouse-over-selected='true']  { opacity: 1.0; }
]]>
</style>
<script type="application/ecmascript"><![CDATA[
document.addEventListener('DOMContentLoaded', (event) => {
  highlightEdges();
  highlightAdjacentNodes();
});
]]></script>
</svg>
