<?xml version="1.0" encoding="UTF-8" standalone="no"?>
<!DOCTYPE svg PUBLIC "-//W3C//DTD SVG 1.1//EN"
 "http://www.w3.org/Graphics/SVG/1.1/DTD/svg11.dtd">
<!-- Generated by graphviz version 2.43.0 (0)
 -->
<!-- Title: js_parse_i64 Pages: 1 -->
<!--zoomable 330 -->

<svg id="main" version="1.1" xmlns="http://www.w3.org/2000/svg" xmlns:xlink="http://www.w3.org/1999/xlink" xml:space="preserve" onload="init(evt)">
<style type="text/css"><![CDATA[
.node, .edge {opacity: 0.7;}
.node.selected, .edge.selected {opacity: 1;}
.edge:hover path { stroke: red; }
.edge:hover polygon { stroke: red; fill: red; }
]]></style>

<defs>
  <circle id="rim" cx="0" cy="0" r="7"/>
  <circle id="rim2" cx="0" cy="0" r="3.5"/>
  <g id="zoomPlus">
    <use xlink:href="#rim" fill="#404040"><set attributeName="fill" to="#808080" begin="zoomplus.mouseover" end="zoomplus.mouseout"/></use>
    <path d="M-4,0h8M0,-4v8" fill="none" stroke="white" stroke-width="1.5" pointer-events="none"/>
  </g>
  <g id="zoomMin">
    <use xlink:href="#rim" fill="#404040"><set attributeName="fill" to="#808080" begin="zoomminus.mouseover" end="zoomminus.mouseout"/></use>
    <path d="M-4,0h8" fill="none" stroke="white" stroke-width="1.5" pointer-events="none"/>
  </g>
  <g id="arrowUp" transform="translate(30 24)">
    <use xlink:href="#rim"/>
    <path pointer-events="none" fill="none" stroke="white" stroke-width="1.5" d="M0,-3.0v7 M-2.5,-0.5L0,-3.0L2.5,-0.5"/>
  </g>
  <g id="arrowRight" transform="rotate(90) translate(36 -43)">
    <use xlink:href="#rim"/>
    <path pointer-events="none" fill="none" stroke="white" stroke-width="1.5" d="M0,-3.0v7 M-2.5,-0.5L0,-3.0L2.5,-0.5"/>
  </g>
  <g id="arrowDown" transform="rotate(180) translate(-30 -48)">
    <use xlink:href="#rim"/>
    <path pointer-events="none" fill="none" stroke="white" stroke-width="1.5" d="M0,-3.0v7 M-2.5,-0.5L0,-3.0L2.5,-0.5"/>
  </g>
  <g id="arrowLeft" transform="rotate(270) translate(-36 17)">
    <use xlink:href="#rim"/>
    <path pointer-events="none" fill="none" stroke="white" stroke-width="1.5" d="M0,-3.0v7 M-2.5,-0.5L0,-3.0L2.5,-0.5"/>
  </g>
  <g id="resetDef">
    <use xlink:href="#rim2" fill="#404040"><set attributeName="fill" to="#808080" begin="reset.mouseover" end="reset.mouseout"/></use>
  </g>
</defs>
<script type="application/ecmascript">
var viewWidth = 1361;
var viewHeight = 330;
var sectionId = 'dynsection-68';
</script>
<script type="application/ecmascript" xlink:href="svg.min.js"/>
<svg id="graph" class="graph">
<g id="viewport">
<title>js_parse_i64</title>
<!-- Node1 -->
<g id="Node000001" class="node">
<title>Node1</title>
<g id="a_Node000001"><a xlink:title=" ">
<polygon fill="#999999" stroke="#666666" points="1353,-141 1276,-141 1276,-122 1353,-122 1353,-141"/>
<text text-anchor="middle" x="1314.5" y="-129" font-family="Helvetica,sans-Serif" font-size="10.00">js_parse_i64</text>
</a>
</g>
</g>
<!-- Node2 -->
<g id="Node000002" class="node">
<title>Node2</title>
<g id="a_Node000002"><a xlink:href="weights__dedup_8c.html#ac65e64ed76368c21cf76399a4eed1b90" target="_top" xlink:title=" ">
<polygon fill="white" stroke="#666666" points="945.5,-283 848.5,-283 848.5,-264 945.5,-264 945.5,-283"/>
<text text-anchor="middle" x="897" y="-271" font-family="Helvetica,sans-Serif" font-size="10.00">js_parse_blobref</text>
</a>
</g>
</g>
<!-- Node1&#45;&gt;Node2 -->
<g id="edge1_Node000001_Node000002" class="edge">
<title>Node1&#45;&gt;Node2</title>
<g id="a_edge1_Node000001_Node000002"><a xlink:title=" ">
<path fill="none" stroke="#63b8ff" d="M1294.98,-147.63C1262.39,-174.95 1191.54,-229.66 1121,-253.5 1063,-273.1 991.96,-276.15 945.88,-275.6"/>
<polygon fill="#63b8ff" stroke="#63b8ff" points="1297.42,-150.15 1302.77,-141 1292.89,-144.82 1297.42,-150.15"/>
</a>
</g>
</g>
<!-- Node11 -->
<g id="Node000011" class="node">
<title>Node11</title>
<g id="a_Node000011"><a xlink:href="weights__dedup_8c.html#a176ff7ed51749363637a7ad5366cf4e9" target="_top" xlink:title=" ">
<polygon fill="white" stroke="#666666" points="943,-56 851,-56 851,-37 943,-37 943,-56"/>
<text text-anchor="middle" x="897" y="-44" font-family="Helvetica,sans-Serif" font-size="10.00">js_parse_shape</text>
</a>
</g>
</g>
<!-- Node1&#45;&gt;Node11 -->
<g id="edge10_Node000001_Node000011" class="edge">
<title>Node1&#45;&gt;Node11</title>
<g id="a_edge10_Node000001_Node000011"><a xlink:title=" ">
<path fill="none" stroke="#63b8ff" d="M1266,-121.78C1185.3,-105.27 1022.49,-71.97 943.31,-55.77"/>
<polygon fill="#63b8ff" stroke="#63b8ff" points="1265.4,-125.23 1275.89,-123.81 1266.8,-118.37 1265.4,-125.23"/>
</a>
</g>
</g>
<!-- Node14 -->
<g id="Node000014" class="node">
<title>Node14</title>
<g id="a_Node000014"><a xlink:href="weights__dedup_8c.html#ad380703417334421d025a859a9a6e67e" target="_top" xlink:title=" ">
<polygon fill="white" stroke="#666666" points="958,-19 836,-19 836,0 958,0 958,-19"/>
<text text-anchor="middle" x="897" y="-7" font-family="Helvetica,sans-Serif" font-size="10.00">js_read_u64_member</text>
</a>
</g>
</g>
<!-- Node1&#45;&gt;Node14 -->
<g id="edge15_Node000001_Node000014" class="edge">
<title>Node1&#45;&gt;Node14</title>
<g id="a_edge15_Node000001_Node000014"><a xlink:title=" ">
<path fill="none" stroke="#63b8ff" d="M1286.15,-117.14C1272.52,-110.33 1255.64,-102.41 1240,-96.5 1140.43,-58.87 1018.47,-32.24 950.39,-19.02"/>
<polygon fill="#63b8ff" stroke="#63b8ff" points="1284.94,-120.45 1295.44,-121.86 1288.11,-114.21 1284.94,-120.45"/>
</a>
</g>
</g>
<!-- Node15 -->
<g id="Node000015" class="node">
<title>Node15</title>
<g id="a_Node000015"><a xlink:href="weights__dedup_8c.html#aec6b7531542a45304d1f17d108a6d2ea" target="_top" xlink:title=" ">
<polygon fill="white" stroke="#666666" points="1240,-170 1157,-170 1157,-151 1240,-151 1240,-170"/>
<text text-anchor="middle" x="1198.5" y="-158" font-family="Helvetica,sans-Serif" font-size="10.00">js_skip_value</text>
</a>
</g>
</g>
<!-- Node1&#45;&gt;Node15 -->
<g id="edge17_Node000001_Node000015" class="edge">
<title>Node1&#45;&gt;Node15</title>
<g id="a_edge17_Node000001_Node000015"><a xlink:title=" ">
<path fill="none" stroke="#63b8ff" d="M1265.99,-143.58C1256.36,-146.04 1246.34,-148.58 1237.1,-150.93"/>
<polygon fill="#63b8ff" stroke="#63b8ff" points="1267.03,-146.93 1275.86,-141.08 1265.3,-140.15 1267.03,-146.93"/>
</a>
</g>
</g>
<!-- Node3 -->
<g id="Node000003" class="node">
<title>Node3</title>
<g id="a_Node000003"><a xlink:href="weights__dedup_8c.html#ac8435c15b639ac76b805cc23f609be12" target="_top" xlink:title=" ">
<polygon fill="white" stroke="#666666" points="800,-245 683,-245 683,-226 800,-226 800,-245"/>
<text text-anchor="middle" x="741.5" y="-233" font-family="Helvetica,sans-Serif" font-size="10.00">ie_parse_one_tensor</text>
</a>
</g>
</g>
<!-- Node2&#45;&gt;Node3 -->
<g id="edge2_Node000002_Node000003" class="edge">
<title>Node2&#45;&gt;Node3</title>
<g id="a_edge2_Node000002_Node000003"><a xlink:title=" ">
<path fill="none" stroke="#63b8ff" d="M847.36,-261.46C825.92,-256.15 801.08,-250 780.96,-245.02"/>
<polygon fill="#63b8ff" stroke="#63b8ff" points="846.72,-264.91 857.27,-263.91 848.4,-258.11 846.72,-264.91"/>
</a>
</g>
</g>
<!-- Node4 -->
<g id="Node000004" class="node">
<title>Node4</title>
<g id="a_Node000004"><a xlink:href="weights__dedup_8c.html#a1eaf38d57abdd040f9c40e2e3ea1525c" target="_top" xlink:title=" ">
<polygon fill="white" stroke="#666666" points="645,-244 515,-244 515,-225 645,-225 645,-244"/>
<text text-anchor="middle" x="580" y="-232" font-family="Helvetica,sans-Serif" font-size="10.00">ie_parse_tensors_array</text>
</a>
</g>
</g>
<!-- Node3&#45;&gt;Node4 -->
<g id="edge3_Node000003_Node000004" class="edge">
<title>Node3&#45;&gt;Node4</title>
<g id="a_edge3_Node000003_Node000004"><a xlink:title=" ">
<path fill="none" stroke="#63b8ff" d="M672.75,-235.08C663.63,-235.02 654.31,-234.96 645.26,-234.9"/>
<polygon fill="#63b8ff" stroke="#63b8ff" points="672.9,-238.58 682.92,-235.14 672.94,-231.58 672.9,-238.58"/>
</a>
</g>
</g>
<!-- Node5 -->
<g id="Node000005" class="node">
<title>Node5</title>
<g id="a_Node000005"><a xlink:href="weights__dedup_8c.html#aa625b41ce2a24826f8cb464661ace8ec" target="_top" xlink:title="Open the dedup weights loader from a model directory.">
<polygon fill="white" stroke="#666666" points="477,-207 343,-207 343,-188 477,-188 477,-207"/>
<text text-anchor="middle" x="410" y="-195" font-family="Helvetica,sans-Serif" font-size="10.00">ie_weights_dedup_open</text>
</a>
</g>
</g>
<!-- Node4&#45;&gt;Node5 -->
<g id="edge4_Node000004_Node000005" class="edge">
<title>Node4&#45;&gt;Node5</title>
<g id="a_edge4_Node000004_Node000005"><a xlink:title=" ">
<path fill="none" stroke="#63b8ff" d="M525.78,-222.78C502.78,-217.71 476.2,-211.86 454.41,-207.06"/>
<polygon fill="#63b8ff" stroke="#63b8ff" points="525.22,-226.24 535.74,-224.97 526.72,-219.4 525.22,-226.24"/>
</a>
</g>
</g>
<!-- Node6 -->
<g id="Node000006" class="node">
<title>Node6</title>
<g id="a_Node000006"><a xlink:href="weights_8c.html#a522dac028ee37aae1307ffdb6d65ec1d" target="_top" xlink:title="Open and parse IEBIN v1 metadata and resolve the weights path.">
<polygon fill="white" stroke="#666666" points="307,-207 209,-207 209,-188 307,-188 307,-207"/>
<text text-anchor="middle" x="258" y="-195" font-family="Helvetica,sans-Serif" font-size="10.00">ie_weights_open</text>
</a>
</g>
</g>
<!-- Node5&#45;&gt;Node6 -->
<g id="edge5_Node000005_Node000006" class="edge">
<title>Node5&#45;&gt;Node6</title>
<g id="a_edge5_Node000005_Node000006"><a xlink:title=" ">
<path fill="none" stroke="#63b8ff" d="M332.66,-197.5C324.04,-197.5 315.43,-197.5 307.31,-197.5"/>
<polygon fill="#63b8ff" stroke="#63b8ff" points="332.77,-201 342.77,-197.5 332.77,-194 332.77,-201"/>
</a>
</g>
</g>
<!-- Node7 -->
<g id="Node000007" class="node">
<title>Node7</title>
<g id="a_Node000007"><a xlink:href="main__infer_8c.html#a3c04138a5bfe5d72780bb7e82a18e627" target="_top" xlink:title=" ">
<polygon fill="white" stroke="#666666" points="145.5,-244 104.5,-244 104.5,-225 145.5,-225 145.5,-244"/>
<text text-anchor="middle" x="125" y="-232" font-family="Helvetica,sans-Serif" font-size="10.00">main</text>
</a>
</g>
</g>
<!-- Node6&#45;&gt;Node7 -->
<g id="edge6_Node000006_Node000007" class="edge">
<title>Node6&#45;&gt;Node7</title>
<g id="a_edge6_Node000006_Node000007"><a xlink:title=" ">
<path fill="none" stroke="#63b8ff" d="M213.42,-209.81C190.54,-216.27 163.63,-223.87 145.78,-228.91"/>
<polygon fill="#63b8ff" stroke="#63b8ff" points="214.59,-213.11 223.26,-207.03 212.69,-206.38 214.59,-213.11"/>
</a>
</g>
</g>
<!-- Node8 -->
<g id="Node000008" class="node">
<title>Node8</title>
<g id="a_Node000008"><a xlink:href="test__weights_8c.html#a840291bc02cba5474a4cb46a9b9566fe" target="_top" xlink:title="Main test entrypoint.">
<polygon fill="white" stroke="#666666" points="145.5,-207 104.5,-207 104.5,-188 145.5,-188 145.5,-207"/>
<text text-anchor="middle" x="125" y="-195" font-family="Helvetica,sans-Serif" font-size="10.00">main</text>
</a>
</g>
</g>
<!-- Node6&#45;&gt;Node8 -->
<g id="edge7_Node000006_Node000008" class="edge">
<title>Node6&#45;&gt;Node8</title>
<g id="a_edge7_Node000006_Node000008"><a xlink:title=" ">
<path fill="none" stroke="#63b8ff" d="M198.79,-197.5C179.71,-197.5 159.79,-197.5 145.63,-197.5"/>
<polygon fill="#63b8ff" stroke="#63b8ff" points="198.96,-201 208.96,-197.5 198.96,-194 198.96,-201"/>
</a>
</g>
</g>
<!-- Node9 -->
<g id="Node000009" class="node">
<title>Node9</title>
<g id="a_Node000009"><a xlink:href="test__dedup__loader_8c.html#a73dca7f77cd9da376bc14e888330d88f" target="_top" xlink:title=" ">
<polygon fill="white" stroke="#666666" points="173,-170 77,-170 77,-151 173,-151 173,-170"/>
<text text-anchor="middle" x="125" y="-158" font-family="Helvetica,sans-Serif" font-size="10.00">open_and_touch</text>
</a>
</g>
</g>
<!-- Node6&#45;&gt;Node9 -->
<g id="edge8_Node000006_Node000009" class="edge">
<title>Node6&#45;&gt;Node9</title>
<g id="a_edge8_Node000006_Node000009"><a xlink:title=" ">
<path fill="none" stroke="#63b8ff" d="M213.36,-185.17C196.01,-180.27 176.35,-174.72 160.08,-170.12"/>
<polygon fill="#63b8ff" stroke="#63b8ff" points="212.69,-188.62 223.26,-187.97 214.59,-181.89 212.69,-188.62"/>
</a>
</g>
</g>
<!-- Node10 -->
<g id="Node000010" class="node">
<title>Node10</title>
<g id="a_Node000010"><a xlink:href="test__dedup__loader_8c.html#a3c04138a5bfe5d72780bb7e82a18e627" target="_top" xlink:title=" ">
<polygon fill="white" stroke="#666666" points="41,-170 0,-170 0,-151 41,-151 41,-170"/>
<text text-anchor="middle" x="20.5" y="-158" font-family="Helvetica,sans-Serif" font-size="10.00">main</text>
</a>
</g>
</g>
<!-- Node9&#45;&gt;Node10 -->
<g id="edge9_Node000009_Node000010" class="edge">
<title>Node9&#45;&gt;Node10</title>
<g id="a_edge9_Node000009_Node000010"><a xlink:title=" ">
<path fill="none" stroke="#63b8ff" d="M66.87,-160.5C57.62,-160.5 48.63,-160.5 41.13,-160.5"/>
<polygon fill="#63b8ff" stroke="#63b8ff" points="66.95,-164 76.95,-160.5 66.95,-157 66.95,-164"/>
</a>
</g>
</g>
<!-- Node11&#45;&gt;Node3 -->
<g id="edge14_Node000011_Node000003" class="edge">
<title>Node11&#45;&gt;Node3</title>
<g id="a_edge14_Node000011_Node000003"><a xlink:title=" ">
<path fill="none" stroke="#63b8ff" d="M841.67,-60.5C839.68,-61.72 837.79,-63.05 836,-64.5 807.61,-87.5 760.56,-193.43 746.56,-225.97"/>
<polygon fill="#63b8ff" stroke="#63b8ff" points="843.51,-63.49 850.79,-55.79 840.3,-57.27 843.51,-63.49"/>
</a>
</g>
</g>
<!-- Node12 -->
<g id="Node000012" class="node">
<title>Node12</title>
<g id="a_Node000012"><a xlink:href="weights__dedup_8c.html#aff1829f796837ea285a63b43a0a2d485" target="_top" xlink:title=" ">
<polygon fill="white" stroke="#666666" points="799.5,-98.5 683.5,-98.5 683.5,-68.5 799.5,-68.5 799.5,-98.5"/>
<text text-anchor="start" x="691.5" y="-86.5" font-family="Helvetica,sans-Serif" font-size="10.00">ie_parse_iejson_one</text>
<text text-anchor="middle" x="741.5" y="-75.5" font-family="Helvetica,sans-Serif" font-size="10.00">_tensor</text>
</a>
</g>
</g>
<!-- Node11&#45;&gt;Node12 -->
<g id="edge11_Node000011_Node000012" class="edge">
<title>Node11&#45;&gt;Node12</title>
<g id="a_edge11_Node000011_Node000012"><a xlink:title=" ">
<path fill="none" stroke="#63b8ff" d="M846.41,-58.45C831.46,-62.06 814.94,-66.04 799.55,-69.75"/>
<polygon fill="#63b8ff" stroke="#63b8ff" points="847.57,-61.77 856.47,-56.03 845.93,-54.97 847.57,-61.77"/>
</a>
</g>
</g>
<!-- Node13 -->
<g id="Node000013" class="node">
<title>Node13</title>
<g id="a_Node000013"><a xlink:href="weights__dedup_8c.html#a3baac12d7191041beab3fc4508b94be7" target="_top" xlink:title=" ">
<polygon fill="white" stroke="#666666" points="647,-207 513,-207 513,-188 647,-188 647,-207"/>
<text text-anchor="middle" x="580" y="-195" font-family="Helvetica,sans-Serif" font-size="10.00">ie_parse_iejson_tensors</text>
</a>
</g>
</g>
<!-- Node12&#45;&gt;Node13 -->
<g id="edge12_Node000012_Node000013" class="edge">
<title>Node12&#45;&gt;Node13</title>
<g id="a_edge12_Node000012_Node000013"><a xlink:title=" ">
<path fill="none" stroke="#63b8ff" d="M710.97,-104.61C676.17,-129.48 619.86,-169.73 594.33,-187.97"/>
<polygon fill="#63b8ff" stroke="#63b8ff" points="713.22,-107.3 719.32,-98.64 709.15,-101.61 713.22,-107.3"/>
</a>
</g>
</g>
<!-- Node13&#45;&gt;Node5 -->
<g id="edge13_Node000013_Node000005" class="edge">
<title>Node13&#45;&gt;Node5</title>
<g id="a_edge13_Node000013_Node000005"><a xlink:title=" ">
<path fill="none" stroke="#63b8ff" d="M502.41,-197.5C493.99,-197.5 485.47,-197.5 477.19,-197.5"/>
<polygon fill="#63b8ff" stroke="#63b8ff" points="502.6,-201 512.6,-197.5 502.6,-194 502.6,-201"/>
</a>
</g>
</g>
<!-- Node14&#45;&gt;Node12 -->
<g id="edge16_Node000014_Node000012" class="edge">
<title>Node14&#45;&gt;Node12</title>
<g id="a_edge16_Node000014_Node000012"><a xlink:title=" ">
<path fill="none" stroke="#63b8ff" d="M849.14,-22.32C844.64,-23.92 840.2,-25.65 836,-27.5 810.21,-38.88 782.76,-55.98 764.33,-68.29"/>
<polygon fill="#63b8ff" stroke="#63b8ff" points="850.61,-25.52 858.99,-19.03 848.4,-18.88 850.61,-25.52"/>
</a>
</g>
</g>
<!-- Node16 -->
<g id="Node000016" class="node">
<title>Node16</title>
<g id="a_Node000016"><a xlink:href="weights__dedup_8c.html#ae0494f541a190a9ecf82c11c5eb22952" target="_top" xlink:title=" ">
<polygon fill="white" stroke="#666666" points="1121,-188 994,-188 994,-169 1121,-169 1121,-188"/>
<text text-anchor="middle" x="1057.5" y="-176" font-family="Helvetica,sans-Serif" font-size="10.00">js_find_member_value</text>
</a>
</g>
</g>
<!-- Node15&#45;&gt;Node16 -->
<g id="edge18_Node000015_Node000016" class="edge">
<title>Node15&#45;&gt;Node16</title>
<g id="a_edge18_Node000015_Node000016"><a xlink:title=" ">
<path fill="none" stroke="#63b8ff" d="M1146.92,-167.05C1138.53,-168.14 1129.75,-169.27 1121.1,-170.39"/>
<polygon fill="#63b8ff" stroke="#63b8ff" points="1147.45,-170.51 1156.92,-165.75 1146.56,-163.57 1147.45,-170.51"/>
</a>
</g>
</g>
<!-- Node18 -->
<g id="Node000018" class="node">
<title>Node18</title>
<g id="a_Node000018"><a xlink:href="weights__dedup_8c.html#aeb7fa9bc2ccc7b24ae16f647bcafb49b" target="_top" xlink:title=" ">
<polygon fill="white" stroke="#666666" points="1098,-151 1017,-151 1017,-132 1098,-132 1098,-151"/>
<text text-anchor="middle" x="1057.5" y="-139" font-family="Helvetica,sans-Serif" font-size="10.00">js_skip_array</text>
</a>
</g>
</g>
<!-- Node15&#45;&gt;Node18 -->
<g id="edge27_Node000015_Node000018" class="edge">
<title>Node15&#45;&gt;Node18</title>
<g id="a_edge27_Node000015_Node000018"><a xlink:title=" ">
<path fill="none" stroke="#63b8ff" d="M1158.64,-149.06C1139.74,-145.66 1117.06,-142.55 1098.07,-140.75"/>
<polygon fill="#63b8ff" stroke="#63b8ff" points="1158.22,-152.54 1168.7,-150.97 1159.53,-145.66 1158.22,-152.54"/>
</a>
</g>
</g>
<!-- Node19 -->
<g id="Node000019" class="node">
<title>Node19</title>
<g id="a_Node000019"><a xlink:href="weights__dedup_8c.html#ae1e5c9a54a8c0312241d17afd01c40a0" target="_top" xlink:title=" ">
<polygon fill="white" stroke="#666666" points="1100.5,-245 1014.5,-245 1014.5,-226 1100.5,-226 1100.5,-245"/>
<text text-anchor="middle" x="1057.5" y="-233" font-family="Helvetica,sans-Serif" font-size="10.00">js_skip_object</text>
</a>
</g>
</g>
<!-- Node15&#45;&gt;Node19 -->
<g id="edge29_Node000015_Node000019" class="edge">
<title>Node15&#45;&gt;Node19</title>
<g id="a_edge29_Node000015_Node000019"><a xlink:title=" ">
<path fill="none" stroke="#63b8ff" d="M1160.25,-174.54C1129.64,-189.64 1088.31,-212.69 1069.12,-225.97"/>
<polygon fill="#63b8ff" stroke="#63b8ff" points="1161.89,-177.63 1169.37,-170.13 1158.85,-171.33 1161.89,-177.63"/>
</a>
</g>
</g>
<!-- Node16&#45;&gt;Node2 -->
<g id="edge23_Node000016_Node000002" class="edge">
<title>Node16&#45;&gt;Node2</title>
<g id="a_edge23_Node000016_Node000002"><a xlink:title=" ">
<path fill="none" stroke="#63b8ff" d="M1029.65,-193.27C1018.32,-199.89 1005.19,-208.1 994,-216.5 976.64,-229.53 976.38,-237.95 958,-249.5 948.79,-255.29 937.94,-260.14 928.02,-263.93"/>
<polygon fill="#63b8ff" stroke="#63b8ff" points="1031.72,-196.11 1038.66,-188.11 1028.25,-190.04 1031.72,-196.11"/>
</a>
</g>
</g>
<!-- Node16&#45;&gt;Node3 -->
<g id="edge21_Node000016_Node000003" class="edge">
<title>Node16&#45;&gt;Node3</title>
<g id="a_edge21_Node000016_Node000003"><a xlink:title=" ">
<path fill="none" stroke="#63b8ff" d="M1023.02,-191.69C1004.19,-198.6 980.09,-206.63 958,-211.5 905.25,-223.14 843.92,-229.27 800.21,-232.41"/>
<polygon fill="#63b8ff" stroke="#63b8ff" points="1024.48,-194.88 1032.62,-188.09 1022.02,-188.33 1024.48,-194.88"/>
</a>
</g>
</g>
<!-- Node16&#45;&gt;Node5 -->
<g id="edge22_Node000016_Node000005" class="edge">
<title>Node16&#45;&gt;Node5</title>
<g id="a_edge22_Node000016_Node000005"><a xlink:title=" ">
<path fill="none" stroke="#63b8ff" d="M983.86,-174.27C879.44,-169.14 680.99,-162.99 513,-178.5 492.91,-180.36 470.88,-184.22 452.44,-187.99"/>
<polygon fill="#63b8ff" stroke="#63b8ff" points="983.81,-177.77 993.97,-174.77 984.16,-170.78 983.81,-177.77"/>
</a>
</g>
</g>
<!-- Node16&#45;&gt;Node12 -->
<g id="edge19_Node000016_Node000012" class="edge">
<title>Node16&#45;&gt;Node12</title>
<g id="a_edge19_Node000016_Node000012"><a xlink:title=" ">
<path fill="none" stroke="#63b8ff" d="M1013.71,-165.96C1007.08,-163.88 1000.34,-161.69 994,-159.5 977.78,-153.89 974.27,-150.99 958,-145.5 904.88,-127.57 843.34,-110.2 799.65,-98.42"/>
<polygon fill="#63b8ff" stroke="#63b8ff" points="1012.68,-169.31 1023.26,-168.91 1014.74,-162.62 1012.68,-169.31"/>
</a>
</g>
</g>
<!-- Node16&#45;&gt;Node13 -->
<g id="edge20_Node000016_Node000013" class="edge">
<title>Node16&#45;&gt;Node13</title>
<g id="a_edge20_Node000016_Node000013"><a xlink:title=" ">
<path fill="none" stroke="#63b8ff" d="M983.82,-181.4C892.13,-185.07 735.76,-191.32 647.23,-194.85"/>
<polygon fill="#63b8ff" stroke="#63b8ff" points="984,-184.9 993.85,-181 983.72,-177.91 984,-184.9"/>
</a>
</g>
</g>
<!-- Node16&#45;&gt;Node14 -->
<g id="edge26_Node000016_Node000014" class="edge">
<title>Node16&#45;&gt;Node14</title>
<g id="a_edge26_Node000016_Node000014"><a xlink:title=" ">
<path fill="none" stroke="#63b8ff" d="M998.57,-163.57C996.95,-162.32 995.42,-160.96 994,-159.5 951.63,-115.89 1000.45,-71.04 958,-27.5 954.66,-24.07 950.69,-21.29 946.42,-19.04"/>
<polygon fill="#63b8ff" stroke="#63b8ff" points="996.94,-166.67 1007.28,-168.99 1000.64,-160.73 996.94,-166.67"/>
</a>
</g>
</g>
<!-- Node17 -->
<g id="Node000017" class="node">
<title>Node17</title>
<g id="a_Node000017"><a xlink:href="weights__dedup_8c.html#ace1eab87292a3ab28bc10e2a8741b84b" target="_top" xlink:title=" ">
<polygon fill="white" stroke="#666666" points="955,-93 839,-93 839,-74 955,-74 955,-93"/>
<text text-anchor="middle" x="897" y="-81" font-family="Helvetica,sans-Serif" font-size="10.00">js_read_str_member</text>
</a>
</g>
</g>
<!-- Node16&#45;&gt;Node17 -->
<g id="edge24_Node000016_Node000017" class="edge">
<title>Node16&#45;&gt;Node17</title>
<g id="a_edge24_Node000016_Node000017"><a xlink:title=" ">
<path fill="none" stroke="#63b8ff" d="M1002.49,-164.75C999.51,-163.18 996.66,-161.44 994,-159.5 971.29,-142.94 979.98,-125.02 958,-107.5 950.37,-101.42 940.99,-96.7 931.94,-93.12"/>
<polygon fill="#63b8ff" stroke="#63b8ff" points="1001.16,-167.99 1011.71,-168.94 1004.05,-161.61 1001.16,-167.99"/>
</a>
</g>
</g>
<!-- Node17&#45;&gt;Node12 -->
<g id="edge25_Node000017_Node000012" class="edge">
<title>Node17&#45;&gt;Node12</title>
<g id="a_edge25_Node000017_Node000012"><a xlink:title=" ">
<path fill="none" stroke="#63b8ff" d="M828.82,-83.5C819.11,-83.5 809.2,-83.5 799.71,-83.5"/>
<polygon fill="#63b8ff" stroke="#63b8ff" points="828.84,-87 838.84,-83.5 828.84,-80 828.84,-87"/>
</a>
</g>
</g>
<!-- Node18&#45;&gt;Node15 -->
<g id="edge28_Node000018_Node000015" class="edge">
<title>Node18&#45;&gt;Node15</title>
<g id="a_edge28_Node000018_Node000015"><a xlink:title=" ">
<path fill="none" stroke="#63b8ff" d="M1097.32,-152.93C1115.89,-156.28 1138.13,-159.34 1156.92,-161.15"/>
<polygon fill="#63b8ff" stroke="#63b8ff" points="1097.9,-149.48 1087.42,-151.05 1096.59,-156.36 1097.9,-149.48"/>
</a>
</g>
</g>
<!-- Node19&#45;&gt;Node2 -->
<g id="edge32_Node000019_Node000002" class="edge">
<title>Node19&#45;&gt;Node2</title>
<g id="a_edge32_Node000019_Node000002"><a xlink:title=" ">
<path fill="none" stroke="#63b8ff" d="M1006.58,-247.47C984.37,-252.79 958.58,-258.98 937.71,-263.98"/>
<polygon fill="#63b8ff" stroke="#63b8ff" points="1007.6,-250.82 1016.5,-245.09 1005.96,-244.02 1007.6,-250.82"/>
</a>
</g>
</g>
<!-- Node19&#45;&gt;Node3 -->
<g id="edge31_Node000019_Node000003" class="edge">
<title>Node19&#45;&gt;Node3</title>
<g id="a_edge31_Node000019_Node000003"><a xlink:title=" ">
<path fill="none" stroke="#63b8ff" d="M1036.19,-251.26C1017.19,-264.94 987.39,-283.73 958,-291.5 905.58,-305.36 888.26,-305.95 836,-291.5 803.36,-282.47 770.65,-258.69 753.93,-245.2"/>
<polygon fill="#63b8ff" stroke="#63b8ff" points="1038.41,-253.97 1044.37,-245.21 1034.25,-248.34 1038.41,-253.97"/>
</a>
</g>
</g>
<!-- Node19&#45;&gt;Node13 -->
<g id="edge30_Node000019_Node000013" class="edge">
<title>Node19&#45;&gt;Node13</title>
<g id="a_edge30_Node000019_Node000013"><a xlink:title=" ">
<path fill="none" stroke="#63b8ff" d="M1041.24,-252.66C1023.42,-271.28 992.01,-299.9 958,-311.5 906.68,-329 889.33,-321.27 836,-311.5 764.47,-298.4 743.53,-293.8 683,-253.5 663.63,-240.61 666.96,-227.45 647,-215.5 641.29,-212.08 634.92,-209.3 628.46,-207.04"/>
<polygon fill="#63b8ff" stroke="#63b8ff" points="1043.99,-254.85 1048.23,-245.14 1038.86,-250.08 1043.99,-254.85"/>
</a>
</g>
</g>
<!-- Node19&#45;&gt;Node15 -->
<g id="edge33_Node000019_Node000015" class="edge">
<title>Node19&#45;&gt;Node15</title>
<g id="a_edge33_Node000019_Node000015"><a xlink:title=" ">
<path fill="none" stroke="#63b8ff" d="M1095.51,-221.58C1125.99,-206.56 1167.22,-183.57 1186.59,-170.23"/>
<polygon fill="#63b8ff" stroke="#63b8ff" points="1093.91,-218.46 1086.43,-225.97 1096.96,-224.76 1093.91,-218.46"/>
</a>
</g>
</g>
</g>
</svg>

<g id="navigator" transform="translate(0 0)" fill="#404254">
  <rect fill="#f2f5e9" fill-opacity="0.5" stroke="#606060" stroke-width=".5" x="0" y="0" width="60" height="60"/>
  <use id="zoomplus" xlink:href="#zoomPlus" x="17" y="9" onmousedown="handleZoom(evt,'in')"/>
  <use id="zoomminus" xlink:href="#zoomMin" x="42" y="9" onmousedown="handleZoom(evt,'out')"/>
  <use id="reset" xlink:href="#resetDef" x="30" y="36" onmousedown="handleReset()"/>
   <use id="arrowup" xlink:href="#arrowUp" x="0" y="0" onmousedown="handlePan(0,-1)"/>
  <use id="arrowright" xlink:href="#arrowRight" x="0" y="0" onmousedown="handlePan(1,0)"/>
  <use id="arrowdown" xlink:href="#arrowDown" x="0" y="0" onmousedown="handlePan(0,1)"/>
  <use id="arrowleft" xlink:href="#arrowLeft" x="0" y="0" onmousedown="handlePan(-1,0)"/>
</g>
<svg viewBox="0 0 15 15" width="100%" height="30px" preserveAspectRatio="xMaxYMin meet">
 <g id="arrow_out" transform="scale(0.3 0.3)">
  <a xlink:href="weights__dedup_8c_a080768f8631e237e2467fc47a7d4d6a0_icgraph_org.svg" target="_base">
   <rect id="button" ry="5" rx="5" y="6" x="6" height="38" width="38"
        fill="#f2f5e9" fill-opacity="0.5" stroke="#606060" stroke-width="1.0"/>
   <path id="arrow"
     d="M 11.500037,31.436501 C 11.940474,20.09759 22.043105,11.32322 32.158766,21.979434 L 37.068811,17.246167 C 37.068811,17.246167 37.088388,32 37.088388,32 L 22.160133,31.978069 C 22.160133,31.978069 26.997745,27.140456 26.997745,27.140456 C 18.528582,18.264221 13.291696,25.230495 11.500037,31.436501 z"
     style="fill:#404040;"/>
  </a>
 </g>
</svg>

<style type='text/css'>
<![CDATA[
[data-mouse-over-selected='false'] { opacity: 0.7; }
[data-mouse-over-selected='true']  { opacity: 1.0; }
]]>
</style>
<script type="application/ecmascript"><![CDATA[
document.addEventListener('DOMContentLoaded', (event) => {
  highlightEdges();
  highlightAdjacentNodes();
});
]]></script>
</svg>
