<?xml version="1.0" encoding="UTF-8" standalone="no"?>
<!DOCTYPE svg PUBLIC "-//W3C//DTD SVG 1.1//EN"
 "http://www.w3.org/Graphics/SVG/1.1/DTD/svg11.dtd">
<!-- Generated by graphviz version 2.43.0 (0)
 -->
<!-- Title: engine/src/io/weights_dedup.c Pages: 1 -->
<svg width="803pt" height="151pt"
 viewBox="0.00 0.00 803.00 151.00" xmlns="http://www.w3.org/2000/svg" xmlns:xlink="http://www.w3.org/1999/xlink">
<g id="graph0" class="graph" transform="scale(1 1) rotate(0) translate(4 147)">
<title>engine/src/io/weights_dedup.c</title>
<!-- Node1 -->
<g id="node1" class="node">
<title>Node1</title>
<g id="a_node1"><a xlink:title="Lossless deduplicated&#45;weights loader implementation.">
<polygon fill="#bfbfbf" stroke="black" points="350,-112.5 350,-142.5 470,-142.5 470,-112.5 350,-112.5"/>
<text text-anchor="start" x="358" y="-130.5" font-family="Helvetica,sans-Serif" font-size="10.00">engine/src/io/weights</text>
<text text-anchor="middle" x="410" y="-119.5" font-family="Helvetica,sans-Serif" font-size="10.00">_dedup.c</text>
</a>
</g>
</g>
<!-- Node2 -->
<g id="node2" class="node">
<title>Node2</title>
<g id="a_node2"><a xlink:href="weights__dedup_8h.html" target="_top" xlink:title="Lossless deduplicated&#45;weights loader (mmap&#45;friendly) and uniform weight view API.">
<polygon fill="none" stroke="black" points="14.5,-56.5 14.5,-75.5 113.5,-75.5 113.5,-56.5 14.5,-56.5"/>
<text text-anchor="middle" x="64" y="-63.5" font-family="Helvetica,sans-Serif" font-size="10.00">weights_dedup.h</text>
</a>
</g>
</g>
<!-- Node1&#45;&gt;Node2 -->
<g id="edge1" class="edge">
<title>Node1&#45;&gt;Node2</title>
<path fill="none" stroke="midnightblue" d="M349.73,-116.14C286.27,-105.22 186.97,-88.15 123.72,-77.27"/>
<polygon fill="midnightblue" stroke="midnightblue" points="123.95,-73.76 113.5,-75.51 122.77,-80.66 123.95,-73.76"/>
</g>
<!-- Node5 -->
<g id="node5" class="node">
<title>Node5</title>
<g id="a_node5"><a xlink:title=" ">
<polygon fill="none" stroke="#bfbfbf" points="131.5,-56.5 131.5,-75.5 182.5,-75.5 182.5,-56.5 131.5,-56.5"/>
<text text-anchor="middle" x="157" y="-63.5" font-family="Helvetica,sans-Serif" font-size="10.00">errno.h</text>
</a>
</g>
</g>
<!-- Node1&#45;&gt;Node5 -->
<g id="edge4" class="edge">
<title>Node1&#45;&gt;Node5</title>
<path fill="none" stroke="midnightblue" d="M349.76,-112.96C308.25,-103.53 251.57,-90.47 192.48,-76.07"/>
<polygon fill="midnightblue" stroke="midnightblue" points="193.14,-72.63 182.6,-73.66 191.48,-79.43 193.14,-72.63"/>
</g>
<!-- Node6 -->
<g id="node6" class="node">
<title>Node6</title>
<g id="a_node6"><a xlink:title=" ">
<polygon fill="none" stroke="#bfbfbf" points="200.5,-56.5 200.5,-75.5 247.5,-75.5 247.5,-56.5 200.5,-56.5"/>
<text text-anchor="middle" x="224" y="-63.5" font-family="Helvetica,sans-Serif" font-size="10.00">fcntl.h</text>
</a>
</g>
</g>
<!-- Node1&#45;&gt;Node6 -->
<g id="edge5" class="edge">
<title>Node1&#45;&gt;Node6</title>
<path fill="none" stroke="midnightblue" d="M365.92,-112.4C332.62,-101.75 287.63,-87.35 257.3,-77.65"/>
<polygon fill="midnightblue" stroke="midnightblue" points="258.21,-74.27 247.62,-74.56 256.08,-80.94 258.21,-74.27"/>
</g>
<!-- Node7 -->
<g id="node7" class="node">
<title>Node7</title>
<g id="a_node7"><a xlink:title=" ">
<polygon fill="none" stroke="#bfbfbf" points="265.5,-56.5 265.5,-75.5 330.5,-75.5 330.5,-56.5 265.5,-56.5"/>
<text text-anchor="middle" x="298" y="-63.5" font-family="Helvetica,sans-Serif" font-size="10.00">inttypes.h</text>
</a>
</g>
</g>
<!-- Node1&#45;&gt;Node7 -->
<g id="edge6" class="edge">
<title>Node1&#45;&gt;Node7</title>
<path fill="none" stroke="midnightblue" d="M383.46,-112.4C365.34,-102.77 341.46,-90.09 323.56,-80.58"/>
<polygon fill="midnightblue" stroke="midnightblue" points="324.77,-77.26 314.3,-75.66 321.49,-83.44 324.77,-77.26"/>
</g>
<!-- Node8 -->
<g id="node8" class="node">
<title>Node8</title>
<g id="a_node8"><a xlink:title=" ">
<polygon fill="none" stroke="#bfbfbf" points="348.5,-56.5 348.5,-75.5 401.5,-75.5 401.5,-56.5 348.5,-56.5"/>
<text text-anchor="middle" x="375" y="-63.5" font-family="Helvetica,sans-Serif" font-size="10.00">limits.h</text>
</a>
</g>
</g>
<!-- Node1&#45;&gt;Node8 -->
<g id="edge7" class="edge">
<title>Node1&#45;&gt;Node8</title>
<path fill="none" stroke="midnightblue" d="M401.71,-112.4C396.78,-104.02 390.49,-93.33 385.25,-84.42"/>
<polygon fill="midnightblue" stroke="midnightblue" points="388.18,-82.5 380.09,-75.66 382.15,-86.05 388.18,-82.5"/>
</g>
<!-- Node9 -->
<g id="node9" class="node">
<title>Node9</title>
<g id="a_node9"><a xlink:title=" ">
<polygon fill="none" stroke="#bfbfbf" points="419.5,-56.5 419.5,-75.5 472.5,-75.5 472.5,-56.5 419.5,-56.5"/>
<text text-anchor="middle" x="446" y="-63.5" font-family="Helvetica,sans-Serif" font-size="10.00">stdlib.h</text>
</a>
</g>
</g>
<!-- Node1&#45;&gt;Node9 -->
<g id="edge8" class="edge">
<title>Node1&#45;&gt;Node9</title>
<path fill="none" stroke="midnightblue" d="M418.53,-112.4C423.6,-104.02 430.07,-93.33 435.46,-84.42"/>
<polygon fill="midnightblue" stroke="midnightblue" points="438.58,-86.03 440.76,-75.66 432.59,-82.4 438.58,-86.03"/>
</g>
<!-- Node10 -->
<g id="node10" class="node">
<title>Node10</title>
<g id="a_node10"><a xlink:title=" ">
<polygon fill="none" stroke="#bfbfbf" points="490.5,-56.5 490.5,-75.5 543.5,-75.5 543.5,-56.5 490.5,-56.5"/>
<text text-anchor="middle" x="517" y="-63.5" font-family="Helvetica,sans-Serif" font-size="10.00">string.h</text>
</a>
</g>
</g>
<!-- Node1&#45;&gt;Node10 -->
<g id="edge9" class="edge">
<title>Node1&#45;&gt;Node10</title>
<path fill="none" stroke="midnightblue" d="M435.36,-112.4C452.67,-102.77 475.48,-90.09 492.58,-80.58"/>
<polygon fill="midnightblue" stroke="midnightblue" points="494.39,-83.58 501.43,-75.66 490.99,-77.46 494.39,-83.58"/>
</g>
<!-- Node11 -->
<g id="node11" class="node">
<title>Node11</title>
<g id="a_node11"><a xlink:title=" ">
<polygon fill="none" stroke="#bfbfbf" points="561.5,-56.5 561.5,-75.5 638.5,-75.5 638.5,-56.5 561.5,-56.5"/>
<text text-anchor="middle" x="600" y="-63.5" font-family="Helvetica,sans-Serif" font-size="10.00">sys/mman.h</text>
</a>
</g>
</g>
<!-- Node1&#45;&gt;Node11 -->
<g id="edge10" class="edge">
<title>Node1&#45;&gt;Node11</title>
<path fill="none" stroke="midnightblue" d="M455.03,-112.4C487.86,-102.12 531.82,-88.35 562.7,-78.68"/>
<polygon fill="midnightblue" stroke="midnightblue" points="564.13,-81.9 572.63,-75.57 562.04,-75.22 564.13,-81.9"/>
</g>
<!-- Node12 -->
<g id="node12" class="node">
<title>Node12</title>
<g id="a_node12"><a xlink:title=" ">
<polygon fill="none" stroke="#bfbfbf" points="657,-56.5 657,-75.5 721,-75.5 721,-56.5 657,-56.5"/>
<text text-anchor="middle" x="689" y="-63.5" font-family="Helvetica,sans-Serif" font-size="10.00">sys/stat.h</text>
</a>
</g>
</g>
<!-- Node1&#45;&gt;Node12 -->
<g id="edge11" class="edge">
<title>Node1&#45;&gt;Node12</title>
<path fill="none" stroke="midnightblue" d="M470.18,-113.85C515.96,-104.2 580.8,-90.48 646.63,-76.28"/>
<polygon fill="midnightblue" stroke="midnightblue" points="647.74,-79.63 656.78,-74.1 646.26,-72.78 647.74,-79.63"/>
</g>
<!-- Node13 -->
<g id="node13" class="node">
<title>Node13</title>
<g id="a_node13"><a xlink:title=" ">
<polygon fill="none" stroke="#bfbfbf" points="739,-56.5 739,-75.5 795,-75.5 795,-56.5 739,-56.5"/>
<text text-anchor="middle" x="767" y="-63.5" font-family="Helvetica,sans-Serif" font-size="10.00">unistd.h</text>
</a>
</g>
</g>
<!-- Node1&#45;&gt;Node13 -->
<g id="edge12" class="edge">
<title>Node1&#45;&gt;Node13</title>
<path fill="none" stroke="midnightblue" d="M470.12,-118.51C532.49,-109.89 633.02,-95.05 728.91,-76.09"/>
<polygon fill="midnightblue" stroke="midnightblue" points="729.65,-79.51 738.77,-74.12 728.28,-72.64 729.65,-79.51"/>
</g>
<!-- Node3 -->
<g id="node3" class="node">
<title>Node3</title>
<g id="a_node3"><a xlink:title=" ">
<polygon fill="none" stroke="#bfbfbf" points="0,-0.5 0,-19.5 56,-19.5 56,-0.5 0,-0.5"/>
<text text-anchor="middle" x="28" y="-7.5" font-family="Helvetica,sans-Serif" font-size="10.00">stddef.h</text>
</a>
</g>
</g>
<!-- Node2&#45;&gt;Node3 -->
<g id="edge2" class="edge">
<title>Node2&#45;&gt;Node3</title>
<path fill="none" stroke="midnightblue" d="M58.06,-56.08C53.02,-48.53 45.66,-37.49 39.49,-28.23"/>
<polygon fill="midnightblue" stroke="midnightblue" points="42.29,-26.13 33.83,-19.75 36.47,-30.01 42.29,-26.13"/>
</g>
<!-- Node4 -->
<g id="node4" class="node">
<title>Node4</title>
<g id="a_node4"><a xlink:title=" ">
<polygon fill="none" stroke="#bfbfbf" points="74.5,-0.5 74.5,-19.5 127.5,-19.5 127.5,-0.5 74.5,-0.5"/>
<text text-anchor="middle" x="101" y="-7.5" font-family="Helvetica,sans-Serif" font-size="10.00">stdint.h</text>
</a>
</g>
</g>
<!-- Node2&#45;&gt;Node4 -->
<g id="edge3" class="edge">
<title>Node2&#45;&gt;Node4</title>
<path fill="none" stroke="midnightblue" d="M70.11,-56.08C75.28,-48.53 82.85,-37.49 89.19,-28.23"/>
<polygon fill="midnightblue" stroke="midnightblue" points="92.24,-29.98 95,-19.75 86.46,-26.02 92.24,-29.98"/>
</g>
</g>
</svg>
