<?xml version="1.0" encoding="UTF-8" standalone="no"?>
<!DOCTYPE svg PUBLIC "-//W3C//DTD SVG 1.1//EN"
 "http://www.w3.org/Graphics/SVG/1.1/DTD/svg11.dtd">
<!-- Generated by graphviz version 2.43.0 (0)
 -->
<!-- Title: js_skip_array Pages: 1 -->
<svg width="1425pt" height="252pt"
 viewBox="0.00 0.00 1425.00 251.81" xmlns="http://www.w3.org/2000/svg" xmlns:xlink="http://www.w3.org/1999/xlink">
<g id="graph0" class="graph" transform="scale(1 1) rotate(0) translate(4 247.81)">
<title>js_skip_array</title>
<!-- Node1 -->
<g id="Node000001" class="node">
<title>Node1</title>
<g id="a_Node000001"><a xlink:title=" ">
<polygon fill="#999999" stroke="#666666" points="1417,-41.67 1336,-41.67 1336,-22.67 1417,-22.67 1417,-41.67"/>
<text text-anchor="middle" x="1376.5" y="-29.67" font-family="Helvetica,sans-Serif" font-size="10.00">js_skip_array</text>
</a>
</g>
</g>
<!-- Node2 -->
<g id="Node000002" class="node">
<title>Node2</title>
<g id="a_Node000002"><a xlink:href="weights__dedup_8c.html#aec6b7531542a45304d1f17d108a6d2ea" target="_top" xlink:title=" ">
<polygon fill="white" stroke="#666666" points="1300,-41.67 1217,-41.67 1217,-22.67 1300,-22.67 1300,-41.67"/>
<text text-anchor="middle" x="1258.5" y="-29.67" font-family="Helvetica,sans-Serif" font-size="10.00">js_skip_value</text>
</a>
</g>
</g>
<!-- Node1&#45;&gt;Node2 -->
<g id="edge1_Node000001_Node000002" class="edge">
<title>Node1&#45;&gt;Node2</title>
<g id="a_edge1_Node000001_Node000002"><a xlink:title=" ">
<path fill="none" stroke="#63b8ff" d="M1325.67,-25.48C1317.13,-25.35 1308.36,-25.43 1300.1,-25.7"/>
<polygon fill="#63b8ff" stroke="#63b8ff" points="1325.82,-28.99 1335.9,-25.73 1325.99,-21.99 1325.82,-28.99"/>
</a>
</g>
</g>
<!-- Node2&#45;&gt;Node1 -->
<g id="edge26_Node000002_Node000001" class="edge">
<title>Node2&#45;&gt;Node1</title>
<g id="a_edge26_Node000002_Node000001"><a xlink:title=" ">
<path fill="none" stroke="#63b8ff" d="M1310.38,-38.88C1318.93,-38.98 1327.69,-38.9 1335.9,-38.61"/>
<polygon fill="#63b8ff" stroke="#63b8ff" points="1310.18,-35.37 1300.1,-38.64 1310.02,-42.37 1310.18,-35.37"/>
</a>
</g>
</g>
<!-- Node3 -->
<g id="Node000003" class="node">
<title>Node3</title>
<g id="a_Node000003"><a xlink:href="weights__dedup_8c.html#ae0494f541a190a9ecf82c11c5eb22952" target="_top" xlink:title=" ">
<polygon fill="white" stroke="#666666" points="1181,-154.67 1054,-154.67 1054,-135.67 1181,-135.67 1181,-154.67"/>
<text text-anchor="middle" x="1117.5" y="-142.67" font-family="Helvetica,sans-Serif" font-size="10.00">js_find_member_value</text>
</a>
</g>
</g>
<!-- Node2&#45;&gt;Node3 -->
<g id="edge2_Node000002_Node000003" class="edge">
<title>Node2&#45;&gt;Node3</title>
<g id="a_edge2_Node000002_Node000003"><a xlink:title=" ">
<path fill="none" stroke="#63b8ff" d="M1237.74,-48.24C1208.39,-72.09 1154.2,-116.15 1130.32,-135.56"/>
<polygon fill="#63b8ff" stroke="#63b8ff" points="1240.1,-50.83 1245.65,-41.81 1235.68,-45.4 1240.1,-50.83"/>
</a>
</g>
</g>
<!-- Node20 -->
<g id="Node000020" class="node">
<title>Node20</title>
<g id="a_Node000020"><a xlink:href="weights__dedup_8c.html#ae1e5c9a54a8c0312241d17afd01c40a0" target="_top" xlink:title=" ">
<polygon fill="white" stroke="#666666" points="1160.5,-41.67 1074.5,-41.67 1074.5,-22.67 1160.5,-22.67 1160.5,-41.67"/>
<text text-anchor="middle" x="1117.5" y="-29.67" font-family="Helvetica,sans-Serif" font-size="10.00">js_skip_object</text>
</a>
</g>
</g>
<!-- Node2&#45;&gt;Node20 -->
<g id="edge27_Node000002_Node000020" class="edge">
<title>Node2&#45;&gt;Node20</title>
<g id="a_edge27_Node000002_Node000020"><a xlink:title=" ">
<path fill="none" stroke="#63b8ff" d="M1206.73,-25.64C1191.65,-25.28 1175.3,-25.36 1160.82,-25.9"/>
<polygon fill="#63b8ff" stroke="#63b8ff" points="1206.81,-29.15 1216.92,-25.97 1207.04,-22.15 1206.81,-29.15"/>
</a>
</g>
</g>
<!-- Node4 -->
<g id="Node000004" class="node">
<title>Node4</title>
<g id="a_Node000004"><a xlink:href="weights__dedup_8c.html#aff1829f796837ea285a63b43a0a2d485" target="_top" xlink:title=" ">
<polygon fill="white" stroke="#666666" points="859.5,-179.17 743.5,-179.17 743.5,-149.17 859.5,-149.17 859.5,-179.17"/>
<text text-anchor="start" x="751.5" y="-167.17" font-family="Helvetica,sans-Serif" font-size="10.00">ie_parse_iejson_one</text>
<text text-anchor="middle" x="801.5" y="-156.17" font-family="Helvetica,sans-Serif" font-size="10.00">_tensor</text>
</a>
</g>
</g>
<!-- Node3&#45;&gt;Node4 -->
<g id="edge3_Node000003_Node000004" class="edge">
<title>Node3&#45;&gt;Node4</title>
<g id="a_edge3_Node000003_Node000004"><a xlink:title=" ">
<path fill="none" stroke="#63b8ff" d="M1088.75,-159.05C1069.44,-167.9 1042.82,-178.55 1018,-183.17 964.83,-193.07 903.29,-185.82 859.62,-177.58"/>
<polygon fill="#63b8ff" stroke="#63b8ff" points="1090.31,-162.18 1097.86,-154.75 1087.32,-155.85 1090.31,-162.18"/>
</a>
</g>
</g>
<!-- Node5 -->
<g id="Node000005" class="node">
<title>Node5</title>
<g id="a_Node000005"><a xlink:href="weights__dedup_8c.html#a3baac12d7191041beab3fc4508b94be7" target="_top" xlink:title=" ">
<polygon fill="white" stroke="#666666" points="707,-173.67 573,-173.67 573,-154.67 707,-154.67 707,-173.67"/>
<text text-anchor="middle" x="640" y="-161.67" font-family="Helvetica,sans-Serif" font-size="10.00">ie_parse_iejson_tensors</text>
</a>
</g>
</g>
<!-- Node3&#45;&gt;Node5 -->
<g id="edge15_Node000003_Node000005" class="edge">
<title>Node3&#45;&gt;Node5</title>
<g id="a_edge15_Node000003_Node000005"><a xlink:title=" ">
<path fill="none" stroke="#63b8ff" d="M1095.78,-160.59C1076.7,-173.77 1047.03,-191.74 1018,-199.17 891.92,-231.46 735.35,-192.87 670.87,-173.72"/>
<polygon fill="#63b8ff" stroke="#63b8ff" points="1097.88,-163.4 1104.01,-154.76 1093.82,-157.69 1097.88,-163.4"/>
</a>
</g>
</g>
<!-- Node6 -->
<g id="Node000006" class="node">
<title>Node6</title>
<g id="a_Node000006"><a xlink:href="weights__dedup_8c.html#aa625b41ce2a24826f8cb464661ace8ec" target="_top" xlink:title="Open the dedup weights loader from a model directory.">
<polygon fill="white" stroke="#666666" points="537,-173.67 403,-173.67 403,-154.67 537,-154.67 537,-173.67"/>
<text text-anchor="middle" x="470" y="-161.67" font-family="Helvetica,sans-Serif" font-size="10.00">ie_weights_dedup_open</text>
</a>
</g>
</g>
<!-- Node3&#45;&gt;Node6 -->
<g id="edge19_Node000003_Node000006" class="edge">
<title>Node3&#45;&gt;Node6</title>
<g id="a_edge19_Node000003_Node000006"><a xlink:title=" ">
<path fill="none" stroke="#63b8ff" d="M1100.62,-162.42C1082.63,-180.56 1051.43,-208.01 1018,-219.17 825.16,-283.54 574.54,-202.72 495.79,-173.75"/>
<polygon fill="#63b8ff" stroke="#63b8ff" points="1103.51,-164.46 1107.92,-154.82 1098.47,-159.61 1103.51,-164.46"/>
</a>
</g>
</g>
<!-- Node15 -->
<g id="Node000015" class="node">
<title>Node15</title>
<g id="a_Node000015"><a xlink:href="weights__dedup_8c.html#ac8435c15b639ac76b805cc23f609be12" target="_top" xlink:title=" ">
<polygon fill="white" stroke="#666666" points="860,-79.67 743,-79.67 743,-60.67 860,-60.67 860,-79.67"/>
<text text-anchor="middle" x="801.5" y="-67.67" font-family="Helvetica,sans-Serif" font-size="10.00">ie_parse_one_tensor</text>
</a>
</g>
</g>
<!-- Node3&#45;&gt;Node15 -->
<g id="edge16_Node000003_Node000015" class="edge">
<title>Node3&#45;&gt;Node15</title>
<g id="a_edge16_Node000003_Node000015"><a xlink:title=" ">
<path fill="none" stroke="#63b8ff" d="M1085.18,-131.71C1066.06,-123.92 1040.96,-114.45 1018,-108.17 965.41,-93.79 904.07,-83.59 860.31,-77.41"/>
<polygon fill="#63b8ff" stroke="#63b8ff" points="1084.01,-135.01 1094.59,-135.6 1086.69,-128.54 1084.01,-135.01"/>
</a>
</g>
</g>
<!-- Node17 -->
<g id="Node000017" class="node">
<title>Node17</title>
<g id="a_Node000017"><a xlink:href="weights__dedup_8c.html#ac65e64ed76368c21cf76399a4eed1b90" target="_top" xlink:title=" ">
<polygon fill="white" stroke="#666666" points="1005.5,-60.67 908.5,-60.67 908.5,-41.67 1005.5,-41.67 1005.5,-60.67"/>
<text text-anchor="middle" x="957" y="-48.67" font-family="Helvetica,sans-Serif" font-size="10.00">js_parse_blobref</text>
</a>
</g>
</g>
<!-- Node3&#45;&gt;Node17 -->
<g id="edge20_Node000003_Node000017" class="edge">
<title>Node3&#45;&gt;Node17</title>
<g id="a_edge20_Node000003_Node000017"><a xlink:title=" ">
<path fill="none" stroke="#63b8ff" d="M1096.98,-129.18C1077.74,-113.93 1047.07,-91.02 1018,-75.17 1007.85,-69.64 996.16,-64.67 985.81,-60.71"/>
<polygon fill="#63b8ff" stroke="#63b8ff" points="1094.98,-132.06 1104.97,-135.59 1099.36,-126.6 1094.98,-132.06"/>
</a>
</g>
</g>
<!-- Node18 -->
<g id="Node000018" class="node">
<title>Node18</title>
<g id="a_Node000018"><a xlink:href="weights__dedup_8c.html#ace1eab87292a3ab28bc10e2a8741b84b" target="_top" xlink:title=" ">
<polygon fill="white" stroke="#666666" points="1015,-173.67 899,-173.67 899,-154.67 1015,-154.67 1015,-173.67"/>
<text text-anchor="middle" x="957" y="-161.67" font-family="Helvetica,sans-Serif" font-size="10.00">js_read_str_member</text>
</a>
</g>
</g>
<!-- Node3&#45;&gt;Node18 -->
<g id="edge22_Node000003_Node000018" class="edge">
<title>Node3&#45;&gt;Node18</title>
<g id="a_edge22_Node000003_Node000018"><a xlink:title=" ">
<path fill="none" stroke="#63b8ff" d="M1043.86,-153.88C1034.19,-155.04 1024.39,-156.21 1015.04,-157.33"/>
<polygon fill="#63b8ff" stroke="#63b8ff" points="1044.34,-157.35 1053.86,-152.68 1043.51,-150.4 1044.34,-157.35"/>
</a>
</g>
</g>
<!-- Node19 -->
<g id="Node000019" class="node">
<title>Node19</title>
<g id="a_Node000019"><a xlink:href="weights__dedup_8c.html#ad380703417334421d025a859a9a6e67e" target="_top" xlink:title=" ">
<polygon fill="white" stroke="#666666" points="1018,-136.67 896,-136.67 896,-117.67 1018,-117.67 1018,-136.67"/>
<text text-anchor="middle" x="957" y="-124.67" font-family="Helvetica,sans-Serif" font-size="10.00">js_read_u64_member</text>
</a>
</g>
</g>
<!-- Node3&#45;&gt;Node19 -->
<g id="edge24_Node000003_Node000019" class="edge">
<title>Node3&#45;&gt;Node19</title>
<g id="a_edge24_Node000003_Node000019"><a xlink:title=" ">
<path fill="none" stroke="#63b8ff" d="M1043.83,-136.92C1035.23,-135.94 1026.52,-134.95 1018.12,-134"/>
<polygon fill="#63b8ff" stroke="#63b8ff" points="1043.53,-140.41 1053.86,-138.06 1044.32,-133.45 1043.53,-140.41"/>
</a>
</g>
</g>
<!-- Node4&#45;&gt;Node5 -->
<g id="edge4_Node000004_Node000005" class="edge">
<title>Node4&#45;&gt;Node5</title>
<g id="a_edge4_Node000004_Node000005"><a xlink:title=" ">
<path fill="none" stroke="#63b8ff" d="M733.34,-164.17C724.7,-164.17 715.86,-164.17 707.24,-164.17"/>
<polygon fill="#63b8ff" stroke="#63b8ff" points="733.37,-167.67 743.37,-164.17 733.37,-160.67 733.37,-167.67"/>
</a>
</g>
</g>
<!-- Node5&#45;&gt;Node6 -->
<g id="edge5_Node000005_Node000006" class="edge">
<title>Node5&#45;&gt;Node6</title>
<g id="a_edge5_Node000005_Node000006"><a xlink:title=" ">
<path fill="none" stroke="#63b8ff" d="M562.41,-164.17C553.99,-164.17 545.47,-164.17 537.19,-164.17"/>
<polygon fill="#63b8ff" stroke="#63b8ff" points="562.6,-167.67 572.6,-164.17 562.6,-160.67 562.6,-167.67"/>
</a>
</g>
</g>
<!-- Node7 -->
<g id="Node000007" class="node">
<title>Node7</title>
<g id="a_Node000007"><a xlink:href="gptoss__weights__index_8c.html#ab0abbe94d2373ea44d51f2325c7cc46c" target="_top" xlink:title="Open a weights index for a given model directory and weights descriptor.">
<polygon fill="white" stroke="#666666" points="367,-192.67 213,-192.67 213,-173.67 367,-173.67 367,-192.67"/>
<text text-anchor="middle" x="290" y="-180.67" font-family="Helvetica,sans-Serif" font-size="10.00">gptoss_weights_index_open</text>
</a>
</g>
</g>
<!-- Node6&#45;&gt;Node7 -->
<g id="edge6_Node000006_Node000007" class="edge">
<title>Node6&#45;&gt;Node7</title>
<g id="a_edge6_Node000006_Node000007"><a xlink:title=" ">
<path fill="none" stroke="#63b8ff" d="M393.01,-172.28C384.44,-173.2 375.7,-174.13 367.13,-175.04"/>
<polygon fill="#63b8ff" stroke="#63b8ff" points="393.4,-175.76 402.97,-171.22 392.66,-168.8 393.4,-175.76"/>
</a>
</g>
</g>
<!-- Node8 -->
<g id="Node000008" class="node">
<title>Node8</title>
<g id="a_Node000008"><a xlink:href="weights_8c.html#a522dac028ee37aae1307ffdb6d65ec1d" target="_top" xlink:title="Open and parse an IEBIN v1 model description.">
<polygon fill="white" stroke="#666666" points="339,-155.67 241,-155.67 241,-136.67 339,-136.67 339,-155.67"/>
<text text-anchor="middle" x="290" y="-143.67" font-family="Helvetica,sans-Serif" font-size="10.00">ie_weights_open</text>
</a>
</g>
</g>
<!-- Node6&#45;&gt;Node8 -->
<g id="edge7_Node000006_Node000008" class="edge">
<title>Node6&#45;&gt;Node8</title>
<g id="a_edge7_Node000006_Node000008"><a xlink:title=" ">
<path fill="none" stroke="#63b8ff" d="M392.93,-156.48C374.68,-154.63 355.7,-152.71 339.12,-151.04"/>
<polygon fill="#63b8ff" stroke="#63b8ff" points="392.67,-159.97 402.97,-157.49 393.38,-153.01 392.67,-159.97"/>
</a>
</g>
</g>
<!-- Node9 -->
<g id="Node000009" class="node">
<title>Node9</title>
<g id="a_Node000009"><a xlink:href="ie__api_8c.html#a84bd87043352946e9d53b0f8a5c4abe0" target="_top" xlink:title="Create an engine instance.">
<polygon fill="white" stroke="#666666" points="177,-174.67 77,-174.67 77,-155.67 177,-155.67 177,-174.67"/>
<text text-anchor="middle" x="127" y="-162.67" font-family="Helvetica,sans-Serif" font-size="10.00">ie_engine_create</text>
</a>
</g>
</g>
<!-- Node8&#45;&gt;Node9 -->
<g id="edge8_Node000008_Node000009" class="edge">
<title>Node8&#45;&gt;Node9</title>
<g id="a_edge8_Node000008_Node000009"><a xlink:title=" ">
<path fill="none" stroke="#63b8ff" d="M230.57,-153.07C213.03,-155.14 193.98,-157.38 177.11,-159.38"/>
<polygon fill="#63b8ff" stroke="#63b8ff" points="231.17,-156.52 240.69,-151.87 230.35,-149.57 231.17,-156.52"/>
</a>
</g>
</g>
<!-- Node10 -->
<g id="Node000010" class="node">
<title>Node10</title>
<g id="a_Node000010"><a xlink:href="main__infer_8c.html#a3c04138a5bfe5d72780bb7e82a18e627" target="_top" xlink:title="main.">
<polygon fill="white" stroke="#666666" points="41,-211.67 0,-211.67 0,-192.67 41,-192.67 41,-211.67"/>
<text text-anchor="middle" x="20.5" y="-199.67" font-family="Helvetica,sans-Serif" font-size="10.00">main</text>
</a>
</g>
</g>
<!-- Node8&#45;&gt;Node10 -->
<g id="edge11_Node000008_Node000010" class="edge">
<title>Node8&#45;&gt;Node10</title>
<g id="a_edge11_Node000008_Node000010"><a xlink:title=" ">
<path fill="none" stroke="#63b8ff" d="M233.06,-158.51C226.23,-160.5 219.4,-162.72 213,-165.17 196.1,-171.63 194.28,-178.82 177,-184.17 129.75,-198.81 71.09,-201.73 41.12,-202.2"/>
<polygon fill="#63b8ff" stroke="#63b8ff" points="234.32,-161.8 243.04,-155.77 232.46,-155.05 234.32,-161.8"/>
</a>
</g>
</g>
<!-- Node12 -->
<g id="Node000012" class="node">
<title>Node12</title>
<g id="a_Node000012"><a xlink:href="test__weights_8c.html#a840291bc02cba5474a4cb46a9b9566fe" target="_top" xlink:title="Main test entrypoint.">
<polygon fill="white" stroke="#666666" points="147.5,-137.67 106.5,-137.67 106.5,-118.67 147.5,-118.67 147.5,-137.67"/>
<text text-anchor="middle" x="127" y="-125.67" font-family="Helvetica,sans-Serif" font-size="10.00">main</text>
</a>
</g>
</g>
<!-- Node8&#45;&gt;Node12 -->
<g id="edge12_Node000008_Node000012" class="edge">
<title>Node8&#45;&gt;Node12</title>
<g id="a_edge12_Node000008_Node000012"><a xlink:title=" ">
<path fill="none" stroke="#63b8ff" d="M230.62,-139.64C201.56,-136.4 168.34,-132.68 147.76,-130.38"/>
<polygon fill="#63b8ff" stroke="#63b8ff" points="230.37,-143.14 240.69,-140.77 231.15,-136.18 230.37,-143.14"/>
</a>
</g>
</g>
<!-- Node13 -->
<g id="Node000013" class="node">
<title>Node13</title>
<g id="a_Node000013"><a xlink:href="test__dedup__loader_8c.html#a73dca7f77cd9da376bc14e888330d88f" target="_top" xlink:title=" ">
<polygon fill="white" stroke="#666666" points="175,-100.67 79,-100.67 79,-81.67 175,-81.67 175,-100.67"/>
<text text-anchor="middle" x="127" y="-88.67" font-family="Helvetica,sans-Serif" font-size="10.00">open_and_touch</text>
</a>
</g>
</g>
<!-- Node8&#45;&gt;Node13 -->
<g id="edge13_Node000008_Node000013" class="edge">
<title>Node8&#45;&gt;Node13</title>
<g id="a_edge13_Node000008_Node000013"><a xlink:title=" ">
<path fill="none" stroke="#63b8ff" d="M251.12,-133.23C221.96,-123.27 182.33,-109.73 155.99,-100.73"/>
<polygon fill="#63b8ff" stroke="#63b8ff" points="250.36,-136.67 260.96,-136.59 252.62,-130.05 250.36,-136.67"/>
</a>
</g>
</g>
<!-- Node9&#45;&gt;Node10 -->
<g id="edge9_Node000009_Node000010" class="edge">
<title>Node9&#45;&gt;Node10</title>
<g id="a_edge9_Node000009_Node000010"><a xlink:title=" ">
<path fill="none" stroke="#63b8ff" d="M89.32,-178.16C73.07,-183.91 54.61,-190.45 41.06,-195.25"/>
<polygon fill="#63b8ff" stroke="#63b8ff" points="90.83,-181.34 99.09,-174.7 88.49,-174.74 90.83,-181.34"/>
</a>
</g>
</g>
<!-- Node11 -->
<g id="Node000011" class="node">
<title>Node11</title>
<g id="a_Node000011"><a xlink:href="test__api_8c.html#a840291bc02cba5474a4cb46a9b9566fe" target="_top" xlink:title=" ">
<polygon fill="white" stroke="#666666" points="41,-174.67 0,-174.67 0,-155.67 41,-155.67 41,-174.67"/>
<text text-anchor="middle" x="20.5" y="-162.67" font-family="Helvetica,sans-Serif" font-size="10.00">main</text>
</a>
</g>
</g>
<!-- Node9&#45;&gt;Node11 -->
<g id="edge10_Node000009_Node000011" class="edge">
<title>Node9&#45;&gt;Node11</title>
<g id="a_edge10_Node000009_Node000011"><a xlink:title=" ">
<path fill="none" stroke="#63b8ff" d="M66.77,-165.17C57.58,-165.17 48.68,-165.17 41.24,-165.17"/>
<polygon fill="#63b8ff" stroke="#63b8ff" points="66.81,-168.67 76.81,-165.17 66.81,-161.67 66.81,-168.67"/>
</a>
</g>
</g>
<!-- Node14 -->
<g id="Node000014" class="node">
<title>Node14</title>
<g id="a_Node000014"><a xlink:href="test__dedup__loader_8c.html#a3c04138a5bfe5d72780bb7e82a18e627" target="_top" xlink:title=" ">
<polygon fill="white" stroke="#666666" points="41,-100.67 0,-100.67 0,-81.67 41,-81.67 41,-100.67"/>
<text text-anchor="middle" x="20.5" y="-88.67" font-family="Helvetica,sans-Serif" font-size="10.00">main</text>
</a>
</g>
</g>
<!-- Node13&#45;&gt;Node14 -->
<g id="edge14_Node000013_Node000014" class="edge">
<title>Node13&#45;&gt;Node14</title>
<g id="a_edge14_Node000013_Node000014"><a xlink:title=" ">
<path fill="none" stroke="#63b8ff" d="M68.92,-91.17C58.92,-91.17 49.16,-91.17 41.11,-91.17"/>
<polygon fill="#63b8ff" stroke="#63b8ff" points="68.95,-94.67 78.95,-91.17 68.95,-87.67 68.95,-94.67"/>
</a>
</g>
</g>
<!-- Node16 -->
<g id="Node000016" class="node">
<title>Node16</title>
<g id="a_Node000016"><a xlink:href="weights__dedup_8c.html#a1eaf38d57abdd040f9c40e2e3ea1525c" target="_top" xlink:title=" ">
<polygon fill="white" stroke="#666666" points="705,-117.67 575,-117.67 575,-98.67 705,-98.67 705,-117.67"/>
<text text-anchor="middle" x="640" y="-105.67" font-family="Helvetica,sans-Serif" font-size="10.00">ie_parse_tensors_array</text>
</a>
</g>
</g>
<!-- Node15&#45;&gt;Node16 -->
<g id="edge17_Node000015_Node000016" class="edge">
<title>Node15&#45;&gt;Node16</title>
<g id="a_edge17_Node000015_Node000016"><a xlink:title=" ">
<path fill="none" stroke="#63b8ff" d="M750.27,-82.14C727.91,-87.46 701.96,-93.65 680.96,-98.65"/>
<polygon fill="#63b8ff" stroke="#63b8ff" points="751.33,-85.48 760.25,-79.76 749.71,-78.67 751.33,-85.48"/>
</a>
</g>
</g>
<!-- Node16&#45;&gt;Node6 -->
<g id="edge18_Node000016_Node000006" class="edge">
<title>Node16&#45;&gt;Node6</title>
<g id="a_edge18_Node000016_Node000006"><a xlink:title=" ">
<path fill="none" stroke="#63b8ff" d="M600.57,-120.98C569.79,-131.24 527.31,-145.4 499.5,-154.67"/>
<polygon fill="#63b8ff" stroke="#63b8ff" points="601.74,-124.28 610.12,-117.8 599.53,-117.64 601.74,-124.28"/>
</a>
</g>
</g>
<!-- Node17&#45;&gt;Node15 -->
<g id="edge21_Node000017_Node000015" class="edge">
<title>Node17&#45;&gt;Node15</title>
<g id="a_edge21_Node000017_Node000015"><a xlink:title=" ">
<path fill="none" stroke="#63b8ff" d="M898.06,-58.34C885.66,-59.88 872.57,-61.5 860.18,-63.03"/>
<polygon fill="#63b8ff" stroke="#63b8ff" points="898.78,-61.78 908.27,-57.08 897.92,-54.83 898.78,-61.78"/>
</a>
</g>
</g>
<!-- Node18&#45;&gt;Node4 -->
<g id="edge23_Node000018_Node000004" class="edge">
<title>Node18&#45;&gt;Node4</title>
<g id="a_edge23_Node000018_Node000004"><a xlink:title=" ">
<path fill="none" stroke="#63b8ff" d="M888.82,-164.17C879.11,-164.17 869.2,-164.17 859.71,-164.17"/>
<polygon fill="#63b8ff" stroke="#63b8ff" points="888.84,-167.67 898.84,-164.17 888.84,-160.67 888.84,-167.67"/>
</a>
</g>
</g>
<!-- Node19&#45;&gt;Node4 -->
<g id="edge25_Node000019_Node000004" class="edge">
<title>Node19&#45;&gt;Node4</title>
<g id="a_edge25_Node000019_Node000004"><a xlink:title=" ">
<path fill="none" stroke="#63b8ff" d="M906.41,-139.12C891.46,-142.73 874.94,-146.71 859.55,-150.42"/>
<polygon fill="#63b8ff" stroke="#63b8ff" points="907.57,-142.45 916.47,-136.7 905.93,-135.64 907.57,-142.45"/>
</a>
</g>
</g>
<!-- Node20&#45;&gt;Node2 -->
<g id="edge31_Node000020_Node000002" class="edge">
<title>Node20&#45;&gt;Node2</title>
<g id="a_edge31_Node000020_Node000002"><a xlink:title=" ">
<path fill="none" stroke="#63b8ff" d="M1171.11,-38.74C1186.28,-39.07 1202.6,-38.95 1216.92,-38.37"/>
<polygon fill="#63b8ff" stroke="#63b8ff" points="1170.92,-35.23 1160.82,-38.44 1170.71,-42.23 1170.92,-35.23"/>
</a>
</g>
</g>
<!-- Node20&#45;&gt;Node5 -->
<g id="edge28_Node000020_Node000005" class="edge">
<title>Node20&#45;&gt;Node5</title>
<g id="a_edge28_Node000020_Node000005"><a xlink:title=" ">
<path fill="none" stroke="#63b8ff" d="M1073.98,-20.09C998.53,-1.45 840.05,24.8 743,-51.17 713.57,-74.21 732.51,-99.85 707,-127.17 695.7,-139.27 679.54,-148.42 666.03,-154.6"/>
<polygon fill="#63b8ff" stroke="#63b8ff" points="1073.51,-23.58 1084.06,-22.66 1075.24,-16.8 1073.51,-23.58"/>
</a>
</g>
</g>
<!-- Node20&#45;&gt;Node15 -->
<g id="edge29_Node000020_Node000015" class="edge">
<title>Node20&#45;&gt;Node15</title>
<g id="a_edge29_Node000020_Node000015"><a xlink:title=" ">
<path fill="none" stroke="#63b8ff" d="M1064.06,-26.56C1019.04,-23.07 952.64,-21.1 896,-32.17 868.31,-37.58 838.47,-51.22 820.13,-60.59"/>
<polygon fill="#63b8ff" stroke="#63b8ff" points="1063.92,-30.06 1074.18,-27.4 1064.5,-23.08 1063.92,-30.06"/>
</a>
</g>
</g>
<!-- Node20&#45;&gt;Node17 -->
<g id="edge30_Node000020_Node000017" class="edge">
<title>Node20&#45;&gt;Node17</title>
<g id="a_edge30_Node000020_Node000017"><a xlink:title=" ">
<path fill="none" stroke="#63b8ff" d="M1064.47,-38.41C1045.49,-40.68 1024.15,-43.24 1005.58,-45.47"/>
<polygon fill="#63b8ff" stroke="#63b8ff" points="1064.93,-41.88 1074.44,-37.21 1064.1,-34.93 1064.93,-41.88"/>
</a>
</g>
</g>
</g>
</svg>
