<?xml version="1.0" encoding="UTF-8" standalone="no"?>
<!DOCTYPE svg PUBLIC "-//W3C//DTD SVG 1.1//EN"
 "http://www.w3.org/Graphics/SVG/1.1/DTD/svg11.dtd">
<!-- Generated by graphviz version 2.43.0 (0)
 -->
<!-- Title: ie_weights_decode_int4 Pages: 1 -->
<svg width="423pt" height="203pt"
 viewBox="0.00 0.00 423.00 203.00" xmlns="http://www.w3.org/2000/svg" xmlns:xlink="http://www.w3.org/1999/xlink">
<g id="graph0" class="graph" transform="scale(1 1) rotate(0) translate(4 199)">
<title>ie_weights_decode_int4</title>
<!-- Node1 -->
<g id="node1" class="node">
<title>Node1</title>
<g id="a_node1"><a xlink:title="Dequantize a packed INT4 weight blob into a float32 matrix.">
<polygon fill="#bfbfbf" stroke="black" points="0,-93.5 0,-112.5 134,-112.5 134,-93.5 0,-93.5"/>
<text text-anchor="middle" x="67" y="-100.5" font-family="Helvetica,sans-Serif" font-size="10.00">ie_weights_decode_int4</text>
</a>
</g>
</g>
<!-- Node2 -->
<g id="node2" class="node">
<title>Node2</title>
<g id="a_node2"><a xlink:href="weights_8c.html#a45b3ddd20d46adc5338518e4d68a293d" target="_top" xlink:title=" ">
<polygon fill="none" stroke="black" points="184.5,-175.5 184.5,-194.5 264.5,-194.5 264.5,-175.5 184.5,-175.5"/>
<text text-anchor="middle" x="224.5" y="-182.5" font-family="Helvetica,sans-Serif" font-size="10.00">fp16_to_fp32</text>
</a>
</g>
</g>
<!-- Node1&#45;&gt;Node2 -->
<g id="edge1" class="edge">
<title>Node1&#45;&gt;Node2</title>
<path fill="none" stroke="midnightblue" d="M83.65,-112.52C103.45,-124.42 138.75,-145.15 170,-161 176.87,-164.48 184.34,-168 191.47,-171.23"/>
<polygon fill="midnightblue" stroke="midnightblue" points="190.33,-174.55 200.89,-175.43 193.18,-168.16 190.33,-174.55"/>
</g>
<!-- Node3 -->
<g id="node3" class="node">
<title>Node3</title>
<g id="a_node3"><a xlink:href="group__ie__int4__quant.html#gab017a4b1dff62c0ef8f1ed4f94375302" target="_top" xlink:title="Dequantize a packed INT4 matrix with per&#45;row scales.">
<polygon fill="none" stroke="black" points="170,-39 170,-69 279,-69 279,-39 170,-39"/>
<text text-anchor="start" x="178" y="-57" font-family="Helvetica,sans-Serif" font-size="10.00">ie_int4_dequantize</text>
<text text-anchor="middle" x="224.5" y="-46" font-family="Helvetica,sans-Serif" font-size="10.00">_per_row</text>
</a>
</g>
</g>
<!-- Node1&#45;&gt;Node3 -->
<g id="edge2" class="edge">
<title>Node1&#45;&gt;Node3</title>
<path fill="none" stroke="midnightblue" d="M98.35,-93.44C117.61,-87.37 143.14,-79.32 166.12,-72.08"/>
<polygon fill="midnightblue" stroke="midnightblue" points="167.29,-75.38 175.78,-69.04 165.19,-68.7 167.29,-75.38"/>
</g>
<!-- Node4 -->
<g id="node4" class="node">
<title>Node4</title>
<g id="a_node4"><a xlink:href="group__ie__int4__quant.html#gae9b8a40c7d01f1fa7f00487737c772b2" target="_top" xlink:title="Compute the number of packed bytes required to store a single row of cols 4&#45;bit values (two per byte)...">
<polygon fill="none" stroke="black" points="315,-93.5 315,-112.5 415,-112.5 415,-93.5 315,-93.5"/>
<text text-anchor="middle" x="365" y="-100.5" font-family="Helvetica,sans-Serif" font-size="10.00">ie_int4_rowbytes</text>
</a>
</g>
</g>
<!-- Node1&#45;&gt;Node4 -->
<g id="edge8" class="edge">
<title>Node1&#45;&gt;Node4</title>
<path fill="none" stroke="midnightblue" d="M98.89,-112.63C118.94,-118.36 145.74,-125.07 170,-128 218.1,-133.81 231.05,-134.91 279,-128 295.58,-125.61 313.43,-120.73 328.47,-115.92"/>
<polygon fill="midnightblue" stroke="midnightblue" points="330,-119.1 338.39,-112.62 327.79,-112.45 330,-119.1"/>
</g>
<!-- Node6 -->
<g id="node6" class="node">
<title>Node6</title>
<g id="a_node6"><a xlink:href="group__ie__int4__quant.html#ga7aaa2156d41e9a58eb6013cec4b32d78" target="_top" xlink:title="Dequantize a packed INT4 matrix using a single (per&#45;tensor) scale.">
<polygon fill="none" stroke="black" points="170,-88 170,-118 279,-118 279,-88 170,-88"/>
<text text-anchor="start" x="178" y="-106" font-family="Helvetica,sans-Serif" font-size="10.00">ie_int4_dequantize</text>
<text text-anchor="middle" x="224.5" y="-95" font-family="Helvetica,sans-Serif" font-size="10.00">_per_tensor</text>
</a>
</g>
</g>
<!-- Node1&#45;&gt;Node6 -->
<g id="edge5" class="edge">
<title>Node1&#45;&gt;Node6</title>
<path fill="none" stroke="midnightblue" d="M134.4,-103C142.85,-103 151.48,-103 159.89,-103"/>
<polygon fill="midnightblue" stroke="midnightblue" points="160,-106.5 170,-103 160,-99.5 160,-106.5"/>
</g>
<!-- Node7 -->
<g id="node7" class="node">
<title>Node7</title>
<g id="a_node7"><a xlink:href="weights_8c.html#aabb19f4a5e5385962c6db57f611bb785" target="_top" xlink:title=" ">
<polygon fill="none" stroke="black" points="195,-0.5 195,-19.5 254,-19.5 254,-0.5 195,-0.5"/>
<text text-anchor="middle" x="224.5" y="-7.5" font-family="Helvetica,sans-Serif" font-size="10.00">ie_pread</text>
</a>
</g>
</g>
<!-- Node1&#45;&gt;Node7 -->
<g id="edge9" class="edge">
<title>Node1&#45;&gt;Node7</title>
<path fill="none" stroke="midnightblue" d="M78.92,-93.43C96.87,-78.1 134.18,-47.85 170,-29 174.85,-26.45 180.12,-24.11 185.4,-22.01"/>
<polygon fill="midnightblue" stroke="midnightblue" points="186.67,-25.27 194.81,-18.49 184.22,-18.71 186.67,-25.27"/>
</g>
<!-- Node3&#45;&gt;Node4 -->
<g id="edge3" class="edge">
<title>Node3&#45;&gt;Node4</title>
<path fill="none" stroke="midnightblue" d="M268.18,-69.1C287.1,-75.79 309.12,-83.59 327.29,-90.01"/>
<polygon fill="midnightblue" stroke="midnightblue" points="326.34,-93.39 336.93,-93.42 328.67,-86.79 326.34,-93.39"/>
</g>
<!-- Node5 -->
<g id="node5" class="node">
<title>Node5</title>
<g id="a_node5"><a xlink:href="int4__ptq_8c.html#a17c5de65148c5a3bac0c3d8e5f227c9c" target="_top" xlink:title="Unpack two signed 4&#45;bit integers from a single byte.">
<polygon fill="none" stroke="black" points="318.5,-50.5 318.5,-69.5 411.5,-69.5 411.5,-50.5 318.5,-50.5"/>
<text text-anchor="middle" x="365" y="-57.5" font-family="Helvetica,sans-Serif" font-size="10.00">unpack_q4_pair</text>
</a>
</g>
</g>
<!-- Node3&#45;&gt;Node5 -->
<g id="edge4" class="edge">
<title>Node3&#45;&gt;Node5</title>
<path fill="none" stroke="midnightblue" d="M279.05,-56.32C288.55,-56.73 298.47,-57.16 308.04,-57.58"/>
<polygon fill="midnightblue" stroke="midnightblue" points="308.1,-61.08 318.25,-58.02 308.41,-54.09 308.1,-61.08"/>
</g>
<!-- Node6&#45;&gt;Node4 -->
<g id="edge6" class="edge">
<title>Node6&#45;&gt;Node4</title>
<path fill="none" stroke="midnightblue" d="M279.05,-103C287.38,-103 296.04,-103 304.49,-103"/>
<polygon fill="midnightblue" stroke="midnightblue" points="304.67,-106.5 314.67,-103 304.67,-99.5 304.67,-106.5"/>
</g>
<!-- Node6&#45;&gt;Node5 -->
<g id="edge7" class="edge">
<title>Node6&#45;&gt;Node5</title>
<path fill="none" stroke="midnightblue" d="M273.94,-87.96C290.07,-82.95 307.85,-77.43 323.33,-72.63"/>
<polygon fill="midnightblue" stroke="midnightblue" points="324.61,-75.89 333.12,-69.59 322.53,-69.21 324.61,-75.89"/>
</g>
</g>
</svg>
