<?xml version="1.0" encoding="UTF-8" standalone="no"?>
<!DOCTYPE svg PUBLIC "-//W3C//DTD SVG 1.1//EN"
 "http://www.w3.org/Graphics/SVG/1.1/DTD/svg11.dtd">
<!-- Generated by graphviz version 2.43.0 (0)
 -->
<!-- Title: ie_parse_iejson_one_tensor Pages: 1 -->
<svg width="998pt" height="405pt"
 viewBox="0.00 0.00 998.00 405.00" xmlns="http://www.w3.org/2000/svg" xmlns:xlink="http://www.w3.org/1999/xlink">
<g id="graph0" class="graph" transform="scale(1 1) rotate(0) translate(4 401)">
<title>ie_parse_iejson_one_tensor</title>
<!-- Node1 -->
<g id="Node000001" class="node">
<title>Node1</title>
<g id="a_Node000001"><a xlink:title=" ">
<polygon fill="#999999" stroke="#666666" points="116,-232.5 0,-232.5 0,-202.5 116,-202.5 116,-232.5"/>
<text text-anchor="start" x="8" y="-220.5" font-family="Helvetica,sans-Serif" font-size="10.00">ie_parse_iejson_one</text>
<text text-anchor="middle" x="58" y="-209.5" font-family="Helvetica,sans-Serif" font-size="10.00">_tensor</text>
</a>
</g>
</g>
<!-- Node2 -->
<g id="Node000002" class="node">
<title>Node2</title>
<g id="a_Node000002"><a xlink:href="weights__dedup_8c.html#a769c13c3bd5730384bfe064bc1618b11" target="_top" xlink:title=" ">
<polygon fill="white" stroke="#666666" points="277,-381 164,-381 164,-362 277,-362 277,-381"/>
<text text-anchor="middle" x="220.5" y="-369" font-family="Helvetica,sans-Serif" font-size="10.00">ie_dtype_elem_size</text>
</a>
</g>
</g>
<!-- Node1&#45;&gt;Node2 -->
<g id="edge1_Node000001_Node000002" class="edge">
<title>Node1&#45;&gt;Node2</title>
<g id="a_edge1_Node000001_Node000002"><a xlink:title=" ">
<path fill="none" stroke="#63b8ff" d="M65.13,-232.8C77.27,-261.14 107.17,-321.78 152,-353.5 154.12,-355 156.36,-356.38 158.69,-357.64"/>
<polygon fill="#63b8ff" stroke="#63b8ff" points="157.44,-360.92 167.99,-361.96 160.39,-354.57 157.44,-360.92"/>
</a>
</g>
</g>
<!-- Node3 -->
<g id="Node000003" class="node">
<title>Node3</title>
<g id="a_Node000003"><a xlink:href="weights__dedup_8c.html#ac9fd98c11a69e8bc29305133401f9b5a" target="_top" xlink:title=" ">
<polygon fill="white" stroke="#666666" points="281,-344 160,-344 160,-325 281,-325 281,-344"/>
<text text-anchor="middle" x="220.5" y="-332" font-family="Helvetica,sans-Serif" font-size="10.00">ie_iejson_tensor_free</text>
</a>
</g>
</g>
<!-- Node1&#45;&gt;Node3 -->
<g id="edge2_Node000001_Node000003" class="edge">
<title>Node1&#45;&gt;Node3</title>
<g id="a_edge2_Node000001_Node000003"><a xlink:title=" ">
<path fill="none" stroke="#63b8ff" d="M69.09,-232.74C84.39,-254.63 115.56,-294.73 152,-316.5 154.86,-318.21 157.89,-319.76 161.01,-321.17"/>
<polygon fill="#63b8ff" stroke="#63b8ff" points="160.01,-324.54 170.6,-324.96 162.59,-318.03 160.01,-324.54"/>
</a>
</g>
</g>
<!-- Node4 -->
<g id="Node000004" class="node">
<title>Node4</title>
<g id="a_Node000004"><a xlink:href="weights__dedup_8c.html#a4cce94dd277bd5e194b03d519205c2b4" target="_top" xlink:title=" ">
<polygon fill="white" stroke="#666666" points="281.5,-307 159.5,-307 159.5,-288 281.5,-288 281.5,-307"/>
<text text-anchor="middle" x="220.5" y="-295" font-family="Helvetica,sans-Serif" font-size="10.00">ie_shape_elem_count</text>
</a>
</g>
</g>
<!-- Node1&#45;&gt;Node4 -->
<g id="edge3_Node000001_Node000004" class="edge">
<title>Node1&#45;&gt;Node4</title>
<g id="a_edge3_Node000001_Node000004"><a xlink:title=" ">
<path fill="none" stroke="#63b8ff" d="M77.51,-232.52C95.55,-246.48 124.24,-266.96 152,-279.5 156.33,-281.46 160.92,-283.24 165.58,-284.85"/>
<polygon fill="#63b8ff" stroke="#63b8ff" points="164.61,-288.21 175.2,-287.92 166.74,-281.54 164.61,-288.21"/>
</a>
</g>
</g>
<!-- Node5 -->
<g id="Node000005" class="node">
<title>Node5</title>
<g id="a_Node000005"><a xlink:href="weights__dedup_8c.html#a895464d80bf34b1528d1f98084f5ec64" target="_top" xlink:title=" ">
<polygon fill="white" stroke="#666666" points="267,-270 174,-270 174,-251 267,-251 267,-270"/>
<text text-anchor="middle" x="220.5" y="-258" font-family="Helvetica,sans-Serif" font-size="10.00">ie_wdedup_logf</text>
</a>
</g>
</g>
<!-- Node1&#45;&gt;Node5 -->
<g id="edge4_Node000001_Node000005" class="edge">
<title>Node1&#45;&gt;Node5</title>
<g id="a_edge4_Node000001_Node000005"><a xlink:title=" ">
<path fill="none" stroke="#63b8ff" d="M115.14,-232.54C134.36,-237.69 155.61,-243.38 173.9,-248.28"/>
<polygon fill="#63b8ff" stroke="#63b8ff" points="173.15,-251.71 183.72,-250.91 174.96,-244.94 173.15,-251.71"/>
</a>
</g>
</g>
<!-- Node8 -->
<g id="Node000008" class="node">
<title>Node8</title>
<g id="a_Node000008"><a xlink:href="weights__dedup_8c.html#ad0ae06a184c7f1407994167e82afedb7" target="_top" xlink:title=" ">
<polygon fill="white" stroke="#666666" points="289,-232.5 152,-232.5 152,-202.5 289,-202.5 289,-232.5"/>
<text text-anchor="start" x="160" y="-220.5" font-family="Helvetica,sans-Serif" font-size="10.00">ie_weights_dedup_parse</text>
<text text-anchor="middle" x="220.5" y="-209.5" font-family="Helvetica,sans-Serif" font-size="10.00">_dtype</text>
</a>
</g>
</g>
<!-- Node1&#45;&gt;Node8 -->
<g id="edge8_Node000001_Node000008" class="edge">
<title>Node1&#45;&gt;Node8</title>
<g id="a_edge8_Node000001_Node000008"><a xlink:title=" ">
<path fill="none" stroke="#63b8ff" d="M116.04,-217.5C124.39,-217.5 133.11,-217.5 141.8,-217.5"/>
<polygon fill="#63b8ff" stroke="#63b8ff" points="141.94,-221 151.94,-217.5 141.94,-214 141.94,-221"/>
</a>
</g>
</g>
<!-- Node9 -->
<g id="Node000009" class="node">
<title>Node9</title>
<g id="a_Node000009"><a xlink:href="weights__dedup_8c.html#ae0494f541a190a9ecf82c11c5eb22952" target="_top" xlink:title=" ">
<polygon fill="white" stroke="#666666" points="452,-171 325,-171 325,-152 452,-152 452,-171"/>
<text text-anchor="middle" x="388.5" y="-159" font-family="Helvetica,sans-Serif" font-size="10.00">js_find_member_value</text>
</a>
</g>
</g>
<!-- Node1&#45;&gt;Node9 -->
<g id="edge9_Node000001_Node000009" class="edge">
<title>Node1&#45;&gt;Node9</title>
<g id="a_edge9_Node000001_Node000009"><a xlink:title=" ">
<path fill="none" stroke="#63b8ff" d="M112.85,-202.46C125.62,-199.21 139.24,-196 152,-193.5 206.13,-182.88 267.95,-174.62 314.66,-169.16"/>
<polygon fill="#63b8ff" stroke="#63b8ff" points="315.16,-172.62 324.7,-168 314.36,-165.67 315.16,-172.62"/>
</a>
</g>
</g>
<!-- Node17 -->
<g id="Node000017" class="node">
<title>Node17</title>
<g id="a_Node000017"><a xlink:href="weights__dedup_8c.html#a176ff7ed51749363637a7ad5366cf4e9" target="_top" xlink:title=" ">
<polygon fill="white" stroke="#666666" points="608.5,-19 516.5,-19 516.5,0 608.5,0 608.5,-19"/>
<text text-anchor="middle" x="562.5" y="-7" font-family="Helvetica,sans-Serif" font-size="10.00">js_parse_shape</text>
</a>
</g>
</g>
<!-- Node1&#45;&gt;Node17 -->
<g id="edge26_Node000001_Node000017" class="edge">
<title>Node1&#45;&gt;Node17</title>
<g id="a_edge26_Node000001_Node000017"><a xlink:title=" ">
<path fill="none" stroke="#63b8ff" d="M64.65,-202.16C76.2,-173.17 105.38,-110.58 152,-80.5 262.29,-9.33 422.61,-3.46 506.17,-6.02"/>
<polygon fill="#63b8ff" stroke="#63b8ff" points="506.1,-9.52 516.22,-6.38 506.35,-2.52 506.1,-9.52"/>
</a>
</g>
</g>
<!-- Node18 -->
<g id="Node000018" class="node">
<title>Node18</title>
<g id="a_Node000018"><a xlink:href="weights__dedup_8c.html#ace1eab87292a3ab28bc10e2a8741b84b" target="_top" xlink:title=" ">
<polygon fill="white" stroke="#666666" points="278.5,-146 162.5,-146 162.5,-127 278.5,-127 278.5,-146"/>
<text text-anchor="middle" x="220.5" y="-134" font-family="Helvetica,sans-Serif" font-size="10.00">js_read_str_member</text>
</a>
</g>
</g>
<!-- Node1&#45;&gt;Node18 -->
<g id="edge29_Node000001_Node000018" class="edge">
<title>Node1&#45;&gt;Node18</title>
<g id="a_edge29_Node000001_Node000018"><a xlink:title=" ">
<path fill="none" stroke="#63b8ff" d="M80.82,-202.33C99.21,-189.98 126.54,-172.66 152,-160.5 160.49,-156.44 169.85,-152.69 178.84,-149.41"/>
<polygon fill="#63b8ff" stroke="#63b8ff" points="180.11,-152.68 188.37,-146.05 177.78,-146.07 180.11,-152.68"/>
</a>
</g>
</g>
<!-- Node19 -->
<g id="Node000019" class="node">
<title>Node19</title>
<g id="a_Node000019"><a xlink:href="weights__dedup_8c.html#ad380703417334421d025a859a9a6e67e" target="_top" xlink:title=" ">
<polygon fill="white" stroke="#666666" points="281.5,-109 159.5,-109 159.5,-90 281.5,-90 281.5,-109"/>
<text text-anchor="middle" x="220.5" y="-97" font-family="Helvetica,sans-Serif" font-size="10.00">js_read_u64_member</text>
</a>
</g>
</g>
<!-- Node1&#45;&gt;Node19 -->
<g id="edge32_Node000001_Node000019" class="edge">
<title>Node1&#45;&gt;Node19</title>
<g id="a_edge32_Node000001_Node000019"><a xlink:title=" ">
<path fill="none" stroke="#63b8ff" d="M69.13,-202.33C84.48,-180.52 115.71,-140.52 152,-118.5 155.57,-116.33 159.4,-114.4 163.35,-112.69"/>
<polygon fill="#63b8ff" stroke="#63b8ff" points="164.65,-115.94 172.72,-109.07 162.13,-109.41 164.65,-115.94"/>
</a>
</g>
</g>
<!-- Node6 -->
<g id="Node000006" class="node">
<title>Node6</title>
<g id="a_Node000006"><a xlink:href="weights__dedup_8c.html#a793c9dc00898ddef8449e1c2275e4a1f" target="_top" xlink:title=" ">
<polygon fill="white" stroke="#666666" points="637,-397 488,-397 488,-378 637,-378 637,-397"/>
<text text-anchor="middle" x="562.5" y="-385" font-family="Helvetica,sans-Serif" font-size="10.00">ie_wdedup_debug_enabled</text>
</a>
</g>
</g>
<!-- Node5&#45;&gt;Node6 -->
<g id="edge5_Node000005_Node000006" class="edge">
<title>Node5&#45;&gt;Node6</title>
<g id="a_edge5_Node000005_Node000006"><a xlink:title=" ">
<path fill="none" stroke="#63b8ff" d="M263.7,-270.04C272.26,-272.62 281.07,-275.76 289,-279.5 306.62,-287.81 307.7,-295.55 325,-304.5 393.44,-339.88 415.15,-338.43 488,-363.5 498.88,-367.25 510.72,-371.17 521.66,-374.74"/>
<polygon fill="#63b8ff" stroke="#63b8ff" points="520.8,-378.15 531.39,-377.91 522.96,-371.49 520.8,-378.15"/>
</a>
</g>
</g>
<!-- Node7 -->
<g id="Node000007" class="node">
<title>Node7</title>
<g id="a_Node000007"><a xlink:href="weights__dedup_8c.html#a188c98dc2eeb2392190791e95abd4945" target="_top" xlink:title=" ">
<polygon fill="white" stroke="#666666" points="438,-295 339,-295 339,-276 438,-276 438,-295"/>
<text text-anchor="middle" x="388.5" y="-283" font-family="Helvetica,sans-Serif" font-size="10.00">ie_wdedup_vlogf</text>
</a>
</g>
</g>
<!-- Node5&#45;&gt;Node7 -->
<g id="edge6_Node000005_Node000007" class="edge">
<title>Node5&#45;&gt;Node7</title>
<g id="a_edge6_Node000005_Node000007"><a xlink:title=" ">
<path fill="none" stroke="#63b8ff" d="M267.3,-267.4C286.35,-270.27 308.69,-273.63 328.91,-276.68"/>
<polygon fill="#63b8ff" stroke="#63b8ff" points="328.54,-280.16 338.95,-278.19 329.58,-273.24 328.54,-280.16"/>
</a>
</g>
</g>
<!-- Node7&#45;&gt;Node6 -->
<g id="edge7_Node000007_Node000006" class="edge">
<title>Node7&#45;&gt;Node6</title>
<g id="a_edge7_Node000007_Node000006"><a xlink:title=" ">
<path fill="none" stroke="#63b8ff" d="M399.28,-295.24C416.07,-311.48 452.06,-344.21 488,-363.5 496.08,-367.84 505.08,-371.57 513.93,-374.71"/>
<polygon fill="#63b8ff" stroke="#63b8ff" points="512.84,-378.03 523.43,-377.88 515.06,-371.39 512.84,-378.03"/>
</a>
</g>
</g>
<!-- Node10 -->
<g id="Node000010" class="node">
<title>Node10</title>
<g id="a_Node000010"><a xlink:href="weights__dedup_8c.html#a7e3b6f5b10e0d8d68272d2e80523813b" target="_top" xlink:title=" ">
<polygon fill="white" stroke="#666666" points="885,-171 795,-171 795,-152 885,-152 885,-171"/>
<text text-anchor="middle" x="840" y="-159" font-family="Helvetica,sans-Serif" font-size="10.00">js_parse_string</text>
</a>
</g>
</g>
<!-- Node9&#45;&gt;Node10 -->
<g id="edge10_Node000009_Node000010" class="edge">
<title>Node9&#45;&gt;Node10</title>
<g id="a_edge10_Node000009_Node000010"><a xlink:title=" ">
<path fill="none" stroke="#63b8ff" d="M452,-161.5C540.58,-161.5 701.15,-161.5 784.89,-161.5"/>
<polygon fill="#63b8ff" stroke="#63b8ff" points="784.96,-165 794.96,-161.5 784.96,-158 784.96,-165"/>
</a>
</g>
</g>
<!-- Node11 -->
<g id="Node000011" class="node">
<title>Node11</title>
<g id="a_Node000011"><a xlink:href="weights__dedup_8c.html#a21501177295cc06eaf7d981f7d437c0c" target="_top" xlink:title=" ">
<polygon fill="white" stroke="#666666" points="990,-209 921,-209 921,-190 990,-190 990,-209"/>
<text text-anchor="middle" x="955.5" y="-197" font-family="Helvetica,sans-Serif" font-size="10.00">js_skip_ws</text>
</a>
</g>
</g>
<!-- Node9&#45;&gt;Node11 -->
<g id="edge25_Node000009_Node000011" class="edge">
<title>Node9&#45;&gt;Node11</title>
<g id="a_edge25_Node000009_Node000011"><a xlink:title=" ">
<path fill="none" stroke="#63b8ff" d="M401.84,-171C439.69,-199.45 558.52,-283.61 673,-310.5 765.47,-332.22 803.79,-332.77 885,-283.5 911.58,-267.37 932.66,-237.36 944.36,-217.92"/>
<polygon fill="#63b8ff" stroke="#63b8ff" points="947.49,-219.5 949.47,-209.09 941.43,-216 947.49,-219.5"/>
</a>
</g>
</g>
<!-- Node12 -->
<g id="Node000012" class="node">
<title>Node12</title>
<g id="a_Node000012"><a xlink:href="weights__dedup_8c.html#aec6b7531542a45304d1f17d108a6d2ea" target="_top" xlink:title=" ">
<polygon fill="white" stroke="#666666" points="604,-209 521,-209 521,-190 604,-190 604,-209"/>
<text text-anchor="middle" x="562.5" y="-197" font-family="Helvetica,sans-Serif" font-size="10.00">js_skip_value</text>
</a>
</g>
</g>
<!-- Node9&#45;&gt;Node12 -->
<g id="edge12_Node000009_Node000012" class="edge">
<title>Node9&#45;&gt;Node12</title>
<g id="a_edge12_Node000009_Node000012"><a xlink:title=" ">
<path fill="none" stroke="#63b8ff" d="M432.9,-171.09C456.61,-176.33 486.09,-182.84 510.84,-188.31"/>
<polygon fill="#63b8ff" stroke="#63b8ff" points="510.25,-191.76 520.77,-190.5 511.76,-184.93 510.25,-191.76"/>
</a>
</g>
</g>
<!-- Node10&#45;&gt;Node11 -->
<g id="edge11_Node000010_Node000011" class="edge">
<title>Node10&#45;&gt;Node11</title>
<g id="a_edge11_Node000010_Node000011"><a xlink:title=" ">
<path fill="none" stroke="#63b8ff" d="M869.64,-171.09C883.75,-175.81 900.97,-181.58 916.2,-186.68"/>
<polygon fill="#63b8ff" stroke="#63b8ff" points="915.27,-190.06 925.87,-189.91 917.5,-183.42 915.27,-190.06"/>
</a>
</g>
</g>
<!-- Node12&#45;&gt;Node10 -->
<g id="edge16_Node000012_Node000010" class="edge">
<title>Node12&#45;&gt;Node10</title>
<g id="a_edge16_Node000012_Node000010"><a xlink:title=" ">
<path fill="none" stroke="#63b8ff" d="M604.26,-192.37C624.83,-188.88 650.21,-184.74 673,-181.5 710.21,-176.2 752.25,-171.15 784.71,-167.44"/>
<polygon fill="#63b8ff" stroke="#63b8ff" points="785.35,-170.89 794.89,-166.29 784.56,-163.94 785.35,-170.89"/>
</a>
</g>
</g>
<!-- Node12&#45;&gt;Node11 -->
<g id="edge24_Node000012_Node000011" class="edge">
<title>Node12&#45;&gt;Node11</title>
<g id="a_edge24_Node000012_Node000011"><a xlink:title=" ">
<path fill="none" stroke="#63b8ff" d="M570.68,-209.04C586.49,-229.15 626.64,-275.47 673,-292.5 770.36,-328.26 888.87,-250.1 934.9,-215.21"/>
<polygon fill="#63b8ff" stroke="#63b8ff" points="937.11,-217.93 942.88,-209.04 932.82,-212.39 937.11,-217.93"/>
</a>
</g>
</g>
<!-- Node13 -->
<g id="Node000013" class="node">
<title>Node13</title>
<g id="a_Node000013"><a xlink:href="weights__dedup_8c.html#acb6d250836afa5eddeb1985efad8afa4" target="_top" xlink:title=" ">
<polygon fill="white" stroke="#666666" points="754,-246 678,-246 678,-227 754,-227 754,-246"/>
<text text-anchor="middle" x="716" y="-234" font-family="Helvetica,sans-Serif" font-size="10.00">js_match_lit</text>
</a>
</g>
</g>
<!-- Node12&#45;&gt;Node13 -->
<g id="edge13_Node000012_Node000013" class="edge">
<title>Node12&#45;&gt;Node13</title>
<g id="a_edge13_Node000012_Node000013"><a xlink:title=" ">
<path fill="none" stroke="#63b8ff" d="M602.52,-209.03C622.48,-213.9 646.94,-219.88 667.94,-225.01"/>
<polygon fill="#63b8ff" stroke="#63b8ff" points="667.4,-228.48 677.94,-227.45 669.06,-221.68 667.4,-228.48"/>
</a>
</g>
</g>
<!-- Node14 -->
<g id="Node000014" class="node">
<title>Node14</title>
<g id="a_Node000014"><a xlink:href="weights__dedup_8c.html#a080768f8631e237e2467fc47a7d4d6a0" target="_top" xlink:title=" ">
<polygon fill="white" stroke="#666666" points="754.5,-57 677.5,-57 677.5,-38 754.5,-38 754.5,-57"/>
<text text-anchor="middle" x="716" y="-45" font-family="Helvetica,sans-Serif" font-size="10.00">js_parse_i64</text>
</a>
</g>
</g>
<!-- Node12&#45;&gt;Node14 -->
<g id="edge14_Node000012_Node000014" class="edge">
<title>Node12&#45;&gt;Node14</title>
<g id="a_edge14_Node000012_Node000014"><a xlink:title=" ">
<path fill="none" stroke="#63b8ff" d="M572.98,-189.99C598.06,-164.83 666.43,-96.24 698.27,-64.29"/>
<polygon fill="#63b8ff" stroke="#63b8ff" points="700.95,-66.56 705.53,-57 695.99,-61.62 700.95,-66.56"/>
</a>
</g>
</g>
<!-- Node15 -->
<g id="Node000015" class="node">
<title>Node15</title>
<g id="a_Node000015"><a xlink:href="weights__dedup_8c.html#aeb7fa9bc2ccc7b24ae16f647bcafb49b" target="_top" xlink:title=" ">
<polygon fill="white" stroke="#666666" points="756.5,-209 675.5,-209 675.5,-190 756.5,-190 756.5,-209"/>
<text text-anchor="middle" x="716" y="-197" font-family="Helvetica,sans-Serif" font-size="10.00">js_skip_array</text>
</a>
</g>
</g>
<!-- Node12&#45;&gt;Node15 -->
<g id="edge17_Node000012_Node000015" class="edge">
<title>Node12&#45;&gt;Node15</title>
<g id="a_edge17_Node000012_Node000015"><a xlink:title=" ">
<path fill="none" stroke="#63b8ff" d="M604.1,-193.44C622.91,-192.64 645.43,-192.54 665.25,-193.12"/>
<polygon fill="#63b8ff" stroke="#63b8ff" points="665.22,-196.62 675.34,-193.48 665.47,-189.62 665.22,-196.62"/>
</a>
</g>
</g>
<!-- Node16 -->
<g id="Node000016" class="node">
<title>Node16</title>
<g id="a_Node000016"><a xlink:href="weights__dedup_8c.html#ae1e5c9a54a8c0312241d17afd01c40a0" target="_top" xlink:title=" ">
<polygon fill="white" stroke="#666666" points="759,-283 673,-283 673,-264 759,-264 759,-283"/>
<text text-anchor="middle" x="716" y="-271" font-family="Helvetica,sans-Serif" font-size="10.00">js_skip_object</text>
</a>
</g>
</g>
<!-- Node12&#45;&gt;Node16 -->
<g id="edge20_Node000012_Node000016" class="edge">
<title>Node12&#45;&gt;Node16</title>
<g id="a_edge20_Node000012_Node000016"><a xlink:title=" ">
<path fill="none" stroke="#63b8ff" d="M595.8,-209.1C617.45,-219.13 646.71,-234.16 673,-246.5 681.38,-250.43 690.85,-254.52 698.67,-258.66"/>
<polygon fill="#63b8ff" stroke="#63b8ff" points="697.12,-261.8 707.5,-263.92 700.7,-255.79 697.12,-261.8"/>
</a>
</g>
</g>
<!-- Node14&#45;&gt;Node11 -->
<g id="edge15_Node000014_Node000011" class="edge">
<title>Node14&#45;&gt;Node11</title>
<g id="a_edge15_Node000014_Node000011"><a xlink:title=" ">
<path fill="none" stroke="#63b8ff" d="M735.98,-57.08C767.74,-73.38 833.25,-108.19 885,-143.5 903.02,-155.79 922.24,-171.5 935.89,-183.15"/>
<polygon fill="#63b8ff" stroke="#63b8ff" points="933.75,-185.93 943.61,-189.81 938.32,-180.63 933.75,-185.93"/>
</a>
</g>
</g>
<!-- Node15&#45;&gt;Node11 -->
<g id="edge19_Node000015_Node000011" class="edge">
<title>Node15&#45;&gt;Node11</title>
<g id="a_edge19_Node000015_Node000011"><a xlink:title=" ">
<path fill="none" stroke="#63b8ff" d="M756.75,-199.5C799.3,-199.5 866.6,-199.5 910.65,-199.5"/>
<polygon fill="#63b8ff" stroke="#63b8ff" points="910.78,-203 920.78,-199.5 910.78,-196 910.78,-203"/>
</a>
</g>
</g>
<!-- Node15&#45;&gt;Node12 -->
<g id="edge18_Node000015_Node000012" class="edge">
<title>Node15&#45;&gt;Node12</title>
<g id="a_edge18_Node000015_Node000012"><a xlink:title=" ">
<path fill="none" stroke="#63b8ff" d="M675.34,-205.52C656.65,-206.34 634.15,-206.47 614.24,-205.91"/>
<polygon fill="#63b8ff" stroke="#63b8ff" points="614.22,-202.41 604.1,-205.56 613.97,-209.4 614.22,-202.41"/>
</a>
</g>
</g>
<!-- Node16&#45;&gt;Node10 -->
<g id="edge21_Node000016_Node000010" class="edge">
<title>Node16&#45;&gt;Node10</title>
<g id="a_edge21_Node000016_Node000010"><a xlink:title=" ">
<path fill="none" stroke="#63b8ff" d="M744.66,-263.81C749.66,-261.47 754.66,-258.7 759,-255.5 788.02,-234.11 813.45,-200.24 827.47,-179.53"/>
<polygon fill="#63b8ff" stroke="#63b8ff" points="830.49,-181.3 833.08,-171.03 824.65,-177.44 830.49,-181.3"/>
</a>
</g>
</g>
<!-- Node16&#45;&gt;Node11 -->
<g id="edge23_Node000016_Node000011" class="edge">
<title>Node16&#45;&gt;Node11</title>
<g id="a_edge23_Node000016_Node000011"><a xlink:title=" ">
<path fill="none" stroke="#63b8ff" d="M747.56,-263.98C790.02,-250.75 866.93,-226.78 914.09,-212.09"/>
<polygon fill="#63b8ff" stroke="#63b8ff" points="915.17,-215.42 923.68,-209.1 913.09,-208.74 915.17,-215.42"/>
</a>
</g>
</g>
<!-- Node16&#45;&gt;Node12 -->
<g id="edge22_Node000016_Node000012" class="edge">
<title>Node16&#45;&gt;Node12</title>
<g id="a_edge22_Node000016_Node000012"><a xlink:title=" ">
<path fill="none" stroke="#63b8ff" d="M672.55,-264.29C639.47,-248.75 601.79,-228.99 580.5,-214.93"/>
<polygon fill="#63b8ff" stroke="#63b8ff" points="582.4,-211.99 572.2,-209.1 578.37,-217.71 582.4,-211.99"/>
</a>
</g>
</g>
<!-- Node17&#45;&gt;Node11 -->
<g id="edge28_Node000017_Node000011" class="edge">
<title>Node17&#45;&gt;Node11</title>
<g id="a_edge28_Node000017_Node000011"><a xlink:title=" ">
<path fill="none" stroke="#63b8ff" d="M608.67,-7.39C676.92,-6.68 806.66,-15.41 885,-84.5 915.62,-111.5 936.85,-155.33 947.23,-180.36"/>
<polygon fill="#63b8ff" stroke="#63b8ff" points="944.05,-181.84 951,-189.83 950.55,-179.24 944.05,-181.84"/>
</a>
</g>
</g>
<!-- Node17&#45;&gt;Node14 -->
<g id="edge27_Node000017_Node000014" class="edge">
<title>Node17&#45;&gt;Node14</title>
<g id="a_edge27_Node000017_Node000014"><a xlink:title=" ">
<path fill="none" stroke="#63b8ff" d="M601.73,-19.09C621.71,-24.1 646.34,-30.28 667.53,-35.59"/>
<polygon fill="#63b8ff" stroke="#63b8ff" points="666.76,-39.01 677.31,-38.05 668.46,-32.22 666.76,-39.01"/>
</a>
</g>
</g>
<!-- Node18&#45;&gt;Node9 -->
<g id="edge30_Node000018_Node000009" class="edge">
<title>Node18&#45;&gt;Node9</title>
<g id="a_edge30_Node000018_Node000009"><a xlink:title=" ">
<path fill="none" stroke="#63b8ff" d="M278.63,-145.1C290.28,-146.86 302.68,-148.73 314.79,-150.55"/>
<polygon fill="#63b8ff" stroke="#63b8ff" points="314.46,-154.04 324.87,-152.07 315.5,-147.12 314.46,-154.04"/>
</a>
</g>
</g>
<!-- Node18&#45;&gt;Node10 -->
<g id="edge31_Node000018_Node000010" class="edge">
<title>Node18&#45;&gt;Node10</title>
<g id="a_edge31_Node000018_Node000010"><a xlink:title=" ">
<path fill="none" stroke="#63b8ff" d="M278.82,-138C325.46,-139.28 392.99,-141.26 452,-143.5 588.49,-148.68 622.57,-150.98 759,-157.5 767.39,-157.9 776.27,-158.34 784.94,-158.76"/>
<polygon fill="#63b8ff" stroke="#63b8ff" points="784.83,-162.26 794.99,-159.26 785.17,-155.27 784.83,-162.26"/>
</a>
</g>
</g>
<!-- Node19&#45;&gt;Node9 -->
<g id="edge33_Node000019_Node000009" class="edge">
<title>Node19&#45;&gt;Node9</title>
<g id="a_edge33_Node000019_Node000009"><a xlink:title=" ">
<path fill="none" stroke="#63b8ff" d="M258.92,-109.05C268.79,-111.83 279.37,-115.06 289,-118.5 312.9,-127.04 339.21,-138.64 358.62,-147.64"/>
<polygon fill="#63b8ff" stroke="#63b8ff" points="357.29,-150.88 367.83,-151.96 360.26,-144.54 357.29,-150.88"/>
</a>
</g>
</g>
<!-- Node19&#45;&gt;Node14 -->
<g id="edge34_Node000019_Node000014" class="edge">
<title>Node19&#45;&gt;Node14</title>
<g id="a_edge34_Node000019_Node000014"><a xlink:title=" ">
<path fill="none" stroke="#63b8ff" d="M250.6,-89.93C271.15,-83.59 299.47,-75.69 325,-71.5 447.02,-51.45 593.01,-47.79 666.96,-47.34"/>
<polygon fill="#63b8ff" stroke="#63b8ff" points="667.36,-50.84 677.34,-47.29 667.33,-43.84 667.36,-50.84"/>
</a>
</g>
</g>
</g>
</svg>
