<?xml version="1.0" encoding="UTF-8" standalone="no"?>
<!DOCTYPE svg PUBLIC "-//W3C//DTD SVG 1.1//EN"
 "http://www.w3.org/Graphics/SVG/1.1/DTD/svg11.dtd">
<!-- Generated by graphviz version 2.43.0 (0)
 -->
<!-- Title: ie_tensor_cmp_name Pages: 1 -->
<svg width="537pt" height="78pt"
 viewBox="0.00 0.00 537.00 77.50" xmlns="http://www.w3.org/2000/svg" xmlns:xlink="http://www.w3.org/1999/xlink">
<g id="graph0" class="graph" transform="scale(1 1) rotate(0) translate(4 73.5)">
<title>ie_tensor_cmp_name</title>
<!-- Node1 -->
<g id="node1" class="node">
<title>Node1</title>
<g id="a_node1"><a xlink:title="Compare tensor refs by name (qsort/bsearch).">
<polygon fill="#bfbfbf" stroke="black" points="408,-22.5 408,-41.5 529,-41.5 529,-22.5 408,-22.5"/>
<text text-anchor="middle" x="468.5" y="-29.5" font-family="Helvetica,sans-Serif" font-size="10.00">ie_tensor_cmp_name</text>
</a>
</g>
</g>
<!-- Node2 -->
<g id="node2" class="node">
<title>Node2</title>
<g id="a_node2"><a xlink:href="weights__dedup_8c.html#a29eeb45b46d8c731e71a73572aa336f7" target="_top" xlink:title="Binary&#45;search tensor table.">
<polygon fill="none" stroke="black" points="262.5,-42.5 262.5,-61.5 347.5,-61.5 347.5,-42.5 262.5,-42.5"/>
<text text-anchor="middle" x="305" y="-49.5" font-family="Helvetica,sans-Serif" font-size="10.00">ie_find_tensor</text>
</a>
</g>
</g>
<!-- Node1&#45;&gt;Node2 -->
<g id="edge1" class="edge">
<title>Node1&#45;&gt;Node2</title>
<path fill="none" stroke="midnightblue" d="M397.88,-40.62C380.82,-42.73 363.08,-44.93 347.8,-46.82"/>
<polygon fill="midnightblue" stroke="midnightblue" points="398.33,-44.09 407.82,-39.39 397.47,-37.15 398.33,-44.09"/>
</g>
<!-- Node4 -->
<g id="node4" class="node">
<title>Node4</title>
<g id="a_node4"><a xlink:href="weights__dedup_8h.html#aa625b41ce2a24826f8cb464661ace8ec" target="_top" xlink:title="Open a deduplicated model directory.">
<polygon fill="none" stroke="black" points="238,-3.5 238,-22.5 372,-22.5 372,-3.5 238,-3.5"/>
<text text-anchor="middle" x="305" y="-10.5" font-family="Helvetica,sans-Serif" font-size="10.00">ie_weights_dedup_open</text>
</a>
</g>
</g>
<!-- Node1&#45;&gt;Node4 -->
<g id="edge3" class="edge">
<title>Node1&#45;&gt;Node4</title>
<path fill="none" stroke="midnightblue" d="M397.64,-23.78C389.21,-22.79 380.61,-21.78 372.23,-20.79"/>
<polygon fill="midnightblue" stroke="midnightblue" points="397.48,-27.29 407.82,-24.98 398.3,-20.33 397.48,-27.29"/>
</g>
<!-- Node3 -->
<g id="node3" class="node">
<title>Node3</title>
<g id="a_node3"><a xlink:href="weights__dedup_8h.html#a3dde6478a937f4d2288026c1e9a9d499" target="_top" xlink:title="Lookup a tensor by name and return a uniform view.">
<polygon fill="none" stroke="black" points="77,-39 77,-69 202,-69 202,-39 77,-39"/>
<text text-anchor="start" x="85" y="-57" font-family="Helvetica,sans-Serif" font-size="10.00">ie_weights_dedup_get</text>
<text text-anchor="middle" x="139.5" y="-46" font-family="Helvetica,sans-Serif" font-size="10.00">_weight_view</text>
</a>
</g>
</g>
<!-- Node2&#45;&gt;Node3 -->
<g id="edge2" class="edge">
<title>Node2&#45;&gt;Node3</title>
<path fill="none" stroke="midnightblue" d="M252.16,-52.63C236.28,-52.83 218.65,-53.04 202.17,-53.25"/>
<polygon fill="midnightblue" stroke="midnightblue" points="252.36,-56.13 262.32,-52.51 252.28,-49.13 252.36,-56.13"/>
</g>
<!-- Node5 -->
<g id="node5" class="node">
<title>Node5</title>
<g id="a_node5"><a xlink:href="group__ie__io__weights.html#ga522dac028ee37aae1307ffdb6d65ec1d" target="_top" xlink:title="Open and parse IEBIN v1 metadata and resolve the weights path.">
<polygon fill="none" stroke="black" points="90.5,-0.5 90.5,-19.5 188.5,-19.5 188.5,-0.5 90.5,-0.5"/>
<text text-anchor="middle" x="139.5" y="-7.5" font-family="Helvetica,sans-Serif" font-size="10.00">ie_weights_open</text>
</a>
</g>
</g>
<!-- Node4&#45;&gt;Node5 -->
<g id="edge4" class="edge">
<title>Node4&#45;&gt;Node5</title>
<path fill="none" stroke="midnightblue" d="M227.84,-11.6C214.51,-11.36 200.98,-11.11 188.68,-10.88"/>
<polygon fill="midnightblue" stroke="midnightblue" points="227.91,-15.1 237.97,-11.79 228.04,-8.11 227.91,-15.1"/>
</g>
<!-- Node6 -->
<g id="node6" class="node">
<title>Node6</title>
<g id="a_node6"><a xlink:href="main__infer_8c.html#a3c04138a5bfe5d72780bb7e82a18e627" target="_top" xlink:title="Program entry point.">
<polygon fill="none" stroke="black" points="0,-0.5 0,-19.5 41,-19.5 41,-0.5 0,-0.5"/>
<text text-anchor="middle" x="20.5" y="-7.5" font-family="Helvetica,sans-Serif" font-size="10.00">main</text>
</a>
</g>
</g>
<!-- Node5&#45;&gt;Node6 -->
<g id="edge5" class="edge">
<title>Node5&#45;&gt;Node6</title>
<path fill="none" stroke="midnightblue" d="M80.04,-10C65.96,-10 51.89,-10 41.07,-10"/>
<polygon fill="midnightblue" stroke="midnightblue" points="80.24,-13.5 90.24,-10 80.24,-6.5 80.24,-13.5"/>
</g>
</g>
</svg>
