<?xml version="1.0" encoding="UTF-8" standalone="no"?>
<!DOCTYPE svg PUBLIC "-//W3C//DTD SVG 1.1//EN"
 "http://www.w3.org/Graphics/SVG/1.1/DTD/svg11.dtd">
<!-- Generated by graphviz version 2.43.0 (0)
 -->
<!-- Title: js_parse_i64 Pages: 1 -->
<!--zoomable 180 -->
<svg id="main" version="1.1" xmlns="http://www.w3.org/2000/svg" xmlns:xlink="http://www.w3.org/1999/xlink" xml:space="preserve" onload="init(evt)">
<style type="text/css"><![CDATA[
.edge:hover path { stroke: red; }
.edge:hover polygon { stroke: red; fill: red; }
]]></style>
<script type="text/javascript"><![CDATA[
var edges = document.getElementsByTagName('g');
if (edges && edges.length) {
  for (var i=0;i<edges.length;i++) {
    if (edges[i].id.substr(0,4)=='edge') {
      edges[i].setAttribute('class','edge');
    }
  }
}
]]></script>
        <defs>
                <circle id="rim" cx="0" cy="0" r="7"/>
                <circle id="rim2" cx="0" cy="0" r="3.5"/>
                <g id="zoomPlus">
                        <use xlink:href="#rim" fill="#404040">
                                <set attributeName="fill" to="#808080" begin="zoomplus.mouseover" end="zoomplus.mouseout"/>
                        </use>
                        <path d="M-4,0h8M0,-4v8" fill="none" stroke="white" stroke-width="1.5" pointer-events="none"/>
                </g>
                <g id="zoomMin">
                        <use xlink:href="#rim" fill="#404040">
                                <set attributeName="fill" to="#808080" begin="zoomminus.mouseover" end="zoomminus.mouseout"/>
                        </use>
                        <path d="M-4,0h8" fill="none" stroke="white" stroke-width="1.5" pointer-events="none"/>
                </g>
                <g id="dirArrow">
                        <path fill="none" stroke="white" stroke-width="1.5" d="M0,-3.0v7 M-2.5,-0.5L0,-3.0L2.5,-0.5"/>
                </g>
               <g id="resetDef">
                       <use xlink:href="#rim2" fill="#404040">
                               <set attributeName="fill" to="#808080" begin="reset.mouseover" end="reset.mouseout"/>
                       </use>
               </g>
        </defs>

<script type="text/javascript">
var viewWidth = 1200;
var viewHeight = 180;
var sectionId = 'dynsection-37';
</script>
<script xlink:href="svgpan.js"/>
<svg id="graph" class="graph">
<g id="viewport">
<title>js_parse_i64</title>
<!-- Node1 -->
<g id="node1" class="node">
<title>Node1</title>
<g id="a_node1"><a xlink:title="Parse a JSON integer (int64).">
<polygon fill="#bfbfbf" stroke="black" points="1115,-76.5 1115,-95.5 1192,-95.5 1192,-76.5 1115,-76.5"/>
<text text-anchor="middle" x="1153.5" y="-83.5" font-family="Helvetica,sans-Serif" font-size="10.00">js_parse_i64</text>
</a>
</g>
</g>
<!-- Node2 -->
<g id="node2" class="node">
<title>Node2</title>
<g id="a_node2"><a xlink:href="weights__dedup_8c.html#ac65e64ed76368c21cf76399a4eed1b90" target="_top" xlink:title="Parse a blob ref object: {&quot;file&quot;:&quot;defaults&quot;,&quot;offset&quot;:N,&quot;nbytes&quot;:M}.">
<polygon fill="none" stroke="black" points="700,-76.5 700,-95.5 797,-95.5 797,-76.5 700,-76.5"/>
<text text-anchor="middle" x="748.5" y="-83.5" font-family="Helvetica,sans-Serif" font-size="10.00">js_parse_blobref</text>
</a>
</g>
</g>
<!-- Node1&#45;&gt;Node2 -->
<g id="edge1" class="edge">
<title>Node1&#45;&gt;Node2</title>
<path fill="none" stroke="midnightblue" d="M1113.09,-98.14C1102.16,-100.97 1090.21,-103.57 1079,-105 970.54,-118.79 941.65,-117.21 833,-105 816.45,-103.14 798.4,-99.27 783.33,-95.51"/>
<polygon fill="midnightblue" stroke="midnightblue" points="1114.06,-101.5 1122.8,-95.5 1112.23,-94.75 1114.06,-101.5"/>
</g>
<!-- Node8 -->
<g id="node8" class="node">
<title>Node8</title>
<g id="a_node8"><a xlink:href="weights__dedup_8c.html#a176ff7ed51749363637a7ad5366cf4e9" target="_top" xlink:title="Parse a shape array: [d0, d1, ...].">
<polygon fill="none" stroke="black" points="702.5,-0.5 702.5,-19.5 794.5,-19.5 794.5,-0.5 702.5,-0.5"/>
<text text-anchor="middle" x="748.5" y="-7.5" font-family="Helvetica,sans-Serif" font-size="10.00">js_parse_shape</text>
</a>
</g>
</g>
<!-- Node1&#45;&gt;Node8 -->
<g id="edge7" class="edge">
<title>Node1&#45;&gt;Node8</title>
<path fill="none" stroke="midnightblue" d="M1116.79,-73.11C1078.54,-59.85 1015.78,-39.67 960,-29 903.6,-18.21 837.49,-13.51 794.62,-11.49"/>
<polygon fill="midnightblue" stroke="midnightblue" points="1115.85,-76.48 1126.44,-76.49 1118.16,-69.88 1115.85,-76.48"/>
</g>
<!-- Node9 -->
<g id="node9" class="node">
<title>Node9</title>
<g id="a_node9"><a xlink:href="weights__dedup_8c.html#aec6b7531542a45304d1f17d108a6d2ea" target="_top" xlink:title="Skip a generic JSON value (object/array/string/number/literal).">
<polygon fill="none" stroke="black" points="996,-76.5 996,-95.5 1079,-95.5 1079,-76.5 996,-76.5"/>
<text text-anchor="middle" x="1037.5" y="-83.5" font-family="Helvetica,sans-Serif" font-size="10.00">js_skip_value</text>
</a>
</g>
</g>
<!-- Node1&#45;&gt;Node9 -->
<g id="edge9" class="edge">
<title>Node1&#45;&gt;Node9</title>
<path fill="none" stroke="midnightblue" d="M1104.72,-86C1096.25,-86 1087.5,-86 1079.24,-86"/>
<polygon fill="midnightblue" stroke="midnightblue" points="1104.86,-89.5 1114.86,-86 1104.86,-82.5 1104.86,-89.5"/>
</g>
<!-- Node3 -->
<g id="node3" class="node">
<title>Node3</title>
<g id="a_node3"><a xlink:href="weights__dedup_8c.html#ac8435c15b639ac76b805cc23f609be12" target="_top" xlink:title="Parse one tensor object within the &quot;tensors&quot; array.">
<polygon fill="none" stroke="black" points="547,-76.5 547,-95.5 664,-95.5 664,-76.5 547,-76.5"/>
<text text-anchor="middle" x="605.5" y="-83.5" font-family="Helvetica,sans-Serif" font-size="10.00">ie_parse_one_tensor</text>
</a>
</g>
</g>
<!-- Node2&#45;&gt;Node3 -->
<g id="edge2" class="edge">
<title>Node2&#45;&gt;Node3</title>
<path fill="none" stroke="midnightblue" d="M689.74,-86C681.39,-86 672.8,-86 664.45,-86"/>
<polygon fill="midnightblue" stroke="midnightblue" points="689.76,-89.5 699.76,-86 689.76,-82.5 689.76,-89.5"/>
</g>
<!-- Node4 -->
<g id="node4" class="node">
<title>Node4</title>
<g id="a_node4"><a xlink:href="weights__dedup_8c.html#a1eaf38d57abdd040f9c40e2e3ea1525c" target="_top" xlink:title="Parse the &quot;tensors&quot; array into an allocated table.">
<polygon fill="none" stroke="black" points="381,-95.5 381,-114.5 511,-114.5 511,-95.5 381,-95.5"/>
<text text-anchor="middle" x="446" y="-102.5" font-family="Helvetica,sans-Serif" font-size="10.00">ie_parse_tensors_array</text>
</a>
</g>
</g>
<!-- Node3&#45;&gt;Node4 -->
<g id="edge3" class="edge">
<title>Node3&#45;&gt;Node4</title>
<path fill="none" stroke="midnightblue" d="M536.56,-94.2C528.12,-95.21 519.51,-96.25 511.13,-97.26"/>
<polygon fill="midnightblue" stroke="midnightblue" points="537.24,-97.64 546.75,-92.97 536.4,-90.69 537.24,-97.64"/>
</g>
<!-- Node5 -->
<g id="node5" class="node">
<title>Node5</title>
<g id="a_node5"><a xlink:href="weights__dedup_8h.html#aa625b41ce2a24826f8cb464661ace8ec" target="_top" xlink:title="Open a deduplicated model directory.">
<polygon fill="none" stroke="black" points="211,-114.5 211,-133.5 345,-133.5 345,-114.5 211,-114.5"/>
<text text-anchor="middle" x="278" y="-121.5" font-family="Helvetica,sans-Serif" font-size="10.00">ie_weights_dedup_open</text>
</a>
</g>
</g>
<!-- Node4&#45;&gt;Node5 -->
<g id="edge4" class="edge">
<title>Node4&#45;&gt;Node5</title>
<path fill="none" stroke="midnightblue" d="M370.86,-113.49C362.31,-114.46 353.64,-115.46 345.2,-116.42"/>
<polygon fill="midnightblue" stroke="midnightblue" points="371.28,-116.96 380.82,-112.35 370.49,-110.01 371.28,-116.96"/>
</g>
<!-- Node6 -->
<g id="node6" class="node">
<title>Node6</title>
<g id="a_node6"><a xlink:href="group__ie__io__weights.html#ga522dac028ee37aae1307ffdb6d65ec1d" target="_top" xlink:title="Open and parse IEBIN v1 metadata and resolve the weights path.">
<polygon fill="none" stroke="black" points="77,-114.5 77,-133.5 175,-133.5 175,-114.5 77,-114.5"/>
<text text-anchor="middle" x="126" y="-121.5" font-family="Helvetica,sans-Serif" font-size="10.00">ie_weights_open</text>
</a>
</g>
</g>
<!-- Node5&#45;&gt;Node6 -->
<g id="edge5" class="edge">
<title>Node5&#45;&gt;Node6</title>
<path fill="none" stroke="midnightblue" d="M200.66,-124C192.04,-124 183.43,-124 175.31,-124"/>
<polygon fill="midnightblue" stroke="midnightblue" points="200.77,-127.5 210.77,-124 200.77,-120.5 200.77,-127.5"/>
</g>
<!-- Node7 -->
<g id="node7" class="node">
<title>Node7</title>
<g id="a_node7"><a xlink:href="main__infer_8c.html#a3c04138a5bfe5d72780bb7e82a18e627" target="_top" xlink:title="Program entry point.">
<polygon fill="none" stroke="black" points="0,-114.5 0,-133.5 41,-133.5 41,-114.5 0,-114.5"/>
<text text-anchor="middle" x="20.5" y="-121.5" font-family="Helvetica,sans-Serif" font-size="10.00">main</text>
</a>
</g>
</g>
<!-- Node6&#45;&gt;Node7 -->
<g id="edge6" class="edge">
<title>Node6&#45;&gt;Node7</title>
<path fill="none" stroke="midnightblue" d="M66.79,-124C57.53,-124 48.55,-124 41.06,-124"/>
<polygon fill="midnightblue" stroke="midnightblue" points="66.89,-127.5 76.89,-124 66.89,-120.5 66.89,-127.5"/>
</g>
<!-- Node8&#45;&gt;Node3 -->
<g id="edge8" class="edge">
<title>Node8&#45;&gt;Node3</title>
<path fill="none" stroke="midnightblue" d="M718.64,-24.35C712.47,-27.48 706,-30.82 700,-34 672.93,-48.36 641.91,-65.81 623.28,-76.4"/>
<polygon fill="midnightblue" stroke="midnightblue" points="720.64,-27.26 728,-19.64 717.49,-21.01 720.64,-27.26"/>
</g>
<!-- Node10 -->
<g id="node10" class="node">
<title>Node10</title>
<g id="a_node10"><a xlink:href="weights__dedup_8c.html#ae0494f541a190a9ecf82c11c5eb22952" target="_top" xlink:title="Find a top&#45;level object member by key and return cursor at its value.">
<polygon fill="none" stroke="black" points="833,-152.5 833,-171.5 960,-171.5 960,-152.5 833,-152.5"/>
<text text-anchor="middle" x="896.5" y="-159.5" font-family="Helvetica,sans-Serif" font-size="10.00">js_find_member_value</text>
</a>
</g>
</g>
<!-- Node9&#45;&gt;Node10 -->
<g id="edge10" class="edge">
<title>Node9&#45;&gt;Node10</title>
<path fill="none" stroke="midnightblue" d="M1010.06,-100.46C982.14,-115.72 938.91,-139.36 914.96,-152.45"/>
<polygon fill="midnightblue" stroke="midnightblue" points="1011.8,-103.49 1018.9,-95.63 1008.44,-97.35 1011.8,-103.49"/>
</g>
<!-- Node11 -->
<g id="node11" class="node">
<title>Node11</title>
<g id="a_node11"><a xlink:href="weights__dedup_8c.html#aeb7fa9bc2ccc7b24ae16f647bcafb49b" target="_top" xlink:title="Skip a JSON array.">
<polygon fill="none" stroke="black" points="856,-76.5 856,-95.5 937,-95.5 937,-76.5 856,-76.5"/>
<text text-anchor="middle" x="896.5" y="-83.5" font-family="Helvetica,sans-Serif" font-size="10.00">js_skip_array</text>
</a>
</g>
</g>
<!-- Node9&#45;&gt;Node11 -->
<g id="edge14" class="edge">
<title>Node9&#45;&gt;Node11</title>
<path fill="none" stroke="midnightblue" d="M985.71,-79.47C969.79,-79.09 952.46,-79.2 937.41,-79.83"/>
<polygon fill="midnightblue" stroke="midnightblue" points="985.81,-82.98 995.92,-79.8 986.04,-75.98 985.81,-82.98"/>
</g>
<!-- Node12 -->
<g id="node12" class="node">
<title>Node12</title>
<g id="a_node12"><a xlink:href="weights__dedup_8c.html#ae1e5c9a54a8c0312241d17afd01c40a0" target="_top" xlink:title="Skip a JSON object.">
<polygon fill="none" stroke="black" points="853.5,-38.5 853.5,-57.5 939.5,-57.5 939.5,-38.5 853.5,-38.5"/>
<text text-anchor="middle" x="896.5" y="-45.5" font-family="Helvetica,sans-Serif" font-size="10.00">js_skip_object</text>
</a>
</g>
</g>
<!-- Node9&#45;&gt;Node12 -->
<g id="edge16" class="edge">
<title>Node9&#45;&gt;Node12</title>
<path fill="none" stroke="midnightblue" d="M1008.97,-72.97C989.15,-66.2 962.05,-58.54 939.53,-53.23"/>
<polygon fill="midnightblue" stroke="midnightblue" points="1008.02,-76.34 1018.61,-76.41 1010.37,-69.75 1008.02,-76.34"/>
</g>
<!-- Node10&#45;&gt;Node2 -->
<g id="edge13" class="edge">
<title>Node10&#45;&gt;Node2</title>
<path fill="none" stroke="midnightblue" d="M856.05,-148.88C848.22,-145.72 840.2,-142.06 833,-138 815.35,-128.04 814.13,-120.84 797,-110 788.73,-104.76 779.16,-99.75 770.79,-95.67"/>
<polygon fill="midnightblue" stroke="midnightblue" points="854.85,-152.17 865.44,-152.49 857.36,-145.64 854.85,-152.17"/>
</g>
<!-- Node10&#45;&gt;Node3 -->
<g id="edge11" class="edge">
<title>Node10&#45;&gt;Node3</title>
<path fill="none" stroke="midnightblue" d="M849.3,-149.85C791.94,-134.77 695.28,-109.35 642.89,-95.57"/>
<polygon fill="midnightblue" stroke="midnightblue" points="848.63,-153.29 859.19,-152.45 850.41,-146.52 848.63,-153.29"/>
</g>
<!-- Node10&#45;&gt;Node5 -->
<g id="edge12" class="edge">
<title>Node10&#45;&gt;Node5</title>
<path fill="none" stroke="midnightblue" d="M822.74,-157.52C701.96,-150.07 461.83,-135.27 345.39,-128.09"/>
<polygon fill="midnightblue" stroke="midnightblue" points="822.8,-161.03 832.99,-158.15 823.23,-154.04 822.8,-161.03"/>
</g>
<!-- Node11&#45;&gt;Node9 -->
<g id="edge15" class="edge">
<title>Node11&#45;&gt;Node9</title>
<path fill="none" stroke="midnightblue" d="M947.59,-92.51C963.46,-92.91 980.8,-92.81 995.92,-92.2"/>
<polygon fill="midnightblue" stroke="midnightblue" points="947.52,-89.01 937.41,-92.17 947.29,-96 947.52,-89.01"/>
</g>
<!-- Node12&#45;&gt;Node2 -->
<g id="edge18" class="edge">
<title>Node12&#45;&gt;Node2</title>
<path fill="none" stroke="midnightblue" d="M848.96,-60.11C828.63,-65.4 805.13,-71.52 786.08,-76.48"/>
<polygon fill="midnightblue" stroke="midnightblue" points="849.86,-63.5 858.66,-57.59 848.1,-56.72 849.86,-63.5"/>
</g>
<!-- Node12&#45;&gt;Node3 -->
<g id="edge17" class="edge">
<title>Node12&#45;&gt;Node3</title>
<path fill="none" stroke="midnightblue" d="M843.21,-51.6C803.73,-54.68 748.29,-59.77 700,-67 683.13,-69.53 664.7,-73.1 648.69,-76.46"/>
<polygon fill="midnightblue" stroke="midnightblue" points="843.69,-55.08 853.4,-50.83 843.16,-48.1 843.69,-55.08"/>
</g>
<!-- Node12&#45;&gt;Node9 -->
<g id="edge19" class="edge">
<title>Node12&#45;&gt;Node9</title>
<path fill="none" stroke="midnightblue" d="M924.76,-60.94C945.03,-67.88 973.03,-75.77 995.92,-81.11"/>
<polygon fill="midnightblue" stroke="midnightblue" points="925.81,-57.6 915.21,-57.53 923.45,-64.19 925.81,-57.6"/>
</g>
</g>
</svg>
        <g id="navigator" transform="translate(0 0)" fill="#404254">
                <rect fill="#f2f5e9" fill-opacity="0.5" stroke="#606060" stroke-width=".5" x="0" y="0" width="60" height="60"/>
                <use id="zoomplus" xlink:href="#zoomPlus" x="17" y="9" onmousedown="handleZoom(evt,'in')"/>
                <use id="zoomminus" xlink:href="#zoomMin" x="42" y="9" onmousedown="handleZoom(evt,'out')"/>
                <use id="reset" xlink:href="#resetDef" x="30" y="36" onmousedown="handleReset()"/>
                <g id="arrowUp" xlink:href="#dirArrow" transform="translate(30 24)" onmousedown="handlePan(0,-1)">
                  <use xlink:href="#rim" fill="#404040">
                        <set attributeName="fill" to="#808080" begin="arrowUp.mouseover" end="arrowUp.mouseout"/>
                  </use>
                  <path fill="none" stroke="white" stroke-width="1.5" d="M0,-3.0v7 M-2.5,-0.5L0,-3.0L2.5,-0.5"/>
                </g>
                <g id="arrowRight" xlink:href="#dirArrow" transform="rotate(90) translate(36 -43)" onmousedown="handlePan(1,0)">
                  <use xlink:href="#rim" fill="#404040">
                        <set attributeName="fill" to="#808080" begin="arrowRight.mouseover" end="arrowRight.mouseout"/>
                  </use>
                  <path fill="none" stroke="white" stroke-width="1.5" d="M0,-3.0v7 M-2.5,-0.5L0,-3.0L2.5,-0.5"/>
                </g>
                <g id="arrowDown" xlink:href="#dirArrow" transform="rotate(180) translate(-30 -48)" onmousedown="handlePan(0,1)">
                  <use xlink:href="#rim" fill="#404040">
                        <set attributeName="fill" to="#808080" begin="arrowDown.mouseover" end="arrowDown.mouseout"/>
                  </use>
                  <path fill="none" stroke="white" stroke-width="1.5" d="M0,-3.0v7 M-2.5,-0.5L0,-3.0L2.5,-0.5"/>
                </g>
                <g id="arrowLeft" xlink:href="#dirArrow" transform="rotate(270) translate(-36 17)" onmousedown="handlePan(-1,0)">
                  <use xlink:href="#rim" fill="#404040">
                        <set attributeName="fill" to="#808080" begin="arrowLeft.mouseover" end="arrowLeft.mouseout"/>
                  </use>
                  <path fill="none" stroke="white" stroke-width="1.5" d="M0,-3.0v7 M-2.5,-0.5L0,-3.0L2.5,-0.5"/>
                </g>
        </g>
        <svg viewBox="0 0 15 15" width="100%" height="30px" preserveAspectRatio="xMaxYMin meet">
         <g id="arrow_out" transform="scale(0.3 0.3)">
          <a xlink:href="weights__dedup_8c_a080768f8631e237e2467fc47a7d4d6a0_icgraph_org.svg" target="_base">
           <rect id="button" ry="5" rx="5" y="6" x="6" height="38" width="38"
                fill="#f2f5e9" fill-opacity="0.5" stroke="#606060" stroke-width="1.0"/>
           <path id="arrow"
             d="M 11.500037,31.436501 C 11.940474,20.09759 22.043105,11.32322 32.158766,21.979434 L 37.068811,17.246167 C 37.068811,17.246167 37.088388,32 37.088388,32 L 22.160133,31.978069 C 22.160133,31.978069 26.997745,27.140456 26.997745,27.140456 C 18.528582,18.264221 13.291696,25.230495 11.500037,31.436501 z"
             style="fill:#404040;"/>
          </a>
         </g>
        </svg>
</svg>
