<?xml version="1.0" encoding="UTF-8" standalone="no"?>
<!DOCTYPE svg PUBLIC "-//W3C//DTD SVG 1.1//EN"
 "http://www.w3.org/Graphics/SVG/1.1/DTD/svg11.dtd">
<!-- Generated by graphviz version 2.43.0 (0)
 -->
<!-- Title: engine/src/io/weights_dedup.c Pages: 1 -->
<svg width="804pt" height="207pt"
 viewBox="0.00 0.00 804.00 207.00" xmlns="http://www.w3.org/2000/svg" xmlns:xlink="http://www.w3.org/1999/xlink">
<g id="graph0" class="graph" transform="scale(1 1) rotate(0) translate(4 203)">
<title>engine/src/io/weights_dedup.c</title>
<!-- Node1 -->
<g id="node1" class="node">
<title>Node1</title>
<g id="a_node1"><a xlink:title="Lossless deduplicated&#45;weights loader and materialization utilities.">
<polygon fill="#bfbfbf" stroke="black" points="351,-168.5 351,-198.5 471,-198.5 471,-168.5 351,-168.5"/>
<text text-anchor="start" x="359" y="-186.5" font-family="Helvetica,sans-Serif" font-size="10.00">engine/src/io/weights</text>
<text text-anchor="middle" x="411" y="-175.5" font-family="Helvetica,sans-Serif" font-size="10.00">_dedup.c</text>
</a>
</g>
</g>
<!-- Node2 -->
<g id="node2" class="node">
<title>Node2</title>
<g id="a_node2"><a xlink:href="weights__dedup_8h.html" target="_top" xlink:title="Public API for the lossless deduplicated weights loader.">
<polygon fill="none" stroke="black" points="15.5,-112.5 15.5,-131.5 114.5,-131.5 114.5,-112.5 15.5,-112.5"/>
<text text-anchor="middle" x="65" y="-119.5" font-family="Helvetica,sans-Serif" font-size="10.00">weights_dedup.h</text>
</a>
</g>
</g>
<!-- Node1&#45;&gt;Node2 -->
<g id="edge1" class="edge">
<title>Node1&#45;&gt;Node2</title>
<path fill="none" stroke="midnightblue" d="M350.73,-172.14C287.27,-161.22 187.97,-144.15 124.72,-133.27"/>
<polygon fill="midnightblue" stroke="midnightblue" points="124.95,-129.76 114.5,-131.51 123.77,-136.66 124.95,-129.76"/>
</g>
<!-- Node6 -->
<g id="node6" class="node">
<title>Node6</title>
<g id="a_node6"><a xlink:title=" ">
<polygon fill="none" stroke="#bfbfbf" points="132.5,-112.5 132.5,-131.5 183.5,-131.5 183.5,-112.5 132.5,-112.5"/>
<text text-anchor="middle" x="158" y="-119.5" font-family="Helvetica,sans-Serif" font-size="10.00">errno.h</text>
</a>
</g>
</g>
<!-- Node1&#45;&gt;Node6 -->
<g id="edge7" class="edge">
<title>Node1&#45;&gt;Node6</title>
<path fill="none" stroke="midnightblue" d="M350.76,-168.96C309.25,-159.53 252.57,-146.47 193.48,-132.07"/>
<polygon fill="midnightblue" stroke="midnightblue" points="194.14,-128.63 183.6,-129.66 192.48,-135.43 194.14,-128.63"/>
</g>
<!-- Node7 -->
<g id="node7" class="node">
<title>Node7</title>
<g id="a_node7"><a xlink:title=" ">
<polygon fill="none" stroke="#bfbfbf" points="201.5,-112.5 201.5,-131.5 248.5,-131.5 248.5,-112.5 201.5,-112.5"/>
<text text-anchor="middle" x="225" y="-119.5" font-family="Helvetica,sans-Serif" font-size="10.00">fcntl.h</text>
</a>
</g>
</g>
<!-- Node1&#45;&gt;Node7 -->
<g id="edge8" class="edge">
<title>Node1&#45;&gt;Node7</title>
<path fill="none" stroke="midnightblue" d="M366.92,-168.4C333.62,-157.75 288.63,-143.35 258.3,-133.65"/>
<polygon fill="midnightblue" stroke="midnightblue" points="259.21,-130.27 248.62,-130.56 257.08,-136.94 259.21,-130.27"/>
</g>
<!-- Node8 -->
<g id="node8" class="node">
<title>Node8</title>
<g id="a_node8"><a xlink:title=" ">
<polygon fill="none" stroke="#bfbfbf" points="266.5,-112.5 266.5,-131.5 331.5,-131.5 331.5,-112.5 266.5,-112.5"/>
<text text-anchor="middle" x="299" y="-119.5" font-family="Helvetica,sans-Serif" font-size="10.00">inttypes.h</text>
</a>
</g>
</g>
<!-- Node1&#45;&gt;Node8 -->
<g id="edge9" class="edge">
<title>Node1&#45;&gt;Node8</title>
<path fill="none" stroke="midnightblue" d="M384.46,-168.4C366.34,-158.77 342.46,-146.09 324.56,-136.58"/>
<polygon fill="midnightblue" stroke="midnightblue" points="325.77,-133.26 315.3,-131.66 322.49,-139.44 325.77,-133.26"/>
</g>
<!-- Node9 -->
<g id="node9" class="node">
<title>Node9</title>
<g id="a_node9"><a xlink:title=" ">
<polygon fill="none" stroke="#bfbfbf" points="349.5,-112.5 349.5,-131.5 402.5,-131.5 402.5,-112.5 349.5,-112.5"/>
<text text-anchor="middle" x="376" y="-119.5" font-family="Helvetica,sans-Serif" font-size="10.00">limits.h</text>
</a>
</g>
</g>
<!-- Node1&#45;&gt;Node9 -->
<g id="edge10" class="edge">
<title>Node1&#45;&gt;Node9</title>
<path fill="none" stroke="midnightblue" d="M402.71,-168.4C397.78,-160.02 391.49,-149.33 386.25,-140.42"/>
<polygon fill="midnightblue" stroke="midnightblue" points="389.18,-138.5 381.09,-131.66 383.15,-142.05 389.18,-138.5"/>
</g>
<!-- Node10 -->
<g id="node10" class="node">
<title>Node10</title>
<g id="a_node10"><a xlink:title=" ">
<polygon fill="none" stroke="#bfbfbf" points="420.5,-112.5 420.5,-131.5 473.5,-131.5 473.5,-112.5 420.5,-112.5"/>
<text text-anchor="middle" x="447" y="-119.5" font-family="Helvetica,sans-Serif" font-size="10.00">stdlib.h</text>
</a>
</g>
</g>
<!-- Node1&#45;&gt;Node10 -->
<g id="edge11" class="edge">
<title>Node1&#45;&gt;Node10</title>
<path fill="none" stroke="midnightblue" d="M419.53,-168.4C424.6,-160.02 431.07,-149.33 436.46,-140.42"/>
<polygon fill="midnightblue" stroke="midnightblue" points="439.58,-142.03 441.76,-131.66 433.59,-138.4 439.58,-142.03"/>
</g>
<!-- Node11 -->
<g id="node11" class="node">
<title>Node11</title>
<g id="a_node11"><a xlink:title=" ">
<polygon fill="none" stroke="#bfbfbf" points="491.5,-112.5 491.5,-131.5 544.5,-131.5 544.5,-112.5 491.5,-112.5"/>
<text text-anchor="middle" x="518" y="-119.5" font-family="Helvetica,sans-Serif" font-size="10.00">string.h</text>
</a>
</g>
</g>
<!-- Node1&#45;&gt;Node11 -->
<g id="edge12" class="edge">
<title>Node1&#45;&gt;Node11</title>
<path fill="none" stroke="midnightblue" d="M436.36,-168.4C453.67,-158.77 476.48,-146.09 493.58,-136.58"/>
<polygon fill="midnightblue" stroke="midnightblue" points="495.39,-139.58 502.43,-131.66 491.99,-133.46 495.39,-139.58"/>
</g>
<!-- Node12 -->
<g id="node12" class="node">
<title>Node12</title>
<g id="a_node12"><a xlink:title=" ">
<polygon fill="none" stroke="#bfbfbf" points="562.5,-112.5 562.5,-131.5 639.5,-131.5 639.5,-112.5 562.5,-112.5"/>
<text text-anchor="middle" x="601" y="-119.5" font-family="Helvetica,sans-Serif" font-size="10.00">sys/mman.h</text>
</a>
</g>
</g>
<!-- Node1&#45;&gt;Node12 -->
<g id="edge13" class="edge">
<title>Node1&#45;&gt;Node12</title>
<path fill="none" stroke="midnightblue" d="M456.03,-168.4C488.86,-158.12 532.82,-144.35 563.7,-134.68"/>
<polygon fill="midnightblue" stroke="midnightblue" points="565.13,-137.9 573.63,-131.57 563.04,-131.22 565.13,-137.9"/>
</g>
<!-- Node13 -->
<g id="node13" class="node">
<title>Node13</title>
<g id="a_node13"><a xlink:title=" ">
<polygon fill="none" stroke="#bfbfbf" points="658,-112.5 658,-131.5 722,-131.5 722,-112.5 658,-112.5"/>
<text text-anchor="middle" x="690" y="-119.5" font-family="Helvetica,sans-Serif" font-size="10.00">sys/stat.h</text>
</a>
</g>
</g>
<!-- Node1&#45;&gt;Node13 -->
<g id="edge14" class="edge">
<title>Node1&#45;&gt;Node13</title>
<path fill="none" stroke="midnightblue" d="M471.18,-169.85C516.96,-160.2 581.8,-146.48 647.63,-132.28"/>
<polygon fill="midnightblue" stroke="midnightblue" points="648.74,-135.63 657.78,-130.1 647.26,-128.78 648.74,-135.63"/>
</g>
<!-- Node14 -->
<g id="node14" class="node">
<title>Node14</title>
<g id="a_node14"><a xlink:title=" ">
<polygon fill="none" stroke="#bfbfbf" points="740,-112.5 740,-131.5 796,-131.5 796,-112.5 740,-112.5"/>
<text text-anchor="middle" x="768" y="-119.5" font-family="Helvetica,sans-Serif" font-size="10.00">unistd.h</text>
</a>
</g>
</g>
<!-- Node1&#45;&gt;Node14 -->
<g id="edge15" class="edge">
<title>Node1&#45;&gt;Node14</title>
<path fill="none" stroke="midnightblue" d="M471.12,-174.51C533.49,-165.89 634.02,-151.05 729.91,-132.09"/>
<polygon fill="midnightblue" stroke="midnightblue" points="730.65,-135.51 739.77,-130.12 729.28,-128.64 730.65,-135.51"/>
</g>
<!-- Node3 -->
<g id="node3" class="node">
<title>Node3</title>
<g id="a_node3"><a xlink:title=" ">
<polygon fill="none" stroke="#bfbfbf" points="0,-0.5 0,-19.5 56,-19.5 56,-0.5 0,-0.5"/>
<text text-anchor="middle" x="28" y="-7.5" font-family="Helvetica,sans-Serif" font-size="10.00">stddef.h</text>
</a>
</g>
</g>
<!-- Node2&#45;&gt;Node3 -->
<g id="edge2" class="edge">
<title>Node2&#45;&gt;Node3</title>
<path fill="none" stroke="midnightblue" d="M49.27,-112.24C37.11,-104.48 21.19,-91.93 14,-76 7.19,-60.91 12.41,-42.32 18.31,-28.9"/>
<polygon fill="midnightblue" stroke="midnightblue" points="21.52,-30.3 22.77,-19.78 15.23,-27.22 21.52,-30.3"/>
</g>
<!-- Node4 -->
<g id="node4" class="node">
<title>Node4</title>
<g id="a_node4"><a xlink:title=" ">
<polygon fill="none" stroke="#bfbfbf" points="91.5,-0.5 91.5,-19.5 144.5,-19.5 144.5,-0.5 91.5,-0.5"/>
<text text-anchor="middle" x="118" y="-7.5" font-family="Helvetica,sans-Serif" font-size="10.00">stdint.h</text>
</a>
</g>
</g>
<!-- Node2&#45;&gt;Node4 -->
<g id="edge3" class="edge">
<title>Node2&#45;&gt;Node4</title>
<path fill="none" stroke="midnightblue" d="M80.12,-112.49C92.25,-104.72 108.47,-92.03 116,-76 122.75,-61.63 122.69,-43.43 121.26,-29.95"/>
<polygon fill="midnightblue" stroke="midnightblue" points="124.71,-29.34 119.86,-19.92 117.78,-30.31 124.71,-29.34"/>
</g>
<!-- Node5 -->
<g id="node5" class="node">
<title>Node5</title>
<g id="a_node5"><a xlink:href="dedup__spec_8h.html" target="_top" xlink:title="Types that describe the on&#45;disk lossless deduplicated weights layout.">
<polygon fill="none" stroke="black" points="23.5,-56.5 23.5,-75.5 106.5,-75.5 106.5,-56.5 23.5,-56.5"/>
<text text-anchor="middle" x="65" y="-63.5" font-family="Helvetica,sans-Serif" font-size="10.00">dedup_spec.h</text>
</a>
</g>
</g>
<!-- Node2&#45;&gt;Node5 -->
<g id="edge4" class="edge">
<title>Node2&#45;&gt;Node5</title>
<path fill="none" stroke="midnightblue" d="M65,-112.08C65,-105.01 65,-94.86 65,-85.99"/>
<polygon fill="midnightblue" stroke="midnightblue" points="68.5,-85.75 65,-75.75 61.5,-85.75 68.5,-85.75"/>
</g>
<!-- Node5&#45;&gt;Node3 -->
<g id="edge5" class="edge">
<title>Node5&#45;&gt;Node3</title>
<path fill="none" stroke="midnightblue" d="M58.89,-56.08C53.72,-48.53 46.15,-37.49 39.81,-28.23"/>
<polygon fill="midnightblue" stroke="midnightblue" points="42.54,-26.02 34,-19.75 36.76,-29.98 42.54,-26.02"/>
</g>
<!-- Node5&#45;&gt;Node4 -->
<g id="edge6" class="edge">
<title>Node5&#45;&gt;Node4</title>
<path fill="none" stroke="midnightblue" d="M73.75,-56.08C81.47,-48.22 92.9,-36.57 102.22,-27.08"/>
<polygon fill="midnightblue" stroke="midnightblue" points="104.9,-29.34 109.41,-19.75 99.91,-24.44 104.9,-29.34"/>
</g>
</g>
</svg>
