<?xml version="1.0" encoding="UTF-8" standalone="no"?>
<!DOCTYPE svg PUBLIC "-//W3C//DTD SVG 1.1//EN"
 "http://www.w3.org/Graphics/SVG/1.1/DTD/svg11.dtd">
<!-- Generated by graphviz version 2.43.0 (0)
 -->
<!-- Title: ie_pread Pages: 1 -->
<svg width="583pt" height="103pt"
 viewBox="0.00 0.00 583.00 103.00" xmlns="http://www.w3.org/2000/svg" xmlns:xlink="http://www.w3.org/1999/xlink">
<g id="graph0" class="graph" transform="scale(1 1) rotate(0) translate(4 99)">
<title>ie_pread</title>
<!-- Node1 -->
<g id="Node000001" class="node">
<title>Node1</title>
<g id="a_Node000001"><a xlink:title="Portable pread wrapper with fallback.">
<polygon fill="#999999" stroke="#666666" points="575,-57 516,-57 516,-38 575,-38 575,-57"/>
<text text-anchor="middle" x="545.5" y="-45" font-family="Helvetica,sans-Serif" font-size="10.00">ie_pread</text>
</a>
</g>
</g>
<!-- Node2 -->
<g id="Node000002" class="node">
<title>Node2</title>
<g id="a_Node000002"><a xlink:href="weights_8c.html#ab5498f6122af51af9b673e87a4049d19" target="_top" xlink:title="Decode packed INT4 weights + scales into float weights.">
<polygon fill="white" stroke="#666666" points="480,-95 346,-95 346,-76 480,-76 480,-95"/>
<text text-anchor="middle" x="413" y="-83" font-family="Helvetica,sans-Serif" font-size="10.00">ie_weights_decode_int4</text>
</a>
</g>
</g>
<!-- Node1&#45;&gt;Node2 -->
<g id="edge1_Node000001_Node000002" class="edge">
<title>Node1&#45;&gt;Node2</title>
<g id="a_edge1_Node000001_Node000002"><a xlink:title=" ">
<path fill="none" stroke="#63b8ff" d="M506.09,-58.68C487.23,-64.18 464.74,-70.73 446.71,-75.98"/>
<polygon fill="#63b8ff" stroke="#63b8ff" points="507.24,-62 515.86,-55.84 505.28,-55.27 507.24,-62"/>
</a>
</g>
</g>
<!-- Node3 -->
<g id="Node000003" class="node">
<title>Node3</title>
<g id="a_Node000003"><a xlink:href="weights_8c.html#a095d7f59c4cba2b530bac039bca8b7a9" target="_top" xlink:title="Touch the weights binary to verify readability (optional warm&#45;up).">
<polygon fill="white" stroke="#666666" points="310,-38 209,-38 209,-19 310,-19 310,-38"/>
<text text-anchor="middle" x="259.5" y="-26" font-family="Helvetica,sans-Serif" font-size="10.00">ie_weights_touch</text>
</a>
</g>
</g>
<!-- Node1&#45;&gt;Node3 -->
<g id="edge2_Node000001_Node000003" class="edge">
<title>Node1&#45;&gt;Node3</title>
<g id="a_edge2_Node000001_Node000003"><a xlink:title=" ">
<path fill="none" stroke="#63b8ff" d="M505.74,-44.91C454.94,-41.51 365.79,-35.54 310.12,-31.82"/>
<polygon fill="#63b8ff" stroke="#63b8ff" points="505.76,-48.42 515.97,-45.59 506.22,-41.43 505.76,-48.42"/>
</a>
</g>
</g>
<!-- Node6 -->
<g id="Node000006" class="node">
<title>Node6</title>
<g id="a_Node000006"><a xlink:href="weights_8c.html#ae3235e5160399c1e4465d1abf866571d" target="_top" xlink:title="Touch a file by doing small reads near start/end.">
<polygon fill="white" stroke="#666666" points="461,-19 365,-19 365,0 461,0 461,-19"/>
<text text-anchor="middle" x="413" y="-7" font-family="Helvetica,sans-Serif" font-size="10.00">touch_file_small</text>
</a>
</g>
</g>
<!-- Node1&#45;&gt;Node6 -->
<g id="edge5_Node000001_Node000006" class="edge">
<title>Node1&#45;&gt;Node6</title>
<g id="a_edge5_Node000001_Node000006"><a xlink:title=" ">
<path fill="none" stroke="#63b8ff" d="M506.09,-36.32C487.23,-30.82 464.74,-24.27 446.71,-19.02"/>
<polygon fill="#63b8ff" stroke="#63b8ff" points="505.28,-39.73 515.86,-39.16 507.24,-33 505.28,-39.73"/>
</a>
</g>
</g>
<!-- Node4 -->
<g id="Node000004" class="node">
<title>Node4</title>
<g id="a_Node000004"><a xlink:href="test__dedup__loader_8c.html#a73dca7f77cd9da376bc14e888330d88f" target="_top" xlink:title=" ">
<polygon fill="white" stroke="#666666" points="173,-38 77,-38 77,-19 173,-19 173,-38"/>
<text text-anchor="middle" x="125" y="-26" font-family="Helvetica,sans-Serif" font-size="10.00">open_and_touch</text>
</a>
</g>
</g>
<!-- Node3&#45;&gt;Node4 -->
<g id="edge3_Node000003_Node000004" class="edge">
<title>Node3&#45;&gt;Node4</title>
<g id="a_edge3_Node000003_Node000004"><a xlink:title=" ">
<path fill="none" stroke="#63b8ff" d="M198.58,-28.5C190.13,-28.5 181.53,-28.5 173.36,-28.5"/>
<polygon fill="#63b8ff" stroke="#63b8ff" points="198.78,-32 208.78,-28.5 198.78,-25 198.78,-32"/>
</a>
</g>
</g>
<!-- Node5 -->
<g id="Node000005" class="node">
<title>Node5</title>
<g id="a_Node000005"><a xlink:href="test__dedup__loader_8c.html#a3c04138a5bfe5d72780bb7e82a18e627" target="_top" xlink:title=" ">
<polygon fill="white" stroke="#666666" points="41,-38 0,-38 0,-19 41,-19 41,-38"/>
<text text-anchor="middle" x="20.5" y="-26" font-family="Helvetica,sans-Serif" font-size="10.00">main</text>
</a>
</g>
</g>
<!-- Node4&#45;&gt;Node5 -->
<g id="edge4_Node000004_Node000005" class="edge">
<title>Node4&#45;&gt;Node5</title>
<g id="a_edge4_Node000004_Node000005"><a xlink:title=" ">
<path fill="none" stroke="#63b8ff" d="M66.87,-28.5C57.62,-28.5 48.63,-28.5 41.13,-28.5"/>
<polygon fill="#63b8ff" stroke="#63b8ff" points="66.95,-32 76.95,-28.5 66.95,-25 66.95,-32"/>
</a>
</g>
</g>
<!-- Node6&#45;&gt;Node3 -->
<g id="edge6_Node000006_Node000003" class="edge">
<title>Node6&#45;&gt;Node3</title>
<g id="a_edge6_Node000006_Node000003"><a xlink:title=" ">
<path fill="none" stroke="#63b8ff" d="M354.9,-16.66C340.2,-18.5 324.49,-20.47 310.2,-22.27"/>
<polygon fill="#63b8ff" stroke="#63b8ff" points="355.41,-20.12 364.89,-15.41 354.54,-13.18 355.41,-20.12"/>
</a>
</g>
</g>
</g>
</svg>
