<?xml version="1.0" encoding="UTF-8" standalone="no"?>
<!DOCTYPE svg PUBLIC "-//W3C//DTD SVG 1.1//EN"
 "http://www.w3.org/Graphics/SVG/1.1/DTD/svg11.dtd">
<!-- Generated by graphviz version 2.43.0 (0)
 -->
<!-- Title: js_find_member_value Pages: 1 -->
<!--zoomable 78 -->
<svg id="main" version="1.1" xmlns="http://www.w3.org/2000/svg" xmlns:xlink="http://www.w3.org/1999/xlink" xml:space="preserve" onload="init(evt)">
<style type="text/css"><![CDATA[
.edge:hover path { stroke: red; }
.edge:hover polygon { stroke: red; fill: red; }
]]></style>
<script type="text/javascript"><![CDATA[
var edges = document.getElementsByTagName('g');
if (edges && edges.length) {
  for (var i=0;i<edges.length;i++) {
    if (edges[i].id.substr(0,4)=='edge') {
      edges[i].setAttribute('class','edge');
    }
  }
}
]]></script>
        <defs>
                <circle id="rim" cx="0" cy="0" r="7"/>
                <circle id="rim2" cx="0" cy="0" r="3.5"/>
                <g id="zoomPlus">
                        <use xlink:href="#rim" fill="#404040">
                                <set attributeName="fill" to="#808080" begin="zoomplus.mouseover" end="zoomplus.mouseout"/>
                        </use>
                        <path d="M-4,0h8M0,-4v8" fill="none" stroke="white" stroke-width="1.5" pointer-events="none"/>
                </g>
                <g id="zoomMin">
                        <use xlink:href="#rim" fill="#404040">
                                <set attributeName="fill" to="#808080" begin="zoomminus.mouseover" end="zoomminus.mouseout"/>
                        </use>
                        <path d="M-4,0h8" fill="none" stroke="white" stroke-width="1.5" pointer-events="none"/>
                </g>
                <g id="dirArrow">
                        <path fill="none" stroke="white" stroke-width="1.5" d="M0,-3.0v7 M-2.5,-0.5L0,-3.0L2.5,-0.5"/>
                </g>
               <g id="resetDef">
                       <use xlink:href="#rim2" fill="#404040">
                               <set attributeName="fill" to="#808080" begin="reset.mouseover" end="reset.mouseout"/>
                       </use>
               </g>
        </defs>

<script type="text/javascript">
var viewWidth = 1100;
var viewHeight = 78;
var sectionId = 'dynsection-32';
</script>
<script xlink:href="svgpan.js"/>
<svg id="graph" class="graph">
<g id="viewport">
<title>js_find_member_value</title>
<!-- Node1 -->
<g id="node1" class="node">
<title>Node1</title>
<g id="a_node1"><a xlink:title=" ">
<polygon fill="#bfbfbf" stroke="black" points="965,-38.5 965,-57.5 1092,-57.5 1092,-38.5 965,-38.5"/>
<text text-anchor="middle" x="1028.5" y="-45.5" font-family="Helvetica,sans-Serif" font-size="10.00">js_find_member_value</text>
</a>
</g>
</g>
<!-- Node2 -->
<g id="node2" class="node">
<title>Node2</title>
<g id="a_node2"><a xlink:href="weights__dedup_8c.html#ac8435c15b639ac76b805cc23f609be12" target="_top" xlink:title=" ">
<polygon fill="none" stroke="black" points="679,-38.5 679,-57.5 796,-57.5 796,-38.5 679,-38.5"/>
<text text-anchor="middle" x="737.5" y="-45.5" font-family="Helvetica,sans-Serif" font-size="10.00">ie_parse_one_tensor</text>
</a>
</g>
</g>
<!-- Node1&#45;&gt;Node2 -->
<g id="edge1" class="edge">
<title>Node1&#45;&gt;Node2</title>
<path fill="none" stroke="midnightblue" d="M977.59,-59.54C962.11,-62.6 944.93,-65.48 929,-67 886.08,-71.1 874.89,-71.31 832,-67 813.54,-65.14 793.34,-61.27 776.45,-57.51"/>
<polygon fill="midnightblue" stroke="midnightblue" points="978.4,-62.95 987.5,-57.51 977,-56.09 978.4,-62.95"/>
</g>
<!-- Node4 -->
<g id="node4" class="node">
<title>Node4</title>
<g id="a_node4"><a xlink:href="weights__dedup_8h.html#aa625b41ce2a24826f8cb464661ace8ec" target="_top" xlink:title="Open a deduplicated model directory.">
<polygon fill="none" stroke="black" points="343,-19.5 343,-38.5 477,-38.5 477,-19.5 343,-19.5"/>
<text text-anchor="middle" x="410" y="-26.5" font-family="Helvetica,sans-Serif" font-size="10.00">ie_weights_dedup_open</text>
</a>
</g>
</g>
<!-- Node1&#45;&gt;Node4 -->
<g id="edge8" class="edge">
<title>Node1&#45;&gt;Node4</title>
<path fill="none" stroke="midnightblue" d="M977.59,-36.46C962.11,-33.4 944.93,-30.52 929,-29 767.19,-13.54 575.64,-19.91 477.02,-24.99"/>
<polygon fill="midnightblue" stroke="midnightblue" points="977,-39.91 987.5,-38.49 978.4,-33.05 977,-39.91"/>
</g>
<!-- Node9 -->
<g id="node9" class="node">
<title>Node9</title>
<g id="a_node9"><a xlink:href="weights__dedup_8c.html#ac65e64ed76368c21cf76399a4eed1b90" target="_top" xlink:title=" ">
<polygon fill="none" stroke="black" points="832,-38.5 832,-57.5 929,-57.5 929,-38.5 832,-38.5"/>
<text text-anchor="middle" x="880.5" y="-45.5" font-family="Helvetica,sans-Serif" font-size="10.00">js_parse_blobref</text>
</a>
</g>
</g>
<!-- Node1&#45;&gt;Node9 -->
<g id="edge9" class="edge">
<title>Node1&#45;&gt;Node9</title>
<path fill="none" stroke="midnightblue" d="M954.63,-48C946,-48 937.37,-48 929.22,-48"/>
<polygon fill="midnightblue" stroke="midnightblue" points="954.74,-51.5 964.74,-48 954.74,-44.5 954.74,-51.5"/>
</g>
<!-- Node3 -->
<g id="node3" class="node">
<title>Node3</title>
<g id="a_node3"><a xlink:href="weights__dedup_8c.html#a1eaf38d57abdd040f9c40e2e3ea1525c" target="_top" xlink:title=" ">
<polygon fill="none" stroke="black" points="513,-38.5 513,-57.5 643,-57.5 643,-38.5 513,-38.5"/>
<text text-anchor="middle" x="578" y="-45.5" font-family="Helvetica,sans-Serif" font-size="10.00">ie_parse_tensors_array</text>
</a>
</g>
</g>
<!-- Node2&#45;&gt;Node3 -->
<g id="edge2" class="edge">
<title>Node2&#45;&gt;Node3</title>
<path fill="none" stroke="midnightblue" d="M668.56,-48C660.12,-48 651.51,-48 643.13,-48"/>
<polygon fill="midnightblue" stroke="midnightblue" points="668.75,-51.5 678.75,-48 668.75,-44.5 668.75,-51.5"/>
</g>
<!-- Node3&#45;&gt;Node4 -->
<g id="edge3" class="edge">
<title>Node3&#45;&gt;Node4</title>
<path fill="none" stroke="midnightblue" d="M502.86,-39.51C494.31,-38.54 485.64,-37.54 477.2,-36.58"/>
<polygon fill="midnightblue" stroke="midnightblue" points="502.49,-42.99 512.82,-40.65 503.28,-36.04 502.49,-42.99"/>
</g>
<!-- Node5 -->
<g id="node5" class="node">
<title>Node5</title>
<g id="a_node5"><a xlink:href="ie__io_8h.html#a522dac028ee37aae1307ffdb6d65ec1d" target="_top" xlink:title="Open and parse IEBIN v1 metadata and resolve the weights path.">
<polygon fill="none" stroke="black" points="209,-19.5 209,-38.5 307,-38.5 307,-19.5 209,-19.5"/>
<text text-anchor="middle" x="258" y="-26.5" font-family="Helvetica,sans-Serif" font-size="10.00">ie_weights_open</text>
</a>
</g>
</g>
<!-- Node4&#45;&gt;Node5 -->
<g id="edge4" class="edge">
<title>Node4&#45;&gt;Node5</title>
<path fill="none" stroke="midnightblue" d="M332.66,-29C324.04,-29 315.43,-29 307.31,-29"/>
<polygon fill="midnightblue" stroke="midnightblue" points="332.77,-32.5 342.77,-29 332.77,-25.5 332.77,-32.5"/>
</g>
<!-- Node6 -->
<g id="node6" class="node">
<title>Node6</title>
<g id="a_node6"><a xlink:href="main__infer_8c.html#a3c04138a5bfe5d72780bb7e82a18e627" target="_top" xlink:title="Program entry point.">
<polygon fill="none" stroke="black" points="104.5,-38.5 104.5,-57.5 145.5,-57.5 145.5,-38.5 104.5,-38.5"/>
<text text-anchor="middle" x="125" y="-45.5" font-family="Helvetica,sans-Serif" font-size="10.00">main</text>
</a>
</g>
</g>
<!-- Node5&#45;&gt;Node6 -->
<g id="edge5" class="edge">
<title>Node5&#45;&gt;Node6</title>
<path fill="none" stroke="midnightblue" d="M199.06,-37.4C179.9,-40.18 159.86,-43.09 145.63,-45.15"/>
<polygon fill="midnightblue" stroke="midnightblue" points="199.57,-40.87 208.96,-35.97 198.57,-33.94 199.57,-40.87"/>
</g>
<!-- Node7 -->
<g id="node7" class="node">
<title>Node7</title>
<g id="a_node7"><a xlink:href="test__dedup__loader_8c.html#a73dca7f77cd9da376bc14e888330d88f" target="_top" xlink:title=" ">
<polygon fill="none" stroke="black" points="77,-0.5 77,-19.5 173,-19.5 173,-0.5 77,-0.5"/>
<text text-anchor="middle" x="125" y="-7.5" font-family="Helvetica,sans-Serif" font-size="10.00">open_and_touch</text>
</a>
</g>
</g>
<!-- Node5&#45;&gt;Node7 -->
<g id="edge6" class="edge">
<title>Node5&#45;&gt;Node7</title>
<path fill="none" stroke="midnightblue" d="M198.95,-20.58C190.33,-19.33 181.52,-18.05 173.16,-16.84"/>
<polygon fill="midnightblue" stroke="midnightblue" points="198.57,-24.06 208.96,-22.03 199.57,-17.13 198.57,-24.06"/>
</g>
<!-- Node8 -->
<g id="node8" class="node">
<title>Node8</title>
<g id="a_node8"><a xlink:href="test__dedup__loader_8c.html#a3c04138a5bfe5d72780bb7e82a18e627" target="_top" xlink:title=" ">
<polygon fill="none" stroke="black" points="0,-0.5 0,-19.5 41,-19.5 41,-0.5 0,-0.5"/>
<text text-anchor="middle" x="20.5" y="-7.5" font-family="Helvetica,sans-Serif" font-size="10.00">main</text>
</a>
</g>
</g>
<!-- Node7&#45;&gt;Node8 -->
<g id="edge7" class="edge">
<title>Node7&#45;&gt;Node8</title>
<path fill="none" stroke="midnightblue" d="M66.87,-10C57.62,-10 48.63,-10 41.13,-10"/>
<polygon fill="midnightblue" stroke="midnightblue" points="66.95,-13.5 76.95,-10 66.95,-6.5 66.95,-13.5"/>
</g>
<!-- Node9&#45;&gt;Node2 -->
<g id="edge10" class="edge">
<title>Node9&#45;&gt;Node2</title>
<path fill="none" stroke="midnightblue" d="M821.74,-48C813.39,-48 804.8,-48 796.45,-48"/>
<polygon fill="midnightblue" stroke="midnightblue" points="821.76,-51.5 831.76,-48 821.76,-44.5 821.76,-51.5"/>
</g>
</g>
</svg>
        <g id="navigator" transform="translate(0 0)" fill="#404254">
                <rect fill="#f2f5e9" fill-opacity="0.5" stroke="#606060" stroke-width=".5" x="0" y="0" width="60" height="60"/>
                <use id="zoomplus" xlink:href="#zoomPlus" x="17" y="9" onmousedown="handleZoom(evt,'in')"/>
                <use id="zoomminus" xlink:href="#zoomMin" x="42" y="9" onmousedown="handleZoom(evt,'out')"/>
                <use id="reset" xlink:href="#resetDef" x="30" y="36" onmousedown="handleReset()"/>
                <g id="arrowUp" xlink:href="#dirArrow" transform="translate(30 24)" onmousedown="handlePan(0,-1)">
                  <use xlink:href="#rim" fill="#404040">
                        <set attributeName="fill" to="#808080" begin="arrowUp.mouseover" end="arrowUp.mouseout"/>
                  </use>
                  <path fill="none" stroke="white" stroke-width="1.5" d="M0,-3.0v7 M-2.5,-0.5L0,-3.0L2.5,-0.5"/>
                </g>
                <g id="arrowRight" xlink:href="#dirArrow" transform="rotate(90) translate(36 -43)" onmousedown="handlePan(1,0)">
                  <use xlink:href="#rim" fill="#404040">
                        <set attributeName="fill" to="#808080" begin="arrowRight.mouseover" end="arrowRight.mouseout"/>
                  </use>
                  <path fill="none" stroke="white" stroke-width="1.5" d="M0,-3.0v7 M-2.5,-0.5L0,-3.0L2.5,-0.5"/>
                </g>
                <g id="arrowDown" xlink:href="#dirArrow" transform="rotate(180) translate(-30 -48)" onmousedown="handlePan(0,1)">
                  <use xlink:href="#rim" fill="#404040">
                        <set attributeName="fill" to="#808080" begin="arrowDown.mouseover" end="arrowDown.mouseout"/>
                  </use>
                  <path fill="none" stroke="white" stroke-width="1.5" d="M0,-3.0v7 M-2.5,-0.5L0,-3.0L2.5,-0.5"/>
                </g>
                <g id="arrowLeft" xlink:href="#dirArrow" transform="rotate(270) translate(-36 17)" onmousedown="handlePan(-1,0)">
                  <use xlink:href="#rim" fill="#404040">
                        <set attributeName="fill" to="#808080" begin="arrowLeft.mouseover" end="arrowLeft.mouseout"/>
                  </use>
                  <path fill="none" stroke="white" stroke-width="1.5" d="M0,-3.0v7 M-2.5,-0.5L0,-3.0L2.5,-0.5"/>
                </g>
        </g>
        <svg viewBox="0 0 15 15" width="100%" height="30px" preserveAspectRatio="xMaxYMin meet">
         <g id="arrow_out" transform="scale(0.3 0.3)">
          <a xlink:href="weights__dedup_8c_ae0494f541a190a9ecf82c11c5eb22952_icgraph_org.svg" target="_base">
           <rect id="button" ry="5" rx="5" y="6" x="6" height="38" width="38"
                fill="#f2f5e9" fill-opacity="0.5" stroke="#606060" stroke-width="1.0"/>
           <path id="arrow"
             d="M 11.500037,31.436501 C 11.940474,20.09759 22.043105,11.32322 32.158766,21.979434 L 37.068811,17.246167 C 37.068811,17.246167 37.088388,32 37.088388,32 L 22.160133,31.978069 C 22.160133,31.978069 26.997745,27.140456 26.997745,27.140456 C 18.528582,18.264221 13.291696,25.230495 11.500037,31.436501 z"
             style="fill:#404040;"/>
          </a>
         </g>
        </svg>
</svg>
