<?xml version="1.0" encoding="UTF-8" standalone="no"?>
<!DOCTYPE svg PUBLIC "-//W3C//DTD SVG 1.1//EN"
 "http://www.w3.org/Graphics/SVG/1.1/DTD/svg11.dtd">
<!-- Generated by graphviz version 2.43.0 (0)
 -->
<!-- Title: cpyz Pages: 1 -->
<svg width="684pt" height="183pt"
 viewBox="0.00 0.00 684.00 183.32" xmlns="http://www.w3.org/2000/svg" xmlns:xlink="http://www.w3.org/1999/xlink">
<g id="graph0" class="graph" transform="scale(1 1) rotate(0) translate(4 179.32)">
<title>cpyz</title>
<!-- Node1 -->
<g id="Node000001" class="node">
<title>Node1</title>
<g id="a_Node000001"><a xlink:title="Copy a C&#45;string into a bounded buffer and always NUL&#45;terminate.">
<polygon fill="#999999" stroke="#666666" points="676,-87.67 637,-87.67 637,-68.67 676,-68.67 676,-87.67"/>
<text text-anchor="middle" x="656.5" y="-75.67" font-family="Helvetica,sans-Serif" font-size="10.00">cpyz</text>
</a>
</g>
</g>
<!-- Node2 -->
<g id="Node000002" class="node">
<title>Node2</title>
<g id="a_Node000002"><a xlink:href="weights_8c.html#a5b123cfce35efe0ac7475c10419f9373" target="_top" xlink:title="Create a best&#45;effort symlink model.dedup.json &#45;&gt; dedup_manifest.json.">
<polygon fill="white" stroke="#666666" points="503,-154.67 346,-154.67 346,-135.67 503,-135.67 503,-154.67"/>
<text text-anchor="middle" x="424.5" y="-142.67" font-family="Helvetica,sans-Serif" font-size="10.00">ensure_dedup_manifest_link</text>
</a>
</g>
</g>
<!-- Node1&#45;&gt;Node2 -->
<g id="edge1_Node000001_Node000002" class="edge">
<title>Node1&#45;&gt;Node2</title>
<g id="a_edge1_Node000001_Node000002"><a xlink:title=" ">
<path fill="none" stroke="#63b8ff" d="M627.49,-88.35C619.02,-91.32 609.67,-94.48 601,-97.17 553.94,-111.79 499.07,-126.42 463.37,-135.62"/>
<polygon fill="#63b8ff" stroke="#63b8ff" points="628.68,-91.64 636.94,-85 626.34,-85.04 628.68,-91.64"/>
</a>
</g>
</g>
<!-- Node3 -->
<g id="Node000003" class="node">
<title>Node3</title>
<g id="a_Node000003"><a xlink:href="weights_8c.html#a522dac028ee37aae1307ffdb6d65ec1d" target="_top" xlink:title="Open and parse IEBIN v1 metadata and resolve the weights path.">
<polygon fill="white" stroke="#666666" points="308.5,-134.67 210.5,-134.67 210.5,-115.67 308.5,-115.67 308.5,-134.67"/>
<text text-anchor="middle" x="259.5" y="-122.67" font-family="Helvetica,sans-Serif" font-size="10.00">ie_weights_open</text>
</a>
</g>
</g>
<!-- Node1&#45;&gt;Node3 -->
<g id="edge7_Node000001_Node000003" class="edge">
<title>Node1&#45;&gt;Node3</title>
<g id="a_edge7_Node000001_Node000003"><a xlink:title=" ">
<path fill="none" stroke="#63b8ff" d="M636.27,-94.13C608.79,-115.65 555.78,-152.63 503,-164.17 434.83,-179.08 414.19,-178.99 346,-164.17 320.17,-158.56 292.79,-144.43 276.17,-134.82"/>
<polygon fill="#63b8ff" stroke="#63b8ff" points="638.63,-96.72 644.25,-87.73 634.26,-91.25 638.63,-96.72"/>
</a>
</g>
</g>
<!-- Node8 -->
<g id="Node000008" class="node">
<title>Node8</title>
<g id="a_Node000008"><a xlink:href="weights_8c.html#a1c8fc195c7c1f4e503920578dbaf1d02" target="_top" xlink:title="Parse INT4&#45;related metadata from model.ie.json (best&#45;effort).">
<polygon fill="white" stroke="#666666" points="500,-40.67 349,-40.67 349,-21.67 500,-21.67 500,-40.67"/>
<text text-anchor="middle" x="424.5" y="-28.67" font-family="Helvetica,sans-Serif" font-size="10.00">ie_weights_read_int4_meta</text>
</a>
</g>
</g>
<!-- Node1&#45;&gt;Node8 -->
<g id="edge8_Node000001_Node000008" class="edge">
<title>Node1&#45;&gt;Node8</title>
<g id="a_edge8_Node000001_Node000008"><a xlink:title=" ">
<path fill="none" stroke="#63b8ff" d="M626.98,-67.16C618.69,-64.26 609.57,-61.33 601,-59.17 568.39,-50.96 531.73,-44.66 500.39,-40.14"/>
<polygon fill="#63b8ff" stroke="#63b8ff" points="625.99,-70.53 636.58,-70.65 628.38,-63.95 625.99,-70.53"/>
</a>
</g>
</g>
<!-- Node9 -->
<g id="Node000009" class="node">
<title>Node9</title>
<g id="a_Node000009"><a xlink:href="weights_8c.html#a095d7f59c4cba2b530bac039bca8b7a9" target="_top" xlink:title="Touch the weights binary to verify readability (optional warm&#45;up).">
<polygon fill="white" stroke="#666666" points="310,-78.67 209,-78.67 209,-59.67 310,-59.67 310,-78.67"/>
<text text-anchor="middle" x="259.5" y="-66.67" font-family="Helvetica,sans-Serif" font-size="10.00">ie_weights_touch</text>
</a>
</g>
</g>
<!-- Node1&#45;&gt;Node9 -->
<g id="edge9_Node000001_Node000009" class="edge">
<title>Node1&#45;&gt;Node9</title>
<g id="a_edge9_Node000001_Node000009"><a xlink:title=" ">
<path fill="none" stroke="#63b8ff" d="M634.33,-62.72C624.54,-56.06 612.54,-48.59 601,-43.17 559.64,-23.77 548.15,-19.14 503,-12.17 434.04,-1.53 412.78,8.05 346,-12.17 315.27,-21.48 285.48,-45.88 270.51,-59.55"/>
<polygon fill="#63b8ff" stroke="#63b8ff" points="632.43,-65.66 642.63,-68.52 636.44,-59.92 632.43,-65.66"/>
</a>
</g>
</g>
<!-- Node10 -->
<g id="Node000010" class="node">
<title>Node10</title>
<g id="a_Node000010"><a xlink:href="weights_8c.html#a7bb1dd9958b072fc5d1a80373cc074ff" target="_top" xlink:title="Join directory and filename into an output buffer (NUL&#45;terminated).">
<polygon fill="white" stroke="#666666" points="601,-87.67 539,-87.67 539,-68.67 601,-68.67 601,-87.67"/>
<text text-anchor="middle" x="570" y="-75.67" font-family="Helvetica,sans-Serif" font-size="10.00">join_path</text>
</a>
</g>
</g>
<!-- Node1&#45;&gt;Node10 -->
<g id="edge12_Node000001_Node000010" class="edge">
<title>Node1&#45;&gt;Node10</title>
<g id="a_edge12_Node000001_Node000010"><a xlink:title=" ">
<path fill="none" stroke="#63b8ff" d="M626.58,-78.17C618.43,-78.17 609.54,-78.17 601.32,-78.17"/>
<polygon fill="#63b8ff" stroke="#63b8ff" points="626.75,-81.67 636.75,-78.17 626.75,-74.67 626.75,-81.67"/>
</a>
</g>
</g>
<!-- Node2&#45;&gt;Node3 -->
<g id="edge2_Node000002_Node000003" class="edge">
<title>Node2&#45;&gt;Node3</title>
<g id="a_edge2_Node000002_Node000003"><a xlink:title=" ">
<path fill="none" stroke="#63b8ff" d="M335.75,-134.41C326.5,-133.27 317.35,-132.15 308.79,-131.1"/>
<polygon fill="#63b8ff" stroke="#63b8ff" points="335.47,-137.9 345.82,-135.64 336.32,-130.95 335.47,-137.9"/>
</a>
</g>
</g>
<!-- Node4 -->
<g id="Node000004" class="node">
<title>Node4</title>
<g id="a_Node000004"><a xlink:href="main__infer_8c.html#a3c04138a5bfe5d72780bb7e82a18e627" target="_top" xlink:title=" ">
<polygon fill="white" stroke="#666666" points="145.5,-78.67 104.5,-78.67 104.5,-59.67 145.5,-59.67 145.5,-78.67"/>
<text text-anchor="middle" x="125" y="-66.67" font-family="Helvetica,sans-Serif" font-size="10.00">main</text>
</a>
</g>
</g>
<!-- Node3&#45;&gt;Node4 -->
<g id="edge3_Node000003_Node000004" class="edge">
<title>Node3&#45;&gt;Node4</title>
<g id="a_edge3_Node000003_Node000004"><a xlink:title=" ">
<path fill="none" stroke="#63b8ff" d="M227.27,-111.44C211.11,-104.39 191.04,-95.72 173,-88.17 164.07,-84.44 154.14,-80.4 145.71,-77.02"/>
<polygon fill="#63b8ff" stroke="#63b8ff" points="226.21,-114.8 236.77,-115.6 229.01,-108.39 226.21,-114.8"/>
</a>
</g>
</g>
<!-- Node5 -->
<g id="Node000005" class="node">
<title>Node5</title>
<g id="a_Node000005"><a xlink:href="test__weights_8c.html#a840291bc02cba5474a4cb46a9b9566fe" target="_top" xlink:title="Main test entrypoint.">
<polygon fill="white" stroke="#666666" points="145.5,-152.67 104.5,-152.67 104.5,-133.67 145.5,-133.67 145.5,-152.67"/>
<text text-anchor="middle" x="125" y="-140.67" font-family="Helvetica,sans-Serif" font-size="10.00">main</text>
</a>
</g>
</g>
<!-- Node3&#45;&gt;Node5 -->
<g id="edge4_Node000003_Node000005" class="edge">
<title>Node3&#45;&gt;Node5</title>
<g id="a_edge4_Node000003_Node000005"><a xlink:title=" ">
<path fill="none" stroke="#63b8ff" d="M200.18,-133.1C180.61,-135.75 160.11,-138.54 145.63,-140.51"/>
<polygon fill="#63b8ff" stroke="#63b8ff" points="200.85,-136.54 210.29,-131.72 199.91,-129.6 200.85,-136.54"/>
</a>
</g>
</g>
<!-- Node6 -->
<g id="Node000006" class="node">
<title>Node6</title>
<g id="a_Node000006"><a xlink:href="test__dedup__loader_8c.html#a73dca7f77cd9da376bc14e888330d88f" target="_top" xlink:title=" ">
<polygon fill="white" stroke="#666666" points="173,-115.67 77,-115.67 77,-96.67 173,-96.67 173,-115.67"/>
<text text-anchor="middle" x="125" y="-103.67" font-family="Helvetica,sans-Serif" font-size="10.00">open_and_touch</text>
</a>
</g>
</g>
<!-- Node3&#45;&gt;Node6 -->
<g id="edge5_Node000003_Node000006" class="edge">
<title>Node3&#45;&gt;Node6</title>
<g id="a_edge5_Node000003_Node000006"><a xlink:title=" ">
<path fill="none" stroke="#63b8ff" d="M200.18,-116.81C191.11,-115.51 181.84,-114.18 173.07,-112.92"/>
<polygon fill="#63b8ff" stroke="#63b8ff" points="199.89,-120.31 210.29,-118.26 200.89,-113.38 199.89,-120.31"/>
</a>
</g>
</g>
<!-- Node7 -->
<g id="Node000007" class="node">
<title>Node7</title>
<g id="a_Node000007"><a xlink:href="test__dedup__loader_8c.html#a3c04138a5bfe5d72780bb7e82a18e627" target="_top" xlink:title=" ">
<polygon fill="white" stroke="#666666" points="41,-115.67 0,-115.67 0,-96.67 41,-96.67 41,-115.67"/>
<text text-anchor="middle" x="20.5" y="-103.67" font-family="Helvetica,sans-Serif" font-size="10.00">main</text>
</a>
</g>
</g>
<!-- Node6&#45;&gt;Node7 -->
<g id="edge6_Node000006_Node000007" class="edge">
<title>Node6&#45;&gt;Node7</title>
<g id="a_edge6_Node000006_Node000007"><a xlink:title=" ">
<path fill="none" stroke="#63b8ff" d="M66.87,-106.17C57.62,-106.17 48.63,-106.17 41.13,-106.17"/>
<polygon fill="#63b8ff" stroke="#63b8ff" points="66.95,-109.67 76.95,-106.17 66.95,-102.67 66.95,-109.67"/>
</a>
</g>
</g>
<!-- Node9&#45;&gt;Node4 -->
<g id="edge10_Node000009_Node000004" class="edge">
<title>Node9&#45;&gt;Node4</title>
<g id="a_edge10_Node000009_Node000004"><a xlink:title=" ">
<path fill="none" stroke="#63b8ff" d="M198.64,-69.17C179.63,-69.17 159.92,-69.17 145.83,-69.17"/>
<polygon fill="#63b8ff" stroke="#63b8ff" points="198.78,-72.67 208.78,-69.17 198.78,-65.67 198.78,-72.67"/>
</a>
</g>
</g>
<!-- Node9&#45;&gt;Node6 -->
<g id="edge11_Node000009_Node000006" class="edge">
<title>Node9&#45;&gt;Node6</title>
<g id="a_edge11_Node000009_Node000006"><a xlink:title=" ">
<path fill="none" stroke="#63b8ff" d="M214.36,-81.5C196.81,-86.4 176.92,-91.95 160.47,-96.55"/>
<polygon fill="#63b8ff" stroke="#63b8ff" points="215.69,-84.76 224.38,-78.7 213.81,-78.02 215.69,-84.76"/>
</a>
</g>
</g>
<!-- Node10&#45;&gt;Node2 -->
<g id="edge13_Node000010_Node000002" class="edge">
<title>Node10&#45;&gt;Node2</title>
<g id="a_edge13_Node000010_Node000002"><a xlink:title=" ">
<path fill="none" stroke="#63b8ff" d="M548.1,-93.94C535.54,-102.86 518.94,-113.69 503,-121.17 490.63,-126.98 476.51,-131.83 463.74,-135.62"/>
<polygon fill="#63b8ff" stroke="#63b8ff" points="550.44,-96.57 556.47,-87.86 546.33,-90.9 550.44,-96.57"/>
</a>
</g>
</g>
<!-- Node10&#45;&gt;Node3 -->
<g id="edge14_Node000010_Node000003" class="edge">
<title>Node10&#45;&gt;Node3</title>
<g id="a_edge14_Node000010_Node000003"><a xlink:title=" ">
<path fill="none" stroke="#63b8ff" d="M528.85,-84.29C472.27,-92.91 369.21,-108.61 308.6,-117.85"/>
<polygon fill="#63b8ff" stroke="#63b8ff" points="529.5,-87.73 538.86,-82.77 528.44,-80.81 529.5,-87.73"/>
</a>
</g>
</g>
<!-- Node10&#45;&gt;Node8 -->
<g id="edge15_Node000010_Node000008" class="edge">
<title>Node10&#45;&gt;Node8</title>
<g id="a_edge15_Node000010_Node000008"><a xlink:title=" ">
<path fill="none" stroke="#63b8ff" d="M532.72,-65.28C523.08,-61.92 512.67,-58.35 503,-55.17 488.01,-50.24 471.31,-45.03 457.25,-40.73"/>
<polygon fill="#63b8ff" stroke="#63b8ff" points="531.82,-68.67 542.42,-68.67 534.14,-62.06 531.82,-68.67"/>
</a>
</g>
</g>
<!-- Node10&#45;&gt;Node9 -->
<g id="edge16_Node000010_Node000009" class="edge">
<title>Node10&#45;&gt;Node9</title>
<g id="a_edge16_Node000010_Node000009"><a xlink:title=" ">
<path fill="none" stroke="#63b8ff" d="M528.59,-76.99C472.47,-75.36 370.97,-72.4 310.25,-70.63"/>
<polygon fill="#63b8ff" stroke="#63b8ff" points="528.76,-80.5 538.86,-77.29 528.96,-73.5 528.76,-80.5"/>
</a>
</g>
</g>
</g>
</svg>
