<?xml version="1.0" encoding="UTF-8" standalone="no"?>
<!DOCTYPE svg PUBLIC "-//W3C//DTD SVG 1.1//EN"
 "http://www.w3.org/Graphics/SVG/1.1/DTD/svg11.dtd">
<!-- Generated by graphviz version 2.43.0 (0)
 -->
<!-- Title: ie_wdedup_logf Pages: 1 -->
<svg width="936pt" height="130pt"
 viewBox="0.00 0.00 936.00 129.69" xmlns="http://www.w3.org/2000/svg" xmlns:xlink="http://www.w3.org/1999/xlink">
<g id="graph0" class="graph" transform="scale(1 1) rotate(0) translate(4 125.69)">
<title>ie_wdedup_logf</title>
<!-- Node1 -->
<g id="Node000001" class="node">
<title>Node1</title>
<g id="a_Node000001"><a xlink:title=" ">
<polygon fill="#999999" stroke="#666666" points="928,-61.69 835,-61.69 835,-42.69 928,-42.69 928,-61.69"/>
<text text-anchor="middle" x="881.5" y="-49.69" font-family="Helvetica,sans-Serif" font-size="10.00">ie_wdedup_logf</text>
</a>
</g>
</g>
<!-- Node2 -->
<g id="Node000002" class="node">
<title>Node2</title>
<g id="a_Node000002"><a xlink:href="weights__dedup_8c.html#a060093b2059a2c4c10c076c6fb28063d" target="_top" xlink:title=" ">
<polygon fill="white" stroke="#666666" points="618.5,-121.69 541.5,-121.69 541.5,-102.69 618.5,-102.69 618.5,-121.69"/>
<text text-anchor="middle" x="580" y="-109.69" font-family="Helvetica,sans-Serif" font-size="10.00">ie_mmap_ro</text>
</a>
</g>
</g>
<!-- Node1&#45;&gt;Node2 -->
<g id="edge1_Node000001_Node000002" class="edge">
<title>Node1&#45;&gt;Node2</title>
<g id="a_edge1_Node000001_Node000002"><a xlink:title=" ">
<path fill="none" stroke="#63b8ff" d="M853.92,-66.42C838.35,-74.11 818.05,-83.07 799,-88.19 737.23,-104.81 662.65,-109.95 618.67,-111.52"/>
<polygon fill="#63b8ff" stroke="#63b8ff" points="855.62,-69.48 862.95,-61.83 852.45,-63.24 855.62,-69.48"/>
</a>
</g>
</g>
<!-- Node3 -->
<g id="Node000003" class="node">
<title>Node3</title>
<g id="a_Node000003"><a xlink:href="weights__dedup_8c.html#aa625b41ce2a24826f8cb464661ace8ec" target="_top" xlink:title="Open the dedup weights loader from a model directory.">
<polygon fill="white" stroke="#666666" points="477,-83.69 343,-83.69 343,-64.69 477,-64.69 477,-83.69"/>
<text text-anchor="middle" x="410" y="-71.69" font-family="Helvetica,sans-Serif" font-size="10.00">ie_weights_dedup_open</text>
</a>
</g>
</g>
<!-- Node1&#45;&gt;Node3 -->
<g id="edge12_Node000001_Node000003" class="edge">
<title>Node1&#45;&gt;Node3</title>
<g id="a_edge12_Node000001_Node000003"><a xlink:title=" ">
<path fill="none" stroke="#63b8ff" d="M824.42,-54.82C737.38,-58.9 570.14,-66.73 477.27,-71.09"/>
<polygon fill="#63b8ff" stroke="#63b8ff" points="824.8,-58.3 834.63,-54.34 824.47,-51.31 824.8,-58.3"/>
</a>
</g>
</g>
<!-- Node9 -->
<g id="Node000009" class="node">
<title>Node9</title>
<g id="a_Node000009"><a xlink:href="weights__dedup_8c.html#aff1829f796837ea285a63b43a0a2d485" target="_top" xlink:title=" ">
<polygon fill="white" stroke="#666666" points="799,-46.19 683,-46.19 683,-16.19 799,-16.19 799,-46.19"/>
<text text-anchor="start" x="691" y="-34.19" font-family="Helvetica,sans-Serif" font-size="10.00">ie_parse_iejson_one</text>
<text text-anchor="middle" x="741" y="-23.19" font-family="Helvetica,sans-Serif" font-size="10.00">_tensor</text>
</a>
</g>
</g>
<!-- Node1&#45;&gt;Node9 -->
<g id="edge8_Node000001_Node000009" class="edge">
<title>Node1&#45;&gt;Node9</title>
<g id="a_edge8_Node000001_Node000009"><a xlink:title=" ">
<path fill="none" stroke="#63b8ff" d="M824.72,-43.73C816.35,-42.46 807.7,-41.15 799.3,-39.88"/>
<polygon fill="#63b8ff" stroke="#63b8ff" points="824.35,-47.22 834.77,-45.26 825.4,-40.3 824.35,-47.22"/>
</a>
</g>
</g>
<!-- Node10 -->
<g id="Node000010" class="node">
<title>Node10</title>
<g id="a_Node000010"><a xlink:href="weights__dedup_8c.html#a3baac12d7191041beab3fc4508b94be7" target="_top" xlink:title=" ">
<polygon fill="white" stroke="#666666" points="647,-40.69 513,-40.69 513,-21.69 647,-21.69 647,-40.69"/>
<text text-anchor="middle" x="580" y="-28.69" font-family="Helvetica,sans-Serif" font-size="10.00">ie_parse_iejson_tensors</text>
</a>
</g>
</g>
<!-- Node1&#45;&gt;Node10 -->
<g id="edge11_Node000001_Node000010" class="edge">
<title>Node1&#45;&gt;Node10</title>
<g id="a_edge11_Node000001_Node000010"><a xlink:title=" ">
<path fill="none" stroke="#63b8ff" d="M859.67,-36.8C843.9,-26.16 821.24,-12.92 799,-7.19 732.45,9.96 651.37,-9 609.33,-21.68"/>
<polygon fill="#63b8ff" stroke="#63b8ff" points="857.89,-39.83 868.1,-42.69 861.9,-34.09 857.89,-39.83"/>
</a>
</g>
</g>
<!-- Node2&#45;&gt;Node3 -->
<g id="edge2_Node000002_Node000003" class="edge">
<title>Node2&#45;&gt;Node3</title>
<g id="a_edge2_Node000002_Node000003"><a xlink:title=" ">
<path fill="none" stroke="#63b8ff" d="M531.42,-101.43C506.73,-95.84 476.83,-89.08 453,-83.69"/>
<polygon fill="#63b8ff" stroke="#63b8ff" points="530.77,-104.87 541.3,-103.66 532.32,-98.04 530.77,-104.87"/>
</a>
</g>
</g>
<!-- Node4 -->
<g id="Node000004" class="node">
<title>Node4</title>
<g id="a_Node000004"><a xlink:href="weights_8c.html#a522dac028ee37aae1307ffdb6d65ec1d" target="_top" xlink:title="Open and parse IEBIN v1 metadata and resolve the weights path.">
<polygon fill="white" stroke="#666666" points="307,-83.69 209,-83.69 209,-64.69 307,-64.69 307,-83.69"/>
<text text-anchor="middle" x="258" y="-71.69" font-family="Helvetica,sans-Serif" font-size="10.00">ie_weights_open</text>
</a>
</g>
</g>
<!-- Node3&#45;&gt;Node4 -->
<g id="edge3_Node000003_Node000004" class="edge">
<title>Node3&#45;&gt;Node4</title>
<g id="a_edge3_Node000003_Node000004"><a xlink:title=" ">
<path fill="none" stroke="#63b8ff" d="M332.66,-74.19C324.04,-74.19 315.43,-74.19 307.31,-74.19"/>
<polygon fill="#63b8ff" stroke="#63b8ff" points="332.77,-77.69 342.77,-74.19 332.77,-70.69 332.77,-77.69"/>
</a>
</g>
</g>
<!-- Node5 -->
<g id="Node000005" class="node">
<title>Node5</title>
<g id="a_Node000005"><a xlink:href="main__infer_8c.html#a3c04138a5bfe5d72780bb7e82a18e627" target="_top" xlink:title=" ">
<polygon fill="white" stroke="#666666" points="145.5,-120.69 104.5,-120.69 104.5,-101.69 145.5,-101.69 145.5,-120.69"/>
<text text-anchor="middle" x="125" y="-108.69" font-family="Helvetica,sans-Serif" font-size="10.00">main</text>
</a>
</g>
</g>
<!-- Node4&#45;&gt;Node5 -->
<g id="edge4_Node000004_Node000005" class="edge">
<title>Node4&#45;&gt;Node5</title>
<g id="a_edge4_Node000004_Node000005"><a xlink:title=" ">
<path fill="none" stroke="#63b8ff" d="M213.42,-86.5C190.54,-92.96 163.63,-100.56 145.78,-105.61"/>
<polygon fill="#63b8ff" stroke="#63b8ff" points="214.59,-89.81 223.26,-83.72 212.69,-83.07 214.59,-89.81"/>
</a>
</g>
</g>
<!-- Node6 -->
<g id="Node000006" class="node">
<title>Node6</title>
<g id="a_Node000006"><a xlink:href="test__weights_8c.html#a840291bc02cba5474a4cb46a9b9566fe" target="_top" xlink:title="Main test entrypoint.">
<polygon fill="white" stroke="#666666" points="145.5,-83.69 104.5,-83.69 104.5,-64.69 145.5,-64.69 145.5,-83.69"/>
<text text-anchor="middle" x="125" y="-71.69" font-family="Helvetica,sans-Serif" font-size="10.00">main</text>
</a>
</g>
</g>
<!-- Node4&#45;&gt;Node6 -->
<g id="edge5_Node000004_Node000006" class="edge">
<title>Node4&#45;&gt;Node6</title>
<g id="a_edge5_Node000004_Node000006"><a xlink:title=" ">
<path fill="none" stroke="#63b8ff" d="M198.79,-74.19C179.71,-74.19 159.79,-74.19 145.63,-74.19"/>
<polygon fill="#63b8ff" stroke="#63b8ff" points="198.96,-77.69 208.96,-74.19 198.96,-70.69 198.96,-77.69"/>
</a>
</g>
</g>
<!-- Node7 -->
<g id="Node000007" class="node">
<title>Node7</title>
<g id="a_Node000007"><a xlink:href="test__dedup__loader_8c.html#a73dca7f77cd9da376bc14e888330d88f" target="_top" xlink:title=" ">
<polygon fill="white" stroke="#666666" points="173,-46.69 77,-46.69 77,-27.69 173,-27.69 173,-46.69"/>
<text text-anchor="middle" x="125" y="-34.69" font-family="Helvetica,sans-Serif" font-size="10.00">open_and_touch</text>
</a>
</g>
</g>
<!-- Node4&#45;&gt;Node7 -->
<g id="edge6_Node000004_Node000007" class="edge">
<title>Node4&#45;&gt;Node7</title>
<g id="a_edge6_Node000004_Node000007"><a xlink:title=" ">
<path fill="none" stroke="#63b8ff" d="M213.36,-61.86C196.01,-56.96 176.35,-51.41 160.08,-46.82"/>
<polygon fill="#63b8ff" stroke="#63b8ff" points="212.69,-65.31 223.26,-64.66 214.59,-58.58 212.69,-65.31"/>
</a>
</g>
</g>
<!-- Node8 -->
<g id="Node000008" class="node">
<title>Node8</title>
<g id="a_Node000008"><a xlink:href="test__dedup__loader_8c.html#a3c04138a5bfe5d72780bb7e82a18e627" target="_top" xlink:title=" ">
<polygon fill="white" stroke="#666666" points="41,-46.69 0,-46.69 0,-27.69 41,-27.69 41,-46.69"/>
<text text-anchor="middle" x="20.5" y="-34.69" font-family="Helvetica,sans-Serif" font-size="10.00">main</text>
</a>
</g>
</g>
<!-- Node7&#45;&gt;Node8 -->
<g id="edge7_Node000007_Node000008" class="edge">
<title>Node7&#45;&gt;Node8</title>
<g id="a_edge7_Node000007_Node000008"><a xlink:title=" ">
<path fill="none" stroke="#63b8ff" d="M66.87,-37.19C57.62,-37.19 48.63,-37.19 41.13,-37.19"/>
<polygon fill="#63b8ff" stroke="#63b8ff" points="66.95,-40.69 76.95,-37.19 66.95,-33.69 66.95,-40.69"/>
</a>
</g>
</g>
<!-- Node9&#45;&gt;Node10 -->
<g id="edge9_Node000009_Node000010" class="edge">
<title>Node9&#45;&gt;Node10</title>
<g id="a_edge9_Node000009_Node000010"><a xlink:title=" ">
<path fill="none" stroke="#63b8ff" d="M672.5,-31.19C664.14,-31.19 655.59,-31.19 647.24,-31.19"/>
<polygon fill="#63b8ff" stroke="#63b8ff" points="672.6,-34.69 682.6,-31.19 672.6,-27.69 672.6,-34.69"/>
</a>
</g>
</g>
<!-- Node10&#45;&gt;Node3 -->
<g id="edge10_Node000010_Node000003" class="edge">
<title>Node10&#45;&gt;Node3</title>
<g id="a_edge10_Node000010_Node000003"><a xlink:title=" ">
<path fill="none" stroke="#63b8ff" d="M531.9,-43.25C505.42,-50.02 472.84,-58.36 448.18,-64.67"/>
<polygon fill="#63b8ff" stroke="#63b8ff" points="532.9,-46.6 541.72,-40.73 531.16,-39.82 532.9,-46.6"/>
</a>
</g>
</g>
</g>
</svg>
