<?xml version="1.0" encoding="UTF-8" standalone="no"?>
<!DOCTYPE svg PUBLIC "-//W3C//DTD SVG 1.1//EN"
 "http://www.w3.org/Graphics/SVG/1.1/DTD/svg11.dtd">
<!-- Generated by graphviz version 2.43.0 (0)
 -->
<!-- Title: ie_parse_tensors_array Pages: 1 -->
<!--zoomable 584 -->

<svg id="main" version="1.1" xmlns="http://www.w3.org/2000/svg" xmlns:xlink="http://www.w3.org/1999/xlink" xml:space="preserve" onload="init(evt)">
<style type="text/css"><![CDATA[
.node, .edge {opacity: 0.7;}
.node.selected, .edge.selected {opacity: 1;}
.edge:hover path { stroke: red; }
.edge:hover polygon { stroke: red; fill: red; }
]]></style>

<defs>
  <circle id="rim" cx="0" cy="0" r="7"/>
  <circle id="rim2" cx="0" cy="0" r="3.5"/>
  <g id="zoomPlus">
    <use xlink:href="#rim" fill="#404040"><set attributeName="fill" to="#808080" begin="zoomplus.mouseover" end="zoomplus.mouseout"/></use>
    <path d="M-4,0h8M0,-4v8" fill="none" stroke="white" stroke-width="1.5" pointer-events="none"/>
  </g>
  <g id="zoomMin">
    <use xlink:href="#rim" fill="#404040"><set attributeName="fill" to="#808080" begin="zoomminus.mouseover" end="zoomminus.mouseout"/></use>
    <path d="M-4,0h8" fill="none" stroke="white" stroke-width="1.5" pointer-events="none"/>
  </g>
  <g id="arrowUp" transform="translate(30 24)">
    <use xlink:href="#rim"/>
    <path pointer-events="none" fill="none" stroke="white" stroke-width="1.5" d="M0,-3.0v7 M-2.5,-0.5L0,-3.0L2.5,-0.5"/>
  </g>
  <g id="arrowRight" transform="rotate(90) translate(36 -43)">
    <use xlink:href="#rim"/>
    <path pointer-events="none" fill="none" stroke="white" stroke-width="1.5" d="M0,-3.0v7 M-2.5,-0.5L0,-3.0L2.5,-0.5"/>
  </g>
  <g id="arrowDown" transform="rotate(180) translate(-30 -48)">
    <use xlink:href="#rim"/>
    <path pointer-events="none" fill="none" stroke="white" stroke-width="1.5" d="M0,-3.0v7 M-2.5,-0.5L0,-3.0L2.5,-0.5"/>
  </g>
  <g id="arrowLeft" transform="rotate(270) translate(-36 17)">
    <use xlink:href="#rim"/>
    <path pointer-events="none" fill="none" stroke="white" stroke-width="1.5" d="M0,-3.0v7 M-2.5,-0.5L0,-3.0L2.5,-0.5"/>
  </g>
  <g id="resetDef">
    <use xlink:href="#rim2" fill="#404040"><set attributeName="fill" to="#808080" begin="reset.mouseover" end="reset.mouseout"/></use>
  </g>
</defs>
<script type="application/ecmascript">
var viewWidth = 1108;
var viewHeight = 584;
var sectionId = 'dynsection-21';
</script>
<script type="application/ecmascript" xlink:href="svg.min.js"/>
<svg id="graph" class="graph">
<g id="viewport">
<title>ie_parse_tensors_array</title>
<!-- Node1 -->
<g id="Node000001" class="node">
<title>Node1</title>
<g id="a_Node000001"><a xlink:title=" ">
<polygon fill="#999999" stroke="#666666" points="130,-486.5 0,-486.5 0,-467.5 130,-467.5 130,-486.5"/>
<text text-anchor="middle" x="65" y="-474.5" font-family="Helvetica,sans-Serif" font-size="10.00">ie_parse_tensors_array</text>
</a>
</g>
</g>
<!-- Node2 -->
<g id="Node000002" class="node">
<title>Node2</title>
<g id="a_Node000002"><a xlink:href="weights__dedup_8c.html#ac8435c15b639ac76b805cc23f609be12" target="_top" xlink:title=" ">
<polygon fill="white" stroke="#666666" points="283,-387.5 166,-387.5 166,-368.5 283,-368.5 283,-387.5"/>
<text text-anchor="middle" x="224.5" y="-375.5" font-family="Helvetica,sans-Serif" font-size="10.00">ie_parse_one_tensor</text>
</a>
</g>
</g>
<!-- Node1&#45;&gt;Node2 -->
<g id="edge1_Node000001_Node000002" class="edge">
<title>Node1&#45;&gt;Node2</title>
<g id="a_edge1_Node000001_Node000002"><a xlink:title=" ">
<path fill="none" stroke="#63b8ff" d="M81.39,-467.33C108.98,-449.98 167.04,-413.49 199.77,-392.92"/>
<polygon fill="#63b8ff" stroke="#63b8ff" points="201.68,-395.85 208.28,-387.57 197.95,-389.92 201.68,-395.85"/>
</a>
</g>
</g>
<!-- Node9 -->
<g id="Node000009" class="node">
<title>Node9</title>
<g id="a_Node000009"><a xlink:href="weights__dedup_8c.html#a21501177295cc06eaf7d981f7d437c0c" target="_top" xlink:title=" ">
<polygon fill="white" stroke="#666666" points="1100,-197.5 1031,-197.5 1031,-178.5 1100,-178.5 1100,-197.5"/>
<text text-anchor="middle" x="1065.5" y="-185.5" font-family="Helvetica,sans-Serif" font-size="10.00">js_skip_ws</text>
</a>
</g>
</g>
<!-- Node1&#45;&gt;Node9 -->
<g id="edge35_Node000001_Node000009" class="edge">
<title>Node1&#45;&gt;Node9</title>
<g id="a_edge35_Node000001_Node000009"><a xlink:title=" ">
<path fill="none" stroke="#63b8ff" d="M83.83,-486.67C131.45,-511.58 266.24,-576 386.5,-576 386.5,-576 386.5,-576 827,-576 1001.64,-576 1051.78,-286.51 1062.2,-207.64"/>
<polygon fill="#63b8ff" stroke="#63b8ff" points="1065.69,-207.95 1063.46,-197.59 1058.74,-207.08 1065.69,-207.95"/>
</a>
</g>
</g>
<!-- Node3 -->
<g id="Node000003" class="node">
<title>Node3</title>
<g id="a_Node000003"><a xlink:href="weights__dedup_8c.html#a769c13c3bd5730384bfe064bc1618b11" target="_top" xlink:title=" ">
<polygon fill="white" stroke="#666666" points="444,-547.5 331,-547.5 331,-528.5 444,-528.5 444,-547.5"/>
<text text-anchor="middle" x="387.5" y="-535.5" font-family="Helvetica,sans-Serif" font-size="10.00">ie_dtype_elem_size</text>
</a>
</g>
</g>
<!-- Node2&#45;&gt;Node3 -->
<g id="edge2_Node000002_Node000003" class="edge">
<title>Node2&#45;&gt;Node3</title>
<g id="a_edge2_Node000002_Node000003"><a xlink:title=" ">
<path fill="none" stroke="#63b8ff" d="M229.02,-387.69C238.89,-413.48 269.43,-484.27 319,-520 321.07,-521.49 323.25,-522.86 325.51,-524.11"/>
<polygon fill="#63b8ff" stroke="#63b8ff" points="324.05,-527.29 334.58,-528.4 327.04,-520.96 324.05,-527.29"/>
</a>
</g>
</g>
<!-- Node4 -->
<g id="Node000004" class="node">
<title>Node4</title>
<g id="a_Node000004"><a xlink:href="weights__dedup_8c.html#abf09bf44922c5b2ad9b0d7cd5cb02fcb" target="_top" xlink:title=" ">
<polygon fill="white" stroke="#666666" points="438,-510.5 337,-510.5 337,-491.5 438,-491.5 438,-510.5"/>
<text text-anchor="middle" x="387.5" y="-498.5" font-family="Helvetica,sans-Serif" font-size="10.00">ie_find_file_index</text>
</a>
</g>
</g>
<!-- Node2&#45;&gt;Node4 -->
<g id="edge3_Node000002_Node000004" class="edge">
<title>Node2&#45;&gt;Node4</title>
<g id="a_edge3_Node000002_Node000004"><a xlink:title=" ">
<path fill="none" stroke="#63b8ff" d="M231.44,-387.69C244.57,-408.28 278.18,-456.61 319,-482 322.39,-484.11 326.02,-485.99 329.78,-487.67"/>
<polygon fill="#63b8ff" stroke="#63b8ff" points="328.71,-491.01 339.29,-491.43 331.28,-484.5 328.71,-491.01"/>
</a>
</g>
</g>
<!-- Node5 -->
<g id="Node000005" class="node">
<title>Node5</title>
<g id="a_Node000005"><a xlink:href="weights__dedup_8c.html#a4cce94dd277bd5e194b03d519205c2b4" target="_top" xlink:title=" ">
<polygon fill="white" stroke="#666666" points="448.5,-473.5 326.5,-473.5 326.5,-454.5 448.5,-454.5 448.5,-473.5"/>
<text text-anchor="middle" x="387.5" y="-461.5" font-family="Helvetica,sans-Serif" font-size="10.00">ie_shape_elem_count</text>
</a>
</g>
</g>
<!-- Node2&#45;&gt;Node5 -->
<g id="edge4_Node000002_Node000005" class="edge">
<title>Node2&#45;&gt;Node5</title>
<g id="a_edge4_Node000002_Node000005"><a xlink:title=" ">
<path fill="none" stroke="#63b8ff" d="M236.21,-387.61C252.8,-402.03 286.24,-429.25 319,-445 323.87,-447.34 329.08,-449.44 334.36,-451.31"/>
<polygon fill="#63b8ff" stroke="#63b8ff" points="333.31,-454.65 343.9,-454.44 335.49,-448 333.31,-454.65"/>
</a>
</g>
</g>
<!-- Node6 -->
<g id="Node000006" class="node">
<title>Node6</title>
<g id="a_Node000006"><a xlink:href="weights__dedup_8c.html#ad0ae06a184c7f1407994167e82afedb7" target="_top" xlink:title=" ">
<polygon fill="white" stroke="#666666" points="456,-436 319,-436 319,-406 456,-406 456,-436"/>
<text text-anchor="start" x="327" y="-424" font-family="Helvetica,sans-Serif" font-size="10.00">ie_weights_dedup_parse</text>
<text text-anchor="middle" x="387.5" y="-413" font-family="Helvetica,sans-Serif" font-size="10.00">_dtype</text>
</a>
</g>
</g>
<!-- Node2&#45;&gt;Node6 -->
<g id="edge5_Node000002_Node000006" class="edge">
<title>Node2&#45;&gt;Node6</title>
<g id="a_edge5_Node000002_Node000006"><a xlink:title=" ">
<path fill="none" stroke="#63b8ff" d="M261.23,-387.54C278.67,-392.2 300.21,-397.95 320.49,-403.37"/>
<polygon fill="#63b8ff" stroke="#63b8ff" points="319.75,-406.79 330.31,-405.99 321.56,-400.03 319.75,-406.79"/>
</a>
</g>
</g>
<!-- Node7 -->
<g id="Node000007" class="node">
<title>Node7</title>
<g id="a_Node000007"><a xlink:href="weights__dedup_8c.html#ae0494f541a190a9ecf82c11c5eb22952" target="_top" xlink:title=" ">
<polygon fill="white" stroke="#666666" points="619,-311.5 492,-311.5 492,-292.5 619,-292.5 619,-311.5"/>
<text text-anchor="middle" x="555.5" y="-299.5" font-family="Helvetica,sans-Serif" font-size="10.00">js_find_member_value</text>
</a>
</g>
</g>
<!-- Node2&#45;&gt;Node7 -->
<g id="edge6_Node000002_Node000007" class="edge">
<title>Node2&#45;&gt;Node7</title>
<g id="a_edge6_Node000002_Node000007"><a xlink:title=" ">
<path fill="none" stroke="#63b8ff" d="M238.64,-368.4C256.05,-356.23 288.17,-335.69 319,-326 371.87,-309.38 434.39,-303.61 481.72,-301.87"/>
<polygon fill="#63b8ff" stroke="#63b8ff" points="482,-305.36 491.88,-301.55 481.78,-298.37 482,-305.36"/>
</a>
</g>
</g>
<!-- Node8 -->
<g id="Node000008" class="node">
<title>Node8</title>
<g id="a_Node000008"><a xlink:href="weights__dedup_8c.html#a7e3b6f5b10e0d8d68272d2e80523813b" target="_top" xlink:title=" ">
<polygon fill="white" stroke="#666666" points="995,-254.5 905,-254.5 905,-235.5 995,-235.5 995,-254.5"/>
<text text-anchor="middle" x="950" y="-242.5" font-family="Helvetica,sans-Serif" font-size="10.00">js_parse_string</text>
</a>
</g>
</g>
<!-- Node2&#45;&gt;Node8 -->
<g id="edge32_Node000002_Node000008" class="edge">
<title>Node2&#45;&gt;Node8</title>
<g id="a_edge32_Node000002_Node000008"><a xlink:title=" ">
<path fill="none" stroke="#63b8ff" d="M276.3,-368.46C340.75,-357.2 455.46,-340 554.5,-340 554.5,-340 554.5,-340 702,-340 778.32,-340 803.64,-339.41 869,-300 887.49,-288.85 885.5,-275.57 904.95,-260.27"/>
<polygon fill="#63b8ff" stroke="#63b8ff" points="906.97,-263.13 913.17,-254.54 902.96,-257.39 906.97,-263.13"/>
</a>
</g>
</g>
<!-- Node2&#45;&gt;Node9 -->
<g id="edge34_Node000002_Node000009" class="edge">
<title>Node2&#45;&gt;Node9</title>
<g id="a_edge34_Node000002_Node000009"><a xlink:title=" ">
<path fill="none" stroke="#63b8ff" d="M283.27,-377.82C396.58,-376.56 655.51,-369.2 869,-330 926.05,-319.52 948.18,-330.23 995,-296 1026.2,-273.19 1047.01,-231.75 1057.2,-207.37"/>
<polygon fill="#63b8ff" stroke="#63b8ff" points="1060.57,-208.37 1061.03,-197.78 1054.07,-205.78 1060.57,-208.37"/>
</a>
</g>
</g>
<!-- Node14 -->
<g id="Node000014" class="node">
<title>Node14</title>
<g id="a_Node000014"><a xlink:href="weights__dedup_8c.html#ae1e5c9a54a8c0312241d17afd01c40a0" target="_top" xlink:title=" ">
<polygon fill="white" stroke="#666666" points="869,-235.5 783,-235.5 783,-216.5 869,-216.5 869,-235.5"/>
<text text-anchor="middle" x="826" y="-223.5" font-family="Helvetica,sans-Serif" font-size="10.00">js_skip_object</text>
</a>
</g>
</g>
<!-- Node2&#45;&gt;Node14 -->
<g id="edge33_Node000002_Node000014" class="edge">
<title>Node2&#45;&gt;Node14</title>
<g id="a_edge33_Node000002_Node000014"><a xlink:title=" ">
<path fill="none" stroke="#63b8ff" d="M233.63,-368.39C248.59,-351.41 282.33,-316.39 319,-300 359.96,-281.7 651.63,-246.17 772.62,-232.02"/>
<polygon fill="#63b8ff" stroke="#63b8ff" points="773.22,-235.48 782.75,-230.84 772.41,-228.52 773.22,-235.48"/>
</a>
</g>
</g>
<!-- Node15 -->
<g id="Node000015" class="node">
<title>Node15</title>
<g id="a_Node000015"><a xlink:href="weights__dedup_8c.html#ac65e64ed76368c21cf76399a4eed1b90" target="_top" xlink:title=" ">
<polygon fill="white" stroke="#666666" points="436,-216.5 339,-216.5 339,-197.5 436,-197.5 436,-216.5"/>
<text text-anchor="middle" x="387.5" y="-204.5" font-family="Helvetica,sans-Serif" font-size="10.00">js_parse_blobref</text>
</a>
</g>
</g>
<!-- Node2&#45;&gt;Node15 -->
<g id="edge23_Node000002_Node000015" class="edge">
<title>Node2&#45;&gt;Node15</title>
<g id="a_edge23_Node000002_Node000015"><a xlink:title=" ">
<path fill="none" stroke="#63b8ff" d="M230.81,-368.39C243.68,-345.74 278.46,-288.04 319,-250 330.74,-238.98 345.68,-229.13 358.52,-221.64"/>
<polygon fill="#63b8ff" stroke="#63b8ff" points="360.43,-224.59 367.42,-216.63 356.99,-218.49 360.43,-224.59"/>
</a>
</g>
</g>
<!-- Node16 -->
<g id="Node000016" class="node">
<title>Node16</title>
<g id="a_Node000016"><a xlink:href="weights__dedup_8c.html#a176ff7ed51749363637a7ad5366cf4e9" target="_top" xlink:title=" ">
<polygon fill="white" stroke="#666666" points="747,-47.5 655,-47.5 655,-28.5 747,-28.5 747,-47.5"/>
<text text-anchor="middle" x="701" y="-35.5" font-family="Helvetica,sans-Serif" font-size="10.00">js_parse_shape</text>
</a>
</g>
</g>
<!-- Node2&#45;&gt;Node16 -->
<g id="edge29_Node000002_Node000016" class="edge">
<title>Node2&#45;&gt;Node16</title>
<g id="a_edge29_Node000002_Node000016"><a xlink:title=" ">
<path fill="none" stroke="#63b8ff" d="M227.71,-368.27C235.14,-337.59 262.05,-241.74 319,-188 412.46,-99.81 563.91,-61.37 644.84,-46.4"/>
<polygon fill="#63b8ff" stroke="#63b8ff" points="645.61,-49.82 654.83,-44.61 644.37,-42.93 645.61,-49.82"/>
</a>
</g>
</g>
<!-- Node7&#45;&gt;Node8 -->
<g id="edge7_Node000007_Node000008" class="edge">
<title>Node7&#45;&gt;Node8</title>
<g id="a_edge7_Node000007_Node000008"><a xlink:title=" ">
<path fill="none" stroke="#63b8ff" d="M619.05,-302.92C682.78,-302.54 784.05,-298.25 869,-278 886.98,-273.71 906.16,-265.92 921.23,-258.99"/>
<polygon fill="#63b8ff" stroke="#63b8ff" points="922.95,-262.05 930.49,-254.6 919.95,-255.72 922.95,-262.05"/>
</a>
</g>
</g>
<!-- Node7&#45;&gt;Node9 -->
<g id="edge22_Node000007_Node000009" class="edge">
<title>Node7&#45;&gt;Node9</title>
<g id="a_edge22_Node000007_Node000009"><a xlink:title=" ">
<path fill="none" stroke="#63b8ff" d="M609.11,-311.53C696.48,-324.45 873.82,-338.05 995,-263 1018.81,-248.25 1039.67,-223.19 1052.17,-206.14"/>
<polygon fill="#63b8ff" stroke="#63b8ff" points="1055.3,-207.78 1058.23,-197.6 1049.59,-203.73 1055.3,-207.78"/>
</a>
</g>
</g>
<!-- Node10 -->
<g id="Node000010" class="node">
<title>Node10</title>
<g id="a_Node000010"><a xlink:href="weights__dedup_8c.html#aec6b7531542a45304d1f17d108a6d2ea" target="_top" xlink:title=" ">
<polygon fill="white" stroke="#666666" points="742.5,-159.5 659.5,-159.5 659.5,-140.5 742.5,-140.5 742.5,-159.5"/>
<text text-anchor="middle" x="701" y="-147.5" font-family="Helvetica,sans-Serif" font-size="10.00">js_skip_value</text>
</a>
</g>
</g>
<!-- Node7&#45;&gt;Node10 -->
<g id="edge9_Node000007_Node000010" class="edge">
<title>Node7&#45;&gt;Node10</title>
<g id="a_edge9_Node000007_Node000010"><a xlink:title=" ">
<path fill="none" stroke="#63b8ff" d="M565.48,-292.49C589.23,-267.33 653.99,-198.74 684.15,-166.79"/>
<polygon fill="#63b8ff" stroke="#63b8ff" points="686.71,-169.18 691.03,-159.5 681.62,-164.37 686.71,-169.18"/>
</a>
</g>
</g>
<!-- Node8&#45;&gt;Node9 -->
<g id="edge8_Node000008_Node000009" class="edge">
<title>Node8&#45;&gt;Node9</title>
<g id="a_edge8_Node000008_Node000009"><a xlink:title=" ">
<path fill="none" stroke="#63b8ff" d="M970,-235.46C988.17,-226.34 1015.78,-212.47 1036.48,-202.07"/>
<polygon fill="#63b8ff" stroke="#63b8ff" points="1038.08,-205.19 1045.44,-197.57 1034.93,-198.93 1038.08,-205.19"/>
</a>
</g>
</g>
<!-- Node10&#45;&gt;Node8 -->
<g id="edge13_Node000010_Node000008" class="edge">
<title>Node10&#45;&gt;Node8</title>
<g id="a_edge13_Node000010_Node000008"><a xlink:title=" ">
<path fill="none" stroke="#63b8ff" d="M733.48,-159.56C767.35,-170.12 822.6,-188.13 869,-207 886.64,-214.17 905.94,-223.3 921.16,-230.81"/>
<polygon fill="#63b8ff" stroke="#63b8ff" points="920.01,-234.15 930.52,-235.48 923.13,-227.88 920.01,-234.15"/>
</a>
</g>
</g>
<!-- Node10&#45;&gt;Node9 -->
<g id="edge21_Node000010_Node000009" class="edge">
<title>Node10&#45;&gt;Node9</title>
<g id="a_edge21_Node000010_Node000009"><a xlink:title=" ">
<path fill="none" stroke="#63b8ff" d="M742.53,-154.25C811.15,-161.44 949.66,-175.96 1020.54,-183.39"/>
<polygon fill="#63b8ff" stroke="#63b8ff" points="1020.59,-186.92 1030.9,-184.48 1021.32,-179.95 1020.59,-186.92"/>
</a>
</g>
</g>
<!-- Node11 -->
<g id="Node000011" class="node">
<title>Node11</title>
<g id="a_Node000011"><a xlink:href="weights__dedup_8c.html#acb6d250836afa5eddeb1985efad8afa4" target="_top" xlink:title=" ">
<polygon fill="white" stroke="#666666" points="864,-84.5 788,-84.5 788,-65.5 864,-65.5 864,-84.5"/>
<text text-anchor="middle" x="826" y="-72.5" font-family="Helvetica,sans-Serif" font-size="10.00">js_match_lit</text>
</a>
</g>
</g>
<!-- Node10&#45;&gt;Node11 -->
<g id="edge10_Node000010_Node000011" class="edge">
<title>Node10&#45;&gt;Node11</title>
<g id="a_edge10_Node000010_Node000011"><a xlink:title=" ">
<path fill="none" stroke="#63b8ff" d="M714.97,-140.38C734.16,-126.22 769.34,-100.63 783,-93 785.53,-91.59 788.2,-90.21 790.91,-88.89"/>
<polygon fill="#63b8ff" stroke="#63b8ff" points="792.54,-91.99 800.16,-84.63 789.61,-85.63 792.54,-91.99"/>
</a>
</g>
</g>
<!-- Node12 -->
<g id="Node000012" class="node">
<title>Node12</title>
<g id="a_Node000012"><a xlink:href="weights__dedup_8c.html#a080768f8631e237e2467fc47a7d4d6a0" target="_top" xlink:title=" ">
<polygon fill="white" stroke="#666666" points="864.5,-47.5 787.5,-47.5 787.5,-28.5 864.5,-28.5 864.5,-47.5"/>
<text text-anchor="middle" x="826" y="-35.5" font-family="Helvetica,sans-Serif" font-size="10.00">js_parse_i64</text>
</a>
</g>
</g>
<!-- Node10&#45;&gt;Node12 -->
<g id="edge11_Node000010_Node000012" class="edge">
<title>Node10&#45;&gt;Node12</title>
<g id="a_edge11_Node000010_Node000012"><a xlink:title=" ">
<path fill="none" stroke="#63b8ff" d="M718.26,-140.4C727.43,-134.44 738.68,-126.19 747,-117 768.12,-93.66 759.36,-76.79 783,-56 784.31,-54.85 785.71,-53.76 787.16,-52.74"/>
<polygon fill="#63b8ff" stroke="#63b8ff" points="789.16,-55.62 796,-47.53 785.6,-49.59 789.16,-55.62"/>
</a>
</g>
</g>
<!-- Node13 -->
<g id="Node000013" class="node">
<title>Node13</title>
<g id="a_Node000013"><a xlink:href="weights__dedup_8c.html#aeb7fa9bc2ccc7b24ae16f647bcafb49b" target="_top" xlink:title=" ">
<polygon fill="white" stroke="#666666" points="866.5,-121.5 785.5,-121.5 785.5,-102.5 866.5,-102.5 866.5,-121.5"/>
<text text-anchor="middle" x="826" y="-109.5" font-family="Helvetica,sans-Serif" font-size="10.00">js_skip_array</text>
</a>
</g>
</g>
<!-- Node10&#45;&gt;Node13 -->
<g id="edge14_Node000010_Node000013" class="edge">
<title>Node10&#45;&gt;Node13</title>
<g id="a_edge14_Node000010_Node000013"><a xlink:title=" ">
<path fill="none" stroke="#63b8ff" d="M717.83,-140.41C732.5,-134.18 755.13,-126.54 775.81,-120.57"/>
<polygon fill="#63b8ff" stroke="#63b8ff" points="776.77,-123.93 785.46,-117.86 774.88,-117.19 776.77,-123.93"/>
</a>
</g>
</g>
<!-- Node10&#45;&gt;Node14 -->
<g id="edge17_Node000010_Node000014" class="edge">
<title>Node10&#45;&gt;Node14</title>
<g id="a_edge17_Node000010_Node000014"><a xlink:title=" ">
<path fill="none" stroke="#63b8ff" d="M738.18,-159.62C741.2,-161.35 744.18,-163.17 747,-165 764,-176.03 766.16,-181.72 783,-193 791.72,-198.84 801.94,-204.7 810.11,-210.21"/>
<polygon fill="#63b8ff" stroke="#63b8ff" points="808.16,-213.12 818.28,-216.27 812.33,-207.5 808.16,-213.12"/>
</a>
</g>
</g>
<!-- Node12&#45;&gt;Node9 -->
<g id="edge12_Node000012_Node000009" class="edge">
<title>Node12&#45;&gt;Node9</title>
<g id="a_edge12_Node000012_Node000009"><a xlink:title=" ">
<path fill="none" stroke="#63b8ff" d="M858.77,-47.54C894.17,-59.15 952.07,-81.08 995,-112 1017.77,-128.4 1038.74,-153.25 1051.56,-170.03"/>
<polygon fill="#63b8ff" stroke="#63b8ff" points="1049.03,-172.49 1057.81,-178.42 1054.64,-168.31 1049.03,-172.49"/>
</a>
</g>
</g>
<!-- Node13&#45;&gt;Node9 -->
<g id="edge16_Node000013_Node000009" class="edge">
<title>Node13&#45;&gt;Node9</title>
<g id="a_edge16_Node000013_Node000009"><a xlink:title=" ">
<path fill="none" stroke="#63b8ff" d="M866.82,-112.18C901.81,-113.6 953.48,-118.83 995,-136 1015.07,-144.3 1034.56,-159.73 1047.77,-171.63"/>
<polygon fill="#63b8ff" stroke="#63b8ff" points="1045.43,-174.24 1055.13,-178.5 1050.21,-169.12 1045.43,-174.24"/>
</a>
</g>
</g>
<!-- Node13&#45;&gt;Node10 -->
<g id="edge15_Node000013_Node000010" class="edge">
<title>Node13&#45;&gt;Node10</title>
<g id="a_edge15_Node000013_Node000010"><a xlink:title=" ">
<path fill="none" stroke="#63b8ff" d="M809.31,-121.53C794.94,-127.65 772.86,-135.12 752.46,-141.06"/>
<polygon fill="#63b8ff" stroke="#63b8ff" points="751.29,-137.76 742.62,-143.84 753.19,-144.49 751.29,-137.76"/>
</a>
</g>
</g>
<!-- Node14&#45;&gt;Node8 -->
<g id="edge18_Node000014_Node000008" class="edge">
<title>Node14&#45;&gt;Node8</title>
<g id="a_edge18_Node000014_Node000008"><a xlink:title=" ">
<path fill="none" stroke="#63b8ff" d="M869.33,-232.59C877.54,-233.87 886.25,-235.23 894.78,-236.56"/>
<polygon fill="#63b8ff" stroke="#63b8ff" points="894.25,-240.02 904.67,-238.1 895.33,-233.1 894.25,-240.02"/>
</a>
</g>
</g>
<!-- Node14&#45;&gt;Node9 -->
<g id="edge20_Node000014_Node000009" class="edge">
<title>Node14&#45;&gt;Node9</title>
<g id="a_edge20_Node000014_Node000009"><a xlink:title=" ">
<path fill="none" stroke="#63b8ff" d="M869.19,-219.25C911.88,-212.42 977.6,-201.9 1020.83,-194.99"/>
<polygon fill="#63b8ff" stroke="#63b8ff" points="1021.44,-198.43 1030.76,-193.4 1020.34,-191.52 1021.44,-198.43"/>
</a>
</g>
</g>
<!-- Node14&#45;&gt;Node10 -->
<g id="edge19_Node000014_Node000010" class="edge">
<title>Node14&#45;&gt;Node10</title>
<g id="a_edge19_Node000014_Node000010"><a xlink:title=" ">
<path fill="none" stroke="#63b8ff" d="M791.27,-216.26C788.44,-214.55 785.65,-212.78 783,-211 766.16,-199.72 764,-194.03 747,-183 737.62,-176.91 726.54,-170.99 717.72,-165.47"/>
<polygon fill="#63b8ff" stroke="#63b8ff" points="719.46,-162.42 709.23,-159.65 715.5,-168.19 719.46,-162.42"/>
</a>
</g>
</g>
<!-- Node15&#45;&gt;Node7 -->
<g id="edge24_Node000015_Node000007" class="edge">
<title>Node15&#45;&gt;Node7</title>
<g id="a_edge24_Node000015_Node000007"><a xlink:title=" ">
<path fill="none" stroke="#63b8ff" d="M405.33,-216.63C434.41,-233.28 494.25,-267.52 528.65,-287.2"/>
<polygon fill="#63b8ff" stroke="#63b8ff" points="527.21,-290.41 537.62,-292.34 530.68,-284.34 527.21,-290.41"/>
</a>
</g>
</g>
<!-- Node15&#45;&gt;Node8 -->
<g id="edge26_Node000015_Node000008" class="edge">
<title>Node15&#45;&gt;Node8</title>
<g id="a_edge26_Node000015_Node000008"><a xlink:title=" ">
<path fill="none" stroke="#63b8ff" d="M436.07,-212.82C510.11,-221.57 657.44,-237.75 783,-244 820.27,-245.86 862.31,-246.09 894.75,-245.87"/>
<polygon fill="#63b8ff" stroke="#63b8ff" points="894.96,-249.37 904.93,-245.78 894.9,-242.37 894.96,-249.37"/>
</a>
</g>
</g>
<!-- Node15&#45;&gt;Node9 -->
<g id="edge28_Node000015_Node000009" class="edge">
<title>Node15&#45;&gt;Node9</title>
<g id="a_edge28_Node000015_Node000009"><a xlink:title=" ">
<path fill="none" stroke="#63b8ff" d="M395.68,-197.29C426.88,-156.37 555.53,0 700,0 700,0 700,0 827,0 906.59,0 934.65,-10.11 995,-62 1028.95,-91.19 1049.43,-141.26 1058.66,-168.67"/>
<polygon fill="#63b8ff" stroke="#63b8ff" points="1055.35,-169.83 1061.74,-178.29 1062.02,-167.69 1055.35,-169.83"/>
</a>
</g>
</g>
<!-- Node15&#45;&gt;Node12 -->
<g id="edge25_Node000015_Node000012" class="edge">
<title>Node15&#45;&gt;Node12</title>
<g id="a_edge25_Node000015_Node000012"><a xlink:title=" ">
<path fill="none" stroke="#63b8ff" d="M413.22,-197.43C487.03,-168.85 705.98,-84.08 790.85,-51.22"/>
<polygon fill="#63b8ff" stroke="#63b8ff" points="792.22,-54.44 800.28,-47.57 789.69,-47.92 792.22,-54.44"/>
</a>
</g>
</g>
<!-- Node15&#45;&gt;Node14 -->
<g id="edge27_Node000015_Node000014" class="edge">
<title>Node15&#45;&gt;Node14</title>
<g id="a_edge27_Node000015_Node000014"><a xlink:title=" ">
<path fill="none" stroke="#63b8ff" d="M436.04,-209.07C518.43,-212.66 687.09,-220 772.68,-223.72"/>
<polygon fill="#63b8ff" stroke="#63b8ff" points="772.55,-227.22 782.69,-224.16 772.86,-220.23 772.55,-227.22"/>
</a>
</g>
</g>
<!-- Node16&#45;&gt;Node9 -->
<g id="edge31_Node000016_Node000009" class="edge">
<title>Node16&#45;&gt;Node9</title>
<g id="a_edge31_Node000016_Node000009"><a xlink:title=" ">
<path fill="none" stroke="#63b8ff" d="M734.8,-28.49C749.42,-24.73 766.93,-20.86 783,-19 878.5,-7.95 921.33,-0.23 995,-62 1029.31,-90.77 1049.64,-141.01 1058.75,-168.56"/>
<polygon fill="#63b8ff" stroke="#63b8ff" points="1055.45,-169.74 1061.79,-178.22 1062.13,-167.63 1055.45,-169.74"/>
</a>
</g>
</g>
<!-- Node16&#45;&gt;Node12 -->
<g id="edge30_Node000016_Node000012" class="edge">
<title>Node16&#45;&gt;Node12</title>
<g id="a_edge30_Node000016_Node000012"><a xlink:title=" ">
<path fill="none" stroke="#63b8ff" d="M747.1,-38C756.87,-38 767.24,-38 777.11,-38"/>
<polygon fill="#63b8ff" stroke="#63b8ff" points="777.18,-41.5 787.18,-38 777.18,-34.5 777.18,-41.5"/>
</a>
</g>
</g>
</g>
</svg>

<g id="navigator" transform="translate(0 0)" fill="#404254">
  <rect fill="#f2f5e9" fill-opacity="0.5" stroke="#606060" stroke-width=".5" x="0" y="0" width="60" height="60"/>
  <use id="zoomplus" xlink:href="#zoomPlus" x="17" y="9" onmousedown="handleZoom(evt,'in')"/>
  <use id="zoomminus" xlink:href="#zoomMin" x="42" y="9" onmousedown="handleZoom(evt,'out')"/>
  <use id="reset" xlink:href="#resetDef" x="30" y="36" onmousedown="handleReset()"/>
   <use id="arrowup" xlink:href="#arrowUp" x="0" y="0" onmousedown="handlePan(0,-1)"/>
  <use id="arrowright" xlink:href="#arrowRight" x="0" y="0" onmousedown="handlePan(1,0)"/>
  <use id="arrowdown" xlink:href="#arrowDown" x="0" y="0" onmousedown="handlePan(0,1)"/>
  <use id="arrowleft" xlink:href="#arrowLeft" x="0" y="0" onmousedown="handlePan(-1,0)"/>
</g>
<svg viewBox="0 0 15 15" width="100%" height="30px" preserveAspectRatio="xMaxYMin meet">
 <g id="arrow_out" transform="scale(0.3 0.3)">
  <a xlink:href="weights__dedup_8c_a1eaf38d57abdd040f9c40e2e3ea1525c_cgraph_org.svg" target="_base">
   <rect id="button" ry="5" rx="5" y="6" x="6" height="38" width="38"
        fill="#f2f5e9" fill-opacity="0.5" stroke="#606060" stroke-width="1.0"/>
   <path id="arrow"
     d="M 11.500037,31.436501 C 11.940474,20.09759 22.043105,11.32322 32.158766,21.979434 L 37.068811,17.246167 C 37.068811,17.246167 37.088388,32 37.088388,32 L 22.160133,31.978069 C 22.160133,31.978069 26.997745,27.140456 26.997745,27.140456 C 18.528582,18.264221 13.291696,25.230495 11.500037,31.436501 z"
     style="fill:#404040;"/>
  </a>
 </g>
</svg>

<style type='text/css'>
<![CDATA[
[data-mouse-over-selected='false'] { opacity: 0.7; }
[data-mouse-over-selected='true']  { opacity: 1.0; }
]]>
</style>
<script type="application/ecmascript"><![CDATA[
document.addEventListener('DOMContentLoaded', (event) => {
  highlightEdges();
  highlightAdjacentNodes();
});
]]></script>
</svg>
