<?xml version="1.0" encoding="UTF-8" standalone="no"?>
<!DOCTYPE svg PUBLIC "-//W3C//DTD SVG 1.1//EN"
 "http://www.w3.org/Graphics/SVG/1.1/DTD/svg11.dtd">
<!-- Generated by graphviz version 12.2.1 (20241206.2353)
 -->
<!-- Title: engine/src/io/weights.c Pages: 1 -->
<svg width="820pt" height="142pt"
 viewBox="0.00 0.00 820.00 142.25" xmlns="http://www.w3.org/2000/svg" xmlns:xlink="http://www.w3.org/1999/xlink">
<g id="graph0" class="graph" transform="scale(1 1) rotate(0) translate(4 138.25)">
<title>engine/src/io/weights.c</title>
<!-- Node1 -->
<g id="Node000001" class="node">
<title>Node1</title>
<g id="a_Node000001"><a xlink:title="Implementation of the IEBIN v1 loader with relaxed JSON parsing.">
<polygon fill="#999999" stroke="#666666" points="467.38,-134.25 339.62,-134.25 339.62,-113.5 467.38,-113.5 467.38,-134.25"/>
<text text-anchor="middle" x="403.5" y="-120.75" font-family="Helvetica,sans-Serif" font-size="10.00">engine/src/io/weights.c</text>
</a>
</g>
</g>
<!-- Node2 -->
<g id="Node000002" class="node">
<title>Node2</title>
<g id="a_Node000002"><a xlink:href="ie__io_8h.html" target="_top" xlink:title="Public I/O interfaces: IEBIN v1 loader and lightweight tokenizer.">
<polygon fill="white" stroke="#666666" points="157.62,-77.5 109.38,-77.5 109.38,-56.75 157.62,-56.75 157.62,-77.5"/>
<text text-anchor="middle" x="133.5" y="-64" font-family="Helvetica,sans-Serif" font-size="10.00">ie_io.h</text>
</a>
</g>
</g>
<!-- Node1&#45;&gt;Node2 -->
<g id="edge1_Node000001_Node000002" class="edge">
<title>Node1&#45;&gt;Node2</title>
<g id="a_edge1_Node000001_Node000002"><a xlink:title=" ">
<path fill="none" stroke="#63b8ff" d="M344.27,-113.02C298.68,-105.1 233.9,-93.11 168.81,-77.9"/>
<polygon fill="#63b8ff" stroke="#63b8ff" points="169.96,-74.57 159.42,-75.68 168.34,-81.38 169.96,-74.57"/>
</a>
</g>
</g>
<!-- Node5 -->
<g id="Node000005" class="node">
<title>Node5</title>
<g id="a_Node000005"><a xlink:href="ie__quant__int4_8h.html" target="_top" xlink:title="Public API for 4&#45;bit (INT4) weight&#45;only post&#45;training quantization.">
<polygon fill="white" stroke="#666666" points="91,-77.5 0,-77.5 0,-56.75 91,-56.75 91,-77.5"/>
<text text-anchor="middle" x="45.5" y="-64" font-family="Helvetica,sans-Serif" font-size="10.00">ie_quant_int4.h</text>
</a>
</g>
</g>
<!-- Node1&#45;&gt;Node5 -->
<g id="edge4_Node000001_Node000005" class="edge">
<title>Node1&#45;&gt;Node5</title>
<g id="a_edge4_Node000001_Node000005"><a xlink:title=" ">
<path fill="none" stroke="#63b8ff" d="M339.31,-113.65C280.45,-105.1 190.57,-91.82 102.67,-77.82"/>
<polygon fill="#63b8ff" stroke="#63b8ff" points="103.33,-74.38 92.9,-76.26 102.22,-81.29 103.33,-74.38"/>
</a>
</g>
</g>
<!-- Node6 -->
<g id="Node000006" class="node">
<title>Node6</title>
<g id="a_Node000006"><a xlink:title=" ">
<polygon fill="#e0e0e0" stroke="#999999" points="227.5,-77.5 175.5,-77.5 175.5,-56.75 227.5,-56.75 227.5,-77.5"/>
<text text-anchor="middle" x="201.5" y="-64" font-family="Helvetica,sans-Serif" font-size="10.00">ctype.h</text>
</a>
</g>
</g>
<!-- Node1&#45;&gt;Node6 -->
<g id="edge7_Node000001_Node000006" class="edge">
<title>Node1&#45;&gt;Node6</title>
<g id="a_edge7_Node000001_Node000006"><a xlink:title=" ">
<path fill="none" stroke="#63b8ff" d="M367.39,-113.09C331.08,-103.25 275.38,-88.15 238.7,-78.21"/>
<polygon fill="#63b8ff" stroke="#63b8ff" points="240,-74.93 229.43,-75.69 238.16,-81.69 240,-74.93"/>
</a>
</g>
</g>
<!-- Node7 -->
<g id="Node000007" class="node">
<title>Node7</title>
<g id="a_Node000007"><a xlink:title=" ">
<polygon fill="#e0e0e0" stroke="#999999" points="295.75,-77.5 245.25,-77.5 245.25,-56.75 295.75,-56.75 295.75,-77.5"/>
<text text-anchor="middle" x="270.5" y="-64" font-family="Helvetica,sans-Serif" font-size="10.00">errno.h</text>
</a>
</g>
</g>
<!-- Node1&#45;&gt;Node7 -->
<g id="edge8_Node000001_Node000007" class="edge">
<title>Node1&#45;&gt;Node7</title>
<g id="a_edge8_Node000001_Node000007"><a xlink:title=" ">
<path fill="none" stroke="#63b8ff" d="M379.72,-113.09C358.82,-104.48 328.16,-91.86 304.64,-82.18"/>
<polygon fill="#63b8ff" stroke="#63b8ff" points="306.05,-78.97 295.47,-78.4 303.39,-85.45 306.05,-78.97"/>
</a>
</g>
</g>
<!-- Node8 -->
<g id="Node000008" class="node">
<title>Node8</title>
<g id="a_Node000008"><a xlink:title=" ">
<polygon fill="#e0e0e0" stroke="#999999" points="360.88,-77.5 314.12,-77.5 314.12,-56.75 360.88,-56.75 360.88,-77.5"/>
<text text-anchor="middle" x="337.5" y="-64" font-family="Helvetica,sans-Serif" font-size="10.00">fcntl.h</text>
</a>
</g>
</g>
<!-- Node1&#45;&gt;Node8 -->
<g id="edge9_Node000001_Node000008" class="edge">
<title>Node1&#45;&gt;Node8</title>
<g id="a_edge9_Node000001_Node000008"><a xlink:title=" ">
<path fill="none" stroke="#63b8ff" d="M391.7,-113.09C382.32,-105.3 368.96,-94.22 357.86,-85.01"/>
<polygon fill="#63b8ff" stroke="#63b8ff" points="360.29,-82.49 350.36,-78.79 355.82,-87.87 360.29,-82.49"/>
</a>
</g>
</g>
<!-- Node9 -->
<g id="Node000009" class="node">
<title>Node9</title>
<g id="a_Node000009"><a xlink:title=" ">
<polygon fill="#e0e0e0" stroke="#999999" points="428,-77.5 379,-77.5 379,-56.75 428,-56.75 428,-77.5"/>
<text text-anchor="middle" x="403.5" y="-64" font-family="Helvetica,sans-Serif" font-size="10.00">stdio.h</text>
</a>
</g>
</g>
<!-- Node1&#45;&gt;Node9 -->
<g id="edge10_Node000001_Node000009" class="edge">
<title>Node1&#45;&gt;Node9</title>
<g id="a_edge10_Node000001_Node000009"><a xlink:title=" ">
<path fill="none" stroke="#63b8ff" d="M403.5,-113.09C403.5,-106.47 403.5,-97.47 403.5,-89.27"/>
<polygon fill="#63b8ff" stroke="#63b8ff" points="407,-89.34 403.5,-79.34 400,-89.34 407,-89.34"/>
</a>
</g>
</g>
<!-- Node10 -->
<g id="Node000010" class="node">
<title>Node10</title>
<g id="a_Node000010"><a xlink:title=" ">
<polygon fill="#e0e0e0" stroke="#999999" points="498.5,-77.5 446.5,-77.5 446.5,-56.75 498.5,-56.75 498.5,-77.5"/>
<text text-anchor="middle" x="472.5" y="-64" font-family="Helvetica,sans-Serif" font-size="10.00">stdlib.h</text>
</a>
</g>
</g>
<!-- Node1&#45;&gt;Node10 -->
<g id="edge11_Node000001_Node000010" class="edge">
<title>Node1&#45;&gt;Node10</title>
<g id="a_edge11_Node000001_Node000010"><a xlink:title=" ">
<path fill="none" stroke="#63b8ff" d="M415.84,-113.09C425.75,-105.22 439.89,-94 451.56,-84.74"/>
<polygon fill="#63b8ff" stroke="#63b8ff" points="453.43,-87.73 459.09,-78.77 449.08,-82.24 453.43,-87.73"/>
</a>
</g>
</g>
<!-- Node11 -->
<g id="Node000011" class="node">
<title>Node11</title>
<g id="a_Node000011"><a xlink:title=" ">
<polygon fill="#e0e0e0" stroke="#999999" points="568.88,-77.5 516.12,-77.5 516.12,-56.75 568.88,-56.75 568.88,-77.5"/>
<text text-anchor="middle" x="542.5" y="-64" font-family="Helvetica,sans-Serif" font-size="10.00">string.h</text>
</a>
</g>
</g>
<!-- Node1&#45;&gt;Node11 -->
<g id="edge12_Node000001_Node000011" class="edge">
<title>Node1&#45;&gt;Node11</title>
<g id="a_edge12_Node000001_Node000011"><a xlink:title=" ">
<path fill="none" stroke="#63b8ff" d="M428.35,-113.09C450.39,-104.41 482.82,-91.63 507.48,-81.92"/>
<polygon fill="#63b8ff" stroke="#63b8ff" points="508.43,-85.3 516.46,-78.38 505.87,-78.79 508.43,-85.3"/>
</a>
</g>
</g>
<!-- Node12 -->
<g id="Node000012" class="node">
<title>Node12</title>
<g id="a_Node000012"><a xlink:title=" ">
<polygon fill="#e0e0e0" stroke="#999999" points="650.12,-77.5 586.88,-77.5 586.88,-56.75 650.12,-56.75 650.12,-77.5"/>
<text text-anchor="middle" x="618.5" y="-64" font-family="Helvetica,sans-Serif" font-size="10.00">sys/stat.h</text>
</a>
</g>
</g>
<!-- Node1&#45;&gt;Node12 -->
<g id="edge13_Node000001_Node000012" class="edge">
<title>Node1&#45;&gt;Node12</title>
<g id="a_edge13_Node000001_Node000012"><a xlink:title=" ">
<path fill="none" stroke="#63b8ff" d="M441.94,-113.09C479.53,-103.51 536.68,-88.96 575.7,-79.02"/>
<polygon fill="#63b8ff" stroke="#63b8ff" points="576.4,-82.46 585.23,-76.6 574.67,-75.67 576.4,-82.46"/>
</a>
</g>
</g>
<!-- Node13 -->
<g id="Node000013" class="node">
<title>Node13</title>
<g id="a_Node000013"><a xlink:title=" ">
<polygon fill="#e0e0e0" stroke="#999999" points="739.25,-77.5 667.75,-77.5 667.75,-56.75 739.25,-56.75 739.25,-77.5"/>
<text text-anchor="middle" x="703.5" y="-64" font-family="Helvetica,sans-Serif" font-size="10.00">sys/types.h</text>
</a>
</g>
</g>
<!-- Node1&#45;&gt;Node13 -->
<g id="edge14_Node000001_Node000013" class="edge">
<title>Node1&#45;&gt;Node13</title>
<g id="a_edge14_Node000001_Node000013"><a xlink:title=" ">
<path fill="none" stroke="#63b8ff" d="M462.33,-113.04C511.74,-104.65 584.52,-91.97 656.44,-78.05"/>
<polygon fill="#63b8ff" stroke="#63b8ff" points="656.87,-81.54 666.02,-76.19 655.53,-74.66 656.87,-81.54"/>
</a>
</g>
</g>
<!-- Node14 -->
<g id="Node000014" class="node">
<title>Node14</title>
<g id="a_Node000014"><a xlink:title=" ">
<polygon fill="#e0e0e0" stroke="#999999" points="812,-77.5 757,-77.5 757,-56.75 812,-56.75 812,-77.5"/>
<text text-anchor="middle" x="784.5" y="-64" font-family="Helvetica,sans-Serif" font-size="10.00">unistd.h</text>
</a>
</g>
</g>
<!-- Node1&#45;&gt;Node14 -->
<g id="edge15_Node000001_Node000014" class="edge">
<title>Node1&#45;&gt;Node14</title>
<g id="a_edge15_Node000001_Node000014"><a xlink:title=" ">
<path fill="none" stroke="#63b8ff" d="M467.79,-116.83C534.92,-109.97 643.44,-97.38 745.54,-77.89"/>
<polygon fill="#63b8ff" stroke="#63b8ff" points="746.03,-81.36 755.18,-76.02 744.7,-74.49 746.03,-81.36"/>
</a>
</g>
</g>
<!-- Node3 -->
<g id="Node000003" class="node">
<title>Node3</title>
<g id="a_Node000003"><a xlink:title=" ">
<polygon fill="#e0e0e0" stroke="#999999" points="81,-20.75 26,-20.75 26,0 81,0 81,-20.75"/>
<text text-anchor="middle" x="53.5" y="-7.25" font-family="Helvetica,sans-Serif" font-size="10.00">stddef.h</text>
</a>
</g>
</g>
<!-- Node2&#45;&gt;Node3 -->
<g id="edge2_Node000002_Node000003" class="edge">
<title>Node2&#45;&gt;Node3</title>
<g id="a_edge2_Node000002_Node000003"><a xlink:title=" ">
<path fill="none" stroke="#63b8ff" d="M119.2,-56.34C107.48,-48.32 90.66,-36.81 76.97,-27.44"/>
<polygon fill="#63b8ff" stroke="#63b8ff" points="79.16,-24.69 68.93,-21.93 75.2,-30.47 79.16,-24.69"/>
</a>
</g>
</g>
<!-- Node4 -->
<g id="Node000004" class="node">
<title>Node4</title>
<g id="a_Node000004"><a xlink:title=" ">
<polygon fill="#e0e0e0" stroke="#999999" points="155.88,-20.75 103.12,-20.75 103.12,0 155.88,0 155.88,-20.75"/>
<text text-anchor="middle" x="129.5" y="-7.25" font-family="Helvetica,sans-Serif" font-size="10.00">stdint.h</text>
</a>
</g>
</g>
<!-- Node2&#45;&gt;Node4 -->
<g id="edge3_Node000002_Node000004" class="edge">
<title>Node2&#45;&gt;Node4</title>
<g id="a_edge3_Node000002_Node000004"><a xlink:title=" ">
<path fill="none" stroke="#63b8ff" d="M132.78,-56.34C132.3,-49.72 131.64,-40.72 131.04,-32.52"/>
<polygon fill="#63b8ff" stroke="#63b8ff" points="134.54,-32.31 130.32,-22.59 127.56,-32.82 134.54,-32.31"/>
</a>
</g>
</g>
<!-- Node5&#45;&gt;Node3 -->
<g id="edge5_Node000005_Node000003" class="edge">
<title>Node5&#45;&gt;Node3</title>
<g id="a_edge5_Node000005_Node000003"><a xlink:title=" ">
<path fill="none" stroke="#63b8ff" d="M46.93,-56.34C47.91,-49.64 49.24,-40.51 50.45,-32.23"/>
<polygon fill="#63b8ff" stroke="#63b8ff" points="53.88,-32.98 51.86,-22.58 46.95,-31.96 53.88,-32.98"/>
</a>
</g>
</g>
<!-- Node5&#45;&gt;Node4 -->
<g id="edge6_Node000005_Node000004" class="edge">
<title>Node5&#45;&gt;Node4</title>
<g id="a_edge6_Node000005_Node000004"><a xlink:title=" ">
<path fill="none" stroke="#63b8ff" d="M60.52,-56.34C72.94,-48.24 90.82,-36.58 105.27,-27.17"/>
<polygon fill="#63b8ff" stroke="#63b8ff" points="106.88,-30.3 113.34,-21.9 103.06,-24.43 106.88,-30.3"/>
</a>
</g>
</g>
</g>
</svg>
