<?xml version="1.0" encoding="UTF-8" standalone="no"?>
<!DOCTYPE svg PUBLIC "-//W3C//DTD SVG 1.1//EN"
 "http://www.w3.org/Graphics/SVG/1.1/DTD/svg11.dtd">
<!-- Generated by graphviz version 2.43.0 (0)
 -->
<!-- Title: js_skip_object Pages: 1 -->
<!--zoomable 272 -->

<svg id="main" version="1.1" xmlns="http://www.w3.org/2000/svg" xmlns:xlink="http://www.w3.org/1999/xlink" xml:space="preserve" onload="init(evt)">
<style type="text/css"><![CDATA[
.node, .edge {opacity: 0.7;}
.node.selected, .edge.selected {opacity: 1;}
.edge:hover path { stroke: red; }
.edge:hover polygon { stroke: red; fill: red; }
]]></style>

<defs>
  <circle id="rim" cx="0" cy="0" r="7"/>
  <circle id="rim2" cx="0" cy="0" r="3.5"/>
  <g id="zoomPlus">
    <use xlink:href="#rim" fill="#404040"><set attributeName="fill" to="#808080" begin="zoomplus.mouseover" end="zoomplus.mouseout"/></use>
    <path d="M-4,0h8M0,-4v8" fill="none" stroke="white" stroke-width="1.5" pointer-events="none"/>
  </g>
  <g id="zoomMin">
    <use xlink:href="#rim" fill="#404040"><set attributeName="fill" to="#808080" begin="zoomminus.mouseover" end="zoomminus.mouseout"/></use>
    <path d="M-4,0h8" fill="none" stroke="white" stroke-width="1.5" pointer-events="none"/>
  </g>
  <g id="arrowUp" transform="translate(30 24)">
    <use xlink:href="#rim"/>
    <path pointer-events="none" fill="none" stroke="white" stroke-width="1.5" d="M0,-3.0v7 M-2.5,-0.5L0,-3.0L2.5,-0.5"/>
  </g>
  <g id="arrowRight" transform="rotate(90) translate(36 -43)">
    <use xlink:href="#rim"/>
    <path pointer-events="none" fill="none" stroke="white" stroke-width="1.5" d="M0,-3.0v7 M-2.5,-0.5L0,-3.0L2.5,-0.5"/>
  </g>
  <g id="arrowDown" transform="rotate(180) translate(-30 -48)">
    <use xlink:href="#rim"/>
    <path pointer-events="none" fill="none" stroke="white" stroke-width="1.5" d="M0,-3.0v7 M-2.5,-0.5L0,-3.0L2.5,-0.5"/>
  </g>
  <g id="arrowLeft" transform="rotate(270) translate(-36 17)">
    <use xlink:href="#rim"/>
    <path pointer-events="none" fill="none" stroke="white" stroke-width="1.5" d="M0,-3.0v7 M-2.5,-0.5L0,-3.0L2.5,-0.5"/>
  </g>
  <g id="resetDef">
    <use xlink:href="#rim2" fill="#404040"><set attributeName="fill" to="#808080" begin="reset.mouseover" end="reset.mouseout"/></use>
  </g>
</defs>
<script type="application/ecmascript">
var viewWidth = 612;
var viewHeight = 272;
var sectionId = 'dynsection-79';
</script>
<script type="application/ecmascript" xlink:href="svg.min.js"/>
<svg id="graph" class="graph">
<g id="viewport">
<title>js_skip_object</title>
<!-- Node1 -->
<g id="Node000001" class="node">
<title>Node1</title>
<g id="a_Node000001"><a xlink:title=" ">
<polygon fill="#999999" stroke="#666666" points="86,-208 0,-208 0,-189 86,-189 86,-208"/>
<text text-anchor="middle" x="43" y="-196" font-family="Helvetica,sans-Serif" font-size="10.00">js_skip_object</text>
</a>
</g>
</g>
<!-- Node2 -->
<g id="Node000002" class="node">
<title>Node2</title>
<g id="a_Node000002"><a xlink:href="ie__device__cuda_8cu.html#a5e3d9fee84981707669f5c2398f0c4ab" target="_top" xlink:title="Row&#45;wise GEMV kernel: each thread computes one output row.">
<polygon fill="white" stroke="#666666" points="604,-138.5 479,-138.5 479,-108.5 604,-108.5 604,-138.5"/>
<text text-anchor="start" x="487" y="-126.5" font-family="Helvetica,sans-Serif" font-size="10.00">ie_gemv_rowwise_f32</text>
<text text-anchor="middle" x="541.5" y="-115.5" font-family="Helvetica,sans-Serif" font-size="10.00">_kernel</text>
</a>
</g>
</g>
<!-- Node1&#45;&gt;Node2 -->
<g id="edge1_Node000001_Node000002" class="edge">
<title>Node1&#45;&gt;Node2</title>
<g id="a_edge1_Node000001_Node000002"><a xlink:title=" ">
<path fill="none" stroke="#63b8ff" d="M62.79,-208.09C78.31,-215.67 101.12,-226.02 122,-232.5 211.25,-260.2 239.32,-273.59 331,-255.5 383.79,-245.08 397.3,-237.91 443,-209.5 471.85,-191.56 500.47,-164.99 519.17,-146.14"/>
<polygon fill="#63b8ff" stroke="#63b8ff" points="522.07,-148.18 526.55,-138.58 517.06,-143.29 522.07,-148.18"/>
</a>
</g>
</g>
<!-- Node3 -->
<g id="Node000003" class="node">
<title>Node3</title>
<g id="a_Node000003"><a xlink:href="weights__dedup_8c.html#a7e3b6f5b10e0d8d68272d2e80523813b" target="_top" xlink:title=" ">
<polygon fill="white" stroke="#666666" points="331,-246 241,-246 241,-227 331,-227 331,-246"/>
<text text-anchor="middle" x="286" y="-234" font-family="Helvetica,sans-Serif" font-size="10.00">js_parse_string</text>
</a>
</g>
</g>
<!-- Node1&#45;&gt;Node3 -->
<g id="edge2_Node000001_Node000003" class="edge">
<title>Node1&#45;&gt;Node3</title>
<g id="a_edge2_Node000001_Node000003"><a xlink:title=" ">
<path fill="none" stroke="#63b8ff" d="M86.06,-206.3C97.69,-208.39 110.32,-210.59 122,-212.5 158.17,-218.41 198.97,-224.41 230.7,-228.94"/>
<polygon fill="#63b8ff" stroke="#63b8ff" points="230.27,-232.41 240.67,-230.36 231.26,-225.48 230.27,-232.41"/>
</a>
</g>
</g>
<!-- Node4 -->
<g id="Node000004" class="node">
<title>Node4</title>
<g id="a_Node000004"><a xlink:href="weights__dedup_8c.html#a21501177295cc06eaf7d981f7d437c0c" target="_top" xlink:title=" ">
<polygon fill="white" stroke="#666666" points="439.5,-171 370.5,-171 370.5,-152 439.5,-152 439.5,-171"/>
<text text-anchor="middle" x="405" y="-159" font-family="Helvetica,sans-Serif" font-size="10.00">js_skip_ws</text>
</a>
</g>
</g>
<!-- Node1&#45;&gt;Node4 -->
<g id="edge20_Node000001_Node000004" class="edge">
<title>Node1&#45;&gt;Node4</title>
<g id="a_edge20_Node000001_Node000004"><a xlink:title=" ">
<path fill="none" stroke="#63b8ff" d="M86,-194.18C154.63,-187.13 290.14,-173.2 360.03,-166.02"/>
<polygon fill="#63b8ff" stroke="#63b8ff" points="360.66,-169.47 370.25,-164.97 359.95,-162.51 360.66,-169.47"/>
</a>
</g>
</g>
<!-- Node5 -->
<g id="Node000005" class="node">
<title>Node5</title>
<g id="a_Node000005"><a xlink:href="weights__dedup_8c.html#aec6b7531542a45304d1f17d108a6d2ea" target="_top" xlink:title=" ">
<polygon fill="white" stroke="#666666" points="205,-132 122,-132 122,-113 205,-113 205,-132"/>
<text text-anchor="middle" x="163.5" y="-120" font-family="Helvetica,sans-Serif" font-size="10.00">js_skip_value</text>
</a>
</g>
</g>
<!-- Node1&#45;&gt;Node5 -->
<g id="edge6_Node000001_Node000005" class="edge">
<title>Node1&#45;&gt;Node5</title>
<g id="a_edge6_Node000001_Node000005"><a xlink:title=" ">
<path fill="none" stroke="#63b8ff" d="M53.3,-188.69C69.6,-175.38 104.06,-152.53 129.94,-137.28"/>
<polygon fill="#63b8ff" stroke="#63b8ff" points="131.78,-140.26 138.69,-132.24 128.28,-134.2 131.78,-140.26"/>
</a>
</g>
</g>
<!-- Node3&#45;&gt;Node2 -->
<g id="edge3_Node000003_Node000002" class="edge">
<title>Node3&#45;&gt;Node2</title>
<g id="a_edge3_Node000003_Node000002"><a xlink:title=" ">
<path fill="none" stroke="#63b8ff" d="M318.76,-227C350.77,-216.98 401.28,-199.98 443,-180.5 465.75,-169.88 490.13,-155.62 508.83,-144.02"/>
<polygon fill="#63b8ff" stroke="#63b8ff" points="510.9,-146.85 517.51,-138.57 507.18,-140.92 510.9,-146.85"/>
</a>
</g>
</g>
<!-- Node3&#45;&gt;Node4 -->
<g id="edge4_Node000003_Node000004" class="edge">
<title>Node3&#45;&gt;Node4</title>
<g id="a_edge4_Node000003_Node000004"><a xlink:title=" ">
<path fill="none" stroke="#63b8ff" d="M305.67,-226.9C313.6,-222.68 322.86,-217.54 331,-212.5 348.96,-201.38 368.54,-187.6 382.9,-177.17"/>
<polygon fill="#63b8ff" stroke="#63b8ff" points="385.11,-179.89 391.11,-171.16 380.97,-174.24 385.11,-179.89"/>
</a>
</g>
</g>
<!-- Node4&#45;&gt;Node2 -->
<g id="edge5_Node000004_Node000002" class="edge">
<title>Node4&#45;&gt;Node2</title>
<g id="a_edge5_Node000004_Node000002"><a xlink:title=" ">
<path fill="none" stroke="#63b8ff" d="M439.59,-152.01C451.06,-148.77 464.29,-145.03 477.32,-141.35"/>
<polygon fill="#63b8ff" stroke="#63b8ff" points="478.54,-144.64 487.21,-138.56 476.64,-137.91 478.54,-144.64"/>
</a>
</g>
</g>
<!-- Node5&#45;&gt;Node1 -->
<g id="edge18_Node000005_Node000001" class="edge">
<title>Node5&#45;&gt;Node1</title>
<g id="a_edge18_Node000005_Node000001"><a xlink:title=" ">
<path fill="none" stroke="#63b8ff" d="M153.36,-132.18C137.04,-145.53 102.19,-168.64 76.19,-183.93"/>
<polygon fill="#63b8ff" stroke="#63b8ff" points="74.33,-180.97 67.41,-188.99 77.82,-187.03 74.33,-180.97"/>
</a>
</g>
</g>
<!-- Node5&#45;&gt;Node2 -->
<g id="edge7_Node000005_Node000002" class="edge">
<title>Node5&#45;&gt;Node2</title>
<g id="a_edge7_Node000005_Node000002"><a xlink:title=" ">
<path fill="none" stroke="#63b8ff" d="M173.72,-112.61C187.05,-99.12 213.15,-75.6 241,-66.5 332.26,-36.67 444.57,-77.73 502.27,-104.2"/>
<polygon fill="#63b8ff" stroke="#63b8ff" points="500.85,-107.4 511.39,-108.47 503.82,-101.06 500.85,-107.4"/>
</a>
</g>
</g>
<!-- Node5&#45;&gt;Node3 -->
<g id="edge13_Node000005_Node000003" class="edge">
<title>Node5&#45;&gt;Node3</title>
<g id="a_edge13_Node000005_Node000003"><a xlink:title=" ">
<path fill="none" stroke="#63b8ff" d="M174.77,-132.22C195.32,-151.65 241.67,-195.51 267.24,-219.7"/>
<polygon fill="#63b8ff" stroke="#63b8ff" points="265.08,-222.48 274.75,-226.81 269.89,-217.39 265.08,-222.48"/>
</a>
</g>
</g>
<!-- Node5&#45;&gt;Node4 -->
<g id="edge19_Node000005_Node000004" class="edge">
<title>Node5&#45;&gt;Node4</title>
<g id="a_edge19_Node000005_Node000004"><a xlink:title=" ">
<path fill="none" stroke="#63b8ff" d="M201.69,-132.06C214.13,-135.04 228.11,-138.16 241,-140.5 281.15,-147.79 327.31,-153.49 360.24,-157.1"/>
<polygon fill="#63b8ff" stroke="#63b8ff" points="360.12,-160.61 370.44,-158.2 360.87,-153.65 360.12,-160.61"/>
</a>
</g>
</g>
<!-- Node6 -->
<g id="Node000006" class="node">
<title>Node6</title>
<g id="a_Node000006"><a xlink:href="weights__dedup_8c.html#acb6d250836afa5eddeb1985efad8afa4" target="_top" xlink:title=" ">
<polygon fill="white" stroke="#666666" points="443,-19 367,-19 367,0 443,0 443,-19"/>
<text text-anchor="middle" x="405" y="-7" font-family="Helvetica,sans-Serif" font-size="10.00">js_match_lit</text>
</a>
</g>
</g>
<!-- Node5&#45;&gt;Node6 -->
<g id="edge8_Node000005_Node000006" class="edge">
<title>Node5&#45;&gt;Node6</title>
<g id="a_edge8_Node000005_Node000006"><a xlink:title=" ">
<path fill="none" stroke="#63b8ff" d="M169.7,-112.72C180.3,-93.85 206.38,-52.57 241,-33.5 276.42,-13.99 322.43,-8.71 356.53,-7.89"/>
<polygon fill="#63b8ff" stroke="#63b8ff" points="356.75,-11.39 366.71,-7.77 356.67,-4.39 356.75,-11.39"/>
</a>
</g>
</g>
<!-- Node7 -->
<g id="Node000007" class="node">
<title>Node7</title>
<g id="a_Node000007"><a xlink:href="weights__dedup_8c.html#a080768f8631e237e2467fc47a7d4d6a0" target="_top" xlink:title=" ">
<polygon fill="white" stroke="#666666" points="324.5,-132 247.5,-132 247.5,-113 324.5,-113 324.5,-132"/>
<text text-anchor="middle" x="286" y="-120" font-family="Helvetica,sans-Serif" font-size="10.00">js_parse_i64</text>
</a>
</g>
</g>
<!-- Node5&#45;&gt;Node7 -->
<g id="edge10_Node000005_Node000007" class="edge">
<title>Node5&#45;&gt;Node7</title>
<g id="a_edge10_Node000005_Node000007"><a xlink:title=" ">
<path fill="none" stroke="#63b8ff" d="M205.3,-122.5C215.54,-122.5 226.62,-122.5 237.17,-122.5"/>
<polygon fill="#63b8ff" stroke="#63b8ff" points="237.49,-126 247.49,-122.5 237.49,-119 237.49,-126"/>
</a>
</g>
</g>
<!-- Node8 -->
<g id="Node000008" class="node">
<title>Node8</title>
<g id="a_Node000008"><a xlink:href="weights__dedup_8c.html#aeb7fa9bc2ccc7b24ae16f647bcafb49b" target="_top" xlink:title=" ">
<polygon fill="white" stroke="#666666" points="326.5,-95 245.5,-95 245.5,-76 326.5,-76 326.5,-95"/>
<text text-anchor="middle" x="286" y="-83" font-family="Helvetica,sans-Serif" font-size="10.00">js_skip_array</text>
</a>
</g>
</g>
<!-- Node5&#45;&gt;Node8 -->
<g id="edge14_Node000005_Node000008" class="edge">
<title>Node5&#45;&gt;Node8</title>
<g id="a_edge14_Node000005_Node000008"><a xlink:title=" ">
<path fill="none" stroke="#63b8ff" d="M180.25,-112.93C194.33,-106.97 215.74,-99.75 235.54,-94.03"/>
<polygon fill="#63b8ff" stroke="#63b8ff" points="236.71,-97.34 245.39,-91.28 234.82,-90.6 236.71,-97.34"/>
</a>
</g>
</g>
<!-- Node6&#45;&gt;Node2 -->
<g id="edge9_Node000006_Node000002" class="edge">
<title>Node6&#45;&gt;Node2</title>
<g id="a_edge9_Node000006_Node000002"><a xlink:title=" ">
<path fill="none" stroke="#63b8ff" d="M422.25,-19.2C428.86,-23.36 436.47,-28.43 443,-33.5 470.46,-54.83 499.44,-82.3 518.6,-101.25"/>
<polygon fill="#63b8ff" stroke="#63b8ff" points="516.13,-103.73 525.68,-108.31 521.07,-98.78 516.13,-103.73"/>
</a>
</g>
</g>
<!-- Node7&#45;&gt;Node2 -->
<g id="edge11_Node000007_Node000002" class="edge">
<title>Node7&#45;&gt;Node2</title>
<g id="a_edge11_Node000007_Node000002"><a xlink:title=" ">
<path fill="none" stroke="#63b8ff" d="M324.68,-122.65C362.58,-122.8 421.98,-123.03 468.88,-123.22"/>
<polygon fill="#63b8ff" stroke="#63b8ff" points="468.97,-126.72 478.98,-123.26 469,-119.72 468.97,-126.72"/>
</a>
</g>
</g>
<!-- Node7&#45;&gt;Node4 -->
<g id="edge12_Node000007_Node000004" class="edge">
<title>Node7&#45;&gt;Node4</title>
<g id="a_edge12_Node000007_Node000004"><a xlink:title=" ">
<path fill="none" stroke="#63b8ff" d="M315.62,-132.04C330.64,-137.05 349.24,-143.25 365.5,-148.67"/>
<polygon fill="#63b8ff" stroke="#63b8ff" points="364.67,-152.08 375.27,-151.92 366.89,-145.44 364.67,-152.08"/>
</a>
</g>
</g>
<!-- Node8&#45;&gt;Node2 -->
<g id="edge15_Node000008_Node000002" class="edge">
<title>Node8&#45;&gt;Node2</title>
<g id="a_edge15_Node000008_Node000002"><a xlink:title=" ">
<path fill="none" stroke="#63b8ff" d="M326.61,-91.44C364.62,-97.14 422.9,-105.87 469.03,-112.79"/>
<polygon fill="#63b8ff" stroke="#63b8ff" points="468.56,-116.26 478.97,-114.28 469.6,-109.33 468.56,-116.26"/>
</a>
</g>
</g>
<!-- Node8&#45;&gt;Node4 -->
<g id="edge17_Node000008_Node000004" class="edge">
<title>Node8&#45;&gt;Node4</title>
<g id="a_edge17_Node000008_Node000004"><a xlink:title=" ">
<path fill="none" stroke="#63b8ff" d="M314.1,-95.18C319.83,-97.61 325.73,-100.41 331,-103.5 351.32,-115.4 372.11,-132.5 386.28,-145.05"/>
<polygon fill="#63b8ff" stroke="#63b8ff" points="384.04,-147.74 393.81,-151.84 388.73,-142.54 384.04,-147.74"/>
</a>
</g>
</g>
<!-- Node8&#45;&gt;Node5 -->
<g id="edge16_Node000008_Node000005" class="edge">
<title>Node8&#45;&gt;Node5</title>
<g id="a_edge16_Node000008_Node000005"><a xlink:title=" ">
<path fill="none" stroke="#63b8ff" d="M269.3,-95.05C255.47,-100.91 234.55,-107.98 215.03,-113.66"/>
<polygon fill="#63b8ff" stroke="#63b8ff" points="213.97,-110.32 205.3,-116.4 215.87,-117.06 213.97,-110.32"/>
</a>
</g>
</g>
</g>
</svg>

<g id="navigator" transform="translate(0 0)" fill="#404254">
  <rect fill="#f2f5e9" fill-opacity="0.5" stroke="#606060" stroke-width=".5" x="0" y="0" width="60" height="60"/>
  <use id="zoomplus" xlink:href="#zoomPlus" x="17" y="9" onmousedown="handleZoom(evt,'in')"/>
  <use id="zoomminus" xlink:href="#zoomMin" x="42" y="9" onmousedown="handleZoom(evt,'out')"/>
  <use id="reset" xlink:href="#resetDef" x="30" y="36" onmousedown="handleReset()"/>
   <use id="arrowup" xlink:href="#arrowUp" x="0" y="0" onmousedown="handlePan(0,-1)"/>
  <use id="arrowright" xlink:href="#arrowRight" x="0" y="0" onmousedown="handlePan(1,0)"/>
  <use id="arrowdown" xlink:href="#arrowDown" x="0" y="0" onmousedown="handlePan(0,1)"/>
  <use id="arrowleft" xlink:href="#arrowLeft" x="0" y="0" onmousedown="handlePan(-1,0)"/>
</g>
<svg viewBox="0 0 15 15" width="100%" height="30px" preserveAspectRatio="xMaxYMin meet">
 <g id="arrow_out" transform="scale(0.3 0.3)">
  <a xlink:href="weights__dedup_8c_ae1e5c9a54a8c0312241d17afd01c40a0_cgraph_org.svg" target="_base">
   <rect id="button" ry="5" rx="5" y="6" x="6" height="38" width="38"
        fill="#f2f5e9" fill-opacity="0.5" stroke="#606060" stroke-width="1.0"/>
   <path id="arrow"
     d="M 11.500037,31.436501 C 11.940474,20.09759 22.043105,11.32322 32.158766,21.979434 L 37.068811,17.246167 C 37.068811,17.246167 37.088388,32 37.088388,32 L 22.160133,31.978069 C 22.160133,31.978069 26.997745,27.140456 26.997745,27.140456 C 18.528582,18.264221 13.291696,25.230495 11.500037,31.436501 z"
     style="fill:#404040;"/>
  </a>
 </g>
</svg>

<style type='text/css'>
<![CDATA[
[data-mouse-over-selected='false'] { opacity: 0.7; }
[data-mouse-over-selected='true']  { opacity: 1.0; }
]]>
</style>
<script type="application/ecmascript"><![CDATA[
document.addEventListener('DOMContentLoaded', (event) => {
  highlightEdges();
  highlightAdjacentNodes();
});
]]></script>
</svg>
