<?xml version="1.0" encoding="UTF-8" standalone="no"?>
<!DOCTYPE svg PUBLIC "-//W3C//DTD SVG 1.1//EN"
 "http://www.w3.org/Graphics/SVG/1.1/DTD/svg11.dtd">
<!-- Generated by graphviz version 2.43.0 (0)
 -->
<!-- Title: js_skip_ws Pages: 1 -->
<!--zoomable 514 -->
<svg id="main" version="1.1" xmlns="http://www.w3.org/2000/svg" xmlns:xlink="http://www.w3.org/1999/xlink" xml:space="preserve" onload="init(evt)">
<style type="text/css"><![CDATA[
.edge:hover path { stroke: red; }
.edge:hover polygon { stroke: red; fill: red; }
]]></style>
<script type="text/javascript"><![CDATA[
var edges = document.getElementsByTagName('g');
if (edges && edges.length) {
  for (var i=0;i<edges.length;i++) {
    if (edges[i].id.substr(0,4)=='edge') {
      edges[i].setAttribute('class','edge');
    }
  }
}
]]></script>
        <defs>
                <circle id="rim" cx="0" cy="0" r="7"/>
                <circle id="rim2" cx="0" cy="0" r="3.5"/>
                <g id="zoomPlus">
                        <use xlink:href="#rim" fill="#404040">
                                <set attributeName="fill" to="#808080" begin="zoomplus.mouseover" end="zoomplus.mouseout"/>
                        </use>
                        <path d="M-4,0h8M0,-4v8" fill="none" stroke="white" stroke-width="1.5" pointer-events="none"/>
                </g>
                <g id="zoomMin">
                        <use xlink:href="#rim" fill="#404040">
                                <set attributeName="fill" to="#808080" begin="zoomminus.mouseover" end="zoomminus.mouseout"/>
                        </use>
                        <path d="M-4,0h8" fill="none" stroke="white" stroke-width="1.5" pointer-events="none"/>
                </g>
                <g id="dirArrow">
                        <path fill="none" stroke="white" stroke-width="1.5" d="M0,-3.0v7 M-2.5,-0.5L0,-3.0L2.5,-0.5"/>
                </g>
               <g id="resetDef">
                       <use xlink:href="#rim2" fill="#404040">
                               <set attributeName="fill" to="#808080" begin="reset.mouseover" end="reset.mouseout"/>
                       </use>
               </g>
        </defs>

<script type="text/javascript">
var viewWidth = 1354;
var viewHeight = 514;
var sectionId = 'dynsection-48';
</script>
<script xlink:href="svgpan.js"/>
<svg id="graph" class="graph">
<g id="viewport">
<title>js_skip_ws</title>
<!-- Node1 -->
<g id="node1" class="node">
<title>Node1</title>
<g id="a_node1"><a xlink:title="Skip JSON whitespace.">
<polygon fill="#bfbfbf" stroke="black" points="1277,-187.38 1277,-206.38 1346,-206.38 1346,-187.38 1277,-187.38"/>
<text text-anchor="middle" x="1311.5" y="-194.38" font-family="Helvetica,sans-Serif" font-size="10.00">js_skip_ws</text>
</a>
</g>
</g>
<!-- Node2 -->
<g id="node2" class="node">
<title>Node2</title>
<g id="a_node2"><a xlink:href="weights__dedup_8c.html#a59504573413171688ab4fb900b9bda3d" target="_top" xlink:title="Parse the top&#45;level &quot;files&quot; object into logical&#45;&gt;relpath table.">
<polygon fill="none" stroke="black" points="996,-415.38 996,-434.38 1115,-434.38 1115,-415.38 996,-415.38"/>
<text text-anchor="middle" x="1055.5" y="-422.38" font-family="Helvetica,sans-Serif" font-size="10.00">ie_parse_files_object</text>
</a>
</g>
</g>
<!-- Node1&#45;&gt;Node2 -->
<g id="edge1" class="edge">
<title>Node1&#45;&gt;Node2</title>
<path fill="none" stroke="midnightblue" d="M1310.23,-216.68C1308.49,-258.13 1298.17,-354.09 1241,-400.88 1206.26,-429.32 1154.85,-433.95 1115.12,-432.24"/>
<polygon fill="midnightblue" stroke="midnightblue" points="1313.73,-216.61 1310.52,-206.51 1306.73,-216.41 1313.73,-216.61"/>
</g>
<!-- Node6 -->
<g id="node6" class="node">
<title>Node6</title>
<g id="a_node6"><a xlink:href="weights__dedup_8c.html#ac8435c15b639ac76b805cc23f609be12" target="_top" xlink:title="Parse one tensor object within the &quot;tensors&quot; array.">
<polygon fill="none" stroke="black" points="547,-263.38 547,-282.38 664,-282.38 664,-263.38 547,-263.38"/>
<text text-anchor="middle" x="605.5" y="-270.38" font-family="Helvetica,sans-Serif" font-size="10.00">ie_parse_one_tensor</text>
</a>
</g>
</g>
<!-- Node1&#45;&gt;Node6 -->
<g id="edge5" class="edge">
<title>Node1&#45;&gt;Node6</title>
<path fill="none" stroke="midnightblue" d="M1308.16,-216.44C1301.06,-272.38 1277.97,-431.25 1241,-465.88 1180.09,-522.94 1139.96,-500.88 1056.5,-500.88 1056.5,-500.88 1056.5,-500.88 895.5,-500.88 752.03,-500.88 637.94,-325.54 612.03,-282.39"/>
<polygon fill="midnightblue" stroke="midnightblue" points="1311.64,-216.77 1309.4,-206.41 1304.7,-215.91 1311.64,-216.77"/>
</g>
<!-- Node7 -->
<g id="node7" class="node">
<title>Node7</title>
<g id="a_node7"><a xlink:href="weights__dedup_8c.html#a1eaf38d57abdd040f9c40e2e3ea1525c" target="_top" xlink:title="Parse the &quot;tensors&quot; array into an allocated table.">
<polygon fill="none" stroke="black" points="381,-244.38 381,-263.38 511,-263.38 511,-244.38 381,-244.38"/>
<text text-anchor="middle" x="446" y="-251.38" font-family="Helvetica,sans-Serif" font-size="10.00">ie_parse_tensors_array</text>
</a>
</g>
</g>
<!-- Node1&#45;&gt;Node7 -->
<g id="edge8" class="edge">
<title>Node1&#45;&gt;Node7</title>
<path fill="none" stroke="midnightblue" d="M1308.46,-176.87C1303.68,-141.19 1288.29,-66.97 1241,-30.88 1175.26,19.28 1139.19,-6.88 1056.5,-6.88 1056.5,-6.88 1056.5,-6.88 747.5,-6.88 595.22,-6.88 478.05,-198.53 452.3,-244.2"/>
<polygon fill="midnightblue" stroke="midnightblue" points="1305.01,-177.49 1309.67,-187 1311.96,-176.66 1305.01,-177.49"/>
</g>
<!-- Node8 -->
<g id="node8" class="node">
<title>Node8</title>
<g id="a_node8"><a xlink:href="weights__dedup_8c.html#ae0494f541a190a9ecf82c11c5eb22952" target="_top" xlink:title="Find a top&#45;level object member by key and return cursor at its value.">
<polygon fill="none" stroke="black" points="833,-225.38 833,-244.38 960,-244.38 960,-225.38 833,-225.38"/>
<text text-anchor="middle" x="896.5" y="-232.38" font-family="Helvetica,sans-Serif" font-size="10.00">js_find_member_value</text>
</a>
</g>
</g>
<!-- Node1&#45;&gt;Node8 -->
<g id="edge9" class="edge">
<title>Node1&#45;&gt;Node8</title>
<path fill="none" stroke="midnightblue" d="M1296.08,-179.84C1283.24,-166.09 1263.11,-147.79 1241,-139.88 1203.34,-126.41 1190.71,-135.08 1151,-139.88 1080.58,-148.38 1057.33,-142.24 996,-177.88 975.89,-189.57 979.79,-203.64 960,-215.88 953.83,-219.7 946.83,-222.79 939.82,-225.29"/>
<polygon fill="midnightblue" stroke="midnightblue" points="1293.48,-182.18 1302.75,-187.29 1298.69,-177.51 1293.48,-182.18"/>
</g>
<!-- Node9 -->
<g id="node9" class="node">
<title>Node9</title>
<g id="a_node9"><a xlink:href="weights__dedup_8c.html#ac65e64ed76368c21cf76399a4eed1b90" target="_top" xlink:title="Parse a blob ref object: {&quot;file&quot;:&quot;defaults&quot;,&quot;offset&quot;:N,&quot;nbytes&quot;:M}.">
<polygon fill="none" stroke="black" points="700,-263.38 700,-282.38 797,-282.38 797,-263.38 700,-263.38"/>
<text text-anchor="middle" x="748.5" y="-270.38" font-family="Helvetica,sans-Serif" font-size="10.00">js_parse_blobref</text>
</a>
</g>
</g>
<!-- Node1&#45;&gt;Node9 -->
<g id="edge14" class="edge">
<title>Node1&#45;&gt;Node9</title>
<path fill="none" stroke="midnightblue" d="M1311.27,-217.01C1311.83,-262.91 1306.11,-375.5 1241,-429.88 1157.29,-499.79 1100.09,-476.45 996,-443.88 889.63,-410.59 788.84,-313.46 758.64,-282.49"/>
<polygon fill="midnightblue" stroke="midnightblue" points="1314.77,-216.77 1311.03,-206.86 1307.77,-216.94 1314.77,-216.77"/>
</g>
<!-- Node10 -->
<g id="node10" class="node">
<title>Node10</title>
<g id="a_node10"><a xlink:href="weights__dedup_8c.html#a080768f8631e237e2467fc47a7d4d6a0" target="_top" xlink:title="Parse a JSON integer (int64).">
<polygon fill="none" stroke="black" points="1157.5,-149.38 1157.5,-168.38 1234.5,-168.38 1234.5,-149.38 1157.5,-149.38"/>
<text text-anchor="middle" x="1196" y="-156.38" font-family="Helvetica,sans-Serif" font-size="10.00">js_parse_i64</text>
</a>
</g>
</g>
<!-- Node1&#45;&gt;Node10 -->
<g id="edge15" class="edge">
<title>Node1&#45;&gt;Node10</title>
<path fill="none" stroke="midnightblue" d="M1272.19,-184.05C1256.96,-178.95 1239.74,-173.19 1225.63,-168.46"/>
<polygon fill="midnightblue" stroke="midnightblue" points="1271.27,-187.43 1281.86,-187.29 1273.49,-180.8 1271.27,-187.43"/>
</g>
<!-- Node11 -->
<g id="node11" class="node">
<title>Node11</title>
<g id="a_node11"><a xlink:href="weights__dedup_8c.html#a176ff7ed51749363637a7ad5366cf4e9" target="_top" xlink:title="Parse a shape array: [d0, d1, ...].">
<polygon fill="none" stroke="black" points="1009.5,-73.38 1009.5,-92.38 1101.5,-92.38 1101.5,-73.38 1009.5,-73.38"/>
<text text-anchor="middle" x="1055.5" y="-80.38" font-family="Helvetica,sans-Serif" font-size="10.00">js_parse_shape</text>
</a>
</g>
</g>
<!-- Node1&#45;&gt;Node11 -->
<g id="edge27" class="edge">
<title>Node1&#45;&gt;Node11</title>
<path fill="none" stroke="midnightblue" d="M1301.77,-178.27C1290.79,-157.13 1269.82,-123.43 1241,-106.88 1198.28,-82.35 1140.99,-78.53 1101.64,-79.45"/>
<polygon fill="midnightblue" stroke="midnightblue" points="1298.65,-179.85 1306.23,-187.25 1304.92,-176.74 1298.65,-179.85"/>
</g>
<!-- Node12 -->
<g id="node12" class="node">
<title>Node12</title>
<g id="a_node12"><a xlink:href="weights__dedup_8c.html#aec6b7531542a45304d1f17d108a6d2ea" target="_top" xlink:title="Skip a generic JSON value (object/array/string/number/literal).">
<polygon fill="none" stroke="black" points="1014,-187.38 1014,-206.38 1097,-206.38 1097,-187.38 1014,-187.38"/>
<text text-anchor="middle" x="1055.5" y="-194.38" font-family="Helvetica,sans-Serif" font-size="10.00">js_skip_value</text>
</a>
</g>
</g>
<!-- Node1&#45;&gt;Node12 -->
<g id="edge37" class="edge">
<title>Node1&#45;&gt;Node12</title>
<path fill="none" stroke="midnightblue" d="M1266.75,-196.88C1219.09,-196.88 1143.47,-196.88 1097.09,-196.88"/>
<polygon fill="midnightblue" stroke="midnightblue" points="1266.77,-200.38 1276.77,-196.88 1266.77,-193.38 1266.77,-200.38"/>
</g>
<!-- Node13 -->
<g id="node13" class="node">
<title>Node13</title>
<g id="a_node13"><a xlink:href="weights__dedup_8c.html#aeb7fa9bc2ccc7b24ae16f647bcafb49b" target="_top" xlink:title="Skip a JSON array.">
<polygon fill="none" stroke="black" points="856,-187.38 856,-206.38 937,-206.38 937,-187.38 856,-187.38"/>
<text text-anchor="middle" x="896.5" y="-194.38" font-family="Helvetica,sans-Serif" font-size="10.00">js_skip_array</text>
</a>
</g>
</g>
<!-- Node1&#45;&gt;Node13 -->
<g id="edge35" class="edge">
<title>Node1&#45;&gt;Node13</title>
<path fill="none" stroke="midnightblue" d="M1305.39,-177.7C1296.98,-150.24 1277.4,-100.43 1241,-76.88 1149.45,-17.64 1093.38,-14.82 996,-63.88 942.88,-90.64 911.26,-161.08 901.11,-187.07"/>
<polygon fill="midnightblue" stroke="midnightblue" points="1302.04,-178.7 1308.17,-187.34 1308.77,-176.76 1302.04,-178.7"/>
</g>
<!-- Node14 -->
<g id="node14" class="node">
<title>Node14</title>
<g id="a_node14"><a xlink:href="weights__dedup_8c.html#ae1e5c9a54a8c0312241d17afd01c40a0" target="_top" xlink:title="Skip a JSON object.">
<polygon fill="none" stroke="black" points="853.5,-301.38 853.5,-320.38 939.5,-320.38 939.5,-301.38 853.5,-301.38"/>
<text text-anchor="middle" x="896.5" y="-308.38" font-family="Helvetica,sans-Serif" font-size="10.00">js_skip_object</text>
</a>
</g>
</g>
<!-- Node1&#45;&gt;Node14 -->
<g id="edge36" class="edge">
<title>Node1&#45;&gt;Node14</title>
<path fill="none" stroke="midnightblue" d="M1302.38,-215.84C1291.77,-238.1 1270.94,-274.23 1241,-291.88 1145.56,-348.15 1008.08,-332.85 939.59,-320.15"/>
<polygon fill="midnightblue" stroke="midnightblue" points="1305.71,-216.99 1306.65,-206.43 1299.33,-214.09 1305.71,-216.99"/>
</g>
<!-- Node15 -->
<g id="node15" class="node">
<title>Node15</title>
<g id="a_node15"><a xlink:href="weights__dedup_8c.html#a7e3b6f5b10e0d8d68272d2e80523813b" target="_top" xlink:title="Parse a JSON string (no full unicode support; supports common escapes).">
<polygon fill="none" stroke="black" points="1151,-263.38 1151,-282.38 1241,-282.38 1241,-263.38 1151,-263.38"/>
<text text-anchor="middle" x="1196" y="-270.38" font-family="Helvetica,sans-Serif" font-size="10.00">js_parse_string</text>
</a>
</g>
</g>
<!-- Node1&#45;&gt;Node15 -->
<g id="edge28" class="edge">
<title>Node1&#45;&gt;Node15</title>
<path fill="none" stroke="midnightblue" d="M1287.71,-212.14C1264.89,-227.42 1230.47,-250.47 1211.26,-263.33"/>
<polygon fill="midnightblue" stroke="midnightblue" points="1289.76,-214.98 1296.13,-206.5 1285.87,-209.16 1289.76,-214.98"/>
</g>
<!-- Node3 -->
<g id="node3" class="node">
<title>Node3</title>
<g id="a_node3"><a xlink:href="weights__dedup_8h.html#aa625b41ce2a24826f8cb464661ace8ec" target="_top" xlink:title="Open a deduplicated model directory.">
<polygon fill="none" stroke="black" points="211,-244.38 211,-263.38 345,-263.38 345,-244.38 211,-244.38"/>
<text text-anchor="middle" x="278" y="-251.38" font-family="Helvetica,sans-Serif" font-size="10.00">ie_weights_dedup_open</text>
</a>
</g>
</g>
<!-- Node2&#45;&gt;Node3 -->
<g id="edge2" class="edge">
<title>Node2&#45;&gt;Node3</title>
<path fill="none" stroke="midnightblue" d="M985.8,-418.15C924.03,-412.69 830.79,-405.88 749.5,-405.88 749.5,-405.88 749.5,-405.88 604.5,-405.88 469.16,-405.88 329.39,-296.66 289.94,-263.39"/>
<polygon fill="midnightblue" stroke="midnightblue" points="985.54,-421.64 995.81,-419.05 986.17,-414.67 985.54,-421.64"/>
</g>
<!-- Node4 -->
<g id="node4" class="node">
<title>Node4</title>
<g id="a_node4"><a xlink:href="group__ie__io__weights.html#ga522dac028ee37aae1307ffdb6d65ec1d" target="_top" xlink:title="Open and parse IEBIN v1 metadata and resolve the weights path.">
<polygon fill="none" stroke="black" points="77,-244.38 77,-263.38 175,-263.38 175,-244.38 77,-244.38"/>
<text text-anchor="middle" x="126" y="-251.38" font-family="Helvetica,sans-Serif" font-size="10.00">ie_weights_open</text>
</a>
</g>
</g>
<!-- Node3&#45;&gt;Node4 -->
<g id="edge3" class="edge">
<title>Node3&#45;&gt;Node4</title>
<path fill="none" stroke="midnightblue" d="M200.66,-253.88C192.04,-253.88 183.43,-253.88 175.31,-253.88"/>
<polygon fill="midnightblue" stroke="midnightblue" points="200.77,-257.38 210.77,-253.88 200.77,-250.38 200.77,-257.38"/>
</g>
<!-- Node5 -->
<g id="node5" class="node">
<title>Node5</title>
<g id="a_node5"><a xlink:href="main__infer_8c.html#a3c04138a5bfe5d72780bb7e82a18e627" target="_top" xlink:title="Program entry point.">
<polygon fill="none" stroke="black" points="0,-244.38 0,-263.38 41,-263.38 41,-244.38 0,-244.38"/>
<text text-anchor="middle" x="20.5" y="-251.38" font-family="Helvetica,sans-Serif" font-size="10.00">main</text>
</a>
</g>
</g>
<!-- Node4&#45;&gt;Node5 -->
<g id="edge4" class="edge">
<title>Node4&#45;&gt;Node5</title>
<path fill="none" stroke="midnightblue" d="M66.79,-253.88C57.53,-253.88 48.55,-253.88 41.06,-253.88"/>
<polygon fill="midnightblue" stroke="midnightblue" points="66.89,-257.38 76.89,-253.88 66.89,-250.38 66.89,-257.38"/>
</g>
<!-- Node6&#45;&gt;Node7 -->
<g id="edge6" class="edge">
<title>Node6&#45;&gt;Node7</title>
<path fill="none" stroke="midnightblue" d="M536.56,-264.68C528.12,-263.66 519.51,-262.63 511.13,-261.61"/>
<polygon fill="midnightblue" stroke="midnightblue" points="536.4,-268.19 546.75,-265.91 537.24,-261.24 536.4,-268.19"/>
</g>
<!-- Node7&#45;&gt;Node3 -->
<g id="edge7" class="edge">
<title>Node7&#45;&gt;Node3</title>
<path fill="none" stroke="midnightblue" d="M370.59,-253.88C362.13,-253.88 353.55,-253.88 345.2,-253.88"/>
<polygon fill="midnightblue" stroke="midnightblue" points="370.82,-257.38 380.82,-253.88 370.82,-250.38 370.82,-257.38"/>
</g>
<!-- Node8&#45;&gt;Node3 -->
<g id="edge11" class="edge">
<title>Node8&#45;&gt;Node3</title>
<path fill="none" stroke="midnightblue" d="M822.48,-230.67C722.57,-225.86 537.78,-220.4 381,-234.88 360.91,-236.73 338.88,-240.6 320.44,-244.37"/>
<polygon fill="midnightblue" stroke="midnightblue" points="822.6,-234.18 832.76,-231.17 822.95,-227.18 822.6,-234.18"/>
</g>
<!-- Node8&#45;&gt;Node6 -->
<g id="edge10" class="edge">
<title>Node8&#45;&gt;Node6</title>
<path fill="none" stroke="midnightblue" d="M822.62,-240.16C785.76,-243.28 740.38,-247.83 700,-253.88 683.13,-256.41 664.7,-259.98 648.69,-263.34"/>
<polygon fill="midnightblue" stroke="midnightblue" points="823.11,-243.63 832.79,-239.31 822.53,-236.65 823.11,-243.63"/>
</g>
<!-- Node8&#45;&gt;Node9 -->
<g id="edge12" class="edge">
<title>Node8&#45;&gt;Node9</title>
<path fill="none" stroke="midnightblue" d="M848.96,-246.99C828.63,-252.28 805.13,-258.4 786.08,-263.36"/>
<polygon fill="midnightblue" stroke="midnightblue" points="849.86,-250.37 858.66,-244.47 848.1,-243.6 849.86,-250.37"/>
</g>
<!-- Node9&#45;&gt;Node6 -->
<g id="edge13" class="edge">
<title>Node9&#45;&gt;Node6</title>
<path fill="none" stroke="midnightblue" d="M689.74,-272.88C681.39,-272.88 672.8,-272.88 664.45,-272.88"/>
<polygon fill="midnightblue" stroke="midnightblue" points="689.76,-276.38 699.76,-272.88 689.76,-269.38 689.76,-276.38"/>
</g>
<!-- Node10&#45;&gt;Node9 -->
<g id="edge16" class="edge">
<title>Node10&#45;&gt;Node9</title>
<path fill="none" stroke="midnightblue" d="M1147.36,-150.17C1075.27,-139.38 935.97,-128 833,-177.88 793.87,-196.83 765.32,-243.3 754.39,-263.38"/>
<polygon fill="midnightblue" stroke="midnightblue" points="1147.07,-153.67 1157.49,-151.75 1148.15,-146.75 1147.07,-153.67"/>
</g>
<!-- Node10&#45;&gt;Node11 -->
<g id="edge17" class="edge">
<title>Node10&#45;&gt;Node11</title>
<path fill="none" stroke="midnightblue" d="M1168.66,-144.42C1140.83,-129.16 1097.76,-105.52 1073.9,-92.43"/>
<polygon fill="midnightblue" stroke="midnightblue" points="1167.01,-147.51 1177.46,-149.25 1170.38,-141.37 1167.01,-147.51"/>
</g>
<!-- Node10&#45;&gt;Node12 -->
<g id="edge19" class="edge">
<title>Node10&#45;&gt;Node12</title>
<path fill="none" stroke="midnightblue" d="M1150.37,-171.13C1131.28,-176.36 1109.32,-182.39 1091.44,-187.29"/>
<polygon fill="midnightblue" stroke="midnightblue" points="1151.33,-174.49 1160.05,-168.47 1149.48,-167.74 1151.33,-174.49"/>
</g>
<!-- Node11&#45;&gt;Node6 -->
<g id="edge18" class="edge">
<title>Node11&#45;&gt;Node6</title>
<path fill="none" stroke="midnightblue" d="M999.19,-92.64C953.53,-101.75 887.6,-117.35 833,-139.88 747.01,-175.37 654.24,-238.75 620.1,-263.04"/>
<polygon fill="midnightblue" stroke="midnightblue" points="1000.05,-96.04 1009.19,-90.69 998.71,-89.17 1000.05,-96.04"/>
</g>
<!-- Node12&#45;&gt;Node8 -->
<g id="edge20" class="edge">
<title>Node12&#45;&gt;Node8</title>
<path fill="none" stroke="midnightblue" d="M1005.05,-208.85C983.05,-214.17 957.51,-220.36 936.83,-225.36"/>
<polygon fill="midnightblue" stroke="midnightblue" points="1005.99,-212.22 1014.88,-206.47 1004.34,-205.42 1005.99,-212.22"/>
</g>
<!-- Node12&#45;&gt;Node13 -->
<g id="edge21" class="edge">
<title>Node12&#45;&gt;Node13</title>
<path fill="none" stroke="midnightblue" d="M1003.37,-190.51C981.84,-189.89 957.16,-190.03 937.05,-190.93"/>
<polygon fill="midnightblue" stroke="midnightblue" points="1003.54,-194.02 1013.66,-190.87 1003.79,-187.02 1003.54,-194.02"/>
</g>
<!-- Node12&#45;&gt;Node14 -->
<g id="edge23" class="edge">
<title>Node12&#45;&gt;Node14</title>
<path fill="none" stroke="midnightblue" d="M1026.27,-212.05C989.93,-236.01 928.8,-281.07 906.22,-301.24"/>
<polygon fill="midnightblue" stroke="midnightblue" points="1028.44,-214.81 1034.93,-206.44 1024.64,-208.94 1028.44,-214.81"/>
</g>
<!-- Node13&#45;&gt;Node12 -->
<g id="edge22" class="edge">
<title>Node13&#45;&gt;Node12</title>
<path fill="none" stroke="midnightblue" d="M947.26,-203.21C968.65,-203.86 993.36,-203.75 1013.66,-202.88"/>
<polygon fill="midnightblue" stroke="midnightblue" points="947.17,-199.7 937.05,-202.83 946.91,-206.7 947.17,-199.7"/>
</g>
<!-- Node14&#45;&gt;Node6 -->
<g id="edge24" class="edge">
<title>Node14&#45;&gt;Node6</title>
<path fill="none" stroke="midnightblue" d="M843.21,-307.28C803.73,-304.2 748.29,-299.11 700,-291.88 683.13,-289.35 664.7,-285.78 648.69,-282.42"/>
<polygon fill="midnightblue" stroke="midnightblue" points="843.16,-310.78 853.4,-308.05 843.69,-303.8 843.16,-310.78"/>
</g>
<!-- Node14&#45;&gt;Node9 -->
<g id="edge25" class="edge">
<title>Node14&#45;&gt;Node9</title>
<path fill="none" stroke="midnightblue" d="M848.96,-298.77C828.63,-293.47 805.13,-287.36 786.08,-282.4"/>
<polygon fill="midnightblue" stroke="midnightblue" points="848.1,-302.16 858.66,-301.29 849.86,-295.38 848.1,-302.16"/>
</g>
<!-- Node14&#45;&gt;Node12 -->
<g id="edge26" class="edge">
<title>Node14&#45;&gt;Node12</title>
<path fill="none" stroke="midnightblue" d="M925.68,-295.74C961.92,-271.85 1022.89,-226.92 1045.61,-206.67"/>
<polygon fill="midnightblue" stroke="midnightblue" points="923.54,-292.96 917.04,-301.33 927.34,-298.84 923.54,-292.96"/>
</g>
<!-- Node15&#45;&gt;Node2 -->
<g id="edge29" class="edge">
<title>Node15&#45;&gt;Node2</title>
<path fill="none" stroke="midnightblue" d="M1179.68,-290.42C1163.69,-308.66 1137.81,-337.97 1115,-362.88 1097.81,-381.65 1077.31,-403.19 1065.71,-415.3"/>
<polygon fill="midnightblue" stroke="midnightblue" points="1182.73,-292.25 1186.68,-282.42 1177.46,-287.64 1182.73,-292.25"/>
</g>
<!-- Node15&#45;&gt;Node6 -->
<g id="edge30" class="edge">
<title>Node15&#45;&gt;Node6</title>
<path fill="none" stroke="midnightblue" d="M1167.8,-286.98C1152.63,-294.28 1133.18,-302.72 1115,-307.88 994.07,-342.22 958.4,-338.79 833,-329.88 773.44,-325.65 757.64,-326.46 700,-310.88 673.61,-303.75 644.66,-291.2 626.08,-282.48"/>
<polygon fill="midnightblue" stroke="midnightblue" points="1169.67,-289.96 1177.09,-282.4 1166.58,-283.68 1169.67,-289.96"/>
</g>
<!-- Node15&#45;&gt;Node8 -->
<g id="edge31" class="edge">
<title>Node15&#45;&gt;Node8</title>
<path fill="none" stroke="midnightblue" d="M1140.7,-262.9C1132.12,-261.46 1123.33,-260.07 1115,-258.88 1063.1,-251.48 1003.95,-245.09 960.45,-240.76"/>
<polygon fill="midnightblue" stroke="midnightblue" points="1140.2,-266.36 1150.65,-264.6 1141.38,-259.46 1140.2,-266.36"/>
</g>
<!-- Node15&#45;&gt;Node9 -->
<g id="edge32" class="edge">
<title>Node15&#45;&gt;Node9</title>
<path fill="none" stroke="midnightblue" d="M1140.61,-272.88C1052.59,-272.88 880.4,-272.88 797.01,-272.88"/>
<polygon fill="midnightblue" stroke="midnightblue" points="1140.66,-276.38 1150.66,-272.88 1140.66,-269.38 1140.66,-276.38"/>
</g>
<!-- Node15&#45;&gt;Node12 -->
<g id="edge34" class="edge">
<title>Node15&#45;&gt;Node12</title>
<path fill="none" stroke="midnightblue" d="M1173.41,-257.26C1157.68,-246.28 1135.6,-231.68 1115,-220.88 1104.79,-215.53 1093.12,-210.53 1082.89,-206.49"/>
<polygon fill="midnightblue" stroke="midnightblue" points="1171.69,-260.33 1181.88,-263.25 1175.73,-254.62 1171.69,-260.33"/>
</g>
<!-- Node15&#45;&gt;Node14 -->
<g id="edge33" class="edge">
<title>Node15&#45;&gt;Node14</title>
<path fill="none" stroke="midnightblue" d="M1140.7,-282.86C1132.12,-284.3 1123.33,-285.69 1115,-286.88 1054.26,-295.54 983.6,-302.82 939.7,-307.02"/>
<polygon fill="midnightblue" stroke="midnightblue" points="1141.38,-286.29 1150.65,-281.16 1140.2,-279.39 1141.38,-286.29"/>
</g>
</g>
</svg>
        <g id="navigator" transform="translate(0 0)" fill="#404254">
                <rect fill="#f2f5e9" fill-opacity="0.5" stroke="#606060" stroke-width=".5" x="0" y="0" width="60" height="60"/>
                <use id="zoomplus" xlink:href="#zoomPlus" x="17" y="9" onmousedown="handleZoom(evt,'in')"/>
                <use id="zoomminus" xlink:href="#zoomMin" x="42" y="9" onmousedown="handleZoom(evt,'out')"/>
                <use id="reset" xlink:href="#resetDef" x="30" y="36" onmousedown="handleReset()"/>
                <g id="arrowUp" xlink:href="#dirArrow" transform="translate(30 24)" onmousedown="handlePan(0,-1)">
                  <use xlink:href="#rim" fill="#404040">
                        <set attributeName="fill" to="#808080" begin="arrowUp.mouseover" end="arrowUp.mouseout"/>
                  </use>
                  <path fill="none" stroke="white" stroke-width="1.5" d="M0,-3.0v7 M-2.5,-0.5L0,-3.0L2.5,-0.5"/>
                </g>
                <g id="arrowRight" xlink:href="#dirArrow" transform="rotate(90) translate(36 -43)" onmousedown="handlePan(1,0)">
                  <use xlink:href="#rim" fill="#404040">
                        <set attributeName="fill" to="#808080" begin="arrowRight.mouseover" end="arrowRight.mouseout"/>
                  </use>
                  <path fill="none" stroke="white" stroke-width="1.5" d="M0,-3.0v7 M-2.5,-0.5L0,-3.0L2.5,-0.5"/>
                </g>
                <g id="arrowDown" xlink:href="#dirArrow" transform="rotate(180) translate(-30 -48)" onmousedown="handlePan(0,1)">
                  <use xlink:href="#rim" fill="#404040">
                        <set attributeName="fill" to="#808080" begin="arrowDown.mouseover" end="arrowDown.mouseout"/>
                  </use>
                  <path fill="none" stroke="white" stroke-width="1.5" d="M0,-3.0v7 M-2.5,-0.5L0,-3.0L2.5,-0.5"/>
                </g>
                <g id="arrowLeft" xlink:href="#dirArrow" transform="rotate(270) translate(-36 17)" onmousedown="handlePan(-1,0)">
                  <use xlink:href="#rim" fill="#404040">
                        <set attributeName="fill" to="#808080" begin="arrowLeft.mouseover" end="arrowLeft.mouseout"/>
                  </use>
                  <path fill="none" stroke="white" stroke-width="1.5" d="M0,-3.0v7 M-2.5,-0.5L0,-3.0L2.5,-0.5"/>
                </g>
        </g>
        <svg viewBox="0 0 15 15" width="100%" height="30px" preserveAspectRatio="xMaxYMin meet">
         <g id="arrow_out" transform="scale(0.3 0.3)">
          <a xlink:href="weights__dedup_8c_a82535eef357e00f15379d3a922d6593d_icgraph_org.svg" target="_base">
           <rect id="button" ry="5" rx="5" y="6" x="6" height="38" width="38"
                fill="#f2f5e9" fill-opacity="0.5" stroke="#606060" stroke-width="1.0"/>
           <path id="arrow"
             d="M 11.500037,31.436501 C 11.940474,20.09759 22.043105,11.32322 32.158766,21.979434 L 37.068811,17.246167 C 37.068811,17.246167 37.088388,32 37.088388,32 L 22.160133,31.978069 C 22.160133,31.978069 26.997745,27.140456 26.997745,27.140456 C 18.528582,18.264221 13.291696,25.230495 11.500037,31.436501 z"
             style="fill:#404040;"/>
          </a>
         </g>
        </svg>
</svg>
