<?xml version="1.0" encoding="UTF-8" standalone="no"?>
<!DOCTYPE svg PUBLIC "-//W3C//DTD SVG 1.1//EN"
 "http://www.w3.org/Graphics/SVG/1.1/DTD/svg11.dtd">
<!-- Generated by graphviz version 2.43.0 (0)
 -->
<!-- Title: js_skip_object Pages: 1 -->
<!--zoomable 308 -->

<svg id="main" version="1.1" xmlns="http://www.w3.org/2000/svg" xmlns:xlink="http://www.w3.org/1999/xlink" xml:space="preserve" onload="init(evt)">
<style type="text/css"><![CDATA[
.node, .edge {opacity: 0.7;}
.node.selected, .edge.selected {opacity: 1;}
.edge:hover path { stroke: red; }
.edge:hover polygon { stroke: red; fill: red; }
]]></style>

<defs>
  <circle id="rim" cx="0" cy="0" r="7"/>
  <circle id="rim2" cx="0" cy="0" r="3.5"/>
  <g id="zoomPlus">
    <use xlink:href="#rim" fill="#404040"><set attributeName="fill" to="#808080" begin="zoomplus.mouseover" end="zoomplus.mouseout"/></use>
    <path d="M-4,0h8M0,-4v8" fill="none" stroke="white" stroke-width="1.5" pointer-events="none"/>
  </g>
  <g id="zoomMin">
    <use xlink:href="#rim" fill="#404040"><set attributeName="fill" to="#808080" begin="zoomminus.mouseover" end="zoomminus.mouseout"/></use>
    <path d="M-4,0h8" fill="none" stroke="white" stroke-width="1.5" pointer-events="none"/>
  </g>
  <g id="arrowUp" transform="translate(30 24)">
    <use xlink:href="#rim"/>
    <path pointer-events="none" fill="none" stroke="white" stroke-width="1.5" d="M0,-3.0v7 M-2.5,-0.5L0,-3.0L2.5,-0.5"/>
  </g>
  <g id="arrowRight" transform="rotate(90) translate(36 -43)">
    <use xlink:href="#rim"/>
    <path pointer-events="none" fill="none" stroke="white" stroke-width="1.5" d="M0,-3.0v7 M-2.5,-0.5L0,-3.0L2.5,-0.5"/>
  </g>
  <g id="arrowDown" transform="rotate(180) translate(-30 -48)">
    <use xlink:href="#rim"/>
    <path pointer-events="none" fill="none" stroke="white" stroke-width="1.5" d="M0,-3.0v7 M-2.5,-0.5L0,-3.0L2.5,-0.5"/>
  </g>
  <g id="arrowLeft" transform="rotate(270) translate(-36 17)">
    <use xlink:href="#rim"/>
    <path pointer-events="none" fill="none" stroke="white" stroke-width="1.5" d="M0,-3.0v7 M-2.5,-0.5L0,-3.0L2.5,-0.5"/>
  </g>
  <g id="resetDef">
    <use xlink:href="#rim2" fill="#404040"><set attributeName="fill" to="#808080" begin="reset.mouseover" end="reset.mouseout"/></use>
  </g>
</defs>
<script type="application/ecmascript">
var viewWidth = 1370;
var viewHeight = 308;
var sectionId = 'dynsection-80';
</script>
<script type="application/ecmascript" xlink:href="svg.min.js"/>
<svg id="graph" class="graph">
<g id="viewport">
<title>js_skip_object</title>
<!-- Node1 -->
<g id="Node000001" class="node">
<title>Node1</title>
<g id="a_Node000001"><a xlink:title=" ">
<polygon fill="#999999" stroke="#666666" points="1362,-222.5 1276,-222.5 1276,-203.5 1362,-203.5 1362,-222.5"/>
<text text-anchor="middle" x="1319" y="-210.5" font-family="Helvetica,sans-Serif" font-size="10.00">js_skip_object</text>
</a>
</g>
</g>
<!-- Node2 -->
<g id="Node000002" class="node">
<title>Node2</title>
<g id="a_Node000002"><a xlink:href="weights__dedup_8c.html#a3baac12d7191041beab3fc4508b94be7" target="_top" xlink:title=" ">
<polygon fill="white" stroke="#666666" points="647,-77.5 513,-77.5 513,-58.5 647,-58.5 647,-77.5"/>
<text text-anchor="middle" x="580" y="-65.5" font-family="Helvetica,sans-Serif" font-size="10.00">ie_parse_iejson_tensors</text>
</a>
</g>
</g>
<!-- Node1&#45;&gt;Node2 -->
<g id="edge1_Node000001_Node000002" class="edge">
<title>Node1&#45;&gt;Node2</title>
<g id="a_edge1_Node000001_Node000002"><a xlink:title=" ">
<path fill="none" stroke="#63b8ff" d="M1307.51,-194.47C1276.65,-142.65 1180.61,0 1058.5,0 1058.5,0 1058.5,0 896,0 800.52,0 775.46,-4.17 683,-28 653.71,-35.55 621.46,-49.15 601.22,-58.37"/>
<polygon fill="#63b8ff" stroke="#63b8ff" points="1304.6,-196.42 1312.65,-203.29 1310.64,-192.89 1304.6,-196.42"/>
</a>
</g>
</g>
<!-- Node9 -->
<g id="Node000009" class="node">
<title>Node9</title>
<g id="a_Node000009"><a xlink:href="weights__dedup_8c.html#ac8435c15b639ac76b805cc23f609be12" target="_top" xlink:title=" ">
<polygon fill="white" stroke="#666666" points="800,-265.5 683,-265.5 683,-246.5 800,-246.5 800,-265.5"/>
<text text-anchor="middle" x="741.5" y="-253.5" font-family="Helvetica,sans-Serif" font-size="10.00">ie_parse_one_tensor</text>
</a>
</g>
</g>
<!-- Node1&#45;&gt;Node9 -->
<g id="edge8_Node000001_Node000009" class="edge">
<title>Node1&#45;&gt;Node9</title>
<g id="a_edge8_Node000001_Node000009"><a xlink:title=" ">
<path fill="none" stroke="#63b8ff" d="M1293.1,-227.61C1278.17,-235.73 1258.55,-245.31 1240,-251 1067.73,-303.84 1014.16,-311.99 836,-285 811.63,-281.31 784.87,-272.49 766.25,-265.55"/>
<polygon fill="#63b8ff" stroke="#63b8ff" points="1295.15,-230.47 1302.17,-222.54 1291.73,-224.36 1295.15,-230.47"/>
</a>
</g>
</g>
<!-- Node11 -->
<g id="Node000011" class="node">
<title>Node11</title>
<g id="a_Node000011"><a xlink:href="weights__dedup_8c.html#ac65e64ed76368c21cf76399a4eed1b90" target="_top" xlink:title=" ">
<polygon fill="white" stroke="#666666" points="945.5,-275.5 848.5,-275.5 848.5,-256.5 945.5,-256.5 945.5,-275.5"/>
<text text-anchor="middle" x="897" y="-263.5" font-family="Helvetica,sans-Serif" font-size="10.00">js_parse_blobref</text>
</a>
</g>
</g>
<!-- Node1&#45;&gt;Node11 -->
<g id="edge11_Node000001_Node000011" class="edge">
<title>Node1&#45;&gt;Node11</title>
<g id="a_edge11_Node000001_Node000011"><a xlink:title=" ">
<path fill="none" stroke="#63b8ff" d="M1273.52,-224.97C1262.62,-227.59 1250.94,-230.13 1240,-232 1135.75,-249.79 1011.91,-259.24 945.58,-263.38"/>
<polygon fill="#63b8ff" stroke="#63b8ff" points="1274.4,-228.36 1283.27,-222.56 1272.72,-221.56 1274.4,-228.36"/>
</a>
</g>
</g>
<!-- Node12 -->
<g id="Node000012" class="node">
<title>Node12</title>
<g id="a_Node000012"><a xlink:href="weights__dedup_8c.html#aec6b7531542a45304d1f17d108a6d2ea" target="_top" xlink:title=" ">
<polygon fill="white" stroke="#666666" points="1240,-222.5 1157,-222.5 1157,-203.5 1240,-203.5 1240,-222.5"/>
<text text-anchor="middle" x="1198.5" y="-210.5" font-family="Helvetica,sans-Serif" font-size="10.00">js_skip_value</text>
</a>
</g>
</g>
<!-- Node1&#45;&gt;Node12 -->
<g id="edge13_Node000001_Node000012" class="edge">
<title>Node1&#45;&gt;Node12</title>
<g id="a_edge13_Node000001_Node000012"><a xlink:title=" ">
<path fill="none" stroke="#63b8ff" d="M1265.66,-206.29C1257.15,-206.19 1248.46,-206.28 1240.28,-206.55"/>
<polygon fill="#63b8ff" stroke="#63b8ff" points="1265.82,-209.79 1275.89,-206.51 1265.96,-202.8 1265.82,-209.79"/>
</a>
</g>
</g>
<!-- Node3 -->
<g id="Node000003" class="node">
<title>Node3</title>
<g id="a_Node000003"><a xlink:href="weights__dedup_8c.html#aa625b41ce2a24826f8cb464661ace8ec" target="_top" xlink:title="Open the dedup weights loader from a model directory.">
<polygon fill="white" stroke="#666666" points="477,-199.5 343,-199.5 343,-180.5 477,-180.5 477,-199.5"/>
<text text-anchor="middle" x="410" y="-187.5" font-family="Helvetica,sans-Serif" font-size="10.00">ie_weights_dedup_open</text>
</a>
</g>
</g>
<!-- Node2&#45;&gt;Node3 -->
<g id="edge2_Node000002_Node000003" class="edge">
<title>Node2&#45;&gt;Node3</title>
<g id="a_edge2_Node000002_Node000003"><a xlink:title=" ">
<path fill="none" stroke="#63b8ff" d="M557.63,-83.52C522.37,-109.13 453.02,-159.49 424.12,-180.47"/>
<polygon fill="#63b8ff" stroke="#63b8ff" points="559.78,-86.28 565.82,-77.57 555.67,-80.62 559.78,-86.28"/>
</a>
</g>
</g>
<!-- Node4 -->
<g id="Node000004" class="node">
<title>Node4</title>
<g id="a_Node000004"><a xlink:href="weights_8c.html#a522dac028ee37aae1307ffdb6d65ec1d" target="_top" xlink:title="Open and parse IEBIN v1 metadata and resolve the weights path.">
<polygon fill="white" stroke="#666666" points="307,-199.5 209,-199.5 209,-180.5 307,-180.5 307,-199.5"/>
<text text-anchor="middle" x="258" y="-187.5" font-family="Helvetica,sans-Serif" font-size="10.00">ie_weights_open</text>
</a>
</g>
</g>
<!-- Node3&#45;&gt;Node4 -->
<g id="edge3_Node000003_Node000004" class="edge">
<title>Node3&#45;&gt;Node4</title>
<g id="a_edge3_Node000003_Node000004"><a xlink:title=" ">
<path fill="none" stroke="#63b8ff" d="M332.66,-190C324.04,-190 315.43,-190 307.31,-190"/>
<polygon fill="#63b8ff" stroke="#63b8ff" points="332.77,-193.5 342.77,-190 332.77,-186.5 332.77,-193.5"/>
</a>
</g>
</g>
<!-- Node5 -->
<g id="Node000005" class="node">
<title>Node5</title>
<g id="a_Node000005"><a xlink:href="main__infer_8c.html#a3c04138a5bfe5d72780bb7e82a18e627" target="_top" xlink:title=" ">
<polygon fill="white" stroke="#666666" points="145.5,-236.5 104.5,-236.5 104.5,-217.5 145.5,-217.5 145.5,-236.5"/>
<text text-anchor="middle" x="125" y="-224.5" font-family="Helvetica,sans-Serif" font-size="10.00">main</text>
</a>
</g>
</g>
<!-- Node4&#45;&gt;Node5 -->
<g id="edge4_Node000004_Node000005" class="edge">
<title>Node4&#45;&gt;Node5</title>
<g id="a_edge4_Node000004_Node000005"><a xlink:title=" ">
<path fill="none" stroke="#63b8ff" d="M213.42,-202.31C190.54,-208.77 163.63,-216.37 145.78,-221.41"/>
<polygon fill="#63b8ff" stroke="#63b8ff" points="214.59,-205.61 223.26,-199.53 212.69,-198.88 214.59,-205.61"/>
</a>
</g>
</g>
<!-- Node6 -->
<g id="Node000006" class="node">
<title>Node6</title>
<g id="a_Node000006"><a xlink:href="test__weights_8c.html#a840291bc02cba5474a4cb46a9b9566fe" target="_top" xlink:title="Main test entrypoint.">
<polygon fill="white" stroke="#666666" points="145.5,-199.5 104.5,-199.5 104.5,-180.5 145.5,-180.5 145.5,-199.5"/>
<text text-anchor="middle" x="125" y="-187.5" font-family="Helvetica,sans-Serif" font-size="10.00">main</text>
</a>
</g>
</g>
<!-- Node4&#45;&gt;Node6 -->
<g id="edge5_Node000004_Node000006" class="edge">
<title>Node4&#45;&gt;Node6</title>
<g id="a_edge5_Node000004_Node000006"><a xlink:title=" ">
<path fill="none" stroke="#63b8ff" d="M198.79,-190C179.71,-190 159.79,-190 145.63,-190"/>
<polygon fill="#63b8ff" stroke="#63b8ff" points="198.96,-193.5 208.96,-190 198.96,-186.5 198.96,-193.5"/>
</a>
</g>
</g>
<!-- Node7 -->
<g id="Node000007" class="node">
<title>Node7</title>
<g id="a_Node000007"><a xlink:href="test__dedup__loader_8c.html#a73dca7f77cd9da376bc14e888330d88f" target="_top" xlink:title=" ">
<polygon fill="white" stroke="#666666" points="173,-162.5 77,-162.5 77,-143.5 173,-143.5 173,-162.5"/>
<text text-anchor="middle" x="125" y="-150.5" font-family="Helvetica,sans-Serif" font-size="10.00">open_and_touch</text>
</a>
</g>
</g>
<!-- Node4&#45;&gt;Node7 -->
<g id="edge6_Node000004_Node000007" class="edge">
<title>Node4&#45;&gt;Node7</title>
<g id="a_edge6_Node000004_Node000007"><a xlink:title=" ">
<path fill="none" stroke="#63b8ff" d="M213.36,-177.67C196.01,-172.77 176.35,-167.22 160.08,-162.62"/>
<polygon fill="#63b8ff" stroke="#63b8ff" points="212.69,-181.12 223.26,-180.47 214.59,-174.39 212.69,-181.12"/>
</a>
</g>
</g>
<!-- Node8 -->
<g id="Node000008" class="node">
<title>Node8</title>
<g id="a_Node000008"><a xlink:href="test__dedup__loader_8c.html#a3c04138a5bfe5d72780bb7e82a18e627" target="_top" xlink:title=" ">
<polygon fill="white" stroke="#666666" points="41,-162.5 0,-162.5 0,-143.5 41,-143.5 41,-162.5"/>
<text text-anchor="middle" x="20.5" y="-150.5" font-family="Helvetica,sans-Serif" font-size="10.00">main</text>
</a>
</g>
</g>
<!-- Node7&#45;&gt;Node8 -->
<g id="edge7_Node000007_Node000008" class="edge">
<title>Node7&#45;&gt;Node8</title>
<g id="a_edge7_Node000007_Node000008"><a xlink:title=" ">
<path fill="none" stroke="#63b8ff" d="M66.87,-153C57.62,-153 48.63,-153 41.13,-153"/>
<polygon fill="#63b8ff" stroke="#63b8ff" points="66.95,-156.5 76.95,-153 66.95,-149.5 66.95,-156.5"/>
</a>
</g>
</g>
<!-- Node10 -->
<g id="Node000010" class="node">
<title>Node10</title>
<g id="a_Node000010"><a xlink:href="weights__dedup_8c.html#a1eaf38d57abdd040f9c40e2e3ea1525c" target="_top" xlink:title=" ">
<polygon fill="white" stroke="#666666" points="645,-246.5 515,-246.5 515,-227.5 645,-227.5 645,-246.5"/>
<text text-anchor="middle" x="580" y="-234.5" font-family="Helvetica,sans-Serif" font-size="10.00">ie_parse_tensors_array</text>
</a>
</g>
</g>
<!-- Node9&#45;&gt;Node10 -->
<g id="edge9_Node000009_Node000010" class="edge">
<title>Node9&#45;&gt;Node10</title>
<g id="a_edge9_Node000009_Node000010"><a xlink:title=" ">
<path fill="none" stroke="#63b8ff" d="M672.75,-247.93C663.63,-246.84 654.31,-245.73 645.26,-244.65"/>
<polygon fill="#63b8ff" stroke="#63b8ff" points="672.57,-251.43 682.92,-249.14 673.4,-244.48 672.57,-251.43"/>
</a>
</g>
</g>
<!-- Node10&#45;&gt;Node3 -->
<g id="edge10_Node000010_Node000003" class="edge">
<title>Node10&#45;&gt;Node3</title>
<g id="a_edge10_Node000010_Node000003"><a xlink:title=" ">
<path fill="none" stroke="#63b8ff" d="M535.05,-224.71C507,-216.86 471.17,-206.83 445.23,-199.58"/>
<polygon fill="#63b8ff" stroke="#63b8ff" points="534.43,-228.17 545,-227.49 536.32,-221.42 534.43,-228.17"/>
</a>
</g>
</g>
<!-- Node11&#45;&gt;Node9 -->
<g id="edge12_Node000011_Node000009" class="edge">
<title>Node11&#45;&gt;Node9</title>
<g id="a_edge12_Node000011_Node000009"><a xlink:title=" ">
<path fill="none" stroke="#63b8ff" d="M838.06,-262.23C825.66,-261.42 812.57,-260.56 800.18,-259.76"/>
<polygon fill="#63b8ff" stroke="#63b8ff" points="838.07,-265.73 848.27,-262.89 838.52,-258.75 838.07,-265.73"/>
</a>
</g>
</g>
<!-- Node12&#45;&gt;Node1 -->
<g id="edge27_Node000012_Node000001" class="edge">
<title>Node12&#45;&gt;Node1</title>
<g id="a_edge27_Node000012_Node000001"><a xlink:title=" ">
<path fill="none" stroke="#63b8ff" d="M1250.47,-219.69C1258.95,-219.81 1267.66,-219.75 1275.89,-219.49"/>
<polygon fill="#63b8ff" stroke="#63b8ff" points="1250.36,-216.19 1240.28,-219.45 1250.2,-223.19 1250.36,-216.19"/>
</a>
</g>
</g>
<!-- Node13 -->
<g id="Node000013" class="node">
<title>Node13</title>
<g id="a_Node000013"><a xlink:href="weights__dedup_8c.html#ae0494f541a190a9ecf82c11c5eb22952" target="_top" xlink:title=" ">
<polygon fill="white" stroke="#666666" points="1121,-166.5 994,-166.5 994,-147.5 1121,-147.5 1121,-166.5"/>
<text text-anchor="middle" x="1057.5" y="-154.5" font-family="Helvetica,sans-Serif" font-size="10.00">js_find_member_value</text>
</a>
</g>
</g>
<!-- Node12&#45;&gt;Node13 -->
<g id="edge14_Node000012_Node000013" class="edge">
<title>Node12&#45;&gt;Node13</title>
<g id="a_edge14_Node000012_Node000013"><a xlink:title=" ">
<path fill="none" stroke="#63b8ff" d="M1164.04,-199.52C1138.72,-189.32 1104.59,-175.57 1082.08,-166.5"/>
<polygon fill="#63b8ff" stroke="#63b8ff" points="1163.02,-202.88 1173.61,-203.37 1165.64,-196.39 1163.02,-202.88"/>
</a>
</g>
</g>
<!-- Node17 -->
<g id="Node000017" class="node">
<title>Node17</title>
<g id="a_Node000017"><a xlink:href="weights__dedup_8c.html#aeb7fa9bc2ccc7b24ae16f647bcafb49b" target="_top" xlink:title=" ">
<polygon fill="white" stroke="#666666" points="1098,-222.5 1017,-222.5 1017,-203.5 1098,-203.5 1098,-222.5"/>
<text text-anchor="middle" x="1057.5" y="-210.5" font-family="Helvetica,sans-Serif" font-size="10.00">js_skip_array</text>
</a>
</g>
</g>
<!-- Node12&#45;&gt;Node17 -->
<g id="edge25_Node000012_Node000017" class="edge">
<title>Node12&#45;&gt;Node17</title>
<g id="a_edge25_Node000012_Node000017"><a xlink:title=" ">
<path fill="none" stroke="#63b8ff" d="M1146.71,-206.47C1130.79,-206.09 1113.46,-206.2 1098.41,-206.83"/>
<polygon fill="#63b8ff" stroke="#63b8ff" points="1146.81,-209.98 1156.92,-206.8 1147.04,-202.98 1146.81,-209.98"/>
</a>
</g>
</g>
<!-- Node13&#45;&gt;Node2 -->
<g id="edge17_Node000013_Node000002" class="edge">
<title>Node13&#45;&gt;Node2</title>
<g id="a_edge17_Node000013_Node000002"><a xlink:title=" ">
<path fill="none" stroke="#63b8ff" d="M1045.4,-138.89C1029.49,-114.88 997.69,-73.62 958,-57 839.31,-7.31 680.71,-40.38 613.4,-58.44"/>
<polygon fill="#63b8ff" stroke="#63b8ff" points="1042.53,-140.91 1050.88,-147.44 1048.43,-137.13 1042.53,-140.91"/>
</a>
</g>
</g>
<!-- Node13&#45;&gt;Node3 -->
<g id="edge19_Node000013_Node000003" class="edge">
<title>Node13&#45;&gt;Node3</title>
<g id="a_edge19_Node000013_Node000003"><a xlink:title=" ">
<path fill="none" stroke="#63b8ff" d="M983.71,-167.39C975.06,-168.4 966.34,-169.3 958,-170 784.95,-184.55 580.21,-188.52 477.22,-189.6"/>
<polygon fill="#63b8ff" stroke="#63b8ff" points="984.29,-170.85 993.8,-166.18 983.46,-163.9 984.29,-170.85"/>
</a>
</g>
</g>
<!-- Node13&#45;&gt;Node9 -->
<g id="edge18_Node000013_Node000009" class="edge">
<title>Node13&#45;&gt;Node9</title>
<g id="a_edge18_Node000013_Node000009"><a xlink:title=" ">
<path fill="none" stroke="#63b8ff" d="M1030.3,-171.35C1010.81,-181.56 983.32,-195.02 958,-204 903.77,-223.24 839.39,-237.74 795.2,-246.48"/>
<polygon fill="#63b8ff" stroke="#63b8ff" points="1031.99,-174.42 1039.18,-166.63 1028.71,-168.23 1031.99,-174.42"/>
</a>
</g>
</g>
<!-- Node13&#45;&gt;Node11 -->
<g id="edge20_Node000013_Node000011" class="edge">
<title>Node13&#45;&gt;Node11</title>
<g id="a_edge20_Node000013_Node000011"><a xlink:title=" ">
<path fill="none" stroke="#63b8ff" d="M1027.11,-171.26C1016.07,-177.4 1003.83,-185.19 994,-194 974.14,-211.8 979.17,-225.78 958,-242 950.07,-248.07 940.41,-252.83 931.17,-256.44"/>
<polygon fill="#63b8ff" stroke="#63b8ff" points="1028.84,-174.31 1036.02,-166.52 1025.55,-168.13 1028.84,-174.31"/>
</a>
</g>
</g>
<!-- Node14 -->
<g id="Node000014" class="node">
<title>Node14</title>
<g id="a_Node000014"><a xlink:href="weights__dedup_8c.html#aff1829f796837ea285a63b43a0a2d485" target="_top" xlink:title=" ">
<polygon fill="white" stroke="#666666" points="799.5,-113 683.5,-113 683.5,-83 799.5,-83 799.5,-113"/>
<text text-anchor="start" x="691.5" y="-101" font-family="Helvetica,sans-Serif" font-size="10.00">ie_parse_iejson_one</text>
<text text-anchor="middle" x="741.5" y="-90" font-family="Helvetica,sans-Serif" font-size="10.00">_tensor</text>
</a>
</g>
</g>
<!-- Node13&#45;&gt;Node14 -->
<g id="edge15_Node000013_Node000014" class="edge">
<title>Node13&#45;&gt;Node14</title>
<g id="a_edge15_Node000013_Node000014"><a xlink:title=" ">
<path fill="none" stroke="#63b8ff" d="M1010.25,-144.94C993.82,-140.87 975.14,-136.47 958,-133 904.69,-122.19 843.44,-112.51 799.89,-106.08"/>
<polygon fill="#63b8ff" stroke="#63b8ff" points="1009.61,-148.39 1020.17,-147.43 1011.32,-141.6 1009.61,-148.39"/>
</a>
</g>
</g>
<!-- Node15 -->
<g id="Node000015" class="node">
<title>Node15</title>
<g id="a_Node000015"><a xlink:href="weights__dedup_8c.html#ace1eab87292a3ab28bc10e2a8741b84b" target="_top" xlink:title=" ">
<polygon fill="white" stroke="#666666" points="955,-85.5 839,-85.5 839,-66.5 955,-66.5 955,-85.5"/>
<text text-anchor="middle" x="897" y="-73.5" font-family="Helvetica,sans-Serif" font-size="10.00">js_read_str_member</text>
</a>
</g>
</g>
<!-- Node13&#45;&gt;Node15 -->
<g id="edge21_Node000013_Node000015" class="edge">
<title>Node13&#45;&gt;Node15</title>
<g id="a_edge21_Node000013_Node000015"><a xlink:title=" ">
<path fill="none" stroke="#63b8ff" d="M1032.93,-142.07C1013.3,-129.95 984.38,-112.83 958,-100 947.2,-94.75 934.95,-89.7 924.34,-85.59"/>
<polygon fill="#63b8ff" stroke="#63b8ff" points="1031.18,-145.1 1041.52,-147.42 1034.88,-139.16 1031.18,-145.1"/>
</a>
</g>
</g>
<!-- Node16 -->
<g id="Node000016" class="node">
<title>Node16</title>
<g id="a_Node000016"><a xlink:href="weights__dedup_8c.html#ad380703417334421d025a859a9a6e67e" target="_top" xlink:title=" ">
<polygon fill="white" stroke="#666666" points="958,-161.5 836,-161.5 836,-142.5 958,-142.5 958,-161.5"/>
<text text-anchor="middle" x="897" y="-149.5" font-family="Helvetica,sans-Serif" font-size="10.00">js_read_u64_member</text>
</a>
</g>
</g>
<!-- Node13&#45;&gt;Node16 -->
<g id="edge23_Node000013_Node000016" class="edge">
<title>Node13&#45;&gt;Node16</title>
<g id="a_edge23_Node000013_Node000016"><a xlink:title=" ">
<path fill="none" stroke="#63b8ff" d="M983.83,-154.71C975.23,-154.44 966.52,-154.16 958.12,-153.9"/>
<polygon fill="#63b8ff" stroke="#63b8ff" points="983.75,-158.21 993.86,-155.02 983.97,-151.21 983.75,-158.21"/>
</a>
</g>
</g>
<!-- Node14&#45;&gt;Node2 -->
<g id="edge16_Node000014_Node000002" class="edge">
<title>Node14&#45;&gt;Node2</title>
<g id="a_edge16_Node000014_Node000002"><a xlink:title=" ">
<path fill="none" stroke="#63b8ff" d="M673.32,-85.37C659.37,-82.74 644.89,-80.02 631.65,-77.53"/>
<polygon fill="#63b8ff" stroke="#63b8ff" points="672.89,-88.85 683.37,-87.25 674.19,-81.97 672.89,-88.85"/>
</a>
</g>
</g>
<!-- Node15&#45;&gt;Node14 -->
<g id="edge22_Node000015_Node000014" class="edge">
<title>Node15&#45;&gt;Node14</title>
<g id="a_edge22_Node000015_Node000014"><a xlink:title=" ">
<path fill="none" stroke="#63b8ff" d="M828.82,-85.63C819.11,-87.02 809.2,-88.44 799.71,-89.8"/>
<polygon fill="#63b8ff" stroke="#63b8ff" points="829.44,-89.08 838.84,-84.19 828.45,-82.15 829.44,-89.08"/>
</a>
</g>
</g>
<!-- Node16&#45;&gt;Node14 -->
<g id="edge24_Node000016_Node000014" class="edge">
<title>Node16&#45;&gt;Node14</title>
<g id="a_edge24_Node000016_Node000014"><a xlink:title=" ">
<path fill="none" stroke="#63b8ff" d="M859.47,-139.15C837.18,-131.31 808.59,-121.25 785.25,-113.04"/>
<polygon fill="#63b8ff" stroke="#63b8ff" points="858.32,-142.45 868.91,-142.47 860.64,-135.85 858.32,-142.45"/>
</a>
</g>
</g>
<!-- Node17&#45;&gt;Node12 -->
<g id="edge26_Node000017_Node000012" class="edge">
<title>Node17&#45;&gt;Node12</title>
<g id="a_edge26_Node000017_Node000012"><a xlink:title=" ">
<path fill="none" stroke="#63b8ff" d="M1108.59,-219.51C1124.46,-219.91 1141.8,-219.81 1156.92,-219.2"/>
<polygon fill="#63b8ff" stroke="#63b8ff" points="1108.52,-216.01 1098.41,-219.17 1108.29,-223 1108.52,-216.01"/>
</a>
</g>
</g>
</g>
</svg>

<g id="navigator" transform="translate(0 0)" fill="#404254">
  <rect fill="#f2f5e9" fill-opacity="0.5" stroke="#606060" stroke-width=".5" x="0" y="0" width="60" height="60"/>
  <use id="zoomplus" xlink:href="#zoomPlus" x="17" y="9" onmousedown="handleZoom(evt,'in')"/>
  <use id="zoomminus" xlink:href="#zoomMin" x="42" y="9" onmousedown="handleZoom(evt,'out')"/>
  <use id="reset" xlink:href="#resetDef" x="30" y="36" onmousedown="handleReset()"/>
   <use id="arrowup" xlink:href="#arrowUp" x="0" y="0" onmousedown="handlePan(0,-1)"/>
  <use id="arrowright" xlink:href="#arrowRight" x="0" y="0" onmousedown="handlePan(1,0)"/>
  <use id="arrowdown" xlink:href="#arrowDown" x="0" y="0" onmousedown="handlePan(0,1)"/>
  <use id="arrowleft" xlink:href="#arrowLeft" x="0" y="0" onmousedown="handlePan(-1,0)"/>
</g>
<svg viewBox="0 0 15 15" width="100%" height="30px" preserveAspectRatio="xMaxYMin meet">
 <g id="arrow_out" transform="scale(0.3 0.3)">
  <a xlink:href="weights__dedup_8c_ae1e5c9a54a8c0312241d17afd01c40a0_icgraph_org.svg" target="_base">
   <rect id="button" ry="5" rx="5" y="6" x="6" height="38" width="38"
        fill="#f2f5e9" fill-opacity="0.5" stroke="#606060" stroke-width="1.0"/>
   <path id="arrow"
     d="M 11.500037,31.436501 C 11.940474,20.09759 22.043105,11.32322 32.158766,21.979434 L 37.068811,17.246167 C 37.068811,17.246167 37.088388,32 37.088388,32 L 22.160133,31.978069 C 22.160133,31.978069 26.997745,27.140456 26.997745,27.140456 C 18.528582,18.264221 13.291696,25.230495 11.500037,31.436501 z"
     style="fill:#404040;"/>
  </a>
 </g>
</svg>

<style type='text/css'>
<![CDATA[
[data-mouse-over-selected='false'] { opacity: 0.7; }
[data-mouse-over-selected='true']  { opacity: 1.0; }
]]>
</style>
<script type="application/ecmascript"><![CDATA[
document.addEventListener('DOMContentLoaded', (event) => {
  highlightEdges();
  highlightAdjacentNodes();
});
]]></script>
</svg>
