<?xml version="1.0" encoding="UTF-8" standalone="no"?>
<!DOCTYPE svg PUBLIC "-//W3C//DTD SVG 1.1//EN"
 "http://www.w3.org/Graphics/SVG/1.1/DTD/svg11.dtd">
<!-- Generated by graphviz version 2.43.0 (0)
 -->
<!-- Title: ie_tensor_cmp_name Pages: 1 -->
<svg width="669pt" height="111pt"
 viewBox="0.00 0.00 669.00 110.50" xmlns="http://www.w3.org/2000/svg" xmlns:xlink="http://www.w3.org/1999/xlink">
<g id="graph0" class="graph" transform="scale(1 1) rotate(0) translate(4 106.5)">
<title>ie_tensor_cmp_name</title>
<!-- Node1 -->
<g id="Node000001" class="node">
<title>Node1</title>
<g id="a_Node000001"><a xlink:title=" ">
<polygon fill="#999999" stroke="#666666" points="661,-75 540,-75 540,-56 661,-56 661,-75"/>
<text text-anchor="middle" x="600.5" y="-63" font-family="Helvetica,sans-Serif" font-size="10.00">ie_tensor_cmp_name</text>
</a>
</g>
</g>
<!-- Node2 -->
<g id="Node000002" class="node">
<title>Node2</title>
<g id="a_Node000002"><a xlink:href="weights__dedup_8c.html#a1bc2321065029bde076c28a0490a93db" target="_top" xlink:title=" ">
<polygon fill="white" stroke="#666666" points="479.5,-95 394.5,-95 394.5,-76 479.5,-76 479.5,-95"/>
<text text-anchor="middle" x="437" y="-83" font-family="Helvetica,sans-Serif" font-size="10.00">ie_find_tensor</text>
</a>
</g>
</g>
<!-- Node1&#45;&gt;Node2 -->
<g id="edge1_Node000001_Node000002" class="edge">
<title>Node1&#45;&gt;Node2</title>
<g id="a_edge1_Node000001_Node000002"><a xlink:title=" ">
<path fill="none" stroke="#63b8ff" d="M529.88,-74.12C512.82,-76.23 495.08,-78.43 479.8,-80.32"/>
<polygon fill="#63b8ff" stroke="#63b8ff" points="530.33,-77.59 539.82,-72.89 529.47,-70.65 530.33,-77.59"/>
</a>
</g>
</g>
<!-- Node5 -->
<g id="Node000005" class="node">
<title>Node5</title>
<g id="a_Node000005"><a xlink:href="weights__dedup_8c.html#aa625b41ce2a24826f8cb464661ace8ec" target="_top" xlink:title="Open the dedup weights loader from a model directory.">
<polygon fill="white" stroke="#666666" points="504,-57 370,-57 370,-38 504,-38 504,-57"/>
<text text-anchor="middle" x="437" y="-45" font-family="Helvetica,sans-Serif" font-size="10.00">ie_weights_dedup_open</text>
</a>
</g>
</g>
<!-- Node1&#45;&gt;Node5 -->
<g id="edge4_Node000001_Node000005" class="edge">
<title>Node1&#45;&gt;Node5</title>
<g id="a_edge4_Node000001_Node000005"><a xlink:title=" ">
<path fill="none" stroke="#63b8ff" d="M529.64,-57.71C521.21,-56.77 512.61,-55.82 504.23,-54.88"/>
<polygon fill="#63b8ff" stroke="#63b8ff" points="529.5,-61.22 539.82,-58.85 530.27,-54.26 529.5,-61.22"/>
</a>
</g>
</g>
<!-- Node3 -->
<g id="Node000003" class="node">
<title>Node3</title>
<g id="a_Node000003"><a xlink:href="weights__dedup_8c.html#a3dde6478a937f4d2288026c1e9a9d499" target="_top" xlink:title="Get a weight view by tensor name.">
<polygon fill="white" stroke="#666666" points="334,-102.5 209,-102.5 209,-72.5 334,-72.5 334,-102.5"/>
<text text-anchor="start" x="217" y="-90.5" font-family="Helvetica,sans-Serif" font-size="10.00">ie_weights_dedup_get</text>
<text text-anchor="middle" x="271.5" y="-79.5" font-family="Helvetica,sans-Serif" font-size="10.00">_weight_view</text>
</a>
</g>
</g>
<!-- Node2&#45;&gt;Node3 -->
<g id="edge2_Node000002_Node000003" class="edge">
<title>Node2&#45;&gt;Node3</title>
<g id="a_edge2_Node000002_Node000003"><a xlink:title=" ">
<path fill="none" stroke="#63b8ff" d="M384.16,-86.13C368.28,-86.33 350.65,-86.54 334.17,-86.75"/>
<polygon fill="#63b8ff" stroke="#63b8ff" points="384.36,-89.63 394.32,-86.01 384.28,-82.63 384.36,-89.63"/>
</a>
</g>
</g>
<!-- Node4 -->
<g id="Node000004" class="node">
<title>Node4</title>
<g id="a_Node000004"><a xlink:href="test__weights_8c.html#a840291bc02cba5474a4cb46a9b9566fe" target="_top" xlink:title="Main test entrypoint.">
<polygon fill="white" stroke="#666666" points="145.5,-96 104.5,-96 104.5,-77 145.5,-77 145.5,-96"/>
<text text-anchor="middle" x="125" y="-84" font-family="Helvetica,sans-Serif" font-size="10.00">main</text>
</a>
</g>
</g>
<!-- Node3&#45;&gt;Node4 -->
<g id="edge3_Node000003_Node000004" class="edge">
<title>Node3&#45;&gt;Node4</title>
<g id="a_edge3_Node000003_Node000004"><a xlink:title=" ">
<path fill="none" stroke="#63b8ff" d="M198.63,-87C179.1,-86.87 159.55,-86.73 145.65,-86.64"/>
<polygon fill="#63b8ff" stroke="#63b8ff" points="198.78,-90.5 208.8,-87.07 198.82,-83.5 198.78,-90.5"/>
</a>
</g>
</g>
<!-- Node6 -->
<g id="Node000006" class="node">
<title>Node6</title>
<g id="a_Node000006"><a xlink:href="weights_8c.html#a522dac028ee37aae1307ffdb6d65ec1d" target="_top" xlink:title="Open and parse IEBIN v1 metadata and resolve the weights path.">
<polygon fill="white" stroke="#666666" points="320.5,-54 222.5,-54 222.5,-35 320.5,-35 320.5,-54"/>
<text text-anchor="middle" x="271.5" y="-42" font-family="Helvetica,sans-Serif" font-size="10.00">ie_weights_open</text>
</a>
</g>
</g>
<!-- Node5&#45;&gt;Node6 -->
<g id="edge5_Node000005_Node000006" class="edge">
<title>Node5&#45;&gt;Node6</title>
<g id="a_edge5_Node000005_Node000006"><a xlink:title=" ">
<path fill="none" stroke="#63b8ff" d="M359.84,-46.1C346.51,-45.86 332.98,-45.61 320.68,-45.38"/>
<polygon fill="#63b8ff" stroke="#63b8ff" points="359.91,-49.6 369.97,-46.29 360.04,-42.61 359.91,-49.6"/>
</a>
</g>
</g>
<!-- Node6&#45;&gt;Node4 -->
<g id="edge7_Node000006_Node000004" class="edge">
<title>Node6&#45;&gt;Node4</title>
<g id="a_edge7_Node000006_Node000004"><a xlink:title=" ">
<path fill="none" stroke="#63b8ff" d="M228.04,-56.84C200.85,-64.74 166.84,-74.63 145.77,-80.76"/>
<polygon fill="#63b8ff" stroke="#63b8ff" points="229.09,-60.18 237.71,-54.03 227.13,-53.46 229.09,-60.18"/>
</a>
</g>
</g>
<!-- Node7 -->
<g id="Node000007" class="node">
<title>Node7</title>
<g id="a_Node000007"><a xlink:href="main__infer_8c.html#a3c04138a5bfe5d72780bb7e82a18e627" target="_top" xlink:title=" ">
<polygon fill="white" stroke="#666666" points="145.5,-56 104.5,-56 104.5,-37 145.5,-37 145.5,-56"/>
<text text-anchor="middle" x="125" y="-44" font-family="Helvetica,sans-Serif" font-size="10.00">main</text>
</a>
</g>
</g>
<!-- Node6&#45;&gt;Node7 -->
<g id="edge6_Node000006_Node000007" class="edge">
<title>Node6&#45;&gt;Node7</title>
<g id="a_edge6_Node000006_Node000007"><a xlink:title=" ">
<path fill="none" stroke="#63b8ff" d="M212.08,-45.31C188.51,-45.63 162.89,-45.99 145.78,-46.23"/>
<polygon fill="#63b8ff" stroke="#63b8ff" points="212.43,-48.8 222.38,-45.17 212.34,-41.8 212.43,-48.8"/>
</a>
</g>
</g>
<!-- Node8 -->
<g id="Node000008" class="node">
<title>Node8</title>
<g id="a_Node000008"><a xlink:href="test__dedup__loader_8c.html#a73dca7f77cd9da376bc14e888330d88f" target="_top" xlink:title=" ">
<polygon fill="white" stroke="#666666" points="173,-19 77,-19 77,0 173,0 173,-19"/>
<text text-anchor="middle" x="125" y="-7" font-family="Helvetica,sans-Serif" font-size="10.00">open_and_touch</text>
</a>
</g>
</g>
<!-- Node6&#45;&gt;Node8 -->
<g id="edge8_Node000006_Node000008" class="edge">
<title>Node6&#45;&gt;Node8</title>
<g id="a_edge8_Node000006_Node000008"><a xlink:title=" ">
<path fill="none" stroke="#63b8ff" d="M221.17,-32.55C202.98,-28.15 182.64,-23.22 165.44,-19.05"/>
<polygon fill="#63b8ff" stroke="#63b8ff" points="220.47,-35.98 231.01,-34.94 222.12,-29.18 220.47,-35.98"/>
</a>
</g>
</g>
<!-- Node9 -->
<g id="Node000009" class="node">
<title>Node9</title>
<g id="a_Node000009"><a xlink:href="test__dedup__loader_8c.html#a3c04138a5bfe5d72780bb7e82a18e627" target="_top" xlink:title=" ">
<polygon fill="white" stroke="#666666" points="41,-19 0,-19 0,0 41,0 41,-19"/>
<text text-anchor="middle" x="20.5" y="-7" font-family="Helvetica,sans-Serif" font-size="10.00">main</text>
</a>
</g>
</g>
<!-- Node8&#45;&gt;Node9 -->
<g id="edge9_Node000008_Node000009" class="edge">
<title>Node8&#45;&gt;Node9</title>
<g id="a_edge9_Node000008_Node000009"><a xlink:title=" ">
<path fill="none" stroke="#63b8ff" d="M66.87,-9.5C57.62,-9.5 48.63,-9.5 41.13,-9.5"/>
<polygon fill="#63b8ff" stroke="#63b8ff" points="66.95,-13 76.95,-9.5 66.95,-6 66.95,-13"/>
</a>
</g>
</g>
</g>
</svg>
