<?xml version="1.0" encoding="UTF-8" standalone="no"?>
<!DOCTYPE svg PUBLIC "-//W3C//DTD SVG 1.1//EN"
 "http://www.w3.org/Graphics/SVG/1.1/DTD/svg11.dtd">
<!-- Generated by graphviz version 2.43.0 (0)
 -->
<!-- Title: ascii_ieq Pages: 1 -->
<!--zoomable 101 -->

<svg id="main" version="1.1" xmlns="http://www.w3.org/2000/svg" xmlns:xlink="http://www.w3.org/1999/xlink" xml:space="preserve" onload="init(evt)">
<style type="text/css"><![CDATA[
.node, .edge {opacity: 0.7;}
.node.selected, .edge.selected {opacity: 1;}
.edge:hover path { stroke: red; }
.edge:hover polygon { stroke: red; fill: red; }
]]></style>

<defs>
  <circle id="rim" cx="0" cy="0" r="7"/>
  <circle id="rim2" cx="0" cy="0" r="3.5"/>
  <g id="zoomPlus">
    <use xlink:href="#rim" fill="#404040"><set attributeName="fill" to="#808080" begin="zoomplus.mouseover" end="zoomplus.mouseout"/></use>
    <path d="M-4,0h8M0,-4v8" fill="none" stroke="white" stroke-width="1.5" pointer-events="none"/>
  </g>
  <g id="zoomMin">
    <use xlink:href="#rim" fill="#404040"><set attributeName="fill" to="#808080" begin="zoomminus.mouseover" end="zoomminus.mouseout"/></use>
    <path d="M-4,0h8" fill="none" stroke="white" stroke-width="1.5" pointer-events="none"/>
  </g>
  <g id="arrowUp" transform="translate(30 24)">
    <use xlink:href="#rim"/>
    <path pointer-events="none" fill="none" stroke="white" stroke-width="1.5" d="M0,-3.0v7 M-2.5,-0.5L0,-3.0L2.5,-0.5"/>
  </g>
  <g id="arrowRight" transform="rotate(90) translate(36 -43)">
    <use xlink:href="#rim"/>
    <path pointer-events="none" fill="none" stroke="white" stroke-width="1.5" d="M0,-3.0v7 M-2.5,-0.5L0,-3.0L2.5,-0.5"/>
  </g>
  <g id="arrowDown" transform="rotate(180) translate(-30 -48)">
    <use xlink:href="#rim"/>
    <path pointer-events="none" fill="none" stroke="white" stroke-width="1.5" d="M0,-3.0v7 M-2.5,-0.5L0,-3.0L2.5,-0.5"/>
  </g>
  <g id="arrowLeft" transform="rotate(270) translate(-36 17)">
    <use xlink:href="#rim"/>
    <path pointer-events="none" fill="none" stroke="white" stroke-width="1.5" d="M0,-3.0v7 M-2.5,-0.5L0,-3.0L2.5,-0.5"/>
  </g>
  <g id="resetDef">
    <use xlink:href="#rim2" fill="#404040"><set attributeName="fill" to="#808080" begin="reset.mouseover" end="reset.mouseout"/></use>
  </g>
</defs>
<script type="application/ecmascript">
var viewWidth = 600;
var viewHeight = 101;
var sectionId = 'dynsection-2';
</script>
<script type="application/ecmascript" xlink:href="svg.min.js"/>
<svg id="graph" class="graph">
<g id="viewport">
<title>ascii_ieq</title>
<!-- Node1 -->
<g id="Node000001" class="node">
<title>Node1</title>
<g id="a_Node000001"><a xlink:title="ASCII&#45;only case&#45;insensitive equality.">
<polygon fill="#999999" stroke="#666666" points="592,-56 533,-56 533,-37 592,-37 592,-56"/>
<text text-anchor="middle" x="562.5" y="-44" font-family="Helvetica,sans-Serif" font-size="10.00">ascii_ieq</text>
</a>
</g>
</g>
<!-- Node2 -->
<g id="Node000002" class="node">
<title>Node2</title>
<g id="a_Node000002"><a xlink:href="weights_8c.html#a93c92a71a0cf18f3eea8623ea9524d54" target="_top" xlink:title="Parse environment flag&#45;like strings into a boolean.">
<polygon fill="white" stroke="#666666" points="461,-75 382,-75 382,-56 461,-56 461,-75"/>
<text text-anchor="middle" x="421.5" y="-63" font-family="Helvetica,sans-Serif" font-size="10.00">env_flag_get</text>
</a>
</g>
</g>
<!-- Node1&#45;&gt;Node2 -->
<g id="edge1_Node000001_Node000002" class="edge">
<title>Node1&#45;&gt;Node2</title>
<g id="a_edge1_Node000001_Node000002"><a xlink:title=" ">
<path fill="none" stroke="#63b8ff" d="M522.74,-51.8C503.47,-54.43 480.26,-57.61 461.02,-60.23"/>
<polygon fill="#63b8ff" stroke="#63b8ff" points="523.27,-55.26 532.7,-50.44 522.32,-48.32 523.27,-55.26"/>
</a>
</g>
</g>
<!-- Node9 -->
<g id="Node000009" class="node">
<title>Node9</title>
<g id="a_Node000009"><a xlink:href="weights_8c.html#a1c8fc195c7c1f4e503920578dbaf1d02" target="_top" xlink:title="Parse INT4&#45;related metadata from model.ie.json (best&#45;effort).">
<polygon fill="white" stroke="#666666" points="497,-38 346,-38 346,-19 497,-19 497,-38"/>
<text text-anchor="middle" x="421.5" y="-26" font-family="Helvetica,sans-Serif" font-size="10.00">ie_weights_read_int4_meta</text>
</a>
</g>
</g>
<!-- Node1&#45;&gt;Node9 -->
<g id="edge10_Node000001_Node000009" class="edge">
<title>Node1&#45;&gt;Node9</title>
<g id="a_edge10_Node000001_Node000009"><a xlink:title=" ">
<path fill="none" stroke="#63b8ff" d="M522.58,-41.46C514.24,-40.38 505.17,-39.21 496.01,-38.02"/>
<polygon fill="#63b8ff" stroke="#63b8ff" points="522.33,-44.96 532.7,-42.77 523.23,-38.02 522.33,-44.96"/>
</a>
</g>
</g>
<!-- Node3 -->
<g id="Node000003" class="node">
<title>Node3</title>
<g id="a_Node000003"><a xlink:href="weights_8c.html#a522dac028ee37aae1307ffdb6d65ec1d" target="_top" xlink:title="Open and parse IEBIN v1 metadata and resolve the weights path.">
<polygon fill="white" stroke="#666666" points="308.5,-56 210.5,-56 210.5,-37 308.5,-37 308.5,-56"/>
<text text-anchor="middle" x="259.5" y="-44" font-family="Helvetica,sans-Serif" font-size="10.00">ie_weights_open</text>
</a>
</g>
</g>
<!-- Node2&#45;&gt;Node3 -->
<g id="edge2_Node000002_Node000003" class="edge">
<title>Node2&#45;&gt;Node3</title>
<g id="a_edge2_Node000002_Node000003"><a xlink:title=" ">
<path fill="none" stroke="#63b8ff" d="M371.62,-59.7C351.61,-57.32 328.53,-54.58 308.61,-52.21"/>
<polygon fill="#63b8ff" stroke="#63b8ff" points="371.43,-63.2 381.77,-60.9 372.25,-56.25 371.43,-63.2"/>
</a>
</g>
</g>
<!-- Node8 -->
<g id="Node000008" class="node">
<title>Node8</title>
<g id="a_Node000008"><a xlink:href="weights_8c.html#a095d7f59c4cba2b530bac039bca8b7a9" target="_top" xlink:title="Touch the weights binary to verify readability (optional warm&#45;up).">
<polygon fill="white" stroke="#666666" points="310,-93 209,-93 209,-74 310,-74 310,-93"/>
<text text-anchor="middle" x="259.5" y="-81" font-family="Helvetica,sans-Serif" font-size="10.00">ie_weights_touch</text>
</a>
</g>
</g>
<!-- Node2&#45;&gt;Node8 -->
<g id="edge7_Node000002_Node000008" class="edge">
<title>Node2&#45;&gt;Node8</title>
<g id="a_edge7_Node000002_Node000008"><a xlink:title=" ">
<path fill="none" stroke="#63b8ff" d="M371.57,-71C352.07,-73.2 329.65,-75.72 310.09,-77.92"/>
<polygon fill="#63b8ff" stroke="#63b8ff" points="372.22,-74.45 381.77,-69.86 371.44,-67.5 372.22,-74.45"/>
</a>
</g>
</g>
<!-- Node4 -->
<g id="Node000004" class="node">
<title>Node4</title>
<g id="a_Node000004"><a xlink:href="main__infer_8c.html#a3c04138a5bfe5d72780bb7e82a18e627" target="_top" xlink:title=" ">
<polygon fill="white" stroke="#666666" points="145.5,-56 104.5,-56 104.5,-37 145.5,-37 145.5,-56"/>
<text text-anchor="middle" x="125" y="-44" font-family="Helvetica,sans-Serif" font-size="10.00">main</text>
</a>
</g>
</g>
<!-- Node3&#45;&gt;Node4 -->
<g id="edge3_Node000003_Node000004" class="edge">
<title>Node3&#45;&gt;Node4</title>
<g id="a_edge3_Node000003_Node000004"><a xlink:title=" ">
<path fill="none" stroke="#63b8ff" d="M200.18,-46.5C180.61,-46.5 160.11,-46.5 145.63,-46.5"/>
<polygon fill="#63b8ff" stroke="#63b8ff" points="200.29,-50 210.29,-46.5 200.29,-43 200.29,-50"/>
</a>
</g>
</g>
<!-- Node5 -->
<g id="Node000005" class="node">
<title>Node5</title>
<g id="a_Node000005"><a xlink:href="test__weights_8c.html#a840291bc02cba5474a4cb46a9b9566fe" target="_top" xlink:title="Main test entrypoint.">
<polygon fill="white" stroke="#666666" points="145.5,-19 104.5,-19 104.5,0 145.5,0 145.5,-19"/>
<text text-anchor="middle" x="125" y="-7" font-family="Helvetica,sans-Serif" font-size="10.00">main</text>
</a>
</g>
</g>
<!-- Node3&#45;&gt;Node5 -->
<g id="edge4_Node000003_Node000005" class="edge">
<title>Node3&#45;&gt;Node5</title>
<g id="a_edge4_Node000003_Node000005"><a xlink:title=" ">
<path fill="none" stroke="#63b8ff" d="M214.67,-34.26C191.31,-27.74 163.74,-20.04 145.62,-14.98"/>
<polygon fill="#63b8ff" stroke="#63b8ff" points="213.81,-37.65 224.38,-36.97 215.69,-30.91 213.81,-37.65"/>
</a>
</g>
</g>
<!-- Node6 -->
<g id="Node000006" class="node">
<title>Node6</title>
<g id="a_Node000006"><a xlink:href="test__dedup__loader_8c.html#a73dca7f77cd9da376bc14e888330d88f" target="_top" xlink:title=" ">
<polygon fill="white" stroke="#666666" points="173,-93 77,-93 77,-74 173,-74 173,-93"/>
<text text-anchor="middle" x="125" y="-81" font-family="Helvetica,sans-Serif" font-size="10.00">open_and_touch</text>
</a>
</g>
</g>
<!-- Node3&#45;&gt;Node6 -->
<g id="edge5_Node000003_Node000006" class="edge">
<title>Node3&#45;&gt;Node6</title>
<g id="a_edge5_Node000003_Node000006"><a xlink:title=" ">
<path fill="none" stroke="#63b8ff" d="M214.36,-58.83C196.81,-63.73 176.92,-69.28 160.47,-73.88"/>
<polygon fill="#63b8ff" stroke="#63b8ff" points="215.69,-62.09 224.38,-56.03 213.81,-55.35 215.69,-62.09"/>
</a>
</g>
</g>
<!-- Node7 -->
<g id="Node000007" class="node">
<title>Node7</title>
<g id="a_Node000007"><a xlink:href="test__dedup__loader_8c.html#a3c04138a5bfe5d72780bb7e82a18e627" target="_top" xlink:title=" ">
<polygon fill="white" stroke="#666666" points="41,-93 0,-93 0,-74 41,-74 41,-93"/>
<text text-anchor="middle" x="20.5" y="-81" font-family="Helvetica,sans-Serif" font-size="10.00">main</text>
</a>
</g>
</g>
<!-- Node6&#45;&gt;Node7 -->
<g id="edge6_Node000006_Node000007" class="edge">
<title>Node6&#45;&gt;Node7</title>
<g id="a_edge6_Node000006_Node000007"><a xlink:title=" ">
<path fill="none" stroke="#63b8ff" d="M66.87,-83.5C57.62,-83.5 48.63,-83.5 41.13,-83.5"/>
<polygon fill="#63b8ff" stroke="#63b8ff" points="66.95,-87 76.95,-83.5 66.95,-80 66.95,-87"/>
</a>
</g>
</g>
<!-- Node8&#45;&gt;Node4 -->
<g id="edge8_Node000008_Node000004" class="edge">
<title>Node8&#45;&gt;Node4</title>
<g id="a_edge8_Node000008_Node000004"><a xlink:title=" ">
<path fill="none" stroke="#63b8ff" d="M214.67,-71.26C191.31,-64.74 163.74,-57.04 145.62,-51.98"/>
<polygon fill="#63b8ff" stroke="#63b8ff" points="213.81,-74.65 224.38,-73.97 215.69,-67.91 213.81,-74.65"/>
</a>
</g>
</g>
<!-- Node8&#45;&gt;Node6 -->
<g id="edge9_Node000008_Node000006" class="edge">
<title>Node8&#45;&gt;Node6</title>
<g id="a_edge9_Node000008_Node000006"><a xlink:title=" ">
<path fill="none" stroke="#63b8ff" d="M198.58,-83.5C190.13,-83.5 181.53,-83.5 173.36,-83.5"/>
<polygon fill="#63b8ff" stroke="#63b8ff" points="198.78,-87 208.78,-83.5 198.78,-80 198.78,-87"/>
</a>
</g>
</g>
</g>
</svg>

<g id="navigator" transform="translate(0 0)" fill="#404254">
  <rect fill="#f2f5e9" fill-opacity="0.5" stroke="#606060" stroke-width=".5" x="0" y="0" width="60" height="60"/>
  <use id="zoomplus" xlink:href="#zoomPlus" x="17" y="9" onmousedown="handleZoom(evt,'in')"/>
  <use id="zoomminus" xlink:href="#zoomMin" x="42" y="9" onmousedown="handleZoom(evt,'out')"/>
  <use id="reset" xlink:href="#resetDef" x="30" y="36" onmousedown="handleReset()"/>
   <use id="arrowup" xlink:href="#arrowUp" x="0" y="0" onmousedown="handlePan(0,-1)"/>
  <use id="arrowright" xlink:href="#arrowRight" x="0" y="0" onmousedown="handlePan(1,0)"/>
  <use id="arrowdown" xlink:href="#arrowDown" x="0" y="0" onmousedown="handlePan(0,1)"/>
  <use id="arrowleft" xlink:href="#arrowLeft" x="0" y="0" onmousedown="handlePan(-1,0)"/>
</g>
<svg viewBox="0 0 15 15" width="100%" height="30px" preserveAspectRatio="xMaxYMin meet">
 <g id="arrow_out" transform="scale(0.3 0.3)">
  <a xlink:href="weights_8c_a72ab94aafe7740f1343d317daa89ca15_icgraph_org.svg" target="_base">
   <rect id="button" ry="5" rx="5" y="6" x="6" height="38" width="38"
        fill="#f2f5e9" fill-opacity="0.5" stroke="#606060" stroke-width="1.0"/>
   <path id="arrow"
     d="M 11.500037,31.436501 C 11.940474,20.09759 22.043105,11.32322 32.158766,21.979434 L 37.068811,17.246167 C 37.068811,17.246167 37.088388,32 37.088388,32 L 22.160133,31.978069 C 22.160133,31.978069 26.997745,27.140456 26.997745,27.140456 C 18.528582,18.264221 13.291696,25.230495 11.500037,31.436501 z"
     style="fill:#404040;"/>
  </a>
 </g>
</svg>

<style type='text/css'>
<![CDATA[
[data-mouse-over-selected='false'] { opacity: 0.7; }
[data-mouse-over-selected='true']  { opacity: 1.0; }
]]>
</style>
<script type="application/ecmascript"><![CDATA[
document.addEventListener('DOMContentLoaded', (event) => {
  highlightEdges();
  highlightAdjacentNodes();
});
]]></script>
</svg>
