<?xml version="1.0" encoding="UTF-8" standalone="no"?>
<!DOCTYPE svg PUBLIC "-//W3C//DTD SVG 1.1//EN"
 "http://www.w3.org/Graphics/SVG/1.1/DTD/svg11.dtd">
<!-- Generated by graphviz version 2.43.0 (0)
 -->
<!-- Title: ie_tensor_cmp_name Pages: 1 -->
<svg width="669pt" height="97pt"
 viewBox="0.00 0.00 669.00 96.50" xmlns="http://www.w3.org/2000/svg" xmlns:xlink="http://www.w3.org/1999/xlink">
<g id="graph0" class="graph" transform="scale(1 1) rotate(0) translate(4 92.5)">
<title>ie_tensor_cmp_name</title>
<!-- Node1 -->
<g id="node1" class="node">
<title>Node1</title>
<g id="a_node1"><a xlink:title="Compare tensor refs by name (qsort/bsearch).">
<polygon fill="#bfbfbf" stroke="black" points="540,-41.5 540,-60.5 661,-60.5 661,-41.5 540,-41.5"/>
<text text-anchor="middle" x="600.5" y="-48.5" font-family="Helvetica,sans-Serif" font-size="10.00">ie_tensor_cmp_name</text>
</a>
</g>
</g>
<!-- Node2 -->
<g id="node2" class="node">
<title>Node2</title>
<g id="a_node2"><a xlink:href="weights__dedup_8c.html#a29eeb45b46d8c731e71a73572aa336f7" target="_top" xlink:title="Binary&#45;search tensor table.">
<polygon fill="none" stroke="black" points="394.5,-61.5 394.5,-80.5 479.5,-80.5 479.5,-61.5 394.5,-61.5"/>
<text text-anchor="middle" x="437" y="-68.5" font-family="Helvetica,sans-Serif" font-size="10.00">ie_find_tensor</text>
</a>
</g>
</g>
<!-- Node1&#45;&gt;Node2 -->
<g id="edge1" class="edge">
<title>Node1&#45;&gt;Node2</title>
<path fill="none" stroke="midnightblue" d="M529.88,-59.62C512.82,-61.73 495.08,-63.93 479.8,-65.82"/>
<polygon fill="midnightblue" stroke="midnightblue" points="530.33,-63.09 539.82,-58.39 529.47,-56.15 530.33,-63.09"/>
</g>
<!-- Node4 -->
<g id="node4" class="node">
<title>Node4</title>
<g id="a_node4"><a xlink:href="weights__dedup_8h.html#aa625b41ce2a24826f8cb464661ace8ec" target="_top" xlink:title="Open a deduplicated model directory.">
<polygon fill="none" stroke="black" points="370,-22.5 370,-41.5 504,-41.5 504,-22.5 370,-22.5"/>
<text text-anchor="middle" x="437" y="-29.5" font-family="Helvetica,sans-Serif" font-size="10.00">ie_weights_dedup_open</text>
</a>
</g>
</g>
<!-- Node1&#45;&gt;Node4 -->
<g id="edge3" class="edge">
<title>Node1&#45;&gt;Node4</title>
<path fill="none" stroke="midnightblue" d="M529.64,-42.78C521.21,-41.79 512.61,-40.78 504.23,-39.79"/>
<polygon fill="midnightblue" stroke="midnightblue" points="529.48,-46.29 539.82,-43.98 530.3,-39.33 529.48,-46.29"/>
</g>
<!-- Node3 -->
<g id="node3" class="node">
<title>Node3</title>
<g id="a_node3"><a xlink:href="weights__dedup_8h.html#a3dde6478a937f4d2288026c1e9a9d499" target="_top" xlink:title="Lookup a tensor by name and return a uniform view.">
<polygon fill="none" stroke="black" points="209,-58 209,-88 334,-88 334,-58 209,-58"/>
<text text-anchor="start" x="217" y="-76" font-family="Helvetica,sans-Serif" font-size="10.00">ie_weights_dedup_get</text>
<text text-anchor="middle" x="271.5" y="-65" font-family="Helvetica,sans-Serif" font-size="10.00">_weight_view</text>
</a>
</g>
</g>
<!-- Node2&#45;&gt;Node3 -->
<g id="edge2" class="edge">
<title>Node2&#45;&gt;Node3</title>
<path fill="none" stroke="midnightblue" d="M384.16,-71.63C368.28,-71.83 350.65,-72.04 334.17,-72.25"/>
<polygon fill="midnightblue" stroke="midnightblue" points="384.36,-75.13 394.32,-71.51 384.28,-68.13 384.36,-75.13"/>
</g>
<!-- Node5 -->
<g id="node5" class="node">
<title>Node5</title>
<g id="a_node5"><a xlink:href="group__ie__io__weights.html#ga522dac028ee37aae1307ffdb6d65ec1d" target="_top" xlink:title="Open and parse IEBIN v1 metadata and resolve the weights path.">
<polygon fill="none" stroke="black" points="222.5,-19.5 222.5,-38.5 320.5,-38.5 320.5,-19.5 222.5,-19.5"/>
<text text-anchor="middle" x="271.5" y="-26.5" font-family="Helvetica,sans-Serif" font-size="10.00">ie_weights_open</text>
</a>
</g>
</g>
<!-- Node4&#45;&gt;Node5 -->
<g id="edge4" class="edge">
<title>Node4&#45;&gt;Node5</title>
<path fill="none" stroke="midnightblue" d="M359.84,-30.6C346.51,-30.36 332.98,-30.11 320.68,-29.88"/>
<polygon fill="midnightblue" stroke="midnightblue" points="359.91,-34.1 369.97,-30.79 360.04,-27.11 359.91,-34.1"/>
</g>
<!-- Node6 -->
<g id="node6" class="node">
<title>Node6</title>
<g id="a_node6"><a xlink:href="main__infer_8c.html#a3c04138a5bfe5d72780bb7e82a18e627" target="_top" xlink:title="Program entry point.">
<polygon fill="none" stroke="black" points="104.5,-38.5 104.5,-57.5 145.5,-57.5 145.5,-38.5 104.5,-38.5"/>
<text text-anchor="middle" x="125" y="-45.5" font-family="Helvetica,sans-Serif" font-size="10.00">main</text>
</a>
</g>
</g>
<!-- Node5&#45;&gt;Node6 -->
<g id="edge5" class="edge">
<title>Node5&#45;&gt;Node6</title>
<path fill="none" stroke="midnightblue" d="M212.4,-36.64C188.74,-39.75 162.96,-43.14 145.78,-45.4"/>
<polygon fill="midnightblue" stroke="midnightblue" points="212.93,-40.1 222.38,-35.33 212.01,-33.16 212.93,-40.1"/>
</g>
<!-- Node7 -->
<g id="node7" class="node">
<title>Node7</title>
<g id="a_node7"><a xlink:href="test__dedup__loader_8c.html#a73dca7f77cd9da376bc14e888330d88f" target="_top" xlink:title=" ">
<polygon fill="none" stroke="black" points="77,-0.5 77,-19.5 173,-19.5 173,-0.5 77,-0.5"/>
<text text-anchor="middle" x="125" y="-7.5" font-family="Helvetica,sans-Serif" font-size="10.00">open_and_touch</text>
</a>
</g>
</g>
<!-- Node5&#45;&gt;Node7 -->
<g id="edge6" class="edge">
<title>Node5&#45;&gt;Node7</title>
<path fill="none" stroke="midnightblue" d="M212.21,-21.34C199.32,-19.64 185.81,-17.86 173.41,-16.23"/>
<polygon fill="midnightblue" stroke="midnightblue" points="212.01,-24.84 222.38,-22.67 212.93,-17.9 212.01,-24.84"/>
</g>
<!-- Node8 -->
<g id="node8" class="node">
<title>Node8</title>
<g id="a_node8"><a xlink:href="test__dedup__loader_8c.html#a3c04138a5bfe5d72780bb7e82a18e627" target="_top" xlink:title=" ">
<polygon fill="none" stroke="black" points="0,-0.5 0,-19.5 41,-19.5 41,-0.5 0,-0.5"/>
<text text-anchor="middle" x="20.5" y="-7.5" font-family="Helvetica,sans-Serif" font-size="10.00">main</text>
</a>
</g>
</g>
<!-- Node7&#45;&gt;Node8 -->
<g id="edge7" class="edge">
<title>Node7&#45;&gt;Node8</title>
<path fill="none" stroke="midnightblue" d="M66.87,-10C57.62,-10 48.63,-10 41.13,-10"/>
<polygon fill="midnightblue" stroke="midnightblue" points="66.95,-13.5 76.95,-10 66.95,-6.5 66.95,-13.5"/>
</g>
</g>
</svg>
