<?xml version="1.0" encoding="UTF-8" standalone="no"?>
<!DOCTYPE svg PUBLIC "-//W3C//DTD SVG 1.1//EN"
 "http://www.w3.org/Graphics/SVG/1.1/DTD/svg11.dtd">
<!-- Generated by graphviz version 2.43.0 (0)
 -->
<!-- Title: js_read_str_member Pages: 1 -->
<!--zoomable 455 -->

<svg id="main" version="1.1" xmlns="http://www.w3.org/2000/svg" xmlns:xlink="http://www.w3.org/1999/xlink" xml:space="preserve" onload="init(evt)">
<style type="text/css"><![CDATA[
.node, .edge {opacity: 0.7;}
.node.selected, .edge.selected {opacity: 1;}
.edge:hover path { stroke: red; }
.edge:hover polygon { stroke: red; fill: red; }
]]></style>

<defs>
  <circle id="rim" cx="0" cy="0" r="7"/>
  <circle id="rim2" cx="0" cy="0" r="3.5"/>
  <g id="zoomPlus">
    <use xlink:href="#rim" fill="#404040"><set attributeName="fill" to="#808080" begin="zoomplus.mouseover" end="zoomplus.mouseout"/></use>
    <path d="M-4,0h8M0,-4v8" fill="none" stroke="white" stroke-width="1.5" pointer-events="none"/>
  </g>
  <g id="zoomMin">
    <use xlink:href="#rim" fill="#404040"><set attributeName="fill" to="#808080" begin="zoomminus.mouseover" end="zoomminus.mouseout"/></use>
    <path d="M-4,0h8" fill="none" stroke="white" stroke-width="1.5" pointer-events="none"/>
  </g>
  <g id="arrowUp" transform="translate(30 24)">
    <use xlink:href="#rim"/>
    <path pointer-events="none" fill="none" stroke="white" stroke-width="1.5" d="M0,-3.0v7 M-2.5,-0.5L0,-3.0L2.5,-0.5"/>
  </g>
  <g id="arrowRight" transform="rotate(90) translate(36 -43)">
    <use xlink:href="#rim"/>
    <path pointer-events="none" fill="none" stroke="white" stroke-width="1.5" d="M0,-3.0v7 M-2.5,-0.5L0,-3.0L2.5,-0.5"/>
  </g>
  <g id="arrowDown" transform="rotate(180) translate(-30 -48)">
    <use xlink:href="#rim"/>
    <path pointer-events="none" fill="none" stroke="white" stroke-width="1.5" d="M0,-3.0v7 M-2.5,-0.5L0,-3.0L2.5,-0.5"/>
  </g>
  <g id="arrowLeft" transform="rotate(270) translate(-36 17)">
    <use xlink:href="#rim"/>
    <path pointer-events="none" fill="none" stroke="white" stroke-width="1.5" d="M0,-3.0v7 M-2.5,-0.5L0,-3.0L2.5,-0.5"/>
  </g>
  <g id="resetDef">
    <use xlink:href="#rim2" fill="#404040"><set attributeName="fill" to="#808080" begin="reset.mouseover" end="reset.mouseout"/></use>
  </g>
</defs>
<script type="application/ecmascript">
var viewWidth = 927;
var viewHeight = 455;
var sectionId = 'dynsection-73';
</script>
<script type="application/ecmascript" xlink:href="svg.min.js"/>
<svg id="graph" class="graph">
<g id="viewport">
<title>js_read_str_member</title>
<!-- Node1 -->
<g id="Node000001" class="node">
<title>Node1</title>
<g id="a_Node000001"><a xlink:title=" ">
<polygon fill="#999999" stroke="#666666" points="116,-284 0,-284 0,-265 116,-265 116,-284"/>
<text text-anchor="middle" x="58" y="-272" font-family="Helvetica,sans-Serif" font-size="10.00">js_read_str_member</text>
</a>
</g>
</g>
<!-- Node2 -->
<g id="Node000002" class="node">
<title>Node2</title>
<g id="a_Node000002"><a xlink:href="ie__device__cuda_8cu.html#a5e3d9fee84981707669f5c2398f0c4ab" target="_top" xlink:title="Row&#45;wise GEMV kernel: each thread computes one output row.">
<polygon fill="white" stroke="#666666" points="919,-233.5 794,-233.5 794,-203.5 919,-203.5 919,-233.5"/>
<text text-anchor="start" x="802" y="-221.5" font-family="Helvetica,sans-Serif" font-size="10.00">ie_gemv_rowwise_f32</text>
<text text-anchor="middle" x="856.5" y="-210.5" font-family="Helvetica,sans-Serif" font-size="10.00">_kernel</text>
</a>
</g>
</g>
<!-- Node1&#45;&gt;Node2 -->
<g id="edge1_Node000001_Node000002" class="edge">
<title>Node1&#45;&gt;Node2</title>
<g id="a_edge1_Node000001_Node000002"><a xlink:title=" ">
<path fill="none" stroke="#63b8ff" d="M67.62,-284.24C100.84,-320.63 225.17,-446.5 355.5,-446.5 355.5,-446.5 355.5,-446.5 602,-446.5 677.63,-446.5 701,-428.22 758,-378.5 801.73,-340.36 831.86,-277.68 846.11,-243.18"/>
<polygon fill="#63b8ff" stroke="#63b8ff" points="849.38,-244.42 849.86,-233.84 842.88,-241.81 849.38,-244.42"/>
</a>
</g>
</g>
<!-- Node3 -->
<g id="Node000003" class="node">
<title>Node3</title>
<g id="a_Node000003"><a xlink:href="weights__dedup_8c.html#ae0494f541a190a9ecf82c11c5eb22952" target="_top" xlink:title=" ">
<polygon fill="white" stroke="#666666" points="279,-284 152,-284 152,-265 279,-265 279,-284"/>
<text text-anchor="middle" x="215.5" y="-272" font-family="Helvetica,sans-Serif" font-size="10.00">js_find_member_value</text>
</a>
</g>
</g>
<!-- Node1&#45;&gt;Node3 -->
<g id="edge2_Node000001_Node000003" class="edge">
<title>Node1&#45;&gt;Node3</title>
<g id="a_edge2_Node000001_Node000003"><a xlink:title=" ">
<path fill="none" stroke="#63b8ff" d="M116.02,-274.5C124.43,-274.5 133.19,-274.5 141.86,-274.5"/>
<polygon fill="#63b8ff" stroke="#63b8ff" points="141.98,-278 151.98,-274.5 141.98,-271 141.98,-278"/>
</a>
</g>
</g>
<!-- Node4 -->
<g id="Node000004" class="node">
<title>Node4</title>
<g id="a_Node000004"><a xlink:href="weights__dedup_8c.html#a7e3b6f5b10e0d8d68272d2e80523813b" target="_top" xlink:title=" ">
<polygon fill="white" stroke="#666666" points="646,-76 556,-76 556,-57 646,-57 646,-76"/>
<text text-anchor="middle" x="601" y="-64" font-family="Helvetica,sans-Serif" font-size="10.00">js_parse_string</text>
</a>
</g>
</g>
<!-- Node1&#45;&gt;Node4 -->
<g id="edge27_Node000001_Node000004" class="edge">
<title>Node1&#45;&gt;Node4</title>
<g id="a_edge27_Node000001_Node000004"><a xlink:title=" ">
<path fill="none" stroke="#63b8ff" d="M69.55,-264.78C111.49,-227.04 271.99,-91 434,-64.5 470.83,-58.48 512.87,-59.06 545.43,-61.1"/>
<polygon fill="#63b8ff" stroke="#63b8ff" points="545.43,-64.61 555.65,-61.81 545.92,-57.63 545.43,-64.61"/>
</a>
</g>
</g>
<!-- Node3&#45;&gt;Node2 -->
<g id="edge3_Node000003_Node000002" class="edge">
<title>Node3&#45;&gt;Node2</title>
<g id="a_edge3_Node000003_Node000002"><a xlink:title=" ">
<path fill="none" stroke="#63b8ff" d="M226.4,-284.14C259.06,-314.86 367.49,-408.5 476,-408.5 476,-408.5 476,-408.5 602,-408.5 711.74,-408.5 804.4,-293.09 839.95,-242.16"/>
<polygon fill="#63b8ff" stroke="#63b8ff" points="842.97,-243.96 845.73,-233.73 837.19,-240 842.97,-243.96"/>
</a>
</g>
</g>
<!-- Node3&#45;&gt;Node4 -->
<g id="edge4_Node000003_Node000004" class="edge">
<title>Node3&#45;&gt;Node4</title>
<g id="a_edge4_Node000003_Node000004"><a xlink:title=" ">
<path fill="none" stroke="#63b8ff" d="M223.85,-264.83C248.96,-232.66 335.27,-128.92 434,-87.5 469.32,-72.68 512.3,-67.56 545.67,-66.07"/>
<polygon fill="#63b8ff" stroke="#63b8ff" points="545.83,-69.57 555.7,-65.72 545.58,-62.57 545.83,-69.57"/>
</a>
</g>
</g>
<!-- Node5 -->
<g id="Node000005" class="node">
<title>Node5</title>
<g id="a_Node000005"><a xlink:href="weights__dedup_8c.html#a21501177295cc06eaf7d981f7d437c0c" target="_top" xlink:title=" ">
<polygon fill="white" stroke="#666666" points="754.5,-266 685.5,-266 685.5,-247 754.5,-247 754.5,-266"/>
<text text-anchor="middle" x="720" y="-254" font-family="Helvetica,sans-Serif" font-size="10.00">js_skip_ws</text>
</a>
</g>
</g>
<!-- Node3&#45;&gt;Node5 -->
<g id="edge26_Node000003_Node000005" class="edge">
<title>Node3&#45;&gt;Node5</title>
<g id="a_edge26_Node000003_Node000005"><a xlink:title=" ">
<path fill="none" stroke="#63b8ff" d="M279.36,-278.78C363.27,-283.49 516.38,-288.55 646,-273.5 655.69,-272.38 665.96,-270.45 675.65,-268.29"/>
<polygon fill="#63b8ff" stroke="#63b8ff" points="676.55,-271.68 685.48,-265.98 674.94,-264.86 676.55,-271.68"/>
</a>
</g>
</g>
<!-- Node6 -->
<g id="Node000006" class="node">
<title>Node6</title>
<g id="a_Node000006"><a xlink:href="weights__dedup_8c.html#aec6b7531542a45304d1f17d108a6d2ea" target="_top" xlink:title=" ">
<polygon fill="white" stroke="#666666" points="398,-209 315,-209 315,-190 398,-190 398,-209"/>
<text text-anchor="middle" x="356.5" y="-197" font-family="Helvetica,sans-Serif" font-size="10.00">js_skip_value</text>
</a>
</g>
</g>
<!-- Node3&#45;&gt;Node6 -->
<g id="edge8_Node000003_Node000006" class="edge">
<title>Node3&#45;&gt;Node6</title>
<g id="a_edge8_Node000003_Node000006"><a xlink:title=" ">
<path fill="none" stroke="#63b8ff" d="M234.39,-264.85C258.26,-251.97 300.75,-229.04 328.53,-214.05"/>
<polygon fill="#63b8ff" stroke="#63b8ff" points="330.54,-216.94 337.68,-209.11 327.22,-210.78 330.54,-216.94"/>
</a>
</g>
</g>
<!-- Node4&#45;&gt;Node2 -->
<g id="edge5_Node000004_Node000002" class="edge">
<title>Node4&#45;&gt;Node2</title>
<g id="a_edge5_Node000004_Node000002"><a xlink:title=" ">
<path fill="none" stroke="#63b8ff" d="M646.32,-64.69C679.27,-65.3 724.2,-70.41 758,-90.5 799.21,-114.99 828.98,-164.16 844.13,-193.92"/>
<polygon fill="#63b8ff" stroke="#63b8ff" points="841.15,-195.78 848.71,-203.21 847.43,-192.69 841.15,-195.78"/>
</a>
</g>
</g>
<!-- Node4&#45;&gt;Node5 -->
<g id="edge6_Node000004_Node000005" class="edge">
<title>Node4&#45;&gt;Node5</title>
<g id="a_edge6_Node000004_Node000005"><a xlink:title=" ">
<path fill="none" stroke="#63b8ff" d="M607.96,-76.18C626.42,-106.16 682.86,-197.81 707.4,-237.66"/>
<polygon fill="#63b8ff" stroke="#63b8ff" points="704.69,-239.93 712.91,-246.61 710.65,-236.26 704.69,-239.93"/>
</a>
</g>
</g>
<!-- Node5&#45;&gt;Node2 -->
<g id="edge7_Node000005_Node000002" class="edge">
<title>Node5&#45;&gt;Node2</title>
<g id="a_edge7_Node000005_Node000002"><a xlink:title=" ">
<path fill="none" stroke="#63b8ff" d="M754.59,-247.01C766.06,-243.77 779.29,-240.03 792.32,-236.35"/>
<polygon fill="#63b8ff" stroke="#63b8ff" points="793.54,-239.64 802.21,-233.56 791.64,-232.91 793.54,-239.64"/>
</a>
</g>
</g>
<!-- Node6&#45;&gt;Node2 -->
<g id="edge9_Node000006_Node000002" class="edge">
<title>Node6&#45;&gt;Node2</title>
<g id="a_edge9_Node000006_Node000002"><a xlink:title=" ">
<path fill="none" stroke="#63b8ff" d="M372.6,-189.94C387.53,-181.09 411.37,-168.56 434,-163.5 565.4,-134.13 723.59,-174.56 803.65,-200.21"/>
<polygon fill="#63b8ff" stroke="#63b8ff" points="802.89,-203.65 813.48,-203.42 805.06,-196.99 802.89,-203.65"/>
</a>
</g>
</g>
<!-- Node6&#45;&gt;Node4 -->
<g id="edge15_Node000006_Node000004" class="edge">
<title>Node6&#45;&gt;Node4</title>
<g id="a_edge15_Node000006_Node000004"><a xlink:title=" ">
<path fill="none" stroke="#63b8ff" d="M365.99,-189.64C379.2,-174.81 406.1,-146.68 434,-129.5 471.51,-106.41 518.86,-89.46 553.39,-79"/>
<polygon fill="#63b8ff" stroke="#63b8ff" points="554.62,-82.29 563.21,-76.09 552.63,-75.58 554.62,-82.29"/>
</a>
</g>
</g>
<!-- Node6&#45;&gt;Node5 -->
<g id="edge25_Node000006_Node000005" class="edge">
<title>Node6&#45;&gt;Node5</title>
<g id="a_edge25_Node000006_Node000005"><a xlink:title=" ">
<path fill="none" stroke="#63b8ff" d="M372.97,-209.15C387.98,-218.03 411.7,-230.8 434,-237.5 516.49,-262.27 618.24,-262.17 675.14,-259.55"/>
<polygon fill="#63b8ff" stroke="#63b8ff" points="675.42,-263.04 685.23,-259.04 675.06,-256.05 675.42,-263.04"/>
</a>
</g>
</g>
<!-- Node7 -->
<g id="Node000007" class="node">
<title>Node7</title>
<g id="a_Node000007"><a xlink:href="weights__dedup_8c.html#acb6d250836afa5eddeb1985efad8afa4" target="_top" xlink:title=" ">
<polygon fill="white" stroke="#666666" points="758,-19 682,-19 682,0 758,0 758,-19"/>
<text text-anchor="middle" x="720" y="-7" font-family="Helvetica,sans-Serif" font-size="10.00">js_match_lit</text>
</a>
</g>
</g>
<!-- Node6&#45;&gt;Node7 -->
<g id="edge10_Node000006_Node000007" class="edge">
<title>Node6&#45;&gt;Node7</title>
<g id="a_edge10_Node000006_Node000007"><a xlink:title=" ">
<path fill="none" stroke="#63b8ff" d="M361.47,-189.83C370.83,-168.23 396.34,-115.78 434,-87.5 505.35,-33.91 611.31,-17.14 671.91,-11.89"/>
<polygon fill="#63b8ff" stroke="#63b8ff" points="672.27,-15.37 681.96,-11.09 671.71,-8.39 672.27,-15.37"/>
</a>
</g>
</g>
<!-- Node8 -->
<g id="Node000008" class="node">
<title>Node8</title>
<g id="a_Node000008"><a xlink:href="weights__dedup_8c.html#a080768f8631e237e2467fc47a7d4d6a0" target="_top" xlink:title=" ">
<polygon fill="white" stroke="#666666" points="639.5,-380 562.5,-380 562.5,-361 639.5,-361 639.5,-380"/>
<text text-anchor="middle" x="601" y="-368" font-family="Helvetica,sans-Serif" font-size="10.00">js_parse_i64</text>
</a>
</g>
</g>
<!-- Node6&#45;&gt;Node8 -->
<g id="edge12_Node000006_Node000008" class="edge">
<title>Node6&#45;&gt;Node8</title>
<g id="a_edge12_Node000006_Node000008"><a xlink:title=" ">
<path fill="none" stroke="#63b8ff" d="M361.78,-209.12C371.57,-230.1 397.6,-280.36 434,-308.5 468.89,-335.47 516.76,-351.68 552.13,-360.72"/>
<polygon fill="#63b8ff" stroke="#63b8ff" points="551.66,-364.21 562.21,-363.19 553.33,-357.41 551.66,-364.21"/>
</a>
</g>
</g>
<!-- Node9 -->
<g id="Node000009" class="node">
<title>Node9</title>
<g id="a_Node000009"><a xlink:href="weights__dedup_8c.html#aeb7fa9bc2ccc7b24ae16f647bcafb49b" target="_top" xlink:title=" ">
<polygon fill="white" stroke="#666666" points="517.5,-228 436.5,-228 436.5,-209 517.5,-209 517.5,-228"/>
<text text-anchor="middle" x="477" y="-216" font-family="Helvetica,sans-Serif" font-size="10.00">js_skip_array</text>
</a>
</g>
</g>
<!-- Node6&#45;&gt;Node9 -->
<g id="edge16_Node000006_Node000009" class="edge">
<title>Node6&#45;&gt;Node9</title>
<g id="a_edge16_Node000006_Node000009"><a xlink:title=" ">
<path fill="none" stroke="#63b8ff" d="M398.28,-199.59C412.37,-201.38 428,-203.97 441.53,-206.78"/>
<polygon fill="#63b8ff" stroke="#63b8ff" points="440.88,-210.22 451.4,-208.96 442.39,-203.38 440.88,-210.22"/>
</a>
</g>
</g>
<!-- Node10 -->
<g id="Node000010" class="node">
<title>Node10</title>
<g id="a_Node000010"><a xlink:href="weights__dedup_8c.html#ae1e5c9a54a8c0312241d17afd01c40a0" target="_top" xlink:title=" ">
<polygon fill="white" stroke="#666666" points="520,-191 434,-191 434,-172 520,-172 520,-191"/>
<text text-anchor="middle" x="477" y="-179" font-family="Helvetica,sans-Serif" font-size="10.00">js_skip_object</text>
</a>
</g>
</g>
<!-- Node6&#45;&gt;Node10 -->
<g id="edge20_Node000006_Node000010" class="edge">
<title>Node6&#45;&gt;Node10</title>
<g id="a_edge20_Node000006_Node000010"><a xlink:title=" ">
<path fill="none" stroke="#63b8ff" d="M382.92,-189.98C394.85,-187.3 409.53,-184.72 423.68,-182.74"/>
<polygon fill="#63b8ff" stroke="#63b8ff" points="424.38,-186.18 433.84,-181.41 423.47,-179.24 424.38,-186.18"/>
</a>
</g>
</g>
<!-- Node7&#45;&gt;Node2 -->
<g id="edge11_Node000007_Node000002" class="edge">
<title>Node7&#45;&gt;Node2</title>
<g id="a_edge11_Node000007_Node000002"><a xlink:title=" ">
<path fill="none" stroke="#63b8ff" d="M730.36,-19.33C738.18,-27.79 749.41,-40.48 758,-52.5 792.33,-100.5 825.69,-161.26 843.08,-194.34"/>
<polygon fill="#63b8ff" stroke="#63b8ff" points="840.02,-196.04 847.75,-203.29 846.23,-192.8 840.02,-196.04"/>
</a>
</g>
</g>
<!-- Node8&#45;&gt;Node2 -->
<g id="edge13_Node000008_Node000002" class="edge">
<title>Node8&#45;&gt;Node2</title>
<g id="a_edge13_Node000008_Node000002"><a xlink:title=" ">
<path fill="none" stroke="#63b8ff" d="M620.09,-360.89C628.08,-356.58 637.56,-351.38 646,-346.5 709.44,-309.85 782.13,-264.71 823.06,-239"/>
<polygon fill="#63b8ff" stroke="#63b8ff" points="824.94,-241.96 831.54,-233.67 821.21,-236.03 824.94,-241.96"/>
</a>
</g>
</g>
<!-- Node8&#45;&gt;Node5 -->
<g id="edge14_Node000008_Node000005" class="edge">
<title>Node8&#45;&gt;Node5</title>
<g id="a_edge14_Node000008_Node000005"><a xlink:title=" ">
<path fill="none" stroke="#63b8ff" d="M623.65,-360.83C631.14,-356.95 639.31,-352.07 646,-346.5 671.38,-325.37 694.22,-294.34 707.35,-274.79"/>
<polygon fill="#63b8ff" stroke="#63b8ff" points="710.42,-276.49 712.98,-266.2 704.57,-272.64 710.42,-276.49"/>
</a>
</g>
</g>
<!-- Node9&#45;&gt;Node2 -->
<g id="edge17_Node000009_Node000002" class="edge">
<title>Node9&#45;&gt;Node2</title>
<g id="a_edge17_Node000009_Node000002"><a xlink:title=" ">
<path fill="none" stroke="#63b8ff" d="M517.69,-218.5C580.64,-218.5 704.34,-218.5 783.31,-218.5"/>
<polygon fill="#63b8ff" stroke="#63b8ff" points="783.66,-222 793.66,-218.5 783.66,-215 783.66,-222"/>
</a>
</g>
</g>
<!-- Node9&#45;&gt;Node5 -->
<g id="edge19_Node000009_Node000005" class="edge">
<title>Node9&#45;&gt;Node5</title>
<g id="a_edge19_Node000009_Node000005"><a xlink:title=" ">
<path fill="none" stroke="#63b8ff" d="M517.64,-225.86C529.92,-228.08 543.51,-230.46 556,-232.5 596.25,-239.07 642.22,-245.77 675.06,-250.41"/>
<polygon fill="#63b8ff" stroke="#63b8ff" points="674.85,-253.92 685.24,-251.84 675.82,-246.98 674.85,-253.92"/>
</a>
</g>
</g>
<!-- Node9&#45;&gt;Node6 -->
<g id="edge18_Node000009_Node000006" class="edge">
<title>Node9&#45;&gt;Node6</title>
<g id="a_edge18_Node000009_Node000006"><a xlink:title=" ">
<path fill="none" stroke="#63b8ff" d="M436.09,-218.52C421.82,-216.74 405.88,-214.11 392.1,-211.25"/>
<polygon fill="#63b8ff" stroke="#63b8ff" points="392.57,-207.77 382.05,-209.03 391.06,-214.6 392.57,-207.77"/>
</a>
</g>
</g>
<!-- Node10&#45;&gt;Node2 -->
<g id="edge21_Node000010_Node000002" class="edge">
<title>Node10&#45;&gt;Node2</title>
<g id="a_edge21_Node000010_Node000002"><a xlink:title=" ">
<path fill="none" stroke="#63b8ff" d="M520.21,-185.64C584.01,-191.89 705.81,-203.83 783.73,-211.47"/>
<polygon fill="#63b8ff" stroke="#63b8ff" points="783.65,-214.97 793.94,-212.47 784.33,-208.01 783.65,-214.97"/>
</a>
</g>
</g>
<!-- Node10&#45;&gt;Node4 -->
<g id="edge22_Node000010_Node000004" class="edge">
<title>Node10&#45;&gt;Node4</title>
<g id="a_edge22_Node000010_Node000004"><a xlink:title=" ">
<path fill="none" stroke="#63b8ff" d="M488.4,-171.7C509.2,-152.09 556.13,-107.85 582.02,-83.45"/>
<polygon fill="#63b8ff" stroke="#63b8ff" points="584.75,-85.69 589.62,-76.28 579.95,-80.59 584.75,-85.69"/>
</a>
</g>
</g>
<!-- Node10&#45;&gt;Node5 -->
<g id="edge24_Node000010_Node000005" class="edge">
<title>Node10&#45;&gt;Node5</title>
<g id="a_edge24_Node000010_Node000005"><a xlink:title=" ">
<path fill="none" stroke="#63b8ff" d="M516,-191.05C550.25,-199.91 601.86,-213.9 646,-228.5 659.32,-232.91 673.79,-238.32 686.3,-243.21"/>
<polygon fill="#63b8ff" stroke="#63b8ff" points="685.27,-246.57 695.86,-246.99 687.84,-240.06 685.27,-246.57"/>
</a>
</g>
</g>
<!-- Node10&#45;&gt;Node6 -->
<g id="edge23_Node000010_Node000006" class="edge">
<title>Node10&#45;&gt;Node6</title>
<g id="a_edge23_Node000010_Node000006"><a xlink:title=" ">
<path fill="none" stroke="#63b8ff" d="M450.35,-191.07C438.12,-193.81 423.04,-196.44 408.62,-198.43"/>
<polygon fill="#63b8ff" stroke="#63b8ff" points="407.75,-195.01 398.28,-199.76 408.65,-201.95 407.75,-195.01"/>
</a>
</g>
</g>
</g>
</svg>

<g id="navigator" transform="translate(0 0)" fill="#404254">
  <rect fill="#f2f5e9" fill-opacity="0.5" stroke="#606060" stroke-width=".5" x="0" y="0" width="60" height="60"/>
  <use id="zoomplus" xlink:href="#zoomPlus" x="17" y="9" onmousedown="handleZoom(evt,'in')"/>
  <use id="zoomminus" xlink:href="#zoomMin" x="42" y="9" onmousedown="handleZoom(evt,'out')"/>
  <use id="reset" xlink:href="#resetDef" x="30" y="36" onmousedown="handleReset()"/>
   <use id="arrowup" xlink:href="#arrowUp" x="0" y="0" onmousedown="handlePan(0,-1)"/>
  <use id="arrowright" xlink:href="#arrowRight" x="0" y="0" onmousedown="handlePan(1,0)"/>
  <use id="arrowdown" xlink:href="#arrowDown" x="0" y="0" onmousedown="handlePan(0,1)"/>
  <use id="arrowleft" xlink:href="#arrowLeft" x="0" y="0" onmousedown="handlePan(-1,0)"/>
</g>
<svg viewBox="0 0 15 15" width="100%" height="30px" preserveAspectRatio="xMaxYMin meet">
 <g id="arrow_out" transform="scale(0.3 0.3)">
  <a xlink:href="weights__dedup_8c_ace1eab87292a3ab28bc10e2a8741b84b_cgraph_org.svg" target="_base">
   <rect id="button" ry="5" rx="5" y="6" x="6" height="38" width="38"
        fill="#f2f5e9" fill-opacity="0.5" stroke="#606060" stroke-width="1.0"/>
   <path id="arrow"
     d="M 11.500037,31.436501 C 11.940474,20.09759 22.043105,11.32322 32.158766,21.979434 L 37.068811,17.246167 C 37.068811,17.246167 37.088388,32 37.088388,32 L 22.160133,31.978069 C 22.160133,31.978069 26.997745,27.140456 26.997745,27.140456 C 18.528582,18.264221 13.291696,25.230495 11.500037,31.436501 z"
     style="fill:#404040;"/>
  </a>
 </g>
</svg>

<style type='text/css'>
<![CDATA[
[data-mouse-over-selected='false'] { opacity: 0.7; }
[data-mouse-over-selected='true']  { opacity: 1.0; }
]]>
</style>
<script type="application/ecmascript"><![CDATA[
document.addEventListener('DOMContentLoaded', (event) => {
  highlightEdges();
  highlightAdjacentNodes();
});
]]></script>
</svg>
