<?xml version="1.0" encoding="UTF-8" standalone="no"?>
<!DOCTYPE svg PUBLIC "-//W3C//DTD SVG 1.1//EN"
 "http://www.w3.org/Graphics/SVG/1.1/DTD/svg11.dtd">
<!-- Generated by graphviz version 2.43.0 (0)
 -->
<!-- Title: ie_quantize_act_int8_per_group Pages: 1 -->
<svg width="247pt" height="101pt"
 viewBox="0.00 0.00 247.00 101.00" xmlns="http://www.w3.org/2000/svg" xmlns:xlink="http://www.w3.org/1999/xlink">
<g id="graph0" class="graph" transform="scale(1 1) rotate(0) translate(4 97)">
<title>ie_quantize_act_int8_per_group</title>
<!-- Node1 -->
<g id="Node000001" class="node">
<title>Node1</title>
<g id="a_Node000001"><a xlink:title="Quantize fp32 activations to INT8 using per&#45;group parameters.">
<polygon fill="#999999" stroke="#666666" points="117,-61.5 0,-61.5 0,-31.5 117,-31.5 117,-61.5"/>
<text text-anchor="start" x="8" y="-49.5" font-family="Helvetica,sans-Serif" font-size="10.00">ie_quantize_act_int8</text>
<text text-anchor="middle" x="58.5" y="-38.5" font-family="Helvetica,sans-Serif" font-size="10.00">_per_group</text>
</a>
</g>
</g>
<!-- Node2 -->
<g id="Node000002" class="node">
<title>Node2</title>
<g id="a_Node000002"><a xlink:href="act__int8_8c.html#a7490ce5fac2e6e5e1b7812006550be41" target="_top" xlink:title=" ">
<polygon fill="white" stroke="#666666" points="219.5,-93 172.5,-93 172.5,-74 219.5,-74 219.5,-93"/>
<text text-anchor="middle" x="196" y="-81" font-family="Helvetica,sans-Serif" font-size="10.00">ie_rne</text>
</a>
</g>
</g>
<!-- Node1&#45;&gt;Node2 -->
<g id="edge1_Node000001_Node000002" class="edge">
<title>Node1&#45;&gt;Node2</title>
<g id="a_edge1_Node000001_Node000002"><a xlink:title=" ">
<path fill="none" stroke="#63b8ff" d="M114.61,-61.55C130.89,-65.99 148.17,-70.71 162.52,-74.63"/>
<polygon fill="#63b8ff" stroke="#63b8ff" points="161.83,-78.07 172.4,-77.33 163.67,-71.32 161.83,-78.07"/>
</a>
</g>
</g>
<!-- Node3 -->
<g id="Node000003" class="node">
<title>Node3</title>
<g id="a_Node000003"><a xlink:href="act__int8_8c.html#adbe29326b240b464a7a7a8773210fb8f" target="_top" xlink:title=" ">
<polygon fill="white" stroke="#666666" points="226,-56 166,-56 166,-37 226,-37 226,-56"/>
<text text-anchor="middle" x="196" y="-44" font-family="Helvetica,sans-Serif" font-size="10.00">ie_sat_i8</text>
</a>
</g>
</g>
<!-- Node1&#45;&gt;Node3 -->
<g id="edge2_Node000001_Node000003" class="edge">
<title>Node1&#45;&gt;Node3</title>
<g id="a_edge2_Node000001_Node000003"><a xlink:title=" ">
<path fill="none" stroke="#63b8ff" d="M117.36,-46.5C130.26,-46.5 143.66,-46.5 155.62,-46.5"/>
<polygon fill="#63b8ff" stroke="#63b8ff" points="155.71,-50 165.71,-46.5 155.71,-43 155.71,-50"/>
</a>
</g>
</g>
<!-- Node4 -->
<g id="Node000004" class="node">
<title>Node4</title>
<g id="a_Node000004"><a xlink:href="act__int8_8c.html#a312c061258a9180793b777e396301655" target="_top" xlink:title=" ">
<polygon fill="white" stroke="#666666" points="239,-19 153,-19 153,0 239,0 239,-19"/>
<text text-anchor="middle" x="196" y="-7" font-family="Helvetica,sans-Serif" font-size="10.00">ie_sat_sym_i8</text>
</a>
</g>
</g>
<!-- Node1&#45;&gt;Node4 -->
<g id="edge3_Node000001_Node000004" class="edge">
<title>Node1&#45;&gt;Node4</title>
<g id="a_edge3_Node000001_Node000004"><a xlink:title=" ">
<path fill="none" stroke="#63b8ff" d="M114.61,-31.45C126.51,-28.2 138.95,-24.8 150.39,-21.68"/>
<polygon fill="#63b8ff" stroke="#63b8ff" points="151.42,-25.03 160.15,-19.02 149.58,-18.27 151.42,-25.03"/>
</a>
</g>
</g>
</g>
</svg>
