<?xml version="1.0" encoding="UTF-8" standalone="no"?>
<!DOCTYPE svg PUBLIC "-//W3C//DTD SVG 1.1//EN"
 "http://www.w3.org/Graphics/SVG/1.1/DTD/svg11.dtd">
<!-- Generated by graphviz version 12.2.1 (20241206.2353)
 -->
<!-- Title: metrics_exporter.Handler.do_GET Pages: 1 -->
<svg width="557pt" height="158pt"
 viewBox="0.00 0.00 557.00 158.12" xmlns="http://www.w3.org/2000/svg" xmlns:xlink="http://www.w3.org/1999/xlink">
<g id="graph0" class="graph" transform="scale(1 1) rotate(0) translate(4 154.12)">
<title>metrics_exporter.Handler.do_GET</title>
<!-- Node1 -->
<g id="Node000001" class="node">
<title>Node1</title>
<g id="a_Node000001"><a xlink:title=" ">
<polygon fill="#999999" stroke="#666666" points="178.75,-91.75 0,-91.75 0,-71 178.75,-71 178.75,-91.75"/>
<text text-anchor="middle" x="89.38" y="-78.25" font-family="Helvetica,sans-Serif" font-size="10.00">metrics_exporter.Handler.do_GET</text>
</a>
</g>
</g>
<!-- Node2 -->
<g id="Node000002" class="node">
<title>Node2</title>
<g id="a_Node000002"><a xlink:href="namespacemetrics__exporter.html#ab6cd6cba024cfad0fe4d6606d65f1d49" target="_top" xlink:title=" ">
<polygon fill="white" stroke="#666666" points="346.25,-150.12 221.5,-150.12 221.5,-116.62 346.25,-116.62 346.25,-150.12"/>
<text text-anchor="start" x="229.5" y="-136.62" font-family="Helvetica,sans-Serif" font-size="10.00">metrics_exporter._find</text>
<text text-anchor="middle" x="283.88" y="-123.88" font-family="Helvetica,sans-Serif" font-size="10.00">_latest_json</text>
</a>
</g>
</g>
<!-- Node1&#45;&gt;Node2 -->
<g id="edge1_Node000001_Node000002" class="edge">
<title>Node1&#45;&gt;Node2</title>
<g id="a_edge1_Node000001_Node000002"><a xlink:title=" ">
<path fill="none" stroke="#63b8ff" d="M130.26,-92.15C153.3,-98.37 182.98,-106.39 210.04,-113.7"/>
<polygon fill="#63b8ff" stroke="#63b8ff" points="209.02,-117.05 219.59,-116.28 210.85,-110.29 209.02,-117.05"/>
</a>
</g>
</g>
<!-- Node3 -->
<g id="Node000003" class="node">
<title>Node3</title>
<g id="a_Node000003"><a xlink:href="namespacemetrics__exporter.html#adede09217ca3ed9726ee590854e97c51" target="_top" xlink:title=" ">
<polygon fill="white" stroke="#666666" points="347.75,-98.12 220,-98.12 220,-64.62 347.75,-64.62 347.75,-98.12"/>
<text text-anchor="start" x="228" y="-84.62" font-family="Helvetica,sans-Serif" font-size="10.00">metrics_exporter._load</text>
<text text-anchor="middle" x="283.88" y="-71.88" font-family="Helvetica,sans-Serif" font-size="10.00">_one_json_file</text>
</a>
</g>
</g>
<!-- Node1&#45;&gt;Node3 -->
<g id="edge2_Node000001_Node000003" class="edge">
<title>Node1&#45;&gt;Node3</title>
<g id="a_edge2_Node000001_Node000003"><a xlink:title=" ">
<path fill="none" stroke="#63b8ff" d="M179.02,-81.38C188.77,-81.38 198.63,-81.38 208.18,-81.38"/>
<polygon fill="#63b8ff" stroke="#63b8ff" points="208.15,-84.88 218.15,-81.38 208.15,-77.88 208.15,-84.88"/>
</a>
</g>
</g>
<!-- Node4 -->
<g id="Node000004" class="node">
<title>Node4</title>
<g id="a_Node000004"><a xlink:href="namespacemetrics__exporter.html#a81c84bf60f85d728f2c125f3ba9419f7" target="_top" xlink:title=" ">
<polygon fill="white" stroke="#666666" points="353,-46.12 214.75,-46.12 214.75,-12.62 353,-12.62 353,-46.12"/>
<text text-anchor="start" x="222.75" y="-32.62" font-family="Helvetica,sans-Serif" font-size="10.00">metrics_exporter.collect</text>
<text text-anchor="middle" x="283.88" y="-19.88" font-family="Helvetica,sans-Serif" font-size="10.00">_metrics_from_summary</text>
</a>
</g>
</g>
<!-- Node1&#45;&gt;Node4 -->
<g id="edge3_Node000001_Node000004" class="edge">
<title>Node1&#45;&gt;Node4</title>
<g id="a_edge3_Node000001_Node000004"><a xlink:title=" ">
<path fill="none" stroke="#63b8ff" d="M130.26,-70.6C152.81,-64.51 181.74,-56.69 208.33,-49.51"/>
<polygon fill="#63b8ff" stroke="#63b8ff" points="208.97,-52.97 217.71,-46.98 207.14,-46.21 208.97,-52.97"/>
</a>
</g>
</g>
<!-- Node5 -->
<g id="Node000005" class="node">
<title>Node5</title>
<g id="a_Node000005"><a xlink:href="namespacemetrics__exporter.html#a524a69c6d1d2cb93c5395e646fd38a17" target="_top" xlink:title=" ">
<polygon fill="white" stroke="#666666" points="549,-59.75 389,-59.75 389,-39 549,-39 549,-59.75"/>
<text text-anchor="middle" x="469" y="-46.25" font-family="Helvetica,sans-Serif" font-size="10.00">metrics_exporter._gauge_line</text>
</a>
</g>
</g>
<!-- Node4&#45;&gt;Node5 -->
<g id="edge4_Node000004_Node000005" class="edge">
<title>Node4&#45;&gt;Node5</title>
<g id="a_edge4_Node000004_Node000005"><a xlink:title=" ">
<path fill="none" stroke="#63b8ff" d="M353.32,-36.85C361.13,-37.7 369.17,-38.58 377.2,-39.46"/>
<polygon fill="#63b8ff" stroke="#63b8ff" points="376.71,-42.93 387.03,-40.53 377.47,-35.97 376.71,-42.93"/>
</a>
</g>
</g>
<!-- Node6 -->
<g id="Node000006" class="node">
<title>Node6</title>
<g id="a_Node000006"><a xlink:href="namespacemetrics__exporter.html#a4a94480fb22d48f18b188821dcefad52" target="_top" xlink:title=" ">
<polygon fill="white" stroke="#666666" points="546.38,-20.75 391.62,-20.75 391.62,0 546.38,0 546.38,-20.75"/>
<text text-anchor="middle" x="469" y="-7.25" font-family="Helvetica,sans-Serif" font-size="10.00">metrics_exporter._help_type</text>
</a>
</g>
</g>
<!-- Node4&#45;&gt;Node6 -->
<g id="edge5_Node000004_Node000006" class="edge">
<title>Node4&#45;&gt;Node6</title>
<g id="a_edge5_Node000004_Node000006"><a xlink:title=" ">
<path fill="none" stroke="#63b8ff" d="M353.32,-22.27C362.04,-21.37 371.05,-20.43 380.02,-19.5"/>
<polygon fill="#63b8ff" stroke="#63b8ff" points="380.24,-23 389.82,-18.49 379.51,-16.04 380.24,-23"/>
</a>
</g>
</g>
</g>
</svg>
