<?xml version="1.0" encoding="UTF-8" standalone="no"?>
<!DOCTYPE svg PUBLIC "-//W3C//DTD SVG 1.1//EN"
 "http://www.w3.org/Graphics/SVG/1.1/DTD/svg11.dtd">
<!-- Generated by graphviz version 2.43.0 (0)
 -->
<!-- Title: test_cli_flags.CLIFeatureFlagsTests.run_cli Pages: 1 -->
<svg width="341pt" height="157pt"
 viewBox="0.00 0.00 341.00 157.00" xmlns="http://www.w3.org/2000/svg" xmlns:xlink="http://www.w3.org/1999/xlink">
<g id="graph0" class="graph" transform="scale(1 1) rotate(0) translate(4 153)">
<title>test_cli_flags.CLIFeatureFlagsTests.run_cli</title>
<!-- Node1 -->
<g id="Node000001" class="node">
<title>Node1</title>
<g id="a_Node000001"><a xlink:title=" ">
<polygon fill="#999999" stroke="#666666" points="333,-89.5 198,-89.5 198,-59.5 333,-59.5 333,-89.5"/>
<text text-anchor="start" x="206" y="-77.5" font-family="Helvetica,sans-Serif" font-size="10.00">test_cli_flags.CLIFeature</text>
<text text-anchor="middle" x="265.5" y="-66.5" font-family="Helvetica,sans-Serif" font-size="10.00">FlagsTests.run_cli</text>
</a>
</g>
</g>
<!-- Node2 -->
<g id="Node000002" class="node">
<title>Node2</title>
<g id="a_Node000002"><a xlink:href="classtest__cli__flags_1_1CLIFeatureFlagsTests.html#aedc3d56c516415af3df9737bc190cf1f" target="_top" xlink:title=" ">
<polygon fill="white" stroke="#666666" points="148.5,-149 13.5,-149 13.5,-108 148.5,-108 148.5,-149"/>
<text text-anchor="start" x="21.5" y="-137" font-family="Helvetica,sans-Serif" font-size="10.00">test_cli_flags.CLIFeature</text>
<text text-anchor="start" x="21.5" y="-126" font-family="Helvetica,sans-Serif" font-size="10.00">FlagsTests.test_affinity</text>
<text text-anchor="middle" x="81" y="-115" font-family="Helvetica,sans-Serif" font-size="10.00">_flag_no_crash</text>
</a>
</g>
</g>
<!-- Node1&#45;&gt;Node2 -->
<g id="edge1_Node000001_Node000002" class="edge">
<title>Node1&#45;&gt;Node2</title>
<g id="a_edge1_Node000001_Node000002"><a xlink:title=" ">
<path fill="none" stroke="#63b8ff" d="M204,-92.4C186.24,-97.66 166.73,-103.43 148.61,-108.79"/>
<polygon fill="#63b8ff" stroke="#63b8ff" points="205.07,-95.74 213.66,-89.54 203.08,-89.02 205.07,-95.74"/>
</a>
</g>
</g>
<!-- Node3 -->
<g id="Node000003" class="node">
<title>Node3</title>
<g id="a_Node000003"><a xlink:href="classtest__cli__flags_1_1CLIFeatureFlagsTests.html#adf6ef957a61582f453a5bba87845ec9a" target="_top" xlink:title=" ">
<polygon fill="white" stroke="#666666" points="162,-89.5 0,-89.5 0,-59.5 162,-59.5 162,-89.5"/>
<text text-anchor="start" x="8" y="-77.5" font-family="Helvetica,sans-Serif" font-size="10.00">test_cli_flags.CLIFeature</text>
<text text-anchor="middle" x="81" y="-66.5" font-family="Helvetica,sans-Serif" font-size="10.00">FlagsTests.test_precision_flag</text>
</a>
</g>
</g>
<!-- Node1&#45;&gt;Node3 -->
<g id="edge2_Node000001_Node000003" class="edge">
<title>Node1&#45;&gt;Node3</title>
<g id="a_edge2_Node000001_Node000003"><a xlink:title=" ">
<path fill="none" stroke="#63b8ff" d="M187.65,-74.5C179.21,-74.5 170.6,-74.5 162.12,-74.5"/>
<polygon fill="#63b8ff" stroke="#63b8ff" points="187.84,-78 197.84,-74.5 187.84,-71 187.84,-78"/>
</a>
</g>
</g>
<!-- Node4 -->
<g id="Node000004" class="node">
<title>Node4</title>
<g id="a_Node000004"><a xlink:href="classtest__cli__flags_1_1CLIFeatureFlagsTests.html#a043b116c611ae7089d995a5920cf23e8" target="_top" xlink:title=" ">
<polygon fill="white" stroke="#666666" points="148.5,-41 13.5,-41 13.5,0 148.5,0 148.5,-41"/>
<text text-anchor="start" x="21.5" y="-29" font-family="Helvetica,sans-Serif" font-size="10.00">test_cli_flags.CLIFeature</text>
<text text-anchor="start" x="21.5" y="-18" font-family="Helvetica,sans-Serif" font-size="10.00">FlagsTests.test_threads</text>
<text text-anchor="middle" x="81" y="-7" font-family="Helvetica,sans-Serif" font-size="10.00">_flag_accepts_values</text>
</a>
</g>
</g>
<!-- Node1&#45;&gt;Node4 -->
<g id="edge3_Node000001_Node000004" class="edge">
<title>Node1&#45;&gt;Node4</title>
<g id="a_edge3_Node000001_Node000004"><a xlink:title=" ">
<path fill="none" stroke="#63b8ff" d="M204,-56.6C186.24,-51.34 166.73,-45.57 148.61,-40.21"/>
<polygon fill="#63b8ff" stroke="#63b8ff" points="203.08,-59.98 213.66,-59.46 205.07,-53.26 203.08,-59.98"/>
</a>
</g>
</g>
</g>
</svg>
