<?xml version="1.0" encoding="UTF-8" standalone="no"?>
<!DOCTYPE svg PUBLIC "-//W3C//DTD SVG 1.1//EN"
 "http://www.w3.org/Graphics/SVG/1.1/DTD/svg11.dtd">
<!-- Generated by graphviz version 2.43.0 (0)
 -->
<!-- Title: test_harness.HarnessTests Pages: 1 -->
<svg width="148pt" height="213pt"
 viewBox="0.00 0.00 148.00 213.00" xmlns="http://www.w3.org/2000/svg" xmlns:xlink="http://www.w3.org/1999/xlink">
<g id="graph0" class="graph" transform="scale(1 1) rotate(0) translate(4 209)">
<title>test_harness.HarnessTests</title>
<!-- Node1 -->
<g id="Node000001" class="node">
<title>Node1</title>
<g id="a_Node000001"><a xlink:title=" ">
<polygon fill="#999999" stroke="transparent" points="140,-120 0,-120 0,0 140,0 140,-120"/>
<text text-anchor="start" x="5" y="-108" font-family="Helvetica,sans-Serif" font-size="10.00">test_harness.HarnessTests</text>
<text text-anchor="start" x="4.5" y="-93" font-family="Helvetica,sans-Serif" font-size="10.00">+</text>
<text text-anchor="start" x="18" y="-93" font-family="Helvetica,sans-Serif" font-size="10.00">repo_root</text>
<text text-anchor="start" x="4.5" y="-78" font-family="Helvetica,sans-Serif" font-size="10.00">+</text>
<text text-anchor="start" x="18" y="-78" font-family="Helvetica,sans-Serif" font-size="10.00">bin_path</text>
<text text-anchor="start" x="4.5" y="-63" font-family="Helvetica,sans-Serif" font-size="10.00">+</text>
<text text-anchor="start" x="18" y="-63" font-family="Helvetica,sans-Serif" font-size="10.00">reports_dir</text>
<text text-anchor="start" x="4.5" y="-48" font-family="Helvetica,sans-Serif" font-size="10.00">+</text>
<text text-anchor="start" x="18" y="-48" font-family="Helvetica,sans-Serif" font-size="10.00">harness_script</text>
<text text-anchor="start" x="4.5" y="-33" font-family="Helvetica,sans-Serif" font-size="10.00">+</text>
<text text-anchor="start" x="18" y="-33" font-family="Helvetica,sans-Serif" font-size="10.00">setUp()</text>
<text text-anchor="start" x="4.5" y="-18" font-family="Helvetica,sans-Serif" font-size="10.00">+</text>
<text text-anchor="start" x="18" y="-18" font-family="Helvetica,sans-Serif" font-size="10.00">test_harness_generates</text>
<text text-anchor="start" x="18" y="-7" font-family="Helvetica,sans-Serif" font-size="10.00">_reports()</text>
<polygon fill="#666666" stroke="#666666" points="0,-103 0,-103 140,-103 140,-103 0,-103"/>
<polygon fill="#666666" stroke="#666666" points="0,-43 0,-43 16,-43 16,-43 0,-43"/>
<polygon fill="#666666" stroke="#666666" points="16,-43 16,-43 140,-43 140,-43 16,-43"/>
<polygon fill="none" stroke="#666666" points="0,0 0,-120 140,-120 140,0 0,0"/>
</a>
</g>
</g>
<!-- Node2 -->
<g id="Node000002" class="node">
<title>Node2</title>
<g id="a_Node000002"><a xlink:title=" ">
<polygon fill="white" stroke="transparent" points="117.5,-205 22.5,-205 22.5,-156 117.5,-156 117.5,-205"/>
<text text-anchor="start" x="28" y="-192.5" font-family="Helvetica,sans-Serif" font-size="10.00">unittest.TestCase</text>
<text text-anchor="start" x="68.5" y="-177.5" font-family="Helvetica,sans-Serif" font-size="10.00"> </text>
<text text-anchor="start" x="68.5" y="-162.5" font-family="Helvetica,sans-Serif" font-size="10.00"> </text>
<polygon fill="#666666" stroke="#666666" points="23,-187.5 23,-187.5 118,-187.5 118,-187.5 23,-187.5"/>
<polygon fill="#666666" stroke="#666666" points="23,-172.5 23,-172.5 118,-172.5 118,-172.5 23,-172.5"/>
<polygon fill="none" stroke="#666666" points="22.5,-156 22.5,-205 117.5,-205 117.5,-156 22.5,-156"/>
</a>
</g>
</g>
<!-- Node2&#45;&gt;Node1 -->
<g id="edge1_Node000001_Node000002" class="edge">
<title>Node2&#45;&gt;Node1</title>
<g id="a_edge1_Node000001_Node000002"><a xlink:title=" ">
<path fill="none" stroke="#63b8ff" d="M70,-145.59C70,-137.71 70,-129.09 70,-120.47"/>
<polygon fill="none" stroke="#63b8ff" points="66.5,-145.8 70,-155.8 73.5,-145.8 66.5,-145.8"/>
</a>
</g>
</g>
</g>
</svg>
