<?xml version="1.0" encoding="UTF-8" standalone="no"?>
<!DOCTYPE svg PUBLIC "-//W3C//DTD SVG 1.1//EN"
 "http://www.w3.org/Graphics/SVG/1.1/DTD/svg11.dtd">
<!-- Generated by graphviz version 2.43.0 (0)
 -->
<!-- Title: test_cli.CLITests Pages: 1 -->
<svg width="147pt" height="183pt"
 viewBox="0.00 0.00 147.00 183.00" xmlns="http://www.w3.org/2000/svg" xmlns:xlink="http://www.w3.org/1999/xlink">
<g id="graph0" class="graph" transform="scale(1 1) rotate(0) translate(4 179)">
<title>test_cli.CLITests</title>
<!-- Node1 -->
<g id="Node000001" class="node">
<title>Node1</title>
<g id="a_Node000001"><a xlink:title=" ">
<polygon fill="#999999" stroke="transparent" points="139,-90 0,-90 0,0 139,0 139,-90"/>
<text text-anchor="start" x="30.5" y="-78" font-family="Helvetica,sans-Serif" font-size="10.00">test_cli.CLITests</text>
<text text-anchor="start" x="4.5" y="-63" font-family="Helvetica,sans-Serif" font-size="10.00">+</text>
<text text-anchor="start" x="17.5" y="-63" font-family="Helvetica,sans-Serif" font-size="10.00">repo_root</text>
<text text-anchor="start" x="4.5" y="-48" font-family="Helvetica,sans-Serif" font-size="10.00">+</text>
<text text-anchor="start" x="17.5" y="-48" font-family="Helvetica,sans-Serif" font-size="10.00">bin_path</text>
<text text-anchor="start" x="4.5" y="-33" font-family="Helvetica,sans-Serif" font-size="10.00">+</text>
<text text-anchor="start" x="17.5" y="-33" font-family="Helvetica,sans-Serif" font-size="10.00">setUp()</text>
<text text-anchor="start" x="4.5" y="-18" font-family="Helvetica,sans-Serif" font-size="10.00">+</text>
<text text-anchor="start" x="17.5" y="-18" font-family="Helvetica,sans-Serif" font-size="10.00">test_cli_runs_and_emits</text>
<text text-anchor="start" x="17.5" y="-7" font-family="Helvetica,sans-Serif" font-size="10.00">_json()</text>
<polygon fill="#666666" stroke="#666666" points="0.5,-73 0.5,-73 139.5,-73 139.5,-73 0.5,-73"/>
<polygon fill="#666666" stroke="#666666" points="0.5,-43 0.5,-43 15.5,-43 15.5,-43 0.5,-43"/>
<polygon fill="#666666" stroke="#666666" points="15.5,-43 15.5,-43 139.5,-43 139.5,-43 15.5,-43"/>
<polygon fill="none" stroke="#666666" points="0,0 0,-90 139,-90 139,0 0,0"/>
</a>
</g>
</g>
<!-- Node2 -->
<g id="Node000002" class="node">
<title>Node2</title>
<g id="a_Node000002"><a xlink:title=" ">
<polygon fill="white" stroke="transparent" points="118.5,-175 20.5,-175 20.5,-126 118.5,-126 118.5,-175"/>
<text text-anchor="start" x="25.5" y="-162.5" font-family="Helvetica,sans-Serif" font-size="10.00">unittest::TestCase</text>
<text text-anchor="start" x="67.5" y="-147.5" font-family="Helvetica,sans-Serif" font-size="10.00"> </text>
<text text-anchor="start" x="67.5" y="-132.5" font-family="Helvetica,sans-Serif" font-size="10.00"> </text>
<polygon fill="#666666" stroke="#666666" points="20.5,-157.5 20.5,-157.5 118.5,-157.5 118.5,-157.5 20.5,-157.5"/>
<polygon fill="#666666" stroke="#666666" points="20.5,-142.5 20.5,-142.5 118.5,-142.5 118.5,-142.5 20.5,-142.5"/>
<polygon fill="none" stroke="#666666" points="20.5,-126 20.5,-175 118.5,-175 118.5,-126 20.5,-126"/>
</a>
</g>
</g>
<!-- Node2&#45;&gt;Node1 -->
<g id="edge1_Node000001_Node000002" class="edge">
<title>Node2&#45;&gt;Node1</title>
<g id="a_edge1_Node000001_Node000002"><a xlink:title=" ">
<path fill="none" stroke="#63b8ff" d="M69.5,-115.62C69.5,-107.56 69.5,-98.84 69.5,-90.39"/>
<polygon fill="none" stroke="#63b8ff" points="66,-115.75 69.5,-125.76 73,-115.76 66,-115.75"/>
</a>
</g>
</g>
</g>
</svg>
