<?xml version="1.0" encoding="UTF-8" standalone="no"?>
<!DOCTYPE svg PUBLIC "-//W3C//DTD SVG 1.1//EN"
 "http://www.w3.org/Graphics/SVG/1.1/DTD/svg11.dtd">
<!-- Generated by graphviz version 2.43.0 (0)
 -->
<!-- Title: ie_cpu_features_to_string Pages: 1 -->
<!--zoomable 351 -->

<svg id="main" version="1.1" xmlns="http://www.w3.org/2000/svg" xmlns:xlink="http://www.w3.org/1999/xlink" xml:space="preserve" onload="init(evt)">
<style type="text/css"><![CDATA[
.node, .edge {opacity: 0.7;}
.node.selected, .edge.selected {opacity: 1;}
.edge:hover path { stroke: red; }
.edge:hover polygon { stroke: red; fill: red; }
]]></style>

<defs>
  <circle id="rim" cx="0" cy="0" r="7"/>
  <circle id="rim2" cx="0" cy="0" r="3.5"/>
  <g id="zoomPlus">
    <use xlink:href="#rim" fill="#404040"><set attributeName="fill" to="#808080" begin="zoomplus.mouseover" end="zoomplus.mouseout"/></use>
    <path d="M-4,0h8M0,-4v8" fill="none" stroke="white" stroke-width="1.5" pointer-events="none"/>
  </g>
  <g id="zoomMin">
    <use xlink:href="#rim" fill="#404040"><set attributeName="fill" to="#808080" begin="zoomminus.mouseover" end="zoomminus.mouseout"/></use>
    <path d="M-4,0h8" fill="none" stroke="white" stroke-width="1.5" pointer-events="none"/>
  </g>
  <g id="arrowUp" transform="translate(30 24)">
    <use xlink:href="#rim"/>
    <path pointer-events="none" fill="none" stroke="white" stroke-width="1.5" d="M0,-3.0v7 M-2.5,-0.5L0,-3.0L2.5,-0.5"/>
  </g>
  <g id="arrowRight" transform="rotate(90) translate(36 -43)">
    <use xlink:href="#rim"/>
    <path pointer-events="none" fill="none" stroke="white" stroke-width="1.5" d="M0,-3.0v7 M-2.5,-0.5L0,-3.0L2.5,-0.5"/>
  </g>
  <g id="arrowDown" transform="rotate(180) translate(-30 -48)">
    <use xlink:href="#rim"/>
    <path pointer-events="none" fill="none" stroke="white" stroke-width="1.5" d="M0,-3.0v7 M-2.5,-0.5L0,-3.0L2.5,-0.5"/>
  </g>
  <g id="arrowLeft" transform="rotate(270) translate(-36 17)">
    <use xlink:href="#rim"/>
    <path pointer-events="none" fill="none" stroke="white" stroke-width="1.5" d="M0,-3.0v7 M-2.5,-0.5L0,-3.0L2.5,-0.5"/>
  </g>
  <g id="resetDef">
    <use xlink:href="#rim2" fill="#404040"><set attributeName="fill" to="#808080" begin="reset.mouseover" end="reset.mouseout"/></use>
  </g>
</defs>
<script type="application/ecmascript">
var viewWidth = 1483;
var viewHeight = 351;
var sectionId = 'dynsection-3';
</script>
<script type="application/ecmascript" xlink:href="svg.min.js"/>
<svg id="graph" class="graph">
<g id="viewport">
<title>ie_cpu_features_to_string</title>
<!-- Node1 -->
<g id="Node000001" class="node">
<title>Node1</title>
<g id="a_Node000001"><a xlink:title="Serialize CPU features into a stable one&#45;line string.">
<polygon fill="#999999" stroke="#666666" points="1475,-188.5 1366,-188.5 1366,-158.5 1475,-158.5 1475,-188.5"/>
<text text-anchor="start" x="1374" y="-176.5" font-family="Helvetica,sans-Serif" font-size="10.00">ie_cpu_features_to</text>
<text text-anchor="middle" x="1420.5" y="-165.5" font-family="Helvetica,sans-Serif" font-size="10.00">_string</text>
</a>
</g>
</g>
<!-- Node2 -->
<g id="Node000002" class="node">
<title>Node2</title>
<g id="a_Node000002"><a xlink:href="cpu__features_8c.html#a52efeab08d996ee1bef746c591684b9d" target="_top" xlink:title="Alias for ie_cpu_detect for clearer call sites.">
<polygon fill="white" stroke="#666666" points="1330,-183 1200,-183 1200,-164 1330,-164 1330,-183"/>
<text text-anchor="middle" x="1265" y="-171" font-family="Helvetica,sans-Serif" font-size="10.00">ie_cpu_features_detect</text>
</a>
</g>
</g>
<!-- Node1&#45;&gt;Node2 -->
<g id="edge1_Node000001_Node000002" class="edge">
<title>Node1&#45;&gt;Node2</title>
<g id="a_edge1_Node000001_Node000002"><a xlink:title=" ">
<path fill="none" stroke="#63b8ff" d="M1355.68,-173.5C1347.26,-173.5 1338.63,-173.5 1330.2,-173.5"/>
<polygon fill="#63b8ff" stroke="#63b8ff" points="1355.81,-177 1365.81,-173.5 1355.81,-170 1355.81,-177"/>
</a>
</g>
</g>
<!-- Node3 -->
<g id="Node000003" class="node">
<title>Node3</title>
<g id="a_Node000003"><a xlink:href="gemv__q4__generic_8c.html#a98f4ea2f022f5dbbec384a50e332e1ff" target="_top" xlink:title="GEMV with Q4_0 weights and FP32 activations.">
<polygon fill="white" stroke="#666666" points="831.5,-25 723.5,-25 723.5,-6 831.5,-6 831.5,-25"/>
<text text-anchor="middle" x="777.5" y="-13" font-family="Helvetica,sans-Serif" font-size="10.00">ie_gemv_q4_0_f32</text>
</a>
</g>
</g>
<!-- Node2&#45;&gt;Node3 -->
<g id="edge2_Node000002_Node000003" class="edge">
<title>Node2&#45;&gt;Node3</title>
<g id="a_edge2_Node000002_Node000003"><a xlink:title=" ">
<path fill="none" stroke="#63b8ff" d="M1224.99,-160.81C1130.57,-130.08 891.34,-52.22 807.81,-25.04"/>
<polygon fill="#63b8ff" stroke="#63b8ff" points="1224.13,-164.21 1234.72,-163.97 1226.3,-157.55 1224.13,-164.21"/>
</a>
</g>
</g>
<!-- Node18 -->
<g id="Node000018" class="node">
<title>Node18</title>
<g id="a_Node000018"><a xlink:href="gemv__generic_8c.html#a1b919f71b86ec1791fe53bc68d5c240d" target="_top" xlink:title="Install the best available CPU kernels for this process.">
<polygon fill="white" stroke="#666666" points="1164,-183 1063,-183 1063,-164 1164,-164 1164,-183"/>
<text text-anchor="middle" x="1113.5" y="-171" font-family="Helvetica,sans-Serif" font-size="10.00">ie_kernels_install</text>
</a>
</g>
</g>
<!-- Node2&#45;&gt;Node18 -->
<g id="edge23_Node000002_Node000018" class="edge">
<title>Node2&#45;&gt;Node18</title>
<g id="a_edge23_Node000002_Node000018"><a xlink:title=" ">
<path fill="none" stroke="#63b8ff" d="M1189.66,-173.5C1181.05,-173.5 1172.43,-173.5 1164.27,-173.5"/>
<polygon fill="#63b8ff" stroke="#63b8ff" points="1189.73,-177 1199.73,-173.5 1189.73,-170 1189.73,-177"/>
</a>
</g>
</g>
<!-- Node31 -->
<g id="Node000031" class="node">
<title>Node31</title>
<g id="a_Node000031"><a xlink:href="ie__api_8c.html#af59b500a4172d473a75a7cacb005fe4c" target="_top" xlink:title="Get the selected Q4 GEMV kernel name for logging.">
<polygon fill="white" stroke="#666666" points="1027,-340 869,-340 869,-321 1027,-321 1027,-340"/>
<text text-anchor="middle" x="948" y="-328" font-family="Helvetica,sans-Serif" font-size="10.00">ie_q4_kernel_selected_name</text>
</a>
</g>
</g>
<!-- Node2&#45;&gt;Node31 -->
<g id="edge43_Node000002_Node000031" class="edge">
<title>Node2&#45;&gt;Node31</title>
<g id="a_edge43_Node000002_Node000031"><a xlink:title=" ">
<path fill="none" stroke="#63b8ff" d="M1241.07,-188.56C1199.71,-215.23 1109.25,-271.25 1027,-306.5 1013.85,-312.14 998.93,-317.06 985.69,-320.96"/>
<polygon fill="#63b8ff" stroke="#63b8ff" points="1243.1,-191.42 1249.59,-183.04 1239.29,-185.55 1243.1,-191.42"/>
</a>
</g>
</g>
<!-- Node4 -->
<g id="Node000004" class="node">
<title>Node4</title>
<g id="a_Node000004"><a xlink:href="ie__device__common_8c.html#a9d5e38fae37da46a4112ebdbfa83667c" target="_top" xlink:title="Execute Q4_0 GEMV on CPU using existing kernels.">
<polygon fill="white" stroke="#666666" points="678.5,-19 562.5,-19 562.5,0 678.5,0 678.5,-19"/>
<text text-anchor="middle" x="620.5" y="-7" font-family="Helvetica,sans-Serif" font-size="10.00">cpu_gemv_q4_0_f32</text>
</a>
</g>
</g>
<!-- Node3&#45;&gt;Node4 -->
<g id="edge3_Node000003_Node000004" class="edge">
<title>Node3&#45;&gt;Node4</title>
<g id="a_edge3_Node000003_Node000004"><a xlink:title=" ">
<path fill="none" stroke="#63b8ff" d="M712.89,-13.04C701.54,-12.6 689.79,-12.14 678.65,-11.71"/>
<polygon fill="#63b8ff" stroke="#63b8ff" points="713.03,-16.55 723.16,-13.44 713.3,-9.55 713.03,-16.55"/>
</a>
</g>
</g>
<!-- Node12 -->
<g id="Node000012" class="node">
<title>Node12</title>
<g id="a_Node000012"><a xlink:href="infer__gptoss_8c.html#a463151430d9b4dce6eae9210c3c598f0" target="_top" xlink:title=" ">
<polygon fill="white" stroke="#666666" points="682.5,-56 558.5,-56 558.5,-37 682.5,-37 682.5,-56"/>
<text text-anchor="middle" x="620.5" y="-44" font-family="Helvetica,sans-Serif" font-size="10.00">ie_forward_one_token</text>
</a>
</g>
</g>
<!-- Node3&#45;&gt;Node12 -->
<g id="edge12_Node000003_Node000012" class="edge">
<title>Node3&#45;&gt;Node12</title>
<g id="a_edge12_Node000003_Node000012"><a xlink:title=" ">
<path fill="none" stroke="#63b8ff" d="M718.74,-27.05C702.39,-30.32 684.79,-33.84 669.11,-36.98"/>
<polygon fill="#63b8ff" stroke="#63b8ff" points="719.61,-30.45 728.73,-25.05 718.24,-23.58 719.61,-30.45"/>
</a>
</g>
</g>
<!-- Node5 -->
<g id="Node000005" class="node">
<title>Node5</title>
<g id="a_Node000005"><a xlink:href="ie__device__common_8c.html#a3e42fcc4b9579a9bf14520cb1afe733b" target="_top" xlink:title="Create a device handle for the requested kind (with fallback).">
<polygon fill="white" stroke="#666666" points="505,-130 406,-130 406,-111 505,-111 505,-130"/>
<text text-anchor="middle" x="455.5" y="-118" font-family="Helvetica,sans-Serif" font-size="10.00">ie_device_create</text>
</a>
</g>
</g>
<!-- Node4&#45;&gt;Node5 -->
<g id="edge4_Node000004_Node000005" class="edge">
<title>Node4&#45;&gt;Node5</title>
<g id="a_edge4_Node000004_Node000005"><a xlink:title=" ">
<path fill="none" stroke="#63b8ff" d="M559.85,-23.9C558.16,-25.02 556.54,-26.21 555,-27.5 526.67,-51.25 547.24,-78.63 519,-102.5 514.86,-106 510.08,-108.82 505.03,-111.09"/>
<polygon fill="#63b8ff" stroke="#63b8ff" points="561.67,-26.9 568.77,-19.03 558.32,-20.75 561.67,-26.9"/>
</a>
</g>
</g>
<!-- Node6 -->
<g id="Node000006" class="node">
<title>Node6</title>
<g id="a_Node000006"><a xlink:href="ie__api_8c.html#a84bd87043352946e9d53b0f8a5c4abe0" target="_top" xlink:title="Create an engine instance.">
<polygon fill="white" stroke="#666666" points="341,-167 241,-167 241,-148 341,-148 341,-167"/>
<text text-anchor="middle" x="291" y="-155" font-family="Helvetica,sans-Serif" font-size="10.00">ie_engine_create</text>
</a>
</g>
</g>
<!-- Node5&#45;&gt;Node6 -->
<g id="edge5_Node000005_Node000006" class="edge">
<title>Node5&#45;&gt;Node6</title>
<g id="a_edge5_Node000005_Node000006"><a xlink:title=" ">
<path fill="none" stroke="#63b8ff" d="M402.73,-132.29C380.54,-137.34 354.97,-143.16 333.99,-147.94"/>
<polygon fill="#63b8ff" stroke="#63b8ff" points="403.68,-135.66 412.65,-130.03 402.12,-128.84 403.68,-135.66"/>
</a>
</g>
</g>
<!-- Node9 -->
<g id="Node000009" class="node">
<title>Node9</title>
<g id="a_Node000009"><a xlink:href="test__device_8c.html#a7b62f3db43117555c60ec59d19c7c8d6" target="_top" xlink:title="Verify CPU device exposes GEMV capability.">
<polygon fill="white" stroke="#666666" points="334,-93 248,-93 248,-74 334,-74 334,-93"/>
<text text-anchor="middle" x="291" y="-81" font-family="Helvetica,sans-Serif" font-size="10.00">test_cpu_caps</text>
</a>
</g>
</g>
<!-- Node5&#45;&gt;Node9 -->
<g id="edge8_Node000005_Node000009" class="edge">
<title>Node5&#45;&gt;Node9</title>
<g id="a_edge8_Node000005_Node000009"><a xlink:title=" ">
<path fill="none" stroke="#63b8ff" d="M402.73,-108.71C380.54,-103.66 354.97,-97.84 333.99,-93.06"/>
<polygon fill="#63b8ff" stroke="#63b8ff" points="402.12,-112.16 412.65,-110.97 403.68,-105.34 402.12,-112.16"/>
</a>
</g>
</g>
<!-- Node11 -->
<g id="Node000011" class="node">
<title>Node11</title>
<g id="a_Node000011"><a xlink:href="test__device_8c.html#a548e6227513ac3fd772219dad3b0de22" target="_top" xlink:title="Ensure GPU request gracefully falls back to a working GEMV.">
<polygon fill="white" stroke="#666666" points="342.5,-130 239.5,-130 239.5,-111 342.5,-111 342.5,-130"/>
<text text-anchor="middle" x="291" y="-118" font-family="Helvetica,sans-Serif" font-size="10.00">test_gpu_fallback</text>
</a>
</g>
</g>
<!-- Node5&#45;&gt;Node11 -->
<g id="edge10_Node000005_Node000011" class="edge">
<title>Node5&#45;&gt;Node11</title>
<g id="a_edge10_Node000005_Node000011"><a xlink:title=" ">
<path fill="none" stroke="#63b8ff" d="M395.72,-120.5C378.35,-120.5 359.5,-120.5 342.69,-120.5"/>
<polygon fill="#63b8ff" stroke="#63b8ff" points="395.74,-124 405.74,-120.5 395.74,-117 395.74,-124"/>
</a>
</g>
</g>
<!-- Node7 -->
<g id="Node000007" class="node">
<title>Node7</title>
<g id="a_Node000007"><a xlink:href="main__infer_8c.html#a3c04138a5bfe5d72780bb7e82a18e627" target="_top" xlink:title="main.">
<polygon fill="white" stroke="#666666" points="41,-57 0,-57 0,-38 41,-38 41,-57"/>
<text text-anchor="middle" x="20.5" y="-45" font-family="Helvetica,sans-Serif" font-size="10.00">main</text>
</a>
</g>
</g>
<!-- Node6&#45;&gt;Node7 -->
<g id="edge6_Node000006_Node000007" class="edge">
<title>Node6&#45;&gt;Node7</title>
<g id="a_edge6_Node000006_Node000007"><a xlink:title=" ">
<path fill="none" stroke="#63b8ff" d="M237.5,-145.74C179.07,-132.4 90.97,-111.48 77,-103.5 56.32,-91.68 38.11,-70.06 28.57,-57.42"/>
<polygon fill="#63b8ff" stroke="#63b8ff" points="236.79,-149.17 247.32,-147.97 238.35,-142.34 236.79,-149.17"/>
</a>
</g>
</g>
<!-- Node8 -->
<g id="Node000008" class="node">
<title>Node8</title>
<g id="a_Node000008"><a xlink:href="test__api_8c.html#a840291bc02cba5474a4cb46a9b9566fe" target="_top" xlink:title=" ">
<polygon fill="white" stroke="#666666" points="41,-132 0,-132 0,-113 41,-113 41,-132"/>
<text text-anchor="middle" x="20.5" y="-120" font-family="Helvetica,sans-Serif" font-size="10.00">main</text>
</a>
</g>
</g>
<!-- Node6&#45;&gt;Node8 -->
<g id="edge7_Node000006_Node000008" class="edge">
<title>Node6&#45;&gt;Node8</title>
<g id="a_edge7_Node000006_Node000008"><a xlink:title=" ">
<path fill="none" stroke="#63b8ff" d="M230.66,-154.03C187.75,-150.94 128.51,-145.48 77,-136.5 64.96,-134.4 51.68,-131.09 41.13,-128.21"/>
<polygon fill="#63b8ff" stroke="#63b8ff" points="230.43,-157.52 240.65,-154.72 230.92,-150.54 230.43,-157.52"/>
</a>
</g>
</g>
<!-- Node10 -->
<g id="Node000010" class="node">
<title>Node10</title>
<g id="a_Node000010"><a xlink:href="test__device_8c.html#a840291bc02cba5474a4cb46a9b9566fe" target="_top" xlink:title="Test entry point.">
<polygon fill="white" stroke="#666666" points="154,-94 113,-94 113,-75 154,-75 154,-94"/>
<text text-anchor="middle" x="133.5" y="-82" font-family="Helvetica,sans-Serif" font-size="10.00">main</text>
</a>
</g>
</g>
<!-- Node9&#45;&gt;Node10 -->
<g id="edge9_Node000009_Node000010" class="edge">
<title>Node9&#45;&gt;Node10</title>
<g id="a_edge9_Node000009_Node000010"><a xlink:title=" ">
<path fill="none" stroke="#63b8ff" d="M237.64,-83.84C209.03,-84.02 175.26,-84.24 154.36,-84.37"/>
<polygon fill="#63b8ff" stroke="#63b8ff" points="237.94,-87.33 247.92,-83.77 237.9,-80.34 237.94,-87.33"/>
</a>
</g>
</g>
<!-- Node11&#45;&gt;Node10 -->
<g id="edge11_Node000011_Node000010" class="edge">
<title>Node11&#45;&gt;Node10</title>
<g id="a_edge11_Node000011_Node000010"><a xlink:title=" ">
<path fill="none" stroke="#63b8ff" d="M238.76,-108.64C209.82,-101.94 175.31,-93.95 154.16,-89.05"/>
<polygon fill="#63b8ff" stroke="#63b8ff" points="238.21,-112.1 248.74,-110.95 239.78,-105.28 238.21,-112.1"/>
</a>
</g>
</g>
<!-- Node13 -->
<g id="Node000013" class="node">
<title>Node13</title>
<g id="a_Node000013"><a xlink:href="infer__gptoss_8c.html#a39827a388a0b7dd6d161e99b111c5546" target="_top" xlink:title="Prefill: consume a prompt, update the KV cache, and produce logits.">
<polygon fill="white" stroke="#666666" points="517.5,-56 393.5,-56 393.5,-37 517.5,-37 517.5,-56"/>
<text text-anchor="middle" x="455.5" y="-44" font-family="Helvetica,sans-Serif" font-size="10.00">ie_gptoss_infer_prefill</text>
</a>
</g>
</g>
<!-- Node12&#45;&gt;Node13 -->
<g id="edge13_Node000012_Node000013" class="edge">
<title>Node12&#45;&gt;Node13</title>
<g id="a_edge13_Node000012_Node000013"><a xlink:title=" ">
<path fill="none" stroke="#63b8ff" d="M548.26,-46.5C538.09,-46.5 527.69,-46.5 517.73,-46.5"/>
<polygon fill="#63b8ff" stroke="#63b8ff" points="548.34,-50 558.34,-46.5 548.34,-43 548.34,-50"/>
</a>
</g>
</g>
<!-- Node17 -->
<g id="Node000017" class="node">
<title>Node17</title>
<g id="a_Node000017"><a xlink:href="infer__gptoss_8c.html#a52a0e33daf64ca5524b6440cecc8d2f6" target="_top" xlink:title="Step: consume one token, update the KV cache, and produce next logits.">
<polygon fill="white" stroke="#666666" points="514,-19 397,-19 397,0 514,0 514,-19"/>
<text text-anchor="middle" x="455.5" y="-7" font-family="Helvetica,sans-Serif" font-size="10.00">ie_gptoss_infer_step</text>
</a>
</g>
</g>
<!-- Node12&#45;&gt;Node17 -->
<g id="edge20_Node000012_Node000017" class="edge">
<title>Node12&#45;&gt;Node17</title>
<g id="a_edge20_Node000012_Node000017"><a xlink:title=" ">
<path fill="none" stroke="#63b8ff" d="M567.57,-34.71C545.31,-29.66 519.66,-23.84 498.62,-19.06"/>
<polygon fill="#63b8ff" stroke="#63b8ff" points="567,-38.17 577.52,-36.97 568.55,-31.34 567,-38.17"/>
</a>
</g>
</g>
<!-- Node14 -->
<g id="Node000014" class="node">
<title>Node14</title>
<g id="a_Node000014"><a xlink:href="ie__api_8c.html#a950ac9a0efe5a4fe068a288e57099c4a" target="_top" xlink:title="Generate tokens and optionally return timing statistics.">
<polygon fill="white" stroke="#666666" points="356,-19 226,-19 226,0 356,0 356,-19"/>
<text text-anchor="middle" x="291" y="-7" font-family="Helvetica,sans-Serif" font-size="10.00">ie_engine_generate_ex</text>
</a>
</g>
</g>
<!-- Node13&#45;&gt;Node14 -->
<g id="edge14_Node000013_Node000014" class="edge">
<title>Node13&#45;&gt;Node14</title>
<g id="a_edge14_Node000013_Node000014"><a xlink:title=" ">
<path fill="none" stroke="#63b8ff" d="M402.73,-34.71C380.54,-29.66 354.97,-23.84 333.99,-19.06"/>
<polygon fill="#63b8ff" stroke="#63b8ff" points="402.12,-38.16 412.65,-36.97 403.68,-31.34 402.12,-38.16"/>
</a>
</g>
</g>
<!-- Node16 -->
<g id="Node000016" class="node">
<title>Node16</title>
<g id="a_Node000016"><a xlink:href="generate__gptoss_8c.html#a69606d6441b5c86670cfcc955721a308" target="_top" xlink:title="Generate up to max_new tokens for a prompt string using GPT&#45;OSS.">
<polygon fill="white" stroke="#666666" points="347,-56 235,-56 235,-37 347,-37 347,-56"/>
<text text-anchor="middle" x="291" y="-44" font-family="Helvetica,sans-Serif" font-size="10.00">ie_generate_gptoss</text>
</a>
</g>
</g>
<!-- Node13&#45;&gt;Node16 -->
<g id="edge19_Node000013_Node000016" class="edge">
<title>Node13&#45;&gt;Node16</title>
<g id="a_edge19_Node000013_Node000016"><a xlink:title=" ">
<path fill="none" stroke="#63b8ff" d="M383.04,-46.5C371,-46.5 358.66,-46.5 347.11,-46.5"/>
<polygon fill="#63b8ff" stroke="#63b8ff" points="383.07,-50 393.07,-46.5 383.07,-43 383.07,-50"/>
</a>
</g>
</g>
<!-- Node14&#45;&gt;Node7 -->
<g id="edge18_Node000014_Node000007" class="edge">
<title>Node14&#45;&gt;Node7</title>
<g id="a_edge18_Node000014_Node000007"><a xlink:title=" ">
<path fill="none" stroke="#63b8ff" d="M215.33,-11.76C174.17,-14.1 122.36,-18.86 77,-28.5 64.85,-31.08 51.67,-35.52 41.21,-39.46"/>
<polygon fill="#63b8ff" stroke="#63b8ff" points="215.76,-15.24 225.56,-11.22 215.38,-8.25 215.76,-15.24"/>
</a>
</g>
</g>
<!-- Node15 -->
<g id="Node000015" class="node">
<title>Node15</title>
<g id="a_Node000015"><a xlink:href="ie__api_8c.html#ad32cf2cd209832e4cd577a5a1e31970f" target="_top" xlink:title="Generate up to max_new tokens for the given prompt.">
<polygon fill="white" stroke="#666666" points="190,-57 77,-57 77,-38 190,-38 190,-57"/>
<text text-anchor="middle" x="133.5" y="-45" font-family="Helvetica,sans-Serif" font-size="10.00">ie_engine_generate</text>
</a>
</g>
</g>
<!-- Node14&#45;&gt;Node15 -->
<g id="edge15_Node000014_Node000015" class="edge">
<title>Node14&#45;&gt;Node15</title>
<g id="a_edge15_Node000014_Node000015"><a xlink:title=" ">
<path fill="none" stroke="#63b8ff" d="M241.03,-21.47C219.23,-26.79 193.93,-32.98 173.46,-37.98"/>
<polygon fill="#63b8ff" stroke="#63b8ff" points="241.88,-24.86 250.76,-19.09 240.22,-18.06 241.88,-24.86"/>
</a>
</g>
</g>
<!-- Node15&#45;&gt;Node7 -->
<g id="edge16_Node000015_Node000007" class="edge">
<title>Node15&#45;&gt;Node7</title>
<g id="a_edge16_Node000015_Node000007"><a xlink:title=" ">
<path fill="none" stroke="#63b8ff" d="M66.58,-47.5C57.37,-47.5 48.56,-47.5 41.21,-47.5"/>
<polygon fill="#63b8ff" stroke="#63b8ff" points="66.67,-51 76.67,-47.5 66.67,-44 66.67,-51"/>
</a>
</g>
</g>
<!-- Node15&#45;&gt;Node8 -->
<g id="edge17_Node000015_Node000008" class="edge">
<title>Node15&#45;&gt;Node8</title>
<g id="a_edge17_Node000015_Node000008"><a xlink:title=" ">
<path fill="none" stroke="#63b8ff" d="M85.29,-61C82.41,-62.37 79.63,-63.87 77,-65.5 56.59,-78.19 38.28,-99.96 28.65,-112.61"/>
<polygon fill="#63b8ff" stroke="#63b8ff" points="86.83,-64.14 94.67,-57.02 84.1,-57.7 86.83,-64.14"/>
</a>
</g>
</g>
<!-- Node17&#45;&gt;Node14 -->
<g id="edge21_Node000017_Node000014" class="edge">
<title>Node17&#45;&gt;Node14</title>
<g id="a_edge21_Node000017_Node000014"><a xlink:title=" ">
<path fill="none" stroke="#63b8ff" d="M386.44,-9.5C376.42,-9.5 366.13,-9.5 356.2,-9.5"/>
<polygon fill="#63b8ff" stroke="#63b8ff" points="386.75,-13 396.75,-9.5 386.75,-6 386.75,-13"/>
</a>
</g>
</g>
<!-- Node17&#45;&gt;Node16 -->
<g id="edge22_Node000017_Node000016" class="edge">
<title>Node17&#45;&gt;Node16</title>
<g id="a_edge22_Node000017_Node000016"><a xlink:title=" ">
<path fill="none" stroke="#63b8ff" d="M402.73,-21.29C380.54,-26.34 354.97,-32.16 333.99,-36.94"/>
<polygon fill="#63b8ff" stroke="#63b8ff" points="403.68,-24.66 412.65,-19.03 402.12,-17.84 403.68,-24.66"/>
</a>
</g>
</g>
<!-- Node19 -->
<g id="Node000019" class="node">
<title>Node19</title>
<g id="a_Node000019"><a xlink:href="gemv__generic_8c.html#afcee3c04ff97cb24bf4d3d84cbe1b9e7" target="_top" xlink:title=" ">
<polygon fill="white" stroke="#666666" points="1004.5,-136 891.5,-136 891.5,-117 1004.5,-117 1004.5,-136"/>
<text text-anchor="middle" x="948" y="-124" font-family="Helvetica,sans-Serif" font-size="10.00">ie_kernels_lazy_init</text>
</a>
</g>
</g>
<!-- Node18&#45;&gt;Node19 -->
<g id="edge24_Node000018_Node000019" class="edge">
<title>Node18&#45;&gt;Node19</title>
<g id="a_edge24_Node000018_Node000019"><a xlink:title=" ">
<path fill="none" stroke="#63b8ff" d="M1069.73,-161.21C1042.43,-153.36 1007.56,-143.33 982.32,-136.08"/>
<polygon fill="#63b8ff" stroke="#63b8ff" points="1068.84,-164.59 1079.41,-163.99 1070.77,-157.86 1068.84,-164.59"/>
</a>
</g>
</g>
<!-- Node25 -->
<g id="Node000025" class="node">
<title>Node25</title>
<g id="a_Node000025"><a xlink:href="test__kernels_8c.html#a840291bc02cba5474a4cb46a9b9566fe" target="_top" xlink:title="Program entry: run all kernel tests and print &quot;ok test_kernels&quot; on success.">
<polygon fill="white" stroke="#666666" points="476,-259 435,-259 435,-240 476,-240 476,-259"/>
<text text-anchor="middle" x="455.5" y="-247" font-family="Helvetica,sans-Serif" font-size="10.00">main</text>
</a>
</g>
</g>
<!-- Node18&#45;&gt;Node25 -->
<g id="edge42_Node000018_Node000025" class="edge">
<title>Node18&#45;&gt;Node25</title>
<g id="a_edge42_Node000018_Node000025"><a xlink:title=" ">
<path fill="none" stroke="#63b8ff" d="M1072.74,-186.08C997.97,-208.99 830.85,-256.75 686,-273.5 628.16,-280.19 612.81,-280.44 555,-273.5 527.21,-270.16 495.95,-261.71 476.24,-255.79"/>
<polygon fill="#63b8ff" stroke="#63b8ff" points="1074.15,-189.3 1082.67,-183.01 1072.08,-182.62 1074.15,-189.3"/>
</a>
</g>
</g>
<!-- Node20 -->
<g id="Node000020" class="node">
<title>Node20</title>
<g id="a_Node000020"><a xlink:href="gemv__generic_8c.html#a9af71dd562560ec249ffd6cf70013282" target="_top" xlink:title="GEMV with BF16 weights and FP32 activations.">
<polygon fill="white" stroke="#666666" points="831,-62 724,-62 724,-43 831,-43 831,-62"/>
<text text-anchor="middle" x="777.5" y="-50" font-family="Helvetica,sans-Serif" font-size="10.00">ie_gemv_bf16_f32</text>
</a>
</g>
</g>
<!-- Node19&#45;&gt;Node20 -->
<g id="edge25_Node000019_Node000020" class="edge">
<title>Node19&#45;&gt;Node20</title>
<g id="a_edge25_Node000019_Node000020"><a xlink:title=" ">
<path fill="none" stroke="#63b8ff" d="M920.13,-111.99C897.33,-100 863.54,-82.98 833,-70.5 825.62,-67.49 817.53,-64.6 809.9,-62.05"/>
<polygon fill="#63b8ff" stroke="#63b8ff" points="918.71,-115.2 929.19,-116.79 921.99,-109.02 918.71,-115.2"/>
</a>
</g>
</g>
<!-- Node21 -->
<g id="Node000021" class="node">
<title>Node21</title>
<g id="a_Node000021"><a xlink:href="gemv__generic_8c.html#a0416d116aabe509598e8a1aaf31a0f55" target="_top" xlink:title="GEMV (fp32): y[r] = dot(W[r,:], x) + (bias ? bias[r] : 0).">
<polygon fill="white" stroke="#666666" points="817.5,-173 737.5,-173 737.5,-154 817.5,-154 817.5,-173"/>
<text text-anchor="middle" x="777.5" y="-161" font-family="Helvetica,sans-Serif" font-size="10.00">ie_gemv_f32</text>
</a>
</g>
</g>
<!-- Node19&#45;&gt;Node21 -->
<g id="edge27_Node000019_Node000021" class="edge">
<title>Node19&#45;&gt;Node21</title>
<g id="a_edge27_Node000019_Node000021"><a xlink:title=" ">
<path fill="none" stroke="#63b8ff" d="M893.68,-138.21C869.05,-143.62 840.32,-149.93 817.71,-154.89"/>
<polygon fill="#63b8ff" stroke="#63b8ff" points="894.59,-141.59 903.61,-136.03 893.09,-134.75 894.59,-141.59"/>
</a>
</g>
</g>
<!-- Node27 -->
<g id="Node000027" class="node">
<title>Node27</title>
<g id="a_Node000027"><a xlink:href="gemv__generic_8c.html#aae594bb0a2442c97c665ac2f42b9993c" target="_top" xlink:title=" ">
<polygon fill="white" stroke="#666666" points="817,-136 738,-136 738,-117 817,-117 817,-136"/>
<text text-anchor="middle" x="777.5" y="-124" font-family="Helvetica,sans-Serif" font-size="10.00">ie_gemv_qi8</text>
</a>
</g>
</g>
<!-- Node19&#45;&gt;Node27 -->
<g id="edge36_Node000019_Node000027" class="edge">
<title>Node19&#45;&gt;Node27</title>
<g id="a_edge36_Node000019_Node000027"><a xlink:title=" ">
<path fill="none" stroke="#63b8ff" d="M881.19,-126.5C859.48,-126.5 836.04,-126.5 817.04,-126.5"/>
<polygon fill="#63b8ff" stroke="#63b8ff" points="881.36,-130 891.36,-126.5 881.36,-123 881.36,-130"/>
</a>
</g>
</g>
<!-- Node28 -->
<g id="Node000028" class="node">
<title>Node28</title>
<g id="a_Node000028"><a xlink:href="gemv__generic_8c.html#a782b7a53732be7ae0a2f0eb663e36321" target="_top" xlink:title="Convert BF16 vector to FP32.">
<polygon fill="white" stroke="#666666" points="833,-99 722,-99 722,-80 833,-80 833,-99"/>
<text text-anchor="middle" x="777.5" y="-87" font-family="Helvetica,sans-Serif" font-size="10.00">ie_vec_bf16_to_f32</text>
</a>
</g>
</g>
<!-- Node19&#45;&gt;Node28 -->
<g id="edge37_Node000019_Node000028" class="edge">
<title>Node19&#45;&gt;Node28</title>
<g id="a_edge37_Node000019_Node000028"><a xlink:title=" ">
<path fill="none" stroke="#63b8ff" d="M893.63,-114.78C870.55,-109.71 843.89,-103.86 822.04,-99.06"/>
<polygon fill="#63b8ff" stroke="#63b8ff" points="893.09,-118.25 903.61,-116.97 894.59,-111.41 893.09,-118.25"/>
</a>
</g>
</g>
<!-- Node20&#45;&gt;Node12 -->
<g id="edge26_Node000020_Node000012" class="edge">
<title>Node20&#45;&gt;Node12</title>
<g id="a_edge26_Node000020_Node000012"><a xlink:title=" ">
<path fill="none" stroke="#63b8ff" d="M713.55,-50.06C703.37,-49.67 692.85,-49.26 682.71,-48.87"/>
<polygon fill="#63b8ff" stroke="#63b8ff" points="713.46,-53.56 723.59,-50.45 713.73,-46.57 713.46,-53.56"/>
</a>
</g>
</g>
<!-- Node21&#45;&gt;Node12 -->
<g id="edge30_Node000021_Node000012" class="edge">
<title>Node21&#45;&gt;Node12</title>
<g id="a_edge30_Node000021_Node000012"><a xlink:title=" ">
<path fill="none" stroke="#63b8ff" d="M728.29,-150.27C726.05,-148.84 723.94,-147.26 722,-145.5 692.8,-119.06 715.82,-90.25 686,-64.5 682.04,-61.08 677.48,-58.31 672.65,-56.06"/>
<polygon fill="#63b8ff" stroke="#63b8ff" points="726.89,-153.49 737.37,-155.06 730.16,-147.3 726.89,-153.49"/>
</a>
</g>
</g>
<!-- Node22 -->
<g id="Node000022" class="node">
<title>Node22</title>
<g id="a_Node000022"><a xlink:href="ie__device__common_8c.html#a4fb9bb01bfbe71517f9df925ba9c93ec" target="_top" xlink:title="Execute dense GEMV FP32 on CPU using existing kernels.">
<polygon fill="white" stroke="#666666" points="664.5,-130 576.5,-130 576.5,-111 664.5,-111 664.5,-130"/>
<text text-anchor="middle" x="620.5" y="-118" font-family="Helvetica,sans-Serif" font-size="10.00">cpu_gemv_f32</text>
</a>
</g>
</g>
<!-- Node21&#45;&gt;Node22 -->
<g id="edge28_Node000021_Node000022" class="edge">
<title>Node21&#45;&gt;Node22</title>
<g id="a_edge28_Node000021_Node000022"><a xlink:title=" ">
<path fill="none" stroke="#63b8ff" d="M732.39,-151.26C708.09,-144.52 678.36,-136.27 655.8,-130.02"/>
<polygon fill="#63b8ff" stroke="#63b8ff" points="731.53,-154.66 742.1,-153.96 733.4,-147.91 731.53,-154.66"/>
</a>
</g>
</g>
<!-- Node23 -->
<g id="Node000023" class="node">
<title>Node23</title>
<g id="a_Node000023"><a xlink:href="mlp__cpu_8c.html#a8a3953a6293e3c65e33e01b746d9b0a2" target="_top" xlink:title="SwiGLU MLP forward (FP32 reference).">
<polygon fill="white" stroke="#666666" points="685.5,-216 555.5,-216 555.5,-197 685.5,-197 685.5,-216"/>
<text text-anchor="middle" x="620.5" y="-204" font-family="Helvetica,sans-Serif" font-size="10.00">ie_mlp_cpu_swiglu_f32</text>
</a>
</g>
</g>
<!-- Node21&#45;&gt;Node23 -->
<g id="edge31_Node000021_Node000023" class="edge">
<title>Node21&#45;&gt;Node23</title>
<g id="a_edge31_Node000021_Node000023"><a xlink:title=" ">
<path fill="none" stroke="#63b8ff" d="M732.39,-175.74C708.09,-182.48 678.36,-190.73 655.8,-196.98"/>
<polygon fill="#63b8ff" stroke="#63b8ff" points="733.4,-179.09 742.1,-173.04 731.53,-172.34 733.4,-179.09"/>
</a>
</g>
</g>
<!-- Node24 -->
<g id="Node000024" class="node">
<title>Node24</title>
<g id="a_Node000024"><a xlink:href="test__kernels_8c.html#a0ac9b0c3b1d865ef69bd2bc69d14a685" target="_top" xlink:title="Test: GEMV without bias, row&#45;major, blk_k=0.">
<polygon fill="white" stroke="#666666" points="680.5,-178.5 560.5,-178.5 560.5,-148.5 680.5,-148.5 680.5,-178.5"/>
<text text-anchor="start" x="568.5" y="-166.5" font-family="Helvetica,sans-Serif" font-size="10.00">test_gemv_rowmajor</text>
<text text-anchor="middle" x="620.5" y="-155.5" font-family="Helvetica,sans-Serif" font-size="10.00">_no_bias</text>
</a>
</g>
</g>
<!-- Node21&#45;&gt;Node24 -->
<g id="edge32_Node000021_Node000024" class="edge">
<title>Node21&#45;&gt;Node24</title>
<g id="a_edge32_Node000021_Node000024"><a xlink:title=" ">
<path fill="none" stroke="#63b8ff" d="M727.38,-163.5C712.5,-163.5 696,-163.5 680.54,-163.5"/>
<polygon fill="#63b8ff" stroke="#63b8ff" points="727.39,-167 737.39,-163.5 727.39,-160 727.39,-167"/>
</a>
</g>
</g>
<!-- Node26 -->
<g id="Node000026" class="node">
<title>Node26</title>
<g id="a_Node000026"><a xlink:href="test__kernels_8c.html#a2305be22b4279f3ac4d55f90584569cb" target="_top" xlink:title="Test: GEMV with bias epilogue, row&#45;major, blk_k=0.">
<polygon fill="white" stroke="#666666" points="680.5,-264.5 560.5,-264.5 560.5,-234.5 680.5,-234.5 680.5,-264.5"/>
<text text-anchor="start" x="568.5" y="-252.5" font-family="Helvetica,sans-Serif" font-size="10.00">test_gemv_rowmajor</text>
<text text-anchor="middle" x="620.5" y="-241.5" font-family="Helvetica,sans-Serif" font-size="10.00">_with_bias</text>
</a>
</g>
</g>
<!-- Node21&#45;&gt;Node26 -->
<g id="edge34_Node000021_Node000026" class="edge">
<title>Node21&#45;&gt;Node26</title>
<g id="a_edge34_Node000021_Node000026"><a xlink:title=" ">
<path fill="none" stroke="#63b8ff" d="M756.59,-179.26C738.82,-192.79 711.72,-212.16 686,-225.5 679.85,-228.69 673.17,-231.67 666.53,-234.36"/>
<polygon fill="#63b8ff" stroke="#63b8ff" points="758.74,-182.02 764.51,-173.13 754.46,-176.48 758.74,-182.02"/>
</a>
</g>
</g>
<!-- Node22&#45;&gt;Node5 -->
<g id="edge29_Node000022_Node000005" class="edge">
<title>Node22&#45;&gt;Node5</title>
<g id="a_edge29_Node000022_Node000005"><a xlink:title=" ">
<path fill="none" stroke="#63b8ff" d="M566.22,-120.5C546.55,-120.5 524.37,-120.5 505.14,-120.5"/>
<polygon fill="#63b8ff" stroke="#63b8ff" points="566.25,-124 576.25,-120.5 566.25,-117 566.25,-124"/>
</a>
</g>
</g>
<!-- Node24&#45;&gt;Node25 -->
<g id="edge33_Node000024_Node000025" class="edge">
<title>Node24&#45;&gt;Node25</title>
<g id="a_edge33_Node000024_Node000025"><a xlink:title=" ">
<path fill="none" stroke="#63b8ff" d="M568.14,-182.41C563.65,-184.36 559.21,-186.4 555,-188.5 523.31,-204.28 488.64,-227.2 470.06,-239.98"/>
<polygon fill="#63b8ff" stroke="#63b8ff" points="569.51,-185.63 577.38,-178.53 566.8,-179.17 569.51,-185.63"/>
</a>
</g>
</g>
<!-- Node26&#45;&gt;Node25 -->
<g id="edge35_Node000026_Node000025" class="edge">
<title>Node26&#45;&gt;Node25</title>
<g id="a_edge35_Node000026_Node000025"><a xlink:title=" ">
<path fill="none" stroke="#63b8ff" d="M550.03,-249.5C523.23,-249.5 494.66,-249.5 476.25,-249.5"/>
<polygon fill="#63b8ff" stroke="#63b8ff" points="550.19,-253 560.19,-249.5 550.19,-246 550.19,-253"/>
</a>
</g>
</g>
<!-- Node29 -->
<g id="Node000029" class="node">
<title>Node29</title>
<g id="a_Node000029"><a xlink:href="infer__gptoss_8c.html#a3f5367f4da6656ff7ce2107ed7b9f8d2" target="_top" xlink:title="Allocate and convert BF16 weights to FP32.">
<polygon fill="white" stroke="#666666" points="686,-93 555,-93 555,-74 686,-74 686,-93"/>
<text text-anchor="middle" x="620.5" y="-81" font-family="Helvetica,sans-Serif" font-size="10.00">ie_alloc_f32_from_bf16</text>
</a>
</g>
</g>
<!-- Node28&#45;&gt;Node29 -->
<g id="edge38_Node000028_Node000029" class="edge">
<title>Node28&#45;&gt;Node29</title>
<g id="a_edge38_Node000028_Node000029"><a xlink:title=" ">
<path fill="none" stroke="#63b8ff" d="M711.64,-86.99C703.16,-86.66 694.47,-86.32 686,-86"/>
<polygon fill="#63b8ff" stroke="#63b8ff" points="711.72,-90.5 721.85,-87.38 712,-83.5 711.72,-90.5"/>
</a>
</g>
</g>
<!-- Node30 -->
<g id="Node000030" class="node">
<title>Node30</title>
<g id="a_Node000030"><a xlink:href="infer__gptoss_8c.html#a1eb484ef476fc9b7a44d3819959fb307" target="_top" xlink:title="Create an inference context.">
<polygon fill="white" stroke="#666666" points="519,-93 392,-93 392,-74 519,-74 519,-93"/>
<text text-anchor="middle" x="455.5" y="-81" font-family="Helvetica,sans-Serif" font-size="10.00">ie_gptoss_infer_create</text>
</a>
</g>
</g>
<!-- Node29&#45;&gt;Node30 -->
<g id="edge39_Node000029_Node000030" class="edge">
<title>Node29&#45;&gt;Node30</title>
<g id="a_edge39_Node000029_Node000030"><a xlink:title=" ">
<path fill="none" stroke="#63b8ff" d="M544.35,-83.5C535.88,-83.5 527.33,-83.5 519.04,-83.5"/>
<polygon fill="#63b8ff" stroke="#63b8ff" points="544.61,-87 554.61,-83.5 544.61,-80 544.61,-87"/>
</a>
</g>
</g>
<!-- Node30&#45;&gt;Node6 -->
<g id="edge40_Node000030_Node000006" class="edge">
<title>Node30&#45;&gt;Node6</title>
<g id="a_edge40_Node000030_Node000006"><a xlink:title=" ">
<path fill="none" stroke="#63b8ff" d="M402.94,-96.84C399.13,-98.52 395.44,-100.4 392,-102.5 372.41,-114.44 375.72,-127.77 356,-139.5 350.25,-142.92 343.81,-145.72 337.31,-148"/>
<polygon fill="#63b8ff" stroke="#63b8ff" points="404.54,-99.97 412.56,-93.04 401.97,-93.46 404.54,-99.97"/>
</a>
</g>
</g>
<!-- Node30&#45;&gt;Node16 -->
<g id="edge41_Node000030_Node000016" class="edge">
<title>Node30&#45;&gt;Node16</title>
<g id="a_edge41_Node000030_Node000016"><a xlink:title=" ">
<path fill="none" stroke="#63b8ff" d="M402.73,-71.71C380.54,-66.66 354.97,-60.84 333.99,-56.06"/>
<polygon fill="#63b8ff" stroke="#63b8ff" points="402.12,-75.16 412.65,-73.97 403.68,-68.34 402.12,-75.16"/>
</a>
</g>
</g>
<!-- Node31&#45;&gt;Node6 -->
<g id="edge44_Node000031_Node000006" class="edge">
<title>Node31&#45;&gt;Node6</title>
<g id="a_edge44_Node000031_Node000006"><a xlink:title=" ">
<path fill="none" stroke="#63b8ff" d="M858.64,-339.6C744.11,-347.32 541.41,-346.82 392,-268.5 345.82,-244.3 310.51,-189.67 297.47,-167.32"/>
<polygon fill="#63b8ff" stroke="#63b8ff" points="859.04,-343.08 868.76,-338.88 858.54,-336.1 859.04,-343.08"/>
</a>
</g>
</g>
</g>
</svg>

<g id="navigator" transform="translate(0 0)" fill="#404254">
  <rect fill="#f2f5e9" fill-opacity="0.5" stroke="#606060" stroke-width=".5" x="0" y="0" width="60" height="60"/>
  <use id="zoomplus" xlink:href="#zoomPlus" x="17" y="9" onmousedown="handleZoom(evt,'in')"/>
  <use id="zoomminus" xlink:href="#zoomMin" x="42" y="9" onmousedown="handleZoom(evt,'out')"/>
  <use id="reset" xlink:href="#resetDef" x="30" y="36" onmousedown="handleReset()"/>
   <use id="arrowup" xlink:href="#arrowUp" x="0" y="0" onmousedown="handlePan(0,-1)"/>
  <use id="arrowright" xlink:href="#arrowRight" x="0" y="0" onmousedown="handlePan(1,0)"/>
  <use id="arrowdown" xlink:href="#arrowDown" x="0" y="0" onmousedown="handlePan(0,1)"/>
  <use id="arrowleft" xlink:href="#arrowLeft" x="0" y="0" onmousedown="handlePan(-1,0)"/>
</g>
<svg viewBox="0 0 15 15" width="100%" height="30px" preserveAspectRatio="xMaxYMin meet">
 <g id="arrow_out" transform="scale(0.3 0.3)">
  <a xlink:href="cpu__features_8c_a57a31c8ca934dd8b9321a1b2d1b7f904_icgraph_org.svg" target="_base">
   <rect id="button" ry="5" rx="5" y="6" x="6" height="38" width="38"
        fill="#f2f5e9" fill-opacity="0.5" stroke="#606060" stroke-width="1.0"/>
   <path id="arrow"
     d="M 11.500037,31.436501 C 11.940474,20.09759 22.043105,11.32322 32.158766,21.979434 L 37.068811,17.246167 C 37.068811,17.246167 37.088388,32 37.088388,32 L 22.160133,31.978069 C 22.160133,31.978069 26.997745,27.140456 26.997745,27.140456 C 18.528582,18.264221 13.291696,25.230495 11.500037,31.436501 z"
     style="fill:#404040;"/>
  </a>
 </g>
</svg>

<style type='text/css'>
<![CDATA[
[data-mouse-over-selected='false'] { opacity: 0.7; }
[data-mouse-over-selected='true']  { opacity: 1.0; }
]]>
</style>
<script type="application/ecmascript"><![CDATA[
document.addEventListener('DOMContentLoaded', (event) => {
  highlightEdges();
  highlightAdjacentNodes();
});
]]></script>
</svg>
