<?xml version="1.0" encoding="UTF-8" standalone="no"?>
<!DOCTYPE svg PUBLIC "-//W3C//DTD SVG 1.1//EN"
 "http://www.w3.org/Graphics/SVG/1.1/DTD/svg11.dtd">
<!-- Generated by graphviz version 12.2.1 (20241206.2353)
 -->
<!-- Title: engine/src/kernels/gemv_generic.c Pages: 1 -->
<svg width="191pt" height="155pt"
 viewBox="0.00 0.00 190.62 155.00" xmlns="http://www.w3.org/2000/svg" xmlns:xlink="http://www.w3.org/1999/xlink">
<g id="graph0" class="graph" transform="scale(1 1) rotate(0) translate(4 151)">
<title>engine/src/kernels/gemv_generic.c</title>
<!-- Node1 -->
<g id="Node000001" class="node">
<title>Node1</title>
<g id="a_Node000001"><a xlink:title="Portable C GEMV with optional column&#45;blocking and epilogue bias.">
<polygon fill="#999999" stroke="#666666" points="154.5,-147 50,-147 50,-113.5 154.5,-113.5 154.5,-147"/>
<text text-anchor="start" x="58" y="-133.5" font-family="Helvetica,sans-Serif" font-size="10.00">engine/src/kernels</text>
<text text-anchor="middle" x="102.25" y="-120.75" font-family="Helvetica,sans-Serif" font-size="10.00">/gemv_generic.c</text>
</a>
</g>
</g>
<!-- Node2 -->
<g id="Node000002" class="node">
<title>Node2</title>
<g id="a_Node000002"><a xlink:href="ie__kernels_8h.html" target="_top" xlink:title="Kernel dispatch points (generic/AVX2) for GEMV and vector ops.">
<polygon fill="white" stroke="#666666" points="74.5,-77.5 0,-77.5 0,-56.75 74.5,-56.75 74.5,-77.5"/>
<text text-anchor="middle" x="37.25" y="-64" font-family="Helvetica,sans-Serif" font-size="10.00">ie_kernels.h</text>
</a>
</g>
</g>
<!-- Node1&#45;&gt;Node2 -->
<g id="edge1_Node000001_Node000002" class="edge">
<title>Node1&#45;&gt;Node2</title>
<g id="a_edge1_Node000001_Node000002"><a xlink:title=" ">
<path fill="none" stroke="#63b8ff" d="M85.17,-113.19C76.16,-104.72 65.1,-94.31 55.87,-85.64"/>
<polygon fill="#63b8ff" stroke="#63b8ff" points="58.5,-83.3 48.82,-79 53.71,-88.4 58.5,-83.3"/>
</a>
</g>
</g>
<!-- Node3 -->
<g id="Node000003" class="node">
<title>Node3</title>
<g id="a_Node000003"><a xlink:title=" ">
<polygon fill="#e0e0e0" stroke="#999999" points="96.75,-20.75 41.75,-20.75 41.75,0 96.75,0 96.75,-20.75"/>
<text text-anchor="middle" x="69.25" y="-7.25" font-family="Helvetica,sans-Serif" font-size="10.00">stddef.h</text>
</a>
</g>
</g>
<!-- Node1&#45;&gt;Node3 -->
<g id="edge3_Node000001_Node000003" class="edge">
<title>Node1&#45;&gt;Node3</title>
<g id="a_edge3_Node000001_Node000003"><a xlink:title=" ">
<path fill="none" stroke="#63b8ff" d="M98.22,-113.07C94.5,-98.34 88.75,-76.02 83.25,-56.75 80.94,-48.63 78.23,-39.75 75.82,-32.02"/>
<polygon fill="#63b8ff" stroke="#63b8ff" points="79.17,-31 72.83,-22.52 72.5,-33.11 79.17,-31"/>
</a>
</g>
</g>
<!-- Node4 -->
<g id="Node000004" class="node">
<title>Node4</title>
<g id="a_Node000004"><a xlink:title=" ">
<polygon fill="#e0e0e0" stroke="#999999" points="182.62,-77.5 129.88,-77.5 129.88,-56.75 182.62,-56.75 182.62,-77.5"/>
<text text-anchor="middle" x="156.25" y="-64" font-family="Helvetica,sans-Serif" font-size="10.00">string.h</text>
</a>
</g>
</g>
<!-- Node1&#45;&gt;Node4 -->
<g id="edge4_Node000001_Node000004" class="edge">
<title>Node1&#45;&gt;Node4</title>
<g id="a_edge4_Node000001_Node000004"><a xlink:title=" ">
<path fill="none" stroke="#63b8ff" d="M116.44,-113.19C123.69,-104.98 132.55,-94.96 140.06,-86.45"/>
<polygon fill="#63b8ff" stroke="#63b8ff" points="142.56,-88.91 146.55,-79.1 137.31,-84.28 142.56,-88.91"/>
</a>
</g>
</g>
<!-- Node2&#45;&gt;Node3 -->
<g id="edge2_Node000002_Node000003" class="edge">
<title>Node2&#45;&gt;Node3</title>
<g id="a_edge2_Node000002_Node000003"><a xlink:title=" ">
<path fill="none" stroke="#63b8ff" d="M42.97,-56.34C47.11,-49.25 52.85,-39.44 57.9,-30.79"/>
<polygon fill="#63b8ff" stroke="#63b8ff" points="60.79,-32.78 62.81,-22.39 54.75,-29.25 60.79,-32.78"/>
</a>
</g>
</g>
</g>
</svg>
