<?xml version="1.0" encoding="UTF-8" standalone="no"?>
<!DOCTYPE svg PUBLIC "-//W3C//DTD SVG 1.1//EN"
 "http://www.w3.org/Graphics/SVG/1.1/DTD/svg11.dtd">
<!-- Generated by graphviz version 2.43.0 (0)
 -->
<!-- Title: ie_gemv_bf16_generic_impl Pages: 1 -->
<svg width="1317pt" height="287pt"
 viewBox="0.00 0.00 1317.00 286.60" xmlns="http://www.w3.org/2000/svg" xmlns:xlink="http://www.w3.org/1999/xlink">
<g id="graph0" class="graph" transform="scale(1 1) rotate(0) translate(4 282.6)">
<title>ie_gemv_bf16_generic_impl</title>
<!-- Node1 -->
<g id="Node000001" class="node">
<title>Node1</title>
<g id="a_Node000001"><a xlink:title=" ">
<polygon fill="#999999" stroke="#666666" points="1309,-233 1155,-233 1155,-214 1309,-214 1309,-233"/>
<text text-anchor="middle" x="1232" y="-221" font-family="Helvetica,sans-Serif" font-size="10.00">ie_gemv_bf16_generic_impl</text>
</a>
</g>
</g>
<!-- Node2 -->
<g id="Node000002" class="node">
<title>Node2</title>
<g id="a_Node000002"><a xlink:href="gemv__generic_8c.html#a1b919f71b86ec1791fe53bc68d5c240d" target="_top" xlink:title="Install the best available CPU kernels for this process.">
<polygon fill="white" stroke="#666666" points="1119,-233 1018,-233 1018,-214 1119,-214 1119,-233"/>
<text text-anchor="middle" x="1068.5" y="-221" font-family="Helvetica,sans-Serif" font-size="10.00">ie_kernels_install</text>
</a>
</g>
</g>
<!-- Node1&#45;&gt;Node2 -->
<g id="edge1_Node000001_Node000002" class="edge">
<title>Node1&#45;&gt;Node2</title>
<g id="a_edge1_Node000001_Node000002"><a xlink:title=" ">
<path fill="none" stroke="#63b8ff" d="M1144.75,-223.5C1136.06,-223.5 1127.44,-223.5 1119.32,-223.5"/>
<polygon fill="#63b8ff" stroke="#63b8ff" points="1144.98,-227 1154.98,-223.5 1144.98,-220 1144.98,-227"/>
</a>
</g>
</g>
<!-- Node3 -->
<g id="Node000003" class="node">
<title>Node3</title>
<g id="a_Node000003"><a xlink:href="gemv__generic_8c.html#afcee3c04ff97cb24bf4d3d84cbe1b9e7" target="_top" xlink:title=" ">
<polygon fill="white" stroke="#666666" points="982,-148 869,-148 869,-129 982,-129 982,-148"/>
<text text-anchor="middle" x="925.5" y="-136" font-family="Helvetica,sans-Serif" font-size="10.00">ie_kernels_lazy_init</text>
</a>
</g>
</g>
<!-- Node2&#45;&gt;Node3 -->
<g id="edge2_Node000002_Node000003" class="edge">
<title>Node2&#45;&gt;Node3</title>
<g id="a_edge2_Node000002_Node000003"><a xlink:title=" ">
<path fill="none" stroke="#63b8ff" d="M1042.93,-208.69C1014.08,-191.3 967.09,-162.97 942.56,-148.18"/>
<polygon fill="#63b8ff" stroke="#63b8ff" points="1041.23,-211.75 1051.6,-213.91 1044.84,-205.75 1041.23,-211.75"/>
</a>
</g>
</g>
<!-- Node22 -->
<g id="Node000022" class="node">
<title>Node22</title>
<g id="a_Node000022"><a xlink:href="test__kernels_8c.html#a840291bc02cba5474a4cb46a9b9566fe" target="_top" xlink:title="Program entry: run all kernel tests and print &quot;ok test_kernels&quot; on success.">
<polygon fill="white" stroke="#666666" points="476,-258 435,-258 435,-239 476,-239 476,-258"/>
<text text-anchor="middle" x="455.5" y="-246" font-family="Helvetica,sans-Serif" font-size="10.00">main</text>
</a>
</g>
</g>
<!-- Node2&#45;&gt;Node22 -->
<g id="edge37_Node000002_Node000022" class="edge">
<title>Node2&#45;&gt;Node22</title>
<g id="a_edge37_Node000002_Node000022"><a xlink:title=" ">
<path fill="none" stroke="#63b8ff" d="M1018.41,-235.2C927.05,-255.43 724.79,-292.89 555,-272.5 527.21,-269.16 495.95,-260.71 476.24,-254.79"/>
<polygon fill="#63b8ff" stroke="#63b8ff" points="1019.22,-238.61 1028.21,-233.01 1017.69,-231.78 1019.22,-238.61"/>
</a>
</g>
</g>
<!-- Node4 -->
<g id="Node000004" class="node">
<title>Node4</title>
<g id="a_Node000004"><a xlink:href="gemv__generic_8c.html#a9af71dd562560ec249ffd6cf70013282" target="_top" xlink:title="GEMV with BF16 weights and FP32 activations.">
<polygon fill="white" stroke="#666666" points="831,-74 724,-74 724,-55 831,-55 831,-74"/>
<text text-anchor="middle" x="777.5" y="-62" font-family="Helvetica,sans-Serif" font-size="10.00">ie_gemv_bf16_f32</text>
</a>
</g>
</g>
<!-- Node3&#45;&gt;Node4 -->
<g id="edge3_Node000003_Node000004" class="edge">
<title>Node3&#45;&gt;Node4</title>
<g id="a_edge3_Node000003_Node000004"><a xlink:title=" ">
<path fill="none" stroke="#63b8ff" d="M902.08,-123.24C883.99,-111.36 857.58,-95.02 833,-83.5 825.56,-80.01 817.29,-76.81 809.5,-74.07"/>
<polygon fill="#63b8ff" stroke="#63b8ff" points="900.47,-126.37 910.73,-128.99 904.35,-120.54 900.47,-126.37"/>
</a>
</g>
</g>
<!-- Node13 -->
<g id="Node000013" class="node">
<title>Node13</title>
<g id="a_Node000013"><a xlink:href="gemv__generic_8c.html#a0416d116aabe509598e8a1aaf31a0f55" target="_top" xlink:title="GEMV (fp32): y[r] = dot(W[r,:], x) + (bias ? bias[r] : 0).">
<polygon fill="white" stroke="#666666" points="817.5,-148 737.5,-148 737.5,-129 817.5,-129 817.5,-148"/>
<text text-anchor="middle" x="777.5" y="-136" font-family="Helvetica,sans-Serif" font-size="10.00">ie_gemv_f32</text>
</a>
</g>
</g>
<!-- Node3&#45;&gt;Node13 -->
<g id="edge15_Node000003_Node000013" class="edge">
<title>Node3&#45;&gt;Node13</title>
<g id="a_edge15_Node000003_Node000013"><a xlink:title=" ">
<path fill="none" stroke="#63b8ff" d="M858.75,-138.5C844.71,-138.5 830.3,-138.5 817.63,-138.5"/>
<polygon fill="#63b8ff" stroke="#63b8ff" points="858.89,-142 868.89,-138.5 858.89,-135 858.89,-142"/>
</a>
</g>
</g>
<!-- Node24 -->
<g id="Node000024" class="node">
<title>Node24</title>
<g id="a_Node000024"><a xlink:href="gemv__generic_8c.html#aae594bb0a2442c97c665ac2f42b9993c" target="_top" xlink:title=" ">
<polygon fill="white" stroke="#666666" points="817,-185 738,-185 738,-166 817,-166 817,-185"/>
<text text-anchor="middle" x="777.5" y="-173" font-family="Helvetica,sans-Serif" font-size="10.00">ie_gemv_qi8</text>
</a>
</g>
</g>
<!-- Node3&#45;&gt;Node24 -->
<g id="edge31_Node000003_Node000024" class="edge">
<title>Node3&#45;&gt;Node24</title>
<g id="a_edge31_Node000003_Node000024"><a xlink:title=" ">
<path fill="none" stroke="#63b8ff" d="M877.17,-150.49C857.43,-155.5 834.82,-161.23 816.22,-165.94"/>
<polygon fill="#63b8ff" stroke="#63b8ff" points="878.07,-153.88 886.9,-148.03 876.35,-147.09 878.07,-153.88"/>
</a>
</g>
</g>
<!-- Node25 -->
<g id="Node000025" class="node">
<title>Node25</title>
<g id="a_Node000025"><a xlink:href="gemv__generic_8c.html#a782b7a53732be7ae0a2f0eb663e36321" target="_top" xlink:title="Convert BF16 vector to FP32.">
<polygon fill="white" stroke="#666666" points="833,-111 722,-111 722,-92 833,-92 833,-111"/>
<text text-anchor="middle" x="777.5" y="-99" font-family="Helvetica,sans-Serif" font-size="10.00">ie_vec_bf16_to_f32</text>
</a>
</g>
</g>
<!-- Node3&#45;&gt;Node25 -->
<g id="edge32_Node000003_Node000025" class="edge">
<title>Node3&#45;&gt;Node25</title>
<g id="a_edge32_Node000003_Node000025"><a xlink:title=" ">
<path fill="none" stroke="#63b8ff" d="M877.17,-126.51C857.43,-121.5 834.82,-115.77 816.22,-111.06"/>
<polygon fill="#63b8ff" stroke="#63b8ff" points="876.35,-129.91 886.9,-128.97 878.07,-123.12 876.35,-129.91"/>
</a>
</g>
</g>
<!-- Node5 -->
<g id="Node000005" class="node">
<title>Node5</title>
<g id="a_Node000005"><a xlink:href="infer__gptoss_8c.html#a463151430d9b4dce6eae9210c3c598f0" target="_top" xlink:title=" ">
<polygon fill="white" stroke="#666666" points="682.5,-56 558.5,-56 558.5,-37 682.5,-37 682.5,-56"/>
<text text-anchor="middle" x="620.5" y="-44" font-family="Helvetica,sans-Serif" font-size="10.00">ie_forward_one_token</text>
</a>
</g>
</g>
<!-- Node4&#45;&gt;Node5 -->
<g id="edge4_Node000004_Node000005" class="edge">
<title>Node4&#45;&gt;Node5</title>
<g id="a_edge4_Node000004_Node000005"><a xlink:title=" ">
<path fill="none" stroke="#63b8ff" d="M713.55,-57.19C703.37,-56.01 692.85,-54.79 682.71,-53.61"/>
<polygon fill="#63b8ff" stroke="#63b8ff" points="713.25,-60.68 723.59,-58.36 714.06,-53.73 713.25,-60.68"/>
</a>
</g>
</g>
<!-- Node6 -->
<g id="Node000006" class="node">
<title>Node6</title>
<g id="a_Node000006"><a xlink:href="infer__gptoss_8c.html#a39827a388a0b7dd6d161e99b111c5546" target="_top" xlink:title="Prefill: consume a prompt, update the KV cache, and produce logits.">
<polygon fill="white" stroke="#666666" points="517.5,-56 393.5,-56 393.5,-37 517.5,-37 517.5,-56"/>
<text text-anchor="middle" x="455.5" y="-44" font-family="Helvetica,sans-Serif" font-size="10.00">ie_gptoss_infer_prefill</text>
</a>
</g>
</g>
<!-- Node5&#45;&gt;Node6 -->
<g id="edge5_Node000005_Node000006" class="edge">
<title>Node5&#45;&gt;Node6</title>
<g id="a_edge5_Node000005_Node000006"><a xlink:title=" ">
<path fill="none" stroke="#63b8ff" d="M548.26,-46.5C538.09,-46.5 527.69,-46.5 517.73,-46.5"/>
<polygon fill="#63b8ff" stroke="#63b8ff" points="548.34,-50 558.34,-46.5 548.34,-43 548.34,-50"/>
</a>
</g>
</g>
<!-- Node12 -->
<g id="Node000012" class="node">
<title>Node12</title>
<g id="a_Node000012"><a xlink:href="infer__gptoss_8c.html#a52a0e33daf64ca5524b6440cecc8d2f6" target="_top" xlink:title="Step: consume one token, update the KV cache, and produce next logits.">
<polygon fill="white" stroke="#666666" points="514,-19 397,-19 397,0 514,0 514,-19"/>
<text text-anchor="middle" x="455.5" y="-7" font-family="Helvetica,sans-Serif" font-size="10.00">ie_gptoss_infer_step</text>
</a>
</g>
</g>
<!-- Node5&#45;&gt;Node12 -->
<g id="edge12_Node000005_Node000012" class="edge">
<title>Node5&#45;&gt;Node12</title>
<g id="a_edge12_Node000005_Node000012"><a xlink:title=" ">
<path fill="none" stroke="#63b8ff" d="M567.57,-34.71C545.31,-29.66 519.66,-23.84 498.62,-19.06"/>
<polygon fill="#63b8ff" stroke="#63b8ff" points="567,-38.17 577.52,-36.97 568.55,-31.34 567,-38.17"/>
</a>
</g>
</g>
<!-- Node7 -->
<g id="Node000007" class="node">
<title>Node7</title>
<g id="a_Node000007"><a xlink:href="ie__api_8c.html#a950ac9a0efe5a4fe068a288e57099c4a" target="_top" xlink:title="Generate tokens and optionally return timing statistics.">
<polygon fill="white" stroke="#666666" points="356,-19 226,-19 226,0 356,0 356,-19"/>
<text text-anchor="middle" x="291" y="-7" font-family="Helvetica,sans-Serif" font-size="10.00">ie_engine_generate_ex</text>
</a>
</g>
</g>
<!-- Node6&#45;&gt;Node7 -->
<g id="edge6_Node000006_Node000007" class="edge">
<title>Node6&#45;&gt;Node7</title>
<g id="a_edge6_Node000006_Node000007"><a xlink:title=" ">
<path fill="none" stroke="#63b8ff" d="M402.73,-34.71C380.54,-29.66 354.97,-23.84 333.99,-19.06"/>
<polygon fill="#63b8ff" stroke="#63b8ff" points="402.12,-38.16 412.65,-36.97 403.68,-31.34 402.12,-38.16"/>
</a>
</g>
</g>
<!-- Node11 -->
<g id="Node000011" class="node">
<title>Node11</title>
<g id="a_Node000011"><a xlink:href="generate__gptoss_8c.html#a69606d6441b5c86670cfcc955721a308" target="_top" xlink:title="Generate up to max_new tokens for a prompt string using GPT&#45;OSS.">
<polygon fill="white" stroke="#666666" points="347,-56 235,-56 235,-37 347,-37 347,-56"/>
<text text-anchor="middle" x="291" y="-44" font-family="Helvetica,sans-Serif" font-size="10.00">ie_generate_gptoss</text>
</a>
</g>
</g>
<!-- Node6&#45;&gt;Node11 -->
<g id="edge11_Node000006_Node000011" class="edge">
<title>Node6&#45;&gt;Node11</title>
<g id="a_edge11_Node000006_Node000011"><a xlink:title=" ">
<path fill="none" stroke="#63b8ff" d="M383.04,-46.5C371,-46.5 358.66,-46.5 347.11,-46.5"/>
<polygon fill="#63b8ff" stroke="#63b8ff" points="383.07,-50 393.07,-46.5 383.07,-43 383.07,-50"/>
</a>
</g>
</g>
<!-- Node8 -->
<g id="Node000008" class="node">
<title>Node8</title>
<g id="a_Node000008"><a xlink:href="ie__api_8c.html#ad32cf2cd209832e4cd577a5a1e31970f" target="_top" xlink:title="Generate up to max_new tokens for the given prompt.">
<polygon fill="white" stroke="#666666" points="190,-57 77,-57 77,-38 190,-38 190,-57"/>
<text text-anchor="middle" x="133.5" y="-45" font-family="Helvetica,sans-Serif" font-size="10.00">ie_engine_generate</text>
</a>
</g>
</g>
<!-- Node7&#45;&gt;Node8 -->
<g id="edge7_Node000007_Node000008" class="edge">
<title>Node7&#45;&gt;Node8</title>
<g id="a_edge7_Node000007_Node000008"><a xlink:title=" ">
<path fill="none" stroke="#63b8ff" d="M241.03,-21.47C219.23,-26.79 193.93,-32.98 173.46,-37.98"/>
<polygon fill="#63b8ff" stroke="#63b8ff" points="241.88,-24.86 250.76,-19.09 240.22,-18.06 241.88,-24.86"/>
</a>
</g>
</g>
<!-- Node9 -->
<g id="Node000009" class="node">
<title>Node9</title>
<g id="a_Node000009"><a xlink:href="main__infer_8c.html#a3c04138a5bfe5d72780bb7e82a18e627" target="_top" xlink:title="main.">
<polygon fill="white" stroke="#666666" points="41,-57 0,-57 0,-38 41,-38 41,-57"/>
<text text-anchor="middle" x="20.5" y="-45" font-family="Helvetica,sans-Serif" font-size="10.00">main</text>
</a>
</g>
</g>
<!-- Node7&#45;&gt;Node9 -->
<g id="edge10_Node000007_Node000009" class="edge">
<title>Node7&#45;&gt;Node9</title>
<g id="a_edge10_Node000007_Node000009"><a xlink:title=" ">
<path fill="none" stroke="#63b8ff" d="M215.33,-11.76C174.17,-14.1 122.36,-18.86 77,-28.5 64.85,-31.08 51.67,-35.52 41.21,-39.46"/>
<polygon fill="#63b8ff" stroke="#63b8ff" points="215.76,-15.24 225.56,-11.22 215.38,-8.25 215.76,-15.24"/>
</a>
</g>
</g>
<!-- Node8&#45;&gt;Node9 -->
<g id="edge8_Node000008_Node000009" class="edge">
<title>Node8&#45;&gt;Node9</title>
<g id="a_edge8_Node000008_Node000009"><a xlink:title=" ">
<path fill="none" stroke="#63b8ff" d="M66.58,-47.5C57.37,-47.5 48.56,-47.5 41.21,-47.5"/>
<polygon fill="#63b8ff" stroke="#63b8ff" points="66.67,-51 76.67,-47.5 66.67,-44 66.67,-51"/>
</a>
</g>
</g>
<!-- Node10 -->
<g id="Node000010" class="node">
<title>Node10</title>
<g id="a_Node000010"><a xlink:href="test__api_8c.html#a840291bc02cba5474a4cb46a9b9566fe" target="_top" xlink:title=" ">
<polygon fill="white" stroke="#666666" points="41,-94 0,-94 0,-75 41,-75 41,-94"/>
<text text-anchor="middle" x="20.5" y="-82" font-family="Helvetica,sans-Serif" font-size="10.00">main</text>
</a>
</g>
</g>
<!-- Node8&#45;&gt;Node10 -->
<g id="edge9_Node000008_Node000010" class="edge">
<title>Node8&#45;&gt;Node10</title>
<g id="a_edge9_Node000008_Node000010"><a xlink:title=" ">
<path fill="none" stroke="#63b8ff" d="M93.17,-60.17C87.73,-61.94 82.23,-63.76 77,-65.5 65.12,-69.46 51.84,-74 41.25,-77.65"/>
<polygon fill="#63b8ff" stroke="#63b8ff" points="94.38,-63.46 102.8,-57.03 92.21,-56.8 94.38,-63.46"/>
</a>
</g>
</g>
<!-- Node12&#45;&gt;Node7 -->
<g id="edge13_Node000012_Node000007" class="edge">
<title>Node12&#45;&gt;Node7</title>
<g id="a_edge13_Node000012_Node000007"><a xlink:title=" ">
<path fill="none" stroke="#63b8ff" d="M386.44,-9.5C376.42,-9.5 366.13,-9.5 356.2,-9.5"/>
<polygon fill="#63b8ff" stroke="#63b8ff" points="386.75,-13 396.75,-9.5 386.75,-6 386.75,-13"/>
</a>
</g>
</g>
<!-- Node12&#45;&gt;Node11 -->
<g id="edge14_Node000012_Node000011" class="edge">
<title>Node12&#45;&gt;Node11</title>
<g id="a_edge14_Node000012_Node000011"><a xlink:title=" ">
<path fill="none" stroke="#63b8ff" d="M402.73,-21.29C380.54,-26.34 354.97,-32.16 333.99,-36.94"/>
<polygon fill="#63b8ff" stroke="#63b8ff" points="403.68,-24.66 412.65,-19.03 402.12,-17.84 403.68,-24.66"/>
</a>
</g>
</g>
<!-- Node13&#45;&gt;Node5 -->
<g id="edge25_Node000013_Node000005" class="edge">
<title>Node13&#45;&gt;Node5</title>
<g id="a_edge25_Node000013_Node000005"><a xlink:title=" ">
<path fill="none" stroke="#63b8ff" d="M727.89,-124.49C725.83,-123.26 723.86,-121.94 722,-120.5 698.61,-102.38 709.81,-82.07 686,-64.5 681.32,-61.05 676.01,-58.26 670.49,-56"/>
<polygon fill="#63b8ff" stroke="#63b8ff" points="726.81,-127.86 737.32,-129.21 729.95,-121.6 726.81,-127.86"/>
</a>
</g>
</g>
<!-- Node14 -->
<g id="Node000014" class="node">
<title>Node14</title>
<g id="a_Node000014"><a xlink:href="ie__device__common_8c.html#a4fb9bb01bfbe71517f9df925ba9c93ec" target="_top" xlink:title="Execute dense GEMV FP32 on CPU using existing kernels.">
<polygon fill="white" stroke="#666666" points="664.5,-130 576.5,-130 576.5,-111 664.5,-111 664.5,-130"/>
<text text-anchor="middle" x="620.5" y="-118" font-family="Helvetica,sans-Serif" font-size="10.00">cpu_gemv_f32</text>
</a>
</g>
</g>
<!-- Node13&#45;&gt;Node14 -->
<g id="edge16_Node000013_Node000014" class="edge">
<title>Node13&#45;&gt;Node14</title>
<g id="a_edge16_Node000013_Node000014"><a xlink:title=" ">
<path fill="none" stroke="#63b8ff" d="M727.19,-132.77C707.11,-130.44 684.1,-127.77 664.7,-125.52"/>
<polygon fill="#63b8ff" stroke="#63b8ff" points="727.05,-136.28 737.39,-133.96 727.86,-129.33 727.05,-136.28"/>
</a>
</g>
</g>
<!-- Node20 -->
<g id="Node000020" class="node">
<title>Node20</title>
<g id="a_Node000020"><a xlink:href="mlp__cpu_8c.html#a8a3953a6293e3c65e33e01b746d9b0a2" target="_top" xlink:title="SwiGLU MLP forward (FP32 reference).">
<polygon fill="white" stroke="#666666" points="685.5,-167 555.5,-167 555.5,-148 685.5,-148 685.5,-167"/>
<text text-anchor="middle" x="620.5" y="-155" font-family="Helvetica,sans-Serif" font-size="10.00">ie_mlp_cpu_swiglu_f32</text>
</a>
</g>
</g>
<!-- Node13&#45;&gt;Node20 -->
<g id="edge26_Node000013_Node000020" class="edge">
<title>Node13&#45;&gt;Node20</title>
<g id="a_edge26_Node000013_Node000020"><a xlink:title=" ">
<path fill="none" stroke="#63b8ff" d="M727.12,-144.55C713.93,-146.17 699.48,-147.94 685.63,-149.64"/>
<polygon fill="#63b8ff" stroke="#63b8ff" points="727.89,-147.99 737.39,-143.29 727.04,-141.04 727.89,-147.99"/>
</a>
</g>
</g>
<!-- Node21 -->
<g id="Node000021" class="node">
<title>Node21</title>
<g id="a_Node000021"><a xlink:href="test__kernels_8c.html#a0ac9b0c3b1d865ef69bd2bc69d14a685" target="_top" xlink:title="Test: GEMV without bias, row&#45;major, blk_k=0.">
<polygon fill="white" stroke="#666666" points="680.5,-263.5 560.5,-263.5 560.5,-233.5 680.5,-233.5 680.5,-263.5"/>
<text text-anchor="start" x="568.5" y="-251.5" font-family="Helvetica,sans-Serif" font-size="10.00">test_gemv_rowmajor</text>
<text text-anchor="middle" x="620.5" y="-240.5" font-family="Helvetica,sans-Serif" font-size="10.00">_no_bias</text>
</a>
</g>
</g>
<!-- Node13&#45;&gt;Node21 -->
<g id="edge27_Node000013_Node000021" class="edge">
<title>Node13&#45;&gt;Node21</title>
<g id="a_edge27_Node000013_Node000021"><a xlink:title=" ">
<path fill="none" stroke="#63b8ff" d="M728.32,-152.89C726.09,-154.29 723.97,-155.82 722,-157.5 696.29,-179.45 711.48,-202.29 686,-224.5 682.04,-227.95 677.53,-230.93 672.79,-233.49"/>
<polygon fill="#63b8ff" stroke="#63b8ff" points="730.13,-155.89 737.34,-148.12 726.86,-149.7 730.13,-155.89"/>
</a>
</g>
</g>
<!-- Node23 -->
<g id="Node000023" class="node">
<title>Node23</title>
<g id="a_Node000023"><a xlink:href="test__kernels_8c.html#a2305be22b4279f3ac4d55f90584569cb" target="_top" xlink:title="Test: GEMV with bias epilogue, row&#45;major, blk_k=0.">
<polygon fill="white" stroke="#666666" points="680.5,-215.5 560.5,-215.5 560.5,-185.5 680.5,-185.5 680.5,-215.5"/>
<text text-anchor="start" x="568.5" y="-203.5" font-family="Helvetica,sans-Serif" font-size="10.00">test_gemv_rowmajor</text>
<text text-anchor="middle" x="620.5" y="-192.5" font-family="Helvetica,sans-Serif" font-size="10.00">_with_bias</text>
</a>
</g>
</g>
<!-- Node13&#45;&gt;Node23 -->
<g id="edge29_Node000013_Node000023" class="edge">
<title>Node13&#45;&gt;Node23</title>
<g id="a_edge29_Node000013_Node000023"><a xlink:title=" ">
<path fill="none" stroke="#63b8ff" d="M736.87,-151.53C731.82,-153.42 726.76,-155.43 722,-157.5 705.41,-164.72 702.51,-169.11 686,-176.5 679.13,-179.58 671.73,-182.59 664.49,-185.39"/>
<polygon fill="#63b8ff" stroke="#63b8ff" points="738.27,-154.74 746.49,-148.06 735.89,-148.16 738.27,-154.74"/>
</a>
</g>
</g>
<!-- Node15 -->
<g id="Node000015" class="node">
<title>Node15</title>
<g id="a_Node000015"><a xlink:href="ie__device__common_8c.html#a3e42fcc4b9579a9bf14520cb1afe733b" target="_top" xlink:title="Create a device handle for the requested kind (with fallback).">
<polygon fill="white" stroke="#666666" points="505,-151 406,-151 406,-132 505,-132 505,-151"/>
<text text-anchor="middle" x="455.5" y="-139" font-family="Helvetica,sans-Serif" font-size="10.00">ie_device_create</text>
</a>
</g>
</g>
<!-- Node14&#45;&gt;Node15 -->
<g id="edge17_Node000014_Node000015" class="edge">
<title>Node14&#45;&gt;Node15</title>
<g id="a_edge17_Node000014_Node000015"><a xlink:title=" ">
<path fill="none" stroke="#63b8ff" d="M566.22,-127.36C546.55,-129.9 524.37,-132.76 505.14,-135.23"/>
<polygon fill="#63b8ff" stroke="#63b8ff" points="566.78,-130.82 576.25,-126.07 565.88,-123.88 566.78,-130.82"/>
</a>
</g>
</g>
<!-- Node16 -->
<g id="Node000016" class="node">
<title>Node16</title>
<g id="a_Node000016"><a xlink:href="ie__api_8c.html#a84bd87043352946e9d53b0f8a5c4abe0" target="_top" xlink:title="Create an engine instance.">
<polygon fill="white" stroke="#666666" points="183.5,-94 83.5,-94 83.5,-75 183.5,-75 183.5,-94"/>
<text text-anchor="middle" x="133.5" y="-82" font-family="Helvetica,sans-Serif" font-size="10.00">ie_engine_create</text>
</a>
</g>
</g>
<!-- Node15&#45;&gt;Node16 -->
<g id="edge18_Node000015_Node000016" class="edge">
<title>Node15&#45;&gt;Node16</title>
<g id="a_edge18_Node000015_Node000016"><a xlink:title=" ">
<path fill="none" stroke="#63b8ff" d="M396.05,-131.09C335.13,-120.24 240.73,-103.42 183.56,-93.24"/>
<polygon fill="#63b8ff" stroke="#63b8ff" points="395.44,-134.53 405.9,-132.84 396.67,-127.64 395.44,-134.53"/>
</a>
</g>
</g>
<!-- Node17 -->
<g id="Node000017" class="node">
<title>Node17</title>
<g id="a_Node000017"><a xlink:href="test__device_8c.html#a7b62f3db43117555c60ec59d19c7c8d6" target="_top" xlink:title="Verify CPU device exposes GEMV capability.">
<polygon fill="white" stroke="#666666" points="334,-207 248,-207 248,-188 334,-188 334,-207"/>
<text text-anchor="middle" x="291" y="-195" font-family="Helvetica,sans-Serif" font-size="10.00">test_cpu_caps</text>
</a>
</g>
</g>
<!-- Node15&#45;&gt;Node17 -->
<g id="edge21_Node000015_Node000017" class="edge">
<title>Node15&#45;&gt;Node17</title>
<g id="a_edge21_Node000015_Node000017"><a xlink:title=" ">
<path fill="none" stroke="#63b8ff" d="M422.21,-154.84C403.11,-162.51 378.36,-172.06 356,-179.5 347.02,-182.49 337.23,-185.41 328.06,-188"/>
<polygon fill="#63b8ff" stroke="#63b8ff" points="423.68,-158.02 431.64,-151.02 421.05,-151.53 423.68,-158.02"/>
</a>
</g>
</g>
<!-- Node19 -->
<g id="Node000019" class="node">
<title>Node19</title>
<g id="a_Node000019"><a xlink:href="test__device_8c.html#a548e6227513ac3fd772219dad3b0de22" target="_top" xlink:title="Ensure GPU request gracefully falls back to a working GEMV.">
<polygon fill="white" stroke="#666666" points="342.5,-170 239.5,-170 239.5,-151 342.5,-151 342.5,-170"/>
<text text-anchor="middle" x="291" y="-158" font-family="Helvetica,sans-Serif" font-size="10.00">test_gpu_fallback</text>
</a>
</g>
</g>
<!-- Node15&#45;&gt;Node19 -->
<g id="edge23_Node000015_Node000019" class="edge">
<title>Node15&#45;&gt;Node19</title>
<g id="a_edge23_Node000015_Node000019"><a xlink:title=" ">
<path fill="none" stroke="#63b8ff" d="M395.72,-148.37C378.35,-150.4 359.5,-152.61 342.69,-154.57"/>
<polygon fill="#63b8ff" stroke="#63b8ff" points="396.22,-151.84 405.74,-147.2 395.41,-144.89 396.22,-151.84"/>
</a>
</g>
</g>
<!-- Node16&#45;&gt;Node9 -->
<g id="edge19_Node000016_Node000009" class="edge">
<title>Node16&#45;&gt;Node9</title>
<g id="a_edge19_Node000016_Node000009"><a xlink:title=" ">
<path fill="none" stroke="#63b8ff" d="M94.32,-71.77C76.46,-65.82 55.94,-58.98 41.24,-54.08"/>
<polygon fill="#63b8ff" stroke="#63b8ff" points="93.32,-75.13 103.91,-74.97 95.53,-68.49 93.32,-75.13"/>
</a>
</g>
</g>
<!-- Node16&#45;&gt;Node10 -->
<g id="edge20_Node000016_Node000010" class="edge">
<title>Node16&#45;&gt;Node10</title>
<g id="a_edge20_Node000016_Node000010"><a xlink:title=" ">
<path fill="none" stroke="#63b8ff" d="M73.26,-84.5C61.62,-84.5 50.21,-84.5 41.07,-84.5"/>
<polygon fill="#63b8ff" stroke="#63b8ff" points="73.49,-88 83.49,-84.5 73.49,-81 73.49,-88"/>
</a>
</g>
</g>
<!-- Node18 -->
<g id="Node000018" class="node">
<title>Node18</title>
<g id="a_Node000018"><a xlink:href="test__device_8c.html#a840291bc02cba5474a4cb46a9b9566fe" target="_top" xlink:title="Test entry point.">
<polygon fill="white" stroke="#666666" points="154,-188 113,-188 113,-169 154,-169 154,-188"/>
<text text-anchor="middle" x="133.5" y="-176" font-family="Helvetica,sans-Serif" font-size="10.00">main</text>
</a>
</g>
</g>
<!-- Node17&#45;&gt;Node18 -->
<g id="edge22_Node000017_Node000018" class="edge">
<title>Node17&#45;&gt;Node18</title>
<g id="a_edge22_Node000017_Node000018"><a xlink:title=" ">
<path fill="none" stroke="#63b8ff" d="M237.64,-191.1C209.03,-187.61 175.26,-183.48 154.36,-180.93"/>
<polygon fill="#63b8ff" stroke="#63b8ff" points="237.57,-194.62 247.92,-192.36 238.42,-187.67 237.57,-194.62"/>
</a>
</g>
</g>
<!-- Node19&#45;&gt;Node18 -->
<g id="edge24_Node000019_Node000018" class="edge">
<title>Node19&#45;&gt;Node18</title>
<g id="a_edge24_Node000019_Node000018"><a xlink:title=" ">
<path fill="none" stroke="#63b8ff" d="M229.02,-167.56C202.33,-170.65 172.88,-174.06 154.06,-176.24"/>
<polygon fill="#63b8ff" stroke="#63b8ff" points="229.55,-171.02 239.08,-166.39 228.75,-164.07 229.55,-171.02"/>
</a>
</g>
</g>
<!-- Node21&#45;&gt;Node22 -->
<g id="edge28_Node000021_Node000022" class="edge">
<title>Node21&#45;&gt;Node22</title>
<g id="a_edge28_Node000021_Node000022"><a xlink:title=" ">
<path fill="none" stroke="#63b8ff" d="M550.03,-248.5C523.23,-248.5 494.66,-248.5 476.25,-248.5"/>
<polygon fill="#63b8ff" stroke="#63b8ff" points="550.19,-252 560.19,-248.5 550.19,-245 550.19,-252"/>
</a>
</g>
</g>
<!-- Node23&#45;&gt;Node22 -->
<g id="edge30_Node000023_Node000022" class="edge">
<title>Node23&#45;&gt;Node22</title>
<g id="a_edge30_Node000023_Node000022"><a xlink:title=" ">
<path fill="none" stroke="#63b8ff" d="M558.68,-218.41C529.61,-226.97 496.77,-236.64 476.36,-242.65"/>
<polygon fill="#63b8ff" stroke="#63b8ff" points="559.77,-221.74 568.37,-215.56 557.79,-215.02 559.77,-221.74"/>
</a>
</g>
</g>
<!-- Node26 -->
<g id="Node000026" class="node">
<title>Node26</title>
<g id="a_Node000026"><a xlink:href="infer__gptoss_8c.html#a3f5367f4da6656ff7ce2107ed7b9f8d2" target="_top" xlink:title="Allocate and convert BF16 weights to FP32.">
<polygon fill="white" stroke="#666666" points="686,-93 555,-93 555,-74 686,-74 686,-93"/>
<text text-anchor="middle" x="620.5" y="-81" font-family="Helvetica,sans-Serif" font-size="10.00">ie_alloc_f32_from_bf16</text>
</a>
</g>
</g>
<!-- Node25&#45;&gt;Node26 -->
<g id="edge33_Node000025_Node000026" class="edge">
<title>Node25&#45;&gt;Node26</title>
<g id="a_edge33_Node000025_Node000026"><a xlink:title=" ">
<path fill="none" stroke="#63b8ff" d="M711.64,-93.97C703.16,-92.98 694.47,-91.97 686,-90.99"/>
<polygon fill="#63b8ff" stroke="#63b8ff" points="711.52,-97.48 721.85,-95.15 712.32,-90.52 711.52,-97.48"/>
</a>
</g>
</g>
<!-- Node27 -->
<g id="Node000027" class="node">
<title>Node27</title>
<g id="a_Node000027"><a xlink:href="infer__gptoss_8c.html#a1eb484ef476fc9b7a44d3819959fb307" target="_top" xlink:title="Create an inference context.">
<polygon fill="white" stroke="#666666" points="519,-93 392,-93 392,-74 519,-74 519,-93"/>
<text text-anchor="middle" x="455.5" y="-81" font-family="Helvetica,sans-Serif" font-size="10.00">ie_gptoss_infer_create</text>
</a>
</g>
</g>
<!-- Node26&#45;&gt;Node27 -->
<g id="edge34_Node000026_Node000027" class="edge">
<title>Node26&#45;&gt;Node27</title>
<g id="a_edge34_Node000026_Node000027"><a xlink:title=" ">
<path fill="none" stroke="#63b8ff" d="M544.35,-83.5C535.88,-83.5 527.33,-83.5 519.04,-83.5"/>
<polygon fill="#63b8ff" stroke="#63b8ff" points="544.61,-87 554.61,-83.5 544.61,-80 544.61,-87"/>
</a>
</g>
</g>
<!-- Node27&#45;&gt;Node11 -->
<g id="edge36_Node000027_Node000011" class="edge">
<title>Node27&#45;&gt;Node11</title>
<g id="a_edge36_Node000027_Node000011"><a xlink:title=" ">
<path fill="none" stroke="#63b8ff" d="M402.73,-71.71C380.54,-66.66 354.97,-60.84 333.99,-56.06"/>
<polygon fill="#63b8ff" stroke="#63b8ff" points="402.12,-75.16 412.65,-73.97 403.68,-68.34 402.12,-75.16"/>
</a>
</g>
</g>
<!-- Node27&#45;&gt;Node16 -->
<g id="edge35_Node000027_Node000016" class="edge">
<title>Node27&#45;&gt;Node16</title>
<g id="a_edge35_Node000027_Node000016"><a xlink:title=" ">
<path fill="none" stroke="#63b8ff" d="M381.4,-83.73C320.81,-83.92 236.36,-84.18 183.59,-84.35"/>
<polygon fill="#63b8ff" stroke="#63b8ff" points="381.67,-87.23 391.66,-83.7 381.65,-80.23 381.67,-87.23"/>
</a>
</g>
</g>
</g>
</svg>
