<?xml version="1.0" encoding="UTF-8" standalone="no"?>
<!DOCTYPE svg PUBLIC "-//W3C//DTD SVG 1.1//EN"
 "http://www.w3.org/Graphics/SVG/1.1/DTD/svg11.dtd">
<!-- Generated by graphviz version 2.43.0 (0)
 -->
<!-- Title: ie_gemv_bf16_f32 Pages: 1 -->
<!--zoomable 504 -->

<svg id="main" version="1.1" xmlns="http://www.w3.org/2000/svg" xmlns:xlink="http://www.w3.org/1999/xlink" xml:space="preserve" onload="init(evt)">
<style type="text/css"><![CDATA[
.node, .edge {opacity: 0.7;}
.node.selected, .edge.selected {opacity: 1;}
.edge:hover path { stroke: red; }
.edge:hover polygon { stroke: red; fill: red; }
]]></style>

<defs>
  <circle id="rim" cx="0" cy="0" r="7"/>
  <circle id="rim2" cx="0" cy="0" r="3.5"/>
  <g id="zoomPlus">
    <use xlink:href="#rim" fill="#404040"><set attributeName="fill" to="#808080" begin="zoomplus.mouseover" end="zoomplus.mouseout"/></use>
    <path d="M-4,0h8M0,-4v8" fill="none" stroke="white" stroke-width="1.5" pointer-events="none"/>
  </g>
  <g id="zoomMin">
    <use xlink:href="#rim" fill="#404040"><set attributeName="fill" to="#808080" begin="zoomminus.mouseover" end="zoomminus.mouseout"/></use>
    <path d="M-4,0h8" fill="none" stroke="white" stroke-width="1.5" pointer-events="none"/>
  </g>
  <g id="arrowUp" transform="translate(30 24)">
    <use xlink:href="#rim"/>
    <path pointer-events="none" fill="none" stroke="white" stroke-width="1.5" d="M0,-3.0v7 M-2.5,-0.5L0,-3.0L2.5,-0.5"/>
  </g>
  <g id="arrowRight" transform="rotate(90) translate(36 -43)">
    <use xlink:href="#rim"/>
    <path pointer-events="none" fill="none" stroke="white" stroke-width="1.5" d="M0,-3.0v7 M-2.5,-0.5L0,-3.0L2.5,-0.5"/>
  </g>
  <g id="arrowDown" transform="rotate(180) translate(-30 -48)">
    <use xlink:href="#rim"/>
    <path pointer-events="none" fill="none" stroke="white" stroke-width="1.5" d="M0,-3.0v7 M-2.5,-0.5L0,-3.0L2.5,-0.5"/>
  </g>
  <g id="arrowLeft" transform="rotate(270) translate(-36 17)">
    <use xlink:href="#rim"/>
    <path pointer-events="none" fill="none" stroke="white" stroke-width="1.5" d="M0,-3.0v7 M-2.5,-0.5L0,-3.0L2.5,-0.5"/>
  </g>
  <g id="resetDef">
    <use xlink:href="#rim2" fill="#404040"><set attributeName="fill" to="#808080" begin="reset.mouseover" end="reset.mouseout"/></use>
  </g>
</defs>
<script type="application/ecmascript">
var viewWidth = 872;
var viewHeight = 504;
var sectionId = 'dynsection-5';
</script>
<script type="application/ecmascript" xlink:href="svg.min.js"/>
<svg id="graph" class="graph">
<g id="viewport">
<title>ie_gemv_bf16_f32</title>
<!-- Node1 -->
<g id="Node000001" class="node">
<title>Node1</title>
<g id="a_Node000001"><a xlink:title="GEMV with BF16 weights and FP32 activations.">
<polygon fill="#999999" stroke="#666666" points="107,-422 0,-422 0,-403 107,-403 107,-422"/>
<text text-anchor="middle" x="53.5" y="-410" font-family="Helvetica,sans-Serif" font-size="10.00">ie_gemv_bf16_f32</text>
</a>
</g>
</g>
<!-- Node2 -->
<g id="Node000002" class="node">
<title>Node2</title>
<g id="a_Node000002"><a xlink:href="gemv__generic_8c.html#a4305e41e37933fb79862884be39b7951" target="_top" xlink:title=" ">
<polygon fill="white" stroke="#666666" points="251,-478 162,-478 162,-459 251,-459 251,-478"/>
<text text-anchor="middle" x="206.5" y="-466" font-family="Helvetica,sans-Serif" font-size="10.00">ie_bf16_tp_init</text>
</a>
</g>
</g>
<!-- Node1&#45;&gt;Node2 -->
<g id="edge1_Node000001_Node000002" class="edge">
<title>Node1&#45;&gt;Node2</title>
<g id="a_edge1_Node000001_Node000002"><a xlink:title=" ">
<path fill="none" stroke="#63b8ff" d="M74.95,-422.15C92.7,-430.31 119.22,-442.01 143,-450.5 148.45,-452.45 154.22,-454.33 159.97,-456.11"/>
<polygon fill="#63b8ff" stroke="#63b8ff" points="158.97,-459.47 169.56,-458.98 160.98,-452.76 158.97,-459.47"/>
</a>
</g>
</g>
<!-- Node8 -->
<g id="Node000008" class="node">
<title>Node8</title>
<g id="a_Node000008"><a xlink:href="gemv__generic_8c.html#ad7d21f2b326ed2749d91ed74f5b4ab27" target="_top" xlink:title=" ">
<polygon fill="white" stroke="#666666" points="270,-441 143,-441 143,-422 270,-422 270,-441"/>
<text text-anchor="middle" x="206.5" y="-429" font-family="Helvetica,sans-Serif" font-size="10.00">ie_gemv_bf16_job_run</text>
</a>
</g>
</g>
<!-- Node1&#45;&gt;Node8 -->
<g id="edge7_Node000001_Node000008" class="edge">
<title>Node1&#45;&gt;Node8</title>
<g id="a_edge7_Node000001_Node000008"><a xlink:title=" ">
<path fill="none" stroke="#63b8ff" d="M107.31,-419.15C115.56,-420.18 124.22,-421.27 132.82,-422.35"/>
<polygon fill="#63b8ff" stroke="#63b8ff" points="132.51,-425.84 142.87,-423.62 133.38,-418.9 132.51,-425.84"/>
</a>
</g>
</g>
<!-- Node9 -->
<g id="Node000009" class="node">
<title>Node9</title>
<g id="a_Node000009"><a xlink:href="gemv__generic_8c.html#afcee3c04ff97cb24bf4d3d84cbe1b9e7" target="_top" xlink:title=" ">
<polygon fill="white" stroke="#666666" points="263,-291 150,-291 150,-272 263,-272 263,-291"/>
<text text-anchor="middle" x="206.5" y="-279" font-family="Helvetica,sans-Serif" font-size="10.00">ie_kernels_lazy_init</text>
</a>
</g>
</g>
<!-- Node1&#45;&gt;Node9 -->
<g id="edge8_Node000001_Node000009" class="edge">
<title>Node1&#45;&gt;Node9</title>
<g id="a_edge8_Node000001_Node000009"><a xlink:title=" ">
<path fill="none" stroke="#63b8ff" d="M65.85,-402.65C91.66,-380.26 154.99,-325.32 186.73,-297.79"/>
<polygon fill="#63b8ff" stroke="#63b8ff" points="189.17,-300.3 194.43,-291.1 184.58,-295.01 189.17,-300.3"/>
</a>
</g>
</g>
<!-- Node31 -->
<g id="Node000031" class="node">
<title>Node31</title>
<g id="a_Node000031"><a xlink:href="thread__pool_8c.html#ab0bb2b90df0908183de34784810a9386" target="_top" xlink:title="Execute a synchronous parallel&#45;for over n iterations.">
<polygon fill="white" stroke="#666666" points="415.5,-412 314.5,-412 314.5,-393 415.5,-393 415.5,-412"/>
<text text-anchor="middle" x="365" y="-400" font-family="Helvetica,sans-Serif" font-size="10.00">ie_tp_parallel_for</text>
</a>
</g>
</g>
<!-- Node1&#45;&gt;Node31 -->
<g id="edge35_Node000001_Node000031" class="edge">
<title>Node1&#45;&gt;Node31</title>
<g id="a_edge35_Node000001_Node000031"><a xlink:title=" ">
<path fill="none" stroke="#63b8ff" d="M107,-410.8C161.56,-409.04 246.79,-406.29 303.98,-404.44"/>
<polygon fill="#63b8ff" stroke="#63b8ff" points="304.43,-407.93 314.32,-404.11 304.21,-400.93 304.43,-407.93"/>
</a>
</g>
</g>
<!-- Node3 -->
<g id="Node000003" class="node">
<title>Node3</title>
<g id="a_Node000003"><a xlink:href="gemv__generic_8c.html#a6d5a8fa1873b2a46dd1d027fba8d823e" target="_top" xlink:title=" ">
<polygon fill="white" stroke="#666666" points="424,-496 306,-496 306,-477 424,-477 424,-496"/>
<text text-anchor="middle" x="365" y="-484" font-family="Helvetica,sans-Serif" font-size="10.00">ie_bf16_threads_env</text>
</a>
</g>
</g>
<!-- Node2&#45;&gt;Node3 -->
<g id="edge2_Node000002_Node000003" class="edge">
<title>Node2&#45;&gt;Node3</title>
<g id="a_edge2_Node000002_Node000003"><a xlink:title=" ">
<path fill="none" stroke="#63b8ff" d="M251.09,-473.51C264.84,-475.09 280.36,-476.88 295.41,-478.61"/>
<polygon fill="#63b8ff" stroke="#63b8ff" points="295.39,-482.13 305.72,-479.8 296.19,-475.18 295.39,-482.13"/>
</a>
</g>
</g>
<!-- Node4 -->
<g id="Node000004" class="node">
<title>Node4</title>
<g id="a_Node000004"><a xlink:href="thread__pool_8c.html#ac8f8095fb1ec189946232325a3fce3a2" target="_top" xlink:title="Create a thread pool.">
<polygon fill="white" stroke="#666666" points="403.5,-459 326.5,-459 326.5,-440 403.5,-440 403.5,-459"/>
<text text-anchor="middle" x="365" y="-447" font-family="Helvetica,sans-Serif" font-size="10.00">ie_tp_create</text>
</a>
</g>
</g>
<!-- Node2&#45;&gt;Node4 -->
<g id="edge3_Node000002_Node000004" class="edge">
<title>Node2&#45;&gt;Node4</title>
<g id="a_edge3_Node000002_Node000004"><a xlink:title=" ">
<path fill="none" stroke="#63b8ff" d="M251.09,-463.21C271.37,-460.75 295.53,-457.81 316.28,-455.29"/>
<polygon fill="#63b8ff" stroke="#63b8ff" points="316.97,-458.73 326.48,-454.06 316.13,-451.79 316.97,-458.73"/>
</a>
</g>
</g>
<!-- Node5 -->
<g id="Node000005" class="node">
<title>Node5</title>
<g id="a_Node000005"><a xlink:href="thread__pool_8c.html#a76c9a7c2502624899ae3cb5d46c04f7e" target="_top" xlink:title=" ">
<polygon fill="white" stroke="#666666" points="588.5,-459 494.5,-459 494.5,-440 588.5,-440 588.5,-459"/>
<text text-anchor="middle" x="541.5" y="-447" font-family="Helvetica,sans-Serif" font-size="10.00">ie_worker_main</text>
</a>
</g>
</g>
<!-- Node4&#45;&gt;Node5 -->
<g id="edge4_Node000004_Node000005" class="edge">
<title>Node4&#45;&gt;Node5</title>
<g id="a_edge4_Node000004_Node000005"><a xlink:title=" ">
<path fill="none" stroke="#63b8ff" d="M403.86,-449.5C427.31,-449.5 457.86,-449.5 484.12,-449.5"/>
<polygon fill="#63b8ff" stroke="#63b8ff" points="484.33,-453 494.33,-449.5 484.33,-446 484.33,-453"/>
</a>
</g>
</g>
<!-- Node6 -->
<g id="Node000006" class="node">
<title>Node6</title>
<g id="a_Node000006"><a xlink:href="thread__pool_8c.html#a5449dd0e500032916ba5574c066d01fe" target="_top" xlink:title=" ">
<polygon fill="white" stroke="#666666" points="758,-476 672,-476 672,-457 758,-457 758,-476"/>
<text text-anchor="middle" x="715" y="-464" font-family="Helvetica,sans-Serif" font-size="10.00">ie_set_affinity</text>
</a>
</g>
</g>
<!-- Node5&#45;&gt;Node6 -->
<g id="edge5_Node000005_Node000006" class="edge">
<title>Node5&#45;&gt;Node6</title>
<g id="a_edge5_Node000005_Node000006"><a xlink:title=" ">
<path fill="none" stroke="#63b8ff" d="M588.91,-454.1C611.46,-456.34 638.65,-459.03 661.91,-461.34"/>
<polygon fill="#63b8ff" stroke="#63b8ff" points="661.66,-464.83 671.95,-462.33 662.35,-457.86 661.66,-464.83"/>
</a>
</g>
</g>
<!-- Node7 -->
<g id="Node000007" class="node">
<title>Node7</title>
<g id="a_Node000007"><a xlink:href="thread__pool_8c.html#a8e90f396ea74ef6341ce30eac007f1f7" target="_top" xlink:title=" ">
<polygon fill="white" stroke="#666666" points="765,-439 665,-439 665,-420 765,-420 765,-439"/>
<text text-anchor="middle" x="715" y="-427" font-family="Helvetica,sans-Serif" font-size="10.00">ie_tp_worker_run</text>
</a>
</g>
</g>
<!-- Node5&#45;&gt;Node7 -->
<g id="edge6_Node000005_Node000007" class="edge">
<title>Node5&#45;&gt;Node7</title>
<g id="a_edge6_Node000005_Node000007"><a xlink:title=" ">
<path fill="none" stroke="#63b8ff" d="M588.91,-444.09C609.21,-441.72 633.26,-438.92 654.82,-436.4"/>
<polygon fill="#63b8ff" stroke="#63b8ff" points="655.33,-439.87 664.85,-435.23 654.51,-432.91 655.33,-439.87"/>
</a>
</g>
</g>
<!-- Node10 -->
<g id="Node000010" class="node">
<title>Node10</title>
<g id="a_Node000010"><a xlink:href="gemv__generic_8c.html#a1b919f71b86ec1791fe53bc68d5c240d" target="_top" xlink:title="Install the best available CPU kernels for this process.">
<polygon fill="white" stroke="#666666" points="415.5,-227 314.5,-227 314.5,-208 415.5,-208 415.5,-227"/>
<text text-anchor="middle" x="365" y="-215" font-family="Helvetica,sans-Serif" font-size="10.00">ie_kernels_install</text>
</a>
</g>
</g>
<!-- Node9&#45;&gt;Node10 -->
<g id="edge9_Node000009_Node000010" class="edge">
<title>Node9&#45;&gt;Node10</title>
<g id="a_edge9_Node000009_Node000010"><a xlink:title=" ">
<path fill="none" stroke="#63b8ff" d="M230.93,-271.92C257.51,-261.05 301.06,-243.24 331.06,-230.97"/>
<polygon fill="#63b8ff" stroke="#63b8ff" points="332.74,-234.07 340.67,-227.04 330.09,-227.59 332.74,-234.07"/>
</a>
</g>
</g>
<!-- Node11 -->
<g id="Node000011" class="node">
<title>Node11</title>
<g id="a_Node000011"><a xlink:href="cpu__features_8c.html#a52efeab08d996ee1bef746c591684b9d" target="_top" xlink:title="Alias for ie_cpu_detect for clearer call sites.">
<polygon fill="white" stroke="#666666" points="606.5,-301 476.5,-301 476.5,-282 606.5,-282 606.5,-301"/>
<text text-anchor="middle" x="541.5" y="-289" font-family="Helvetica,sans-Serif" font-size="10.00">ie_cpu_features_detect</text>
</a>
</g>
</g>
<!-- Node10&#45;&gt;Node11 -->
<g id="edge10_Node000010_Node000011" class="edge">
<title>Node10&#45;&gt;Node11</title>
<g id="a_edge10_Node000010_Node000011"><a xlink:title=" ">
<path fill="none" stroke="#63b8ff" d="M379,-227.08C396.53,-239.55 429.11,-261.21 460,-273.5 465.37,-275.64 471.05,-277.55 476.8,-279.25"/>
<polygon fill="#63b8ff" stroke="#63b8ff" points="475.95,-282.64 486.52,-281.92 477.81,-275.89 475.95,-282.64"/>
</a>
</g>
</g>
<!-- Node16 -->
<g id="Node000016" class="node">
<title>Node16</title>
<g id="a_Node000016"><a xlink:href="gemv__avx2_8c.html#a77b098e769256a6b3dc5cee67134585d" target="_top" xlink:title=" ">
<polygon fill="white" stroke="#666666" points="623,-153 460,-153 460,-134 623,-134 623,-153"/>
<text text-anchor="middle" x="541.5" y="-141" font-family="Helvetica,sans-Serif" font-size="10.00">ie_gemv_bf16_f32_avx2_impl</text>
</a>
</g>
</g>
<!-- Node10&#45;&gt;Node16 -->
<g id="edge15_Node000010_Node000016" class="edge">
<title>Node10&#45;&gt;Node16</title>
<g id="a_edge15_Node000010_Node000016"><a xlink:title=" ">
<path fill="none" stroke="#63b8ff" d="M379.35,-207.95C397.01,-195.74 429.45,-174.72 460,-162.5 466.27,-159.99 472.95,-157.76 479.69,-155.8"/>
<polygon fill="#63b8ff" stroke="#63b8ff" points="480.82,-159.12 489.54,-153.1 478.98,-152.36 480.82,-159.12"/>
</a>
</g>
</g>
<!-- Node19 -->
<g id="Node000019" class="node">
<title>Node19</title>
<g id="a_Node000019"><a xlink:href="gemv__generic_8c.html#a07fc9251edf42c12732cce490f6dbec0" target="_top" xlink:title=" ">
<polygon fill="white" stroke="#666666" points="618.5,-19 464.5,-19 464.5,0 618.5,0 618.5,-19"/>
<text text-anchor="middle" x="541.5" y="-7" font-family="Helvetica,sans-Serif" font-size="10.00">ie_gemv_bf16_generic_impl</text>
</a>
</g>
</g>
<!-- Node10&#45;&gt;Node19 -->
<g id="edge18_Node000010_Node000019" class="edge">
<title>Node10&#45;&gt;Node19</title>
<g id="a_edge18_Node000010_Node000019"><a xlink:title=" ">
<path fill="none" stroke="#63b8ff" d="M367.8,-207.84C374.15,-176.56 398.56,-77.23 460,-28.5 462.19,-26.76 464.52,-25.18 466.94,-23.73"/>
<polygon fill="#63b8ff" stroke="#63b8ff" points="468.75,-26.74 476.1,-19.1 465.59,-20.49 468.75,-26.74"/>
</a>
</g>
</g>
<!-- Node21 -->
<g id="Node000021" class="node">
<title>Node21</title>
<g id="a_Node000021"><a xlink:href="gemv__avx2_8c.html#acaba4ae4061c51c21ce544cdef0abfeb" target="_top" xlink:title=" ">
<polygon fill="white" stroke="#666666" points="609.5,-264 473.5,-264 473.5,-245 609.5,-245 609.5,-264"/>
<text text-anchor="middle" x="541.5" y="-252" font-family="Helvetica,sans-Serif" font-size="10.00">ie_gemv_f32_avx2_impl</text>
</a>
</g>
</g>
<!-- Node10&#45;&gt;Node21 -->
<g id="edge20_Node000010_Node000021" class="edge">
<title>Node10&#45;&gt;Node21</title>
<g id="a_edge20_Node000010_Node000021"><a xlink:title=" ">
<path fill="none" stroke="#63b8ff" d="M410.94,-227.03C433.65,-231.84 461.4,-237.73 485.39,-242.81"/>
<polygon fill="#63b8ff" stroke="#63b8ff" points="484.9,-246.29 495.41,-244.94 486.35,-239.44 484.9,-246.29"/>
</a>
</g>
</g>
<!-- Node22 -->
<g id="Node000022" class="node">
<title>Node22</title>
<g id="a_Node000022"><a xlink:href="gemv__generic_8c.html#a2458b36cdf25be06d49e73da98c27a66" target="_top" xlink:title=" ">
<polygon fill="white" stroke="#666666" points="615.5,-190 467.5,-190 467.5,-171 615.5,-171 615.5,-190"/>
<text text-anchor="middle" x="541.5" y="-178" font-family="Helvetica,sans-Serif" font-size="10.00">ie_gemv_f32_generic_impl</text>
</a>
</g>
</g>
<!-- Node10&#45;&gt;Node22 -->
<g id="edge22_Node000010_Node000022" class="edge">
<title>Node10&#45;&gt;Node22</title>
<g id="a_edge22_Node000010_Node000022"><a xlink:title=" ">
<path fill="none" stroke="#63b8ff" d="M410.94,-207.97C433.65,-203.16 461.4,-197.27 485.39,-192.19"/>
<polygon fill="#63b8ff" stroke="#63b8ff" points="486.35,-195.56 495.41,-190.06 484.9,-188.71 486.35,-195.56"/>
</a>
</g>
</g>
<!-- Node23 -->
<g id="Node000023" class="node">
<title>Node23</title>
<g id="a_Node000023"><a xlink:href="gemv__avx2_8c.html#a061189cc7f89d42b42e03eccedb0a59e" target="_top" xlink:title=" ">
<polygon fill="white" stroke="#666666" points="609,-227 474,-227 474,-208 609,-208 609,-227"/>
<text text-anchor="middle" x="541.5" y="-215" font-family="Helvetica,sans-Serif" font-size="10.00">ie_gemv_qi8_avx2_impl</text>
</a>
</g>
</g>
<!-- Node10&#45;&gt;Node23 -->
<g id="edge23_Node000010_Node000023" class="edge">
<title>Node10&#45;&gt;Node23</title>
<g id="a_edge23_Node000010_Node000023"><a xlink:title=" ">
<path fill="none" stroke="#63b8ff" d="M415.54,-217.5C430.56,-217.5 447.42,-217.5 463.79,-217.5"/>
<polygon fill="#63b8ff" stroke="#63b8ff" points="463.89,-221 473.89,-217.5 463.89,-214 463.89,-221"/>
</a>
</g>
</g>
<!-- Node24 -->
<g id="Node000024" class="node">
<title>Node24</title>
<g id="a_Node000024"><a xlink:href="gemv__generic_8c.html#a3e532847f3b6cd6a2ed3be0786ee18ce" target="_top" xlink:title=" ">
<polygon fill="white" stroke="#666666" points="607.5,-343 475.5,-343 475.5,-324 607.5,-324 607.5,-343"/>
<text text-anchor="middle" x="541.5" y="-331" font-family="Helvetica,sans-Serif" font-size="10.00">ie_gemv_qi8_stub_impl</text>
</a>
</g>
</g>
<!-- Node10&#45;&gt;Node24 -->
<g id="edge25_Node000010_Node000024" class="edge">
<title>Node10&#45;&gt;Node24</title>
<g id="a_edge25_Node000010_Node000024"><a xlink:title=" ">
<path fill="none" stroke="#63b8ff" d="M373.11,-227.27C387.4,-246.2 421.56,-288.02 460,-310.5 466.96,-314.57 474.68,-317.95 482.5,-320.76"/>
<polygon fill="#63b8ff" stroke="#63b8ff" points="481.47,-324.1 492.06,-323.91 483.65,-317.45 481.47,-324.1"/>
</a>
</g>
</g>
<!-- Node27 -->
<g id="Node000027" class="node">
<title>Node27</title>
<g id="a_Node000027"><a xlink:href="gemv__generic_8c.html#abdc04113c83880ea48ee1599cf3db331" target="_top" xlink:title=" ">
<polygon fill="white" stroke="#666666" points="596.5,-382 486.5,-382 486.5,-363 596.5,-363 596.5,-382"/>
<text text-anchor="middle" x="541.5" y="-370" font-family="Helvetica,sans-Serif" font-size="10.00">ie_log_kernel_once</text>
</a>
</g>
</g>
<!-- Node10&#45;&gt;Node27 -->
<g id="edge28_Node000010_Node000027" class="edge">
<title>Node10&#45;&gt;Node27</title>
<g id="a_edge28_Node000010_Node000027"><a xlink:title=" ">
<path fill="none" stroke="#63b8ff" d="M369.81,-227.12C380.21,-252.05 411.54,-319.13 460,-352.5 465.14,-356.04 470.84,-358.95 476.77,-361.35"/>
<polygon fill="#63b8ff" stroke="#63b8ff" points="475.63,-364.66 486.23,-364.71 477.98,-358.06 475.63,-364.66"/>
</a>
</g>
</g>
<!-- Node29 -->
<g id="Node000029" class="node">
<title>Node29</title>
<g id="a_Node000029"><a xlink:href="gemv__avx2_8c.html#a182d6274d92f1f94910f1881e7cd3b19" target="_top" xlink:title=" ">
<polygon fill="white" stroke="#666666" points="597,-115.5 486,-115.5 486,-85.5 597,-85.5 597,-115.5"/>
<text text-anchor="start" x="494" y="-103.5" font-family="Helvetica,sans-Serif" font-size="10.00">ie_vec_bf16_to_f32</text>
<text text-anchor="middle" x="541.5" y="-92.5" font-family="Helvetica,sans-Serif" font-size="10.00">_avx2_impl</text>
</a>
</g>
</g>
<!-- Node10&#45;&gt;Node29 -->
<g id="edge31_Node000010_Node000029" class="edge">
<title>Node10&#45;&gt;Node29</title>
<g id="a_edge31_Node000010_Node000029"><a xlink:title=" ">
<path fill="none" stroke="#63b8ff" d="M373.13,-207.77C387.46,-188.9 421.68,-147.2 460,-124.5 465.06,-121.5 470.53,-118.85 476.15,-116.51"/>
<polygon fill="#63b8ff" stroke="#63b8ff" points="477.61,-119.7 485.7,-112.87 475.11,-113.16 477.61,-119.7"/>
</a>
</g>
</g>
<!-- Node30 -->
<g id="Node000030" class="node">
<title>Node30</title>
<g id="a_Node000030"><a xlink:href="gemv__generic_8c.html#a9d75736f9f9d37cbc2bb7fe37c06cc55" target="_top" xlink:title=" ">
<polygon fill="white" stroke="#666666" points="597,-67.5 486,-67.5 486,-37.5 597,-37.5 597,-67.5"/>
<text text-anchor="start" x="494" y="-55.5" font-family="Helvetica,sans-Serif" font-size="10.00">ie_vec_bf16_to_f32</text>
<text text-anchor="middle" x="541.5" y="-44.5" font-family="Helvetica,sans-Serif" font-size="10.00">_generic_impl</text>
</a>
</g>
</g>
<!-- Node10&#45;&gt;Node30 -->
<g id="edge33_Node000010_Node000030" class="edge">
<title>Node10&#45;&gt;Node30</title>
<g id="a_edge33_Node000010_Node000030"><a xlink:title=" ">
<path fill="none" stroke="#63b8ff" d="M369.63,-207.96C379.79,-182.54 411.02,-112.69 460,-76.5 465,-72.8 470.57,-69.67 476.39,-67.02"/>
<polygon fill="#63b8ff" stroke="#63b8ff" points="477.73,-70.25 485.67,-63.24 475.08,-63.77 477.73,-70.25"/>
</a>
</g>
</g>
<!-- Node12 -->
<g id="Node000012" class="node">
<title>Node12</title>
<g id="a_Node000012"><a xlink:href="cpu__features_8c.html#a57a31c8ca934dd8b9321a1b2d1b7f904" target="_top" xlink:title="Serialize CPU features into a stable one&#45;line string.">
<polygon fill="white" stroke="#666666" points="769.5,-290.5 660.5,-290.5 660.5,-260.5 769.5,-260.5 769.5,-290.5"/>
<text text-anchor="start" x="668.5" y="-278.5" font-family="Helvetica,sans-Serif" font-size="10.00">ie_cpu_features_to</text>
<text text-anchor="middle" x="715" y="-267.5" font-family="Helvetica,sans-Serif" font-size="10.00">_string</text>
</a>
</g>
</g>
<!-- Node11&#45;&gt;Node12 -->
<g id="edge11_Node000011_Node000012" class="edge">
<title>Node11&#45;&gt;Node12</title>
<g id="a_edge11_Node000011_Node000012"><a xlink:title=" ">
<path fill="none" stroke="#63b8ff" d="M606.85,-285.5C621.07,-284.17 636.14,-282.76 650.34,-281.44"/>
<polygon fill="#63b8ff" stroke="#63b8ff" points="650.87,-284.91 660.5,-280.49 650.22,-277.94 650.87,-284.91"/>
</a>
</g>
</g>
<!-- Node13 -->
<g id="Node000013" class="node">
<title>Node13</title>
<g id="a_Node000013"><a xlink:href="cpu__features_8c.html#ab2d914e201f157a55add02484039d91e" target="_top" xlink:title="Query CPUID with leaf and subleaf.">
<polygon fill="white" stroke="#666666" points="752,-242 678,-242 678,-223 752,-223 752,-242"/>
<text text-anchor="middle" x="715" y="-230" font-family="Helvetica,sans-Serif" font-size="10.00">ie_cpuid_ex</text>
</a>
</g>
</g>
<!-- Node11&#45;&gt;Node13 -->
<g id="edge12_Node000011_Node000013" class="edge">
<title>Node11&#45;&gt;Node13</title>
<g id="a_edge12_Node000011_Node000013"><a xlink:title=" ">
<path fill="none" stroke="#63b8ff" d="M596.94,-281.89C605.8,-279.6 614.77,-276.83 623,-273.5 640.38,-266.47 642.04,-259.5 659,-251.5 663.45,-249.4 668.19,-247.42 672.96,-245.57"/>
<polygon fill="#63b8ff" stroke="#63b8ff" points="674.51,-248.73 682.7,-242 672.1,-242.16 674.51,-248.73"/>
</a>
</g>
</g>
<!-- Node14 -->
<g id="Node000014" class="node">
<title>Node14</title>
<g id="a_Node000014"><a xlink:href="cpu__features_8c.html#a87c4545ac0ad2b6ad2fd70a090b63146" target="_top" xlink:title="Return 1 if the environment variable name is set to a truthy value.">
<polygon fill="white" stroke="#666666" points="751,-205 679,-205 679,-186 751,-186 751,-205"/>
<text text-anchor="middle" x="715" y="-193" font-family="Helvetica,sans-Serif" font-size="10.00">ie_env_flag</text>
</a>
</g>
</g>
<!-- Node11&#45;&gt;Node14 -->
<g id="edge13_Node000011_Node000014" class="edge">
<title>Node11&#45;&gt;Node14</title>
<g id="a_edge13_Node000011_Node000014"><a xlink:title=" ">
<path fill="none" stroke="#63b8ff" d="M606.55,-282.3C612.4,-279.97 617.99,-277.09 623,-273.5 647.97,-255.62 635.07,-233.76 659,-214.5 662.28,-211.86 665.94,-209.58 669.78,-207.61"/>
<polygon fill="#63b8ff" stroke="#63b8ff" points="671.23,-210.79 678.96,-203.55 668.4,-204.39 671.23,-210.79"/>
</a>
</g>
</g>
<!-- Node15 -->
<g id="Node000015" class="node">
<title>Node15</title>
<g id="a_Node000015"><a xlink:href="cpu__features_8c.html#ab6c2c4097b43f59eb931f7968096761b" target="_top" xlink:title="Read XCR0 via XGETBV to validate OS support for XMM/YMM state.">
<polygon fill="white" stroke="#666666" points="760.5,-328 669.5,-328 669.5,-309 760.5,-309 760.5,-328"/>
<text text-anchor="middle" x="715" y="-316" font-family="Helvetica,sans-Serif" font-size="10.00">ie_xgetbv_xcr0</text>
</a>
</g>
</g>
<!-- Node11&#45;&gt;Node15 -->
<g id="edge14_Node000011_Node000015" class="edge">
<title>Node11&#45;&gt;Node15</title>
<g id="a_edge14_Node000011_Node000015"><a xlink:title=" ">
<path fill="none" stroke="#63b8ff" d="M602.96,-301.02C621.35,-303.91 641.44,-307.08 659.41,-309.91"/>
<polygon fill="#63b8ff" stroke="#63b8ff" points="659.02,-313.39 669.44,-311.48 660.1,-306.47 659.02,-313.39"/>
</a>
</g>
</g>
<!-- Node17 -->
<g id="Node000017" class="node">
<title>Node17</title>
<g id="a_Node000017"><a xlink:href="gemv__avx2_8c.html#af98ef5b386495afea4aa3d751bab35fd" target="_top" xlink:title="Convert 8 BF16 values to FP32.">
<polygon fill="white" stroke="#666666" points="765.5,-120 664.5,-120 664.5,-101 765.5,-101 765.5,-120"/>
<text text-anchor="middle" x="715" y="-108" font-family="Helvetica,sans-Serif" font-size="10.00">ie_bf16x8_to_f32</text>
</a>
</g>
</g>
<!-- Node16&#45;&gt;Node17 -->
<g id="edge16_Node000016_Node000017" class="edge">
<title>Node16&#45;&gt;Node17</title>
<g id="a_edge16_Node000016_Node000017"><a xlink:title=" ">
<path fill="none" stroke="#63b8ff" d="M592.1,-133.96C611.57,-130.21 634.08,-125.88 654.41,-121.97"/>
<polygon fill="#63b8ff" stroke="#63b8ff" points="655.35,-125.35 664.51,-120.02 654.03,-118.48 655.35,-125.35"/>
</a>
</g>
</g>
<!-- Node18 -->
<g id="Node000018" class="node">
<title>Node18</title>
<g id="a_Node000018"><a xlink:href="gemv__avx2_8c.html#a6925be1ed2abd13aef877a68bed45995" target="_top" xlink:title="Horizontal sum of an AVX2 register.">
<polygon fill="white" stroke="#666666" points="761,-168 669,-168 669,-149 761,-149 761,-168"/>
<text text-anchor="middle" x="715" y="-156" font-family="Helvetica,sans-Serif" font-size="10.00">ie_hsum256_ps</text>
</a>
</g>
</g>
<!-- Node16&#45;&gt;Node18 -->
<g id="edge17_Node000016_Node000018" class="edge">
<title>Node16&#45;&gt;Node18</title>
<g id="a_edge17_Node000016_Node000018"><a xlink:title=" ">
<path fill="none" stroke="#63b8ff" d="M623.23,-150.56C635.2,-151.61 647.31,-152.67 658.6,-153.65"/>
<polygon fill="#63b8ff" stroke="#63b8ff" points="658.46,-157.16 668.72,-154.54 659.07,-150.18 658.46,-157.16"/>
</a>
</g>
</g>
<!-- Node20 -->
<g id="Node000020" class="node">
<title>Node20</title>
<g id="a_Node000020"><a xlink:href="gemv__generic_8c.html#a25aaeba2e146d0f4cfd8f968a6cb8689" target="_top" xlink:title=" ">
<polygon fill="white" stroke="#666666" points="771,-41 659,-41 659,-22 771,-22 771,-41"/>
<text text-anchor="middle" x="715" y="-29" font-family="Helvetica,sans-Serif" font-size="10.00">ie_bf16_bits_to_f32</text>
</a>
</g>
</g>
<!-- Node19&#45;&gt;Node20 -->
<g id="edge19_Node000019_Node000020" class="edge">
<title>Node19&#45;&gt;Node20</title>
<g id="a_edge19_Node000019_Node000020"><a xlink:title=" ">
<path fill="none" stroke="#63b8ff" d="M616.72,-19.02C627.32,-20.38 638.15,-21.77 648.55,-23.1"/>
<polygon fill="#63b8ff" stroke="#63b8ff" points="648.43,-26.62 658.8,-24.42 649.32,-19.67 648.43,-26.62"/>
</a>
</g>
</g>
<!-- Node21&#45;&gt;Node18 -->
<g id="edge21_Node000021_Node000018" class="edge">
<title>Node21&#45;&gt;Node18</title>
<g id="a_edge21_Node000021_Node000018"><a xlink:title=" ">
<path fill="none" stroke="#63b8ff" d="M607.37,-244.97C612.92,-242.7 618.23,-239.92 623,-236.5 647.97,-218.62 635.07,-196.76 659,-177.5 661.25,-175.69 663.68,-174.04 666.23,-172.55"/>
<polygon fill="#63b8ff" stroke="#63b8ff" points="667.86,-175.65 675.24,-168.05 664.73,-169.39 667.86,-175.65"/>
</a>
</g>
</g>
<!-- Node23&#45;&gt;Node18 -->
<g id="edge24_Node000023_Node000018" class="edge">
<title>Node23&#45;&gt;Node18</title>
<g id="a_edge24_Node000023_Node000018"><a xlink:title=" ">
<path fill="none" stroke="#63b8ff" d="M596.94,-207.89C605.8,-205.6 614.77,-202.83 623,-199.5 640.38,-192.47 642.04,-185.5 659,-177.5 663.45,-175.4 668.19,-173.42 672.96,-171.57"/>
<polygon fill="#63b8ff" stroke="#63b8ff" points="674.51,-174.73 682.7,-168 672.1,-168.16 674.51,-174.73"/>
</a>
</g>
</g>
<!-- Node25 -->
<g id="Node000025" class="node">
<title>Node25</title>
<g id="a_Node000025"><a xlink:href="util__logging_8c.html#aea21466075cc03977bc4fcde5130d6a4" target="_top" xlink:title="Log an error message (printf&#45;style).">
<polygon fill="white" stroke="#666666" points="752,-365 678,-365 678,-346 752,-346 752,-365"/>
<text text-anchor="middle" x="715" y="-353" font-family="Helvetica,sans-Serif" font-size="10.00">ie_log_error</text>
</a>
</g>
</g>
<!-- Node24&#45;&gt;Node25 -->
<g id="edge26_Node000024_Node000025" class="edge">
<title>Node24&#45;&gt;Node25</title>
<g id="a_edge26_Node000024_Node000025"><a xlink:title=" ">
<path fill="none" stroke="#63b8ff" d="M607.83,-341.88C627.7,-344.43 649.13,-347.18 667.5,-349.53"/>
<polygon fill="#63b8ff" stroke="#63b8ff" points="667.27,-353.03 677.64,-350.84 668.16,-346.09 667.27,-353.03"/>
</a>
</g>
</g>
<!-- Node26 -->
<g id="Node000026" class="node">
<title>Node26</title>
<g id="a_Node000026"><a xlink:href="util__logging_8c.html#ac0a8abb7ed0f336e7d2a4a9eeac1e634" target="_top" xlink:title=" ">
<polygon fill="white" stroke="#666666" points="864,-383 807,-383 807,-364 864,-364 864,-383"/>
<text text-anchor="middle" x="835.5" y="-371" font-family="Helvetica,sans-Serif" font-size="10.00">ie_vlog_</text>
</a>
</g>
</g>
<!-- Node25&#45;&gt;Node26 -->
<g id="edge27_Node000025_Node000026" class="edge">
<title>Node25&#45;&gt;Node26</title>
<g id="a_edge27_Node000025_Node000026"><a xlink:title=" ">
<path fill="none" stroke="#63b8ff" d="M752.2,-361C766.33,-363.14 782.53,-365.61 796.8,-367.77"/>
<polygon fill="#63b8ff" stroke="#63b8ff" points="796.38,-371.25 806.8,-369.29 797.44,-364.33 796.38,-371.25"/>
</a>
</g>
</g>
<!-- Node28 -->
<g id="Node000028" class="node">
<title>Node28</title>
<g id="a_Node000028"><a xlink:href="util__logging_8c.html#a7bff220c76442d1372d81e26f77c2921" target="_top" xlink:title="Log an informational message (printf&#45;style).">
<polygon fill="white" stroke="#666666" points="750,-402 680,-402 680,-383 750,-383 750,-402"/>
<text text-anchor="middle" x="715" y="-390" font-family="Helvetica,sans-Serif" font-size="10.00">ie_log_info</text>
</a>
</g>
</g>
<!-- Node27&#45;&gt;Node28 -->
<g id="edge29_Node000027_Node000028" class="edge">
<title>Node27&#45;&gt;Node28</title>
<g id="a_edge29_Node000027_Node000028"><a xlink:title=" ">
<path fill="none" stroke="#63b8ff" d="M596.76,-378.83C620.23,-381.56 647.35,-384.73 669.59,-387.32"/>
<polygon fill="#63b8ff" stroke="#63b8ff" points="669.42,-390.82 679.76,-388.51 670.23,-383.87 669.42,-390.82"/>
</a>
</g>
</g>
<!-- Node28&#45;&gt;Node26 -->
<g id="edge30_Node000028_Node000026" class="edge">
<title>Node28&#45;&gt;Node26</title>
<g id="a_edge30_Node000028_Node000026"><a xlink:title=" ">
<path fill="none" stroke="#63b8ff" d="M750.28,-387C764.83,-384.67 781.84,-381.94 796.75,-379.55"/>
<polygon fill="#63b8ff" stroke="#63b8ff" points="797.36,-383 806.68,-377.96 796.25,-376.09 797.36,-383"/>
</a>
</g>
</g>
<!-- Node29&#45;&gt;Node17 -->
<g id="edge32_Node000029_Node000017" class="edge">
<title>Node29&#45;&gt;Node17</title>
<g id="a_edge32_Node000029_Node000017"><a xlink:title=" ">
<path fill="none" stroke="#63b8ff" d="M597.24,-103.69C615.43,-104.75 635.78,-105.94 654.33,-107.02"/>
<polygon fill="#63b8ff" stroke="#63b8ff" points="654.24,-110.52 664.43,-107.61 654.65,-103.53 654.24,-110.52"/>
</a>
</g>
</g>
<!-- Node30&#45;&gt;Node20 -->
<g id="edge34_Node000030_Node000020" class="edge">
<title>Node30&#45;&gt;Node20</title>
<g id="a_edge34_Node000030_Node000020"><a xlink:title=" ">
<path fill="none" stroke="#63b8ff" d="M597.24,-45.8C613.55,-43.8 631.6,-41.59 648.53,-39.52"/>
<polygon fill="#63b8ff" stroke="#63b8ff" points="649.4,-42.94 658.9,-38.25 648.55,-35.99 649.4,-42.94"/>
</a>
</g>
</g>
<!-- Node31&#45;&gt;Node7 -->
<g id="edge36_Node000031_Node000007" class="edge">
<title>Node31&#45;&gt;Node7</title>
<g id="a_edge36_Node000031_Node000007"><a xlink:title=" ">
<path fill="none" stroke="#63b8ff" d="M415.86,-406.37C478.96,-411.26 587.52,-419.69 654.78,-424.9"/>
<polygon fill="#63b8ff" stroke="#63b8ff" points="654.55,-428.4 664.79,-425.68 655.1,-421.42 654.55,-428.4"/>
</a>
</g>
</g>
</g>
</svg>

<g id="navigator" transform="translate(0 0)" fill="#404254">
  <rect fill="#f2f5e9" fill-opacity="0.5" stroke="#606060" stroke-width=".5" x="0" y="0" width="60" height="60"/>
  <use id="zoomplus" xlink:href="#zoomPlus" x="17" y="9" onmousedown="handleZoom(evt,'in')"/>
  <use id="zoomminus" xlink:href="#zoomMin" x="42" y="9" onmousedown="handleZoom(evt,'out')"/>
  <use id="reset" xlink:href="#resetDef" x="30" y="36" onmousedown="handleReset()"/>
   <use id="arrowup" xlink:href="#arrowUp" x="0" y="0" onmousedown="handlePan(0,-1)"/>
  <use id="arrowright" xlink:href="#arrowRight" x="0" y="0" onmousedown="handlePan(1,0)"/>
  <use id="arrowdown" xlink:href="#arrowDown" x="0" y="0" onmousedown="handlePan(0,1)"/>
  <use id="arrowleft" xlink:href="#arrowLeft" x="0" y="0" onmousedown="handlePan(-1,0)"/>
</g>
<svg viewBox="0 0 15 15" width="100%" height="30px" preserveAspectRatio="xMaxYMin meet">
 <g id="arrow_out" transform="scale(0.3 0.3)">
  <a xlink:href="gemv__generic_8c_a9af71dd562560ec249ffd6cf70013282_cgraph_org.svg" target="_base">
   <rect id="button" ry="5" rx="5" y="6" x="6" height="38" width="38"
        fill="#f2f5e9" fill-opacity="0.5" stroke="#606060" stroke-width="1.0"/>
   <path id="arrow"
     d="M 11.500037,31.436501 C 11.940474,20.09759 22.043105,11.32322 32.158766,21.979434 L 37.068811,17.246167 C 37.068811,17.246167 37.088388,32 37.088388,32 L 22.160133,31.978069 C 22.160133,31.978069 26.997745,27.140456 26.997745,27.140456 C 18.528582,18.264221 13.291696,25.230495 11.500037,31.436501 z"
     style="fill:#404040;"/>
  </a>
 </g>
</svg>

<style type='text/css'>
<![CDATA[
[data-mouse-over-selected='false'] { opacity: 0.7; }
[data-mouse-over-selected='true']  { opacity: 1.0; }
]]>
</style>
<script type="application/ecmascript"><![CDATA[
document.addEventListener('DOMContentLoaded', (event) => {
  highlightEdges();
  highlightAdjacentNodes();
});
]]></script>
</svg>
