<?xml version="1.0" encoding="UTF-8" standalone="no"?>
<!DOCTYPE svg PUBLIC "-//W3C//DTD SVG 1.1//EN"
 "http://www.w3.org/Graphics/SVG/1.1/DTD/svg11.dtd">
<!-- Generated by graphviz version 2.43.0 (0)
 -->
<!-- Title: ie_gemv_bf16_f32_avx2_impl Pages: 1 -->
<svg width="308pt" height="64pt"
 viewBox="0.00 0.00 308.00 64.00" xmlns="http://www.w3.org/2000/svg" xmlns:xlink="http://www.w3.org/1999/xlink">
<g id="graph0" class="graph" transform="scale(1 1) rotate(0) translate(4 60)">
<title>ie_gemv_bf16_f32_avx2_impl</title>
<!-- Node1 -->
<g id="Node000001" class="node">
<title>Node1</title>
<g id="a_Node000001"><a xlink:title=" ">
<polygon fill="#999999" stroke="#666666" points="163,-37 0,-37 0,-18 163,-18 163,-37"/>
<text text-anchor="middle" x="81.5" y="-25" font-family="Helvetica,sans-Serif" font-size="10.00">ie_gemv_bf16_f32_avx2_impl</text>
</a>
</g>
</g>
<!-- Node2 -->
<g id="Node000002" class="node">
<title>Node2</title>
<g id="a_Node000002"><a xlink:href="gemv__avx2_8c.html#af98ef5b386495afea4aa3d751bab35fd" target="_top" xlink:title="Convert 8 BF16 values to FP32.">
<polygon fill="white" stroke="#666666" points="300,-56 199,-56 199,-37 300,-37 300,-56"/>
<text text-anchor="middle" x="249.5" y="-44" font-family="Helvetica,sans-Serif" font-size="10.00">ie_bf16x8_to_f32</text>
</a>
</g>
</g>
<!-- Node1&#45;&gt;Node2 -->
<g id="edge1_Node000001_Node000002" class="edge">
<title>Node1&#45;&gt;Node2</title>
<g id="a_edge1_Node000001_Node000002"><a xlink:title=" ">
<path fill="none" stroke="#63b8ff" d="M163.07,-36.72C171.76,-37.72 180.49,-38.72 188.87,-39.67"/>
<polygon fill="#63b8ff" stroke="#63b8ff" points="188.56,-43.16 198.89,-40.82 189.36,-36.21 188.56,-43.16"/>
</a>
</g>
</g>
<!-- Node3 -->
<g id="Node000003" class="node">
<title>Node3</title>
<g id="a_Node000003"><a xlink:href="gemv__avx2_8c.html#a6925be1ed2abd13aef877a68bed45995" target="_top" xlink:title="Horizontal sum of an AVX2 register.">
<polygon fill="white" stroke="#666666" points="295.5,-19 203.5,-19 203.5,0 295.5,0 295.5,-19"/>
<text text-anchor="middle" x="249.5" y="-7" font-family="Helvetica,sans-Serif" font-size="10.00">ie_hsum256_ps</text>
</a>
</g>
</g>
<!-- Node1&#45;&gt;Node3 -->
<g id="edge2_Node000001_Node000003" class="edge">
<title>Node1&#45;&gt;Node3</title>
<g id="a_edge2_Node000001_Node000003"><a xlink:title=" ">
<path fill="none" stroke="#63b8ff" d="M163.07,-18.76C173.26,-17.66 183.5,-16.55 193.17,-15.5"/>
<polygon fill="#63b8ff" stroke="#63b8ff" points="193.86,-18.95 203.42,-14.39 193.1,-11.99 193.86,-18.95"/>
</a>
</g>
</g>
</g>
</svg>
