<?xml version="1.0" encoding="UTF-8" standalone="no"?>
<!DOCTYPE svg PUBLIC "-//W3C//DTD SVG 1.1//EN"
 "http://www.w3.org/Graphics/SVG/1.1/DTD/svg11.dtd">
<!-- Generated by graphviz version 2.43.0 (0)
 -->
<!-- Title: ie_gemv_q4_0_f32_avx2_impl Pages: 1 -->
<!--zoomable 109 -->

<svg id="main" version="1.1" xmlns="http://www.w3.org/2000/svg" xmlns:xlink="http://www.w3.org/1999/xlink" xml:space="preserve" onload="init(evt)">
<style type="text/css"><![CDATA[
.node, .edge {opacity: 0.7;}
.node.selected, .edge.selected {opacity: 1;}
.edge:hover path { stroke: red; }
.edge:hover polygon { stroke: red; fill: red; }
]]></style>

<defs>
  <circle id="rim" cx="0" cy="0" r="7"/>
  <circle id="rim2" cx="0" cy="0" r="3.5"/>
  <g id="zoomPlus">
    <use xlink:href="#rim" fill="#404040"><set attributeName="fill" to="#808080" begin="zoomplus.mouseover" end="zoomplus.mouseout"/></use>
    <path d="M-4,0h8M0,-4v8" fill="none" stroke="white" stroke-width="1.5" pointer-events="none"/>
  </g>
  <g id="zoomMin">
    <use xlink:href="#rim" fill="#404040"><set attributeName="fill" to="#808080" begin="zoomminus.mouseover" end="zoomminus.mouseout"/></use>
    <path d="M-4,0h8" fill="none" stroke="white" stroke-width="1.5" pointer-events="none"/>
  </g>
  <g id="arrowUp" transform="translate(30 24)">
    <use xlink:href="#rim"/>
    <path pointer-events="none" fill="none" stroke="white" stroke-width="1.5" d="M0,-3.0v7 M-2.5,-0.5L0,-3.0L2.5,-0.5"/>
  </g>
  <g id="arrowRight" transform="rotate(90) translate(36 -43)">
    <use xlink:href="#rim"/>
    <path pointer-events="none" fill="none" stroke="white" stroke-width="1.5" d="M0,-3.0v7 M-2.5,-0.5L0,-3.0L2.5,-0.5"/>
  </g>
  <g id="arrowDown" transform="rotate(180) translate(-30 -48)">
    <use xlink:href="#rim"/>
    <path pointer-events="none" fill="none" stroke="white" stroke-width="1.5" d="M0,-3.0v7 M-2.5,-0.5L0,-3.0L2.5,-0.5"/>
  </g>
  <g id="arrowLeft" transform="rotate(270) translate(-36 17)">
    <use xlink:href="#rim"/>
    <path pointer-events="none" fill="none" stroke="white" stroke-width="1.5" d="M0,-3.0v7 M-2.5,-0.5L0,-3.0L2.5,-0.5"/>
  </g>
  <g id="resetDef">
    <use xlink:href="#rim2" fill="#404040"><set attributeName="fill" to="#808080" begin="reset.mouseover" end="reset.mouseout"/></use>
  </g>
</defs>
<script type="application/ecmascript">
var viewWidth = 667;
var viewHeight = 109;
var sectionId = 'dynsection-2';
</script>
<script type="application/ecmascript" xlink:href="svg.min.js"/>
<svg id="graph" class="graph">
<g id="viewport">
<title>ie_gemv_q4_0_f32_avx2_impl</title>
<!-- Node1 -->
<g id="Node000001" class="node">
<title>Node1</title>
<g id="a_Node000001"><a xlink:title="AVX2+FMA implementation of ie_gemv_q4_0_f32.">
<polygon fill="#999999" stroke="#666666" points="164,-62.5 0,-62.5 0,-43.5 164,-43.5 164,-62.5"/>
<text text-anchor="middle" x="82" y="-50.5" font-family="Helvetica,sans-Serif" font-size="10.00">ie_gemv_q4_0_f32_avx2_impl</text>
</a>
</g>
</g>
<!-- Node2 -->
<g id="Node000002" class="node">
<title>Node2</title>
<g id="a_Node000002"><a xlink:href="gemv__q4__avx2_8c.html#afdc87ae238cd923bbf554e36532dc00d" target="_top" xlink:title="Convert a BF16 value stored as a uint16_t to float.">
<polygon fill="white" stroke="#666666" points="516,-62.5 393,-62.5 393,-43.5 516,-43.5 516,-62.5"/>
<text text-anchor="middle" x="454.5" y="-50.5" font-family="Helvetica,sans-Serif" font-size="10.00">ie_bf16_to_f32_scalar</text>
</a>
</g>
</g>
<!-- Node1&#45;&gt;Node2 -->
<g id="edge1_Node000001_Node000002" class="edge">
<title>Node1&#45;&gt;Node2</title>
<g id="a_edge1_Node000001_Node000002"><a xlink:title=" ">
<path fill="none" stroke="#63b8ff" d="M164.31,-53C229.58,-53 320.32,-53 382.65,-53"/>
<polygon fill="#63b8ff" stroke="#63b8ff" points="382.79,-56.5 392.79,-53 382.79,-49.5 382.79,-56.5"/>
</a>
</g>
</g>
<!-- Node3 -->
<g id="Node000003" class="node">
<title>Node3</title>
<g id="a_Node000003"><a xlink:href="gemv__q4__avx2_8c.html#abdafb1096e984805e4105b2feb9c5b06" target="_top" xlink:title="Compute a dot product for one Q4_0 block (32 weights).">
<polygon fill="white" stroke="#666666" points="357,-100.5 200,-100.5 200,-81.5 357,-81.5 357,-100.5"/>
<text text-anchor="middle" x="278.5" y="-88.5" font-family="Helvetica,sans-Serif" font-size="10.00">ie_q4_0_block_dot_f32_avx2</text>
</a>
</g>
</g>
<!-- Node1&#45;&gt;Node3 -->
<g id="edge2_Node000001_Node000003" class="edge">
<title>Node1&#45;&gt;Node3</title>
<g id="a_edge2_Node000001_Node000003"><a xlink:title=" ">
<path fill="none" stroke="#63b8ff" d="M131.83,-62.54C158.19,-67.69 190.92,-74.08 218.67,-79.51"/>
<polygon fill="#63b8ff" stroke="#63b8ff" points="218.16,-82.97 228.65,-81.46 219.51,-76.1 218.16,-82.97"/>
</a>
</g>
</g>
<!-- Node5 -->
<g id="Node000005" class="node">
<title>Node5</title>
<g id="a_Node000005"><a xlink:href="gemv__q4__avx2_8c.html#a0d62180096534e482fbb8fe67b98e4fd" target="_top" xlink:title="Load a per&#45;block scale value (BF16 or FP8 E4M3) as float.">
<polygon fill="white" stroke="#666666" points="339,-24.5 218,-24.5 218,-5.5 339,-5.5 339,-24.5"/>
<text text-anchor="middle" x="278.5" y="-12.5" font-family="Helvetica,sans-Serif" font-size="10.00">ie_q4_load_scale_f32</text>
</a>
</g>
</g>
<!-- Node1&#45;&gt;Node5 -->
<g id="edge4_Node000001_Node000005" class="edge">
<title>Node1&#45;&gt;Node5</title>
<g id="a_edge4_Node000001_Node000005"><a xlink:title=" ">
<path fill="none" stroke="#63b8ff" d="M131.83,-43.46C158.19,-38.31 190.92,-31.92 218.67,-26.49"/>
<polygon fill="#63b8ff" stroke="#63b8ff" points="219.51,-29.9 228.65,-24.54 218.16,-23.03 219.51,-29.9"/>
</a>
</g>
</g>
<!-- Node4 -->
<g id="Node000004" class="node">
<title>Node4</title>
<g id="a_Node000004"><a xlink:href="gemv__q4__avx2_8c.html#a6925be1ed2abd13aef877a68bed45995" target="_top" xlink:title="Horizontal sum of an AVX2 register.">
<polygon fill="white" stroke="#666666" points="500.5,-100.5 408.5,-100.5 408.5,-81.5 500.5,-81.5 500.5,-100.5"/>
<text text-anchor="middle" x="454.5" y="-88.5" font-family="Helvetica,sans-Serif" font-size="10.00">ie_hsum256_ps</text>
</a>
</g>
</g>
<!-- Node3&#45;&gt;Node4 -->
<g id="edge3_Node000003_Node000004" class="edge">
<title>Node3&#45;&gt;Node4</title>
<g id="a_edge3_Node000003_Node000004"><a xlink:title=" ">
<path fill="none" stroke="#63b8ff" d="M357.09,-91C370.96,-91 385.15,-91 398.24,-91"/>
<polygon fill="#63b8ff" stroke="#63b8ff" points="398.47,-94.5 408.47,-91 398.47,-87.5 398.47,-94.5"/>
</a>
</g>
</g>
<!-- Node5&#45;&gt;Node2 -->
<g id="edge5_Node000005_Node000002" class="edge">
<title>Node5&#45;&gt;Node2</title>
<g id="a_edge5_Node000005_Node000002"><a xlink:title=" ">
<path fill="none" stroke="#63b8ff" d="M323.41,-24.59C346.68,-29.67 375.45,-35.96 400.02,-41.32"/>
<polygon fill="#63b8ff" stroke="#63b8ff" points="399.39,-44.77 409.91,-43.48 400.89,-37.93 399.39,-44.77"/>
</a>
</g>
</g>
<!-- Node6 -->
<g id="Node000006" class="node">
<title>Node6</title>
<g id="a_Node000006"><a xlink:href="gemv__q4__avx2_8c.html#acb45092051d8188cb83e8521544f1a16" target="_top" xlink:title=" ">
<polygon fill="white" stroke="#666666" points="515.5,-24.5 393.5,-24.5 393.5,-5.5 515.5,-5.5 515.5,-24.5"/>
<text text-anchor="middle" x="454.5" y="-12.5" font-family="Helvetica,sans-Serif" font-size="10.00">ie_log2_u8_q3_to_f32</text>
</a>
</g>
</g>
<!-- Node5&#45;&gt;Node6 -->
<g id="edge6_Node000005_Node000006" class="edge">
<title>Node5&#45;&gt;Node6</title>
<g id="a_edge6_Node000005_Node000006"><a xlink:title=" ">
<path fill="none" stroke="#63b8ff" d="M339.38,-15C353.38,-15 368.43,-15 382.85,-15"/>
<polygon fill="#63b8ff" stroke="#63b8ff" points="383.21,-18.5 393.21,-15 383.21,-11.5 383.21,-18.5"/>
</a>
</g>
</g>
<!-- Node7 -->
<g id="Node000007" class="node">
<title>Node7</title>
<g id="a_Node000007"><a xlink:href="gemv__q4__avx2_8c.html#a0b7e711f14a960dd75261e196943ea83" target="_top" xlink:title=" ">
<polygon fill="white" stroke="#666666" points="659,-30 552,-30 552,0 659,0 659,-30"/>
<text text-anchor="start" x="560" y="-18" font-family="Helvetica,sans-Serif" font-size="10.00">ie_log2_u8_q3_init</text>
<text text-anchor="middle" x="605.5" y="-7" font-family="Helvetica,sans-Serif" font-size="10.00">_impl_</text>
</a>
</g>
</g>
<!-- Node6&#45;&gt;Node7 -->
<g id="edge7_Node000006_Node000007" class="edge">
<title>Node6&#45;&gt;Node7</title>
<g id="a_edge7_Node000006_Node000007"><a xlink:title=" ">
<path fill="none" stroke="#63b8ff" d="M515.67,-15C524.27,-15 533.12,-15 541.76,-15"/>
<polygon fill="#63b8ff" stroke="#63b8ff" points="541.77,-18.5 551.77,-15 541.77,-11.5 541.77,-18.5"/>
</a>
</g>
</g>
</g>
</svg>

<g id="navigator" transform="translate(0 0)" fill="#404254">
  <rect fill="#f2f5e9" fill-opacity="0.5" stroke="#606060" stroke-width=".5" x="0" y="0" width="60" height="60"/>
  <use id="zoomplus" xlink:href="#zoomPlus" x="17" y="9" onmousedown="handleZoom(evt,'in')"/>
  <use id="zoomminus" xlink:href="#zoomMin" x="42" y="9" onmousedown="handleZoom(evt,'out')"/>
  <use id="reset" xlink:href="#resetDef" x="30" y="36" onmousedown="handleReset()"/>
   <use id="arrowup" xlink:href="#arrowUp" x="0" y="0" onmousedown="handlePan(0,-1)"/>
  <use id="arrowright" xlink:href="#arrowRight" x="0" y="0" onmousedown="handlePan(1,0)"/>
  <use id="arrowdown" xlink:href="#arrowDown" x="0" y="0" onmousedown="handlePan(0,1)"/>
  <use id="arrowleft" xlink:href="#arrowLeft" x="0" y="0" onmousedown="handlePan(-1,0)"/>
</g>
<svg viewBox="0 0 15 15" width="100%" height="30px" preserveAspectRatio="xMaxYMin meet">
 <g id="arrow_out" transform="scale(0.3 0.3)">
  <a xlink:href="gemv__q4__avx2_8c_a2fea8f09ec3127c16d845dba817200b8_cgraph_org.svg" target="_base">
   <rect id="button" ry="5" rx="5" y="6" x="6" height="38" width="38"
        fill="#f2f5e9" fill-opacity="0.5" stroke="#606060" stroke-width="1.0"/>
   <path id="arrow"
     d="M 11.500037,31.436501 C 11.940474,20.09759 22.043105,11.32322 32.158766,21.979434 L 37.068811,17.246167 C 37.068811,17.246167 37.088388,32 37.088388,32 L 22.160133,31.978069 C 22.160133,31.978069 26.997745,27.140456 26.997745,27.140456 C 18.528582,18.264221 13.291696,25.230495 11.500037,31.436501 z"
     style="fill:#404040;"/>
  </a>
 </g>
</svg>

<style type='text/css'>
<![CDATA[
[data-mouse-over-selected='false'] { opacity: 0.7; }
[data-mouse-over-selected='true']  { opacity: 1.0; }
]]>
</style>
<script type="application/ecmascript"><![CDATA[
document.addEventListener('DOMContentLoaded', (event) => {
  highlightEdges();
  highlightAdjacentNodes();
});
]]></script>
</svg>
