<?xml version="1.0" encoding="UTF-8" standalone="no"?>
<!DOCTYPE svg PUBLIC "-//W3C//DTD SVG 1.1//EN"
 "http://www.w3.org/Graphics/SVG/1.1/DTD/svg11.dtd">
<!-- Generated by graphviz version 12.2.1 (20241206.2353)
 -->
<!-- Title: ie_ze_launch_gemv_rowwise_f32 Pages: 1 -->
<!--zoomable 222 -->

<svg id="main" version="1.1" xmlns="http://www.w3.org/2000/svg" xmlns:xlink="http://www.w3.org/1999/xlink" xml:space="preserve" onload="init(evt)">

<style type="text/css"><![CDATA[
.node, .edge {opacity: 0.7;}
.node.selected, .edge.selected {opacity: 1;}
.edge:hover path { stroke: red; }
.edge:hover polygon { stroke: red; fill: red; }
]]></style>

<defs>
  <circle id="rim" cx="0" cy="0" r="7"/>
  <circle id="rim2" cx="0" cy="0" r="3.5"/>
  <g id="zoomPlus">
    <use xlink:href="#rim" fill="#404040"><set attributeName="fill" to="#808080" begin="zoomplus.mouseover" end="zoomplus.mouseout"/></use>
    <path d="M-4,0h8M0,-4v8" fill="none" stroke="white" stroke-width="1.5" pointer-events="none"/>
  </g>
  <g id="zoomMin">
    <use xlink:href="#rim" fill="#404040"><set attributeName="fill" to="#808080" begin="zoomminus.mouseover" end="zoomminus.mouseout"/></use>
    <path d="M-4,0h8" fill="none" stroke="white" stroke-width="1.5" pointer-events="none"/>
  </g>
  <g id="arrowUp" transform="translate(30 24)">
    <use xlink:href="#rim"/>
    <path pointer-events="none" fill="none" stroke="white" stroke-width="1.5" d="M0,-3.0v7 M-2.5,-0.5L0,-3.0L2.5,-0.5"/>
  </g>
  <g id="arrowRight" transform="rotate(90) translate(36 -43)">
    <use xlink:href="#rim"/>
    <path pointer-events="none" fill="none" stroke="white" stroke-width="1.5" d="M0,-3.0v7 M-2.5,-0.5L0,-3.0L2.5,-0.5"/>
  </g>
  <g id="arrowDown" transform="rotate(180) translate(-30 -48)">
    <use xlink:href="#rim"/>
    <path pointer-events="none" fill="none" stroke="white" stroke-width="1.5" d="M0,-3.0v7 M-2.5,-0.5L0,-3.0L2.5,-0.5"/>
  </g>
  <g id="arrowLeft" transform="rotate(270) translate(-36 17)">
    <use xlink:href="#rim"/>
    <path pointer-events="none" fill="none" stroke="white" stroke-width="1.5" d="M0,-3.0v7 M-2.5,-0.5L0,-3.0L2.5,-0.5"/>
  </g>
  <g id="resetDef">
    <use xlink:href="#rim2" fill="#404040"><set attributeName="fill" to="#808080" begin="reset.mouseover" end="reset.mouseout"/></use>
  </g>
</defs>
<script type="application/ecmascript">
var viewWidth = 567;
var viewHeight = 222;
var sectionId = 'dynsection-1';
</script>
<script type="application/ecmascript" xlink:href="svg.min.js"/>
<svg id="graph" class="graph">
<g id="viewport">
<title>ie_ze_launch_gemv_rowwise_f32</title>
<!-- Node1 -->
<g id="Node000001" class="node">
<title>Node1</title>
<g id="a_Node000001"><a xlink:title="Row&#45;wise GEMV FP32: y = alpha * W * x + beta * y.">
<polygon fill="#999999" stroke="#666666" points="178.75,-116.75 0,-116.75 0,-96 178.75,-96 178.75,-116.75"/>
<text text-anchor="middle" x="89.38" y="-103.25" font-family="Helvetica,sans-Serif" font-size="10.00">ie_ze_launch_gemv_rowwise_f32</text>
</a>
</g>
</g>
<!-- Node2 -->
<g id="Node000002" class="node">
<title>Node2</title>
<g id="a_Node000002"><a xlink:href="ie__kernel__ze_8cpp.html#a8966e8d4592d80b5e1f8d02dd586bb57" target="_top" xlink:title="Allocate device memory.">
<polygon fill="white" stroke="#666666" points="299.38,-213.75 254.12,-213.75 254.12,-193 299.38,-193 299.38,-213.75"/>
<text text-anchor="middle" x="276.75" y="-200.25" font-family="Helvetica,sans-Serif" font-size="10.00">dalloc</text>
</a>
</g>
</g>
<!-- Node1&#45;&gt;Node2 -->
<g id="edge1_Node000001_Node000002" class="edge">
<title>Node1&#45;&gt;Node2</title>
<g id="a_edge1_Node000001_Node000002"><a xlink:title=" ">
<path fill="none" stroke="#63b8ff" d="M105.04,-117.07C127.66,-133.18 172.85,-163.87 214.75,-183.38 223.66,-187.52 233.66,-191.18 242.96,-194.2"/>
<polygon fill="#63b8ff" stroke="#63b8ff" points="241.78,-197.5 252.37,-197.11 243.85,-190.81 241.78,-197.5"/>
</a>
</g>
</g>
<!-- Node3 -->
<g id="Node000003" class="node">
<title>Node3</title>
<g id="a_Node000003"><a xlink:href="ie__kernel__ze_8cpp.html#a8659992f4a5a709d0794e3b43ff99a30" target="_top" xlink:title="Free USM pointer if non&#45;null.">
<polygon fill="white" stroke="#666666" points="297.5,-174.75 256,-174.75 256,-154 297.5,-154 297.5,-174.75"/>
<text text-anchor="middle" x="276.75" y="-161.25" font-family="Helvetica,sans-Serif" font-size="10.00">dfree</text>
</a>
</g>
</g>
<!-- Node1&#45;&gt;Node3 -->
<g id="edge2_Node000001_Node000003" class="edge">
<title>Node1&#45;&gt;Node3</title>
<g id="a_edge2_Node000001_Node000003"><a xlink:title=" ">
<path fill="none" stroke="#63b8ff" d="M124.81,-117.15C159.18,-127.9 211.53,-144.28 244.67,-154.65"/>
<polygon fill="#63b8ff" stroke="#63b8ff" points="243.5,-157.95 254.09,-157.6 245.59,-151.27 243.5,-157.95"/>
</a>
</g>
</g>
<!-- Node4 -->
<g id="Node000004" class="node">
<title>Node4</title>
<g id="a_Node000004"><a xlink:href="ie__kernel__ze_8cpp.html#a46e8c280257654db04216d6acbefa0af" target="_top" xlink:title="Ensure the SPIR&#45;V module and all kernel handles are created.">
<polygon fill="white" stroke="#666666" points="338.75,-135.75 214.75,-135.75 214.75,-115 338.75,-115 338.75,-135.75"/>
<text text-anchor="middle" x="276.75" y="-122.25" font-family="Helvetica,sans-Serif" font-size="10.00">ensure_module_ready</text>
</a>
</g>
</g>
<!-- Node1&#45;&gt;Node4 -->
<g id="edge3_Node000001_Node000004" class="edge">
<title>Node1&#45;&gt;Node4</title>
<g id="a_edge3_Node000001_Node000004"><a xlink:title=" ">
<path fill="none" stroke="#63b8ff" d="M178.99,-115.46C187.06,-116.28 195.17,-117.12 203.07,-117.93"/>
<polygon fill="#63b8ff" stroke="#63b8ff" points="202.67,-121.4 212.98,-118.94 203.38,-114.44 202.67,-121.4"/>
</a>
</g>
</g>
<!-- Node6 -->
<g id="Node000006" class="node">
<title>Node6</title>
<g id="a_Node000006"><a xlink:href="ie__kernel__ze_8cpp.html#a0a2c7ad4a3f3268ce3651eca6f04b24e" target="_top" xlink:title="Set last error (thread&#45;local); truncates if needed.">
<polygon fill="white" stroke="#666666" points="559,-173.75 509.25,-173.75 509.25,-153 559,-153 559,-173.75"/>
<text text-anchor="middle" x="534.12" y="-160.25" font-family="Helvetica,sans-Serif" font-size="10.00">set_err</text>
</a>
</g>
</g>
<!-- Node1&#45;&gt;Node6 -->
<g id="edge10_Node000001_Node000006" class="edge">
<title>Node1&#45;&gt;Node6</title>
<g id="a_edge10_Node000001_Node000006"><a xlink:title=" ">
<path fill="none" stroke="#63b8ff" d="M137.55,-95.54C211.98,-80.78 359.84,-61.02 473.25,-106.38 492.12,-113.92 508.44,-130.56 519.25,-143.93"/>
<polygon fill="#63b8ff" stroke="#63b8ff" points="516.34,-145.88 525.19,-151.7 521.9,-141.63 516.34,-145.88"/>
</a>
</g>
</g>
<!-- Node8 -->
<g id="Node000008" class="node">
<title>Node8</title>
<g id="a_Node000008"><a xlink:href="ie__kernel__ze_8cpp.html#aa101d0006375eb076cf21c1f890b7fb4" target="_top" xlink:title="Copy host→device or device→host using immediate command list.">
<polygon fill="white" stroke="#666666" points="320,-59.75 233.5,-59.75 233.5,-39 320,-39 320,-59.75"/>
<text text-anchor="middle" x="276.75" y="-46.25" font-family="Helvetica,sans-Serif" font-size="10.00">memcpy_imm</text>
</a>
</g>
</g>
<!-- Node1&#45;&gt;Node8 -->
<g id="edge8_Node000001_Node000008" class="edge">
<title>Node1&#45;&gt;Node8</title>
<g id="a_edge8_Node000001_Node000008"><a xlink:title=" ">
<path fill="none" stroke="#63b8ff" d="M125.68,-95.52C155.19,-86.45 197.48,-73.44 229.66,-63.55"/>
<polygon fill="#63b8ff" stroke="#63b8ff" points="230.6,-66.92 239.13,-60.63 228.54,-60.23 230.6,-66.92"/>
</a>
</g>
</g>
<!-- Node9 -->
<g id="Node000009" class="node">
<title>Node9</title>
<g id="a_Node000009"><a xlink:href="ie__kernel__ze_8cpp.html#a03e401cb53f156d70c1685d3b76aa747" target="_top" xlink:title="Helper to set a POD kernel argument.">
<polygon fill="white" stroke="#666666" points="302.75,-20.75 250.75,-20.75 250.75,0 302.75,0 302.75,-20.75"/>
<text text-anchor="middle" x="276.75" y="-7.25" font-family="Helvetica,sans-Serif" font-size="10.00">set_arg</text>
</a>
</g>
</g>
<!-- Node1&#45;&gt;Node9 -->
<g id="edge9_Node000001_Node000009" class="edge">
<title>Node1&#45;&gt;Node9</title>
<g id="a_edge9_Node000001_Node000009"><a xlink:title=" ">
<path fill="none" stroke="#63b8ff" d="M105.44,-95.57C128.21,-79.62 173.17,-49.58 214.75,-30.38 222.54,-26.78 231.16,-23.53 239.41,-20.76"/>
<polygon fill="#63b8ff" stroke="#63b8ff" points="240.42,-24.11 248.88,-17.73 238.29,-17.44 240.42,-24.11"/>
</a>
</g>
</g>
<!-- Node5 -->
<g id="Node000005" class="node">
<title>Node5</title>
<g id="a_Node000005"><a xlink:href="ie__kernel__ze_8cpp.html#a88fa59032491ae8cb4c70d153fef5bb0" target="_top" xlink:title="Ensure Level Zero context, device and immediate command list exist.">
<polygon fill="white" stroke="#666666" points="473.25,-211.75 374.75,-211.75 374.75,-191 473.25,-191 473.25,-211.75"/>
<text text-anchor="middle" x="424" y="-198.25" font-family="Helvetica,sans-Serif" font-size="10.00">ensure_ze_ready</text>
</a>
</g>
</g>
<!-- Node4&#45;&gt;Node5 -->
<g id="edge4_Node000004_Node000005" class="edge">
<title>Node4&#45;&gt;Node5</title>
<g id="a_edge4_Node000004_Node000005"><a xlink:title=" ">
<path fill="none" stroke="#63b8ff" d="M318.46,-136.13C325.45,-138.7 332.47,-141.76 338.75,-145.38 357.31,-156.04 357.01,-165.39 374.75,-177.38 378.96,-180.22 383.56,-182.94 388.19,-185.46"/>
<polygon fill="#63b8ff" stroke="#63b8ff" points="386.4,-188.47 396.9,-189.93 389.6,-182.25 386.4,-188.47"/>
</a>
</g>
</g>
<!-- Node4&#45;&gt;Node6 -->
<g id="edge7_Node000004_Node000006" class="edge">
<title>Node4&#45;&gt;Node6</title>
<g id="a_edge7_Node000004_Node000006"><a xlink:title=" ">
<path fill="none" stroke="#63b8ff" d="M329.48,-136.24C344.08,-139.11 360,-142.05 374.75,-144.38 416.9,-151.02 465.68,-156.55 497.85,-159.9"/>
<polygon fill="#63b8ff" stroke="#63b8ff" points="497.09,-163.34 507.39,-160.88 497.8,-156.38 497.09,-163.34"/>
</a>
</g>
</g>
<!-- Node7 -->
<g id="Node000007" class="node">
<title>Node7</title>
<g id="a_Node000007"><a xlink:href="ie__kernel__ze_8cpp.html#a20d704d2968105641314c50897df8bdb" target="_top" xlink:title="Read a whole binary file into memory.">
<polygon fill="white" stroke="#666666" points="453,-135.75 395,-135.75 395,-115 453,-115 453,-135.75"/>
<text text-anchor="middle" x="424" y="-122.25" font-family="Helvetica,sans-Serif" font-size="10.00">read_file</text>
</a>
</g>
</g>
<!-- Node4&#45;&gt;Node7 -->
<g id="edge6_Node000004_Node000007" class="edge">
<title>Node4&#45;&gt;Node7</title>
<g id="a_edge6_Node000004_Node000007"><a xlink:title=" ">
<path fill="none" stroke="#63b8ff" d="M338.93,-125.38C353.92,-125.38 369.58,-125.38 383.26,-125.38"/>
<polygon fill="#63b8ff" stroke="#63b8ff" points="383.2,-128.88 393.2,-125.38 383.2,-121.88 383.2,-128.88"/>
</a>
</g>
</g>
<!-- Node5&#45;&gt;Node6 -->
<g id="edge5_Node000005_Node000006" class="edge">
<title>Node5&#45;&gt;Node6</title>
<g id="a_edge5_Node000005_Node000006"><a xlink:title=" ">
<path fill="none" stroke="#63b8ff" d="M455.7,-190.59C469,-185.91 484.63,-180.42 498.36,-175.59"/>
<polygon fill="#63b8ff" stroke="#63b8ff" points="499.18,-179.02 507.45,-172.4 496.86,-172.41 499.18,-179.02"/>
</a>
</g>
</g>
</g>
</svg>

<g id="navigator" transform="translate(0 0)" fill="#404254">
  <rect fill="#f2f5e9" fill-opacity="0.5" stroke="#606060" stroke-width=".5" x="0" y="0" width="60" height="60"/>
  <use id="zoomplus" xlink:href="#zoomPlus" x="17" y="9" onmousedown="handleZoom(evt,'in')"/>
  <use id="zoomminus" xlink:href="#zoomMin" x="42" y="9" onmousedown="handleZoom(evt,'out')"/>
  <use id="reset" xlink:href="#resetDef" x="30" y="36" onmousedown="handleReset()"/>
   <use id="arrowup" xlink:href="#arrowUp" x="0" y="0" onmousedown="handlePan(0,-1)"/>
  <use id="arrowright" xlink:href="#arrowRight" x="0" y="0" onmousedown="handlePan(1,0)"/>
  <use id="arrowdown" xlink:href="#arrowDown" x="0" y="0" onmousedown="handlePan(0,1)"/>
  <use id="arrowleft" xlink:href="#arrowLeft" x="0" y="0" onmousedown="handlePan(-1,0)"/>
</g>
<svg viewBox="0 0 15 15" width="100%" height="30px" preserveAspectRatio="xMaxYMin meet">
 <g id="arrow_out" transform="scale(0.3 0.3)">
  <a xlink:href="group__IE__GPU__ZE_ga71484badcdb4416b3ac57397416f7d11_cgraph_org.svg" target="_base">
   <rect id="button" ry="5" rx="5" y="6" x="6" height="38" width="38"
        fill="#f2f5e9" fill-opacity="0.5" stroke="#606060" stroke-width="1.0"/>
   <path id="arrow"
     d="M 11.500037,31.436501 C 11.940474,20.09759 22.043105,11.32322 32.158766,21.979434 L 37.068811,17.246167 C 37.068811,17.246167 37.088388,32 37.088388,32 L 22.160133,31.978069 C 22.160133,31.978069 26.997745,27.140456 26.997745,27.140456 C 18.528582,18.264221 13.291696,25.230495 11.500037,31.436501 z"
     style="fill:#404040;"/>
  </a>
 </g>
</svg>

<style type='text/css'>
<![CDATA[
[data-mouse-over-selected='false'] { opacity: 0.7; }
[data-mouse-over-selected='true']  { opacity: 1.0; }
]]>
</style>
<script type="application/ecmascript"><![CDATA[
document.addEventListener('DOMContentLoaded', (event) => {
  highlightEdges();
  highlightAdjacentNodes();
});
]]></script>
</svg>
