<?xml version="1.0" encoding="UTF-8" standalone="no"?>
<!DOCTYPE svg PUBLIC "-//W3C//DTD SVG 1.1//EN"
 "http://www.w3.org/Graphics/SVG/1.1/DTD/svg11.dtd">
<!-- Generated by graphviz version 2.43.0 (0)
 -->
<!-- Title: ie_int4_error_metrics Pages: 1 -->
<svg width="232pt" height="64pt"
 viewBox="0.00 0.00 232.00 64.00" xmlns="http://www.w3.org/2000/svg" xmlns:xlink="http://www.w3.org/1999/xlink">
<g id="graph0" class="graph" transform="scale(1 1) rotate(0) translate(4 60)">
<title>ie_int4_error_metrics</title>
<!-- Node1 -->
<g id="Node000001" class="node">
<title>Node1</title>
<g id="a_Node000001"><a xlink:title="Compute error metrics between two float32 vectors of equal length: mean squared error (MSE) and cosin...">
<polygon fill="#999999" stroke="#666666" points="120,-37 0,-37 0,-18 120,-18 120,-37"/>
<text text-anchor="middle" x="60" y="-25" font-family="Helvetica,sans-Serif" font-size="10.00">ie_int4_error_metrics</text>
</a>
</g>
</g>
<!-- Node2 -->
<g id="Node000002" class="node">
<title>Node2</title>
<g id="a_Node000002"><a xlink:href="int4__ptq_8c.html#adac55944e6da576f6745a6ad26c4cb79" target="_top" xlink:title="Return true if any of a, b, c is NaN or infinite.">
<polygon fill="white" stroke="#666666" points="224,-56 156,-56 156,-37 224,-37 224,-56"/>
<text text-anchor="middle" x="190" y="-44" font-family="Helvetica,sans-Serif" font-size="10.00">bad_float3</text>
</a>
</g>
</g>
<!-- Node1&#45;&gt;Node2 -->
<g id="edge1_Node000001_Node000002" class="edge">
<title>Node1&#45;&gt;Node2</title>
<g id="a_edge1_Node000001_Node000002"><a xlink:title=" ">
<path fill="none" stroke="#63b8ff" d="M120.13,-36.28C128.79,-37.56 137.57,-38.87 145.83,-40.09"/>
<polygon fill="#63b8ff" stroke="#63b8ff" points="145.56,-43.59 155.96,-41.6 146.58,-36.67 145.56,-43.59"/>
</a>
</g>
</g>
<!-- Node3 -->
<g id="Node000003" class="node">
<title>Node3</title>
<g id="a_Node000003"><a xlink:href="test__act__quant_8c.html#a38b4b69f6c9e30a70285f7bc1e98ea8e" target="_top" xlink:title=" ">
<polygon fill="white" stroke="#666666" points="209,-19 171,-19 171,0 209,0 209,-19"/>
<text text-anchor="middle" x="190" y="-7" font-family="Helvetica,sans-Serif" font-size="10.00">mse</text>
</a>
</g>
</g>
<!-- Node1&#45;&gt;Node3 -->
<g id="edge2_Node000001_Node000003" class="edge">
<title>Node1&#45;&gt;Node3</title>
<g id="a_edge2_Node000001_Node000003"><a xlink:title=" ">
<path fill="none" stroke="#63b8ff" d="M120.13,-19.18C134.27,-17.2 148.73,-15.16 160.73,-13.48"/>
<polygon fill="#63b8ff" stroke="#63b8ff" points="161.56,-16.89 170.98,-12.03 160.59,-9.96 161.56,-16.89"/>
</a>
</g>
</g>
</g>
</svg>
