<?xml version="1.0" encoding="UTF-8" standalone="no"?>
<!DOCTYPE svg PUBLIC "-//W3C//DTD SVG 1.1//EN"
 "http://www.w3.org/Graphics/SVG/1.1/DTD/svg11.dtd">
<!-- Generated by graphviz version 12.2.1 (20241206.2353)
 -->
<!-- Title: engine/include/ie_threadpool.h Pages: 1 -->
<svg width="282pt" height="98pt"
 viewBox="0.00 0.00 281.75 98.25" xmlns="http://www.w3.org/2000/svg" xmlns:xlink="http://www.w3.org/1999/xlink">
<g id="graph0" class="graph" transform="scale(1 1) rotate(0) translate(4 94.25)">
<title>engine/include/ie_threadpool.h</title>
<!-- Node1 -->
<g id="Node000001" class="node">
<title>Node1</title>
<g id="a_Node000001"><a xlink:title="Minimal thread&#45;pool interface with optional Linux CPU affinity.">
<polygon fill="#999999" stroke="#666666" points="215.75,-90.25 49.75,-90.25 49.75,-69.5 215.75,-69.5 215.75,-90.25"/>
<text text-anchor="middle" x="132.75" y="-76.75" font-family="Helvetica,sans-Serif" font-size="10.00">engine/include/ie_threadpool.h</text>
</a>
</g>
</g>
<!-- Node2 -->
<g id="Node000002" class="node">
<title>Node2</title>
<g id="a_Node000002"><a xlink:href="thread__pool_8c.html" target="_top" xlink:title="Minimal thread pool with synchronous parallel&#45;for and optional Linux CPU affinity.">
<polygon fill="white" stroke="#666666" points="119.5,-33.5 0,-33.5 0,0 119.5,0 119.5,-33.5"/>
<text text-anchor="start" x="8" y="-20" font-family="Helvetica,sans-Serif" font-size="10.00">engine/src/opt/thread</text>
<text text-anchor="middle" x="59.75" y="-7.25" font-family="Helvetica,sans-Serif" font-size="10.00">_pool.c</text>
</a>
</g>
</g>
<!-- Node1&#45;&gt;Node2 -->
<g id="edge1_Node000001_Node000002" class="edge">
<title>Node1&#45;&gt;Node2</title>
<g id="a_edge1_Node000001_Node000002"><a xlink:title=" ">
<path fill="none" stroke="#63b8ff" d="M112.23,-61.69C101.86,-53.01 89.35,-42.53 79.14,-33.98"/>
<polygon fill="#63b8ff" stroke="#63b8ff" points="109.95,-64.35 119.86,-68.08 114.44,-58.98 109.95,-64.35"/>
</a>
</g>
</g>
<!-- Node3 -->
<g id="Node000003" class="node">
<title>Node3</title>
<g id="a_Node000003"><a xlink:href="test__threadpool_8c.html" target="_top" xlink:title="Unit test for ie_threadpool parallel&#45;for with contiguous partition.">
<polygon fill="white" stroke="#666666" points="273.75,-27.12 137.75,-27.12 137.75,-6.38 273.75,-6.38 273.75,-27.12"/>
<text text-anchor="middle" x="205.75" y="-13.62" font-family="Helvetica,sans-Serif" font-size="10.00">tests/c/test_threadpool.c</text>
</a>
</g>
</g>
<!-- Node1&#45;&gt;Node3 -->
<g id="edge2_Node000001_Node000003" class="edge">
<title>Node1&#45;&gt;Node3</title>
<g id="a_edge2_Node000001_Node000003"><a xlink:title=" ">
<path fill="none" stroke="#63b8ff" d="M153,-61.92C166.31,-50.77 183.25,-36.59 194.29,-27.34"/>
<polygon fill="#63b8ff" stroke="#63b8ff" points="151.06,-58.98 145.64,-68.08 155.55,-64.35 151.06,-58.98"/>
</a>
</g>
</g>
</g>
</svg>
