<?xml version="1.0" encoding="UTF-8" standalone="no"?>
<!DOCTYPE svg PUBLIC "-//W3C//DTD SVG 1.1//EN"
 "http://www.w3.org/Graphics/SVG/1.1/DTD/svg11.dtd">
<!-- Generated by graphviz version 2.43.0 (0)
 -->
<!-- Title: cuda_ensure_capacity Pages: 1 -->
<!--zoomable 128 -->

<svg id="main" version="1.1" xmlns="http://www.w3.org/2000/svg" xmlns:xlink="http://www.w3.org/1999/xlink" xml:space="preserve" onload="init(evt)">
<style type="text/css"><![CDATA[
.node, .edge {opacity: 0.7;}
.node.selected, .edge.selected {opacity: 1;}
.edge:hover path { stroke: red; }
.edge:hover polygon { stroke: red; fill: red; }
]]></style>

<defs>
  <circle id="rim" cx="0" cy="0" r="7"/>
  <circle id="rim2" cx="0" cy="0" r="3.5"/>
  <g id="zoomPlus">
    <use xlink:href="#rim" fill="#404040"><set attributeName="fill" to="#808080" begin="zoomplus.mouseover" end="zoomplus.mouseout"/></use>
    <path d="M-4,0h8M0,-4v8" fill="none" stroke="white" stroke-width="1.5" pointer-events="none"/>
  </g>
  <g id="zoomMin">
    <use xlink:href="#rim" fill="#404040"><set attributeName="fill" to="#808080" begin="zoomminus.mouseover" end="zoomminus.mouseout"/></use>
    <path d="M-4,0h8" fill="none" stroke="white" stroke-width="1.5" pointer-events="none"/>
  </g>
  <g id="arrowUp" transform="translate(30 24)">
    <use xlink:href="#rim"/>
    <path pointer-events="none" fill="none" stroke="white" stroke-width="1.5" d="M0,-3.0v7 M-2.5,-0.5L0,-3.0L2.5,-0.5"/>
  </g>
  <g id="arrowRight" transform="rotate(90) translate(36 -43)">
    <use xlink:href="#rim"/>
    <path pointer-events="none" fill="none" stroke="white" stroke-width="1.5" d="M0,-3.0v7 M-2.5,-0.5L0,-3.0L2.5,-0.5"/>
  </g>
  <g id="arrowDown" transform="rotate(180) translate(-30 -48)">
    <use xlink:href="#rim"/>
    <path pointer-events="none" fill="none" stroke="white" stroke-width="1.5" d="M0,-3.0v7 M-2.5,-0.5L0,-3.0L2.5,-0.5"/>
  </g>
  <g id="arrowLeft" transform="rotate(270) translate(-36 17)">
    <use xlink:href="#rim"/>
    <path pointer-events="none" fill="none" stroke="white" stroke-width="1.5" d="M0,-3.0v7 M-2.5,-0.5L0,-3.0L2.5,-0.5"/>
  </g>
  <g id="resetDef">
    <use xlink:href="#rim2" fill="#404040"><set attributeName="fill" to="#808080" begin="reset.mouseover" end="reset.mouseout"/></use>
  </g>
</defs>
<script type="application/ecmascript">
var viewWidth = 778;
var viewHeight = 128;
var sectionId = 'dynsection-15';
</script>
<script type="application/ecmascript" xlink:href="svg.min.js"/>
<svg id="graph" class="graph">
<g id="viewport">
<title>cuda_ensure_capacity</title>
<!-- Node1 -->
<g id="Node000001" class="node">
<title>Node1</title>
<g id="a_Node000001"><a xlink:title="Ensure a device buffer has at least nbytes capacity.">
<polygon fill="#999999" stroke="#666666" points="770,-56 645,-56 645,-37 770,-37 770,-56"/>
<text text-anchor="middle" x="707.5" y="-44" font-family="Helvetica,sans-Serif" font-size="10.00">cuda_ensure_capacity</text>
</a>
</g>
</g>
<!-- Node2 -->
<g id="Node000002" class="node">
<title>Node2</title>
<g id="a_Node000002"><a xlink:href="ie__device__common_8c.html#a10d98754f37925ce0fd653a011fc9d47" target="_top" xlink:title="CUDA GEMV FP32 implementation.">
<polygon fill="white" stroke="#666666" points="609,-78 482,-78 482,-59 609,-59 609,-78"/>
<text text-anchor="middle" x="545.5" y="-66" font-family="Helvetica,sans-Serif" font-size="10.00">cuda_gemv_f32_thunk</text>
</a>
</g>
</g>
<!-- Node1&#45;&gt;Node2 -->
<g id="edge1_Node000001_Node000002" class="edge">
<title>Node1&#45;&gt;Node2</title>
<g id="a_edge1_Node000001_Node000002"><a xlink:title=" ">
<path fill="none" stroke="#63b8ff" d="M634.46,-56.4C626.05,-57.56 617.52,-58.73 609.25,-59.87"/>
<polygon fill="#63b8ff" stroke="#63b8ff" points="635.21,-59.84 644.64,-55.01 634.26,-52.9 635.21,-59.84"/>
</a>
</g>
</g>
<!-- Node11 -->
<g id="Node000011" class="node">
<title>Node11</title>
<g id="a_Node000011"><a xlink:href="ie__device__common_8c.html#ab97116893ac6fb20f32aaf7462a13b50" target="_top" xlink:title="CUDA GEMV Q4_0 implementation.">
<polygon fill="white" stroke="#666666" points="606.5,-40.5 484.5,-40.5 484.5,-10.5 606.5,-10.5 606.5,-40.5"/>
<text text-anchor="start" x="492.5" y="-28.5" font-family="Helvetica,sans-Serif" font-size="10.00">cuda_gemv_q4_0_f32</text>
<text text-anchor="middle" x="545.5" y="-17.5" font-family="Helvetica,sans-Serif" font-size="10.00">_thunk</text>
</a>
</g>
</g>
<!-- Node1&#45;&gt;Node11 -->
<g id="edge11_Node000001_Node000011" class="edge">
<title>Node1&#45;&gt;Node11</title>
<g id="a_edge11_Node000001_Node000011"><a xlink:title=" ">
<path fill="none" stroke="#63b8ff" d="M634.58,-37.06C625.24,-35.83 615.74,-34.59 606.62,-33.39"/>
<polygon fill="#63b8ff" stroke="#63b8ff" points="634.27,-40.55 644.64,-38.38 635.18,-33.61 634.27,-40.55"/>
</a>
</g>
</g>
<!-- Node3 -->
<g id="Node000003" class="node">
<title>Node3</title>
<g id="a_Node000003"><a xlink:href="ie__device__common_8c.html#ae4ac15a3b8fea25568b8cdeb2cd781fe" target="_top" xlink:title="Initialize CUDA backend.">
<polygon fill="white" stroke="#666666" points="446,-56 351,-56 351,-37 446,-37 446,-56"/>
<text text-anchor="middle" x="398.5" y="-44" font-family="Helvetica,sans-Serif" font-size="10.00">cuda_try_create</text>
</a>
</g>
</g>
<!-- Node2&#45;&gt;Node3 -->
<g id="edge2_Node000002_Node000003" class="edge">
<title>Node2&#45;&gt;Node3</title>
<g id="a_edge2_Node000002_Node000003"><a xlink:title=" ">
<path fill="none" stroke="#63b8ff" d="M471.61,-57.44C462.96,-56.13 454.32,-54.82 446.17,-53.58"/>
<polygon fill="#63b8ff" stroke="#63b8ff" points="471.33,-60.94 481.74,-58.98 472.38,-54.02 471.33,-60.94"/>
</a>
</g>
</g>
<!-- Node4 -->
<g id="Node000004" class="node">
<title>Node4</title>
<g id="a_Node000004"><a xlink:href="ie__device__common_8c.html#a3e42fcc4b9579a9bf14520cb1afe733b" target="_top" xlink:title="Create a device handle for the requested kind (with fallback).">
<polygon fill="white" stroke="#666666" points="315,-56 216,-56 216,-37 315,-37 315,-56"/>
<text text-anchor="middle" x="265.5" y="-44" font-family="Helvetica,sans-Serif" font-size="10.00">ie_device_create</text>
</a>
</g>
</g>
<!-- Node3&#45;&gt;Node4 -->
<g id="edge3_Node000003_Node000004" class="edge">
<title>Node3&#45;&gt;Node4</title>
<g id="a_edge3_Node000003_Node000004"><a xlink:title=" ">
<path fill="none" stroke="#63b8ff" d="M340.69,-46.5C332.17,-46.5 323.45,-46.5 315.12,-46.5"/>
<polygon fill="#63b8ff" stroke="#63b8ff" points="340.95,-50 350.95,-46.5 340.95,-43 340.95,-50"/>
</a>
</g>
</g>
<!-- Node5 -->
<g id="Node000005" class="node">
<title>Node5</title>
<g id="a_Node000005"><a xlink:href="ie__api_8c.html#a84bd87043352946e9d53b0f8a5c4abe0" target="_top" xlink:title="Create an engine instance.">
<polygon fill="white" stroke="#666666" points="178.5,-93 78.5,-93 78.5,-74 178.5,-74 178.5,-93"/>
<text text-anchor="middle" x="128.5" y="-81" font-family="Helvetica,sans-Serif" font-size="10.00">ie_engine_create</text>
</a>
</g>
</g>
<!-- Node4&#45;&gt;Node5 -->
<g id="edge4_Node000004_Node000005" class="edge">
<title>Node4&#45;&gt;Node5</title>
<g id="a_edge4_Node000004_Node000005"><a xlink:title=" ">
<path fill="none" stroke="#63b8ff" d="M220.03,-58.69C202.03,-63.62 181.54,-69.24 164.62,-73.88"/>
<polygon fill="#63b8ff" stroke="#63b8ff" points="221.01,-62.05 229.73,-56.03 219.16,-55.3 221.01,-62.05"/>
</a>
</g>
</g>
<!-- Node8 -->
<g id="Node000008" class="node">
<title>Node8</title>
<g id="a_Node000008"><a xlink:href="test__device_8c.html#a7b62f3db43117555c60ec59d19c7c8d6" target="_top" xlink:title="Verify CPU device exposes GEMV capability.">
<polygon fill="white" stroke="#666666" points="171.5,-56 85.5,-56 85.5,-37 171.5,-37 171.5,-56"/>
<text text-anchor="middle" x="128.5" y="-44" font-family="Helvetica,sans-Serif" font-size="10.00">test_cpu_caps</text>
</a>
</g>
</g>
<!-- Node4&#45;&gt;Node8 -->
<g id="edge7_Node000004_Node000008" class="edge">
<title>Node4&#45;&gt;Node8</title>
<g id="a_edge7_Node000004_Node000008"><a xlink:title=" ">
<path fill="none" stroke="#63b8ff" d="M205.51,-46.5C194.2,-46.5 182.57,-46.5 171.91,-46.5"/>
<polygon fill="#63b8ff" stroke="#63b8ff" points="205.76,-50 215.76,-46.5 205.76,-43 205.76,-50"/>
</a>
</g>
</g>
<!-- Node10 -->
<g id="Node000010" class="node">
<title>Node10</title>
<g id="a_Node000010"><a xlink:href="test__device_8c.html#a548e6227513ac3fd772219dad3b0de22" target="_top" xlink:title="Ensure GPU request gracefully falls back to a working GEMV.">
<polygon fill="white" stroke="#666666" points="180,-19 77,-19 77,0 180,0 180,-19"/>
<text text-anchor="middle" x="128.5" y="-7" font-family="Helvetica,sans-Serif" font-size="10.00">test_gpu_fallback</text>
</a>
</g>
</g>
<!-- Node4&#45;&gt;Node10 -->
<g id="edge9_Node000004_Node000010" class="edge">
<title>Node4&#45;&gt;Node10</title>
<g id="a_edge9_Node000004_Node000010"><a xlink:title=" ">
<path fill="none" stroke="#63b8ff" d="M220.03,-34.31C202.03,-29.38 181.54,-23.76 164.62,-19.12"/>
<polygon fill="#63b8ff" stroke="#63b8ff" points="219.16,-37.7 229.73,-36.97 221.01,-30.95 219.16,-37.7"/>
</a>
</g>
</g>
<!-- Node6 -->
<g id="Node000006" class="node">
<title>Node6</title>
<g id="a_Node000006"><a xlink:href="main__infer_8c.html#a3c04138a5bfe5d72780bb7e82a18e627" target="_top" xlink:title="main.">
<polygon fill="white" stroke="#666666" points="41,-120 0,-120 0,-101 41,-101 41,-120"/>
<text text-anchor="middle" x="20.5" y="-108" font-family="Helvetica,sans-Serif" font-size="10.00">main</text>
</a>
</g>
</g>
<!-- Node5&#45;&gt;Node6 -->
<g id="edge5_Node000005_Node000006" class="edge">
<title>Node5&#45;&gt;Node6</title>
<g id="a_edge5_Node000005_Node000006"><a xlink:title=" ">
<path fill="none" stroke="#63b8ff" d="M80.22,-95.54C66.4,-99.06 52.07,-102.71 41.02,-105.53"/>
<polygon fill="#63b8ff" stroke="#63b8ff" points="81.3,-98.88 90.13,-93.02 79.57,-92.1 81.3,-98.88"/>
</a>
</g>
</g>
<!-- Node7 -->
<g id="Node000007" class="node">
<title>Node7</title>
<g id="a_Node000007"><a xlink:href="test__api_8c.html#a840291bc02cba5474a4cb46a9b9566fe" target="_top" xlink:title=" ">
<polygon fill="white" stroke="#666666" points="41,-83 0,-83 0,-64 41,-64 41,-83"/>
<text text-anchor="middle" x="20.5" y="-71" font-family="Helvetica,sans-Serif" font-size="10.00">main</text>
</a>
</g>
</g>
<!-- Node5&#45;&gt;Node7 -->
<g id="edge6_Node000005_Node000007" class="edge">
<title>Node5&#45;&gt;Node7</title>
<g id="a_edge6_Node000005_Node000007"><a xlink:title=" ">
<path fill="none" stroke="#63b8ff" d="M68.02,-77.89C58.27,-76.97 48.82,-76.08 41.01,-75.34"/>
<polygon fill="#63b8ff" stroke="#63b8ff" points="67.94,-81.4 78.22,-78.85 68.6,-74.43 67.94,-81.4"/>
</a>
</g>
</g>
<!-- Node9 -->
<g id="Node000009" class="node">
<title>Node9</title>
<g id="a_Node000009"><a xlink:href="test__device_8c.html#a840291bc02cba5474a4cb46a9b9566fe" target="_top" xlink:title="Test entry point.">
<polygon fill="white" stroke="#666666" points="41,-37 0,-37 0,-18 41,-18 41,-37"/>
<text text-anchor="middle" x="20.5" y="-25" font-family="Helvetica,sans-Serif" font-size="10.00">main</text>
</a>
</g>
</g>
<!-- Node8&#45;&gt;Node9 -->
<g id="edge8_Node000008_Node000009" class="edge">
<title>Node8&#45;&gt;Node9</title>
<g id="a_edge8_Node000008_Node000009"><a xlink:title=" ">
<path fill="none" stroke="#63b8ff" d="M75.18,-37.12C63.04,-34.95 50.86,-32.76 41.18,-31.03"/>
<polygon fill="#63b8ff" stroke="#63b8ff" points="74.84,-40.62 85.3,-38.94 76.08,-33.73 74.84,-40.62"/>
</a>
</g>
</g>
<!-- Node10&#45;&gt;Node9 -->
<g id="edge10_Node000010_Node000009" class="edge">
<title>Node10&#45;&gt;Node9</title>
<g id="a_edge10_Node000010_Node000009"><a xlink:title=" ">
<path fill="none" stroke="#63b8ff" d="M67.1,-19.76C57.67,-21.36 48.57,-22.9 41,-24.19"/>
<polygon fill="#63b8ff" stroke="#63b8ff" points="67.71,-23.2 76.98,-18.08 66.54,-16.3 67.71,-23.2"/>
</a>
</g>
</g>
<!-- Node11&#45;&gt;Node3 -->
<g id="edge12_Node000011_Node000003" class="edge">
<title>Node11&#45;&gt;Node3</title>
<g id="a_edge12_Node000011_Node000003"><a xlink:title=" ">
<path fill="none" stroke="#63b8ff" d="M474.32,-35.66C464.73,-37.05 455.09,-38.45 446.06,-39.76"/>
<polygon fill="#63b8ff" stroke="#63b8ff" points="474.87,-39.12 484.27,-34.22 473.87,-32.19 474.87,-39.12"/>
</a>
</g>
</g>
</g>
</svg>

<g id="navigator" transform="translate(0 0)" fill="#404254">
  <rect fill="#f2f5e9" fill-opacity="0.5" stroke="#606060" stroke-width=".5" x="0" y="0" width="60" height="60"/>
  <use id="zoomplus" xlink:href="#zoomPlus" x="17" y="9" onmousedown="handleZoom(evt,'in')"/>
  <use id="zoomminus" xlink:href="#zoomMin" x="42" y="9" onmousedown="handleZoom(evt,'out')"/>
  <use id="reset" xlink:href="#resetDef" x="30" y="36" onmousedown="handleReset()"/>
   <use id="arrowup" xlink:href="#arrowUp" x="0" y="0" onmousedown="handlePan(0,-1)"/>
  <use id="arrowright" xlink:href="#arrowRight" x="0" y="0" onmousedown="handlePan(1,0)"/>
  <use id="arrowdown" xlink:href="#arrowDown" x="0" y="0" onmousedown="handlePan(0,1)"/>
  <use id="arrowleft" xlink:href="#arrowLeft" x="0" y="0" onmousedown="handlePan(-1,0)"/>
</g>
<svg viewBox="0 0 15 15" width="100%" height="30px" preserveAspectRatio="xMaxYMin meet">
 <g id="arrow_out" transform="scale(0.3 0.3)">
  <a xlink:href="ie__device__common_8c_a56608584d5096e56c6de8baeb07edb11_icgraph_org.svg" target="_base">
   <rect id="button" ry="5" rx="5" y="6" x="6" height="38" width="38"
        fill="#f2f5e9" fill-opacity="0.5" stroke="#606060" stroke-width="1.0"/>
   <path id="arrow"
     d="M 11.500037,31.436501 C 11.940474,20.09759 22.043105,11.32322 32.158766,21.979434 L 37.068811,17.246167 C 37.068811,17.246167 37.088388,32 37.088388,32 L 22.160133,31.978069 C 22.160133,31.978069 26.997745,27.140456 26.997745,27.140456 C 18.528582,18.264221 13.291696,25.230495 11.500037,31.436501 z"
     style="fill:#404040;"/>
  </a>
 </g>
</svg>

<style type='text/css'>
<![CDATA[
[data-mouse-over-selected='false'] { opacity: 0.7; }
[data-mouse-over-selected='true']  { opacity: 1.0; }
]]>
</style>
<script type="application/ecmascript"><![CDATA[
document.addEventListener('DOMContentLoaded', (event) => {
  highlightEdges();
  highlightAdjacentNodes();
});
]]></script>
</svg>
