<?xml version="1.0" encoding="UTF-8" standalone="no"?>
<!DOCTYPE svg PUBLIC "-//W3C//DTD SVG 1.1//EN"
 "http://www.w3.org/Graphics/SVG/1.1/DTD/svg11.dtd">
<!-- Generated by graphviz version 12.2.1 (20241206.2353)
 -->
<!-- Title: engine/src/kernels/ze/ie_kernel_ze.cpp Pages: 1 -->
<svg width="806pt" height="98pt"
 viewBox="0.00 0.00 805.50 98.25" xmlns="http://www.w3.org/2000/svg" xmlns:xlink="http://www.w3.org/1999/xlink">
<g id="graph0" class="graph" transform="scale(1 1) rotate(0) translate(4 94.25)">
<title>engine/src/kernels/ze/ie_kernel_ze.cpp</title>
<!-- Node1 -->
<g id="Node000001" class="node">
<title>Node1</title>
<g id="a_Node000001"><a xlink:title=" ">
<polygon fill="#999999" stroke="#666666" points="476,-90.25 361.75,-90.25 361.75,-56.75 476,-56.75 476,-90.25"/>
<text text-anchor="start" x="369.75" y="-76.75" font-family="Helvetica,sans-Serif" font-size="10.00">engine/src/kernels</text>
<text text-anchor="middle" x="418.88" y="-64" font-family="Helvetica,sans-Serif" font-size="10.00">/ze/ie_kernel_ze.cpp</text>
</a>
</g>
</g>
<!-- Node2 -->
<g id="Node000002" class="node">
<title>Node2</title>
<g id="a_Node000002"><a xlink:title=" ">
<polygon fill="#e0e0e0" stroke="#999999" points="109.75,-20.75 0,-20.75 0,0 109.75,0 109.75,-20.75"/>
<text text-anchor="middle" x="54.88" y="-7.25" font-family="Helvetica,sans-Serif" font-size="10.00">level_zero/ze_api.h</text>
</a>
</g>
</g>
<!-- Node1&#45;&gt;Node2 -->
<g id="edge1_Node000001_Node000002" class="edge">
<title>Node1&#45;&gt;Node2</title>
<g id="a_edge1_Node000001_Node000002"><a xlink:title=" ">
<path fill="none" stroke="#63b8ff" d="M361.6,-62.88C296.36,-51.93 189.92,-34.05 121.15,-22.5"/>
<polygon fill="#63b8ff" stroke="#63b8ff" points="121.96,-19.09 111.52,-20.89 120.8,-26 121.96,-19.09"/>
</a>
</g>
</g>
<!-- Node3 -->
<g id="Node000003" class="node">
<title>Node3</title>
<g id="a_Node000003"><a xlink:title=" ">
<polygon fill="#e0e0e0" stroke="#999999" points="179.5,-20.75 128.25,-20.75 128.25,0 179.5,0 179.5,-20.75"/>
<text text-anchor="middle" x="153.88" y="-7.25" font-family="Helvetica,sans-Serif" font-size="10.00">cassert</text>
</a>
</g>
</g>
<!-- Node1&#45;&gt;Node3 -->
<g id="edge2_Node000001_Node000003" class="edge">
<title>Node1&#45;&gt;Node3</title>
<g id="a_edge2_Node000001_Node000003"><a xlink:title=" ">
<path fill="none" stroke="#63b8ff" d="M361.26,-60.41C316.98,-50.93 254.03,-37.06 190.8,-21.41"/>
<polygon fill="#63b8ff" stroke="#63b8ff" points="191.85,-18.06 181.3,-19.04 190.16,-24.85 191.85,-18.06"/>
</a>
</g>
</g>
<!-- Node4 -->
<g id="Node000004" class="node">
<title>Node4</title>
<g id="a_Node000004"><a xlink:title=" ">
<polygon fill="#e0e0e0" stroke="#999999" points="246.38,-20.75 197.38,-20.75 197.38,0 246.38,0 246.38,-20.75"/>
<text text-anchor="middle" x="221.88" y="-7.25" font-family="Helvetica,sans-Serif" font-size="10.00">cstdint</text>
</a>
</g>
</g>
<!-- Node1&#45;&gt;Node4 -->
<g id="edge3_Node000001_Node000004" class="edge">
<title>Node1&#45;&gt;Node4</title>
<g id="a_edge3_Node000001_Node000004"><a xlink:title=" ">
<path fill="none" stroke="#63b8ff" d="M366.6,-56.28C332.23,-45.62 288.16,-31.94 257.73,-22.5"/>
<polygon fill="#63b8ff" stroke="#63b8ff" points="258.81,-19.17 248.22,-19.55 256.74,-25.86 258.81,-19.17"/>
</a>
</g>
</g>
<!-- Node5 -->
<g id="Node000005" class="node">
<title>Node5</title>
<g id="a_Node000005"><a xlink:title=" ">
<polygon fill="#e0e0e0" stroke="#999999" points="309.5,-20.75 264.25,-20.75 264.25,0 309.5,0 309.5,-20.75"/>
<text text-anchor="middle" x="286.88" y="-7.25" font-family="Helvetica,sans-Serif" font-size="10.00">cstdio</text>
</a>
</g>
</g>
<!-- Node1&#45;&gt;Node5 -->
<g id="edge4_Node000001_Node000005" class="edge">
<title>Node1&#45;&gt;Node5</title>
<g id="a_edge4_Node000001_Node000005"><a xlink:title=" ">
<path fill="none" stroke="#63b8ff" d="M383.85,-56.28C363.48,-46.85 338.03,-35.06 318.31,-25.93"/>
<polygon fill="#63b8ff" stroke="#63b8ff" points="319.94,-22.83 309.39,-21.8 316.99,-29.18 319.94,-22.83"/>
</a>
</g>
</g>
<!-- Node6 -->
<g id="Node000006" class="node">
<title>Node6</title>
<g id="a_Node000006"><a xlink:title=" ">
<polygon fill="#e0e0e0" stroke="#999999" points="376,-20.75 327.75,-20.75 327.75,0 376,0 376,-20.75"/>
<text text-anchor="middle" x="351.88" y="-7.25" font-family="Helvetica,sans-Serif" font-size="10.00">cstdlib</text>
</a>
</g>
</g>
<!-- Node1&#45;&gt;Node6 -->
<g id="edge5_Node000001_Node000006" class="edge">
<title>Node1&#45;&gt;Node6</title>
<g id="a_edge5_Node000001_Node000006"><a xlink:title=" ">
<path fill="none" stroke="#63b8ff" d="M401.27,-56.44C391.99,-47.97 380.58,-37.56 371.07,-28.89"/>
<polygon fill="#63b8ff" stroke="#63b8ff" points="373.53,-26.39 363.78,-22.24 368.81,-31.56 373.53,-26.39"/>
</a>
</g>
</g>
<!-- Node7 -->
<g id="Node000007" class="node">
<title>Node7</title>
<g id="a_Node000007"><a xlink:title=" ">
<polygon fill="#e0e0e0" stroke="#999999" points="443.38,-20.75 394.38,-20.75 394.38,0 443.38,0 443.38,-20.75"/>
<text text-anchor="middle" x="418.88" y="-7.25" font-family="Helvetica,sans-Serif" font-size="10.00">cstring</text>
</a>
</g>
</g>
<!-- Node1&#45;&gt;Node7 -->
<g id="edge6_Node000001_Node000007" class="edge">
<title>Node1&#45;&gt;Node7</title>
<g id="a_edge6_Node000001_Node000007"><a xlink:title=" ">
<path fill="none" stroke="#63b8ff" d="M418.88,-56.44C418.88,-49.1 418.88,-40.32 418.88,-32.46"/>
<polygon fill="#63b8ff" stroke="#63b8ff" points="422.38,-32.73 418.88,-22.73 415.38,-32.73 422.38,-32.73"/>
</a>
</g>
</g>
<!-- Node8 -->
<g id="Node000008" class="node">
<title>Node8</title>
<g id="a_Node000008"><a xlink:title=" ">
<polygon fill="#e0e0e0" stroke="#999999" points="504.75,-20.75 461,-20.75 461,0 504.75,0 504.75,-20.75"/>
<text text-anchor="middle" x="482.88" y="-7.25" font-family="Helvetica,sans-Serif" font-size="10.00">string</text>
</a>
</g>
</g>
<!-- Node1&#45;&gt;Node8 -->
<g id="edge7_Node000001_Node000008" class="edge">
<title>Node1&#45;&gt;Node8</title>
<g id="a_edge7_Node000001_Node000008"><a xlink:title=" ">
<path fill="none" stroke="#63b8ff" d="M435.69,-56.44C444.47,-48.06 455.23,-37.78 464.26,-29.16"/>
<polygon fill="#63b8ff" stroke="#63b8ff" points="466.66,-31.7 471.48,-22.26 461.83,-26.64 466.66,-31.7"/>
</a>
</g>
</g>
<!-- Node9 -->
<g id="Node000009" class="node">
<title>Node9</title>
<g id="a_Node000009"><a xlink:title=" ">
<polygon fill="#e0e0e0" stroke="#999999" points="569.25,-20.75 522.5,-20.75 522.5,0 569.25,0 569.25,-20.75"/>
<text text-anchor="middle" x="545.88" y="-7.25" font-family="Helvetica,sans-Serif" font-size="10.00">vector</text>
</a>
</g>
</g>
<!-- Node1&#45;&gt;Node9 -->
<g id="edge8_Node000001_Node000009" class="edge">
<title>Node1&#45;&gt;Node9</title>
<g id="a_edge8_Node000001_Node000009"><a xlink:title=" ">
<path fill="none" stroke="#63b8ff" d="M452.58,-56.28C472.08,-46.89 496.43,-35.17 515.36,-26.06"/>
<polygon fill="#63b8ff" stroke="#63b8ff" points="516.68,-29.31 524.17,-21.82 513.64,-23 516.68,-29.31"/>
</a>
</g>
</g>
<!-- Node10 -->
<g id="Node000010" class="node">
<title>Node10</title>
<g id="a_Node000010"><a xlink:title=" ">
<polygon fill="#e0e0e0" stroke="#999999" points="642,-20.75 587.75,-20.75 587.75,0 642,0 642,-20.75"/>
<text text-anchor="middle" x="614.88" y="-7.25" font-family="Helvetica,sans-Serif" font-size="10.00">fstream</text>
</a>
</g>
</g>
<!-- Node1&#45;&gt;Node10 -->
<g id="edge9_Node000001_Node000010" class="edge">
<title>Node1&#45;&gt;Node10</title>
<g id="a_edge9_Node000001_Node000010"><a xlink:title=" ">
<path fill="none" stroke="#63b8ff" d="M470.88,-56.28C504.07,-45.93 546.36,-32.74 576.5,-23.34"/>
<polygon fill="#63b8ff" stroke="#63b8ff" points="577.46,-26.71 585.97,-20.39 575.38,-20.03 577.46,-26.71"/>
</a>
</g>
</g>
<!-- Node11 -->
<g id="Node000011" class="node">
<title>Node11</title>
<g id="a_Node000011"><a xlink:title=" ">
<polygon fill="#e0e0e0" stroke="#999999" points="715.75,-20.75 660,-20.75 660,0 715.75,0 715.75,-20.75"/>
<text text-anchor="middle" x="687.88" y="-7.25" font-family="Helvetica,sans-Serif" font-size="10.00">sstream</text>
</a>
</g>
</g>
<!-- Node1&#45;&gt;Node11 -->
<g id="edge10_Node000001_Node000011" class="edge">
<title>Node1&#45;&gt;Node11</title>
<g id="a_edge10_Node000001_Node000011"><a xlink:title=" ">
<path fill="none" stroke="#63b8ff" d="M476.19,-60.2C520.63,-50.54 584.06,-36.54 648.43,-21.28"/>
<polygon fill="#63b8ff" stroke="#63b8ff" points="649.22,-24.69 658.14,-18.97 647.6,-17.88 649.22,-24.69"/>
</a>
</g>
</g>
<!-- Node12 -->
<g id="Node000012" class="node">
<title>Node12</title>
<g id="a_Node000012"><a xlink:title=" ">
<polygon fill="#e0e0e0" stroke="#999999" points="797.5,-20.75 734.25,-20.75 734.25,0 797.5,0 797.5,-20.75"/>
<text text-anchor="middle" x="765.88" y="-7.25" font-family="Helvetica,sans-Serif" font-size="10.00">algorithm</text>
</a>
</g>
</g>
<!-- Node1&#45;&gt;Node12 -->
<g id="edge11_Node000001_Node000012" class="edge">
<title>Node1&#45;&gt;Node12</title>
<g id="a_edge11_Node000001_Node000012"><a xlink:title=" ">
<path fill="none" stroke="#63b8ff" d="M476.3,-63.79C535.52,-54.59 630.8,-39.16 722.91,-21.04"/>
<polygon fill="#63b8ff" stroke="#63b8ff" points="723.52,-24.49 732.64,-19.12 722.16,-17.63 723.52,-24.49"/>
</a>
</g>
</g>
</g>
</svg>
