<?xml version="1.0" encoding="UTF-8" standalone="no"?>
<!DOCTYPE svg PUBLIC "-//W3C//DTD SVG 1.1//EN"
 "http://www.w3.org/Graphics/SVG/1.1/DTD/svg11.dtd">
<!-- Generated by graphviz version 2.43.0 (0)
 -->
<!-- Title: ie_batcher_create Pages: 1 -->
<svg width="348pt" height="124pt"
 viewBox="0.00 0.00 348.00 124.00" xmlns="http://www.w3.org/2000/svg" xmlns:xlink="http://www.w3.org/1999/xlink">
<g id="graph0" class="graph" transform="scale(1 1) rotate(0) translate(4 120)">
<title>ie_batcher_create</title>
<!-- Node1 -->
<g id="Node000001" class="node">
<title>Node1</title>
<g id="a_Node000001"><a xlink:title="Create a new asynchronous tokenizer batcher.">
<polygon fill="#999999" stroke="#666666" points="340,-67.5 236,-67.5 236,-48.5 340,-48.5 340,-67.5"/>
<text text-anchor="middle" x="288" y="-55.5" font-family="Helvetica,sans-Serif" font-size="10.00">ie_batcher_create</text>
</a>
</g>
</g>
<!-- Node2 -->
<g id="Node000002" class="node">
<title>Node2</title>
<g id="a_Node000002"><a xlink:href="test__batcher_8c.html#a840a5fb06d03045c6f4e645ed682b7ad" target="_top" xlink:title="Validate basic prefetch, ordering, microbatch slicing and draining.">
<polygon fill="white" stroke="#666666" points="194.5,-116 82.5,-116 82.5,-86 194.5,-86 194.5,-116"/>
<text text-anchor="start" x="90.5" y="-104" font-family="Helvetica,sans-Serif" font-size="10.00">test_basic_prefetch</text>
<text text-anchor="middle" x="138.5" y="-93" font-family="Helvetica,sans-Serif" font-size="10.00">_and_order</text>
</a>
</g>
</g>
<!-- Node1&#45;&gt;Node2 -->
<g id="edge1_Node000001_Node000002" class="edge">
<title>Node1&#45;&gt;Node2</title>
<g id="a_edge1_Node000001_Node000002"><a xlink:title=" ">
<path fill="none" stroke="#63b8ff" d="M244.27,-70.46C227.62,-75.31 208.38,-80.92 190.98,-85.99"/>
<polygon fill="#63b8ff" stroke="#63b8ff" points="245.64,-73.7 254.26,-67.54 243.69,-66.98 245.64,-73.7"/>
</a>
</g>
</g>
<!-- Node4 -->
<g id="Node000004" class="node">
<title>Node4</title>
<g id="a_Node000004"><a xlink:href="test__batcher_8c.html#acebcf748df4676af1488302913dcc33e" target="_top" xlink:title="Validate graceful teardown: destroy after partial consumption.">
<polygon fill="white" stroke="#666666" points="200,-67.5 77,-67.5 77,-48.5 200,-48.5 200,-67.5"/>
<text text-anchor="middle" x="138.5" y="-55.5" font-family="Helvetica,sans-Serif" font-size="10.00">test_partial_teardown</text>
</a>
</g>
</g>
<!-- Node1&#45;&gt;Node4 -->
<g id="edge3_Node000001_Node000004" class="edge">
<title>Node1&#45;&gt;Node4</title>
<g id="a_edge3_Node000001_Node000004"><a xlink:title=" ">
<path fill="none" stroke="#63b8ff" d="M225.7,-58C217.28,-58 208.63,-58 200.22,-58"/>
<polygon fill="#63b8ff" stroke="#63b8ff" points="225.83,-61.5 235.83,-58 225.83,-54.5 225.83,-61.5"/>
</a>
</g>
</g>
<!-- Node5 -->
<g id="Node000005" class="node">
<title>Node5</title>
<g id="a_Node000005"><a xlink:href="test__batcher_8c.html#ae1015c7a7a149612ed323d43e7c93a0c" target="_top" xlink:title="Validate ring wrap behavior (tail truncation) and view sizes.">
<polygon fill="white" stroke="#666666" points="196.5,-30 80.5,-30 80.5,0 196.5,0 196.5,-30"/>
<text text-anchor="start" x="88.5" y="-18" font-family="Helvetica,sans-Serif" font-size="10.00">test_wrap_and_view</text>
<text text-anchor="middle" x="138.5" y="-7" font-family="Helvetica,sans-Serif" font-size="10.00">_limits</text>
</a>
</g>
</g>
<!-- Node1&#45;&gt;Node5 -->
<g id="edge5_Node000001_Node000005" class="edge">
<title>Node1&#45;&gt;Node5</title>
<g id="a_edge5_Node000001_Node000005"><a xlink:title=" ">
<path fill="none" stroke="#63b8ff" d="M244.27,-45.54C227.62,-40.69 208.38,-35.08 190.98,-30.01"/>
<polygon fill="#63b8ff" stroke="#63b8ff" points="243.69,-49.02 254.26,-48.46 245.64,-42.3 243.69,-49.02"/>
</a>
</g>
</g>
<!-- Node3 -->
<g id="Node000003" class="node">
<title>Node3</title>
<g id="a_Node000003"><a xlink:href="test__batcher_8c.html#a840291bc02cba5474a4cb46a9b9566fe" target="_top" xlink:title=" ">
<polygon fill="white" stroke="#666666" points="41,-67.5 0,-67.5 0,-48.5 41,-48.5 41,-67.5"/>
<text text-anchor="middle" x="20.5" y="-55.5" font-family="Helvetica,sans-Serif" font-size="10.00">main</text>
</a>
</g>
</g>
<!-- Node2&#45;&gt;Node3 -->
<g id="edge2_Node000002_Node000003" class="edge">
<title>Node2&#45;&gt;Node3</title>
<g id="a_edge2_Node000002_Node000003"><a xlink:title=" ">
<path fill="none" stroke="#63b8ff" d="M87.42,-82.44C71.04,-76.36 53.8,-69.97 41.06,-65.25"/>
<polygon fill="#63b8ff" stroke="#63b8ff" points="86.34,-85.77 96.93,-85.96 88.77,-79.2 86.34,-85.77"/>
</a>
</g>
</g>
<!-- Node4&#45;&gt;Node3 -->
<g id="edge4_Node000004_Node000003" class="edge">
<title>Node4&#45;&gt;Node3</title>
<g id="a_edge4_Node000004_Node000003"><a xlink:title=" ">
<path fill="none" stroke="#63b8ff" d="M66.56,-58C57.26,-58 48.43,-58 41.1,-58"/>
<polygon fill="#63b8ff" stroke="#63b8ff" points="66.78,-61.5 76.78,-58 66.78,-54.5 66.78,-61.5"/>
</a>
</g>
</g>
<!-- Node5&#45;&gt;Node3 -->
<g id="edge6_Node000005_Node000003" class="edge">
<title>Node5&#45;&gt;Node3</title>
<g id="a_edge6_Node000005_Node000003"><a xlink:title=" ">
<path fill="none" stroke="#63b8ff" d="M87.42,-33.56C71.04,-39.64 53.8,-46.03 41.06,-50.75"/>
<polygon fill="#63b8ff" stroke="#63b8ff" points="88.77,-36.8 96.93,-30.04 86.34,-30.23 88.77,-36.8"/>
</a>
</g>
</g>
</g>
</svg>
