<?xml version="1.0" encoding="UTF-8" standalone="no"?>
<!DOCTYPE svg PUBLIC "-//W3C//DTD SVG 1.1//EN"
 "http://www.w3.org/Graphics/SVG/1.1/DTD/svg11.dtd">
<!-- Generated by graphviz version 2.43.0 (0)
 -->
<!-- Title: ie_gptoss_infer_destroy Pages: 1 -->
<svg width="276pt" height="64pt"
 viewBox="0.00 0.00 276.00 64.00" xmlns="http://www.w3.org/2000/svg" xmlns:xlink="http://www.w3.org/1999/xlink">
<g id="graph0" class="graph" transform="scale(1 1) rotate(0) translate(4 60)">
<title>ie_gptoss_infer_destroy</title>
<!-- Node1 -->
<g id="Node000001" class="node">
<title>Node1</title>
<g id="a_Node000001"><a xlink:title="Destroy an inference context.">
<polygon fill="#999999" stroke="#666666" points="133,-37 0,-37 0,-18 133,-18 133,-37"/>
<text text-anchor="middle" x="66.5" y="-25" font-family="Helvetica,sans-Serif" font-size="10.00">ie_gptoss_infer_destroy</text>
</a>
</g>
</g>
<!-- Node2 -->
<g id="Node000002" class="node">
<title>Node2</title>
<g id="a_Node000002"><a xlink:href="infer__gptoss_8c.html#aa47d37a36d18e17af565d12559d481c7" target="_top" xlink:title="Unmap a previously mapped read&#45;only file.">
<polygon fill="white" stroke="#666666" points="263,-56 174,-56 174,-37 263,-37 263,-56"/>
<text text-anchor="middle" x="218.5" y="-44" font-family="Helvetica,sans-Serif" font-size="10.00">ie_munmap_ro</text>
</a>
</g>
</g>
<!-- Node1&#45;&gt;Node2 -->
<g id="edge1_Node000001_Node000002" class="edge">
<title>Node1&#45;&gt;Node2</title>
<g id="a_edge1_Node000001_Node000002"><a xlink:title=" ">
<path fill="none" stroke="#63b8ff" d="M133.29,-35.83C143.46,-37.12 153.85,-38.44 163.71,-39.69"/>
<polygon fill="#63b8ff" stroke="#63b8ff" points="163.41,-43.18 173.77,-40.96 164.28,-36.23 163.41,-43.18"/>
</a>
</g>
</g>
<!-- Node3 -->
<g id="Node000003" class="node">
<title>Node3</title>
<g id="a_Node000003"><a xlink:href="tensor__map_8c.html#a42d154b3f93b07c41b514e468a61c803" target="_top" xlink:title="Free tensor map and all owned memory.">
<polygon fill="white" stroke="#666666" points="268,-19 169,-19 169,0 268,0 268,-19"/>
<text text-anchor="middle" x="218.5" y="-7" font-family="Helvetica,sans-Serif" font-size="10.00">tensor_map_free</text>
</a>
</g>
</g>
<!-- Node1&#45;&gt;Node3 -->
<g id="edge2_Node000001_Node000003" class="edge">
<title>Node1&#45;&gt;Node3</title>
<g id="a_edge2_Node000001_Node000003"><a xlink:title=" ">
<path fill="none" stroke="#63b8ff" d="M133.29,-19.6C141.8,-18.58 150.47,-17.54 158.85,-16.54"/>
<polygon fill="#63b8ff" stroke="#63b8ff" points="159.38,-20 168.9,-15.33 158.55,-13.05 159.38,-20"/>
</a>
</g>
</g>
</g>
</svg>
