<?xml version="1.0" encoding="UTF-8" standalone="no"?>
<!DOCTYPE svg PUBLIC "-//W3C//DTD SVG 1.1//EN"
 "http://www.w3.org/Graphics/SVG/1.1/DTD/svg11.dtd">
<!-- Generated by graphviz version 2.43.0 (0)
 -->
<!-- Title: ie_batcher_advance Pages: 1 -->
<svg width="351pt" height="86pt"
 viewBox="0.00 0.00 351.00 86.00" xmlns="http://www.w3.org/2000/svg" xmlns:xlink="http://www.w3.org/1999/xlink">

<svg id="main" version="1.1" xmlns="http://www.w3.org/2000/svg" xmlns:xlink="http://www.w3.org/1999/xlink" xml:space="preserve" onload="init(evt)">
<style type="text/css"><![CDATA[
.node, .edge {opacity: 0.7;}
.node.selected, .edge.selected {opacity: 1;}
.edge:hover path { stroke: red; }
.edge:hover polygon { stroke: red; fill: red; }
]]></style>
<script type="application/ecmascript" xlink:href="svg.min.js"/>
<svg id="graph" class="graph">
<g id="graph0" class="graph" transform="scale(1 1) rotate(0) translate(4 82)">
<title>ie_batcher_advance</title>
<!-- Node1 -->
<g id="Node000001" class="node">
<title>Node1</title>
<g id="a_Node000001"><a xlink:title="Release items previously returned by ie_batcher_get.">
<polygon fill="#999999" stroke="#666666" points="343,-48.5 229,-48.5 229,-29.5 343,-29.5 343,-48.5"/>
<text text-anchor="middle" x="286" y="-36.5" font-family="Helvetica,sans-Serif" font-size="10.00">ie_batcher_advance</text>
</a>
</g>
</g>
<!-- Node2 -->
<g id="Node000002" class="node">
<title>Node2</title>
<g id="a_Node000002"><a xlink:href="test__batcher_8c.html#a840a5fb06d03045c6f4e645ed682b7ad" target="_top" xlink:title="Validate basic prefetch, ordering, microbatch slicing and draining.">
<polygon fill="white" stroke="#666666" points="191,-78 79,-78 79,-48 191,-48 191,-78"/>
<text text-anchor="start" x="87" y="-66" font-family="Helvetica,sans-Serif" font-size="10.00">test_basic_prefetch</text>
<text text-anchor="middle" x="135" y="-55" font-family="Helvetica,sans-Serif" font-size="10.00">_and_order</text>
</a>
</g>
</g>
<!-- Node1&#45;&gt;Node2 -->
<g id="edge1_Node000001_Node000002" class="edge">
<title>Node1&#45;&gt;Node2</title>
<g id="a_edge1_Node000001_Node000002"><a xlink:title=" ">
<path fill="none" stroke="#63b8ff" d="M218.54,-49.71C209.48,-51.16 200.26,-52.65 191.42,-54.07"/>
<polygon fill="#63b8ff" stroke="#63b8ff" points="219.35,-53.12 228.67,-48.07 218.24,-46.21 219.35,-53.12"/>
</a>
</g>
</g>
<!-- Node4 -->
<g id="Node000004" class="node">
<title>Node4</title>
<g id="a_Node000004"><a xlink:href="test__batcher_8c.html#ae1015c7a7a149612ed323d43e7c93a0c" target="_top" xlink:title="Validate ring wrap behavior (tail truncation) and view sizes.">
<polygon fill="white" stroke="#666666" points="193,-30 77,-30 77,0 193,0 193,-30"/>
<text text-anchor="start" x="85" y="-18" font-family="Helvetica,sans-Serif" font-size="10.00">test_wrap_and_view</text>
<text text-anchor="middle" x="135" y="-7" font-family="Helvetica,sans-Serif" font-size="10.00">_limits</text>
</a>
</g>
</g>
<!-- Node1&#45;&gt;Node4 -->
<g id="edge3_Node000001_Node000004" class="edge">
<title>Node1&#45;&gt;Node4</title>
<g id="a_edge3_Node000001_Node000004"><a xlink:title=" ">
<path fill="none" stroke="#63b8ff" d="M218.54,-28.29C210.15,-26.94 201.63,-25.57 193.4,-24.25"/>
<polygon fill="#63b8ff" stroke="#63b8ff" points="218.24,-31.79 228.67,-29.93 219.35,-24.88 218.24,-31.79"/>
</a>
</g>
</g>
<!-- Node3 -->
<g id="Node000003" class="node">
<title>Node3</title>
<g id="a_Node000003"><a xlink:href="test__batcher_8c.html#a840291bc02cba5474a4cb46a9b9566fe" target="_top" xlink:title=" ">
<polygon fill="white" stroke="#666666" points="41,-48.5 0,-48.5 0,-29.5 41,-29.5 41,-48.5"/>
<text text-anchor="middle" x="20.5" y="-36.5" font-family="Helvetica,sans-Serif" font-size="10.00">main</text>
</a>
</g>
</g>
<!-- Node2&#45;&gt;Node3 -->
<g id="edge2_Node000002_Node000003" class="edge">
<title>Node2&#45;&gt;Node3</title>
<g id="a_edge2_Node000002_Node000003"><a xlink:title=" ">
<path fill="none" stroke="#63b8ff" d="M68.69,-49.07C58.72,-46.94 49.14,-44.9 41.25,-43.21"/>
<polygon fill="#63b8ff" stroke="#63b8ff" points="68.23,-52.55 78.74,-51.21 69.69,-45.7 68.23,-52.55"/>
</a>
</g>
</g>
<!-- Node4&#45;&gt;Node3 -->
<g id="edge4_Node000004_Node000003" class="edge">
<title>Node4&#45;&gt;Node3</title>
<g id="a_edge4_Node000004_Node000003"><a xlink:title=" ">
<path fill="none" stroke="#63b8ff" d="M66.91,-29.31C57.56,-31.31 48.63,-33.21 41.19,-34.8"/>
<polygon fill="#63b8ff" stroke="#63b8ff" points="67.71,-32.72 76.76,-27.21 66.25,-25.87 67.71,-32.72"/>
</a>
</g>
</g>
</g>
</svg>
</svg>

<style type='text/css'>
<![CDATA[
[data-mouse-over-selected='false'] { opacity: 0.7; }
[data-mouse-over-selected='true']  { opacity: 1.0; }
]]>
</style>
<script type="application/ecmascript"><![CDATA[
document.addEventListener('DOMContentLoaded', (event) => {
  highlightEdges();
  highlightAdjacentNodes();
});
]]></script>
</svg>
