<?xml version="1.0" encoding="UTF-8" standalone="no"?>
<!DOCTYPE svg PUBLIC "-//W3C//DTD SVG 1.1//EN"
 "http://www.w3.org/Graphics/SVG/1.1/DTD/svg11.dtd">
<!-- Generated by graphviz version 2.43.0 (0)
 -->
<!-- Title: engine/include/ie_cpu.h Pages: 1 -->
<!--zoomable 93 -->

<svg id="main" version="1.1" xmlns="http://www.w3.org/2000/svg" xmlns:xlink="http://www.w3.org/1999/xlink" xml:space="preserve" onload="init(evt)">
<style type="text/css"><![CDATA[
.node, .edge {opacity: 0.7;}
.node.selected, .edge.selected {opacity: 1;}
.edge:hover path { stroke: red; }
.edge:hover polygon { stroke: red; fill: red; }
]]></style>

<defs>
  <circle id="rim" cx="0" cy="0" r="7"/>
  <circle id="rim2" cx="0" cy="0" r="3.5"/>
  <g id="zoomPlus">
    <use xlink:href="#rim" fill="#404040"><set attributeName="fill" to="#808080" begin="zoomplus.mouseover" end="zoomplus.mouseout"/></use>
    <path d="M-4,0h8M0,-4v8" fill="none" stroke="white" stroke-width="1.5" pointer-events="none"/>
  </g>
  <g id="zoomMin">
    <use xlink:href="#rim" fill="#404040"><set attributeName="fill" to="#808080" begin="zoomminus.mouseover" end="zoomminus.mouseout"/></use>
    <path d="M-4,0h8" fill="none" stroke="white" stroke-width="1.5" pointer-events="none"/>
  </g>
  <g id="arrowUp" transform="translate(30 24)">
    <use xlink:href="#rim"/>
    <path pointer-events="none" fill="none" stroke="white" stroke-width="1.5" d="M0,-3.0v7 M-2.5,-0.5L0,-3.0L2.5,-0.5"/>
  </g>
  <g id="arrowRight" transform="rotate(90) translate(36 -43)">
    <use xlink:href="#rim"/>
    <path pointer-events="none" fill="none" stroke="white" stroke-width="1.5" d="M0,-3.0v7 M-2.5,-0.5L0,-3.0L2.5,-0.5"/>
  </g>
  <g id="arrowDown" transform="rotate(180) translate(-30 -48)">
    <use xlink:href="#rim"/>
    <path pointer-events="none" fill="none" stroke="white" stroke-width="1.5" d="M0,-3.0v7 M-2.5,-0.5L0,-3.0L2.5,-0.5"/>
  </g>
  <g id="arrowLeft" transform="rotate(270) translate(-36 17)">
    <use xlink:href="#rim"/>
    <path pointer-events="none" fill="none" stroke="white" stroke-width="1.5" d="M0,-3.0v7 M-2.5,-0.5L0,-3.0L2.5,-0.5"/>
  </g>
  <g id="resetDef">
    <use xlink:href="#rim2" fill="#404040"><set attributeName="fill" to="#808080" begin="reset.mouseover" end="reset.mouseout"/></use>
  </g>
</defs>
<script type="application/ecmascript">
var viewWidth = 809;
var viewHeight = 93;
var sectionId = 'dynsection-1';
</script>
<script type="application/ecmascript" xlink:href="svg.min.js"/>
<svg id="graph" class="graph">
<g id="viewport">
<title>engine/include/ie_cpu.h</title>
<!-- Node1 -->
<g id="Node000001" class="node">
<title>Node1</title>
<g id="a_Node000001"><a xlink:title="Runtime CPU feature detection utilities.">
<polygon fill="#999999" stroke="#666666" points="435,-85 304,-85 304,-66 435,-66 435,-85"/>
<text text-anchor="middle" x="369.5" y="-73" font-family="Helvetica,sans-Serif" font-size="10.00">engine/include/ie_cpu.h</text>
</a>
</g>
</g>
<!-- Node2 -->
<g id="Node000002" class="node">
<title>Node2</title>
<g id="a_Node000002"><a xlink:href="ie__api_8c.html" target="_top" xlink:title="Stable public API implementation for creating, destroying, and running an engine instance.">
<polygon fill="white" stroke="#666666" points="107,-24.5 0,-24.5 0,-5.5 107,-5.5 107,-24.5"/>
<text text-anchor="middle" x="53.5" y="-12.5" font-family="Helvetica,sans-Serif" font-size="10.00">engine/src/ie_api.c</text>
</a>
</g>
</g>
<!-- Node1&#45;&gt;Node2 -->
<g id="edge1_Node000001_Node000002" class="edge">
<title>Node1&#45;&gt;Node2</title>
<g id="a_edge1_Node000001_Node000002"><a xlink:title=" ">
<path fill="none" stroke="#63b8ff" d="M306.35,-64.31C254.86,-55.8 180.32,-42.99 115.5,-30 107.17,-28.33 98.24,-26.4 89.83,-24.51"/>
<polygon fill="#63b8ff" stroke="#63b8ff" points="305.9,-67.79 316.33,-65.96 307.04,-60.88 305.9,-67.79"/>
</a>
</g>
</g>
<!-- Node3 -->
<g id="Node000003" class="node">
<title>Node3</title>
<g id="a_Node000003"><a xlink:href="gemv__generic_8c.html" target="_top" xlink:title=" ">
<polygon fill="white" stroke="#666666" points="230,-30 125,-30 125,0 230,0 230,-30"/>
<text text-anchor="start" x="133" y="-18" font-family="Helvetica,sans-Serif" font-size="10.00">engine/src/kernels</text>
<text text-anchor="middle" x="177.5" y="-7" font-family="Helvetica,sans-Serif" font-size="10.00">/gemv_generic.c</text>
</a>
</g>
</g>
<!-- Node1&#45;&gt;Node3 -->
<g id="edge2_Node000001_Node000003" class="edge">
<title>Node1&#45;&gt;Node3</title>
<g id="a_edge2_Node000001_Node000003"><a xlink:title=" ">
<path fill="none" stroke="#63b8ff" d="M332.01,-63.08C301,-53.63 256.84,-40.17 223.66,-30.06"/>
<polygon fill="#63b8ff" stroke="#63b8ff" points="331,-66.43 341.58,-65.99 333.04,-59.73 331,-66.43"/>
</a>
</g>
</g>
<!-- Node4 -->
<g id="Node000004" class="node">
<title>Node4</title>
<g id="a_Node000004"><a xlink:href="gemv__q4__generic_8c.html" target="_top" xlink:title="Portable Q4_0 GEMV (matrix&#45;vector) kernel with runtime dispatch.">
<polygon fill="white" stroke="#666666" points="362.5,-30 248.5,-30 248.5,0 362.5,0 362.5,-30"/>
<text text-anchor="start" x="256.5" y="-18" font-family="Helvetica,sans-Serif" font-size="10.00">engine/src/kernels</text>
<text text-anchor="middle" x="305.5" y="-7" font-family="Helvetica,sans-Serif" font-size="10.00">/gemv_q4_generic.c</text>
</a>
</g>
</g>
<!-- Node1&#45;&gt;Node4 -->
<g id="edge3_Node000001_Node000004" class="edge">
<title>Node1&#45;&gt;Node4</title>
<g id="a_edge3_Node000001_Node000004"><a xlink:title=" ">
<path fill="none" stroke="#63b8ff" d="M352.51,-58.97C342.7,-50.01 330.47,-38.82 320.94,-30.11"/>
<polygon fill="#63b8ff" stroke="#63b8ff" points="350.31,-61.7 360.06,-65.87 355.04,-56.54 350.31,-61.7"/>
</a>
</g>
</g>
<!-- Node5 -->
<g id="Node000005" class="node">
<title>Node5</title>
<g id="a_Node000005"><a xlink:href="cpu__features_8c.html" target="_top" xlink:title="Runtime CPU feature detection via CPUID/XGETBV (x86) with safe fallbacks.">
<polygon fill="white" stroke="#666666" points="486.5,-30 380.5,-30 380.5,0 486.5,0 486.5,-30"/>
<text text-anchor="start" x="388.5" y="-18" font-family="Helvetica,sans-Serif" font-size="10.00">engine/src/opt/cpu</text>
<text text-anchor="middle" x="433.5" y="-7" font-family="Helvetica,sans-Serif" font-size="10.00">_features.c</text>
</a>
</g>
</g>
<!-- Node1&#45;&gt;Node5 -->
<g id="edge4_Node000001_Node000005" class="edge">
<title>Node1&#45;&gt;Node5</title>
<g id="a_edge4_Node000001_Node000005"><a xlink:title=" ">
<path fill="none" stroke="#63b8ff" d="M386.49,-58.97C396.3,-50.01 408.53,-38.82 418.06,-30.11"/>
<polygon fill="#63b8ff" stroke="#63b8ff" points="383.96,-56.54 378.94,-65.87 388.69,-61.7 383.96,-56.54"/>
</a>
</g>
</g>
<!-- Node6 -->
<g id="Node000006" class="node">
<title>Node6</title>
<g id="a_Node000006"><a xlink:href="stream_8c.html" target="_top" xlink:title="Prefetch and non&#45;temporal (streaming) heuristics and helpers.">
<polygon fill="white" stroke="#666666" points="636,-24.5 505,-24.5 505,-5.5 636,-5.5 636,-24.5"/>
<text text-anchor="middle" x="570.5" y="-12.5" font-family="Helvetica,sans-Serif" font-size="10.00">engine/src/opt/stream.c</text>
</a>
</g>
</g>
<!-- Node1&#45;&gt;Node6 -->
<g id="edge5_Node000001_Node000006" class="edge">
<title>Node1&#45;&gt;Node6</title>
<g id="a_edge5_Node000001_Node000006"><a xlink:title=" ">
<path fill="none" stroke="#63b8ff" d="M408.64,-63.11C447.52,-51.79 506.24,-34.7 541.24,-24.52"/>
<polygon fill="#63b8ff" stroke="#63b8ff" points="407.35,-59.84 398.73,-65.99 409.31,-66.56 407.35,-59.84"/>
</a>
</g>
</g>
<!-- Node7 -->
<g id="Node000007" class="node">
<title>Node7</title>
<g id="a_Node000007"><a xlink:href="test__cpu__features_8c.html" target="_top" xlink:title="Smoke test for CPU feature detection (never crashes, sane flags).">
<polygon fill="white" stroke="#666666" points="801,-24.5 654,-24.5 654,-5.5 801,-5.5 801,-24.5"/>
<text text-anchor="middle" x="727.5" y="-12.5" font-family="Helvetica,sans-Serif" font-size="10.00">tests/c/test_cpu_features.c</text>
</a>
</g>
</g>
<!-- Node1&#45;&gt;Node7 -->
<g id="edge6_Node000001_Node000007" class="edge">
<title>Node1&#45;&gt;Node7</title>
<g id="a_edge6_Node000001_Node000007"><a xlink:title=" ">
<path fill="none" stroke="#63b8ff" d="M433.33,-64.38C489.29,-55.47 572.82,-42.06 645.5,-30 656.04,-28.25 667.34,-26.34 678.08,-24.51"/>
<polygon fill="#63b8ff" stroke="#63b8ff" points="432.53,-60.96 423.21,-65.99 433.63,-67.88 432.53,-60.96"/>
</a>
</g>
</g>
</g>
</svg>

<g id="navigator" transform="translate(0 0)" fill="#404254">
  <rect fill="#f2f5e9" fill-opacity="0.5" stroke="#606060" stroke-width=".5" x="0" y="0" width="60" height="60"/>
  <use id="zoomplus" xlink:href="#zoomPlus" x="17" y="9" onmousedown="handleZoom(evt,'in')"/>
  <use id="zoomminus" xlink:href="#zoomMin" x="42" y="9" onmousedown="handleZoom(evt,'out')"/>
  <use id="reset" xlink:href="#resetDef" x="30" y="36" onmousedown="handleReset()"/>
   <use id="arrowup" xlink:href="#arrowUp" x="0" y="0" onmousedown="handlePan(0,-1)"/>
  <use id="arrowright" xlink:href="#arrowRight" x="0" y="0" onmousedown="handlePan(1,0)"/>
  <use id="arrowdown" xlink:href="#arrowDown" x="0" y="0" onmousedown="handlePan(0,1)"/>
  <use id="arrowleft" xlink:href="#arrowLeft" x="0" y="0" onmousedown="handlePan(-1,0)"/>
</g>
<svg viewBox="0 0 15 15" width="100%" height="30px" preserveAspectRatio="xMaxYMin meet">
 <g id="arrow_out" transform="scale(0.3 0.3)">
  <a xlink:href="ie__cpu_8h__dep__incl_org.svg" target="_base">
   <rect id="button" ry="5" rx="5" y="6" x="6" height="38" width="38"
        fill="#f2f5e9" fill-opacity="0.5" stroke="#606060" stroke-width="1.0"/>
   <path id="arrow"
     d="M 11.500037,31.436501 C 11.940474,20.09759 22.043105,11.32322 32.158766,21.979434 L 37.068811,17.246167 C 37.068811,17.246167 37.088388,32 37.088388,32 L 22.160133,31.978069 C 22.160133,31.978069 26.997745,27.140456 26.997745,27.140456 C 18.528582,18.264221 13.291696,25.230495 11.500037,31.436501 z"
     style="fill:#404040;"/>
  </a>
 </g>
</svg>

<style type='text/css'>
<![CDATA[
[data-mouse-over-selected='false'] { opacity: 0.7; }
[data-mouse-over-selected='true']  { opacity: 1.0; }
]]>
</style>
<script type="application/ecmascript"><![CDATA[
document.addEventListener('DOMContentLoaded', (event) => {
  highlightEdges();
  highlightAdjacentNodes();
});
]]></script>
</svg>
