<?xml version="1.0" encoding="UTF-8" standalone="no"?>
<!DOCTYPE svg PUBLIC "-//W3C//DTD SVG 1.1//EN"
 "http://www.w3.org/Graphics/SVG/1.1/DTD/svg11.dtd">
<!-- Generated by graphviz version 12.2.1 (20241206.2353)
 -->
<!-- Title: engine/include/ie_tokenizer.h Pages: 1 -->
<svg width="166pt" height="142pt"
 viewBox="0.00 0.00 165.75 142.25" xmlns="http://www.w3.org/2000/svg" xmlns:xlink="http://www.w3.org/1999/xlink">
<g id="graph0" class="graph" transform="scale(1 1) rotate(0) translate(4 138.25)">
<title>engine/include/ie_tokenizer.h</title>
<!-- Node1 -->
<g id="Node000001" class="node">
<title>Node1</title>
<g id="a_Node000001"><a xlink:title="Thin wrapper to avoid duplicate type/decl definitions.">
<polygon fill="#999999" stroke="#666666" points="157.75,-134.25 0,-134.25 0,-113.5 157.75,-113.5 157.75,-134.25"/>
<text text-anchor="middle" x="78.88" y="-120.75" font-family="Helvetica,sans-Serif" font-size="10.00">engine/include/ie_tokenizer.h</text>
</a>
</g>
</g>
<!-- Node2 -->
<g id="Node000002" class="node">
<title>Node2</title>
<g id="a_Node000002"><a xlink:href="ie__io_8h.html" target="_top" xlink:title="Public I/O interfaces: IEBIN v1 loader and lightweight tokenizer.">
<polygon fill="white" stroke="#666666" points="103,-77.5 54.75,-77.5 54.75,-56.75 103,-56.75 103,-77.5"/>
<text text-anchor="middle" x="78.88" y="-64" font-family="Helvetica,sans-Serif" font-size="10.00">ie_io.h</text>
</a>
</g>
</g>
<!-- Node1&#45;&gt;Node2 -->
<g id="edge1_Node000001_Node000002" class="edge">
<title>Node1&#45;&gt;Node2</title>
<g id="a_edge1_Node000001_Node000002"><a xlink:title=" ">
<path fill="none" stroke="#63b8ff" d="M78.88,-113.09C78.88,-106.47 78.88,-97.47 78.88,-89.27"/>
<polygon fill="#63b8ff" stroke="#63b8ff" points="82.38,-89.34 78.88,-79.34 75.38,-89.34 82.38,-89.34"/>
</a>
</g>
</g>
<!-- Node3 -->
<g id="Node000003" class="node">
<title>Node3</title>
<g id="a_Node000003"><a xlink:title=" ">
<polygon fill="#e0e0e0" stroke="#999999" points="70.38,-20.75 15.38,-20.75 15.38,0 70.38,0 70.38,-20.75"/>
<text text-anchor="middle" x="42.88" y="-7.25" font-family="Helvetica,sans-Serif" font-size="10.00">stddef.h</text>
</a>
</g>
</g>
<!-- Node2&#45;&gt;Node3 -->
<g id="edge2_Node000002_Node000003" class="edge">
<title>Node2&#45;&gt;Node3</title>
<g id="a_edge2_Node000002_Node000003"><a xlink:title=" ">
<path fill="none" stroke="#63b8ff" d="M72.44,-56.34C67.73,-49.17 61.19,-39.23 55.46,-30.51"/>
<polygon fill="#63b8ff" stroke="#63b8ff" points="58.51,-28.78 50.09,-22.34 52.66,-32.62 58.51,-28.78"/>
</a>
</g>
</g>
<!-- Node4 -->
<g id="Node000004" class="node">
<title>Node4</title>
<g id="a_Node000004"><a xlink:title=" ">
<polygon fill="#e0e0e0" stroke="#999999" points="141.25,-20.75 88.5,-20.75 88.5,0 141.25,0 141.25,-20.75"/>
<text text-anchor="middle" x="114.88" y="-7.25" font-family="Helvetica,sans-Serif" font-size="10.00">stdint.h</text>
</a>
</g>
</g>
<!-- Node2&#45;&gt;Node4 -->
<g id="edge3_Node000002_Node000004" class="edge">
<title>Node2&#45;&gt;Node4</title>
<g id="a_edge3_Node000002_Node000004"><a xlink:title=" ">
<path fill="none" stroke="#63b8ff" d="M85.31,-56.34C90.02,-49.17 96.56,-39.23 102.29,-30.51"/>
<polygon fill="#63b8ff" stroke="#63b8ff" points="105.09,-32.62 107.66,-22.34 99.24,-28.78 105.09,-32.62"/>
</a>
</g>
</g>
</g>
</svg>
