<?xml version="1.0" encoding="UTF-8" standalone="no"?>
<!DOCTYPE svg PUBLIC "-//W3C//DTD SVG 1.1//EN"
 "http://www.w3.org/Graphics/SVG/1.1/DTD/svg11.dtd">
<!-- Generated by graphviz version 12.2.1 (20241206.2353)
 -->
<!-- Title: set_err Pages: 1 -->
<!--zoomable 205 -->

<svg id="main" version="1.1" xmlns="http://www.w3.org/2000/svg" xmlns:xlink="http://www.w3.org/1999/xlink" xml:space="preserve" onload="init(evt)">

<style type="text/css"><![CDATA[
.node, .edge {opacity: 0.7;}
.node.selected, .edge.selected {opacity: 1;}
.edge:hover path { stroke: red; }
.edge:hover polygon { stroke: red; fill: red; }
]]></style>

<defs>
  <circle id="rim" cx="0" cy="0" r="7"/>
  <circle id="rim2" cx="0" cy="0" r="3.5"/>
  <g id="zoomPlus">
    <use xlink:href="#rim" fill="#404040"><set attributeName="fill" to="#808080" begin="zoomplus.mouseover" end="zoomplus.mouseout"/></use>
    <path d="M-4,0h8M0,-4v8" fill="none" stroke="white" stroke-width="1.5" pointer-events="none"/>
  </g>
  <g id="zoomMin">
    <use xlink:href="#rim" fill="#404040"><set attributeName="fill" to="#808080" begin="zoomminus.mouseover" end="zoomminus.mouseout"/></use>
    <path d="M-4,0h8" fill="none" stroke="white" stroke-width="1.5" pointer-events="none"/>
  </g>
  <g id="arrowUp" transform="translate(30 24)">
    <use xlink:href="#rim"/>
    <path pointer-events="none" fill="none" stroke="white" stroke-width="1.5" d="M0,-3.0v7 M-2.5,-0.5L0,-3.0L2.5,-0.5"/>
  </g>
  <g id="arrowRight" transform="rotate(90) translate(36 -43)">
    <use xlink:href="#rim"/>
    <path pointer-events="none" fill="none" stroke="white" stroke-width="1.5" d="M0,-3.0v7 M-2.5,-0.5L0,-3.0L2.5,-0.5"/>
  </g>
  <g id="arrowDown" transform="rotate(180) translate(-30 -48)">
    <use xlink:href="#rim"/>
    <path pointer-events="none" fill="none" stroke="white" stroke-width="1.5" d="M0,-3.0v7 M-2.5,-0.5L0,-3.0L2.5,-0.5"/>
  </g>
  <g id="arrowLeft" transform="rotate(270) translate(-36 17)">
    <use xlink:href="#rim"/>
    <path pointer-events="none" fill="none" stroke="white" stroke-width="1.5" d="M0,-3.0v7 M-2.5,-0.5L0,-3.0L2.5,-0.5"/>
  </g>
  <g id="resetDef">
    <use xlink:href="#rim2" fill="#404040"><set attributeName="fill" to="#808080" begin="reset.mouseover" end="reset.mouseout"/></use>
  </g>
</defs>
<script type="application/ecmascript">
var viewWidth = 567;
var viewHeight = 205;
var sectionId = 'dynsection-10';
</script>
<script type="application/ecmascript" xlink:href="svg.min.js"/>
<svg id="graph" class="graph">
<g id="viewport">
<title>set_err</title>
<!-- Node1 -->
<g id="Node000001" class="node">
<title>Node1</title>
<g id="a_Node000001"><a xlink:title="Set last error (thread&#45;local); truncates if needed.">
<polygon fill="#999999" stroke="#666666" points="559,-110.75 509.25,-110.75 509.25,-90 559,-90 559,-110.75"/>
<text text-anchor="middle" x="534.12" y="-97.25" font-family="Helvetica,sans-Serif" font-size="10.00">set_err</text>
</a>
</g>
</g>
<!-- Node2 -->
<g id="Node000002" class="node">
<title>Node2</title>
<g id="a_Node000002"><a xlink:href="ie__kernel__ze_8cpp.html#a46e8c280257654db04216d6acbefa0af" target="_top" xlink:title="Ensure the SPIR&#45;V module and all kernel handles are created.">
<polygon fill="white" stroke="#666666" points="338.75,-110.75 214.75,-110.75 214.75,-90 338.75,-90 338.75,-110.75"/>
<text text-anchor="middle" x="276.75" y="-97.25" font-family="Helvetica,sans-Serif" font-size="10.00">ensure_module_ready</text>
</a>
</g>
</g>
<!-- Node1&#45;&gt;Node2 -->
<g id="edge1_Node000001_Node000002" class="edge">
<title>Node1&#45;&gt;Node2</title>
<g id="a_edge1_Node000001_Node000002"><a xlink:title=" ">
<path fill="none" stroke="#63b8ff" d="M497.82,-100.38C456.91,-100.38 388.77,-100.38 339.13,-100.38"/>
<polygon fill="#63b8ff" stroke="#63b8ff" points="497.59,-103.88 507.59,-100.38 497.59,-96.88 497.59,-103.88"/>
</a>
</g>
</g>
<!-- Node3 -->
<g id="Node000003" class="node">
<title>Node3</title>
<g id="a_Node000003"><a xlink:href="group__IE__GPU__ZE.html#ga8b3a60d6c8ace36a7e0de49ef03666d4" target="_top" xlink:title="Fused GEMV + bias + activation: y = act(alpha*W*x + bias + beta*y).">
<polygon fill="white" stroke="#666666" points="158.12,-194.12 20.62,-194.12 20.62,-160.62 158.12,-160.62 158.12,-194.12"/>
<text text-anchor="start" x="28.62" y="-180.62" font-family="Helvetica,sans-Serif" font-size="10.00">ie_ze_launch_gemv_bias</text>
<text text-anchor="middle" x="89.38" y="-167.88" font-family="Helvetica,sans-Serif" font-size="10.00">_act_f32</text>
</a>
</g>
</g>
<!-- Node1&#45;&gt;Node3 -->
<g id="edge8_Node000001_Node000003" class="edge">
<title>Node1&#45;&gt;Node3</title>
<g id="a_edge8_Node000001_Node000003"><a xlink:title=" ">
<path fill="none" stroke="#63b8ff" d="M519.68,-120.16C508.93,-134.16 492.5,-151.88 473.25,-160.38 370.82,-205.55 237.65,-198.69 158.39,-188.68"/>
<polygon fill="#63b8ff" stroke="#63b8ff" points="522.24,-122.6 525.29,-112.45 516.58,-118.48 522.24,-122.6"/>
</a>
</g>
</g>
<!-- Node4 -->
<g id="Node000004" class="node">
<title>Node4</title>
<g id="a_Node000004"><a xlink:href="group__IE__GPU__ZE.html#ga71484badcdb4416b3ac57397416f7d11" target="_top" xlink:title="Row&#45;wise GEMV FP32: y = alpha * W * x + beta * y.">
<polygon fill="white" stroke="#666666" points="178.75,-125.75 0,-125.75 0,-105 178.75,-105 178.75,-125.75"/>
<text text-anchor="middle" x="89.38" y="-112.25" font-family="Helvetica,sans-Serif" font-size="10.00">ie_ze_launch_gemv_rowwise_f32</text>
</a>
</g>
</g>
<!-- Node1&#45;&gt;Node4 -->
<g id="edge9_Node000001_Node000004" class="edge">
<title>Node1&#45;&gt;Node4</title>
<g id="a_edge9_Node000001_Node000004"><a xlink:title=" ">
<path fill="none" stroke="#63b8ff" d="M511.82,-118.08C500.99,-125.94 487.19,-134.32 473.25,-138.38 351.75,-173.68 199.7,-143.91 129.37,-126.21"/>
<polygon fill="#63b8ff" stroke="#63b8ff" points="513.85,-120.93 519.65,-112.07 509.59,-115.38 513.85,-120.93"/>
</a>
</g>
</g>
<!-- Node5 -->
<g id="Node000005" class="node">
<title>Node5</title>
<g id="a_Node000005"><a xlink:href="group__IE__GPU__ZE.html#ga01b63c6c0def048b6eb55bc2b1f2b4c4" target="_top" xlink:title="Pack W (row&#45;major) into Blocked&#45;K layout into Wp.">
<polygon fill="white" stroke="#666666" points="149.88,-82.12 28.88,-82.12 28.88,-48.62 149.88,-48.62 149.88,-82.12"/>
<text text-anchor="start" x="36.88" y="-68.62" font-family="Helvetica,sans-Serif" font-size="10.00">ie_ze_launch_pack_w</text>
<text text-anchor="middle" x="89.38" y="-55.88" font-family="Helvetica,sans-Serif" font-size="10.00">_blockedk_f32</text>
</a>
</g>
</g>
<!-- Node1&#45;&gt;Node5 -->
<g id="edge10_Node000001_Node000005" class="edge">
<title>Node1&#45;&gt;Node5</title>
<g id="a_edge10_Node000001_Node000005"><a xlink:title=" ">
<path fill="none" stroke="#63b8ff" d="M497.68,-96.55C458.74,-92.44 394.34,-85.88 338.75,-81.38 274.36,-76.16 200.47,-71.58 150.14,-68.67"/>
<polygon fill="#63b8ff" stroke="#63b8ff" points="497.09,-100.01 507.4,-97.59 497.83,-93.05 497.09,-100.01"/>
</a>
</g>
</g>
<!-- Node6 -->
<g id="Node000006" class="node">
<title>Node6</title>
<g id="a_Node000006"><a xlink:href="group__IE__GPU__ZE.html#ga8cc805ce0f117c564d8ba8ed1df08669" target="_top" xlink:title="Vector tanh: y[i] = tanh(x[i]) for i in [0, n).">
<polygon fill="white" stroke="#666666" points="164.12,-20.75 14.62,-20.75 14.62,0 164.12,0 164.12,-20.75"/>
<text text-anchor="middle" x="89.38" y="-7.25" font-family="Helvetica,sans-Serif" font-size="10.00">ie_ze_launch_vec_tanh_f32</text>
</a>
</g>
</g>
<!-- Node1&#45;&gt;Node6 -->
<g id="edge11_Node000001_Node000006" class="edge">
<title>Node1&#45;&gt;Node6</title>
<g id="a_edge11_Node000001_Node000006"><a xlink:title=" ">
<path fill="none" stroke="#63b8ff" d="M498.23,-87.8C490.1,-85.12 481.42,-82.48 473.25,-80.38 367.23,-53.12 242.07,-32.33 164.45,-20.73"/>
<polygon fill="#63b8ff" stroke="#63b8ff" points="496.86,-91.03 507.45,-90.92 499.11,-84.4 496.86,-91.03"/>
</a>
</g>
</g>
<!-- Node7 -->
<g id="Node000007" class="node">
<title>Node7</title>
<g id="a_Node000007"><a xlink:href="ie__kernel__ze_8cpp.html#a88fa59032491ae8cb4c70d153fef5bb0" target="_top" xlink:title="Ensure Level Zero context, device and immediate command list exist.">
<polygon fill="white" stroke="#666666" points="473.25,-129.75 374.75,-129.75 374.75,-109 473.25,-109 473.25,-129.75"/>
<text text-anchor="middle" x="424" y="-116.25" font-family="Helvetica,sans-Serif" font-size="10.00">ensure_ze_ready</text>
</a>
</g>
</g>
<!-- Node1&#45;&gt;Node7 -->
<g id="edge6_Node000001_Node000007" class="edge">
<title>Node1&#45;&gt;Node7</title>
<g id="a_edge6_Node000001_Node000007"><a xlink:title=" ">
<path fill="none" stroke="#63b8ff" d="M497.68,-106.6C489.96,-107.96 481.66,-109.42 473.53,-110.85"/>
<polygon fill="#63b8ff" stroke="#63b8ff" points="498.13,-110.08 507.37,-104.9 496.91,-103.18 498.13,-110.08"/>
</a>
</g>
</g>
<!-- Node2&#45;&gt;Node3 -->
<g id="edge2_Node000002_Node000003" class="edge">
<title>Node2&#45;&gt;Node3</title>
<g id="a_edge2_Node000002_Node000003"><a xlink:title=" ">
<path fill="none" stroke="#63b8ff" d="M239.25,-115.54C208.33,-128.38 164.01,-146.79 131.77,-160.18"/>
<polygon fill="#63b8ff" stroke="#63b8ff" points="240.29,-118.89 248.19,-111.82 237.61,-112.43 240.29,-118.89"/>
</a>
</g>
</g>
<!-- Node2&#45;&gt;Node4 -->
<g id="edge3_Node000002_Node000004" class="edge">
<title>Node2&#45;&gt;Node4</title>
<g id="a_edge3_Node000002_Node000004"><a xlink:title=" ">
<path fill="none" stroke="#63b8ff" d="M202.98,-106.26C195.15,-106.9 187.13,-107.55 179.14,-108.19"/>
<polygon fill="#63b8ff" stroke="#63b8ff" points="203.09,-109.77 212.77,-105.47 202.52,-102.79 203.09,-109.77"/>
</a>
</g>
</g>
<!-- Node2&#45;&gt;Node5 -->
<g id="edge4_Node000002_Node000005" class="edge">
<title>Node2&#45;&gt;Node5</title>
<g id="a_edge4_Node000002_Node000005"><a xlink:title=" ">
<path fill="none" stroke="#63b8ff" d="M207.26,-87.44C188.6,-83.92 168.53,-80.13 150.37,-76.7"/>
<polygon fill="#63b8ff" stroke="#63b8ff" points="206.4,-90.84 216.88,-89.26 207.7,-83.97 206.4,-90.84"/>
</a>
</g>
</g>
<!-- Node2&#45;&gt;Node6 -->
<g id="edge5_Node000002_Node000006" class="edge">
<title>Node2&#45;&gt;Node6</title>
<g id="a_edge5_Node000002_Node000006"><a xlink:title=" ">
<path fill="none" stroke="#63b8ff" d="M251.89,-83.05C232.81,-69.78 205,-51.71 178.75,-39.38 163.4,-32.16 145.78,-25.99 130.33,-21.22"/>
<polygon fill="#63b8ff" stroke="#63b8ff" points="249.85,-85.9 260.04,-88.81 253.89,-80.18 249.85,-85.9"/>
</a>
</g>
</g>
<!-- Node7&#45;&gt;Node2 -->
<g id="edge7_Node000007_Node000002" class="edge">
<title>Node7&#45;&gt;Node2</title>
<g id="a_edge7_Node000007_Node000002"><a xlink:title=" ">
<path fill="none" stroke="#63b8ff" d="M363.46,-111.59C355.42,-110.53 347.15,-109.45 339.08,-108.4"/>
<polygon fill="#63b8ff" stroke="#63b8ff" points="362.76,-115.03 373.13,-112.85 363.67,-108.08 362.76,-115.03"/>
</a>
</g>
</g>
</g>
</svg>

<g id="navigator" transform="translate(0 0)" fill="#404254">
  <rect fill="#f2f5e9" fill-opacity="0.5" stroke="#606060" stroke-width=".5" x="0" y="0" width="60" height="60"/>
  <use id="zoomplus" xlink:href="#zoomPlus" x="17" y="9" onmousedown="handleZoom(evt,'in')"/>
  <use id="zoomminus" xlink:href="#zoomMin" x="42" y="9" onmousedown="handleZoom(evt,'out')"/>
  <use id="reset" xlink:href="#resetDef" x="30" y="36" onmousedown="handleReset()"/>
   <use id="arrowup" xlink:href="#arrowUp" x="0" y="0" onmousedown="handlePan(0,-1)"/>
  <use id="arrowright" xlink:href="#arrowRight" x="0" y="0" onmousedown="handlePan(1,0)"/>
  <use id="arrowdown" xlink:href="#arrowDown" x="0" y="0" onmousedown="handlePan(0,1)"/>
  <use id="arrowleft" xlink:href="#arrowLeft" x="0" y="0" onmousedown="handlePan(-1,0)"/>
</g>
<svg viewBox="0 0 15 15" width="100%" height="30px" preserveAspectRatio="xMaxYMin meet">
 <g id="arrow_out" transform="scale(0.3 0.3)">
  <a xlink:href="ie__kernel__ze_8cpp_a0a2c7ad4a3f3268ce3651eca6f04b24e_icgraph_org.svg" target="_base">
   <rect id="button" ry="5" rx="5" y="6" x="6" height="38" width="38"
        fill="#f2f5e9" fill-opacity="0.5" stroke="#606060" stroke-width="1.0"/>
   <path id="arrow"
     d="M 11.500037,31.436501 C 11.940474,20.09759 22.043105,11.32322 32.158766,21.979434 L 37.068811,17.246167 C 37.068811,17.246167 37.088388,32 37.088388,32 L 22.160133,31.978069 C 22.160133,31.978069 26.997745,27.140456 26.997745,27.140456 C 18.528582,18.264221 13.291696,25.230495 11.500037,31.436501 z"
     style="fill:#404040;"/>
  </a>
 </g>
</svg>

<style type='text/css'>
<![CDATA[
[data-mouse-over-selected='false'] { opacity: 0.7; }
[data-mouse-over-selected='true']  { opacity: 1.0; }
]]>
</style>
<script type="application/ecmascript"><![CDATA[
document.addEventListener('DOMContentLoaded', (event) => {
  highlightEdges();
  highlightAdjacentNodes();
});
]]></script>
</svg>
