<?xml version="1.0" encoding="UTF-8" standalone="no"?>
<!DOCTYPE svg PUBLIC "-//W3C//DTD SVG 1.1//EN"
 "http://www.w3.org/Graphics/SVG/1.1/DTD/svg11.dtd">
<!-- Generated by graphviz version 2.43.0 (0)
 -->
<!-- Title: k_gemv_rowwise_qfp8_f32 Pages: 1 -->
<svg width="330pt" height="66pt"
 viewBox="0.00 0.00 330.00 66.00" xmlns="http://www.w3.org/2000/svg" xmlns:xlink="http://www.w3.org/1999/xlink">
<g id="graph0" class="graph" transform="scale(1 1) rotate(0) translate(4 62)">
<title>k_gemv_rowwise_qfp8_f32</title>
<!-- Node1 -->
<g id="node1" class="node">
<title>Node1</title>
<g id="a_node1"><a xlink:title="Row&#45;wise GEMV with FP8 activations (E4M3/E5M2), fused decode.">
<polygon fill="#bfbfbf" stroke="black" points="0,-19.5 0,-38.5 149,-38.5 149,-19.5 0,-19.5"/>
<text text-anchor="middle" x="74.5" y="-26.5" font-family="Helvetica,sans-Serif" font-size="10.00">k_gemv_rowwise_qfp8_f32</text>
</a>
</g>
</g>
<!-- Node2 -->
<g id="node2" class="node">
<title>Node2</title>
<g id="a_node2"><a xlink:href="ie__kernels__cuda_8cu.html#a8d15fdbcd086d7ef5932207fa5b5d91b" target="_top" xlink:title="Decode one E4M3 FP8 byte on device (subnormals flushed to zero).">
<polygon fill="none" stroke="black" points="185,-38.5 185,-57.5 322,-57.5 322,-38.5 185,-38.5"/>
<text text-anchor="middle" x="253.5" y="-45.5" font-family="Helvetica,sans-Serif" font-size="10.00">ie_decode_fp8_e4m3_u8</text>
</a>
</g>
</g>
<!-- Node1&#45;&gt;Node2 -->
<g id="edge1" class="edge">
<title>Node1&#45;&gt;Node2</title>
<path fill="none" stroke="midnightblue" d="M149.03,-36.89C157.56,-37.81 166.28,-38.75 174.87,-39.67"/>
<polygon fill="midnightblue" stroke="midnightblue" points="174.55,-43.15 184.87,-40.74 175.3,-36.19 174.55,-43.15"/>
</g>
<!-- Node3 -->
<g id="node3" class="node">
<title>Node3</title>
<g id="a_node3"><a xlink:href="ie__kernels__cuda_8cu.html#a98464ed99207f2ed392f751bae2ea10e" target="_top" xlink:title="Decode one E5M2 FP8 byte on device (IEEE&#45;like special cases).">
<polygon fill="none" stroke="black" points="185,-0.5 185,-19.5 322,-19.5 322,-0.5 185,-0.5"/>
<text text-anchor="middle" x="253.5" y="-7.5" font-family="Helvetica,sans-Serif" font-size="10.00">ie_decode_fp8_e5m2_u8</text>
</a>
</g>
</g>
<!-- Node1&#45;&gt;Node3 -->
<g id="edge2" class="edge">
<title>Node1&#45;&gt;Node3</title>
<path fill="none" stroke="midnightblue" d="M149.03,-21.11C157.56,-20.19 166.28,-19.25 174.87,-18.33"/>
<polygon fill="midnightblue" stroke="midnightblue" points="175.3,-21.81 184.87,-17.26 174.55,-14.85 175.3,-21.81"/>
</g>
</g>
</svg>
