<?xml version="1.0" encoding="UTF-8" standalone="no"?>
<!DOCTYPE svg PUBLIC "-//W3C//DTD SVG 1.1//EN"
 "http://www.w3.org/Graphics/SVG/1.1/DTD/svg11.dtd">
<!-- Generated by graphviz version 12.2.1 (20241206.2353)
 -->
<!-- Title: engine/include/ie_tensor.h Pages: 1 -->
<svg width="262pt" height="86pt"
 viewBox="0.00 0.00 261.62 85.50" xmlns="http://www.w3.org/2000/svg" xmlns:xlink="http://www.w3.org/1999/xlink">
<g id="graph0" class="graph" transform="scale(1 1) rotate(0) translate(4 81.5)">
<title>engine/include/ie_tensor.h</title>
<!-- Node1 -->
<g id="Node000001" class="node">
<title>Node1</title>
<g id="a_Node000001"><a xlink:title="Minimal tensor/array utilities for the baseline.">
<polygon fill="#999999" stroke="#666666" points="200.62,-77.5 57.12,-77.5 57.12,-56.75 200.62,-56.75 200.62,-77.5"/>
<text text-anchor="middle" x="128.88" y="-64" font-family="Helvetica,sans-Serif" font-size="10.00">engine/include/ie_tensor.h</text>
</a>
</g>
</g>
<!-- Node2 -->
<g id="Node000002" class="node">
<title>Node2</title>
<g id="a_Node000002"><a xlink:href="ie__tensor_8c.html" target="_top" xlink:title="Minimal tensor utilities implementation (baseline).">
<polygon fill="white" stroke="#666666" points="121.75,-20.75 0,-20.75 0,0 121.75,0 121.75,-20.75"/>
<text text-anchor="middle" x="60.88" y="-7.25" font-family="Helvetica,sans-Serif" font-size="10.00">engine/src/ie_tensor.c</text>
</a>
</g>
</g>
<!-- Node1&#45;&gt;Node2 -->
<g id="edge1_Node000001_Node000002" class="edge">
<title>Node1&#45;&gt;Node2</title>
<g id="a_edge1_Node000001_Node000002"><a xlink:title=" ">
<path fill="none" stroke="#63b8ff" d="M107.77,-49.14C96.32,-39.91 82.57,-28.84 72.93,-21.08"/>
<polygon fill="#63b8ff" stroke="#63b8ff" points="105.55,-51.84 115.54,-55.39 109.94,-46.39 105.55,-51.84"/>
</a>
</g>
</g>
<!-- Node3 -->
<g id="Node000003" class="node">
<title>Node3</title>
<g id="a_Node000003"><a xlink:href="test__tensor_8c.html" target="_top" xlink:title="Unit tests for basic tensor view helpers.">
<polygon fill="white" stroke="#666666" points="253.62,-20.75 140.12,-20.75 140.12,0 253.62,0 253.62,-20.75"/>
<text text-anchor="middle" x="196.88" y="-7.25" font-family="Helvetica,sans-Serif" font-size="10.00">tests/c/test_tensor.c</text>
</a>
</g>
</g>
<!-- Node1&#45;&gt;Node3 -->
<g id="edge2_Node000001_Node000003" class="edge">
<title>Node1&#45;&gt;Node3</title>
<g id="a_edge2_Node000001_Node000003"><a xlink:title=" ">
<path fill="none" stroke="#63b8ff" d="M149.98,-49.14C161.43,-39.91 175.18,-28.84 184.82,-21.08"/>
<polygon fill="#63b8ff" stroke="#63b8ff" points="147.81,-46.39 142.21,-55.39 152.2,-51.84 147.81,-46.39"/>
</a>
</g>
</g>
</g>
</svg>
