<?xml version="1.0" encoding="UTF-8" standalone="no"?>
<!DOCTYPE svg PUBLIC "-//W3C//DTD SVG 1.1//EN"
 "http://www.w3.org/Graphics/SVG/1.1/DTD/svg11.dtd">
<!-- Generated by graphviz version 2.43.0 (0)
 -->
<!-- Title: engine/src/ie_api.c Pages: 1 -->
<!--zoomable 302 -->

<svg id="main" version="1.1" xmlns="http://www.w3.org/2000/svg" xmlns:xlink="http://www.w3.org/1999/xlink" xml:space="preserve" onload="init(evt)">
<style type="text/css"><![CDATA[
.node, .edge {opacity: 0.7;}
.node.selected, .edge.selected {opacity: 1;}
.edge:hover path { stroke: red; }
.edge:hover polygon { stroke: red; fill: red; }
]]></style>

<defs>
  <circle id="rim" cx="0" cy="0" r="7"/>
  <circle id="rim2" cx="0" cy="0" r="3.5"/>
  <g id="zoomPlus">
    <use xlink:href="#rim" fill="#404040"><set attributeName="fill" to="#808080" begin="zoomplus.mouseover" end="zoomplus.mouseout"/></use>
    <path d="M-4,0h8M0,-4v8" fill="none" stroke="white" stroke-width="1.5" pointer-events="none"/>
  </g>
  <g id="zoomMin">
    <use xlink:href="#rim" fill="#404040"><set attributeName="fill" to="#808080" begin="zoomminus.mouseover" end="zoomminus.mouseout"/></use>
    <path d="M-4,0h8" fill="none" stroke="white" stroke-width="1.5" pointer-events="none"/>
  </g>
  <g id="arrowUp" transform="translate(30 24)">
    <use xlink:href="#rim"/>
    <path pointer-events="none" fill="none" stroke="white" stroke-width="1.5" d="M0,-3.0v7 M-2.5,-0.5L0,-3.0L2.5,-0.5"/>
  </g>
  <g id="arrowRight" transform="rotate(90) translate(36 -43)">
    <use xlink:href="#rim"/>
    <path pointer-events="none" fill="none" stroke="white" stroke-width="1.5" d="M0,-3.0v7 M-2.5,-0.5L0,-3.0L2.5,-0.5"/>
  </g>
  <g id="arrowDown" transform="rotate(180) translate(-30 -48)">
    <use xlink:href="#rim"/>
    <path pointer-events="none" fill="none" stroke="white" stroke-width="1.5" d="M0,-3.0v7 M-2.5,-0.5L0,-3.0L2.5,-0.5"/>
  </g>
  <g id="arrowLeft" transform="rotate(270) translate(-36 17)">
    <use xlink:href="#rim"/>
    <path pointer-events="none" fill="none" stroke="white" stroke-width="1.5" d="M0,-3.0v7 M-2.5,-0.5L0,-3.0L2.5,-0.5"/>
  </g>
  <g id="resetDef">
    <use xlink:href="#rim2" fill="#404040"><set attributeName="fill" to="#808080" begin="reset.mouseover" end="reset.mouseout"/></use>
  </g>
</defs>
<script type="application/ecmascript">
var viewWidth = 1751;
var viewHeight = 302;
var sectionId = 'dynsection-0';
</script>
<script type="application/ecmascript" xlink:href="svg.min.js"/>
<svg id="graph" class="graph">
<g id="viewport">
<title>engine/src/ie_api.c</title>
<!-- Node1 -->
<g id="Node000001" class="node">
<title>Node1</title>
<g id="a_Node000001"><a xlink:title="Stable public API implementation for creating, destroying, and running an engine instance.">
<polygon fill="#999999" stroke="#666666" points="769.74,-294 662.74,-294 662.74,-275 769.74,-275 769.74,-294"/>
<text text-anchor="middle" x="716.24" y="-282" font-family="Helvetica,sans-Serif" font-size="10.00">engine/src/ie_api.c</text>
</a>
</g>
</g>
<!-- Node2 -->
<g id="Node000002" class="node">
<title>Node2</title>
<g id="a_Node000002"><a xlink:href="ie__api_8h.html" target="_top" xlink:title="Public C API for creating an inference engine instance and generating tokens.">
<polygon fill="white" stroke="#666666" points="1627.74,-129 1572.74,-129 1572.74,-110 1627.74,-110 1627.74,-129"/>
<text text-anchor="middle" x="1600.24" y="-117" font-family="Helvetica,sans-Serif" font-size="10.00">ie_api.h</text>
</a>
</g>
</g>
<!-- Node1&#45;&gt;Node2 -->
<g id="edge1_Node000001_Node000002" class="edge">
<title>Node1&#45;&gt;Node2</title>
<g id="a_edge1_Node000001_Node000002"><a xlink:title=" ">
<path fill="none" stroke="#63b8ff" d="M769.96,-282.97C944.55,-280.95 1488.82,-272.02 1560.24,-239 1590.78,-224.88 1599.8,-215.26 1612.24,-184 1618.13,-169.19 1613.79,-151.27 1608.76,-138.25"/>
<polygon fill="#63b8ff" stroke="#63b8ff" points="1611.95,-136.79 1604.76,-129.01 1605.52,-139.57 1611.95,-136.79"/>
</a>
</g>
</g>
<!-- Node4 -->
<g id="Node000004" class="node">
<title>Node4</title>
<g id="a_Node000004"><a xlink:title=" ">
<polygon fill="#e0e0e0" stroke="#999999" points="76.74,-239 23.74,-239 23.74,-220 76.74,-220 76.74,-239"/>
<text text-anchor="middle" x="50.24" y="-227" font-family="Helvetica,sans-Serif" font-size="10.00">ctype.h</text>
</a>
</g>
</g>
<!-- Node1&#45;&gt;Node4 -->
<g id="edge3_Node000001_Node000004" class="edge">
<title>Node1&#45;&gt;Node4</title>
<g id="a_edge3_Node000001_Node000004"><a xlink:title=" ">
<path fill="none" stroke="#63b8ff" d="M662.72,-282.75C555.16,-280.58 305.11,-272.26 86.94,-239.01"/>
<polygon fill="#63b8ff" stroke="#63b8ff" points="87.32,-235.53 76.9,-237.46 86.25,-242.45 87.32,-235.53"/>
</a>
</g>
</g>
<!-- Node5 -->
<g id="Node000005" class="node">
<title>Node5</title>
<g id="a_Node000005"><a xlink:title=" ">
<polygon fill="#e0e0e0" stroke="#999999" points="159.74,-239 94.74,-239 94.74,-220 159.74,-220 159.74,-239"/>
<text text-anchor="middle" x="127.24" y="-227" font-family="Helvetica,sans-Serif" font-size="10.00">inttypes.h</text>
</a>
</g>
</g>
<!-- Node1&#45;&gt;Node5 -->
<g id="edge4_Node000001_Node000005" class="edge">
<title>Node1&#45;&gt;Node5</title>
<g id="a_edge4_Node000001_Node000005"><a xlink:title=" ">
<path fill="none" stroke="#63b8ff" d="M662.71,-281.35C566.09,-276.99 356.02,-265.32 169.82,-239.06"/>
<polygon fill="#63b8ff" stroke="#63b8ff" points="170.25,-235.59 159.85,-237.64 169.26,-242.52 170.25,-235.59"/>
</a>
</g>
</g>
<!-- Node6 -->
<g id="Node000006" class="node">
<title>Node6</title>
<g id="a_Node000006"><a xlink:title=" ">
<polygon fill="#e0e0e0" stroke="#999999" points="230.74,-239 177.74,-239 177.74,-220 230.74,-220 230.74,-239"/>
<text text-anchor="middle" x="204.24" y="-227" font-family="Helvetica,sans-Serif" font-size="10.00">limits.h</text>
</a>
</g>
</g>
<!-- Node1&#45;&gt;Node6 -->
<g id="edge5_Node000001_Node000006" class="edge">
<title>Node1&#45;&gt;Node6</title>
<g id="a_edge5_Node000001_Node000006"><a xlink:title=" ">
<path fill="none" stroke="#63b8ff" d="M662.62,-281.04C575.82,-276.5 399.06,-264.96 240.83,-239.05"/>
<polygon fill="#63b8ff" stroke="#63b8ff" points="241.35,-235.59 230.91,-237.4 240.2,-242.49 241.35,-235.59"/>
</a>
</g>
</g>
<!-- Node7 -->
<g id="Node000007" class="node">
<title>Node7</title>
<g id="a_Node000007"><a xlink:title=" ">
<polygon fill="#e0e0e0" stroke="#999999" points="299.74,-239 248.74,-239 248.74,-220 299.74,-220 299.74,-239"/>
<text text-anchor="middle" x="274.24" y="-227" font-family="Helvetica,sans-Serif" font-size="10.00">math.h</text>
</a>
</g>
</g>
<!-- Node1&#45;&gt;Node7 -->
<g id="edge6_Node000001_Node000007" class="edge">
<title>Node1&#45;&gt;Node7</title>
<g id="a_edge6_Node000001_Node000007"><a xlink:title=" ">
<path fill="none" stroke="#63b8ff" d="M662.69,-279.27C585.43,-272.79 438.33,-259 314.24,-239 312.8,-238.77 311.32,-238.52 309.84,-238.25"/>
<polygon fill="#63b8ff" stroke="#63b8ff" points="310.47,-234.81 299.99,-236.36 309.15,-241.68 310.47,-234.81"/>
</a>
</g>
</g>
<!-- Node8 -->
<g id="Node000008" class="node">
<title>Node8</title>
<g id="a_Node000008"><a xlink:title=" ">
<polygon fill="#e0e0e0" stroke="#999999" points="923.74,-19 870.74,-19 870.74,0 923.74,0 923.74,-19"/>
<text text-anchor="middle" x="897.24" y="-7" font-family="Helvetica,sans-Serif" font-size="10.00">stdint.h</text>
</a>
</g>
</g>
<!-- Node1&#45;&gt;Node8 -->
<g id="edge7_Node000001_Node000008" class="edge">
<title>Node1&#45;&gt;Node8</title>
<g id="a_edge7_Node000001_Node000008"><a xlink:title=" ">
<path fill="none" stroke="#63b8ff" d="M662.45,-281.4C579.42,-277.34 424.64,-266.27 377.24,-239 346.34,-221.22 328.24,-211.15 328.24,-175.5 328.24,-175.5 328.24,-175.5 328.24,-118.5 328.24,-64.15 734.07,-24.57 860.26,-13.58"/>
<polygon fill="#63b8ff" stroke="#63b8ff" points="860.9,-17.04 870.56,-12.69 860.3,-10.06 860.9,-17.04"/>
</a>
</g>
</g>
<!-- Node9 -->
<g id="Node000009" class="node">
<title>Node9</title>
<g id="a_Node000009"><a xlink:title=" ">
<polygon fill="#e0e0e0" stroke="#999999" points="755.24,-184 705.24,-184 705.24,-165 755.24,-165 755.24,-184"/>
<text text-anchor="middle" x="730.24" y="-172" font-family="Helvetica,sans-Serif" font-size="10.00">stdio.h</text>
</a>
</g>
</g>
<!-- Node1&#45;&gt;Node9 -->
<g id="edge8_Node000001_Node000009" class="edge">
<title>Node1&#45;&gt;Node9</title>
<g id="a_edge8_Node000001_Node000009"><a xlink:title=" ">
<path fill="none" stroke="#63b8ff" d="M728.17,-274.8C738.07,-266.77 751.43,-253.87 757.24,-239 763.54,-222.86 754.11,-204.69 744.7,-191.94"/>
<polygon fill="#63b8ff" stroke="#63b8ff" points="747.38,-189.68 738.39,-184.06 741.92,-194.05 747.38,-189.68"/>
</a>
</g>
</g>
<!-- Node10 -->
<g id="Node000010" class="node">
<title>Node10</title>
<g id="a_Node000010"><a xlink:title=" ">
<polygon fill="#e0e0e0" stroke="#999999" points="447.74,-239 394.74,-239 394.74,-220 447.74,-220 447.74,-239"/>
<text text-anchor="middle" x="421.24" y="-227" font-family="Helvetica,sans-Serif" font-size="10.00">stdlib.h</text>
</a>
</g>
</g>
<!-- Node1&#45;&gt;Node10 -->
<g id="edge9_Node000001_Node000010" class="edge">
<title>Node1&#45;&gt;Node10</title>
<g id="a_edge9_Node000001_Node000010"><a xlink:title=" ">
<path fill="none" stroke="#63b8ff" d="M662.26,-275.37C611.8,-267.52 534.13,-254.8 458.17,-239.29"/>
<polygon fill="#63b8ff" stroke="#63b8ff" points="458.45,-235.78 447.95,-237.19 457.04,-242.63 458.45,-235.78"/>
</a>
</g>
</g>
<!-- Node11 -->
<g id="Node000011" class="node">
<title>Node11</title>
<g id="a_Node000011"><a xlink:title=" ">
<polygon fill="#e0e0e0" stroke="#999999" points="528.74,-239 465.74,-239 465.74,-220 528.74,-220 528.74,-239"/>
<text text-anchor="middle" x="497.24" y="-227" font-family="Helvetica,sans-Serif" font-size="10.00">pthread.h</text>
</a>
</g>
</g>
<!-- Node1&#45;&gt;Node11 -->
<g id="edge10_Node000001_Node000011" class="edge">
<title>Node1&#45;&gt;Node11</title>
<g id="a_edge10_Node000001_Node000011"><a xlink:title=" ">
<path fill="none" stroke="#63b8ff" d="M681.06,-274.98C642.27,-265.6 579.92,-250.51 538.77,-240.55"/>
<polygon fill="#63b8ff" stroke="#63b8ff" points="539.33,-237.08 528.79,-238.13 537.68,-243.89 539.33,-237.08"/>
</a>
</g>
</g>
<!-- Node12 -->
<g id="Node000012" class="node">
<title>Node12</title>
<g id="a_Node000012"><a xlink:title=" ">
<polygon fill="#e0e0e0" stroke="#999999" points="599.74,-239 546.74,-239 546.74,-220 599.74,-220 599.74,-239"/>
<text text-anchor="middle" x="573.24" y="-227" font-family="Helvetica,sans-Serif" font-size="10.00">string.h</text>
</a>
</g>
</g>
<!-- Node1&#45;&gt;Node12 -->
<g id="edge11_Node000001_Node000012" class="edge">
<title>Node1&#45;&gt;Node12</title>
<g id="a_edge11_Node000001_Node000012"><a xlink:title=" ">
<path fill="none" stroke="#63b8ff" d="M693.27,-274.98C669.74,-266.27 632.95,-252.63 606.3,-242.75"/>
<polygon fill="#63b8ff" stroke="#63b8ff" points="607.23,-239.36 596.64,-239.17 604.8,-245.93 607.23,-239.36"/>
</a>
</g>
</g>
<!-- Node13 -->
<g id="Node000013" class="node">
<title>Node13</title>
<g id="a_Node000013"><a xlink:title=" ">
<polygon fill="#e0e0e0" stroke="#999999" points="666.24,-239 618.24,-239 618.24,-220 666.24,-220 666.24,-239"/>
<text text-anchor="middle" x="642.24" y="-227" font-family="Helvetica,sans-Serif" font-size="10.00">time.h</text>
</a>
</g>
</g>
<!-- Node1&#45;&gt;Node13 -->
<g id="edge12_Node000001_Node000013" class="edge">
<title>Node1&#45;&gt;Node13</title>
<g id="a_edge12_Node000001_Node000013"><a xlink:title=" ">
<path fill="none" stroke="#63b8ff" d="M704.35,-274.98C693.09,-266.92 675.96,-254.65 662.53,-245.03"/>
<polygon fill="#63b8ff" stroke="#63b8ff" points="664.52,-242.15 654.35,-239.17 660.44,-247.84 664.52,-242.15"/>
</a>
</g>
</g>
<!-- Node14 -->
<g id="Node000014" class="node">
<title>Node14</title>
<g id="a_Node000014"><a xlink:title=" ">
<polygon fill="#e0e0e0" stroke="#999999" points="748.24,-239 684.24,-239 684.24,-220 748.24,-220 748.24,-239"/>
<text text-anchor="middle" x="716.24" y="-227" font-family="Helvetica,sans-Serif" font-size="10.00">sys/stat.h</text>
</a>
</g>
</g>
<!-- Node1&#45;&gt;Node14 -->
<g id="edge13_Node000001_Node000014" class="edge">
<title>Node1&#45;&gt;Node14</title>
<g id="a_edge13_Node000001_Node000014"><a xlink:title=" ">
<path fill="none" stroke="#63b8ff" d="M716.24,-274.75C716.24,-267.8 716.24,-257.85 716.24,-249.13"/>
<polygon fill="#63b8ff" stroke="#63b8ff" points="719.74,-249.09 716.24,-239.09 712.74,-249.09 719.74,-249.09"/>
</a>
</g>
</g>
<!-- Node15 -->
<g id="Node000015" class="node">
<title>Node15</title>
<g id="a_Node000015"><a xlink:href="gptoss__hparams_8h.html" target="_top" xlink:title="Load GPT&#45;OSS hyperparameters from a HuggingFace&#45;style config.json.">
<polygon fill="white" stroke="#666666" points="1012.24,-239 906.24,-239 906.24,-220 1012.24,-220 1012.24,-239"/>
<text text-anchor="middle" x="959.24" y="-227" font-family="Helvetica,sans-Serif" font-size="10.00">gptoss_hparams.h</text>
</a>
</g>
</g>
<!-- Node1&#45;&gt;Node15 -->
<g id="edge14_Node000001_Node000015" class="edge">
<title>Node1&#45;&gt;Node15</title>
<g id="a_edge14_Node000001_Node000015"><a xlink:title=" ">
<path fill="none" stroke="#63b8ff" d="M755.28,-274.98C797.32,-265.82 864.28,-251.21 909.92,-241.26"/>
<polygon fill="#63b8ff" stroke="#63b8ff" points="910.87,-244.63 919.89,-239.08 909.38,-237.79 910.87,-244.63"/>
</a>
</g>
</g>
<!-- Node16 -->
<g id="Node000016" class="node">
<title>Node16</title>
<g id="a_Node000016"><a xlink:href="ie__infer_8h.html" target="_top" xlink:title="Inference interface for the GPT&#45;OSS runtime.">
<polygon fill="white" stroke="#666666" points="1029.24,-184 967.24,-184 967.24,-165 1029.24,-165 1029.24,-184"/>
<text text-anchor="middle" x="998.24" y="-172" font-family="Helvetica,sans-Serif" font-size="10.00">ie_infer.h</text>
</a>
</g>
</g>
<!-- Node1&#45;&gt;Node16 -->
<g id="edge32_Node000001_Node000016" class="edge">
<title>Node1&#45;&gt;Node16</title>
<g id="a_edge32_Node000001_Node000016"><a xlink:title=" ">
<path fill="none" stroke="#63b8ff" d="M769.98,-283.73C848.67,-282.79 989.39,-275.84 1021.24,-239 1032.69,-225.76 1022.96,-206.36 1012.87,-192.5"/>
<polygon fill="#63b8ff" stroke="#63b8ff" points="1015.34,-189.98 1006.39,-184.3 1009.85,-194.32 1015.34,-189.98"/>
</a>
</g>
</g>
<!-- Node17 -->
<g id="Node000017" class="node">
<title>Node17</title>
<g id="a_Node000017"><a xlink:href="ie__device_8h.html" target="_top" xlink:title="Device abstraction for CPU/GPU backends selected at runtime.">
<polygon fill="white" stroke="#666666" points="1048.24,-129 976.24,-129 976.24,-110 1048.24,-110 1048.24,-129"/>
<text text-anchor="middle" x="1012.24" y="-117" font-family="Helvetica,sans-Serif" font-size="10.00">ie_device.h</text>
</a>
</g>
</g>
<!-- Node1&#45;&gt;Node17 -->
<g id="edge31_Node000001_Node000017" class="edge">
<title>Node1&#45;&gt;Node17</title>
<g id="a_edge31_Node000001_Node000017"><a xlink:title=" ">
<path fill="none" stroke="#63b8ff" d="M769.9,-284.21C852.3,-284.02 1004.09,-278.2 1038.24,-239 1063.27,-210.27 1039.95,-162.98 1024.11,-137.7"/>
<polygon fill="#63b8ff" stroke="#63b8ff" points="1026.93,-135.62 1018.52,-129.17 1021.07,-139.45 1026.93,-135.62"/>
</a>
</g>
</g>
<!-- Node18 -->
<g id="Node000018" class="node">
<title>Node18</title>
<g id="a_Node000018"><a xlink:href="ie__io_8h.html" target="_top" xlink:title="Public I/O interfaces for model artifacts and lightweight tooling.">
<polygon fill="white" stroke="#666666" points="898.74,-129 849.74,-129 849.74,-110 898.74,-110 898.74,-129"/>
<text text-anchor="middle" x="874.24" y="-117" font-family="Helvetica,sans-Serif" font-size="10.00">ie_io.h</text>
</a>
</g>
</g>
<!-- Node1&#45;&gt;Node18 -->
<g id="edge33_Node000001_Node000018" class="edge">
<title>Node1&#45;&gt;Node18</title>
<g id="a_edge33_Node000001_Node000018"><a xlink:title=" ">
<path fill="none" stroke="#63b8ff" d="M662.47,-284.45C578.11,-284.65 420.6,-279.43 385.24,-239 379.68,-232.64 379.9,-226.54 385.24,-220 443.08,-149.21 737.86,-127.52 839.63,-122.08"/>
<polygon fill="#63b8ff" stroke="#63b8ff" points="839.89,-125.57 849.69,-121.56 839.53,-118.58 839.89,-125.57"/>
</a>
</g>
</g>
<!-- Node19 -->
<g id="Node000019" class="node">
<title>Node19</title>
<g id="a_Node000019"><a xlink:href="ie__kv__cache_8h.html" target="_top" xlink:title="Key/Value attention cache with INT8/FP8 compression and FP32 round&#45;trip.">
<polygon fill="white" stroke="#666666" points="1230.24,-129 1144.24,-129 1144.24,-110 1230.24,-110 1230.24,-129"/>
<text text-anchor="middle" x="1187.24" y="-117" font-family="Helvetica,sans-Serif" font-size="10.00">ie_kv_cache.h</text>
</a>
</g>
</g>
<!-- Node1&#45;&gt;Node19 -->
<g id="edge34_Node000001_Node000019" class="edge">
<title>Node1&#45;&gt;Node19</title>
<g id="a_edge34_Node000001_Node000019"><a xlink:title=" ">
<path fill="none" stroke="#63b8ff" d="M769.91,-284.05C868.49,-284.06 1073.48,-279.08 1130.24,-239 1163.86,-215.27 1178.39,-166.21 1184.05,-139.25"/>
<polygon fill="#63b8ff" stroke="#63b8ff" points="1187.54,-139.67 1185.96,-129.19 1180.66,-138.36 1187.54,-139.67"/>
</a>
</g>
</g>
<!-- Node21 -->
<g id="Node000021" class="node">
<title>Node21</title>
<g id="a_Node000021"><a xlink:href="ie__kv__instrumentation_8h.html" target="_top" xlink:title="Lightweight KV cache reuse counters (process&#45;local, single&#45;threaded).">
<polygon fill="white" stroke="#666666" points="181.74,-74 46.74,-74 46.74,-55 181.74,-55 181.74,-74"/>
<text text-anchor="middle" x="114.24" y="-62" font-family="Helvetica,sans-Serif" font-size="10.00">ie_kv_instrumentation.h</text>
</a>
</g>
</g>
<!-- Node1&#45;&gt;Node21 -->
<g id="edge35_Node000001_Node000021" class="edge">
<title>Node1&#45;&gt;Node21</title>
<g id="a_edge35_Node000001_Node000021"><a xlink:title=" ">
<path fill="none" stroke="#63b8ff" d="M662.55,-282.08C502.18,-277.59 36.36,-262.57 14.24,-239 -32.96,-188.71 53.05,-112.17 94.16,-80.26"/>
<polygon fill="#63b8ff" stroke="#63b8ff" points="96.34,-83 102.18,-74.16 92.1,-77.43 96.34,-83"/>
</a>
</g>
</g>
<!-- Node22 -->
<g id="Node000022" class="node">
<title>Node22</title>
<g id="a_Node000022"><a xlink:href="ie__sampling_8h.html" target="_top" xlink:title="Token sampling utilities for next&#45;token selection from logits.">
<polygon fill="white" stroke="#666666" points="1124.74,-74 1039.74,-74 1039.74,-55 1124.74,-55 1124.74,-74"/>
<text text-anchor="middle" x="1082.24" y="-62" font-family="Helvetica,sans-Serif" font-size="10.00">ie_sampling.h</text>
</a>
</g>
</g>
<!-- Node1&#45;&gt;Node22 -->
<g id="edge37_Node000001_Node000022" class="edge">
<title>Node1&#45;&gt;Node22</title>
<g id="a_edge37_Node000001_Node000022"><a xlink:title=" ">
<path fill="none" stroke="#63b8ff" d="M769.92,-284.09C855.62,-283.82 1017.72,-278 1057.24,-239 1099.07,-197.72 1092.02,-120 1086.03,-84.3"/>
<polygon fill="#63b8ff" stroke="#63b8ff" points="1089.44,-83.48 1084.19,-74.28 1082.56,-84.75 1089.44,-83.48"/>
</a>
</g>
</g>
<!-- Node23 -->
<g id="Node000023" class="node">
<title>Node23</title>
<g id="a_Node000023"><a xlink:href="ie__tokenizer__gptoss_8h.html" target="_top" xlink:title="GPT&#45;OSS tokenizer loader + encode/decode for:">
<polygon fill="white" stroke="#666666" points="1447.24,-74 1325.24,-74 1325.24,-55 1447.24,-55 1447.24,-74"/>
<text text-anchor="middle" x="1386.24" y="-62" font-family="Helvetica,sans-Serif" font-size="10.00">ie_tokenizer_gptoss.h</text>
</a>
</g>
</g>
<!-- Node1&#45;&gt;Node23 -->
<g id="edge40_Node000001_Node000023" class="edge">
<title>Node1&#45;&gt;Node23</title>
<g id="a_edge40_Node000001_Node000023"><a xlink:title=" ">
<path fill="none" stroke="#63b8ff" d="M769.89,-281.62C870.91,-277.51 1085.43,-265.82 1154.24,-239 1247.51,-202.64 1336,-117.94 1370.75,-82.04"/>
<polygon fill="#63b8ff" stroke="#63b8ff" points="1373.67,-84.05 1378.05,-74.4 1368.61,-79.22 1373.67,-84.05"/>
</a>
</g>
</g>
<!-- Node24 -->
<g id="Node000024" class="node">
<title>Node24</title>
<g id="a_Node000024"><a xlink:href="tensor__map_8h.html" target="_top" xlink:title="Loader and lookup API for tensor_map.json.">
<polygon fill="white" stroke="#666666" points="887.74,-239 804.74,-239 804.74,-220 887.74,-220 887.74,-239"/>
<text text-anchor="middle" x="846.24" y="-227" font-family="Helvetica,sans-Serif" font-size="10.00">tensor_map.h</text>
</a>
</g>
</g>
<!-- Node1&#45;&gt;Node24 -->
<g id="edge43_Node000001_Node000024" class="edge">
<title>Node1&#45;&gt;Node24</title>
<g id="a_edge43_Node000001_Node000024"><a xlink:title=" ">
<path fill="none" stroke="#63b8ff" d="M737.13,-274.98C758.32,-266.34 791.37,-252.87 815.54,-243.02"/>
<polygon fill="#63b8ff" stroke="#63b8ff" points="817.04,-246.19 824.97,-239.17 814.39,-239.7 817.04,-246.19"/>
</a>
</g>
</g>
<!-- Node25 -->
<g id="Node000025" class="node">
<title>Node25</title>
<g id="a_Node000025"><a xlink:href="util__logging_8h.html" target="_top" xlink:title="Minimal logging interface (printf&#45;style), used by CLI and tests.">
<polygon fill="white" stroke="#666666" points="1742.74,-239 1659.74,-239 1659.74,-220 1742.74,-220 1742.74,-239"/>
<text text-anchor="middle" x="1701.24" y="-227" font-family="Helvetica,sans-Serif" font-size="10.00">util_logging.h</text>
</a>
</g>
</g>
<!-- Node1&#45;&gt;Node25 -->
<g id="edge47_Node000001_Node000025" class="edge">
<title>Node1&#45;&gt;Node25</title>
<g id="a_edge47_Node000001_Node000025"><a xlink:title=" ">
<path fill="none" stroke="#63b8ff" d="M769.79,-282.86C912.46,-280.73 1313.45,-272.04 1645.24,-239 1646.71,-238.85 1648.2,-238.7 1649.7,-238.53"/>
<polygon fill="#63b8ff" stroke="#63b8ff" points="1650.22,-241.99 1659.71,-237.29 1649.36,-235.04 1650.22,-241.99"/>
</a>
</g>
</g>
<!-- Node27 -->
<g id="Node000027" class="node">
<title>Node27</title>
<g id="a_Node000027"><a xlink:href="ie__cpu_8h.html" target="_top" xlink:title="Runtime CPU feature detection utilities.">
<polygon fill="white" stroke="#666666" points="1551.74,-239 1494.74,-239 1494.74,-220 1551.74,-220 1551.74,-239"/>
<text text-anchor="middle" x="1523.24" y="-227" font-family="Helvetica,sans-Serif" font-size="10.00">ie_cpu.h</text>
</a>
</g>
</g>
<!-- Node1&#45;&gt;Node27 -->
<g id="edge49_Node000001_Node000027" class="edge">
<title>Node1&#45;&gt;Node27</title>
<g id="a_edge49_Node000001_Node000027"><a xlink:title=" ">
<path fill="none" stroke="#63b8ff" d="M770.2,-282.89C895.43,-280.93 1215.33,-272.74 1480.24,-239 1481.7,-238.81 1483.19,-238.61 1484.69,-238.38"/>
<polygon fill="#63b8ff" stroke="#63b8ff" points="1485.36,-241.82 1494.65,-236.72 1484.21,-234.92 1485.36,-241.82"/>
</a>
</g>
</g>
<!-- Node3 -->
<g id="Node000003" class="node">
<title>Node3</title>
<g id="a_Node000003"><a xlink:title=" ">
<polygon fill="#e0e0e0" stroke="#999999" points="1325.24,-19 1269.24,-19 1269.24,0 1325.24,0 1325.24,-19"/>
<text text-anchor="middle" x="1297.24" y="-7" font-family="Helvetica,sans-Serif" font-size="10.00">stddef.h</text>
</a>
</g>
</g>
<!-- Node2&#45;&gt;Node3 -->
<g id="edge2_Node000002_Node000003" class="edge">
<title>Node2&#45;&gt;Node3</title>
<g id="a_edge2_Node000002_Node000003"><a xlink:title=" ">
<path fill="none" stroke="#63b8ff" d="M1593.15,-109.92C1581.14,-96.01 1555.33,-68.69 1527.24,-55 1464.53,-24.44 1382.6,-14.85 1335.36,-11.85"/>
<polygon fill="#63b8ff" stroke="#63b8ff" points="1335.44,-8.35 1325.26,-11.28 1335.04,-15.34 1335.44,-8.35"/>
</a>
</g>
</g>
<!-- Node15&#45;&gt;Node8 -->
<g id="edge15_Node000015_Node000008" class="edge">
<title>Node15&#45;&gt;Node8</title>
<g id="a_edge15_Node000015_Node000008"><a xlink:title=" ">
<path fill="none" stroke="#63b8ff" d="M941.28,-219.97C913.52,-205.65 861.22,-173.89 840.24,-129 822.95,-92 857.66,-48.84 880.14,-26.2"/>
<polygon fill="#63b8ff" stroke="#63b8ff" points="882.73,-28.57 887.48,-19.09 877.86,-23.54 882.73,-28.57"/>
</a>
</g>
</g>
<!-- Node15&#45;&gt;Node16 -->
<g id="edge16_Node000015_Node000016" class="edge">
<title>Node15&#45;&gt;Node16</title>
<g id="a_edge16_Node000015_Node000016"><a xlink:title=" ">
<path fill="none" stroke="#63b8ff" d="M965.68,-219.75C971.13,-212.34 979.11,-201.5 985.8,-192.41"/>
<polygon fill="#63b8ff" stroke="#63b8ff" points="988.81,-194.22 991.92,-184.09 983.18,-190.07 988.81,-194.22"/>
</a>
</g>
</g>
<!-- Node15&#45;&gt;Node18 -->
<g id="edge30_Node000015_Node000018" class="edge">
<title>Node15&#45;&gt;Node18</title>
<g id="a_edge30_Node000015_Node000018"><a xlink:title=" ">
<path fill="none" stroke="#63b8ff" d="M952.29,-219.66C938.08,-201.61 905.55,-160.28 887.29,-137.08"/>
<polygon fill="#63b8ff" stroke="#63b8ff" points="889.99,-134.85 881.06,-129.16 884.49,-139.18 889.99,-134.85"/>
</a>
</g>
</g>
<!-- Node16&#45;&gt;Node8 -->
<g id="edge17_Node000016_Node000008" class="edge">
<title>Node16&#45;&gt;Node8</title>
<g id="a_edge17_Node000016_Node000008"><a xlink:title=" ">
<path fill="none" stroke="#63b8ff" d="M991.87,-164.77C985.46,-155.89 975.38,-141.67 967.24,-129 944.64,-93.82 920.23,-51.36 907.04,-28.02"/>
<polygon fill="#63b8ff" stroke="#63b8ff" points="910.07,-26.26 902.12,-19.26 903.97,-29.69 910.07,-26.26"/>
</a>
</g>
</g>
<!-- Node16&#45;&gt;Node17 -->
<g id="edge18_Node000016_Node000017" class="edge">
<title>Node16&#45;&gt;Node17</title>
<g id="a_edge18_Node000016_Node000017"><a xlink:title=" ">
<path fill="none" stroke="#63b8ff" d="M1000.55,-164.75C1002.41,-157.72 1005.08,-147.62 1007.4,-138.84"/>
<polygon fill="#63b8ff" stroke="#63b8ff" points="1010.8,-139.65 1009.97,-129.09 1004.03,-137.86 1010.8,-139.65"/>
</a>
</g>
</g>
<!-- Node16&#45;&gt;Node18 -->
<g id="edge21_Node000016_Node000018" class="edge">
<title>Node16&#45;&gt;Node18</title>
<g id="a_edge21_Node000016_Node000018"><a xlink:title=" ">
<path fill="none" stroke="#63b8ff" d="M978.32,-164.98C958.19,-156.38 926.86,-142.99 903.83,-133.15"/>
<polygon fill="#63b8ff" stroke="#63b8ff" points="905.1,-129.88 894.53,-129.17 902.35,-136.32 905.1,-129.88"/>
</a>
</g>
</g>
<!-- Node16&#45;&gt;Node19 -->
<g id="edge24_Node000016_Node000019" class="edge">
<title>Node16&#45;&gt;Node19</title>
<g id="a_edge24_Node000016_Node000019"><a xlink:title=" ">
<path fill="none" stroke="#63b8ff" d="M1028.61,-164.98C1060.61,-156.01 1111.2,-141.82 1146.62,-131.89"/>
<polygon fill="#63b8ff" stroke="#63b8ff" points="1147.95,-135.15 1156.64,-129.08 1146.06,-128.41 1147.95,-135.15"/>
</a>
</g>
</g>
<!-- Node17&#45;&gt;Node3 -->
<g id="edge19_Node000017_Node000003" class="edge">
<title>Node17&#45;&gt;Node3</title>
<g id="a_edge19_Node000017_Node000003"><a xlink:title=" ">
<path fill="none" stroke="#63b8ff" d="M1048.65,-118.39C1095.81,-116.74 1179.2,-108.63 1240.24,-74 1259.9,-62.85 1276.37,-42.43 1286.48,-27.76"/>
<polygon fill="#63b8ff" stroke="#63b8ff" points="1289.6,-29.38 1292.16,-19.1 1283.75,-25.53 1289.6,-29.38"/>
</a>
</g>
</g>
<!-- Node17&#45;&gt;Node8 -->
<g id="edge20_Node000017_Node000008" class="edge">
<title>Node17&#45;&gt;Node8</title>
<g id="a_edge20_Node000017_Node000008"><a xlink:title=" ">
<path fill="none" stroke="#63b8ff" d="M1002.83,-109.66C983.36,-91.38 938.43,-49.18 913.92,-26.17"/>
<polygon fill="#63b8ff" stroke="#63b8ff" points="916.15,-23.45 906.46,-19.16 911.35,-28.56 916.15,-23.45"/>
</a>
</g>
</g>
<!-- Node18&#45;&gt;Node3 -->
<g id="edge22_Node000018_Node000003" class="edge">
<title>Node18&#45;&gt;Node3</title>
<g id="a_edge22_Node000018_Node000003"><a xlink:title=" ">
<path fill="none" stroke="#63b8ff" d="M891.57,-109.96C919.9,-96.33 978.19,-69.73 1030.24,-55 1109.98,-32.43 1206.56,-19.84 1258.94,-14.19"/>
<polygon fill="#63b8ff" stroke="#63b8ff" points="1259.54,-17.64 1269.12,-13.12 1258.81,-10.68 1259.54,-17.64"/>
</a>
</g>
</g>
<!-- Node18&#45;&gt;Node8 -->
<g id="edge23_Node000018_Node000008" class="edge">
<title>Node18&#45;&gt;Node8</title>
<g id="a_edge23_Node000018_Node000008"><a xlink:title=" ">
<path fill="none" stroke="#63b8ff" d="M875.02,-109.79C876.22,-97.48 878.86,-74.33 883.24,-55 885.21,-46.31 888.07,-36.87 890.7,-28.93"/>
<polygon fill="#63b8ff" stroke="#63b8ff" points="894.08,-29.84 894.02,-19.25 887.46,-27.57 894.08,-29.84"/>
</a>
</g>
</g>
<!-- Node19&#45;&gt;Node3 -->
<g id="edge25_Node000019_Node000003" class="edge">
<title>Node19&#45;&gt;Node3</title>
<g id="a_edge25_Node000019_Node000003"><a xlink:title=" ">
<path fill="none" stroke="#63b8ff" d="M1215.38,-109.9C1234.03,-102.91 1257.82,-91.33 1273.24,-74 1284.49,-61.36 1290.67,-42.92 1293.93,-29.16"/>
<polygon fill="#63b8ff" stroke="#63b8ff" points="1297.37,-29.83 1295.96,-19.33 1290.51,-28.42 1297.37,-29.83"/>
</a>
</g>
</g>
<!-- Node19&#45;&gt;Node8 -->
<g id="edge26_Node000019_Node000008" class="edge">
<title>Node19&#45;&gt;Node8</title>
<g id="a_edge26_Node000019_Node000008"><a xlink:title=" ">
<path fill="none" stroke="#63b8ff" d="M1150.51,-109.96C1118.33,-102.04 1070.53,-89.2 1030.24,-74 991.22,-59.28 947.98,-37.56 921.7,-23.73"/>
<polygon fill="#63b8ff" stroke="#63b8ff" points="923.3,-20.61 912.83,-19.01 920.02,-26.8 923.3,-20.61"/>
</a>
</g>
</g>
<!-- Node20 -->
<g id="Node000020" class="node">
<title>Node20</title>
<g id="a_Node000020"><a xlink:href="ie__quant__act_8h.html" target="_top" xlink:title=" ">
<polygon fill="white" stroke="#666666" points="1231.24,-74 1143.24,-74 1143.24,-55 1231.24,-55 1231.24,-74"/>
<text text-anchor="middle" x="1187.24" y="-62" font-family="Helvetica,sans-Serif" font-size="10.00">ie_quant_act.h</text>
</a>
</g>
</g>
<!-- Node19&#45;&gt;Node20 -->
<g id="edge27_Node000019_Node000020" class="edge">
<title>Node19&#45;&gt;Node20</title>
<g id="a_edge27_Node000019_Node000020"><a xlink:title=" ">
<path fill="none" stroke="#63b8ff" d="M1187.24,-109.75C1187.24,-102.8 1187.24,-92.85 1187.24,-84.13"/>
<polygon fill="#63b8ff" stroke="#63b8ff" points="1190.74,-84.09 1187.24,-74.09 1183.74,-84.09 1190.74,-84.09"/>
</a>
</g>
</g>
<!-- Node20&#45;&gt;Node3 -->
<g id="edge28_Node000020_Node000003" class="edge">
<title>Node20&#45;&gt;Node3</title>
<g id="a_edge28_Node000020_Node000003"><a xlink:title=" ">
<path fill="none" stroke="#63b8ff" d="M1204.92,-54.98C1222.53,-46.5 1249.82,-33.35 1270.17,-23.54"/>
<polygon fill="#63b8ff" stroke="#63b8ff" points="1271.76,-26.66 1279.25,-19.17 1268.72,-20.36 1271.76,-26.66"/>
</a>
</g>
</g>
<!-- Node20&#45;&gt;Node8 -->
<g id="edge29_Node000020_Node000008" class="edge">
<title>Node20&#45;&gt;Node8</title>
<g id="a_edge29_Node000020_Node000008"><a xlink:title=" ">
<path fill="none" stroke="#63b8ff" d="M1143.2,-55.45C1086.01,-45 987.22,-26.94 933.9,-17.2"/>
<polygon fill="#63b8ff" stroke="#63b8ff" points="934.34,-13.72 923.87,-15.37 933.08,-20.61 934.34,-13.72"/>
</a>
</g>
</g>
<!-- Node21&#45;&gt;Node8 -->
<g id="edge36_Node000021_Node000008" class="edge">
<title>Node21&#45;&gt;Node8</title>
<g id="a_edge36_Node000021_Node000008"><a xlink:title=" ">
<path fill="none" stroke="#63b8ff" d="M182.02,-58.91C341.94,-48.09 738.5,-21.25 860.76,-12.97"/>
<polygon fill="#63b8ff" stroke="#63b8ff" points="861,-16.46 870.74,-12.29 860.53,-9.48 861,-16.46"/>
</a>
</g>
</g>
<!-- Node22&#45;&gt;Node3 -->
<g id="edge38_Node000022_Node000003" class="edge">
<title>Node22&#45;&gt;Node3</title>
<g id="a_edge38_Node000022_Node000003"><a xlink:title=" ">
<path fill="none" stroke="#63b8ff" d="M1116.79,-54.98C1155.74,-45.38 1218.9,-29.81 1259.23,-19.87"/>
<polygon fill="#63b8ff" stroke="#63b8ff" points="1260.09,-23.26 1268.96,-17.47 1258.41,-16.47 1260.09,-23.26"/>
</a>
</g>
</g>
<!-- Node22&#45;&gt;Node8 -->
<g id="edge39_Node000022_Node000008" class="edge">
<title>Node22&#45;&gt;Node8</title>
<g id="a_edge39_Node000022_Node000008"><a xlink:title=" ">
<path fill="none" stroke="#63b8ff" d="M1052.52,-54.98C1020.17,-45.72 968.42,-30.89 933.65,-20.93"/>
<polygon fill="#63b8ff" stroke="#63b8ff" points="934.47,-17.52 923.89,-18.13 932.54,-24.25 934.47,-17.52"/>
</a>
</g>
</g>
<!-- Node23&#45;&gt;Node3 -->
<g id="edge41_Node000023_Node000003" class="edge">
<title>Node23&#45;&gt;Node3</title>
<g id="a_edge41_Node000023_Node000003"><a xlink:title=" ">
<path fill="none" stroke="#63b8ff" d="M1371.94,-54.98C1358.14,-46.77 1337,-34.18 1320.73,-24.49"/>
<polygon fill="#63b8ff" stroke="#63b8ff" points="1322.18,-21.28 1311.8,-19.17 1318.6,-27.29 1322.18,-21.28"/>
</a>
</g>
</g>
<!-- Node23&#45;&gt;Node8 -->
<g id="edge42_Node000023_Node000008" class="edge">
<title>Node23&#45;&gt;Node8</title>
<g id="a_edge42_Node000023_Node000008"><a xlink:title=" ">
<path fill="none" stroke="#63b8ff" d="M1324.8,-56.84C1221.73,-45.67 1017.1,-23.49 933.8,-14.46"/>
<polygon fill="#63b8ff" stroke="#63b8ff" points="934.12,-10.98 923.8,-13.38 933.36,-17.94 934.12,-10.98"/>
</a>
</g>
</g>
<!-- Node24&#45;&gt;Node3 -->
<g id="edge44_Node000024_Node000003" class="edge">
<title>Node24&#45;&gt;Node3</title>
<g id="a_edge44_Node000024_Node000003"><a xlink:title=" ">
<path fill="none" stroke="#63b8ff" d="M888.15,-220.96C1020.15,-196.79 1420.64,-120.18 1456.24,-74 1489.64,-30.67 1392.84,-16.82 1335.78,-12.46"/>
<polygon fill="#63b8ff" stroke="#63b8ff" points="1335.85,-8.96 1325.63,-11.75 1335.36,-15.94 1335.85,-8.96"/>
</a>
</g>
</g>
<!-- Node24&#45;&gt;Node8 -->
<g id="edge45_Node000024_Node000008" class="edge">
<title>Node24&#45;&gt;Node8</title>
<g id="a_edge45_Node000024_Node000008"><a xlink:title=" ">
<path fill="none" stroke="#63b8ff" d="M835.25,-219.99C825.79,-211.9 812.81,-198.81 807.24,-184 787.05,-130.34 776.99,-103.7 807.24,-55 818.91,-36.21 841.12,-25.12 860.56,-18.7"/>
<polygon fill="#63b8ff" stroke="#63b8ff" points="861.82,-21.98 870.4,-15.76 859.81,-15.27 861.82,-21.98"/>
</a>
</g>
</g>
<!-- Node24&#45;&gt;Node9 -->
<g id="edge46_Node000024_Node000009" class="edge">
<title>Node24&#45;&gt;Node9</title>
<g id="a_edge46_Node000024_Node000009"><a xlink:title=" ">
<path fill="none" stroke="#63b8ff" d="M827.6,-219.98C808.94,-211.46 779.99,-198.23 758.5,-188.41"/>
<polygon fill="#63b8ff" stroke="#63b8ff" points="759.77,-185.14 749.22,-184.17 756.86,-191.51 759.77,-185.14"/>
</a>
</g>
</g>
<!-- Node26 -->
<g id="Node000026" class="node">
<title>Node26</title>
<g id="a_Node000026"><a xlink:title=" ">
<polygon fill="#e0e0e0" stroke="#999999" points="1729.24,-184 1673.24,-184 1673.24,-165 1729.24,-165 1729.24,-184"/>
<text text-anchor="middle" x="1701.24" y="-172" font-family="Helvetica,sans-Serif" font-size="10.00">stdarg.h</text>
</a>
</g>
</g>
<!-- Node25&#45;&gt;Node26 -->
<g id="edge48_Node000025_Node000026" class="edge">
<title>Node25&#45;&gt;Node26</title>
<g id="a_edge48_Node000025_Node000026"><a xlink:title=" ">
<path fill="none" stroke="#63b8ff" d="M1701.24,-219.75C1701.24,-212.8 1701.24,-202.85 1701.24,-194.13"/>
<polygon fill="#63b8ff" stroke="#63b8ff" points="1704.74,-194.09 1701.24,-184.09 1697.74,-194.09 1704.74,-194.09"/>
</a>
</g>
</g>
<!-- Node27&#45;&gt;Node3 -->
<g id="edge51_Node000027_Node000003" class="edge">
<title>Node27&#45;&gt;Node3</title>
<g id="a_edge51_Node000027_Node000003"><a xlink:title=" ">
<path fill="none" stroke="#63b8ff" d="M1524.48,-219.84C1527.98,-191.74 1534.89,-102.24 1489.24,-55 1468.32,-33.35 1385.43,-20.44 1335.66,-14.48"/>
<polygon fill="#63b8ff" stroke="#63b8ff" points="1335.91,-10.99 1325.57,-13.31 1335.11,-17.94 1335.91,-10.99"/>
</a>
</g>
</g>
<!-- Node28 -->
<g id="Node000028" class="node">
<title>Node28</title>
<g id="a_Node000028"><a xlink:title=" ">
<polygon fill="#e0e0e0" stroke="#999999" points="1603.24,-184 1541.24,-184 1541.24,-165 1603.24,-165 1603.24,-184"/>
<text text-anchor="middle" x="1572.24" y="-172" font-family="Helvetica,sans-Serif" font-size="10.00">stdbool.h</text>
</a>
</g>
</g>
<!-- Node27&#45;&gt;Node28 -->
<g id="edge50_Node000027_Node000028" class="edge">
<title>Node27&#45;&gt;Node28</title>
<g id="a_edge50_Node000027_Node000028"><a xlink:title=" ">
<path fill="none" stroke="#63b8ff" d="M1531.33,-219.75C1538.4,-212.11 1548.83,-200.82 1557.39,-191.56"/>
<polygon fill="#63b8ff" stroke="#63b8ff" points="1560.08,-193.81 1564.3,-184.09 1554.94,-189.06 1560.08,-193.81"/>
</a>
</g>
</g>
</g>
</svg>

<g id="navigator" transform="translate(0 0)" fill="#404254">
  <rect fill="#f2f5e9" fill-opacity="0.5" stroke="#606060" stroke-width=".5" x="0" y="0" width="60" height="60"/>
  <use id="zoomplus" xlink:href="#zoomPlus" x="17" y="9" onmousedown="handleZoom(evt,'in')"/>
  <use id="zoomminus" xlink:href="#zoomMin" x="42" y="9" onmousedown="handleZoom(evt,'out')"/>
  <use id="reset" xlink:href="#resetDef" x="30" y="36" onmousedown="handleReset()"/>
   <use id="arrowup" xlink:href="#arrowUp" x="0" y="0" onmousedown="handlePan(0,-1)"/>
  <use id="arrowright" xlink:href="#arrowRight" x="0" y="0" onmousedown="handlePan(1,0)"/>
  <use id="arrowdown" xlink:href="#arrowDown" x="0" y="0" onmousedown="handlePan(0,1)"/>
  <use id="arrowleft" xlink:href="#arrowLeft" x="0" y="0" onmousedown="handlePan(-1,0)"/>
</g>
<svg viewBox="0 0 15 15" width="100%" height="30px" preserveAspectRatio="xMaxYMin meet">
 <g id="arrow_out" transform="scale(0.3 0.3)">
  <a xlink:href="ie__api_8c__incl_org.svg" target="_base">
   <rect id="button" ry="5" rx="5" y="6" x="6" height="38" width="38"
        fill="#f2f5e9" fill-opacity="0.5" stroke="#606060" stroke-width="1.0"/>
   <path id="arrow"
     d="M 11.500037,31.436501 C 11.940474,20.09759 22.043105,11.32322 32.158766,21.979434 L 37.068811,17.246167 C 37.068811,17.246167 37.088388,32 37.088388,32 L 22.160133,31.978069 C 22.160133,31.978069 26.997745,27.140456 26.997745,27.140456 C 18.528582,18.264221 13.291696,25.230495 11.500037,31.436501 z"
     style="fill:#404040;"/>
  </a>
 </g>
</svg>

<style type='text/css'>
<![CDATA[
[data-mouse-over-selected='false'] { opacity: 0.7; }
[data-mouse-over-selected='true']  { opacity: 1.0; }
]]>
</style>
<script type="application/ecmascript"><![CDATA[
document.addEventListener('DOMContentLoaded', (event) => {
  highlightEdges();
  highlightAdjacentNodes();
});
]]></script>
</svg>
