<?xml version="1.0" encoding="UTF-8" standalone="no"?>
<!DOCTYPE svg PUBLIC "-//W3C//DTD SVG 1.1//EN"
 "http://www.w3.org/Graphics/SVG/1.1/DTD/svg11.dtd">
<!-- Generated by graphviz version 2.43.0 (0)
 -->
<!-- Title: fnv1a32 Pages: 1 -->
<svg width="290pt" height="64pt"
 viewBox="0.00 0.00 290.00 64.00" xmlns="http://www.w3.org/2000/svg" xmlns:xlink="http://www.w3.org/1999/xlink">
<g id="graph0" class="graph" transform="scale(1 1) rotate(0) translate(4 60)">
<title>fnv1a32</title>
<!-- Node1 -->
<g id="Node000001" class="node">
<title>Node1</title>
<g id="a_Node000001"><a xlink:title="32&#45;bit FNV&#45;1a hash for C strings (NULL&#45;safe).">
<polygon fill="#999999" stroke="#666666" points="282,-37 226,-37 226,-18 282,-18 282,-37"/>
<text text-anchor="middle" x="254" y="-25" font-family="Helvetica,sans-Serif" font-size="10.00">fnv1a32</text>
</a>
</g>
</g>
<!-- Node2 -->
<g id="Node000002" class="node">
<title>Node2</title>
<g id="a_Node000002"><a xlink:href="ie__api_8c.html#a29d800407f90ba6b44385725da64f27d" target="_top" xlink:title="Create a new engine instance.">
<polygon fill="white" stroke="#666666" points="183.5,-56 83.5,-56 83.5,-37 183.5,-37 183.5,-56"/>
<text text-anchor="middle" x="133.5" y="-44" font-family="Helvetica,sans-Serif" font-size="10.00">ie_engine_create</text>
</a>
</g>
</g>
<!-- Node1&#45;&gt;Node2 -->
<g id="edge1_Node000001_Node000002" class="edge">
<title>Node1&#45;&gt;Node2</title>
<g id="a_edge1_Node000001_Node000002"><a xlink:title=" ">
<path fill="none" stroke="#63b8ff" d="M215.72,-33.48C205.63,-35.1 194.55,-36.87 183.9,-38.58"/>
<polygon fill="#63b8ff" stroke="#63b8ff" points="216.49,-36.9 225.81,-31.86 215.39,-29.99 216.49,-36.9"/>
</a>
</g>
</g>
<!-- Node5 -->
<g id="Node000005" class="node">
<title>Node5</title>
<g id="a_Node000005"><a xlink:href="ie__api_8c.html#a21ab40e22d9192fe353ad6640610a01d" target="_top" xlink:title="Generate up to max_new_tokens from prompt.">
<polygon fill="white" stroke="#666666" points="190,-19 77,-19 77,0 190,0 190,-19"/>
<text text-anchor="middle" x="133.5" y="-7" font-family="Helvetica,sans-Serif" font-size="10.00">ie_engine_generate</text>
</a>
</g>
</g>
<!-- Node1&#45;&gt;Node5 -->
<g id="edge4_Node000001_Node000005" class="edge">
<title>Node1&#45;&gt;Node5</title>
<g id="a_edge4_Node000001_Node000005"><a xlink:title=" ">
<path fill="none" stroke="#63b8ff" d="M215.85,-21.86C207.67,-20.61 198.82,-19.27 190.09,-17.94"/>
<polygon fill="#63b8ff" stroke="#63b8ff" points="215.4,-25.33 225.81,-23.37 216.45,-18.41 215.4,-25.33"/>
</a>
</g>
</g>
<!-- Node3 -->
<g id="Node000003" class="node">
<title>Node3</title>
<g id="a_Node000003"><a xlink:href="main__infer_8c.html#a3c04138a5bfe5d72780bb7e82a18e627" target="_top" xlink:title=" ">
<polygon fill="white" stroke="#666666" points="41,-56 0,-56 0,-37 41,-37 41,-56"/>
<text text-anchor="middle" x="20.5" y="-44" font-family="Helvetica,sans-Serif" font-size="10.00">main</text>
</a>
</g>
</g>
<!-- Node2&#45;&gt;Node3 -->
<g id="edge2_Node000002_Node000003" class="edge">
<title>Node2&#45;&gt;Node3</title>
<g id="a_edge2_Node000002_Node000003"><a xlink:title=" ">
<path fill="none" stroke="#63b8ff" d="M73.26,-46.5C61.62,-46.5 50.21,-46.5 41.07,-46.5"/>
<polygon fill="#63b8ff" stroke="#63b8ff" points="73.49,-50 83.49,-46.5 73.49,-43 73.49,-50"/>
</a>
</g>
</g>
<!-- Node4 -->
<g id="Node000004" class="node">
<title>Node4</title>
<g id="a_Node000004"><a xlink:href="test__api_8c.html#a840291bc02cba5474a4cb46a9b9566fe" target="_top" xlink:title="Program entrypoint for API lifecycle tests.">
<polygon fill="white" stroke="#666666" points="41,-19 0,-19 0,0 41,0 41,-19"/>
<text text-anchor="middle" x="20.5" y="-7" font-family="Helvetica,sans-Serif" font-size="10.00">main</text>
</a>
</g>
</g>
<!-- Node2&#45;&gt;Node4 -->
<g id="edge3_Node000002_Node000004" class="edge">
<title>Node2&#45;&gt;Node4</title>
<g id="a_edge3_Node000002_Node000004"><a xlink:title=" ">
<path fill="none" stroke="#63b8ff" d="M93.17,-33.83C87.73,-32.06 82.23,-30.24 77,-28.5 65.12,-24.54 51.84,-20 41.25,-16.35"/>
<polygon fill="#63b8ff" stroke="#63b8ff" points="92.21,-37.2 102.8,-36.97 94.38,-30.54 92.21,-37.2"/>
</a>
</g>
</g>
<!-- Node5&#45;&gt;Node3 -->
<g id="edge5_Node000005_Node000003" class="edge">
<title>Node5&#45;&gt;Node3</title>
<g id="a_edge5_Node000005_Node000003"><a xlink:title=" ">
<path fill="none" stroke="#63b8ff" d="M94.32,-22.23C76.46,-28.18 55.94,-35.02 41.24,-39.92"/>
<polygon fill="#63b8ff" stroke="#63b8ff" points="95.53,-25.51 103.91,-19.03 93.32,-18.87 95.53,-25.51"/>
</a>
</g>
</g>
<!-- Node5&#45;&gt;Node4 -->
<g id="edge6_Node000005_Node000004" class="edge">
<title>Node5&#45;&gt;Node4</title>
<g id="a_edge6_Node000005_Node000004"><a xlink:title=" ">
<path fill="none" stroke="#63b8ff" d="M66.58,-9.5C57.37,-9.5 48.56,-9.5 41.21,-9.5"/>
<polygon fill="#63b8ff" stroke="#63b8ff" points="66.67,-13 76.67,-9.5 66.67,-6 66.67,-13"/>
</a>
</g>
</g>
</g>
</svg>
