<?xml version="1.0" encoding="UTF-8" standalone="no"?>
<!DOCTYPE svg PUBLIC "-//W3C//DTD SVG 1.1//EN"
 "http://www.w3.org/Graphics/SVG/1.1/DTD/svg11.dtd">
<!-- Generated by graphviz version 2.43.0 (0)
 -->
<!-- Title: engine/include/ie_engine.h Pages: 1 -->
<svg width="181pt" height="137pt"
 viewBox="0.00 0.00 181.00 137.00" xmlns="http://www.w3.org/2000/svg" xmlns:xlink="http://www.w3.org/1999/xlink">

<svg id="main" version="1.1" xmlns="http://www.w3.org/2000/svg" xmlns:xlink="http://www.w3.org/1999/xlink" xml:space="preserve" onload="init(evt)">
<style type="text/css"><![CDATA[
.node, .edge {opacity: 0.7;}
.node.selected, .edge.selected {opacity: 1;}
.edge:hover path { stroke: red; }
.edge:hover polygon { stroke: red; fill: red; }
]]></style>
<script type="application/ecmascript" xlink:href="svg.min.js"/>
<svg id="graph" class="graph">
<g id="graph0" class="graph" transform="scale(1 1) rotate(0) translate(4 133)">
<title>engine/include/ie_engine.h</title>
<!-- Node1 -->
<g id="Node000001" class="node">
<title>Node1</title>
<g id="a_Node000001"><a xlink:title="Public engine façade (compatibility shim).">
<polygon fill="#999999" stroke="#666666" points="147,-129 0,-129 0,-110 147,-110 147,-129"/>
<text text-anchor="middle" x="73.5" y="-117" font-family="Helvetica,sans-Serif" font-size="10.00">engine/include/ie_engine.h</text>
</a>
</g>
</g>
<!-- Node2 -->
<g id="Node000002" class="node">
<title>Node2</title>
<g id="a_Node000002"><a xlink:title=" ">
<polygon fill="#e0e0e0" stroke="#999999" points="109.5,-19 53.5,-19 53.5,0 109.5,0 109.5,-19"/>
<text text-anchor="middle" x="81.5" y="-7" font-family="Helvetica,sans-Serif" font-size="10.00">stddef.h</text>
</a>
</g>
</g>
<!-- Node1&#45;&gt;Node2 -->
<g id="edge1_Node000001_Node000002" class="edge">
<title>Node1&#45;&gt;Node2</title>
<g id="a_edge1_Node000001_Node000002"><a xlink:title=" ">
<path fill="none" stroke="#63b8ff" d="M62.67,-109.82C49.22,-97.91 29.02,-75.63 37.5,-55 42.31,-43.31 51.83,-33.05 60.8,-25.34"/>
<polygon fill="#63b8ff" stroke="#63b8ff" points="63.1,-27.98 68.72,-19 58.73,-22.51 63.1,-27.98"/>
</a>
</g>
</g>
<!-- Node3 -->
<g id="Node000003" class="node">
<title>Node3</title>
<g id="a_Node000003"><a xlink:title=" ">
<polygon fill="#e0e0e0" stroke="#999999" points="100,-74 47,-74 47,-55 100,-55 100,-74"/>
<text text-anchor="middle" x="73.5" y="-62" font-family="Helvetica,sans-Serif" font-size="10.00">stdint.h</text>
</a>
</g>
</g>
<!-- Node1&#45;&gt;Node3 -->
<g id="edge2_Node000001_Node000003" class="edge">
<title>Node1&#45;&gt;Node3</title>
<g id="a_edge2_Node000001_Node000003"><a xlink:title=" ">
<path fill="none" stroke="#63b8ff" d="M73.5,-109.75C73.5,-102.8 73.5,-92.85 73.5,-84.13"/>
<polygon fill="#63b8ff" stroke="#63b8ff" points="77,-84.09 73.5,-74.09 70,-84.09 77,-84.09"/>
</a>
</g>
</g>
<!-- Node4 -->
<g id="Node000004" class="node">
<title>Node4</title>
<g id="a_Node000004"><a xlink:href="ie__api_8h.html" target="_top" xlink:title="Public C API for creating an inference engine instance and generating tokens.">
<polygon fill="white" stroke="#666666" points="173,-74 118,-74 118,-55 173,-55 173,-74"/>
<text text-anchor="middle" x="145.5" y="-62" font-family="Helvetica,sans-Serif" font-size="10.00">ie_api.h</text>
</a>
</g>
</g>
<!-- Node1&#45;&gt;Node4 -->
<g id="edge3_Node000001_Node000004" class="edge">
<title>Node1&#45;&gt;Node4</title>
<g id="a_edge3_Node000001_Node000004"><a xlink:title=" ">
<path fill="none" stroke="#63b8ff" d="M85.07,-109.98C95.92,-102 112.38,-89.88 125.38,-80.31"/>
<polygon fill="#63b8ff" stroke="#63b8ff" points="127.74,-82.92 133.72,-74.17 123.59,-77.28 127.74,-82.92"/>
</a>
</g>
</g>
<!-- Node4&#45;&gt;Node2 -->
<g id="edge4_Node000004_Node000002" class="edge">
<title>Node4&#45;&gt;Node2</title>
<g id="a_edge4_Node000004_Node000002"><a xlink:title=" ">
<path fill="none" stroke="#63b8ff" d="M135.22,-54.98C125.66,-47.07 111.22,-35.11 99.72,-25.58"/>
<polygon fill="#63b8ff" stroke="#63b8ff" points="101.9,-22.85 91.97,-19.17 97.44,-28.24 101.9,-22.85"/>
</a>
</g>
</g>
</g>
</svg>
</svg>

<style type='text/css'>
<![CDATA[
[data-mouse-over-selected='false'] { opacity: 0.7; }
[data-mouse-over-selected='true']  { opacity: 1.0; }
]]>
</style>
<script type="application/ecmascript"><![CDATA[
document.addEventListener('DOMContentLoaded', (event) => {
  highlightEdges();
  highlightAdjacentNodes();
});
]]></script>
</svg>
