<?xml version="1.0" encoding="UTF-8" standalone="no"?>
<!DOCTYPE svg PUBLIC "-//W3C//DTD SVG 1.1//EN"
 "http://www.w3.org/Graphics/SVG/1.1/DTD/svg11.dtd">
<!-- Generated by graphviz version 2.43.0 (0)
 -->
<!-- Title: maybe_correct_head_dim_ Pages: 1 -->
<!--zoomable 521 -->

<svg id="main" version="1.1" xmlns="http://www.w3.org/2000/svg" xmlns:xlink="http://www.w3.org/1999/xlink" xml:space="preserve" onload="init(evt)">
<style type="text/css"><![CDATA[
.node, .edge {opacity: 0.7;}
.node.selected, .edge.selected {opacity: 1;}
.edge:hover path { stroke: red; }
.edge:hover polygon { stroke: red; fill: red; }
]]></style>

<defs>
  <circle id="rim" cx="0" cy="0" r="7"/>
  <circle id="rim2" cx="0" cy="0" r="3.5"/>
  <g id="zoomPlus">
    <use xlink:href="#rim" fill="#404040"><set attributeName="fill" to="#808080" begin="zoomplus.mouseover" end="zoomplus.mouseout"/></use>
    <path d="M-4,0h8M0,-4v8" fill="none" stroke="white" stroke-width="1.5" pointer-events="none"/>
  </g>
  <g id="zoomMin">
    <use xlink:href="#rim" fill="#404040"><set attributeName="fill" to="#808080" begin="zoomminus.mouseover" end="zoomminus.mouseout"/></use>
    <path d="M-4,0h8" fill="none" stroke="white" stroke-width="1.5" pointer-events="none"/>
  </g>
  <g id="arrowUp" transform="translate(30 24)">
    <use xlink:href="#rim"/>
    <path pointer-events="none" fill="none" stroke="white" stroke-width="1.5" d="M0,-3.0v7 M-2.5,-0.5L0,-3.0L2.5,-0.5"/>
  </g>
  <g id="arrowRight" transform="rotate(90) translate(36 -43)">
    <use xlink:href="#rim"/>
    <path pointer-events="none" fill="none" stroke="white" stroke-width="1.5" d="M0,-3.0v7 M-2.5,-0.5L0,-3.0L2.5,-0.5"/>
  </g>
  <g id="arrowDown" transform="rotate(180) translate(-30 -48)">
    <use xlink:href="#rim"/>
    <path pointer-events="none" fill="none" stroke="white" stroke-width="1.5" d="M0,-3.0v7 M-2.5,-0.5L0,-3.0L2.5,-0.5"/>
  </g>
  <g id="arrowLeft" transform="rotate(270) translate(-36 17)">
    <use xlink:href="#rim"/>
    <path pointer-events="none" fill="none" stroke="white" stroke-width="1.5" d="M0,-3.0v7 M-2.5,-0.5L0,-3.0L2.5,-0.5"/>
  </g>
  <g id="resetDef">
    <use xlink:href="#rim2" fill="#404040"><set attributeName="fill" to="#808080" begin="reset.mouseover" end="reset.mouseout"/></use>
  </g>
</defs>
<script type="application/ecmascript">
var viewWidth = 867;
var viewHeight = 521;
var sectionId = 'dynsection-27';
</script>
<script type="application/ecmascript" xlink:href="svg.min.js"/>
<svg id="graph" class="graph">
<g id="viewport">
<title>maybe_correct_head_dim_</title>
<!-- Node1 -->
<g id="Node000001" class="node">
<title>Node1</title>
<g id="a_Node000001"><a xlink:title=" ">
<polygon fill="#999999" stroke="#666666" points="148,-427 0,-427 0,-408 148,-408 148,-427"/>
<text text-anchor="middle" x="74" y="-415" font-family="Helvetica,sans-Serif" font-size="10.00">maybe_correct_head_dim_</text>
</a>
</g>
</g>
<!-- Node2 -->
<g id="Node000002" class="node">
<title>Node2</title>
<g id="a_Node000002"><a xlink:href="util__logging_8c.html#a760c448d737b236033d80eb69d83981f" target="_top" xlink:title="Log a warning message (printf&#45;style).">
<polygon fill="white" stroke="#666666" points="272,-507 197,-507 197,-488 272,-488 272,-507"/>
<text text-anchor="middle" x="234.5" y="-495" font-family="Helvetica,sans-Serif" font-size="10.00">ie_log_warn</text>
</a>
</g>
</g>
<!-- Node1&#45;&gt;Node2 -->
<g id="edge1_Node000001_Node000002" class="edge">
<title>Node1&#45;&gt;Node2</title>
<g id="a_edge1_Node000001_Node000002"><a xlink:title=" ">
<path fill="none" stroke="#63b8ff" d="M93.45,-427.14C115.07,-438.41 152.02,-457.54 184,-473.5 190.43,-476.71 197.36,-480.11 203.93,-483.3"/>
<polygon fill="#63b8ff" stroke="#63b8ff" points="202.69,-486.59 213.22,-487.8 205.74,-480.29 202.69,-486.59"/>
</a>
</g>
</g>
<!-- Node4 -->
<g id="Node000004" class="node">
<title>Node4</title>
<g id="a_Node000004"><a xlink:href="ie__api_8c.html#ae6802cc5e527fb41e298498690d14618" target="_top" xlink:title=" ">
<polygon fill="white" stroke="#666666" points="268,-464 201,-464 201,-445 268,-445 268,-464"/>
<text text-anchor="middle" x="234.5" y="-452" font-family="Helvetica,sans-Serif" font-size="10.00">join_path_</text>
</a>
</g>
</g>
<!-- Node1&#45;&gt;Node4 -->
<g id="edge3_Node000001_Node000004" class="edge">
<title>Node1&#45;&gt;Node4</title>
<g id="a_edge3_Node000001_Node000004"><a xlink:title=" ">
<path fill="none" stroke="#63b8ff" d="M115.82,-427.03C138.83,-432.4 167.54,-439.1 190.85,-444.54"/>
<polygon fill="#63b8ff" stroke="#63b8ff" points="190.27,-448 200.8,-446.87 191.86,-441.19 190.27,-448"/>
</a>
</g>
</g>
<!-- Node5 -->
<g id="Node000005" class="node">
<title>Node5</title>
<g id="a_Node000005"><a xlink:href="tensor__map_8c.html#abe58b80593931ffe5844ee4bcee805c5" target="_top" xlink:title="Find a tensor descriptor by exact name.">
<polygon fill="white" stroke="#666666" points="283.5,-427 185.5,-427 185.5,-408 283.5,-408 283.5,-427"/>
<text text-anchor="middle" x="234.5" y="-415" font-family="Helvetica,sans-Serif" font-size="10.00">tensor_map_find</text>
</a>
</g>
</g>
<!-- Node1&#45;&gt;Node5 -->
<g id="edge4_Node000001_Node000005" class="edge">
<title>Node1&#45;&gt;Node5</title>
<g id="a_edge4_Node000001_Node000005"><a xlink:title=" ">
<path fill="none" stroke="#63b8ff" d="M148.22,-417.5C157.31,-417.5 166.51,-417.5 175.34,-417.5"/>
<polygon fill="#63b8ff" stroke="#63b8ff" points="175.5,-421 185.5,-417.5 175.5,-414 175.5,-421"/>
</a>
</g>
</g>
<!-- Node6 -->
<g id="Node000006" class="node">
<title>Node6</title>
<g id="a_Node000006"><a xlink:href="tensor__map_8c.html#a42d154b3f93b07c41b514e468a61c803" target="_top" xlink:title="Free tensor map and all owned memory.">
<polygon fill="white" stroke="#666666" points="284,-390 185,-390 185,-371 284,-371 284,-390"/>
<text text-anchor="middle" x="234.5" y="-378" font-family="Helvetica,sans-Serif" font-size="10.00">tensor_map_free</text>
</a>
</g>
</g>
<!-- Node1&#45;&gt;Node6 -->
<g id="edge5_Node000001_Node000006" class="edge">
<title>Node1&#45;&gt;Node6</title>
<g id="a_edge5_Node000001_Node000006"><a xlink:title=" ">
<path fill="none" stroke="#63b8ff" d="M115.82,-407.97C136.17,-403.22 160.98,-397.43 182.56,-392.39"/>
<polygon fill="#63b8ff" stroke="#63b8ff" points="183.6,-395.74 192.55,-390.06 182.01,-388.93 183.6,-395.74"/>
</a>
</g>
</g>
<!-- Node7 -->
<g id="Node000007" class="node">
<title>Node7</title>
<g id="a_Node000007"><a xlink:href="tensor__map_8c.html#ac4b913e2710929070b5b073b4b67b24c" target="_top" xlink:title="Load tensor_map.json from disk.">
<polygon fill="white" stroke="#666666" points="285,-341 184,-341 184,-322 285,-322 285,-341"/>
<text text-anchor="middle" x="234.5" y="-329" font-family="Helvetica,sans-Serif" font-size="10.00">tensor_map_load</text>
</a>
</g>
</g>
<!-- Node1&#45;&gt;Node7 -->
<g id="edge6_Node000001_Node000007" class="edge">
<title>Node1&#45;&gt;Node7</title>
<g id="a_edge6_Node000001_Node000007"><a xlink:title=" ">
<path fill="none" stroke="#63b8ff" d="M92.57,-407.97C120.3,-392.92 174.39,-363.57 206.9,-345.93"/>
<polygon fill="#63b8ff" stroke="#63b8ff" points="208.73,-348.92 215.85,-341.07 205.39,-342.77 208.73,-348.92"/>
</a>
</g>
</g>
<!-- Node3 -->
<g id="Node000003" class="node">
<title>Node3</title>
<g id="a_Node000003"><a xlink:href="util__logging_8c.html#ac0a8abb7ed0f336e7d2a4a9eeac1e634" target="_top" xlink:title=" ">
<polygon fill="white" stroke="#666666" points="407,-513 350,-513 350,-494 407,-494 407,-513"/>
<text text-anchor="middle" x="378.5" y="-501" font-family="Helvetica,sans-Serif" font-size="10.00">ie_vlog_</text>
</a>
</g>
</g>
<!-- Node2&#45;&gt;Node3 -->
<g id="edge2_Node000002_Node000003" class="edge">
<title>Node2&#45;&gt;Node3</title>
<g id="a_edge2_Node000002_Node000003"><a xlink:title=" ">
<path fill="none" stroke="#63b8ff" d="M272.07,-499.05C292.74,-499.92 318.54,-501.01 339.45,-501.89"/>
<polygon fill="#63b8ff" stroke="#63b8ff" points="339.44,-505.39 349.58,-502.32 339.73,-498.4 339.44,-505.39"/>
</a>
</g>
</g>
<!-- Node8 -->
<g id="Node000008" class="node">
<title>Node8</title>
<g id="a_Node000008"><a xlink:href="tensor__map_8c.html#a3dae92b1c084251e956a5773e53869b5" target="_top" xlink:title="Parse a JSON string literal (minimal escape handling).">
<polygon fill="white" stroke="#666666" points="850,-418 773,-418 773,-399 850,-399 850,-418"/>
<text text-anchor="middle" x="811.5" y="-406" font-family="Helvetica,sans-Serif" font-size="10.00">parse_string</text>
</a>
</g>
</g>
<!-- Node7&#45;&gt;Node8 -->
<g id="edge7_Node000007_Node000008" class="edge">
<title>Node7&#45;&gt;Node8</title>
<g id="a_edge7_Node000007_Node000008"><a xlink:title=" ">
<path fill="none" stroke="#63b8ff" d="M253.96,-341.02C263.75,-346.55 275.66,-354.09 285,-362.5 304.29,-379.87 297.9,-396.66 321,-408.5 470.1,-484.92 679.87,-443.63 768.43,-420.61"/>
<polygon fill="#63b8ff" stroke="#63b8ff" points="769.35,-423.99 778.12,-418.04 767.55,-417.23 769.35,-423.99"/>
</a>
</g>
</g>
<!-- Node9 -->
<g id="Node000009" class="node">
<title>Node9</title>
<g id="a_Node000009"><a xlink:href="tensor__map_8c.html#a180580870bc40b8b36b78f81a1c26178" target="_top" xlink:title="Parse a tensor descriptor object.">
<polygon fill="white" stroke="#666666" points="436,-171 321,-171 321,-152 436,-152 436,-171"/>
<text text-anchor="middle" x="378.5" y="-159" font-family="Helvetica,sans-Serif" font-size="10.00">parse_tensor_object</text>
</a>
</g>
</g>
<!-- Node7&#45;&gt;Node9 -->
<g id="edge8_Node000007_Node000009" class="edge">
<title>Node7&#45;&gt;Node9</title>
<g id="a_edge8_Node000007_Node000009"><a xlink:title=" ">
<path fill="none" stroke="#63b8ff" d="M242.83,-321.79C257.35,-302.65 290.96,-258.85 321,-223.5 334.15,-208.02 349.74,-191.01 361.21,-178.73"/>
<polygon fill="#63b8ff" stroke="#63b8ff" points="363.79,-181.09 368.08,-171.4 358.69,-176.3 363.79,-181.09"/>
</a>
</g>
</g>
<!-- Node15 -->
<g id="Node000015" class="node">
<title>Node15</title>
<g id="a_Node000015"><a xlink:href="tensor__map_8c.html#ae19e0ad12742fe7fdff22f60436aadc7" target="_top" xlink:title="Skip ASCII whitespace in a JSON string.">
<polygon fill="white" stroke="#666666" points="839.5,-247 783.5,-247 783.5,-228 839.5,-228 839.5,-247"/>
<text text-anchor="middle" x="811.5" y="-235" font-family="Helvetica,sans-Serif" font-size="10.00">skip_ws</text>
</a>
</g>
</g>
<!-- Node7&#45;&gt;Node15 -->
<g id="edge38_Node000007_Node000015" class="edge">
<title>Node7&#45;&gt;Node15</title>
<g id="a_edge38_Node000007_Node000015"><a xlink:title=" ">
<path fill="none" stroke="#63b8ff" d="M245.82,-321.78C260.96,-308.2 290.68,-284.05 321,-273.5 481.73,-217.59 689.58,-227.01 773.22,-233.85"/>
<polygon fill="#63b8ff" stroke="#63b8ff" points="772.99,-237.34 783.26,-234.71 773.59,-230.37 772.99,-237.34"/>
</a>
</g>
</g>
<!-- Node16 -->
<g id="Node000016" class="node">
<title>Node16</title>
<g id="a_Node000016"><a xlink:href="tensor__map_8c.html#a751de8ccde16854a65c185afdfecfdbf" target="_top" xlink:title="Skip any JSON value (string/object/array/number/true/false/null).">
<polygon fill="white" stroke="#666666" points="561,-323 492,-323 492,-304 561,-304 561,-323"/>
<text text-anchor="middle" x="526.5" y="-311" font-family="Helvetica,sans-Serif" font-size="10.00">skip_value</text>
</a>
</g>
</g>
<!-- Node7&#45;&gt;Node16 -->
<g id="edge37_Node000007_Node000016" class="edge">
<title>Node7&#45;&gt;Node16</title>
<g id="a_edge37_Node000007_Node000016"><a xlink:title=" ">
<path fill="none" stroke="#63b8ff" d="M251.52,-341.07C268.2,-350.44 295.42,-364.07 321,-369.5 371,-380.11 386.87,-383.6 436,-369.5 462.85,-361.79 489.46,-343.41 506.59,-329.8"/>
<polygon fill="#63b8ff" stroke="#63b8ff" points="509.13,-332.24 514.64,-323.19 504.69,-326.83 509.13,-332.24"/>
</a>
</g>
</g>
<!-- Node17 -->
<g id="Node000017" class="node">
<title>Node17</title>
<g id="a_Node000017"><a xlink:href="tensor__map_8c.html#a86c69aef66f60185ab7bfe466d7eb1d3" target="_top" xlink:title="Skip a JSON array value.">
<polygon fill="white" stroke="#666666" points="706.5,-285 638.5,-285 638.5,-266 706.5,-266 706.5,-285"/>
<text text-anchor="middle" x="672.5" y="-273" font-family="Helvetica,sans-Serif" font-size="10.00">skip_array</text>
</a>
</g>
</g>
<!-- Node7&#45;&gt;Node17 -->
<g id="edge35_Node000007_Node000017" class="edge">
<title>Node7&#45;&gt;Node17</title>
<g id="a_edge35_Node000007_Node000017"><a xlink:title=" ">
<path fill="none" stroke="#63b8ff" d="M253.24,-321.91C270.13,-313.3 296.52,-301.17 321,-295.5 429.21,-270.42 560.99,-270.91 627.94,-273.28"/>
<polygon fill="#63b8ff" stroke="#63b8ff" points="627.98,-276.78 638.11,-273.67 628.25,-269.79 627.98,-276.78"/>
</a>
</g>
</g>
<!-- Node18 -->
<g id="Node000018" class="node">
<title>Node18</title>
<g id="a_Node000018"><a xlink:href="tensor__map_8c.html#a9e5190012370782147588f3b3b6a4886" target="_top" xlink:title="Skip a JSON object value.">
<polygon fill="white" stroke="#666666" points="708.5,-361 636.5,-361 636.5,-342 708.5,-342 708.5,-361"/>
<text text-anchor="middle" x="672.5" y="-349" font-family="Helvetica,sans-Serif" font-size="10.00">skip_object</text>
</a>
</g>
</g>
<!-- Node7&#45;&gt;Node18 -->
<g id="edge36_Node000007_Node000018" class="edge">
<title>Node7&#45;&gt;Node18</title>
<g id="a_edge36_Node000007_Node000018"><a xlink:title=" ">
<path fill="none" stroke="#63b8ff" d="M251.23,-341.09C261.02,-347.12 273.83,-355.13 285,-362.5 301.26,-373.23 302.41,-381.68 321,-387.5 432.1,-422.29 571.73,-385.46 636.06,-364.26"/>
<polygon fill="#63b8ff" stroke="#63b8ff" points="637.36,-367.52 645.72,-361.01 635.13,-360.88 637.36,-367.52"/>
</a>
</g>
</g>
<!-- Node19 -->
<g id="Node000019" class="node">
<title>Node19</title>
<g id="a_Node000019"><a xlink:href="tensor__map_8c.html#aa6b53de7ce006a1a2877e2b19ad8ce24" target="_top" xlink:title="Free owned fields of a tensor descriptor and reset it.">
<polygon fill="white" stroke="#666666" points="576.5,-19 476.5,-19 476.5,0 576.5,0 576.5,-19"/>
<text text-anchor="middle" x="526.5" y="-7" font-family="Helvetica,sans-Serif" font-size="10.00">tensor_desc_free</text>
</a>
</g>
</g>
<!-- Node7&#45;&gt;Node19 -->
<g id="edge39_Node000007_Node000019" class="edge">
<title>Node7&#45;&gt;Node19</title>
<g id="a_edge39_Node000007_Node000019"><a xlink:title=" ">
<path fill="none" stroke="#63b8ff" d="M237.95,-321.93C245.84,-292.51 272.94,-201.83 321,-142.5 373.43,-77.78 399.39,-72.31 472,-31.5 477.52,-28.4 483.56,-25.49 489.53,-22.87"/>
<polygon fill="#63b8ff" stroke="#63b8ff" points="490.9,-26.09 498.78,-19 488.2,-19.64 490.9,-26.09"/>
</a>
</g>
</g>
<!-- Node21 -->
<g id="Node000021" class="node">
<title>Node21</title>
<g id="a_Node000021"><a xlink:href="tensor__map_8c.html#a87fc763c39a4a64f091406e88b1c640e" target="_top" xlink:title="Append a tensor descriptor to a growable array.">
<polygon fill="white" stroke="#666666" points="416.5,-360 340.5,-360 340.5,-341 416.5,-341 416.5,-360"/>
<text text-anchor="middle" x="378.5" y="-348" font-family="Helvetica,sans-Serif" font-size="10.00">push_tensor</text>
</a>
</g>
</g>
<!-- Node7&#45;&gt;Node21 -->
<g id="edge33_Node000007_Node000021" class="edge">
<title>Node7&#45;&gt;Node21</title>
<g id="a_edge33_Node000007_Node000021"><a xlink:title=" ">
<path fill="none" stroke="#63b8ff" d="M285.16,-338.15C299.71,-340.09 315.57,-342.21 329.98,-344.14"/>
<polygon fill="#63b8ff" stroke="#63b8ff" points="329.8,-347.65 340.17,-345.51 330.73,-340.71 329.8,-347.65"/>
</a>
</g>
</g>
<!-- Node22 -->
<g id="Node000022" class="node">
<title>Node22</title>
<g id="a_Node000022"><a xlink:href="tensor__map_8c.html#a9ab7221db47755779150a9cc3c374b8f" target="_top" xlink:title="Read an entire file into a NUL&#45;terminated buffer.">
<polygon fill="white" stroke="#666666" points="408,-323 349,-323 349,-304 408,-304 408,-323"/>
<text text-anchor="middle" x="378.5" y="-311" font-family="Helvetica,sans-Serif" font-size="10.00">read_file</text>
</a>
</g>
</g>
<!-- Node7&#45;&gt;Node22 -->
<g id="edge34_Node000007_Node000022" class="edge">
<title>Node7&#45;&gt;Node22</title>
<g id="a_edge34_Node000007_Node000022"><a xlink:title=" ">
<path fill="none" stroke="#63b8ff" d="M285.16,-325.2C302.62,-322.99 321.96,-320.54 338.42,-318.45"/>
<polygon fill="#63b8ff" stroke="#63b8ff" points="339.29,-321.87 348.77,-317.14 338.41,-314.93 339.29,-321.87"/>
</a>
</g>
</g>
<!-- Node9&#45;&gt;Node8 -->
<g id="edge16_Node000009_Node000008" class="edge">
<title>Node9&#45;&gt;Node8</title>
<g id="a_edge16_Node000009_Node000008"><a xlink:title=" ">
<path fill="none" stroke="#63b8ff" d="M382.37,-171.39C391.14,-200.05 420.19,-284.13 472,-332.5 552.36,-407.52 690.2,-414.2 762.71,-411.85"/>
<polygon fill="#63b8ff" stroke="#63b8ff" points="763.07,-415.34 772.92,-411.45 762.79,-408.35 763.07,-415.34"/>
</a>
</g>
</g>
<!-- Node10 -->
<g id="Node000010" class="node">
<title>Node10</title>
<g id="a_Node000010"><a xlink:href="tensor__map_8c.html#a86b10318f8d32a99fd516d382b211913" target="_top" xlink:title="Parse dtype string into tensor_dtype_t.">
<polygon fill="white" stroke="#666666" points="565,-95 488,-95 488,-76 565,-76 565,-95"/>
<text text-anchor="middle" x="526.5" y="-83" font-family="Helvetica,sans-Serif" font-size="10.00">parse_dtype</text>
</a>
</g>
</g>
<!-- Node9&#45;&gt;Node10 -->
<g id="edge9_Node000009_Node000010" class="edge">
<title>Node9&#45;&gt;Node10</title>
<g id="a_edge9_Node000009_Node000010"><a xlink:title=" ">
<path fill="none" stroke="#63b8ff" d="M395.63,-151.84C413.91,-141.04 444.69,-123.27 472,-109.5 478.87,-106.03 486.36,-102.52 493.49,-99.29"/>
<polygon fill="#63b8ff" stroke="#63b8ff" points="495.19,-102.36 502.9,-95.1 492.34,-95.97 495.19,-102.36"/>
</a>
</g>
</g>
<!-- Node13 -->
<g id="Node000013" class="node">
<title>Node13</title>
<g id="a_Node000013"><a xlink:href="tensor__map_8c.html#a018b3eeeb442114239c9d39d309af8d0" target="_top" xlink:title="Parse a JSON array of integers into a shape array.">
<polygon fill="white" stroke="#666666" points="581,-171 472,-171 472,-152 581,-152 581,-171"/>
<text text-anchor="middle" x="526.5" y="-159" font-family="Helvetica,sans-Serif" font-size="10.00">parse_shape_array</text>
</a>
</g>
</g>
<!-- Node9&#45;&gt;Node13 -->
<g id="edge12_Node000009_Node000013" class="edge">
<title>Node9&#45;&gt;Node13</title>
<g id="a_edge12_Node000009_Node000013"><a xlink:title=" ">
<path fill="none" stroke="#63b8ff" d="M436.37,-161.5C444.68,-161.5 453.28,-161.5 461.72,-161.5"/>
<polygon fill="#63b8ff" stroke="#63b8ff" points="461.9,-165 471.9,-161.5 461.9,-158 461.9,-165"/>
</a>
</g>
</g>
<!-- Node14 -->
<g id="Node000014" class="node">
<title>Node14</title>
<g id="a_Node000014"><a xlink:href="tensor__map_8c.html#a532a65d5913530d35874854778a4b444" target="_top" xlink:title="Parse an unsigned decimal integer.">
<polygon fill="white" stroke="#666666" points="706,-209 639,-209 639,-190 706,-190 706,-209"/>
<text text-anchor="middle" x="672.5" y="-197" font-family="Helvetica,sans-Serif" font-size="10.00">parse_u64</text>
</a>
</g>
</g>
<!-- Node9&#45;&gt;Node14 -->
<g id="edge17_Node000009_Node000014" class="edge">
<title>Node9&#45;&gt;Node14</title>
<g id="a_edge17_Node000009_Node000014"><a xlink:title=" ">
<path fill="none" stroke="#63b8ff" d="M421.23,-171.07C437.06,-174.43 455.3,-178 472,-180.5 525.81,-188.56 588.33,-193.87 628.83,-196.77"/>
<polygon fill="#63b8ff" stroke="#63b8ff" points="628.67,-200.27 638.89,-197.48 629.16,-193.29 628.67,-200.27"/>
</a>
</g>
</g>
<!-- Node9&#45;&gt;Node15 -->
<g id="edge29_Node000009_Node000015" class="edge">
<title>Node9&#45;&gt;Node15</title>
<g id="a_edge29_Node000009_Node000015"><a xlink:title=" ">
<path fill="none" stroke="#63b8ff" d="M412.44,-151.98C476.69,-135.31 621.71,-107.03 728,-156.5 758.16,-170.54 783.85,-200.35 798.22,-219.63"/>
<polygon fill="#63b8ff" stroke="#63b8ff" points="795.48,-221.82 804.16,-227.89 801.16,-217.73 795.48,-221.82"/>
</a>
</g>
</g>
<!-- Node9&#45;&gt;Node16 -->
<g id="edge18_Node000009_Node000016" class="edge">
<title>Node9&#45;&gt;Node16</title>
<g id="a_edge18_Node000009_Node000016"><a xlink:title=" ">
<path fill="none" stroke="#63b8ff" d="M388.63,-171.01C412.8,-196.17 478.69,-264.76 509.37,-296.71"/>
<polygon fill="#63b8ff" stroke="#63b8ff" points="506.92,-299.21 516.37,-304 511.97,-294.36 506.92,-299.21"/>
</a>
</g>
</g>
<!-- Node9&#45;&gt;Node19 -->
<g id="edge30_Node000009_Node000019" class="edge">
<title>Node9&#45;&gt;Node19</title>
<g id="a_edge30_Node000009_Node000019"><a xlink:title=" ">
<path fill="none" stroke="#63b8ff" d="M386.26,-151.86C406.63,-122.86 466.37,-38.09 472,-33.5 476.7,-29.67 482.11,-26.32 487.65,-23.44"/>
<polygon fill="#63b8ff" stroke="#63b8ff" points="489.44,-26.47 496.98,-19.03 486.44,-20.14 489.44,-26.47"/>
</a>
</g>
</g>
<!-- Node20 -->
<g id="Node000020" class="node">
<title>Node20</title>
<g id="a_Node000020"><a xlink:href="tensor__map_8c.html#abce6e7f7fc0bc9c46436c0d41c8a72ae" target="_top" xlink:title="Zero&#45;initialize a tensor descriptor.">
<polygon fill="white" stroke="#666666" points="723,-38 622,-38 622,-19 723,-19 723,-38"/>
<text text-anchor="middle" x="672.5" y="-26" font-family="Helvetica,sans-Serif" font-size="10.00">tensor_desc_zero</text>
</a>
</g>
</g>
<!-- Node9&#45;&gt;Node20 -->
<g id="edge32_Node000009_Node000020" class="edge">
<title>Node9&#45;&gt;Node20</title>
<g id="a_edge32_Node000009_Node000020"><a xlink:title=" ">
<path fill="none" stroke="#63b8ff" d="M385.81,-151.81C399.15,-132.21 432.26,-87.87 472,-66.5 515.08,-43.33 570.06,-34.11 611.39,-30.53"/>
<polygon fill="#63b8ff" stroke="#63b8ff" points="611.89,-34 621.59,-29.74 611.35,-27.02 611.89,-34"/>
</a>
</g>
</g>
<!-- Node11 -->
<g id="Node000011" class="node">
<title>Node11</title>
<g id="a_Node000011"><a xlink:href="tensor__map_8c.html#a935215259f1e01927022c50c39b8f197" target="_top" xlink:title="Case&#45;insensitive ASCII equality for short identifiers.">
<polygon fill="white" stroke="#666666" points="728,-95 617,-95 617,-76 728,-76 728,-95"/>
<text text-anchor="middle" x="672.5" y="-83" font-family="Helvetica,sans-Serif" font-size="10.00">ie_streq_case_ascii</text>
</a>
</g>
</g>
<!-- Node10&#45;&gt;Node11 -->
<g id="edge10_Node000010_Node000011" class="edge">
<title>Node10&#45;&gt;Node11</title>
<g id="a_edge10_Node000010_Node000011"><a xlink:title=" ">
<path fill="none" stroke="#63b8ff" d="M565.33,-85.5C578.01,-85.5 592.52,-85.5 606.66,-85.5"/>
<polygon fill="#63b8ff" stroke="#63b8ff" points="606.86,-89 616.86,-85.5 606.86,-82 606.86,-89"/>
</a>
</g>
</g>
<!-- Node12 -->
<g id="Node000012" class="node">
<title>Node12</title>
<g id="a_Node000012"><a xlink:href="tensor__map_8c.html#a16fd8cdfb13d3c08166460f7c2e6d7b2" target="_top" xlink:title="Lowercase ASCII character without locale effects.">
<polygon fill="white" stroke="#666666" points="859,-95 764,-95 764,-76 859,-76 859,-95"/>
<text text-anchor="middle" x="811.5" y="-83" font-family="Helvetica,sans-Serif" font-size="10.00">ie_tolower_ascii</text>
</a>
</g>
</g>
<!-- Node11&#45;&gt;Node12 -->
<g id="edge11_Node000011_Node000012" class="edge">
<title>Node11&#45;&gt;Node12</title>
<g id="a_edge11_Node000011_Node000012"><a xlink:title=" ">
<path fill="none" stroke="#63b8ff" d="M728.04,-85.5C736.42,-85.5 745.09,-85.5 753.53,-85.5"/>
<polygon fill="#63b8ff" stroke="#63b8ff" points="753.66,-89 763.66,-85.5 753.66,-82 753.66,-89"/>
</a>
</g>
</g>
<!-- Node13&#45;&gt;Node14 -->
<g id="edge13_Node000013_Node000014" class="edge">
<title>Node13&#45;&gt;Node14</title>
<g id="a_edge13_Node000013_Node000014"><a xlink:title=" ">
<path fill="none" stroke="#63b8ff" d="M563.84,-171.09C583.6,-176.3 608.16,-182.78 628.83,-188.24"/>
<polygon fill="#63b8ff" stroke="#63b8ff" points="628.06,-191.66 638.62,-190.82 629.85,-184.89 628.06,-191.66"/>
</a>
</g>
</g>
<!-- Node13&#45;&gt;Node15 -->
<g id="edge15_Node000013_Node000015" class="edge">
<title>Node13&#45;&gt;Node15</title>
<g id="a_edge15_Node000013_Node000015"><a xlink:title=" ">
<path fill="none" stroke="#63b8ff" d="M581,-159.77C622.32,-160.09 680.31,-164.21 728,-181.5 752.44,-190.36 776.6,-208.1 792.39,-221.25"/>
<polygon fill="#63b8ff" stroke="#63b8ff" points="790.39,-224.14 800.26,-228 794.95,-218.83 790.39,-224.14"/>
</a>
</g>
</g>
<!-- Node14&#45;&gt;Node15 -->
<g id="edge14_Node000014_Node000015" class="edge">
<title>Node14&#45;&gt;Node15</title>
<g id="a_edge14_Node000014_Node000015"><a xlink:title=" ">
<path fill="none" stroke="#63b8ff" d="M706.31,-208.6C726.59,-214.22 752.65,-221.45 773.63,-227.27"/>
<polygon fill="#63b8ff" stroke="#63b8ff" points="772.9,-230.7 783.48,-230 774.77,-223.96 772.9,-230.7"/>
</a>
</g>
</g>
<!-- Node16&#45;&gt;Node8 -->
<g id="edge19_Node000016_Node000008" class="edge">
<title>Node16&#45;&gt;Node8</title>
<g id="a_edge19_Node000016_Node000008"><a xlink:title=" ">
<path fill="none" stroke="#63b8ff" d="M539.44,-323.19C555.88,-336.03 586.9,-358.46 617,-370.5 664.66,-389.57 722.88,-399.33 762.93,-404.15"/>
<polygon fill="#63b8ff" stroke="#63b8ff" points="762.62,-407.64 772.96,-405.3 763.42,-400.69 762.62,-407.64"/>
</a>
</g>
</g>
<!-- Node16&#45;&gt;Node14 -->
<g id="edge20_Node000016_Node000014" class="edge">
<title>Node16&#45;&gt;Node14</title>
<g id="a_edge20_Node000016_Node000014"><a xlink:title=" ">
<path fill="none" stroke="#63b8ff" d="M539.78,-303.78C564.54,-284.18 620.69,-239.73 651.07,-215.68"/>
<polygon fill="#63b8ff" stroke="#63b8ff" points="653.59,-218.15 659.25,-209.19 649.24,-212.66 653.59,-218.15"/>
</a>
</g>
</g>
<!-- Node16&#45;&gt;Node15 -->
<g id="edge28_Node000016_Node000015" class="edge">
<title>Node16&#45;&gt;Node15</title>
<g id="a_edge28_Node000016_Node000015"><a xlink:title=" ">
<path fill="none" stroke="#63b8ff" d="M561.27,-315.4C602.06,-316.56 672.15,-314.86 728,-294.5 752.57,-285.55 776.7,-267.48 792.46,-254.07"/>
<polygon fill="#63b8ff" stroke="#63b8ff" points="795.09,-256.42 800.3,-247.19 790.47,-251.16 795.09,-256.42"/>
</a>
</g>
</g>
<!-- Node16&#45;&gt;Node17 -->
<g id="edge21_Node000016_Node000017" class="edge">
<title>Node16&#45;&gt;Node17</title>
<g id="a_edge21_Node000016_Node000017"><a xlink:title=" ">
<path fill="none" stroke="#63b8ff" d="M546.03,-303.91C566.8,-296.37 601.17,-286.8 628.69,-280.57"/>
<polygon fill="#63b8ff" stroke="#63b8ff" points="629.45,-283.98 638.48,-278.43 627.96,-277.14 629.45,-283.98"/>
</a>
</g>
</g>
<!-- Node16&#45;&gt;Node18 -->
<g id="edge24_Node000016_Node000018" class="edge">
<title>Node16&#45;&gt;Node18</title>
<g id="a_edge24_Node000016_Node000018"><a xlink:title=" ">
<path fill="none" stroke="#63b8ff" d="M561.26,-316.59C586.17,-321.82 619.68,-330.77 643.2,-338.54"/>
<polygon fill="#63b8ff" stroke="#63b8ff" points="642.32,-341.94 652.92,-341.89 644.61,-335.32 642.32,-341.94"/>
</a>
</g>
</g>
<!-- Node17&#45;&gt;Node15 -->
<g id="edge23_Node000017_Node000015" class="edge">
<title>Node17&#45;&gt;Node15</title>
<g id="a_edge23_Node000017_Node000015"><a xlink:title=" ">
<path fill="none" stroke="#63b8ff" d="M706.66,-266.3C726.81,-260.71 752.57,-253.57 773.39,-247.79"/>
<polygon fill="#63b8ff" stroke="#63b8ff" points="774.47,-251.13 783.17,-245.08 772.6,-244.38 774.47,-251.13"/>
</a>
</g>
</g>
<!-- Node17&#45;&gt;Node16 -->
<g id="edge22_Node000017_Node000016" class="edge">
<title>Node17&#45;&gt;Node16</title>
<g id="a_edge22_Node000017_Node000016"><a xlink:title=" ">
<path fill="none" stroke="#63b8ff" d="M652.92,-285.11C632.41,-292.54 598.69,-301.96 571.38,-308.19"/>
<polygon fill="#63b8ff" stroke="#63b8ff" points="570.28,-304.85 561.26,-310.41 571.78,-311.69 570.28,-304.85"/>
</a>
</g>
</g>
<!-- Node18&#45;&gt;Node8 -->
<g id="edge25_Node000018_Node000008" class="edge">
<title>Node18&#45;&gt;Node8</title>
<g id="a_edge25_Node000018_Node000008"><a xlink:title=" ">
<path fill="none" stroke="#63b8ff" d="M696.43,-361.04C718.76,-370.33 752.9,-384.54 778.02,-394.99"/>
<polygon fill="#63b8ff" stroke="#63b8ff" points="776.92,-398.32 787.49,-398.93 779.61,-391.86 776.92,-398.32"/>
</a>
</g>
</g>
<!-- Node18&#45;&gt;Node15 -->
<g id="edge27_Node000018_Node000015" class="edge">
<title>Node18&#45;&gt;Node15</title>
<g id="a_edge27_Node000018_Node000015"><a xlink:title=" ">
<path fill="none" stroke="#63b8ff" d="M701.02,-341.99C710.05,-338.2 719.85,-333.34 728,-327.5 756.69,-306.94 782.96,-275.05 797.82,-255.27"/>
<polygon fill="#63b8ff" stroke="#63b8ff" points="800.71,-257.25 803.81,-247.12 795.07,-253.1 800.71,-257.25"/>
</a>
</g>
</g>
<!-- Node18&#45;&gt;Node16 -->
<g id="edge26_Node000018_Node000016" class="edge">
<title>Node18&#45;&gt;Node16</title>
<g id="a_edge26_Node000018_Node000016"><a xlink:title=" ">
<path fill="none" stroke="#63b8ff" d="M636.22,-348.09C611.39,-342.8 578.62,-334.01 555.57,-326.39"/>
<polygon fill="#63b8ff" stroke="#63b8ff" points="556.63,-323.05 546.03,-323.09 554.34,-329.66 556.63,-323.05"/>
</a>
</g>
</g>
<!-- Node19&#45;&gt;Node20 -->
<g id="edge31_Node000019_Node000020" class="edge">
<title>Node19&#45;&gt;Node20</title>
<g id="a_edge31_Node000019_Node000020"><a xlink:title=" ">
<path fill="none" stroke="#63b8ff" d="M576.65,-15.99C587.87,-17.47 599.91,-19.05 611.53,-20.59"/>
<polygon fill="#63b8ff" stroke="#63b8ff" points="611.22,-24.08 621.59,-21.91 612.13,-17.14 611.22,-24.08"/>
</a>
</g>
</g>
</g>
</svg>

<g id="navigator" transform="translate(0 0)" fill="#404254">
  <rect fill="#f2f5e9" fill-opacity="0.5" stroke="#606060" stroke-width=".5" x="0" y="0" width="60" height="60"/>
  <use id="zoomplus" xlink:href="#zoomPlus" x="17" y="9" onmousedown="handleZoom(evt,'in')"/>
  <use id="zoomminus" xlink:href="#zoomMin" x="42" y="9" onmousedown="handleZoom(evt,'out')"/>
  <use id="reset" xlink:href="#resetDef" x="30" y="36" onmousedown="handleReset()"/>
   <use id="arrowup" xlink:href="#arrowUp" x="0" y="0" onmousedown="handlePan(0,-1)"/>
  <use id="arrowright" xlink:href="#arrowRight" x="0" y="0" onmousedown="handlePan(1,0)"/>
  <use id="arrowdown" xlink:href="#arrowDown" x="0" y="0" onmousedown="handlePan(0,1)"/>
  <use id="arrowleft" xlink:href="#arrowLeft" x="0" y="0" onmousedown="handlePan(-1,0)"/>
</g>
<svg viewBox="0 0 15 15" width="100%" height="30px" preserveAspectRatio="xMaxYMin meet">
 <g id="arrow_out" transform="scale(0.3 0.3)">
  <a xlink:href="ie__api_8c_a037b105c112037bdbc1725c6c88fd1ff_cgraph_org.svg" target="_base">
   <rect id="button" ry="5" rx="5" y="6" x="6" height="38" width="38"
        fill="#f2f5e9" fill-opacity="0.5" stroke="#606060" stroke-width="1.0"/>
   <path id="arrow"
     d="M 11.500037,31.436501 C 11.940474,20.09759 22.043105,11.32322 32.158766,21.979434 L 37.068811,17.246167 C 37.068811,17.246167 37.088388,32 37.088388,32 L 22.160133,31.978069 C 22.160133,31.978069 26.997745,27.140456 26.997745,27.140456 C 18.528582,18.264221 13.291696,25.230495 11.500037,31.436501 z"
     style="fill:#404040;"/>
  </a>
 </g>
</svg>

<style type='text/css'>
<![CDATA[
[data-mouse-over-selected='false'] { opacity: 0.7; }
[data-mouse-over-selected='true']  { opacity: 1.0; }
]]>
</style>
<script type="application/ecmascript"><![CDATA[
document.addEventListener('DOMContentLoaded', (event) => {
  highlightEdges();
  highlightAdjacentNodes();
});
]]></script>
</svg>
