<?xml version="1.0" encoding="UTF-8" standalone="no"?>
<!DOCTYPE svg PUBLIC "-//W3C//DTD SVG 1.1//EN"
 "http://www.w3.org/Graphics/SVG/1.1/DTD/svg11.dtd">
<!-- Generated by graphviz version 2.43.0 (0)
 -->
<!-- Title: ie_cuda_memcpy Pages: 1 -->
<svg width="755pt" height="134pt"
 viewBox="0.00 0.00 755.00 134.00" xmlns="http://www.w3.org/2000/svg" xmlns:xlink="http://www.w3.org/1999/xlink">
<g id="graph0" class="graph" transform="scale(1 1) rotate(0) translate(4 130)">
<title>ie_cuda_memcpy</title>
<!-- Node1 -->
<g id="Node000001" class="node">
<title>Node1</title>
<g id="a_Node000001"><a xlink:title="Copy memory using CUDA.">
<polygon fill="#999999" stroke="#666666" points="747,-62 645,-62 645,-43 747,-43 747,-62"/>
<text text-anchor="middle" x="696" y="-50" font-family="Helvetica,sans-Serif" font-size="10.00">ie_cuda_memcpy</text>
</a>
</g>
</g>
<!-- Node2 -->
<g id="Node000002" class="node">
<title>Node2</title>
<g id="a_Node000002"><a xlink:href="ie__device__common_8c.html#a10d98754f37925ce0fd653a011fc9d47" target="_top" xlink:title="CUDA GEMV FP32 implementation.">
<polygon fill="white" stroke="#666666" points="609,-105 482,-105 482,-86 609,-86 609,-105"/>
<text text-anchor="middle" x="545.5" y="-93" font-family="Helvetica,sans-Serif" font-size="10.00">cuda_gemv_f32_thunk</text>
</a>
</g>
</g>
<!-- Node1&#45;&gt;Node2 -->
<g id="edge1_Node000001_Node000002" class="edge">
<title>Node1&#45;&gt;Node2</title>
<g id="a_edge1_Node000001_Node000002"><a xlink:title=" ">
<path fill="none" stroke="#63b8ff" d="M652.43,-64.83C629.2,-71.55 600.88,-79.75 579.36,-85.98"/>
<polygon fill="#63b8ff" stroke="#63b8ff" points="653.41,-68.19 662.04,-62.04 651.46,-61.46 653.41,-68.19"/>
</a>
</g>
</g>
<!-- Node11 -->
<g id="Node000011" class="node">
<title>Node11</title>
<g id="a_Node000011"><a xlink:href="ie__device__common_8c.html#ab97116893ac6fb20f32aaf7462a13b50" target="_top" xlink:title="CUDA GEMV Q4_0 implementation.">
<polygon fill="white" stroke="#666666" points="606.5,-67.5 484.5,-67.5 484.5,-37.5 606.5,-37.5 606.5,-67.5"/>
<text text-anchor="start" x="492.5" y="-55.5" font-family="Helvetica,sans-Serif" font-size="10.00">cuda_gemv_q4_0_f32</text>
<text text-anchor="middle" x="545.5" y="-44.5" font-family="Helvetica,sans-Serif" font-size="10.00">_thunk</text>
</a>
</g>
</g>
<!-- Node1&#45;&gt;Node11 -->
<g id="edge11_Node000001_Node000011" class="edge">
<title>Node1&#45;&gt;Node11</title>
<g id="a_edge11_Node000001_Node000011"><a xlink:title=" ">
<path fill="none" stroke="#63b8ff" d="M634.53,-52.5C625.36,-52.5 615.91,-52.5 606.75,-52.5"/>
<polygon fill="#63b8ff" stroke="#63b8ff" points="634.72,-56 644.72,-52.5 634.72,-49 634.72,-56"/>
</a>
</g>
</g>
<!-- Node12 -->
<g id="Node000012" class="node">
<title>Node12</title>
<g id="a_Node000012"><a xlink:href="ie__device__common_8c.html#a3e7e82d7cc2da1e044d74015a6ac37cd" target="_top" xlink:title="CUDA memcpy implementation using the CUDA wrapper.">
<polygon fill="white" stroke="#666666" points="606,-19 485,-19 485,0 606,0 606,-19"/>
<text text-anchor="middle" x="545.5" y="-7" font-family="Helvetica,sans-Serif" font-size="10.00">cuda_memcpy_thunk</text>
</a>
</g>
</g>
<!-- Node1&#45;&gt;Node12 -->
<g id="edge13_Node000001_Node000012" class="edge">
<title>Node1&#45;&gt;Node12</title>
<g id="a_edge13_Node000001_Node000012"><a xlink:title=" ">
<path fill="none" stroke="#63b8ff" d="M652.43,-40.17C629.2,-33.45 600.88,-25.25 579.36,-19.02"/>
<polygon fill="#63b8ff" stroke="#63b8ff" points="651.46,-43.54 662.04,-42.96 653.41,-36.81 651.46,-43.54"/>
</a>
</g>
</g>
<!-- Node3 -->
<g id="Node000003" class="node">
<title>Node3</title>
<g id="a_Node000003"><a xlink:href="ie__device__common_8c.html#ae4ac15a3b8fea25568b8cdeb2cd781fe" target="_top" xlink:title="Initialize CUDA backend.">
<polygon fill="white" stroke="#666666" points="446,-62 351,-62 351,-43 446,-43 446,-62"/>
<text text-anchor="middle" x="398.5" y="-50" font-family="Helvetica,sans-Serif" font-size="10.00">cuda_try_create</text>
</a>
</g>
</g>
<!-- Node2&#45;&gt;Node3 -->
<g id="edge2_Node000002_Node000003" class="edge">
<title>Node2&#45;&gt;Node3</title>
<g id="a_edge2_Node000002_Node000003"><a xlink:title=" ">
<path fill="none" stroke="#63b8ff" d="M502.63,-83.08C480.01,-76.37 452.5,-68.22 431.59,-62.02"/>
<polygon fill="#63b8ff" stroke="#63b8ff" points="501.74,-86.47 512.32,-85.96 503.73,-79.76 501.74,-86.47"/>
</a>
</g>
</g>
<!-- Node4 -->
<g id="Node000004" class="node">
<title>Node4</title>
<g id="a_Node000004"><a xlink:href="ie__device__common_8c.html#a3e42fcc4b9579a9bf14520cb1afe733b" target="_top" xlink:title="Create a device handle for the requested kind (with fallback).">
<polygon fill="white" stroke="#666666" points="315,-62 216,-62 216,-43 315,-43 315,-62"/>
<text text-anchor="middle" x="265.5" y="-50" font-family="Helvetica,sans-Serif" font-size="10.00">ie_device_create</text>
</a>
</g>
</g>
<!-- Node3&#45;&gt;Node4 -->
<g id="edge3_Node000003_Node000004" class="edge">
<title>Node3&#45;&gt;Node4</title>
<g id="a_edge3_Node000003_Node000004"><a xlink:title=" ">
<path fill="none" stroke="#63b8ff" d="M340.69,-52.5C332.17,-52.5 323.45,-52.5 315.12,-52.5"/>
<polygon fill="#63b8ff" stroke="#63b8ff" points="340.95,-56 350.95,-52.5 340.95,-49 340.95,-56"/>
</a>
</g>
</g>
<!-- Node5 -->
<g id="Node000005" class="node">
<title>Node5</title>
<g id="a_Node000005"><a xlink:href="ie__api_8c.html#a84bd87043352946e9d53b0f8a5c4abe0" target="_top" xlink:title="Create an engine instance.">
<polygon fill="white" stroke="#666666" points="178.5,-99 78.5,-99 78.5,-80 178.5,-80 178.5,-99"/>
<text text-anchor="middle" x="128.5" y="-87" font-family="Helvetica,sans-Serif" font-size="10.00">ie_engine_create</text>
</a>
</g>
</g>
<!-- Node4&#45;&gt;Node5 -->
<g id="edge4_Node000004_Node000005" class="edge">
<title>Node4&#45;&gt;Node5</title>
<g id="a_edge4_Node000004_Node000005"><a xlink:title=" ">
<path fill="none" stroke="#63b8ff" d="M220.03,-64.69C202.03,-69.62 181.54,-75.24 164.62,-79.88"/>
<polygon fill="#63b8ff" stroke="#63b8ff" points="221.01,-68.05 229.73,-62.03 219.16,-61.3 221.01,-68.05"/>
</a>
</g>
</g>
<!-- Node8 -->
<g id="Node000008" class="node">
<title>Node8</title>
<g id="a_Node000008"><a xlink:href="test__device_8c.html#a7b62f3db43117555c60ec59d19c7c8d6" target="_top" xlink:title="Verify CPU device exposes GEMV capability.">
<polygon fill="white" stroke="#666666" points="171.5,-62 85.5,-62 85.5,-43 171.5,-43 171.5,-62"/>
<text text-anchor="middle" x="128.5" y="-50" font-family="Helvetica,sans-Serif" font-size="10.00">test_cpu_caps</text>
</a>
</g>
</g>
<!-- Node4&#45;&gt;Node8 -->
<g id="edge7_Node000004_Node000008" class="edge">
<title>Node4&#45;&gt;Node8</title>
<g id="a_edge7_Node000004_Node000008"><a xlink:title=" ">
<path fill="none" stroke="#63b8ff" d="M205.51,-52.5C194.2,-52.5 182.57,-52.5 171.91,-52.5"/>
<polygon fill="#63b8ff" stroke="#63b8ff" points="205.76,-56 215.76,-52.5 205.76,-49 205.76,-56"/>
</a>
</g>
</g>
<!-- Node10 -->
<g id="Node000010" class="node">
<title>Node10</title>
<g id="a_Node000010"><a xlink:href="test__device_8c.html#a548e6227513ac3fd772219dad3b0de22" target="_top" xlink:title="Ensure GPU request gracefully falls back to a working GEMV.">
<polygon fill="white" stroke="#666666" points="180,-25 77,-25 77,-6 180,-6 180,-25"/>
<text text-anchor="middle" x="128.5" y="-13" font-family="Helvetica,sans-Serif" font-size="10.00">test_gpu_fallback</text>
</a>
</g>
</g>
<!-- Node4&#45;&gt;Node10 -->
<g id="edge9_Node000004_Node000010" class="edge">
<title>Node4&#45;&gt;Node10</title>
<g id="a_edge9_Node000004_Node000010"><a xlink:title=" ">
<path fill="none" stroke="#63b8ff" d="M220.03,-40.31C202.03,-35.38 181.54,-29.76 164.62,-25.12"/>
<polygon fill="#63b8ff" stroke="#63b8ff" points="219.16,-43.7 229.73,-42.97 221.01,-36.95 219.16,-43.7"/>
</a>
</g>
</g>
<!-- Node6 -->
<g id="Node000006" class="node">
<title>Node6</title>
<g id="a_Node000006"><a xlink:href="main__infer_8c.html#a3c04138a5bfe5d72780bb7e82a18e627" target="_top" xlink:title="main.">
<polygon fill="white" stroke="#666666" points="41,-126 0,-126 0,-107 41,-107 41,-126"/>
<text text-anchor="middle" x="20.5" y="-114" font-family="Helvetica,sans-Serif" font-size="10.00">main</text>
</a>
</g>
</g>
<!-- Node5&#45;&gt;Node6 -->
<g id="edge5_Node000005_Node000006" class="edge">
<title>Node5&#45;&gt;Node6</title>
<g id="a_edge5_Node000005_Node000006"><a xlink:title=" ">
<path fill="none" stroke="#63b8ff" d="M80.22,-101.54C66.4,-105.06 52.07,-108.71 41.02,-111.53"/>
<polygon fill="#63b8ff" stroke="#63b8ff" points="81.3,-104.88 90.13,-99.02 79.57,-98.1 81.3,-104.88"/>
</a>
</g>
</g>
<!-- Node7 -->
<g id="Node000007" class="node">
<title>Node7</title>
<g id="a_Node000007"><a xlink:href="test__api_8c.html#a840291bc02cba5474a4cb46a9b9566fe" target="_top" xlink:title=" ">
<polygon fill="white" stroke="#666666" points="41,-89 0,-89 0,-70 41,-70 41,-89"/>
<text text-anchor="middle" x="20.5" y="-77" font-family="Helvetica,sans-Serif" font-size="10.00">main</text>
</a>
</g>
</g>
<!-- Node5&#45;&gt;Node7 -->
<g id="edge6_Node000005_Node000007" class="edge">
<title>Node5&#45;&gt;Node7</title>
<g id="a_edge6_Node000005_Node000007"><a xlink:title=" ">
<path fill="none" stroke="#63b8ff" d="M68.02,-83.89C58.27,-82.97 48.82,-82.08 41.01,-81.34"/>
<polygon fill="#63b8ff" stroke="#63b8ff" points="67.94,-87.4 78.22,-84.85 68.6,-80.43 67.94,-87.4"/>
</a>
</g>
</g>
<!-- Node9 -->
<g id="Node000009" class="node">
<title>Node9</title>
<g id="a_Node000009"><a xlink:href="test__device_8c.html#a840291bc02cba5474a4cb46a9b9566fe" target="_top" xlink:title="Test entry point.">
<polygon fill="white" stroke="#666666" points="41,-43 0,-43 0,-24 41,-24 41,-43"/>
<text text-anchor="middle" x="20.5" y="-31" font-family="Helvetica,sans-Serif" font-size="10.00">main</text>
</a>
</g>
</g>
<!-- Node8&#45;&gt;Node9 -->
<g id="edge8_Node000008_Node000009" class="edge">
<title>Node8&#45;&gt;Node9</title>
<g id="a_edge8_Node000008_Node000009"><a xlink:title=" ">
<path fill="none" stroke="#63b8ff" d="M75.18,-43.12C63.04,-40.95 50.86,-38.76 41.18,-37.03"/>
<polygon fill="#63b8ff" stroke="#63b8ff" points="74.84,-46.62 85.3,-44.94 76.08,-39.73 74.84,-46.62"/>
</a>
</g>
</g>
<!-- Node10&#45;&gt;Node9 -->
<g id="edge10_Node000010_Node000009" class="edge">
<title>Node10&#45;&gt;Node9</title>
<g id="a_edge10_Node000010_Node000009"><a xlink:title=" ">
<path fill="none" stroke="#63b8ff" d="M67.1,-25.76C57.67,-27.36 48.57,-28.9 41,-30.19"/>
<polygon fill="#63b8ff" stroke="#63b8ff" points="67.71,-29.2 76.98,-24.08 66.54,-22.3 67.71,-29.2"/>
</a>
</g>
</g>
<!-- Node11&#45;&gt;Node3 -->
<g id="edge12_Node000011_Node000003" class="edge">
<title>Node11&#45;&gt;Node3</title>
<g id="a_edge12_Node000011_Node000003"><a xlink:title=" ">
<path fill="none" stroke="#63b8ff" d="M474.02,-52.5C464.53,-52.5 454.99,-52.5 446.06,-52.5"/>
<polygon fill="#63b8ff" stroke="#63b8ff" points="474.27,-56 484.27,-52.5 474.27,-49 474.27,-56"/>
</a>
</g>
</g>
<!-- Node12&#45;&gt;Node3 -->
<g id="edge14_Node000012_Node000003" class="edge">
<title>Node12&#45;&gt;Node3</title>
<g id="a_edge14_Node000012_Node000003"><a xlink:title=" ">
<path fill="none" stroke="#63b8ff" d="M502.63,-21.92C480.01,-28.63 452.5,-36.78 431.59,-42.98"/>
<polygon fill="#63b8ff" stroke="#63b8ff" points="503.73,-25.24 512.32,-19.04 501.74,-18.53 503.73,-25.24"/>
</a>
</g>
</g>
</g>
</svg>
