<?xml version="1.0" encoding="UTF-8" standalone="no"?>
<!DOCTYPE svg PUBLIC "-//W3C//DTD SVG 1.1//EN"
 "http://www.w3.org/Graphics/SVG/1.1/DTD/svg11.dtd">
<!-- Generated by graphviz version 12.2.1 (20241206.2353)
 -->
<!-- Title: engine/include/ie_api.h Pages: 1 -->
<svg width="276pt" height="155pt"
 viewBox="0.00 0.00 276.38 155.00" xmlns="http://www.w3.org/2000/svg" xmlns:xlink="http://www.w3.org/1999/xlink">
<g id="graph0" class="graph" transform="scale(1 1) rotate(0) translate(4 151)">
<title>engine/include/ie_api.h</title>
<!-- Node1 -->
<g id="Node000001" class="node">
<title>Node1</title>
<g id="a_Node000001"><a xlink:title="Public C API for the inference engine (minimal surface used by CLI/tests).">
<polygon fill="#999999" stroke="#666666" points="198.25,-147 69.75,-147 69.75,-126.25 198.25,-126.25 198.25,-147"/>
<text text-anchor="middle" x="134" y="-133.5" font-family="Helvetica,sans-Serif" font-size="10.00">engine/include/ie_api.h</text>
</a>
</g>
</g>
<!-- Node2 -->
<g id="Node000002" class="node">
<title>Node2</title>
<g id="a_Node000002"><a xlink:href="util__metrics_8h.html" target="_top" xlink:title="Lightweight, dependency&#45;free runtime metrics helpers.">
<polygon fill="white" stroke="#666666" points="106,-90.25 0,-90.25 0,-56.75 106,-56.75 106,-90.25"/>
<text text-anchor="start" x="8" y="-76.75" font-family="Helvetica,sans-Serif" font-size="10.00">engine/include/util</text>
<text text-anchor="middle" x="53" y="-64" font-family="Helvetica,sans-Serif" font-size="10.00">_metrics.h</text>
</a>
</g>
</g>
<!-- Node1&#45;&gt;Node2 -->
<g id="edge1_Node000001_Node000002" class="edge">
<title>Node1&#45;&gt;Node2</title>
<g id="a_edge1_Node000001_Node000002"><a xlink:title=" ">
<path fill="none" stroke="#63b8ff" d="M111.93,-118.97C100.29,-110.19 86.07,-99.46 74.51,-90.73"/>
<polygon fill="#63b8ff" stroke="#63b8ff" points="109.69,-121.66 119.78,-124.89 113.9,-116.08 109.69,-121.66"/>
</a>
</g>
</g>
<!-- Node3 -->
<g id="Node000003" class="node">
<title>Node3</title>
<g id="a_Node000003"><a xlink:href="main__infer_8c.html" target="_top" xlink:title="CLI entry point for the inference engine (benchmark&#45;friendly).">
<polygon fill="white" stroke="#666666" points="157.62,-20.75 28.38,-20.75 28.38,0 157.62,0 157.62,-20.75"/>
<text text-anchor="middle" x="93" y="-7.25" font-family="Helvetica,sans-Serif" font-size="10.00">engine/src/main_infer.c</text>
</a>
</g>
</g>
<!-- Node1&#45;&gt;Node3 -->
<g id="edge4_Node000001_Node000003" class="edge">
<title>Node1&#45;&gt;Node3</title>
<g id="a_edge4_Node000001_Node000003"><a xlink:title=" ">
<path fill="none" stroke="#63b8ff" d="M130.32,-115.12C127.13,-98.99 121.93,-76.09 115,-56.75 110.45,-44.06 103.42,-30.22 98.53,-21.2"/>
<polygon fill="#63b8ff" stroke="#63b8ff" points="126.79,-115.3 132.09,-124.47 133.67,-114 126.79,-115.3"/>
</a>
</g>
</g>
<!-- Node4 -->
<g id="Node000004" class="node">
<title>Node4</title>
<g id="a_Node000004"><a xlink:href="ie__api_8c.html" target="_top" xlink:title="Header&#45;compliant, CI&#45;friendly implementation of the public engine API.">
<polygon fill="white" stroke="#666666" points="268.38,-83.88 161.62,-83.88 161.62,-63.12 268.38,-63.12 268.38,-83.88"/>
<text text-anchor="middle" x="215" y="-70.38" font-family="Helvetica,sans-Serif" font-size="10.00">engine/src/ie_api.c</text>
</a>
</g>
</g>
<!-- Node1&#45;&gt;Node4 -->
<g id="edge3_Node000001_Node000004" class="edge">
<title>Node1&#45;&gt;Node4</title>
<g id="a_edge3_Node000001_Node000004"><a xlink:title=" ">
<path fill="none" stroke="#63b8ff" d="M155.99,-119.03C170.72,-107.91 189.63,-93.64 202.02,-84.3"/>
<polygon fill="#63b8ff" stroke="#63b8ff" points="154.1,-116.08 148.22,-124.89 158.31,-121.66 154.1,-116.08"/>
</a>
</g>
</g>
<!-- Node2&#45;&gt;Node3 -->
<g id="edge2_Node000002_Node000003" class="edge">
<title>Node2&#45;&gt;Node3</title>
<g id="a_edge2_Node000002_Node000003"><a xlink:title=" ">
<path fill="none" stroke="#63b8ff" d="M69.7,-46.98C75.65,-37.89 81.99,-28.19 86.56,-21.22"/>
<polygon fill="#63b8ff" stroke="#63b8ff" points="66.89,-44.89 64.34,-55.17 72.74,-48.72 66.89,-44.89"/>
</a>
</g>
</g>
</g>
</svg>
