<?xml version="1.0" encoding="UTF-8" standalone="no"?>
<!DOCTYPE svg PUBLIC "-//W3C//DTD SVG 1.1//EN"
 "http://www.w3.org/Graphics/SVG/1.1/DTD/svg11.dtd">
<!-- Generated by graphviz version 2.43.0 (0)
 -->
<!-- Title: ie_batcher_create Pages: 1 -->
<svg width="348pt" height="127pt"
 viewBox="0.00 0.00 348.00 127.00" xmlns="http://www.w3.org/2000/svg" xmlns:xlink="http://www.w3.org/1999/xlink">
<g id="graph0" class="graph" transform="scale(1 1) rotate(0) translate(4 123)">
<title>ie_batcher_create</title>
<!-- Node1 -->
<g id="node1" class="node">
<title>Node1</title>
<g id="a_node1"><a xlink:title="Create a new asynchronous tokenizer batcher.">
<polygon fill="#bfbfbf" stroke="black" points="236,-50 236,-69 340,-69 340,-50 236,-50"/>
<text text-anchor="middle" x="288" y="-57" font-family="Helvetica,sans-Serif" font-size="10.00">ie_batcher_create</text>
</a>
</g>
</g>
<!-- Node2 -->
<g id="node2" class="node">
<title>Node2</title>
<g id="a_node2"><a xlink:href="test__batcher_8c.html#a840a5fb06d03045c6f4e645ed682b7ad" target="_top" xlink:title="Validate basic prefetch, ordering, microbatch slicing and draining.">
<polygon fill="none" stroke="black" points="82.5,-88.5 82.5,-118.5 194.5,-118.5 194.5,-88.5 82.5,-88.5"/>
<text text-anchor="start" x="90.5" y="-106.5" font-family="Helvetica,sans-Serif" font-size="10.00">test_basic_prefetch</text>
<text text-anchor="middle" x="138.5" y="-95.5" font-family="Helvetica,sans-Serif" font-size="10.00">_and_order</text>
</a>
</g>
</g>
<!-- Node1&#45;&gt;Node2 -->
<g id="edge1" class="edge">
<title>Node1&#45;&gt;Node2</title>
<path fill="none" stroke="midnightblue" d="M245.25,-71.96C228.06,-77.08 208,-83.06 190,-88.43"/>
<polygon fill="midnightblue" stroke="midnightblue" points="246.41,-75.26 254.99,-69.05 244.41,-68.55 246.41,-75.26"/>
</g>
<!-- Node4 -->
<g id="node4" class="node">
<title>Node4</title>
<g id="a_node4"><a xlink:href="test__batcher_8c.html#acebcf748df4676af1488302913dcc33e" target="_top" xlink:title="Validate graceful teardown: destroy after partial consumption.">
<polygon fill="none" stroke="black" points="77,-50 77,-69 200,-69 200,-50 77,-50"/>
<text text-anchor="middle" x="138.5" y="-57" font-family="Helvetica,sans-Serif" font-size="10.00">test_partial_teardown</text>
</a>
</g>
</g>
<!-- Node1&#45;&gt;Node4 -->
<g id="edge3" class="edge">
<title>Node1&#45;&gt;Node4</title>
<path fill="none" stroke="midnightblue" d="M225.7,-59.5C217.28,-59.5 208.63,-59.5 200.22,-59.5"/>
<polygon fill="midnightblue" stroke="midnightblue" points="225.83,-63 235.83,-59.5 225.83,-56 225.83,-63"/>
</g>
<!-- Node5 -->
<g id="node5" class="node">
<title>Node5</title>
<g id="a_node5"><a xlink:href="test__batcher_8c.html#ae1015c7a7a149612ed323d43e7c93a0c" target="_top" xlink:title="Validate ring wrap behavior (tail truncation) and view sizes.">
<polygon fill="none" stroke="black" points="80.5,-0.5 80.5,-30.5 196.5,-30.5 196.5,-0.5 80.5,-0.5"/>
<text text-anchor="start" x="88.5" y="-18.5" font-family="Helvetica,sans-Serif" font-size="10.00">test_wrap_and_view</text>
<text text-anchor="middle" x="138.5" y="-7.5" font-family="Helvetica,sans-Serif" font-size="10.00">_limits</text>
</a>
</g>
</g>
<!-- Node1&#45;&gt;Node5 -->
<g id="edge5" class="edge">
<title>Node1&#45;&gt;Node5</title>
<path fill="none" stroke="midnightblue" d="M245.25,-47.04C228.06,-41.92 208,-35.94 190,-30.57"/>
<polygon fill="midnightblue" stroke="midnightblue" points="244.41,-50.45 254.99,-49.95 246.41,-43.74 244.41,-50.45"/>
</g>
<!-- Node3 -->
<g id="node3" class="node">
<title>Node3</title>
<g id="a_node3"><a xlink:href="test__batcher_8c.html#a840291bc02cba5474a4cb46a9b9566fe" target="_top" xlink:title=" ">
<polygon fill="none" stroke="black" points="0,-50 0,-69 41,-69 41,-50 0,-50"/>
<text text-anchor="middle" x="20.5" y="-57" font-family="Helvetica,sans-Serif" font-size="10.00">main</text>
</a>
</g>
</g>
<!-- Node2&#45;&gt;Node3 -->
<g id="edge2" class="edge">
<title>Node2&#45;&gt;Node3</title>
<path fill="none" stroke="midnightblue" d="M88.27,-84.83C71.65,-78.52 54.04,-71.84 41.08,-66.93"/>
<polygon fill="midnightblue" stroke="midnightblue" points="87.31,-88.21 97.9,-88.48 89.8,-81.66 87.31,-88.21"/>
</g>
<!-- Node4&#45;&gt;Node3 -->
<g id="edge4" class="edge">
<title>Node4&#45;&gt;Node3</title>
<path fill="none" stroke="midnightblue" d="M66.56,-59.5C57.26,-59.5 48.43,-59.5 41.1,-59.5"/>
<polygon fill="midnightblue" stroke="midnightblue" points="66.78,-63 76.78,-59.5 66.78,-56 66.78,-63"/>
</g>
<!-- Node5&#45;&gt;Node3 -->
<g id="edge6" class="edge">
<title>Node5&#45;&gt;Node3</title>
<path fill="none" stroke="midnightblue" d="M88.27,-34.17C71.65,-40.48 54.04,-47.16 41.08,-52.07"/>
<polygon fill="midnightblue" stroke="midnightblue" points="89.8,-37.34 97.9,-30.52 87.31,-30.79 89.8,-37.34"/>
</g>
</g>
</svg>
