<?xml version="1.0" encoding="UTF-8" standalone="no"?>
<!DOCTYPE svg PUBLIC "-//W3C//DTD SVG 1.1//EN"
 "http://www.w3.org/Graphics/SVG/1.1/DTD/svg11.dtd">
<!-- Generated by graphviz version 2.43.0 (0)
 -->
<!-- Title: ie_mmap_open Pages: 1 -->
<svg width="409pt" height="103pt"
 viewBox="0.00 0.00 409.00 103.00" xmlns="http://www.w3.org/2000/svg" xmlns:xlink="http://www.w3.org/1999/xlink">

<svg id="main" version="1.1" xmlns="http://www.w3.org/2000/svg" xmlns:xlink="http://www.w3.org/1999/xlink" xml:space="preserve" onload="init(evt)">
<style type="text/css"><![CDATA[
.node, .edge {opacity: 0.7;}
.node.selected, .edge.selected {opacity: 1;}
.edge:hover path { stroke: red; }
.edge:hover polygon { stroke: red; fill: red; }
]]></style>
<script type="application/ecmascript" xlink:href="svg.min.js"/>
<svg id="graph" class="graph">
<g id="graph0" class="graph" transform="scale(1 1) rotate(0) translate(4 99)">
<title>ie_mmap_open</title>
<!-- Node1 -->
<g id="Node000001" class="node">
<title>Node1</title>
<g id="a_Node000001"><a xlink:title="Map a file into memory (read&#45;only) or fall back to a malloc buffer.">
<polygon fill="#999999" stroke="#666666" points="92,-57 0,-57 0,-38 92,-38 92,-57"/>
<text text-anchor="middle" x="46" y="-45" font-family="Helvetica,sans-Serif" font-size="10.00">ie_mmap_open</text>
</a>
</g>
</g>
<!-- Node2 -->
<g id="Node000002" class="node">
<title>Node2</title>
<g id="a_Node000002"><a xlink:href="mmap__tuning_8c.html#aa65475ecac41a57125ef535e5a725d2a" target="_top" xlink:title="Suggest Transparent Huge Pages (THP) for a mapped region (best&#45;effort).">
<polygon fill="white" stroke="#666666" points="249,-95 128,-95 128,-76 249,-76 249,-95"/>
<text text-anchor="middle" x="188.5" y="-83" font-family="Helvetica,sans-Serif" font-size="10.00">ie_mmap_advise_thp</text>
</a>
</g>
</g>
<!-- Node1&#45;&gt;Node2 -->
<g id="edge1_Node000001_Node000002" class="edge">
<title>Node1&#45;&gt;Node2</title>
<g id="a_edge1_Node000001_Node000002"><a xlink:title=" ">
<path fill="none" stroke="#63b8ff" d="M82.45,-57.09C100.59,-61.99 122.87,-68.02 142.23,-73.26"/>
<polygon fill="#63b8ff" stroke="#63b8ff" points="141.49,-76.68 152.06,-75.91 143.32,-69.92 141.49,-76.68"/>
</a>
</g>
</g>
<!-- Node4 -->
<g id="Node000004" class="node">
<title>Node4</title>
<g id="a_Node000004"><a xlink:href="mmap__tuning_8c.html#a6c3a3c055065500f5b48d20dbdfbede9" target="_top" xlink:title="Provide file&#45;cache hints for a file descriptor (best&#45;effort).">
<polygon fill="white" stroke="#666666" points="395,-38 291,-38 291,-19 395,-19 395,-38"/>
<text text-anchor="middle" x="343" y="-26" font-family="Helvetica,sans-Serif" font-size="10.00">ie_mmap_fadvise</text>
</a>
</g>
</g>
<!-- Node1&#45;&gt;Node4 -->
<g id="edge3_Node000001_Node000004" class="edge">
<title>Node1&#45;&gt;Node4</title>
<g id="a_edge3_Node000001_Node000004"><a xlink:title=" ">
<path fill="none" stroke="#63b8ff" d="M92.13,-44.59C142.57,-41.34 224.54,-36.07 280.75,-32.44"/>
<polygon fill="#63b8ff" stroke="#63b8ff" points="281.18,-35.92 290.93,-31.79 280.73,-28.94 281.18,-35.92"/>
</a>
</g>
</g>
<!-- Node5 -->
<g id="Node000005" class="node">
<title>Node5</title>
<g id="a_Node000005"><a xlink:href="mmap__tuning_8c.html#a1cbbcd4b663a4a9513a7a8061aa24790" target="_top" xlink:title="Try to pre&#45;populate page cache for a file range (best&#45;effort).">
<polygon fill="white" stroke="#666666" points="248,-19 129,-19 129,0 248,0 248,-19"/>
<text text-anchor="middle" x="188.5" y="-7" font-family="Helvetica,sans-Serif" font-size="10.00">ie_mmap_readahead</text>
</a>
</g>
</g>
<!-- Node1&#45;&gt;Node5 -->
<g id="edge4_Node000001_Node000005" class="edge">
<title>Node1&#45;&gt;Node5</title>
<g id="a_edge4_Node000001_Node000005"><a xlink:title=" ">
<path fill="none" stroke="#63b8ff" d="M82.45,-37.91C100.59,-33.01 122.87,-26.98 142.23,-21.74"/>
<polygon fill="#63b8ff" stroke="#63b8ff" points="143.32,-25.08 152.06,-19.09 141.49,-18.32 143.32,-25.08"/>
</a>
</g>
</g>
<!-- Node3 -->
<g id="Node000003" class="node">
<title>Node3</title>
<g id="a_Node000003"><a xlink:href="mmap__tuning_8c.html#abaa8ca2b5cd2d97f8cc65b901fe8f158" target="_top" xlink:title="Safe wrapper around madvise (best&#45;effort).">
<polygon fill="white" stroke="#666666" points="401,-95 285,-95 285,-76 401,-76 401,-95"/>
<text text-anchor="middle" x="343" y="-83" font-family="Helvetica,sans-Serif" font-size="10.00">best_effort_madvise</text>
</a>
</g>
</g>
<!-- Node2&#45;&gt;Node3 -->
<g id="edge2_Node000002_Node000003" class="edge">
<title>Node2&#45;&gt;Node3</title>
<g id="a_edge2_Node000002_Node000003"><a xlink:title=" ">
<path fill="none" stroke="#63b8ff" d="M249.33,-85.5C257.64,-85.5 266.22,-85.5 274.65,-85.5"/>
<polygon fill="#63b8ff" stroke="#63b8ff" points="274.83,-89 284.83,-85.5 274.83,-82 274.83,-89"/>
</a>
</g>
</g>
<!-- Node5&#45;&gt;Node4 -->
<g id="edge5_Node000005_Node000004" class="edge">
<title>Node5&#45;&gt;Node4</title>
<g id="a_edge5_Node000005_Node000004"><a xlink:title=" ">
<path fill="none" stroke="#63b8ff" d="M248.02,-16.79C258.72,-18.12 269.9,-19.52 280.68,-20.86"/>
<polygon fill="#63b8ff" stroke="#63b8ff" points="280.49,-24.36 290.85,-22.13 281.36,-17.42 280.49,-24.36"/>
</a>
</g>
</g>
</g>
</svg>
</svg>

<style type='text/css'>
<![CDATA[
[data-mouse-over-selected='false'] { opacity: 0.7; }
[data-mouse-over-selected='true']  { opacity: 1.0; }
]]>
</style>
<script type="application/ecmascript"><![CDATA[
document.addEventListener('DOMContentLoaded', (event) => {
  highlightEdges();
  highlightAdjacentNodes();
});
]]></script>
</svg>
