<?xml version="1.0" encoding="UTF-8" standalone="no"?>
<!DOCTYPE svg PUBLIC "-//W3C//DTD SVG 1.1//EN"
 "http://www.w3.org/Graphics/SVG/1.1/DTD/svg11.dtd">
<!-- Generated by graphviz version 2.43.0 (0)
 -->
<!-- Title: cmd_encode Pages: 1 -->
<!--zoomable 551 -->

<svg id="main" version="1.1" xmlns="http://www.w3.org/2000/svg" xmlns:xlink="http://www.w3.org/1999/xlink" xml:space="preserve" onload="init(evt)">
<style type="text/css"><![CDATA[
.node, .edge {opacity: 0.7;}
.node.selected, .edge.selected {opacity: 1;}
.edge:hover path { stroke: red; }
.edge:hover polygon { stroke: red; fill: red; }
]]></style>

<defs>
  <circle id="rim" cx="0" cy="0" r="7"/>
  <circle id="rim2" cx="0" cy="0" r="3.5"/>
  <g id="zoomPlus">
    <use xlink:href="#rim" fill="#404040"><set attributeName="fill" to="#808080" begin="zoomplus.mouseover" end="zoomplus.mouseout"/></use>
    <path d="M-4,0h8M0,-4v8" fill="none" stroke="white" stroke-width="1.5" pointer-events="none"/>
  </g>
  <g id="zoomMin">
    <use xlink:href="#rim" fill="#404040"><set attributeName="fill" to="#808080" begin="zoomminus.mouseover" end="zoomminus.mouseout"/></use>
    <path d="M-4,0h8" fill="none" stroke="white" stroke-width="1.5" pointer-events="none"/>
  </g>
  <g id="arrowUp" transform="translate(30 24)">
    <use xlink:href="#rim"/>
    <path pointer-events="none" fill="none" stroke="white" stroke-width="1.5" d="M0,-3.0v7 M-2.5,-0.5L0,-3.0L2.5,-0.5"/>
  </g>
  <g id="arrowRight" transform="rotate(90) translate(36 -43)">
    <use xlink:href="#rim"/>
    <path pointer-events="none" fill="none" stroke="white" stroke-width="1.5" d="M0,-3.0v7 M-2.5,-0.5L0,-3.0L2.5,-0.5"/>
  </g>
  <g id="arrowDown" transform="rotate(180) translate(-30 -48)">
    <use xlink:href="#rim"/>
    <path pointer-events="none" fill="none" stroke="white" stroke-width="1.5" d="M0,-3.0v7 M-2.5,-0.5L0,-3.0L2.5,-0.5"/>
  </g>
  <g id="arrowLeft" transform="rotate(270) translate(-36 17)">
    <use xlink:href="#rim"/>
    <path pointer-events="none" fill="none" stroke="white" stroke-width="1.5" d="M0,-3.0v7 M-2.5,-0.5L0,-3.0L2.5,-0.5"/>
  </g>
  <g id="resetDef">
    <use xlink:href="#rim2" fill="#404040"><set attributeName="fill" to="#808080" begin="reset.mouseover" end="reset.mouseout"/></use>
  </g>
</defs>
<script type="application/ecmascript">
var viewWidth = 925;
var viewHeight = 551;
var sectionId = 'dynsection-3';
</script>
<script type="application/ecmascript" xlink:href="svg.min.js"/>
<svg id="graph" class="graph">
<g id="viewport">
<title>cmd_encode</title>
<!-- Node1 -->
<g id="Node000001" class="node">
<title>Node1</title>
<g id="a_Node000001"><a xlink:title=" ">
<polygon fill="#999999" stroke="#666666" points="78,-226 0,-226 0,-207 78,-207 78,-226"/>
<text text-anchor="middle" x="39" y="-214" font-family="Helvetica,sans-Serif" font-size="10.00">cmd_encode</text>
</a>
</g>
</g>
<!-- Node2 -->
<g id="Node000002" class="node">
<title>Node2</title>
<g id="a_Node000002"><a xlink:href="util__logging_8c.html#aea21466075cc03977bc4fcde5130d6a4" target="_top" xlink:title="Log an error message (printf&#45;style).">
<polygon fill="white" stroke="#666666" points="213.5,-282 139.5,-282 139.5,-263 213.5,-263 213.5,-282"/>
<text text-anchor="middle" x="176.5" y="-270" font-family="Helvetica,sans-Serif" font-size="10.00">ie_log_error</text>
</a>
</g>
</g>
<!-- Node1&#45;&gt;Node2 -->
<g id="edge1_Node000001_Node000002" class="edge">
<title>Node1&#45;&gt;Node2</title>
<g id="a_edge1_Node000001_Node000002"><a xlink:title=" ">
<path fill="none" stroke="#63b8ff" d="M63.29,-226.13C85.34,-235.24 118.62,-248.99 143.22,-259.16"/>
<polygon fill="#63b8ff" stroke="#63b8ff" points="141.93,-262.41 152.51,-263 144.61,-255.94 141.93,-262.41"/>
</a>
</g>
</g>
<!-- Node4 -->
<g id="Node000004" class="node">
<title>Node4</title>
<g id="a_Node000004"><a xlink:href="tokenizer__gptoss_8c.html#a171cd54148a22d4fd7c1c8d1e9f010de" target="_top" xlink:title=" ">
<polygon fill="white" stroke="#666666" points="239,-208 114,-208 114,-189 239,-189 239,-208"/>
<text text-anchor="middle" x="176.5" y="-196" font-family="Helvetica,sans-Serif" font-size="10.00">ie_tok_gptoss_encode</text>
</a>
</g>
</g>
<!-- Node1&#45;&gt;Node4 -->
<g id="edge3_Node000001_Node000004" class="edge">
<title>Node1&#45;&gt;Node4</title>
<g id="a_edge3_Node000001_Node000004"><a xlink:title=" ">
<path fill="none" stroke="#63b8ff" d="M78.1,-211.44C86.18,-210.37 94.96,-209.2 103.82,-208.02"/>
<polygon fill="#63b8ff" stroke="#63b8ff" points="104.39,-211.48 113.84,-206.69 103.46,-204.54 104.39,-211.48"/>
</a>
</g>
</g>
<!-- Node3 -->
<g id="Node000003" class="node">
<title>Node3</title>
<g id="a_Node000003"><a xlink:href="util__logging_8c.html#ac0a8abb7ed0f336e7d2a4a9eeac1e634" target="_top" xlink:title=" ">
<polygon fill="white" stroke="#666666" points="372,-339 315,-339 315,-320 372,-320 372,-339"/>
<text text-anchor="middle" x="343.5" y="-327" font-family="Helvetica,sans-Serif" font-size="10.00">ie_vlog_</text>
</a>
</g>
</g>
<!-- Node2&#45;&gt;Node3 -->
<g id="edge2_Node000002_Node000003" class="edge">
<title>Node2&#45;&gt;Node3</title>
<g id="a_edge2_Node000002_Node000003"><a xlink:title=" ">
<path fill="none" stroke="#63b8ff" d="M199.29,-282.09C218.87,-290.5 248.53,-302.71 275,-311.5 284.57,-314.68 295.04,-317.69 304.82,-320.31"/>
<polygon fill="#63b8ff" stroke="#63b8ff" points="304.13,-323.74 314.69,-322.88 305.9,-316.97 304.13,-323.74"/>
</a>
</g>
</g>
<!-- Node5 -->
<g id="Node000005" class="node">
<title>Node5</title>
<g id="a_Node000005"><a xlink:href="tokenizer__gptoss_8c.html#a25fb92de16ca991b41ddb7448780cd1d" target="_top" xlink:title=" ">
<polygon fill="white" stroke="#666666" points="412,-265 275,-265 275,-246 412,-246 412,-265"/>
<text text-anchor="middle" x="343.5" y="-253" font-family="Helvetica,sans-Serif" font-size="10.00">bpe_encode_to_ids_gpt2</text>
</a>
</g>
</g>
<!-- Node4&#45;&gt;Node5 -->
<g id="edge4_Node000004_Node000005" class="edge">
<title>Node4&#45;&gt;Node5</title>
<g id="a_edge4_Node000004_Node000005"><a xlink:title=" ">
<path fill="none" stroke="#63b8ff" d="M205.12,-208.04C232.48,-217.49 274.59,-232.04 304.98,-242.54"/>
<polygon fill="#63b8ff" stroke="#63b8ff" points="304.2,-245.97 314.79,-245.93 306.48,-239.35 304.2,-245.97"/>
</a>
</g>
</g>
<!-- Node9 -->
<g id="Node000009" class="node">
<title>Node9</title>
<g id="a_Node000009"><a xlink:href="tokenizer__gptoss_8c.html#ae1e8b4fd77be0253a87c488246992c63" target="_top" xlink:title=" ">
<polygon fill="white" stroke="#666666" points="551,-208 481,-208 481,-189 551,-189 551,-208"/>
<text text-anchor="middle" x="516" y="-196" font-family="Helvetica,sans-Serif" font-size="10.00">strbuf_free</text>
</a>
</g>
</g>
<!-- Node4&#45;&gt;Node9 -->
<g id="edge23_Node000004_Node000009" class="edge">
<title>Node4&#45;&gt;Node9</title>
<g id="a_edge23_Node000004_Node000009"><a xlink:title=" ">
<path fill="none" stroke="#63b8ff" d="M239.01,-198.5C305.91,-198.5 411.21,-198.5 470.53,-198.5"/>
<polygon fill="#63b8ff" stroke="#63b8ff" points="470.7,-202 480.7,-198.5 470.7,-195 470.7,-202"/>
</a>
</g>
</g>
<!-- Node10 -->
<g id="Node000010" class="node">
<title>Node10</title>
<g id="a_Node000010"><a xlink:href="tokenizer__gptoss_8c.html#a5f7b595a9a9d4bd08b783020e9a6b637" target="_top" xlink:title=" ">
<polygon fill="white" stroke="#666666" points="732.5,-133 645.5,-133 645.5,-114 732.5,-114 732.5,-133"/>
<text text-anchor="middle" x="689" y="-121" font-family="Helvetica,sans-Serif" font-size="10.00">strbuf_reserve</text>
</a>
</g>
</g>
<!-- Node4&#45;&gt;Node10 -->
<g id="edge24_Node000004_Node000010" class="edge">
<title>Node4&#45;&gt;Node10</title>
<g id="a_edge24_Node000004_Node000010"><a xlink:title=" ">
<path fill="none" stroke="#63b8ff" d="M190.96,-188.84C228.98,-162.27 341.32,-88.63 448,-66.5 507.18,-54.22 525.44,-51.51 584,-66.5 615.13,-74.47 646.97,-93.91 667.07,-107.87"/>
<polygon fill="#63b8ff" stroke="#63b8ff" points="665.26,-110.89 675.44,-113.84 669.33,-105.19 665.26,-110.89"/>
</a>
</g>
</g>
<!-- Node17 -->
<g id="Node000017" class="node">
<title>Node17</title>
<g id="a_Node000017"><a xlink:href="tokenizer__gptoss_8c.html#a2d0b020d093299557c89f6753c85ddf2" target="_top" xlink:title=" ">
<polygon fill="white" stroke="#666666" points="395.5,-170 291.5,-170 291.5,-151 395.5,-151 395.5,-170"/>
<text text-anchor="middle" x="343.5" y="-158" font-family="Helvetica,sans-Serif" font-size="10.00">pretokenize_basic</text>
</a>
</g>
</g>
<!-- Node4&#45;&gt;Node17 -->
<g id="edge17_Node000004_Node000017" class="edge">
<title>Node4&#45;&gt;Node17</title>
<g id="a_edge17_Node000004_Node000017"><a xlink:title=" ">
<path fill="none" stroke="#63b8ff" d="M219.14,-188.91C241.01,-183.87 268.01,-177.66 291.16,-172.32"/>
<polygon fill="#63b8ff" stroke="#63b8ff" points="292.2,-175.68 301.16,-170.02 290.63,-168.85 292.2,-175.68"/>
</a>
</g>
</g>
<!-- Node19 -->
<g id="Node000019" class="node">
<title>Node19</title>
<g id="a_Node000019"><a xlink:href="tokenizer__gptoss_8c.html#af25b623505fecd332b0925d6c5c1dea2" target="_top" xlink:title=" ">
<polygon fill="white" stroke="#666666" points="404,-19 283,-19 283,0 404,0 404,-19"/>
<text text-anchor="middle" x="343.5" y="-7" font-family="Helvetica,sans-Serif" font-size="10.00">to_bytelevel_unicode</text>
</a>
</g>
</g>
<!-- Node4&#45;&gt;Node19 -->
<g id="edge25_Node000004_Node000019" class="edge">
<title>Node4&#45;&gt;Node19</title>
<g id="a_edge25_Node000004_Node000019"><a xlink:title=" ">
<path fill="none" stroke="#63b8ff" d="M180.59,-188.74C190.01,-160.5 221.08,-77.94 275,-33.5 279.98,-29.4 285.7,-25.97 291.68,-23.12"/>
<polygon fill="#63b8ff" stroke="#63b8ff" points="293.35,-26.21 301.19,-19.09 290.62,-19.77 293.35,-26.21"/>
</a>
</g>
</g>
<!-- Node21 -->
<g id="Node000021" class="node">
<title>Node21</title>
<g id="a_Node000021"><a xlink:href="tokenizer__gptoss_8c.html#a316196e2c96c525919801e2cdd715806" target="_top" xlink:title=" ">
<polygon fill="white" stroke="#666666" points="388,-302 299,-302 299,-283 388,-283 388,-302"/>
<text text-anchor="middle" x="343.5" y="-290" font-family="Helvetica,sans-Serif" font-size="10.00">tt_encode_text</text>
</a>
</g>
</g>
<!-- Node4&#45;&gt;Node21 -->
<g id="edge28_Node000004_Node000021" class="edge">
<title>Node4&#45;&gt;Node21</title>
<g id="a_edge28_Node000004_Node000021"><a xlink:title=" ">
<path fill="none" stroke="#63b8ff" d="M187.1,-208.19C203.6,-224.32 239.06,-256.63 275,-274.5 279.38,-276.68 284.07,-278.62 288.84,-280.34"/>
<polygon fill="#63b8ff" stroke="#63b8ff" points="288.11,-283.79 298.71,-283.58 290.29,-277.13 288.11,-283.79"/>
</a>
</g>
</g>
<!-- Node6 -->
<g id="Node000006" class="node">
<title>Node6</title>
<g id="a_Node000006"><a xlink:href="tokenizer__gptoss_8c.html#ae97e99701aea26e4707cc0d72e2a5982" target="_top" xlink:title=" ">
<polygon fill="white" stroke="#666666" points="549,-284 483,-284 483,-265 549,-265 549,-284"/>
<text text-anchor="middle" x="516" y="-272" font-family="Helvetica,sans-Serif" font-size="10.00">intern_get</text>
</a>
</g>
</g>
<!-- Node5&#45;&gt;Node6 -->
<g id="edge5_Node000005_Node000006" class="edge">
<title>Node5&#45;&gt;Node6</title>
<g id="a_edge5_Node000005_Node000006"><a xlink:title=" ">
<path fill="none" stroke="#63b8ff" d="M412.38,-263.06C432.81,-265.34 454.63,-267.77 472.88,-269.81"/>
<polygon fill="#63b8ff" stroke="#63b8ff" points="472.57,-273.29 482.89,-270.92 473.34,-266.34 472.57,-273.29"/>
</a>
</g>
</g>
<!-- Node8 -->
<g id="Node000008" class="node">
<title>Node8</title>
<g id="a_Node000008"><a xlink:href="tokenizer__gptoss_8c.html#a569d2debd0e21610e58723b64b065a8d" target="_top" xlink:title=" ">
<polygon fill="white" stroke="#666666" points="568.5,-321 463.5,-321 463.5,-302 568.5,-302 568.5,-321"/>
<text text-anchor="middle" x="516" y="-309" font-family="Helvetica,sans-Serif" font-size="10.00">pairrank_map_get</text>
</a>
</g>
</g>
<!-- Node5&#45;&gt;Node8 -->
<g id="edge7_Node000005_Node000008" class="edge">
<title>Node5&#45;&gt;Node8</title>
<g id="a_edge7_Node000005_Node000008"><a xlink:title=" ">
<path fill="none" stroke="#63b8ff" d="M383.87,-265.07C393.22,-267.76 403.07,-270.93 412,-274.5 428.8,-281.21 431.16,-286.89 448,-293.5 453.12,-295.51 458.54,-297.37 463.99,-299.08"/>
<polygon fill="#63b8ff" stroke="#63b8ff" points="463.2,-302.5 473.78,-301.98 465.19,-295.78 463.2,-302.5"/>
</a>
</g>
</g>
<!-- Node5&#45;&gt;Node9 -->
<g id="edge8_Node000005_Node000009" class="edge">
<title>Node5&#45;&gt;Node9</title>
<g id="a_edge8_Node000005_Node000009"><a xlink:title=" ">
<path fill="none" stroke="#63b8ff" d="M373.04,-245.96C401.44,-236.47 445.21,-221.83 476.63,-211.33"/>
<polygon fill="#63b8ff" stroke="#63b8ff" points="477.99,-214.56 486.37,-208.07 475.78,-207.92 477.99,-214.56"/>
</a>
</g>
</g>
<!-- Node5&#45;&gt;Node10 -->
<g id="edge9_Node000005_Node000010" class="edge">
<title>Node5&#45;&gt;Node10</title>
<g id="a_edge9_Node000005_Node000010"><a xlink:title=" ">
<path fill="none" stroke="#63b8ff" d="M412.04,-254.55C461.76,-251.52 529.83,-242.37 584,-216.5 621.82,-198.44 656.03,-162.31 674.23,-140.78"/>
<polygon fill="#63b8ff" stroke="#63b8ff" points="676.93,-143 680.6,-133.06 671.53,-138.55 676.93,-143"/>
</a>
</g>
</g>
<!-- Node12 -->
<g id="Node000012" class="node">
<title>Node12</title>
<g id="a_Node000012"><a xlink:href="tokenizer__gptoss_8c.html#a2e285f35abd8883ee80de384d4dd9938" target="_top" xlink:title=" ">
<polygon fill="white" stroke="#666666" points="559,-395 473,-395 473,-376 559,-376 559,-395"/>
<text text-anchor="middle" x="516" y="-383" font-family="Helvetica,sans-Serif" font-size="10.00">strid_map_get</text>
</a>
</g>
</g>
<!-- Node5&#45;&gt;Node12 -->
<g id="edge11_Node000005_Node000012" class="edge">
<title>Node5&#45;&gt;Node12</title>
<g id="a_edge11_Node000005_Node000012"><a xlink:title=" ">
<path fill="none" stroke="#63b8ff" d="M397.54,-265.12C402.81,-267.57 407.77,-270.65 412,-274.5 444.79,-304.32 415.03,-337.88 448,-367.5 452.42,-371.47 457.62,-374.58 463.15,-377.01"/>
<polygon fill="#63b8ff" stroke="#63b8ff" points="462.06,-380.34 472.66,-380.5 464.47,-373.77 462.06,-380.34"/>
</a>
</g>
</g>
<!-- Node14 -->
<g id="Node000014" class="node">
<title>Node14</title>
<g id="a_Node000014"><a xlink:href="tokenizer__gptoss_8c.html#ac254f2e576e8ee207a7f12ec3bbd05f9" target="_top" xlink:title=" ">
<polygon fill="white" stroke="#666666" points="728.5,-432 649.5,-432 649.5,-413 728.5,-413 728.5,-432"/>
<text text-anchor="middle" x="689" y="-420" font-family="Helvetica,sans-Serif" font-size="10.00">u32buf_push</text>
</a>
</g>
</g>
<!-- Node5&#45;&gt;Node14 -->
<g id="edge13_Node000005_Node000014" class="edge">
<title>Node5&#45;&gt;Node14</title>
<g id="a_edge13_Node000005_Node000014"><a xlink:title=" ">
<path fill="none" stroke="#63b8ff" d="M398.6,-265.03C403.54,-267.51 408.13,-270.62 412,-274.5 454.3,-316.98 401.68,-366.44 448,-404.5 501.53,-448.48 586.41,-443.04 639.56,-433.75"/>
<polygon fill="#63b8ff" stroke="#63b8ff" points="640.23,-437.18 649.43,-431.91 638.95,-430.3 640.23,-437.18"/>
</a>
</g>
</g>
<!-- Node15 -->
<g id="Node000015" class="node">
<title>Node15</title>
<g id="a_Node000015"><a xlink:href="tokenizer__gptoss_8c.html#a65dda7706f1a61f0bb0affe18aae7e87" target="_top" xlink:title=" ">
<polygon fill="white" stroke="#666666" points="556,-358 476,-358 476,-339 556,-339 556,-358"/>
<text text-anchor="middle" x="516" y="-346" font-family="Helvetica,sans-Serif" font-size="10.00">utf8_next_cp</text>
</a>
</g>
</g>
<!-- Node5&#45;&gt;Node15 -->
<g id="edge15_Node000005_Node000015" class="edge">
<title>Node5&#45;&gt;Node15</title>
<g id="a_edge15_Node000005_Node000015"><a xlink:title=" ">
<path fill="none" stroke="#63b8ff" d="M394.39,-265.02C400.66,-267.48 406.71,-270.59 412,-274.5 435.79,-292.1 424.11,-313.05 448,-330.5 453.49,-334.51 459.81,-337.63 466.34,-340.05"/>
<polygon fill="#63b8ff" stroke="#63b8ff" points="465.38,-343.42 475.97,-343.12 467.51,-336.75 465.38,-343.42"/>
</a>
</g>
</g>
<!-- Node16 -->
<g id="Node000016" class="node">
<title>Node16</title>
<g id="a_Node000016"><a xlink:href="tokenizer__gptoss_8c.html#af21165822fceeffbb8b9f215ea7a7efa" target="_top" xlink:title=" ">
<polygon fill="white" stroke="#666666" points="548.5,-171 483.5,-171 483.5,-152 548.5,-152 548.5,-171"/>
<text text-anchor="middle" x="516" y="-159" font-family="Helvetica,sans-Serif" font-size="10.00">xstrdup_n</text>
</a>
</g>
</g>
<!-- Node5&#45;&gt;Node16 -->
<g id="edge16_Node000005_Node000016" class="edge">
<title>Node5&#45;&gt;Node16</title>
<g id="a_edge16_Node000005_Node000016"><a xlink:title=" ">
<path fill="none" stroke="#63b8ff" d="M354.81,-245.85C372.52,-229.78 410.42,-197.55 448,-179.5 456.05,-175.63 465.05,-172.5 473.78,-169.99"/>
<polygon fill="#63b8ff" stroke="#63b8ff" points="474.69,-173.37 483.45,-167.43 472.89,-166.61 474.69,-173.37"/>
</a>
</g>
</g>
<!-- Node7 -->
<g id="Node000007" class="node">
<title>Node7</title>
<g id="a_Node000007"><a xlink:href="tokenizer__gptoss_8c.html#a85473ee7f43e8ee8d8e75160328afa3d" target="_top" xlink:title=" ">
<polygon fill="white" stroke="#666666" points="717,-284 661,-284 661,-265 717,-265 717,-284"/>
<text text-anchor="middle" x="689" y="-272" font-family="Helvetica,sans-Serif" font-size="10.00">fnv1a32</text>
</a>
</g>
</g>
<!-- Node6&#45;&gt;Node7 -->
<g id="edge6_Node000006_Node000007" class="edge">
<title>Node6&#45;&gt;Node7</title>
<g id="a_edge6_Node000006_Node000007"><a xlink:title=" ">
<path fill="none" stroke="#63b8ff" d="M549.16,-274.5C577.98,-274.5 620.26,-274.5 650.58,-274.5"/>
<polygon fill="#63b8ff" stroke="#63b8ff" points="650.77,-278 660.77,-274.5 650.77,-271 650.77,-278"/>
</a>
</g>
</g>
<!-- Node11 -->
<g id="Node000011" class="node">
<title>Node11</title>
<g id="a_Node000011"><a xlink:href="tokenizer__gptoss_8c.html#aaf675a9c68e3173d0fd53dbbdc9a57a7" target="_top" xlink:title=" ">
<polygon fill="white" stroke="#666666" points="883.5,-283 827.5,-283 827.5,-264 883.5,-264 883.5,-283"/>
<text text-anchor="middle" x="855.5" y="-271" font-family="Helvetica,sans-Serif" font-size="10.00">xrealloc</text>
</a>
</g>
</g>
<!-- Node10&#45;&gt;Node11 -->
<g id="edge10_Node000010_Node000011" class="edge">
<title>Node10&#45;&gt;Node11</title>
<g id="a_edge10_Node000010_Node000011"><a xlink:title=" ">
<path fill="none" stroke="#63b8ff" d="M700.79,-133.34C728.45,-158.56 802.11,-225.73 836.43,-257.02"/>
<polygon fill="#63b8ff" stroke="#63b8ff" points="834.13,-259.67 843.88,-263.82 838.85,-254.49 834.13,-259.67"/>
</a>
</g>
</g>
<!-- Node13 -->
<g id="Node000013" class="node">
<title>Node13</title>
<g id="a_Node000013"><a xlink:href="tokenizer__gptoss_8c.html#a898969f3cc64c9a343bcfddfbc9a731f" target="_top" xlink:title=" ">
<polygon fill="white" stroke="#666666" points="717,-395 661,-395 661,-376 717,-376 717,-395"/>
<text text-anchor="middle" x="689" y="-383" font-family="Helvetica,sans-Serif" font-size="10.00">fnv1a64</text>
</a>
</g>
</g>
<!-- Node12&#45;&gt;Node13 -->
<g id="edge12_Node000012_Node000013" class="edge">
<title>Node12&#45;&gt;Node13</title>
<g id="a_edge12_Node000012_Node000013"><a xlink:title=" ">
<path fill="none" stroke="#63b8ff" d="M559.27,-385.5C587.3,-385.5 623.73,-385.5 650.69,-385.5"/>
<polygon fill="#63b8ff" stroke="#63b8ff" points="650.88,-389 660.88,-385.5 650.88,-382 650.88,-389"/>
</a>
</g>
</g>
<!-- Node14&#45;&gt;Node11 -->
<g id="edge14_Node000014_Node000011" class="edge">
<title>Node14&#45;&gt;Node11</title>
<g id="a_edge14_Node000014_Node000011"><a xlink:title=" ">
<path fill="none" stroke="#63b8ff" d="M728.65,-417.04C738.79,-414.38 749.32,-410.41 758,-404.5 800.64,-375.49 831.55,-321.23 845.76,-292.49"/>
<polygon fill="#63b8ff" stroke="#63b8ff" points="849.07,-293.68 850.24,-283.15 842.76,-290.65 849.07,-293.68"/>
</a>
</g>
</g>
<!-- Node17&#45;&gt;Node9 -->
<g id="edge20_Node000017_Node000009" class="edge">
<title>Node17&#45;&gt;Node9</title>
<g id="a_edge20_Node000017_Node000009"><a xlink:title=" ">
<path fill="none" stroke="#63b8ff" d="M387.52,-170.09C413.04,-175.78 445.31,-182.97 471,-188.69"/>
<polygon fill="#63b8ff" stroke="#63b8ff" points="470.33,-192.13 480.85,-190.89 471.85,-185.3 470.33,-192.13"/>
</a>
</g>
</g>
<!-- Node17&#45;&gt;Node10 -->
<g id="edge21_Node000017_Node000010" class="edge">
<title>Node17&#45;&gt;Node10</title>
<g id="a_edge21_Node000017_Node000010"><a xlink:title=" ">
<path fill="none" stroke="#63b8ff" d="M393.58,-151C410.75,-147.93 430.18,-144.75 448,-142.5 512.27,-134.39 586.68,-129.13 635.4,-126.25"/>
<polygon fill="#63b8ff" stroke="#63b8ff" points="635.61,-129.74 645.39,-125.67 635.21,-122.76 635.61,-129.74"/>
</a>
</g>
</g>
<!-- Node17&#45;&gt;Node16 -->
<g id="edge22_Node000017_Node000016" class="edge">
<title>Node17&#45;&gt;Node16</title>
<g id="a_edge22_Node000017_Node000016"><a xlink:title=" ">
<path fill="none" stroke="#63b8ff" d="M395.66,-160.8C420.41,-160.95 449.75,-161.12 473.15,-161.25"/>
<polygon fill="#63b8ff" stroke="#63b8ff" points="473.42,-164.76 483.44,-161.31 473.46,-157.76 473.42,-164.76"/>
</a>
</g>
</g>
<!-- Node18 -->
<g id="Node000018" class="node">
<title>Node18</title>
<g id="a_Node000018"><a xlink:href="tokenizer__gptoss_8c.html#a7c972b84c8f4ce52042d97c576c1485b" target="_top" xlink:title=" ">
<polygon fill="white" stroke="#666666" points="575.5,-95 456.5,-95 456.5,-76 575.5,-76 575.5,-95"/>
<text text-anchor="middle" x="516" y="-83" font-family="Helvetica,sans-Serif" font-size="10.00">strbuf_append_bytes</text>
</a>
</g>
</g>
<!-- Node17&#45;&gt;Node18 -->
<g id="edge18_Node000017_Node000018" class="edge">
<title>Node17&#45;&gt;Node18</title>
<g id="a_edge18_Node000017_Node000018"><a xlink:title=" ">
<path fill="none" stroke="#63b8ff" d="M362.53,-150.83C382.95,-140.07 417.38,-122.48 448,-109.5 457.12,-105.64 467.1,-101.84 476.5,-98.44"/>
<polygon fill="#63b8ff" stroke="#63b8ff" points="477.77,-101.71 486.03,-95.07 475.44,-95.11 477.77,-101.71"/>
</a>
</g>
</g>
<!-- Node18&#45;&gt;Node10 -->
<g id="edge19_Node000018_Node000010" class="edge">
<title>Node18&#45;&gt;Node10</title>
<g id="a_edge19_Node000018_Node000010"><a xlink:title=" ">
<path fill="none" stroke="#63b8ff" d="M560.15,-95.09C583.01,-100.17 611.26,-106.45 635.39,-111.81"/>
<polygon fill="#63b8ff" stroke="#63b8ff" points="634.93,-115.29 645.46,-114.05 636.45,-108.46 634.93,-115.29"/>
</a>
</g>
</g>
<!-- Node19&#45;&gt;Node18 -->
<g id="edge26_Node000019_Node000018" class="edge">
<title>Node19&#45;&gt;Node18</title>
<g id="a_edge26_Node000019_Node000018"><a xlink:title=" ">
<path fill="none" stroke="#63b8ff" d="M366.09,-19.13C395.94,-32.43 449.98,-56.52 484.1,-71.73"/>
<polygon fill="#63b8ff" stroke="#63b8ff" points="483.02,-75.08 493.58,-75.95 485.87,-68.68 483.02,-75.08"/>
</a>
</g>
</g>
<!-- Node20 -->
<g id="Node000020" class="node">
<title>Node20</title>
<g id="a_Node000020"><a xlink:href="tokenizer__gptoss_8c.html#a76ab1829431e0d4b5530c5a262de3d95" target="_top" xlink:title=" ">
<polygon fill="white" stroke="#666666" points="553,-19 479,-19 479,0 553,0 553,-19"/>
<text text-anchor="middle" x="516" y="-7" font-family="Helvetica,sans-Serif" font-size="10.00">utf8_put_cp</text>
</a>
</g>
</g>
<!-- Node19&#45;&gt;Node20 -->
<g id="edge27_Node000019_Node000020" class="edge">
<title>Node19&#45;&gt;Node20</title>
<g id="a_edge27_Node000019_Node000020"><a xlink:title=" ">
<path fill="none" stroke="#63b8ff" d="M404.13,-9.5C425.31,-9.5 448.82,-9.5 468.72,-9.5"/>
<polygon fill="#63b8ff" stroke="#63b8ff" points="468.76,-13 478.76,-9.5 468.76,-6 468.76,-13"/>
</a>
</g>
</g>
<!-- Node22 -->
<g id="Node000022" class="node">
<title>Node22</title>
<g id="a_Node000022"><a xlink:href="tokenizer__gptoss_8c.html#a1fcd2a4988288a26594b4b641897257b" target="_top" xlink:title=" ">
<polygon fill="white" stroke="#666666" points="584,-471 448,-471 448,-452 584,-452 584,-471"/>
<text text-anchor="middle" x="516" y="-459" font-family="Helvetica,sans-Serif" font-size="10.00">tt_bpe_encode_segment</text>
</a>
</g>
</g>
<!-- Node21&#45;&gt;Node22 -->
<g id="edge29_Node000021_Node000022" class="edge">
<title>Node21&#45;&gt;Node22</title>
<g id="a_edge29_Node000021_Node000022"><a xlink:title=" ">
<path fill="none" stroke="#63b8ff" d="M388.31,-297.9C397.06,-300.76 405.53,-305.06 412,-311.5 453.26,-352.6 408.19,-394.99 448,-437.5 451.6,-441.35 455.86,-444.58 460.47,-447.29"/>
<polygon fill="#63b8ff" stroke="#63b8ff" points="459.14,-450.54 469.65,-451.9 462.28,-444.29 459.14,-450.54"/>
</a>
</g>
</g>
<!-- Node22&#45;&gt;Node14 -->
<g id="edge35_Node000022_Node000014" class="edge">
<title>Node22&#45;&gt;Node14</title>
<g id="a_edge35_Node000022_Node000014"><a xlink:title=" ">
<path fill="none" stroke="#63b8ff" d="M558.83,-451.96C583.18,-446.41 614,-439.38 639.42,-433.58"/>
<polygon fill="#63b8ff" stroke="#63b8ff" points="640.26,-436.98 649.24,-431.34 638.71,-430.15 640.26,-436.98"/>
</a>
</g>
</g>
<!-- Node23 -->
<g id="Node000023" class="node">
<title>Node23</title>
<g id="a_Node000023"><a xlink:href="tokenizer__gptoss_8c.html#a87f859fe5eee4c2844946ae6b9442542" target="_top" xlink:title=" ">
<polygon fill="white" stroke="#666666" points="736.5,-506 641.5,-506 641.5,-487 736.5,-487 736.5,-506"/>
<text text-anchor="middle" x="689" y="-494" font-family="Helvetica,sans-Serif" font-size="10.00">bytearena_alloc</text>
</a>
</g>
</g>
<!-- Node22&#45;&gt;Node23 -->
<g id="edge30_Node000022_Node000023" class="edge">
<title>Node22&#45;&gt;Node23</title>
<g id="a_edge30_Node000022_Node000023"><a xlink:title=" ">
<path fill="none" stroke="#63b8ff" d="M563.73,-471.06C584.65,-475.35 609.5,-480.43 631.47,-484.93"/>
<polygon fill="#63b8ff" stroke="#63b8ff" points="630.83,-488.37 641.33,-486.95 632.23,-481.51 630.83,-488.37"/>
</a>
</g>
</g>
<!-- Node25 -->
<g id="Node000025" class="node">
<title>Node25</title>
<g id="a_Node000025"><a xlink:href="tokenizer__gptoss_8c.html#ab8470327b8dacfc6949303c5b052a402" target="_top" xlink:title=" ">
<polygon fill="white" stroke="#666666" points="734.5,-543 643.5,-543 643.5,-524 734.5,-524 734.5,-543"/>
<text text-anchor="middle" x="689" y="-531" font-family="Helvetica,sans-Serif" font-size="10.00">bytearena_free</text>
</a>
</g>
</g>
<!-- Node22&#45;&gt;Node25 -->
<g id="edge32_Node000022_Node000025" class="edge">
<title>Node22&#45;&gt;Node25</title>
<g id="a_edge32_Node000022_Node000025"><a xlink:title=" ">
<path fill="none" stroke="#63b8ff" d="M532.54,-471.06C552.26,-482.86 587.63,-502.92 620,-515.5 625.12,-517.49 630.54,-519.34 636,-521.03"/>
<polygon fill="#63b8ff" stroke="#63b8ff" points="635.23,-524.45 645.81,-523.91 637.2,-517.74 635.23,-524.45"/>
</a>
</g>
</g>
<!-- Node26 -->
<g id="Node000026" class="node">
<title>Node26</title>
<g id="a_Node000026"><a xlink:href="tokenizer__gptoss_8c.html#a5573c4412ff6deb6a3f65a8fd1a835fa" target="_top" xlink:title=" ">
<polygon fill="white" stroke="#666666" points="758,-469 620,-469 620,-450 758,-450 758,-469"/>
<text text-anchor="middle" x="689" y="-457" font-family="Helvetica,sans-Serif" font-size="10.00">bytesid_map_get_concat</text>
</a>
</g>
</g>
<!-- Node22&#45;&gt;Node26 -->
<g id="edge33_Node000022_Node000026" class="edge">
<title>Node22&#45;&gt;Node26</title>
<g id="a_edge33_Node000022_Node000026"><a xlink:title=" ">
<path fill="none" stroke="#63b8ff" d="M584.09,-460.72C592.57,-460.62 601.29,-460.51 609.92,-460.41"/>
<polygon fill="#63b8ff" stroke="#63b8ff" points="610.02,-463.91 619.98,-460.3 609.94,-456.91 610.02,-463.91"/>
</a>
</g>
</g>
<!-- Node24 -->
<g id="Node000024" class="node">
<title>Node24</title>
<g id="a_Node000024"><a xlink:href="tokenizer__gptoss_8c.html#aca6fa634dfd54327a309632325436dc4" target="_top" xlink:title=" ">
<polygon fill="white" stroke="#666666" points="917,-506 794,-506 794,-487 917,-487 917,-506"/>
<text text-anchor="middle" x="855.5" y="-494" font-family="Helvetica,sans-Serif" font-size="10.00">bytearena_new_block</text>
</a>
</g>
</g>
<!-- Node23&#45;&gt;Node24 -->
<g id="edge31_Node000023_Node000024" class="edge">
<title>Node23&#45;&gt;Node24</title>
<g id="a_edge31_Node000023_Node000024"><a xlink:title=" ">
<path fill="none" stroke="#63b8ff" d="M736.7,-496.5C751.27,-496.5 767.68,-496.5 783.53,-496.5"/>
<polygon fill="#63b8ff" stroke="#63b8ff" points="783.83,-500 793.83,-496.5 783.83,-493 783.83,-500"/>
</a>
</g>
</g>
<!-- Node27 -->
<g id="Node000027" class="node">
<title>Node27</title>
<g id="a_Node000027"><a xlink:href="tokenizer__gptoss_8c.html#a2e1ab240e638d9d6bb9f6ffd8451d8ef" target="_top" xlink:title=" ">
<polygon fill="white" stroke="#666666" points="895.5,-469 815.5,-469 815.5,-450 895.5,-450 895.5,-469"/>
<text text-anchor="middle" x="855.5" y="-457" font-family="Helvetica,sans-Serif" font-size="10.00">fnv1a64_two</text>
</a>
</g>
</g>
<!-- Node26&#45;&gt;Node27 -->
<g id="edge34_Node000026_Node000027" class="edge">
<title>Node26&#45;&gt;Node27</title>
<g id="a_edge34_Node000026_Node000027"><a xlink:title=" ">
<path fill="none" stroke="#63b8ff" d="M758.33,-459.5C773.96,-459.5 790.28,-459.5 804.94,-459.5"/>
<polygon fill="#63b8ff" stroke="#63b8ff" points="805.29,-463 815.29,-459.5 805.29,-456 805.29,-463"/>
</a>
</g>
</g>
</g>
</svg>

<g id="navigator" transform="translate(0 0)" fill="#404254">
  <rect fill="#f2f5e9" fill-opacity="0.5" stroke="#606060" stroke-width=".5" x="0" y="0" width="60" height="60"/>
  <use id="zoomplus" xlink:href="#zoomPlus" x="17" y="9" onmousedown="handleZoom(evt,'in')"/>
  <use id="zoomminus" xlink:href="#zoomMin" x="42" y="9" onmousedown="handleZoom(evt,'out')"/>
  <use id="reset" xlink:href="#resetDef" x="30" y="36" onmousedown="handleReset()"/>
   <use id="arrowup" xlink:href="#arrowUp" x="0" y="0" onmousedown="handlePan(0,-1)"/>
  <use id="arrowright" xlink:href="#arrowRight" x="0" y="0" onmousedown="handlePan(1,0)"/>
  <use id="arrowdown" xlink:href="#arrowDown" x="0" y="0" onmousedown="handlePan(0,1)"/>
  <use id="arrowleft" xlink:href="#arrowLeft" x="0" y="0" onmousedown="handlePan(-1,0)"/>
</g>
<svg viewBox="0 0 15 15" width="100%" height="30px" preserveAspectRatio="xMaxYMin meet">
 <g id="arrow_out" transform="scale(0.3 0.3)">
  <a xlink:href="main__chat_8c_a85977bfad7ce939338220eda76285abd_cgraph_org.svg" target="_base">
   <rect id="button" ry="5" rx="5" y="6" x="6" height="38" width="38"
        fill="#f2f5e9" fill-opacity="0.5" stroke="#606060" stroke-width="1.0"/>
   <path id="arrow"
     d="M 11.500037,31.436501 C 11.940474,20.09759 22.043105,11.32322 32.158766,21.979434 L 37.068811,17.246167 C 37.068811,17.246167 37.088388,32 37.088388,32 L 22.160133,31.978069 C 22.160133,31.978069 26.997745,27.140456 26.997745,27.140456 C 18.528582,18.264221 13.291696,25.230495 11.500037,31.436501 z"
     style="fill:#404040;"/>
  </a>
 </g>
</svg>

<style type='text/css'>
<![CDATA[
[data-mouse-over-selected='false'] { opacity: 0.7; }
[data-mouse-over-selected='true']  { opacity: 1.0; }
]]>
</style>
<script type="application/ecmascript"><![CDATA[
document.addEventListener('DOMContentLoaded', (event) => {
  highlightEdges();
  highlightAdjacentNodes();
});
]]></script>
</svg>
