<?xml version="1.0" encoding="UTF-8" standalone="no"?>
<!DOCTYPE svg PUBLIC "-//W3C//DTD SVG 1.1//EN"
 "http://www.w3.org/Graphics/SVG/1.1/DTD/svg11.dtd">
<!-- Generated by graphviz version 2.43.0 (0)
 -->
<!-- Title: expected_tokens_table_load Pages: 1 -->
<svg width="357pt" height="175pt"
 viewBox="0.00 0.00 357.00 175.00" xmlns="http://www.w3.org/2000/svg" xmlns:xlink="http://www.w3.org/1999/xlink">

<svg id="main" version="1.1" xmlns="http://www.w3.org/2000/svg" xmlns:xlink="http://www.w3.org/1999/xlink" xml:space="preserve" onload="init(evt)">
<style type="text/css"><![CDATA[
.node, .edge {opacity: 0.7;}
.node.selected, .edge.selected {opacity: 1;}
.edge:hover path { stroke: red; }
.edge:hover polygon { stroke: red; fill: red; }
]]></style>
<script type="application/ecmascript" xlink:href="svg.min.js"/>
<svg id="graph" class="graph">
<g id="graph0" class="graph" transform="scale(1 1) rotate(0) translate(4 171)">
<title>expected_tokens_table_load</title>
<!-- Node1 -->
<g id="Node000001" class="node">
<title>Node1</title>
<g id="a_Node000001"><a xlink:title="Load expected tokens from a text file.">
<polygon fill="#999999" stroke="#666666" points="155,-93 0,-93 0,-74 155,-74 155,-93"/>
<text text-anchor="middle" x="77.5" y="-81" font-family="Helvetica,sans-Serif" font-size="10.00">expected_tokens_table_load</text>
</a>
</g>
</g>
<!-- Node2 -->
<g id="Node000002" class="node">
<title>Node2</title>
<g id="a_Node000002"><a xlink:href="main__infer_8c.html#a470ca5b37dd720b5de391932c452af36" target="_top" xlink:title="Free an expected&#45;tokens table.">
<polygon fill="white" stroke="#666666" points="347,-167 193,-167 193,-148 347,-148 347,-167"/>
<text text-anchor="middle" x="270" y="-155" font-family="Helvetica,sans-Serif" font-size="10.00">expected_tokens_table_free</text>
</a>
</g>
</g>
<!-- Node1&#45;&gt;Node2 -->
<g id="edge1_Node000001_Node000002" class="edge">
<title>Node1&#45;&gt;Node2</title>
<g id="a_edge1_Node000001_Node000002"><a xlink:title=" ">
<path fill="none" stroke="#63b8ff" d="M94.73,-93.11C116.14,-105.42 155.27,-126.69 191,-139.5 196.92,-141.62 203.19,-143.56 209.5,-145.31"/>
<polygon fill="#63b8ff" stroke="#63b8ff" points="208.83,-148.75 219.39,-147.9 210.61,-141.98 208.83,-148.75"/>
</a>
</g>
</g>
<!-- Node3 -->
<g id="Node000003" class="node">
<title>Node3</title>
<g id="a_Node000003"><a xlink:href="main__infer_8c.html#a7170af3ba79ee074b29ac13736ec97bf" target="_top" xlink:title="Initialize an expected&#45;tokens table.">
<polygon fill="white" stroke="#666666" points="345,-130 195,-130 195,-111 345,-111 345,-130"/>
<text text-anchor="middle" x="270" y="-118" font-family="Helvetica,sans-Serif" font-size="10.00">expected_tokens_table_init</text>
</a>
</g>
</g>
<!-- Node1&#45;&gt;Node3 -->
<g id="edge2_Node000001_Node000003" class="edge">
<title>Node1&#45;&gt;Node3</title>
<g id="a_edge2_Node000001_Node000003"><a xlink:title=" ">
<path fill="none" stroke="#63b8ff" d="M127.56,-93.03C152.68,-97.91 183.46,-103.89 209.88,-109.02"/>
<polygon fill="#63b8ff" stroke="#63b8ff" points="209.29,-112.47 219.78,-110.94 210.63,-105.6 209.29,-112.47"/>
</a>
</g>
</g>
<!-- Node4 -->
<g id="Node000004" class="node">
<title>Node4</title>
<g id="a_Node000004"><a xlink:href="main__infer_8c.html#adc35a14cb1b2caeca261416dfa41edee" target="_top" xlink:title="Append an entry to the expected&#45;tokens table.">
<polygon fill="white" stroke="#666666" points="349,-93 191,-93 191,-74 349,-74 349,-93"/>
<text text-anchor="middle" x="270" y="-81" font-family="Helvetica,sans-Serif" font-size="10.00">expected_tokens_table_push</text>
</a>
</g>
</g>
<!-- Node1&#45;&gt;Node4 -->
<g id="edge3_Node000001_Node000004" class="edge">
<title>Node1&#45;&gt;Node4</title>
<g id="a_edge3_Node000001_Node000004"><a xlink:title=" ">
<path fill="none" stroke="#63b8ff" d="M155.16,-83.5C163.63,-83.5 172.31,-83.5 180.9,-83.5"/>
<polygon fill="#63b8ff" stroke="#63b8ff" points="180.94,-87 190.94,-83.5 180.94,-80 180.94,-87"/>
</a>
</g>
</g>
<!-- Node5 -->
<g id="Node000005" class="node">
<title>Node5</title>
<g id="a_Node000005"><a xlink:href="main__infer_8c.html#adaa53124eb0654f14346cf02af06b891" target="_top" xlink:title="Parse a comma&#45;separated list of integers.">
<polygon fill="white" stroke="#666666" points="338.5,-56 201.5,-56 201.5,-37 338.5,-37 338.5,-56"/>
<text text-anchor="middle" x="270" y="-44" font-family="Helvetica,sans-Serif" font-size="10.00">parse_token_list_inplace</text>
</a>
</g>
</g>
<!-- Node1&#45;&gt;Node5 -->
<g id="edge4_Node000001_Node000005" class="edge">
<title>Node1&#45;&gt;Node5</title>
<g id="a_edge4_Node000001_Node000005"><a xlink:title=" ">
<path fill="none" stroke="#63b8ff" d="M127.56,-73.97C152.68,-69.09 183.46,-63.11 209.88,-57.98"/>
<polygon fill="#63b8ff" stroke="#63b8ff" points="210.63,-61.4 219.78,-56.06 209.29,-54.53 210.63,-61.4"/>
</a>
</g>
</g>
<!-- Node6 -->
<g id="Node000006" class="node">
<title>Node6</title>
<g id="a_Node000006"><a xlink:href="main__infer_8c.html#a2749355bb9d419963e15e9a58395f63e" target="_top" xlink:title="Parse an unsigned 64&#45;bit integer in decimal or 0x&#45;prefixed hex.">
<polygon fill="white" stroke="#666666" points="317,-19 223,-19 223,0 317,0 317,-19"/>
<text text-anchor="middle" x="270" y="-7" font-family="Helvetica,sans-Serif" font-size="10.00">parse_u64_auto</text>
</a>
</g>
</g>
<!-- Node1&#45;&gt;Node6 -->
<g id="edge5_Node000001_Node000006" class="edge">
<title>Node1&#45;&gt;Node6</title>
<g id="a_edge5_Node000001_Node000006"><a xlink:title=" ">
<path fill="none" stroke="#63b8ff" d="M95.15,-73.94C116.69,-61.91 155.63,-41.28 191,-28.5 198.02,-25.96 205.51,-23.66 212.98,-21.6"/>
<polygon fill="#63b8ff" stroke="#63b8ff" points="213.95,-24.96 222.73,-19.03 212.17,-18.19 213.95,-24.96"/>
</a>
</g>
</g>
</g>
</svg>
</svg>

<style type='text/css'>
<![CDATA[
[data-mouse-over-selected='false'] { opacity: 0.7; }
[data-mouse-over-selected='true']  { opacity: 1.0; }
]]>
</style>
<script type="application/ecmascript"><![CDATA[
document.addEventListener('DOMContentLoaded', (event) => {
  highlightEdges();
  highlightAdjacentNodes();
});
]]></script>
</svg>
