<?xml version="1.0" encoding="UTF-8" standalone="no"?>
<!DOCTYPE svg PUBLIC "-//W3C//DTD SVG 1.1//EN"
 "http://www.w3.org/Graphics/SVG/1.1/DTD/svg11.dtd">
<!-- Generated by graphviz version 2.43.0 (0)
 -->
<!-- Title: cmd_decode Pages: 1 -->
<svg width="633pt" height="251pt"
 viewBox="0.00 0.00 633.00 251.00" xmlns="http://www.w3.org/2000/svg" xmlns:xlink="http://www.w3.org/1999/xlink">
<g id="graph0" class="graph" transform="scale(1 1) rotate(0) translate(4 247)">
<title>cmd_decode</title>
<!-- Node1 -->
<g id="Node000001" class="node">
<title>Node1</title>
<g id="a_Node000001"><a xlink:title=" ">
<polygon fill="#999999" stroke="#666666" points="78,-131 0,-131 0,-112 78,-112 78,-131"/>
<text text-anchor="middle" x="39" y="-119" font-family="Helvetica,sans-Serif" font-size="10.00">cmd_decode</text>
</a>
</g>
</g>
<!-- Node2 -->
<g id="Node000002" class="node">
<title>Node2</title>
<g id="a_Node000002"><a xlink:href="util__logging_8c.html#aea21466075cc03977bc4fcde5130d6a4" target="_top" xlink:title="Log an error message (printf&#45;style).">
<polygon fill="white" stroke="#666666" points="213.5,-205 139.5,-205 139.5,-186 213.5,-186 213.5,-205"/>
<text text-anchor="middle" x="176.5" y="-193" font-family="Helvetica,sans-Serif" font-size="10.00">ie_log_error</text>
</a>
</g>
</g>
<!-- Node1&#45;&gt;Node2 -->
<g id="edge1_Node000001_Node000002" class="edge">
<title>Node1&#45;&gt;Node2</title>
<g id="a_edge1_Node000001_Node000002"><a xlink:title=" ">
<path fill="none" stroke="#63b8ff" d="M57.44,-131.02C80.58,-143.66 121.68,-166.11 148.76,-180.9"/>
<polygon fill="#63b8ff" stroke="#63b8ff" points="147.25,-184.06 157.7,-185.78 150.6,-177.91 147.25,-184.06"/>
</a>
</g>
</g>
<!-- Node4 -->
<g id="Node000004" class="node">
<title>Node4</title>
<g id="a_Node000004"><a xlink:href="tokenizer__gptoss_8c.html#ae372932b3912864351defd6ce553ed88" target="_top" xlink:title=" ">
<polygon fill="white" stroke="#666666" points="239,-131 114,-131 114,-112 239,-112 239,-131"/>
<text text-anchor="middle" x="176.5" y="-119" font-family="Helvetica,sans-Serif" font-size="10.00">ie_tok_gptoss_decode</text>
</a>
</g>
</g>
<!-- Node1&#45;&gt;Node4 -->
<g id="edge3_Node000001_Node000004" class="edge">
<title>Node1&#45;&gt;Node4</title>
<g id="a_edge3_Node000001_Node000004"><a xlink:title=" ">
<path fill="none" stroke="#63b8ff" d="M78.1,-121.5C86.18,-121.5 94.96,-121.5 103.82,-121.5"/>
<polygon fill="#63b8ff" stroke="#63b8ff" points="103.84,-125 113.84,-121.5 103.84,-118 103.84,-125"/>
</a>
</g>
</g>
<!-- Node12 -->
<g id="Node000012" class="node">
<title>Node12</title>
<g id="a_Node000012"><a xlink:href="main__chat_8c.html#a316df756ed038c982b9f2f3246c886d5" target="_top" xlink:title=" ">
<polygon fill="white" stroke="#666666" points="219,-94 134,-94 134,-75 219,-75 219,-94"/>
<text text-anchor="middle" x="176.5" y="-82" font-family="Helvetica,sans-Serif" font-size="10.00">parse_ids_csv</text>
</a>
</g>
</g>
<!-- Node1&#45;&gt;Node12 -->
<g id="edge12_Node000001_Node000012" class="edge">
<title>Node1&#45;&gt;Node12</title>
<g id="a_edge12_Node000001_Node000012"><a xlink:title=" ">
<path fill="none" stroke="#63b8ff" d="M74.89,-111.97C91.83,-107.35 112.38,-101.73 130.49,-96.79"/>
<polygon fill="#63b8ff" stroke="#63b8ff" points="131.53,-100.14 140.25,-94.12 129.68,-93.38 131.53,-100.14"/>
</a>
</g>
</g>
<!-- Node3 -->
<g id="Node000003" class="node">
<title>Node3</title>
<g id="a_Node000003"><a xlink:href="util__logging_8c.html#ac0a8abb7ed0f336e7d2a4a9eeac1e634" target="_top" xlink:title=" ">
<polygon fill="white" stroke="#666666" points="371,-243 314,-243 314,-224 371,-224 371,-243"/>
<text text-anchor="middle" x="342.5" y="-231" font-family="Helvetica,sans-Serif" font-size="10.00">ie_vlog_</text>
</a>
</g>
</g>
<!-- Node2&#45;&gt;Node3 -->
<g id="edge2_Node000002_Node000003" class="edge">
<title>Node2&#45;&gt;Node3</title>
<g id="a_edge2_Node000002_Node000003"><a xlink:title=" ">
<path fill="none" stroke="#63b8ff" d="M213.9,-203.93C240.67,-210.14 276.96,-218.55 304,-224.81"/>
<polygon fill="#63b8ff" stroke="#63b8ff" points="303.33,-228.25 313.87,-227.1 304.91,-221.43 303.33,-228.25"/>
</a>
</g>
</g>
<!-- Node5 -->
<g id="Node000005" class="node">
<title>Node5</title>
<g id="a_Node000005"><a xlink:href="tokenizer__gptoss_8c.html#a501bba302f86962f8c5332144c6271a8" target="_top" xlink:title=" ">
<polygon fill="white" stroke="#666666" points="410,-206 275,-206 275,-187 410,-187 410,-206"/>
<text text-anchor="middle" x="342.5" y="-194" font-family="Helvetica,sans-Serif" font-size="10.00">byteunicode_cp_to_byte</text>
</a>
</g>
</g>
<!-- Node4&#45;&gt;Node5 -->
<g id="edge4_Node000004_Node000005" class="edge">
<title>Node4&#45;&gt;Node5</title>
<g id="a_edge4_Node000004_Node000005"><a xlink:title=" ">
<path fill="none" stroke="#63b8ff" d="M191.1,-131.03C209.41,-143.47 243.35,-165.24 275,-178.5 279.71,-180.47 284.69,-182.29 289.73,-183.94"/>
<polygon fill="#63b8ff" stroke="#63b8ff" points="288.84,-187.33 299.43,-186.92 290.9,-180.64 288.84,-187.33"/>
</a>
</g>
</g>
<!-- Node6 -->
<g id="Node000006" class="node">
<title>Node6</title>
<g id="a_Node000006"><a xlink:href="tokenizer__gptoss_8c.html#a7c972b84c8f4ce52042d97c576c1485b" target="_top" xlink:title=" ">
<polygon fill="white" stroke="#666666" points="402,-169 283,-169 283,-150 402,-150 402,-169"/>
<text text-anchor="middle" x="342.5" y="-157" font-family="Helvetica,sans-Serif" font-size="10.00">strbuf_append_bytes</text>
</a>
</g>
</g>
<!-- Node4&#45;&gt;Node6 -->
<g id="edge5_Node000004_Node000006" class="edge">
<title>Node4&#45;&gt;Node6</title>
<g id="a_edge5_Node000004_Node000006"><a xlink:title=" ">
<path fill="none" stroke="#63b8ff" d="M218.88,-131.09C240.62,-136.13 267.46,-142.34 290.47,-147.68"/>
<polygon fill="#63b8ff" stroke="#63b8ff" points="289.88,-151.13 300.41,-149.98 291.46,-144.31 289.88,-151.13"/>
</a>
</g>
</g>
<!-- Node7 -->
<g id="Node000007" class="node">
<title>Node7</title>
<g id="a_Node000007"><a xlink:href="tokenizer__gptoss_8c.html#a5f7b595a9a9d4bd08b783020e9a6b637" target="_top" xlink:title=" ">
<polygon fill="white" stroke="#666666" points="533,-150 446,-150 446,-131 533,-131 533,-150"/>
<text text-anchor="middle" x="489.5" y="-138" font-family="Helvetica,sans-Serif" font-size="10.00">strbuf_reserve</text>
</a>
</g>
</g>
<!-- Node4&#45;&gt;Node7 -->
<g id="edge9_Node000004_Node000007" class="edge">
<title>Node4&#45;&gt;Node7</title>
<g id="a_edge9_Node000004_Node000007"><a xlink:title=" ">
<path fill="none" stroke="#63b8ff" d="M239.32,-125.28C296.73,-128.78 381.31,-133.95 435.65,-137.27"/>
<polygon fill="#63b8ff" stroke="#63b8ff" points="435.57,-140.77 445.77,-137.89 436,-133.79 435.57,-140.77"/>
</a>
</g>
</g>
<!-- Node9 -->
<g id="Node000009" class="node">
<title>Node9</title>
<g id="a_Node000009"><a xlink:href="tokenizer__gptoss_8c.html#ae1e8b4fd77be0253a87c488246992c63" target="_top" xlink:title=" ">
<polygon fill="white" stroke="#666666" points="377.5,-93 307.5,-93 307.5,-74 377.5,-74 377.5,-93"/>
<text text-anchor="middle" x="342.5" y="-81" font-family="Helvetica,sans-Serif" font-size="10.00">strbuf_free</text>
</a>
</g>
</g>
<!-- Node4&#45;&gt;Node9 -->
<g id="edge8_Node000004_Node000009" class="edge">
<title>Node4&#45;&gt;Node9</title>
<g id="a_edge8_Node000004_Node000009"><a xlink:title=" ">
<path fill="none" stroke="#63b8ff" d="M218.88,-111.91C242.8,-106.37 272.87,-99.4 297.25,-93.75"/>
<polygon fill="#63b8ff" stroke="#63b8ff" points="298.37,-97.09 307.32,-91.42 296.79,-90.27 298.37,-97.09"/>
</a>
</g>
</g>
<!-- Node10 -->
<g id="Node000010" class="node">
<title>Node10</title>
<g id="a_Node000010"><a xlink:href="tokenizer__gptoss_8c.html#a65dda7706f1a61f0bb0affe18aae7e87" target="_top" xlink:title=" ">
<polygon fill="white" stroke="#666666" points="382.5,-56 302.5,-56 302.5,-37 382.5,-37 382.5,-56"/>
<text text-anchor="middle" x="342.5" y="-44" font-family="Helvetica,sans-Serif" font-size="10.00">utf8_next_cp</text>
</a>
</g>
</g>
<!-- Node4&#45;&gt;Node10 -->
<g id="edge10_Node000004_Node000010" class="edge">
<title>Node4&#45;&gt;Node10</title>
<g id="a_edge10_Node000004_Node000010"><a xlink:title=" ">
<path fill="none" stroke="#63b8ff" d="M221.08,-111.89C227.33,-109.63 233.49,-106.86 239,-103.5 258.85,-91.37 255.11,-77.57 275,-65.5 280.46,-62.19 286.51,-59.43 292.69,-57.15"/>
<polygon fill="#63b8ff" stroke="#63b8ff" points="294.02,-60.39 302.42,-53.92 291.82,-53.75 294.02,-60.39"/>
</a>
</g>
</g>
<!-- Node11 -->
<g id="Node000011" class="node">
<title>Node11</title>
<g id="a_Node000011"><a xlink:href="tokenizer__gptoss_8c.html#a76ab1829431e0d4b5530c5a262de3d95" target="_top" xlink:title=" ">
<polygon fill="white" stroke="#666666" points="379.5,-19 305.5,-19 305.5,0 379.5,0 379.5,-19"/>
<text text-anchor="middle" x="342.5" y="-7" font-family="Helvetica,sans-Serif" font-size="10.00">utf8_put_cp</text>
</a>
</g>
</g>
<!-- Node4&#45;&gt;Node11 -->
<g id="edge11_Node000004_Node000011" class="edge">
<title>Node4&#45;&gt;Node11</title>
<g id="a_edge11_Node000004_Node000011"><a xlink:title=" ">
<path fill="none" stroke="#63b8ff" d="M225.57,-111.86C230.42,-109.63 235.01,-106.88 239,-103.5 267.18,-79.57 246.74,-52.34 275,-28.5 280.93,-23.49 288.11,-19.8 295.53,-17.09"/>
<polygon fill="#63b8ff" stroke="#63b8ff" points="296.82,-20.35 305.33,-14.04 294.74,-13.66 296.82,-20.35"/>
</a>
</g>
</g>
<!-- Node6&#45;&gt;Node7 -->
<g id="edge6_Node000006_Node000007" class="edge">
<title>Node6&#45;&gt;Node7</title>
<g id="a_edge6_Node000006_Node000007"><a xlink:title=" ">
<path fill="none" stroke="#63b8ff" d="M402.06,-151.83C413.14,-150.38 424.67,-148.86 435.56,-147.44"/>
<polygon fill="#63b8ff" stroke="#63b8ff" points="436.31,-150.87 445.77,-146.1 435.4,-143.93 436.31,-150.87"/>
</a>
</g>
</g>
<!-- Node8 -->
<g id="Node000008" class="node">
<title>Node8</title>
<g id="a_Node000008"><a xlink:href="tokenizer__gptoss_8c.html#aaf675a9c68e3173d0fd53dbbdc9a57a7" target="_top" xlink:title=" ">
<polygon fill="white" stroke="#666666" points="625,-150 569,-150 569,-131 625,-131 625,-150"/>
<text text-anchor="middle" x="597" y="-138" font-family="Helvetica,sans-Serif" font-size="10.00">xrealloc</text>
</a>
</g>
</g>
<!-- Node7&#45;&gt;Node8 -->
<g id="edge7_Node000007_Node000008" class="edge">
<title>Node7&#45;&gt;Node8</title>
<g id="a_edge7_Node000007_Node000008"><a xlink:title=" ">
<path fill="none" stroke="#63b8ff" d="M533.11,-140.5C541.55,-140.5 550.36,-140.5 558.61,-140.5"/>
<polygon fill="#63b8ff" stroke="#63b8ff" points="558.7,-144 568.7,-140.5 558.7,-137 558.7,-144"/>
</a>
</g>
</g>
</g>
</svg>
