<?xml version="1.0" encoding="UTF-8" standalone="no"?>
<!DOCTYPE svg PUBLIC "-//W3C//DTD SVG 1.1//EN"
 "http://www.w3.org/Graphics/SVG/1.1/DTD/svg11.dtd">
<!-- Generated by graphviz version 12.2.1 (20241206.2353)
 -->
<!-- Title: engine/src/main_infer.c Pages: 1 -->
<svg width="1080pt" height="199pt"
 viewBox="0.00 0.00 1080.25 199.00" xmlns="http://www.w3.org/2000/svg" xmlns:xlink="http://www.w3.org/1999/xlink">
<g id="graph0" class="graph" transform="scale(1 1) rotate(0) translate(4 195)">
<title>engine/src/main_infer.c</title>
<!-- Node1 -->
<g id="Node000001" class="node">
<title>Node1</title>
<g id="a_Node000001"><a xlink:title="CLI entry point for the inference engine (benchmark&#45;friendly).">
<polygon fill="#999999" stroke="#666666" points="530.88,-191 401.62,-191 401.62,-170.25 530.88,-170.25 530.88,-191"/>
<text text-anchor="middle" x="466.25" y="-177.5" font-family="Helvetica,sans-Serif" font-size="10.00">engine/src/main_infer.c</text>
</a>
</g>
</g>
<!-- Node2 -->
<g id="Node000002" class="node">
<title>Node2</title>
<g id="a_Node000002"><a xlink:title=" ">
<polygon fill="#e0e0e0" stroke="#999999" points="50.5,-134.25 0,-134.25 0,-113.5 50.5,-113.5 50.5,-134.25"/>
<text text-anchor="middle" x="25.25" y="-120.75" font-family="Helvetica,sans-Serif" font-size="10.00">errno.h</text>
</a>
</g>
</g>
<!-- Node1&#45;&gt;Node2 -->
<g id="edge1_Node000001_Node000002" class="edge">
<title>Node1&#45;&gt;Node2</title>
<g id="a_edge1_Node000001_Node000002"><a xlink:title=" ">
<path fill="none" stroke="#63b8ff" d="M401.46,-175.4C323.23,-169.63 187.56,-157.49 61.74,-134.24"/>
<polygon fill="#63b8ff" stroke="#63b8ff" points="62.72,-130.87 52.25,-132.46 61.43,-137.75 62.72,-130.87"/>
</a>
</g>
</g>
<!-- Node3 -->
<g id="Node000003" class="node">
<title>Node3</title>
<g id="a_Node000003"><a xlink:title=" ">
<polygon fill="#e0e0e0" stroke="#999999" points="115.62,-134.25 68.88,-134.25 68.88,-113.5 115.62,-113.5 115.62,-134.25"/>
<text text-anchor="middle" x="92.25" y="-120.75" font-family="Helvetica,sans-Serif" font-size="10.00">fcntl.h</text>
</a>
</g>
</g>
<!-- Node1&#45;&gt;Node3 -->
<g id="edge2_Node000001_Node000003" class="edge">
<title>Node1&#45;&gt;Node3</title>
<g id="a_edge2_Node000001_Node000003"><a xlink:title=" ">
<path fill="none" stroke="#63b8ff" d="M401.36,-173.81C334.83,-167.21 228.24,-154.9 126.99,-134.33"/>
<polygon fill="#63b8ff" stroke="#63b8ff" points="127.92,-130.95 117.42,-132.35 126.51,-137.8 127.92,-130.95"/>
</a>
</g>
</g>
<!-- Node4 -->
<g id="Node000004" class="node">
<title>Node4</title>
<g id="a_Node000004"><a xlink:title=" ">
<polygon fill="#e0e0e0" stroke="#999999" points="198.62,-134.25 133.88,-134.25 133.88,-113.5 198.62,-113.5 198.62,-134.25"/>
<text text-anchor="middle" x="166.25" y="-120.75" font-family="Helvetica,sans-Serif" font-size="10.00">inttypes.h</text>
</a>
</g>
</g>
<!-- Node1&#45;&gt;Node4 -->
<g id="edge3_Node000001_Node000004" class="edge">
<title>Node1&#45;&gt;Node4</title>
<g id="a_edge3_Node000001_Node000004"><a xlink:title=" ">
<path fill="none" stroke="#63b8ff" d="M408.68,-169.75C357.15,-160.81 279.57,-147.12 212.25,-134.25 211.44,-134.1 210.62,-133.94 209.8,-133.78"/>
<polygon fill="#63b8ff" stroke="#63b8ff" points="210.87,-130.42 200.38,-131.92 209.52,-137.29 210.87,-130.42"/>
</a>
</g>
</g>
<!-- Node5 -->
<g id="Node000005" class="node">
<title>Node5</title>
<g id="a_Node000005"><a xlink:title=" ">
<polygon fill="#e0e0e0" stroke="#999999" points="345.62,-20.75 292.88,-20.75 292.88,0 345.62,0 345.62,-20.75"/>
<text text-anchor="middle" x="319.25" y="-7.25" font-family="Helvetica,sans-Serif" font-size="10.00">stdint.h</text>
</a>
</g>
</g>
<!-- Node1&#45;&gt;Node5 -->
<g id="edge4_Node000001_Node000005" class="edge">
<title>Node1&#45;&gt;Node5</title>
<g id="a_edge4_Node000001_Node000005"><a xlink:title=" ">
<path fill="none" stroke="#63b8ff" d="M401.38,-175.21C343.4,-169.75 264.68,-158.08 245.25,-134.25 216.87,-99.45 265.2,-52.7 296.24,-28.11"/>
<polygon fill="#63b8ff" stroke="#63b8ff" points="298.21,-31.01 304.02,-22.15 293.95,-25.45 298.21,-31.01"/>
</a>
</g>
</g>
<!-- Node6 -->
<g id="Node000006" class="node">
<title>Node6</title>
<g id="a_Node000006"><a xlink:title=" ">
<polygon fill="#e0e0e0" stroke="#999999" points="517.75,-134.25 468.75,-134.25 468.75,-113.5 517.75,-113.5 517.75,-134.25"/>
<text text-anchor="middle" x="493.25" y="-120.75" font-family="Helvetica,sans-Serif" font-size="10.00">stdio.h</text>
</a>
</g>
</g>
<!-- Node1&#45;&gt;Node6 -->
<g id="edge5_Node000001_Node000006" class="edge">
<title>Node1&#45;&gt;Node6</title>
<g id="a_edge5_Node000001_Node000006"><a xlink:title=" ">
<path fill="none" stroke="#63b8ff" d="M471.08,-169.84C474.49,-162.91 479.2,-153.37 483.39,-144.86"/>
<polygon fill="#63b8ff" stroke="#63b8ff" points="486.51,-146.45 487.8,-135.94 480.23,-143.36 486.51,-146.45"/>
</a>
</g>
</g>
<!-- Node7 -->
<g id="Node000007" class="node">
<title>Node7</title>
<g id="a_Node000007"><a xlink:title=" ">
<polygon fill="#e0e0e0" stroke="#999999" points="588.25,-134.25 536.25,-134.25 536.25,-113.5 588.25,-113.5 588.25,-134.25"/>
<text text-anchor="middle" x="562.25" y="-120.75" font-family="Helvetica,sans-Serif" font-size="10.00">stdlib.h</text>
</a>
</g>
</g>
<!-- Node1&#45;&gt;Node7 -->
<g id="edge6_Node000001_Node000007" class="edge">
<title>Node1&#45;&gt;Node7</title>
<g id="a_edge6_Node000001_Node000007"><a xlink:title=" ">
<path fill="none" stroke="#63b8ff" d="M483.41,-169.84C497.88,-161.58 518.84,-149.63 535.51,-140.13"/>
<polygon fill="#63b8ff" stroke="#63b8ff" points="536.97,-143.32 543.92,-135.33 533.5,-137.24 536.97,-143.32"/>
</a>
</g>
</g>
<!-- Node8 -->
<g id="Node000008" class="node">
<title>Node8</title>
<g id="a_Node000008"><a xlink:title=" ">
<polygon fill="#e0e0e0" stroke="#999999" points="658.62,-134.25 605.88,-134.25 605.88,-113.5 658.62,-113.5 658.62,-134.25"/>
<text text-anchor="middle" x="632.25" y="-120.75" font-family="Helvetica,sans-Serif" font-size="10.00">string.h</text>
</a>
</g>
</g>
<!-- Node1&#45;&gt;Node8 -->
<g id="edge7_Node000001_Node000008" class="edge">
<title>Node1&#45;&gt;Node8</title>
<g id="a_edge7_Node000001_Node000008"><a xlink:title=" ">
<path fill="none" stroke="#63b8ff" d="M495.93,-169.84C523.55,-160.73 564.83,-147.11 594.72,-137.25"/>
<polygon fill="#63b8ff" stroke="#63b8ff" points="595.73,-140.6 604.13,-134.15 593.54,-133.96 595.73,-140.6"/>
</a>
</g>
</g>
<!-- Node9 -->
<g id="Node000009" class="node">
<title>Node9</title>
<g id="a_Node000009"><a xlink:title=" ">
<polygon fill="#e0e0e0" stroke="#999999" points="752.25,-134.25 676.25,-134.25 676.25,-113.5 752.25,-113.5 752.25,-134.25"/>
<text text-anchor="middle" x="714.25" y="-120.75" font-family="Helvetica,sans-Serif" font-size="10.00">sys/mman.h</text>
</a>
</g>
</g>
<!-- Node1&#45;&gt;Node9 -->
<g id="edge8_Node000001_Node000009" class="edge">
<title>Node1&#45;&gt;Node9</title>
<g id="a_edge8_Node000001_Node000009"><a xlink:title=" ">
<path fill="none" stroke="#63b8ff" d="M510.87,-169.77C554.23,-160.2 619.94,-145.7 664.85,-135.78"/>
<polygon fill="#63b8ff" stroke="#63b8ff" points="665.59,-139.2 674.6,-133.63 664.08,-132.37 665.59,-139.2"/>
</a>
</g>
</g>
<!-- Node10 -->
<g id="Node000010" class="node">
<title>Node10</title>
<g id="a_Node000010"><a xlink:title=" ">
<polygon fill="#e0e0e0" stroke="#999999" points="833.88,-134.25 770.62,-134.25 770.62,-113.5 833.88,-113.5 833.88,-134.25"/>
<text text-anchor="middle" x="802.25" y="-120.75" font-family="Helvetica,sans-Serif" font-size="10.00">sys/stat.h</text>
</a>
</g>
</g>
<!-- Node1&#45;&gt;Node10 -->
<g id="edge9_Node000001_Node000010" class="edge">
<title>Node1&#45;&gt;Node10</title>
<g id="a_edge9_Node000001_Node000010"><a xlink:title=" ">
<path fill="none" stroke="#63b8ff" d="M531.22,-171C588.63,-163.08 674.87,-150.41 759.41,-134.48"/>
<polygon fill="#63b8ff" stroke="#63b8ff" points="759.86,-137.96 769.03,-132.65 758.55,-131.08 759.86,-137.96"/>
</a>
</g>
</g>
<!-- Node11 -->
<g id="Node000011" class="node">
<title>Node11</title>
<g id="a_Node000011"><a xlink:title=" ">
<polygon fill="#e0e0e0" stroke="#999999" points="899,-134.25 851.5,-134.25 851.5,-113.5 899,-113.5 899,-134.25"/>
<text text-anchor="middle" x="875.25" y="-120.75" font-family="Helvetica,sans-Serif" font-size="10.00">time.h</text>
</a>
</g>
</g>
<!-- Node1&#45;&gt;Node11 -->
<g id="edge10_Node000001_Node000011" class="edge">
<title>Node1&#45;&gt;Node11</title>
<g id="a_edge10_Node000001_Node000011"><a xlink:title=" ">
<path fill="none" stroke="#63b8ff" d="M531.14,-175.09C604.25,-169.25 726.71,-157.28 839.96,-134.67"/>
<polygon fill="#63b8ff" stroke="#63b8ff" points="840.66,-138.1 849.76,-132.67 839.26,-131.24 840.66,-138.1"/>
</a>
</g>
</g>
<!-- Node12 -->
<g id="Node000012" class="node">
<title>Node12</title>
<g id="a_Node000012"><a xlink:title=" ">
<polygon fill="#e0e0e0" stroke="#999999" points="971.75,-134.25 916.75,-134.25 916.75,-113.5 971.75,-113.5 971.75,-134.25"/>
<text text-anchor="middle" x="944.25" y="-120.75" font-family="Helvetica,sans-Serif" font-size="10.00">unistd.h</text>
</a>
</g>
</g>
<!-- Node1&#45;&gt;Node12 -->
<g id="edge11_Node000001_Node000012" class="edge">
<title>Node1&#45;&gt;Node12</title>
<g id="a_edge11_Node000001_Node000012"><a xlink:title=" ">
<path fill="none" stroke="#63b8ff" d="M531.1,-176.07C615.35,-170.77 767.13,-158.87 905.25,-134.57"/>
<polygon fill="#63b8ff" stroke="#63b8ff" points="905.72,-138.04 914.95,-132.83 904.49,-131.15 905.72,-138.04"/>
</a>
</g>
</g>
<!-- Node13 -->
<g id="Node000013" class="node">
<title>Node13</title>
<g id="a_Node000013"><a xlink:href="ie__api_8h.html" target="_top" xlink:title="Public C API for the inference engine (minimal surface used by CLI/tests).">
<polygon fill="white" stroke="#666666" points="346.38,-77.5 292.12,-77.5 292.12,-56.75 346.38,-56.75 346.38,-77.5"/>
<text text-anchor="middle" x="319.25" y="-64" font-family="Helvetica,sans-Serif" font-size="10.00">ie_api.h</text>
</a>
</g>
</g>
<!-- Node1&#45;&gt;Node13 -->
<g id="edge12_Node000001_Node000013" class="edge">
<title>Node1&#45;&gt;Node13</title>
<g id="a_edge12_Node000001_Node000013"><a xlink:title=" ">
<path fill="none" stroke="#63b8ff" d="M453.46,-169.93C428.27,-150.81 371.96,-108.11 340.89,-84.54"/>
<polygon fill="#63b8ff" stroke="#63b8ff" points="343.4,-82.05 333.32,-78.8 339.17,-87.63 343.4,-82.05"/>
</a>
</g>
</g>
<!-- Node15 -->
<g id="Node000015" class="node">
<title>Node15</title>
<g id="a_Node000015"><a xlink:href="ie__io_8h.html" target="_top" xlink:title="Minimal public I/O interfaces: IEBIN v1 loader and tokenizer stubs.">
<polygon fill="white" stroke="#666666" points="602.38,-77.5 554.12,-77.5 554.12,-56.75 602.38,-56.75 602.38,-77.5"/>
<text text-anchor="middle" x="578.25" y="-64" font-family="Helvetica,sans-Serif" font-size="10.00">ie_io.h</text>
</a>
</g>
</g>
<!-- Node1&#45;&gt;Node15 -->
<g id="edge15_Node000001_Node000015" class="edge">
<title>Node1&#45;&gt;Node15</title>
<g id="a_edge15_Node000001_Node000015"><a xlink:title=" ">
<path fill="none" stroke="#63b8ff" d="M461.65,-170.13C455.71,-156.35 447.46,-130.61 459.25,-113.5 469.08,-99.23 511.49,-85.42 542.89,-76.86"/>
<polygon fill="#63b8ff" stroke="#63b8ff" points="543.65,-80.28 552.42,-74.34 541.86,-73.52 543.65,-80.28"/>
</a>
</g>
</g>
<!-- Node16 -->
<g id="Node000016" class="node">
<title>Node16</title>
<g id="a_Node000016"><a xlink:href="ie__kv__instrumentation_8h.html" target="_top" xlink:title="Lightweight KV cache hit/miss instrumentation for benchmarks.">
<polygon fill="white" stroke="#666666" points="498.5,-77.5 364,-77.5 364,-56.75 498.5,-56.75 498.5,-77.5"/>
<text text-anchor="middle" x="431.25" y="-64" font-family="Helvetica,sans-Serif" font-size="10.00">ie_kv_instrumentation.h</text>
</a>
</g>
</g>
<!-- Node1&#45;&gt;Node16 -->
<g id="edge18_Node000001_Node000016" class="edge">
<title>Node1&#45;&gt;Node16</title>
<g id="a_edge18_Node000001_Node000016"><a xlink:title=" ">
<path fill="none" stroke="#63b8ff" d="M453.83,-169.97C444.25,-161.68 431.74,-148.79 426.25,-134.25 420.77,-119.74 422.44,-102.18 425.26,-88.81"/>
<polygon fill="#63b8ff" stroke="#63b8ff" points="428.58,-89.93 427.62,-79.38 421.8,-88.22 428.58,-89.93"/>
</a>
</g>
</g>
<!-- Node17 -->
<g id="Node000017" class="node">
<title>Node17</title>
<g id="a_Node000017"><a xlink:href="util__metrics_8h.html" target="_top" xlink:title="Lightweight, dependency&#45;free runtime metrics helpers.">
<polygon fill="white" stroke="#666666" points="336.62,-134.25 253.88,-134.25 253.88,-113.5 336.62,-113.5 336.62,-134.25"/>
<text text-anchor="middle" x="295.25" y="-120.75" font-family="Helvetica,sans-Serif" font-size="10.00">util_metrics.h</text>
</a>
</g>
</g>
<!-- Node1&#45;&gt;Node17 -->
<g id="edge21_Node000001_Node000017" class="edge">
<title>Node1&#45;&gt;Node17</title>
<g id="a_edge21_Node000001_Node000017"><a xlink:title=" ">
<path fill="none" stroke="#63b8ff" d="M435.68,-169.84C408.04,-160.99 367.13,-147.89 336.59,-138.11"/>
<polygon fill="#63b8ff" stroke="#63b8ff" points="337.88,-134.85 327.29,-135.13 335.74,-141.51 337.88,-134.85"/>
</a>
</g>
</g>
<!-- Node18 -->
<g id="Node000018" class="node">
<title>Node18</title>
<g id="a_Node000018"><a xlink:href="util__logging_8h.html" target="_top" xlink:title="Minimal logging interface (printf&#45;style), used by CLI and tests.">
<polygon fill="white" stroke="#666666" points="1072.25,-134.25 990.25,-134.25 990.25,-113.5 1072.25,-113.5 1072.25,-134.25"/>
<text text-anchor="middle" x="1031.25" y="-120.75" font-family="Helvetica,sans-Serif" font-size="10.00">util_logging.h</text>
</a>
</g>
</g>
<!-- Node1&#45;&gt;Node18 -->
<g id="edge25_Node000001_Node000018" class="edge">
<title>Node1&#45;&gt;Node18</title>
<g id="a_edge25_Node000001_Node000018"><a xlink:title=" ">
<path fill="none" stroke="#63b8ff" d="M531.11,-175.95C626.87,-170.06 811.91,-156.98 978.86,-134.46"/>
<polygon fill="#63b8ff" stroke="#63b8ff" points="978.89,-137.99 988.33,-133.17 977.95,-131.05 978.89,-137.99"/>
</a>
</g>
</g>
<!-- Node13&#45;&gt;Node5 -->
<g id="edge14_Node000013_Node000005" class="edge">
<title>Node13&#45;&gt;Node5</title>
<g id="a_edge14_Node000013_Node000005"><a xlink:title=" ">
<path fill="none" stroke="#63b8ff" d="M319.25,-56.34C319.25,-49.72 319.25,-40.72 319.25,-32.52"/>
<polygon fill="#63b8ff" stroke="#63b8ff" points="322.75,-32.59 319.25,-22.59 315.75,-32.59 322.75,-32.59"/>
</a>
</g>
</g>
<!-- Node14 -->
<g id="Node000014" class="node">
<title>Node14</title>
<g id="a_Node000014"><a xlink:title=" ">
<polygon fill="#e0e0e0" stroke="#999999" points="505.75,-20.75 450.75,-20.75 450.75,0 505.75,0 505.75,-20.75"/>
<text text-anchor="middle" x="478.25" y="-7.25" font-family="Helvetica,sans-Serif" font-size="10.00">stddef.h</text>
</a>
</g>
</g>
<!-- Node13&#45;&gt;Node14 -->
<g id="edge13_Node000013_Node000014" class="edge">
<title>Node13&#45;&gt;Node14</title>
<g id="a_edge13_Node000013_Node000014"><a xlink:title=" ">
<path fill="none" stroke="#63b8ff" d="M346.58,-56.71C372.33,-47.85 411.14,-34.48 439.96,-24.56"/>
<polygon fill="#63b8ff" stroke="#63b8ff" points="440.73,-28 449.04,-21.43 438.45,-21.38 440.73,-28"/>
</a>
</g>
</g>
<!-- Node15&#45;&gt;Node5 -->
<g id="edge17_Node000015_Node000005" class="edge">
<title>Node15&#45;&gt;Node5</title>
<g id="a_edge17_Node000015_Node000005"><a xlink:title=" ">
<path fill="none" stroke="#63b8ff" d="M553.88,-60.97C508.6,-51.4 411.18,-30.81 357.2,-19.4"/>
<polygon fill="#63b8ff" stroke="#63b8ff" points="358.04,-16 347.54,-17.35 356.6,-22.85 358.04,-16"/>
</a>
</g>
</g>
<!-- Node15&#45;&gt;Node14 -->
<g id="edge16_Node000015_Node000014" class="edge">
<title>Node15&#45;&gt;Node14</title>
<g id="a_edge16_Node000015_Node000014"><a xlink:title=" ">
<path fill="none" stroke="#63b8ff" d="M560.37,-56.34C545.16,-48.01 523.06,-35.91 505.62,-26.36"/>
<polygon fill="#63b8ff" stroke="#63b8ff" points="507.75,-23.54 497.3,-21.81 504.39,-29.68 507.75,-23.54"/>
</a>
</g>
</g>
<!-- Node16&#45;&gt;Node5 -->
<g id="edge19_Node000016_Node000005" class="edge">
<title>Node16&#45;&gt;Node5</title>
<g id="a_edge19_Node000016_Node000005"><a xlink:title=" ">
<path fill="none" stroke="#63b8ff" d="M411.23,-56.34C394.03,-47.93 368.97,-35.68 349.35,-26.09"/>
<polygon fill="#63b8ff" stroke="#63b8ff" points="350.98,-22.99 340.46,-21.74 347.91,-29.28 350.98,-22.99"/>
</a>
</g>
</g>
<!-- Node16&#45;&gt;Node14 -->
<g id="edge20_Node000016_Node000014" class="edge">
<title>Node16&#45;&gt;Node14</title>
<g id="a_edge20_Node000016_Node000014"><a xlink:title=" ">
<path fill="none" stroke="#63b8ff" d="M439.65,-56.34C446,-48.94 454.9,-38.57 462.55,-29.66"/>
<polygon fill="#63b8ff" stroke="#63b8ff" points="465.08,-32.09 468.93,-22.23 459.76,-27.53 465.08,-32.09"/>
</a>
</g>
</g>
<!-- Node17&#45;&gt;Node5 -->
<g id="edge23_Node000017_Node000005" class="edge">
<title>Node17&#45;&gt;Node5</title>
<g id="a_edge23_Node000017_Node000005"><a xlink:title=" ">
<path fill="none" stroke="#63b8ff" d="M290.49,-113.22C284.7,-100.12 276.49,-76.14 283.25,-56.75 286.82,-46.51 293.77,-36.85 300.61,-29.09"/>
<polygon fill="#63b8ff" stroke="#63b8ff" points="302.98,-31.69 307.35,-22.04 297.91,-26.85 302.98,-31.69"/>
</a>
</g>
</g>
<!-- Node17&#45;&gt;Node13 -->
<g id="edge24_Node000017_Node000013" class="edge">
<title>Node17&#45;&gt;Node13</title>
<g id="a_edge24_Node000017_Node000013"><a xlink:title=" ">
<path fill="none" stroke="#63b8ff" d="M299.54,-113.09C302.58,-106.16 306.76,-96.62 310.49,-88.11"/>
<polygon fill="#63b8ff" stroke="#63b8ff" points="313.58,-89.78 314.39,-79.21 307.17,-86.97 313.58,-89.78"/>
</a>
</g>
</g>
<!-- Node17&#45;&gt;Node14 -->
<g id="edge22_Node000017_Node000014" class="edge">
<title>Node17&#45;&gt;Node14</title>
<g id="a_edge22_Node000017_Node000014"><a xlink:title=" ">
<path fill="none" stroke="#63b8ff" d="M336.9,-120.02C392.45,-115.24 486.25,-103.48 507.25,-77.5 518.76,-63.27 507.7,-43.76 496.08,-29.62"/>
<polygon fill="#63b8ff" stroke="#63b8ff" points="498.87,-27.49 489.6,-22.35 493.64,-32.14 498.87,-27.49"/>
</a>
</g>
</g>
<!-- Node19 -->
<g id="Node000019" class="node">
<title>Node19</title>
<g id="a_Node000019"><a xlink:title=" ">
<polygon fill="#e0e0e0" stroke="#999999" points="1059.12,-77.5 1003.38,-77.5 1003.38,-56.75 1059.12,-56.75 1059.12,-77.5"/>
<text text-anchor="middle" x="1031.25" y="-64" font-family="Helvetica,sans-Serif" font-size="10.00">stdarg.h</text>
</a>
</g>
</g>
<!-- Node18&#45;&gt;Node19 -->
<g id="edge26_Node000018_Node000019" class="edge">
<title>Node18&#45;&gt;Node19</title>
<g id="a_edge26_Node000018_Node000019"><a xlink:title=" ">
<path fill="none" stroke="#63b8ff" d="M1031.25,-113.09C1031.25,-106.47 1031.25,-97.47 1031.25,-89.27"/>
<polygon fill="#63b8ff" stroke="#63b8ff" points="1034.75,-89.34 1031.25,-79.34 1027.75,-89.34 1034.75,-89.34"/>
</a>
</g>
</g>
</g>
</svg>
