<?xml version="1.0" encoding="UTF-8" standalone="no"?>
<!DOCTYPE svg PUBLIC "-//W3C//DTD SVG 1.1//EN"
 "http://www.w3.org/Graphics/SVG/1.1/DTD/svg11.dtd">
<!-- Generated by graphviz version 2.43.0 (0)
 -->
<!-- Title: path_exists Pages: 1 -->
<svg width="324pt" height="80pt"
 viewBox="0.00 0.00 324.00 79.99" xmlns="http://www.w3.org/2000/svg" xmlns:xlink="http://www.w3.org/1999/xlink">

<svg id="main" version="1.1" xmlns="http://www.w3.org/2000/svg" xmlns:xlink="http://www.w3.org/1999/xlink" xml:space="preserve" onload="init(evt)">
<style type="text/css"><![CDATA[
.node, .edge {opacity: 0.7;}
.node.selected, .edge.selected {opacity: 1;}
.edge:hover path { stroke: red; }
.edge:hover polygon { stroke: red; fill: red; }
]]></style>
<script type="application/ecmascript" xlink:href="svg.min.js"/>
<svg id="graph" class="graph">
<g id="graph0" class="graph" transform="scale(1 1) rotate(0) translate(4 75.99)">
<title>path_exists</title>
<!-- Node1 -->
<g id="Node000001" class="node">
<title>Node1</title>
<g id="a_Node000001"><a xlink:title="Determine whether a filesystem path exists (stat succeeds).">
<polygon fill="#999999" stroke="#666666" points="316,-56 243,-56 243,-37 316,-37 316,-56"/>
<text text-anchor="middle" x="279.5" y="-44" font-family="Helvetica,sans-Serif" font-size="10.00">path_exists</text>
</a>
</g>
</g>
<!-- Node2 -->
<g id="Node000002" class="node">
<title>Node2</title>
<g id="a_Node000002"><a xlink:href="main__infer_8c.html#a3c04138a5bfe5d72780bb7e82a18e627" target="_top" xlink:title="main.">
<polygon fill="white" stroke="#666666" points="41,-56 0,-56 0,-37 41,-37 41,-56"/>
<text text-anchor="middle" x="20.5" y="-44" font-family="Helvetica,sans-Serif" font-size="10.00">main</text>
</a>
</g>
</g>
<!-- Node1&#45;&gt;Node2 -->
<g id="edge1_Node000001_Node000002" class="edge">
<title>Node1&#45;&gt;Node2</title>
<g id="a_edge1_Node000001_Node000002"><a xlink:title=" ">
<path fill="none" stroke="#63b8ff" d="M239.86,-58.73C229.31,-61.52 217.81,-64.09 207,-65.5 149.71,-72.98 133.99,-74.99 77,-65.5 64.74,-63.46 51.56,-59.05 41.13,-54.99"/>
<polygon fill="#63b8ff" stroke="#63b8ff" points="240.93,-62.06 249.62,-56 239.05,-55.32 240.93,-62.06"/>
</a>
</g>
</g>
<!-- Node3 -->
<g id="Node000003" class="node">
<title>Node3</title>
<g id="a_Node000003"><a xlink:href="main__infer_8c.html#ad6b894571e18a35f21d8451e008fae37" target="_top" xlink:title="Resolve model JSON/BIN paths based on model_dir and precision defaults.">
<polygon fill="white" stroke="#666666" points="202.5,-56 81.5,-56 81.5,-37 202.5,-37 202.5,-56"/>
<text text-anchor="middle" x="142" y="-44" font-family="Helvetica,sans-Serif" font-size="10.00">resolve_model_paths</text>
</a>
</g>
</g>
<!-- Node1&#45;&gt;Node3 -->
<g id="edge2_Node000001_Node000003" class="edge">
<title>Node1&#45;&gt;Node3</title>
<g id="a_edge2_Node000001_Node000003"><a xlink:title=" ">
<path fill="none" stroke="#63b8ff" d="M232.74,-46.5C223.1,-46.5 212.79,-46.5 202.72,-46.5"/>
<polygon fill="#63b8ff" stroke="#63b8ff" points="232.9,-50 242.9,-46.5 232.9,-43 232.9,-50"/>
</a>
</g>
</g>
<!-- Node4 -->
<g id="Node000004" class="node">
<title>Node4</title>
<g id="a_Node000004"><a xlink:href="main__infer_8c.html#a0271a21f39c53534b7a1a3cc7eb94596" target="_top" xlink:title="Resolve a tokenizer path under a model directory.">
<polygon fill="white" stroke="#666666" points="207,-19 77,-19 77,0 207,0 207,-19"/>
<text text-anchor="middle" x="142" y="-7" font-family="Helvetica,sans-Serif" font-size="10.00">resolve_tokenizer_path</text>
</a>
</g>
</g>
<!-- Node1&#45;&gt;Node4 -->
<g id="edge4_Node000001_Node000004" class="edge">
<title>Node1&#45;&gt;Node4</title>
<g id="a_edge4_Node000001_Node000004"><a xlink:title=" ">
<path fill="none" stroke="#63b8ff" d="M233.86,-34.31C215.79,-29.38 195.23,-23.76 178.25,-19.12"/>
<polygon fill="#63b8ff" stroke="#63b8ff" points="233.04,-37.71 243.61,-36.97 234.88,-30.96 233.04,-37.71"/>
</a>
</g>
</g>
<!-- Node3&#45;&gt;Node2 -->
<g id="edge3_Node000003_Node000002" class="edge">
<title>Node3&#45;&gt;Node2</title>
<g id="a_edge3_Node000003_Node000002"><a xlink:title=" ">
<path fill="none" stroke="#63b8ff" d="M71.12,-46.5C60.18,-46.5 49.71,-46.5 41.23,-46.5"/>
<polygon fill="#63b8ff" stroke="#63b8ff" points="71.25,-50 81.25,-46.5 71.25,-43 71.25,-50"/>
</a>
</g>
</g>
<!-- Node4&#45;&gt;Node2 -->
<g id="edge5_Node000004_Node000002" class="edge">
<title>Node4&#45;&gt;Node2</title>
<g id="a_edge5_Node000004_Node000002"><a xlink:title=" ">
<path fill="none" stroke="#63b8ff" d="M98.7,-21.9C91.45,-24.07 84,-26.33 77,-28.5 65.1,-32.2 51.82,-36.49 41.24,-39.96"/>
<polygon fill="#63b8ff" stroke="#63b8ff" points="99.81,-25.22 108.39,-19.01 97.81,-18.51 99.81,-25.22"/>
</a>
</g>
</g>
</g>
</svg>
</svg>

<style type='text/css'>
<![CDATA[
[data-mouse-over-selected='false'] { opacity: 0.7; }
[data-mouse-over-selected='true']  { opacity: 1.0; }
]]>
</style>
<script type="application/ecmascript"><![CDATA[
document.addEventListener('DOMContentLoaded', (event) => {
  highlightEdges();
  highlightAdjacentNodes();
});
]]></script>
</svg>
