<?xml version="1.0" encoding="UTF-8" standalone="no"?>
<!DOCTYPE svg PUBLIC "-//W3C//DTD SVG 1.1//EN"
 "http://www.w3.org/Graphics/SVG/1.1/DTD/svg11.dtd">
<!-- Generated by graphviz version 2.43.0 (0)
 -->
<!-- Title: print_json_result Pages: 1 -->
<svg width="255pt" height="113pt"
 viewBox="0.00 0.00 255.00 112.50" xmlns="http://www.w3.org/2000/svg" xmlns:xlink="http://www.w3.org/1999/xlink">
<g id="graph0" class="graph" transform="scale(1 1) rotate(0) translate(4 108.5)">
<title>print_json_result</title>
<!-- Node1 -->
<g id="Node000001" class="node">
<title>Node1</title>
<g id="a_Node000001"><a xlink:title="Print the single JSON result object to stdout.">
<polygon fill="#999999" stroke="#666666" points="98,-56 0,-56 0,-37 98,-37 98,-56"/>
<text text-anchor="middle" x="49" y="-44" font-family="Helvetica,sans-Serif" font-size="10.00">print_json_result</text>
</a>
</g>
</g>
<!-- Node2 -->
<g id="Node000002" class="node">
<title>Node2</title>
<g id="a_Node000002"><a xlink:href="main__infer_8c.html#a7427a4a1579fb747a4ce22a4a1d4a80a" target="_top" xlink:title="JSON&#45;escape and print a string value.">
<polygon fill="white" stroke="#666666" points="245.5,-104.5 135.5,-104.5 135.5,-74.5 245.5,-74.5 245.5,-104.5"/>
<text text-anchor="start" x="143.5" y="-92.5" font-family="Helvetica,sans-Serif" font-size="10.00">json_print_escaped</text>
<text text-anchor="middle" x="190.5" y="-81.5" font-family="Helvetica,sans-Serif" font-size="10.00">_string</text>
</a>
</g>
</g>
<!-- Node1&#45;&gt;Node2 -->
<g id="edge1_Node000001_Node000002" class="edge">
<title>Node1&#45;&gt;Node2</title>
<g id="a_edge1_Node000001_Node000002"><a xlink:title=" ">
<path fill="none" stroke="#63b8ff" d="M80.96,-56.04C95.65,-60.57 113.72,-66.14 130.86,-71.43"/>
<polygon fill="#63b8ff" stroke="#63b8ff" points="130.23,-74.89 140.82,-74.49 132.29,-68.2 130.23,-74.89"/>
</a>
</g>
</g>
<!-- Node3 -->
<g id="Node000003" class="node">
<title>Node3</title>
<g id="a_Node000003"><a xlink:href="main__infer_8c.html#a9205188606b8d4265d29fa8911259cac" target="_top" xlink:title="Print a JSON array of integers.">
<polygon fill="white" stroke="#666666" points="247,-56 134,-56 134,-37 247,-37 247,-56"/>
<text text-anchor="middle" x="190.5" y="-44" font-family="Helvetica,sans-Serif" font-size="10.00">json_print_int_array</text>
</a>
</g>
</g>
<!-- Node1&#45;&gt;Node3 -->
<g id="edge2_Node000001_Node000003" class="edge">
<title>Node1&#45;&gt;Node3</title>
<g id="a_edge2_Node000001_Node000003"><a xlink:title=" ">
<path fill="none" stroke="#63b8ff" d="M98.01,-46.5C106.28,-46.5 115,-46.5 123.65,-46.5"/>
<polygon fill="#63b8ff" stroke="#63b8ff" points="123.72,-50 133.72,-46.5 123.72,-43 123.72,-50"/>
</a>
</g>
</g>
<!-- Node4 -->
<g id="Node000004" class="node">
<title>Node4</title>
<g id="a_Node000004"><a xlink:href="main__infer_8c.html#ad7f42b712b3e86af5d9f8c9942bc8875" target="_top" xlink:title="Compute a stable 64&#45;bit prompt ID (FNV&#45;1a over bytes).">
<polygon fill="white" stroke="#666666" points="246,-19 135,-19 135,0 246,0 246,-19"/>
<text text-anchor="middle" x="190.5" y="-7" font-family="Helvetica,sans-Serif" font-size="10.00">prompt_id_fnv1a64</text>
</a>
</g>
</g>
<!-- Node1&#45;&gt;Node4 -->
<g id="edge3_Node000001_Node000004" class="edge">
<title>Node1&#45;&gt;Node4</title>
<g id="a_edge3_Node000001_Node000004"><a xlink:title=" ">
<path fill="none" stroke="#63b8ff" d="M85.92,-36.97C103.44,-32.33 124.72,-26.68 143.42,-21.72"/>
<polygon fill="#63b8ff" stroke="#63b8ff" points="144.44,-25.07 153.21,-19.12 142.65,-18.31 144.44,-25.07"/>
</a>
</g>
</g>
</g>
</svg>
