<?xml version="1.0" encoding="UTF-8" standalone="no"?>
<!DOCTYPE svg PUBLIC "-//W3C//DTD SVG 1.1//EN"
 "http://www.w3.org/Graphics/SVG/1.1/DTD/svg11.dtd">
<!-- Generated by graphviz version 2.43.0 (0)
 -->
<!-- Title: ie_mlp_cpu_swiglu_f32 Pages: 1 -->
<svg width="980pt" height="470pt"
 viewBox="0.00 0.00 980.00 470.00" xmlns="http://www.w3.org/2000/svg" xmlns:xlink="http://www.w3.org/1999/xlink">
<g id="graph0" class="graph" transform="scale(1 1) rotate(0) translate(4 466)">
<title>ie_mlp_cpu_swiglu_f32</title>
<!-- Node1 -->
<g id="Node000001" class="node">
<title>Node1</title>
<g id="a_Node000001"><a xlink:title="SwiGLU MLP forward (FP32 weights/activations).">
<polygon fill="#999999" stroke="#666666" points="130,-187 0,-187 0,-168 130,-168 130,-187"/>
<text text-anchor="middle" x="65" y="-175" font-family="Helvetica,sans-Serif" font-size="10.00">ie_mlp_cpu_swiglu_f32</text>
</a>
</g>
</g>
<!-- Node2 -->
<g id="Node000002" class="node">
<title>Node2</title>
<g id="a_Node000002"><a xlink:href="gemv__generic_8c.html#a0416d116aabe509598e8a1aaf31a0f55" target="_top" xlink:title="GEMV (fp32): y[r] = dot(W[r,:], x) + (bias ? bias[r] : 0).">
<polygon fill="white" stroke="#666666" points="246,-206 166,-206 166,-187 246,-187 246,-206"/>
<text text-anchor="middle" x="206" y="-194" font-family="Helvetica,sans-Serif" font-size="10.00">ie_gemv_f32</text>
</a>
</g>
</g>
<!-- Node1&#45;&gt;Node2 -->
<g id="edge1_Node000001_Node000002" class="edge">
<title>Node1&#45;&gt;Node2</title>
<g id="a_edge1_Node000001_Node000002"><a xlink:title=" ">
<path fill="none" stroke="#63b8ff" d="M130.21,-186.28C138.71,-187.44 147.32,-188.62 155.52,-189.74"/>
<polygon fill="#63b8ff" stroke="#63b8ff" points="155.28,-193.24 165.66,-191.12 156.22,-186.3 155.28,-193.24"/>
</a>
</g>
</g>
<!-- Node25 -->
<g id="Node000025" class="node">
<title>Node25</title>
<g id="a_Node000025"><a xlink:href="mlp__cpu_8c.html#ad92c702f11c91879106ec51d43bbf949" target="_top" xlink:title=" ">
<polygon fill="white" stroke="#666666" points="233.5,-169 178.5,-169 178.5,-150 233.5,-150 233.5,-169"/>
<text text-anchor="middle" x="206" y="-157" font-family="Helvetica,sans-Serif" font-size="10.00">silu_f32</text>
</a>
</g>
</g>
<!-- Node1&#45;&gt;Node25 -->
<g id="edge29_Node000001_Node000025" class="edge">
<title>Node1&#45;&gt;Node25</title>
<g id="a_edge29_Node000001_Node000025"><a xlink:title=" ">
<path fill="none" stroke="#63b8ff" d="M130.21,-169.18C143.17,-167.51 156.38,-165.8 168.02,-164.29"/>
<polygon fill="#63b8ff" stroke="#63b8ff" points="168.75,-167.72 178.21,-162.97 167.85,-160.78 168.75,-167.72"/>
</a>
</g>
</g>
<!-- Node3 -->
<g id="Node000003" class="node">
<title>Node3</title>
<g id="a_Node000003"><a xlink:href="gemv__generic_8c.html#afcee3c04ff97cb24bf4d3d84cbe1b9e7" target="_top" xlink:title=" ">
<polygon fill="white" stroke="#666666" points="395,-206 282,-206 282,-187 395,-187 395,-206"/>
<text text-anchor="middle" x="338.5" y="-194" font-family="Helvetica,sans-Serif" font-size="10.00">ie_kernels_lazy_init</text>
</a>
</g>
</g>
<!-- Node2&#45;&gt;Node3 -->
<g id="edge2_Node000002_Node000003" class="edge">
<title>Node2&#45;&gt;Node3</title>
<g id="a_edge2_Node000002_Node000003"><a xlink:title=" ">
<path fill="none" stroke="#63b8ff" d="M246.15,-196.5C254.25,-196.5 262.98,-196.5 271.73,-196.5"/>
<polygon fill="#63b8ff" stroke="#63b8ff" points="271.97,-200 281.97,-196.5 271.97,-193 271.97,-200"/>
</a>
</g>
</g>
<!-- Node4 -->
<g id="Node000004" class="node">
<title>Node4</title>
<g id="a_Node000004"><a xlink:href="gemv__generic_8c.html#a1b919f71b86ec1791fe53bc68d5c240d" target="_top" xlink:title="Install the best available CPU kernels for this process.">
<polygon fill="white" stroke="#666666" points="532,-206 431,-206 431,-187 532,-187 532,-206"/>
<text text-anchor="middle" x="481.5" y="-194" font-family="Helvetica,sans-Serif" font-size="10.00">ie_kernels_install</text>
</a>
</g>
</g>
<!-- Node3&#45;&gt;Node4 -->
<g id="edge3_Node000003_Node000004" class="edge">
<title>Node3&#45;&gt;Node4</title>
<g id="a_edge3_Node000003_Node000004"><a xlink:title=" ">
<path fill="none" stroke="#63b8ff" d="M395.23,-196.5C403.55,-196.5 412.15,-196.5 420.55,-196.5"/>
<polygon fill="#63b8ff" stroke="#63b8ff" points="420.66,-200 430.66,-196.5 420.66,-193 420.66,-200"/>
</a>
</g>
</g>
<!-- Node5 -->
<g id="Node000005" class="node">
<title>Node5</title>
<g id="a_Node000005"><a xlink:href="cpu__features_8c.html#a52efeab08d996ee1bef746c591684b9d" target="_top" xlink:title="Alias for ie_cpu_detect for clearer call sites.">
<polygon fill="white" stroke="#666666" points="714.5,-376 584.5,-376 584.5,-357 714.5,-357 714.5,-376"/>
<text text-anchor="middle" x="649.5" y="-364" font-family="Helvetica,sans-Serif" font-size="10.00">ie_cpu_features_detect</text>
</a>
</g>
</g>
<!-- Node4&#45;&gt;Node5 -->
<g id="edge4_Node000004_Node000005" class="edge">
<title>Node4&#45;&gt;Node5</title>
<g id="a_edge4_Node000004_Node000005"><a xlink:title=" ">
<path fill="none" stroke="#63b8ff" d="M484.95,-206.17C492.36,-233.33 517.21,-310.75 568,-348.5 570.24,-350.16 572.6,-351.68 575.06,-353.06"/>
<polygon fill="#63b8ff" stroke="#63b8ff" points="573.78,-356.33 584.31,-357.48 576.8,-350.01 573.78,-356.33"/>
</a>
</g>
</g>
<!-- Node10 -->
<g id="Node000010" class="node">
<title>Node10</title>
<g id="a_Node000010"><a xlink:href="gemv__avx2_8c.html#a77b098e769256a6b3dc5cee67134585d" target="_top" xlink:title=" ">
<polygon fill="white" stroke="#666666" points="731,-265 568,-265 568,-246 731,-246 731,-265"/>
<text text-anchor="middle" x="649.5" y="-253" font-family="Helvetica,sans-Serif" font-size="10.00">ie_gemv_bf16_f32_avx2_impl</text>
</a>
</g>
</g>
<!-- Node4&#45;&gt;Node10 -->
<g id="edge9_Node000004_Node000010" class="edge">
<title>Node4&#45;&gt;Node10</title>
<g id="a_edge9_Node000004_Node000010"><a xlink:title=" ">
<path fill="none" stroke="#63b8ff" d="M499.37,-206.01C516.28,-215.19 543.27,-228.93 568,-237.5 574.36,-239.71 581.11,-241.71 587.87,-243.51"/>
<polygon fill="#63b8ff" stroke="#63b8ff" points="587.21,-246.95 597.77,-246 588.92,-240.16 587.21,-246.95"/>
</a>
</g>
</g>
<!-- Node13 -->
<g id="Node000013" class="node">
<title>Node13</title>
<g id="a_Node000013"><a xlink:href="gemv__generic_8c.html#a07fc9251edf42c12732cce490f6dbec0" target="_top" xlink:title=" ">
<polygon fill="white" stroke="#666666" points="726.5,-142 572.5,-142 572.5,-123 726.5,-123 726.5,-142"/>
<text text-anchor="middle" x="649.5" y="-130" font-family="Helvetica,sans-Serif" font-size="10.00">ie_gemv_bf16_generic_impl</text>
</a>
</g>
</g>
<!-- Node4&#45;&gt;Node13 -->
<g id="edge12_Node000004_Node000013" class="edge">
<title>Node4&#45;&gt;Node13</title>
<g id="a_edge12_Node000004_Node000013"><a xlink:title=" ">
<path fill="none" stroke="#63b8ff" d="M497.71,-186.98C514.39,-176.9 542.24,-161.14 568,-151.5 574.84,-148.94 582.14,-146.65 589.45,-144.61"/>
<polygon fill="#63b8ff" stroke="#63b8ff" points="590.6,-147.93 599.38,-142.01 588.82,-141.16 590.6,-147.93"/>
</a>
</g>
</g>
<!-- Node15 -->
<g id="Node000015" class="node">
<title>Node15</title>
<g id="a_Node000015"><a xlink:href="gemv__avx2_8c.html#acaba4ae4061c51c21ce544cdef0abfeb" target="_top" xlink:title=" ">
<polygon fill="white" stroke="#666666" points="717.5,-339 581.5,-339 581.5,-320 717.5,-320 717.5,-339"/>
<text text-anchor="middle" x="649.5" y="-327" font-family="Helvetica,sans-Serif" font-size="10.00">ie_gemv_f32_avx2_impl</text>
</a>
</g>
</g>
<!-- Node4&#45;&gt;Node15 -->
<g id="edge14_Node000004_Node000015" class="edge">
<title>Node4&#45;&gt;Node15</title>
<g id="a_edge14_Node000004_Node000015"><a xlink:title=" ">
<path fill="none" stroke="#63b8ff" d="M486.68,-206.04C496.98,-228.36 525.85,-284.14 568,-311.5 570.48,-313.11 573.08,-314.57 575.77,-315.91"/>
<polygon fill="#63b8ff" stroke="#63b8ff" points="574.62,-319.23 585.19,-319.97 577.39,-312.8 574.62,-319.23"/>
</a>
</g>
</g>
<!-- Node16 -->
<g id="Node000016" class="node">
<title>Node16</title>
<g id="a_Node000016"><a xlink:href="gemv__generic_8c.html#a2458b36cdf25be06d49e73da98c27a66" target="_top" xlink:title=" ">
<polygon fill="white" stroke="#666666" points="723.5,-228 575.5,-228 575.5,-209 723.5,-209 723.5,-228"/>
<text text-anchor="middle" x="649.5" y="-216" font-family="Helvetica,sans-Serif" font-size="10.00">ie_gemv_f32_generic_impl</text>
</a>
</g>
</g>
<!-- Node4&#45;&gt;Node16 -->
<g id="edge16_Node000004_Node000016" class="edge">
<title>Node4&#45;&gt;Node16</title>
<g id="a_edge16_Node000004_Node000016"><a xlink:title=" ">
<path fill="none" stroke="#63b8ff" d="M532.31,-203.1C543.09,-204.53 554.77,-206.08 566.42,-207.62"/>
<polygon fill="#63b8ff" stroke="#63b8ff" points="566.26,-211.13 576.64,-208.98 567.18,-204.19 566.26,-211.13"/>
</a>
</g>
</g>
<!-- Node17 -->
<g id="Node000017" class="node">
<title>Node17</title>
<g id="a_Node000017"><a xlink:href="gemv__avx2_8c.html#a061189cc7f89d42b42e03eccedb0a59e" target="_top" xlink:title=" ">
<polygon fill="white" stroke="#666666" points="717,-302 582,-302 582,-283 717,-283 717,-302"/>
<text text-anchor="middle" x="649.5" y="-290" font-family="Helvetica,sans-Serif" font-size="10.00">ie_gemv_qi8_avx2_impl</text>
</a>
</g>
</g>
<!-- Node4&#45;&gt;Node17 -->
<g id="edge17_Node000004_Node000017" class="edge">
<title>Node4&#45;&gt;Node17</title>
<g id="a_edge17_Node000004_Node000017"><a xlink:title=" ">
<path fill="none" stroke="#63b8ff" d="M490.08,-206.13C503.76,-222.81 534.31,-256.97 568,-274.5 571.72,-276.43 575.63,-278.16 579.66,-279.7"/>
<polygon fill="#63b8ff" stroke="#63b8ff" points="578.61,-283.04 589.2,-282.97 580.88,-276.42 578.61,-283.04"/>
</a>
</g>
</g>
<!-- Node18 -->
<g id="Node000018" class="node">
<title>Node18</title>
<g id="a_Node000018"><a xlink:href="gemv__generic_8c.html#a3e532847f3b6cd6a2ed3be0786ee18ce" target="_top" xlink:title=" ">
<polygon fill="white" stroke="#666666" points="715.5,-19 583.5,-19 583.5,0 715.5,0 715.5,-19"/>
<text text-anchor="middle" x="649.5" y="-7" font-family="Helvetica,sans-Serif" font-size="10.00">ie_gemv_qi8_stub_impl</text>
</a>
</g>
</g>
<!-- Node4&#45;&gt;Node18 -->
<g id="edge19_Node000004_Node000018" class="edge">
<title>Node4&#45;&gt;Node18</title>
<g id="a_edge19_Node000004_Node000018"><a xlink:title=" ">
<path fill="none" stroke="#63b8ff" d="M484.46,-186.71C490.83,-157.63 513.7,-71.16 568,-28.5 570.2,-26.77 572.53,-25.2 574.96,-23.76"/>
<polygon fill="#63b8ff" stroke="#63b8ff" points="576.77,-26.77 584.13,-19.15 573.63,-20.51 576.77,-26.77"/>
</a>
</g>
</g>
<!-- Node21 -->
<g id="Node000021" class="node">
<title>Node21</title>
<g id="a_Node000021"><a xlink:href="gemv__generic_8c.html#abdc04113c83880ea48ee1599cf3db331" target="_top" xlink:title=" ">
<polygon fill="white" stroke="#666666" points="704.5,-56 594.5,-56 594.5,-37 704.5,-37 704.5,-56"/>
<text text-anchor="middle" x="649.5" y="-44" font-family="Helvetica,sans-Serif" font-size="10.00">ie_log_kernel_once</text>
</a>
</g>
</g>
<!-- Node4&#45;&gt;Node21 -->
<g id="edge22_Node000004_Node000021" class="edge">
<title>Node4&#45;&gt;Node21</title>
<g id="a_edge22_Node000004_Node000021"><a xlink:title=" ">
<path fill="none" stroke="#63b8ff" d="M485.9,-186.78C495.02,-162.25 522.44,-97.49 568,-65.5 572.97,-62.01 578.49,-59.16 584.25,-56.82"/>
<polygon fill="#63b8ff" stroke="#63b8ff" points="585.83,-59.98 594.11,-53.36 583.52,-53.37 585.83,-59.98"/>
</a>
</g>
</g>
<!-- Node23 -->
<g id="Node000023" class="node">
<title>Node23</title>
<g id="a_Node000023"><a xlink:href="gemv__avx2_8c.html#a182d6274d92f1f94910f1881e7cd3b19" target="_top" xlink:title=" ">
<polygon fill="white" stroke="#666666" points="705,-190.5 594,-190.5 594,-160.5 705,-160.5 705,-190.5"/>
<text text-anchor="start" x="602" y="-178.5" font-family="Helvetica,sans-Serif" font-size="10.00">ie_vec_bf16_to_f32</text>
<text text-anchor="middle" x="649.5" y="-167.5" font-family="Helvetica,sans-Serif" font-size="10.00">_avx2_impl</text>
</a>
</g>
</g>
<!-- Node4&#45;&gt;Node23 -->
<g id="edge25_Node000004_Node000023" class="edge">
<title>Node4&#45;&gt;Node23</title>
<g id="a_edge25_Node000004_Node000023"><a xlink:title=" ">
<path fill="none" stroke="#63b8ff" d="M532.31,-190.2C548.51,-188.15 566.74,-185.84 583.87,-183.68"/>
<polygon fill="#63b8ff" stroke="#63b8ff" points="584.32,-187.15 593.8,-182.42 583.44,-180.2 584.32,-187.15"/>
</a>
</g>
</g>
<!-- Node24 -->
<g id="Node000024" class="node">
<title>Node24</title>
<g id="a_Node000024"><a xlink:href="gemv__generic_8c.html#a9d75736f9f9d37cbc2bb7fe37c06cc55" target="_top" xlink:title=" ">
<polygon fill="white" stroke="#666666" points="705,-104.5 594,-104.5 594,-74.5 705,-74.5 705,-104.5"/>
<text text-anchor="start" x="602" y="-92.5" font-family="Helvetica,sans-Serif" font-size="10.00">ie_vec_bf16_to_f32</text>
<text text-anchor="middle" x="649.5" y="-81.5" font-family="Helvetica,sans-Serif" font-size="10.00">_generic_impl</text>
</a>
</g>
</g>
<!-- Node4&#45;&gt;Node24 -->
<g id="edge27_Node000004_Node000024" class="edge">
<title>Node4&#45;&gt;Node24</title>
<g id="a_edge27_Node000004_Node000024"><a xlink:title=" ">
<path fill="none" stroke="#63b8ff" d="M489.91,-186.92C503.55,-169.9 534.34,-134.35 568,-114.5 573.09,-111.5 578.57,-108.82 584.2,-106.45"/>
<polygon fill="#63b8ff" stroke="#63b8ff" points="585.72,-109.61 593.77,-102.72 583.18,-103.09 585.72,-109.61"/>
</a>
</g>
</g>
<!-- Node6 -->
<g id="Node000006" class="node">
<title>Node6</title>
<g id="a_Node000006"><a xlink:href="cpu__features_8c.html#a57a31c8ca934dd8b9321a1b2d1b7f904" target="_top" xlink:title="Serialize CPU features into a stable one&#45;line string.">
<polygon fill="white" stroke="#666666" points="877.5,-424.5 768.5,-424.5 768.5,-394.5 877.5,-394.5 877.5,-424.5"/>
<text text-anchor="start" x="776.5" y="-412.5" font-family="Helvetica,sans-Serif" font-size="10.00">ie_cpu_features_to</text>
<text text-anchor="middle" x="823" y="-401.5" font-family="Helvetica,sans-Serif" font-size="10.00">_string</text>
</a>
</g>
</g>
<!-- Node5&#45;&gt;Node6 -->
<g id="edge5_Node000005_Node000006" class="edge">
<title>Node5&#45;&gt;Node6</title>
<g id="a_edge5_Node000005_Node000006"><a xlink:title=" ">
<path fill="none" stroke="#63b8ff" d="M688.56,-376.04C709.11,-381.2 735.02,-387.69 758.53,-393.59"/>
<polygon fill="#63b8ff" stroke="#63b8ff" points="757.88,-397.03 768.43,-396.07 759.59,-390.24 757.88,-397.03"/>
</a>
</g>
</g>
<!-- Node7 -->
<g id="Node000007" class="node">
<title>Node7</title>
<g id="a_Node000007"><a xlink:href="cpu__features_8c.html#ab2d914e201f157a55add02484039d91e" target="_top" xlink:title="Query CPUID with leaf and subleaf.">
<polygon fill="white" stroke="#666666" points="860,-376 786,-376 786,-357 860,-357 860,-376"/>
<text text-anchor="middle" x="823" y="-364" font-family="Helvetica,sans-Serif" font-size="10.00">ie_cpuid_ex</text>
</a>
</g>
</g>
<!-- Node5&#45;&gt;Node7 -->
<g id="edge6_Node000005_Node000007" class="edge">
<title>Node5&#45;&gt;Node7</title>
<g id="a_edge6_Node000005_Node000007"><a xlink:title=" ">
<path fill="none" stroke="#63b8ff" d="M714.85,-366.5C735.06,-366.5 756.96,-366.5 775.67,-366.5"/>
<polygon fill="#63b8ff" stroke="#63b8ff" points="775.7,-370 785.7,-366.5 775.7,-363 775.7,-370"/>
</a>
</g>
</g>
<!-- Node8 -->
<g id="Node000008" class="node">
<title>Node8</title>
<g id="a_Node000008"><a xlink:href="cpu__features_8c.html#a87c4545ac0ad2b6ad2fd70a090b63146" target="_top" xlink:title="Return 1 if the environment variable name is set to a truthy value.">
<polygon fill="white" stroke="#666666" points="859,-339 787,-339 787,-320 859,-320 859,-339"/>
<text text-anchor="middle" x="823" y="-327" font-family="Helvetica,sans-Serif" font-size="10.00">ie_env_flag</text>
</a>
</g>
</g>
<!-- Node5&#45;&gt;Node8 -->
<g id="edge7_Node000005_Node000008" class="edge">
<title>Node5&#45;&gt;Node8</title>
<g id="a_edge7_Node000005_Node000008"><a xlink:title=" ">
<path fill="none" stroke="#63b8ff" d="M694.67,-356.97C719.87,-351.53 751.41,-344.73 776.79,-339.25"/>
<polygon fill="#63b8ff" stroke="#63b8ff" points="777.86,-342.6 786.9,-337.07 776.39,-335.76 777.86,-342.6"/>
</a>
</g>
</g>
<!-- Node9 -->
<g id="Node000009" class="node">
<title>Node9</title>
<g id="a_Node000009"><a xlink:href="cpu__features_8c.html#ab6c2c4097b43f59eb931f7968096761b" target="_top" xlink:title="Read XCR0 via XGETBV to validate OS support for XMM/YMM state.">
<polygon fill="white" stroke="#666666" points="868.5,-462 777.5,-462 777.5,-443 868.5,-443 868.5,-462"/>
<text text-anchor="middle" x="823" y="-450" font-family="Helvetica,sans-Serif" font-size="10.00">ie_xgetbv_xcr0</text>
</a>
</g>
</g>
<!-- Node5&#45;&gt;Node9 -->
<g id="edge8_Node000005_Node000009" class="edge">
<title>Node5&#45;&gt;Node9</title>
<g id="a_edge8_Node000005_Node000009"><a xlink:title=" ">
<path fill="none" stroke="#63b8ff" d="M665.1,-376.11C686.71,-390.04 728.78,-416.1 767,-433.5 771.65,-435.62 776.61,-437.64 781.58,-439.52"/>
<polygon fill="#63b8ff" stroke="#63b8ff" points="780.46,-442.84 791.05,-442.96 782.84,-436.26 780.46,-442.84"/>
</a>
</g>
</g>
<!-- Node11 -->
<g id="Node000011" class="node">
<title>Node11</title>
<g id="a_Node000011"><a xlink:href="gemv__avx2_8c.html#af98ef5b386495afea4aa3d751bab35fd" target="_top" xlink:title="Convert 8 BF16 values to FP32.">
<polygon fill="white" stroke="#666666" points="873.5,-225 772.5,-225 772.5,-206 873.5,-206 873.5,-225"/>
<text text-anchor="middle" x="823" y="-213" font-family="Helvetica,sans-Serif" font-size="10.00">ie_bf16x8_to_f32</text>
</a>
</g>
</g>
<!-- Node10&#45;&gt;Node11 -->
<g id="edge10_Node000010_Node000011" class="edge">
<title>Node10&#45;&gt;Node11</title>
<g id="a_edge10_Node000010_Node000011"><a xlink:title=" ">
<path fill="none" stroke="#63b8ff" d="M693.98,-245.92C705.98,-243.24 719,-240.29 731,-237.5 744.62,-234.33 759.37,-230.81 772.95,-227.52"/>
<polygon fill="#63b8ff" stroke="#63b8ff" points="774.17,-230.83 783.07,-225.07 772.52,-224.02 774.17,-230.83"/>
</a>
</g>
</g>
<!-- Node12 -->
<g id="Node000012" class="node">
<title>Node12</title>
<g id="a_Node000012"><a xlink:href="gemv__avx2_8c.html#a6925be1ed2abd13aef877a68bed45995" target="_top" xlink:title="Horizontal sum of an AVX2 register.">
<polygon fill="white" stroke="#666666" points="869,-302 777,-302 777,-283 869,-283 869,-302"/>
<text text-anchor="middle" x="823" y="-290" font-family="Helvetica,sans-Serif" font-size="10.00">ie_hsum256_ps</text>
</a>
</g>
</g>
<!-- Node10&#45;&gt;Node12 -->
<g id="edge11_Node000010_Node000012" class="edge">
<title>Node10&#45;&gt;Node12</title>
<g id="a_edge11_Node000010_Node000012"><a xlink:title=" ">
<path fill="none" stroke="#63b8ff" d="M694.67,-265.03C716.98,-269.84 744.26,-275.73 767.83,-280.81"/>
<polygon fill="#63b8ff" stroke="#63b8ff" points="767.17,-284.25 777.69,-282.94 768.65,-277.41 767.17,-284.25"/>
</a>
</g>
</g>
<!-- Node14 -->
<g id="Node000014" class="node">
<title>Node14</title>
<g id="a_Node000014"><a xlink:href="gemv__generic_8c.html#a25aaeba2e146d0f4cfd8f968a6cb8689" target="_top" xlink:title=" ">
<polygon fill="white" stroke="#666666" points="879,-120 767,-120 767,-101 879,-101 879,-120"/>
<text text-anchor="middle" x="823" y="-108" font-family="Helvetica,sans-Serif" font-size="10.00">ie_bf16_bits_to_f32</text>
</a>
</g>
</g>
<!-- Node13&#45;&gt;Node14 -->
<g id="edge13_Node000013_Node000014" class="edge">
<title>Node13&#45;&gt;Node14</title>
<g id="a_edge13_Node000013_Node000014"><a xlink:title=" ">
<path fill="none" stroke="#63b8ff" d="M724.72,-122.98C735.32,-121.62 746.15,-120.23 756.55,-118.9"/>
<polygon fill="#63b8ff" stroke="#63b8ff" points="757.32,-122.33 766.8,-117.58 756.43,-115.38 757.32,-122.33"/>
</a>
</g>
</g>
<!-- Node15&#45;&gt;Node12 -->
<g id="edge15_Node000015_Node000012" class="edge">
<title>Node15&#45;&gt;Node12</title>
<g id="a_edge15_Node000015_Node000012"><a xlink:title=" ">
<path fill="none" stroke="#63b8ff" d="M694.67,-319.97C716.98,-315.16 744.26,-309.27 767.83,-304.19"/>
<polygon fill="#63b8ff" stroke="#63b8ff" points="768.65,-307.59 777.69,-302.06 767.17,-300.75 768.65,-307.59"/>
</a>
</g>
</g>
<!-- Node17&#45;&gt;Node12 -->
<g id="edge18_Node000017_Node000012" class="edge">
<title>Node17&#45;&gt;Node12</title>
<g id="a_edge18_Node000017_Node000012"><a xlink:title=" ">
<path fill="none" stroke="#63b8ff" d="M717.3,-292.5C733.65,-292.5 750.98,-292.5 766.73,-292.5"/>
<polygon fill="#63b8ff" stroke="#63b8ff" points="766.82,-296 776.82,-292.5 766.82,-289 766.82,-296"/>
</a>
</g>
</g>
<!-- Node19 -->
<g id="Node000019" class="node">
<title>Node19</title>
<g id="a_Node000019"><a xlink:href="util__logging_8c.html#aea21466075cc03977bc4fcde5130d6a4" target="_top" xlink:title="Log an error message (printf&#45;style).">
<polygon fill="white" stroke="#666666" points="860,-19 786,-19 786,0 860,0 860,-19"/>
<text text-anchor="middle" x="823" y="-7" font-family="Helvetica,sans-Serif" font-size="10.00">ie_log_error</text>
</a>
</g>
</g>
<!-- Node18&#45;&gt;Node19 -->
<g id="edge20_Node000018_Node000019" class="edge">
<title>Node18&#45;&gt;Node19</title>
<g id="a_edge20_Node000018_Node000019"><a xlink:title=" ">
<path fill="none" stroke="#63b8ff" d="M715.83,-9.5C735.7,-9.5 757.13,-9.5 775.5,-9.5"/>
<polygon fill="#63b8ff" stroke="#63b8ff" points="775.64,-13 785.64,-9.5 775.64,-6 775.64,-13"/>
</a>
</g>
</g>
<!-- Node20 -->
<g id="Node000020" class="node">
<title>Node20</title>
<g id="a_Node000020"><a xlink:href="util__logging_8c.html#ac0a8abb7ed0f336e7d2a4a9eeac1e634" target="_top" xlink:title=" ">
<polygon fill="white" stroke="#666666" points="972,-37 915,-37 915,-18 972,-18 972,-37"/>
<text text-anchor="middle" x="943.5" y="-25" font-family="Helvetica,sans-Serif" font-size="10.00">ie_vlog_</text>
</a>
</g>
</g>
<!-- Node19&#45;&gt;Node20 -->
<g id="edge21_Node000019_Node000020" class="edge">
<title>Node19&#45;&gt;Node20</title>
<g id="a_edge21_Node000019_Node000020"><a xlink:title=" ">
<path fill="none" stroke="#63b8ff" d="M860.2,-15C874.33,-17.14 890.53,-19.61 904.8,-21.77"/>
<polygon fill="#63b8ff" stroke="#63b8ff" points="904.38,-25.25 914.8,-23.29 905.44,-18.33 904.38,-25.25"/>
</a>
</g>
</g>
<!-- Node22 -->
<g id="Node000022" class="node">
<title>Node22</title>
<g id="a_Node000022"><a xlink:href="util__logging_8c.html#a7bff220c76442d1372d81e26f77c2921" target="_top" xlink:title="Log an informational message (printf&#45;style).">
<polygon fill="white" stroke="#666666" points="858,-56 788,-56 788,-37 858,-37 858,-56"/>
<text text-anchor="middle" x="823" y="-44" font-family="Helvetica,sans-Serif" font-size="10.00">ie_log_info</text>
</a>
</g>
</g>
<!-- Node21&#45;&gt;Node22 -->
<g id="edge23_Node000021_Node000022" class="edge">
<title>Node21&#45;&gt;Node22</title>
<g id="a_edge23_Node000021_Node000022"><a xlink:title=" ">
<path fill="none" stroke="#63b8ff" d="M704.76,-46.5C728.23,-46.5 755.35,-46.5 777.59,-46.5"/>
<polygon fill="#63b8ff" stroke="#63b8ff" points="777.76,-50 787.76,-46.5 777.76,-43 777.76,-50"/>
</a>
</g>
</g>
<!-- Node22&#45;&gt;Node20 -->
<g id="edge24_Node000022_Node000020" class="edge">
<title>Node22&#45;&gt;Node20</title>
<g id="a_edge24_Node000022_Node000020"><a xlink:title=" ">
<path fill="none" stroke="#63b8ff" d="M858.28,-41C872.83,-38.67 889.84,-35.94 904.75,-33.55"/>
<polygon fill="#63b8ff" stroke="#63b8ff" points="905.36,-37 914.68,-31.96 904.25,-30.09 905.36,-37"/>
</a>
</g>
</g>
<!-- Node23&#45;&gt;Node11 -->
<g id="edge26_Node000023_Node000011" class="edge">
<title>Node23&#45;&gt;Node11</title>
<g id="a_edge26_Node000023_Node000011"><a xlink:title=" ">
<path fill="none" stroke="#63b8ff" d="M705.24,-188.27C726.38,-193.2 750.43,-198.81 771.19,-203.65"/>
<polygon fill="#63b8ff" stroke="#63b8ff" points="770.56,-207.1 781.09,-205.96 772.15,-200.28 770.56,-207.1"/>
</a>
</g>
</g>
<!-- Node24&#45;&gt;Node14 -->
<g id="edge28_Node000024_Node000014" class="edge">
<title>Node24&#45;&gt;Node14</title>
<g id="a_edge28_Node000024_Node000014"><a xlink:title=" ">
<path fill="none" stroke="#63b8ff" d="M705.24,-96.2C721.55,-98.2 739.6,-100.41 756.53,-102.48"/>
<polygon fill="#63b8ff" stroke="#63b8ff" points="756.55,-106.01 766.9,-103.75 757.4,-99.06 756.55,-106.01"/>
</a>
</g>
</g>
</g>
</svg>
