<?xml version="1.0" encoding="UTF-8" standalone="no"?>
<!DOCTYPE svg PUBLIC "-//W3C//DTD SVG 1.1//EN"
 "http://www.w3.org/Graphics/SVG/1.1/DTD/svg11.dtd">
<!-- Generated by graphviz version 12.2.1 (20241206.2353)
 -->
<!-- Title: hf_to_iebin.align_up Pages: 1 -->
<svg width="408pt" height="53pt"
 viewBox="0.00 0.00 407.75 53.12" xmlns="http://www.w3.org/2000/svg" xmlns:xlink="http://www.w3.org/1999/xlink">
<g id="graph0" class="graph" transform="scale(1 1) rotate(0) translate(4 49.12)">
<title>hf_to_iebin.align_up</title>
<!-- Node1 -->
<g id="Node000001" class="node">
<title>Node1</title>
<g id="a_Node000001"><a xlink:title=" ">
<polygon fill="#999999" stroke="#666666" points="399.75,-27.12 285.5,-27.12 285.5,-6.38 399.75,-6.38 399.75,-27.12"/>
<text text-anchor="middle" x="342.62" y="-13.62" font-family="Helvetica,sans-Serif" font-size="10.00">hf_to_iebin.align_up</text>
</a>
</g>
</g>
<!-- Node2 -->
<g id="Node000002" class="node">
<title>Node2</title>
<g id="a_Node000002"><a xlink:href="namespacehf__to__iebin.html#a9221aaef1fe785c428dcc1d54848a19f" target="_top" xlink:title=" ">
<polygon fill="white" stroke="#666666" points="249.5,-33.5 133.75,-33.5 133.75,0 249.5,0 249.5,-33.5"/>
<text text-anchor="start" x="141.75" y="-20" font-family="Helvetica,sans-Serif" font-size="10.00">hf_to_iebin.compute</text>
<text text-anchor="middle" x="191.62" y="-7.25" font-family="Helvetica,sans-Serif" font-size="10.00">_layout</text>
</a>
</g>
</g>
<!-- Node1&#45;&gt;Node2 -->
<g id="edge1_Node000001_Node000002" class="edge">
<title>Node1&#45;&gt;Node2</title>
<g id="a_edge1_Node000001_Node000002"><a xlink:title=" ">
<path fill="none" stroke="#63b8ff" d="M273.89,-16.75C265.75,-16.75 257.5,-16.75 249.53,-16.75"/>
<polygon fill="#63b8ff" stroke="#63b8ff" points="273.78,-20.25 283.78,-16.75 273.78,-13.25 273.78,-20.25"/>
</a>
</g>
</g>
<!-- Node3 -->
<g id="Node000003" class="node">
<title>Node3</title>
<g id="a_Node000003"><a xlink:href="namespacehf__to__iebin.html#a6a7ed215f575f747c5b16a53cb95eac4" target="_top" xlink:title=" ">
<polygon fill="white" stroke="#666666" points="97.75,-27.12 0,-27.12 0,-6.38 97.75,-6.38 97.75,-27.12"/>
<text text-anchor="middle" x="48.88" y="-13.62" font-family="Helvetica,sans-Serif" font-size="10.00">hf_to_iebin.main</text>
</a>
</g>
</g>
<!-- Node2&#45;&gt;Node3 -->
<g id="edge2_Node000002_Node000003" class="edge">
<title>Node2&#45;&gt;Node3</title>
<g id="a_edge2_Node000002_Node000003"><a xlink:title=" ">
<path fill="none" stroke="#63b8ff" d="M122,-16.75C113.91,-16.75 105.79,-16.75 98.07,-16.75"/>
<polygon fill="#63b8ff" stroke="#63b8ff" points="121.86,-20.25 131.86,-16.75 121.86,-13.25 121.86,-20.25"/>
</a>
</g>
</g>
<!-- Node3&#45;&gt;Node3 -->
<g id="edge3_Node000003_Node000003" class="edge">
<title>Node3&#45;&gt;Node3</title>
<g id="a_edge3_Node000003_Node000003"><a xlink:title=" ">
<path fill="none" stroke="#63b8ff" d="M73.99,-38.61C70.67,-42.45 62.29,-45.12 48.88,-45.12 24.34,-45.12 16.67,-36.18 25.87,-27.52"/>
<polygon fill="#63b8ff" stroke="#63b8ff" points="77.47,-38.18 72.16,-29.01 70.6,-39.49 77.47,-38.18"/>
</a>
</g>
</g>
</g>
</svg>
