<?xml version="1.0" encoding="UTF-8" standalone="no"?>
<!DOCTYPE svg PUBLIC "-//W3C//DTD SVG 1.1//EN"
 "http://www.w3.org/Graphics/SVG/1.1/DTD/svg11.dtd">
<!-- Generated by graphviz version 2.43.0 (0)
 -->
<!-- Title: metrics_exporter._label_str Pages: 1 -->
<svg width="547pt" height="38pt"
 viewBox="0.00 0.00 547.00 38.00" xmlns="http://www.w3.org/2000/svg" xmlns:xlink="http://www.w3.org/1999/xlink">
<g id="graph0" class="graph" transform="scale(1 1) rotate(0) translate(4 34)">
<title>metrics_exporter._label_str</title>
<!-- Node1 -->
<g id="Node000001" class="node">
<title>Node1</title>
<g id="a_Node000001"><a xlink:title=" ">
<polygon fill="#999999" stroke="#666666" points="539,-24.5 390,-24.5 390,-5.5 539,-5.5 539,-24.5"/>
<text text-anchor="middle" x="464.5" y="-12.5" font-family="Helvetica,sans-Serif" font-size="10.00">metrics_exporter._label_str</text>
</a>
</g>
</g>
<!-- Node2 -->
<g id="Node000002" class="node">
<title>Node2</title>
<g id="a_Node000002"><a xlink:href="namespacemetrics__exporter.html#a81c84bf60f85d728f2c125f3ba9419f7" target="_top" xlink:title=" ">
<polygon fill="white" stroke="#666666" points="354,-30 215,-30 215,0 354,0 354,-30"/>
<text text-anchor="start" x="223" y="-18" font-family="Helvetica,sans-Serif" font-size="10.00">metrics_exporter.collect</text>
<text text-anchor="middle" x="284.5" y="-7" font-family="Helvetica,sans-Serif" font-size="10.00">_metrics_from_summary</text>
</a>
</g>
</g>
<!-- Node1&#45;&gt;Node2 -->
<g id="edge1_Node000001_Node000002" class="edge">
<title>Node1&#45;&gt;Node2</title>
<g id="a_edge1_Node000001_Node000002"><a xlink:title=" ">
<path fill="none" stroke="#63b8ff" d="M379.54,-15C371.08,-15 362.55,-15 354.28,-15"/>
<polygon fill="#63b8ff" stroke="#63b8ff" points="379.82,-18.5 389.82,-15 379.82,-11.5 379.82,-18.5"/>
</a>
</g>
</g>
<!-- Node3 -->
<g id="Node000003" class="node">
<title>Node3</title>
<g id="a_Node000003"><a xlink:href="classmetrics__exporter_1_1Handler.html#aa929b01d98693e510b94e82e6a9e92c0" target="_top" xlink:title=" ">
<polygon fill="white" stroke="#666666" points="179,-24.5 0,-24.5 0,-5.5 179,-5.5 179,-24.5"/>
<text text-anchor="middle" x="89.5" y="-12.5" font-family="Helvetica,sans-Serif" font-size="10.00">metrics_exporter.Handler.do_GET</text>
</a>
</g>
</g>
<!-- Node2&#45;&gt;Node3 -->
<g id="edge2_Node000002_Node000003" class="edge">
<title>Node2&#45;&gt;Node3</title>
<g id="a_edge2_Node000002_Node000003"><a xlink:title=" ">
<path fill="none" stroke="#63b8ff" d="M204.73,-15C196.29,-15 187.66,-15 179.12,-15"/>
<polygon fill="#63b8ff" stroke="#63b8ff" points="204.91,-18.5 214.91,-15 204.91,-11.5 204.91,-18.5"/>
</a>
</g>
</g>
</g>
</svg>
