<?xml version="1.0" encoding="UTF-8" standalone="no"?>
<!DOCTYPE svg PUBLIC "-//W3C//DTD SVG 1.1//EN"
 "http://www.w3.org/Graphics/SVG/1.1/DTD/svg11.dtd">
<!-- Generated by graphviz version 2.43.0 (0)
 -->
<!-- Title: verify_report_tokens.get_generated_ids Pages: 1 -->
<svg width="492pt" height="38pt"
 viewBox="0.00 0.00 492.00 38.00" xmlns="http://www.w3.org/2000/svg" xmlns:xlink="http://www.w3.org/1999/xlink">
<g id="graph0" class="graph" transform="scale(1 1) rotate(0) translate(4 34)">
<title>verify_report_tokens.get_generated_ids</title>
<!-- Node1 -->
<g id="Node000001" class="node">
<title>Node1</title>
<g id="a_Node000001"><a xlink:title=" ">
<polygon fill="#999999" stroke="#666666" points="135,-30 0,-30 0,0 135,0 135,-30"/>
<text text-anchor="start" x="8" y="-18" font-family="Helvetica,sans-Serif" font-size="10.00">verify_report_tokens.get</text>
<text text-anchor="middle" x="67.5" y="-7" font-family="Helvetica,sans-Serif" font-size="10.00">_generated_ids</text>
</a>
</g>
</g>
<!-- Node2 -->
<g id="Node000002" class="node">
<title>Node2</title>
<g id="a_Node000002"><a xlink:href="namespaceverify__report__tokens.html#af8914c6f7a07b7038e95d3fae3c052c5" target="_top" xlink:title=" ">
<polygon fill="white" stroke="#666666" points="302,-30 171,-30 171,0 302,0 302,-30"/>
<text text-anchor="start" x="179" y="-18" font-family="Helvetica,sans-Serif" font-size="10.00">verify_report_tokens.as</text>
<text text-anchor="middle" x="236.5" y="-7" font-family="Helvetica,sans-Serif" font-size="10.00">_int_list</text>
</a>
</g>
</g>
<!-- Node1&#45;&gt;Node2 -->
<g id="edge1_Node000001_Node000002" class="edge">
<title>Node1&#45;&gt;Node2</title>
<g id="a_edge1_Node000001_Node000002"><a xlink:title=" ">
<path fill="none" stroke="#63b8ff" d="M135.46,-15C143.79,-15 152.34,-15 160.77,-15"/>
<polygon fill="#63b8ff" stroke="#63b8ff" points="160.97,-18.5 170.97,-15 160.97,-11.5 160.97,-18.5"/>
</a>
</g>
</g>
<!-- Node3 -->
<g id="Node000003" class="node">
<title>Node3</title>
<g id="a_Node000003"><a xlink:href="namespaceverify__report__tokens.html#af16896818e9fdf8c4b336858d002ea4d" target="_top" xlink:title=" ">
<polygon fill="white" stroke="#666666" points="484,-24.5 338,-24.5 338,-5.5 484,-5.5 484,-24.5"/>
<text text-anchor="middle" x="411" y="-12.5" font-family="Helvetica,sans-Serif" font-size="10.00">verify_report_tokens.is_int</text>
</a>
</g>
</g>
<!-- Node2&#45;&gt;Node3 -->
<g id="edge2_Node000002_Node000003" class="edge">
<title>Node2&#45;&gt;Node3</title>
<g id="a_edge2_Node000002_Node000003"><a xlink:title=" ">
<path fill="none" stroke="#63b8ff" d="M302.22,-15C310.61,-15 319.28,-15 327.9,-15"/>
<polygon fill="#63b8ff" stroke="#63b8ff" points="327.97,-18.5 337.97,-15 327.97,-11.5 327.97,-18.5"/>
</a>
</g>
</g>
</g>
</svg>
