<?xml version="1.0" encoding="UTF-8" standalone="no"?>
<!DOCTYPE svg PUBLIC "-//W3C//DTD SVG 1.1//EN"
 "http://www.w3.org/Graphics/SVG/1.1/DTD/svg11.dtd">
<!-- Generated by graphviz version 2.43.0 (0)
 -->
<!-- Title: hf_to_iebin.log Pages: 1 -->
<svg width="487pt" height="277pt"
 viewBox="0.00 0.00 487.00 277.00" xmlns="http://www.w3.org/2000/svg" xmlns:xlink="http://www.w3.org/1999/xlink">
<g id="graph0" class="graph" transform="scale(1 1) rotate(0) translate(4 273)">
<title>hf_to_iebin.log</title>
<!-- Node1 -->
<g id="node1" class="node">
<title>Node1</title>
<g id="a_node1"><a xlink:title=" ">
<polygon fill="#bfbfbf" stroke="black" points="390,-88 390,-107 479,-107 479,-88 390,-88"/>
<text text-anchor="middle" x="434.5" y="-95" font-family="Helvetica,sans-Serif" font-size="10.00">hf_to_iebin.log</text>
</a>
</g>
</g>
<!-- Node2 -->
<g id="node2" class="node">
<title>Node2</title>
<g id="a_node2"><a xlink:href="ie__kernel__ze_8cpp.html#a46e8c280257654db04216d6acbefa0af" target="_top" xlink:title="Ensure the SPIR&#45;V module and all kernel handles are created.">
<polygon fill="none" stroke="black" points="222,-164 222,-183 347,-183 347,-164 222,-164"/>
<text text-anchor="middle" x="284.5" y="-171" font-family="Helvetica,sans-Serif" font-size="10.00">ensure_module_ready</text>
</a>
</g>
</g>
<!-- Node1&#45;&gt;Node2 -->
<g id="edge1" class="edge">
<title>Node1&#45;&gt;Node2</title>
<path fill="none" stroke="midnightblue" d="M414.99,-113.67C399.59,-126.38 376.62,-143.68 354,-154.5 346.1,-158.28 337.31,-161.43 328.73,-164"/>
<polygon fill="midnightblue" stroke="midnightblue" points="417.33,-116.28 422.71,-107.16 412.81,-110.93 417.33,-116.28"/>
</g>
<!-- Node7 -->
<g id="node7" class="node">
<title>Node7</title>
<g id="a_node7"><a xlink:href="namespacehf__to__iebin.html#a2514cfb35940e3760b12dd945c773b19" target="_top" xlink:title=" ">
<polygon fill="none" stroke="black" points="215,-126 215,-145 354,-145 354,-126 215,-126"/>
<text text-anchor="middle" x="284.5" y="-133" font-family="Helvetica,sans-Serif" font-size="10.00">hf_to_iebin.load_q4_map</text>
</a>
</g>
</g>
<!-- Node1&#45;&gt;Node7 -->
<g id="edge6" class="edge">
<title>Node1&#45;&gt;Node7</title>
<path fill="none" stroke="midnightblue" d="M386.33,-109.61C365.71,-114.9 341.89,-121.02 322.58,-125.98"/>
<polygon fill="midnightblue" stroke="midnightblue" points="387.34,-112.97 396.15,-107.09 385.6,-106.19 387.34,-112.97"/>
</g>
<!-- Node8 -->
<g id="node8" class="node">
<title>Node8</title>
<g id="a_node8"><a xlink:href="namespacehf__to__iebin.html#a6a7ed215f575f747c5b16a53cb95eac4" target="_top" xlink:title=" ">
<polygon fill="none" stroke="black" points="40.5,-66 40.5,-85 138.5,-85 138.5,-66 40.5,-66"/>
<text text-anchor="middle" x="89.5" y="-73" font-family="Helvetica,sans-Serif" font-size="10.00">hf_to_iebin.main</text>
</a>
</g>
</g>
<!-- Node1&#45;&gt;Node8 -->
<g id="edge8" class="edge">
<title>Node1&#45;&gt;Node8</title>
<path fill="none" stroke="midnightblue" d="M379.49,-94.04C313.3,-89.79 202.15,-82.66 138.72,-78.59"/>
<polygon fill="midnightblue" stroke="midnightblue" points="379.51,-97.54 389.71,-94.69 379.95,-90.56 379.51,-97.54"/>
</g>
<!-- Node9 -->
<g id="node9" class="node">
<title>Node9</title>
<g id="a_node9"><a xlink:href="namespacehf__to__iebin.html#ab89561584cc35023ce2d321c39677592" target="_top" xlink:title=" ">
<polygon fill="none" stroke="black" points="217.5,-50 217.5,-69 351.5,-69 351.5,-50 217.5,-50"/>
<text text-anchor="middle" x="284.5" y="-57" font-family="Helvetica,sans-Serif" font-size="10.00">hf_to_iebin.pass1_index</text>
</a>
</g>
</g>
<!-- Node1&#45;&gt;Node9 -->
<g id="edge9" class="edge">
<title>Node1&#45;&gt;Node9</title>
<path fill="none" stroke="midnightblue" d="M386.33,-85.39C365.71,-80.1 341.89,-73.98 322.58,-69.02"/>
<polygon fill="midnightblue" stroke="midnightblue" points="385.6,-88.81 396.15,-87.91 387.34,-82.03 385.6,-88.81"/>
</g>
<!-- Node10 -->
<g id="node10" class="node">
<title>Node10</title>
<g id="a_node10"><a xlink:href="namespacehf__to__iebin.html#ab35dbbff6ac99e3d90d3a79fd81e9cca" target="_top" xlink:title=" ">
<polygon fill="none" stroke="black" points="230.5,-0.5 230.5,-30.5 338.5,-30.5 338.5,-0.5 230.5,-0.5"/>
<text text-anchor="start" x="238.5" y="-18.5" font-family="Helvetica,sans-Serif" font-size="10.00">hf_to_iebin.stream</text>
<text text-anchor="middle" x="284.5" y="-7.5" font-family="Helvetica,sans-Serif" font-size="10.00">_write_blob_dedup</text>
</a>
</g>
</g>
<!-- Node1&#45;&gt;Node10 -->
<g id="edge11" class="edge">
<title>Node1&#45;&gt;Node10</title>
<path fill="none" stroke="midnightblue" d="M414.48,-81.59C398.95,-69.18 376.05,-52.15 354,-40.5 347.17,-36.89 339.71,-33.59 332.3,-30.64"/>
<polygon fill="midnightblue" stroke="midnightblue" points="412.33,-84.36 422.3,-87.95 416.75,-78.93 412.33,-84.36"/>
</g>
<!-- Node3 -->
<g id="node3" class="node">
<title>Node3</title>
<g id="a_node3"><a xlink:href="group__IE__GPU__ZE.html#ga8b3a60d6c8ace36a7e0de49ef03666d4" target="_top" xlink:title="Fused GEMV + bias + activation: y = act(alpha*W*x + bias + beta*y).">
<polygon fill="none" stroke="black" points="20.5,-238.5 20.5,-268.5 158.5,-268.5 158.5,-238.5 20.5,-238.5"/>
<text text-anchor="start" x="28.5" y="-256.5" font-family="Helvetica,sans-Serif" font-size="10.00">ie_ze_launch_gemv_bias</text>
<text text-anchor="middle" x="89.5" y="-245.5" font-family="Helvetica,sans-Serif" font-size="10.00">_act_f32</text>
</a>
</g>
</g>
<!-- Node2&#45;&gt;Node3 -->
<g id="edge2" class="edge">
<title>Node2&#45;&gt;Node3</title>
<path fill="none" stroke="midnightblue" d="M258.93,-188.32C238.18,-200.36 207.4,-217.16 179,-228.5 169.96,-232.11 160.2,-235.42 150.58,-238.37"/>
<polygon fill="midnightblue" stroke="midnightblue" points="260.86,-191.24 267.71,-183.16 257.31,-185.21 260.86,-191.24"/>
</g>
<!-- Node4 -->
<g id="node4" class="node">
<title>Node4</title>
<g id="a_node4"><a xlink:href="group__IE__GPU__ZE.html#ga71484badcdb4416b3ac57397416f7d11" target="_top" xlink:title="Row&#45;wise GEMV FP32: y = alpha * W * x + beta * y.">
<polygon fill="none" stroke="black" points="0,-200 0,-219 179,-219 179,-200 0,-200"/>
<text text-anchor="middle" x="89.5" y="-207" font-family="Helvetica,sans-Serif" font-size="10.00">ie_ze_launch_gemv_rowwise_f32</text>
</a>
</g>
</g>
<!-- Node2&#45;&gt;Node4 -->
<g id="edge3" class="edge">
<title>Node2&#45;&gt;Node4</title>
<path fill="none" stroke="midnightblue" d="M222.43,-184.89C196.47,-189.73 166.53,-195.32 141.75,-199.94"/>
<polygon fill="midnightblue" stroke="midnightblue" points="223.35,-188.28 232.54,-183.01 222.07,-181.4 223.35,-188.28"/>
</g>
<!-- Node5 -->
<g id="node5" class="node">
<title>Node5</title>
<g id="a_node5"><a xlink:href="group__IE__GPU__ZE.html#ga01b63c6c0def048b6eb55bc2b1f2b4c4" target="_top" xlink:title="Pack W (row&#45;major) into Blocked&#45;K layout into Wp.">
<polygon fill="none" stroke="black" points="28.5,-150.5 28.5,-180.5 150.5,-180.5 150.5,-150.5 28.5,-150.5"/>
<text text-anchor="start" x="36.5" y="-168.5" font-family="Helvetica,sans-Serif" font-size="10.00">ie_ze_launch_pack_w</text>
<text text-anchor="middle" x="89.5" y="-157.5" font-family="Helvetica,sans-Serif" font-size="10.00">_blockedk_f32</text>
</a>
</g>
</g>
<!-- Node2&#45;&gt;Node5 -->
<g id="edge4" class="edge">
<title>Node2&#45;&gt;Node5</title>
<path fill="none" stroke="midnightblue" d="M211.83,-170.53C191.66,-169.69 169.94,-168.79 150.52,-167.99"/>
<polygon fill="midnightblue" stroke="midnightblue" points="211.77,-174.03 221.9,-170.95 212.06,-167.04 211.77,-174.03"/>
</g>
<!-- Node6 -->
<g id="node6" class="node">
<title>Node6</title>
<g id="a_node6"><a xlink:href="group__IE__GPU__ZE.html#ga8cc805ce0f117c564d8ba8ed1df08669" target="_top" xlink:title="Vector tanh: y[i] = tanh(x[i]) for i in [0, n).">
<polygon fill="none" stroke="black" points="14.5,-112 14.5,-131 164.5,-131 164.5,-112 14.5,-112"/>
<text text-anchor="middle" x="89.5" y="-119" font-family="Helvetica,sans-Serif" font-size="10.00">ie_ze_launch_vec_tanh_f32</text>
</a>
</g>
</g>
<!-- Node2&#45;&gt;Node6 -->
<g id="edge5" class="edge">
<title>Node2&#45;&gt;Node6</title>
<path fill="none" stroke="midnightblue" d="M237.37,-161.22C229.86,-159.08 222.19,-156.79 215,-154.5 198.79,-149.33 195.33,-146.27 179,-141.5 165.7,-137.61 151.08,-134.03 137.63,-131.01"/>
<polygon fill="midnightblue" stroke="midnightblue" points="236.51,-164.62 247.09,-163.95 238.41,-157.88 236.51,-164.62"/>
</g>
<!-- Node7&#45;&gt;Node8 -->
<g id="edge7" class="edge">
<title>Node7&#45;&gt;Node8</title>
<path fill="none" stroke="midnightblue" d="M243.59,-122.8C224.12,-116.63 200.35,-109.13 179,-102.5 160.13,-96.64 138.96,-90.18 122.06,-85.05"/>
<polygon fill="midnightblue" stroke="midnightblue" points="242.75,-126.2 253.34,-125.89 244.87,-119.53 242.75,-126.2"/>
</g>
<!-- Node9&#45;&gt;Node8 -->
<g id="edge10" class="edge">
<title>Node9&#45;&gt;Node8</title>
<path fill="none" stroke="midnightblue" d="M207.21,-65.82C184.07,-67.74 159.32,-69.79 138.59,-71.51"/>
<polygon fill="midnightblue" stroke="midnightblue" points="207.67,-69.3 217.35,-64.98 207.1,-62.32 207.67,-69.3"/>
</g>
<!-- Node10&#45;&gt;Node8 -->
<g id="edge12" class="edge">
<title>Node10&#45;&gt;Node8</title>
<path fill="none" stroke="midnightblue" d="M224.9,-33.72C190.68,-44.36 148.89,-57.35 121.08,-65.99"/>
<polygon fill="midnightblue" stroke="midnightblue" points="226.29,-36.95 234.8,-30.64 224.21,-30.27 226.29,-36.95"/>
</g>
</g>
</svg>
