<?xml version="1.0" encoding="UTF-8" standalone="no"?>
<!DOCTYPE svg PUBLIC "-//W3C//DTD SVG 1.1//EN"
 "http://www.w3.org/Graphics/SVG/1.1/DTD/svg11.dtd">
<!-- Generated by graphviz version 12.2.1 (20241206.2353)
 -->
<!-- Title: ptq_from_hf.load_state_dict Pages: 1 -->
<svg width="298pt" height="47pt"
 viewBox="0.00 0.00 298.00 46.75" xmlns="http://www.w3.org/2000/svg" xmlns:xlink="http://www.w3.org/1999/xlink">
<g id="graph0" class="graph" transform="scale(1 1) rotate(0) translate(4 42.75)">
<title>ptq_from_hf.load_state_dict</title>
<!-- Node1 -->
<g id="Node000001" class="node">
<title>Node1</title>
<g id="a_Node000001"><a xlink:title=" ">
<polygon fill="#999999" stroke="#666666" points="290,-20.75 138.25,-20.75 138.25,0 290,0 290,-20.75"/>
<text text-anchor="middle" x="214.12" y="-7.25" font-family="Helvetica,sans-Serif" font-size="10.00">ptq_from_hf.load_state_dict</text>
</a>
</g>
</g>
<!-- Node2 -->
<g id="Node000002" class="node">
<title>Node2</title>
<g id="a_Node000002"><a xlink:href="namespaceptq__from__hf.html#ae6724778682d731015d0d9bac448f58f" target="_top" xlink:title=" ">
<polygon fill="white" stroke="#666666" points="102.25,-20.75 0,-20.75 0,0 102.25,0 102.25,-20.75"/>
<text text-anchor="middle" x="51.12" y="-7.25" font-family="Helvetica,sans-Serif" font-size="10.00">ptq_from_hf.main</text>
</a>
</g>
</g>
<!-- Node1&#45;&gt;Node2 -->
<g id="edge1_Node000001_Node000002" class="edge">
<title>Node1&#45;&gt;Node2</title>
<g id="a_edge1_Node000001_Node000002"><a xlink:title=" ">
<path fill="none" stroke="#63b8ff" d="M126.32,-10.38C118.2,-10.38 110.17,-10.38 102.56,-10.38"/>
<polygon fill="#63b8ff" stroke="#63b8ff" points="126.3,-13.88 136.3,-10.38 126.3,-6.88 126.3,-13.88"/>
</a>
</g>
</g>
<!-- Node2&#45;&gt;Node2 -->
<g id="edge2_Node000002_Node000002" class="edge">
<title>Node2&#45;&gt;Node2</title>
<g id="a_edge2_Node000002_Node000002"><a xlink:title=" ">
<path fill="none" stroke="#63b8ff" d="M79.81,-32.24C76.01,-36.08 66.45,-38.75 51.12,-38.75 23.11,-38.75 14.35,-29.81 24.86,-21.15"/>
<polygon fill="#63b8ff" stroke="#63b8ff" points="83.26,-31.65 77.71,-22.63 76.42,-33.14 83.26,-31.65"/>
</a>
</g>
</g>
</g>
</svg>
