<?xml version="1.0" encoding="UTF-8" standalone="no"?>
<!DOCTYPE svg PUBLIC "-//W3C//DTD SVG 1.1//EN"
 "http://www.w3.org/Graphics/SVG/1.1/DTD/svg11.dtd">
<!-- Generated by graphviz version 2.43.0 (0)
 -->
<!-- Title: sync_config_from_iejson.save_json Pages: 1 -->
<svg width="396pt" height="45pt"
 viewBox="0.00 0.00 396.00 45.00" xmlns="http://www.w3.org/2000/svg" xmlns:xlink="http://www.w3.org/1999/xlink">
<g id="graph0" class="graph" transform="scale(1 1) rotate(0) translate(4 41)">
<title>sync_config_from_iejson.save_json</title>
<!-- Node1 -->
<g id="Node000001" class="node">
<title>Node1</title>
<g id="a_Node000001"><a xlink:title=" ">
<polygon fill="#999999" stroke="#666666" points="388,-19 200,-19 200,0 388,0 388,-19"/>
<text text-anchor="middle" x="294" y="-7" font-family="Helvetica,sans-Serif" font-size="10.00">sync_config_from_iejson.save_json</text>
</a>
</g>
</g>
<!-- Node2 -->
<g id="Node000002" class="node">
<title>Node2</title>
<g id="a_Node000002"><a xlink:href="namespacesync__config__from__iejson.html#a948248cdb7e023e17a66fd993a8bb0ce" target="_top" xlink:title=" ">
<polygon fill="white" stroke="#666666" points="164,-19 0,-19 0,0 164,0 164,-19"/>
<text text-anchor="middle" x="82" y="-7" font-family="Helvetica,sans-Serif" font-size="10.00">sync_config_from_iejson.main</text>
</a>
</g>
</g>
<!-- Node1&#45;&gt;Node2 -->
<g id="edge1_Node000001_Node000002" class="edge">
<title>Node1&#45;&gt;Node2</title>
<g id="a_edge1_Node000001_Node000002"><a xlink:title=" ">
<path fill="none" stroke="#63b8ff" d="M189.85,-9.5C181.2,-9.5 172.54,-9.5 164.1,-9.5"/>
<polygon fill="#63b8ff" stroke="#63b8ff" points="189.97,-13 199.97,-9.5 189.97,-6 189.97,-13"/>
</a>
</g>
</g>
<!-- Node2&#45;&gt;Node2 -->
<g id="edge2_Node000002_Node000002" class="edge">
<title>Node2&#45;&gt;Node2</title>
<g id="a_edge2_Node000002_Node000002"><a xlink:title=" ">
<path fill="none" stroke="#63b8ff" d="M121.73,-26.31C122.33,-32.21 109.08,-37 82,-37 44.32,-37 33.43,-27.73 49.32,-19.08"/>
<polygon fill="#63b8ff" stroke="#63b8ff" points="124.17,-23.79 114.68,-19.08 119.16,-28.68 124.17,-23.79"/>
</a>
</g>
</g>
</g>
</svg>
