<?xml version="1.0" encoding="UTF-8" standalone="no"?>
<!DOCTYPE svg PUBLIC "-//W3C//DTD SVG 1.1//EN"
 "http://www.w3.org/Graphics/SVG/1.1/DTD/svg11.dtd">
<!-- Generated by graphviz version 2.43.0 (0)
 -->
<!-- Title: verify_strict_ids._load_jsonl Pages: 1 -->
<svg width="263pt" height="51pt"
 viewBox="0.00 0.00 263.00 50.50" xmlns="http://www.w3.org/2000/svg" xmlns:xlink="http://www.w3.org/1999/xlink">
<g id="graph0" class="graph" transform="scale(1 1) rotate(0) translate(4 46.5)">
<title>verify_strict_ids._load_jsonl</title>
<!-- Node1 -->
<g id="Node000001" class="node">
<title>Node1</title>
<g id="a_Node000001"><a xlink:title=" ">
<polygon fill="#999999" stroke="#666666" points="255,-30 158,-30 158,0 255,0 255,-30"/>
<text text-anchor="start" x="166" y="-18" font-family="Helvetica,sans-Serif" font-size="10.00">verify_strict_ids.</text>
<text text-anchor="middle" x="206.5" y="-7" font-family="Helvetica,sans-Serif" font-size="10.00">_load_jsonl</text>
</a>
</g>
</g>
<!-- Node2 -->
<g id="Node000002" class="node">
<title>Node2</title>
<g id="a_Node000002"><a xlink:href="namespaceverify__strict__ids.html#a212686f0067ca270c6660ce02f9aa901" target="_top" xlink:title=" ">
<polygon fill="white" stroke="#666666" points="122,-24.5 0,-24.5 0,-5.5 122,-5.5 122,-24.5"/>
<text text-anchor="middle" x="61" y="-12.5" font-family="Helvetica,sans-Serif" font-size="10.00">verify_strict_ids.main</text>
</a>
</g>
</g>
<!-- Node1&#45;&gt;Node2 -->
<g id="edge1_Node000001_Node000002" class="edge">
<title>Node1&#45;&gt;Node2</title>
<g id="a_edge1_Node000001_Node000002"><a xlink:title=" ">
<path fill="none" stroke="#63b8ff" d="M147.62,-15C139.21,-15 130.54,-15 122.08,-15"/>
<polygon fill="#63b8ff" stroke="#63b8ff" points="147.72,-18.5 157.72,-15 147.72,-11.5 147.72,-18.5"/>
</a>
</g>
</g>
<!-- Node2&#45;&gt;Node2 -->
<g id="edge2_Node000002_Node000002" class="edge">
<title>Node2&#45;&gt;Node2</title>
<g id="a_edge2_Node000002_Node000002"><a xlink:title=" ">
<path fill="none" stroke="#63b8ff" d="M87.79,-33.69C86.32,-38.7 77.4,-42.5 61,-42.5 35.41,-42.5 28.01,-33.23 38.81,-24.58"/>
<polygon fill="#63b8ff" stroke="#63b8ff" points="90.82,-31.94 83.19,-24.58 84.57,-35.09 90.82,-31.94"/>
</a>
</g>
</g>
</g>
</svg>
