<?xml version="1.0" encoding="UTF-8" standalone="no"?>
<!DOCTYPE svg PUBLIC "-//W3C//DTD SVG 1.1//EN"
 "http://www.w3.org/Graphics/SVG/1.1/DTD/svg11.dtd">
<!-- Generated by graphviz version 2.43.0 (0)
 -->
<!-- Title: sync_config_from_iejson.main Pages: 1 -->
<svg width="396pt" height="161pt"
 viewBox="0.00 0.00 396.00 160.50" xmlns="http://www.w3.org/2000/svg" xmlns:xlink="http://www.w3.org/1999/xlink">
<g id="graph0" class="graph" transform="scale(1 1) rotate(0) translate(4 156.5)">
<title>sync_config_from_iejson.main</title>
<!-- Node1 -->
<g id="Node000001" class="node">
<title>Node1</title>
<g id="a_Node000001"><a xlink:title=" ">
<polygon fill="#999999" stroke="#666666" points="164,-77 0,-77 0,-58 164,-58 164,-77"/>
<text text-anchor="middle" x="82" y="-65" font-family="Helvetica,sans-Serif" font-size="10.00">sync_config_from_iejson.main</text>
</a>
</g>
</g>
<!-- Node1&#45;&gt;Node1 -->
<g id="edge4_Node000001_Node000001" class="edge">
<title>Node1&#45;&gt;Node1</title>
<g id="a_edge4_Node000001_Node000001"><a xlink:title=" ">
<path fill="none" stroke="#63b8ff" d="M49.32,-77.08C33.43,-85.73 44.32,-95 82,-95 109.08,-95 122.33,-90.21 121.73,-84.31"/>
<polygon fill="#63b8ff" stroke="#63b8ff" points="124.17,-81.79 114.68,-77.08 119.16,-86.68 124.17,-81.79"/>
</a>
</g>
</g>
<!-- Node2 -->
<g id="Node000002" class="node">
<title>Node2</title>
<g id="a_Node000002"><a xlink:href="namespacesync__config__from__iejson.html#ab74186ddb608338ab39f4d3d162d272b" target="_top" xlink:title=" ">
<polygon fill="white" stroke="#666666" points="373,-152.5 215,-152.5 215,-122.5 373,-122.5 373,-152.5"/>
<text text-anchor="start" x="223" y="-140.5" font-family="Helvetica,sans-Serif" font-size="10.00">sync_config_from_iejson.find</text>
<text text-anchor="middle" x="294" y="-129.5" font-family="Helvetica,sans-Serif" font-size="10.00">_tensor</text>
</a>
</g>
</g>
<!-- Node1&#45;&gt;Node2 -->
<g id="edge1_Node000001_Node000002" class="edge">
<title>Node1&#45;&gt;Node2</title>
<g id="a_edge1_Node000001_Node000002"><a xlink:title=" ">
<path fill="none" stroke="#63b8ff" d="M105.14,-77.14C128.45,-87.07 166.37,-102.59 200,-113.5 206.5,-115.61 213.3,-117.66 220.15,-119.61"/>
<polygon fill="#63b8ff" stroke="#63b8ff" points="219.59,-123.09 230.17,-122.4 221.47,-116.35 219.59,-123.09"/>
</a>
</g>
</g>
<!-- Node3 -->
<g id="Node000003" class="node">
<title>Node3</title>
<g id="a_Node000003"><a xlink:href="namespacesync__config__from__iejson.html#a9339b0dd0e0be98e4d3ca71387d32f23" target="_top" xlink:title=" ">
<polygon fill="white" stroke="#666666" points="375,-104.5 213,-104.5 213,-74.5 375,-74.5 375,-104.5"/>
<text text-anchor="start" x="221" y="-92.5" font-family="Helvetica,sans-Serif" font-size="10.00">sync_config_from_iejson.infer</text>
<text text-anchor="middle" x="294" y="-81.5" font-family="Helvetica,sans-Serif" font-size="10.00">_num_layers</text>
</a>
</g>
</g>
<!-- Node1&#45;&gt;Node3 -->
<g id="edge2_Node000001_Node000003" class="edge">
<title>Node1&#45;&gt;Node3</title>
<g id="a_edge2_Node000001_Node000003"><a xlink:title=" ">
<path fill="none" stroke="#63b8ff" d="M164.19,-76.01C176.76,-77.32 189.81,-78.69 202.56,-80.03"/>
<polygon fill="#63b8ff" stroke="#63b8ff" points="202.41,-83.53 212.72,-81.09 203.14,-76.57 202.41,-83.53"/>
</a>
</g>
</g>
<!-- Node4 -->
<g id="Node000004" class="node">
<title>Node4</title>
<g id="a_Node000004"><a xlink:href="namespacesync__config__from__iejson.html#a24566da404490eb75e8cd0058cc148d8" target="_top" xlink:title=" ">
<polygon fill="white" stroke="#666666" points="387,-56 201,-56 201,-37 387,-37 387,-56"/>
<text text-anchor="middle" x="294" y="-44" font-family="Helvetica,sans-Serif" font-size="10.00">sync_config_from_iejson.load_json</text>
</a>
</g>
</g>
<!-- Node1&#45;&gt;Node4 -->
<g id="edge3_Node000001_Node000004" class="edge">
<title>Node1&#45;&gt;Node4</title>
<g id="a_edge3_Node000001_Node000004"><a xlink:title=" ">
<path fill="none" stroke="#63b8ff" d="M164.19,-59.38C172.91,-58.51 181.87,-57.61 190.79,-56.72"/>
<polygon fill="#63b8ff" stroke="#63b8ff" points="191.24,-60.19 200.84,-55.72 190.54,-53.23 191.24,-60.19"/>
</a>
</g>
</g>
<!-- Node5 -->
<g id="Node000005" class="node">
<title>Node5</title>
<g id="a_Node000005"><a xlink:href="namespacesync__config__from__iejson.html#a91297f3befa9dd830216387be045504f" target="_top" xlink:title=" ">
<polygon fill="white" stroke="#666666" points="388,-19 200,-19 200,0 388,0 388,-19"/>
<text text-anchor="middle" x="294" y="-7" font-family="Helvetica,sans-Serif" font-size="10.00">sync_config_from_iejson.save_json</text>
</a>
</g>
</g>
<!-- Node1&#45;&gt;Node5 -->
<g id="edge5_Node000001_Node000005" class="edge">
<title>Node1&#45;&gt;Node5</title>
<g id="a_edge5_Node000001_Node000005"><a xlink:title=" ">
<path fill="none" stroke="#63b8ff" d="M108.75,-57.92C132.28,-49.41 168.15,-37.03 200,-28.5 209.89,-25.85 220.46,-23.37 230.8,-21.13"/>
<polygon fill="#63b8ff" stroke="#63b8ff" points="231.54,-24.55 240.6,-19.06 230.1,-17.7 231.54,-24.55"/>
</a>
</g>
</g>
</g>
</svg>
