<?xml version="1.0" encoding="UTF-8" standalone="no"?>
<!DOCTYPE svg PUBLIC "-//W3C//DTD SVG 1.1//EN"
 "http://www.w3.org/Graphics/SVG/1.1/DTD/svg11.dtd">
<!-- Generated by graphviz version 2.43.0 (0)
 -->
<!-- Title: verify_report_tokens.sha256_bytes Pages: 1 -->
<svg width="742pt" height="64pt"
 viewBox="0.00 0.00 742.00 64.00" xmlns="http://www.w3.org/2000/svg" xmlns:xlink="http://www.w3.org/1999/xlink">
<g id="graph0" class="graph" transform="scale(1 1) rotate(0) translate(4 60)">
<title>verify_report_tokens.sha256_bytes</title>
<!-- Node1 -->
<g id="Node000001" class="node">
<title>Node1</title>
<g id="a_Node000001"><a xlink:title=" ">
<polygon fill="#999999" stroke="#666666" points="734,-43.5 579,-43.5 579,-13.5 734,-13.5 734,-43.5"/>
<text text-anchor="start" x="587" y="-31.5" font-family="Helvetica,sans-Serif" font-size="10.00">verify_report_tokens.sha256</text>
<text text-anchor="middle" x="656.5" y="-20.5" font-family="Helvetica,sans-Serif" font-size="10.00">_bytes</text>
</a>
</g>
</g>
<!-- Node2 -->
<g id="Node000002" class="node">
<title>Node2</title>
<g id="a_Node000002"><a xlink:href="namespaceverify__report__tokens.html#ae4d529c7a156d7b3e86da13e81e40d5f" target="_top" xlink:title=" ">
<polygon fill="white" stroke="#666666" points="328,-43.5 180,-43.5 180,-13.5 328,-13.5 328,-43.5"/>
<text text-anchor="start" x="188" y="-31.5" font-family="Helvetica,sans-Serif" font-size="10.00">verify_report_tokens.check</text>
<text text-anchor="middle" x="254" y="-20.5" font-family="Helvetica,sans-Serif" font-size="10.00">_hash_fields</text>
</a>
</g>
</g>
<!-- Node1&#45;&gt;Node2 -->
<g id="edge1_Node000001_Node000002" class="edge">
<title>Node1&#45;&gt;Node2</title>
<g id="a_edge1_Node000001_Node000002"><a xlink:title=" ">
<path fill="none" stroke="#63b8ff" d="M568.37,-28.5C496.54,-28.5 395.8,-28.5 328.11,-28.5"/>
<polygon fill="#63b8ff" stroke="#63b8ff" points="568.75,-32 578.75,-28.5 568.75,-25 568.75,-32"/>
</a>
</g>
</g>
<!-- Node4 -->
<g id="Node000004" class="node">
<title>Node4</title>
<g id="a_Node000004"><a xlink:href="namespaceverify__report__tokens.html#a88fdecd42e4d860dea3c9e7be68c9aad" target="_top" xlink:title=" ">
<polygon fill="white" stroke="#666666" points="543,-19 364,-19 364,0 543,0 543,-19"/>
<text text-anchor="middle" x="453.5" y="-7" font-family="Helvetica,sans-Serif" font-size="10.00">verify_report_tokens.sha256_utf8</text>
</a>
</g>
</g>
<!-- Node1&#45;&gt;Node4 -->
<g id="edge4_Node000001_Node000004" class="edge">
<title>Node1&#45;&gt;Node4</title>
<g id="a_edge4_Node000001_Node000004"><a xlink:title=" ">
<path fill="none" stroke="#63b8ff" d="M568.74,-20.3C560.31,-19.5 551.75,-18.69 543.3,-17.89"/>
<polygon fill="#63b8ff" stroke="#63b8ff" points="568.65,-23.81 578.94,-21.26 569.31,-16.84 568.65,-23.81"/>
</a>
</g>
</g>
<!-- Node3 -->
<g id="Node000003" class="node">
<title>Node3</title>
<g id="a_Node000003"><a xlink:href="namespaceverify__report__tokens.html#a561bbef92ee004a8031fe5a959f81072" target="_top" xlink:title=" ">
<polygon fill="white" stroke="#666666" points="144,-38 0,-38 0,-19 144,-19 144,-38"/>
<text text-anchor="middle" x="72" y="-26" font-family="Helvetica,sans-Serif" font-size="10.00">verify_report_tokens.main</text>
</a>
</g>
</g>
<!-- Node2&#45;&gt;Node3 -->
<g id="edge2_Node000002_Node000003" class="edge">
<title>Node2&#45;&gt;Node3</title>
<g id="a_edge2_Node000002_Node000003"><a xlink:title=" ">
<path fill="none" stroke="#63b8ff" d="M169.77,-28.5C161.2,-28.5 152.54,-28.5 144.11,-28.5"/>
<polygon fill="#63b8ff" stroke="#63b8ff" points="169.79,-32 179.79,-28.5 169.79,-25 169.79,-32"/>
</a>
</g>
</g>
<!-- Node3&#45;&gt;Node3 -->
<g id="edge3_Node000003_Node000003" class="edge">
<title>Node3&#45;&gt;Node3</title>
<g id="a_edge3_Node000003_Node000003"><a xlink:title=" ">
<path fill="none" stroke="#63b8ff" d="M106.11,-46.07C105.61,-51.62 94.24,-56 72,-56 39.65,-56 30.3,-46.73 43.95,-38.08"/>
<polygon fill="#63b8ff" stroke="#63b8ff" points="108.88,-43.94 100.05,-38.08 103.3,-48.17 108.88,-43.94"/>
</a>
</g>
</g>
<!-- Node4&#45;&gt;Node2 -->
<g id="edge5_Node000004_Node000002" class="edge">
<title>Node4&#45;&gt;Node2</title>
<g id="a_edge5_Node000004_Node000002"><a xlink:title=" ">
<path fill="none" stroke="#63b8ff" d="M353.79,-19C345.2,-19.82 336.61,-20.65 328.28,-21.45"/>
<polygon fill="#63b8ff" stroke="#63b8ff" points="354.24,-22.47 363.86,-18.03 353.57,-15.5 354.24,-22.47"/>
</a>
</g>
</g>
</g>
</svg>
