<?xml version="1.0" encoding="UTF-8" standalone="no"?>
<!DOCTYPE svg PUBLIC "-//W3C//DTD SVG 1.1//EN"
 "http://www.w3.org/Graphics/SVG/1.1/DTD/svg11.dtd">
<!-- Generated by graphviz version 12.2.1 (20241206.2353)
 -->
<!-- Title: hf_to_iebin.log Pages: 1 -->
<!--zoomable 156 -->

<svg id="main" version="1.1" xmlns="http://www.w3.org/2000/svg" xmlns:xlink="http://www.w3.org/1999/xlink" xml:space="preserve" onload="init(evt)">

<style type="text/css"><![CDATA[
.node, .edge {opacity: 0.7;}
.node.selected, .edge.selected {opacity: 1;}
.edge:hover path { stroke: red; }
.edge:hover polygon { stroke: red; fill: red; }
]]></style>

<defs>
  <circle id="rim" cx="0" cy="0" r="7"/>
  <circle id="rim2" cx="0" cy="0" r="3.5"/>
  <g id="zoomPlus">
    <use xlink:href="#rim" fill="#404040"><set attributeName="fill" to="#808080" begin="zoomplus.mouseover" end="zoomplus.mouseout"/></use>
    <path d="M-4,0h8M0,-4v8" fill="none" stroke="white" stroke-width="1.5" pointer-events="none"/>
  </g>
  <g id="zoomMin">
    <use xlink:href="#rim" fill="#404040"><set attributeName="fill" to="#808080" begin="zoomminus.mouseover" end="zoomminus.mouseout"/></use>
    <path d="M-4,0h8" fill="none" stroke="white" stroke-width="1.5" pointer-events="none"/>
  </g>
  <g id="arrowUp" transform="translate(30 24)">
    <use xlink:href="#rim"/>
    <path pointer-events="none" fill="none" stroke="white" stroke-width="1.5" d="M0,-3.0v7 M-2.5,-0.5L0,-3.0L2.5,-0.5"/>
  </g>
  <g id="arrowRight" transform="rotate(90) translate(36 -43)">
    <use xlink:href="#rim"/>
    <path pointer-events="none" fill="none" stroke="white" stroke-width="1.5" d="M0,-3.0v7 M-2.5,-0.5L0,-3.0L2.5,-0.5"/>
  </g>
  <g id="arrowDown" transform="rotate(180) translate(-30 -48)">
    <use xlink:href="#rim"/>
    <path pointer-events="none" fill="none" stroke="white" stroke-width="1.5" d="M0,-3.0v7 M-2.5,-0.5L0,-3.0L2.5,-0.5"/>
  </g>
  <g id="arrowLeft" transform="rotate(270) translate(-36 17)">
    <use xlink:href="#rim"/>
    <path pointer-events="none" fill="none" stroke="white" stroke-width="1.5" d="M0,-3.0v7 M-2.5,-0.5L0,-3.0L2.5,-0.5"/>
  </g>
  <g id="resetDef">
    <use xlink:href="#rim2" fill="#404040"><set attributeName="fill" to="#808080" begin="reset.mouseover" end="reset.mouseout"/></use>
  </g>
</defs>
<script type="application/ecmascript">
var viewWidth = 574;
var viewHeight = 156;
var sectionId = 'dynsection-13';
</script>
<script type="application/ecmascript" xlink:href="svg.min.js"/>
<svg id="graph" class="graph">
<g id="viewport">
<title>hf_to_iebin.log</title>
<!-- Node1 -->
<g id="Node000001" class="node">
<title>Node1</title>
<g id="a_Node000001"><a xlink:title=" ">
<polygon fill="#999999" stroke="#666666" points="565.75,-87.12 477.75,-87.12 477.75,-66.38 565.75,-66.38 565.75,-87.12"/>
<text text-anchor="middle" x="521.75" y="-73.62" font-family="Helvetica,sans-Serif" font-size="10.00">hf_to_iebin.log</text>
</a>
</g>
</g>
<!-- Node2 -->
<g id="Node000002" class="node">
<title>Node2</title>
<g id="a_Node000002"><a xlink:href="namespacehf__to__iebin.html#a2514cfb35940e3760b12dd945c773b19" target="_top" xlink:title=" ">
<polygon fill="white" stroke="#666666" points="441.75,-148.12 303.5,-148.12 303.5,-127.38 441.75,-127.38 441.75,-148.12"/>
<text text-anchor="middle" x="372.62" y="-134.62" font-family="Helvetica,sans-Serif" font-size="10.00">hf_to_iebin.load_q4_map</text>
</a>
</g>
</g>
<!-- Node1&#45;&gt;Node2 -->
<g id="edge1_Node000001_Node000002" class="edge">
<title>Node1&#45;&gt;Node2</title>
<g id="a_edge1_Node000001_Node000002"><a xlink:title=" ">
<path fill="none" stroke="#63b8ff" d="M488.92,-92.54C474.64,-99.39 457.5,-107.31 441.75,-113.75 430.38,-118.4 417.73,-123.01 406.45,-126.93"/>
<polygon fill="#63b8ff" stroke="#63b8ff" points="490.38,-95.72 497.85,-88.21 487.33,-89.42 490.38,-95.72"/>
</a>
</g>
</g>
<!-- Node3 -->
<g id="Node000003" class="node">
<title>Node3</title>
<g id="a_Node000003"><a xlink:href="namespacehf__to__iebin.html#a6a7ed215f575f747c5b16a53cb95eac4" target="_top" xlink:title=" ">
<polygon fill="white" stroke="#666666" points="97.75,-91.12 0,-91.12 0,-70.38 97.75,-70.38 97.75,-91.12"/>
<text text-anchor="middle" x="48.88" y="-77.62" font-family="Helvetica,sans-Serif" font-size="10.00">hf_to_iebin.main</text>
</a>
</g>
</g>
<!-- Node1&#45;&gt;Node3 -->
<g id="edge9_Node000001_Node000003" class="edge">
<title>Node1&#45;&gt;Node3</title>
<g id="a_edge9_Node000001_Node000003"><a xlink:title=" ">
<path fill="none" stroke="#63b8ff" d="M465.98,-79.88C457.86,-80.24 449.59,-80.55 441.75,-80.75 317.97,-83.88 172.12,-82.56 98.15,-81.54"/>
<polygon fill="#63b8ff" stroke="#63b8ff" points="465.97,-83.39 475.79,-79.42 465.64,-76.4 465.97,-83.39"/>
</a>
</g>
</g>
<!-- Node4 -->
<g id="Node000004" class="node">
<title>Node4</title>
<g id="a_Node000004"><a xlink:href="namespacehf__to__iebin.html#a7d824cc4e15cdfe433bb87451d0c45ee" target="_top" xlink:title=" ">
<polygon fill="white" stroke="#666666" points="434.62,-71.5 310.62,-71.5 310.62,-38 434.62,-38 434.62,-71.5"/>
<text text-anchor="start" x="318.62" y="-58" font-family="Helvetica,sans-Serif" font-size="10.00">hf_to_iebin.load_state</text>
<text text-anchor="middle" x="372.62" y="-45.25" font-family="Helvetica,sans-Serif" font-size="10.00">_keys_from_shard</text>
</a>
</g>
</g>
<!-- Node1&#45;&gt;Node4 -->
<g id="edge4_Node000001_Node000004" class="edge">
<title>Node1&#45;&gt;Node4</title>
<g id="a_edge4_Node000001_Node000004"><a xlink:title=" ">
<path fill="none" stroke="#63b8ff" d="M466.17,-68.59C455.99,-67.07 445.29,-65.47 434.92,-63.92"/>
<polygon fill="#63b8ff" stroke="#63b8ff" points="465.5,-72.03 475.91,-70.04 466.53,-65.1 465.5,-72.03"/>
</a>
</g>
</g>
<!-- Node6 -->
<g id="Node000006" class="node">
<title>Node6</title>
<g id="a_Node000006"><a xlink:href="namespacehf__to__iebin.html#a423f08d9c5ddd7dfd3eb06f287ce6c5b" target="_top" xlink:title=" ">
<polygon fill="white" stroke="#666666" points="254.38,-33.5 146.88,-33.5 146.88,0 254.38,0 254.38,-33.5"/>
<text text-anchor="start" x="154.88" y="-20" font-family="Helvetica,sans-Serif" font-size="10.00">hf_to_iebin.stream</text>
<text text-anchor="middle" x="200.62" y="-7.25" font-family="Helvetica,sans-Serif" font-size="10.00">_write_blob</text>
</a>
</g>
</g>
<!-- Node1&#45;&gt;Node6 -->
<g id="edge10_Node000001_Node000006" class="edge">
<title>Node1&#45;&gt;Node6</title>
<g id="a_edge10_Node000001_Node000006"><a xlink:title=" ">
<path fill="none" stroke="#63b8ff" d="M498.76,-59.26C483.66,-48.34 462.64,-35.17 441.75,-28.75 379.5,-9.63 303.95,-9.36 254.43,-12.06"/>
<polygon fill="#63b8ff" stroke="#63b8ff" points="496.46,-61.91 506.56,-65.11 500.66,-56.31 496.46,-61.91"/>
</a>
</g>
</g>
<!-- Node2&#45;&gt;Node3 -->
<g id="edge2_Node000002_Node000003" class="edge">
<title>Node2&#45;&gt;Node3</title>
<g id="a_edge2_Node000002_Node000003"><a xlink:title=" ">
<path fill="none" stroke="#63b8ff" d="M291.86,-135.16C245.24,-132.3 185.55,-126.3 133.75,-113.75 112.31,-108.55 89.04,-99.07 72.46,-91.6"/>
<polygon fill="#63b8ff" stroke="#63b8ff" points="291.42,-138.64 301.61,-135.72 291.82,-131.65 291.42,-138.64"/>
</a>
</g>
</g>
<!-- Node3&#45;&gt;Node3 -->
<g id="edge3_Node000003_Node000003" class="edge">
<title>Node3&#45;&gt;Node3</title>
<g id="a_edge3_Node000003_Node000003"><a xlink:title=" ">
<path fill="none" stroke="#63b8ff" d="M75.58,-102.61C72.04,-106.45 63.14,-109.12 48.88,-109.12 22.79,-109.12 14.64,-100.18 24.42,-91.52"/>
<polygon fill="#63b8ff" stroke="#63b8ff" points="79.05,-102.11 73.63,-93.01 72.19,-103.5 79.05,-102.11"/>
</a>
</g>
</g>
<!-- Node5 -->
<g id="Node000005" class="node">
<title>Node5</title>
<g id="a_Node000005"><a xlink:href="namespacehf__to__iebin.html#affc6b9577a480b97d139fc7624383635" target="_top" xlink:title=" ">
<polygon fill="white" stroke="#666666" points="267.5,-72.12 133.75,-72.12 133.75,-51.38 267.5,-51.38 267.5,-72.12"/>
<text text-anchor="middle" x="200.62" y="-58.62" font-family="Helvetica,sans-Serif" font-size="10.00">hf_to_iebin.pass1_index</text>
</a>
</g>
</g>
<!-- Node4&#45;&gt;Node5 -->
<g id="edge5_Node000004_Node000005" class="edge">
<title>Node4&#45;&gt;Node5</title>
<g id="a_edge5_Node000004_Node000005"><a xlink:title=" ">
<path fill="none" stroke="#63b8ff" d="M298.77,-57.75C288.48,-58.17 277.95,-58.61 267.79,-59.03"/>
<polygon fill="#63b8ff" stroke="#63b8ff" points="298.89,-61.25 308.74,-57.34 298.6,-54.25 298.89,-61.25"/>
</a>
</g>
</g>
<!-- Node4&#45;&gt;Node6 -->
<g id="edge7_Node000004_Node000006" class="edge">
<title>Node4&#45;&gt;Node6</title>
<g id="a_edge7_Node000004_Node000006"><a xlink:title=" ">
<path fill="none" stroke="#63b8ff" d="M299.02,-38.52C284.16,-35.2 268.78,-31.76 254.76,-28.63"/>
<polygon fill="#63b8ff" stroke="#63b8ff" points="298.25,-41.94 308.77,-40.7 299.78,-35.1 298.25,-41.94"/>
</a>
</g>
</g>
<!-- Node5&#45;&gt;Node3 -->
<g id="edge6_Node000005_Node000003" class="edge">
<title>Node5&#45;&gt;Node3</title>
<g id="a_edge6_Node000005_Node000003"><a xlink:title=" ">
<path fill="none" stroke="#63b8ff" d="M122.29,-71.56C114.06,-72.61 105.86,-73.65 98.11,-74.63"/>
<polygon fill="#63b8ff" stroke="#63b8ff" points="122.53,-75.06 132.01,-70.33 121.64,-68.12 122.53,-75.06"/>
</a>
</g>
</g>
<!-- Node6&#45;&gt;Node3 -->
<g id="edge8_Node000006_Node000003" class="edge">
<title>Node6&#45;&gt;Node3</title>
<g id="a_edge8_Node000006_Node000003"><a xlink:title=" ">
<path fill="none" stroke="#63b8ff" d="M144.71,-38.19C140.99,-39.71 137.31,-41.24 133.75,-42.75 112.99,-51.54 89.66,-62.18 72.88,-69.96"/>
<polygon fill="#63b8ff" stroke="#63b8ff" points="145.85,-41.5 153.81,-34.5 143.22,-35.01 145.85,-41.5"/>
</a>
</g>
</g>
</g>
</svg>

<g id="navigator" transform="translate(0 0)" fill="#404254">
  <rect fill="#f2f5e9" fill-opacity="0.5" stroke="#606060" stroke-width=".5" x="0" y="0" width="60" height="60"/>
  <use id="zoomplus" xlink:href="#zoomPlus" x="17" y="9" onmousedown="handleZoom(evt,'in')"/>
  <use id="zoomminus" xlink:href="#zoomMin" x="42" y="9" onmousedown="handleZoom(evt,'out')"/>
  <use id="reset" xlink:href="#resetDef" x="30" y="36" onmousedown="handleReset()"/>
   <use id="arrowup" xlink:href="#arrowUp" x="0" y="0" onmousedown="handlePan(0,-1)"/>
  <use id="arrowright" xlink:href="#arrowRight" x="0" y="0" onmousedown="handlePan(1,0)"/>
  <use id="arrowdown" xlink:href="#arrowDown" x="0" y="0" onmousedown="handlePan(0,1)"/>
  <use id="arrowleft" xlink:href="#arrowLeft" x="0" y="0" onmousedown="handlePan(-1,0)"/>
</g>
<svg viewBox="0 0 15 15" width="100%" height="30px" preserveAspectRatio="xMaxYMin meet">
 <g id="arrow_out" transform="scale(0.3 0.3)">
  <a xlink:href="namespacehf__to__iebin_ac3cef0864139e3543306b846207f8c3e_icgraph_org.svg" target="_base">
   <rect id="button" ry="5" rx="5" y="6" x="6" height="38" width="38"
        fill="#f2f5e9" fill-opacity="0.5" stroke="#606060" stroke-width="1.0"/>
   <path id="arrow"
     d="M 11.500037,31.436501 C 11.940474,20.09759 22.043105,11.32322 32.158766,21.979434 L 37.068811,17.246167 C 37.068811,17.246167 37.088388,32 37.088388,32 L 22.160133,31.978069 C 22.160133,31.978069 26.997745,27.140456 26.997745,27.140456 C 18.528582,18.264221 13.291696,25.230495 11.500037,31.436501 z"
     style="fill:#404040;"/>
  </a>
 </g>
</svg>

<style type='text/css'>
<![CDATA[
[data-mouse-over-selected='false'] { opacity: 0.7; }
[data-mouse-over-selected='true']  { opacity: 1.0; }
]]>
</style>
<script type="application/ecmascript"><![CDATA[
document.addEventListener('DOMContentLoaded', (event) => {
  highlightEdges();
  highlightAdjacentNodes();
});
]]></script>
</svg>
