<?xml version="1.0" encoding="UTF-8" standalone="no"?>
<!DOCTYPE svg PUBLIC "-//W3C//DTD SVG 1.1//EN"
 "http://www.w3.org/Graphics/SVG/1.1/DTD/svg11.dtd">
<!-- Generated by graphviz version 12.2.1 (20241206.2353)
 -->
<!-- Title: update_performance_md.main Pages: 1 -->
<!--zoomable 782 -->

<svg id="main" version="1.1" xmlns="http://www.w3.org/2000/svg" xmlns:xlink="http://www.w3.org/1999/xlink" xml:space="preserve" onload="init(evt)">

<style type="text/css"><![CDATA[
.node, .edge {opacity: 0.7;}
.node.selected, .edge.selected {opacity: 1;}
.edge:hover path { stroke: red; }
.edge:hover polygon { stroke: red; fill: red; }
]]></style>

<defs>
  <circle id="rim" cx="0" cy="0" r="7"/>
  <circle id="rim2" cx="0" cy="0" r="3.5"/>
  <g id="zoomPlus">
    <use xlink:href="#rim" fill="#404040"><set attributeName="fill" to="#808080" begin="zoomplus.mouseover" end="zoomplus.mouseout"/></use>
    <path d="M-4,0h8M0,-4v8" fill="none" stroke="white" stroke-width="1.5" pointer-events="none"/>
  </g>
  <g id="zoomMin">
    <use xlink:href="#rim" fill="#404040"><set attributeName="fill" to="#808080" begin="zoomminus.mouseover" end="zoomminus.mouseout"/></use>
    <path d="M-4,0h8" fill="none" stroke="white" stroke-width="1.5" pointer-events="none"/>
  </g>
  <g id="arrowUp" transform="translate(30 24)">
    <use xlink:href="#rim"/>
    <path pointer-events="none" fill="none" stroke="white" stroke-width="1.5" d="M0,-3.0v7 M-2.5,-0.5L0,-3.0L2.5,-0.5"/>
  </g>
  <g id="arrowRight" transform="rotate(90) translate(36 -43)">
    <use xlink:href="#rim"/>
    <path pointer-events="none" fill="none" stroke="white" stroke-width="1.5" d="M0,-3.0v7 M-2.5,-0.5L0,-3.0L2.5,-0.5"/>
  </g>
  <g id="arrowDown" transform="rotate(180) translate(-30 -48)">
    <use xlink:href="#rim"/>
    <path pointer-events="none" fill="none" stroke="white" stroke-width="1.5" d="M0,-3.0v7 M-2.5,-0.5L0,-3.0L2.5,-0.5"/>
  </g>
  <g id="arrowLeft" transform="rotate(270) translate(-36 17)">
    <use xlink:href="#rim"/>
    <path pointer-events="none" fill="none" stroke="white" stroke-width="1.5" d="M0,-3.0v7 M-2.5,-0.5L0,-3.0L2.5,-0.5"/>
  </g>
  <g id="resetDef">
    <use xlink:href="#rim2" fill="#404040"><set attributeName="fill" to="#808080" begin="reset.mouseover" end="reset.mouseout"/></use>
  </g>
</defs>
<script type="application/ecmascript">
var viewWidth = 634;
var viewHeight = 782;
var sectionId = 'dynsection-28';
</script>
<script type="application/ecmascript" xlink:href="svg.min.js"/>
<svg id="graph" class="graph">
<g id="viewport">
<title>update_performance_md.main</title>
<!-- Node1 -->
<g id="Node000001" class="node">
<title>Node1</title>
<g id="a_Node000001"><a xlink:title=" ">
<polygon fill="#999999" stroke="#666666" points="117.25,-397.5 0,-397.5 0,-364 117.25,-364 117.25,-397.5"/>
<text text-anchor="start" x="8" y="-384" font-family="Helvetica,sans-Serif" font-size="10.00">update_performance</text>
<text text-anchor="middle" x="58.62" y="-371.25" font-family="Helvetica,sans-Serif" font-size="10.00">_md.main</text>
</a>
</g>
</g>
<!-- Node1&#45;&gt;Node1 -->
<g id="edge25_Node000001_Node000001" class="edge">
<title>Node1&#45;&gt;Node1</title>
<g id="a_edge25_Node000001_Node000001"><a xlink:title=" ">
<path fill="none" stroke="#63b8ff" d="M30.74,-397.91C26,-407.12 35.3,-415.5 58.62,-415.5 71.75,-415.5 80.43,-412.85 84.67,-408.89"/>
<polygon fill="#63b8ff" stroke="#63b8ff" points="88.06,-409.85 86.26,-399.41 81.16,-408.69 88.06,-409.85"/>
</a>
</g>
</g>
<!-- Node2 -->
<g id="Node000002" class="node">
<title>Node2</title>
<g id="a_Node000002"><a xlink:href="namespaceupdate__performance__md.html#aa822beedd3ad900a093ef302f613dba7" target="_top" xlink:title=" ">
<polygon fill="white" stroke="#666666" points="272.38,-721.5 155.12,-721.5 155.12,-688 272.38,-688 272.38,-721.5"/>
<text text-anchor="start" x="163.12" y="-708" font-family="Helvetica,sans-Serif" font-size="10.00">update_performance</text>
<text text-anchor="middle" x="213.75" y="-695.25" font-family="Helvetica,sans-Serif" font-size="10.00">_md._agg</text>
</a>
</g>
</g>
<!-- Node1&#45;&gt;Node2 -->
<g id="edge1_Node000001_Node000002" class="edge">
<title>Node1&#45;&gt;Node2</title>
<g id="a_edge1_Node000001_Node000002"><a xlink:title=" ">
<path fill="none" stroke="#63b8ff" d="M60.24,-397.95C62.91,-447.77 77.17,-594.01 153.25,-678.75 153.81,-679.38 154.4,-679.99 155,-680.59"/>
<polygon fill="#63b8ff" stroke="#63b8ff" points="152.46,-683.04 162.42,-686.66 156.89,-677.62 152.46,-683.04"/>
</a>
</g>
</g>
<!-- Node6 -->
<g id="Node000006" class="node">
<title>Node6</title>
<g id="a_Node000006"><a xlink:href="namespaceupdate__performance__md.html#a88eb703199878325a3c8eb44a6fca5ac" target="_top" xlink:title=" ">
<polygon fill="white" stroke="#666666" points="272.38,-669.5 155.12,-669.5 155.12,-636 272.38,-636 272.38,-669.5"/>
<text text-anchor="start" x="163.12" y="-656" font-family="Helvetica,sans-Serif" font-size="10.00">update_performance</text>
<text text-anchor="middle" x="213.75" y="-643.25" font-family="Helvetica,sans-Serif" font-size="10.00">_md._filesize</text>
</a>
</g>
</g>
<!-- Node1&#45;&gt;Node6 -->
<g id="edge5_Node000001_Node000006" class="edge">
<title>Node1&#45;&gt;Node6</title>
<g id="a_edge5_Node000001_Node000006"><a xlink:title=" ">
<path fill="none" stroke="#63b8ff" d="M61.56,-397.75C67.36,-441.41 88.47,-558.76 153.25,-626.75 153.85,-627.38 154.46,-627.99 155.1,-628.59"/>
<polygon fill="#63b8ff" stroke="#63b8ff" points="152.86,-631.28 162.89,-634.69 157.17,-625.77 152.86,-631.28"/>
</a>
</g>
</g>
<!-- Node7 -->
<g id="Node000007" class="node">
<title>Node7</title>
<g id="a_Node000007"><a xlink:href="namespaceupdate__performance__md.html#a686e7769dbdebc33f261f7596cb5cd18" target="_top" xlink:title=" ">
<polygon fill="white" stroke="#666666" points="273.5,-617.5 154,-617.5 154,-584 273.5,-584 273.5,-617.5"/>
<text text-anchor="start" x="162" y="-604" font-family="Helvetica,sans-Serif" font-size="10.00">update_performance</text>
<text text-anchor="middle" x="213.75" y="-591.25" font-family="Helvetica,sans-Serif" font-size="10.00">_md._find_model_bin</text>
</a>
</g>
</g>
<!-- Node1&#45;&gt;Node7 -->
<g id="edge6_Node000001_Node000007" class="edge">
<title>Node1&#45;&gt;Node7</title>
<g id="a_edge6_Node000001_Node000007"><a xlink:title=" ">
<path fill="none" stroke="#63b8ff" d="M63.58,-397.92C72.94,-434.98 99.78,-523.26 153.25,-574.75 154,-575.47 154.77,-576.17 155.55,-576.85"/>
<polygon fill="#63b8ff" stroke="#63b8ff" points="153.31,-579.55 163.46,-582.61 157.44,-573.89 153.31,-579.55"/>
</a>
</g>
</g>
<!-- Node8 -->
<g id="Node000008" class="node">
<title>Node8</title>
<g id="a_Node000008"><a xlink:href="namespaceupdate__performance__md.html#abe82b6ec47b6fc78fb19bb37a6726fce" target="_top" xlink:title=" ">
<polygon fill="white" stroke="#666666" points="272.38,-565.5 155.12,-565.5 155.12,-532 272.38,-532 272.38,-565.5"/>
<text text-anchor="start" x="163.12" y="-552" font-family="Helvetica,sans-Serif" font-size="10.00">update_performance</text>
<text text-anchor="middle" x="213.75" y="-539.25" font-family="Helvetica,sans-Serif" font-size="10.00">_md._merge_shared</text>
</a>
</g>
</g>
<!-- Node1&#45;&gt;Node8 -->
<g id="edge7_Node000001_Node000008" class="edge">
<title>Node1&#45;&gt;Node8</title>
<g id="a_edge7_Node000001_Node000008"><a xlink:title=" ">
<path fill="none" stroke="#63b8ff" d="M66.95,-397.92C80.2,-427.17 110.79,-486.99 153.25,-522.75 154.34,-523.67 155.47,-524.56 156.63,-525.43"/>
<polygon fill="#63b8ff" stroke="#63b8ff" points="154.47,-528.19 164.76,-530.71 158.28,-522.33 154.47,-528.19"/>
</a>
</g>
</g>
<!-- Node9 -->
<g id="Node000009" class="node">
<title>Node9</title>
<g id="a_Node000009"><a xlink:href="namespaceupdate__performance__md.html#a17ae6536535cdd081f87d0a1f28fe161" target="_top" xlink:title=" ">
<polygon fill="white" stroke="#666666" points="272.38,-513.5 155.12,-513.5 155.12,-480 272.38,-480 272.38,-513.5"/>
<text text-anchor="start" x="163.12" y="-500" font-family="Helvetica,sans-Serif" font-size="10.00">update_performance</text>
<text text-anchor="middle" x="213.75" y="-487.25" font-family="Helvetica,sans-Serif" font-size="10.00">_md._parse</text>
</a>
</g>
</g>
<!-- Node1&#45;&gt;Node9 -->
<g id="edge8_Node000001_Node000009" class="edge">
<title>Node1&#45;&gt;Node9</title>
<g id="a_edge8_Node000001_Node000009"><a xlink:title=" ">
<path fill="none" stroke="#63b8ff" d="M74.04,-397.89C91.27,-417.53 121.75,-449.71 153.25,-470.75 155.04,-471.95 156.9,-473.11 158.8,-474.24"/>
<polygon fill="#63b8ff" stroke="#63b8ff" points="156.81,-477.14 167.26,-478.85 160.16,-470.99 156.81,-477.14"/>
</a>
</g>
</g>
<!-- Node10 -->
<g id="Node000010" class="node">
<title>Node10</title>
<g id="a_Node000010"><a xlink:href="namespaceupdate__performance__md.html#ac4d341cc6dc059359d9ed3dd061352d5" target="_top" xlink:title=" ">
<polygon fill="white" stroke="#666666" points="272.38,-461.88 155.12,-461.88 155.12,-415.62 272.38,-415.62 272.38,-461.88"/>
<text text-anchor="start" x="163.12" y="-448.38" font-family="Helvetica,sans-Serif" font-size="10.00">update_performance</text>
<text text-anchor="start" x="163.12" y="-435.62" font-family="Helvetica,sans-Serif" font-size="10.00">_md._partition_runs</text>
<text text-anchor="middle" x="213.75" y="-422.88" font-family="Helvetica,sans-Serif" font-size="10.00">_and_summary</text>
</a>
</g>
</g>
<!-- Node1&#45;&gt;Node10 -->
<g id="edge9_Node000001_Node000010" class="edge">
<title>Node1&#45;&gt;Node10</title>
<g id="a_edge9_Node000001_Node000010"><a xlink:title=" ">
<path fill="none" stroke="#63b8ff" d="M105.15,-397.99C117.47,-402.66 131.07,-407.81 144.34,-412.84"/>
<polygon fill="#63b8ff" stroke="#63b8ff" points="142.87,-416.02 153.46,-416.29 145.35,-409.48 142.87,-416.02"/>
</a>
</g>
</g>
<!-- Node11 -->
<g id="Node000011" class="node">
<title>Node11</title>
<g id="a_Node000011"><a xlink:href="namespaceupdate__performance__md.html#a58798198c090e92e0b0e5886cb68d58a" target="_top" xlink:title=" ">
<polygon fill="white" stroke="#666666" points="272.38,-397.5 155.12,-397.5 155.12,-364 272.38,-364 272.38,-397.5"/>
<text text-anchor="start" x="163.12" y="-384" font-family="Helvetica,sans-Serif" font-size="10.00">update_performance</text>
<text text-anchor="middle" x="213.75" y="-371.25" font-family="Helvetica,sans-Serif" font-size="10.00">_md._pick_first</text>
</a>
</g>
</g>
<!-- Node1&#45;&gt;Node11 -->
<g id="edge10_Node000001_Node000011" class="edge">
<title>Node1&#45;&gt;Node11</title>
<g id="a_edge10_Node000001_Node000011"><a xlink:title=" ">
<path fill="none" stroke="#63b8ff" d="M117.51,-380.75C125.99,-380.75 134.8,-380.75 143.48,-380.75"/>
<polygon fill="#63b8ff" stroke="#63b8ff" points="143.26,-384.25 153.26,-380.75 143.26,-377.25 143.26,-384.25"/>
</a>
</g>
</g>
<!-- Node12 -->
<g id="Node000012" class="node">
<title>Node12</title>
<g id="a_Node000012"><a xlink:href="namespaceupdate__performance__md.html#a9bc426f3865fd06809eade1e79ea91a4" target="_top" xlink:title=" ">
<polygon fill="white" stroke="#666666" points="274.25,-345.5 153.25,-345.5 153.25,-312 274.25,-312 274.25,-345.5"/>
<text text-anchor="start" x="161.25" y="-332" font-family="Helvetica,sans-Serif" font-size="10.00">update_performance</text>
<text text-anchor="middle" x="213.75" y="-319.25" font-family="Helvetica,sans-Serif" font-size="10.00">_md._read_json_lines</text>
</a>
</g>
</g>
<!-- Node1&#45;&gt;Node12 -->
<g id="edge11_Node000001_Node000012" class="edge">
<title>Node1&#45;&gt;Node12</title>
<g id="a_edge11_Node000001_Node000012"><a xlink:title=" ">
<path fill="none" stroke="#63b8ff" d="M110.19,-363.58C123.32,-359.12 137.6,-354.27 151.23,-349.64"/>
<polygon fill="#63b8ff" stroke="#63b8ff" points="152.2,-353.01 160.55,-346.48 149.95,-346.38 152.2,-353.01"/>
</a>
</g>
</g>
<!-- Node13 -->
<g id="Node000013" class="node">
<title>Node13</title>
<g id="a_Node000013"><a xlink:href="namespaceupdate__performance__md.html#aa6279954597713b99c29f22496f5beb6" target="_top" xlink:title=" ">
<polygon fill="white" stroke="#666666" points="272.38,-293.5 155.12,-293.5 155.12,-260 272.38,-260 272.38,-293.5"/>
<text text-anchor="start" x="163.12" y="-280" font-family="Helvetica,sans-Serif" font-size="10.00">update_performance</text>
<text text-anchor="middle" x="213.75" y="-267.25" font-family="Helvetica,sans-Serif" font-size="10.00">_md._render_device</text>
</a>
</g>
</g>
<!-- Node1&#45;&gt;Node13 -->
<g id="edge12_Node000001_Node000013" class="edge">
<title>Node1&#45;&gt;Node13</title>
<g id="a_edge12_Node000001_Node000013"><a xlink:title=" ">
<path fill="none" stroke="#63b8ff" d="M77.1,-363.57C95.08,-346.56 124.45,-320.54 153.25,-302.75 155.24,-301.52 157.29,-300.33 159.39,-299.16"/>
<polygon fill="#63b8ff" stroke="#63b8ff" points="160.83,-302.36 168.09,-294.64 157.6,-296.14 160.83,-302.36"/>
</a>
</g>
</g>
<!-- Node17 -->
<g id="Node000017" class="node">
<title>Node17</title>
<g id="a_Node000017"><a xlink:href="namespaceupdate__performance__md.html#a7638e6f2223e8b49afbcf5ef17a4eb8c" target="_top" xlink:title=" ">
<polygon fill="white" stroke="#666666" points="272.38,-241.5 155.12,-241.5 155.12,-208 272.38,-208 272.38,-241.5"/>
<text text-anchor="start" x="163.12" y="-228" font-family="Helvetica,sans-Serif" font-size="10.00">update_performance</text>
<text text-anchor="middle" x="213.75" y="-215.25" font-family="Helvetica,sans-Serif" font-size="10.00">_md._render_shared</text>
</a>
</g>
</g>
<!-- Node1&#45;&gt;Node17 -->
<g id="edge16_Node000001_Node000017" class="edge">
<title>Node1&#45;&gt;Node17</title>
<g id="a_edge16_Node000001_Node000017"><a xlink:title=" ">
<path fill="none" stroke="#63b8ff" d="M68,-363.76C82.15,-336.57 113.22,-283.08 153.25,-250.75 154.38,-249.83 155.56,-248.94 156.76,-248.08"/>
<polygon fill="#63b8ff" stroke="#63b8ff" points="158.6,-251.06 165.19,-242.76 154.86,-245.14 158.6,-251.06"/>
</a>
</g>
</g>
<!-- Node18 -->
<g id="Node000018" class="node">
<title>Node18</title>
<g id="a_Node000018"><a xlink:href="namespaceupdate__performance__md.html#ae2f704218ec574584f252cc8112f62f3" target="_top" xlink:title=" ">
<polygon fill="white" stroke="#666666" points="272.75,-189.5 154.75,-189.5 154.75,-156 272.75,-156 272.75,-189.5"/>
<text text-anchor="start" x="162.75" y="-176" font-family="Helvetica,sans-Serif" font-size="10.00">update_performance</text>
<text text-anchor="middle" x="213.75" y="-163.25" font-family="Helvetica,sans-Serif" font-size="10.00">_md._render_system</text>
</a>
</g>
</g>
<!-- Node1&#45;&gt;Node18 -->
<g id="edge17_Node000001_Node000018" class="edge">
<title>Node1&#45;&gt;Node18</title>
<g id="a_edge17_Node000001_Node000018"><a xlink:title=" ">
<path fill="none" stroke="#63b8ff" d="M64.2,-363.57C74.43,-328.19 102.34,-246.54 153.25,-198.75 154.13,-197.92 155.05,-197.11 155.99,-196.33"/>
<polygon fill="#63b8ff" stroke="#63b8ff" points="157.69,-199.42 163.83,-190.78 153.64,-193.7 157.69,-199.42"/>
</a>
</g>
</g>
<!-- Node24 -->
<g id="Node000024" class="node">
<title>Node24</title>
<g id="a_Node000024"><a xlink:href="namespaceupdate__performance__md.html#ab6c1860d6b58938b3e07103ead71212c" target="_top" xlink:title=" ">
<polygon fill="white" stroke="#666666" points="272.38,-137.5 155.12,-137.5 155.12,-104 272.38,-104 272.38,-137.5"/>
<text text-anchor="start" x="163.12" y="-124" font-family="Helvetica,sans-Serif" font-size="10.00">update_performance</text>
<text text-anchor="middle" x="213.75" y="-111.25" font-family="Helvetica,sans-Serif" font-size="10.00">_md._render_table</text>
</a>
</g>
</g>
<!-- Node1&#45;&gt;Node24 -->
<g id="edge23_Node000001_Node000024" class="edge">
<title>Node1&#45;&gt;Node24</title>
<g id="a_edge23_Node000001_Node000024"><a xlink:title=" ">
<path fill="none" stroke="#63b8ff" d="M61.96,-363.64C68.56,-321.38 91.13,-210.85 153.25,-146.75 153.85,-146.13 154.47,-145.52 155.11,-144.92"/>
<polygon fill="#63b8ff" stroke="#63b8ff" points="157.18,-147.75 162.95,-138.87 152.9,-142.21 157.18,-147.75"/>
</a>
</g>
</g>
<!-- Node25 -->
<g id="Node000025" class="node">
<title>Node25</title>
<g id="a_Node000025"><a xlink:href="namespaceupdate__performance__md.html#ad51cd35cde32ba00a7491d0c8c27573f" target="_top" xlink:title=" ">
<polygon fill="white" stroke="#666666" points="272.38,-85.5 155.12,-85.5 155.12,-52 272.38,-52 272.38,-85.5"/>
<text text-anchor="start" x="163.12" y="-72" font-family="Helvetica,sans-Serif" font-size="10.00">update_performance</text>
<text text-anchor="middle" x="213.75" y="-59.25" font-family="Helvetica,sans-Serif" font-size="10.00">_md._take_last3</text>
</a>
</g>
</g>
<!-- Node1&#45;&gt;Node25 -->
<g id="edge24_Node000001_Node000025" class="edge">
<title>Node1&#45;&gt;Node25</title>
<g id="a_edge24_Node000001_Node000025"><a xlink:title=" ">
<path fill="none" stroke="#63b8ff" d="M60.51,-363.54C63.88,-315.05 79.82,-175.56 153.25,-94.75 153.82,-94.12 154.4,-93.51 155.01,-92.92"/>
<polygon fill="#63b8ff" stroke="#63b8ff" points="156.9,-95.89 162.46,-86.87 152.49,-90.45 156.9,-95.89"/>
</a>
</g>
</g>
<!-- Node3 -->
<g id="Node000003" class="node">
<title>Node3</title>
<g id="a_Node000003"><a xlink:href="namespaceupdate__performance__md.html#a0a92266d40ea5f29cd6587638192c323" target="_top" xlink:title=" ">
<polygon fill="white" stroke="#666666" points="450,-773.5 332.75,-773.5 332.75,-740 450,-740 450,-773.5"/>
<text text-anchor="start" x="340.75" y="-760" font-family="Helvetica,sans-Serif" font-size="10.00">update_performance</text>
<text text-anchor="middle" x="391.38" y="-747.25" font-family="Helvetica,sans-Serif" font-size="10.00">_md._mean</text>
</a>
</g>
</g>
<!-- Node2&#45;&gt;Node3 -->
<g id="edge2_Node000002_Node000003" class="edge">
<title>Node2&#45;&gt;Node3</title>
<g id="a_edge2_Node000002_Node000003"><a xlink:title=" ">
<path fill="none" stroke="#63b8ff" d="M272.74,-721.92C288.33,-726.54 305.34,-731.57 321.46,-736.34"/>
<polygon fill="#63b8ff" stroke="#63b8ff" points="320.41,-739.68 330.99,-739.17 322.4,-732.97 320.41,-739.68"/>
</a>
</g>
</g>
<!-- Node4 -->
<g id="Node000004" class="node">
<title>Node4</title>
<g id="a_Node000004"><a xlink:href="namespaceupdate__performance__md.html#a58569c9d780e11c4bd776e9ae8fba715" target="_top" xlink:title=" ">
<polygon fill="white" stroke="#666666" points="450,-721.5 332.75,-721.5 332.75,-688 450,-688 450,-721.5"/>
<text text-anchor="start" x="340.75" y="-708" font-family="Helvetica,sans-Serif" font-size="10.00">update_performance</text>
<text text-anchor="middle" x="391.38" y="-695.25" font-family="Helvetica,sans-Serif" font-size="10.00">_md._sum_f</text>
</a>
</g>
</g>
<!-- Node2&#45;&gt;Node4 -->
<g id="edge3_Node000002_Node000004" class="edge">
<title>Node2&#45;&gt;Node4</title>
<g id="a_edge3_Node000002_Node000004"><a xlink:title=" ">
<path fill="none" stroke="#63b8ff" d="M272.74,-704.75C288.18,-704.75 305.01,-704.75 320.99,-704.75"/>
<polygon fill="#63b8ff" stroke="#63b8ff" points="320.93,-708.25 330.93,-704.75 320.93,-701.25 320.93,-708.25"/>
</a>
</g>
</g>
<!-- Node5 -->
<g id="Node000005" class="node">
<title>Node5</title>
<g id="a_Node000005"><a xlink:href="namespaceupdate__performance__md.html#a4af1c202680564086d3bef963f814780" target="_top" xlink:title=" ">
<polygon fill="white" stroke="#666666" points="450,-669.5 332.75,-669.5 332.75,-636 450,-636 450,-669.5"/>
<text text-anchor="start" x="340.75" y="-656" font-family="Helvetica,sans-Serif" font-size="10.00">update_performance</text>
<text text-anchor="middle" x="391.38" y="-643.25" font-family="Helvetica,sans-Serif" font-size="10.00">_md._sum_i</text>
</a>
</g>
</g>
<!-- Node2&#45;&gt;Node5 -->
<g id="edge4_Node000002_Node000005" class="edge">
<title>Node2&#45;&gt;Node5</title>
<g id="a_edge4_Node000002_Node000005"><a xlink:title=" ">
<path fill="none" stroke="#63b8ff" d="M272.74,-687.58C288.33,-682.96 305.34,-677.93 321.46,-673.16"/>
<polygon fill="#63b8ff" stroke="#63b8ff" points="322.4,-676.53 330.99,-670.33 320.41,-669.82 322.4,-676.53"/>
</a>
</g>
</g>
<!-- Node14 -->
<g id="Node000014" class="node">
<title>Node14</title>
<g id="a_Node000014"><a xlink:href="namespaceupdate__performance__md.html#a4093efa4a4b832d477bd5b012b9e36ca" target="_top" xlink:title=" ">
<polygon fill="white" stroke="#666666" points="453.75,-345.5 329,-345.5 329,-312 453.75,-312 453.75,-345.5"/>
<text text-anchor="start" x="337" y="-332" font-family="Helvetica,sans-Serif" font-size="10.00">update_performance</text>
<text text-anchor="middle" x="391.38" y="-319.25" font-family="Helvetica,sans-Serif" font-size="10.00">_md._bandwidth_gbps</text>
</a>
</g>
</g>
<!-- Node13&#45;&gt;Node14 -->
<g id="edge13_Node000013_Node000014" class="edge">
<title>Node13&#45;&gt;Node14</title>
<g id="a_edge13_Node000013_Node000014"><a xlink:title=" ">
<path fill="none" stroke="#63b8ff" d="M272.74,-293.92C288.25,-298.51 305.16,-303.52 321.2,-308.27"/>
<polygon fill="#63b8ff" stroke="#63b8ff" points="320.11,-311.6 330.69,-311.08 322.1,-304.88 320.11,-311.6"/>
</a>
</g>
</g>
<!-- Node16 -->
<g id="Node000016" class="node">
<title>Node16</title>
<g id="a_Node000016"><a xlink:href="namespaceupdate__performance__md.html#a7784dd84e748de0bac09a6ec05a0ab1e" target="_top" xlink:title=" ">
<polygon fill="white" stroke="#666666" points="450,-293.5 332.75,-293.5 332.75,-260 450,-260 450,-293.5"/>
<text text-anchor="start" x="340.75" y="-280" font-family="Helvetica,sans-Serif" font-size="10.00">update_performance</text>
<text text-anchor="middle" x="391.38" y="-267.25" font-family="Helvetica,sans-Serif" font-size="10.00">_md._bytes_touched</text>
</a>
</g>
</g>
<!-- Node13&#45;&gt;Node16 -->
<g id="edge15_Node000013_Node000016" class="edge">
<title>Node13&#45;&gt;Node16</title>
<g id="a_edge15_Node000013_Node000016"><a xlink:title=" ">
<path fill="none" stroke="#63b8ff" d="M272.74,-276.75C288.18,-276.75 305.01,-276.75 320.99,-276.75"/>
<polygon fill="#63b8ff" stroke="#63b8ff" points="320.93,-280.25 330.93,-276.75 320.93,-273.25 320.93,-280.25"/>
</a>
</g>
</g>
<!-- Node15 -->
<g id="Node000015" class="node">
<title>Node15</title>
<g id="a_Node000015"><a xlink:href="namespaceupdate__performance__md.html#a4ccc20cb0021ee1fdf18fa3d38860810" target="_top" xlink:title=" ">
<polygon fill="white" stroke="#666666" points="625.75,-345.5 508.5,-345.5 508.5,-312 625.75,-312 625.75,-345.5"/>
<text text-anchor="start" x="516.5" y="-332" font-family="Helvetica,sans-Serif" font-size="10.00">update_performance</text>
<text text-anchor="middle" x="567.12" y="-319.25" font-family="Helvetica,sans-Serif" font-size="10.00">_md._bytes_to_gb</text>
</a>
</g>
</g>
<!-- Node14&#45;&gt;Node15 -->
<g id="edge14_Node000014_Node000015" class="edge">
<title>Node14&#45;&gt;Node15</title>
<g id="a_edge14_Node000014_Node000015"><a xlink:title=" ">
<path fill="none" stroke="#63b8ff" d="M454.12,-328.75C467.98,-328.75 482.76,-328.75 496.9,-328.75"/>
<polygon fill="#63b8ff" stroke="#63b8ff" points="496.55,-332.25 506.55,-328.75 496.55,-325.25 496.55,-332.25"/>
</a>
</g>
</g>
<!-- Node19 -->
<g id="Node000019" class="node">
<title>Node19</title>
<g id="a_Node000019"><a xlink:href="namespaceupdate__performance__md.html#a5907f23bd97111610fd3e5ada859d0e3" target="_top" xlink:title=" ">
<polygon fill="white" stroke="#666666" points="463.88,-241.5 318.88,-241.5 318.88,-208 463.88,-208 463.88,-241.5"/>
<text text-anchor="start" x="326.88" y="-228" font-family="Helvetica,sans-Serif" font-size="10.00">update_performance</text>
<text text-anchor="middle" x="391.38" y="-215.25" font-family="Helvetica,sans-Serif" font-size="10.00">_md._discover_cpu_model</text>
</a>
</g>
</g>
<!-- Node18&#45;&gt;Node19 -->
<g id="edge18_Node000018_Node000019" class="edge">
<title>Node18&#45;&gt;Node19</title>
<g id="a_edge18_Node000018_Node000019"><a xlink:title=" ">
<path fill="none" stroke="#63b8ff" d="M272.74,-189.92C288.25,-194.51 305.16,-199.52 321.2,-204.27"/>
<polygon fill="#63b8ff" stroke="#63b8ff" points="320.11,-207.6 330.69,-207.08 322.1,-200.88 320.11,-207.6"/>
</a>
</g>
</g>
<!-- Node20 -->
<g id="Node000020" class="node">
<title>Node20</title>
<g id="a_Node000020"><a xlink:href="namespaceupdate__performance__md.html#a6a06b952c4884f671dc4ff66459dab7a" target="_top" xlink:title=" ">
<polygon fill="white" stroke="#666666" points="450,-189.5 332.75,-189.5 332.75,-156 450,-156 450,-189.5"/>
<text text-anchor="start" x="340.75" y="-176" font-family="Helvetica,sans-Serif" font-size="10.00">update_performance</text>
<text text-anchor="middle" x="391.38" y="-163.25" font-family="Helvetica,sans-Serif" font-size="10.00">_md._discover_git</text>
</a>
</g>
</g>
<!-- Node18&#45;&gt;Node20 -->
<g id="edge19_Node000018_Node000020" class="edge">
<title>Node18&#45;&gt;Node20</title>
<g id="a_edge19_Node000018_Node000020"><a xlink:title=" ">
<path fill="none" stroke="#63b8ff" d="M273.23,-172.75C288.57,-172.75 305.25,-172.75 321.09,-172.75"/>
<polygon fill="#63b8ff" stroke="#63b8ff" points="320.94,-176.25 330.94,-172.75 320.94,-169.25 320.94,-176.25"/>
</a>
</g>
</g>
<!-- Node21 -->
<g id="Node000021" class="node">
<title>Node21</title>
<g id="a_Node000021"><a xlink:href="namespaceupdate__performance__md.html#a7a78996953638c0e2197c7bff773dc6d" target="_top" xlink:title=" ">
<polygon fill="white" stroke="#666666" points="452.25,-137.5 330.5,-137.5 330.5,-104 452.25,-104 452.25,-137.5"/>
<text text-anchor="start" x="338.5" y="-124" font-family="Helvetica,sans-Serif" font-size="10.00">update_performance</text>
<text text-anchor="middle" x="391.38" y="-111.25" font-family="Helvetica,sans-Serif" font-size="10.00">_md._discover_kernel</text>
</a>
</g>
</g>
<!-- Node18&#45;&gt;Node21 -->
<g id="edge20_Node000018_Node000021" class="edge">
<title>Node18&#45;&gt;Node21</title>
<g id="a_edge20_Node000018_Node000021"><a xlink:title=" ">
<path fill="none" stroke="#63b8ff" d="M272.74,-155.58C288.25,-150.99 305.16,-145.98 321.2,-141.23"/>
<polygon fill="#63b8ff" stroke="#63b8ff" points="322.1,-144.62 330.69,-138.42 320.11,-137.9 322.1,-144.62"/>
</a>
</g>
</g>
<!-- Node22 -->
<g id="Node000022" class="node">
<title>Node22</title>
<g id="a_Node000022"><a xlink:href="namespaceupdate__performance__md.html#a90c17965e4c2a62a1d074a32d5216978" target="_top" xlink:title=" ">
<polygon fill="white" stroke="#666666" points="472.5,-85.5 310.25,-85.5 310.25,-52 472.5,-52 472.5,-85.5"/>
<text text-anchor="start" x="318.25" y="-72" font-family="Helvetica,sans-Serif" font-size="10.00">update_performance</text>
<text text-anchor="middle" x="391.38" y="-59.25" font-family="Helvetica,sans-Serif" font-size="10.00">_md._discover_mem_total_gb</text>
</a>
</g>
</g>
<!-- Node18&#45;&gt;Node22 -->
<g id="edge21_Node000018_Node000022" class="edge">
<title>Node18&#45;&gt;Node22</title>
<g id="a_edge21_Node000018_Node000022"><a xlink:title=" ">
<path fill="none" stroke="#63b8ff" d="M261.09,-155.62C265.76,-153 270.25,-150.05 274.25,-146.75 295.95,-128.89 287.7,-111.53 310.25,-94.75 311.78,-93.61 313.37,-92.52 315,-91.47"/>
<polygon fill="#63b8ff" stroke="#63b8ff" points="316.41,-94.69 323.4,-86.73 312.98,-88.59 316.41,-94.69"/>
</a>
</g>
</g>
<!-- Node23 -->
<g id="Node000023" class="node">
<title>Node23</title>
<g id="a_Node000023"><a xlink:href="namespaceupdate__performance__md.html#a235b9ee2b969787968ac8f4b9595013b" target="_top" xlink:title=" ">
<polygon fill="white" stroke="#666666" points="450,-33.5 332.75,-33.5 332.75,0 450,0 450,-33.5"/>
<text text-anchor="start" x="340.75" y="-20" font-family="Helvetica,sans-Serif" font-size="10.00">update_performance</text>
<text text-anchor="middle" x="391.38" y="-7.25" font-family="Helvetica,sans-Serif" font-size="10.00">_md._discover_os</text>
</a>
</g>
</g>
<!-- Node18&#45;&gt;Node23 -->
<g id="edge22_Node000018_Node000023" class="edge">
<title>Node18&#45;&gt;Node23</title>
<g id="a_edge22_Node000018_Node000023"><a xlink:title=" ">
<path fill="none" stroke="#63b8ff" d="M263.81,-155.53C267.63,-152.97 271.19,-150.06 274.25,-146.75 307.45,-110.83 275.33,-77 310.25,-42.75 313.87,-39.2 317.98,-36.13 322.39,-33.48"/>
<polygon fill="#63b8ff" stroke="#63b8ff" points="323.77,-36.71 331.06,-29.02 320.57,-30.48 323.77,-36.71"/>
</a>
</g>
</g>
</g>
</svg>

<g id="navigator" transform="translate(0 0)" fill="#404254">
  <rect fill="#f2f5e9" fill-opacity="0.5" stroke="#606060" stroke-width=".5" x="0" y="0" width="60" height="60"/>
  <use id="zoomplus" xlink:href="#zoomPlus" x="17" y="9" onmousedown="handleZoom(evt,'in')"/>
  <use id="zoomminus" xlink:href="#zoomMin" x="42" y="9" onmousedown="handleZoom(evt,'out')"/>
  <use id="reset" xlink:href="#resetDef" x="30" y="36" onmousedown="handleReset()"/>
   <use id="arrowup" xlink:href="#arrowUp" x="0" y="0" onmousedown="handlePan(0,-1)"/>
  <use id="arrowright" xlink:href="#arrowRight" x="0" y="0" onmousedown="handlePan(1,0)"/>
  <use id="arrowdown" xlink:href="#arrowDown" x="0" y="0" onmousedown="handlePan(0,1)"/>
  <use id="arrowleft" xlink:href="#arrowLeft" x="0" y="0" onmousedown="handlePan(-1,0)"/>
</g>
<svg viewBox="0 0 15 15" width="100%" height="30px" preserveAspectRatio="xMaxYMin meet">
 <g id="arrow_out" transform="scale(0.3 0.3)">
  <a xlink:href="namespaceupdate__performance__md_ae757be851b94bcca07c264e51d9d0d15_cgraph_org.svg" target="_base">
   <rect id="button" ry="5" rx="5" y="6" x="6" height="38" width="38"
        fill="#f2f5e9" fill-opacity="0.5" stroke="#606060" stroke-width="1.0"/>
   <path id="arrow"
     d="M 11.500037,31.436501 C 11.940474,20.09759 22.043105,11.32322 32.158766,21.979434 L 37.068811,17.246167 C 37.068811,17.246167 37.088388,32 37.088388,32 L 22.160133,31.978069 C 22.160133,31.978069 26.997745,27.140456 26.997745,27.140456 C 18.528582,18.264221 13.291696,25.230495 11.500037,31.436501 z"
     style="fill:#404040;"/>
  </a>
 </g>
</svg>

<style type='text/css'>
<![CDATA[
[data-mouse-over-selected='false'] { opacity: 0.7; }
[data-mouse-over-selected='true']  { opacity: 1.0; }
]]>
</style>
<script type="application/ecmascript"><![CDATA[
document.addEventListener('DOMContentLoaded', (event) => {
  highlightEdges();
  highlightAdjacentNodes();
});
]]></script>
</svg>
