<?xml version="1.0" encoding="UTF-8" standalone="no"?>
<!DOCTYPE svg PUBLIC "-//W3C//DTD SVG 1.1//EN"
 "http://www.w3.org/Graphics/SVG/1.1/DTD/svg11.dtd">
<!-- Generated by graphviz version 2.43.0 (0)
 -->
<!-- Title: hf_generate.main Pages: 1 -->
<svg width="293pt" height="162pt"
 viewBox="0.00 0.00 293.00 161.50" xmlns="http://www.w3.org/2000/svg" xmlns:xlink="http://www.w3.org/1999/xlink">

<svg id="main" version="1.1" xmlns="http://www.w3.org/2000/svg" xmlns:xlink="http://www.w3.org/1999/xlink" xml:space="preserve" onload="init(evt)">
<style type="text/css"><![CDATA[
.node, .edge {opacity: 0.7;}
.node.selected, .edge.selected {opacity: 1;}
.edge:hover path { stroke: red; }
.edge:hover polygon { stroke: red; fill: red; }
]]></style>
<script type="application/ecmascript" xlink:href="svg.min.js"/>
<svg id="graph" class="graph">
<g id="graph0" class="graph" transform="scale(1 1) rotate(0) translate(4 157.5)">
<title>hf_generate.main</title>
<!-- Node1 -->
<g id="Node000001" class="node">
<title>Node1</title>
<g id="a_Node000001"><a xlink:title=" ">
<polygon fill="#999999" stroke="#666666" points="103,-88.5 0,-88.5 0,-69.5 103,-69.5 103,-88.5"/>
<text text-anchor="middle" x="51.5" y="-76.5" font-family="Helvetica,sans-Serif" font-size="10.00">hf_generate.main</text>
</a>
</g>
</g>
<!-- Node1&#45;&gt;Node1 -->
<g id="edge5_Node000001_Node000001" class="edge">
<title>Node1&#45;&gt;Node1</title>
<g id="a_edge5_Node000001_Node000001"><a xlink:title=" ">
<path fill="none" stroke="#63b8ff" d="M26.84,-88.58C14.84,-97.23 23.06,-106.5 51.5,-106.5 70.16,-106.5 80.12,-102.51 81.37,-97.32"/>
<polygon fill="#63b8ff" stroke="#63b8ff" points="84.29,-95.38 76.16,-88.58 78.27,-98.97 84.29,-95.38"/>
</a>
</g>
</g>
<!-- Node2 -->
<g id="Node000002" class="node">
<title>Node2</title>
<g id="a_Node000002"><a xlink:href="namespacehf__generate.html#a4cea45752fd1a5a081e73c44de12eb5d" target="_top" xlink:title=" ">
<polygon fill="white" stroke="#666666" points="275.5,-153.5 148.5,-153.5 148.5,-134.5 275.5,-134.5 275.5,-153.5"/>
<text text-anchor="middle" x="212" y="-141.5" font-family="Helvetica,sans-Serif" font-size="10.00">hf_generate._generate</text>
</a>
</g>
</g>
<!-- Node1&#45;&gt;Node2 -->
<g id="edge1_Node000001_Node000002" class="edge">
<title>Node1&#45;&gt;Node2</title>
<g id="a_edge1_Node000001_Node000002"><a xlink:title=" ">
<path fill="none" stroke="#63b8ff" d="M67.92,-88.61C84.83,-98.81 113.03,-114.83 139,-125 145.23,-127.44 151.88,-129.67 158.53,-131.67"/>
<polygon fill="#63b8ff" stroke="#63b8ff" points="157.64,-135.06 168.22,-134.45 159.57,-128.33 157.64,-135.06"/>
</a>
</g>
</g>
<!-- Node3 -->
<g id="Node000003" class="node">
<title>Node3</title>
<g id="a_Node000003"><a xlink:href="namespacehf__generate.html#a82c0f7a701b39c1176c514d6af348b36" target="_top" xlink:title=" ">
<polygon fill="white" stroke="#666666" points="282,-116 142,-116 142,-86 282,-86 282,-116"/>
<text text-anchor="start" x="150" y="-104" font-family="Helvetica,sans-Serif" font-size="10.00">hf_generate._load_model</text>
<text text-anchor="middle" x="212" y="-93" font-family="Helvetica,sans-Serif" font-size="10.00">_and_tokenizer</text>
</a>
</g>
</g>
<!-- Node1&#45;&gt;Node3 -->
<g id="edge2_Node000001_Node000003" class="edge">
<title>Node1&#45;&gt;Node3</title>
<g id="a_edge2_Node000001_Node000003"><a xlink:title=" ">
<path fill="none" stroke="#63b8ff" d="M103.09,-86.02C112.23,-87.29 121.96,-88.64 131.7,-89.99"/>
<polygon fill="#63b8ff" stroke="#63b8ff" points="131.43,-93.49 141.82,-91.4 132.39,-86.56 131.43,-93.49"/>
</a>
</g>
</g>
<!-- Node4 -->
<g id="Node000004" class="node">
<title>Node4</title>
<g id="a_Node000004"><a xlink:href="namespacehf__generate.html#a8b92d0e2af956fcafd2492cae30a9ec4" target="_top" xlink:title=" ">
<polygon fill="white" stroke="#666666" points="285,-67.5 139,-67.5 139,-48.5 285,-48.5 285,-67.5"/>
<text text-anchor="middle" x="212" y="-55.5" font-family="Helvetica,sans-Serif" font-size="10.00">hf_generate._read_prompt</text>
</a>
</g>
</g>
<!-- Node1&#45;&gt;Node4 -->
<g id="edge3_Node000001_Node000004" class="edge">
<title>Node1&#45;&gt;Node4</title>
<g id="a_edge3_Node000001_Node000004"><a xlink:title=" ">
<path fill="none" stroke="#63b8ff" d="M103.09,-72.3C111.45,-71.19 120.3,-70.02 129.19,-68.84"/>
<polygon fill="#63b8ff" stroke="#63b8ff" points="129.78,-72.29 139.23,-67.51 128.86,-65.35 129.78,-72.29"/>
</a>
</g>
</g>
<!-- Node5 -->
<g id="Node000005" class="node">
<title>Node5</title>
<g id="a_Node000005"><a xlink:href="namespacehf__generate.html#a480985a38e4b0eee6d29e45289487fdd" target="_top" xlink:title=" ">
<polygon fill="white" stroke="#666666" points="271.5,-30 152.5,-30 152.5,0 271.5,0 271.5,-30"/>
<text text-anchor="start" x="160.5" y="-18" font-family="Helvetica,sans-Serif" font-size="10.00">hf_generate._resolve</text>
<text text-anchor="middle" x="212" y="-7" font-family="Helvetica,sans-Serif" font-size="10.00">_device</text>
</a>
</g>
</g>
<!-- Node1&#45;&gt;Node5 -->
<g id="edge4_Node000001_Node000005" class="edge">
<title>Node1&#45;&gt;Node5</title>
<g id="a_edge4_Node000001_Node000005"><a xlink:title=" ">
<path fill="none" stroke="#63b8ff" d="M72.55,-69.34C89.95,-61.12 115.89,-49.2 139,-40 144.43,-37.84 150.14,-35.67 155.86,-33.58"/>
<polygon fill="#63b8ff" stroke="#63b8ff" points="157.23,-36.81 165.45,-30.12 154.86,-30.22 157.23,-36.81"/>
</a>
</g>
</g>
</g>
</svg>
</svg>

<style type='text/css'>
<![CDATA[
[data-mouse-over-selected='false'] { opacity: 0.7; }
[data-mouse-over-selected='true']  { opacity: 1.0; }
]]>
</style>
<script type="application/ecmascript"><![CDATA[
document.addEventListener('DOMContentLoaded', (event) => {
  highlightEdges();
  highlightAdjacentNodes();
});
]]></script>
</svg>
