<?xml version="1.0" encoding="UTF-8" standalone="no"?>
<!DOCTYPE svg PUBLIC "-//W3C//DTD SVG 1.1//EN"
 "http://www.w3.org/Graphics/SVG/1.1/DTD/svg11.dtd">
<!-- Generated by graphviz version 2.43.0 (0)
 -->
<!-- Title: validate_ie_json.main Pages: 1 -->
<svg width="289pt" height="45pt"
 viewBox="0.00 0.00 289.00 45.00" xmlns="http://www.w3.org/2000/svg" xmlns:xlink="http://www.w3.org/1999/xlink">
<g id="graph0" class="graph" transform="scale(1 1) rotate(0) translate(4 41)">
<title>validate_ie_json.main</title>
<!-- Node1 -->
<g id="Node000001" class="node">
<title>Node1</title>
<g id="a_Node000001"><a xlink:title=" ">
<polygon fill="#999999" stroke="#666666" points="124,-19 0,-19 0,0 124,0 124,-19"/>
<text text-anchor="middle" x="62" y="-7" font-family="Helvetica,sans-Serif" font-size="10.00">validate_ie_json.main</text>
</a>
</g>
</g>
<!-- Node1&#45;&gt;Node1 -->
<g id="edge1_Node000001_Node000001" class="edge">
<title>Node1&#45;&gt;Node1</title>
<g id="a_edge1_Node000001_Node000001"><a xlink:title=" ">
<path fill="none" stroke="#63b8ff" d="M37.65,-19.08C25.8,-27.73 33.92,-37 62,-37 80.43,-37 90.26,-33.01 91.49,-27.82"/>
<polygon fill="#63b8ff" stroke="#63b8ff" points="94.44,-25.93 86.35,-19.08 88.41,-29.48 94.44,-25.93"/>
</a>
</g>
</g>
<!-- Node2 -->
<g id="Node000002" class="node">
<title>Node2</title>
<g id="a_Node000002"><a xlink:href="namespacevalidate__ie__json.html#af50aa89ed539370aa64725741fb68629" target="_top" xlink:title=" ">
<polygon fill="white" stroke="#666666" points="281,-19 160,-19 160,0 281,0 281,-19"/>
<text text-anchor="middle" x="220.5" y="-7" font-family="Helvetica,sans-Serif" font-size="10.00">validate_ie_json.prod</text>
</a>
</g>
</g>
<!-- Node1&#45;&gt;Node2 -->
<g id="edge2_Node000001_Node000002" class="edge">
<title>Node1&#45;&gt;Node2</title>
<g id="a_edge2_Node000001_Node000002"><a xlink:title=" ">
<path fill="none" stroke="#63b8ff" d="M124.4,-9.5C132.68,-9.5 141.23,-9.5 149.64,-9.5"/>
<polygon fill="#63b8ff" stroke="#63b8ff" points="149.81,-13 159.81,-9.5 149.81,-6 149.81,-13"/>
</a>
</g>
</g>
</g>
</svg>
