<?xml version="1.0" encoding="UTF-8" standalone="no"?>
<!DOCTYPE svg PUBLIC "-//W3C//DTD SVG 1.1//EN"
 "http://www.w3.org/Graphics/SVG/1.1/DTD/svg11.dtd">
<!-- Generated by graphviz version 12.2.1 (20241206.2353)
 -->
<!-- Title: hf_to_iebin.load_q4_map Pages: 1 -->
<svg width="311pt" height="146pt"
 viewBox="0.00 0.00 310.75 145.75" xmlns="http://www.w3.org/2000/svg" xmlns:xlink="http://www.w3.org/1999/xlink">
<g id="graph0" class="graph" transform="scale(1 1) rotate(0) translate(4 141.75)">
<title>hf_to_iebin.load_q4_map</title>
<!-- Node1 -->
<g id="Node000001" class="node">
<title>Node1</title>
<g id="a_Node000001"><a xlink:title=" ">
<polygon fill="#999999" stroke="#666666" points="138.25,-78.75 0,-78.75 0,-58 138.25,-58 138.25,-78.75"/>
<text text-anchor="middle" x="69.12" y="-65.25" font-family="Helvetica,sans-Serif" font-size="10.00">hf_to_iebin.load_q4_map</text>
</a>
</g>
</g>
<!-- Node2 -->
<g id="Node000002" class="node">
<title>Node2</title>
<g id="a_Node000002"><a xlink:href="namespacehf__to__iebin.html#a31f4d6cf12f537fbc82c75b1eef68f7a" target="_top" xlink:title=" ">
<polygon fill="white" stroke="#666666" points="301.25,-137.75 175.75,-137.75 175.75,-117 301.25,-117 301.25,-137.75"/>
<text text-anchor="middle" x="238.5" y="-124.25" font-family="Helvetica,sans-Serif" font-size="10.00">hf_to_iebin._read_json</text>
</a>
</g>
</g>
<!-- Node1&#45;&gt;Node2 -->
<g id="edge1_Node000001_Node000002" class="edge">
<title>Node1&#45;&gt;Node2</title>
<g id="a_edge1_Node000001_Node000002"><a xlink:title=" ">
<path fill="none" stroke="#63b8ff" d="M97.83,-79.2C118.72,-87.26 148.16,-98.37 174.25,-107.38 179.76,-109.28 185.56,-111.21 191.32,-113.08"/>
<polygon fill="#63b8ff" stroke="#63b8ff" points="190.23,-116.41 200.82,-116.13 192.37,-109.74 190.23,-116.41"/>
</a>
</g>
</g>
<!-- Node3 -->
<g id="Node000003" class="node">
<title>Node3</title>
<g id="a_Node000003"><a xlink:href="namespacehf__to__iebin.html#ad64f85f918c3f7f86e5ba073953ad62e" target="_top" xlink:title=" ">
<polygon fill="white" stroke="#666666" points="302.75,-98.75 174.25,-98.75 174.25,-78 302.75,-78 302.75,-98.75"/>
<text text-anchor="middle" x="238.5" y="-85.25" font-family="Helvetica,sans-Serif" font-size="10.00">hf_to_iebin._read_jsonl</text>
</a>
</g>
</g>
<!-- Node1&#45;&gt;Node3 -->
<g id="edge2_Node000001_Node000003" class="edge">
<title>Node1&#45;&gt;Node3</title>
<g id="a_edge2_Node000001_Node000003"><a xlink:title=" ">
<path fill="none" stroke="#63b8ff" d="M138.69,-76.57C146.6,-77.51 154.7,-78.48 162.7,-79.44"/>
<polygon fill="#63b8ff" stroke="#63b8ff" points="162.05,-82.88 172.39,-80.59 162.88,-75.93 162.05,-82.88"/>
</a>
</g>
</g>
<!-- Node4 -->
<g id="Node000004" class="node">
<title>Node4</title>
<g id="a_Node000004"><a xlink:href="namespacehf__to__iebin.html#a4b60e8118426fdaed71bda80d597f94a" target="_top" xlink:title=" ">
<polygon fill="white" stroke="#666666" points="282.5,-59.75 194.5,-59.75 194.5,-39 282.5,-39 282.5,-59.75"/>
<text text-anchor="middle" x="238.5" y="-46.25" font-family="Helvetica,sans-Serif" font-size="10.00">hf_to_iebin.die</text>
</a>
</g>
</g>
<!-- Node1&#45;&gt;Node4 -->
<g id="edge3_Node000001_Node000004" class="edge">
<title>Node1&#45;&gt;Node4</title>
<g id="a_edge3_Node000001_Node000004"><a xlink:title=" ">
<path fill="none" stroke="#63b8ff" d="M138.69,-60.59C153.5,-58.91 168.97,-57.15 183.16,-55.54"/>
<polygon fill="#63b8ff" stroke="#63b8ff" points="183.17,-59.06 192.72,-54.46 182.39,-52.11 183.17,-59.06"/>
</a>
</g>
</g>
<!-- Node5 -->
<g id="Node000005" class="node">
<title>Node5</title>
<g id="a_Node000005"><a xlink:href="namespacehf__to__iebin.html#ac3cef0864139e3543306b846207f8c3e" target="_top" xlink:title=" ">
<polygon fill="white" stroke="#666666" points="282.5,-20.75 194.5,-20.75 194.5,0 282.5,0 282.5,-20.75"/>
<text text-anchor="middle" x="238.5" y="-7.25" font-family="Helvetica,sans-Serif" font-size="10.00">hf_to_iebin.log</text>
</a>
</g>
</g>
<!-- Node1&#45;&gt;Node5 -->
<g id="edge4_Node000001_Node000005" class="edge">
<title>Node1&#45;&gt;Node5</title>
<g id="a_edge4_Node000001_Node000005"><a xlink:title=" ">
<path fill="none" stroke="#63b8ff" d="M98.73,-57.55C119.59,-49.76 148.56,-39.12 174.25,-30.38 179.76,-28.5 185.57,-26.58 191.33,-24.72"/>
<polygon fill="#63b8ff" stroke="#63b8ff" points="192.38,-28.05 200.84,-21.67 190.25,-21.39 192.38,-28.05"/>
</a>
</g>
</g>
</g>
</svg>
