<?xml version="1.0" encoding="UTF-8" standalone="no"?>
<!DOCTYPE svg PUBLIC "-//W3C//DTD SVG 1.1//EN"
 "http://www.w3.org/Graphics/SVG/1.1/DTD/svg11.dtd">
<!-- Generated by graphviz version 2.43.0 (0)
 -->
<!-- Title: verify_hf_generation_ids._dtype_from_str Pages: 1 -->
<svg width="280pt" height="56pt"
 viewBox="0.00 0.00 280.00 56.00" xmlns="http://www.w3.org/2000/svg" xmlns:xlink="http://www.w3.org/1999/xlink">
<g id="graph0" class="graph" transform="scale(1 1) rotate(0) translate(4 52)">
<title>verify_hf_generation_ids._dtype_from_str</title>
<!-- Node1 -->
<g id="Node000001" class="node">
<title>Node1</title>
<g id="a_Node000001"><a xlink:title=" ">
<polygon fill="#999999" stroke="#666666" points="272,-30 153,-30 153,0 272,0 272,-30"/>
<text text-anchor="start" x="161" y="-18" font-family="Helvetica,sans-Serif" font-size="10.00">verify_hf_generation</text>
<text text-anchor="middle" x="212.5" y="-7" font-family="Helvetica,sans-Serif" font-size="10.00">_ids._dtype_from_str</text>
</a>
</g>
</g>
<!-- Node2 -->
<g id="Node000002" class="node">
<title>Node2</title>
<g id="a_Node000002"><a xlink:href="namespaceverify__hf__generation__ids.html#a6e8d4317567e37b0e24deebdcf354681" target="_top" xlink:title=" ">
<polygon fill="white" stroke="#666666" points="117,-30 0,-30 0,0 117,0 117,-30"/>
<text text-anchor="start" x="8" y="-18" font-family="Helvetica,sans-Serif" font-size="10.00">verify_hf_generation</text>
<text text-anchor="middle" x="58.5" y="-7" font-family="Helvetica,sans-Serif" font-size="10.00">_ids.main</text>
</a>
</g>
</g>
<!-- Node1&#45;&gt;Node2 -->
<g id="edge1_Node000001_Node000002" class="edge">
<title>Node1&#45;&gt;Node2</title>
<g id="a_edge1_Node000001_Node000002"><a xlink:title=" ">
<path fill="none" stroke="#63b8ff" d="M142.48,-15C133.99,-15 125.4,-15 117.11,-15"/>
<polygon fill="#63b8ff" stroke="#63b8ff" points="142.73,-18.5 152.73,-15 142.73,-11.5 142.73,-18.5"/>
</a>
</g>
</g>
<!-- Node2&#45;&gt;Node2 -->
<g id="edge2_Node000002_Node000002" class="edge">
<title>Node2&#45;&gt;Node2</title>
<g id="a_edge2_Node000002_Node000002"><a xlink:title=" ">
<path fill="none" stroke="#63b8ff" d="M85.46,-40.6C81.77,-44.97 72.79,-48 58.5,-48 34.44,-48 25.41,-39.41 31.43,-30.28"/>
<polygon fill="#63b8ff" stroke="#63b8ff" points="88.96,-40.31 85.57,-30.28 81.96,-40.24 88.96,-40.31"/>
</a>
</g>
</g>
</g>
</svg>
