<?xml version="1.0" encoding="UTF-8" standalone="no"?>
<!DOCTYPE svg PUBLIC "-//W3C//DTD SVG 1.1//EN"
 "http://www.w3.org/Graphics/SVG/1.1/DTD/svg11.dtd">
<!-- Generated by graphviz version 2.43.0 (0)
 -->
<!-- Title: verify_report_tokens.check_hash_fields Pages: 1 -->
<svg width="744pt" height="187pt"
 viewBox="0.00 0.00 744.00 186.71" xmlns="http://www.w3.org/2000/svg" xmlns:xlink="http://www.w3.org/1999/xlink">
<g id="graph0" class="graph" transform="scale(1 1) rotate(0) translate(4 182.71)">
<title>verify_report_tokens.check_hash_fields</title>
<!-- Node1 -->
<g id="Node000001" class="node">
<title>Node1</title>
<g id="a_Node000001"><a xlink:title=" ">
<polygon fill="#999999" stroke="#666666" points="148,-105.5 0,-105.5 0,-75.5 148,-75.5 148,-105.5"/>
<text text-anchor="start" x="8" y="-93.5" font-family="Helvetica,sans-Serif" font-size="10.00">verify_report_tokens.check</text>
<text text-anchor="middle" x="74" y="-82.5" font-family="Helvetica,sans-Serif" font-size="10.00">_hash_fields</text>
</a>
</g>
</g>
<!-- Node2 -->
<g id="Node000002" class="node">
<title>Node2</title>
<g id="a_Node000002"><a xlink:href="namespaceverify__report__tokens.html#af8914c6f7a07b7038e95d3fae3c052c5" target="_top" xlink:title=" ">
<polygon fill="white" stroke="#666666" points="542,-115.5 411,-115.5 411,-85.5 542,-85.5 542,-115.5"/>
<text text-anchor="start" x="419" y="-103.5" font-family="Helvetica,sans-Serif" font-size="10.00">verify_report_tokens.as</text>
<text text-anchor="middle" x="476.5" y="-92.5" font-family="Helvetica,sans-Serif" font-size="10.00">_int_list</text>
</a>
</g>
</g>
<!-- Node1&#45;&gt;Node2 -->
<g id="edge1_Node000001_Node000002" class="edge">
<title>Node1&#45;&gt;Node2</title>
<g id="a_edge1_Node000001_Node000002"><a xlink:title=" ">
<path fill="none" stroke="#63b8ff" d="M91.14,-105.66C111.12,-123.3 147.08,-151.41 184,-162.5 260.19,-185.39 285.95,-182.32 363,-162.5 393.94,-154.54 425.48,-136.07 447.26,-121.35"/>
<polygon fill="#63b8ff" stroke="#63b8ff" points="449.46,-124.09 455.68,-115.52 445.47,-118.33 449.46,-124.09"/>
</a>
</g>
</g>
<!-- Node4 -->
<g id="Node000004" class="node">
<title>Node4</title>
<g id="a_Node000004"><a xlink:href="namespaceverify__report__tokens.html#a0e22c33a4172a688784538c4d56555f1" target="_top" xlink:title=" ">
<polygon fill="white" stroke="#666666" points="343.5,-153.5 203.5,-153.5 203.5,-123.5 343.5,-123.5 343.5,-153.5"/>
<text text-anchor="start" x="211.5" y="-141.5" font-family="Helvetica,sans-Serif" font-size="10.00">verify_report_tokens.best</text>
<text text-anchor="middle" x="273.5" y="-130.5" font-family="Helvetica,sans-Serif" font-size="10.00">_effort_get_meta</text>
</a>
</g>
</g>
<!-- Node1&#45;&gt;Node4 -->
<g id="edge3_Node000001_Node000004" class="edge">
<title>Node1&#45;&gt;Node4</title>
<g id="a_edge3_Node000001_Node000004"><a xlink:title=" ">
<path fill="none" stroke="#63b8ff" d="M136.95,-105.56C157.26,-110.49 180,-116.02 200.96,-121.11"/>
<polygon fill="#63b8ff" stroke="#63b8ff" points="200.23,-124.54 210.77,-123.5 201.88,-117.73 200.23,-124.54"/>
</a>
</g>
</g>
<!-- Node5 -->
<g id="Node000005" class="node">
<title>Node5</title>
<g id="a_Node000005"><a xlink:href="namespaceverify__report__tokens.html#ab1cb62142583a275fe65faf3637faa56" target="_top" xlink:title=" ">
<polygon fill="white" stroke="#666666" points="341,-105.5 206,-105.5 206,-75.5 341,-75.5 341,-105.5"/>
<text text-anchor="start" x="214" y="-93.5" font-family="Helvetica,sans-Serif" font-size="10.00">verify_report_tokens.get</text>
<text text-anchor="middle" x="273.5" y="-82.5" font-family="Helvetica,sans-Serif" font-size="10.00">_generated_ids</text>
</a>
</g>
</g>
<!-- Node1&#45;&gt;Node5 -->
<g id="edge4_Node000001_Node000005" class="edge">
<title>Node1&#45;&gt;Node5</title>
<g id="a_edge4_Node000001_Node000005"><a xlink:title=" ">
<path fill="none" stroke="#63b8ff" d="M148.26,-90.5C163.75,-90.5 180.14,-90.5 195.75,-90.5"/>
<polygon fill="#63b8ff" stroke="#63b8ff" points="195.88,-94 205.88,-90.5 195.88,-87 195.88,-94"/>
</a>
</g>
</g>
<!-- Node6 -->
<g id="Node000006" class="node">
<title>Node6</title>
<g id="a_Node000006"><a xlink:href="namespaceverify__report__tokens.html#a1b04e461296bac8e04ec7387a4fc1bfb" target="_top" xlink:title=" ">
<polygon fill="white" stroke="#666666" points="554,-51.5 399,-51.5 399,-21.5 554,-21.5 554,-51.5"/>
<text text-anchor="start" x="407" y="-39.5" font-family="Helvetica,sans-Serif" font-size="10.00">verify_report_tokens.sha256</text>
<text text-anchor="middle" x="476.5" y="-28.5" font-family="Helvetica,sans-Serif" font-size="10.00">_bytes</text>
</a>
</g>
</g>
<!-- Node1&#45;&gt;Node6 -->
<g id="edge6_Node000001_Node000006" class="edge">
<title>Node1&#45;&gt;Node6</title>
<g id="a_edge6_Node000001_Node000006"><a xlink:title=" ">
<path fill="none" stroke="#63b8ff" d="M137.3,-75.5C152.52,-72.19 168.79,-68.95 184,-66.5 252.35,-55.49 330.4,-47.71 388.53,-42.84"/>
<polygon fill="#63b8ff" stroke="#63b8ff" points="389.1,-46.3 398.77,-41.99 388.52,-39.33 389.1,-46.3"/>
</a>
</g>
</g>
<!-- Node7 -->
<g id="Node000007" class="node">
<title>Node7</title>
<g id="a_Node000007"><a xlink:href="namespaceverify__report__tokens.html#a88fdecd42e4d860dea3c9e7be68c9aad" target="_top" xlink:title=" ">
<polygon fill="white" stroke="#666666" points="363,-19 184,-19 184,0 363,0 363,-19"/>
<text text-anchor="middle" x="273.5" y="-7" font-family="Helvetica,sans-Serif" font-size="10.00">verify_report_tokens.sha256_utf8</text>
</a>
</g>
</g>
<!-- Node1&#45;&gt;Node7 -->
<g id="edge7_Node000001_Node000007" class="edge">
<title>Node1&#45;&gt;Node7</title>
<g id="a_edge7_Node000001_Node000007"><a xlink:title=" ">
<path fill="none" stroke="#63b8ff" d="M100.25,-75.28C121.88,-62.74 154.17,-45.18 184,-33.5 195.46,-29.01 208.08,-25.04 220.1,-21.69"/>
<polygon fill="#63b8ff" stroke="#63b8ff" points="221.28,-25 230.03,-19.02 219.46,-18.24 221.28,-25"/>
</a>
</g>
</g>
<!-- Node3 -->
<g id="Node000003" class="node">
<title>Node3</title>
<g id="a_Node000003"><a xlink:href="namespaceverify__report__tokens.html#af16896818e9fdf8c4b336858d002ea4d" target="_top" xlink:title=" ">
<polygon fill="white" stroke="#666666" points="736,-110 590,-110 590,-91 736,-91 736,-110"/>
<text text-anchor="middle" x="663" y="-98" font-family="Helvetica,sans-Serif" font-size="10.00">verify_report_tokens.is_int</text>
</a>
</g>
</g>
<!-- Node2&#45;&gt;Node3 -->
<g id="edge2_Node000002_Node000003" class="edge">
<title>Node2&#45;&gt;Node3</title>
<g id="a_edge2_Node000002_Node000003"><a xlink:title=" ">
<path fill="none" stroke="#63b8ff" d="M542.03,-100.5C554.25,-100.5 567.18,-100.5 579.85,-100.5"/>
<polygon fill="#63b8ff" stroke="#63b8ff" points="579.95,-104 589.95,-100.5 579.95,-97 579.95,-104"/>
</a>
</g>
</g>
<!-- Node5&#45;&gt;Node2 -->
<g id="edge5_Node000005_Node000002" class="edge">
<title>Node5&#45;&gt;Node2</title>
<g id="a_edge5_Node000005_Node000002"><a xlink:title=" ">
<path fill="none" stroke="#63b8ff" d="M341.15,-93.82C360.22,-94.76 381.14,-95.81 400.67,-96.78"/>
<polygon fill="#63b8ff" stroke="#63b8ff" points="400.58,-100.28 410.74,-97.28 400.92,-93.29 400.58,-100.28"/>
</a>
</g>
</g>
<!-- Node7&#45;&gt;Node6 -->
<g id="edge8_Node000007_Node000006" class="edge">
<title>Node7&#45;&gt;Node6</title>
<g id="a_edge8_Node000007_Node000006"><a xlink:title=" ">
<path fill="none" stroke="#63b8ff" d="M345.37,-19.02C359.42,-20.91 374.31,-22.91 388.82,-24.86"/>
<polygon fill="#63b8ff" stroke="#63b8ff" points="388.41,-28.33 398.79,-26.2 389.34,-21.4 388.41,-28.33"/>
</a>
</g>
</g>
</g>
</svg>
