<?xml version="1.0" encoding="UTF-8" standalone="no"?>
<!DOCTYPE svg PUBLIC "-//W3C//DTD SVG 1.1//EN"
 "http://www.w3.org/Graphics/SVG/1.1/DTD/svg11.dtd">
<!-- Generated by graphviz version 2.43.0 (0)
 -->
<!-- Title: make_tokpack.die Pages: 1 -->
<svg width="629pt" height="177pt"
 viewBox="0.00 0.00 629.00 176.98" xmlns="http://www.w3.org/2000/svg" xmlns:xlink="http://www.w3.org/1999/xlink">
<g id="graph0" class="graph" transform="scale(1 1) rotate(0) translate(4 172.98)">
<title>make_tokpack.die</title>
<!-- Node1 -->
<g id="Node000001" class="node">
<title>Node1</title>
<g id="a_Node000001"><a xlink:title=" ">
<polygon fill="#999999" stroke="#666666" points="621,-93 515,-93 515,-74 621,-74 621,-93"/>
<text text-anchor="middle" x="568" y="-81" font-family="Helvetica,sans-Serif" font-size="10.00">make_tokpack.die</text>
</a>
</g>
</g>
<!-- Node2 -->
<g id="Node000002" class="node">
<title>Node2</title>
<g id="a_Node000002"><a xlink:href="namespacemake__tokpack.html#aafa27873b3cdb68739c5acfd38a7185f" target="_top" xlink:title=" ">
<polygon fill="white" stroke="#666666" points="267,-98.5 152,-98.5 152,-68.5 267,-68.5 267,-98.5"/>
<text text-anchor="start" x="160" y="-86.5" font-family="Helvetica,sans-Serif" font-size="10.00">make_tokpack.build</text>
<text text-anchor="middle" x="209.5" y="-75.5" font-family="Helvetica,sans-Serif" font-size="10.00">_tokpack</text>
</a>
</g>
</g>
<!-- Node1&#45;&gt;Node2 -->
<g id="edge1_Node000001_Node000002" class="edge">
<title>Node1&#45;&gt;Node2</title>
<g id="a_edge1_Node000001_Node000002"><a xlink:title=" ">
<path fill="none" stroke="#63b8ff" d="M551.39,-100.6C535.16,-117.01 508.08,-140.69 479,-150.5 404.88,-175.5 377.41,-174.62 303,-150.5 271.69,-140.35 242.09,-115.19 225.15,-98.76"/>
<polygon fill="#63b8ff" stroke="#63b8ff" points="554.06,-102.87 558.45,-93.23 549.01,-98.03 554.06,-102.87"/>
</a>
</g>
</g>
<!-- Node4 -->
<g id="Node000004" class="node">
<title>Node4</title>
<g id="a_Node000004"><a xlink:href="namespacemake__tokpack.html#a1e99d581d7d4bc71f68f26d4262cb924" target="_top" xlink:title=" ">
<polygon fill="white" stroke="#666666" points="453.5,-141.5 328.5,-141.5 328.5,-111.5 453.5,-111.5 453.5,-141.5"/>
<text text-anchor="start" x="336.5" y="-129.5" font-family="Helvetica,sans-Serif" font-size="10.00">make_tokpack.extract</text>
<text text-anchor="middle" x="391" y="-118.5" font-family="Helvetica,sans-Serif" font-size="10.00">_from_encoding</text>
</a>
</g>
</g>
<!-- Node1&#45;&gt;Node4 -->
<g id="edge4_Node000001_Node000004" class="edge">
<title>Node1&#45;&gt;Node4</title>
<g id="a_edge4_Node000001_Node000004"><a xlink:title=" ">
<path fill="none" stroke="#63b8ff" d="M518.25,-95.48C498.05,-100.44 474.41,-106.25 453.07,-111.49"/>
<polygon fill="#63b8ff" stroke="#63b8ff" points="519.29,-98.83 528.16,-93.04 517.62,-92.03 519.29,-98.83"/>
</a>
</g>
</g>
<!-- Node5 -->
<g id="Node000005" class="node">
<title>Node5</title>
<g id="a_Node000005"><a xlink:href="namespacemake__tokpack.html#a5359b669c33d28df235f9830cfe17c6f" target="_top" xlink:title=" ">
<polygon fill="white" stroke="#666666" points="479,-93 303,-93 303,-74 479,-74 479,-93"/>
<text text-anchor="middle" x="391" y="-81" font-family="Helvetica,sans-Serif" font-size="10.00">make_tokpack.get_encoding_obj</text>
</a>
</g>
</g>
<!-- Node1&#45;&gt;Node5 -->
<g id="edge6_Node000001_Node000005" class="edge">
<title>Node1&#45;&gt;Node5</title>
<g id="a_edge6_Node000001_Node000005"><a xlink:title=" ">
<path fill="none" stroke="#63b8ff" d="M504.69,-83.5C496.42,-83.5 487.82,-83.5 479.23,-83.5"/>
<polygon fill="#63b8ff" stroke="#63b8ff" points="504.97,-87 514.97,-83.5 504.97,-80 504.97,-87"/>
</a>
</g>
</g>
<!-- Node6 -->
<g id="Node000006" class="node">
<title>Node6</title>
<g id="a_Node000006"><a xlink:href="namespacemake__tokpack.html#a691c3885c7a65d102fecdaba707a6433" target="_top" xlink:title=" ">
<polygon fill="white" stroke="#666666" points="460.5,-56 321.5,-56 321.5,-37 460.5,-37 460.5,-56"/>
<text text-anchor="middle" x="391" y="-44" font-family="Helvetica,sans-Serif" font-size="10.00">make_tokpack.write_u16</text>
</a>
</g>
</g>
<!-- Node1&#45;&gt;Node6 -->
<g id="edge8_Node000001_Node000006" class="edge">
<title>Node1&#45;&gt;Node6</title>
<g id="a_edge8_Node000001_Node000006"><a xlink:title=" ">
<path fill="none" stroke="#63b8ff" d="M511.89,-71.85C487.85,-66.77 460.01,-60.88 437.22,-56.06"/>
<polygon fill="#63b8ff" stroke="#63b8ff" points="511.43,-75.33 521.93,-73.97 512.87,-68.48 511.43,-75.33"/>
</a>
</g>
</g>
<!-- Node7 -->
<g id="Node000007" class="node">
<title>Node7</title>
<g id="a_Node000007"><a xlink:href="namespacemake__tokpack.html#a9c27b66c395831eb76202c6a55b98a8c" target="_top" xlink:title=" ">
<polygon fill="white" stroke="#666666" points="460.5,-19 321.5,-19 321.5,0 460.5,0 460.5,-19"/>
<text text-anchor="middle" x="391" y="-7" font-family="Helvetica,sans-Serif" font-size="10.00">make_tokpack.write_u32</text>
</a>
</g>
</g>
<!-- Node1&#45;&gt;Node7 -->
<g id="edge10_Node000001_Node000007" class="edge">
<title>Node1&#45;&gt;Node7</title>
<g id="a_edge10_Node000001_Node000007"><a xlink:title=" ">
<path fill="none" stroke="#63b8ff" d="M546.47,-67.81C529.31,-55.41 503.72,-38.57 479,-28.5 469.55,-24.65 459.19,-21.52 449.02,-19"/>
<polygon fill="#63b8ff" stroke="#63b8ff" points="544.51,-70.71 554.63,-73.83 548.66,-65.07 544.51,-70.71"/>
</a>
</g>
</g>
<!-- Node3 -->
<g id="Node000003" class="node">
<title>Node3</title>
<g id="a_Node000003"><a xlink:href="namespacemake__tokpack.html#add06282b198a7c187241b5289af5f5f6" target="_top" xlink:title=" ">
<polygon fill="white" stroke="#666666" points="116,-93 0,-93 0,-74 116,-74 116,-93"/>
<text text-anchor="middle" x="58" y="-81" font-family="Helvetica,sans-Serif" font-size="10.00">make_tokpack.main</text>
</a>
</g>
</g>
<!-- Node2&#45;&gt;Node3 -->
<g id="edge2_Node000002_Node000003" class="edge">
<title>Node2&#45;&gt;Node3</title>
<g id="a_edge2_Node000002_Node000003"><a xlink:title=" ">
<path fill="none" stroke="#63b8ff" d="M141.95,-83.5C133.32,-83.5 124.55,-83.5 116.1,-83.5"/>
<polygon fill="#63b8ff" stroke="#63b8ff" points="141.98,-87 151.98,-83.5 141.98,-80 141.98,-87"/>
</a>
</g>
</g>
<!-- Node3&#45;&gt;Node3 -->
<g id="edge3_Node000003_Node000003" class="edge">
<title>Node3&#45;&gt;Node3</title>
<g id="a_edge3_Node000003_Node000003"><a xlink:title=" ">
<path fill="none" stroke="#63b8ff" d="M86,-101.82C84.83,-107.01 75.5,-111 58,-111 31.34,-111 23.63,-101.73 34.88,-93.08"/>
<polygon fill="#63b8ff" stroke="#63b8ff" points="89.05,-100.11 81.12,-93.08 82.94,-103.52 89.05,-100.11"/>
</a>
</g>
</g>
<!-- Node4&#45;&gt;Node2 -->
<g id="edge5_Node000004_Node000002" class="edge">
<title>Node4&#45;&gt;Node2</title>
<g id="a_edge5_Node000004_Node000002"><a xlink:title=" ">
<path fill="none" stroke="#63b8ff" d="M318.54,-109.38C301.45,-105.29 283.43,-100.97 267.12,-97.06"/>
<polygon fill="#63b8ff" stroke="#63b8ff" points="317.94,-112.84 328.48,-111.76 319.57,-106.03 317.94,-112.84"/>
</a>
</g>
</g>
<!-- Node5&#45;&gt;Node2 -->
<g id="edge7_Node000005_Node000002" class="edge">
<title>Node5&#45;&gt;Node2</title>
<g id="a_edge7_Node000005_Node000002"><a xlink:title=" ">
<path fill="none" stroke="#63b8ff" d="M292.63,-83.5C283.93,-83.5 275.32,-83.5 267.13,-83.5"/>
<polygon fill="#63b8ff" stroke="#63b8ff" points="292.88,-87 302.88,-83.5 292.88,-80 292.88,-87"/>
</a>
</g>
</g>
<!-- Node6&#45;&gt;Node2 -->
<g id="edge9_Node000006_Node000002" class="edge">
<title>Node6&#45;&gt;Node2</title>
<g id="a_edge9_Node000006_Node000002"><a xlink:title=" ">
<path fill="none" stroke="#63b8ff" d="M333.92,-58.06C312.66,-62.44 288.46,-67.43 267.15,-71.82"/>
<polygon fill="#63b8ff" stroke="#63b8ff" points="334.69,-61.48 343.77,-56.03 333.27,-54.62 334.69,-61.48"/>
</a>
</g>
</g>
<!-- Node7&#45;&gt;Node2 -->
<g id="edge11_Node000007_Node000002" class="edge">
<title>Node7&#45;&gt;Node2</title>
<g id="a_edge11_Node000007_Node000002"><a xlink:title=" ">
<path fill="none" stroke="#63b8ff" d="M323.8,-21.6C316.68,-23.6 309.62,-25.89 303,-28.5 276.93,-38.78 249.65,-55.9 231.53,-68.31"/>
<polygon fill="#63b8ff" stroke="#63b8ff" points="324.73,-24.98 333.51,-19.06 322.95,-18.21 324.73,-24.98"/>
</a>
</g>
</g>
</g>
</svg>
