<?xml version="1.0" encoding="UTF-8" standalone="no"?>
<!DOCTYPE svg PUBLIC "-//W3C//DTD SVG 1.1//EN"
 "http://www.w3.org/Graphics/SVG/1.1/DTD/svg11.dtd">
<!-- Generated by graphviz version 12.2.1 (20241206.2353)
 -->
<!-- Title: engine/src/opt/numa_probe.c Pages: 1 -->
<svg width="213pt" height="98pt"
 viewBox="0.00 0.00 212.50 98.25" xmlns="http://www.w3.org/2000/svg" xmlns:xlink="http://www.w3.org/1999/xlink">
<g id="graph0" class="graph" transform="scale(1 1) rotate(0) translate(4 94.25)">
<title>engine/src/opt/numa_probe.c</title>
<!-- Node1 -->
<g id="Node000001" class="node">
<title>Node1</title>
<g id="a_Node000001"><a xlink:title="Detect NUMA nodes via sysfs without linking libnuma.">
<polygon fill="#999999" stroke="#666666" points="167.38,-90.25 51.62,-90.25 51.62,-56.75 167.38,-56.75 167.38,-90.25"/>
<text text-anchor="start" x="59.62" y="-76.75" font-family="Helvetica,sans-Serif" font-size="10.00">engine/src/opt/numa</text>
<text text-anchor="middle" x="109.5" y="-64" font-family="Helvetica,sans-Serif" font-size="10.00">_probe.c</text>
</a>
</g>
</g>
<!-- Node2 -->
<g id="Node000002" class="node">
<title>Node2</title>
<g id="a_Node000002"><a xlink:href="ie__numa_8h.html" target="_top" xlink:title="Lightweight NUMA probing via sysfs (Linux only), no external deps.">
<polygon fill="white" stroke="#666666" points="67,-20.75 0,-20.75 0,0 67,0 67,-20.75"/>
<text text-anchor="middle" x="33.5" y="-7.25" font-family="Helvetica,sans-Serif" font-size="10.00">ie_numa.h</text>
</a>
</g>
</g>
<!-- Node1&#45;&gt;Node2 -->
<g id="edge1_Node000001_Node000002" class="edge">
<title>Node1&#45;&gt;Node2</title>
<g id="a_edge1_Node000001_Node000002"><a xlink:title=" ">
<path fill="none" stroke="#63b8ff" d="M89.53,-56.44C78.78,-47.8 65.53,-37.13 54.61,-28.35"/>
<polygon fill="#63b8ff" stroke="#63b8ff" points="56.9,-25.71 46.92,-22.17 52.52,-31.16 56.9,-25.71"/>
</a>
</g>
</g>
<!-- Node3 -->
<g id="Node000003" class="node">
<title>Node3</title>
<g id="a_Node000003"><a xlink:title=" ">
<polygon fill="#e0e0e0" stroke="#999999" points="134,-20.75 85,-20.75 85,0 134,0 134,-20.75"/>
<text text-anchor="middle" x="109.5" y="-7.25" font-family="Helvetica,sans-Serif" font-size="10.00">stdio.h</text>
</a>
</g>
</g>
<!-- Node1&#45;&gt;Node3 -->
<g id="edge2_Node000001_Node000003" class="edge">
<title>Node1&#45;&gt;Node3</title>
<g id="a_edge2_Node000001_Node000003"><a xlink:title=" ">
<path fill="none" stroke="#63b8ff" d="M109.5,-56.44C109.5,-49.1 109.5,-40.32 109.5,-32.46"/>
<polygon fill="#63b8ff" stroke="#63b8ff" points="113,-32.73 109.5,-22.73 106,-32.73 113,-32.73"/>
</a>
</g>
</g>
<!-- Node4 -->
<g id="Node000004" class="node">
<title>Node4</title>
<g id="a_Node000004"><a xlink:title=" ">
<polygon fill="#e0e0e0" stroke="#999999" points="204.5,-20.75 152.5,-20.75 152.5,0 204.5,0 204.5,-20.75"/>
<text text-anchor="middle" x="178.5" y="-7.25" font-family="Helvetica,sans-Serif" font-size="10.00">stdlib.h</text>
</a>
</g>
</g>
<!-- Node1&#45;&gt;Node4 -->
<g id="edge3_Node000001_Node000004" class="edge">
<title>Node1&#45;&gt;Node4</title>
<g id="a_edge3_Node000001_Node000004"><a xlink:title=" ">
<path fill="none" stroke="#63b8ff" d="M127.63,-56.44C137.29,-47.88 149.18,-37.35 159.03,-28.62"/>
<polygon fill="#63b8ff" stroke="#63b8ff" points="161.09,-31.47 166.26,-22.22 156.45,-26.23 161.09,-31.47"/>
</a>
</g>
</g>
</g>
</svg>
