<?xml version="1.0" encoding="UTF-8" standalone="no"?>
<!DOCTYPE svg PUBLIC "-//W3C//DTD SVG 1.1//EN"
 "http://www.w3.org/Graphics/SVG/1.1/DTD/svg11.dtd">
<!-- Generated by graphviz version 2.43.0 (0)
 -->
<!-- Title: sampling_trace_limit Pages: 1 -->
<svg width="808pt" height="82pt"
 viewBox="0.00 0.00 808.00 82.00" xmlns="http://www.w3.org/2000/svg" xmlns:xlink="http://www.w3.org/1999/xlink">
<g id="graph0" class="graph" transform="scale(1 1) rotate(0) translate(4 78)">
<title>sampling_trace_limit</title>
<!-- Node1 -->
<g id="Node000001" class="node">
<title>Node1</title>
<g id="a_Node000001"><a xlink:title="Return the trace call limit set by IE_TRACE_SAMPLING_N.">
<polygon fill="#999999" stroke="#666666" points="800,-37 681,-37 681,-18 800,-18 800,-37"/>
<text text-anchor="middle" x="740.5" y="-25" font-family="Helvetica,sans-Serif" font-size="10.00">sampling_trace_limit</text>
</a>
</g>
</g>
<!-- Node2 -->
<g id="Node000002" class="node">
<title>Node2</title>
<g id="a_Node000002"><a xlink:href="sampling_8c.html#a3168b2367b9d5e3aaea486b13c7e77a4" target="_top" xlink:title="Decide whether the current call should emit trace output.">
<polygon fill="white" stroke="#666666" points="645,-37 522,-37 522,-18 645,-18 645,-37"/>
<text text-anchor="middle" x="583.5" y="-25" font-family="Helvetica,sans-Serif" font-size="10.00">sampling_trace_allow</text>
</a>
</g>
</g>
<!-- Node1&#45;&gt;Node2 -->
<g id="edge1_Node000001_Node000002" class="edge">
<title>Node1&#45;&gt;Node2</title>
<g id="a_edge1_Node000001_Node000002"><a xlink:title=" ">
<path fill="none" stroke="#63b8ff" d="M670.67,-27.5C662.2,-27.5 653.58,-27.5 645.25,-27.5"/>
<polygon fill="#63b8ff" stroke="#63b8ff" points="670.9,-31 680.9,-27.5 670.9,-24 670.9,-31"/>
</a>
</g>
</g>
<!-- Node3 -->
<g id="Node000003" class="node">
<title>Node3</title>
<g id="a_Node000003"><a xlink:href="sampling_8c.html#a9287af318bfd9b7a269293f9fb3705f4" target="_top" xlink:title="Choose next token id from logits using the given configuration.">
<polygon fill="white" stroke="#666666" points="486,-37 392,-37 392,-18 486,-18 486,-37"/>
<text text-anchor="middle" x="439" y="-25" font-family="Helvetica,sans-Serif" font-size="10.00">ie_sample_next</text>
</a>
</g>
</g>
<!-- Node2&#45;&gt;Node3 -->
<g id="edge2_Node000002_Node000003" class="edge">
<title>Node2&#45;&gt;Node3</title>
<g id="a_edge2_Node000002_Node000003"><a xlink:title=" ">
<path fill="none" stroke="#63b8ff" d="M511.63,-27.5C503.07,-27.5 494.5,-27.5 486.42,-27.5"/>
<polygon fill="#63b8ff" stroke="#63b8ff" points="511.65,-31 521.65,-27.5 511.65,-24 511.65,-31"/>
</a>
</g>
</g>
<!-- Node4 -->
<g id="Node000004" class="node">
<title>Node4</title>
<g id="a_Node000004"><a xlink:href="ie__api_8c.html#a950ac9a0efe5a4fe068a288e57099c4a" target="_top" xlink:title="Generate tokens and optionally return timing statistics.">
<polygon fill="white" stroke="#666666" points="356,-56 226,-56 226,-37 356,-37 356,-56"/>
<text text-anchor="middle" x="291" y="-44" font-family="Helvetica,sans-Serif" font-size="10.00">ie_engine_generate_ex</text>
</a>
</g>
</g>
<!-- Node3&#45;&gt;Node4 -->
<g id="edge3_Node000003_Node000004" class="edge">
<title>Node3&#45;&gt;Node4</title>
<g id="a_edge3_Node000003_Node000004"><a xlink:title=" ">
<path fill="none" stroke="#63b8ff" d="M381.73,-34.82C373.32,-35.92 364.6,-37.05 356.04,-38.17"/>
<polygon fill="#63b8ff" stroke="#63b8ff" points="382.34,-38.27 391.8,-33.51 381.44,-31.33 382.34,-38.27"/>
</a>
</g>
</g>
<!-- Node8 -->
<g id="Node000008" class="node">
<title>Node8</title>
<g id="a_Node000008"><a xlink:href="generate__gptoss_8c.html#a69606d6441b5c86670cfcc955721a308" target="_top" xlink:title="Generate up to max_new tokens for a prompt string using GPT&#45;OSS.">
<polygon fill="white" stroke="#666666" points="347,-19 235,-19 235,0 347,0 347,-19"/>
<text text-anchor="middle" x="291" y="-7" font-family="Helvetica,sans-Serif" font-size="10.00">ie_generate_gptoss</text>
</a>
</g>
</g>
<!-- Node3&#45;&gt;Node8 -->
<g id="edge8_Node000003_Node000008" class="edge">
<title>Node3&#45;&gt;Node8</title>
<g id="a_edge8_Node000003_Node000008"><a xlink:title=" ">
<path fill="none" stroke="#63b8ff" d="M381.59,-20.55C370.27,-19.15 358.37,-17.68 347.09,-16.29"/>
<polygon fill="#63b8ff" stroke="#63b8ff" points="381.45,-24.05 391.8,-21.8 382.31,-17.11 381.45,-24.05"/>
</a>
</g>
</g>
<!-- Node5 -->
<g id="Node000005" class="node">
<title>Node5</title>
<g id="a_Node000005"><a xlink:href="ie__api_8c.html#ad32cf2cd209832e4cd577a5a1e31970f" target="_top" xlink:title="Generate up to max_new tokens for the given prompt.">
<polygon fill="white" stroke="#666666" points="190,-37 77,-37 77,-18 190,-18 190,-37"/>
<text text-anchor="middle" x="133.5" y="-25" font-family="Helvetica,sans-Serif" font-size="10.00">ie_engine_generate</text>
</a>
</g>
</g>
<!-- Node4&#45;&gt;Node5 -->
<g id="edge4_Node000004_Node000005" class="edge">
<title>Node4&#45;&gt;Node5</title>
<g id="a_edge4_Node000004_Node000005"><a xlink:title=" ">
<path fill="none" stroke="#63b8ff" d="M215.75,-37.43C207.1,-36.37 198.4,-35.31 190.06,-34.29"/>
<polygon fill="#63b8ff" stroke="#63b8ff" points="215.5,-40.92 225.85,-38.66 216.35,-33.98 215.5,-40.92"/>
</a>
</g>
</g>
<!-- Node6 -->
<g id="Node000006" class="node">
<title>Node6</title>
<g id="a_Node000006"><a xlink:href="main__infer_8c.html#a3c04138a5bfe5d72780bb7e82a18e627" target="_top" xlink:title="main.">
<polygon fill="white" stroke="#666666" points="41,-74 0,-74 0,-55 41,-55 41,-74"/>
<text text-anchor="middle" x="20.5" y="-62" font-family="Helvetica,sans-Serif" font-size="10.00">main</text>
</a>
</g>
</g>
<!-- Node4&#45;&gt;Node6 -->
<g id="edge7_Node000004_Node000006" class="edge">
<title>Node4&#45;&gt;Node6</title>
<g id="a_edge7_Node000004_Node000006"><a xlink:title=" ">
<path fill="none" stroke="#63b8ff" d="M215.59,-51.49C156.2,-55.47 77.18,-60.77 41.04,-63.19"/>
<polygon fill="#63b8ff" stroke="#63b8ff" points="215.94,-54.97 225.69,-50.81 215.48,-47.99 215.94,-54.97"/>
</a>
</g>
</g>
<!-- Node5&#45;&gt;Node6 -->
<g id="edge5_Node000005_Node000006" class="edge">
<title>Node5&#45;&gt;Node6</title>
<g id="a_edge5_Node000005_Node000006"><a xlink:title=" ">
<path fill="none" stroke="#63b8ff" d="M94.32,-40.23C76.46,-46.18 55.94,-53.02 41.24,-57.92"/>
<polygon fill="#63b8ff" stroke="#63b8ff" points="95.53,-43.51 103.91,-37.03 93.32,-36.87 95.53,-43.51"/>
</a>
</g>
</g>
<!-- Node7 -->
<g id="Node000007" class="node">
<title>Node7</title>
<g id="a_Node000007"><a xlink:href="test__api_8c.html#a840291bc02cba5474a4cb46a9b9566fe" target="_top" xlink:title=" ">
<polygon fill="white" stroke="#666666" points="41,-37 0,-37 0,-18 41,-18 41,-37"/>
<text text-anchor="middle" x="20.5" y="-25" font-family="Helvetica,sans-Serif" font-size="10.00">main</text>
</a>
</g>
</g>
<!-- Node5&#45;&gt;Node7 -->
<g id="edge6_Node000005_Node000007" class="edge">
<title>Node5&#45;&gt;Node7</title>
<g id="a_edge6_Node000005_Node000007"><a xlink:title=" ">
<path fill="none" stroke="#63b8ff" d="M66.58,-27.5C57.37,-27.5 48.56,-27.5 41.21,-27.5"/>
<polygon fill="#63b8ff" stroke="#63b8ff" points="66.67,-31 76.67,-27.5 66.67,-24 66.67,-31"/>
</a>
</g>
</g>
</g>
</svg>
