<?xml version="1.0" encoding="UTF-8" standalone="no"?>
<!DOCTYPE svg PUBLIC "-//W3C//DTD SVG 1.1//EN"
 "http://www.w3.org/Graphics/SVG/1.1/DTD/svg11.dtd">
<!-- Generated by graphviz version 2.43.0 (0)
 -->
<!-- Title: ie_sparse_status_str Pages: 1 -->
<svg width="368pt" height="39pt"
 viewBox="0.00 0.00 368.00 39.00" xmlns="http://www.w3.org/2000/svg" xmlns:xlink="http://www.w3.org/1999/xlink">
<g id="graph0" class="graph" transform="scale(1 1) rotate(0) translate(4 35)">
<title>ie_sparse_status_str</title>
<!-- Node1 -->
<g id="node1" class="node">
<title>Node1</title>
<g id="a_node1"><a xlink:title="Human&#45;readable description of an ie_sparse_status_t code.">
<polygon fill="#bfbfbf" stroke="black" points="244,-6 244,-25 360,-25 360,-6 244,-6"/>
<text text-anchor="middle" x="302" y="-13" font-family="Helvetica,sans-Serif" font-size="10.00">ie_sparse_status_str</text>
</a>
</g>
</g>
<!-- Node2 -->
<g id="node2" class="node">
<title>Node2</title>
<g id="a_node2"><a xlink:href="test__block__sparse_8c.html#ae88fc354754c7811d37da2e7e1d084fd" target="_top" xlink:title="Test that loader fails with a missing file.">
<polygon fill="none" stroke="black" points="77,-0.5 77,-30.5 208,-30.5 208,-0.5 77,-0.5"/>
<text text-anchor="start" x="85" y="-18.5" font-family="Helvetica,sans-Serif" font-size="10.00">test_block_sparse_load</text>
<text text-anchor="middle" x="142.5" y="-7.5" font-family="Helvetica,sans-Serif" font-size="10.00">_missing</text>
</a>
</g>
</g>
<!-- Node1&#45;&gt;Node2 -->
<g id="edge1" class="edge">
<title>Node1&#45;&gt;Node2</title>
<path fill="none" stroke="midnightblue" d="M233.56,-15.5C225.16,-15.5 216.59,-15.5 208.23,-15.5"/>
<polygon fill="midnightblue" stroke="midnightblue" points="233.69,-19 243.69,-15.5 233.69,-12 233.69,-19"/>
</g>
<!-- Node3 -->
<g id="node3" class="node">
<title>Node3</title>
<g id="a_node3"><a xlink:href="test__block__sparse_8c.html#a840291bc02cba5474a4cb46a9b9566fe" target="_top" xlink:title="Entry point: run all block&#45;sparse tests.">
<polygon fill="none" stroke="black" points="0,-6 0,-25 41,-25 41,-6 0,-6"/>
<text text-anchor="middle" x="20.5" y="-13" font-family="Helvetica,sans-Serif" font-size="10.00">main</text>
</a>
</g>
</g>
<!-- Node2&#45;&gt;Node3 -->
<g id="edge2" class="edge">
<title>Node2&#45;&gt;Node3</title>
<path fill="none" stroke="midnightblue" d="M66.91,-15.5C57.43,-15.5 48.46,-15.5 41.05,-15.5"/>
<polygon fill="midnightblue" stroke="midnightblue" points="66.93,-19 76.93,-15.5 66.93,-12 66.93,-19"/>
</g>
</g>
</svg>
