<?xml version="1.0" encoding="UTF-8" standalone="no"?>
<!DOCTYPE svg PUBLIC "-//W3C//DTD SVG 1.1//EN"
 "http://www.w3.org/Graphics/SVG/1.1/DTD/svg11.dtd">
<!-- Generated by graphviz version 2.43.0 (0)
 -->
<!-- Title: engine/include/spec.h Pages: 1 -->
<svg width="282pt" height="82pt"
 viewBox="0.00 0.00 282.00 82.00" xmlns="http://www.w3.org/2000/svg" xmlns:xlink="http://www.w3.org/1999/xlink">
<g id="graph0" class="graph" transform="scale(1 1) rotate(0) translate(4 78)">
<title>engine/include/spec.h</title>
<!-- Node1 -->
<g id="Node000001" class="node">
<title>Node1</title>
<g id="a_Node000001"><a xlink:title="Lossless deduplication specification (binary) for INT4 weight blobs.">
<polygon fill="#999999" stroke="#666666" points="201,-74 79,-74 79,-55 201,-55 201,-74"/>
<text text-anchor="middle" x="140" y="-62" font-family="Helvetica,sans-Serif" font-size="10.00">engine/include/spec.h</text>
</a>
</g>
</g>
<!-- Node2 -->
<g id="Node000002" class="node">
<title>Node2</title>
<g id="a_Node000002"><a xlink:href="spec_8c.html" target="_top" xlink:title="Implementation of the dedup spec builder and helpers.">
<polygon fill="white" stroke="#666666" points="134,-19 0,-19 0,0 134,0 134,-19"/>
<text text-anchor="middle" x="67" y="-7" font-family="Helvetica,sans-Serif" font-size="10.00">engine/src/dedup/spec.c</text>
</a>
</g>
</g>
<!-- Node1&#45;&gt;Node2 -->
<g id="edge1_Node000001_Node000002" class="edge">
<title>Node1&#45;&gt;Node2</title>
<g id="a_edge1_Node000001_Node000002"><a xlink:title=" ">
<path fill="none" stroke="#63b8ff" d="M119.86,-48.88C106.72,-39.34 90.02,-27.21 78.94,-19.17"/>
<polygon fill="#63b8ff" stroke="#63b8ff" points="118.12,-51.94 128.27,-54.98 122.24,-46.28 118.12,-51.94"/>
</a>
</g>
</g>
<!-- Node3 -->
<g id="Node000003" class="node">
<title>Node3</title>
<g id="a_Node000003"><a xlink:href="dedup__extract_8c.html" target="_top" xlink:title="Step 1 extractor: choose defaults + build exception masks (lossless).">
<polygon fill="white" stroke="#666666" points="274,-19 152,-19 152,0 274,0 274,-19"/>
<text text-anchor="middle" x="213" y="-7" font-family="Helvetica,sans-Serif" font-size="10.00">tools/dedup_extract.c</text>
</a>
</g>
</g>
<!-- Node1&#45;&gt;Node3 -->
<g id="edge2_Node000001_Node000003" class="edge">
<title>Node1&#45;&gt;Node3</title>
<g id="a_edge2_Node000001_Node000003"><a xlink:title=" ">
<path fill="none" stroke="#63b8ff" d="M160.14,-48.88C173.28,-39.34 189.98,-27.21 201.06,-19.17"/>
<polygon fill="#63b8ff" stroke="#63b8ff" points="157.76,-46.28 151.73,-54.98 161.88,-51.94 157.76,-46.28"/>
</a>
</g>
</g>
</g>
</svg>
