<?xml version="1.0" encoding="UTF-8" standalone="no"?>
<!DOCTYPE svg PUBLIC "-//W3C//DTD SVG 1.1//EN"
 "http://www.w3.org/Graphics/SVG/1.1/DTD/svg11.dtd">
<!-- Generated by graphviz version 2.43.0 (0)
 -->
<!-- Title: ie_dedup_cache_s Pages: 1 -->
<!--zoomable 226 -->
<svg id="main" version="1.1" xmlns="http://www.w3.org/2000/svg" xmlns:xlink="http://www.w3.org/1999/xlink" xml:space="preserve" onload="init(evt)">
<style type="text/css"><![CDATA[
.edge:hover path { stroke: red; }
.edge:hover polygon { stroke: red; fill: red; }
]]></style>
<script type="text/javascript"><![CDATA[
var edges = document.getElementsByTagName('g');
if (edges && edges.length) {
  for (var i=0;i<edges.length;i++) {
    if (edges[i].id.substr(0,4)=='edge') {
      edges[i].setAttribute('class','edge');
    }
  }
}
]]></script>
        <defs>
                <circle id="rim" cx="0" cy="0" r="7"/>
                <circle id="rim2" cx="0" cy="0" r="3.5"/>
                <g id="zoomPlus">
                        <use xlink:href="#rim" fill="#404040">
                                <set attributeName="fill" to="#808080" begin="zoomplus.mouseover" end="zoomplus.mouseout"/>
                        </use>
                        <path d="M-4,0h8M0,-4v8" fill="none" stroke="white" stroke-width="1.5" pointer-events="none"/>
                </g>
                <g id="zoomMin">
                        <use xlink:href="#rim" fill="#404040">
                                <set attributeName="fill" to="#808080" begin="zoomminus.mouseover" end="zoomminus.mouseout"/>
                        </use>
                        <path d="M-4,0h8" fill="none" stroke="white" stroke-width="1.5" pointer-events="none"/>
                </g>
                <g id="dirArrow">
                        <path fill="none" stroke="white" stroke-width="1.5" d="M0,-3.0v7 M-2.5,-0.5L0,-3.0L2.5,-0.5"/>
                </g>
               <g id="resetDef">
                       <use xlink:href="#rim2" fill="#404040">
                               <set attributeName="fill" to="#808080" begin="reset.mouseover" end="reset.mouseout"/>
                       </use>
               </g>
        </defs>

<script type="text/javascript">
var viewWidth = 565;
var viewHeight = 226;
var sectionId = 'dynsection-0';
</script>
<script xlink:href="svgpan.js"/>
<svg id="graph" class="graph">
<g id="viewport">
<title>ie_dedup_cache_s</title>
<!-- Node1 -->
<g id="node1" class="node">
<title>Node1</title>
<g id="a_node1"><a xlink:title=" ">
<polygon fill="#bfbfbf" stroke="black" points="222.5,-0.5 222.5,-112.5 387.5,-112.5 387.5,-0.5 222.5,-0.5"/>
<text text-anchor="middle" x="305" y="-100.5" font-family="Helvetica,sans-Serif" font-size="10.00">ie_dedup_cache_s</text>
<polyline fill="none" stroke="black" points="222.5,-93.5 387.5,-93.5 "/>
<text text-anchor="start" x="230.5" y="-81.5" font-family="Helvetica,sans-Serif" font-size="10.00">+ target_by_index_len</text>
<text text-anchor="start" x="230.5" y="-70.5" font-family="Helvetica,sans-Serif" font-size="10.00">+ group_by_default_index_len</text>
<text text-anchor="start" x="230.5" y="-59.5" font-family="Helvetica,sans-Serif" font-size="10.00">+ entry_cap</text>
<text text-anchor="start" x="230.5" y="-48.5" font-family="Helvetica,sans-Serif" font-size="10.00">+ stamp_now</text>
<text text-anchor="start" x="230.5" y="-37.5" font-family="Helvetica,sans-Serif" font-size="10.00">+ bytes_cached</text>
<text text-anchor="start" x="230.5" y="-26.5" font-family="Helvetica,sans-Serif" font-size="10.00">+ bytes_limit</text>
<polyline fill="none" stroke="black" points="222.5,-19.5 387.5,-19.5 "/>
<text text-anchor="middle" x="305" y="-7.5" font-family="Helvetica,sans-Serif" font-size="10.00"> </text>
</a>
</g>
</g>
<!-- Node2 -->
<g id="node2" class="node">
<title>Node2</title>
<g id="a_node2"><a xlink:href="structie__dedup__spec__t.html" target="_top" xlink:title="Top&#45;level parsed dedup spec.">
<polygon fill="none" stroke="black" points="0,-160.5 0,-217.5 98,-217.5 98,-160.5 0,-160.5"/>
<text text-anchor="middle" x="49" y="-205.5" font-family="Helvetica,sans-Serif" font-size="10.00">ie_dedup_spec_t</text>
<polyline fill="none" stroke="black" points="0,-198.5 98,-198.5 "/>
<text text-anchor="middle" x="49" y="-186.5" font-family="Helvetica,sans-Serif" font-size="10.00"> </text>
<polyline fill="none" stroke="black" points="0,-179.5 98,-179.5 "/>
<text text-anchor="middle" x="49" y="-167.5" font-family="Helvetica,sans-Serif" font-size="10.00"> </text>
</a>
</g>
</g>
<!-- Node2&#45;&gt;Node1 -->
<g id="edge1" class="edge">
<title>Node2&#45;&gt;Node1</title>
<path fill="none" stroke="#404040" d="M98.06,-162.99C130.17,-146.62 173.16,-124.71 211.64,-105.09"/>
<polygon fill="none" stroke="#404040" points="211.67,-105.08 215.2,-98.79 222.36,-99.63 218.83,-105.92 211.67,-105.08"/>
<text text-anchor="middle" x="172" y="-134" font-family="Helvetica,sans-Serif" font-size="10.00"> +spec</text>
</g>
<!-- Node3 -->
<g id="node3" class="node">
<title>Node3</title>
<g id="a_node3"><a xlink:href="structie__dedup__target__t.html" target="_top" xlink:title="One deduplicated target tensor entry.">
<polygon fill="none" stroke="black" points="116,-160.5 116,-217.5 220,-217.5 220,-160.5 116,-160.5"/>
<text text-anchor="middle" x="168" y="-205.5" font-family="Helvetica,sans-Serif" font-size="10.00">ie_dedup_target_t</text>
<polyline fill="none" stroke="black" points="116,-198.5 220,-198.5 "/>
<text text-anchor="middle" x="168" y="-186.5" font-family="Helvetica,sans-Serif" font-size="10.00"> </text>
<polyline fill="none" stroke="black" points="116,-179.5 220,-179.5 "/>
<text text-anchor="middle" x="168" y="-167.5" font-family="Helvetica,sans-Serif" font-size="10.00"> </text>
</a>
</g>
</g>
<!-- Node3&#45;&gt;Node1 -->
<g id="edge2" class="edge">
<title>Node3&#45;&gt;Node1</title>
<path fill="none" stroke="#404040" d="M186.01,-160.38C192.96,-150.63 201.32,-139.88 210,-131 213.35,-127.57 216.86,-124.17 220.48,-120.81"/>
<polygon fill="none" stroke="#404040" points="220.73,-120.59 222.52,-113.61 229.66,-112.58 227.86,-119.56 220.73,-120.59"/>
<text text-anchor="middle" x="255.5" y="-134" font-family="Helvetica,sans-Serif" font-size="10.00"> +target_by_index</text>
</g>
<!-- Node4 -->
<g id="node4" class="node">
<title>Node4</title>
<g id="a_node4"><a xlink:href="structie__dedup__cache__entry__t.html" target="_top" xlink:title="One cached reconstructed tensor blob.">
<polygon fill="none" stroke="black" points="238,-160.5 238,-217.5 372,-217.5 372,-160.5 238,-160.5"/>
<text text-anchor="middle" x="305" y="-205.5" font-family="Helvetica,sans-Serif" font-size="10.00">ie_dedup_cache_entry_t</text>
<polyline fill="none" stroke="black" points="238,-198.5 372,-198.5 "/>
<text text-anchor="middle" x="305" y="-186.5" font-family="Helvetica,sans-Serif" font-size="10.00"> </text>
<polyline fill="none" stroke="black" points="238,-179.5 372,-179.5 "/>
<text text-anchor="middle" x="305" y="-167.5" font-family="Helvetica,sans-Serif" font-size="10.00"> </text>
</a>
</g>
</g>
<!-- Node4&#45;&gt;Node1 -->
<g id="edge3" class="edge">
<title>Node4&#45;&gt;Node1</title>
<path fill="none" stroke="#404040" d="M305,-160.32C305,-149.78 305,-137.25 305,-124.62"/>
<polygon fill="none" stroke="#404040" points="305,-124.55 301,-118.55 305,-112.55 309,-118.55 305,-124.55"/>
<text text-anchor="middle" x="328" y="-134" font-family="Helvetica,sans-Serif" font-size="10.00"> +entries</text>
</g>
<!-- Node5 -->
<g id="node5" class="node">
<title>Node5</title>
<g id="a_node5"><a xlink:title=" ">
<polygon fill="none" stroke="#bfbfbf" points="390,-160.5 390,-217.5 434,-217.5 434,-160.5 390,-160.5"/>
<text text-anchor="middle" x="412" y="-205.5" font-family="Helvetica,sans-Serif" font-size="10.00">struct</text>
<polyline fill="none" stroke="#bfbfbf" points="390,-198.5 434,-198.5 "/>
<text text-anchor="middle" x="412" y="-186.5" font-family="Helvetica,sans-Serif" font-size="10.00"> </text>
<polyline fill="none" stroke="#bfbfbf" points="390,-179.5 434,-179.5 "/>
<text text-anchor="middle" x="412" y="-167.5" font-family="Helvetica,sans-Serif" font-size="10.00"> </text>
</a>
</g>
</g>
<!-- Node5&#45;&gt;Node1 -->
<g id="edge4" class="edge">
<title>Node5&#45;&gt;Node1</title>
<path fill="none" stroke="#404040" d="M389.83,-160.96C380.53,-149.62 369.28,-135.9 358.05,-122.21"/>
<polygon fill="none" stroke="#404040" points="357.92,-122.04 351.02,-119.94 350.31,-112.76 357.21,-114.87 357.92,-122.04"/>
<text text-anchor="middle" x="387" y="-134" font-family="Helvetica,sans-Serif" font-size="10.00"> +files</text>
</g>
<!-- Node6 -->
<g id="node6" class="node">
<title>Node6</title>
<g id="a_node6"><a xlink:href="structie__dedup__group__t.html" target="_top" xlink:title="A group of targets that share one default tensor blob.">
<polygon fill="none" stroke="black" points="452.5,-160.5 452.5,-217.5 555.5,-217.5 555.5,-160.5 452.5,-160.5"/>
<text text-anchor="middle" x="504" y="-205.5" font-family="Helvetica,sans-Serif" font-size="10.00">ie_dedup_group_t</text>
<polyline fill="none" stroke="black" points="452.5,-198.5 555.5,-198.5 "/>
<text text-anchor="middle" x="504" y="-186.5" font-family="Helvetica,sans-Serif" font-size="10.00"> </text>
<polyline fill="none" stroke="black" points="452.5,-179.5 555.5,-179.5 "/>
<text text-anchor="middle" x="504" y="-167.5" font-family="Helvetica,sans-Serif" font-size="10.00"> </text>
</a>
</g>
</g>
<!-- Node6&#45;&gt;Node1 -->
<g id="edge5" class="edge">
<title>Node6&#45;&gt;Node1</title>
<path fill="none" stroke="#404040" d="M461.8,-160.32C443.1,-148.06 420.3,-133.11 397.95,-118.46"/>
<polygon fill="none" stroke="#404040" points="397.76,-118.33 390.55,-118.39 387.73,-111.75 394.94,-111.7 397.76,-118.33"/>
<text text-anchor="middle" x="492.5" y="-134" font-family="Helvetica,sans-Serif" font-size="10.00"> +group_by_default_index</text>
</g>
</g>
</svg>
        <g id="navigator" transform="translate(0 0)" fill="#404254">
                <rect fill="#f2f5e9" fill-opacity="0.5" stroke="#606060" stroke-width=".5" x="0" y="0" width="60" height="60"/>
                <use id="zoomplus" xlink:href="#zoomPlus" x="17" y="9" onmousedown="handleZoom(evt,'in')"/>
                <use id="zoomminus" xlink:href="#zoomMin" x="42" y="9" onmousedown="handleZoom(evt,'out')"/>
                <use id="reset" xlink:href="#resetDef" x="30" y="36" onmousedown="handleReset()"/>
                <g id="arrowUp" xlink:href="#dirArrow" transform="translate(30 24)" onmousedown="handlePan(0,-1)">
                  <use xlink:href="#rim" fill="#404040">
                        <set attributeName="fill" to="#808080" begin="arrowUp.mouseover" end="arrowUp.mouseout"/>
                  </use>
                  <path fill="none" stroke="white" stroke-width="1.5" d="M0,-3.0v7 M-2.5,-0.5L0,-3.0L2.5,-0.5"/>
                </g>
                <g id="arrowRight" xlink:href="#dirArrow" transform="rotate(90) translate(36 -43)" onmousedown="handlePan(1,0)">
                  <use xlink:href="#rim" fill="#404040">
                        <set attributeName="fill" to="#808080" begin="arrowRight.mouseover" end="arrowRight.mouseout"/>
                  </use>
                  <path fill="none" stroke="white" stroke-width="1.5" d="M0,-3.0v7 M-2.5,-0.5L0,-3.0L2.5,-0.5"/>
                </g>
                <g id="arrowDown" xlink:href="#dirArrow" transform="rotate(180) translate(-30 -48)" onmousedown="handlePan(0,1)">
                  <use xlink:href="#rim" fill="#404040">
                        <set attributeName="fill" to="#808080" begin="arrowDown.mouseover" end="arrowDown.mouseout"/>
                  </use>
                  <path fill="none" stroke="white" stroke-width="1.5" d="M0,-3.0v7 M-2.5,-0.5L0,-3.0L2.5,-0.5"/>
                </g>
                <g id="arrowLeft" xlink:href="#dirArrow" transform="rotate(270) translate(-36 17)" onmousedown="handlePan(-1,0)">
                  <use xlink:href="#rim" fill="#404040">
                        <set attributeName="fill" to="#808080" begin="arrowLeft.mouseover" end="arrowLeft.mouseout"/>
                  </use>
                  <path fill="none" stroke="white" stroke-width="1.5" d="M0,-3.0v7 M-2.5,-0.5L0,-3.0L2.5,-0.5"/>
                </g>
        </g>
        <svg viewBox="0 0 15 15" width="100%" height="30px" preserveAspectRatio="xMaxYMin meet">
         <g id="arrow_out" transform="scale(0.3 0.3)">
          <a xlink:href="structie__dedup__cache__s__coll__graph_org.svg" target="_base">
           <rect id="button" ry="5" rx="5" y="6" x="6" height="38" width="38"
                fill="#f2f5e9" fill-opacity="0.5" stroke="#606060" stroke-width="1.0"/>
           <path id="arrow"
             d="M 11.500037,31.436501 C 11.940474,20.09759 22.043105,11.32322 32.158766,21.979434 L 37.068811,17.246167 C 37.068811,17.246167 37.088388,32 37.088388,32 L 22.160133,31.978069 C 22.160133,31.978069 26.997745,27.140456 26.997745,27.140456 C 18.528582,18.264221 13.291696,25.230495 11.500037,31.436501 z"
             style="fill:#404040;"/>
          </a>
         </g>
        </svg>
</svg>
