<?xml version="1.0" encoding="UTF-8" standalone="no"?>
<!DOCTYPE svg PUBLIC "-//W3C//DTD SVG 1.1//EN"
 "http://www.w3.org/Graphics/SVG/1.1/DTD/svg11.dtd">
<!-- Generated by graphviz version 12.2.1 (20241206.2353)
 -->
<!-- Title: ie_engine Pages: 1 -->
<svg width="224pt" height="266pt"
 viewBox="0.00 0.00 223.50 265.75" xmlns="http://www.w3.org/2000/svg" xmlns:xlink="http://www.w3.org/1999/xlink">

<svg id="main" version="1.1" xmlns="http://www.w3.org/2000/svg" xmlns:xlink="http://www.w3.org/1999/xlink" xml:space="preserve">

<style type="text/css"><![CDATA[
.node, .edge {opacity: 0.7;}
.node.selected, .edge.selected {opacity: 1;}
.edge:hover path { stroke: red; }
.edge:hover polygon { stroke: red; fill: red; }
]]></style>
<script type="application/ecmascript" xlink:href="svg.min.js"/>
<svg id="graph" class="graph">
<g id="graph0" class="graph" transform="scale(1 1) rotate(0) translate(4 261.75)">
<title>ie_engine</title>
<!-- Node1 -->
<g id="Node000001" class="node">
<title>Node1</title>
<g id="a_Node000001"><a xlink:title="Opaque engine object private to this module.">
<polygon fill="#999999" stroke="none" points="159.12,-71 54.12,-71 54.12,0 159.12,0 159.12,-71"/>
<text text-anchor="start" x="83" y="-57.5" font-family="Helvetica,sans-Serif" font-size="10.00">ie_engine</text>
<text text-anchor="start" x="58.12" y="-40.75" font-family="Helvetica,sans-Serif" font-size="10.00">+</text>
<text text-anchor="start" x="70.38" y="-40.75" font-family="Helvetica,sans-Serif" font-size="10.00">seed</text>
<text text-anchor="start" x="58.12" y="-24" font-family="Helvetica,sans-Serif" font-size="10.00">+</text>
<text text-anchor="start" x="70.38" y="-24" font-family="Helvetica,sans-Serif" font-size="10.00">uses_weight_int4</text>
<text text-anchor="start" x="105.12" y="-7.25" font-family="Helvetica,sans-Serif" font-size="10.00"> </text>
<polygon fill="#666666" stroke="#666666" points="54.12,-52.25 54.12,-52.25 159.12,-52.25 159.12,-52.25 54.12,-52.25"/>
<polygon fill="#666666" stroke="#666666" points="54.12,-18.75 54.12,-18.75 68.38,-18.75 68.38,-18.75 54.12,-18.75"/>
<polygon fill="#666666" stroke="#666666" points="68.38,-18.75 68.38,-18.75 159.12,-18.75 159.12,-18.75 68.38,-18.75"/>
<polygon fill="none" stroke="#666666" points="54.12,0 54.12,-71 159.12,-71 159.12,0 54.12,0"/>
</a>
</g>
</g>
<!-- Node2 -->
<g id="Node000002" class="node">
<title>Node2</title>
<g id="a_Node000002"><a xlink:href="structie__engine__params.html" target="_top" xlink:title="Engine creation parameters (all optional hints).">
<polygon fill="white" stroke="none" points="97.25,-249.38 0,-249.38 0,-128.12 97.25,-128.12 97.25,-249.38"/>
<text text-anchor="start" x="4" y="-235.88" font-family="Helvetica,sans-Serif" font-size="10.00">ie_engine_params</text>
<text text-anchor="start" x="7.31" y="-219.12" font-family="Helvetica,sans-Serif" font-size="10.00">+</text>
<text text-anchor="start" x="22.88" y="-219.12" font-family="Helvetica,sans-Serif" font-size="10.00">threads</text>
<text text-anchor="start" x="7.31" y="-202.38" font-family="Helvetica,sans-Serif" font-size="10.00">+</text>
<text text-anchor="start" x="22.88" y="-202.38" font-family="Helvetica,sans-Serif" font-size="10.00">affinity</text>
<text text-anchor="start" x="7.31" y="-185.62" font-family="Helvetica,sans-Serif" font-size="10.00">+</text>
<text text-anchor="start" x="22.88" y="-185.62" font-family="Helvetica,sans-Serif" font-size="10.00">pretranspose</text>
<text text-anchor="start" x="7.31" y="-168.88" font-family="Helvetica,sans-Serif" font-size="10.00">+</text>
<text text-anchor="start" x="22.88" y="-168.88" font-family="Helvetica,sans-Serif" font-size="10.00">prefetch</text>
<text text-anchor="start" x="7.31" y="-152.12" font-family="Helvetica,sans-Serif" font-size="10.00">+</text>
<text text-anchor="start" x="22.88" y="-152.12" font-family="Helvetica,sans-Serif" font-size="10.00">precision</text>
<text text-anchor="start" x="47.12" y="-135.38" font-family="Helvetica,sans-Serif" font-size="10.00"> </text>
<polygon fill="#666666" stroke="#666666" points="0,-230.62 0,-230.62 97.25,-230.62 97.25,-230.62 0,-230.62"/>
<polygon fill="#666666" stroke="#666666" points="0,-146.88 0,-146.88 20.88,-146.88 20.88,-146.88 0,-146.88"/>
<polygon fill="#666666" stroke="#666666" points="20.88,-146.88 20.88,-146.88 97.25,-146.88 97.25,-146.88 20.88,-146.88"/>
<polygon fill="none" stroke="#666666" points="0,-128.12 0,-249.38 97.25,-249.38 97.25,-128.12 0,-128.12"/>
</a>
</g>
</g>
<!-- Node2&#45;&gt;Node1 -->
<g id="edge1_Node000001_Node000002" class="edge">
<title>Node2&#45;&gt;Node1</title>
<g id="a_edge1_Node000001_Node000002"><a xlink:title=" ">
<path fill="none" stroke="#63b8ff" d="M71.38,-128.41C77.17,-113.3 83.32,-97.28 88.82,-82.93"/>
<polygon fill="none" stroke="#63b8ff" points="88.85,-82.85 87.27,-75.81 93.15,-71.64 94.74,-78.68 88.85,-82.85"/>
</a>
</g>
<text text-anchor="middle" x="99.33" y="-92.25" font-family="Helvetica,sans-Serif" font-size="10.00" fill="grey"> +cfg</text>
</g>
<!-- Node3 -->
<g id="Node000003" class="node">
<title>Node3</title>
<g id="a_Node000003"><a xlink:href="structie__metrics.html" target="_top" xlink:title="Metrics snapshot returned by the engine.">
<polygon fill="white" stroke="none" points="215.5,-257.75 115.75,-257.75 115.75,-119.75 215.5,-119.75 215.5,-257.75"/>
<text text-anchor="start" x="140.12" y="-244.25" font-family="Helvetica,sans-Serif" font-size="10.00">ie_metrics</text>
<text text-anchor="start" x="119.75" y="-227.5" font-family="Helvetica,sans-Serif" font-size="10.00">+</text>
<text text-anchor="start" x="132" y="-227.5" font-family="Helvetica,sans-Serif" font-size="10.00">tps_true</text>
<text text-anchor="start" x="119.75" y="-210.75" font-family="Helvetica,sans-Serif" font-size="10.00">+</text>
<text text-anchor="start" x="132" y="-210.75" font-family="Helvetica,sans-Serif" font-size="10.00">latency_p50_ms</text>
<text text-anchor="start" x="119.75" y="-194" font-family="Helvetica,sans-Serif" font-size="10.00">+</text>
<text text-anchor="start" x="132" y="-194" font-family="Helvetica,sans-Serif" font-size="10.00">latency_p95_ms</text>
<text text-anchor="start" x="119.75" y="-177.25" font-family="Helvetica,sans-Serif" font-size="10.00">+</text>
<text text-anchor="start" x="132" y="-177.25" font-family="Helvetica,sans-Serif" font-size="10.00">rss_peak_mb</text>
<text text-anchor="start" x="119.75" y="-160.5" font-family="Helvetica,sans-Serif" font-size="10.00">+</text>
<text text-anchor="start" x="132" y="-160.5" font-family="Helvetica,sans-Serif" font-size="10.00">kv_hits</text>
<text text-anchor="start" x="119.75" y="-143.75" font-family="Helvetica,sans-Serif" font-size="10.00">+</text>
<text text-anchor="start" x="132" y="-143.75" font-family="Helvetica,sans-Serif" font-size="10.00">kv_misses</text>
<text text-anchor="start" x="164.12" y="-127" font-family="Helvetica,sans-Serif" font-size="10.00"> </text>
<polygon fill="#666666" stroke="#666666" points="115.75,-239 115.75,-239 215.5,-239 215.5,-239 115.75,-239"/>
<polygon fill="#666666" stroke="#666666" points="115.75,-138.5 115.75,-138.5 130,-138.5 130,-138.5 115.75,-138.5"/>
<polygon fill="#666666" stroke="#666666" points="130,-138.5 130,-138.5 215.5,-138.5 215.5,-138.5 130,-138.5"/>
<polygon fill="none" stroke="#666666" points="115.75,-119.75 115.75,-257.75 215.5,-257.75 215.5,-119.75 115.75,-119.75"/>
</a>
</g>
</g>
<!-- Node3&#45;&gt;Node1 -->
<g id="edge2_Node000001_Node000003" class="edge">
<title>Node3&#45;&gt;Node1</title>
<g id="a_edge2_Node000001_Node000003"><a xlink:title=" ">
<path fill="none" stroke="#63b8ff" d="M139.23,-120.09C134.31,-107.48 129.28,-94.57 124.68,-82.79"/>
<polygon fill="none" stroke="#63b8ff" points="124.76,-82.99 118.85,-78.86 120.4,-71.81 126.31,-75.95 124.76,-82.99"/>
</a>
</g>
<text text-anchor="middle" x="145.47" y="-92.25" font-family="Helvetica,sans-Serif" font-size="10.00" fill="grey"> +last</text>
</g>
</g>
</svg>
</svg>

<style type='text/css'>
<![CDATA[
[data-mouse-over-selected='false'] { opacity: 0.7; }
[data-mouse-over-selected='true']  { opacity: 1.0; }
]]>
</style>
<script type="application/ecmascript"><![CDATA[
document.addEventListener('DOMContentLoaded', (event) => {
  highlightEdges();
  highlightAdjacentNodes();
});
]]></script>
</svg>
