<?xml version="1.0" encoding="UTF-8" standalone="no"?>
<!DOCTYPE svg PUBLIC "-//W3C//DTD SVG 1.1//EN"
 "http://www.w3.org/Graphics/SVG/1.1/DTD/svg11.dtd">
<!-- Generated by graphviz version 2.43.0 (0)
 -->
<!-- Title: ie_tensor_view Pages: 1 -->
<svg width="92pt" height="228pt"
 viewBox="0.00 0.00 92.00 228.00" xmlns="http://www.w3.org/2000/svg" xmlns:xlink="http://www.w3.org/1999/xlink">
<g id="graph0" class="graph" transform="scale(1 1) rotate(0) translate(4 224)">
<title>ie_tensor_view</title>
<!-- Node1 -->
<g id="Node000001" class="node">
<title>Node1</title>
<g id="a_Node000001"><a xlink:title="A resolved tensor pointer plus its descriptor.">
<polygon fill="#999999" stroke="transparent" points="84,-49 0,-49 0,0 84,0 84,-49"/>
<text text-anchor="start" x="5" y="-36.5" font-family="Helvetica,sans-Serif" font-size="10.00">ie_tensor_view</text>
<text text-anchor="start" x="16" y="-21.5" font-family="Helvetica,sans-Serif" font-size="10.00">+</text>
<text text-anchor="start" x="41" y="-21.5" font-family="Helvetica,sans-Serif" font-size="10.00">ptr</text>
<text text-anchor="start" x="40" y="-6.5" font-family="Helvetica,sans-Serif" font-size="10.00"> </text>
<polygon fill="#666666" stroke="#666666" points="0,-31.5 0,-31.5 84,-31.5 84,-31.5 0,-31.5"/>
<polygon fill="#666666" stroke="#666666" points="0,-16.5 0,-16.5 39,-16.5 39,-16.5 0,-16.5"/>
<polygon fill="#666666" stroke="#666666" points="39,-16.5 39,-16.5 84,-16.5 84,-16.5 39,-16.5"/>
<polygon fill="none" stroke="#666666" points="0,0 0,-49 84,-49 84,0 0,0"/>
</a>
</g>
</g>
<!-- Node2 -->
<g id="Node000002" class="node">
<title>Node2</title>
<g id="a_Node000002"><a xlink:href="structtensor__desc__s.html" target="_top" xlink:title="Tensor descriptor resolved from tensor_map.json.">
<polygon fill="white" stroke="transparent" points="82,-220 2,-220 2,-96 82,-96 82,-220"/>
<text text-anchor="start" x="7" y="-208" font-family="Helvetica,sans-Serif" font-size="10.00">tensor_desc_s</text>
<text text-anchor="start" x="7.5" y="-193" font-family="Helvetica,sans-Serif" font-size="10.00">+</text>
<text text-anchor="start" x="22" y="-193" font-family="Helvetica,sans-Serif" font-size="10.00">name</text>
<text text-anchor="start" x="7.5" y="-178" font-family="Helvetica,sans-Serif" font-size="10.00">+</text>
<text text-anchor="start" x="22" y="-178" font-family="Helvetica,sans-Serif" font-size="10.00">offset</text>
<text text-anchor="start" x="7.5" y="-163" font-family="Helvetica,sans-Serif" font-size="10.00">+</text>
<text text-anchor="start" x="22" y="-163" font-family="Helvetica,sans-Serif" font-size="10.00">size_bytes</text>
<text text-anchor="start" x="7.5" y="-148" font-family="Helvetica,sans-Serif" font-size="10.00">+</text>
<text text-anchor="start" x="22" y="-148" font-family="Helvetica,sans-Serif" font-size="10.00">dtype</text>
<text text-anchor="start" x="7.5" y="-133" font-family="Helvetica,sans-Serif" font-size="10.00">+</text>
<text text-anchor="start" x="22" y="-133" font-family="Helvetica,sans-Serif" font-size="10.00">shape</text>
<text text-anchor="start" x="7.5" y="-118" font-family="Helvetica,sans-Serif" font-size="10.00">+</text>
<text text-anchor="start" x="22" y="-118" font-family="Helvetica,sans-Serif" font-size="10.00">ndim</text>
<text text-anchor="start" x="40" y="-103" font-family="Helvetica,sans-Serif" font-size="10.00"> </text>
<polygon fill="#666666" stroke="#666666" points="2,-203 2,-203 82,-203 82,-203 2,-203"/>
<polygon fill="#666666" stroke="#666666" points="2,-113 2,-113 20,-113 20,-113 2,-113"/>
<polygon fill="#666666" stroke="#666666" points="20,-113 20,-113 82,-113 82,-113 20,-113"/>
<polygon fill="none" stroke="#666666" points="2,-96 2,-220 82,-220 82,-96 2,-96"/>
</a>
</g>
</g>
<!-- Node2&#45;&gt;Node1 -->
<g id="edge1_Node000001_Node000002" class="edge">
<title>Node2&#45;&gt;Node1</title>
<g id="a_edge1_Node000001_Node000002"><a xlink:title=" ">
<path fill="none" stroke="#63b8ff" d="M42,-95.87C42,-84.04 42,-72.02 42,-61.33"/>
<polygon fill="none" stroke="#63b8ff" points="42,-61.07 38,-55.07 42,-49.07 46,-55.07 42,-61.07"/>
</a>
</g>
<text text-anchor="middle" x="59" y="-70" font-family="Helvetica,sans-Serif" font-size="10.00" fill="grey"> +desc</text>
</g>
</g>
</svg>
