<?xml version="1.0" encoding="UTF-8" standalone="no"?>
<!DOCTYPE svg PUBLIC "-//W3C//DTD SVG 1.1//EN"
 "http://www.w3.org/Graphics/SVG/1.1/DTD/svg11.dtd">
<!-- Generated by graphviz version 2.43.0 (0)
 -->
<!-- Title: ie_worker_arg_t Pages: 1 -->
<svg width="96pt" height="153pt"
 viewBox="0.00 0.00 96.00 153.00" xmlns="http://www.w3.org/2000/svg" xmlns:xlink="http://www.w3.org/1999/xlink">
<g id="graph0" class="graph" transform="scale(1 1) rotate(0) translate(4 149)">
<title>ie_worker_arg_t</title>
<!-- Node1 -->
<g id="Node000001" class="node">
<title>Node1</title>
<g id="a_Node000001"><a xlink:title=" ">
<polygon fill="#999999" stroke="transparent" points="88,-49 0,-49 0,0 88,0 88,-49"/>
<text text-anchor="start" x="5" y="-36.5" font-family="Helvetica,sans-Serif" font-size="10.00">ie_worker_arg_t</text>
<text text-anchor="start" x="16" y="-21.5" font-family="Helvetica,sans-Serif" font-size="10.00">+</text>
<text text-anchor="start" x="41" y="-21.5" font-family="Helvetica,sans-Serif" font-size="10.00">tidx</text>
<text text-anchor="start" x="42" y="-6.5" font-family="Helvetica,sans-Serif" font-size="10.00"> </text>
<polygon fill="#666666" stroke="#666666" points="0,-31.5 0,-31.5 88,-31.5 88,-31.5 0,-31.5"/>
<polygon fill="#666666" stroke="#666666" points="0,-16.5 0,-16.5 39,-16.5 39,-16.5 0,-16.5"/>
<polygon fill="#666666" stroke="#666666" points="39,-16.5 39,-16.5 88,-16.5 88,-16.5 39,-16.5"/>
<polygon fill="none" stroke="#666666" points="0,0 0,-49 88,-49 88,0 0,0"/>
</a>
</g>
</g>
<!-- Node2 -->
<g id="Node000002" class="node">
<title>Node2</title>
<g id="a_Node000002"><a xlink:title=" ">
<polygon fill="white" stroke="transparent" points="63,-145 25,-145 25,-96 63,-96 63,-145"/>
<text text-anchor="start" x="30" y="-132.5" font-family="Helvetica,sans-Serif" font-size="10.00">struct</text>
<text text-anchor="start" x="42" y="-117.5" font-family="Helvetica,sans-Serif" font-size="10.00"> </text>
<text text-anchor="start" x="42" y="-102.5" font-family="Helvetica,sans-Serif" font-size="10.00"> </text>
<polygon fill="#666666" stroke="#666666" points="25,-127.5 25,-127.5 63,-127.5 63,-127.5 25,-127.5"/>
<polygon fill="#666666" stroke="#666666" points="25,-112.5 25,-112.5 63,-112.5 63,-112.5 25,-112.5"/>
<polygon fill="none" stroke="#666666" points="25,-96 25,-145 63,-145 63,-96 25,-96"/>
</a>
</g>
</g>
<!-- Node2&#45;&gt;Node1 -->
<g id="edge1_Node000001_Node000002" class="edge">
<title>Node2&#45;&gt;Node1</title>
<g id="a_edge1_Node000001_Node000002"><a xlink:title=" ">
<path fill="none" stroke="#63b8ff" d="M44,-95.78C44,-85.32 44,-72.79 44,-61.23"/>
<polygon fill="none" stroke="#63b8ff" points="44,-61.21 40,-55.21 44,-49.21 48,-55.21 44,-61.21"/>
</a>
</g>
<text text-anchor="middle" x="55" y="-70" font-family="Helvetica,sans-Serif" font-size="10.00" fill="grey"> +tp</text>
</g>
</g>
</svg>
