<?xml version="1.0" encoding="UTF-8" standalone="no"?>
<!DOCTYPE svg PUBLIC "-//W3C//DTD SVG 1.1//EN"
 "http://www.w3.org/Graphics/SVG/1.1/DTD/svg11.dtd">
<!-- Generated by graphviz version 2.43.0 (0)
 -->
<!-- Title: parse_u64 Pages: 1 -->
<!--zoomable 140 -->

<svg id="main" version="1.1" xmlns="http://www.w3.org/2000/svg" xmlns:xlink="http://www.w3.org/1999/xlink" xml:space="preserve" onload="init(evt)">
<style type="text/css"><![CDATA[
.node, .edge {opacity: 0.7;}
.node.selected, .edge.selected {opacity: 1;}
.edge:hover path { stroke: red; }
.edge:hover polygon { stroke: red; fill: red; }
]]></style>

<defs>
  <circle id="rim" cx="0" cy="0" r="7"/>
  <circle id="rim2" cx="0" cy="0" r="3.5"/>
  <g id="zoomPlus">
    <use xlink:href="#rim" fill="#404040"><set attributeName="fill" to="#808080" begin="zoomplus.mouseover" end="zoomplus.mouseout"/></use>
    <path d="M-4,0h8M0,-4v8" fill="none" stroke="white" stroke-width="1.5" pointer-events="none"/>
  </g>
  <g id="zoomMin">
    <use xlink:href="#rim" fill="#404040"><set attributeName="fill" to="#808080" begin="zoomminus.mouseover" end="zoomminus.mouseout"/></use>
    <path d="M-4,0h8" fill="none" stroke="white" stroke-width="1.5" pointer-events="none"/>
  </g>
  <g id="arrowUp" transform="translate(30 24)">
    <use xlink:href="#rim"/>
    <path pointer-events="none" fill="none" stroke="white" stroke-width="1.5" d="M0,-3.0v7 M-2.5,-0.5L0,-3.0L2.5,-0.5"/>
  </g>
  <g id="arrowRight" transform="rotate(90) translate(36 -43)">
    <use xlink:href="#rim"/>
    <path pointer-events="none" fill="none" stroke="white" stroke-width="1.5" d="M0,-3.0v7 M-2.5,-0.5L0,-3.0L2.5,-0.5"/>
  </g>
  <g id="arrowDown" transform="rotate(180) translate(-30 -48)">
    <use xlink:href="#rim"/>
    <path pointer-events="none" fill="none" stroke="white" stroke-width="1.5" d="M0,-3.0v7 M-2.5,-0.5L0,-3.0L2.5,-0.5"/>
  </g>
  <g id="arrowLeft" transform="rotate(270) translate(-36 17)">
    <use xlink:href="#rim"/>
    <path pointer-events="none" fill="none" stroke="white" stroke-width="1.5" d="M0,-3.0v7 M-2.5,-0.5L0,-3.0L2.5,-0.5"/>
  </g>
  <g id="resetDef">
    <use xlink:href="#rim2" fill="#404040"><set attributeName="fill" to="#808080" begin="reset.mouseover" end="reset.mouseout"/></use>
  </g>
</defs>
<script type="application/ecmascript">
var viewWidth = 923;
var viewHeight = 140;
var sectionId = 'dynsection-12';
</script>
<script type="application/ecmascript" xlink:href="svg.min.js"/>
<svg id="graph" class="graph">
<g id="viewport">
<title>parse_u64</title>
<!-- Node1 -->
<g id="Node000001" class="node">
<title>Node1</title>
<g id="a_Node000001"><a xlink:title="Parse an unsigned decimal integer.">
<polygon fill="#999999" stroke="#666666" points="915,-94 848,-94 848,-75 915,-75 915,-94"/>
<text text-anchor="middle" x="881.5" y="-82" font-family="Helvetica,sans-Serif" font-size="10.00">parse_u64</text>
</a>
</g>
</g>
<!-- Node2 -->
<g id="Node000002" class="node">
<title>Node2</title>
<g id="a_Node000002"><a xlink:href="tensor__map_8c.html#a018b3eeeb442114239c9d39d309af8d0" target="_top" xlink:title="Parse a JSON array of integers into a shape array.">
<polygon fill="white" stroke="#666666" points="812,-132 703,-132 703,-113 812,-113 812,-132"/>
<text text-anchor="middle" x="757.5" y="-120" font-family="Helvetica,sans-Serif" font-size="10.00">parse_shape_array</text>
</a>
</g>
</g>
<!-- Node1&#45;&gt;Node2 -->
<g id="edge1_Node000001_Node000002" class="edge">
<title>Node1&#45;&gt;Node2</title>
<g id="a_edge1_Node000001_Node000002"><a xlink:title=" ">
<path fill="none" stroke="#63b8ff" d="M839.79,-97.18C823.3,-102.31 804.59,-108.14 789.28,-112.91"/>
<polygon fill="#63b8ff" stroke="#63b8ff" points="841.21,-100.4 849.71,-94.09 839.13,-93.72 841.21,-100.4"/>
</a>
</g>
</g>
<!-- Node3 -->
<g id="Node000003" class="node">
<title>Node3</title>
<g id="a_Node000003"><a xlink:href="tensor__map_8c.html#a180580870bc40b8b36b78f81a1c26178" target="_top" xlink:title="Parse a tensor descriptor object.">
<polygon fill="white" stroke="#666666" points="667,-132 552,-132 552,-113 667,-113 667,-132"/>
<text text-anchor="middle" x="609.5" y="-120" font-family="Helvetica,sans-Serif" font-size="10.00">parse_tensor_object</text>
</a>
</g>
</g>
<!-- Node1&#45;&gt;Node3 -->
<g id="edge12_Node000001_Node000003" class="edge">
<title>Node1&#45;&gt;Node3</title>
<g id="a_edge12_Node000001_Node000003"><a xlink:title=" ">
<path fill="none" stroke="#63b8ff" d="M837.52,-88.37C801.5,-91.85 748.75,-97.48 703,-104.5 687.48,-106.88 670.59,-110.01 655.54,-112.99"/>
<polygon fill="#63b8ff" stroke="#63b8ff" points="838.06,-91.84 847.68,-87.4 837.39,-84.87 838.06,-91.84"/>
</a>
</g>
</g>
<!-- Node12 -->
<g id="Node000012" class="node">
<title>Node12</title>
<g id="a_Node000012"><a xlink:href="tensor__map_8c.html#a751de8ccde16854a65c185afdfecfdbf" target="_top" xlink:title="Skip any JSON value (string/object/array/number/true/false/null).">
<polygon fill="white" stroke="#666666" points="792,-56 723,-56 723,-37 792,-37 792,-56"/>
<text text-anchor="middle" x="757.5" y="-44" font-family="Helvetica,sans-Serif" font-size="10.00">skip_value</text>
</a>
</g>
</g>
<!-- Node1&#45;&gt;Node12 -->
<g id="edge13_Node000001_Node000012" class="edge">
<title>Node1&#45;&gt;Node12</title>
<g id="a_edge13_Node000001_Node000012"><a xlink:title=" ">
<path fill="none" stroke="#63b8ff" d="M839.79,-71.82C823.3,-66.69 804.59,-60.86 789.28,-56.09"/>
<polygon fill="#63b8ff" stroke="#63b8ff" points="839.13,-75.28 849.71,-74.91 841.21,-68.6 839.13,-75.28"/>
</a>
</g>
</g>
<!-- Node2&#45;&gt;Node3 -->
<g id="edge2_Node000002_Node000003" class="edge">
<title>Node2&#45;&gt;Node3</title>
<g id="a_edge2_Node000002_Node000003"><a xlink:title=" ">
<path fill="none" stroke="#63b8ff" d="M692.8,-122.5C684.37,-122.5 675.77,-122.5 667.47,-122.5"/>
<polygon fill="#63b8ff" stroke="#63b8ff" points="692.96,-126 702.96,-122.5 692.96,-119 692.96,-126"/>
</a>
</g>
</g>
<!-- Node4 -->
<g id="Node000004" class="node">
<title>Node4</title>
<g id="a_Node000004"><a xlink:href="tensor__map_8c.html#ac4b913e2710929070b5b073b4b67b24c" target="_top" xlink:title="Load tensor_map.json from disk.">
<polygon fill="white" stroke="#666666" points="516,-75 415,-75 415,-56 516,-56 516,-75"/>
<text text-anchor="middle" x="465.5" y="-63" font-family="Helvetica,sans-Serif" font-size="10.00">tensor_map_load</text>
</a>
</g>
</g>
<!-- Node3&#45;&gt;Node4 -->
<g id="edge3_Node000003_Node000004" class="edge">
<title>Node3&#45;&gt;Node4</title>
<g id="a_edge3_Node000003_Node000004"><a xlink:title=" ">
<path fill="none" stroke="#63b8ff" d="M575.26,-109.16C549.22,-98.7 513.62,-84.41 490.35,-75.07"/>
<polygon fill="#63b8ff" stroke="#63b8ff" points="574.15,-112.48 584.73,-112.96 576.76,-105.99 574.15,-112.48"/>
</a>
</g>
</g>
<!-- Node5 -->
<g id="Node000005" class="node">
<title>Node5</title>
<g id="a_Node000005"><a xlink:href="gptoss__weights__index_8c.html#ab0abbe94d2373ea44d51f2325c7cc46c" target="_top" xlink:title="Open a weights index for a given model directory and weights descriptor.">
<polygon fill="white" stroke="#666666" points="379,-112 225,-112 225,-93 379,-93 379,-112"/>
<text text-anchor="middle" x="302" y="-100" font-family="Helvetica,sans-Serif" font-size="10.00">gptoss_weights_index_open</text>
</a>
</g>
</g>
<!-- Node4&#45;&gt;Node5 -->
<g id="edge4_Node000004_Node000005" class="edge">
<title>Node4&#45;&gt;Node5</title>
<g id="a_edge4_Node000004_Node000005"><a xlink:title=" ">
<path fill="none" stroke="#63b8ff" d="M413.05,-77.29C391,-82.34 365.58,-88.16 344.73,-92.94"/>
<polygon fill="#63b8ff" stroke="#63b8ff" points="413.94,-80.67 422.91,-75.03 412.38,-73.85 413.94,-80.67"/>
</a>
</g>
</g>
<!-- Node6 -->
<g id="Node000006" class="node">
<title>Node6</title>
<g id="a_Node000006"><a xlink:href="infer__gptoss_8c.html#a1eb484ef476fc9b7a44d3819959fb307" target="_top" xlink:title="Create an inference context.">
<polygon fill="white" stroke="#666666" points="365.5,-38 238.5,-38 238.5,-19 365.5,-19 365.5,-38"/>
<text text-anchor="middle" x="302" y="-26" font-family="Helvetica,sans-Serif" font-size="10.00">ie_gptoss_infer_create</text>
</a>
</g>
</g>
<!-- Node4&#45;&gt;Node6 -->
<g id="edge5_Node000004_Node000006" class="edge">
<title>Node4&#45;&gt;Node6</title>
<g id="a_edge5_Node000004_Node000006"><a xlink:title=" ">
<path fill="none" stroke="#63b8ff" d="M413.05,-53.71C391,-48.66 365.58,-42.84 344.73,-38.06"/>
<polygon fill="#63b8ff" stroke="#63b8ff" points="412.38,-57.15 422.91,-55.97 413.94,-50.33 412.38,-57.15"/>
</a>
</g>
</g>
<!-- Node11 -->
<g id="Node000011" class="node">
<title>Node11</title>
<g id="a_Node000011"><a xlink:href="ie__api_8c.html#a037b105c112037bdbc1725c6c88fd1ff" target="_top" xlink:title=" ">
<polygon fill="white" stroke="#666666" points="376,-75 228,-75 228,-56 376,-56 376,-75"/>
<text text-anchor="middle" x="302" y="-63" font-family="Helvetica,sans-Serif" font-size="10.00">maybe_correct_head_dim_</text>
</a>
</g>
</g>
<!-- Node4&#45;&gt;Node11 -->
<g id="edge10_Node000004_Node000011" class="edge">
<title>Node4&#45;&gt;Node11</title>
<g id="a_edge10_Node000004_Node000011"><a xlink:title=" ">
<path fill="none" stroke="#63b8ff" d="M404.47,-65.5C395.21,-65.5 385.56,-65.5 376.06,-65.5"/>
<polygon fill="#63b8ff" stroke="#63b8ff" points="404.73,-69 414.73,-65.5 404.73,-62 404.73,-69"/>
</a>
</g>
</g>
<!-- Node7 -->
<g id="Node000007" class="node">
<title>Node7</title>
<g id="a_Node000007"><a xlink:href="ie__api_8c.html#a84bd87043352946e9d53b0f8a5c4abe0" target="_top" xlink:title="Create an engine instance.">
<polygon fill="white" stroke="#666666" points="183,-75 83,-75 83,-56 183,-56 183,-75"/>
<text text-anchor="middle" x="133" y="-63" font-family="Helvetica,sans-Serif" font-size="10.00">ie_engine_create</text>
</a>
</g>
</g>
<!-- Node6&#45;&gt;Node7 -->
<g id="edge6_Node000006_Node000007" class="edge">
<title>Node6&#45;&gt;Node7</title>
<g id="a_edge6_Node000006_Node000007"><a xlink:title=" ">
<path fill="none" stroke="#63b8ff" d="M248.1,-40.22C225.23,-45.29 198.81,-51.14 177.15,-55.94"/>
<polygon fill="#63b8ff" stroke="#63b8ff" points="248.99,-43.61 257.99,-38.03 247.47,-36.77 248.99,-43.61"/>
</a>
</g>
</g>
<!-- Node10 -->
<g id="Node000010" class="node">
<title>Node10</title>
<g id="a_Node000010"><a xlink:href="generate__gptoss_8c.html#a69606d6441b5c86670cfcc955721a308" target="_top" xlink:title="Generate up to max_new tokens for a prompt string using GPT&#45;OSS.">
<polygon fill="white" stroke="#666666" points="189,-38 77,-38 77,-19 189,-19 189,-38"/>
<text text-anchor="middle" x="133" y="-26" font-family="Helvetica,sans-Serif" font-size="10.00">ie_generate_gptoss</text>
</a>
</g>
</g>
<!-- Node6&#45;&gt;Node10 -->
<g id="edge9_Node000006_Node000010" class="edge">
<title>Node6&#45;&gt;Node10</title>
<g id="a_edge9_Node000006_Node000010"><a xlink:title=" ">
<path fill="none" stroke="#63b8ff" d="M227.97,-28.5C214.91,-28.5 201.5,-28.5 189.05,-28.5"/>
<polygon fill="#63b8ff" stroke="#63b8ff" points="228.34,-32 238.34,-28.5 228.34,-25 228.34,-32"/>
</a>
</g>
</g>
<!-- Node8 -->
<g id="Node000008" class="node">
<title>Node8</title>
<g id="a_Node000008"><a xlink:href="main__infer_8c.html#a3c04138a5bfe5d72780bb7e82a18e627" target="_top" xlink:title="main.">
<polygon fill="white" stroke="#666666" points="41,-94 0,-94 0,-75 41,-75 41,-94"/>
<text text-anchor="middle" x="20.5" y="-82" font-family="Helvetica,sans-Serif" font-size="10.00">main</text>
</a>
</g>
</g>
<!-- Node7&#45;&gt;Node8 -->
<g id="edge7_Node000007_Node000008" class="edge">
<title>Node7&#45;&gt;Node8</title>
<g id="a_edge7_Node000007_Node000008"><a xlink:title=" ">
<path fill="none" stroke="#63b8ff" d="M72.82,-75.68C61.37,-77.64 50.14,-79.57 41.13,-81.13"/>
<polygon fill="#63b8ff" stroke="#63b8ff" points="73.63,-79.09 82.89,-73.94 72.44,-72.19 73.63,-79.09"/>
</a>
</g>
</g>
<!-- Node9 -->
<g id="Node000009" class="node">
<title>Node9</title>
<g id="a_Node000009"><a xlink:href="test__api_8c.html#a840291bc02cba5474a4cb46a9b9566fe" target="_top" xlink:title=" ">
<polygon fill="white" stroke="#666666" points="41,-57 0,-57 0,-38 41,-38 41,-57"/>
<text text-anchor="middle" x="20.5" y="-45" font-family="Helvetica,sans-Serif" font-size="10.00">main</text>
</a>
</g>
</g>
<!-- Node7&#45;&gt;Node9 -->
<g id="edge8_Node000007_Node000009" class="edge">
<title>Node7&#45;&gt;Node9</title>
<g id="a_edge8_Node000007_Node000009"><a xlink:title=" ">
<path fill="none" stroke="#63b8ff" d="M72.82,-55.86C61.37,-53.99 50.14,-52.17 41.13,-50.7"/>
<polygon fill="#63b8ff" stroke="#63b8ff" points="72.46,-59.35 82.89,-57.5 73.58,-52.44 72.46,-59.35"/>
</a>
</g>
</g>
<!-- Node11&#45;&gt;Node7 -->
<g id="edge11_Node000011_Node000007" class="edge">
<title>Node11&#45;&gt;Node7</title>
<g id="a_edge11_Node000011_Node000007"><a xlink:title=" ">
<path fill="none" stroke="#63b8ff" d="M217.46,-65.5C205.72,-65.5 193.99,-65.5 183.18,-65.5"/>
<polygon fill="#63b8ff" stroke="#63b8ff" points="217.75,-69 227.75,-65.5 217.75,-62 217.75,-69"/>
</a>
</g>
</g>
<!-- Node12&#45;&gt;Node3 -->
<g id="edge14_Node000012_Node000003" class="edge">
<title>Node12&#45;&gt;Node3</title>
<g id="a_edge14_Node000012_Node000003"><a xlink:title=" ">
<path fill="none" stroke="#63b8ff" d="M722.45,-60.3C715.85,-63.38 709.1,-66.83 703,-70.5 685.63,-80.95 684.47,-88.23 667,-98.5 657.54,-104.06 646.54,-109.03 636.78,-112.99"/>
<polygon fill="#63b8ff" stroke="#63b8ff" points="724.21,-63.34 731.91,-56.07 721.35,-56.96 724.21,-63.34"/>
</a>
</g>
</g>
<!-- Node12&#45;&gt;Node4 -->
<g id="edge21_Node000012_Node000004" class="edge">
<title>Node12&#45;&gt;Node4</title>
<g id="a_edge21_Node000012_Node000004"><a xlink:title=" ">
<path fill="none" stroke="#63b8ff" d="M712.58,-57.09C698.15,-60.1 681.97,-62.97 667,-64.5 615.75,-69.73 556.74,-69.25 516.08,-67.91"/>
<polygon fill="#63b8ff" stroke="#63b8ff" points="713.7,-60.43 722.74,-54.9 712.22,-53.59 713.7,-60.43"/>
</a>
</g>
</g>
<!-- Node13 -->
<g id="Node000013" class="node">
<title>Node13</title>
<g id="a_Node000013"><a xlink:href="tensor__map_8c.html#a86c69aef66f60185ab7bfe466d7eb1d3" target="_top" xlink:title="Skip a JSON array value.">
<polygon fill="white" stroke="#666666" points="643.5,-56 575.5,-56 575.5,-37 643.5,-37 643.5,-56"/>
<text text-anchor="middle" x="609.5" y="-44" font-family="Helvetica,sans-Serif" font-size="10.00">skip_array</text>
</a>
</g>
</g>
<!-- Node12&#45;&gt;Node13 -->
<g id="edge15_Node000012_Node000013" class="edge">
<title>Node12&#45;&gt;Node13</title>
<g id="a_edge15_Node000012_Node000013"><a xlink:title=" ">
<path fill="none" stroke="#63b8ff" d="M712.49,-40.25C690.39,-39.45 664.05,-39.61 643.68,-40.74"/>
<polygon fill="#63b8ff" stroke="#63b8ff" points="712.49,-43.75 722.64,-40.7 712.8,-36.76 712.49,-43.75"/>
</a>
</g>
</g>
<!-- Node14 -->
<g id="Node000014" class="node">
<title>Node14</title>
<g id="a_Node000014"><a xlink:href="tensor__map_8c.html#a9e5190012370782147588f3b3b6a4886" target="_top" xlink:title="Skip a JSON object value.">
<polygon fill="white" stroke="#666666" points="645.5,-19 573.5,-19 573.5,0 645.5,0 645.5,-19"/>
<text text-anchor="middle" x="609.5" y="-7" font-family="Helvetica,sans-Serif" font-size="10.00">skip_object</text>
</a>
</g>
</g>
<!-- Node12&#45;&gt;Node14 -->
<g id="edge18_Node000012_Node000014" class="edge">
<title>Node12&#45;&gt;Node14</title>
<g id="a_edge18_Node000012_Node000014"><a xlink:title=" ">
<path fill="none" stroke="#63b8ff" d="M727.65,-33.69C704.08,-26.18 670.66,-17.59 645.54,-12.52"/>
<polygon fill="#63b8ff" stroke="#63b8ff" points="726.82,-37.1 737.41,-36.93 729.03,-30.45 726.82,-37.1"/>
</a>
</g>
</g>
<!-- Node13&#45;&gt;Node4 -->
<g id="edge17_Node000013_Node000004" class="edge">
<title>Node13&#45;&gt;Node4</title>
<g id="a_edge17_Node000013_Node000004"><a xlink:title=" ">
<path fill="none" stroke="#63b8ff" d="M564.88,-52.34C549.42,-54.4 531.92,-56.75 516.01,-58.88"/>
<polygon fill="#63b8ff" stroke="#63b8ff" points="565.76,-55.75 575.21,-50.95 564.83,-48.81 565.76,-55.75"/>
</a>
</g>
</g>
<!-- Node13&#45;&gt;Node12 -->
<g id="edge16_Node000013_Node000012" class="edge">
<title>Node13&#45;&gt;Node12</title>
<g id="a_edge16_Node000013_Node000012"><a xlink:title=" ">
<path fill="none" stroke="#63b8ff" d="M653.76,-52.73C675.77,-53.55 702.13,-53.4 722.64,-52.3"/>
<polygon fill="#63b8ff" stroke="#63b8ff" points="653.82,-49.22 643.68,-52.26 653.5,-56.22 653.82,-49.22"/>
</a>
</g>
</g>
<!-- Node14&#45;&gt;Node4 -->
<g id="edge20_Node000014_Node000004" class="edge">
<title>Node14&#45;&gt;Node4</title>
<g id="a_edge20_Node000014_Node000004"><a xlink:title=" ">
<path fill="none" stroke="#63b8ff" d="M566.78,-22.22C561.77,-23.92 556.75,-25.69 552,-27.5 529.07,-36.22 503.45,-47.87 486.28,-55.97"/>
<polygon fill="#63b8ff" stroke="#63b8ff" points="567.91,-25.53 576.32,-19.08 565.72,-18.88 567.91,-25.53"/>
</a>
</g>
</g>
<!-- Node14&#45;&gt;Node12 -->
<g id="edge19_Node000014_Node000012" class="edge">
<title>Node14&#45;&gt;Node12</title>
<g id="a_edge19_Node000014_Node000012"><a xlink:title=" ">
<path fill="none" stroke="#63b8ff" d="M639.02,-22.21C662.98,-29.86 697.28,-38.66 722.64,-43.72"/>
<polygon fill="#63b8ff" stroke="#63b8ff" points="640.03,-18.86 629.44,-19.02 637.82,-25.5 640.03,-18.86"/>
</a>
</g>
</g>
</g>
</svg>

<g id="navigator" transform="translate(0 0)" fill="#404254">
  <rect fill="#f2f5e9" fill-opacity="0.5" stroke="#606060" stroke-width=".5" x="0" y="0" width="60" height="60"/>
  <use id="zoomplus" xlink:href="#zoomPlus" x="17" y="9" onmousedown="handleZoom(evt,'in')"/>
  <use id="zoomminus" xlink:href="#zoomMin" x="42" y="9" onmousedown="handleZoom(evt,'out')"/>
  <use id="reset" xlink:href="#resetDef" x="30" y="36" onmousedown="handleReset()"/>
   <use id="arrowup" xlink:href="#arrowUp" x="0" y="0" onmousedown="handlePan(0,-1)"/>
  <use id="arrowright" xlink:href="#arrowRight" x="0" y="0" onmousedown="handlePan(1,0)"/>
  <use id="arrowdown" xlink:href="#arrowDown" x="0" y="0" onmousedown="handlePan(0,1)"/>
  <use id="arrowleft" xlink:href="#arrowLeft" x="0" y="0" onmousedown="handlePan(-1,0)"/>
</g>
<svg viewBox="0 0 15 15" width="100%" height="30px" preserveAspectRatio="xMaxYMin meet">
 <g id="arrow_out" transform="scale(0.3 0.3)">
  <a xlink:href="tensor__map_8c_a532a65d5913530d35874854778a4b444_icgraph_org.svg" target="_base">
   <rect id="button" ry="5" rx="5" y="6" x="6" height="38" width="38"
        fill="#f2f5e9" fill-opacity="0.5" stroke="#606060" stroke-width="1.0"/>
   <path id="arrow"
     d="M 11.500037,31.436501 C 11.940474,20.09759 22.043105,11.32322 32.158766,21.979434 L 37.068811,17.246167 C 37.068811,17.246167 37.088388,32 37.088388,32 L 22.160133,31.978069 C 22.160133,31.978069 26.997745,27.140456 26.997745,27.140456 C 18.528582,18.264221 13.291696,25.230495 11.500037,31.436501 z"
     style="fill:#404040;"/>
  </a>
 </g>
</svg>

<style type='text/css'>
<![CDATA[
[data-mouse-over-selected='false'] { opacity: 0.7; }
[data-mouse-over-selected='true']  { opacity: 1.0; }
]]>
</style>
<script type="application/ecmascript"><![CDATA[
document.addEventListener('DOMContentLoaded', (event) => {
  highlightEdges();
  highlightAdjacentNodes();
});
]]></script>
</svg>
