<?xml version="1.0" encoding="UTF-8" standalone="no"?>
<!DOCTYPE svg PUBLIC "-//W3C//DTD SVG 1.1//EN"
 "http://www.w3.org/Graphics/SVG/1.1/DTD/svg11.dtd">
<!-- Generated by graphviz version 2.43.0 (0)
 -->
<!-- Title: tensor_desc_zero Pages: 1 -->
<svg width="948pt" height="101pt"
 viewBox="0.00 0.00 948.00 101.00" xmlns="http://www.w3.org/2000/svg" xmlns:xlink="http://www.w3.org/1999/xlink">
<g id="graph0" class="graph" transform="scale(1 1) rotate(0) translate(4 97)">
<title>tensor_desc_zero</title>
<!-- Node1 -->
<g id="Node000001" class="node">
<title>Node1</title>
<g id="a_Node000001"><a xlink:title="Zero&#45;initialize a tensor descriptor.">
<polygon fill="#999999" stroke="#666666" points="940,-56 839,-56 839,-37 940,-37 940,-56"/>
<text text-anchor="middle" x="889.5" y="-44" font-family="Helvetica,sans-Serif" font-size="10.00">tensor_desc_zero</text>
</a>
</g>
</g>
<!-- Node2 -->
<g id="Node000002" class="node">
<title>Node2</title>
<g id="a_Node000002"><a xlink:href="tensor__map_8c.html#a180580870bc40b8b36b78f81a1c26178" target="_top" xlink:title="Parse a tensor descriptor object.">
<polygon fill="white" stroke="#666666" points="667,-75 552,-75 552,-56 667,-56 667,-75"/>
<text text-anchor="middle" x="609.5" y="-63" font-family="Helvetica,sans-Serif" font-size="10.00">parse_tensor_object</text>
</a>
</g>
</g>
<!-- Node1&#45;&gt;Node2 -->
<g id="edge1_Node000001_Node000002" class="edge">
<title>Node1&#45;&gt;Node2</title>
<g id="a_edge1_Node000001_Node000002"><a xlink:title=" ">
<path fill="none" stroke="#63b8ff" d="M828.6,-50.59C780.84,-53.86 714.4,-58.4 667.44,-61.61"/>
<polygon fill="#63b8ff" stroke="#63b8ff" points="829.06,-54.07 838.8,-49.9 828.58,-47.09 829.06,-54.07"/>
</a>
</g>
</g>
<!-- Node11 -->
<g id="Node000011" class="node">
<title>Node11</title>
<g id="a_Node000011"><a xlink:href="tensor__map_8c.html#aa6b53de7ce006a1a2877e2b19ad8ce24" target="_top" xlink:title="Free owned fields of a tensor descriptor and reset it.">
<polygon fill="white" stroke="#666666" points="803,-37 703,-37 703,-18 803,-18 803,-37"/>
<text text-anchor="middle" x="753" y="-25" font-family="Helvetica,sans-Serif" font-size="10.00">tensor_desc_free</text>
</a>
</g>
</g>
<!-- Node1&#45;&gt;Node11 -->
<g id="edge11_Node000001_Node000011" class="edge">
<title>Node1&#45;&gt;Node11</title>
<g id="a_edge11_Node000001_Node000011"><a xlink:title=" ">
<path fill="none" stroke="#63b8ff" d="M828.8,-38.07C820.19,-36.85 811.42,-35.61 803.05,-34.43"/>
<polygon fill="#63b8ff" stroke="#63b8ff" points="828.41,-41.55 838.8,-39.48 829.39,-34.61 828.41,-41.55"/>
</a>
</g>
</g>
<!-- Node3 -->
<g id="Node000003" class="node">
<title>Node3</title>
<g id="a_Node000003"><a xlink:href="tensor__map_8c.html#ac4b913e2710929070b5b073b4b67b24c" target="_top" xlink:title="Load tensor_map.json from disk.">
<polygon fill="white" stroke="#666666" points="516,-56 415,-56 415,-37 516,-37 516,-56"/>
<text text-anchor="middle" x="465.5" y="-44" font-family="Helvetica,sans-Serif" font-size="10.00">tensor_map_load</text>
</a>
</g>
</g>
<!-- Node2&#45;&gt;Node3 -->
<g id="edge2_Node000002_Node000003" class="edge">
<title>Node2&#45;&gt;Node3</title>
<g id="a_edge2_Node000002_Node000003"><a xlink:title=" ">
<path fill="none" stroke="#63b8ff" d="M541.95,-56.6C533.35,-55.45 524.67,-54.28 516.41,-53.18"/>
<polygon fill="#63b8ff" stroke="#63b8ff" points="541.59,-60.08 551.97,-57.94 542.52,-53.14 541.59,-60.08"/>
</a>
</g>
</g>
<!-- Node4 -->
<g id="Node000004" class="node">
<title>Node4</title>
<g id="a_Node000004"><a xlink:href="gptoss__weights__index_8c.html#ab0abbe94d2373ea44d51f2325c7cc46c" target="_top" xlink:title="Open a weights index for a given model directory and weights descriptor.">
<polygon fill="white" stroke="#666666" points="379,-93 225,-93 225,-74 379,-74 379,-93"/>
<text text-anchor="middle" x="302" y="-81" font-family="Helvetica,sans-Serif" font-size="10.00">gptoss_weights_index_open</text>
</a>
</g>
</g>
<!-- Node3&#45;&gt;Node4 -->
<g id="edge3_Node000003_Node000004" class="edge">
<title>Node3&#45;&gt;Node4</title>
<g id="a_edge3_Node000003_Node000004"><a xlink:title=" ">
<path fill="none" stroke="#63b8ff" d="M413.05,-58.29C391,-63.34 365.58,-69.16 344.73,-73.94"/>
<polygon fill="#63b8ff" stroke="#63b8ff" points="413.94,-61.67 422.91,-56.03 412.38,-54.85 413.94,-61.67"/>
</a>
</g>
</g>
<!-- Node5 -->
<g id="Node000005" class="node">
<title>Node5</title>
<g id="a_Node000005"><a xlink:href="infer__gptoss_8c.html#a1eb484ef476fc9b7a44d3819959fb307" target="_top" xlink:title="Create an inference context.">
<polygon fill="white" stroke="#666666" points="365.5,-19 238.5,-19 238.5,0 365.5,0 365.5,-19"/>
<text text-anchor="middle" x="302" y="-7" font-family="Helvetica,sans-Serif" font-size="10.00">ie_gptoss_infer_create</text>
</a>
</g>
</g>
<!-- Node3&#45;&gt;Node5 -->
<g id="edge4_Node000003_Node000005" class="edge">
<title>Node3&#45;&gt;Node5</title>
<g id="a_edge4_Node000003_Node000005"><a xlink:title=" ">
<path fill="none" stroke="#63b8ff" d="M413.05,-34.71C391,-29.66 365.58,-23.84 344.73,-19.06"/>
<polygon fill="#63b8ff" stroke="#63b8ff" points="412.38,-38.15 422.91,-36.97 413.94,-31.33 412.38,-38.15"/>
</a>
</g>
</g>
<!-- Node10 -->
<g id="Node000010" class="node">
<title>Node10</title>
<g id="a_Node000010"><a xlink:href="ie__api_8c.html#a037b105c112037bdbc1725c6c88fd1ff" target="_top" xlink:title=" ">
<polygon fill="white" stroke="#666666" points="376,-56 228,-56 228,-37 376,-37 376,-56"/>
<text text-anchor="middle" x="302" y="-44" font-family="Helvetica,sans-Serif" font-size="10.00">maybe_correct_head_dim_</text>
</a>
</g>
</g>
<!-- Node3&#45;&gt;Node10 -->
<g id="edge9_Node000003_Node000010" class="edge">
<title>Node3&#45;&gt;Node10</title>
<g id="a_edge9_Node000003_Node000010"><a xlink:title=" ">
<path fill="none" stroke="#63b8ff" d="M404.47,-46.5C395.21,-46.5 385.56,-46.5 376.06,-46.5"/>
<polygon fill="#63b8ff" stroke="#63b8ff" points="404.73,-50 414.73,-46.5 404.73,-43 404.73,-50"/>
</a>
</g>
</g>
<!-- Node6 -->
<g id="Node000006" class="node">
<title>Node6</title>
<g id="a_Node000006"><a xlink:href="ie__api_8c.html#a84bd87043352946e9d53b0f8a5c4abe0" target="_top" xlink:title="Create an engine instance.">
<polygon fill="white" stroke="#666666" points="183,-56 83,-56 83,-37 183,-37 183,-56"/>
<text text-anchor="middle" x="133" y="-44" font-family="Helvetica,sans-Serif" font-size="10.00">ie_engine_create</text>
</a>
</g>
</g>
<!-- Node5&#45;&gt;Node6 -->
<g id="edge5_Node000005_Node000006" class="edge">
<title>Node5&#45;&gt;Node6</title>
<g id="a_edge5_Node000005_Node000006"><a xlink:title=" ">
<path fill="none" stroke="#63b8ff" d="M248.1,-21.22C225.23,-26.29 198.81,-32.14 177.15,-36.94"/>
<polygon fill="#63b8ff" stroke="#63b8ff" points="248.99,-24.61 257.99,-19.03 247.47,-17.77 248.99,-24.61"/>
</a>
</g>
</g>
<!-- Node9 -->
<g id="Node000009" class="node">
<title>Node9</title>
<g id="a_Node000009"><a xlink:href="generate__gptoss_8c.html#a69606d6441b5c86670cfcc955721a308" target="_top" xlink:title="Generate up to max_new tokens for a prompt string using GPT&#45;OSS.">
<polygon fill="white" stroke="#666666" points="189,-19 77,-19 77,0 189,0 189,-19"/>
<text text-anchor="middle" x="133" y="-7" font-family="Helvetica,sans-Serif" font-size="10.00">ie_generate_gptoss</text>
</a>
</g>
</g>
<!-- Node5&#45;&gt;Node9 -->
<g id="edge8_Node000005_Node000009" class="edge">
<title>Node5&#45;&gt;Node9</title>
<g id="a_edge8_Node000005_Node000009"><a xlink:title=" ">
<path fill="none" stroke="#63b8ff" d="M227.97,-9.5C214.91,-9.5 201.5,-9.5 189.05,-9.5"/>
<polygon fill="#63b8ff" stroke="#63b8ff" points="228.34,-13 238.34,-9.5 228.34,-6 228.34,-13"/>
</a>
</g>
</g>
<!-- Node7 -->
<g id="Node000007" class="node">
<title>Node7</title>
<g id="a_Node000007"><a xlink:href="main__infer_8c.html#a3c04138a5bfe5d72780bb7e82a18e627" target="_top" xlink:title="main.">
<polygon fill="white" stroke="#666666" points="41,-75 0,-75 0,-56 41,-56 41,-75"/>
<text text-anchor="middle" x="20.5" y="-63" font-family="Helvetica,sans-Serif" font-size="10.00">main</text>
</a>
</g>
</g>
<!-- Node6&#45;&gt;Node7 -->
<g id="edge6_Node000006_Node000007" class="edge">
<title>Node6&#45;&gt;Node7</title>
<g id="a_edge6_Node000006_Node000007"><a xlink:title=" ">
<path fill="none" stroke="#63b8ff" d="M72.82,-56.68C61.37,-58.64 50.14,-60.57 41.13,-62.13"/>
<polygon fill="#63b8ff" stroke="#63b8ff" points="73.63,-60.09 82.89,-54.94 72.44,-53.19 73.63,-60.09"/>
</a>
</g>
</g>
<!-- Node8 -->
<g id="Node000008" class="node">
<title>Node8</title>
<g id="a_Node000008"><a xlink:href="test__api_8c.html#a840291bc02cba5474a4cb46a9b9566fe" target="_top" xlink:title=" ">
<polygon fill="white" stroke="#666666" points="41,-38 0,-38 0,-19 41,-19 41,-38"/>
<text text-anchor="middle" x="20.5" y="-26" font-family="Helvetica,sans-Serif" font-size="10.00">main</text>
</a>
</g>
</g>
<!-- Node6&#45;&gt;Node8 -->
<g id="edge7_Node000006_Node000008" class="edge">
<title>Node6&#45;&gt;Node8</title>
<g id="a_edge7_Node000006_Node000008"><a xlink:title=" ">
<path fill="none" stroke="#63b8ff" d="M72.82,-36.86C61.37,-34.99 50.14,-33.17 41.13,-31.7"/>
<polygon fill="#63b8ff" stroke="#63b8ff" points="72.46,-40.35 82.89,-38.5 73.58,-33.44 72.46,-40.35"/>
</a>
</g>
</g>
<!-- Node10&#45;&gt;Node6 -->
<g id="edge10_Node000010_Node000006" class="edge">
<title>Node10&#45;&gt;Node6</title>
<g id="a_edge10_Node000010_Node000006"><a xlink:title=" ">
<path fill="none" stroke="#63b8ff" d="M217.46,-46.5C205.72,-46.5 193.99,-46.5 183.18,-46.5"/>
<polygon fill="#63b8ff" stroke="#63b8ff" points="217.75,-50 227.75,-46.5 217.75,-43 217.75,-50"/>
</a>
</g>
</g>
<!-- Node11&#45;&gt;Node2 -->
<g id="edge12_Node000011_Node000002" class="edge">
<title>Node11&#45;&gt;Node2</title>
<g id="a_edge12_Node000011_Node000002"><a xlink:title=" ">
<path fill="none" stroke="#63b8ff" d="M706.4,-39.75C686.89,-44.98 664.46,-51.01 646.2,-55.91"/>
<polygon fill="#63b8ff" stroke="#63b8ff" points="707.54,-43.06 716.29,-37.09 705.73,-36.3 707.54,-43.06"/>
</a>
</g>
</g>
<!-- Node11&#45;&gt;Node3 -->
<g id="edge13_Node000011_Node000003" class="edge">
<title>Node11&#45;&gt;Node3</title>
<g id="a_edge13_Node000011_Node000003"><a xlink:title=" ">
<path fill="none" stroke="#63b8ff" d="M692.81,-31.44C640.66,-34.91 565.53,-39.91 516.37,-43.18"/>
<polygon fill="#63b8ff" stroke="#63b8ff" points="693.18,-34.92 702.92,-30.77 692.71,-27.94 693.18,-34.92"/>
</a>
</g>
</g>
</g>
</svg>
