<?xml version="1.0" encoding="UTF-8" standalone="no"?>
<!DOCTYPE svg PUBLIC "-//W3C//DTD SVG 1.1//EN"
 "http://www.w3.org/Graphics/SVG/1.1/DTD/svg11.dtd">
<!-- Generated by graphviz version 2.43.0 (0)
 -->
<!-- Title: is_space_byte_ Pages: 1 -->
<svg width="299pt" height="27pt"
 viewBox="0.00 0.00 299.00 27.00" xmlns="http://www.w3.org/2000/svg" xmlns:xlink="http://www.w3.org/1999/xlink">
<g id="graph0" class="graph" transform="scale(1 1) rotate(0) translate(4 23)">
<title>is_space_byte_</title>
<!-- Node1 -->
<g id="Node000001" class="node">
<title>Node1</title>
<g id="a_Node000001"><a xlink:title="Return 1 if c is ASCII whitespace, 0 otherwise.">
<polygon fill="#999999" stroke="#666666" points="291,-19 200,-19 200,0 291,0 291,-19"/>
<text text-anchor="middle" x="245.5" y="-7" font-family="Helvetica,sans-Serif" font-size="10.00">is_space_byte_</text>
</a>
</g>
</g>
<!-- Node2 -->
<g id="Node000002" class="node">
<title>Node2</title>
<g id="a_Node000002"><a xlink:href="tokenizer_8c.html#a2b9cb342eb062867f93fb786548003f7" target="_top" xlink:title="Encode UTF&#45;8 text into token IDs (stub implementation).">
<polygon fill="white" stroke="#666666" points="164,-19 77,-19 77,0 164,0 164,-19"/>
<text text-anchor="middle" x="120.5" y="-7" font-family="Helvetica,sans-Serif" font-size="10.00">ie_tok_encode</text>
</a>
</g>
</g>
<!-- Node1&#45;&gt;Node2 -->
<g id="edge1_Node000001_Node000002" class="edge">
<title>Node1&#45;&gt;Node2</title>
<g id="a_edge1_Node000001_Node000002"><a xlink:title=" ">
<path fill="none" stroke="#63b8ff" d="M189.57,-9.5C181.12,-9.5 172.51,-9.5 164.37,-9.5"/>
<polygon fill="#63b8ff" stroke="#63b8ff" points="189.75,-13 199.75,-9.5 189.75,-6 189.75,-13"/>
</a>
</g>
</g>
<!-- Node3 -->
<g id="Node000003" class="node">
<title>Node3</title>
<g id="a_Node000003"><a xlink:href="test__tokenizer_8c.html#a840291bc02cba5474a4cb46a9b9566fe" target="_top" xlink:title="Program entrypoint for tokenizer tests.">
<polygon fill="white" stroke="#666666" points="41,-19 0,-19 0,0 41,0 41,-19"/>
<text text-anchor="middle" x="20.5" y="-7" font-family="Helvetica,sans-Serif" font-size="10.00">main</text>
</a>
</g>
</g>
<!-- Node2&#45;&gt;Node3 -->
<g id="edge2_Node000002_Node000003" class="edge">
<title>Node2&#45;&gt;Node3</title>
<g id="a_edge2_Node000002_Node000003"><a xlink:title=" ">
<path fill="none" stroke="#63b8ff" d="M66.8,-9.5C57.59,-9.5 48.55,-9.5 41,-9.5"/>
<polygon fill="#63b8ff" stroke="#63b8ff" points="66.8,-13 76.8,-9.5 66.8,-6 66.8,-13"/>
</a>
</g>
</g>
</g>
</svg>
