<?xml version="1.0" encoding="UTF-8" standalone="no"?>
<!DOCTYPE svg PUBLIC "-//W3C//DTD SVG 1.1//EN"
 "http://www.w3.org/Graphics/SVG/1.1/DTD/svg11.dtd">
<!-- Generated by graphviz version 2.43.0 (0)
 -->
<!-- Title: compute_first_cpu_per_socket Pages: 1 -->
<svg width="343pt" height="38pt"
 viewBox="0.00 0.00 343.00 38.00" xmlns="http://www.w3.org/2000/svg" xmlns:xlink="http://www.w3.org/1999/xlink">
<g id="graph0" class="graph" transform="scale(1 1) rotate(0) translate(4 34)">
<title>compute_first_cpu_per_socket</title>
<!-- Node1 -->
<g id="Node000001" class="node">
<title>Node1</title>
<g id="a_Node000001"><a xlink:title="Compute a small representative CPU per socket.">
<polygon fill="#999999" stroke="#666666" points="335,-30 208,-30 208,0 335,0 335,-30"/>
<text text-anchor="start" x="216" y="-18" font-family="Helvetica,sans-Serif" font-size="10.00">compute_first_cpu_per</text>
<text text-anchor="middle" x="271.5" y="-7" font-family="Helvetica,sans-Serif" font-size="10.00">_socket</text>
</a>
</g>
</g>
<!-- Node2 -->
<g id="Node000002" class="node">
<title>Node2</title>
<g id="a_Node000002"><a xlink:href="topology_8c.html#ac815c843afc15cc695c8e8a1c3b26044" target="_top" xlink:title="Initialize and build a topology handle.">
<polygon fill="white" stroke="#666666" points="172,-24.5 77,-24.5 77,-5.5 172,-5.5 172,-24.5"/>
<text text-anchor="middle" x="124.5" y="-12.5" font-family="Helvetica,sans-Serif" font-size="10.00">ie_topology_init</text>
</a>
</g>
</g>
<!-- Node1&#45;&gt;Node2 -->
<g id="edge1_Node000001_Node000002" class="edge">
<title>Node1&#45;&gt;Node2</title>
<g id="a_edge1_Node000001_Node000002"><a xlink:title=" ">
<path fill="none" stroke="#63b8ff" d="M197.61,-15C188.96,-15 180.32,-15 172.17,-15"/>
<polygon fill="#63b8ff" stroke="#63b8ff" points="197.74,-18.5 207.74,-15 197.74,-11.5 197.74,-18.5"/>
</a>
</g>
</g>
<!-- Node3 -->
<g id="Node000003" class="node">
<title>Node3</title>
<g id="a_Node000003"><a xlink:href="test__topology_8c.html#a840291bc02cba5474a4cb46a9b9566fe" target="_top" xlink:title="Main test entry: build topology, print, and basic assertions.">
<polygon fill="white" stroke="#666666" points="41,-24.5 0,-24.5 0,-5.5 41,-5.5 41,-24.5"/>
<text text-anchor="middle" x="20.5" y="-12.5" font-family="Helvetica,sans-Serif" font-size="10.00">main</text>
</a>
</g>
</g>
<!-- Node2&#45;&gt;Node3 -->
<g id="edge2_Node000002_Node000003" class="edge">
<title>Node2&#45;&gt;Node3</title>
<g id="a_edge2_Node000002_Node000003"><a xlink:title=" ">
<path fill="none" stroke="#63b8ff" d="M66.91,-15C57.67,-15 48.67,-15 41.16,-15"/>
<polygon fill="#63b8ff" stroke="#63b8ff" points="66.98,-18.5 76.98,-15 66.98,-11.5 66.98,-18.5"/>
</a>
</g>
</g>
</g>
</svg>
