<?xml version="1.0" encoding="UTF-8" standalone="no"?>
<!DOCTYPE svg PUBLIC "-//W3C//DTD SVG 1.1//EN"
 "http://www.w3.org/Graphics/SVG/1.1/DTD/svg11.dtd">
<!-- Generated by graphviz version 12.2.1 (20241206.2353)
 -->
<!-- Title: engine/src/util_metrics.c Pages: 1 -->
<svg width="769pt" height="199pt"
 viewBox="0.00 0.00 768.75 199.00" xmlns="http://www.w3.org/2000/svg" xmlns:xlink="http://www.w3.org/1999/xlink">
<g id="graph0" class="graph" transform="scale(1 1) rotate(0) translate(4 195)">
<title>engine/src/util_metrics.c</title>
<!-- Node1 -->
<g id="Node000001" class="node">
<title>Node1</title>
<g id="a_Node000001"><a xlink:title="Implementation of runtime metrics (KV counters + RSS sampling).">
<polygon fill="#999999" stroke="#666666" points="444.12,-191 308.88,-191 308.88,-170.25 444.12,-170.25 444.12,-191"/>
<text text-anchor="middle" x="376.5" y="-177.5" font-family="Helvetica,sans-Serif" font-size="10.00">engine/src/util_metrics.c</text>
</a>
</g>
</g>
<!-- Node2 -->
<g id="Node000002" class="node">
<title>Node2</title>
<g id="a_Node000002"><a xlink:href="util__metrics_8h.html" target="_top" xlink:title="Public helpers for runtime metrics (KV counters + RSS sampling).">
<polygon fill="white" stroke="#666666" points="100.88,-134.25 18.12,-134.25 18.12,-113.5 100.88,-113.5 100.88,-134.25"/>
<text text-anchor="middle" x="59.5" y="-120.75" font-family="Helvetica,sans-Serif" font-size="10.00">util_metrics.h</text>
</a>
</g>
</g>
<!-- Node1&#45;&gt;Node2 -->
<g id="edge1_Node000001_Node000002" class="edge">
<title>Node1&#45;&gt;Node2</title>
<g id="a_edge1_Node000001_Node000002"><a xlink:title=" ">
<path fill="none" stroke="#63b8ff" d="M319.46,-169.77C260.59,-159.61 169.51,-143.88 112.26,-133.99"/>
<polygon fill="#63b8ff" stroke="#63b8ff" points="112.88,-130.54 102.43,-132.29 111.69,-137.44 112.88,-130.54"/>
</a>
</g>
</g>
<!-- Node3 -->
<g id="Node000003" class="node">
<title>Node3</title>
<g id="a_Node000003"><a xlink:title=" ">
<polygon fill="#e0e0e0" stroke="#999999" points="125.88,-20.75 73.12,-20.75 73.12,0 125.88,0 125.88,-20.75"/>
<text text-anchor="middle" x="99.5" y="-7.25" font-family="Helvetica,sans-Serif" font-size="10.00">stdint.h</text>
</a>
</g>
</g>
<!-- Node1&#45;&gt;Node3 -->
<g id="edge7_Node000001_Node000003" class="edge">
<title>Node1&#45;&gt;Node3</title>
<g id="a_edge7_Node000001_Node000003"><a xlink:title=" ">
<path fill="none" stroke="#63b8ff" d="M308.65,-173.39C250.2,-166.75 171.55,-154.38 147.5,-134.25 116.59,-108.37 105.49,-59.98 101.58,-32.27"/>
<polygon fill="#63b8ff" stroke="#63b8ff" points="105.09,-32.17 100.42,-22.66 98.14,-33.01 105.09,-32.17"/>
</a>
</g>
</g>
<!-- Node6 -->
<g id="Node000006" class="node">
<title>Node6</title>
<g id="a_Node000006"><a xlink:title=" ">
<polygon fill="#e0e0e0" stroke="#999999" points="230.38,-134.25 156.62,-134.25 156.62,-113.5 230.38,-113.5 230.38,-134.25"/>
<text text-anchor="middle" x="193.5" y="-120.75" font-family="Helvetica,sans-Serif" font-size="10.00">stdatomic.h</text>
</a>
</g>
</g>
<!-- Node1&#45;&gt;Node6 -->
<g id="edge6_Node000001_Node000006" class="edge">
<title>Node1&#45;&gt;Node6</title>
<g id="a_edge6_Node000001_Node000006"><a xlink:title=" ">
<path fill="none" stroke="#63b8ff" d="M343.78,-169.84C313.95,-160.91 269.66,-147.66 236.88,-137.85"/>
<polygon fill="#63b8ff" stroke="#63b8ff" points="238.28,-134.62 227.69,-135.1 236.27,-141.32 238.28,-134.62"/>
</a>
</g>
</g>
<!-- Node7 -->
<g id="Node000007" class="node">
<title>Node7</title>
<g id="a_Node000007"><a xlink:title=" ">
<polygon fill="#e0e0e0" stroke="#999999" points="297,-134.25 248,-134.25 248,-113.5 297,-113.5 297,-134.25"/>
<text text-anchor="middle" x="272.5" y="-120.75" font-family="Helvetica,sans-Serif" font-size="10.00">stdio.h</text>
</a>
</g>
</g>
<!-- Node1&#45;&gt;Node7 -->
<g id="edge8_Node000001_Node000007" class="edge">
<title>Node1&#45;&gt;Node7</title>
<g id="a_edge8_Node000001_Node000007"><a xlink:title=" ">
<path fill="none" stroke="#63b8ff" d="M357.91,-169.84C342.08,-161.51 319.1,-149.41 300.96,-139.86"/>
<polygon fill="#63b8ff" stroke="#63b8ff" points="302.75,-136.84 292.27,-135.28 299.49,-143.04 302.75,-136.84"/>
</a>
</g>
</g>
<!-- Node8 -->
<g id="Node000008" class="node">
<title>Node8</title>
<g id="a_Node000008"><a xlink:title=" ">
<polygon fill="#e0e0e0" stroke="#999999" points="367.88,-134.25 315.12,-134.25 315.12,-113.5 367.88,-113.5 367.88,-134.25"/>
<text text-anchor="middle" x="341.5" y="-120.75" font-family="Helvetica,sans-Serif" font-size="10.00">string.h</text>
</a>
</g>
</g>
<!-- Node1&#45;&gt;Node8 -->
<g id="edge9_Node000001_Node000008" class="edge">
<title>Node1&#45;&gt;Node8</title>
<g id="a_edge9_Node000001_Node000008"><a xlink:title=" ">
<path fill="none" stroke="#63b8ff" d="M370.24,-169.84C365.66,-162.67 359.3,-152.73 353.73,-144.01"/>
<polygon fill="#63b8ff" stroke="#63b8ff" points="356.85,-142.39 348.52,-135.85 350.96,-146.16 356.85,-142.39"/>
</a>
</g>
</g>
<!-- Node9 -->
<g id="Node000009" class="node">
<title>Node9</title>
<g id="a_Node000009"><a xlink:title=" ">
<polygon fill="#e0e0e0" stroke="#999999" points="436.75,-134.25 386.25,-134.25 386.25,-113.5 436.75,-113.5 436.75,-134.25"/>
<text text-anchor="middle" x="411.5" y="-120.75" font-family="Helvetica,sans-Serif" font-size="10.00">errno.h</text>
</a>
</g>
</g>
<!-- Node1&#45;&gt;Node9 -->
<g id="edge10_Node000001_Node000009" class="edge">
<title>Node1&#45;&gt;Node9</title>
<g id="a_edge10_Node000001_Node000009"><a xlink:title=" ">
<path fill="none" stroke="#63b8ff" d="M382.76,-169.84C387.34,-162.67 393.7,-152.73 399.27,-144.01"/>
<polygon fill="#63b8ff" stroke="#63b8ff" points="402.04,-146.16 404.48,-135.85 396.15,-142.39 402.04,-146.16"/>
</a>
</g>
</g>
<!-- Node10 -->
<g id="Node000010" class="node">
<title>Node10</title>
<g id="a_Node000010"><a xlink:title=" ">
<polygon fill="#e0e0e0" stroke="#999999" points="506.5,-134.25 454.5,-134.25 454.5,-113.5 506.5,-113.5 506.5,-134.25"/>
<text text-anchor="middle" x="480.5" y="-120.75" font-family="Helvetica,sans-Serif" font-size="10.00">stdlib.h</text>
</a>
</g>
</g>
<!-- Node1&#45;&gt;Node10 -->
<g id="edge11_Node000001_Node000010" class="edge">
<title>Node1&#45;&gt;Node10</title>
<g id="a_edge11_Node000001_Node000010"><a xlink:title=" ">
<path fill="none" stroke="#63b8ff" d="M395.09,-169.84C410.92,-161.51 433.9,-149.41 452.04,-139.86"/>
<polygon fill="#63b8ff" stroke="#63b8ff" points="453.51,-143.04 460.73,-135.28 450.25,-136.84 453.51,-143.04"/>
</a>
</g>
</g>
<!-- Node11 -->
<g id="Node000011" class="node">
<title>Node11</title>
<g id="a_Node000011"><a xlink:title=" ">
<polygon fill="#e0e0e0" stroke="#999999" points="580.38,-134.25 524.62,-134.25 524.62,-113.5 580.38,-113.5 580.38,-134.25"/>
<text text-anchor="middle" x="552.5" y="-120.75" font-family="Helvetica,sans-Serif" font-size="10.00">stdarg.h</text>
</a>
</g>
</g>
<!-- Node1&#45;&gt;Node11 -->
<g id="edge12_Node000001_Node000011" class="edge">
<title>Node1&#45;&gt;Node11</title>
<g id="a_edge12_Node000001_Node000011"><a xlink:title=" ">
<path fill="none" stroke="#63b8ff" d="M407.97,-169.84C437.51,-160.65 481.79,-146.87 513.55,-136.99"/>
<polygon fill="#63b8ff" stroke="#63b8ff" points="514.26,-140.44 522.77,-134.12 512.18,-133.75 514.26,-140.44"/>
</a>
</g>
</g>
<!-- Node12 -->
<g id="Node000012" class="node">
<title>Node12</title>
<g id="a_Node000012"><a xlink:title=" ">
<polygon fill="#e0e0e0" stroke="#999999" points="656.5,-134.25 598.5,-134.25 598.5,-113.5 656.5,-113.5 656.5,-134.25"/>
<text text-anchor="middle" x="627.5" y="-120.75" font-family="Helvetica,sans-Serif" font-size="10.00">strings.h</text>
</a>
</g>
</g>
<!-- Node1&#45;&gt;Node12 -->
<g id="edge13_Node000001_Node000012" class="edge">
<title>Node1&#45;&gt;Node12</title>
<g id="a_edge13_Node000001_Node000012"><a xlink:title=" ">
<path fill="none" stroke="#63b8ff" d="M424.82,-169.79C465.6,-161.39 525.82,-148.74 587.03,-134.77"/>
<polygon fill="#63b8ff" stroke="#63b8ff" points="587.62,-138.22 596.59,-132.57 586.06,-131.4 587.62,-138.22"/>
</a>
</g>
</g>
<!-- Node13 -->
<g id="Node000013" class="node">
<title>Node13</title>
<g id="a_Node000013"><a xlink:title=" ">
<polygon fill="#e0e0e0" stroke="#999999" points="760.75,-134.25 674.25,-134.25 674.25,-113.5 760.75,-113.5 760.75,-134.25"/>
<text text-anchor="middle" x="717.5" y="-120.75" font-family="Helvetica,sans-Serif" font-size="10.00">sys/resource.h</text>
</a>
</g>
</g>
<!-- Node1&#45;&gt;Node13 -->
<g id="edge14_Node000001_Node000013" class="edge">
<title>Node1&#45;&gt;Node13</title>
<g id="a_edge14_Node000001_Node000013"><a xlink:title=" ">
<path fill="none" stroke="#63b8ff" d="M441.99,-169.77C498.09,-161.24 581.35,-148.34 662.85,-134.67"/>
<polygon fill="#63b8ff" stroke="#63b8ff" points="663.05,-138.19 672.33,-133.08 661.89,-131.28 663.05,-138.19"/>
</a>
</g>
</g>
<!-- Node2&#45;&gt;Node3 -->
<g id="edge2_Node000002_Node000003" class="edge">
<title>Node2&#45;&gt;Node3</title>
<g id="a_edge2_Node000002_Node000003"><a xlink:title=" ">
<path fill="none" stroke="#63b8ff" d="M62.91,-113.37C69.34,-95.44 83.4,-56.25 92.1,-32.01"/>
<polygon fill="#63b8ff" stroke="#63b8ff" points="95.39,-33.19 95.47,-22.6 88.8,-30.83 95.39,-33.19"/>
</a>
</g>
</g>
<!-- Node4 -->
<g id="Node000004" class="node">
<title>Node4</title>
<g id="a_Node000004"><a xlink:href="ie__api_8h.html" target="_top" xlink:title="Public C API for the inference engine (minimal surface used by CLI/tests).">
<polygon fill="white" stroke="#666666" points="62.62,-77.5 8.38,-77.5 8.38,-56.75 62.62,-56.75 62.62,-77.5"/>
<text text-anchor="middle" x="35.5" y="-64" font-family="Helvetica,sans-Serif" font-size="10.00">ie_api.h</text>
</a>
</g>
</g>
<!-- Node2&#45;&gt;Node4 -->
<g id="edge3_Node000002_Node000004" class="edge">
<title>Node2&#45;&gt;Node4</title>
<g id="a_edge3_Node000002_Node000004"><a xlink:title=" ">
<path fill="none" stroke="#63b8ff" d="M55.21,-113.09C52.17,-106.16 47.99,-96.62 44.26,-88.11"/>
<polygon fill="#63b8ff" stroke="#63b8ff" points="47.58,-86.97 40.36,-79.21 41.17,-89.78 47.58,-86.97"/>
</a>
</g>
</g>
<!-- Node4&#45;&gt;Node3 -->
<g id="edge5_Node000004_Node000003" class="edge">
<title>Node4&#45;&gt;Node3</title>
<g id="a_edge5_Node000004_Node000003"><a xlink:title=" ">
<path fill="none" stroke="#63b8ff" d="M46.94,-56.34C55.95,-48.63 68.73,-37.7 79.43,-28.54"/>
<polygon fill="#63b8ff" stroke="#63b8ff" points="81.68,-31.22 87.01,-22.06 77.13,-25.9 81.68,-31.22"/>
</a>
</g>
</g>
<!-- Node5 -->
<g id="Node000005" class="node">
<title>Node5</title>
<g id="a_Node000005"><a xlink:title=" ">
<polygon fill="#e0e0e0" stroke="#999999" points="55,-20.75 0,-20.75 0,0 55,0 55,-20.75"/>
<text text-anchor="middle" x="27.5" y="-7.25" font-family="Helvetica,sans-Serif" font-size="10.00">stddef.h</text>
</a>
</g>
</g>
<!-- Node4&#45;&gt;Node5 -->
<g id="edge4_Node000004_Node000005" class="edge">
<title>Node4&#45;&gt;Node5</title>
<g id="a_edge4_Node000004_Node000005"><a xlink:title=" ">
<path fill="none" stroke="#63b8ff" d="M34.07,-56.34C33.09,-49.64 31.76,-40.51 30.55,-32.23"/>
<polygon fill="#63b8ff" stroke="#63b8ff" points="34.05,-31.96 29.14,-22.58 27.12,-32.98 34.05,-31.96"/>
</a>
</g>
</g>
</g>
</svg>
