<?xml version="1.0" encoding="UTF-8" standalone="no"?>
<!DOCTYPE svg PUBLIC "-//W3C//DTD SVG 1.1//EN"
 "http://www.w3.org/Graphics/SVG/1.1/DTD/svg11.dtd">
<!-- Generated by graphviz version 12.2.1 (20241206.2353)
 -->
<!-- Title: engine/src/util_metrics.c Pages: 1 -->
<svg width="525pt" height="142pt"
 viewBox="0.00 0.00 525.25 142.25" xmlns="http://www.w3.org/2000/svg" xmlns:xlink="http://www.w3.org/1999/xlink">
<g id="graph0" class="graph" transform="scale(1 1) rotate(0) translate(4 138.25)">
<title>engine/src/util_metrics.c</title>
<!-- Node1 -->
<g id="Node000001" class="node">
<title>Node1</title>
<g id="a_Node000001"><a xlink:title="Implementation of runtime metrics (KV counters + RSS sampling).">
<polygon fill="#999999" stroke="#666666" points="315.62,-134.25 180.38,-134.25 180.38,-113.5 315.62,-113.5 315.62,-134.25"/>
<text text-anchor="middle" x="248" y="-120.75" font-family="Helvetica,sans-Serif" font-size="10.00">engine/src/util_metrics.c</text>
</a>
</g>
</g>
<!-- Node2 -->
<g id="Node000002" class="node">
<title>Node2</title>
<g id="a_Node000002"><a xlink:href="ie__metrics_8h.html" target="_top" xlink:title="Public API for runtime metrics (KV cache and memory/RSS sampling).">
<polygon fill="white" stroke="#666666" points="76,-77.5 0,-77.5 0,-56.75 76,-56.75 76,-77.5"/>
<text text-anchor="middle" x="38" y="-64" font-family="Helvetica,sans-Serif" font-size="10.00">ie_metrics.h</text>
</a>
</g>
</g>
<!-- Node1&#45;&gt;Node2 -->
<g id="edge1_Node000001_Node000002" class="edge">
<title>Node1&#45;&gt;Node2</title>
<g id="a_edge1_Node000001_Node000002"><a xlink:title=" ">
<path fill="none" stroke="#63b8ff" d="M210.46,-113.09C175.77,-104.04 124.06,-90.56 86.31,-80.72"/>
<polygon fill="#63b8ff" stroke="#63b8ff" points="87.6,-77.44 77.04,-78.3 85.83,-84.21 87.6,-77.44"/>
</a>
</g>
</g>
<!-- Node3 -->
<g id="Node000003" class="node">
<title>Node3</title>
<g id="a_Node000003"><a xlink:title=" ">
<polygon fill="#e0e0e0" stroke="#999999" points="97.38,-20.75 44.62,-20.75 44.62,0 97.38,0 97.38,-20.75"/>
<text text-anchor="middle" x="71" y="-7.25" font-family="Helvetica,sans-Serif" font-size="10.00">stdint.h</text>
</a>
</g>
</g>
<!-- Node1&#45;&gt;Node3 -->
<g id="edge4_Node000001_Node000003" class="edge">
<title>Node1&#45;&gt;Node3</title>
<g id="a_edge4_Node000001_Node000003"><a xlink:title=" ">
<path fill="none" stroke="#63b8ff" d="M202.86,-113.01C177.7,-105.99 146.76,-94.69 123,-77.5 105.67,-64.96 91.15,-45.13 81.9,-30.45"/>
<polygon fill="#63b8ff" stroke="#63b8ff" points="85.06,-28.91 76.9,-22.15 79.06,-32.52 85.06,-28.91"/>
</a>
</g>
</g>
<!-- Node4 -->
<g id="Node000004" class="node">
<title>Node4</title>
<g id="a_Node000004"><a xlink:title=" ">
<polygon fill="#e0e0e0" stroke="#999999" points="205.88,-77.5 132.12,-77.5 132.12,-56.75 205.88,-56.75 205.88,-77.5"/>
<text text-anchor="middle" x="169" y="-64" font-family="Helvetica,sans-Serif" font-size="10.00">stdatomic.h</text>
</a>
</g>
</g>
<!-- Node1&#45;&gt;Node4 -->
<g id="edge3_Node000001_Node000004" class="edge">
<title>Node1&#45;&gt;Node4</title>
<g id="a_edge3_Node000001_Node000004"><a xlink:title=" ">
<path fill="none" stroke="#63b8ff" d="M233.88,-113.09C222.31,-105.07 205.7,-93.56 192.18,-84.19"/>
<polygon fill="#63b8ff" stroke="#63b8ff" points="194.46,-81.51 184.25,-78.69 190.47,-87.26 194.46,-81.51"/>
</a>
</g>
</g>
<!-- Node5 -->
<g id="Node000005" class="node">
<title>Node5</title>
<g id="a_Node000005"><a xlink:title=" ">
<polygon fill="#e0e0e0" stroke="#999999" points="272.5,-77.5 223.5,-77.5 223.5,-56.75 272.5,-56.75 272.5,-77.5"/>
<text text-anchor="middle" x="248" y="-64" font-family="Helvetica,sans-Serif" font-size="10.00">stdio.h</text>
</a>
</g>
</g>
<!-- Node1&#45;&gt;Node5 -->
<g id="edge5_Node000001_Node000005" class="edge">
<title>Node1&#45;&gt;Node5</title>
<g id="a_edge5_Node000001_Node000005"><a xlink:title=" ">
<path fill="none" stroke="#63b8ff" d="M248,-113.09C248,-106.47 248,-97.47 248,-89.27"/>
<polygon fill="#63b8ff" stroke="#63b8ff" points="251.5,-89.34 248,-79.34 244.5,-89.34 251.5,-89.34"/>
</a>
</g>
</g>
<!-- Node6 -->
<g id="Node000006" class="node">
<title>Node6</title>
<g id="a_Node000006"><a xlink:title=" ">
<polygon fill="#e0e0e0" stroke="#999999" points="343.38,-77.5 290.62,-77.5 290.62,-56.75 343.38,-56.75 343.38,-77.5"/>
<text text-anchor="middle" x="317" y="-64" font-family="Helvetica,sans-Serif" font-size="10.00">string.h</text>
</a>
</g>
</g>
<!-- Node1&#45;&gt;Node6 -->
<g id="edge6_Node000001_Node000006" class="edge">
<title>Node1&#45;&gt;Node6</title>
<g id="a_edge6_Node000001_Node000006"><a xlink:title=" ">
<path fill="none" stroke="#63b8ff" d="M260.34,-113.09C270.25,-105.22 284.39,-94 296.06,-84.74"/>
<polygon fill="#63b8ff" stroke="#63b8ff" points="297.93,-87.73 303.59,-78.77 293.58,-82.24 297.93,-87.73"/>
</a>
</g>
</g>
<!-- Node7 -->
<g id="Node000007" class="node">
<title>Node7</title>
<g id="a_Node000007"><a xlink:title=" ">
<polygon fill="#e0e0e0" stroke="#999999" points="412.25,-77.5 361.75,-77.5 361.75,-56.75 412.25,-56.75 412.25,-77.5"/>
<text text-anchor="middle" x="387" y="-64" font-family="Helvetica,sans-Serif" font-size="10.00">errno.h</text>
</a>
</g>
</g>
<!-- Node1&#45;&gt;Node7 -->
<g id="edge7_Node000001_Node000007" class="edge">
<title>Node1&#45;&gt;Node7</title>
<g id="a_edge7_Node000001_Node000007"><a xlink:title=" ">
<path fill="none" stroke="#63b8ff" d="M272.85,-113.09C294.89,-104.41 327.32,-91.63 351.98,-81.92"/>
<polygon fill="#63b8ff" stroke="#63b8ff" points="352.93,-85.3 360.96,-78.38 350.37,-78.79 352.93,-85.3"/>
</a>
</g>
</g>
<!-- Node8 -->
<g id="Node000008" class="node">
<title>Node8</title>
<g id="a_Node000008"><a xlink:title=" ">
<polygon fill="#e0e0e0" stroke="#999999" points="517.25,-77.5 430.75,-77.5 430.75,-56.75 517.25,-56.75 517.25,-77.5"/>
<text text-anchor="middle" x="474" y="-64" font-family="Helvetica,sans-Serif" font-size="10.00">sys/resource.h</text>
</a>
</g>
</g>
<!-- Node1&#45;&gt;Node8 -->
<g id="edge8_Node000001_Node000008" class="edge">
<title>Node1&#45;&gt;Node8</title>
<g id="a_edge8_Node000001_Node000008"><a xlink:title=" ">
<path fill="none" stroke="#63b8ff" d="M288.67,-113.02C326.07,-103.96 381.72,-90.48 422.27,-80.66"/>
<polygon fill="#63b8ff" stroke="#63b8ff" points="422.91,-84.1 431.81,-78.35 421.27,-77.3 422.91,-84.1"/>
</a>
</g>
</g>
<!-- Node2&#45;&gt;Node3 -->
<g id="edge2_Node000002_Node000003" class="edge">
<title>Node2&#45;&gt;Node3</title>
<g id="a_edge2_Node000002_Node000003"><a xlink:title=" ">
<path fill="none" stroke="#63b8ff" d="M43.9,-56.34C48.17,-49.25 54.08,-39.44 59.3,-30.79"/>
<polygon fill="#63b8ff" stroke="#63b8ff" points="62.21,-32.75 64.37,-22.37 56.21,-29.13 62.21,-32.75"/>
</a>
</g>
</g>
</g>
</svg>
