<?xml version="1.0" encoding="UTF-8" standalone="no"?>
<!DOCTYPE svg PUBLIC "-//W3C//DTD SVG 1.1//EN"
 "http://www.w3.org/Graphics/SVG/1.1/DTD/svg11.dtd">
<!-- Generated by graphviz version 2.43.0 (0)
 -->
<!-- Title: skip_ws Pages: 1 -->
<!--zoomable 169 -->

<svg id="main" version="1.1" xmlns="http://www.w3.org/2000/svg" xmlns:xlink="http://www.w3.org/1999/xlink" xml:space="preserve" onload="init(evt)">
<style type="text/css"><![CDATA[
.node, .edge {opacity: 0.7;}
.node.selected, .edge.selected {opacity: 1;}
.edge:hover path { stroke: red; }
.edge:hover polygon { stroke: red; fill: red; }
]]></style>

<defs>
  <circle id="rim" cx="0" cy="0" r="7"/>
  <circle id="rim2" cx="0" cy="0" r="3.5"/>
  <g id="zoomPlus">
    <use xlink:href="#rim" fill="#404040"><set attributeName="fill" to="#808080" begin="zoomplus.mouseover" end="zoomplus.mouseout"/></use>
    <path d="M-4,0h8M0,-4v8" fill="none" stroke="white" stroke-width="1.5" pointer-events="none"/>
  </g>
  <g id="zoomMin">
    <use xlink:href="#rim" fill="#404040"><set attributeName="fill" to="#808080" begin="zoomminus.mouseover" end="zoomminus.mouseout"/></use>
    <path d="M-4,0h8" fill="none" stroke="white" stroke-width="1.5" pointer-events="none"/>
  </g>
  <g id="arrowUp" transform="translate(30 24)">
    <use xlink:href="#rim"/>
    <path pointer-events="none" fill="none" stroke="white" stroke-width="1.5" d="M0,-3.0v7 M-2.5,-0.5L0,-3.0L2.5,-0.5"/>
  </g>
  <g id="arrowRight" transform="rotate(90) translate(36 -43)">
    <use xlink:href="#rim"/>
    <path pointer-events="none" fill="none" stroke="white" stroke-width="1.5" d="M0,-3.0v7 M-2.5,-0.5L0,-3.0L2.5,-0.5"/>
  </g>
  <g id="arrowDown" transform="rotate(180) translate(-30 -48)">
    <use xlink:href="#rim"/>
    <path pointer-events="none" fill="none" stroke="white" stroke-width="1.5" d="M0,-3.0v7 M-2.5,-0.5L0,-3.0L2.5,-0.5"/>
  </g>
  <g id="arrowLeft" transform="rotate(270) translate(-36 17)">
    <use xlink:href="#rim"/>
    <path pointer-events="none" fill="none" stroke="white" stroke-width="1.5" d="M0,-3.0v7 M-2.5,-0.5L0,-3.0L2.5,-0.5"/>
  </g>
  <g id="resetDef">
    <use xlink:href="#rim2" fill="#404040"><set attributeName="fill" to="#808080" begin="reset.mouseover" end="reset.mouseout"/></use>
  </g>
</defs>
<script type="application/ecmascript">
var viewWidth = 759;
var viewHeight = 169;
var sectionId = 'dynsection-36';
</script>
<script type="application/ecmascript" xlink:href="svg.min.js"/>
<svg id="graph" class="graph">
<g id="viewport">
<title>skip_ws</title>
<!-- Node1 -->
<g id="Node000001" class="node">
<title>Node1</title>
<g id="a_Node000001"><a xlink:title="Skip ASCII whitespace characters in a string.">
<polygon fill="#999999" stroke="#666666" points="751,-83 695,-83 695,-64 751,-64 751,-83"/>
<text text-anchor="middle" x="723" y="-71" font-family="Helvetica,sans-Serif" font-size="10.00">skip_ws</text>
</a>
</g>
</g>
<!-- Node2 -->
<g id="Node000002" class="node">
<title>Node2</title>
<g id="a_Node000002"><a xlink:href="weights_8c.html#a5c6ba72035c0c5110c91879350c8647f" target="_top" xlink:title="Scan a relaxed JSON blob for an integer value at a given key.">
<polygon fill="white" stroke="#666666" points="471,-143 366,-143 366,-124 471,-124 471,-143"/>
<text text-anchor="middle" x="418.5" y="-131" font-family="Helvetica,sans-Serif" font-size="10.00">scan_json_key_int</text>
</a>
</g>
</g>
<!-- Node1&#45;&gt;Node2 -->
<g id="edge1_Node000001_Node000002" class="edge">
<title>Node1&#45;&gt;Node2</title>
<g id="a_edge1_Node000001_Node000002"><a xlink:title=" ">
<path fill="none" stroke="#63b8ff" d="M702.66,-89.74C690.83,-98.69 674.95,-109.07 659,-114.5 597.01,-135.6 520.97,-137.97 471.44,-136.64"/>
<polygon fill="#63b8ff" stroke="#63b8ff" points="705.17,-92.21 710.85,-83.27 700.83,-86.72 705.17,-92.21"/>
</a>
</g>
</g>
<!-- Node10 -->
<g id="Node000010" class="node">
<title>Node10</title>
<g id="a_Node000010"><a xlink:href="weights_8c.html#a3c438658d11f74ba4af8273c7e390311" target="_top" xlink:title="Scan a relaxed JSON blob for a string value at a given key.">
<polygon fill="white" stroke="#666666" points="652.5,-105 532.5,-105 532.5,-86 652.5,-86 652.5,-105"/>
<text text-anchor="middle" x="592.5" y="-93" font-family="Helvetica,sans-Serif" font-size="10.00">scan_json_key_string</text>
</a>
</g>
</g>
<!-- Node1&#45;&gt;Node10 -->
<g id="edge10_Node000001_Node000010" class="edge">
<title>Node1&#45;&gt;Node10</title>
<g id="a_edge10_Node000001_Node000010"><a xlink:title=" ">
<path fill="none" stroke="#63b8ff" d="M684.89,-79.85C673.69,-81.77 661.14,-83.92 649.02,-86"/>
<polygon fill="#63b8ff" stroke="#63b8ff" points="685.48,-83.3 694.75,-78.17 684.3,-76.4 685.48,-83.3"/>
</a>
</g>
</g>
<!-- Node12 -->
<g id="Node000012" class="node">
<title>Node12</title>
<g id="a_Node000012"><a xlink:href="weights_8c.html#a110cc679cd45b43c11f22ba749bd0ea3" target="_top" xlink:title="Scan for a string key within a bounded [begin,end] range.">
<polygon fill="white" stroke="#666666" points="652.5,-67.5 532.5,-67.5 532.5,-37.5 652.5,-37.5 652.5,-67.5"/>
<text text-anchor="start" x="540.5" y="-55.5" font-family="Helvetica,sans-Serif" font-size="10.00">scan_json_key_string</text>
<text text-anchor="middle" x="592.5" y="-44.5" font-family="Helvetica,sans-Serif" font-size="10.00">_in_range</text>
</a>
</g>
</g>
<!-- Node1&#45;&gt;Node12 -->
<g id="edge14_Node000001_Node000012" class="edge">
<title>Node1&#45;&gt;Node12</title>
<g id="a_edge14_Node000001_Node000012"><a xlink:title=" ">
<path fill="none" stroke="#63b8ff" d="M684.74,-67.41C674.71,-65.77 663.61,-63.96 652.7,-62.17"/>
<polygon fill="#63b8ff" stroke="#63b8ff" points="684.31,-70.89 694.75,-69.05 685.44,-63.98 684.31,-70.89"/>
</a>
</g>
</g>
<!-- Node13 -->
<g id="Node000013" class="node">
<title>Node13</title>
<g id="a_Node000013"><a xlink:href="weights_8c.html#a853d256b28c7e6c404c035fc1a16a454" target="_top" xlink:title="Locate the interior byte range of an object value &quot;{ ... }&quot; for a key.">
<polygon fill="white" stroke="#666666" points="659,-19 526,-19 526,0 659,0 659,-19"/>
<text text-anchor="middle" x="592.5" y="-7" font-family="Helvetica,sans-Serif" font-size="10.00">scan_json_object_range</text>
</a>
</g>
</g>
<!-- Node1&#45;&gt;Node13 -->
<g id="edge16_Node000001_Node000013" class="edge">
<title>Node1&#45;&gt;Node13</title>
<g id="a_edge16_Node000001_Node000013"><a xlink:title=" ">
<path fill="none" stroke="#63b8ff" d="M703.21,-57.49C691.21,-47.95 674.96,-36.24 659,-28.5 651.33,-24.78 642.79,-21.65 634.48,-19.07"/>
<polygon fill="#63b8ff" stroke="#63b8ff" points="701.17,-60.35 711.12,-63.97 705.6,-54.93 701.17,-60.35"/>
</a>
</g>
</g>
<!-- Node3 -->
<g id="Node000003" class="node">
<title>Node3</title>
<g id="a_Node000003"><a xlink:href="weights_8c.html#a522dac028ee37aae1307ffdb6d65ec1d" target="_top" xlink:title="Open and parse an IEBIN v1 model description.">
<polygon fill="white" stroke="#666666" points="311,-105 213,-105 213,-86 311,-86 311,-105"/>
<text text-anchor="middle" x="262" y="-93" font-family="Helvetica,sans-Serif" font-size="10.00">ie_weights_open</text>
</a>
</g>
</g>
<!-- Node2&#45;&gt;Node3 -->
<g id="edge2_Node000002_Node000003" class="edge">
<title>Node2&#45;&gt;Node3</title>
<g id="a_edge2_Node000002_Node000003"><a xlink:title=" ">
<path fill="none" stroke="#63b8ff" d="M368.55,-121.46C346.96,-116.15 321.96,-110 301.71,-105.02"/>
<polygon fill="#63b8ff" stroke="#63b8ff" points="367.97,-124.92 378.51,-123.91 369.64,-118.12 367.97,-124.92"/>
</a>
</g>
</g>
<!-- Node4 -->
<g id="Node000004" class="node">
<title>Node4</title>
<g id="a_Node000004"><a xlink:href="ie__api_8c.html#a84bd87043352946e9d53b0f8a5c4abe0" target="_top" xlink:title="Create an engine instance.">
<polygon fill="white" stroke="#666666" points="177,-124 77,-124 77,-105 177,-105 177,-124"/>
<text text-anchor="middle" x="127" y="-112" font-family="Helvetica,sans-Serif" font-size="10.00">ie_engine_create</text>
</a>
</g>
</g>
<!-- Node3&#45;&gt;Node4 -->
<g id="edge3_Node000003_Node000004" class="edge">
<title>Node3&#45;&gt;Node4</title>
<g id="a_edge3_Node000003_Node000004"><a xlink:title=" ">
<path fill="none" stroke="#63b8ff" d="M203.03,-103.78C194.45,-105.01 185.67,-106.26 177.29,-107.46"/>
<polygon fill="#63b8ff" stroke="#63b8ff" points="203.58,-107.24 212.98,-102.36 202.59,-100.31 203.58,-107.24"/>
</a>
</g>
</g>
<!-- Node5 -->
<g id="Node000005" class="node">
<title>Node5</title>
<g id="a_Node000005"><a xlink:href="main__infer_8c.html#a3c04138a5bfe5d72780bb7e82a18e627" target="_top" xlink:title="main.">
<polygon fill="white" stroke="#666666" points="41,-161 0,-161 0,-142 41,-142 41,-161"/>
<text text-anchor="middle" x="20.5" y="-149" font-family="Helvetica,sans-Serif" font-size="10.00">main</text>
</a>
</g>
</g>
<!-- Node3&#45;&gt;Node5 -->
<g id="edge6_Node000003_Node000005" class="edge">
<title>Node3&#45;&gt;Node5</title>
<g id="a_edge6_Node000003_Node000005"><a xlink:title=" ">
<path fill="none" stroke="#63b8ff" d="M235.02,-109.79C218.81,-118.05 197.25,-127.9 177,-133.5 129.33,-146.69 70.85,-150.23 41.02,-151.16"/>
<polygon fill="#63b8ff" stroke="#63b8ff" points="236.65,-112.88 243.9,-105.15 233.41,-106.68 236.65,-112.88"/>
</a>
</g>
</g>
<!-- Node7 -->
<g id="Node000007" class="node">
<title>Node7</title>
<g id="a_Node000007"><a xlink:href="test__weights_8c.html#a840291bc02cba5474a4cb46a9b9566fe" target="_top" xlink:title="Main test entrypoint.">
<polygon fill="white" stroke="#666666" points="147.5,-87 106.5,-87 106.5,-68 147.5,-68 147.5,-87"/>
<text text-anchor="middle" x="127" y="-75" font-family="Helvetica,sans-Serif" font-size="10.00">main</text>
</a>
</g>
</g>
<!-- Node3&#45;&gt;Node7 -->
<g id="edge7_Node000003_Node000007" class="edge">
<title>Node3&#45;&gt;Node7</title>
<g id="a_edge7_Node000003_Node000007"><a xlink:title=" ">
<path fill="none" stroke="#63b8ff" d="M202.81,-87.63C183.12,-84.96 162.44,-82.16 147.82,-80.18"/>
<polygon fill="#63b8ff" stroke="#63b8ff" points="202.6,-91.13 212.98,-89 203.54,-84.19 202.6,-91.13"/>
</a>
</g>
</g>
<!-- Node8 -->
<g id="Node000008" class="node">
<title>Node8</title>
<g id="a_Node000008"><a xlink:href="test__dedup__loader_8c.html#a73dca7f77cd9da376bc14e888330d88f" target="_top" xlink:title=" ">
<polygon fill="white" stroke="#666666" points="175,-50 79,-50 79,-31 175,-31 175,-50"/>
<text text-anchor="middle" x="127" y="-38" font-family="Helvetica,sans-Serif" font-size="10.00">open_and_touch</text>
</a>
</g>
</g>
<!-- Node3&#45;&gt;Node8 -->
<g id="edge8_Node000003_Node000008" class="edge">
<title>Node3&#45;&gt;Node8</title>
<g id="a_edge8_Node000003_Node000008"><a xlink:title=" ">
<path fill="none" stroke="#63b8ff" d="M230.02,-81.92C214.21,-75.06 194.64,-66.7 177,-59.5 169.31,-56.36 160.9,-53.06 153.25,-50.1"/>
<polygon fill="#63b8ff" stroke="#63b8ff" points="228.77,-85.19 239.33,-85.97 231.56,-78.77 228.77,-85.19"/>
</a>
</g>
</g>
<!-- Node4&#45;&gt;Node5 -->
<g id="edge4_Node000004_Node000005" class="edge">
<title>Node4&#45;&gt;Node5</title>
<g id="a_edge4_Node000004_Node000005"><a xlink:title=" ">
<path fill="none" stroke="#63b8ff" d="M89.32,-127.49C73.07,-133.24 54.61,-139.78 41.06,-144.57"/>
<polygon fill="#63b8ff" stroke="#63b8ff" points="90.83,-130.67 99.09,-124.03 88.49,-124.07 90.83,-130.67"/>
</a>
</g>
</g>
<!-- Node6 -->
<g id="Node000006" class="node">
<title>Node6</title>
<g id="a_Node000006"><a xlink:href="test__api_8c.html#a840291bc02cba5474a4cb46a9b9566fe" target="_top" xlink:title=" ">
<polygon fill="white" stroke="#666666" points="41,-124 0,-124 0,-105 41,-105 41,-124"/>
<text text-anchor="middle" x="20.5" y="-112" font-family="Helvetica,sans-Serif" font-size="10.00">main</text>
</a>
</g>
</g>
<!-- Node4&#45;&gt;Node6 -->
<g id="edge5_Node000004_Node000006" class="edge">
<title>Node4&#45;&gt;Node6</title>
<g id="a_edge5_Node000004_Node000006"><a xlink:title=" ">
<path fill="none" stroke="#63b8ff" d="M66.77,-114.5C57.58,-114.5 48.68,-114.5 41.24,-114.5"/>
<polygon fill="#63b8ff" stroke="#63b8ff" points="66.81,-118 76.81,-114.5 66.81,-111 66.81,-118"/>
</a>
</g>
</g>
<!-- Node9 -->
<g id="Node000009" class="node">
<title>Node9</title>
<g id="a_Node000009"><a xlink:href="test__dedup__loader_8c.html#a3c04138a5bfe5d72780bb7e82a18e627" target="_top" xlink:title=" ">
<polygon fill="white" stroke="#666666" points="41,-50 0,-50 0,-31 41,-31 41,-50"/>
<text text-anchor="middle" x="20.5" y="-38" font-family="Helvetica,sans-Serif" font-size="10.00">main</text>
</a>
</g>
</g>
<!-- Node8&#45;&gt;Node9 -->
<g id="edge9_Node000008_Node000009" class="edge">
<title>Node8&#45;&gt;Node9</title>
<g id="a_edge9_Node000008_Node000009"><a xlink:title=" ">
<path fill="none" stroke="#63b8ff" d="M68.92,-40.5C58.92,-40.5 49.16,-40.5 41.11,-40.5"/>
<polygon fill="#63b8ff" stroke="#63b8ff" points="68.95,-44 78.95,-40.5 68.95,-37 68.95,-44"/>
</a>
</g>
</g>
<!-- Node10&#45;&gt;Node3 -->
<g id="edge11_Node000010_Node000003" class="edge">
<title>Node10&#45;&gt;Node3</title>
<g id="a_edge11_Node000010_Node000003"><a xlink:title=" ">
<path fill="none" stroke="#63b8ff" d="M522.09,-95.5C458.78,-95.5 366.86,-95.5 311.22,-95.5"/>
<polygon fill="#63b8ff" stroke="#63b8ff" points="522.39,-99 532.39,-95.5 522.39,-92 522.39,-99"/>
</a>
</g>
</g>
<!-- Node11 -->
<g id="Node000011" class="node">
<title>Node11</title>
<g id="a_Node000011"><a xlink:href="weights_8c.html#a3c6343a4152588f4f490f3263842c7f6" target="_top" xlink:title="Try multiple schema variants to locate the weights binary path.">
<polygon fill="white" stroke="#666666" points="490,-65 347,-65 347,-46 490,-46 490,-65"/>
<text text-anchor="middle" x="418.5" y="-53" font-family="Helvetica,sans-Serif" font-size="10.00">scan_json_best_effort_bin</text>
</a>
</g>
</g>
<!-- Node10&#45;&gt;Node11 -->
<g id="edge12_Node000010_Node000011" class="edge">
<title>Node10&#45;&gt;Node11</title>
<g id="a_edge12_Node000010_Node000011"><a xlink:title=" ">
<path fill="none" stroke="#63b8ff" d="M540.41,-83.62C514.85,-77.68 484.34,-70.58 460.36,-65"/>
<polygon fill="#63b8ff" stroke="#63b8ff" points="539.77,-87.06 550.3,-85.92 541.35,-80.24 539.77,-87.06"/>
</a>
</g>
</g>
<!-- Node11&#45;&gt;Node3 -->
<g id="edge13_Node000011_Node000003" class="edge">
<title>Node11&#45;&gt;Node3</title>
<g id="a_edge13_Node000011_Node000003"><a xlink:title=" ">
<path fill="none" stroke="#63b8ff" d="M370.69,-67.62C347.93,-73.51 320.96,-80.49 299.7,-86"/>
<polygon fill="#63b8ff" stroke="#63b8ff" points="371.69,-70.98 380.49,-65.08 369.94,-64.2 371.69,-70.98"/>
</a>
</g>
</g>
<!-- Node12&#45;&gt;Node11 -->
<g id="edge15_Node000012_Node000011" class="edge">
<title>Node12&#45;&gt;Node11</title>
<g id="a_edge15_Node000012_Node000011"><a xlink:title=" ">
<path fill="none" stroke="#63b8ff" d="M522.27,-53.71C511.66,-53.89 500.71,-54.08 490.07,-54.27"/>
<polygon fill="#63b8ff" stroke="#63b8ff" points="522.37,-57.21 532.31,-53.53 522.25,-50.21 522.37,-57.21"/>
</a>
</g>
</g>
<!-- Node13&#45;&gt;Node11 -->
<g id="edge17_Node000013_Node000011" class="edge">
<title>Node13&#45;&gt;Node11</title>
<g id="a_edge17_Node000013_Node000011"><a xlink:title=" ">
<path fill="none" stroke="#63b8ff" d="M546.14,-21.63C517.67,-29.24 481.49,-38.92 455.09,-45.98"/>
<polygon fill="#63b8ff" stroke="#63b8ff" points="547.11,-25 555.86,-19.03 545.3,-18.23 547.11,-25"/>
</a>
</g>
</g>
</g>
</svg>

<g id="navigator" transform="translate(0 0)" fill="#404254">
  <rect fill="#f2f5e9" fill-opacity="0.5" stroke="#606060" stroke-width=".5" x="0" y="0" width="60" height="60"/>
  <use id="zoomplus" xlink:href="#zoomPlus" x="17" y="9" onmousedown="handleZoom(evt,'in')"/>
  <use id="zoomminus" xlink:href="#zoomMin" x="42" y="9" onmousedown="handleZoom(evt,'out')"/>
  <use id="reset" xlink:href="#resetDef" x="30" y="36" onmousedown="handleReset()"/>
   <use id="arrowup" xlink:href="#arrowUp" x="0" y="0" onmousedown="handlePan(0,-1)"/>
  <use id="arrowright" xlink:href="#arrowRight" x="0" y="0" onmousedown="handlePan(1,0)"/>
  <use id="arrowdown" xlink:href="#arrowDown" x="0" y="0" onmousedown="handlePan(0,1)"/>
  <use id="arrowleft" xlink:href="#arrowLeft" x="0" y="0" onmousedown="handlePan(-1,0)"/>
</g>
<svg viewBox="0 0 15 15" width="100%" height="30px" preserveAspectRatio="xMaxYMin meet">
 <g id="arrow_out" transform="scale(0.3 0.3)">
  <a xlink:href="weights_8c_ae19e0ad12742fe7fdff22f60436aadc7_icgraph_org.svg" target="_base">
   <rect id="button" ry="5" rx="5" y="6" x="6" height="38" width="38"
        fill="#f2f5e9" fill-opacity="0.5" stroke="#606060" stroke-width="1.0"/>
   <path id="arrow"
     d="M 11.500037,31.436501 C 11.940474,20.09759 22.043105,11.32322 32.158766,21.979434 L 37.068811,17.246167 C 37.068811,17.246167 37.088388,32 37.088388,32 L 22.160133,31.978069 C 22.160133,31.978069 26.997745,27.140456 26.997745,27.140456 C 18.528582,18.264221 13.291696,25.230495 11.500037,31.436501 z"
     style="fill:#404040;"/>
  </a>
 </g>
</svg>

<style type='text/css'>
<![CDATA[
[data-mouse-over-selected='false'] { opacity: 0.7; }
[data-mouse-over-selected='true']  { opacity: 1.0; }
]]>
</style>
<script type="application/ecmascript"><![CDATA[
document.addEventListener('DOMContentLoaded', (event) => {
  highlightEdges();
  highlightAdjacentNodes();
});
]]></script>
</svg>
