<?xml version="1.0" encoding="UTF-8" standalone="no"?>
<!DOCTYPE svg PUBLIC "-//W3C//DTD SVG 1.1//EN"
 "http://www.w3.org/Graphics/SVG/1.1/DTD/svg11.dtd">
<!-- Generated by graphviz version 2.43.0 (0)
 -->
<!-- Title: ie_weights_read_int4_meta Pages: 1 -->
<svg width="605pt" height="341pt"
 viewBox="0.00 0.00 605.00 341.00" xmlns="http://www.w3.org/2000/svg" xmlns:xlink="http://www.w3.org/1999/xlink">
<g id="graph0" class="graph" transform="scale(1 1) rotate(0) translate(4 337)">
<title>ie_weights_read_int4_meta</title>
<!-- Node1 -->
<g id="Node000001" class="node">
<title>Node1</title>
<g id="a_Node000001"><a xlink:title="Parse INT4&#45;related metadata from model.ie.json (best&#45;effort).">
<polygon fill="#999999" stroke="#666666" points="151,-181 0,-181 0,-162 151,-162 151,-181"/>
<text text-anchor="middle" x="75.5" y="-169" font-family="Helvetica,sans-Serif" font-size="10.00">ie_weights_read_int4_meta</text>
</a>
</g>
</g>
<!-- Node2 -->
<g id="Node000002" class="node">
<title>Node2</title>
<g id="a_Node000002"><a xlink:href="weights_8c.html#a72ab94aafe7740f1343d317daa89ca15" target="_top" xlink:title="ASCII&#45;only case&#45;insensitive equality.">
<polygon fill="white" stroke="#666666" points="425.5,-333 366.5,-333 366.5,-314 425.5,-314 425.5,-333"/>
<text text-anchor="middle" x="396" y="-321" font-family="Helvetica,sans-Serif" font-size="10.00">ascii_ieq</text>
</a>
</g>
</g>
<!-- Node1&#45;&gt;Node2 -->
<g id="edge1_Node000001_Node000002" class="edge">
<title>Node1&#45;&gt;Node2</title>
<g id="a_edge1_Node000001_Node000002"><a xlink:title=" ">
<path fill="none" stroke="#63b8ff" d="M81.38,-181C94.57,-205.57 133.55,-271.21 187,-299.5 240.43,-327.78 312.21,-329.44 355.96,-327.14"/>
<polygon fill="#63b8ff" stroke="#63b8ff" points="356.42,-330.62 366.18,-326.5 355.98,-323.63 356.42,-330.62"/>
</a>
</g>
</g>
<!-- Node3 -->
<g id="Node000003" class="node">
<title>Node3</title>
<g id="a_Node000003"><a xlink:href="ie__device__cuda_8cu.html#a5e3d9fee84981707669f5c2398f0c4ab" target="_top" xlink:title="Row&#45;wise GEMV kernel: each thread computes one output row.">
<polygon fill="white" stroke="#666666" points="597,-186.5 472,-186.5 472,-156.5 597,-156.5 597,-186.5"/>
<text text-anchor="start" x="480" y="-174.5" font-family="Helvetica,sans-Serif" font-size="10.00">ie_gemv_rowwise_f32</text>
<text text-anchor="middle" x="534.5" y="-163.5" font-family="Helvetica,sans-Serif" font-size="10.00">_kernel</text>
</a>
</g>
</g>
<!-- Node1&#45;&gt;Node3 -->
<g id="edge5_Node000001_Node000003" class="edge">
<title>Node1&#45;&gt;Node3</title>
<g id="a_edge5_Node000001_Node000003"><a xlink:title=" ">
<path fill="none" stroke="#63b8ff" d="M85.78,-181.02C103.55,-198.54 144.4,-235.58 187,-251.5 290.85,-290.3 333.3,-308.26 436,-266.5 471.33,-252.13 500.86,-218.13 517.87,-194.95"/>
<polygon fill="#63b8ff" stroke="#63b8ff" points="520.82,-196.84 523.76,-186.66 515.11,-192.79 520.82,-196.84"/>
</a>
</g>
</g>
<!-- Node4 -->
<g id="Node000004" class="node">
<title>Node4</title>
<g id="a_Node000004"><a xlink:href="weights_8c.html#ae3307b59271742c37862abf0b9698d23" target="_top" xlink:title="Copy a C&#45;string into a bounded buffer and always NUL&#45;terminate.">
<polygon fill="white" stroke="#666666" points="415.5,-257 376.5,-257 376.5,-238 415.5,-238 415.5,-257"/>
<text text-anchor="middle" x="396" y="-245" font-family="Helvetica,sans-Serif" font-size="10.00">cpyz</text>
</a>
</g>
</g>
<!-- Node1&#45;&gt;Node4 -->
<g id="edge3_Node000001_Node000004" class="edge">
<title>Node1&#45;&gt;Node4</title>
<g id="a_edge3_Node000001_Node000004"><a xlink:title=" ">
<path fill="none" stroke="#63b8ff" d="M90.75,-181.16C111.1,-194.39 150.11,-217.75 187,-228.5 249.16,-246.62 325.79,-248.71 366.47,-248.31"/>
<polygon fill="#63b8ff" stroke="#63b8ff" points="366.53,-251.81 376.48,-248.15 366.42,-244.81 366.53,-251.81"/>
</a>
</g>
</g>
<!-- Node5 -->
<g id="Node000005" class="node">
<title>Node5</title>
<g id="a_Node000005"><a xlink:href="weights_8c.html#a7bb1dd9958b072fc5d1a80373cc074ff" target="_top" xlink:title="Join directory and filename into an output buffer (NUL&#45;terminated).">
<polygon fill="white" stroke="#666666" points="284.5,-219 222.5,-219 222.5,-200 284.5,-200 284.5,-219"/>
<text text-anchor="middle" x="253.5" y="-207" font-family="Helvetica,sans-Serif" font-size="10.00">join_path</text>
</a>
</g>
</g>
<!-- Node1&#45;&gt;Node5 -->
<g id="edge6_Node000001_Node000005" class="edge">
<title>Node1&#45;&gt;Node5</title>
<g id="a_edge6_Node000001_Node000005"><a xlink:title=" ">
<path fill="none" stroke="#63b8ff" d="M120.91,-181.09C149.08,-187.17 185.23,-194.98 212.51,-200.87"/>
<polygon fill="#63b8ff" stroke="#63b8ff" points="211.98,-204.33 222.49,-203.02 213.46,-197.49 211.98,-204.33"/>
</a>
</g>
</g>
<!-- Node6 -->
<g id="Node000006" class="node">
<title>Node6</title>
<g id="a_Node000006"><a xlink:href="weights_8c.html#a7415d89bc8bd657819e06ac0fc53da95" target="_top" xlink:title="Return a pointer to the last &#39;/&#39; in a path, or NULL if none.">
<polygon fill="white" stroke="#666666" points="428.5,-181 363.5,-181 363.5,-162 428.5,-162 428.5,-181"/>
<text text-anchor="middle" x="396" y="-169" font-family="Helvetica,sans-Serif" font-size="10.00">last_slash</text>
</a>
</g>
</g>
<!-- Node1&#45;&gt;Node6 -->
<g id="edge9_Node000001_Node000006" class="edge">
<title>Node1&#45;&gt;Node6</title>
<g id="a_edge9_Node000001_Node000006"><a xlink:title=" ">
<path fill="none" stroke="#63b8ff" d="M151.17,-171.5C214.13,-171.5 301.93,-171.5 353.19,-171.5"/>
<polygon fill="#63b8ff" stroke="#63b8ff" points="353.24,-175 363.24,-171.5 353.24,-168 353.24,-175"/>
</a>
</g>
</g>
<!-- Node7 -->
<g id="Node000007" class="node">
<title>Node7</title>
<g id="a_Node000007"><a xlink:href="weights_8c.html#a7d467c1ab0baceed9b0fdad7b5a8accf" target="_top" xlink:title="Read an entire file into a newly allocated NUL&#45;terminated buffer.">
<polygon fill="white" stroke="#666666" points="436,-144 356,-144 356,-125 436,-125 436,-144"/>
<text text-anchor="middle" x="396" y="-132" font-family="Helvetica,sans-Serif" font-size="10.00">read_all_text</text>
</a>
</g>
</g>
<!-- Node1&#45;&gt;Node7 -->
<g id="edge11_Node000001_Node000007" class="edge">
<title>Node1&#45;&gt;Node7</title>
<g id="a_edge11_Node000001_Node000007"><a xlink:title=" ">
<path fill="none" stroke="#63b8ff" d="M151.17,-162.83C211.16,-155.86 293.7,-146.27 345.7,-140.23"/>
<polygon fill="#63b8ff" stroke="#63b8ff" points="346.14,-143.7 355.67,-139.07 345.33,-136.75 346.14,-143.7"/>
</a>
</g>
</g>
<!-- Node8 -->
<g id="Node000008" class="node">
<title>Node8</title>
<g id="a_Node000008"><a xlink:href="weights_8c.html#a3c438658d11f74ba4af8273c7e390311" target="_top" xlink:title="Scan a relaxed JSON blob for a string value at a given key.">
<polygon fill="white" stroke="#666666" points="313.5,-105 193.5,-105 193.5,-86 313.5,-86 313.5,-105"/>
<text text-anchor="middle" x="253.5" y="-93" font-family="Helvetica,sans-Serif" font-size="10.00">scan_json_key_string</text>
</a>
</g>
</g>
<!-- Node1&#45;&gt;Node8 -->
<g id="edge13_Node000001_Node000008" class="edge">
<title>Node1&#45;&gt;Node8</title>
<g id="a_edge13_Node000001_Node000008"><a xlink:title=" ">
<path fill="none" stroke="#63b8ff" d="M95.43,-161.96C117.26,-151.11 154.33,-133.14 187,-119.5 196.12,-115.69 206.09,-111.87 215.43,-108.43"/>
<polygon fill="#63b8ff" stroke="#63b8ff" points="216.67,-111.71 224.88,-105.01 214.29,-105.12 216.67,-111.71"/>
</a>
</g>
</g>
<!-- Node9 -->
<g id="Node000009" class="node">
<title>Node9</title>
<g id="a_Node000009"><a xlink:href="weights_8c.html#a110cc679cd45b43c11f22ba749bd0ea3" target="_top" xlink:title="Scan for a string key within a bounded [begin,end) range.">
<polygon fill="white" stroke="#666666" points="313.5,-67.5 193.5,-67.5 193.5,-37.5 313.5,-37.5 313.5,-67.5"/>
<text text-anchor="start" x="201.5" y="-55.5" font-family="Helvetica,sans-Serif" font-size="10.00">scan_json_key_string</text>
<text text-anchor="middle" x="253.5" y="-44.5" font-family="Helvetica,sans-Serif" font-size="10.00">_in_range</text>
</a>
</g>
</g>
<!-- Node1&#45;&gt;Node9 -->
<g id="edge15_Node000001_Node000009" class="edge">
<title>Node1&#45;&gt;Node9</title>
<g id="a_edge15_Node000001_Node000009"><a xlink:title=" ">
<path fill="none" stroke="#63b8ff" d="M85.68,-161.72C103.61,-143.12 145.18,-102.27 187,-77.5 190.38,-75.5 193.95,-73.6 197.6,-71.82"/>
<polygon fill="#63b8ff" stroke="#63b8ff" points="199.16,-74.96 206.81,-67.63 196.26,-68.59 199.16,-74.96"/>
</a>
</g>
</g>
<!-- Node10 -->
<g id="Node000010" class="node">
<title>Node10</title>
<g id="a_Node000010"><a xlink:href="weights_8c.html#a853d256b28c7e6c404c035fc1a16a454" target="_top" xlink:title="Locate the interior byte range of an object value &quot;{ ... }&quot; for a key.">
<polygon fill="white" stroke="#666666" points="320,-19 187,-19 187,0 320,0 320,-19"/>
<text text-anchor="middle" x="253.5" y="-7" font-family="Helvetica,sans-Serif" font-size="10.00">scan_json_object_range</text>
</a>
</g>
</g>
<!-- Node1&#45;&gt;Node10 -->
<g id="edge17_Node000001_Node000010" class="edge">
<title>Node1&#45;&gt;Node10</title>
<g id="a_edge17_Node000001_Node000010"><a xlink:title=" ">
<path fill="none" stroke="#63b8ff" d="M81.19,-161.81C94.2,-135.99 133.31,-65.04 187,-28.5 189.93,-26.51 193.06,-24.72 196.32,-23.12"/>
<polygon fill="#63b8ff" stroke="#63b8ff" points="197.94,-26.24 205.75,-19.08 195.18,-19.8 197.94,-26.24"/>
</a>
</g>
</g>
<!-- Node2&#45;&gt;Node3 -->
<g id="edge2_Node000002_Node000003" class="edge">
<title>Node2&#45;&gt;Node3</title>
<g id="a_edge2_Node000002_Node000003"><a xlink:title=" ">
<path fill="none" stroke="#63b8ff" d="M415.83,-313.8C422.58,-309.86 429.99,-304.94 436,-299.5 470.79,-268 501.91,-222.72 519.19,-195.31"/>
<polygon fill="#63b8ff" stroke="#63b8ff" points="522.21,-197.09 524.51,-186.74 516.26,-193.39 522.21,-197.09"/>
</a>
</g>
</g>
<!-- Node4&#45;&gt;Node3 -->
<g id="edge4_Node000004_Node000003" class="edge">
<title>Node4&#45;&gt;Node3</title>
<g id="a_edge4_Node000004_Node000003"><a xlink:title=" ">
<path fill="none" stroke="#63b8ff" d="M414.29,-237.87C435.17,-226.25 470.84,-206.39 497.74,-191.41"/>
<polygon fill="#63b8ff" stroke="#63b8ff" points="499.45,-194.46 506.49,-186.54 496.05,-188.35 499.45,-194.46"/>
</a>
</g>
</g>
<!-- Node5&#45;&gt;Node3 -->
<g id="edge8_Node000005_Node000003" class="edge">
<title>Node5&#45;&gt;Node3</title>
<g id="a_edge8_Node000005_Node000003"><a xlink:title=" ">
<path fill="none" stroke="#63b8ff" d="M284.79,-207.15C320.91,-204.16 383.04,-198.42 436,-190.5 444.34,-189.25 453.04,-187.79 461.68,-186.24"/>
<polygon fill="#63b8ff" stroke="#63b8ff" points="462.55,-189.64 471.75,-184.39 461.28,-182.75 462.55,-189.64"/>
</a>
</g>
</g>
<!-- Node5&#45;&gt;Node4 -->
<g id="edge7_Node000005_Node000004" class="edge">
<title>Node5&#45;&gt;Node4</title>
<g id="a_edge7_Node000005_Node000004"><a xlink:title=" ">
<path fill="none" stroke="#63b8ff" d="M284.64,-217.65C308.8,-224.19 342.48,-233.3 366.27,-239.73"/>
<polygon fill="#63b8ff" stroke="#63b8ff" points="365.54,-243.16 376.11,-242.39 367.37,-236.4 365.54,-243.16"/>
</a>
</g>
</g>
<!-- Node6&#45;&gt;Node3 -->
<g id="edge10_Node000006_Node000003" class="edge">
<title>Node6&#45;&gt;Node3</title>
<g id="a_edge10_Node000006_Node000003"><a xlink:title=" ">
<path fill="none" stroke="#63b8ff" d="M428.66,-171.5C438.65,-171.5 450.12,-171.5 461.73,-171.5"/>
<polygon fill="#63b8ff" stroke="#63b8ff" points="461.94,-175 471.94,-171.5 461.94,-168 461.94,-175"/>
</a>
</g>
</g>
<!-- Node7&#45;&gt;Node3 -->
<g id="edge12_Node000007_Node000003" class="edge">
<title>Node7&#45;&gt;Node3</title>
<g id="a_edge12_Node000007_Node000003"><a xlink:title=" ">
<path fill="none" stroke="#63b8ff" d="M432.15,-144.03C443.18,-147.02 455.74,-150.42 468.16,-153.79"/>
<polygon fill="#63b8ff" stroke="#63b8ff" points="467.5,-157.24 478.07,-156.48 469.33,-150.48 467.5,-157.24"/>
</a>
</g>
</g>
<!-- Node8&#45;&gt;Node3 -->
<g id="edge14_Node000008_Node000003" class="edge">
<title>Node8&#45;&gt;Node3</title>
<g id="a_edge14_Node000008_Node000003"><a xlink:title=" ">
<path fill="none" stroke="#63b8ff" d="M313.8,-96.44C349.88,-98.45 396.48,-103.65 436,-116.5 460.41,-124.44 485.59,-138.83 504.24,-150.89"/>
<polygon fill="#63b8ff" stroke="#63b8ff" points="502.31,-153.82 512.58,-156.42 506.18,-147.98 502.31,-153.82"/>
</a>
</g>
</g>
<!-- Node9&#45;&gt;Node3 -->
<g id="edge16_Node000009_Node000003" class="edge">
<title>Node9&#45;&gt;Node3</title>
<g id="a_edge16_Node000009_Node000003"><a xlink:title=" ">
<path fill="none" stroke="#63b8ff" d="M313.87,-59.98C350.41,-66.15 397.46,-77.01 436,-95.5 464.44,-109.15 492.37,-132.18 510.99,-149.32"/>
<polygon fill="#63b8ff" stroke="#63b8ff" points="508.7,-151.97 518.38,-156.26 513.49,-146.86 508.7,-151.97"/>
</a>
</g>
</g>
<!-- Node10&#45;&gt;Node3 -->
<g id="edge18_Node000010_Node000003" class="edge">
<title>Node10&#45;&gt;Node3</title>
<g id="a_edge18_Node000010_Node000003"><a xlink:title=" ">
<path fill="none" stroke="#63b8ff" d="M313.92,-19.03C351.14,-26.97 398.91,-40.91 436,-64.5 470.57,-86.48 500.64,-123.84 517.93,-148.09"/>
<polygon fill="#63b8ff" stroke="#63b8ff" points="515.12,-150.18 523.7,-156.38 520.86,-146.17 515.12,-150.18"/>
</a>
</g>
</g>
</g>
</svg>
