<?xml version="1.0" encoding="UTF-8" standalone="no"?>
<!DOCTYPE svg PUBLIC "-//W3C//DTD SVG 1.1//EN"
 "http://www.w3.org/Graphics/SVG/1.1/DTD/svg11.dtd">
<!-- Generated by graphviz version 2.43.0 (0)
 -->
<!-- Title: ie_pread Pages: 1 -->
<svg width="545pt" height="46pt"
 viewBox="0.00 0.00 545.00 46.00" xmlns="http://www.w3.org/2000/svg" xmlns:xlink="http://www.w3.org/1999/xlink">
<g id="graph0" class="graph" transform="scale(1 1) rotate(0) translate(4 42)">
<title>ie_pread</title>
<!-- Node1 -->
<g id="Node000001" class="node">
<title>Node1</title>
<g id="a_Node000001"><a xlink:title="Portable pread wrapper with fallback.">
<polygon fill="#999999" stroke="#666666" points="537,-38 478,-38 478,-19 537,-19 537,-38"/>
<text text-anchor="middle" x="507.5" y="-26" font-family="Helvetica,sans-Serif" font-size="10.00">ie_pread</text>
</a>
</g>
</g>
<!-- Node2 -->
<g id="Node000002" class="node">
<title>Node2</title>
<g id="a_Node000002"><a xlink:href="weights_8c.html#a095d7f59c4cba2b530bac039bca8b7a9" target="_top" xlink:title="Touch the weights binary to verify readability and warm OS caches.">
<polygon fill="white" stroke="#666666" points="310,-38 209,-38 209,-19 310,-19 310,-38"/>
<text text-anchor="middle" x="259.5" y="-26" font-family="Helvetica,sans-Serif" font-size="10.00">ie_weights_touch</text>
</a>
</g>
</g>
<!-- Node1&#45;&gt;Node2 -->
<g id="edge1_Node000001_Node000002" class="edge">
<title>Node1&#45;&gt;Node2</title>
<g id="a_edge1_Node000001_Node000002"><a xlink:title=" ">
<path fill="none" stroke="#63b8ff" d="M467.56,-28.5C425,-28.5 356.69,-28.5 310.27,-28.5"/>
<polygon fill="#63b8ff" stroke="#63b8ff" points="467.8,-32 477.8,-28.5 467.8,-25 467.8,-32"/>
</a>
</g>
</g>
<!-- Node5 -->
<g id="Node000005" class="node">
<title>Node5</title>
<g id="a_Node000005"><a xlink:href="weights_8c.html#ae3235e5160399c1e4465d1abf866571d" target="_top" xlink:title="Touch a file by doing small reads near start/end.">
<polygon fill="white" stroke="#666666" points="442,-19 346,-19 346,0 442,0 442,-19"/>
<text text-anchor="middle" x="394" y="-7" font-family="Helvetica,sans-Serif" font-size="10.00">touch_file_small</text>
</a>
</g>
</g>
<!-- Node1&#45;&gt;Node5 -->
<g id="edge4_Node000001_Node000005" class="edge">
<title>Node1&#45;&gt;Node5</title>
<g id="a_edge4_Node000001_Node000005"><a xlink:title=" ">
<path fill="none" stroke="#63b8ff" d="M467.72,-21.89C459.49,-20.49 450.72,-18.99 442.22,-17.55"/>
<polygon fill="#63b8ff" stroke="#63b8ff" points="467.34,-25.38 477.79,-23.61 468.52,-18.48 467.34,-25.38"/>
</a>
</g>
</g>
<!-- Node3 -->
<g id="Node000003" class="node">
<title>Node3</title>
<g id="a_Node000003"><a xlink:href="test__dedup__loader_8c.html#a73dca7f77cd9da376bc14e888330d88f" target="_top" xlink:title=" ">
<polygon fill="white" stroke="#666666" points="173,-38 77,-38 77,-19 173,-19 173,-38"/>
<text text-anchor="middle" x="125" y="-26" font-family="Helvetica,sans-Serif" font-size="10.00">open_and_touch</text>
</a>
</g>
</g>
<!-- Node2&#45;&gt;Node3 -->
<g id="edge2_Node000002_Node000003" class="edge">
<title>Node2&#45;&gt;Node3</title>
<g id="a_edge2_Node000002_Node000003"><a xlink:title=" ">
<path fill="none" stroke="#63b8ff" d="M198.58,-28.5C190.13,-28.5 181.53,-28.5 173.36,-28.5"/>
<polygon fill="#63b8ff" stroke="#63b8ff" points="198.78,-32 208.78,-28.5 198.78,-25 198.78,-32"/>
</a>
</g>
</g>
<!-- Node4 -->
<g id="Node000004" class="node">
<title>Node4</title>
<g id="a_Node000004"><a xlink:href="test__dedup__loader_8c.html#a3c04138a5bfe5d72780bb7e82a18e627" target="_top" xlink:title=" ">
<polygon fill="white" stroke="#666666" points="41,-38 0,-38 0,-19 41,-19 41,-38"/>
<text text-anchor="middle" x="20.5" y="-26" font-family="Helvetica,sans-Serif" font-size="10.00">main</text>
</a>
</g>
</g>
<!-- Node3&#45;&gt;Node4 -->
<g id="edge3_Node000003_Node000004" class="edge">
<title>Node3&#45;&gt;Node4</title>
<g id="a_edge3_Node000003_Node000004"><a xlink:title=" ">
<path fill="none" stroke="#63b8ff" d="M66.87,-28.5C57.62,-28.5 48.63,-28.5 41.13,-28.5"/>
<polygon fill="#63b8ff" stroke="#63b8ff" points="66.95,-32 76.95,-28.5 66.95,-25 66.95,-32"/>
</a>
</g>
</g>
<!-- Node5&#45;&gt;Node2 -->
<g id="edge5_Node000005_Node000002" class="edge">
<title>Node5&#45;&gt;Node2</title>
<g id="a_edge5_Node000005_Node000002"><a xlink:title=" ">
<path fill="none" stroke="#63b8ff" d="M335.95,-17.68C327.36,-18.91 318.55,-20.18 310.13,-21.38"/>
<polygon fill="#63b8ff" stroke="#63b8ff" points="336.51,-21.14 345.91,-16.25 335.52,-14.21 336.51,-21.14"/>
</a>
</g>
</g>
</g>
</svg>
