<?xml version="1.0" encoding="UTF-8" standalone="no"?>
<!DOCTYPE svg PUBLIC "-//W3C//DTD SVG 1.1//EN"
 "http://www.w3.org/Graphics/SVG/1.1/DTD/svg11.dtd">
<!-- Generated by graphviz version 2.43.0 (0)
 -->
<!-- Title: ie_wdedup_errno_str Pages: 1 -->
<svg width="812pt" height="138pt"
 viewBox="0.00 0.00 812.00 138.00" xmlns="http://www.w3.org/2000/svg" xmlns:xlink="http://www.w3.org/1999/xlink">
<g id="graph0" class="graph" transform="scale(1 1) rotate(0) translate(4 134)">
<title>ie_wdedup_errno_str</title>
<!-- Node1 -->
<g id="Node000001" class="node">
<title>Node1</title>
<g id="a_Node000001"><a xlink:title=" ">
<polygon fill="#999999" stroke="#666666" points="804,-92 686,-92 686,-73 804,-73 804,-92"/>
<text text-anchor="middle" x="745" y="-80" font-family="Helvetica,sans-Serif" font-size="10.00">ie_wdedup_errno_str</text>
</a>
</g>
</g>
<!-- Node2 -->
<g id="Node000002" class="node">
<title>Node2</title>
<g id="a_Node000002"><a xlink:href="weights__dedup_8c.html#a060093b2059a2c4c10c076c6fb28063d" target="_top" xlink:title=" ">
<polygon fill="white" stroke="#666666" points="650,-111 573,-111 573,-92 650,-92 650,-111"/>
<text text-anchor="middle" x="611.5" y="-99" font-family="Helvetica,sans-Serif" font-size="10.00">ie_mmap_ro</text>
</a>
</g>
</g>
<!-- Node1&#45;&gt;Node2 -->
<g id="edge1_Node000001_Node000002" class="edge">
<title>Node1&#45;&gt;Node2</title>
<g id="a_edge1_Node000001_Node000002"><a xlink:title=" ">
<path fill="none" stroke="#63b8ff" d="M675.96,-92.33C667.11,-93.61 658.32,-94.88 650.23,-96.05"/>
<polygon fill="#63b8ff" stroke="#63b8ff" points="676.54,-95.78 685.94,-90.89 675.54,-88.86 676.54,-95.78"/>
</a>
</g>
</g>
<!-- Node3 -->
<g id="Node000003" class="node">
<title>Node3</title>
<g id="a_Node000003"><a xlink:href="weights__dedup_8c.html#aa625b41ce2a24826f8cb464661ace8ec" target="_top" xlink:title="Open the dedup weights loader from a model directory.">
<polygon fill="white" stroke="#666666" points="537,-92 403,-92 403,-73 537,-73 537,-92"/>
<text text-anchor="middle" x="470" y="-80" font-family="Helvetica,sans-Serif" font-size="10.00">ie_weights_dedup_open</text>
</a>
</g>
</g>
<!-- Node1&#45;&gt;Node3 -->
<g id="edge12_Node000001_Node000003" class="edge">
<title>Node1&#45;&gt;Node3</title>
<g id="a_edge12_Node000001_Node000003"><a xlink:title=" ">
<path fill="none" stroke="#63b8ff" d="M675.56,-82.5C633.24,-82.5 579.2,-82.5 537.3,-82.5"/>
<polygon fill="#63b8ff" stroke="#63b8ff" points="675.77,-86 685.77,-82.5 675.77,-79 675.77,-86"/>
</a>
</g>
</g>
<!-- Node2&#45;&gt;Node3 -->
<g id="edge2_Node000002_Node000003" class="edge">
<title>Node2&#45;&gt;Node3</title>
<g id="a_edge2_Node000002_Node000003"><a xlink:title=" ">
<path fill="none" stroke="#63b8ff" d="M562.58,-94.97C554.33,-93.85 545.63,-92.66 537,-91.49"/>
<polygon fill="#63b8ff" stroke="#63b8ff" points="562.37,-98.48 572.75,-96.36 563.31,-91.54 562.37,-98.48"/>
</a>
</g>
</g>
<!-- Node4 -->
<g id="Node000004" class="node">
<title>Node4</title>
<g id="a_Node000004"><a xlink:href="gptoss__weights__index_8c.html#ab0abbe94d2373ea44d51f2325c7cc46c" target="_top" xlink:title="Open a weights index for a given model directory and weights descriptor.">
<polygon fill="white" stroke="#666666" points="367,-111 213,-111 213,-92 367,-92 367,-111"/>
<text text-anchor="middle" x="290" y="-99" font-family="Helvetica,sans-Serif" font-size="10.00">gptoss_weights_index_open</text>
</a>
</g>
</g>
<!-- Node3&#45;&gt;Node4 -->
<g id="edge3_Node000003_Node000004" class="edge">
<title>Node3&#45;&gt;Node4</title>
<g id="a_edge3_Node000003_Node000004"><a xlink:title=" ">
<path fill="none" stroke="#63b8ff" d="M393.01,-90.61C384.44,-91.53 375.7,-92.46 367.13,-93.37"/>
<polygon fill="#63b8ff" stroke="#63b8ff" points="393.4,-94.09 402.97,-89.55 392.66,-87.13 393.4,-94.09"/>
</a>
</g>
</g>
<!-- Node5 -->
<g id="Node000005" class="node">
<title>Node5</title>
<g id="a_Node000005"><a xlink:href="weights_8c.html#a522dac028ee37aae1307ffdb6d65ec1d" target="_top" xlink:title="Open and parse an IEBIN v1 model description.">
<polygon fill="white" stroke="#666666" points="339,-74 241,-74 241,-55 339,-55 339,-74"/>
<text text-anchor="middle" x="290" y="-62" font-family="Helvetica,sans-Serif" font-size="10.00">ie_weights_open</text>
</a>
</g>
</g>
<!-- Node3&#45;&gt;Node5 -->
<g id="edge4_Node000003_Node000005" class="edge">
<title>Node3&#45;&gt;Node5</title>
<g id="a_edge4_Node000003_Node000005"><a xlink:title=" ">
<path fill="none" stroke="#63b8ff" d="M392.93,-74.81C374.68,-72.96 355.7,-71.04 339.12,-69.37"/>
<polygon fill="#63b8ff" stroke="#63b8ff" points="392.67,-78.3 402.97,-75.82 393.38,-71.33 392.67,-78.3"/>
</a>
</g>
</g>
<!-- Node6 -->
<g id="Node000006" class="node">
<title>Node6</title>
<g id="a_Node000006"><a xlink:href="ie__api_8c.html#a84bd87043352946e9d53b0f8a5c4abe0" target="_top" xlink:title="Create an engine instance.">
<polygon fill="white" stroke="#666666" points="177,-93 77,-93 77,-74 177,-74 177,-93"/>
<text text-anchor="middle" x="127" y="-81" font-family="Helvetica,sans-Serif" font-size="10.00">ie_engine_create</text>
</a>
</g>
</g>
<!-- Node5&#45;&gt;Node6 -->
<g id="edge5_Node000005_Node000006" class="edge">
<title>Node5&#45;&gt;Node6</title>
<g id="a_edge5_Node000005_Node000006"><a xlink:title=" ">
<path fill="none" stroke="#63b8ff" d="M230.57,-71.4C213.03,-73.47 193.98,-75.71 177.11,-77.7"/>
<polygon fill="#63b8ff" stroke="#63b8ff" points="231.17,-74.85 240.69,-70.2 230.35,-67.9 231.17,-74.85"/>
</a>
</g>
</g>
<!-- Node7 -->
<g id="Node000007" class="node">
<title>Node7</title>
<g id="a_Node000007"><a xlink:href="main__infer_8c.html#a3c04138a5bfe5d72780bb7e82a18e627" target="_top" xlink:title="main.">
<polygon fill="white" stroke="#666666" points="41,-130 0,-130 0,-111 41,-111 41,-130"/>
<text text-anchor="middle" x="20.5" y="-118" font-family="Helvetica,sans-Serif" font-size="10.00">main</text>
</a>
</g>
</g>
<!-- Node5&#45;&gt;Node7 -->
<g id="edge8_Node000005_Node000007" class="edge">
<title>Node5&#45;&gt;Node7</title>
<g id="a_edge8_Node000005_Node000007"><a xlink:title=" ">
<path fill="none" stroke="#63b8ff" d="M230.54,-76.75C224.55,-78.48 218.61,-80.39 213,-82.5 196.06,-88.86 194.26,-96.09 177,-101.5 129.76,-116.3 71.1,-119.66 41.13,-120.36"/>
<polygon fill="#63b8ff" stroke="#63b8ff" points="231.87,-80.01 240.61,-74.02 230.04,-73.26 231.87,-80.01"/>
</a>
</g>
</g>
<!-- Node9 -->
<g id="Node000009" class="node">
<title>Node9</title>
<g id="a_Node000009"><a xlink:href="test__weights_8c.html#a840291bc02cba5474a4cb46a9b9566fe" target="_top" xlink:title="Main test entrypoint.">
<polygon fill="white" stroke="#666666" points="147.5,-56 106.5,-56 106.5,-37 147.5,-37 147.5,-56"/>
<text text-anchor="middle" x="127" y="-44" font-family="Helvetica,sans-Serif" font-size="10.00">main</text>
</a>
</g>
</g>
<!-- Node5&#45;&gt;Node9 -->
<g id="edge9_Node000005_Node000009" class="edge">
<title>Node5&#45;&gt;Node9</title>
<g id="a_edge9_Node000005_Node000009"><a xlink:title=" ">
<path fill="none" stroke="#63b8ff" d="M230.62,-57.97C201.56,-54.72 168.34,-51.01 147.76,-48.71"/>
<polygon fill="#63b8ff" stroke="#63b8ff" points="230.37,-61.47 240.69,-59.1 231.15,-54.51 230.37,-61.47"/>
</a>
</g>
</g>
<!-- Node10 -->
<g id="Node000010" class="node">
<title>Node10</title>
<g id="a_Node000010"><a xlink:href="test__dedup__loader_8c.html#a73dca7f77cd9da376bc14e888330d88f" target="_top" xlink:title=" ">
<polygon fill="white" stroke="#666666" points="175,-19 79,-19 79,0 175,0 175,-19"/>
<text text-anchor="middle" x="127" y="-7" font-family="Helvetica,sans-Serif" font-size="10.00">open_and_touch</text>
</a>
</g>
</g>
<!-- Node5&#45;&gt;Node10 -->
<g id="edge10_Node000005_Node000010" class="edge">
<title>Node5&#45;&gt;Node10</title>
<g id="a_edge10_Node000005_Node000010"><a xlink:title=" ">
<path fill="none" stroke="#63b8ff" d="M251.12,-51.56C221.96,-41.6 182.33,-28.06 155.99,-19.06"/>
<polygon fill="#63b8ff" stroke="#63b8ff" points="250.36,-55 260.96,-54.92 252.62,-48.37 250.36,-55"/>
</a>
</g>
</g>
<!-- Node6&#45;&gt;Node7 -->
<g id="edge6_Node000006_Node000007" class="edge">
<title>Node6&#45;&gt;Node7</title>
<g id="a_edge6_Node000006_Node000007"><a xlink:title=" ">
<path fill="none" stroke="#63b8ff" d="M89.32,-96.49C73.07,-102.24 54.61,-108.78 41.06,-113.57"/>
<polygon fill="#63b8ff" stroke="#63b8ff" points="90.83,-99.67 99.09,-93.03 88.49,-93.07 90.83,-99.67"/>
</a>
</g>
</g>
<!-- Node8 -->
<g id="Node000008" class="node">
<title>Node8</title>
<g id="a_Node000008"><a xlink:href="test__api_8c.html#a840291bc02cba5474a4cb46a9b9566fe" target="_top" xlink:title=" ">
<polygon fill="white" stroke="#666666" points="41,-93 0,-93 0,-74 41,-74 41,-93"/>
<text text-anchor="middle" x="20.5" y="-81" font-family="Helvetica,sans-Serif" font-size="10.00">main</text>
</a>
</g>
</g>
<!-- Node6&#45;&gt;Node8 -->
<g id="edge7_Node000006_Node000008" class="edge">
<title>Node6&#45;&gt;Node8</title>
<g id="a_edge7_Node000006_Node000008"><a xlink:title=" ">
<path fill="none" stroke="#63b8ff" d="M66.77,-83.5C57.58,-83.5 48.68,-83.5 41.24,-83.5"/>
<polygon fill="#63b8ff" stroke="#63b8ff" points="66.81,-87 76.81,-83.5 66.81,-80 66.81,-87"/>
</a>
</g>
</g>
<!-- Node11 -->
<g id="Node000011" class="node">
<title>Node11</title>
<g id="a_Node000011"><a xlink:href="test__dedup__loader_8c.html#a3c04138a5bfe5d72780bb7e82a18e627" target="_top" xlink:title=" ">
<polygon fill="white" stroke="#666666" points="41,-19 0,-19 0,0 41,0 41,-19"/>
<text text-anchor="middle" x="20.5" y="-7" font-family="Helvetica,sans-Serif" font-size="10.00">main</text>
</a>
</g>
</g>
<!-- Node10&#45;&gt;Node11 -->
<g id="edge11_Node000010_Node000011" class="edge">
<title>Node10&#45;&gt;Node11</title>
<g id="a_edge11_Node000010_Node000011"><a xlink:title=" ">
<path fill="none" stroke="#63b8ff" d="M68.92,-9.5C58.92,-9.5 49.16,-9.5 41.11,-9.5"/>
<polygon fill="#63b8ff" stroke="#63b8ff" points="68.95,-13 78.95,-9.5 68.95,-6 68.95,-13"/>
</a>
</g>
</g>
</g>
</svg>
