<?xml version="1.0" encoding="UTF-8" standalone="no"?>
<!DOCTYPE svg PUBLIC "-//W3C//DTD SVG 1.1//EN"
 "http://www.w3.org/Graphics/SVG/1.1/DTD/svg11.dtd">
<!-- Generated by graphviz version 2.43.0 (0)
 -->
<!-- Title: js_skip_object Pages: 1 -->
<svg width="444pt" height="197pt"
 viewBox="0.00 0.00 444.00 197.27" xmlns="http://www.w3.org/2000/svg" xmlns:xlink="http://www.w3.org/1999/xlink">

<svg id="main" version="1.1" xmlns="http://www.w3.org/2000/svg" xmlns:xlink="http://www.w3.org/1999/xlink" xml:space="preserve" onload="init(evt)">
<style type="text/css"><![CDATA[
.node, .edge {opacity: 0.7;}
.node.selected, .edge.selected {opacity: 1;}
.edge:hover path { stroke: red; }
.edge:hover polygon { stroke: red; fill: red; }
]]></style>
<script type="application/ecmascript" xlink:href="svg.min.js"/>
<svg id="graph" class="graph">
<g id="graph0" class="graph" transform="scale(1 1) rotate(0) translate(4 193.27)">
<title>js_skip_object</title>
<!-- Node1 -->
<g id="Node000001" class="node">
<title>Node1</title>
<g id="a_Node000001"><a xlink:title=" ">
<polygon fill="#999999" stroke="#666666" points="86,-122 0,-122 0,-103 86,-103 86,-122"/>
<text text-anchor="middle" x="43" y="-110" font-family="Helvetica,sans-Serif" font-size="10.00">js_skip_object</text>
</a>
</g>
</g>
<!-- Node2 -->
<g id="Node000002" class="node">
<title>Node2</title>
<g id="a_Node000002"><a xlink:href="weights__dedup_8c.html#a7e3b6f5b10e0d8d68272d2e80523813b" target="_top" xlink:title=" ">
<polygon fill="white" stroke="#666666" points="331,-169 241,-169 241,-150 331,-150 331,-169"/>
<text text-anchor="middle" x="286" y="-157" font-family="Helvetica,sans-Serif" font-size="10.00">js_parse_string</text>
</a>
</g>
</g>
<!-- Node1&#45;&gt;Node2 -->
<g id="edge1_Node000001_Node000002" class="edge">
<title>Node1&#45;&gt;Node2</title>
<g id="a_edge1_Node000001_Node000002"><a xlink:title=" ">
<path fill="none" stroke="#63b8ff" d="M86.25,-120.74C126.46,-128.58 187.13,-140.41 230.86,-148.94"/>
<polygon fill="#63b8ff" stroke="#63b8ff" points="230.27,-152.39 240.75,-150.87 231.61,-145.52 230.27,-152.39"/>
</a>
</g>
</g>
<!-- Node3 -->
<g id="Node000003" class="node">
<title>Node3</title>
<g id="a_Node000003"><a xlink:href="weights__dedup_8c.html#a21501177295cc06eaf7d981f7d437c0c" target="_top" xlink:title=" ">
<polygon fill="white" stroke="#666666" points="436,-131 367,-131 367,-112 436,-112 436,-131"/>
<text text-anchor="middle" x="401.5" y="-119" font-family="Helvetica,sans-Serif" font-size="10.00">js_skip_ws</text>
</a>
</g>
</g>
<!-- Node1&#45;&gt;Node3 -->
<g id="edge13_Node000001_Node000003" class="edge">
<title>Node1&#45;&gt;Node3</title>
<g id="a_edge13_Node000001_Node000003"><a xlink:title=" ">
<path fill="none" stroke="#63b8ff" d="M59.61,-122.18C103.38,-148.04 230.63,-214.4 331,-178.5 353.11,-170.59 373.24,-152.29 386.08,-138.54"/>
<polygon fill="#63b8ff" stroke="#63b8ff" points="388.69,-140.87 392.75,-131.09 383.48,-136.2 388.69,-140.87"/>
</a>
</g>
</g>
<!-- Node4 -->
<g id="Node000004" class="node">
<title>Node4</title>
<g id="a_Node000004"><a xlink:href="weights__dedup_8c.html#aec6b7531542a45304d1f17d108a6d2ea" target="_top" xlink:title=" ">
<polygon fill="white" stroke="#666666" points="205,-103 122,-103 122,-84 205,-84 205,-103"/>
<text text-anchor="middle" x="163.5" y="-91" font-family="Helvetica,sans-Serif" font-size="10.00">js_skip_value</text>
</a>
</g>
</g>
<!-- Node1&#45;&gt;Node4 -->
<g id="edge3_Node000001_Node000004" class="edge">
<title>Node1&#45;&gt;Node4</title>
<g id="a_edge3_Node000001_Node000004"><a xlink:title=" ">
<path fill="none" stroke="#63b8ff" d="M68.55,-102.97C81,-100.03 96.6,-97.16 111.5,-94.99"/>
<polygon fill="#63b8ff" stroke="#63b8ff" points="112.22,-98.42 121.65,-93.6 111.27,-91.49 112.22,-98.42"/>
</a>
</g>
</g>
<!-- Node2&#45;&gt;Node3 -->
<g id="edge2_Node000002_Node000003" class="edge">
<title>Node2&#45;&gt;Node3</title>
<g id="a_edge2_Node000002_Node000003"><a xlink:title=" ">
<path fill="none" stroke="#63b8ff" d="M315.64,-149.91C329.75,-145.19 346.97,-139.42 362.2,-134.32"/>
<polygon fill="#63b8ff" stroke="#63b8ff" points="363.5,-137.58 371.87,-131.09 361.27,-130.94 363.5,-137.58"/>
</a>
</g>
</g>
<!-- Node4&#45;&gt;Node1 -->
<g id="edge11_Node000004_Node000001" class="edge">
<title>Node4&#45;&gt;Node1</title>
<g id="a_edge11_Node000004_Node000001"><a xlink:title=" ">
<path fill="none" stroke="#63b8ff" d="M137.77,-103.07C125.64,-105.93 110.54,-108.72 96.02,-110.86"/>
<polygon fill="#63b8ff" stroke="#63b8ff" points="95.54,-107.4 86.11,-112.24 96.5,-114.33 95.54,-107.4"/>
</a>
</g>
</g>
<!-- Node4&#45;&gt;Node2 -->
<g id="edge7_Node000004_Node000002" class="edge">
<title>Node4&#45;&gt;Node2</title>
<g id="a_edge7_Node000004_Node000002"><a xlink:title=" ">
<path fill="none" stroke="#63b8ff" d="M181.81,-103.02C197.31,-111.54 220.66,-124.37 241,-135.5 246.57,-138.55 252.55,-141.81 258.24,-144.92"/>
<polygon fill="#63b8ff" stroke="#63b8ff" points="256.98,-148.22 267.44,-149.93 260.33,-142.07 256.98,-148.22"/>
</a>
</g>
</g>
<!-- Node4&#45;&gt;Node3 -->
<g id="edge12_Node000004_Node000003" class="edge">
<title>Node4&#45;&gt;Node3</title>
<g id="a_edge12_Node000004_Node000003"><a xlink:title=" ">
<path fill="none" stroke="#63b8ff" d="M205.07,-98.31C247.41,-103.34 313.55,-111.18 356.96,-116.33"/>
<polygon fill="#63b8ff" stroke="#63b8ff" points="356.6,-119.82 366.94,-117.52 357.42,-112.86 356.6,-119.82"/>
</a>
</g>
</g>
<!-- Node5 -->
<g id="Node000005" class="node">
<title>Node5</title>
<g id="a_Node000005"><a xlink:href="weights__dedup_8c.html#acb6d250836afa5eddeb1985efad8afa4" target="_top" xlink:title=" ">
<polygon fill="white" stroke="#666666" points="324,-19 248,-19 248,0 324,0 324,-19"/>
<text text-anchor="middle" x="286" y="-7" font-family="Helvetica,sans-Serif" font-size="10.00">js_match_lit</text>
</a>
</g>
</g>
<!-- Node4&#45;&gt;Node5 -->
<g id="edge4_Node000004_Node000005" class="edge">
<title>Node4&#45;&gt;Node5</title>
<g id="a_edge4_Node000004_Node000005"><a xlink:title=" ">
<path fill="none" stroke="#63b8ff" d="M174.14,-83.63C187.96,-69.9 214.65,-44.87 241,-28.5 243.83,-26.74 246.84,-25.07 249.92,-23.5"/>
<polygon fill="#63b8ff" stroke="#63b8ff" points="251.67,-26.55 259.22,-19.11 248.69,-20.22 251.67,-26.55"/>
</a>
</g>
</g>
<!-- Node6 -->
<g id="Node000006" class="node">
<title>Node6</title>
<g id="a_Node000006"><a xlink:href="weights__dedup_8c.html#a080768f8631e237e2467fc47a7d4d6a0" target="_top" xlink:title=" ">
<polygon fill="white" stroke="#666666" points="324.5,-93 247.5,-93 247.5,-74 324.5,-74 324.5,-93"/>
<text text-anchor="middle" x="286" y="-81" font-family="Helvetica,sans-Serif" font-size="10.00">js_parse_i64</text>
</a>
</g>
</g>
<!-- Node4&#45;&gt;Node6 -->
<g id="edge5_Node000004_Node000006" class="edge">
<title>Node4&#45;&gt;Node6</title>
<g id="a_edge5_Node000004_Node000006"><a xlink:title=" ">
<path fill="none" stroke="#63b8ff" d="M205.3,-90.11C215.64,-89.26 226.85,-88.33 237.5,-87.44"/>
<polygon fill="#63b8ff" stroke="#63b8ff" points="237.82,-90.93 247.49,-86.61 237.24,-83.95 237.82,-90.93"/>
</a>
</g>
</g>
<!-- Node7 -->
<g id="Node000007" class="node">
<title>Node7</title>
<g id="a_Node000007"><a xlink:href="weights__dedup_8c.html#aeb7fa9bc2ccc7b24ae16f647bcafb49b" target="_top" xlink:title=" ">
<polygon fill="white" stroke="#666666" points="326.5,-56 245.5,-56 245.5,-37 326.5,-37 326.5,-56"/>
<text text-anchor="middle" x="286" y="-44" font-family="Helvetica,sans-Serif" font-size="10.00">js_skip_array</text>
</a>
</g>
</g>
<!-- Node4&#45;&gt;Node7 -->
<g id="edge8_Node000004_Node000007" class="edge">
<title>Node4&#45;&gt;Node7</title>
<g id="a_edge8_Node000004_Node000007"><a xlink:title=" ">
<path fill="none" stroke="#63b8ff" d="M177.86,-83.86C191.88,-76.52 214.79,-66.84 235.83,-59.03"/>
<polygon fill="#63b8ff" stroke="#63b8ff" points="237.12,-62.29 245.32,-55.59 234.73,-55.71 237.12,-62.29"/>
</a>
</g>
</g>
<!-- Node6&#45;&gt;Node3 -->
<g id="edge6_Node000006_Node000003" class="edge">
<title>Node6&#45;&gt;Node3</title>
<g id="a_edge6_Node000006_Node000003"><a xlink:title=" ">
<path fill="none" stroke="#63b8ff" d="M315.64,-93.09C329.75,-97.81 346.97,-103.58 362.2,-108.68"/>
<polygon fill="#63b8ff" stroke="#63b8ff" points="361.27,-112.06 371.87,-111.91 363.5,-105.42 361.27,-112.06"/>
</a>
</g>
</g>
<!-- Node7&#45;&gt;Node3 -->
<g id="edge10_Node000007_Node000003" class="edge">
<title>Node7&#45;&gt;Node3</title>
<g id="a_edge10_Node000007_Node000003"><a xlink:title=" ">
<path fill="none" stroke="#63b8ff" d="M312.25,-56.02C318.54,-58.76 325.16,-61.97 331,-65.5 349.9,-76.9 369.28,-92.95 382.76,-104.95"/>
<polygon fill="#63b8ff" stroke="#63b8ff" points="380.57,-107.69 390.33,-111.82 385.28,-102.51 380.57,-107.69"/>
</a>
</g>
</g>
<!-- Node7&#45;&gt;Node4 -->
<g id="edge9_Node000007_Node000004" class="edge">
<title>Node7&#45;&gt;Node4</title>
<g id="a_edge9_Node000007_Node000004"><a xlink:title=" ">
<path fill="none" stroke="#63b8ff" d="M271.64,-56.15C257.89,-63.34 235.64,-72.76 214.96,-80.49"/>
<polygon fill="#63b8ff" stroke="#63b8ff" points="213.49,-77.3 205.3,-84.01 215.89,-83.88 213.49,-77.3"/>
</a>
</g>
</g>
</g>
</svg>
</svg>

<style type='text/css'>
<![CDATA[
[data-mouse-over-selected='false'] { opacity: 0.7; }
[data-mouse-over-selected='true']  { opacity: 1.0; }
]]>
</style>
<script type="application/ecmascript"><![CDATA[
document.addEventListener('DOMContentLoaded', (event) => {
  highlightEdges();
  highlightAdjacentNodes();
});
]]></script>
</svg>
