<?xml version="1.0" encoding="UTF-8" standalone="no"?>
<!DOCTYPE svg PUBLIC "-//W3C//DTD SVG 1.1//EN"
 "http://www.w3.org/Graphics/SVG/1.1/DTD/svg11.dtd">
<!-- Generated by graphviz version 2.43.0 (0)
 -->
<!-- Title: js_find_member_value Pages: 1 -->
<svg width="1189pt" height="236pt"
 viewBox="0.00 0.00 1189.00 236.28" xmlns="http://www.w3.org/2000/svg" xmlns:xlink="http://www.w3.org/1999/xlink">
<g id="graph0" class="graph" transform="scale(1 1) rotate(0) translate(4 232.28)">
<title>js_find_member_value</title>
<!-- Node1 -->
<g id="Node000001" class="node">
<title>Node1</title>
<g id="a_Node000001"><a xlink:title=" ">
<polygon fill="#999999" stroke="#666666" points="1181,-133 1054,-133 1054,-114 1181,-114 1181,-133"/>
<text text-anchor="middle" x="1117.5" y="-121" font-family="Helvetica,sans-Serif" font-size="10.00">js_find_member_value</text>
</a>
</g>
</g>
<!-- Node2 -->
<g id="Node000002" class="node">
<title>Node2</title>
<g id="a_Node000002"><a xlink:href="weights__dedup_8c.html#aff1829f796837ea285a63b43a0a2d485" target="_top" xlink:title=" ">
<polygon fill="white" stroke="#666666" points="859.5,-197.5 743.5,-197.5 743.5,-167.5 859.5,-167.5 859.5,-197.5"/>
<text text-anchor="start" x="751.5" y="-185.5" font-family="Helvetica,sans-Serif" font-size="10.00">ie_parse_iejson_one</text>
<text text-anchor="middle" x="801.5" y="-174.5" font-family="Helvetica,sans-Serif" font-size="10.00">_tensor</text>
</a>
</g>
</g>
<!-- Node1&#45;&gt;Node2 -->
<g id="edge1_Node000001_Node000002" class="edge">
<title>Node1&#45;&gt;Node2</title>
<g id="a_edge1_Node000001_Node000002"><a xlink:title=" ">
<path fill="none" stroke="#63b8ff" d="M1104.41,-141.54C1087.97,-164.27 1056.19,-202.2 1018,-217.5 955.72,-242.45 876.54,-216.17 833.61,-197.57"/>
<polygon fill="#63b8ff" stroke="#63b8ff" points="1107.45,-143.31 1110.31,-133.11 1101.71,-139.3 1107.45,-143.31"/>
</a>
</g>
</g>
<!-- Node3 -->
<g id="Node000003" class="node">
<title>Node3</title>
<g id="a_Node000003"><a xlink:href="weights__dedup_8c.html#a3baac12d7191041beab3fc4508b94be7" target="_top" xlink:title=" ">
<polygon fill="white" stroke="#666666" points="707,-133 573,-133 573,-114 707,-114 707,-133"/>
<text text-anchor="middle" x="640" y="-121" font-family="Helvetica,sans-Serif" font-size="10.00">ie_parse_iejson_tensors</text>
</a>
</g>
</g>
<!-- Node1&#45;&gt;Node3 -->
<g id="edge13_Node000001_Node000003" class="edge">
<title>Node1&#45;&gt;Node3</title>
<g id="a_edge13_Node000001_Node000003"><a xlink:title=" ">
<path fill="none" stroke="#63b8ff" d="M1043.82,-123.5C952.13,-123.5 795.76,-123.5 707.23,-123.5"/>
<polygon fill="#63b8ff" stroke="#63b8ff" points="1043.85,-127 1053.85,-123.5 1043.85,-120 1043.85,-127"/>
</a>
</g>
</g>
<!-- Node4 -->
<g id="Node000004" class="node">
<title>Node4</title>
<g id="a_Node000004"><a xlink:href="weights__dedup_8c.html#aa625b41ce2a24826f8cb464661ace8ec" target="_top" xlink:title="Open the dedup weights loader from a model directory.">
<polygon fill="white" stroke="#666666" points="537,-95 403,-95 403,-76 537,-76 537,-95"/>
<text text-anchor="middle" x="470" y="-83" font-family="Helvetica,sans-Serif" font-size="10.00">ie_weights_dedup_open</text>
</a>
</g>
</g>
<!-- Node1&#45;&gt;Node4 -->
<g id="edge17_Node000001_Node000004" class="edge">
<title>Node1&#45;&gt;Node4</title>
<g id="a_edge17_Node000001_Node000004"><a xlink:title=" ">
<path fill="none" stroke="#63b8ff" d="M1043.37,-119.19C916.83,-111.75 658.91,-96.56 537.28,-89.4"/>
<polygon fill="#63b8ff" stroke="#63b8ff" points="1043.54,-122.71 1053.73,-119.8 1043.95,-115.72 1043.54,-122.71"/>
</a>
</g>
</g>
<!-- Node13 -->
<g id="Node000013" class="node">
<title>Node13</title>
<g id="a_Node000013"><a xlink:href="weights__dedup_8c.html#ac8435c15b639ac76b805cc23f609be12" target="_top" xlink:title=" ">
<polygon fill="white" stroke="#666666" points="860,-57 743,-57 743,-38 860,-38 860,-57"/>
<text text-anchor="middle" x="801.5" y="-45" font-family="Helvetica,sans-Serif" font-size="10.00">ie_parse_one_tensor</text>
</a>
</g>
</g>
<!-- Node1&#45;&gt;Node13 -->
<g id="edge14_Node000001_Node000013" class="edge">
<title>Node1&#45;&gt;Node13</title>
<g id="a_edge14_Node000001_Node000013"><a xlink:title=" ">
<path fill="none" stroke="#63b8ff" d="M1093.9,-108.41C1074.6,-96.31 1045.64,-80 1018,-71.5 966.19,-55.57 904.48,-49.97 860.4,-48.11"/>
<polygon fill="#63b8ff" stroke="#63b8ff" points="1092.25,-111.51 1102.56,-113.96 1096.03,-105.61 1092.25,-111.51"/>
</a>
</g>
</g>
<!-- Node15 -->
<g id="Node000015" class="node">
<title>Node15</title>
<g id="a_Node000015"><a xlink:href="weights__dedup_8c.html#ac65e64ed76368c21cf76399a4eed1b90" target="_top" xlink:title=" ">
<polygon fill="white" stroke="#666666" points="1005.5,-19 908.5,-19 908.5,0 1005.5,0 1005.5,-19"/>
<text text-anchor="middle" x="957" y="-7" font-family="Helvetica,sans-Serif" font-size="10.00">js_parse_blobref</text>
</a>
</g>
</g>
<!-- Node1&#45;&gt;Node15 -->
<g id="edge18_Node000001_Node000015" class="edge">
<title>Node1&#45;&gt;Node15</title>
<g id="a_edge18_Node000001_Node000015"><a xlink:title=" ">
<path fill="none" stroke="#63b8ff" d="M1101.27,-106.24C1083.08,-86.48 1050.96,-54.19 1018,-33.5 1008.78,-27.72 997.94,-22.87 988.02,-19.08"/>
<polygon fill="#63b8ff" stroke="#63b8ff" points="1098.87,-108.8 1108.17,-113.87 1104.06,-104.11 1098.87,-108.8"/>
</a>
</g>
</g>
<!-- Node16 -->
<g id="Node000016" class="node">
<title>Node16</title>
<g id="a_Node000016"><a xlink:href="weights__dedup_8c.html#ace1eab87292a3ab28bc10e2a8741b84b" target="_top" xlink:title=" ">
<polygon fill="white" stroke="#666666" points="1015,-208 899,-208 899,-189 1015,-189 1015,-208"/>
<text text-anchor="middle" x="957" y="-196" font-family="Helvetica,sans-Serif" font-size="10.00">js_read_str_member</text>
</a>
</g>
</g>
<!-- Node1&#45;&gt;Node16 -->
<g id="edge20_Node000001_Node000016" class="edge">
<title>Node1&#45;&gt;Node16</title>
<g id="a_edge20_Node000001_Node000016"><a xlink:title=" ">
<path fill="none" stroke="#63b8ff" d="M1093.9,-138.62C1074.43,-151.14 1045.24,-168.72 1018,-180.5 1010.61,-183.69 1002.48,-186.54 994.66,-188.98"/>
<polygon fill="#63b8ff" stroke="#63b8ff" points="1095.9,-141.49 1102.37,-133.1 1092.08,-135.63 1095.9,-141.49"/>
</a>
</g>
</g>
<!-- Node17 -->
<g id="Node000017" class="node">
<title>Node17</title>
<g id="a_Node000017"><a xlink:href="weights__dedup_8c.html#ad380703417334421d025a859a9a6e67e" target="_top" xlink:title=" ">
<polygon fill="white" stroke="#666666" points="1018,-171 896,-171 896,-152 1018,-152 1018,-171"/>
<text text-anchor="middle" x="957" y="-159" font-family="Helvetica,sans-Serif" font-size="10.00">js_read_u64_member</text>
</a>
</g>
</g>
<!-- Node1&#45;&gt;Node17 -->
<g id="edge22_Node000001_Node000017" class="edge">
<title>Node1&#45;&gt;Node17</title>
<g id="a_edge22_Node000001_Node000017"><a xlink:title=" ">
<path fill="none" stroke="#63b8ff" d="M1066.58,-135.47C1044.37,-140.79 1018.58,-146.98 997.71,-151.98"/>
<polygon fill="#63b8ff" stroke="#63b8ff" points="1067.6,-138.82 1076.5,-133.09 1065.96,-132.02 1067.6,-138.82"/>
</a>
</g>
</g>
<!-- Node2&#45;&gt;Node3 -->
<g id="edge2_Node000002_Node000003" class="edge">
<title>Node2&#45;&gt;Node3</title>
<g id="a_edge2_Node000002_Node000003"><a xlink:title=" ">
<path fill="none" stroke="#63b8ff" d="M750.33,-163.94C722.71,-153.73 689.59,-141.47 667.09,-133.15"/>
<polygon fill="#63b8ff" stroke="#63b8ff" points="749.25,-167.27 759.84,-167.46 751.67,-160.71 749.25,-167.27"/>
</a>
</g>
</g>
<!-- Node3&#45;&gt;Node4 -->
<g id="edge3_Node000003_Node000004" class="edge">
<title>Node3&#45;&gt;Node4</title>
<g id="a_edge3_Node000003_Node000004"><a xlink:title=" ">
<path fill="none" stroke="#63b8ff" d="M586.72,-111.68C563.04,-106.32 535.41,-100.07 513.09,-95.02"/>
<polygon fill="#63b8ff" stroke="#63b8ff" points="586.08,-115.12 596.61,-113.91 587.63,-108.29 586.08,-115.12"/>
</a>
</g>
</g>
<!-- Node5 -->
<g id="Node000005" class="node">
<title>Node5</title>
<g id="a_Node000005"><a xlink:href="gptoss__weights__index_8c.html#ab0abbe94d2373ea44d51f2325c7cc46c" target="_top" xlink:title="Open a weights index for a given model directory and weights descriptor.">
<polygon fill="white" stroke="#666666" points="367,-114 213,-114 213,-95 367,-95 367,-114"/>
<text text-anchor="middle" x="290" y="-102" font-family="Helvetica,sans-Serif" font-size="10.00">gptoss_weights_index_open</text>
</a>
</g>
</g>
<!-- Node4&#45;&gt;Node5 -->
<g id="edge4_Node000004_Node000005" class="edge">
<title>Node4&#45;&gt;Node5</title>
<g id="a_edge4_Node000004_Node000005"><a xlink:title=" ">
<path fill="none" stroke="#63b8ff" d="M393.01,-93.61C384.44,-94.53 375.7,-95.46 367.13,-96.37"/>
<polygon fill="#63b8ff" stroke="#63b8ff" points="393.4,-97.09 402.97,-92.55 392.66,-90.13 393.4,-97.09"/>
</a>
</g>
</g>
<!-- Node6 -->
<g id="Node000006" class="node">
<title>Node6</title>
<g id="a_Node000006"><a xlink:href="weights_8c.html#a522dac028ee37aae1307ffdb6d65ec1d" target="_top" xlink:title="Open and parse an IEBIN v1 model description.">
<polygon fill="white" stroke="#666666" points="339,-77 241,-77 241,-58 339,-58 339,-77"/>
<text text-anchor="middle" x="290" y="-65" font-family="Helvetica,sans-Serif" font-size="10.00">ie_weights_open</text>
</a>
</g>
</g>
<!-- Node4&#45;&gt;Node6 -->
<g id="edge5_Node000004_Node000006" class="edge">
<title>Node4&#45;&gt;Node6</title>
<g id="a_edge5_Node000004_Node000006"><a xlink:title=" ">
<path fill="none" stroke="#63b8ff" d="M392.93,-77.81C374.68,-75.96 355.7,-74.04 339.12,-72.37"/>
<polygon fill="#63b8ff" stroke="#63b8ff" points="392.67,-81.3 402.97,-78.82 393.38,-74.33 392.67,-81.3"/>
</a>
</g>
</g>
<!-- Node7 -->
<g id="Node000007" class="node">
<title>Node7</title>
<g id="a_Node000007"><a xlink:href="ie__api_8c.html#a84bd87043352946e9d53b0f8a5c4abe0" target="_top" xlink:title="Create an engine instance.">
<polygon fill="white" stroke="#666666" points="177,-96 77,-96 77,-77 177,-77 177,-96"/>
<text text-anchor="middle" x="127" y="-84" font-family="Helvetica,sans-Serif" font-size="10.00">ie_engine_create</text>
</a>
</g>
</g>
<!-- Node6&#45;&gt;Node7 -->
<g id="edge6_Node000006_Node000007" class="edge">
<title>Node6&#45;&gt;Node7</title>
<g id="a_edge6_Node000006_Node000007"><a xlink:title=" ">
<path fill="none" stroke="#63b8ff" d="M230.57,-74.4C213.03,-76.47 193.98,-78.71 177.11,-80.7"/>
<polygon fill="#63b8ff" stroke="#63b8ff" points="231.17,-77.85 240.69,-73.2 230.35,-70.9 231.17,-77.85"/>
</a>
</g>
</g>
<!-- Node8 -->
<g id="Node000008" class="node">
<title>Node8</title>
<g id="a_Node000008"><a xlink:href="main__infer_8c.html#a3c04138a5bfe5d72780bb7e82a18e627" target="_top" xlink:title="main.">
<polygon fill="white" stroke="#666666" points="41,-133 0,-133 0,-114 41,-114 41,-133"/>
<text text-anchor="middle" x="20.5" y="-121" font-family="Helvetica,sans-Serif" font-size="10.00">main</text>
</a>
</g>
</g>
<!-- Node6&#45;&gt;Node8 -->
<g id="edge9_Node000006_Node000008" class="edge">
<title>Node6&#45;&gt;Node8</title>
<g id="a_edge9_Node000006_Node000008"><a xlink:title=" ">
<path fill="none" stroke="#63b8ff" d="M230.54,-79.75C224.55,-81.48 218.61,-83.39 213,-85.5 196.06,-91.86 194.26,-99.09 177,-104.5 129.76,-119.3 71.1,-122.66 41.13,-123.36"/>
<polygon fill="#63b8ff" stroke="#63b8ff" points="231.87,-83.01 240.61,-77.02 230.04,-76.26 231.87,-83.01"/>
</a>
</g>
</g>
<!-- Node10 -->
<g id="Node000010" class="node">
<title>Node10</title>
<g id="a_Node000010"><a xlink:href="test__weights_8c.html#a840291bc02cba5474a4cb46a9b9566fe" target="_top" xlink:title="Main test entrypoint.">
<polygon fill="white" stroke="#666666" points="147.5,-59 106.5,-59 106.5,-40 147.5,-40 147.5,-59"/>
<text text-anchor="middle" x="127" y="-47" font-family="Helvetica,sans-Serif" font-size="10.00">main</text>
</a>
</g>
</g>
<!-- Node6&#45;&gt;Node10 -->
<g id="edge10_Node000006_Node000010" class="edge">
<title>Node6&#45;&gt;Node10</title>
<g id="a_edge10_Node000006_Node000010"><a xlink:title=" ">
<path fill="none" stroke="#63b8ff" d="M230.62,-60.97C201.56,-57.72 168.34,-54.01 147.76,-51.71"/>
<polygon fill="#63b8ff" stroke="#63b8ff" points="230.37,-64.47 240.69,-62.1 231.15,-57.51 230.37,-64.47"/>
</a>
</g>
</g>
<!-- Node11 -->
<g id="Node000011" class="node">
<title>Node11</title>
<g id="a_Node000011"><a xlink:href="test__dedup__loader_8c.html#a73dca7f77cd9da376bc14e888330d88f" target="_top" xlink:title=" ">
<polygon fill="white" stroke="#666666" points="175,-22 79,-22 79,-3 175,-3 175,-22"/>
<text text-anchor="middle" x="127" y="-10" font-family="Helvetica,sans-Serif" font-size="10.00">open_and_touch</text>
</a>
</g>
</g>
<!-- Node6&#45;&gt;Node11 -->
<g id="edge11_Node000006_Node000011" class="edge">
<title>Node6&#45;&gt;Node11</title>
<g id="a_edge11_Node000006_Node000011"><a xlink:title=" ">
<path fill="none" stroke="#63b8ff" d="M251.12,-54.56C221.96,-44.6 182.33,-31.06 155.99,-22.06"/>
<polygon fill="#63b8ff" stroke="#63b8ff" points="250.36,-58 260.96,-57.92 252.62,-51.37 250.36,-58"/>
</a>
</g>
</g>
<!-- Node7&#45;&gt;Node8 -->
<g id="edge7_Node000007_Node000008" class="edge">
<title>Node7&#45;&gt;Node8</title>
<g id="a_edge7_Node000007_Node000008"><a xlink:title=" ">
<path fill="none" stroke="#63b8ff" d="M89.32,-99.49C73.07,-105.24 54.61,-111.78 41.06,-116.57"/>
<polygon fill="#63b8ff" stroke="#63b8ff" points="90.83,-102.67 99.09,-96.03 88.49,-96.07 90.83,-102.67"/>
</a>
</g>
</g>
<!-- Node9 -->
<g id="Node000009" class="node">
<title>Node9</title>
<g id="a_Node000009"><a xlink:href="test__api_8c.html#a840291bc02cba5474a4cb46a9b9566fe" target="_top" xlink:title=" ">
<polygon fill="white" stroke="#666666" points="41,-96 0,-96 0,-77 41,-77 41,-96"/>
<text text-anchor="middle" x="20.5" y="-84" font-family="Helvetica,sans-Serif" font-size="10.00">main</text>
</a>
</g>
</g>
<!-- Node7&#45;&gt;Node9 -->
<g id="edge8_Node000007_Node000009" class="edge">
<title>Node7&#45;&gt;Node9</title>
<g id="a_edge8_Node000007_Node000009"><a xlink:title=" ">
<path fill="none" stroke="#63b8ff" d="M66.77,-86.5C57.58,-86.5 48.68,-86.5 41.24,-86.5"/>
<polygon fill="#63b8ff" stroke="#63b8ff" points="66.81,-90 76.81,-86.5 66.81,-83 66.81,-90"/>
</a>
</g>
</g>
<!-- Node12 -->
<g id="Node000012" class="node">
<title>Node12</title>
<g id="a_Node000012"><a xlink:href="test__dedup__loader_8c.html#a3c04138a5bfe5d72780bb7e82a18e627" target="_top" xlink:title=" ">
<polygon fill="white" stroke="#666666" points="41,-22 0,-22 0,-3 41,-3 41,-22"/>
<text text-anchor="middle" x="20.5" y="-10" font-family="Helvetica,sans-Serif" font-size="10.00">main</text>
</a>
</g>
</g>
<!-- Node11&#45;&gt;Node12 -->
<g id="edge12_Node000011_Node000012" class="edge">
<title>Node11&#45;&gt;Node12</title>
<g id="a_edge12_Node000011_Node000012"><a xlink:title=" ">
<path fill="none" stroke="#63b8ff" d="M68.92,-12.5C58.92,-12.5 49.16,-12.5 41.11,-12.5"/>
<polygon fill="#63b8ff" stroke="#63b8ff" points="68.95,-16 78.95,-12.5 68.95,-9 68.95,-16"/>
</a>
</g>
</g>
<!-- Node14 -->
<g id="Node000014" class="node">
<title>Node14</title>
<g id="a_Node000014"><a xlink:href="weights__dedup_8c.html#a1eaf38d57abdd040f9c40e2e3ea1525c" target="_top" xlink:title=" ">
<polygon fill="white" stroke="#666666" points="705,-57 575,-57 575,-38 705,-38 705,-57"/>
<text text-anchor="middle" x="640" y="-45" font-family="Helvetica,sans-Serif" font-size="10.00">ie_parse_tensors_array</text>
</a>
</g>
</g>
<!-- Node13&#45;&gt;Node14 -->
<g id="edge15_Node000013_Node000014" class="edge">
<title>Node13&#45;&gt;Node14</title>
<g id="a_edge15_Node000013_Node000014"><a xlink:title=" ">
<path fill="none" stroke="#63b8ff" d="M732.75,-47.5C723.63,-47.5 714.31,-47.5 705.26,-47.5"/>
<polygon fill="#63b8ff" stroke="#63b8ff" points="732.92,-51 742.92,-47.5 732.92,-44 732.92,-51"/>
</a>
</g>
</g>
<!-- Node14&#45;&gt;Node4 -->
<g id="edge16_Node000014_Node000004" class="edge">
<title>Node14&#45;&gt;Node4</title>
<g id="a_edge16_Node000014_Node000004"><a xlink:title=" ">
<path fill="none" stroke="#63b8ff" d="M586.72,-59.32C563.04,-64.68 535.41,-70.93 513.09,-75.98"/>
<polygon fill="#63b8ff" stroke="#63b8ff" points="587.63,-62.71 596.61,-57.09 586.08,-55.88 587.63,-62.71"/>
</a>
</g>
</g>
<!-- Node15&#45;&gt;Node13 -->
<g id="edge19_Node000015_Node000013" class="edge">
<title>Node15&#45;&gt;Node13</title>
<g id="a_edge19_Node000015_Node000013"><a xlink:title=" ">
<path fill="none" stroke="#63b8ff" d="M907.36,-21.54C885.92,-26.85 861.08,-33 840.96,-37.98"/>
<polygon fill="#63b8ff" stroke="#63b8ff" points="908.4,-24.89 917.27,-19.09 906.72,-18.09 908.4,-24.89"/>
</a>
</g>
</g>
<!-- Node16&#45;&gt;Node2 -->
<g id="edge21_Node000016_Node000002" class="edge">
<title>Node16&#45;&gt;Node2</title>
<g id="a_edge21_Node000016_Node000002"><a xlink:title=" ">
<path fill="none" stroke="#63b8ff" d="M888.82,-191.5C879.11,-190.49 869.2,-189.45 859.71,-188.46"/>
<polygon fill="#63b8ff" stroke="#63b8ff" points="888.53,-194.99 898.84,-192.54 889.26,-188.02 888.53,-194.99"/>
</a>
</g>
</g>
<!-- Node17&#45;&gt;Node2 -->
<g id="edge23_Node000017_Node000002" class="edge">
<title>Node17&#45;&gt;Node2</title>
<g id="a_edge23_Node000017_Node000002"><a xlink:title=" ">
<path fill="none" stroke="#63b8ff" d="M885.6,-171.13C876.88,-172.32 868.04,-173.53 859.54,-174.7"/>
<polygon fill="#63b8ff" stroke="#63b8ff" points="886.34,-174.56 895.77,-169.74 885.39,-167.63 886.34,-174.56"/>
</a>
</g>
</g>
</g>
</svg>
