<?xml version="1.0" encoding="UTF-8" standalone="no"?>
<!DOCTYPE svg PUBLIC "-//W3C//DTD SVG 1.1//EN"
 "http://www.w3.org/Graphics/SVG/1.1/DTD/svg11.dtd">
<!-- Generated by graphviz version 2.43.0 (0)
 -->
<!-- Title: find_dedup_manifest_source_ Pages: 1 -->
<svg width="352pt" height="79pt"
 viewBox="0.00 0.00 352.00 78.98" xmlns="http://www.w3.org/2000/svg" xmlns:xlink="http://www.w3.org/1999/xlink">

<svg id="main" version="1.1" xmlns="http://www.w3.org/2000/svg" xmlns:xlink="http://www.w3.org/1999/xlink" xml:space="preserve" onload="init(evt)">
<style type="text/css"><![CDATA[
.node, .edge {opacity: 0.7;}
.node.selected, .edge.selected {opacity: 1;}
.edge:hover path { stroke: red; }
.edge:hover polygon { stroke: red; fill: red; }
]]></style>
<script type="application/ecmascript" xlink:href="svg.min.js"/>
<svg id="graph" class="graph">
<g id="graph0" class="graph" transform="scale(1 1) rotate(0) translate(4 74.98)">
<title>find_dedup_manifest_source_</title>
<!-- Node1 -->
<g id="Node000001" class="node">
<title>Node1</title>
<g id="a_Node000001"><a xlink:title=" ">
<polygon fill="#999999" stroke="#666666" points="119,-61.5 0,-61.5 0,-31.5 119,-31.5 119,-61.5"/>
<text text-anchor="start" x="8" y="-49.5" font-family="Helvetica,sans-Serif" font-size="10.00">find_dedup_manifest</text>
<text text-anchor="middle" x="59.5" y="-38.5" font-family="Helvetica,sans-Serif" font-size="10.00">_source_</text>
</a>
</g>
</g>
<!-- Node2 -->
<g id="Node000002" class="node">
<title>Node2</title>
<g id="a_Node000002"><a xlink:href="weights_8c.html#ae3307b59271742c37862abf0b9698d23" target="_top" xlink:title="Copy a C&#45;string into a bounded buffer and always NUL&#45;terminate.">
<polygon fill="white" stroke="#666666" points="344,-56 305,-56 305,-37 344,-37 344,-56"/>
<text text-anchor="middle" x="324.5" y="-44" font-family="Helvetica,sans-Serif" font-size="10.00">cpyz</text>
</a>
</g>
</g>
<!-- Node1&#45;&gt;Node2 -->
<g id="edge1_Node000001_Node000002" class="edge">
<title>Node1&#45;&gt;Node2</title>
<g id="a_edge1_Node000001_Node000002"><a xlink:title=" ">
<path fill="none" stroke="#63b8ff" d="M119.21,-60.18C131,-62.39 143.34,-64.34 155,-65.5 205.42,-70.52 219.04,-73.96 269,-65.5 277.71,-64.03 286.88,-61.31 295.17,-58.39"/>
<polygon fill="#63b8ff" stroke="#63b8ff" points="296.62,-61.59 304.74,-54.79 294.15,-55.03 296.62,-61.59"/>
</a>
</g>
</g>
<!-- Node3 -->
<g id="Node000003" class="node">
<title>Node3</title>
<g id="a_Node000003"><a xlink:href="weights_8c.html#a8adb51cd6c239a9589d4d66cd0cf989e" target="_top" xlink:title="Check if a path exists and is readable.">
<polygon fill="white" stroke="#666666" points="269,-56 155,-56 155,-37 269,-37 269,-56"/>
<text text-anchor="middle" x="212" y="-44" font-family="Helvetica,sans-Serif" font-size="10.00">file_exists_readable</text>
</a>
</g>
</g>
<!-- Node1&#45;&gt;Node3 -->
<g id="edge2_Node000001_Node000003" class="edge">
<title>Node1&#45;&gt;Node3</title>
<g id="a_edge2_Node000001_Node000003"><a xlink:title=" ">
<path fill="none" stroke="#63b8ff" d="M119.12,-46.5C127.45,-46.5 136.07,-46.5 144.54,-46.5"/>
<polygon fill="#63b8ff" stroke="#63b8ff" points="144.76,-50 154.76,-46.5 144.76,-43 144.76,-50"/>
</a>
</g>
</g>
<!-- Node4 -->
<g id="Node000004" class="node">
<title>Node4</title>
<g id="a_Node000004"><a xlink:href="weights_8c.html#a7bb1dd9958b072fc5d1a80373cc074ff" target="_top" xlink:title="Join directory and filename into an output buffer (NUL&#45;terminated).">
<polygon fill="white" stroke="#666666" points="243,-19 181,-19 181,0 243,0 243,-19"/>
<text text-anchor="middle" x="212" y="-7" font-family="Helvetica,sans-Serif" font-size="10.00">join_path</text>
</a>
</g>
</g>
<!-- Node1&#45;&gt;Node4 -->
<g id="edge3_Node000001_Node000004" class="edge">
<title>Node1&#45;&gt;Node4</title>
<g id="a_edge3_Node000001_Node000004"><a xlink:title=" ">
<path fill="none" stroke="#63b8ff" d="M119.12,-32.09C136.45,-27.83 155.02,-23.26 170.9,-19.36"/>
<polygon fill="#63b8ff" stroke="#63b8ff" points="172.03,-22.68 180.91,-16.9 170.36,-15.89 172.03,-22.68"/>
</a>
</g>
</g>
<!-- Node4&#45;&gt;Node2 -->
<g id="edge4_Node000004_Node000002" class="edge">
<title>Node4&#45;&gt;Node2</title>
<g id="a_edge4_Node000004_Node000002"><a xlink:title=" ">
<path fill="none" stroke="#63b8ff" d="M241.46,-19.03C257.98,-24.56 278.72,-31.51 295.21,-37.03"/>
<polygon fill="#63b8ff" stroke="#63b8ff" points="294.26,-40.4 304.86,-40.26 296.49,-33.76 294.26,-40.4"/>
</a>
</g>
</g>
</g>
</svg>
</svg>

<style type='text/css'>
<![CDATA[
[data-mouse-over-selected='false'] { opacity: 0.7; }
[data-mouse-over-selected='true']  { opacity: 1.0; }
]]>
</style>
<script type="application/ecmascript"><![CDATA[
document.addEventListener('DOMContentLoaded', (event) => {
  highlightEdges();
  highlightAdjacentNodes();
});
]]></script>
</svg>
