<?xml version="1.0" encoding="UTF-8" standalone="no"?>
<!DOCTYPE svg PUBLIC "-//W3C//DTD SVG 1.1//EN"
 "http://www.w3.org/Graphics/SVG/1.1/DTD/svg11.dtd">
<!-- Generated by graphviz version 2.43.0 (0)
 -->
<!-- Title: ie_iejson_tensor_free Pages: 1 -->
<svg width="1031pt" height="222pt"
 viewBox="0.00 0.00 1031.00 221.50" xmlns="http://www.w3.org/2000/svg" xmlns:xlink="http://www.w3.org/1999/xlink">
<g id="graph0" class="graph" transform="scale(1 1) rotate(0) translate(4 217.5)">
<title>ie_iejson_tensor_free</title>
<!-- Node1 -->
<g id="Node000001" class="node">
<title>Node1</title>
<g id="a_Node000001"><a xlink:title=" ">
<polygon fill="#999999" stroke="#666666" points="1023,-67.5 902,-67.5 902,-48.5 1023,-48.5 1023,-67.5"/>
<text text-anchor="middle" x="962.5" y="-55.5" font-family="Helvetica,sans-Serif" font-size="10.00">ie_iejson_tensor_free</text>
</a>
</g>
</g>
<!-- Node2 -->
<g id="Node000002" class="node">
<title>Node2</title>
<g id="a_Node000002"><a xlink:href="weights__dedup_8c.html#aff1829f796837ea285a63b43a0a2d485" target="_top" xlink:title=" ">
<polygon fill="white" stroke="#666666" points="866,-30 750,-30 750,0 866,0 866,-30"/>
<text text-anchor="start" x="758" y="-18" font-family="Helvetica,sans-Serif" font-size="10.00">ie_parse_iejson_one</text>
<text text-anchor="middle" x="808" y="-7" font-family="Helvetica,sans-Serif" font-size="10.00">_tensor</text>
</a>
</g>
</g>
<!-- Node1&#45;&gt;Node2 -->
<g id="edge1_Node000001_Node000002" class="edge">
<title>Node1&#45;&gt;Node2</title>
<g id="a_edge1_Node000001_Node000002"><a xlink:title=" ">
<path fill="none" stroke="#63b8ff" d="M917.81,-45.68C900.48,-40.79 880.39,-35.13 862.22,-30.01"/>
<polygon fill="#63b8ff" stroke="#63b8ff" points="917.08,-49.11 927.66,-48.46 918.98,-42.37 917.08,-49.11"/>
</a>
</g>
</g>
<!-- Node3 -->
<g id="Node000003" class="node">
<title>Node3</title>
<g id="a_Node000003"><a xlink:href="weights__dedup_8c.html#a3baac12d7191041beab3fc4508b94be7" target="_top" xlink:title=" ">
<polygon fill="white" stroke="#666666" points="713.5,-62.5 579.5,-62.5 579.5,-43.5 713.5,-43.5 713.5,-62.5"/>
<text text-anchor="middle" x="646.5" y="-50.5" font-family="Helvetica,sans-Serif" font-size="10.00">ie_parse_iejson_tensors</text>
</a>
</g>
</g>
<!-- Node1&#45;&gt;Node3 -->
<g id="edge13_Node000001_Node000003" class="edge">
<title>Node1&#45;&gt;Node3</title>
<g id="a_edge13_Node000001_Node000003"><a xlink:title=" ">
<path fill="none" stroke="#63b8ff" d="M891.67,-56.89C838.51,-56.04 765.81,-54.88 713.59,-54.05"/>
<polygon fill="#63b8ff" stroke="#63b8ff" points="891.65,-60.39 901.7,-57.05 891.76,-53.39 891.65,-60.39"/>
</a>
</g>
</g>
<!-- Node13 -->
<g id="Node000013" class="node">
<title>Node13</title>
<g id="a_Node000013"><a xlink:href="weights__dedup_8c.html#a3ad33a6fe3c7a81072c092d1ee510fce" target="_top" xlink:title="Close the loader and free all associated memory.">
<polygon fill="white" stroke="#666666" points="714,-105.5 579,-105.5 579,-86.5 714,-86.5 714,-105.5"/>
<text text-anchor="middle" x="646.5" y="-93.5" font-family="Helvetica,sans-Serif" font-size="10.00">ie_weights_dedup_close</text>
</a>
</g>
</g>
<!-- Node1&#45;&gt;Node13 -->
<g id="edge14_Node000001_Node000013" class="edge">
<title>Node1&#45;&gt;Node13</title>
<g id="a_edge14_Node000001_Node000013"><a xlink:title=" ">
<path fill="none" stroke="#63b8ff" d="M891.78,-66.81C883.1,-67.9 874.35,-68.98 866,-70 815.19,-76.22 757.7,-83.05 714.45,-88.15"/>
<polygon fill="#63b8ff" stroke="#63b8ff" points="892.41,-70.26 901.9,-65.55 891.55,-63.32 892.41,-70.26"/>
</a>
</g>
</g>
<!-- Node2&#45;&gt;Node3 -->
<g id="edge2_Node000002_Node000003" class="edge">
<title>Node2&#45;&gt;Node3</title>
<g id="a_edge2_Node000002_Node000003"><a xlink:title=" ">
<path fill="none" stroke="#63b8ff" d="M740.09,-30.94C722.3,-35.18 703.62,-39.63 687.74,-43.41"/>
<polygon fill="#63b8ff" stroke="#63b8ff" points="740.95,-34.33 749.87,-28.61 739.33,-27.52 740.95,-34.33"/>
</a>
</g>
</g>
<!-- Node4 -->
<g id="Node000004" class="node">
<title>Node4</title>
<g id="a_Node000004"><a xlink:href="weights__dedup_8c.html#aa625b41ce2a24826f8cb464661ace8ec" target="_top" xlink:title="Open the dedup weights loader from a model directory.">
<polygon fill="white" stroke="#666666" points="543,-62.5 409,-62.5 409,-43.5 543,-43.5 543,-62.5"/>
<text text-anchor="middle" x="476" y="-50.5" font-family="Helvetica,sans-Serif" font-size="10.00">ie_weights_dedup_open</text>
</a>
</g>
</g>
<!-- Node3&#45;&gt;Node4 -->
<g id="edge3_Node000003_Node000004" class="edge">
<title>Node3&#45;&gt;Node4</title>
<g id="a_edge3_Node000003_Node000004"><a xlink:title=" ">
<path fill="none" stroke="#63b8ff" d="M569.25,-53C560.56,-53 551.75,-53 543.2,-53"/>
<polygon fill="#63b8ff" stroke="#63b8ff" points="569.39,-56.5 579.39,-53 569.39,-49.5 569.39,-56.5"/>
</a>
</g>
</g>
<!-- Node5 -->
<g id="Node000005" class="node">
<title>Node5</title>
<g id="a_Node000005"><a xlink:href="gptoss__weights__index_8c.html#ab0abbe94d2373ea44d51f2325c7cc46c" target="_top" xlink:title="Open a weights index for a given model directory and weights descriptor.">
<polygon fill="white" stroke="#666666" points="373,-99.5 219,-99.5 219,-80.5 373,-80.5 373,-99.5"/>
<text text-anchor="middle" x="296" y="-87.5" font-family="Helvetica,sans-Serif" font-size="10.00">gptoss_weights_index_open</text>
</a>
</g>
</g>
<!-- Node4&#45;&gt;Node5 -->
<g id="edge4_Node000004_Node000005" class="edge">
<title>Node4&#45;&gt;Node5</title>
<g id="a_edge4_Node000004_Node000005"><a xlink:title=" ">
<path fill="none" stroke="#63b8ff" d="M419.27,-64.58C394.75,-69.68 366.28,-75.6 342.99,-80.44"/>
<polygon fill="#63b8ff" stroke="#63b8ff" points="420.08,-67.99 429.16,-62.53 418.66,-61.14 420.08,-67.99"/>
</a>
</g>
</g>
<!-- Node6 -->
<g id="Node000006" class="node">
<title>Node6</title>
<g id="a_Node000006"><a xlink:href="weights_8c.html#a522dac028ee37aae1307ffdb6d65ec1d" target="_top" xlink:title="Open and parse an IEBIN v1 model description.">
<polygon fill="white" stroke="#666666" points="345,-62.5 247,-62.5 247,-43.5 345,-43.5 345,-62.5"/>
<text text-anchor="middle" x="296" y="-50.5" font-family="Helvetica,sans-Serif" font-size="10.00">ie_weights_open</text>
</a>
</g>
</g>
<!-- Node4&#45;&gt;Node6 -->
<g id="edge5_Node000004_Node000006" class="edge">
<title>Node4&#45;&gt;Node6</title>
<g id="a_edge5_Node000004_Node000006"><a xlink:title=" ">
<path fill="none" stroke="#63b8ff" d="M398.93,-53C380.68,-53 361.7,-53 345.12,-53"/>
<polygon fill="#63b8ff" stroke="#63b8ff" points="398.97,-56.5 408.97,-53 398.97,-49.5 398.97,-56.5"/>
</a>
</g>
</g>
<!-- Node7 -->
<g id="Node000007" class="node">
<title>Node7</title>
<g id="a_Node000007"><a xlink:href="ie__api_8c.html#a84bd87043352946e9d53b0f8a5c4abe0" target="_top" xlink:title="Create an engine instance.">
<polygon fill="white" stroke="#666666" points="180,-100.5 80,-100.5 80,-81.5 180,-81.5 180,-100.5"/>
<text text-anchor="middle" x="130" y="-88.5" font-family="Helvetica,sans-Serif" font-size="10.00">ie_engine_create</text>
</a>
</g>
</g>
<!-- Node6&#45;&gt;Node7 -->
<g id="edge6_Node000006_Node000007" class="edge">
<title>Node6&#45;&gt;Node7</title>
<g id="a_edge6_Node000006_Node000007"><a xlink:title=" ">
<path fill="none" stroke="#63b8ff" d="M243.66,-64.9C220.61,-70.24 193.78,-76.45 172.09,-81.48"/>
<polygon fill="#63b8ff" stroke="#63b8ff" points="244.66,-68.26 253.62,-62.59 243.08,-61.44 244.66,-68.26"/>
</a>
</g>
</g>
<!-- Node8 -->
<g id="Node000008" class="node">
<title>Node8</title>
<g id="a_Node000008"><a xlink:href="main__infer_8c.html#a3c04138a5bfe5d72780bb7e82a18e627" target="_top" xlink:title="main.">
<polygon fill="white" stroke="#666666" points="41,-119.5 0,-119.5 0,-100.5 41,-100.5 41,-119.5"/>
<text text-anchor="middle" x="20.5" y="-107.5" font-family="Helvetica,sans-Serif" font-size="10.00">main</text>
</a>
</g>
</g>
<!-- Node6&#45;&gt;Node8 -->
<g id="edge9_Node000006_Node000008" class="edge">
<title>Node6&#45;&gt;Node8</title>
<g id="a_edge9_Node000006_Node000008"><a xlink:title=" ">
<path fill="none" stroke="#63b8ff" d="M236.59,-50.15C191.68,-49.82 128.77,-53.47 77,-72 59.63,-78.22 42.56,-91.23 32.04,-100.29"/>
<polygon fill="#63b8ff" stroke="#63b8ff" points="236.69,-53.65 246.74,-50.29 236.79,-46.65 236.69,-53.65"/>
</a>
</g>
</g>
<!-- Node10 -->
<g id="Node000010" class="node">
<title>Node10</title>
<g id="a_Node000010"><a xlink:href="test__weights_8c.html#a840291bc02cba5474a4cb46a9b9566fe" target="_top" xlink:title="Main test entrypoint.">
<polygon fill="white" stroke="#666666" points="150.5,-137.5 109.5,-137.5 109.5,-118.5 150.5,-118.5 150.5,-137.5"/>
<text text-anchor="middle" x="130" y="-125.5" font-family="Helvetica,sans-Serif" font-size="10.00">main</text>
</a>
</g>
</g>
<!-- Node6&#45;&gt;Node10 -->
<g id="edge10_Node000006_Node000010" class="edge">
<title>Node6&#45;&gt;Node10</title>
<g id="a_edge10_Node000006_Node000010"><a xlink:title=" ">
<path fill="none" stroke="#63b8ff" d="M236.84,-62.94C230.61,-65.11 224.53,-67.77 219,-71 198.63,-82.9 202.74,-97.09 183,-110 173.25,-116.38 160.98,-120.77 150.81,-123.61"/>
<polygon fill="#63b8ff" stroke="#63b8ff" points="238.19,-66.18 246.72,-59.89 236.13,-59.5 238.19,-66.18"/>
</a>
</g>
</g>
<!-- Node11 -->
<g id="Node000011" class="node">
<title>Node11</title>
<g id="a_Node000011"><a xlink:href="test__dedup__loader_8c.html#a73dca7f77cd9da376bc14e888330d88f" target="_top" xlink:title=" ">
<polygon fill="white" stroke="#666666" points="178,-24.5 82,-24.5 82,-5.5 178,-5.5 178,-24.5"/>
<text text-anchor="middle" x="130" y="-12.5" font-family="Helvetica,sans-Serif" font-size="10.00">open_and_touch</text>
</a>
</g>
</g>
<!-- Node6&#45;&gt;Node11 -->
<g id="edge11_Node000006_Node000011" class="edge">
<title>Node6&#45;&gt;Node11</title>
<g id="a_edge11_Node000006_Node000011"><a xlink:title=" ">
<path fill="none" stroke="#63b8ff" d="M243.66,-41.1C220.61,-35.76 193.78,-29.55 172.09,-24.52"/>
<polygon fill="#63b8ff" stroke="#63b8ff" points="243.08,-44.56 253.62,-43.41 244.66,-37.74 243.08,-44.56"/>
</a>
</g>
</g>
<!-- Node7&#45;&gt;Node8 -->
<g id="edge7_Node000007_Node000008" class="edge">
<title>Node7&#45;&gt;Node8</title>
<g id="a_edge7_Node000007_Node000008"><a xlink:title=" ">
<path fill="none" stroke="#63b8ff" d="M69.97,-101.43C59.57,-103.27 49.44,-105.06 41.15,-106.53"/>
<polygon fill="#63b8ff" stroke="#63b8ff" points="70.73,-104.85 79.97,-99.67 69.51,-97.96 70.73,-104.85"/>
</a>
</g>
</g>
<!-- Node9 -->
<g id="Node000009" class="node">
<title>Node9</title>
<g id="a_Node000009"><a xlink:href="test__api_8c.html#a840291bc02cba5474a4cb46a9b9566fe" target="_top" xlink:title=" ">
<polygon fill="white" stroke="#666666" points="41,-194.5 0,-194.5 0,-175.5 41,-175.5 41,-194.5"/>
<text text-anchor="middle" x="20.5" y="-182.5" font-family="Helvetica,sans-Serif" font-size="10.00">main</text>
</a>
</g>
</g>
<!-- Node7&#45;&gt;Node9 -->
<g id="edge8_Node000007_Node000009" class="edge">
<title>Node7&#45;&gt;Node9</title>
<g id="a_edge8_Node000007_Node000009"><a xlink:title=" ">
<path fill="none" stroke="#63b8ff" d="M84.88,-104.96C82.12,-106.48 79.46,-108.16 77,-110 52.87,-128.04 34.51,-159.46 26.27,-175.29"/>
<polygon fill="#63b8ff" stroke="#63b8ff" points="86.49,-108.07 93.98,-100.59 83.45,-101.76 86.49,-108.07"/>
</a>
</g>
</g>
<!-- Node12 -->
<g id="Node000012" class="node">
<title>Node12</title>
<g id="a_Node000012"><a xlink:href="test__dedup__loader_8c.html#a3c04138a5bfe5d72780bb7e82a18e627" target="_top" xlink:title=" ">
<polygon fill="white" stroke="#666666" points="41,-24.5 0,-24.5 0,-5.5 41,-5.5 41,-24.5"/>
<text text-anchor="middle" x="20.5" y="-12.5" font-family="Helvetica,sans-Serif" font-size="10.00">main</text>
</a>
</g>
</g>
<!-- Node11&#45;&gt;Node12 -->
<g id="edge12_Node000011_Node000012" class="edge">
<title>Node11&#45;&gt;Node12</title>
<g id="a_edge12_Node000011_Node000012"><a xlink:title=" ">
<path fill="none" stroke="#63b8ff" d="M71.72,-15C60.7,-15 49.87,-15 41.11,-15"/>
<polygon fill="#63b8ff" stroke="#63b8ff" points="71.85,-18.5 81.85,-15 71.85,-11.5 71.85,-18.5"/>
</a>
</g>
</g>
<!-- Node13&#45;&gt;Node4 -->
<g id="edge24_Node000013_Node000004" class="edge">
<title>Node13&#45;&gt;Node4</title>
<g id="a_edge24_Node000013_Node000004"><a xlink:title=" ">
<path fill="none" stroke="#63b8ff" d="M598.26,-83.94C571.7,-77.17 539.03,-68.83 514.29,-62.52"/>
<polygon fill="#63b8ff" stroke="#63b8ff" points="597.55,-87.38 608.1,-86.46 599.28,-80.59 597.55,-87.38"/>
</a>
</g>
</g>
<!-- Node14 -->
<g id="Node000014" class="node">
<title>Node14</title>
<g id="a_Node000014"><a xlink:href="gptoss__weights__index_8c.html#a943d5a8178000a52f6148bdbccda2252" target="_top" xlink:title="Close an index and free all owned resources.">
<polygon fill="white" stroke="#666666" points="538.5,-111 413.5,-111 413.5,-81 538.5,-81 538.5,-111"/>
<text text-anchor="start" x="421.5" y="-99" font-family="Helvetica,sans-Serif" font-size="10.00">gptoss_weights_index</text>
<text text-anchor="middle" x="476" y="-88" font-family="Helvetica,sans-Serif" font-size="10.00">_close</text>
</a>
</g>
</g>
<!-- Node13&#45;&gt;Node14 -->
<g id="edge15_Node000013_Node000014" class="edge">
<title>Node13&#45;&gt;Node14</title>
<g id="a_edge15_Node000013_Node000014"><a xlink:title=" ">
<path fill="none" stroke="#63b8ff" d="M568.88,-96C558.78,-96 548.53,-96 538.73,-96"/>
<polygon fill="#63b8ff" stroke="#63b8ff" points="568.9,-99.5 578.9,-96 568.9,-92.5 568.9,-99.5"/>
</a>
</g>
</g>
<!-- Node15 -->
<g id="Node000015" class="node">
<title>Node15</title>
<g id="a_Node000015"><a xlink:href="weights_8c.html#a06c2b7e35d1f82a11e4605e23a1976f5" target="_top" xlink:title="Close an opened weights descriptor.">
<polygon fill="white" stroke="#666666" points="346,-142.5 246,-142.5 246,-123.5 346,-123.5 346,-142.5"/>
<text text-anchor="middle" x="296" y="-130.5" font-family="Helvetica,sans-Serif" font-size="10.00">ie_weights_close</text>
</a>
</g>
</g>
<!-- Node13&#45;&gt;Node15 -->
<g id="edge16_Node000013_Node000015" class="edge">
<title>Node13&#45;&gt;Node15</title>
<g id="a_edge16_Node000013_Node000015"><a xlink:title=" ">
<path fill="none" stroke="#63b8ff" d="M601.93,-108C583.84,-112.51 562.54,-117.22 543,-120 475.25,-129.64 396.1,-132.31 346.26,-132.96"/>
<polygon fill="#63b8ff" stroke="#63b8ff" points="602.8,-111.39 611.62,-105.53 601.07,-104.61 602.8,-111.39"/>
</a>
</g>
</g>
<!-- Node15&#45;&gt;Node7 -->
<g id="edge17_Node000015_Node000007" class="edge">
<title>Node15&#45;&gt;Node7</title>
<g id="a_edge17_Node000015_Node000007"><a xlink:title=" ">
<path fill="none" stroke="#63b8ff" d="M248.03,-120.97C222.75,-114.5 191.99,-106.62 168.35,-100.57"/>
<polygon fill="#63b8ff" stroke="#63b8ff" points="247.23,-124.38 257.79,-123.47 248.97,-117.6 247.23,-124.38"/>
</a>
</g>
</g>
<!-- Node15&#45;&gt;Node8 -->
<g id="edge21_Node000015_Node000008" class="edge">
<title>Node15&#45;&gt;Node8</title>
<g id="a_edge21_Node000015_Node000008"><a xlink:title=" ">
<path fill="none" stroke="#63b8ff" d="M250.55,-144.84C205.74,-154.72 135.09,-164.59 77,-147 59.49,-141.7 42.45,-128.85 31.97,-119.78"/>
<polygon fill="#63b8ff" stroke="#63b8ff" points="251.57,-148.2 260.54,-142.55 250.01,-141.38 251.57,-148.2"/>
</a>
</g>
</g>
<!-- Node15&#45;&gt;Node10 -->
<g id="edge22_Node000015_Node000010" class="edge">
<title>Node15&#45;&gt;Node10</title>
<g id="a_edge22_Node000015_Node000010"><a xlink:title=" ">
<path fill="none" stroke="#63b8ff" d="M235.47,-131.19C205.69,-130.28 171.63,-129.24 150.71,-128.6"/>
<polygon fill="#63b8ff" stroke="#63b8ff" points="235.69,-134.69 245.79,-131.5 235.91,-127.7 235.69,-134.69"/>
</a>
</g>
</g>
<!-- Node15&#45;&gt;Node11 -->
<g id="edge23_Node000015_Node000011" class="edge">
<title>Node15&#45;&gt;Node11</title>
<g id="a_edge23_Node000015_Node000011"><a xlink:title=" ">
<path fill="none" stroke="#63b8ff" d="M241.81,-120.08C233.86,-117.06 225.99,-113.4 219,-109 214.18,-105.96 161.16,-48.07 139.82,-24.68"/>
<polygon fill="#63b8ff" stroke="#63b8ff" points="240.9,-123.47 251.5,-123.45 243.2,-116.85 240.9,-123.47"/>
</a>
</g>
</g>
<!-- Node16 -->
<g id="Node000016" class="node">
<title>Node16</title>
<g id="a_Node000016"><a xlink:href="ie__api_8c.html#a5a9a30f05ef6183f6a75811c616b3a0a" target="_top" xlink:title="Destroy an engine instance.">
<polygon fill="white" stroke="#666666" points="183,-213.5 77,-213.5 77,-194.5 183,-194.5 183,-213.5"/>
<text text-anchor="middle" x="130" y="-201.5" font-family="Helvetica,sans-Serif" font-size="10.00">ie_engine_destroy</text>
</a>
</g>
</g>
<!-- Node15&#45;&gt;Node16 -->
<g id="edge18_Node000015_Node000016" class="edge">
<title>Node15&#45;&gt;Node16</title>
<g id="a_edge18_Node000015_Node000016"><a xlink:title=" ">
<path fill="none" stroke="#63b8ff" d="M263.42,-146.67C231.01,-160.7 181.43,-182.17 153.03,-194.46"/>
<polygon fill="#63b8ff" stroke="#63b8ff" points="265.1,-149.76 272.88,-142.58 262.31,-143.34 265.1,-149.76"/>
</a>
</g>
</g>
<!-- Node16&#45;&gt;Node8 -->
<g id="edge19_Node000016_Node000008" class="edge">
<title>Node16&#45;&gt;Node8</title>
<g id="a_edge19_Node000016_Node000008"><a xlink:title=" ">
<path fill="none" stroke="#63b8ff" d="M92.71,-189.94C87.19,-187.06 81.76,-183.74 77,-180 54.81,-162.55 36.12,-134.53 27.17,-119.79"/>
<polygon fill="#63b8ff" stroke="#63b8ff" points="91.45,-193.22 101.98,-194.39 94.48,-186.91 91.45,-193.22"/>
</a>
</g>
</g>
<!-- Node16&#45;&gt;Node9 -->
<g id="edge20_Node000016_Node000009" class="edge">
<title>Node16&#45;&gt;Node9</title>
<g id="a_edge20_Node000016_Node000009"><a xlink:title=" ">
<path fill="none" stroke="#63b8ff" d="M66.71,-192.99C57.46,-191.36 48.56,-189.78 41.14,-188.47"/>
<polygon fill="#63b8ff" stroke="#63b8ff" points="66.37,-196.48 76.82,-194.78 67.59,-189.59 66.37,-196.48"/>
</a>
</g>
</g>
</g>
</svg>
